<?xml version="1.0" encoding="UTF-8" standalone="no"?>
<!DOCTYPE svg PUBLIC "-//W3C//DTD SVG 1.1//EN"
 "http://www.w3.org/Graphics/SVG/1.1/DTD/svg11.dtd">
<!-- Generated by graphviz version 2.38.0 (20140413.2041)
 -->
<!-- Title: AACodonMutSelGeneSubstitutionProcess.h Pages: 1 -->
<svg width="1109pt" height="520pt"
 viewBox="0.00 0.00 1109.27 520.00" xmlns="http://www.w3.org/2000/svg" xmlns:xlink="http://www.w3.org/1999/xlink">
<g id="graph0" class="graph" transform="scale(1 1) rotate(0) translate(4 516)">
<title>AACodonMutSelGeneSubstitutionProcess.h</title>
<!-- Node0 -->
<g id="node1" class="node"><title>Node0</title>
<polygon fill="#bfbfbf" stroke="black" points="621,-481.5 621,-511.5 785,-511.5 785,-481.5 621,-481.5"/>
<text text-anchor="start" x="629" y="-499.5" font-family="Helvetica,sans-Serif" font-size="10.00">AACodonMutSelGeneSubstitution</text>
<text text-anchor="middle" x="703" y="-488.5" font-family="Helvetica,sans-Serif" font-size="10.00">Process.h</text>
</g>
<!-- Node1 -->
<g id="node2" class="node"><title>Node1</title>
<g id="a_node2"><a xlink:href="AACodonMutSelGeneProfileProcess_8h.html" target="_top" xlink:title="AACodonMutSelGeneProfile\lProcess.h">
<polygon fill="none" stroke="black" points="418,-414.5 418,-444.5 558,-444.5 558,-414.5 418,-414.5"/>
<text text-anchor="start" x="426" y="-432.5" font-family="Helvetica,sans-Serif" font-size="10.00">AACodonMutSelGeneProfile</text>
<text text-anchor="middle" x="488" y="-421.5" font-family="Helvetica,sans-Serif" font-size="10.00">Process.h</text>
</a>
</g>
</g>
<!-- Node0&#45;&gt;Node1 -->
<g id="edge1" class="edge"><title>Node0&#45;&gt;Node1</title>
<path fill="none" stroke="midnightblue" d="M656.613,-481.476C623.665,-471.515 579.247,-458.086 544.272,-447.512"/>
<polygon fill="midnightblue" stroke="midnightblue" points="545.26,-444.155 534.675,-444.611 543.234,-450.855 545.26,-444.155"/>
</g>
<!-- Node38 -->
<g id="node39" class="node"><title>Node38</title>
<g id="a_node39"><a xlink:href="UniformRateProcess_8h.html" target="_top" xlink:title="UniformRateProcess.h">
<polygon fill="none" stroke="black" points="836,-420 836,-439 952,-439 952,-420 836,-420"/>
<text text-anchor="middle" x="894" y="-427" font-family="Helvetica,sans-Serif" font-size="10.00">UniformRateProcess.h</text>
</a>
</g>
</g>
<!-- Node0&#45;&gt;Node38 -->
<g id="edge72" class="edge"><title>Node0&#45;&gt;Node38</title>
<path fill="none" stroke="midnightblue" d="M744.444,-481.396C778.847,-469.688 827.205,-453.231 859.521,-442.234"/>
<polygon fill="midnightblue" stroke="midnightblue" points="860.663,-445.542 869.003,-439.007 858.408,-438.915 860.663,-445.542"/>
</g>
<!-- Node39 -->
<g id="node40" class="node"><title>Node39</title>
<g id="a_node40"><a xlink:href="GeneralPathSuffStatMatrixSubstitutionProcess_8h.html" target="_top" xlink:title="GeneralPathSuffStatMatrix\lSubstitutionProcess.h">
<polygon fill="none" stroke="black" points="636,-347.5 636,-377.5 770,-377.5 770,-347.5 636,-347.5"/>
<text text-anchor="start" x="644" y="-365.5" font-family="Helvetica,sans-Serif" font-size="10.00">GeneralPathSuffStatMatrix</text>
<text text-anchor="middle" x="703" y="-354.5" font-family="Helvetica,sans-Serif" font-size="10.00">SubstitutionProcess.h</text>
</a>
</g>
</g>
<!-- Node0&#45;&gt;Node39 -->
<g id="edge74" class="edge"><title>Node0&#45;&gt;Node39</title>
<path fill="none" stroke="midnightblue" d="M703,-481.374C703,-459.044 703,-415.313 703,-387.851"/>
<polygon fill="midnightblue" stroke="midnightblue" points="706.5,-387.525 703,-377.525 699.5,-387.525 706.5,-387.525"/>
</g>
<!-- Node2 -->
<g id="node3" class="node"><title>Node2</title>
<g id="a_node3"><a xlink:href="GeneProfileProcess_8h.html" target="_top" xlink:title="GeneProfileProcess.h">
<polygon fill="none" stroke="black" points="432,-353 432,-372 544,-372 544,-353 432,-353"/>
<text text-anchor="middle" x="488" y="-360" font-family="Helvetica,sans-Serif" font-size="10.00">GeneProfileProcess.h</text>
</a>
</g>
</g>
<!-- Node1&#45;&gt;Node2 -->
<g id="edge2" class="edge"><title>Node1&#45;&gt;Node2</title>
<path fill="none" stroke="midnightblue" d="M488,-414.396C488,-405.064 488,-392.714 488,-382.517"/>
<polygon fill="midnightblue" stroke="midnightblue" points="491.5,-382.195 488,-372.195 484.5,-382.195 491.5,-382.195"/>
</g>
<!-- Node34 -->
<g id="node35" class="node"><title>Node34</title>
<g id="a_node35"><a xlink:href="AACodonMutSelProfileProcess_8h.html" target="_top" xlink:title="AACodonMutSelProfileProcess.h">
<polygon fill="none" stroke="black" points="217.5,-353 217.5,-372 378.5,-372 378.5,-353 217.5,-353"/>
<text text-anchor="middle" x="298" y="-360" font-family="Helvetica,sans-Serif" font-size="10.00">AACodonMutSelProfileProcess.h</text>
</a>
</g>
</g>
<!-- Node1&#45;&gt;Node34 -->
<g id="edge63" class="edge"><title>Node1&#45;&gt;Node34</title>
<path fill="none" stroke="midnightblue" d="M446.773,-414.396C412.698,-402.739 364.86,-386.373 332.715,-375.376"/>
<polygon fill="midnightblue" stroke="midnightblue" points="333.461,-371.932 322.867,-372.007 331.195,-378.556 333.461,-371.932"/>
</g>
<!-- Node3 -->
<g id="node4" class="node"><title>Node3</title>
<g id="a_node4"><a xlink:href="PhyloProcess_8h.html" target="_top" xlink:title="PhyloProcess.h">
<polygon fill="none" stroke="black" points="445,-286 445,-305 531,-305 531,-286 445,-286"/>
<text text-anchor="middle" x="488" y="-293" font-family="Helvetica,sans-Serif" font-size="10.00">PhyloProcess.h</text>
</a>
</g>
</g>
<!-- Node2&#45;&gt;Node3 -->
<g id="edge3" class="edge"><title>Node2&#45;&gt;Node3</title>
<path fill="none" stroke="midnightblue" d="M488,-352.734C488,-343.183 488,-327.618 488,-315.283"/>
<polygon fill="midnightblue" stroke="midnightblue" points="491.5,-315.127 488,-305.127 484.5,-315.127 491.5,-315.127"/>
</g>
<!-- Node4 -->
<g id="node5" class="node"><title>Node4</title>
<g id="a_node5"><a xlink:href="SequenceAlignment_8h.html" target="_top" xlink:title="SequenceAlignment.h">
<polygon fill="none" stroke="black" points="388,-168.5 388,-187.5 500,-187.5 500,-168.5 388,-168.5"/>
<text text-anchor="middle" x="444" y="-175.5" font-family="Helvetica,sans-Serif" font-size="10.00">SequenceAlignment.h</text>
</a>
</g>
</g>
<!-- Node3&#45;&gt;Node4 -->
<g id="edge4" class="edge"><title>Node3&#45;&gt;Node4</title>
<path fill="none" stroke="midnightblue" d="M515.425,-285.947C545.35,-275.994 590.306,-259.005 600,-244 604.824,-236.534 605.344,-231.103 600,-224 588.566,-208.802 545.842,-197.123 507.991,-189.476"/>
<polygon fill="midnightblue" stroke="midnightblue" points="508.472,-186.004 497.986,-187.523 507.13,-192.874 508.472,-186.004"/>
</g>
<!-- Node11 -->
<g id="node12" class="node"><title>Node11</title>
<polygon fill="none" stroke="#bfbfbf" points="431.5,-0.5 431.5,-19.5 466.5,-19.5 466.5,-0.5 431.5,-0.5"/>
<text text-anchor="middle" x="449" y="-7.5" font-family="Helvetica,sans-Serif" font-size="10.00">map</text>
</g>
<!-- Node3&#45;&gt;Node11 -->
<g id="edge61" class="edge"><title>Node3&#45;&gt;Node11</title>
<path fill="none" stroke="midnightblue" d="M444.832,-286.286C421.048,-279.319 393.484,-266.673 379,-244 347.417,-194.56 361.493,-167.994 379,-112 389.592,-78.1214 415.984,-45.6177 433.164,-27.0119"/>
<polygon fill="midnightblue" stroke="midnightblue" points="435.755,-29.3662 440.105,-19.7055 430.68,-24.545 435.755,-29.3662"/>
</g>
<!-- Node17 -->
<g id="node18" class="node"><title>Node17</title>
<g id="a_node18"><a xlink:href="CodonSequenceAlignment_8h.html" target="_top" xlink:title="CodonSequenceAlignment.h">
<polygon fill="none" stroke="black" points="192,-224.5 192,-243.5 332,-243.5 332,-224.5 192,-224.5"/>
<text text-anchor="middle" x="262" y="-231.5" font-family="Helvetica,sans-Serif" font-size="10.00">CodonSequenceAlignment.h</text>
</a>
</g>
</g>
<!-- Node3&#45;&gt;Node17 -->
<g id="edge21" class="edge"><title>Node3&#45;&gt;Node17</title>
<path fill="none" stroke="midnightblue" d="M455.62,-285.975C415.762,-275.482 347.981,-257.637 304.112,-246.087"/>
<polygon fill="midnightblue" stroke="midnightblue" points="304.882,-242.67 294.32,-243.509 303.1,-249.44 304.882,-242.67"/>
</g>
<!-- Node19 -->
<g id="node20" class="node"><title>Node19</title>
<g id="a_node20"><a xlink:href="ZippedSequenceAlignment_8h.html" target="_top" xlink:title="ZippedSequenceAlignment.h">
<polygon fill="none" stroke="black" points="450.5,-224.5 450.5,-243.5 591.5,-243.5 591.5,-224.5 450.5,-224.5"/>
<text text-anchor="middle" x="521" y="-231.5" font-family="Helvetica,sans-Serif" font-size="10.00">ZippedSequenceAlignment.h</text>
</a>
</g>
</g>
<!-- Node3&#45;&gt;Node19 -->
<g id="edge27" class="edge"><title>Node3&#45;&gt;Node19</title>
<path fill="none" stroke="midnightblue" d="M492.728,-285.975C497.58,-277.227 505.266,-263.369 511.4,-252.309"/>
<polygon fill="midnightblue" stroke="midnightblue" points="514.491,-253.952 516.281,-243.509 508.37,-250.557 514.491,-253.952"/>
</g>
<!-- Node20 -->
<g id="node21" class="node"><title>Node20</title>
<g id="a_node21"><a xlink:href="SubstitutionProcess_8h.html" target="_top" xlink:title="SubstitutionProcess.h">
<polygon fill="none" stroke="black" points="820.5,-224.5 820.5,-243.5 933.5,-243.5 933.5,-224.5 820.5,-224.5"/>
<text text-anchor="middle" x="877" y="-231.5" font-family="Helvetica,sans-Serif" font-size="10.00">SubstitutionProcess.h</text>
</a>
</g>
</g>
<!-- Node3&#45;&gt;Node20 -->
<g id="edge29" class="edge"><title>Node3&#45;&gt;Node20</title>
<path fill="none" stroke="midnightblue" d="M519.467,-285.964C528.032,-283.824 537.336,-281.666 546,-280 659.529,-258.166 691.494,-259.913 810.25,-244.087"/>
<polygon fill="midnightblue" stroke="midnightblue" points="811.031,-247.514 820.475,-242.71 810.097,-240.576 811.031,-247.514"/>
</g>
<!-- Node30 -->
<g id="node31" class="node"><title>Node30</title>
<g id="a_node31"><a xlink:href="BranchProcess_8h.html" target="_top" xlink:title="BranchProcess.h">
<polygon fill="none" stroke="black" points="668,-168.5 668,-187.5 760,-187.5 760,-168.5 668,-168.5"/>
<text text-anchor="middle" x="714" y="-175.5" font-family="Helvetica,sans-Serif" font-size="10.00">BranchProcess.h</text>
</a>
</g>
</g>
<!-- Node3&#45;&gt;Node30 -->
<g id="edge56" class="edge"><title>Node3&#45;&gt;Node30</title>
<path fill="none" stroke="midnightblue" d="M514.202,-285.978C540.582,-276.983 582.109,-261.675 616,-244 644.598,-229.086 675.221,-207.825 694.478,-193.731"/>
<polygon fill="midnightblue" stroke="midnightblue" points="696.766,-196.392 702.719,-187.627 692.6,-190.766 696.766,-196.392"/>
</g>
<!-- Node31 -->
<g id="node32" class="node"><title>Node31</title>
<g id="a_node32"><a xlink:href="Parallel_8h.html" target="_top" xlink:title="Parallel.h">
<polygon fill="none" stroke="black" points="116.5,-224.5 116.5,-243.5 173.5,-243.5 173.5,-224.5 116.5,-224.5"/>
<text text-anchor="middle" x="145" y="-231.5" font-family="Helvetica,sans-Serif" font-size="10.00">Parallel.h</text>
</a>
</g>
</g>
<!-- Node3&#45;&gt;Node31 -->
<g id="edge59" class="edge"><title>Node3&#45;&gt;Node31</title>
<path fill="none" stroke="midnightblue" d="M444.897,-288.314C387.573,-279.878 282.899,-263.747 183.498,-243.979"/>
<polygon fill="midnightblue" stroke="midnightblue" points="184.081,-240.526 173.588,-241.992 182.705,-247.39 184.081,-240.526"/>
</g>
<!-- Node33 -->
<g id="node34" class="node"><title>Node33</title>
<polygon fill="none" stroke="#bfbfbf" points="388,-224.5 388,-243.5 432,-243.5 432,-224.5 388,-224.5"/>
<text text-anchor="middle" x="410" y="-231.5" font-family="Helvetica,sans-Serif" font-size="10.00">vector</text>
</g>
<!-- Node3&#45;&gt;Node33 -->
<g id="edge62" class="edge"><title>Node3&#45;&gt;Node33</title>
<path fill="none" stroke="midnightblue" d="M476.825,-285.975C464.429,-276.52 444.21,-261.096 429.254,-249.687"/>
<polygon fill="midnightblue" stroke="midnightblue" points="431.228,-246.791 421.155,-243.509 426.983,-252.357 431.228,-246.791"/>
</g>
<!-- Node5 -->
<g id="node6" class="node"><title>Node5</title>
<g id="a_node6"><a xlink:href="StateSpace_8h.html" target="_top" xlink:title="StateSpace.h">
<polygon fill="none" stroke="black" points="514,-112.5 514,-131.5 590,-131.5 590,-112.5 514,-112.5"/>
<text text-anchor="middle" x="552" y="-119.5" font-family="Helvetica,sans-Serif" font-size="10.00">StateSpace.h</text>
</a>
</g>
</g>
<!-- Node4&#45;&gt;Node5 -->
<g id="edge5" class="edge"><title>Node4&#45;&gt;Node5</title>
<path fill="none" stroke="midnightblue" d="M461.352,-168.324C478.672,-159.664 505.515,-146.242 525.502,-136.249"/>
<polygon fill="midnightblue" stroke="midnightblue" points="527.312,-139.257 534.691,-131.655 524.181,-132.996 527.312,-139.257"/>
</g>
<!-- Node10 -->
<g id="node11" class="node"><title>Node10</title>
<g id="a_node11"><a xlink:href="TaxonSet_8h.html" target="_top" xlink:title="TaxonSet.h">
<polygon fill="none" stroke="black" points="692.5,-56.5 692.5,-75.5 759.5,-75.5 759.5,-56.5 692.5,-56.5"/>
<text text-anchor="middle" x="726" y="-63.5" font-family="Helvetica,sans-Serif" font-size="10.00">TaxonSet.h</text>
</a>
</g>
</g>
<!-- Node4&#45;&gt;Node10 -->
<g id="edge10" class="edge"><title>Node4&#45;&gt;Node10</title>
<path fill="none" stroke="midnightblue" d="M480.672,-168.455C512.502,-160.545 559.542,-147.66 599,-132 636.562,-117.093 677.831,-94.7851 702.825,-80.5649"/>
<polygon fill="midnightblue" stroke="midnightblue" points="704.638,-83.5597 711.565,-75.5432 701.151,-77.4901 704.638,-83.5597"/>
</g>
<!-- Node12 -->
<g id="node13" class="node"><title>Node12</title>
<g id="a_node13"><a xlink:href="Random_8h.html" target="_top" xlink:title="Random.h">
<polygon fill="none" stroke="black" points="288,-56.5 288,-75.5 350,-75.5 350,-56.5 288,-56.5"/>
<text text-anchor="middle" x="319" y="-63.5" font-family="Helvetica,sans-Serif" font-size="10.00">Random.h</text>
</a>
</g>
</g>
<!-- Node4&#45;&gt;Node12 -->
<g id="edge14" class="edge"><title>Node4&#45;&gt;Node12</title>
<path fill="none" stroke="midnightblue" d="M429.653,-168.357C416.027,-159.858 395.265,-146.135 379,-132 361.694,-116.96 344.167,-97.355 332.562,-83.625"/>
<polygon fill="midnightblue" stroke="midnightblue" points="334.939,-81.0087 325.854,-75.5578 329.556,-85.4845 334.939,-81.0087"/>
</g>
<!-- Node6 -->
<g id="node7" class="node"><title>Node6</title>
<g id="a_node7"><a xlink:href="BiologicalSequences_8h.html" target="_top" xlink:title="BiologicalSequences.h">
<polygon fill="none" stroke="black" points="558,-56.5 558,-75.5 674,-75.5 674,-56.5 558,-56.5"/>
<text text-anchor="middle" x="616" y="-63.5" font-family="Helvetica,sans-Serif" font-size="10.00">BiologicalSequences.h</text>
</a>
</g>
</g>
<!-- Node5&#45;&gt;Node6 -->
<g id="edge6" class="edge"><title>Node5&#45;&gt;Node6</title>
<path fill="none" stroke="midnightblue" d="M562.283,-112.324C571.836,-104.263 586.28,-92.0765 597.784,-82.3695"/>
<polygon fill="midnightblue" stroke="midnightblue" points="600.144,-84.9577 605.53,-75.8339 595.63,-79.6076 600.144,-84.9577"/>
</g>
<!-- Node7 -->
<g id="node8" class="node"><title>Node7</title>
<polygon fill="none" stroke="#bfbfbf" points="496.5,-0.5 496.5,-19.5 541.5,-19.5 541.5,-0.5 496.5,-0.5"/>
<text text-anchor="middle" x="519" y="-7.5" font-family="Helvetica,sans-Serif" font-size="10.00">cstdlib</text>
</g>
<!-- Node6&#45;&gt;Node7 -->
<g id="edge7" class="edge"><title>Node6&#45;&gt;Node7</title>
<path fill="none" stroke="midnightblue" d="M600.415,-56.324C585.001,-47.7428 561.188,-34.486 543.29,-24.5224"/>
<polygon fill="midnightblue" stroke="midnightblue" points="544.986,-21.4606 534.546,-19.6545 541.581,-27.5767 544.986,-21.4606"/>
</g>
<!-- Node8 -->
<g id="node9" class="node"><title>Node8</title>
<polygon fill="none" stroke="#bfbfbf" points="837,-0.5 837,-19.5 891,-19.5 891,-0.5 837,-0.5"/>
<text text-anchor="middle" x="864" y="-7.5" font-family="Helvetica,sans-Serif" font-size="10.00">iostream</text>
</g>
<!-- Node6&#45;&gt;Node8 -->
<g id="edge8" class="edge"><title>Node6&#45;&gt;Node8</title>
<path fill="none" stroke="midnightblue" d="M655.296,-56.4435C702.405,-46.186 780.757,-29.1256 826.878,-19.083"/>
<polygon fill="midnightblue" stroke="midnightblue" points="827.736,-22.4783 836.762,-16.9308 826.247,-15.6386 827.736,-22.4783"/>
</g>
<!-- Node9 -->
<g id="node10" class="node"><title>Node9</title>
<polygon fill="none" stroke="#bfbfbf" points="736.5,-0.5 736.5,-19.5 777.5,-19.5 777.5,-0.5 736.5,-0.5"/>
<text text-anchor="middle" x="757" y="-7.5" font-family="Helvetica,sans-Serif" font-size="10.00">string</text>
</g>
<!-- Node6&#45;&gt;Node9 -->
<g id="edge9" class="edge"><title>Node6&#45;&gt;Node9</title>
<path fill="none" stroke="midnightblue" d="M638.342,-56.4435C662.166,-47.3194 700.045,-32.8125 726.58,-22.6501"/>
<polygon fill="midnightblue" stroke="midnightblue" points="728.055,-25.8333 736.142,-18.9883 725.551,-19.2963 728.055,-25.8333"/>
</g>
<!-- Node10&#45;&gt;Node8 -->
<g id="edge13" class="edge"><title>Node10&#45;&gt;Node8</title>
<path fill="none" stroke="midnightblue" d="M747.867,-56.4435C770.779,-47.4776 806.975,-33.314 832.866,-23.1827"/>
<polygon fill="midnightblue" stroke="midnightblue" points="834.199,-26.4198 842.236,-19.5164 831.648,-19.9011 834.199,-26.4198"/>
</g>
<!-- Node10&#45;&gt;Node9 -->
<g id="edge12" class="edge"><title>Node10&#45;&gt;Node9</title>
<path fill="none" stroke="midnightblue" d="M731.119,-56.083C735.408,-48.6127 741.658,-37.7244 746.942,-28.5199"/>
<polygon fill="midnightblue" stroke="midnightblue" points="750.033,-30.1662 751.976,-19.7511 743.962,-26.6811 750.033,-30.1662"/>
</g>
<!-- Node10&#45;&gt;Node11 -->
<g id="edge11" class="edge"><title>Node10&#45;&gt;Node11</title>
<path fill="none" stroke="midnightblue" d="M692.215,-57.8466C689.101,-57.2122 685.994,-56.5881 683,-56 596.093,-38.9265 573.676,-38.2119 487,-20 483.683,-19.303 480.211,-18.5349 476.773,-17.7501"/>
<polygon fill="midnightblue" stroke="midnightblue" points="477.278,-14.2737 466.744,-15.4 475.681,-21.0891 477.278,-14.2737"/>
</g>
<!-- Node12&#45;&gt;Node7 -->
<g id="edge16" class="edge"><title>Node12&#45;&gt;Node7</title>
<path fill="none" stroke="midnightblue" d="M350.25,-56.5625C387.306,-46.5575 448.772,-29.9614 486.407,-19.8002"/>
<polygon fill="midnightblue" stroke="midnightblue" points="487.607,-23.1014 496.349,-17.1157 485.783,-16.3434 487.607,-23.1014"/>
</g>
<!-- Node12&#45;&gt;Node8 -->
<g id="edge17" class="edge"><title>Node12&#45;&gt;Node8</title>
<path fill="none" stroke="midnightblue" d="M350.172,-62.2005C425.239,-55.4144 621.976,-37.364 786,-20 799.37,-18.5846 814.017,-16.9238 826.971,-15.4169"/>
<polygon fill="midnightblue" stroke="midnightblue" points="827.416,-18.8888 836.94,-14.249 826.601,-11.9364 827.416,-18.8888"/>
</g>
<!-- Node13 -->
<g id="node14" class="node"><title>Node13</title>
<polygon fill="none" stroke="#bfbfbf" points="163,-0.5 163,-19.5 207,-19.5 207,-0.5 163,-0.5"/>
<text text-anchor="middle" x="185" y="-7.5" font-family="Helvetica,sans-Serif" font-size="10.00">cmath</text>
</g>
<!-- Node12&#45;&gt;Node13 -->
<g id="edge15" class="edge"><title>Node12&#45;&gt;Node13</title>
<path fill="none" stroke="midnightblue" d="M297.767,-56.4435C275.616,-47.5171 240.681,-33.4387 215.564,-23.3168"/>
<polygon fill="midnightblue" stroke="midnightblue" points="216.717,-20.0079 206.133,-19.5164 214.1,-26.5006 216.717,-20.0079"/>
</g>
<!-- Node14 -->
<g id="node15" class="node"><title>Node14</title>
<polygon fill="none" stroke="#bfbfbf" points="293,-0.5 293,-19.5 345,-19.5 345,-0.5 293,-0.5"/>
<text text-anchor="middle" x="319" y="-7.5" font-family="Helvetica,sans-Serif" font-size="10.00">sstream</text>
</g>
<!-- Node12&#45;&gt;Node14 -->
<g id="edge18" class="edge"><title>Node12&#45;&gt;Node14</title>
<path fill="none" stroke="midnightblue" d="M319,-56.083C319,-49.0059 319,-38.8611 319,-29.9865"/>
<polygon fill="midnightblue" stroke="midnightblue" points="322.5,-29.751 319,-19.7511 315.5,-29.7511 322.5,-29.751"/>
</g>
<!-- Node15 -->
<g id="node16" class="node"><title>Node15</title>
<polygon fill="none" stroke="#bfbfbf" points="363,-0.5 363,-19.5 413,-19.5 413,-0.5 363,-0.5"/>
<text text-anchor="middle" x="388" y="-7.5" font-family="Helvetica,sans-Serif" font-size="10.00">iomanip</text>
</g>
<!-- Node12&#45;&gt;Node15 -->
<g id="edge19" class="edge"><title>Node12&#45;&gt;Node15</title>
<path fill="none" stroke="midnightblue" d="M330.086,-56.324C340.486,-48.1849 356.261,-35.8395 368.722,-26.0874"/>
<polygon fill="midnightblue" stroke="midnightblue" points="370.994,-28.7533 376.712,-19.8339 366.68,-23.2407 370.994,-28.7533"/>
</g>
<!-- Node16 -->
<g id="node17" class="node"><title>Node16</title>
<polygon fill="none" stroke="#bfbfbf" points="225,-0.5 225,-19.5 275,-19.5 275,-0.5 225,-0.5"/>
<text text-anchor="middle" x="250" y="-7.5" font-family="Helvetica,sans-Serif" font-size="10.00">fstream</text>
</g>
<!-- Node12&#45;&gt;Node16 -->
<g id="edge20" class="edge"><title>Node12&#45;&gt;Node16</title>
<path fill="none" stroke="midnightblue" d="M307.914,-56.324C297.514,-48.1849 281.739,-35.8395 269.278,-26.0874"/>
<polygon fill="midnightblue" stroke="midnightblue" points="271.32,-23.2407 261.288,-19.8339 267.006,-28.7533 271.32,-23.2407"/>
</g>
<!-- Node17&#45;&gt;Node4 -->
<g id="edge22" class="edge"><title>Node17&#45;&gt;Node4</title>
<path fill="none" stroke="midnightblue" d="M290.838,-224.444C321.856,-215.241 371.329,-200.562 405.618,-190.388"/>
<polygon fill="midnightblue" stroke="midnightblue" points="406.705,-193.716 415.296,-187.516 404.714,-187.006 406.705,-193.716"/>
</g>
<!-- Node17&#45;&gt;Node13 -->
<g id="edge26" class="edge"><title>Node17&#45;&gt;Node13</title>
<path fill="none" stroke="midnightblue" d="M244.05,-224.46C230.33,-216.91 212.249,-204.525 203,-188 174.266,-136.663 178.325,-63.7367 182.286,-29.765"/>
<polygon fill="midnightblue" stroke="midnightblue" points="185.76,-30.1927 183.578,-19.825 178.818,-29.2904 185.76,-30.1927"/>
</g>
<!-- Node18 -->
<g id="node19" class="node"><title>Node18</title>
<g id="a_node19"><a xlink:href="CodonStateSpace_8h.html" target="_top" xlink:title="CodonStateSpace.h">
<polygon fill="none" stroke="black" points="212,-168.5 212,-187.5 316,-187.5 316,-168.5 212,-168.5"/>
<text text-anchor="middle" x="264" y="-175.5" font-family="Helvetica,sans-Serif" font-size="10.00">CodonStateSpace.h</text>
</a>
</g>
</g>
<!-- Node17&#45;&gt;Node18 -->
<g id="edge23" class="edge"><title>Node17&#45;&gt;Node18</title>
<path fill="none" stroke="midnightblue" d="M262.33,-224.083C262.592,-217.006 262.968,-206.861 263.297,-197.986"/>
<polygon fill="midnightblue" stroke="midnightblue" points="266.803,-197.874 263.676,-187.751 259.808,-197.615 266.803,-197.874"/>
</g>
<!-- Node18&#45;&gt;Node5 -->
<g id="edge24" class="edge"><title>Node18&#45;&gt;Node5</title>
<path fill="none" stroke="midnightblue" d="M309.634,-168.444C362.681,-158.497 449.84,-142.155 503.913,-132.016"/>
<polygon fill="midnightblue" stroke="midnightblue" points="504.753,-135.42 513.937,-130.137 503.463,-128.54 504.753,-135.42"/>
</g>
<!-- Node18&#45;&gt;Node11 -->
<g id="edge25" class="edge"><title>Node18&#45;&gt;Node11</title>
<path fill="none" stroke="midnightblue" d="M262.127,-168.378C257.932,-146.547 250.264,-88.5161 279,-56 320.366,-9.19235 355.636,-35.6009 421.411,-19.7557"/>
<polygon fill="midnightblue" stroke="midnightblue" points="422.586,-23.0644 431.341,-17.0976 420.776,-16.3025 422.586,-23.0644"/>
</g>
<!-- Node19&#45;&gt;Node4 -->
<g id="edge28" class="edge"><title>Node19&#45;&gt;Node4</title>
<path fill="none" stroke="midnightblue" d="M508.629,-224.324C496.842,-216.058 478.868,-203.453 464.864,-193.632"/>
<polygon fill="midnightblue" stroke="midnightblue" points="466.538,-190.531 456.341,-187.655 462.518,-196.262 466.538,-190.531"/>
</g>
<!-- Node21 -->
<g id="node22" class="node"><title>Node21</title>
<g id="a_node22"><a xlink:href="RateProcess_8h.html" target="_top" xlink:title="RateProcess.h">
<polygon fill="none" stroke="black" points="997,-168.5 997,-187.5 1079,-187.5 1079,-168.5 997,-168.5"/>
<text text-anchor="middle" x="1038" y="-175.5" font-family="Helvetica,sans-Serif" font-size="10.00">RateProcess.h</text>
</a>
</g>
</g>
<!-- Node20&#45;&gt;Node21 -->
<g id="edge30" class="edge"><title>Node20&#45;&gt;Node21</title>
<path fill="none" stroke="midnightblue" d="M902.511,-224.444C929.596,-215.359 972.59,-200.939 1002.87,-190.783"/>
<polygon fill="midnightblue" stroke="midnightblue" points="1004.24,-194.015 1012.61,-187.516 1002.01,-187.378 1004.24,-194.015"/>
</g>
<!-- Node22 -->
<g id="node23" class="node"><title>Node22</title>
<g id="a_node23"><a xlink:href="Chrono_8h.html" target="_top" xlink:title="Chrono.h">
<polygon fill="none" stroke="black" points="932,-112.5 932,-131.5 988,-131.5 988,-112.5 932,-112.5"/>
<text text-anchor="middle" x="960" y="-119.5" font-family="Helvetica,sans-Serif" font-size="10.00">Chrono.h</text>
</a>
</g>
</g>
<!-- Node20&#45;&gt;Node22 -->
<g id="edge54" class="edge"><title>Node20&#45;&gt;Node22</title>
<path fill="none" stroke="midnightblue" d="M901.287,-224.355C917.729,-217.201 938.481,-205.371 950,-188 958.971,-174.47 961.062,-155.918 961.148,-142.096"/>
<polygon fill="midnightblue" stroke="midnightblue" points="964.638,-141.709 960.855,-131.812 957.641,-141.908 964.638,-141.709"/>
</g>
<!-- Node25 -->
<g id="node26" class="node"><title>Node25</title>
<g id="a_node26"><a xlink:href="ProfileProcess_8h.html" target="_top" xlink:title="ProfileProcess.h">
<polygon fill="none" stroke="black" points="778.5,-168.5 778.5,-187.5 867.5,-187.5 867.5,-168.5 778.5,-168.5"/>
<text text-anchor="middle" x="823" y="-175.5" font-family="Helvetica,sans-Serif" font-size="10.00">ProfileProcess.h</text>
</a>
</g>
</g>
<!-- Node20&#45;&gt;Node25 -->
<g id="edge37" class="edge"><title>Node20&#45;&gt;Node25</title>
<path fill="none" stroke="midnightblue" d="M868.083,-224.083C860.22,-216.22 848.569,-204.569 839.081,-195.081"/>
<polygon fill="midnightblue" stroke="midnightblue" points="841.297,-192.347 831.751,-187.751 836.347,-197.297 841.297,-192.347"/>
</g>
<!-- Node26 -->
<g id="node27" class="node"><title>Node26</title>
<g id="a_node27"><a xlink:href="BranchSitePath_8h.html" target="_top" xlink:title="BranchSitePath.h">
<polygon fill="none" stroke="black" points="556.5,-168.5 556.5,-187.5 649.5,-187.5 649.5,-168.5 556.5,-168.5"/>
<text text-anchor="middle" x="603" y="-175.5" font-family="Helvetica,sans-Serif" font-size="10.00">BranchSitePath.h</text>
</a>
</g>
</g>
<!-- Node20&#45;&gt;Node26 -->
<g id="edge42" class="edge"><title>Node20&#45;&gt;Node26</title>
<path fill="none" stroke="midnightblue" d="M833.584,-224.444C785.485,-214.964 707.905,-199.675 656.194,-189.483"/>
<polygon fill="midnightblue" stroke="midnightblue" points="656.701,-186.016 646.213,-187.516 655.347,-192.884 656.701,-186.016"/>
</g>
<!-- Node29 -->
<g id="node30" class="node"><title>Node29</title>
<polygon fill="none" stroke="#bfbfbf" points="885,-168.5 885,-187.5 941,-187.5 941,-168.5 885,-168.5"/>
<text text-anchor="middle" x="913" y="-175.5" font-family="Helvetica,sans-Serif" font-size="10.00">algorithm</text>
</g>
<!-- Node20&#45;&gt;Node29 -->
<g id="edge55" class="edge"><title>Node20&#45;&gt;Node29</title>
<path fill="none" stroke="midnightblue" d="M882.945,-224.083C887.977,-216.534 895.337,-205.495 901.513,-196.23"/>
<polygon fill="midnightblue" stroke="midnightblue" points="904.531,-198.013 907.166,-187.751 898.707,-194.13 904.531,-198.013"/>
</g>
<!-- Node21&#45;&gt;Node8 -->
<g id="edge31" class="edge"><title>Node21&#45;&gt;Node8</title>
<path fill="none" stroke="midnightblue" d="M1047.8,-168.227C1070.32,-147.022 1121.65,-92.0761 1092,-56 1068.3,-27.1703 959.802,-16.5085 901.43,-12.8118"/>
<polygon fill="midnightblue" stroke="midnightblue" points="901.335,-9.30007 891.145,-12.1998 900.92,-16.2877 901.335,-9.30007"/>
</g>
<!-- Node21&#45;&gt;Node22 -->
<g id="edge32" class="edge"><title>Node21&#45;&gt;Node22</title>
<path fill="none" stroke="midnightblue" d="M1025.47,-168.324C1013.41,-159.979 994.973,-147.212 980.731,-137.352"/>
<polygon fill="midnightblue" stroke="midnightblue" points="982.715,-134.469 972.501,-131.655 978.731,-140.224 982.715,-134.469"/>
</g>
<!-- Node22&#45;&gt;Node7 -->
<g id="edge36" class="edge"><title>Node22&#45;&gt;Node7</title>
<path fill="none" stroke="midnightblue" d="M931.734,-119.507C843.948,-114.652 580.026,-98.3246 549,-76 533.9,-65.1352 526.202,-44.7563 522.412,-29.702"/>
<polygon fill="midnightblue" stroke="midnightblue" points="525.826,-28.929 520.293,-19.8935 518.984,-30.4071 525.826,-28.929"/>
</g>
<!-- Node22&#45;&gt;Node8 -->
<g id="edge35" class="edge"><title>Node22&#45;&gt;Node8</title>
<path fill="none" stroke="midnightblue" d="M988.231,-114.817C1025.62,-105.335 1084.27,-85.1841 1061,-56 1041.41,-31.4283 952.754,-19.2093 901.298,-14.0877"/>
<polygon fill="midnightblue" stroke="midnightblue" points="901.514,-10.5925 891.227,-13.1285 900.85,-17.561 901.514,-10.5925"/>
</g>
<!-- Node23 -->
<g id="node24" class="node"><title>Node23</title>
<polygon fill="none" stroke="#bfbfbf" points="930.5,-56.5 930.5,-75.5 971.5,-75.5 971.5,-56.5 930.5,-56.5"/>
<text text-anchor="middle" x="951" y="-63.5" font-family="Helvetica,sans-Serif" font-size="10.00">ctime</text>
</g>
<!-- Node22&#45;&gt;Node23 -->
<g id="edge33" class="edge"><title>Node22&#45;&gt;Node23</title>
<path fill="none" stroke="midnightblue" d="M958.514,-112.083C957.321,-104.927 955.606,-94.6353 954.115,-85.6911"/>
<polygon fill="midnightblue" stroke="midnightblue" points="957.555,-85.0396 952.459,-75.7511 950.65,-86.1904 957.555,-85.0396"/>
</g>
<!-- Node24 -->
<g id="node25" class="node"><title>Node24</title>
<polygon fill="none" stroke="#bfbfbf" points="990,-56.5 990,-75.5 1052,-75.5 1052,-56.5 990,-56.5"/>
<text text-anchor="middle" x="1021" y="-63.5" font-family="Helvetica,sans-Serif" font-size="10.00">sys/time.h</text>
</g>
<!-- Node22&#45;&gt;Node24 -->
<g id="edge34" class="edge"><title>Node22&#45;&gt;Node24</title>
<path fill="none" stroke="midnightblue" d="M969.801,-112.324C978.818,-104.341 992.406,-92.3128 1003.32,-82.6529"/>
<polygon fill="midnightblue" stroke="midnightblue" points="1005.85,-85.083 1011.02,-75.8339 1001.21,-79.8416 1005.85,-85.083"/>
</g>
<!-- Node25&#45;&gt;Node5 -->
<g id="edge39" class="edge"><title>Node25&#45;&gt;Node5</title>
<path fill="none" stroke="midnightblue" d="M780.059,-168.444C731.087,-158.685 651.218,-142.77 600.166,-132.598"/>
<polygon fill="midnightblue" stroke="midnightblue" points="600.849,-129.165 590.358,-130.643 599.481,-136.03 600.849,-129.165"/>
</g>
<!-- Node25&#45;&gt;Node8 -->
<g id="edge40" class="edge"><title>Node25&#45;&gt;Node8</title>
<path fill="none" stroke="midnightblue" d="M862.889,-168.419C906.502,-158.733 973.339,-142.906 997,-132 1036.42,-113.832 1056.96,-114.496 1077,-76 1081.1,-68.1157 1082.6,-62.9045 1077,-56 1055.31,-29.2471 956.545,-17.7786 901.443,-13.3912"/>
<polygon fill="midnightblue" stroke="midnightblue" points="901.601,-9.89324 891.366,-12.6289 901.073,-16.8733 901.601,-9.89324"/>
</g>
<!-- Node25&#45;&gt;Node11 -->
<g id="edge41" class="edge"><title>Node25&#45;&gt;Node11</title>
<path fill="none" stroke="midnightblue" d="M792.843,-168.441C718.328,-147.15 529.743,-92.3383 505,-76 486.239,-63.6117 470.133,-43.2359 460.074,-28.5979"/>
<polygon fill="midnightblue" stroke="midnightblue" points="462.798,-26.3697 454.37,-19.9489 456.954,-30.2238 462.798,-26.3697"/>
</g>
<!-- Node25&#45;&gt;Node22 -->
<g id="edge38" class="edge"><title>Node25&#45;&gt;Node22</title>
<path fill="none" stroke="midnightblue" d="M844.708,-168.444C867.355,-159.517 903.072,-145.439 928.752,-135.317"/>
<polygon fill="midnightblue" stroke="midnightblue" points="930.374,-138.44 938.394,-131.516 927.807,-131.927 930.374,-138.44"/>
</g>
<!-- Node26&#45;&gt;Node9 -->
<g id="edge43" class="edge"><title>Node26&#45;&gt;Node9</title>
<path fill="none" stroke="midnightblue" d="M642.351,-168.45C680.189,-159.632 734.064,-145.328 751,-132 779.938,-109.227 793.83,-91.4884 784,-56 781.208,-45.9205 775.491,-35.832 770.033,-27.7694"/>
<polygon fill="midnightblue" stroke="midnightblue" points="772.847,-25.6881 764.151,-19.6357 767.175,-29.7899 772.847,-25.6881"/>
</g>
<!-- Node26&#45;&gt;Node11 -->
<g id="edge44" class="edge"><title>Node26&#45;&gt;Node11</title>
<path fill="none" stroke="midnightblue" d="M569.926,-168.435C529.62,-155.913 463.93,-128.203 440,-76 433.257,-61.2911 436.767,-42.8955 441.228,-29.4318"/>
<polygon fill="midnightblue" stroke="midnightblue" points="444.585,-30.448 444.832,-19.8561 438.034,-27.9822 444.585,-30.448"/>
</g>
<!-- Node27 -->
<g id="node28" class="node"><title>Node27</title>
<g id="a_node28"><a xlink:href="Tree_8h.html" target="_top" xlink:title="Tree.h">
<polygon fill="none" stroke="black" points="698,-112.5 698,-131.5 742,-131.5 742,-112.5 698,-112.5"/>
<text text-anchor="middle" x="720" y="-119.5" font-family="Helvetica,sans-Serif" font-size="10.00">Tree.h</text>
</a>
</g>
</g>
<!-- Node26&#45;&gt;Node27 -->
<g id="edge45" class="edge"><title>Node26&#45;&gt;Node27</title>
<path fill="none" stroke="midnightblue" d="M621.539,-168.444C640.623,-159.636 670.575,-145.812 692.436,-135.722"/>
<polygon fill="midnightblue" stroke="midnightblue" points="693.935,-138.885 701.548,-131.516 691.001,-132.529 693.935,-138.885"/>
</g>
<!-- Node28 -->
<g id="node29" class="node"><title>Node28</title>
<g id="a_node29"><a xlink:href="SubMatrix_8h.html" target="_top" xlink:title="SubMatrix.h">
<polygon fill="none" stroke="black" points="388.5,-112.5 388.5,-131.5 457.5,-131.5 457.5,-112.5 388.5,-112.5"/>
<text text-anchor="middle" x="423" y="-119.5" font-family="Helvetica,sans-Serif" font-size="10.00">SubMatrix.h</text>
</a>
</g>
</g>
<!-- Node26&#45;&gt;Node28 -->
<g id="edge50" class="edge"><title>Node26&#45;&gt;Node28</title>
<path fill="none" stroke="midnightblue" d="M574.478,-168.444C543.934,-159.28 495.292,-144.688 461.397,-134.519"/>
<polygon fill="midnightblue" stroke="midnightblue" points="461.972,-131.038 451.388,-131.516 459.961,-137.742 461.972,-131.038"/>
</g>
<!-- Node27&#45;&gt;Node7 -->
<g id="edge46" class="edge"><title>Node27&#45;&gt;Node7</title>
<path fill="none" stroke="midnightblue" d="M697.749,-116.863C646.047,-107.148 521.75,-83.1566 516,-76 505.625,-63.0876 508.119,-43.6434 512.144,-29.3855"/>
<polygon fill="midnightblue" stroke="midnightblue" points="515.534,-30.2803 515.332,-19.6874 508.884,-28.0941 515.534,-30.2803"/>
</g>
<!-- Node27&#45;&gt;Node8 -->
<g id="edge48" class="edge"><title>Node27&#45;&gt;Node8</title>
<path fill="none" stroke="midnightblue" d="M742.028,-118.332C768.638,-113.989 813.165,-102.972 840,-76 852.318,-63.619 858.384,-44.3745 861.327,-30.0339"/>
<polygon fill="midnightblue" stroke="midnightblue" points="864.839,-30.2564 863.077,-19.8092 857.94,-29.0751 864.839,-30.2564"/>
</g>
<!-- Node27&#45;&gt;Node9 -->
<g id="edge47" class="edge"><title>Node27&#45;&gt;Node9</title>
<path fill="none" stroke="midnightblue" d="M734.37,-112.33C745.88,-104.469 761.189,-91.7221 768,-76 774.462,-61.0839 770.368,-42.7111 765.442,-29.3086"/>
<polygon fill="midnightblue" stroke="midnightblue" points="768.558,-27.6865 761.498,-19.7866 762.091,-30.3649 768.558,-27.6865"/>
</g>
<!-- Node27&#45;&gt;Node10 -->
<g id="edge49" class="edge"><title>Node27&#45;&gt;Node10</title>
<path fill="none" stroke="midnightblue" d="M720.991,-112.083C721.786,-104.927 722.929,-94.6353 723.923,-85.6911"/>
<polygon fill="midnightblue" stroke="midnightblue" points="727.402,-86.0765 725.028,-75.7511 720.445,-85.3034 727.402,-86.0765"/>
</g>
<!-- Node28&#45;&gt;Node8 -->
<g id="edge51" class="edge"><title>Node28&#45;&gt;Node8</title>
<path fill="none" stroke="midnightblue" d="M457.516,-116.934C542.038,-106.918 753.563,-81.4746 768,-76 798.244,-64.5316 828.347,-41.8474 846.568,-26.5481"/>
<polygon fill="midnightblue" stroke="midnightblue" points="849.213,-28.8896 854.507,-19.7122 844.646,-23.585 849.213,-28.8896"/>
</g>
<!-- Node28&#45;&gt;Node12 -->
<g id="edge53" class="edge"><title>Node28&#45;&gt;Node12</title>
<path fill="none" stroke="midnightblue" d="M406.291,-112.324C389.688,-103.703 363.998,-90.3643 344.78,-80.3855"/>
<polygon fill="midnightblue" stroke="midnightblue" points="346.156,-77.1565 335.668,-75.6545 342.93,-83.3689 346.156,-77.1565"/>
</g>
<!-- Node28&#45;&gt;Node13 -->
<g id="edge52" class="edge"><title>Node28&#45;&gt;Node13</title>
<path fill="none" stroke="midnightblue" d="M388.433,-113.325C358.547,-105.966 314.663,-93.4006 279,-76 250.65,-62.1676 221.259,-40.4466 203.053,-25.9701"/>
<polygon fill="midnightblue" stroke="midnightblue" points="205.044,-23.0791 195.068,-19.5117 200.642,-28.5217 205.044,-23.0791"/>
</g>
<!-- Node30&#45;&gt;Node22 -->
<g id="edge58" class="edge"><title>Node30&#45;&gt;Node22</title>
<path fill="none" stroke="midnightblue" d="M752.979,-168.444C799.33,-158.269 876.173,-141.401 922.062,-131.328"/>
<polygon fill="midnightblue" stroke="midnightblue" points="922.899,-134.728 931.915,-129.165 921.398,-127.89 922.899,-134.728"/>
</g>
<!-- Node30&#45;&gt;Node27 -->
<g id="edge57" class="edge"><title>Node30&#45;&gt;Node27</title>
<path fill="none" stroke="midnightblue" d="M714.991,-168.083C715.786,-160.927 716.929,-150.635 717.923,-141.691"/>
<polygon fill="midnightblue" stroke="midnightblue" points="721.402,-142.076 719.028,-131.751 714.445,-141.303 721.402,-142.076"/>
</g>
<!-- Node32 -->
<g id="node33" class="node"><title>Node32</title>
<polygon fill="none" stroke="#bfbfbf" points="114.5,-168.5 114.5,-187.5 155.5,-187.5 155.5,-168.5 114.5,-168.5"/>
<text text-anchor="middle" x="135" y="-175.5" font-family="Helvetica,sans-Serif" font-size="10.00">mpi.h</text>
</g>
<!-- Node31&#45;&gt;Node32 -->
<g id="edge60" class="edge"><title>Node31&#45;&gt;Node32</title>
<path fill="none" stroke="midnightblue" d="M143.349,-224.083C142.024,-216.927 140.118,-206.635 138.461,-197.691"/>
<polygon fill="midnightblue" stroke="midnightblue" points="141.883,-196.947 136.621,-187.751 135,-198.221 141.883,-196.947"/>
</g>
<!-- Node34&#45;&gt;Node17 -->
<g id="edge67" class="edge"><title>Node34&#45;&gt;Node17</title>
<path fill="none" stroke="midnightblue" d="M295.526,-352.805C289.72,-332.404 275.119,-281.1 267.239,-253.408"/>
<polygon fill="midnightblue" stroke="midnightblue" points="270.595,-252.416 264.492,-243.756 263.863,-254.332 270.595,-252.416"/>
</g>
<!-- Node35 -->
<g id="node36" class="node"><title>Node35</title>
<g id="a_node36"><a xlink:href="CodonSubMatrix_8h.html" target="_top" xlink:title="CodonSubMatrix.h">
<polygon fill="none" stroke="black" points="0,-224.5 0,-243.5 98,-243.5 98,-224.5 0,-224.5"/>
<text text-anchor="middle" x="49" y="-231.5" font-family="Helvetica,sans-Serif" font-size="10.00">CodonSubMatrix.h</text>
</a>
</g>
</g>
<!-- Node34&#45;&gt;Node35 -->
<g id="edge64" class="edge"><title>Node34&#45;&gt;Node35</title>
<path fill="none" stroke="midnightblue" d="M280.885,-352.805C238.048,-331.042 125.993,-274.115 74.9743,-248.196"/>
<polygon fill="midnightblue" stroke="midnightblue" points="76.406,-244.997 65.9053,-243.588 73.2355,-251.238 76.406,-244.997"/>
</g>
<!-- Node36 -->
<g id="node37" class="node"><title>Node36</title>
<g id="a_node37"><a xlink:href="GeneralPathSuffStatMatrixProfileProcess_8h.html" target="_top" xlink:title="GeneralPathSuffStatMatrix\lProfileProcess.h">
<polygon fill="none" stroke="black" points="555,-280.5 555,-310.5 689,-310.5 689,-280.5 555,-280.5"/>
<text text-anchor="start" x="563" y="-298.5" font-family="Helvetica,sans-Serif" font-size="10.00">GeneralPathSuffStatMatrix</text>
<text text-anchor="middle" x="622" y="-287.5" font-family="Helvetica,sans-Serif" font-size="10.00">ProfileProcess.h</text>
</a>
</g>
</g>
<!-- Node34&#45;&gt;Node36 -->
<g id="edge68" class="edge"><title>Node34&#45;&gt;Node36</title>
<path fill="none" stroke="midnightblue" d="M340.691,-352.936C392.559,-342.53 481.045,-324.778 544.944,-311.959"/>
<polygon fill="midnightblue" stroke="midnightblue" points="545.863,-315.344 554.979,-309.946 544.486,-308.481 545.863,-315.344"/>
</g>
<!-- Node35&#45;&gt;Node18 -->
<g id="edge65" class="edge"><title>Node35&#45;&gt;Node18</title>
<path fill="none" stroke="midnightblue" d="M83.0674,-224.444C120.18,-215.122 179.661,-200.183 220.215,-189.997"/>
<polygon fill="midnightblue" stroke="midnightblue" points="221.246,-193.347 230.092,-187.516 219.541,-186.558 221.246,-193.347"/>
</g>
<!-- Node35&#45;&gt;Node28 -->
<g id="edge66" class="edge"><title>Node35&#45;&gt;Node28</title>
<path fill="none" stroke="midnightblue" d="M53.818,-224.058C62.1424,-209.578 80.688,-181.285 105,-168 151.148,-142.783 301.937,-130.296 378.107,-125.47"/>
<polygon fill="midnightblue" stroke="midnightblue" points="378.576,-128.948 388.341,-124.839 378.145,-121.961 378.576,-128.948"/>
</g>
<!-- Node37 -->
<g id="node38" class="node"><title>Node37</title>
<g id="a_node38"><a xlink:href="MatrixProfileProcess_8h.html" target="_top" xlink:title="MatrixProfileProcess.h">
<polygon fill="none" stroke="black" points="686,-224.5 686,-243.5 802,-243.5 802,-224.5 686,-224.5"/>
<text text-anchor="middle" x="744" y="-231.5" font-family="Helvetica,sans-Serif" font-size="10.00">MatrixProfileProcess.h</text>
</a>
</g>
</g>
<!-- Node36&#45;&gt;Node37 -->
<g id="edge69" class="edge"><title>Node36&#45;&gt;Node37</title>
<path fill="none" stroke="midnightblue" d="M650.912,-280.399C671.016,-270.595 697.621,-257.619 717.238,-248.052"/>
<polygon fill="midnightblue" stroke="midnightblue" points="718.794,-251.187 726.248,-243.658 715.726,-244.896 718.794,-251.187"/>
</g>
<!-- Node37&#45;&gt;Node25 -->
<g id="edge71" class="edge"><title>Node37&#45;&gt;Node25</title>
<path fill="none" stroke="midnightblue" d="M756.693,-224.324C768.901,-215.979 787.578,-203.212 802.003,-193.352"/>
<polygon fill="midnightblue" stroke="midnightblue" points="804.058,-196.187 810.339,-187.655 800.108,-190.408 804.058,-196.187"/>
</g>
<!-- Node37&#45;&gt;Node28 -->
<g id="edge70" class="edge"><title>Node37&#45;&gt;Node28</title>
<path fill="none" stroke="midnightblue" d="M689.389,-224.465C649.222,-217.248 593.719,-205.294 547,-188 529.102,-181.375 525.9,-176.869 509,-168 488.793,-157.396 465.9,-145.418 448.816,-136.488"/>
<polygon fill="midnightblue" stroke="midnightblue" points="449.977,-133.145 439.493,-131.615 446.734,-139.349 449.977,-133.145"/>
</g>
<!-- Node38&#45;&gt;Node21 -->
<g id="edge73" class="edge"><title>Node38&#45;&gt;Node21</title>
<path fill="none" stroke="midnightblue" d="M898.957,-419.912C919.685,-383.998 999.651,-245.445 1027.98,-196.36"/>
<polygon fill="midnightblue" stroke="midnightblue" points="1031.1,-197.963 1033.06,-187.552 1025.03,-194.464 1031.1,-197.963"/>
</g>
<!-- Node39&#45;&gt;Node36 -->
<g id="edge78" class="edge"><title>Node39&#45;&gt;Node36</title>
<path fill="none" stroke="midnightblue" d="M685.424,-347.396C674.385,-338.538 659.958,-326.96 647.653,-317.086"/>
<polygon fill="midnightblue" stroke="midnightblue" points="649.531,-314.105 639.541,-310.577 645.15,-319.565 649.531,-314.105"/>
</g>
<!-- Node40 -->
<g id="node41" class="node"><title>Node40</title>
<g id="a_node41"><a xlink:href="MatrixSubstitutionProcess_8h.html" target="_top" xlink:title="MatrixSubstitutionProcess.h">
<polygon fill="none" stroke="black" points="707,-286 707,-305 847,-305 847,-286 707,-286"/>
<text text-anchor="middle" x="777" y="-293" font-family="Helvetica,sans-Serif" font-size="10.00">MatrixSubstitutionProcess.h</text>
</a>
</g>
</g>
<!-- Node39&#45;&gt;Node40 -->
<g id="edge75" class="edge"><title>Node39&#45;&gt;Node40</title>
<path fill="none" stroke="midnightblue" d="M719.057,-347.396C730.938,-336.96 747.115,-322.751 759.356,-311.998"/>
<polygon fill="midnightblue" stroke="midnightblue" points="761.898,-314.424 767.102,-305.195 757.279,-309.164 761.898,-314.424"/>
</g>
<!-- Node40&#45;&gt;Node20 -->
<g id="edge76" class="edge"><title>Node40&#45;&gt;Node20</title>
<path fill="none" stroke="midnightblue" d="M791.328,-285.975C807.664,-276.255 834.602,-260.227 853.912,-248.737"/>
<polygon fill="midnightblue" stroke="midnightblue" points="855.895,-251.63 862.699,-243.509 852.315,-245.615 855.895,-251.63"/>
</g>
<!-- Node40&#45;&gt;Node37 -->
<g id="edge77" class="edge"><title>Node40&#45;&gt;Node37</title>
<path fill="none" stroke="midnightblue" d="M772.272,-285.975C767.42,-277.227 759.734,-263.369 753.6,-252.309"/>
<polygon fill="midnightblue" stroke="midnightblue" points="756.63,-250.557 748.719,-243.509 750.509,-253.952 756.63,-250.557"/>
</g>
</g>
</svg>
