<?xml version="1.0" encoding="UTF-8" standalone="no"?>
<!DOCTYPE svg PUBLIC "-//W3C//DTD SVG 1.1//EN"
 "http://www.w3.org/Graphics/SVG/1.1/DTD/svg11.dtd">
<!-- Generated by graphviz version 2.38.0 (20140413.2041)
 -->
<!-- Title: AACodonMutSelGeneProfileProcess.h Pages: 1 -->
<svg width="1068pt" height="442pt"
 viewBox="0.00 0.00 1068.00 442.00" xmlns="http://www.w3.org/2000/svg" xmlns:xlink="http://www.w3.org/1999/xlink">
<g id="graph0" class="graph" transform="scale(1 1) rotate(0) translate(4 438)">
<title>AACodonMutSelGeneProfileProcess.h</title>
<!-- Node0 -->
<g id="node1" class="node"><title>Node0</title>
<polygon fill="#bfbfbf" stroke="black" points="588,-403.5 588,-433.5 728,-433.5 728,-403.5 588,-403.5"/>
<text text-anchor="start" x="596" y="-421.5" font-family="Helvetica,sans-Serif" font-size="10.00">AACodonMutSelGeneProfile</text>
<text text-anchor="middle" x="658" y="-410.5" font-family="Helvetica,sans-Serif" font-size="10.00">Process.h</text>
</g>
<!-- Node1 -->
<g id="node2" class="node"><title>Node1</title>
<g id="a_node2"><a xlink:href="GeneProfileProcess_8h.html" target="_top" xlink:title="GeneProfileProcess.h">
<polygon fill="none" stroke="black" points="473,-347.5 473,-366.5 585,-366.5 585,-347.5 473,-347.5"/>
<text text-anchor="middle" x="529" y="-354.5" font-family="Helvetica,sans-Serif" font-size="10.00">GeneProfileProcess.h</text>
</a>
</g>
</g>
<!-- Node0&#45;&gt;Node1 -->
<g id="edge1" class="edge"><title>Node0&#45;&gt;Node1</title>
<path fill="none" stroke="midnightblue" d="M627.429,-403.399C606.075,-393.55 577.785,-380.501 557.015,-370.922"/>
<polygon fill="midnightblue" stroke="midnightblue" points="558.317,-367.668 547.771,-366.658 555.385,-374.024 558.317,-367.668"/>
</g>
<!-- Node33 -->
<g id="node34" class="node"><title>Node33</title>
<g id="a_node34"><a xlink:href="AACodonMutSelProfileProcess_8h.html" target="_top" xlink:title="AACodonMutSelProfileProcess.h">
<polygon fill="none" stroke="black" points="707.5,-347.5 707.5,-366.5 868.5,-366.5 868.5,-347.5 707.5,-347.5"/>
<text text-anchor="middle" x="788" y="-354.5" font-family="Helvetica,sans-Serif" font-size="10.00">AACodonMutSelProfileProcess.h</text>
</a>
</g>
</g>
<!-- Node0&#45;&gt;Node33 -->
<g id="edge62" class="edge"><title>Node0&#45;&gt;Node33</title>
<path fill="none" stroke="midnightblue" d="M688.808,-403.399C710.328,-393.55 738.837,-380.501 759.768,-370.922"/>
<polygon fill="midnightblue" stroke="midnightblue" points="761.448,-374.002 769.084,-366.658 758.534,-367.637 761.448,-374.002"/>
</g>
<!-- Node2 -->
<g id="node3" class="node"><title>Node2</title>
<g id="a_node3"><a xlink:href="PhyloProcess_8h.html" target="_top" xlink:title="PhyloProcess.h">
<polygon fill="none" stroke="black" points="382,-286 382,-305 468,-305 468,-286 382,-286"/>
<text text-anchor="middle" x="425" y="-293" font-family="Helvetica,sans-Serif" font-size="10.00">PhyloProcess.h</text>
</a>
</g>
</g>
<!-- Node1&#45;&gt;Node2 -->
<g id="edge2" class="edge"><title>Node1&#45;&gt;Node2</title>
<path fill="none" stroke="midnightblue" d="M514.099,-347.475C497.032,-337.711 468.839,-321.581 448.738,-310.081"/>
<polygon fill="midnightblue" stroke="midnightblue" points="450.291,-306.937 439.873,-305.009 446.815,-313.013 450.291,-306.937"/>
</g>
<!-- Node3 -->
<g id="node4" class="node"><title>Node3</title>
<g id="a_node4"><a xlink:href="SequenceAlignment_8h.html" target="_top" xlink:title="SequenceAlignment.h">
<polygon fill="none" stroke="black" points="654,-168.5 654,-187.5 766,-187.5 766,-168.5 654,-168.5"/>
<text text-anchor="middle" x="710" y="-175.5" font-family="Helvetica,sans-Serif" font-size="10.00">SequenceAlignment.h</text>
</a>
</g>
</g>
<!-- Node2&#45;&gt;Node3 -->
<g id="edge3" class="edge"><title>Node2&#45;&gt;Node3</title>
<path fill="none" stroke="midnightblue" d="M431.886,-285.527C444.069,-270.321 470.988,-239.623 501,-224 525.615,-211.186 592.781,-197.989 644.391,-189.227"/>
<polygon fill="midnightblue" stroke="midnightblue" points="645.205,-192.64 654.489,-187.536 644.048,-185.736 645.205,-192.64"/>
</g>
<!-- Node10 -->
<g id="node11" class="node"><title>Node10</title>
<polygon fill="none" stroke="#bfbfbf" points="58.5,-0.5 58.5,-19.5 93.5,-19.5 93.5,-0.5 58.5,-0.5"/>
<text text-anchor="middle" x="76" y="-7.5" font-family="Helvetica,sans-Serif" font-size="10.00">map</text>
</g>
<!-- Node2&#45;&gt;Node10 -->
<g id="edge60" class="edge"><title>Node2&#45;&gt;Node10</title>
<path fill="none" stroke="midnightblue" d="M381.91,-291.961C273.863,-284.422 0,-257.564 0,-179 0,-179 0,-179 0,-121 0,-81.2757 33.9641,-45.5045 56.4821,-26.1536"/>
<polygon fill="midnightblue" stroke="midnightblue" points="58.9755,-28.6337 64.4572,-19.5672 54.518,-23.2364 58.9755,-28.6337"/>
</g>
<!-- Node16 -->
<g id="node17" class="node"><title>Node16</title>
<g id="a_node17"><a xlink:href="CodonSequenceAlignment_8h.html" target="_top" xlink:title="CodonSequenceAlignment.h">
<polygon fill="none" stroke="black" points="804,-224.5 804,-243.5 944,-243.5 944,-224.5 804,-224.5"/>
<text text-anchor="middle" x="874" y="-231.5" font-family="Helvetica,sans-Serif" font-size="10.00">CodonSequenceAlignment.h</text>
</a>
</g>
</g>
<!-- Node2&#45;&gt;Node16 -->
<g id="edge20" class="edge"><title>Node2&#45;&gt;Node16</title>
<path fill="none" stroke="midnightblue" d="M468.052,-288.795C544.504,-278.664 704.807,-257.421 799.494,-244.873"/>
<polygon fill="midnightblue" stroke="midnightblue" points="800.122,-248.321 809.576,-243.537 799.203,-241.381 800.122,-248.321"/>
</g>
<!-- Node18 -->
<g id="node19" class="node"><title>Node18</title>
<g id="a_node19"><a xlink:href="ZippedSequenceAlignment_8h.html" target="_top" xlink:title="ZippedSequenceAlignment.h">
<polygon fill="none" stroke="black" points="510.5,-224.5 510.5,-243.5 651.5,-243.5 651.5,-224.5 510.5,-224.5"/>
<text text-anchor="middle" x="581" y="-231.5" font-family="Helvetica,sans-Serif" font-size="10.00">ZippedSequenceAlignment.h</text>
</a>
</g>
</g>
<!-- Node2&#45;&gt;Node18 -->
<g id="edge26" class="edge"><title>Node2&#45;&gt;Node18</title>
<path fill="none" stroke="midnightblue" d="M447.351,-285.975C473.995,-275.813 518.714,-258.756 549.014,-247.2"/>
<polygon fill="midnightblue" stroke="midnightblue" points="550.594,-250.343 558.69,-243.509 548.1,-243.803 550.594,-250.343"/>
</g>
<!-- Node19 -->
<g id="node20" class="node"><title>Node19</title>
<g id="a_node20"><a xlink:href="SubstitutionProcess_8h.html" target="_top" xlink:title="SubstitutionProcess.h">
<polygon fill="none" stroke="black" points="265.5,-224.5 265.5,-243.5 378.5,-243.5 378.5,-224.5 265.5,-224.5"/>
<text text-anchor="middle" x="322" y="-231.5" font-family="Helvetica,sans-Serif" font-size="10.00">SubstitutionProcess.h</text>
</a>
</g>
</g>
<!-- Node2&#45;&gt;Node19 -->
<g id="edge28" class="edge"><title>Node2&#45;&gt;Node19</title>
<path fill="none" stroke="midnightblue" d="M410.243,-285.975C393.339,-276.211 365.417,-260.081 345.51,-248.581"/>
<polygon fill="midnightblue" stroke="midnightblue" points="347.14,-245.481 336.73,-243.509 343.638,-251.542 347.14,-245.481"/>
</g>
<!-- Node29 -->
<g id="node30" class="node"><title>Node29</title>
<g id="a_node30"><a xlink:href="BranchProcess_8h.html" target="_top" xlink:title="BranchProcess.h">
<polygon fill="none" stroke="black" points="165,-168.5 165,-187.5 257,-187.5 257,-168.5 165,-168.5"/>
<text text-anchor="middle" x="211" y="-175.5" font-family="Helvetica,sans-Serif" font-size="10.00">BranchProcess.h</text>
</a>
</g>
</g>
<!-- Node2&#45;&gt;Node29 -->
<g id="edge55" class="edge"><title>Node2&#45;&gt;Node29</title>
<path fill="none" stroke="midnightblue" d="M381.917,-289.69C345.496,-283.849 293.422,-271.16 256,-244 239.213,-231.817 226.564,-211.366 219.017,-196.654"/>
<polygon fill="midnightblue" stroke="midnightblue" points="222.123,-195.038 214.619,-187.559 215.821,-198.085 222.123,-195.038"/>
</g>
<!-- Node30 -->
<g id="node31" class="node"><title>Node30</title>
<g id="a_node31"><a xlink:href="Parallel_8h.html" target="_top" xlink:title="Parallel.h">
<polygon fill="none" stroke="black" points="396.5,-224.5 396.5,-243.5 453.5,-243.5 453.5,-224.5 396.5,-224.5"/>
<text text-anchor="middle" x="425" y="-231.5" font-family="Helvetica,sans-Serif" font-size="10.00">Parallel.h</text>
</a>
</g>
</g>
<!-- Node2&#45;&gt;Node30 -->
<g id="edge58" class="edge"><title>Node2&#45;&gt;Node30</title>
<path fill="none" stroke="midnightblue" d="M425,-285.975C425,-277.58 425,-264.481 425,-253.663"/>
<polygon fill="midnightblue" stroke="midnightblue" points="428.5,-253.509 425,-243.509 421.5,-253.509 428.5,-253.509"/>
</g>
<!-- Node32 -->
<g id="node33" class="node"><title>Node32</title>
<polygon fill="none" stroke="#bfbfbf" points="165,-224.5 165,-243.5 209,-243.5 209,-224.5 165,-224.5"/>
<text text-anchor="middle" x="187" y="-231.5" font-family="Helvetica,sans-Serif" font-size="10.00">vector</text>
</g>
<!-- Node2&#45;&gt;Node32 -->
<g id="edge61" class="edge"><title>Node2&#45;&gt;Node32</title>
<path fill="none" stroke="midnightblue" d="M390.9,-285.975C344.991,-274.498 263.905,-254.226 219.064,-243.016"/>
<polygon fill="midnightblue" stroke="midnightblue" points="219.829,-239.6 209.278,-240.57 218.131,-246.391 219.829,-239.6"/>
</g>
<!-- Node4 -->
<g id="node5" class="node"><title>Node4</title>
<g id="a_node5"><a xlink:href="StateSpace_8h.html" target="_top" xlink:title="StateSpace.h">
<polygon fill="none" stroke="black" points="596,-112.5 596,-131.5 672,-131.5 672,-112.5 596,-112.5"/>
<text text-anchor="middle" x="634" y="-119.5" font-family="Helvetica,sans-Serif" font-size="10.00">StateSpace.h</text>
</a>
</g>
</g>
<!-- Node3&#45;&gt;Node4 -->
<g id="edge4" class="edge"><title>Node3&#45;&gt;Node4</title>
<path fill="none" stroke="midnightblue" d="M697.789,-168.324C686.224,-160.107 668.625,-147.602 654.839,-137.807"/>
<polygon fill="midnightblue" stroke="midnightblue" points="656.612,-134.773 646.433,-131.834 652.557,-140.479 656.612,-134.773"/>
</g>
<!-- Node9 -->
<g id="node10" class="node"><title>Node9</title>
<g id="a_node10"><a xlink:href="TaxonSet_8h.html" target="_top" xlink:title="TaxonSet.h">
<polygon fill="none" stroke="black" points="180.5,-56.5 180.5,-75.5 247.5,-75.5 247.5,-56.5 180.5,-56.5"/>
<text text-anchor="middle" x="214" y="-63.5" font-family="Helvetica,sans-Serif" font-size="10.00">TaxonSet.h</text>
</a>
</g>
</g>
<!-- Node3&#45;&gt;Node9 -->
<g id="edge9" class="edge"><title>Node3&#45;&gt;Node9</title>
<path fill="none" stroke="midnightblue" d="M677.862,-168.441C628.582,-155.45 531.302,-130.329 448,-112 381.94,-97.4644 304.81,-83.1399 257.698,-74.6861"/>
<polygon fill="midnightblue" stroke="midnightblue" points="258.288,-71.2362 247.829,-72.9222 257.057,-78.127 258.288,-71.2362"/>
</g>
<!-- Node11 -->
<g id="node12" class="node"><title>Node11</title>
<g id="a_node12"><a xlink:href="Random_8h.html" target="_top" xlink:title="Random.h">
<polygon fill="none" stroke="black" points="844,-56.5 844,-75.5 906,-75.5 906,-56.5 844,-56.5"/>
<text text-anchor="middle" x="875" y="-63.5" font-family="Helvetica,sans-Serif" font-size="10.00">Random.h</text>
</a>
</g>
</g>
<!-- Node3&#45;&gt;Node11 -->
<g id="edge13" class="edge"><title>Node3&#45;&gt;Node11</title>
<path fill="none" stroke="midnightblue" d="M719.975,-168.476C735.345,-155.532 765.98,-130.471 794,-112 811.74,-100.306 832.735,-88.7 848.905,-80.2043"/>
<polygon fill="midnightblue" stroke="midnightblue" points="850.544,-83.2974 857.807,-75.5844 847.319,-77.0843 850.544,-83.2974"/>
</g>
<!-- Node5 -->
<g id="node6" class="node"><title>Node5</title>
<g id="a_node6"><a xlink:href="BiologicalSequences_8h.html" target="_top" xlink:title="BiologicalSequences.h">
<polygon fill="none" stroke="black" points="596,-56.5 596,-75.5 712,-75.5 712,-56.5 596,-56.5"/>
<text text-anchor="middle" x="654" y="-63.5" font-family="Helvetica,sans-Serif" font-size="10.00">BiologicalSequences.h</text>
</a>
</g>
</g>
<!-- Node4&#45;&gt;Node5 -->
<g id="edge5" class="edge"><title>Node4&#45;&gt;Node5</title>
<path fill="none" stroke="midnightblue" d="M637.303,-112.083C639.982,-104.849 643.849,-94.4087 647.186,-85.3968"/>
<polygon fill="midnightblue" stroke="midnightblue" points="650.568,-86.3442 650.759,-75.7511 644.004,-83.9129 650.568,-86.3442"/>
</g>
<!-- Node6 -->
<g id="node7" class="node"><title>Node6</title>
<polygon fill="none" stroke="#bfbfbf" points="715.5,-0.5 715.5,-19.5 760.5,-19.5 760.5,-0.5 715.5,-0.5"/>
<text text-anchor="middle" x="738" y="-7.5" font-family="Helvetica,sans-Serif" font-size="10.00">cstdlib</text>
</g>
<!-- Node5&#45;&gt;Node6 -->
<g id="edge6" class="edge"><title>Node5&#45;&gt;Node6</title>
<path fill="none" stroke="midnightblue" d="M667.496,-56.324C680.6,-47.9002 700.712,-34.9709 716.107,-25.0741"/>
<polygon fill="midnightblue" stroke="midnightblue" points="718.018,-28.0063 724.537,-19.6545 714.233,-22.118 718.018,-28.0063"/>
</g>
<!-- Node7 -->
<g id="node8" class="node"><title>Node7</title>
<polygon fill="none" stroke="#bfbfbf" points="484,-0.5 484,-19.5 538,-19.5 538,-0.5 484,-0.5"/>
<text text-anchor="middle" x="511" y="-7.5" font-family="Helvetica,sans-Serif" font-size="10.00">iostream</text>
</g>
<!-- Node5&#45;&gt;Node7 -->
<g id="edge7" class="edge"><title>Node5&#45;&gt;Node7</title>
<path fill="none" stroke="midnightblue" d="M631.341,-56.4435C607.598,-47.4776 570.091,-33.314 543.262,-23.1827"/>
<polygon fill="midnightblue" stroke="midnightblue" points="544.144,-19.7749 533.553,-19.5164 541.671,-26.3235 544.144,-19.7749"/>
</g>
<!-- Node8 -->
<g id="node9" class="node"><title>Node8</title>
<polygon fill="none" stroke="#bfbfbf" points="162.5,-0.5 162.5,-19.5 203.5,-19.5 203.5,-0.5 162.5,-0.5"/>
<text text-anchor="middle" x="183" y="-7.5" font-family="Helvetica,sans-Serif" font-size="10.00">string</text>
</g>
<!-- Node5&#45;&gt;Node8 -->
<g id="edge8" class="edge"><title>Node5&#45;&gt;Node8</title>
<path fill="none" stroke="midnightblue" d="M595.848,-57.6701C591.164,-57.0982 586.503,-56.5354 582,-56 444.954,-39.7071 281.246,-21.7011 214.078,-14.3761"/>
<polygon fill="midnightblue" stroke="midnightblue" points="214.099,-10.8578 203.779,-13.2542 213.341,-17.8166 214.099,-10.8578"/>
</g>
<!-- Node9&#45;&gt;Node7 -->
<g id="edge12" class="edge"><title>Node9&#45;&gt;Node7</title>
<path fill="none" stroke="midnightblue" d="M247.564,-58.6777C252.407,-57.7739 257.33,-56.8597 262,-56 337.066,-42.1796 424.938,-26.39 473.653,-17.6707"/>
<polygon fill="midnightblue" stroke="midnightblue" points="474.497,-21.0755 483.724,-15.8691 473.264,-14.1849 474.497,-21.0755"/>
</g>
<!-- Node9&#45;&gt;Node8 -->
<g id="edge11" class="edge"><title>Node9&#45;&gt;Node8</title>
<path fill="none" stroke="midnightblue" d="M208.881,-56.083C204.592,-48.6127 198.342,-37.7244 193.058,-28.5199"/>
<polygon fill="midnightblue" stroke="midnightblue" points="196.038,-26.6811 188.024,-19.7511 189.967,-30.1662 196.038,-26.6811"/>
</g>
<!-- Node9&#45;&gt;Node10 -->
<g id="edge10" class="edge"><title>Node9&#45;&gt;Node10</title>
<path fill="none" stroke="midnightblue" d="M192.133,-56.4435C168.114,-47.0445 129.497,-31.9336 103.456,-21.7438"/>
<polygon fill="midnightblue" stroke="midnightblue" points="104.403,-18.3557 93.8147,-17.971 101.852,-24.8744 104.403,-18.3557"/>
</g>
<!-- Node11&#45;&gt;Node6 -->
<g id="edge15" class="edge"><title>Node11&#45;&gt;Node6</title>
<path fill="none" stroke="midnightblue" d="M853.292,-56.4435C830.645,-47.5171 794.928,-33.4387 769.248,-23.3168"/>
<polygon fill="midnightblue" stroke="midnightblue" points="770.193,-19.9273 759.606,-19.5164 767.626,-26.4397 770.193,-19.9273"/>
</g>
<!-- Node11&#45;&gt;Node7 -->
<g id="edge16" class="edge"><title>Node11&#45;&gt;Node7</title>
<path fill="none" stroke="midnightblue" d="M843.966,-60.396C777.272,-50.5019 620.502,-27.2448 548.436,-16.5537"/>
<polygon fill="midnightblue" stroke="midnightblue" points="548.844,-13.076 538.438,-15.0705 547.816,-20.0002 548.844,-13.076"/>
</g>
<!-- Node12 -->
<g id="node13" class="node"><title>Node12</title>
<polygon fill="none" stroke="#bfbfbf" points="985,-0.5 985,-19.5 1029,-19.5 1029,-0.5 985,-0.5"/>
<text text-anchor="middle" x="1007" y="-7.5" font-family="Helvetica,sans-Serif" font-size="10.00">cmath</text>
</g>
<!-- Node11&#45;&gt;Node12 -->
<g id="edge14" class="edge"><title>Node11&#45;&gt;Node12</title>
<path fill="none" stroke="midnightblue" d="M895.916,-56.4435C917.736,-47.5171 952.15,-33.4387 976.892,-23.3168"/>
<polygon fill="midnightblue" stroke="midnightblue" points="978.252,-26.5422 986.182,-19.5164 975.601,-20.0634 978.252,-26.5422"/>
</g>
<!-- Node13 -->
<g id="node14" class="node"><title>Node13</title>
<polygon fill="none" stroke="#bfbfbf" points="847,-0.5 847,-19.5 899,-19.5 899,-0.5 847,-0.5"/>
<text text-anchor="middle" x="873" y="-7.5" font-family="Helvetica,sans-Serif" font-size="10.00">sstream</text>
</g>
<!-- Node11&#45;&gt;Node13 -->
<g id="edge17" class="edge"><title>Node11&#45;&gt;Node13</title>
<path fill="none" stroke="midnightblue" d="M874.67,-56.083C874.408,-49.0059 874.032,-38.8611 873.703,-29.9865"/>
<polygon fill="midnightblue" stroke="midnightblue" points="877.192,-29.6147 873.324,-19.7511 870.197,-29.8738 877.192,-29.6147"/>
</g>
<!-- Node14 -->
<g id="node15" class="node"><title>Node14</title>
<polygon fill="none" stroke="#bfbfbf" points="917,-0.5 917,-19.5 967,-19.5 967,-0.5 917,-0.5"/>
<text text-anchor="middle" x="942" y="-7.5" font-family="Helvetica,sans-Serif" font-size="10.00">iomanip</text>
</g>
<!-- Node11&#45;&gt;Node14 -->
<g id="edge18" class="edge"><title>Node11&#45;&gt;Node14</title>
<path fill="none" stroke="midnightblue" d="M885.765,-56.324C895.766,-48.2631 910.887,-36.0765 922.93,-26.3695"/>
<polygon fill="midnightblue" stroke="midnightblue" points="925.45,-28.8343 931.039,-19.8339 921.057,-23.3841 925.45,-28.8343"/>
</g>
<!-- Node15 -->
<g id="node16" class="node"><title>Node15</title>
<polygon fill="none" stroke="#bfbfbf" points="779,-0.5 779,-19.5 829,-19.5 829,-0.5 779,-0.5"/>
<text text-anchor="middle" x="804" y="-7.5" font-family="Helvetica,sans-Serif" font-size="10.00">fstream</text>
</g>
<!-- Node11&#45;&gt;Node15 -->
<g id="edge19" class="edge"><title>Node11&#45;&gt;Node15</title>
<path fill="none" stroke="midnightblue" d="M863.593,-56.324C852.891,-48.1849 836.659,-35.8395 823.837,-26.0874"/>
<polygon fill="midnightblue" stroke="midnightblue" points="825.693,-23.1018 815.615,-19.8339 821.456,-28.6734 825.693,-23.1018"/>
</g>
<!-- Node16&#45;&gt;Node3 -->
<g id="edge21" class="edge"><title>Node16&#45;&gt;Node3</title>
<path fill="none" stroke="midnightblue" d="M848.014,-224.444C820.304,-215.32 776.248,-200.813 745.384,-190.651"/>
<polygon fill="midnightblue" stroke="midnightblue" points="746.458,-187.32 735.865,-187.516 744.268,-193.968 746.458,-187.32"/>
</g>
<!-- Node16&#45;&gt;Node12 -->
<g id="edge25" class="edge"><title>Node16&#45;&gt;Node12</title>
<path fill="none" stroke="midnightblue" d="M890.213,-224.417C903.773,-216.526 922.804,-203.689 935,-188 973.962,-137.878 994.907,-63.7838 1003,-29.5654"/>
<polygon fill="midnightblue" stroke="midnightblue" points="1006.47,-30.1077 1005.26,-19.5818 999.638,-28.5627 1006.47,-30.1077"/>
</g>
<!-- Node17 -->
<g id="node18" class="node"><title>Node17</title>
<g id="a_node18"><a xlink:href="CodonStateSpace_8h.html" target="_top" xlink:title="CodonStateSpace.h">
<polygon fill="none" stroke="black" points="822,-168.5 822,-187.5 926,-187.5 926,-168.5 822,-168.5"/>
<text text-anchor="middle" x="874" y="-175.5" font-family="Helvetica,sans-Serif" font-size="10.00">CodonStateSpace.h</text>
</a>
</g>
</g>
<!-- Node16&#45;&gt;Node17 -->
<g id="edge22" class="edge"><title>Node16&#45;&gt;Node17</title>
<path fill="none" stroke="midnightblue" d="M874,-224.083C874,-217.006 874,-206.861 874,-197.986"/>
<polygon fill="midnightblue" stroke="midnightblue" points="877.5,-197.751 874,-187.751 870.5,-197.751 877.5,-197.751"/>
</g>
<!-- Node17&#45;&gt;Node4 -->
<g id="edge23" class="edge"><title>Node17&#45;&gt;Node4</title>
<path fill="none" stroke="midnightblue" d="M835.971,-168.444C794.192,-159.043 727.018,-143.929 681.73,-133.739"/>
<polygon fill="midnightblue" stroke="midnightblue" points="682.375,-130.297 671.851,-131.516 680.839,-137.126 682.375,-130.297"/>
</g>
<!-- Node17&#45;&gt;Node10 -->
<g id="edge24" class="edge"><title>Node17&#45;&gt;Node10</title>
<path fill="none" stroke="midnightblue" d="M851.063,-168.434C815.144,-155.212 743.282,-129.529 681,-112 573.063,-81.6223 545.432,-75.4414 435,-56 402.578,-50.2921 182.51,-23.7554 103.867,-14.3313"/>
<polygon fill="midnightblue" stroke="midnightblue" points="104.088,-10.8329 93.7425,-13.119 103.255,-17.7832 104.088,-10.8329"/>
</g>
<!-- Node18&#45;&gt;Node3 -->
<g id="edge27" class="edge"><title>Node18&#45;&gt;Node3</title>
<path fill="none" stroke="midnightblue" d="M601.44,-224.444C622.67,-215.557 656.099,-201.563 680.255,-191.451"/>
<polygon fill="midnightblue" stroke="midnightblue" points="681.782,-194.606 689.655,-187.516 679.079,-188.149 681.782,-194.606"/>
</g>
<!-- Node20 -->
<g id="node21" class="node"><title>Node20</title>
<g id="a_node21"><a xlink:href="RateProcess_8h.html" target="_top" xlink:title="RateProcess.h">
<polygon fill="none" stroke="black" points="387,-168.5 387,-187.5 469,-187.5 469,-168.5 387,-168.5"/>
<text text-anchor="middle" x="428" y="-175.5" font-family="Helvetica,sans-Serif" font-size="10.00">RateProcess.h</text>
</a>
</g>
</g>
<!-- Node19&#45;&gt;Node20 -->
<g id="edge29" class="edge"><title>Node19&#45;&gt;Node20</title>
<path fill="none" stroke="midnightblue" d="M339.031,-224.324C356.03,-215.664 382.376,-202.242 401.993,-192.249"/>
<polygon fill="midnightblue" stroke="midnightblue" points="403.69,-195.312 411.012,-187.655 400.512,-189.075 403.69,-195.312"/>
</g>
<!-- Node21 -->
<g id="node22" class="node"><title>Node21</title>
<g id="a_node22"><a xlink:href="Chrono_8h.html" target="_top" xlink:title="Chrono.h">
<polygon fill="none" stroke="black" points="383,-112.5 383,-131.5 439,-131.5 439,-112.5 383,-112.5"/>
<text text-anchor="middle" x="411" y="-119.5" font-family="Helvetica,sans-Serif" font-size="10.00">Chrono.h</text>
</a>
</g>
</g>
<!-- Node19&#45;&gt;Node21 -->
<g id="edge53" class="edge"><title>Node19&#45;&gt;Node21</title>
<path fill="none" stroke="midnightblue" d="M328.984,-224.368C343.736,-206.135 378.292,-163.426 397.508,-139.675"/>
<polygon fill="midnightblue" stroke="midnightblue" points="400.48,-141.567 404.049,-131.591 395.038,-137.164 400.48,-141.567"/>
</g>
<!-- Node24 -->
<g id="node25" class="node"><title>Node24</title>
<g id="a_node25"><a xlink:href="ProfileProcess_8h.html" target="_top" xlink:title="ProfileProcess.h">
<polygon fill="none" stroke="black" points="487.5,-168.5 487.5,-187.5 576.5,-187.5 576.5,-168.5 487.5,-168.5"/>
<text text-anchor="middle" x="532" y="-175.5" font-family="Helvetica,sans-Serif" font-size="10.00">ProfileProcess.h</text>
</a>
</g>
</g>
<!-- Node19&#45;&gt;Node24 -->
<g id="edge36" class="edge"><title>Node19&#45;&gt;Node24</title>
<path fill="none" stroke="midnightblue" d="M355.275,-224.444C391.448,-215.142 449.377,-200.246 488.981,-190.062"/>
<polygon fill="midnightblue" stroke="midnightblue" points="490.067,-193.397 498.881,-187.516 488.324,-186.617 490.067,-193.397"/>
</g>
<!-- Node25 -->
<g id="node26" class="node"><title>Node25</title>
<g id="a_node26"><a xlink:href="BranchSitePath_8h.html" target="_top" xlink:title="BranchSitePath.h">
<polygon fill="none" stroke="black" points="53.5,-168.5 53.5,-187.5 146.5,-187.5 146.5,-168.5 53.5,-168.5"/>
<text text-anchor="middle" x="100" y="-175.5" font-family="Helvetica,sans-Serif" font-size="10.00">BranchSitePath.h</text>
</a>
</g>
</g>
<!-- Node19&#45;&gt;Node25 -->
<g id="edge41" class="edge"><title>Node19&#45;&gt;Node25</title>
<path fill="none" stroke="midnightblue" d="M286.823,-224.444C248.421,-215.102 186.824,-200.119 144.945,-189.933"/>
<polygon fill="midnightblue" stroke="midnightblue" points="145.556,-186.479 135.012,-187.516 143.901,-193.281 145.556,-186.479"/>
</g>
<!-- Node28 -->
<g id="node29" class="node"><title>Node28</title>
<polygon fill="none" stroke="#bfbfbf" points="275,-168.5 275,-187.5 331,-187.5 331,-168.5 275,-168.5"/>
<text text-anchor="middle" x="303" y="-175.5" font-family="Helvetica,sans-Serif" font-size="10.00">algorithm</text>
</g>
<!-- Node19&#45;&gt;Node28 -->
<g id="edge54" class="edge"><title>Node19&#45;&gt;Node28</title>
<path fill="none" stroke="midnightblue" d="M318.863,-224.083C316.317,-216.849 312.644,-206.409 309.473,-197.397"/>
<polygon fill="midnightblue" stroke="midnightblue" points="312.7,-196.023 306.079,-187.751 306.097,-198.346 312.7,-196.023"/>
</g>
<!-- Node20&#45;&gt;Node7 -->
<g id="edge30" class="edge"><title>Node20&#45;&gt;Node7</title>
<path fill="none" stroke="midnightblue" d="M432.462,-168.075C445.64,-141.719 484.561,-63.878 502.17,-28.6608"/>
<polygon fill="midnightblue" stroke="midnightblue" points="505.374,-30.0777 506.716,-19.5681 499.113,-26.9471 505.374,-30.0777"/>
</g>
<!-- Node20&#45;&gt;Node21 -->
<g id="edge31" class="edge"><title>Node20&#45;&gt;Node21</title>
<path fill="none" stroke="midnightblue" d="M425.193,-168.083C422.915,-160.849 419.629,-150.409 416.792,-141.397"/>
<polygon fill="midnightblue" stroke="midnightblue" points="420.096,-140.239 413.755,-131.751 413.419,-142.341 420.096,-140.239"/>
</g>
<!-- Node21&#45;&gt;Node6 -->
<g id="edge35" class="edge"><title>Node21&#45;&gt;Node6</title>
<path fill="none" stroke="midnightblue" d="M439.115,-119.793C523.232,-115.898 768.576,-102.354 792,-76 807.351,-58.7294 783.373,-38.1064 762.649,-24.7931"/>
<polygon fill="midnightblue" stroke="midnightblue" points="764.449,-21.7914 754.091,-19.5661 760.801,-27.7654 764.449,-21.7914"/>
</g>
<!-- Node21&#45;&gt;Node7 -->
<g id="edge34" class="edge"><title>Node21&#45;&gt;Node7</title>
<path fill="none" stroke="midnightblue" d="M418.847,-112.368C435.569,-93.9744 474.935,-50.6712 496.407,-27.0519"/>
<polygon fill="midnightblue" stroke="midnightblue" points="499.053,-29.3452 503.19,-19.5914 493.873,-24.6365 499.053,-29.3452"/>
</g>
<!-- Node22 -->
<g id="node23" class="node"><title>Node22</title>
<polygon fill="none" stroke="#bfbfbf" points="304.5,-56.5 304.5,-75.5 345.5,-75.5 345.5,-56.5 304.5,-56.5"/>
<text text-anchor="middle" x="325" y="-63.5" font-family="Helvetica,sans-Serif" font-size="10.00">ctime</text>
</g>
<!-- Node21&#45;&gt;Node22 -->
<g id="edge32" class="edge"><title>Node21&#45;&gt;Node22</title>
<path fill="none" stroke="midnightblue" d="M397.183,-112.324C383.767,-103.9 363.176,-90.9709 347.414,-81.0741"/>
<polygon fill="midnightblue" stroke="midnightblue" points="349.113,-78.0081 338.783,-75.6545 345.391,-83.9364 349.113,-78.0081"/>
</g>
<!-- Node23 -->
<g id="node24" class="node"><title>Node23</title>
<polygon fill="none" stroke="#bfbfbf" points="364,-56.5 364,-75.5 426,-75.5 426,-56.5 364,-56.5"/>
<text text-anchor="middle" x="395" y="-63.5" font-family="Helvetica,sans-Serif" font-size="10.00">sys/time.h</text>
</g>
<!-- Node21&#45;&gt;Node23 -->
<g id="edge33" class="edge"><title>Node21&#45;&gt;Node23</title>
<path fill="none" stroke="midnightblue" d="M408.358,-112.083C406.214,-104.849 403.121,-94.4087 400.451,-85.3968"/>
<polygon fill="midnightblue" stroke="midnightblue" points="403.79,-84.3447 397.593,-75.7511 397.078,-86.3334 403.79,-84.3447"/>
</g>
<!-- Node24&#45;&gt;Node4 -->
<g id="edge38" class="edge"><title>Node24&#45;&gt;Node4</title>
<path fill="none" stroke="midnightblue" d="M548.388,-168.324C564.671,-159.703 589.867,-146.364 608.716,-136.386"/>
<polygon fill="midnightblue" stroke="midnightblue" points="610.452,-139.427 617.653,-131.655 607.177,-133.24 610.452,-139.427"/>
</g>
<!-- Node24&#45;&gt;Node7 -->
<g id="edge39" class="edge"><title>Node24&#45;&gt;Node7</title>
<path fill="none" stroke="midnightblue" d="M530.871,-168.075C527.565,-141.945 517.858,-65.2106 513.35,-29.577"/>
<polygon fill="midnightblue" stroke="midnightblue" points="516.811,-29.0497 512.084,-19.5681 509.867,-29.9283 516.811,-29.0497"/>
</g>
<!-- Node24&#45;&gt;Node10 -->
<g id="edge40" class="edge"><title>Node24&#45;&gt;Node10</title>
<path fill="none" stroke="midnightblue" d="M487.235,-169.381C484.112,-168.899 481.01,-168.433 478,-168 346.389,-149.066 298.423,-194.384 181,-132 135.717,-107.942 101.2,-55.782 85.4277,-28.4722"/>
<polygon fill="midnightblue" stroke="midnightblue" points="88.4184,-26.6493 80.4796,-19.6331 82.3103,-30.0686 88.4184,-26.6493"/>
</g>
<!-- Node24&#45;&gt;Node21 -->
<g id="edge37" class="edge"><title>Node24&#45;&gt;Node21</title>
<path fill="none" stroke="midnightblue" d="M512.827,-168.444C493.091,-159.636 462.115,-145.812 439.507,-135.722"/>
<polygon fill="midnightblue" stroke="midnightblue" points="440.641,-132.396 430.083,-131.516 437.789,-138.788 440.641,-132.396"/>
</g>
<!-- Node25&#45;&gt;Node8 -->
<g id="edge42" class="edge"><title>Node25&#45;&gt;Node8</title>
<path fill="none" stroke="midnightblue" d="M104.462,-168.075C117.64,-141.719 156.561,-63.878 174.17,-28.6608"/>
<polygon fill="midnightblue" stroke="midnightblue" points="177.374,-30.0777 178.716,-19.5681 171.113,-26.9471 177.374,-30.0777"/>
</g>
<!-- Node25&#45;&gt;Node10 -->
<g id="edge43" class="edge"><title>Node25&#45;&gt;Node10</title>
<path fill="none" stroke="midnightblue" d="M89.2855,-168.305C80.0616,-160.069 67.409,-146.789 62,-132 49.2759,-97.2101 60.5202,-53.3768 68.889,-29.1655"/>
<polygon fill="midnightblue" stroke="midnightblue" points="72.2677,-30.1186 72.4354,-19.5251 65.6981,-27.7018 72.2677,-30.1186"/>
</g>
<!-- Node26 -->
<g id="node27" class="node"><title>Node26</title>
<g id="a_node27"><a xlink:href="Tree_8h.html" target="_top" xlink:title="Tree.h">
<polygon fill="none" stroke="black" points="190,-112.5 190,-131.5 234,-131.5 234,-112.5 190,-112.5"/>
<text text-anchor="middle" x="212" y="-119.5" font-family="Helvetica,sans-Serif" font-size="10.00">Tree.h</text>
</a>
</g>
</g>
<!-- Node25&#45;&gt;Node26 -->
<g id="edge44" class="edge"><title>Node25&#45;&gt;Node26</title>
<path fill="none" stroke="midnightblue" d="M117.995,-168.324C136.038,-159.625 164.047,-146.12 184.803,-136.113"/>
<polygon fill="midnightblue" stroke="midnightblue" points="186.562,-139.15 194.05,-131.655 183.522,-132.845 186.562,-139.15"/>
</g>
<!-- Node27 -->
<g id="node28" class="node"><title>Node27</title>
<g id="a_node28"><a xlink:href="SubMatrix_8h.html" target="_top" xlink:title="SubMatrix.h">
<polygon fill="none" stroke="black" points="803.5,-112.5 803.5,-131.5 872.5,-131.5 872.5,-112.5 803.5,-112.5"/>
<text text-anchor="middle" x="838" y="-119.5" font-family="Helvetica,sans-Serif" font-size="10.00">SubMatrix.h</text>
</a>
</g>
</g>
<!-- Node25&#45;&gt;Node27 -->
<g id="edge49" class="edge"><title>Node25&#45;&gt;Node27</title>
<path fill="none" stroke="midnightblue" d="M146.706,-169.159C149.847,-168.735 152.967,-168.343 156,-168 218.979,-160.877 651.868,-134.3 793.36,-125.702"/>
<polygon fill="midnightblue" stroke="midnightblue" points="793.655,-129.191 803.424,-125.091 793.23,-122.203 793.655,-129.191"/>
</g>
<!-- Node26&#45;&gt;Node6 -->
<g id="edge45" class="edge"><title>Node26&#45;&gt;Node6</title>
<path fill="none" stroke="midnightblue" d="M234.252,-119.745C329.899,-114.261 702.112,-91.9606 721,-76 734.205,-64.8414 737.818,-44.8149 738.52,-29.9297"/>
<polygon fill="midnightblue" stroke="midnightblue" points="742.021,-29.8082 738.599,-19.7811 735.021,-29.7533 742.021,-29.8082"/>
</g>
<!-- Node26&#45;&gt;Node7 -->
<g id="edge47" class="edge"><title>Node26&#45;&gt;Node7</title>
<path fill="none" stroke="midnightblue" d="M220.298,-112.295C234.301,-98.1565 264.126,-70.3424 295,-56 353.855,-28.6591 429.411,-17.7976 473.787,-13.5781"/>
<polygon fill="midnightblue" stroke="midnightblue" points="474.182,-17.0568 483.834,-12.6863 473.563,-10.0843 474.182,-17.0568"/>
</g>
<!-- Node26&#45;&gt;Node8 -->
<g id="edge46" class="edge"><title>Node26&#45;&gt;Node8</title>
<path fill="none" stroke="midnightblue" d="M200.459,-112.49C190.521,-104.379 176.878,-91.1778 171,-76 165.114,-60.8011 169.453,-42.4593 174.483,-29.1405"/>
<polygon fill="midnightblue" stroke="midnightblue" points="177.808,-30.2652 178.483,-19.6919 171.361,-27.5363 177.808,-30.2652"/>
</g>
<!-- Node26&#45;&gt;Node9 -->
<g id="edge48" class="edge"><title>Node26&#45;&gt;Node9</title>
<path fill="none" stroke="midnightblue" d="M212.33,-112.083C212.592,-105.006 212.968,-94.8611 213.297,-85.9865"/>
<polygon fill="midnightblue" stroke="midnightblue" points="216.803,-85.8738 213.676,-75.7511 209.808,-85.6147 216.803,-85.8738"/>
</g>
<!-- Node27&#45;&gt;Node7 -->
<g id="edge50" class="edge"><title>Node27&#45;&gt;Node7</title>
<path fill="none" stroke="midnightblue" d="M825.617,-112.485C804.892,-98.6194 761.463,-71.1888 721,-56 662.63,-34.0895 590.918,-21.6031 548.196,-15.5775"/>
<polygon fill="midnightblue" stroke="midnightblue" points="548.625,-12.1037 538.243,-14.2171 547.677,-19.0392 548.625,-12.1037"/>
</g>
<!-- Node27&#45;&gt;Node11 -->
<g id="edge52" class="edge"><title>Node27&#45;&gt;Node11</title>
<path fill="none" stroke="midnightblue" d="M844.11,-112.083C849.282,-104.534 856.846,-93.4948 863.194,-84.2298"/>
<polygon fill="midnightblue" stroke="midnightblue" points="866.239,-85.9787 869.004,-75.7511 860.464,-82.0221 866.239,-85.9787"/>
</g>
<!-- Node27&#45;&gt;Node12 -->
<g id="edge51" class="edge"><title>Node27&#45;&gt;Node12</title>
<path fill="none" stroke="midnightblue" d="M853.575,-112.419C869.299,-103.636 894.17,-89.4101 915,-76 940.578,-59.5338 969.038,-39.0806 987.435,-25.5644"/>
<polygon fill="midnightblue" stroke="midnightblue" points="989.636,-28.2902 995.601,-19.5343 985.478,-22.659 989.636,-28.2902"/>
</g>
<!-- Node29&#45;&gt;Node21 -->
<g id="edge57" class="edge"><title>Node29&#45;&gt;Node21</title>
<path fill="none" stroke="midnightblue" d="M242.691,-168.444C277.929,-158.929 334.844,-143.562 372.588,-133.371"/>
<polygon fill="midnightblue" stroke="midnightblue" points="373.949,-136.629 382.691,-130.643 372.125,-129.871 373.949,-136.629"/>
</g>
<!-- Node29&#45;&gt;Node26 -->
<g id="edge56" class="edge"><title>Node29&#45;&gt;Node26</title>
<path fill="none" stroke="midnightblue" d="M211.165,-168.083C211.296,-161.006 211.484,-150.861 211.648,-141.986"/>
<polygon fill="midnightblue" stroke="midnightblue" points="215.152,-141.814 211.838,-131.751 208.153,-141.685 215.152,-141.814"/>
</g>
<!-- Node31 -->
<g id="node32" class="node"><title>Node31</title>
<polygon fill="none" stroke="#bfbfbf" points="594.5,-168.5 594.5,-187.5 635.5,-187.5 635.5,-168.5 594.5,-168.5"/>
<text text-anchor="middle" x="615" y="-175.5" font-family="Helvetica,sans-Serif" font-size="10.00">mpi.h</text>
</g>
<!-- Node30&#45;&gt;Node31 -->
<g id="edge59" class="edge"><title>Node30&#45;&gt;Node31</title>
<path fill="none" stroke="midnightblue" d="M453.656,-225.101C483.828,-216.75 532.953,-203.052 584.673,-188.058"/>
<polygon fill="midnightblue" stroke="midnightblue" points="585.731,-191.395 594.357,-185.244 583.778,-184.673 585.731,-191.395"/>
</g>
<!-- Node33&#45;&gt;Node16 -->
<g id="edge66" class="edge"><title>Node33&#45;&gt;Node16</title>
<path fill="none" stroke="midnightblue" d="M794.185,-347.298C808.379,-327.327 843.494,-277.921 862.057,-251.804"/>
<polygon fill="midnightblue" stroke="midnightblue" points="864.931,-253.802 867.871,-243.623 859.225,-249.747 864.931,-253.802"/>
</g>
<!-- Node34 -->
<g id="node35" class="node"><title>Node34</title>
<g id="a_node35"><a xlink:href="CodonSubMatrix_8h.html" target="_top" xlink:title="CodonSubMatrix.h">
<polygon fill="none" stroke="black" points="962,-224.5 962,-243.5 1060,-243.5 1060,-224.5 962,-224.5"/>
<text text-anchor="middle" x="1011" y="-231.5" font-family="Helvetica,sans-Serif" font-size="10.00">CodonSubMatrix.h</text>
</a>
</g>
</g>
<!-- Node33&#45;&gt;Node34 -->
<g id="edge63" class="edge"><title>Node33&#45;&gt;Node34</title>
<path fill="none" stroke="midnightblue" d="M803.681,-347.492C841.814,-326.8 939.658,-273.71 985.976,-248.578"/>
<polygon fill="midnightblue" stroke="midnightblue" points="987.918,-251.507 995.038,-243.661 984.579,-245.354 987.918,-251.507"/>
</g>
<!-- Node35 -->
<g id="node36" class="node"><title>Node35</title>
<g id="a_node36"><a xlink:href="GeneralPathSuffStatMatrixProfileProcess_8h.html" target="_top" xlink:title="GeneralPathSuffStatMatrix\lProfileProcess.h">
<polygon fill="none" stroke="black" points="674,-280.5 674,-310.5 808,-310.5 808,-280.5 674,-280.5"/>
<text text-anchor="start" x="682" y="-298.5" font-family="Helvetica,sans-Serif" font-size="10.00">GeneralPathSuffStatMatrix</text>
<text text-anchor="middle" x="741" y="-287.5" font-family="Helvetica,sans-Serif" font-size="10.00">ProfileProcess.h</text>
</a>
</g>
</g>
<!-- Node33&#45;&gt;Node35 -->
<g id="edge67" class="edge"><title>Node33&#45;&gt;Node35</title>
<path fill="none" stroke="midnightblue" d="M781.266,-347.475C775.317,-339.944 766.377,-328.626 758.431,-318.566"/>
<polygon fill="midnightblue" stroke="midnightblue" points="761.022,-316.201 752.077,-310.523 755.529,-320.54 761.022,-316.201"/>
</g>
<!-- Node34&#45;&gt;Node17 -->
<g id="edge64" class="edge"><title>Node34&#45;&gt;Node17</title>
<path fill="none" stroke="midnightblue" d="M989.292,-224.444C966.645,-215.517 930.928,-201.439 905.248,-191.317"/>
<polygon fill="midnightblue" stroke="midnightblue" points="906.193,-187.927 895.606,-187.516 903.626,-194.44 906.193,-187.927"/>
</g>
<!-- Node34&#45;&gt;Node27 -->
<g id="edge65" class="edge"><title>Node34&#45;&gt;Node27</title>
<path fill="none" stroke="midnightblue" d="M1002.28,-224.127C988.783,-210.726 961.587,-185.077 935,-168 914.556,-154.868 889.661,-143.401 870.21,-135.33"/>
<polygon fill="midnightblue" stroke="midnightblue" points="871.448,-132.055 860.866,-131.537 868.816,-138.541 871.448,-132.055"/>
</g>
<!-- Node36 -->
<g id="node37" class="node"><title>Node36</title>
<g id="a_node37"><a xlink:href="MatrixProfileProcess_8h.html" target="_top" xlink:title="MatrixProfileProcess.h">
<polygon fill="none" stroke="black" points="670,-224.5 670,-243.5 786,-243.5 786,-224.5 670,-224.5"/>
<text text-anchor="middle" x="728" y="-231.5" font-family="Helvetica,sans-Serif" font-size="10.00">MatrixProfileProcess.h</text>
</a>
</g>
</g>
<!-- Node35&#45;&gt;Node36 -->
<g id="edge68" class="edge"><title>Node35&#45;&gt;Node36</title>
<path fill="none" stroke="midnightblue" d="M737.919,-280.399C736.166,-272.377 733.95,-262.233 732.057,-253.569"/>
<polygon fill="midnightblue" stroke="midnightblue" points="735.446,-252.68 729.892,-243.658 728.607,-254.174 735.446,-252.68"/>
</g>
<!-- Node36&#45;&gt;Node24 -->
<g id="edge70" class="edge"><title>Node36&#45;&gt;Node24</title>
<path fill="none" stroke="midnightblue" d="M696.943,-224.444C663.397,-215.201 609.803,-200.436 572.859,-190.257"/>
<polygon fill="midnightblue" stroke="midnightblue" points="573.482,-186.798 562.911,-187.516 571.623,-193.547 573.482,-186.798"/>
</g>
<!-- Node36&#45;&gt;Node27 -->
<g id="edge69" class="edge"><title>Node36&#45;&gt;Node27</title>
<path fill="none" stroke="midnightblue" d="M737.107,-224.472C746.647,-215.494 762.02,-200.901 775,-188 791.615,-171.486 810.241,-152.166 822.903,-138.906"/>
<polygon fill="midnightblue" stroke="midnightblue" points="825.582,-141.167 829.944,-131.512 820.513,-136.34 825.582,-141.167"/>
</g>
</g>
</svg>
