<?xml version="1.0" encoding="UTF-8" standalone="no"?>
<!DOCTYPE svg PUBLIC "-//W3C//DTD SVG 1.1//EN"
 "http://www.w3.org/Graphics/SVG/1.1/DTD/svg11.dtd">
<!-- Generated by graphviz version 2.38.0 (20140413.2041)
 -->
<!-- Title: AACodonMutSelFiniteProfileProcess.h Pages: 1 -->
<svg width="265pt" height="296pt"
 viewBox="0.00 0.00 265.00 296.00" xmlns="http://www.w3.org/2000/svg" xmlns:xlink="http://www.w3.org/1999/xlink">
<g id="graph0" class="graph" transform="scale(1 1) rotate(0) translate(4 292)">
<title>AACodonMutSelFiniteProfileProcess.h</title>
<!-- Node30 -->
<g id="node1" class="node"><title>Node30</title>
<polygon fill="#bfbfbf" stroke="black" points="54.5,-257.5 54.5,-287.5 195.5,-287.5 195.5,-257.5 54.5,-257.5"/>
<text text-anchor="start" x="62.5" y="-275.5" font-family="Helvetica,sans-Serif" font-size="10.00">AACodonMutSelFiniteProfile</text>
<text text-anchor="middle" x="125" y="-264.5" font-family="Helvetica,sans-Serif" font-size="10.00">Process.h</text>
</g>
<!-- Node31 -->
<g id="node2" class="node"><title>Node31</title>
<g id="a_node2"><a xlink:href="AACodonMutSelFiniteSubstitutionProcess_8h.html" target="_top" xlink:title="AACodonMutSelFiniteSubstitution\lProcess.h">
<polygon fill="none" stroke="black" points="42.5,-190.5 42.5,-220.5 207.5,-220.5 207.5,-190.5 42.5,-190.5"/>
<text text-anchor="start" x="50.5" y="-208.5" font-family="Helvetica,sans-Serif" font-size="10.00">AACodonMutSelFiniteSubstitution</text>
<text text-anchor="middle" x="125" y="-197.5" font-family="Helvetica,sans-Serif" font-size="10.00">Process.h</text>
</a>
</g>
</g>
<!-- Node30&#45;&gt;Node31 -->
<g id="edge1" class="edge"><title>Node30&#45;&gt;Node31</title>
<path fill="none" stroke="midnightblue" d="M125,-247.108C125,-238.154 125,-228.323 125,-220.577"/>
<polygon fill="midnightblue" stroke="midnightblue" points="121.5,-247.396 125,-257.396 128.5,-247.396 121.5,-247.396"/>
</g>
<!-- Node32 -->
<g id="node3" class="node"><title>Node32</title>
<g id="a_node3"><a xlink:href="AACodonMutSelFinitePhyloProcess_8h.html" target="_top" xlink:title="AACodonMutSelFinitePhylo\lProcess.h">
<polygon fill="none" stroke="black" points="56,-123.5 56,-153.5 194,-153.5 194,-123.5 56,-123.5"/>
<text text-anchor="start" x="64" y="-141.5" font-family="Helvetica,sans-Serif" font-size="10.00">AACodonMutSelFinitePhylo</text>
<text text-anchor="middle" x="125" y="-130.5" font-family="Helvetica,sans-Serif" font-size="10.00">Process.h</text>
</a>
</g>
</g>
<!-- Node31&#45;&gt;Node32 -->
<g id="edge2" class="edge"><title>Node31&#45;&gt;Node32</title>
<path fill="none" stroke="midnightblue" d="M125,-180.108C125,-171.154 125,-161.323 125,-153.577"/>
<polygon fill="midnightblue" stroke="midnightblue" points="121.5,-180.396 125,-190.396 128.5,-180.396 121.5,-180.396"/>
</g>
<!-- Node33 -->
<g id="node4" class="node"><title>Node33</title>
<g id="a_node4"><a xlink:href="AACodonMutSelFinitePhyloProcess_8cpp.html" target="_top" xlink:title="AACodonMutSelFinitePhylo\lProcess.cpp">
<polygon fill="none" stroke="black" points="0,-56.5 0,-86.5 138,-86.5 138,-56.5 0,-56.5"/>
<text text-anchor="start" x="8" y="-74.5" font-family="Helvetica,sans-Serif" font-size="10.00">AACodonMutSelFinitePhylo</text>
<text text-anchor="middle" x="69" y="-63.5" font-family="Helvetica,sans-Serif" font-size="10.00">Process.cpp</text>
</a>
</g>
</g>
<!-- Node32&#45;&gt;Node33 -->
<g id="edge3" class="edge"><title>Node32&#45;&gt;Node33</title>
<path fill="none" stroke="midnightblue" d="M106.25,-115.736C97.964,-106.119 88.4611,-95.0888 81.1275,-86.5765"/>
<polygon fill="midnightblue" stroke="midnightblue" points="103.67,-118.104 112.849,-123.396 108.973,-113.535 103.67,-118.104"/>
</g>
<!-- Node34 -->
<g id="node5" class="node"><title>Node34</title>
<g id="a_node5"><a xlink:href="Model_8h.html" target="_top" xlink:title="Model.h">
<polygon fill="none" stroke="black" points="156.5,-62 156.5,-81 207.5,-81 207.5,-62 156.5,-62"/>
<text text-anchor="middle" x="182" y="-69" font-family="Helvetica,sans-Serif" font-size="10.00">Model.h</text>
</a>
</g>
</g>
<!-- Node32&#45;&gt;Node34 -->
<g id="edge4" class="edge"><title>Node32&#45;&gt;Node34</title>
<path fill="none" stroke="midnightblue" d="M144.155,-115.657C154.496,-103.865 166.683,-89.9672 174.376,-81.1945"/>
<polygon fill="midnightblue" stroke="midnightblue" points="141.33,-113.57 137.368,-123.396 146.593,-118.185 141.33,-113.57"/>
</g>
<!-- Node35 -->
<g id="node6" class="node"><title>Node35</title>
<g id="a_node6"><a xlink:href="PB_8cpp.html" target="_top" xlink:title="PB.cpp">
<polygon fill="none" stroke="black" points="117.5,-0.5 117.5,-19.5 166.5,-19.5 166.5,-0.5 117.5,-0.5"/>
<text text-anchor="middle" x="142" y="-7.5" font-family="Helvetica,sans-Serif" font-size="10.00">PB.cpp</text>
</a>
</g>
</g>
<!-- Node34&#45;&gt;Node35 -->
<g id="edge5" class="edge"><title>Node34&#45;&gt;Node35</title>
<path fill="none" stroke="midnightblue" d="M170.575,-53.5051C163.101,-42.388 153.657,-28.3395 147.72,-19.5091"/>
<polygon fill="midnightblue" stroke="midnightblue" points="167.785,-55.6288 176.269,-61.9751 173.594,-51.7234 167.785,-55.6288"/>
</g>
<!-- Node36 -->
<g id="node7" class="node"><title>Node36</title>
<g id="a_node7"><a xlink:href="ReadPB_8cpp.html" target="_top" xlink:title="ReadPB.cpp">
<polygon fill="none" stroke="black" points="185,-0.5 185,-19.5 257,-19.5 257,-0.5 185,-0.5"/>
<text text-anchor="middle" x="221" y="-7.5" font-family="Helvetica,sans-Serif" font-size="10.00">ReadPB.cpp</text>
</a>
</g>
</g>
<!-- Node34&#45;&gt;Node36 -->
<g id="edge6" class="edge"><title>Node34&#45;&gt;Node36</title>
<path fill="none" stroke="midnightblue" d="M193.14,-53.5051C200.426,-42.388 209.635,-28.3395 215.423,-19.5091"/>
<polygon fill="midnightblue" stroke="midnightblue" points="190.143,-51.6929 187.588,-61.9751 195.997,-55.5303 190.143,-51.6929"/>
</g>
</g>
</svg>
