<?xml version="1.0" encoding="UTF-8" standalone="no"?>
<!DOCTYPE svg PUBLIC "-//W3C//DTD SVG 1.1//EN"
 "http://www.w3.org/Graphics/SVG/1.1/DTD/svg11.dtd">
<!-- Generated by graphviz version 2.38.0 (20140413.2041)
 -->
<!-- Title: AACodonMutSelFiniteSubstitutionProcess.h Pages: 1 -->
<svg width="946pt" height="520pt"
 viewBox="0.00 0.00 945.50 520.00" xmlns="http://www.w3.org/2000/svg" xmlns:xlink="http://www.w3.org/1999/xlink">
<g id="graph0" class="graph" transform="scale(1 1) rotate(0) translate(4 516)">
<title>AACodonMutSelFiniteSubstitutionProcess.h</title>
<!-- Node0 -->
<g id="node1" class="node"><title>Node0</title>
<polygon fill="#bfbfbf" stroke="black" points="502.5,-481.5 502.5,-511.5 667.5,-511.5 667.5,-481.5 502.5,-481.5"/>
<text text-anchor="start" x="510.5" y="-499.5" font-family="Helvetica,sans-Serif" font-size="10.00">AACodonMutSelFiniteSubstitution</text>
<text text-anchor="middle" x="585" y="-488.5" font-family="Helvetica,sans-Serif" font-size="10.00">Process.h</text>
</g>
<!-- Node1 -->
<g id="node2" class="node"><title>Node1</title>
<g id="a_node2"><a xlink:href="AACodonMutSelFiniteProfileProcess_8h.html" target="_top" xlink:title="AACodonMutSelFiniteProfile\lProcess.h">
<polygon fill="none" stroke="black" points="286.5,-414.5 286.5,-444.5 427.5,-444.5 427.5,-414.5 286.5,-414.5"/>
<text text-anchor="start" x="294.5" y="-432.5" font-family="Helvetica,sans-Serif" font-size="10.00">AACodonMutSelFiniteProfile</text>
<text text-anchor="middle" x="357" y="-421.5" font-family="Helvetica,sans-Serif" font-size="10.00">Process.h</text>
</a>
</g>
</g>
<!-- Node0&#45;&gt;Node1 -->
<g id="edge1" class="edge"><title>Node0&#45;&gt;Node1</title>
<path fill="none" stroke="midnightblue" d="M535.808,-481.476C500.718,-471.472 453.361,-457.971 416.199,-447.377"/>
<polygon fill="midnightblue" stroke="midnightblue" points="417.073,-443.987 406.497,-444.611 415.154,-450.719 417.073,-443.987"/>
</g>
<!-- Node31 -->
<g id="node32" class="node"><title>Node31</title>
<g id="a_node32"><a xlink:href="UniformRateProcess_8h.html" target="_top" xlink:title="UniformRateProcess.h">
<polygon fill="none" stroke="black" points="527,-420 527,-439 643,-439 643,-420 527,-420"/>
<text text-anchor="middle" x="585" y="-427" font-family="Helvetica,sans-Serif" font-size="10.00">UniformRateProcess.h</text>
</a>
</g>
</g>
<!-- Node0&#45;&gt;Node31 -->
<g id="edge55" class="edge"><title>Node0&#45;&gt;Node31</title>
<path fill="none" stroke="midnightblue" d="M585,-481.396C585,-472.064 585,-459.714 585,-449.517"/>
<polygon fill="midnightblue" stroke="midnightblue" points="588.5,-449.195 585,-439.195 581.5,-449.195 588.5,-449.195"/>
</g>
<!-- Node33 -->
<g id="node34" class="node"><title>Node33</title>
<g id="a_node34"><a xlink:href="GeneralPathSuffStatMatrixSubstitutionProcess_8h.html" target="_top" xlink:title="GeneralPathSuffStatMatrix\lSubstitutionProcess.h">
<polygon fill="none" stroke="black" points="613,-347.5 613,-377.5 747,-377.5 747,-347.5 613,-347.5"/>
<text text-anchor="start" x="621" y="-365.5" font-family="Helvetica,sans-Serif" font-size="10.00">GeneralPathSuffStatMatrix</text>
<text text-anchor="middle" x="680" y="-354.5" font-family="Helvetica,sans-Serif" font-size="10.00">SubstitutionProcess.h</text>
</a>
</g>
</g>
<!-- Node0&#45;&gt;Node33 -->
<g id="edge59" class="edge"><title>Node0&#45;&gt;Node33</title>
<path fill="none" stroke="midnightblue" d="M610.614,-481.358C624.558,-472.516 641.133,-459.97 652,-445 664.446,-427.855 671.69,-404.74 675.68,-387.506"/>
<polygon fill="midnightblue" stroke="midnightblue" points="679.121,-388.148 677.76,-377.641 672.272,-386.703 679.121,-388.148"/>
</g>
<!-- Node2 -->
<g id="node3" class="node"><title>Node2</title>
<g id="a_node3"><a xlink:href="MatrixFiniteProfileProcess_8h.html" target="_top" xlink:title="MatrixFiniteProfileProcess.h">
<polygon fill="none" stroke="black" points="52,-353 52,-372 192,-372 192,-353 52,-353"/>
<text text-anchor="middle" x="122" y="-360" font-family="Helvetica,sans-Serif" font-size="10.00">MatrixFiniteProfileProcess.h</text>
</a>
</g>
</g>
<!-- Node1&#45;&gt;Node2 -->
<g id="edge2" class="edge"><title>Node1&#45;&gt;Node2</title>
<path fill="none" stroke="midnightblue" d="M306.298,-414.476C263.26,-402.572 202.318,-385.716 162.483,-374.698"/>
<polygon fill="midnightblue" stroke="midnightblue" points="163.406,-371.321 152.834,-372.029 161.539,-378.068 163.406,-371.321"/>
</g>
<!-- Node23 -->
<g id="node24" class="node"><title>Node23</title>
<g id="a_node24"><a xlink:href="AACodonMutSelProfileProcess_8h.html" target="_top" xlink:title="AACodonMutSelProfileProcess.h">
<polygon fill="none" stroke="black" points="362.5,-353 362.5,-372 523.5,-372 523.5,-353 362.5,-353"/>
<text text-anchor="middle" x="443" y="-360" font-family="Helvetica,sans-Serif" font-size="10.00">AACodonMutSelProfileProcess.h</text>
</a>
</g>
</g>
<!-- Node1&#45;&gt;Node23 -->
<g id="edge34" class="edge"><title>Node1&#45;&gt;Node23</title>
<path fill="none" stroke="midnightblue" d="M375.661,-414.396C389.734,-403.759 408.993,-389.203 423.311,-378.381"/>
<polygon fill="midnightblue" stroke="midnightblue" points="425.629,-381.016 431.496,-372.195 421.408,-375.432 425.629,-381.016"/>
</g>
<!-- Node30 -->
<g id="node31" class="node"><title>Node30</title>
<g id="a_node31"><a xlink:href="GeneralPathSuffStatMatrixMixtureProfileProcess_8h.html" target="_top" xlink:title="GeneralPathSuffStatMatrix\lMixtureProfileProcess.h">
<polygon fill="none" stroke="black" points="210,-347.5 210,-377.5 344,-377.5 344,-347.5 210,-347.5"/>
<text text-anchor="start" x="218" y="-365.5" font-family="Helvetica,sans-Serif" font-size="10.00">GeneralPathSuffStatMatrix</text>
<text text-anchor="middle" x="277" y="-354.5" font-family="Helvetica,sans-Serif" font-size="10.00">MixtureProfileProcess.h</text>
</a>
</g>
</g>
<!-- Node1&#45;&gt;Node30 -->
<g id="edge52" class="edge"><title>Node1&#45;&gt;Node30</title>
<path fill="none" stroke="midnightblue" d="M339.641,-414.396C328.739,-405.538 314.49,-393.96 302.337,-384.086"/>
<polygon fill="midnightblue" stroke="midnightblue" points="304.293,-381.166 294.325,-377.577 299.879,-386.599 304.293,-381.166"/>
</g>
<!-- Node3 -->
<g id="node4" class="node"><title>Node3</title>
<g id="a_node4"><a xlink:href="MatrixMixtureProfileProcess_8h.html" target="_top" xlink:title="MatrixMixtureProfileProcess.h">
<polygon fill="none" stroke="black" points="166,-286 166,-305 314,-305 314,-286 166,-286"/>
<text text-anchor="middle" x="240" y="-293" font-family="Helvetica,sans-Serif" font-size="10.00">MatrixMixtureProfileProcess.h</text>
</a>
</g>
</g>
<!-- Node2&#45;&gt;Node3 -->
<g id="edge3" class="edge"><title>Node2&#45;&gt;Node3</title>
<path fill="none" stroke="midnightblue" d="M137.914,-352.734C157.819,-341.769 192.109,-322.881 215.403,-310.049"/>
<polygon fill="midnightblue" stroke="midnightblue" points="217.268,-313.018 224.338,-305.127 213.89,-306.887 217.268,-313.018"/>
</g>
<!-- Node22 -->
<g id="node23" class="node"><title>Node22</title>
<g id="a_node23"><a xlink:href="FiniteProfileProcess_8h.html" target="_top" xlink:title="FiniteProfileProcess.h">
<polygon fill="none" stroke="black" points="32.5,-286 32.5,-305 145.5,-305 145.5,-286 32.5,-286"/>
<text text-anchor="middle" x="89" y="-293" font-family="Helvetica,sans-Serif" font-size="10.00">FiniteProfileProcess.h</text>
</a>
</g>
</g>
<!-- Node2&#45;&gt;Node22 -->
<g id="edge31" class="edge"><title>Node2&#45;&gt;Node22</title>
<path fill="none" stroke="midnightblue" d="M117.549,-352.734C112.552,-342.89 104.312,-326.66 97.9655,-314.159"/>
<polygon fill="midnightblue" stroke="midnightblue" points="101.028,-312.46 93.38,-305.127 94.7862,-315.628 101.028,-312.46"/>
</g>
<!-- Node4 -->
<g id="node5" class="node"><title>Node4</title>
<g id="a_node5"><a xlink:href="MatrixProfileProcess_8h.html" target="_top" xlink:title="MatrixProfileProcess.h">
<polygon fill="none" stroke="black" points="442,-224.5 442,-243.5 558,-243.5 558,-224.5 442,-224.5"/>
<text text-anchor="middle" x="500" y="-231.5" font-family="Helvetica,sans-Serif" font-size="10.00">MatrixProfileProcess.h</text>
</a>
</g>
</g>
<!-- Node3&#45;&gt;Node4 -->
<g id="edge4" class="edge"><title>Node3&#45;&gt;Node4</title>
<path fill="none" stroke="midnightblue" d="M277.252,-285.975C323.492,-275.393 402.399,-257.336 452.822,-245.797"/>
<polygon fill="midnightblue" stroke="midnightblue" points="453.85,-249.152 462.817,-243.509 452.289,-242.328 453.85,-249.152"/>
</g>
<!-- Node21 -->
<g id="node22" class="node"><title>Node21</title>
<g id="a_node22"><a xlink:href="MixtureProfileProcess_8h.html" target="_top" xlink:title="MixtureProfileProcess.h">
<polygon fill="none" stroke="black" points="28.5,-224.5 28.5,-243.5 149.5,-243.5 149.5,-224.5 28.5,-224.5"/>
<text text-anchor="middle" x="89" y="-231.5" font-family="Helvetica,sans-Serif" font-size="10.00">MixtureProfileProcess.h</text>
</a>
</g>
</g>
<!-- Node3&#45;&gt;Node21 -->
<g id="edge28" class="edge"><title>Node3&#45;&gt;Node21</title>
<path fill="none" stroke="midnightblue" d="M218.365,-285.975C192.576,-275.813 149.289,-258.756 119.96,-247.2"/>
<polygon fill="midnightblue" stroke="midnightblue" points="121.181,-243.919 110.594,-243.509 118.615,-250.432 121.181,-243.919"/>
</g>
<!-- Node5 -->
<g id="node6" class="node"><title>Node5</title>
<g id="a_node6"><a xlink:href="SubMatrix_8h.html" target="_top" xlink:title="SubMatrix.h">
<polygon fill="none" stroke="black" points="379.5,-112.5 379.5,-131.5 448.5,-131.5 448.5,-112.5 379.5,-112.5"/>
<text text-anchor="middle" x="414" y="-119.5" font-family="Helvetica,sans-Serif" font-size="10.00">SubMatrix.h</text>
</a>
</g>
</g>
<!-- Node4&#45;&gt;Node5 -->
<g id="edge5" class="edge"><title>Node4&#45;&gt;Node5</title>
<path fill="none" stroke="midnightblue" d="M489.781,-224.329C479.957,-215.701 465.017,-201.792 454,-188 442.138,-173.15 431.011,-154.535 423.519,-141.036"/>
<polygon fill="midnightblue" stroke="midnightblue" points="426.388,-138.983 418.547,-131.858 420.233,-142.318 426.388,-138.983"/>
</g>
<!-- Node13 -->
<g id="node14" class="node"><title>Node13</title>
<g id="a_node14"><a xlink:href="ProfileProcess_8h.html" target="_top" xlink:title="ProfileProcess.h">
<polygon fill="none" stroke="black" points="463.5,-168.5 463.5,-187.5 552.5,-187.5 552.5,-168.5 463.5,-168.5"/>
<text text-anchor="middle" x="508" y="-175.5" font-family="Helvetica,sans-Serif" font-size="10.00">ProfileProcess.h</text>
</a>
</g>
</g>
<!-- Node4&#45;&gt;Node13 -->
<g id="edge15" class="edge"><title>Node4&#45;&gt;Node13</title>
<path fill="none" stroke="midnightblue" d="M501.321,-224.083C502.381,-216.927 503.906,-206.635 505.231,-197.691"/>
<polygon fill="midnightblue" stroke="midnightblue" points="508.7,-198.156 506.704,-187.751 501.776,-197.13 508.7,-198.156"/>
</g>
<!-- Node6 -->
<g id="node7" class="node"><title>Node6</title>
<polygon fill="none" stroke="#bfbfbf" points="477,-0.5 477,-19.5 531,-19.5 531,-0.5 477,-0.5"/>
<text text-anchor="middle" x="504" y="-7.5" font-family="Helvetica,sans-Serif" font-size="10.00">iostream</text>
</g>
<!-- Node5&#45;&gt;Node6 -->
<g id="edge6" class="edge"><title>Node5&#45;&gt;Node6</title>
<path fill="none" stroke="midnightblue" d="M421.062,-112.368C436.046,-94.0547 471.233,-51.0489 490.613,-27.3624"/>
<polygon fill="midnightblue" stroke="midnightblue" points="493.347,-29.5474 496.971,-19.5914 487.929,-25.1147 493.347,-29.5474"/>
</g>
<!-- Node7 -->
<g id="node8" class="node"><title>Node7</title>
<polygon fill="none" stroke="#bfbfbf" points="21,-0.5 21,-19.5 65,-19.5 65,-0.5 21,-0.5"/>
<text text-anchor="middle" x="43" y="-7.5" font-family="Helvetica,sans-Serif" font-size="10.00">cmath</text>
</g>
<!-- Node5&#45;&gt;Node7 -->
<g id="edge7" class="edge"><title>Node5&#45;&gt;Node7</title>
<path fill="none" stroke="midnightblue" d="M379.373,-114.234C375.208,-113.46 371.01,-112.699 367,-112 265.502,-94.3092 233.755,-114.023 138,-76 108.152,-64.1478 78.3417,-41.5617 60.2838,-26.3886"/>
<polygon fill="midnightblue" stroke="midnightblue" points="62.2768,-23.486 52.4145,-19.6149 57.7102,-28.7913 62.2768,-23.486"/>
</g>
<!-- Node8 -->
<g id="node9" class="node"><title>Node8</title>
<g id="a_node9"><a xlink:href="Random_8h.html" target="_top" xlink:title="Random.h">
<polygon fill="none" stroke="black" points="147,-56.5 147,-75.5 209,-75.5 209,-56.5 147,-56.5"/>
<text text-anchor="middle" x="178" y="-63.5" font-family="Helvetica,sans-Serif" font-size="10.00">Random.h</text>
</a>
</g>
</g>
<!-- Node5&#45;&gt;Node8 -->
<g id="edge8" class="edge"><title>Node5&#45;&gt;Node8</title>
<path fill="none" stroke="midnightblue" d="M379.431,-113.09C336.819,-103.34 264.488,-86.7897 219.083,-76.4004"/>
<polygon fill="midnightblue" stroke="midnightblue" points="219.796,-72.9732 209.268,-74.1544 218.235,-79.7968 219.796,-72.9732"/>
</g>
<!-- Node8&#45;&gt;Node6 -->
<g id="edge11" class="edge"><title>Node8&#45;&gt;Node6</title>
<path fill="none" stroke="midnightblue" d="M209.258,-59.8223C269.492,-49.8449 401.413,-27.9929 466.359,-17.2351"/>
<polygon fill="midnightblue" stroke="midnightblue" points="467.265,-20.6327 476.559,-15.5455 466.121,-13.7268 467.265,-20.6327"/>
</g>
<!-- Node8&#45;&gt;Node7 -->
<g id="edge9" class="edge"><title>Node8&#45;&gt;Node7</title>
<path fill="none" stroke="midnightblue" d="M156.609,-56.4435C134.293,-47.5171 99.0968,-33.4387 73.792,-23.3168"/>
<polygon fill="midnightblue" stroke="midnightblue" points="74.8757,-19.9807 64.2911,-19.5164 72.276,-26.4801 74.8757,-19.9807"/>
</g>
<!-- Node9 -->
<g id="node10" class="node"><title>Node9</title>
<polygon fill="none" stroke="#bfbfbf" points="289.5,-0.5 289.5,-19.5 334.5,-19.5 334.5,-0.5 289.5,-0.5"/>
<text text-anchor="middle" x="312" y="-7.5" font-family="Helvetica,sans-Serif" font-size="10.00">cstdlib</text>
</g>
<!-- Node8&#45;&gt;Node9 -->
<g id="edge10" class="edge"><title>Node8&#45;&gt;Node9</title>
<path fill="none" stroke="midnightblue" d="M199.233,-56.4435C221.384,-47.5171 256.319,-33.4387 281.436,-23.3168"/>
<polygon fill="midnightblue" stroke="midnightblue" points="282.9,-26.5006 290.867,-19.5164 280.283,-20.0079 282.9,-26.5006"/>
</g>
<!-- Node10 -->
<g id="node11" class="node"><title>Node10</title>
<polygon fill="none" stroke="#bfbfbf" points="151,-0.5 151,-19.5 203,-19.5 203,-0.5 151,-0.5"/>
<text text-anchor="middle" x="177" y="-7.5" font-family="Helvetica,sans-Serif" font-size="10.00">sstream</text>
</g>
<!-- Node8&#45;&gt;Node10 -->
<g id="edge12" class="edge"><title>Node8&#45;&gt;Node10</title>
<path fill="none" stroke="midnightblue" d="M177.835,-56.083C177.704,-49.0059 177.516,-38.8611 177.352,-29.9865"/>
<polygon fill="midnightblue" stroke="midnightblue" points="180.847,-29.6845 177.162,-19.7511 173.848,-29.8142 180.847,-29.6845"/>
</g>
<!-- Node11 -->
<g id="node12" class="node"><title>Node11</title>
<polygon fill="none" stroke="#bfbfbf" points="221,-0.5 221,-19.5 271,-19.5 271,-0.5 221,-0.5"/>
<text text-anchor="middle" x="246" y="-7.5" font-family="Helvetica,sans-Serif" font-size="10.00">iomanip</text>
</g>
<!-- Node8&#45;&gt;Node11 -->
<g id="edge13" class="edge"><title>Node8&#45;&gt;Node11</title>
<path fill="none" stroke="midnightblue" d="M188.925,-56.324C199.175,-48.1849 214.721,-35.8395 227.001,-26.0874"/>
<polygon fill="midnightblue" stroke="midnightblue" points="229.221,-28.7937 234.876,-19.8339 224.868,-23.3119 229.221,-28.7937"/>
</g>
<!-- Node12 -->
<g id="node13" class="node"><title>Node12</title>
<polygon fill="none" stroke="#bfbfbf" points="83,-0.5 83,-19.5 133,-19.5 133,-0.5 83,-0.5"/>
<text text-anchor="middle" x="108" y="-7.5" font-family="Helvetica,sans-Serif" font-size="10.00">fstream</text>
</g>
<!-- Node8&#45;&gt;Node12 -->
<g id="edge14" class="edge"><title>Node8&#45;&gt;Node12</title>
<path fill="none" stroke="midnightblue" d="M166.753,-56.324C156.203,-48.1849 140.199,-35.8395 127.558,-26.0874"/>
<polygon fill="midnightblue" stroke="midnightblue" points="129.507,-23.1707 119.451,-19.8339 125.231,-28.7132 129.507,-23.1707"/>
</g>
<!-- Node13&#45;&gt;Node6 -->
<g id="edge26" class="edge"><title>Node13&#45;&gt;Node6</title>
<path fill="none" stroke="midnightblue" d="M507.785,-168.075C507.155,-141.945 505.306,-65.2106 504.448,-29.577"/>
<polygon fill="midnightblue" stroke="midnightblue" points="507.946,-29.4809 504.206,-19.5681 500.948,-29.6496 507.946,-29.4809"/>
</g>
<!-- Node14 -->
<g id="node15" class="node"><title>Node14</title>
<g id="a_node15"><a xlink:href="Chrono_8h.html" target="_top" xlink:title="Chrono.h">
<polygon fill="none" stroke="black" points="582,-112.5 582,-131.5 638,-131.5 638,-112.5 582,-112.5"/>
<text text-anchor="middle" x="610" y="-119.5" font-family="Helvetica,sans-Serif" font-size="10.00">Chrono.h</text>
</a>
</g>
</g>
<!-- Node13&#45;&gt;Node14 -->
<g id="edge16" class="edge"><title>Node13&#45;&gt;Node14</title>
<path fill="none" stroke="midnightblue" d="M524.388,-168.324C540.671,-159.703 565.867,-146.364 584.716,-136.386"/>
<polygon fill="midnightblue" stroke="midnightblue" points="586.452,-139.427 593.653,-131.655 583.177,-133.24 586.452,-139.427"/>
</g>
<!-- Node17 -->
<g id="node18" class="node"><title>Node17</title>
<g id="a_node18"><a xlink:href="StateSpace_8h.html" target="_top" xlink:title="StateSpace.h">
<polygon fill="none" stroke="black" points="282,-112.5 282,-131.5 358,-131.5 358,-112.5 282,-112.5"/>
<text text-anchor="middle" x="320" y="-119.5" font-family="Helvetica,sans-Serif" font-size="10.00">StateSpace.h</text>
</a>
</g>
</g>
<!-- Node13&#45;&gt;Node17 -->
<g id="edge21" class="edge"><title>Node13&#45;&gt;Node17</title>
<path fill="none" stroke="midnightblue" d="M478.211,-168.444C446.171,-159.241 395.067,-144.562 359.647,-134.388"/>
<polygon fill="midnightblue" stroke="midnightblue" points="360.227,-130.913 349.65,-131.516 358.295,-137.641 360.227,-130.913"/>
</g>
<!-- Node20 -->
<g id="node21" class="node"><title>Node20</title>
<polygon fill="none" stroke="#bfbfbf" points="902.5,-0.5 902.5,-19.5 937.5,-19.5 937.5,-0.5 902.5,-0.5"/>
<text text-anchor="middle" x="920" y="-7.5" font-family="Helvetica,sans-Serif" font-size="10.00">map</text>
</g>
<!-- Node13&#45;&gt;Node20 -->
<g id="edge27" class="edge"><title>Node13&#45;&gt;Node20</title>
<path fill="none" stroke="midnightblue" d="M552.756,-169.316C555.881,-168.848 558.986,-168.404 562,-168 640.151,-157.513 860.951,-189.413 915,-132 940.851,-104.54 932.93,-56.1559 925.872,-29.6515"/>
<polygon fill="midnightblue" stroke="midnightblue" points="929.149,-28.3855 923.001,-19.7569 922.427,-30.3361 929.149,-28.3855"/>
</g>
<!-- Node14&#45;&gt;Node6 -->
<g id="edge19" class="edge"><title>Node14&#45;&gt;Node6</title>
<path fill="none" stroke="midnightblue" d="M601.682,-112.368C583.957,-93.9744 542.229,-50.6712 519.468,-27.0519"/>
<polygon fill="midnightblue" stroke="midnightblue" points="521.738,-24.3636 512.279,-19.5914 516.698,-29.2209 521.738,-24.3636"/>
</g>
<!-- Node14&#45;&gt;Node9 -->
<g id="edge20" class="edge"><title>Node14&#45;&gt;Node9</title>
<path fill="none" stroke="midnightblue" d="M581.73,-119.464C502.405,-114.866 282.129,-100.028 261,-76 246.148,-59.1106 268.622,-38.5261 288.27,-25.1088"/>
<polygon fill="midnightblue" stroke="midnightblue" points="290.19,-28.0353 296.676,-19.6584 286.381,-22.1618 290.19,-28.0353"/>
</g>
<!-- Node15 -->
<g id="node16" class="node"><title>Node15</title>
<polygon fill="none" stroke="#bfbfbf" points="589.5,-56.5 589.5,-75.5 630.5,-75.5 630.5,-56.5 589.5,-56.5"/>
<text text-anchor="middle" x="610" y="-63.5" font-family="Helvetica,sans-Serif" font-size="10.00">ctime</text>
</g>
<!-- Node14&#45;&gt;Node15 -->
<g id="edge17" class="edge"><title>Node14&#45;&gt;Node15</title>
<path fill="none" stroke="midnightblue" d="M610,-112.083C610,-105.006 610,-94.8611 610,-85.9865"/>
<polygon fill="midnightblue" stroke="midnightblue" points="613.5,-85.751 610,-75.7511 606.5,-85.7511 613.5,-85.751"/>
</g>
<!-- Node16 -->
<g id="node17" class="node"><title>Node16</title>
<polygon fill="none" stroke="#bfbfbf" points="649,-56.5 649,-75.5 711,-75.5 711,-56.5 649,-56.5"/>
<text text-anchor="middle" x="680" y="-63.5" font-family="Helvetica,sans-Serif" font-size="10.00">sys/time.h</text>
</g>
<!-- Node14&#45;&gt;Node16 -->
<g id="edge18" class="edge"><title>Node14&#45;&gt;Node16</title>
<path fill="none" stroke="midnightblue" d="M621.247,-112.324C631.797,-104.185 647.801,-91.8395 660.442,-82.0874"/>
<polygon fill="midnightblue" stroke="midnightblue" points="662.769,-84.7132 668.549,-75.8339 658.493,-79.1707 662.769,-84.7132"/>
</g>
<!-- Node18 -->
<g id="node19" class="node"><title>Node18</title>
<g id="a_node19"><a xlink:href="BiologicalSequences_8h.html" target="_top" xlink:title="BiologicalSequences.h">
<polygon fill="none" stroke="black" points="303,-56.5 303,-75.5 419,-75.5 419,-56.5 303,-56.5"/>
<text text-anchor="middle" x="361" y="-63.5" font-family="Helvetica,sans-Serif" font-size="10.00">BiologicalSequences.h</text>
</a>
</g>
</g>
<!-- Node17&#45;&gt;Node18 -->
<g id="edge22" class="edge"><title>Node17&#45;&gt;Node18</title>
<path fill="none" stroke="midnightblue" d="M326.77,-112.083C332.562,-104.455 341.058,-93.2645 348.138,-83.9408"/>
<polygon fill="midnightblue" stroke="midnightblue" points="351.096,-85.8321 354.356,-75.7511 345.521,-81.5991 351.096,-85.8321"/>
</g>
<!-- Node18&#45;&gt;Node6 -->
<g id="edge24" class="edge"><title>Node18&#45;&gt;Node6</title>
<path fill="none" stroke="midnightblue" d="M383.659,-56.4435C407.402,-47.4776 444.909,-33.314 471.738,-23.1827"/>
<polygon fill="midnightblue" stroke="midnightblue" points="473.329,-26.3235 481.447,-19.5164 470.856,-19.7749 473.329,-26.3235"/>
</g>
<!-- Node18&#45;&gt;Node9 -->
<g id="edge23" class="edge"><title>Node18&#45;&gt;Node9</title>
<path fill="none" stroke="midnightblue" d="M352.909,-56.083C345.845,-48.2982 335.412,-36.8015 326.851,-27.3665"/>
<polygon fill="midnightblue" stroke="midnightblue" points="329.253,-24.8047 319.941,-19.7511 324.069,-29.5087 329.253,-24.8047"/>
</g>
<!-- Node19 -->
<g id="node20" class="node"><title>Node19</title>
<polygon fill="none" stroke="#bfbfbf" points="811.5,-0.5 811.5,-19.5 852.5,-19.5 852.5,-0.5 811.5,-0.5"/>
<text text-anchor="middle" x="832" y="-7.5" font-family="Helvetica,sans-Serif" font-size="10.00">string</text>
</g>
<!-- Node18&#45;&gt;Node19 -->
<g id="edge25" class="edge"><title>Node18&#45;&gt;Node19</title>
<path fill="none" stroke="midnightblue" d="M419.226,-58.3244C520.071,-46.7626 723.855,-23.3988 801.242,-14.5264"/>
<polygon fill="midnightblue" stroke="midnightblue" points="801.763,-17.9897 811.299,-13.3734 800.965,-11.0353 801.763,-17.9897"/>
</g>
<!-- Node21&#45;&gt;Node7 -->
<g id="edge29" class="edge"><title>Node21&#45;&gt;Node7</title>
<path fill="none" stroke="midnightblue" d="M83.7442,-224.378C78.6252,-215.564 71.0419,-201.314 67,-188 50.0713,-132.238 45.0637,-62.9643 43.5975,-30.064"/>
<polygon fill="midnightblue" stroke="midnightblue" points="47.0802,-29.5404 43.2021,-19.6809 40.0853,-29.8069 47.0802,-29.5404"/>
</g>
<!-- Node21&#45;&gt;Node13 -->
<g id="edge30" class="edge"><title>Node21&#45;&gt;Node13</title>
<path fill="none" stroke="midnightblue" d="M149.926,-225.148C231.491,-214.636 374.96,-196.146 453.252,-186.056"/>
<polygon fill="midnightblue" stroke="midnightblue" points="453.921,-189.499 463.391,-184.749 453.026,-182.556 453.921,-189.499"/>
</g>
<!-- Node22&#45;&gt;Node7 -->
<g id="edge32" class="edge"><title>Node22&#45;&gt;Node7</title>
<path fill="none" stroke="midnightblue" d="M71.1688,-285.979C55.2374,-277.481 32.4031,-262.97 19,-244 1.63215,-219.419 0,-209.098 0,-179 0,-179 0,-179 0,-121 0,-86.3058 18.7847,-49.4198 31.5227,-28.3957"/>
<polygon fill="midnightblue" stroke="midnightblue" points="34.6498,-29.9982 37.021,-19.6721 28.7279,-26.2657 34.6498,-29.9982"/>
</g>
<!-- Node22&#45;&gt;Node21 -->
<g id="edge33" class="edge"><title>Node22&#45;&gt;Node21</title>
<path fill="none" stroke="midnightblue" d="M89,-285.975C89,-277.58 89,-264.481 89,-253.663"/>
<polygon fill="midnightblue" stroke="midnightblue" points="92.5001,-253.509 89,-243.509 85.5001,-253.509 92.5001,-253.509"/>
</g>
<!-- Node24 -->
<g id="node25" class="node"><title>Node24</title>
<g id="a_node25"><a xlink:href="CodonSubMatrix_8h.html" target="_top" xlink:title="CodonSubMatrix.h">
<polygon fill="none" stroke="black" points="326,-224.5 326,-243.5 424,-243.5 424,-224.5 326,-224.5"/>
<text text-anchor="middle" x="375" y="-231.5" font-family="Helvetica,sans-Serif" font-size="10.00">CodonSubMatrix.h</text>
</a>
</g>
</g>
<!-- Node23&#45;&gt;Node24 -->
<g id="edge35" class="edge"><title>Node23&#45;&gt;Node24</title>
<path fill="none" stroke="midnightblue" d="M437.492,-352.673C431.319,-342.68 421.113,-325.857 413,-311 402.315,-291.434 391.003,-268.483 383.527,-252.963"/>
<polygon fill="midnightblue" stroke="midnightblue" points="386.492,-251.049 379.02,-243.538 380.177,-254.069 386.492,-251.049"/>
</g>
<!-- Node26 -->
<g id="node27" class="node"><title>Node26</title>
<g id="a_node27"><a xlink:href="CodonSequenceAlignment_8h.html" target="_top" xlink:title="CodonSequenceAlignment.h">
<polygon fill="none" stroke="black" points="168,-224.5 168,-243.5 308,-243.5 308,-224.5 168,-224.5"/>
<text text-anchor="middle" x="238" y="-231.5" font-family="Helvetica,sans-Serif" font-size="10.00">CodonSequenceAlignment.h</text>
</a>
</g>
</g>
<!-- Node23&#45;&gt;Node26 -->
<g id="edge40" class="edge"><title>Node23&#45;&gt;Node26</title>
<path fill="none" stroke="midnightblue" d="M431.359,-352.962C410.241,-337.616 363.998,-304.673 323,-280 303.985,-268.556 281.802,-256.865 264.866,-248.269"/>
<polygon fill="midnightblue" stroke="midnightblue" points="266.071,-244.957 255.565,-243.59 262.926,-251.21 266.071,-244.957"/>
</g>
<!-- Node29 -->
<g id="node30" class="node"><title>Node29</title>
<g id="a_node30"><a xlink:href="GeneralPathSuffStatMatrixProfileProcess_8h.html" target="_top" xlink:title="GeneralPathSuffStatMatrix\lProfileProcess.h">
<polygon fill="none" stroke="black" points="422,-280.5 422,-310.5 556,-310.5 556,-280.5 422,-280.5"/>
<text text-anchor="start" x="430" y="-298.5" font-family="Helvetica,sans-Serif" font-size="10.00">GeneralPathSuffStatMatrix</text>
<text text-anchor="middle" x="489" y="-287.5" font-family="Helvetica,sans-Serif" font-size="10.00">ProfileProcess.h</text>
</a>
</g>
</g>
<!-- Node23&#45;&gt;Node29 -->
<g id="edge50" class="edge"><title>Node23&#45;&gt;Node29</title>
<path fill="none" stroke="midnightblue" d="M449.204,-352.734C455.301,-344.118 464.861,-330.61 473.082,-318.992"/>
<polygon fill="midnightblue" stroke="midnightblue" points="476.11,-320.774 479.029,-310.589 470.396,-316.73 476.11,-320.774"/>
</g>
<!-- Node24&#45;&gt;Node5 -->
<g id="edge39" class="edge"><title>Node24&#45;&gt;Node5</title>
<path fill="none" stroke="midnightblue" d="M378.06,-224.368C384.382,-206.537 399.004,-165.295 407.522,-141.272"/>
<polygon fill="midnightblue" stroke="midnightblue" points="410.911,-142.186 410.954,-131.591 404.313,-139.847 410.911,-142.186"/>
</g>
<!-- Node25 -->
<g id="node26" class="node"><title>Node25</title>
<g id="a_node26"><a xlink:href="CodonStateSpace_8h.html" target="_top" xlink:title="CodonStateSpace.h">
<polygon fill="none" stroke="black" points="265,-168.5 265,-187.5 369,-187.5 369,-168.5 265,-168.5"/>
<text text-anchor="middle" x="317" y="-175.5" font-family="Helvetica,sans-Serif" font-size="10.00">CodonStateSpace.h</text>
</a>
</g>
</g>
<!-- Node24&#45;&gt;Node25 -->
<g id="edge36" class="edge"><title>Node24&#45;&gt;Node25</title>
<path fill="none" stroke="midnightblue" d="M365.681,-224.324C357.107,-216.341 344.188,-204.313 333.812,-194.653"/>
<polygon fill="midnightblue" stroke="midnightblue" points="336.192,-192.086 326.488,-187.834 331.422,-197.21 336.192,-192.086"/>
</g>
<!-- Node25&#45;&gt;Node17 -->
<g id="edge37" class="edge"><title>Node25&#45;&gt;Node17</title>
<path fill="none" stroke="midnightblue" d="M317.495,-168.083C317.889,-161.006 318.452,-150.861 318.945,-141.986"/>
<polygon fill="midnightblue" stroke="midnightblue" points="322.454,-141.93 319.514,-131.751 315.464,-141.542 322.454,-141.93"/>
</g>
<!-- Node25&#45;&gt;Node20 -->
<g id="edge38" class="edge"><title>Node25&#45;&gt;Node20</title>
<path fill="none" stroke="midnightblue" d="M369.156,-173.637C483.449,-166.032 748.862,-147.008 787,-132 841.283,-110.638 887.187,-55.9863 908.019,-28.0297"/>
<polygon fill="midnightblue" stroke="midnightblue" points="911.054,-29.8068 914.098,-19.6588 905.39,-25.6933 911.054,-29.8068"/>
</g>
<!-- Node26&#45;&gt;Node7 -->
<g id="edge49" class="edge"><title>Node26&#45;&gt;Node7</title>
<path fill="none" stroke="midnightblue" d="M197.162,-224.473C173.932,-217.849 145.646,-206.568 126,-188 113.493,-176.18 68.7091,-71.9964 50.6399,-29.2156"/>
<polygon fill="midnightblue" stroke="midnightblue" points="53.7634,-27.6143 46.6576,-19.7556 47.3117,-30.3302 53.7634,-27.6143"/>
</g>
<!-- Node26&#45;&gt;Node25 -->
<g id="edge48" class="edge"><title>Node26&#45;&gt;Node25</title>
<path fill="none" stroke="midnightblue" d="M250.693,-224.324C262.901,-215.979 281.578,-203.212 296.003,-193.352"/>
<polygon fill="midnightblue" stroke="midnightblue" points="298.058,-196.187 304.339,-187.655 294.108,-190.408 298.058,-196.187"/>
</g>
<!-- Node27 -->
<g id="node28" class="node"><title>Node27</title>
<g id="a_node28"><a xlink:href="SequenceAlignment_8h.html" target="_top" xlink:title="SequenceAlignment.h">
<polygon fill="none" stroke="black" points="135,-168.5 135,-187.5 247,-187.5 247,-168.5 135,-168.5"/>
<text text-anchor="middle" x="191" y="-175.5" font-family="Helvetica,sans-Serif" font-size="10.00">SequenceAlignment.h</text>
</a>
</g>
</g>
<!-- Node26&#45;&gt;Node27 -->
<g id="edge41" class="edge"><title>Node26&#45;&gt;Node27</title>
<path fill="none" stroke="midnightblue" d="M230.239,-224.083C223.463,-216.298 213.457,-204.801 205.245,-195.367"/>
<polygon fill="midnightblue" stroke="midnightblue" points="207.822,-192.996 198.617,-187.751 202.542,-197.592 207.822,-192.996"/>
</g>
<!-- Node27&#45;&gt;Node8 -->
<g id="edge47" class="edge"><title>Node27&#45;&gt;Node8</title>
<path fill="none" stroke="midnightblue" d="M189.98,-168.368C187.882,-150.617 183.042,-109.666 180.198,-85.5974"/>
<polygon fill="midnightblue" stroke="midnightblue" points="183.665,-85.1115 179.015,-75.5914 176.713,-85.9331 183.665,-85.1115"/>
</g>
<!-- Node27&#45;&gt;Node17 -->
<g id="edge42" class="edge"><title>Node27&#45;&gt;Node17</title>
<path fill="none" stroke="midnightblue" d="M211.44,-168.444C232.67,-159.557 266.099,-145.563 290.255,-135.451"/>
<polygon fill="midnightblue" stroke="midnightblue" points="291.782,-138.606 299.655,-131.516 289.079,-132.149 291.782,-138.606"/>
</g>
<!-- Node28 -->
<g id="node29" class="node"><title>Node28</title>
<g id="a_node29"><a xlink:href="TaxonSet_8h.html" target="_top" xlink:title="TaxonSet.h">
<polygon fill="none" stroke="black" points="767.5,-56.5 767.5,-75.5 834.5,-75.5 834.5,-56.5 767.5,-56.5"/>
<text text-anchor="middle" x="801" y="-63.5" font-family="Helvetica,sans-Serif" font-size="10.00">TaxonSet.h</text>
</a>
</g>
</g>
<!-- Node27&#45;&gt;Node28 -->
<g id="edge43" class="edge"><title>Node27&#45;&gt;Node28</title>
<path fill="none" stroke="midnightblue" d="M198.557,-168.328C211.896,-153.706 241.225,-124.519 273,-112 365.718,-75.4701 620.799,-85.5036 720,-76 731.983,-74.852 744.947,-73.473 756.917,-72.1434"/>
<polygon fill="midnightblue" stroke="midnightblue" points="757.585,-75.5905 767.131,-70.9947 756.802,-68.6343 757.585,-75.5905"/>
</g>
<!-- Node28&#45;&gt;Node6 -->
<g id="edge46" class="edge"><title>Node28&#45;&gt;Node6</title>
<path fill="none" stroke="midnightblue" d="M767.436,-58.6777C762.593,-57.7739 757.67,-56.8597 753,-56 677.934,-42.1796 590.062,-26.39 541.347,-17.6707"/>
<polygon fill="midnightblue" stroke="midnightblue" points="541.736,-14.1849 531.276,-15.8691 540.503,-21.0755 541.736,-14.1849"/>
</g>
<!-- Node28&#45;&gt;Node19 -->
<g id="edge45" class="edge"><title>Node28&#45;&gt;Node19</title>
<path fill="none" stroke="midnightblue" d="M806.119,-56.083C810.408,-48.6127 816.658,-37.7244 821.942,-28.5199"/>
<polygon fill="midnightblue" stroke="midnightblue" points="825.033,-30.1662 826.976,-19.7511 818.962,-26.6811 825.033,-30.1662"/>
</g>
<!-- Node28&#45;&gt;Node20 -->
<g id="edge44" class="edge"><title>Node28&#45;&gt;Node20</title>
<path fill="none" stroke="midnightblue" d="M819.856,-56.4435C839.609,-47.4802 870.809,-33.3221 893.134,-23.1914"/>
<polygon fill="midnightblue" stroke="midnightblue" points="894.736,-26.3078 902.396,-18.9883 891.844,-19.9334 894.736,-26.3078"/>
</g>
<!-- Node29&#45;&gt;Node4 -->
<g id="edge51" class="edge"><title>Node29&#45;&gt;Node4</title>
<path fill="none" stroke="midnightblue" d="M491.607,-280.399C493.09,-272.377 494.965,-262.233 496.567,-253.569"/>
<polygon fill="midnightblue" stroke="midnightblue" points="500.023,-254.127 498.399,-243.658 493.14,-252.855 500.023,-254.127"/>
</g>
<!-- Node30&#45;&gt;Node3 -->
<g id="edge54" class="edge"><title>Node30&#45;&gt;Node3</title>
<path fill="none" stroke="midnightblue" d="M268.972,-347.396C263.374,-337.562 255.869,-324.378 249.9,-313.892"/>
<polygon fill="midnightblue" stroke="midnightblue" points="252.938,-312.154 244.949,-305.195 246.854,-315.617 252.938,-312.154"/>
</g>
<!-- Node30&#45;&gt;Node29 -->
<g id="edge53" class="edge"><title>Node30&#45;&gt;Node29</title>
<path fill="none" stroke="midnightblue" d="M322.74,-347.476C355.09,-337.557 398.652,-324.201 433.071,-313.648"/>
<polygon fill="midnightblue" stroke="midnightblue" points="434.442,-316.889 442.977,-310.611 432.39,-310.196 434.442,-316.889"/>
</g>
<!-- Node32 -->
<g id="node33" class="node"><title>Node32</title>
<g id="a_node33"><a xlink:href="RateProcess_8h.html" target="_top" xlink:title="RateProcess.h">
<polygon fill="none" stroke="black" points="571,-168.5 571,-187.5 653,-187.5 653,-168.5 571,-168.5"/>
<text text-anchor="middle" x="612" y="-175.5" font-family="Helvetica,sans-Serif" font-size="10.00">RateProcess.h</text>
</a>
</g>
</g>
<!-- Node31&#45;&gt;Node32 -->
<g id="edge56" class="edge"><title>Node31&#45;&gt;Node32</title>
<path fill="none" stroke="midnightblue" d="M585.929,-419.912C589.783,-384.298 604.56,-247.752 609.986,-197.609"/>
<polygon fill="midnightblue" stroke="midnightblue" points="613.478,-197.871 611.075,-187.552 606.519,-197.118 613.478,-197.871"/>
</g>
<!-- Node32&#45;&gt;Node6 -->
<g id="edge57" class="edge"><title>Node32&#45;&gt;Node6</title>
<path fill="none" stroke="midnightblue" d="M603.693,-168.457C595.404,-159.703 582.559,-145.499 573,-132 548.298,-97.118 524.814,-52.7233 512.642,-28.5796"/>
<polygon fill="midnightblue" stroke="midnightblue" points="515.739,-26.9483 508.147,-19.5589 509.474,-30.0703 515.739,-26.9483"/>
</g>
<!-- Node32&#45;&gt;Node14 -->
<g id="edge58" class="edge"><title>Node32&#45;&gt;Node14</title>
<path fill="none" stroke="midnightblue" d="M611.67,-168.083C611.408,-161.006 611.032,-150.861 610.703,-141.986"/>
<polygon fill="midnightblue" stroke="midnightblue" points="614.192,-141.615 610.324,-131.751 607.197,-141.874 614.192,-141.615"/>
</g>
<!-- Node33&#45;&gt;Node29 -->
<g id="edge76" class="edge"><title>Node33&#45;&gt;Node29</title>
<path fill="none" stroke="midnightblue" d="M638.556,-347.396C609.647,-337.558 570.885,-324.367 540.067,-313.879"/>
<polygon fill="midnightblue" stroke="midnightblue" points="540.958,-310.485 530.363,-310.577 538.702,-317.112 540.958,-310.485"/>
</g>
<!-- Node34 -->
<g id="node35" class="node"><title>Node34</title>
<g id="a_node35"><a xlink:href="MatrixSubstitutionProcess_8h.html" target="_top" xlink:title="MatrixSubstitutionProcess.h">
<polygon fill="none" stroke="black" points="613,-286 613,-305 753,-305 753,-286 613,-286"/>
<text text-anchor="middle" x="683" y="-293" font-family="Helvetica,sans-Serif" font-size="10.00">MatrixSubstitutionProcess.h</text>
</a>
</g>
</g>
<!-- Node33&#45;&gt;Node34 -->
<g id="edge60" class="edge"><title>Node33&#45;&gt;Node34</title>
<path fill="none" stroke="midnightblue" d="M680.651,-347.396C681.086,-337.963 681.664,-325.448 682.137,-315.189"/>
<polygon fill="midnightblue" stroke="midnightblue" points="685.634,-315.345 682.599,-305.195 678.641,-315.023 685.634,-315.345"/>
</g>
<!-- Node34&#45;&gt;Node4 -->
<g id="edge75" class="edge"><title>Node34&#45;&gt;Node4</title>
<path fill="none" stroke="midnightblue" d="M656.781,-285.975C624.982,-275.636 571.235,-258.161 535.683,-246.602"/>
<polygon fill="midnightblue" stroke="midnightblue" points="536.763,-243.273 526.171,-243.509 534.599,-249.93 536.763,-243.273"/>
</g>
<!-- Node35 -->
<g id="node36" class="node"><title>Node35</title>
<g id="a_node36"><a xlink:href="SubstitutionProcess_8h.html" target="_top" xlink:title="SubstitutionProcess.h">
<polygon fill="none" stroke="black" points="625.5,-224.5 625.5,-243.5 738.5,-243.5 738.5,-224.5 625.5,-224.5"/>
<text text-anchor="middle" x="682" y="-231.5" font-family="Helvetica,sans-Serif" font-size="10.00">SubstitutionProcess.h</text>
</a>
</g>
</g>
<!-- Node34&#45;&gt;Node35 -->
<g id="edge61" class="edge"><title>Node34&#45;&gt;Node35</title>
<path fill="none" stroke="midnightblue" d="M682.857,-285.975C682.716,-277.58 682.495,-264.481 682.314,-253.663"/>
<polygon fill="midnightblue" stroke="midnightblue" points="685.811,-253.449 682.143,-243.509 678.812,-253.567 685.811,-253.449"/>
</g>
<!-- Node35&#45;&gt;Node13 -->
<g id="edge63" class="edge"><title>Node35&#45;&gt;Node13</title>
<path fill="none" stroke="midnightblue" d="M654.429,-224.444C624.903,-215.28 577.882,-200.688 545.117,-190.519"/>
<polygon fill="midnightblue" stroke="midnightblue" points="546.03,-187.138 535.442,-187.516 543.955,-193.823 546.03,-187.138"/>
</g>
<!-- Node35&#45;&gt;Node14 -->
<g id="edge73" class="edge"><title>Node35&#45;&gt;Node14</title>
<path fill="none" stroke="midnightblue" d="M680.895,-224.358C678.896,-211.258 673.74,-185.998 662,-168 654.255,-156.125 642.506,-145.584 632.134,-137.695"/>
<polygon fill="midnightblue" stroke="midnightblue" points="634.02,-134.74 623.865,-131.721 629.921,-140.414 634.02,-134.74"/>
</g>
<!-- Node35&#45;&gt;Node32 -->
<g id="edge62" class="edge"><title>Node35&#45;&gt;Node32</title>
<path fill="none" stroke="midnightblue" d="M670.753,-224.324C660.203,-216.185 644.199,-203.839 631.558,-194.087"/>
<polygon fill="midnightblue" stroke="midnightblue" points="633.507,-191.171 623.451,-187.834 629.231,-196.713 633.507,-191.171"/>
</g>
<!-- Node36 -->
<g id="node37" class="node"><title>Node36</title>
<g id="a_node37"><a xlink:href="BranchSitePath_8h.html" target="_top" xlink:title="BranchSitePath.h">
<polygon fill="none" stroke="black" points="709.5,-168.5 709.5,-187.5 802.5,-187.5 802.5,-168.5 709.5,-168.5"/>
<text text-anchor="middle" x="756" y="-175.5" font-family="Helvetica,sans-Serif" font-size="10.00">BranchSitePath.h</text>
</a>
</g>
</g>
<!-- Node35&#45;&gt;Node36 -->
<g id="edge64" class="edge"><title>Node35&#45;&gt;Node36</title>
<path fill="none" stroke="midnightblue" d="M693.889,-224.324C705.15,-216.107 722.287,-203.602 735.709,-193.807"/>
<polygon fill="midnightblue" stroke="midnightblue" points="737.88,-196.556 743.894,-187.834 733.753,-190.901 737.88,-196.556"/>
</g>
<!-- Node38 -->
<g id="node39" class="node"><title>Node38</title>
<polygon fill="none" stroke="#bfbfbf" points="821,-168.5 821,-187.5 877,-187.5 877,-168.5 821,-168.5"/>
<text text-anchor="middle" x="849" y="-175.5" font-family="Helvetica,sans-Serif" font-size="10.00">algorithm</text>
</g>
<!-- Node35&#45;&gt;Node38 -->
<g id="edge74" class="edge"><title>Node35&#45;&gt;Node38</title>
<path fill="none" stroke="midnightblue" d="M708.462,-224.444C736.678,-215.32 781.54,-200.813 812.968,-190.651"/>
<polygon fill="midnightblue" stroke="midnightblue" points="814.224,-193.923 822.662,-187.516 812.07,-187.263 814.224,-193.923"/>
</g>
<!-- Node36&#45;&gt;Node5 -->
<g id="edge72" class="edge"><title>Node36&#45;&gt;Node5</title>
<path fill="none" stroke="midnightblue" d="M709.163,-169.605C643.176,-159.186 523.67,-140.316 458.803,-130.074"/>
<polygon fill="midnightblue" stroke="midnightblue" points="459.302,-126.61 448.878,-128.507 458.21,-133.524 459.302,-126.61"/>
</g>
<!-- Node36&#45;&gt;Node19 -->
<g id="edge65" class="edge"><title>Node36&#45;&gt;Node19</title>
<path fill="none" stroke="midnightblue" d="M770.598,-168.391C794.627,-153.26 841.671,-119.35 860,-76 866.92,-59.6325 857.085,-41.013 847.217,-27.9099"/>
<polygon fill="midnightblue" stroke="midnightblue" points="849.631,-25.333 840.586,-19.8153 844.216,-29.769 849.631,-25.333"/>
</g>
<!-- Node36&#45;&gt;Node20 -->
<g id="edge66" class="edge"><title>Node36&#45;&gt;Node20</title>
<path fill="none" stroke="midnightblue" d="M779.245,-168.471C797.533,-160.926 822.868,-148.544 841,-132 874.228,-101.681 899.664,-54.4775 911.923,-28.9129"/>
<polygon fill="midnightblue" stroke="midnightblue" points="915.174,-30.2218 916.225,-19.6792 908.829,-27.2652 915.174,-30.2218"/>
</g>
<!-- Node37 -->
<g id="node38" class="node"><title>Node37</title>
<g id="a_node38"><a xlink:href="Tree_8h.html" target="_top" xlink:title="Tree.h">
<polygon fill="none" stroke="black" points="734,-112.5 734,-131.5 778,-131.5 778,-112.5 734,-112.5"/>
<text text-anchor="middle" x="756" y="-119.5" font-family="Helvetica,sans-Serif" font-size="10.00">Tree.h</text>
</a>
</g>
</g>
<!-- Node36&#45;&gt;Node37 -->
<g id="edge67" class="edge"><title>Node36&#45;&gt;Node37</title>
<path fill="none" stroke="midnightblue" d="M756,-168.083C756,-161.006 756,-150.861 756,-141.986"/>
<polygon fill="midnightblue" stroke="midnightblue" points="759.5,-141.751 756,-131.751 752.5,-141.751 759.5,-141.751"/>
</g>
<!-- Node37&#45;&gt;Node6 -->
<g id="edge70" class="edge"><title>Node37&#45;&gt;Node6</title>
<path fill="none" stroke="midnightblue" d="M753.729,-112.271C749.566,-98.0986 739.314,-70.2365 720,-56 692.033,-35.3851 595.24,-21.3901 541.206,-14.9846"/>
<polygon fill="midnightblue" stroke="midnightblue" points="541.339,-11.4767 531.003,-13.805 540.535,-18.4303 541.339,-11.4767"/>
</g>
<!-- Node37&#45;&gt;Node9 -->
<g id="edge68" class="edge"><title>Node37&#45;&gt;Node9</title>
<path fill="none" stroke="midnightblue" d="M733.916,-119.049C642.428,-110.94 297.757,-80.1405 294,-76 282.124,-62.9109 290.509,-42.6607 299.392,-28.2438"/>
<polygon fill="midnightblue" stroke="midnightblue" points="302.429,-30.0003 305.094,-19.7462 296.616,-26.1002 302.429,-30.0003"/>
</g>
<!-- Node37&#45;&gt;Node19 -->
<g id="edge69" class="edge"><title>Node37&#45;&gt;Node19</title>
<path fill="none" stroke="midnightblue" d="M778.195,-116.538C799.263,-110.996 829.761,-99.2734 844,-76 852.686,-61.8032 847.678,-42.8302 841.706,-29.0491"/>
<polygon fill="midnightblue" stroke="midnightblue" points="844.677,-27.155 837.161,-19.6879 838.38,-30.2123 844.677,-27.155"/>
</g>
<!-- Node37&#45;&gt;Node28 -->
<g id="edge71" class="edge"><title>Node37&#45;&gt;Node28</title>
<path fill="none" stroke="midnightblue" d="M763.431,-112.083C769.853,-104.377 779.306,-93.0333 787.122,-83.6531"/>
<polygon fill="midnightblue" stroke="midnightblue" points="789.994,-85.674 793.707,-75.7511 784.617,-81.1927 789.994,-85.674"/>
</g>
</g>
</svg>
