<?xml version="1.0" encoding="UTF-8" standalone="no"?>
<!DOCTYPE svg PUBLIC "-//W3C//DTD SVG 1.1//EN"
 "http://www.w3.org/Graphics/SVG/1.1/DTD/svg11.dtd">
<!-- Generated by graphviz version 2.38.0 (20140413.2041)
 -->
<!-- Title: AACodonMutSelSBDPProfileProcess.h Pages: 1 -->
<svg width="724pt" height="509pt"
 viewBox="0.00 0.00 723.53 509.00" xmlns="http://www.w3.org/2000/svg" xmlns:xlink="http://www.w3.org/1999/xlink">
<g id="graph0" class="graph" transform="scale(1 1) rotate(0) translate(4 505)">
<title>AACodonMutSelSBDPProfileProcess.h</title>
<!-- Node0 -->
<g id="node1" class="node"><title>Node0</title>
<polygon fill="#bfbfbf" stroke="black" points="266.5,-470.5 266.5,-500.5 411.5,-500.5 411.5,-470.5 266.5,-470.5"/>
<text text-anchor="start" x="274.5" y="-488.5" font-family="Helvetica,sans-Serif" font-size="10.00">AACodonMutSelSBDPProfile</text>
<text text-anchor="middle" x="339" y="-477.5" font-family="Helvetica,sans-Serif" font-size="10.00">Process.h</text>
</g>
<!-- Node1 -->
<g id="node2" class="node"><title>Node1</title>
<g id="a_node2"><a xlink:href="MatrixSBDPProfileProcess_8h.html" target="_top" xlink:title="MatrixSBDPProfileProcess.h">
<polygon fill="none" stroke="black" points="167.5,-414.5 167.5,-433.5 310.5,-433.5 310.5,-414.5 167.5,-414.5"/>
<text text-anchor="middle" x="239" y="-421.5" font-family="Helvetica,sans-Serif" font-size="10.00">MatrixSBDPProfileProcess.h</text>
</a>
</g>
</g>
<!-- Node0&#45;&gt;Node1 -->
<g id="edge1" class="edge"><title>Node0&#45;&gt;Node1</title>
<path fill="none" stroke="midnightblue" d="M315.301,-470.399C299.272,-460.862 278.201,-448.325 262.264,-438.842"/>
<polygon fill="midnightblue" stroke="midnightblue" points="263.934,-435.763 253.551,-433.658 260.355,-441.779 263.934,-435.763"/>
</g>
<!-- Node23 -->
<g id="node24" class="node"><title>Node23</title>
<g id="a_node24"><a xlink:href="AACodonMutSelProfileProcess_8h.html" target="_top" xlink:title="AACodonMutSelProfileProcess.h">
<polygon fill="none" stroke="black" points="423.5,-353 423.5,-372 584.5,-372 584.5,-353 423.5,-353"/>
<text text-anchor="middle" x="504" y="-360" font-family="Helvetica,sans-Serif" font-size="10.00">AACodonMutSelProfileProcess.h</text>
</a>
</g>
</g>
<!-- Node0&#45;&gt;Node23 -->
<g id="edge35" class="edge"><title>Node0&#45;&gt;Node23</title>
<path fill="none" stroke="midnightblue" d="M358.251,-470.383C389.799,-447.248 452.185,-401.497 484.131,-378.07"/>
<polygon fill="midnightblue" stroke="midnightblue" points="486.289,-380.828 492.283,-372.092 482.15,-375.183 486.289,-380.828"/>
</g>
<!-- Node30 -->
<g id="node31" class="node"><title>Node30</title>
<g id="a_node31"><a xlink:href="GeneralPathSuffStatMatrixMixtureProfileProcess_8h.html" target="_top" xlink:title="GeneralPathSuffStatMatrix\lMixtureProfileProcess.h">
<polygon fill="none" stroke="black" points="271,-347.5 271,-377.5 405,-377.5 405,-347.5 271,-347.5"/>
<text text-anchor="start" x="279" y="-365.5" font-family="Helvetica,sans-Serif" font-size="10.00">GeneralPathSuffStatMatrix</text>
<text text-anchor="middle" x="338" y="-354.5" font-family="Helvetica,sans-Serif" font-size="10.00">MixtureProfileProcess.h</text>
</a>
</g>
</g>
<!-- Node0&#45;&gt;Node30 -->
<g id="edge53" class="edge"><title>Node0&#45;&gt;Node30</title>
<path fill="none" stroke="midnightblue" d="M338.881,-470.145C338.714,-449.859 338.405,-412.533 338.201,-387.862"/>
<polygon fill="midnightblue" stroke="midnightblue" points="341.701,-387.807 338.118,-377.837 334.701,-387.865 341.701,-387.807"/>
</g>
<!-- Node2 -->
<g id="node3" class="node"><title>Node2</title>
<g id="a_node3"><a xlink:href="MatrixMixtureProfileProcess_8h.html" target="_top" xlink:title="MatrixMixtureProfileProcess.h">
<polygon fill="none" stroke="black" points="173,-286 173,-305 321,-305 321,-286 173,-286"/>
<text text-anchor="middle" x="247" y="-293" font-family="Helvetica,sans-Serif" font-size="10.00">MatrixMixtureProfileProcess.h</text>
</a>
</g>
</g>
<!-- Node1&#45;&gt;Node2 -->
<g id="edge2" class="edge"><title>Node1&#45;&gt;Node2</title>
<path fill="none" stroke="midnightblue" d="M239.55,-414.305C240.834,-393.994 244.056,-343.053 245.813,-315.277"/>
<polygon fill="midnightblue" stroke="midnightblue" points="249.308,-315.457 246.446,-305.256 242.322,-315.015 249.308,-315.457"/>
</g>
<!-- Node21 -->
<g id="node22" class="node"><title>Node21</title>
<g id="a_node22"><a xlink:href="SBDPProfileProcess_8h.html" target="_top" xlink:title="SBDPProfileProcess.h">
<polygon fill="none" stroke="black" points="37,-353 37,-372 153,-372 153,-353 37,-353"/>
<text text-anchor="middle" x="95" y="-360" font-family="Helvetica,sans-Serif" font-size="10.00">SBDPProfileProcess.h</text>
</a>
</g>
</g>
<!-- Node1&#45;&gt;Node21 -->
<g id="edge30" class="edge"><title>Node1&#45;&gt;Node21</title>
<path fill="none" stroke="midnightblue" d="M218.368,-414.475C193.881,-404.357 152.853,-387.405 124.891,-375.851"/>
<polygon fill="midnightblue" stroke="midnightblue" points="126.172,-372.593 115.593,-372.009 123.499,-379.063 126.172,-372.593"/>
</g>
<!-- Node3 -->
<g id="node4" class="node"><title>Node3</title>
<g id="a_node4"><a xlink:href="MatrixProfileProcess_8h.html" target="_top" xlink:title="MatrixProfileProcess.h">
<polygon fill="none" stroke="black" points="364,-224.5 364,-243.5 480,-243.5 480,-224.5 364,-224.5"/>
<text text-anchor="middle" x="422" y="-231.5" font-family="Helvetica,sans-Serif" font-size="10.00">MatrixProfileProcess.h</text>
</a>
</g>
</g>
<!-- Node2&#45;&gt;Node3 -->
<g id="edge3" class="edge"><title>Node2&#45;&gt;Node3</title>
<path fill="none" stroke="midnightblue" d="M272.073,-285.975C302.352,-275.68 353.44,-258.31 387.441,-246.75"/>
<polygon fill="midnightblue" stroke="midnightblue" points="388.632,-250.042 396.973,-243.509 386.379,-243.414 388.632,-250.042"/>
</g>
<!-- Node20 -->
<g id="node21" class="node"><title>Node20</title>
<g id="a_node21"><a xlink:href="MixtureProfileProcess_8h.html" target="_top" xlink:title="MixtureProfileProcess.h">
<polygon fill="none" stroke="black" points="66.5,-224.5 66.5,-243.5 187.5,-243.5 187.5,-224.5 66.5,-224.5"/>
<text text-anchor="middle" x="127" y="-231.5" font-family="Helvetica,sans-Serif" font-size="10.00">MixtureProfileProcess.h</text>
</a>
</g>
</g>
<!-- Node2&#45;&gt;Node20 -->
<g id="edge27" class="edge"><title>Node2&#45;&gt;Node20</title>
<path fill="none" stroke="midnightblue" d="M229.807,-285.975C209.757,-276.034 176.401,-259.495 153.14,-247.961"/>
<polygon fill="midnightblue" stroke="midnightblue" points="154.675,-244.816 144.161,-243.509 151.566,-251.087 154.675,-244.816"/>
</g>
<!-- Node4 -->
<g id="node5" class="node"><title>Node4</title>
<g id="a_node5"><a xlink:href="SubMatrix_8h.html" target="_top" xlink:title="SubMatrix.h">
<polygon fill="none" stroke="black" points="505.5,-168.5 505.5,-187.5 574.5,-187.5 574.5,-168.5 505.5,-168.5"/>
<text text-anchor="middle" x="540" y="-175.5" font-family="Helvetica,sans-Serif" font-size="10.00">SubMatrix.h</text>
</a>
</g>
</g>
<!-- Node3&#45;&gt;Node4 -->
<g id="edge4" class="edge"><title>Node3&#45;&gt;Node4</title>
<path fill="none" stroke="midnightblue" d="M440.697,-224.444C459.944,-215.636 490.152,-201.812 512.2,-191.722"/>
<polygon fill="midnightblue" stroke="midnightblue" points="513.753,-194.86 521.39,-187.516 510.84,-188.495 513.753,-194.86"/>
</g>
<!-- Node12 -->
<g id="node13" class="node"><title>Node12</title>
<g id="a_node13"><a xlink:href="ProfileProcess_8h.html" target="_top" xlink:title="ProfileProcess.h">
<polygon fill="none" stroke="black" points="145.5,-168.5 145.5,-187.5 234.5,-187.5 234.5,-168.5 145.5,-168.5"/>
<text text-anchor="middle" x="190" y="-175.5" font-family="Helvetica,sans-Serif" font-size="10.00">ProfileProcess.h</text>
</a>
</g>
</g>
<!-- Node3&#45;&gt;Node12 -->
<g id="edge14" class="edge"><title>Node3&#45;&gt;Node12</title>
<path fill="none" stroke="midnightblue" d="M385.239,-224.444C344.937,-215.063 280.191,-199.993 236.415,-189.804"/>
<polygon fill="midnightblue" stroke="midnightblue" points="237.122,-186.375 226.589,-187.516 235.535,-193.192 237.122,-186.375"/>
</g>
<!-- Node5 -->
<g id="node6" class="node"><title>Node5</title>
<polygon fill="none" stroke="#bfbfbf" points="384,-0.5 384,-19.5 438,-19.5 438,-0.5 384,-0.5"/>
<text text-anchor="middle" x="411" y="-7.5" font-family="Helvetica,sans-Serif" font-size="10.00">iostream</text>
</g>
<!-- Node4&#45;&gt;Node5 -->
<g id="edge5" class="edge"><title>Node4&#45;&gt;Node5</title>
<path fill="none" stroke="midnightblue" d="M574.509,-176.671C608.789,-174.343 660.146,-165.071 688,-132 709.852,-106.056 717.029,-81.7943 695,-56 663.701,-19.3509 518.051,-12.3868 448.354,-11.1773"/>
<polygon fill="midnightblue" stroke="midnightblue" points="448.296,-7.67618 438.247,-11.0333 448.196,-14.6755 448.296,-7.67618"/>
</g>
<!-- Node6 -->
<g id="node7" class="node"><title>Node6</title>
<polygon fill="none" stroke="#bfbfbf" points="44,-56.5 44,-75.5 88,-75.5 88,-56.5 44,-56.5"/>
<text text-anchor="middle" x="66" y="-63.5" font-family="Helvetica,sans-Serif" font-size="10.00">cmath</text>
</g>
<!-- Node4&#45;&gt;Node6 -->
<g id="edge6" class="edge"><title>Node4&#45;&gt;Node6</title>
<path fill="none" stroke="midnightblue" d="M526.388,-168.32C503.134,-153.958 453.822,-125.495 408,-112 277.651,-73.6119 235.38,-102.088 98.2781,-75.9201"/>
<polygon fill="midnightblue" stroke="midnightblue" points="98.7287,-72.4416 88.2403,-73.9399 97.3738,-79.3093 98.7287,-72.4416"/>
</g>
<!-- Node7 -->
<g id="node8" class="node"><title>Node7</title>
<g id="a_node8"><a xlink:href="Random_8h.html" target="_top" xlink:title="Random.h">
<polygon fill="none" stroke="black" points="473,-112.5 473,-131.5 535,-131.5 535,-112.5 473,-112.5"/>
<text text-anchor="middle" x="504" y="-119.5" font-family="Helvetica,sans-Serif" font-size="10.00">Random.h</text>
</a>
</g>
</g>
<!-- Node4&#45;&gt;Node7 -->
<g id="edge7" class="edge"><title>Node4&#45;&gt;Node7</title>
<path fill="none" stroke="midnightblue" d="M534.055,-168.083C529.023,-160.534 521.663,-149.495 515.487,-140.23"/>
<polygon fill="midnightblue" stroke="midnightblue" points="518.293,-138.13 509.834,-131.751 512.469,-142.013 518.293,-138.13"/>
</g>
<!-- Node7&#45;&gt;Node5 -->
<g id="edge10" class="edge"><title>Node7&#45;&gt;Node5</title>
<path fill="none" stroke="midnightblue" d="M496.702,-112.368C481.219,-94.0547 444.86,-51.0489 424.834,-27.3624"/>
<polygon fill="midnightblue" stroke="midnightblue" points="427.393,-24.9682 418.264,-19.5914 422.047,-29.4877 427.393,-24.9682"/>
</g>
<!-- Node7&#45;&gt;Node6 -->
<g id="edge8" class="edge"><title>Node7&#45;&gt;Node6</title>
<path fill="none" stroke="midnightblue" d="M472.984,-115.264C466.09,-114.092 458.808,-112.933 452,-112 298.104,-90.9055 254.458,-105.601 98.1978,-75.903"/>
<polygon fill="midnightblue" stroke="midnightblue" points="98.715,-72.4383 88.2327,-73.9785 97.3876,-79.3113 98.715,-72.4383"/>
</g>
<!-- Node8 -->
<g id="node9" class="node"><title>Node8</title>
<polygon fill="none" stroke="#bfbfbf" points="259.5,-0.5 259.5,-19.5 304.5,-19.5 304.5,-0.5 259.5,-0.5"/>
<text text-anchor="middle" x="282" y="-7.5" font-family="Helvetica,sans-Serif" font-size="10.00">cstdlib</text>
</g>
<!-- Node7&#45;&gt;Node8 -->
<g id="edge9" class="edge"><title>Node7&#45;&gt;Node8</title>
<path fill="none" stroke="midnightblue" d="M472.602,-114.909C417.197,-104.04 307.293,-81.8891 301,-76 288.401,-64.2095 284.004,-44.5741 282.544,-29.964"/>
<polygon fill="midnightblue" stroke="midnightblue" points="286.012,-29.336 281.904,-19.5703 279.026,-29.7668 286.012,-29.336"/>
</g>
<!-- Node9 -->
<g id="node10" class="node"><title>Node9</title>
<polygon fill="none" stroke="#bfbfbf" points="482,-56.5 482,-75.5 534,-75.5 534,-56.5 482,-56.5"/>
<text text-anchor="middle" x="508" y="-63.5" font-family="Helvetica,sans-Serif" font-size="10.00">sstream</text>
</g>
<!-- Node7&#45;&gt;Node9 -->
<g id="edge11" class="edge"><title>Node7&#45;&gt;Node9</title>
<path fill="none" stroke="midnightblue" d="M504.661,-112.083C505.185,-105.006 505.936,-94.8611 506.594,-85.9865"/>
<polygon fill="midnightblue" stroke="midnightblue" points="510.103,-85.9823 507.352,-75.7511 503.123,-85.4652 510.103,-85.9823"/>
</g>
<!-- Node10 -->
<g id="node11" class="node"><title>Node10</title>
<polygon fill="none" stroke="#bfbfbf" points="552,-56.5 552,-75.5 602,-75.5 602,-56.5 552,-56.5"/>
<text text-anchor="middle" x="577" y="-63.5" font-family="Helvetica,sans-Serif" font-size="10.00">iomanip</text>
</g>
<!-- Node7&#45;&gt;Node10 -->
<g id="edge12" class="edge"><title>Node7&#45;&gt;Node10</title>
<path fill="none" stroke="midnightblue" d="M515.729,-112.324C526.837,-104.107 543.742,-91.6017 556.983,-81.8069"/>
<polygon fill="midnightblue" stroke="midnightblue" points="559.1,-84.5948 565.058,-75.8339 554.937,-78.9671 559.1,-84.5948"/>
</g>
<!-- Node11 -->
<g id="node12" class="node"><title>Node11</title>
<polygon fill="none" stroke="#bfbfbf" points="620,-56.5 620,-75.5 670,-75.5 670,-56.5 620,-56.5"/>
<text text-anchor="middle" x="645" y="-63.5" font-family="Helvetica,sans-Serif" font-size="10.00">fstream</text>
</g>
<!-- Node7&#45;&gt;Node11 -->
<g id="edge13" class="edge"><title>Node7&#45;&gt;Node11</title>
<path fill="none" stroke="midnightblue" d="M526.342,-112.444C549.753,-103.478 586.736,-89.314 613.19,-79.1827"/>
<polygon fill="midnightblue" stroke="midnightblue" points="614.676,-82.3615 622.763,-75.5164 612.172,-75.8245 614.676,-82.3615"/>
</g>
<!-- Node12&#45;&gt;Node5 -->
<g id="edge25" class="edge"><title>Node12&#45;&gt;Node5</title>
<path fill="none" stroke="midnightblue" d="M188.41,-168.291C184.93,-146.256 179.169,-87.7862 209,-56 231.082,-32.4703 321.626,-19.8056 373.686,-14.3431"/>
<polygon fill="midnightblue" stroke="midnightblue" points="374.265,-17.8025 383.863,-13.3155 373.562,-10.8379 374.265,-17.8025"/>
</g>
<!-- Node13 -->
<g id="node14" class="node"><title>Node13</title>
<g id="a_node14"><a xlink:href="Chrono_8h.html" target="_top" xlink:title="Chrono.h">
<polygon fill="none" stroke="black" points="106,-56.5 106,-75.5 162,-75.5 162,-56.5 106,-56.5"/>
<text text-anchor="middle" x="134" y="-63.5" font-family="Helvetica,sans-Serif" font-size="10.00">Chrono.h</text>
</a>
</g>
</g>
<!-- Node12&#45;&gt;Node13 -->
<g id="edge15" class="edge"><title>Node12&#45;&gt;Node13</title>
<path fill="none" stroke="midnightblue" d="M185.606,-168.368C176.446,-150.376 155.153,-108.55 142.974,-84.6267"/>
<polygon fill="midnightblue" stroke="midnightblue" points="146.03,-82.9152 138.374,-75.5914 139.792,-86.091 146.03,-82.9152"/>
</g>
<!-- Node16 -->
<g id="node17" class="node"><title>Node16</title>
<g id="a_node17"><a xlink:href="StateSpace_8h.html" target="_top" xlink:title="StateSpace.h">
<polygon fill="none" stroke="black" points="323,-112.5 323,-131.5 399,-131.5 399,-112.5 323,-112.5"/>
<text text-anchor="middle" x="361" y="-119.5" font-family="Helvetica,sans-Serif" font-size="10.00">StateSpace.h</text>
</a>
</g>
</g>
<!-- Node12&#45;&gt;Node16 -->
<g id="edge20" class="edge"><title>Node12&#45;&gt;Node16</title>
<path fill="none" stroke="midnightblue" d="M217.095,-168.444C245.988,-159.32 291.925,-144.813 324.105,-134.651"/>
<polygon fill="midnightblue" stroke="midnightblue" points="325.549,-137.865 334.031,-131.516 323.441,-131.19 325.549,-137.865"/>
</g>
<!-- Node19 -->
<g id="node20" class="node"><title>Node19</title>
<polygon fill="none" stroke="#bfbfbf" points="218.5,-56.5 218.5,-75.5 253.5,-75.5 253.5,-56.5 218.5,-56.5"/>
<text text-anchor="middle" x="236" y="-63.5" font-family="Helvetica,sans-Serif" font-size="10.00">map</text>
</g>
<!-- Node12&#45;&gt;Node19 -->
<g id="edge26" class="edge"><title>Node12&#45;&gt;Node19</title>
<path fill="none" stroke="midnightblue" d="M193.61,-168.368C201.1,-150.456 218.468,-108.923 228.494,-84.9482"/>
<polygon fill="midnightblue" stroke="midnightblue" points="231.778,-86.1676 232.407,-75.5914 225.32,-83.4669 231.778,-86.1676"/>
</g>
<!-- Node13&#45;&gt;Node5 -->
<g id="edge18" class="edge"><title>Node13&#45;&gt;Node5</title>
<path fill="none" stroke="midnightblue" d="M162.449,-58.8157C166.978,-57.8565 171.615,-56.8896 176,-56 245.83,-41.8342 327.584,-26.4491 373.934,-17.8383"/>
<polygon fill="midnightblue" stroke="midnightblue" points="374.629,-21.2693 383.823,-16.0043 373.352,-14.3867 374.629,-21.2693"/>
</g>
<!-- Node13&#45;&gt;Node8 -->
<g id="edge19" class="edge"><title>Node13&#45;&gt;Node8</title>
<path fill="none" stroke="midnightblue" d="M157.451,-56.4435C182.278,-47.3851 221.645,-33.0213 249.466,-22.8705"/>
<polygon fill="midnightblue" stroke="midnightblue" points="250.95,-26.0547 259.145,-19.339 248.551,-19.4787 250.95,-26.0547"/>
</g>
<!-- Node14 -->
<g id="node15" class="node"><title>Node14</title>
<polygon fill="none" stroke="#bfbfbf" points="78.5,-0.5 78.5,-19.5 119.5,-19.5 119.5,-0.5 78.5,-0.5"/>
<text text-anchor="middle" x="99" y="-7.5" font-family="Helvetica,sans-Serif" font-size="10.00">ctime</text>
</g>
<!-- Node13&#45;&gt;Node14 -->
<g id="edge16" class="edge"><title>Node13&#45;&gt;Node14</title>
<path fill="none" stroke="midnightblue" d="M128.22,-56.083C123.328,-48.5341 116.173,-37.4948 110.167,-28.2298"/>
<polygon fill="midnightblue" stroke="midnightblue" points="113.048,-26.239 104.672,-19.7511 107.174,-30.0463 113.048,-26.239"/>
</g>
<!-- Node15 -->
<g id="node16" class="node"><title>Node15</title>
<polygon fill="none" stroke="#bfbfbf" points="138,-0.5 138,-19.5 200,-19.5 200,-0.5 138,-0.5"/>
<text text-anchor="middle" x="169" y="-7.5" font-family="Helvetica,sans-Serif" font-size="10.00">sys/time.h</text>
</g>
<!-- Node13&#45;&gt;Node15 -->
<g id="edge17" class="edge"><title>Node13&#45;&gt;Node15</title>
<path fill="none" stroke="midnightblue" d="M139.78,-56.083C144.672,-48.5341 151.827,-37.4948 157.833,-28.2298"/>
<polygon fill="midnightblue" stroke="midnightblue" points="160.826,-30.0463 163.328,-19.7511 154.952,-26.239 160.826,-30.0463"/>
</g>
<!-- Node17 -->
<g id="node18" class="node"><title>Node17</title>
<g id="a_node18"><a xlink:href="BiologicalSequences_8h.html" target="_top" xlink:title="BiologicalSequences.h">
<polygon fill="none" stroke="black" points="310,-56.5 310,-75.5 426,-75.5 426,-56.5 310,-56.5"/>
<text text-anchor="middle" x="368" y="-63.5" font-family="Helvetica,sans-Serif" font-size="10.00">BiologicalSequences.h</text>
</a>
</g>
</g>
<!-- Node16&#45;&gt;Node17 -->
<g id="edge21" class="edge"><title>Node16&#45;&gt;Node17</title>
<path fill="none" stroke="midnightblue" d="M362.156,-112.083C363.084,-104.927 364.418,-94.6353 365.577,-85.6911"/>
<polygon fill="midnightblue" stroke="midnightblue" points="369.051,-86.1181 366.866,-75.7511 362.109,-85.2181 369.051,-86.1181"/>
</g>
<!-- Node17&#45;&gt;Node5 -->
<g id="edge23" class="edge"><title>Node17&#45;&gt;Node5</title>
<path fill="none" stroke="midnightblue" d="M375.101,-56.083C381.237,-48.3768 390.27,-37.0333 397.739,-27.6531"/>
<polygon fill="midnightblue" stroke="midnightblue" points="400.54,-29.7542 404.032,-19.7511 395.064,-25.3936 400.54,-29.7542"/>
</g>
<!-- Node17&#45;&gt;Node8 -->
<g id="edge22" class="edge"><title>Node17&#45;&gt;Node8</title>
<path fill="none" stroke="midnightblue" d="M354.183,-56.324C340.767,-47.9002 320.176,-34.9709 304.414,-25.0741"/>
<polygon fill="midnightblue" stroke="midnightblue" points="306.113,-22.0081 295.783,-19.6545 302.391,-27.9364 306.113,-22.0081"/>
</g>
<!-- Node18 -->
<g id="node19" class="node"><title>Node18</title>
<polygon fill="none" stroke="#bfbfbf" points="607.5,-0.5 607.5,-19.5 648.5,-19.5 648.5,-0.5 607.5,-0.5"/>
<text text-anchor="middle" x="628" y="-7.5" font-family="Helvetica,sans-Serif" font-size="10.00">string</text>
</g>
<!-- Node17&#45;&gt;Node18 -->
<g id="edge24" class="edge"><title>Node17&#45;&gt;Node18</title>
<path fill="none" stroke="midnightblue" d="M409.198,-56.4435C461.648,-45.5501 551.039,-26.9841 597.67,-17.2994"/>
<polygon fill="midnightblue" stroke="midnightblue" points="598.402,-20.7221 607.481,-15.2616 596.978,-13.8683 598.402,-20.7221"/>
</g>
<!-- Node20&#45;&gt;Node6 -->
<g id="edge28" class="edge"><title>Node20&#45;&gt;Node6</title>
<path fill="none" stroke="midnightblue" d="M120.892,-224.409C114.877,-215.617 105.773,-201.386 100,-188 85.0057,-153.233 74.7175,-110.006 69.6444,-85.7607"/>
<polygon fill="midnightblue" stroke="midnightblue" points="73.0389,-84.8879 67.6286,-75.7786 66.1775,-86.2736 73.0389,-84.8879"/>
</g>
<!-- Node20&#45;&gt;Node12 -->
<g id="edge29" class="edge"><title>Node20&#45;&gt;Node12</title>
<path fill="none" stroke="midnightblue" d="M137.122,-224.324C146.526,-216.263 160.744,-204.077 172.069,-194.369"/>
<polygon fill="midnightblue" stroke="midnightblue" points="174.379,-196.999 179.694,-187.834 169.823,-191.684 174.379,-196.999"/>
</g>
<!-- Node21&#45;&gt;Node6 -->
<g id="edge31" class="edge"><title>Node21&#45;&gt;Node6</title>
<path fill="none" stroke="midnightblue" d="M81.3153,-352.909C67.8123,-343.861 47.3122,-328.512 34,-311 11.6064,-281.541 0,-272.004 0,-235 0,-235 0,-235 0,-177 0,-138.857 29.5396,-102.517 49.0944,-82.6396"/>
<polygon fill="midnightblue" stroke="midnightblue" points="51.5608,-85.1232 56.2615,-75.6282 46.6656,-80.1194 51.5608,-85.1232"/>
</g>
<!-- Node22 -->
<g id="node23" class="node"><title>Node22</title>
<g id="a_node23"><a xlink:href="DPProfileProcess_8h.html" target="_top" xlink:title="DPProfileProcess.h">
<polygon fill="none" stroke="black" points="43.5,-286 43.5,-305 146.5,-305 146.5,-286 43.5,-286"/>
<text text-anchor="middle" x="95" y="-293" font-family="Helvetica,sans-Serif" font-size="10.00">DPProfileProcess.h</text>
</a>
</g>
</g>
<!-- Node21&#45;&gt;Node22 -->
<g id="edge32" class="edge"><title>Node21&#45;&gt;Node22</title>
<path fill="none" stroke="midnightblue" d="M95,-352.734C95,-343.183 95,-327.618 95,-315.283"/>
<polygon fill="midnightblue" stroke="midnightblue" points="98.5001,-315.127 95,-305.127 91.5001,-315.127 98.5001,-315.127"/>
</g>
<!-- Node22&#45;&gt;Node6 -->
<g id="edge33" class="edge"><title>Node22&#45;&gt;Node6</title>
<path fill="none" stroke="midnightblue" d="M85.6712,-285.893C76.3548,-276.603 62.6343,-260.858 57,-244 38.5915,-188.92 52.2201,-118.843 60.6514,-85.825"/>
<polygon fill="midnightblue" stroke="midnightblue" points="64.1365,-86.3429 63.3559,-75.7769 57.3771,-84.5236 64.1365,-86.3429"/>
</g>
<!-- Node22&#45;&gt;Node20 -->
<g id="edge34" class="edge"><title>Node22&#45;&gt;Node20</title>
<path fill="none" stroke="midnightblue" d="M99.5848,-285.975C104.242,-277.315 111.592,-263.649 117.51,-252.645"/>
<polygon fill="midnightblue" stroke="midnightblue" points="120.77,-253.974 122.424,-243.509 114.605,-250.658 120.77,-253.974"/>
</g>
<!-- Node24 -->
<g id="node25" class="node"><title>Node24</title>
<g id="a_node25"><a xlink:href="CodonSubMatrix_8h.html" target="_top" xlink:title="CodonSubMatrix.h">
<polygon fill="none" stroke="black" points="498,-224.5 498,-243.5 596,-243.5 596,-224.5 498,-224.5"/>
<text text-anchor="middle" x="547" y="-231.5" font-family="Helvetica,sans-Serif" font-size="10.00">CodonSubMatrix.h</text>
</a>
</g>
</g>
<!-- Node23&#45;&gt;Node24 -->
<g id="edge36" class="edge"><title>Node23&#45;&gt;Node24</title>
<path fill="none" stroke="midnightblue" d="M506.956,-352.805C513.89,-332.404 531.33,-281.1 540.743,-253.408"/>
<polygon fill="midnightblue" stroke="midnightblue" points="544.119,-254.35 544.024,-243.756 537.492,-252.097 544.119,-254.35"/>
</g>
<!-- Node26 -->
<g id="node27" class="node"><title>Node26</title>
<g id="a_node27"><a xlink:href="CodonSequenceAlignment_8h.html" target="_top" xlink:title="CodonSequenceAlignment.h">
<polygon fill="none" stroke="black" points="206,-224.5 206,-243.5 346,-243.5 346,-224.5 206,-224.5"/>
<text text-anchor="middle" x="276" y="-231.5" font-family="Helvetica,sans-Serif" font-size="10.00">CodonSequenceAlignment.h</text>
</a>
</g>
</g>
<!-- Node23&#45;&gt;Node26 -->
<g id="edge41" class="edge"><title>Node23&#45;&gt;Node26</title>
<path fill="none" stroke="midnightblue" d="M504.733,-352.952C505.647,-336.375 505.099,-299.761 485,-280 474.545,-269.721 397.371,-254.987 339.824,-245.214"/>
<polygon fill="midnightblue" stroke="midnightblue" points="340.132,-241.716 329.69,-243.509 338.971,-248.619 340.132,-241.716"/>
</g>
<!-- Node29 -->
<g id="node30" class="node"><title>Node29</title>
<g id="a_node30"><a xlink:href="GeneralPathSuffStatMatrixProfileProcess_8h.html" target="_top" xlink:title="GeneralPathSuffStatMatrix\lProfileProcess.h">
<polygon fill="none" stroke="black" points="342,-280.5 342,-310.5 476,-310.5 476,-280.5 342,-280.5"/>
<text text-anchor="start" x="350" y="-298.5" font-family="Helvetica,sans-Serif" font-size="10.00">GeneralPathSuffStatMatrix</text>
<text text-anchor="middle" x="409" y="-287.5" font-family="Helvetica,sans-Serif" font-size="10.00">ProfileProcess.h</text>
</a>
</g>
</g>
<!-- Node23&#45;&gt;Node29 -->
<g id="edge51" class="edge"><title>Node23&#45;&gt;Node29</title>
<path fill="none" stroke="midnightblue" d="M491.188,-352.734C477.608,-343.443 455.712,-328.461 437.934,-316.297"/>
<polygon fill="midnightblue" stroke="midnightblue" points="439.821,-313.347 429.592,-310.589 435.868,-319.124 439.821,-313.347"/>
</g>
<!-- Node24&#45;&gt;Node4 -->
<g id="edge40" class="edge"><title>Node24&#45;&gt;Node4</title>
<path fill="none" stroke="midnightblue" d="M545.844,-224.083C544.916,-216.927 543.582,-206.635 542.423,-197.691"/>
<polygon fill="midnightblue" stroke="midnightblue" points="545.891,-197.218 541.134,-187.751 538.949,-198.118 545.891,-197.218"/>
</g>
<!-- Node25 -->
<g id="node26" class="node"><title>Node25</title>
<g id="a_node26"><a xlink:href="CodonStateSpace_8h.html" target="_top" xlink:title="CodonStateSpace.h">
<polygon fill="none" stroke="black" points="253,-168.5 253,-187.5 357,-187.5 357,-168.5 253,-168.5"/>
<text text-anchor="middle" x="305" y="-175.5" font-family="Helvetica,sans-Serif" font-size="10.00">CodonStateSpace.h</text>
</a>
</g>
</g>
<!-- Node24&#45;&gt;Node25 -->
<g id="edge37" class="edge"><title>Node24&#45;&gt;Node25</title>
<path fill="none" stroke="midnightblue" d="M508.654,-224.444C466.527,-215.043 398.794,-199.929 353.128,-189.739"/>
<polygon fill="midnightblue" stroke="midnightblue" points="353.688,-186.278 343.166,-187.516 352.164,-193.11 353.688,-186.278"/>
</g>
<!-- Node25&#45;&gt;Node16 -->
<g id="edge38" class="edge"><title>Node25&#45;&gt;Node16</title>
<path fill="none" stroke="midnightblue" d="M313.997,-168.324C322.194,-160.42 334.506,-148.548 344.472,-138.938"/>
<polygon fill="midnightblue" stroke="midnightblue" points="347.07,-141.295 351.839,-131.834 342.211,-136.256 347.07,-141.295"/>
</g>
<!-- Node25&#45;&gt;Node19 -->
<g id="edge39" class="edge"><title>Node25&#45;&gt;Node19</title>
<path fill="none" stroke="midnightblue" d="M299.586,-168.368C288.249,-150.296 261.829,-108.176 246.856,-84.3074"/>
<polygon fill="midnightblue" stroke="midnightblue" points="249.668,-82.2029 241.389,-75.5914 243.738,-85.9226 249.668,-82.2029"/>
</g>
<!-- Node26&#45;&gt;Node6 -->
<g id="edge50" class="edge"><title>Node26&#45;&gt;Node6</title>
<path fill="none" stroke="midnightblue" d="M218.177,-224.453C190.929,-218.071 159.359,-207.024 136,-188 105.907,-163.493 112.541,-145.531 93,-112 87.6586,-102.834 81.5905,-92.6971 76.5617,-84.3682"/>
<polygon fill="midnightblue" stroke="midnightblue" points="79.4172,-82.3268 71.2417,-75.588 73.4305,-85.9543 79.4172,-82.3268"/>
</g>
<!-- Node26&#45;&gt;Node25 -->
<g id="edge49" class="edge"><title>Node26&#45;&gt;Node25</title>
<path fill="none" stroke="midnightblue" d="M280.789,-224.083C284.758,-216.691 290.525,-205.953 295.435,-196.811"/>
<polygon fill="midnightblue" stroke="midnightblue" points="298.653,-198.217 300.3,-187.751 292.486,-194.905 298.653,-198.217"/>
</g>
<!-- Node27 -->
<g id="node28" class="node"><title>Node27</title>
<g id="a_node28"><a xlink:href="SequenceAlignment_8h.html" target="_top" xlink:title="SequenceAlignment.h">
<polygon fill="none" stroke="black" points="375,-168.5 375,-187.5 487,-187.5 487,-168.5 375,-168.5"/>
<text text-anchor="middle" x="431" y="-175.5" font-family="Helvetica,sans-Serif" font-size="10.00">SequenceAlignment.h</text>
</a>
</g>
</g>
<!-- Node26&#45;&gt;Node27 -->
<g id="edge42" class="edge"><title>Node26&#45;&gt;Node27</title>
<path fill="none" stroke="midnightblue" d="M300.56,-224.444C326.523,-215.399 367.668,-201.064 396.797,-190.916"/>
<polygon fill="midnightblue" stroke="midnightblue" points="398.263,-194.112 406.555,-187.516 395.96,-187.501 398.263,-194.112"/>
</g>
<!-- Node27&#45;&gt;Node7 -->
<g id="edge48" class="edge"><title>Node27&#45;&gt;Node7</title>
<path fill="none" stroke="midnightblue" d="M442.729,-168.324C453.837,-160.107 470.742,-147.602 483.983,-137.807"/>
<polygon fill="midnightblue" stroke="midnightblue" points="486.1,-140.595 492.058,-131.834 481.937,-134.967 486.1,-140.595"/>
</g>
<!-- Node27&#45;&gt;Node16 -->
<g id="edge43" class="edge"><title>Node27&#45;&gt;Node16</title>
<path fill="none" stroke="midnightblue" d="M419.753,-168.324C409.203,-160.185 393.199,-147.839 380.558,-138.087"/>
<polygon fill="midnightblue" stroke="midnightblue" points="382.507,-135.171 372.451,-131.834 378.231,-140.713 382.507,-135.171"/>
</g>
<!-- Node28 -->
<g id="node29" class="node"><title>Node28</title>
<g id="a_node29"><a xlink:href="TaxonSet_8h.html" target="_top" xlink:title="TaxonSet.h">
<polygon fill="none" stroke="black" points="611.5,-112.5 611.5,-131.5 678.5,-131.5 678.5,-112.5 611.5,-112.5"/>
<text text-anchor="middle" x="645" y="-119.5" font-family="Helvetica,sans-Serif" font-size="10.00">TaxonSet.h</text>
</a>
</g>
</g>
<!-- Node27&#45;&gt;Node28 -->
<g id="edge44" class="edge"><title>Node27&#45;&gt;Node28</title>
<path fill="none" stroke="midnightblue" d="M464.909,-168.444C501.849,-159.122 561.054,-144.183 601.418,-133.997"/>
<polygon fill="midnightblue" stroke="midnightblue" points="602.41,-137.357 611.25,-131.516 600.697,-130.57 602.41,-137.357"/>
</g>
<!-- Node28&#45;&gt;Node5 -->
<g id="edge47" class="edge"><title>Node28&#45;&gt;Node5</title>
<path fill="none" stroke="midnightblue" d="M655.633,-112.282C670.47,-99.0827 693.971,-73.6945 679,-56 649.857,-21.5555 514.66,-13.4609 448.151,-11.5696"/>
<polygon fill="midnightblue" stroke="midnightblue" points="448.178,-8.06931 438.093,-11.3163 448.002,-15.0671 448.178,-8.06931"/>
</g>
<!-- Node28&#45;&gt;Node18 -->
<g id="edge46" class="edge"><title>Node28&#45;&gt;Node18</title>
<path fill="none" stroke="midnightblue" d="M666.532,-112.323C691.152,-101.037 726.319,-79.9159 712,-56 700.474,-36.7489 677.584,-25.2654 658.606,-18.7225"/>
<polygon fill="midnightblue" stroke="midnightblue" points="659.431,-15.3131 648.841,-15.6571 657.334,-21.9917 659.431,-15.3131"/>
</g>
<!-- Node28&#45;&gt;Node19 -->
<g id="edge45" class="edge"><title>Node28&#45;&gt;Node19</title>
<path fill="none" stroke="midnightblue" d="M611.297,-116.677C549.678,-108.753 414.714,-91.31 301,-76 288.725,-74.3474 275.153,-72.4752 263.599,-70.8681"/>
<polygon fill="midnightblue" stroke="midnightblue" points="264.039,-67.3956 253.651,-69.4805 263.072,-74.3285 264.039,-67.3956"/>
</g>
<!-- Node29&#45;&gt;Node3 -->
<g id="edge52" class="edge"><title>Node29&#45;&gt;Node3</title>
<path fill="none" stroke="midnightblue" d="M412.081,-280.399C413.834,-272.377 416.05,-262.233 417.943,-253.569"/>
<polygon fill="midnightblue" stroke="midnightblue" points="421.393,-254.174 420.108,-243.658 414.554,-252.68 421.393,-254.174"/>
</g>
<!-- Node30&#45;&gt;Node2 -->
<g id="edge55" class="edge"><title>Node30&#45;&gt;Node2</title>
<path fill="none" stroke="midnightblue" d="M318.254,-347.396C303.135,-336.597 282.359,-321.756 267.142,-310.887"/>
<polygon fill="midnightblue" stroke="midnightblue" points="269.082,-307.971 258.91,-305.007 265.013,-313.667 269.082,-307.971"/>
</g>
<!-- Node30&#45;&gt;Node29 -->
<g id="edge54" class="edge"><title>Node30&#45;&gt;Node29</title>
<path fill="none" stroke="midnightblue" d="M353.406,-347.396C362.989,-338.623 375.485,-327.183 386.202,-317.371"/>
<polygon fill="midnightblue" stroke="midnightblue" points="388.612,-319.911 393.624,-310.577 383.885,-314.748 388.612,-319.911"/>
</g>
</g>
</svg>
