<?xml version="1.0" encoding="UTF-8" standalone="no"?>
<!DOCTYPE svg PUBLIC "-//W3C//DTD SVG 1.1//EN"
 "http://www.w3.org/Graphics/SVG/1.1/DTD/svg11.dtd">
<!-- Generated by graphviz version 2.38.0 (20140413.2041)
 -->
<!-- Title: AACodonMutSelProfileProcess.h Pages: 1 -->
<svg width="786pt" height="375pt"
 viewBox="0.00 0.00 785.50 375.00" xmlns="http://www.w3.org/2000/svg" xmlns:xlink="http://www.w3.org/1999/xlink">
<g id="graph0" class="graph" transform="scale(1 1) rotate(0) translate(4 371)">
<title>AACodonMutSelProfileProcess.h</title>
<!-- Node0 -->
<g id="node1" class="node"><title>Node0</title>
<polygon fill="#bfbfbf" stroke="black" points="166.5,-347.5 166.5,-366.5 327.5,-366.5 327.5,-347.5 166.5,-347.5"/>
<text text-anchor="middle" x="247" y="-354.5" font-family="Helvetica,sans-Serif" font-size="10.00">AACodonMutSelProfileProcess.h</text>
</g>
<!-- Node1 -->
<g id="node2" class="node"><title>Node1</title>
<g id="a_node2"><a xlink:href="CodonSubMatrix_8h.html" target="_top" xlink:title="CodonSubMatrix.h">
<polygon fill="none" stroke="black" points="198,-224.5 198,-243.5 296,-243.5 296,-224.5 198,-224.5"/>
<text text-anchor="middle" x="247" y="-231.5" font-family="Helvetica,sans-Serif" font-size="10.00">CodonSubMatrix.h</text>
</a>
</g>
</g>
<!-- Node0&#45;&gt;Node1 -->
<g id="edge1" class="edge"><title>Node0&#45;&gt;Node1</title>
<path fill="none" stroke="midnightblue" d="M247,-347.298C247,-327.85 247,-280.49 247,-253.904"/>
<polygon fill="midnightblue" stroke="midnightblue" points="250.5,-253.623 247,-243.623 243.5,-253.623 250.5,-253.623"/>
</g>
<!-- Node15 -->
<g id="node16" class="node"><title>Node15</title>
<g id="a_node16"><a xlink:href="CodonSequenceAlignment_8h.html" target="_top" xlink:title="CodonSequenceAlignment.h">
<polygon fill="none" stroke="black" points="314,-224.5 314,-243.5 454,-243.5 454,-224.5 314,-224.5"/>
<text text-anchor="middle" x="384" y="-231.5" font-family="Helvetica,sans-Serif" font-size="10.00">CodonSequenceAlignment.h</text>
</a>
</g>
</g>
<!-- Node0&#45;&gt;Node15 -->
<g id="edge19" class="edge"><title>Node0&#45;&gt;Node15</title>
<path fill="none" stroke="midnightblue" d="M256.853,-347.298C279.859,-326.978 337.368,-276.186 366.5,-250.457"/>
<polygon fill="midnightblue" stroke="midnightblue" points="369.058,-252.866 374.237,-243.623 364.424,-247.62 369.058,-252.866"/>
</g>
<!-- Node18 -->
<g id="node19" class="node"><title>Node18</title>
<g id="a_node19"><a xlink:href="GeneralPathSuffStatMatrixProfileProcess_8h.html" target="_top" xlink:title="GeneralPathSuffStatMatrix\lProfileProcess.h">
<polygon fill="none" stroke="black" points="70,-280.5 70,-310.5 204,-310.5 204,-280.5 70,-280.5"/>
<text text-anchor="start" x="78" y="-298.5" font-family="Helvetica,sans-Serif" font-size="10.00">GeneralPathSuffStatMatrix</text>
<text text-anchor="middle" x="137" y="-287.5" font-family="Helvetica,sans-Serif" font-size="10.00">ProfileProcess.h</text>
</a>
</g>
</g>
<!-- Node0&#45;&gt;Node18 -->
<g id="edge29" class="edge"><title>Node0&#45;&gt;Node18</title>
<path fill="none" stroke="midnightblue" d="M231.24,-347.475C215.785,-339.115 191.705,-326.09 171.755,-315.299"/>
<polygon fill="midnightblue" stroke="midnightblue" points="173.386,-312.202 162.925,-310.523 170.055,-318.359 173.386,-312.202"/>
</g>
<!-- Node2 -->
<g id="node3" class="node"><title>Node2</title>
<g id="a_node3"><a xlink:href="CodonStateSpace_8h.html" target="_top" xlink:title="CodonStateSpace.h">
<polygon fill="none" stroke="black" points="453,-168.5 453,-187.5 557,-187.5 557,-168.5 453,-168.5"/>
<text text-anchor="middle" x="505" y="-175.5" font-family="Helvetica,sans-Serif" font-size="10.00">CodonStateSpace.h</text>
</a>
</g>
</g>
<!-- Node1&#45;&gt;Node2 -->
<g id="edge2" class="edge"><title>Node1&#45;&gt;Node2</title>
<path fill="none" stroke="midnightblue" d="M287.881,-224.444C332.983,-215.004 405.612,-199.802 454.302,-189.611"/>
<polygon fill="midnightblue" stroke="midnightblue" points="455.24,-192.991 464.31,-187.516 453.805,-186.139 455.24,-192.991"/>
</g>
<!-- Node9 -->
<g id="node10" class="node"><title>Node9</title>
<g id="a_node10"><a xlink:href="SubMatrix_8h.html" target="_top" xlink:title="SubMatrix.h">
<polygon fill="none" stroke="black" points="184.5,-168.5 184.5,-187.5 253.5,-187.5 253.5,-168.5 184.5,-168.5"/>
<text text-anchor="middle" x="219" y="-175.5" font-family="Helvetica,sans-Serif" font-size="10.00">SubMatrix.h</text>
</a>
</g>
</g>
<!-- Node1&#45;&gt;Node9 -->
<g id="edge9" class="edge"><title>Node1&#45;&gt;Node9</title>
<path fill="none" stroke="midnightblue" d="M242.376,-224.083C238.544,-216.691 232.976,-205.953 228.235,-196.811"/>
<polygon fill="midnightblue" stroke="midnightblue" points="231.248,-195.018 223.538,-187.751 225.034,-198.24 231.248,-195.018"/>
</g>
<!-- Node3 -->
<g id="node4" class="node"><title>Node3</title>
<g id="a_node4"><a xlink:href="StateSpace_8h.html" target="_top" xlink:title="StateSpace.h">
<polygon fill="none" stroke="black" points="459,-112.5 459,-131.5 535,-131.5 535,-112.5 459,-112.5"/>
<text text-anchor="middle" x="497" y="-119.5" font-family="Helvetica,sans-Serif" font-size="10.00">StateSpace.h</text>
</a>
</g>
</g>
<!-- Node2&#45;&gt;Node3 -->
<g id="edge3" class="edge"><title>Node2&#45;&gt;Node3</title>
<path fill="none" stroke="midnightblue" d="M503.679,-168.083C502.619,-160.927 501.094,-150.635 499.769,-141.691"/>
<polygon fill="midnightblue" stroke="midnightblue" points="503.224,-141.13 498.296,-131.751 496.3,-142.156 503.224,-141.13"/>
</g>
<!-- Node8 -->
<g id="node9" class="node"><title>Node8</title>
<polygon fill="none" stroke="#bfbfbf" points="742.5,-56.5 742.5,-75.5 777.5,-75.5 777.5,-56.5 742.5,-56.5"/>
<text text-anchor="middle" x="760" y="-63.5" font-family="Helvetica,sans-Serif" font-size="10.00">map</text>
</g>
<!-- Node2&#45;&gt;Node8 -->
<g id="edge8" class="edge"><title>Node2&#45;&gt;Node8</title>
<path fill="none" stroke="midnightblue" d="M557.272,-170.734C594.75,-164.673 645.55,-153.172 686,-132 709.776,-119.555 732.211,-97.9408 746.014,-83.0762"/>
<polygon fill="midnightblue" stroke="midnightblue" points="748.647,-85.3827 752.748,-75.6137 743.45,-80.6931 748.647,-85.3827"/>
</g>
<!-- Node4 -->
<g id="node5" class="node"><title>Node4</title>
<g id="a_node5"><a xlink:href="BiologicalSequences_8h.html" target="_top" xlink:title="BiologicalSequences.h">
<polygon fill="none" stroke="black" points="570,-56.5 570,-75.5 686,-75.5 686,-56.5 570,-56.5"/>
<text text-anchor="middle" x="628" y="-63.5" font-family="Helvetica,sans-Serif" font-size="10.00">BiologicalSequences.h</text>
</a>
</g>
</g>
<!-- Node3&#45;&gt;Node4 -->
<g id="edge4" class="edge"><title>Node3&#45;&gt;Node4</title>
<path fill="none" stroke="midnightblue" d="M517.757,-112.444C539.316,-103.557 573.263,-89.5632 597.794,-79.4514"/>
<polygon fill="midnightblue" stroke="midnightblue" points="599.428,-82.5634 607.34,-75.5164 596.761,-76.0917 599.428,-82.5634"/>
</g>
<!-- Node5 -->
<g id="node6" class="node"><title>Node5</title>
<polygon fill="none" stroke="#bfbfbf" points="481.5,-0.5 481.5,-19.5 526.5,-19.5 526.5,-0.5 481.5,-0.5"/>
<text text-anchor="middle" x="504" y="-7.5" font-family="Helvetica,sans-Serif" font-size="10.00">cstdlib</text>
</g>
<!-- Node4&#45;&gt;Node5 -->
<g id="edge5" class="edge"><title>Node4&#45;&gt;Node5</title>
<path fill="none" stroke="midnightblue" d="M608.352,-56.4435C588.035,-47.5961 556.097,-33.6875 532.902,-23.5865"/>
<polygon fill="midnightblue" stroke="midnightblue" points="534.122,-20.3002 523.556,-19.5164 531.327,-26.7181 534.122,-20.3002"/>
</g>
<!-- Node6 -->
<g id="node7" class="node"><title>Node6</title>
<polygon fill="none" stroke="#bfbfbf" points="275,-0.5 275,-19.5 329,-19.5 329,-0.5 275,-0.5"/>
<text text-anchor="middle" x="302" y="-7.5" font-family="Helvetica,sans-Serif" font-size="10.00">iostream</text>
</g>
<!-- Node4&#45;&gt;Node6 -->
<g id="edge6" class="edge"><title>Node4&#45;&gt;Node6</title>
<path fill="none" stroke="midnightblue" d="M576.344,-56.4435C510.291,-45.5021 397.508,-26.8204 339.26,-17.172"/>
<polygon fill="midnightblue" stroke="midnightblue" points="339.818,-13.7167 329.38,-15.5354 338.674,-20.6226 339.818,-13.7167"/>
</g>
<!-- Node7 -->
<g id="node8" class="node"><title>Node7</title>
<polygon fill="none" stroke="#bfbfbf" points="650.5,-0.5 650.5,-19.5 691.5,-19.5 691.5,-0.5 650.5,-0.5"/>
<text text-anchor="middle" x="671" y="-7.5" font-family="Helvetica,sans-Serif" font-size="10.00">string</text>
</g>
<!-- Node4&#45;&gt;Node7 -->
<g id="edge7" class="edge"><title>Node4&#45;&gt;Node7</title>
<path fill="none" stroke="midnightblue" d="M635.101,-56.083C641.237,-48.3768 650.27,-37.0333 657.739,-27.6531"/>
<polygon fill="midnightblue" stroke="midnightblue" points="660.54,-29.7542 664.032,-19.7511 655.064,-25.3936 660.54,-29.7542"/>
</g>
<!-- Node9&#45;&gt;Node6 -->
<g id="edge10" class="edge"><title>Node9&#45;&gt;Node6</title>
<path fill="none" stroke="midnightblue" d="M211.258,-168.322C193.498,-147.327 153.269,-92.8126 179,-56 198.201,-28.5293 236.068,-17.7742 264.74,-13.5929"/>
<polygon fill="midnightblue" stroke="midnightblue" points="265.347,-17.0443 274.836,-12.331 264.479,-10.0984 265.347,-17.0443"/>
</g>
<!-- Node10 -->
<g id="node11" class="node"><title>Node10</title>
<polygon fill="none" stroke="#bfbfbf" points="188,-56.5 188,-75.5 232,-75.5 232,-56.5 188,-56.5"/>
<text text-anchor="middle" x="210" y="-63.5" font-family="Helvetica,sans-Serif" font-size="10.00">cmath</text>
</g>
<!-- Node9&#45;&gt;Node10 -->
<g id="edge11" class="edge"><title>Node9&#45;&gt;Node10</title>
<path fill="none" stroke="midnightblue" d="M218.294,-168.368C216.841,-150.617 213.491,-109.666 211.522,-85.5974"/>
<polygon fill="midnightblue" stroke="midnightblue" points="215.007,-85.2727 210.703,-75.5914 208.03,-85.8436 215.007,-85.2727"/>
</g>
<!-- Node11 -->
<g id="node12" class="node"><title>Node11</title>
<g id="a_node12"><a xlink:href="Random_8h.html" target="_top" xlink:title="Random.h">
<polygon fill="none" stroke="black" points="318,-112.5 318,-131.5 380,-131.5 380,-112.5 318,-112.5"/>
<text text-anchor="middle" x="349" y="-119.5" font-family="Helvetica,sans-Serif" font-size="10.00">Random.h</text>
</a>
</g>
</g>
<!-- Node9&#45;&gt;Node11 -->
<g id="edge12" class="edge"><title>Node9&#45;&gt;Node11</title>
<path fill="none" stroke="midnightblue" d="M239.599,-168.444C260.993,-159.557 294.681,-145.563 319.024,-135.451"/>
<polygon fill="midnightblue" stroke="midnightblue" points="320.605,-138.585 328.497,-131.516 317.92,-132.12 320.605,-138.585"/>
</g>
<!-- Node11&#45;&gt;Node5 -->
<g id="edge14" class="edge"><title>Node11&#45;&gt;Node5</title>
<path fill="none" stroke="midnightblue" d="M380.132,-114.594C405.019,-108.207 439.651,-96.3456 464,-76 479.055,-63.4204 490.076,-43.6489 496.693,-29.2127"/>
<polygon fill="midnightblue" stroke="midnightblue" points="499.995,-30.3924 500.727,-19.8229 493.564,-27.6289 499.995,-30.3924"/>
</g>
<!-- Node11&#45;&gt;Node6 -->
<g id="edge15" class="edge"><title>Node11&#45;&gt;Node6</title>
<path fill="none" stroke="midnightblue" d="M380.144,-113.815C416.13,-104.01 467.889,-84.3541 447,-56 422.418,-22.6332 373.333,-13.2782 339.118,-11.0264"/>
<polygon fill="midnightblue" stroke="midnightblue" points="339.178,-7.52528 329.02,-10.5368 338.839,-14.5171 339.178,-7.52528"/>
</g>
<!-- Node11&#45;&gt;Node10 -->
<g id="edge13" class="edge"><title>Node11&#45;&gt;Node10</title>
<path fill="none" stroke="midnightblue" d="M326.975,-112.444C303.896,-103.478 267.438,-89.314 241.359,-79.1827"/>
<polygon fill="midnightblue" stroke="midnightblue" points="242.511,-75.8753 231.922,-75.5164 239.976,-82.4002 242.511,-75.8753"/>
</g>
<!-- Node12 -->
<g id="node13" class="node"><title>Node12</title>
<polygon fill="none" stroke="#bfbfbf" points="250,-56.5 250,-75.5 302,-75.5 302,-56.5 250,-56.5"/>
<text text-anchor="middle" x="276" y="-63.5" font-family="Helvetica,sans-Serif" font-size="10.00">sstream</text>
</g>
<!-- Node11&#45;&gt;Node12 -->
<g id="edge16" class="edge"><title>Node11&#45;&gt;Node12</title>
<path fill="none" stroke="midnightblue" d="M337.271,-112.324C326.163,-104.107 309.258,-91.6017 296.017,-81.8069"/>
<polygon fill="midnightblue" stroke="midnightblue" points="298.063,-78.9671 287.942,-75.8339 293.9,-84.5948 298.063,-78.9671"/>
</g>
<!-- Node13 -->
<g id="node14" class="node"><title>Node13</title>
<polygon fill="none" stroke="#bfbfbf" points="320,-56.5 320,-75.5 370,-75.5 370,-56.5 320,-56.5"/>
<text text-anchor="middle" x="345" y="-63.5" font-family="Helvetica,sans-Serif" font-size="10.00">iomanip</text>
</g>
<!-- Node11&#45;&gt;Node13 -->
<g id="edge17" class="edge"><title>Node11&#45;&gt;Node13</title>
<path fill="none" stroke="midnightblue" d="M348.339,-112.083C347.815,-105.006 347.064,-94.8611 346.406,-85.9865"/>
<polygon fill="midnightblue" stroke="midnightblue" points="349.877,-85.4652 345.648,-75.7511 342.897,-85.9823 349.877,-85.4652"/>
</g>
<!-- Node14 -->
<g id="node15" class="node"><title>Node14</title>
<polygon fill="none" stroke="#bfbfbf" points="388,-56.5 388,-75.5 438,-75.5 438,-56.5 388,-56.5"/>
<text text-anchor="middle" x="413" y="-63.5" font-family="Helvetica,sans-Serif" font-size="10.00">fstream</text>
</g>
<!-- Node11&#45;&gt;Node14 -->
<g id="edge18" class="edge"><title>Node11&#45;&gt;Node14</title>
<path fill="none" stroke="midnightblue" d="M359.283,-112.324C368.836,-104.263 383.28,-92.0765 394.784,-82.3695"/>
<polygon fill="midnightblue" stroke="midnightblue" points="397.144,-84.9577 402.53,-75.8339 392.63,-79.6076 397.144,-84.9577"/>
</g>
<!-- Node15&#45;&gt;Node2 -->
<g id="edge27" class="edge"><title>Node15&#45;&gt;Node2</title>
<path fill="none" stroke="midnightblue" d="M403.173,-224.444C422.909,-215.636 453.885,-201.812 476.493,-191.722"/>
<polygon fill="midnightblue" stroke="midnightblue" points="478.211,-194.788 485.917,-187.516 475.359,-188.396 478.211,-194.788"/>
</g>
<!-- Node15&#45;&gt;Node10 -->
<g id="edge28" class="edge"><title>Node15&#45;&gt;Node10</title>
<path fill="none" stroke="midnightblue" d="M367.799,-224.378C352.991,-216.096 330.893,-202.7 314,-188 276.385,-155.27 240.249,-108.744 222.109,-84.0055"/>
<polygon fill="midnightblue" stroke="midnightblue" points="224.771,-81.7137 216.073,-75.6651 219.101,-85.818 224.771,-81.7137"/>
</g>
<!-- Node16 -->
<g id="node17" class="node"><title>Node16</title>
<g id="a_node17"><a xlink:href="SequenceAlignment_8h.html" target="_top" xlink:title="SequenceAlignment.h">
<polygon fill="none" stroke="black" points="323,-168.5 323,-187.5 435,-187.5 435,-168.5 323,-168.5"/>
<text text-anchor="middle" x="379" y="-175.5" font-family="Helvetica,sans-Serif" font-size="10.00">SequenceAlignment.h</text>
</a>
</g>
</g>
<!-- Node15&#45;&gt;Node16 -->
<g id="edge20" class="edge"><title>Node15&#45;&gt;Node16</title>
<path fill="none" stroke="midnightblue" d="M383.174,-224.083C382.519,-217.006 381.58,-206.861 380.758,-197.986"/>
<polygon fill="midnightblue" stroke="midnightblue" points="384.217,-197.386 379.81,-187.751 377.247,-198.031 384.217,-197.386"/>
</g>
<!-- Node16&#45;&gt;Node3 -->
<g id="edge21" class="edge"><title>Node16&#45;&gt;Node3</title>
<path fill="none" stroke="midnightblue" d="M397.697,-168.444C416.944,-159.636 447.152,-145.812 469.2,-135.722"/>
<polygon fill="midnightblue" stroke="midnightblue" points="470.753,-138.86 478.39,-131.516 467.84,-132.495 470.753,-138.86"/>
</g>
<!-- Node16&#45;&gt;Node11 -->
<g id="edge26" class="edge"><title>Node16&#45;&gt;Node11</title>
<path fill="none" stroke="midnightblue" d="M374.046,-168.083C369.896,-160.613 363.847,-149.724 358.733,-140.52"/>
<polygon fill="midnightblue" stroke="midnightblue" points="361.778,-138.793 353.862,-131.751 355.659,-142.192 361.778,-138.793"/>
</g>
<!-- Node17 -->
<g id="node18" class="node"><title>Node17</title>
<g id="a_node18"><a xlink:href="TaxonSet_8h.html" target="_top" xlink:title="TaxonSet.h">
<polygon fill="none" stroke="black" points="610.5,-112.5 610.5,-131.5 677.5,-131.5 677.5,-112.5 610.5,-112.5"/>
<text text-anchor="middle" x="644" y="-119.5" font-family="Helvetica,sans-Serif" font-size="10.00">TaxonSet.h</text>
</a>
</g>
</g>
<!-- Node16&#45;&gt;Node17 -->
<g id="edge22" class="edge"><title>Node16&#45;&gt;Node17</title>
<path fill="none" stroke="midnightblue" d="M420.99,-168.444C470.007,-158.455 550.679,-142.016 600.383,-131.888"/>
<polygon fill="midnightblue" stroke="midnightblue" points="601.095,-135.315 610.195,-129.889 599.697,-128.456 601.095,-135.315"/>
</g>
<!-- Node17&#45;&gt;Node6 -->
<g id="edge25" class="edge"><title>Node17&#45;&gt;Node6</title>
<path fill="none" stroke="midnightblue" d="M622.016,-112.452C588.284,-99.4758 521.61,-74.3744 464,-56 421.591,-42.4741 372.223,-29.0946 339.234,-20.4867"/>
<polygon fill="midnightblue" stroke="midnightblue" points="339.687,-16.9885 329.129,-17.8655 337.93,-23.7643 339.687,-16.9885"/>
</g>
<!-- Node17&#45;&gt;Node7 -->
<g id="edge24" class="edge"><title>Node17&#45;&gt;Node7</title>
<path fill="none" stroke="midnightblue" d="M659.734,-112.236C671.889,-104.481 687.812,-91.9292 695,-76 702.236,-59.9642 693.372,-41.0364 684.441,-27.7546"/>
<polygon fill="midnightblue" stroke="midnightblue" points="687.177,-25.5665 678.445,-19.5665 681.529,-29.7023 687.177,-25.5665"/>
</g>
<!-- Node17&#45;&gt;Node8 -->
<g id="edge23" class="edge"><title>Node17&#45;&gt;Node8</title>
<path fill="none" stroke="midnightblue" d="M662.381,-112.444C681.438,-103.572 711.427,-89.6115 733.14,-79.5038"/>
<polygon fill="midnightblue" stroke="midnightblue" points="734.876,-82.5563 742.465,-75.1629 731.922,-76.2103 734.876,-82.5563"/>
</g>
<!-- Node19 -->
<g id="node20" class="node"><title>Node19</title>
<g id="a_node20"><a xlink:href="MatrixProfileProcess_8h.html" target="_top" xlink:title="MatrixProfileProcess.h">
<polygon fill="none" stroke="black" points="64,-224.5 64,-243.5 180,-243.5 180,-224.5 64,-224.5"/>
<text text-anchor="middle" x="122" y="-231.5" font-family="Helvetica,sans-Serif" font-size="10.00">MatrixProfileProcess.h</text>
</a>
</g>
</g>
<!-- Node18&#45;&gt;Node19 -->
<g id="edge30" class="edge"><title>Node18&#45;&gt;Node19</title>
<path fill="none" stroke="midnightblue" d="M133.445,-280.399C131.423,-272.377 128.865,-262.233 126.681,-253.569"/>
<polygon fill="midnightblue" stroke="midnightblue" points="130.021,-252.499 124.183,-243.658 123.233,-254.21 130.021,-252.499"/>
</g>
<!-- Node19&#45;&gt;Node9 -->
<g id="edge31" class="edge"><title>Node19&#45;&gt;Node9</title>
<path fill="none" stroke="midnightblue" d="M137.585,-224.324C152.999,-215.743 176.812,-202.486 194.71,-192.522"/>
<polygon fill="midnightblue" stroke="midnightblue" points="196.419,-195.577 203.454,-187.655 193.014,-189.461 196.419,-195.577"/>
</g>
<!-- Node20 -->
<g id="node21" class="node"><title>Node20</title>
<g id="a_node21"><a xlink:href="ProfileProcess_8h.html" target="_top" xlink:title="ProfileProcess.h">
<polygon fill="none" stroke="black" points="77.5,-168.5 77.5,-187.5 166.5,-187.5 166.5,-168.5 77.5,-168.5"/>
<text text-anchor="middle" x="122" y="-175.5" font-family="Helvetica,sans-Serif" font-size="10.00">ProfileProcess.h</text>
</a>
</g>
</g>
<!-- Node19&#45;&gt;Node20 -->
<g id="edge32" class="edge"><title>Node19&#45;&gt;Node20</title>
<path fill="none" stroke="midnightblue" d="M122,-224.083C122,-217.006 122,-206.861 122,-197.986"/>
<polygon fill="midnightblue" stroke="midnightblue" points="125.5,-197.751 122,-187.751 118.5,-197.751 125.5,-197.751"/>
</g>
<!-- Node20&#45;&gt;Node3 -->
<g id="edge38" class="edge"><title>Node20&#45;&gt;Node3</title>
<path fill="none" stroke="midnightblue" d="M166.516,-169.336C169.386,-168.874 172.233,-168.425 175,-168 291.177,-150.159 320.656,-148.718 437,-132 440.877,-131.443 444.894,-130.858 448.928,-130.264"/>
<polygon fill="midnightblue" stroke="midnightblue" points="449.543,-133.712 458.922,-128.784 448.517,-126.787 449.543,-133.712"/>
</g>
<!-- Node20&#45;&gt;Node6 -->
<g id="edge39" class="edge"><title>Node20&#45;&gt;Node6</title>
<path fill="none" stroke="midnightblue" d="M122.795,-168.308C125.27,-146.314 134.789,-87.9308 168,-56 194.269,-30.7437 235.148,-19.6466 264.851,-14.7803"/>
<polygon fill="midnightblue" stroke="midnightblue" points="265.466,-18.2275 274.848,-13.3059 264.444,-11.3024 265.466,-18.2275"/>
</g>
<!-- Node20&#45;&gt;Node8 -->
<g id="edge40" class="edge"><title>Node20&#45;&gt;Node8</title>
<path fill="none" stroke="midnightblue" d="M166.532,-169.433C169.398,-168.947 172.239,-168.467 175,-168 270.099,-151.927 295.357,-155.089 389,-132 416.701,-125.17 422.223,-118.518 450,-112 463.723,-108.78 658.597,-81.253 732.161,-70.9081"/>
<polygon fill="midnightblue" stroke="midnightblue" points="733.075,-74.3142 742.49,-69.4564 732.1,-67.3823 733.075,-74.3142"/>
</g>
<!-- Node21 -->
<g id="node22" class="node"><title>Node21</title>
<g id="a_node22"><a xlink:href="Chrono_8h.html" target="_top" xlink:title="Chrono.h">
<polygon fill="none" stroke="black" points="38,-56.5 38,-75.5 94,-75.5 94,-56.5 38,-56.5"/>
<text text-anchor="middle" x="66" y="-63.5" font-family="Helvetica,sans-Serif" font-size="10.00">Chrono.h</text>
</a>
</g>
</g>
<!-- Node20&#45;&gt;Node21 -->
<g id="edge33" class="edge"><title>Node20&#45;&gt;Node21</title>
<path fill="none" stroke="midnightblue" d="M117.606,-168.368C108.446,-150.376 87.1529,-108.55 74.9736,-84.6267"/>
<polygon fill="midnightblue" stroke="midnightblue" points="78.0298,-82.9152 70.3738,-75.5914 71.7916,-86.091 78.0298,-82.9152"/>
</g>
<!-- Node21&#45;&gt;Node5 -->
<g id="edge37" class="edge"><title>Node21&#45;&gt;Node5</title>
<path fill="none" stroke="midnightblue" d="M94.0652,-61.5399C171.573,-51.9841 388.315,-25.2626 471.198,-15.0441"/>
<polygon fill="midnightblue" stroke="midnightblue" points="471.806,-18.4957 481.303,-13.7983 470.95,-11.5483 471.806,-18.4957"/>
</g>
<!-- Node21&#45;&gt;Node6 -->
<g id="edge36" class="edge"><title>Node21&#45;&gt;Node6</title>
<path fill="none" stroke="midnightblue" d="M94.4671,-58.4863C137.183,-48.7123 217.874,-30.2492 265.07,-19.45"/>
<polygon fill="midnightblue" stroke="midnightblue" points="265.923,-22.8455 274.89,-17.2031 264.361,-16.0219 265.923,-22.8455"/>
</g>
<!-- Node22 -->
<g id="node23" class="node"><title>Node22</title>
<polygon fill="none" stroke="#bfbfbf" points="80.5,-0.5 80.5,-19.5 121.5,-19.5 121.5,-0.5 80.5,-0.5"/>
<text text-anchor="middle" x="101" y="-7.5" font-family="Helvetica,sans-Serif" font-size="10.00">ctime</text>
</g>
<!-- Node21&#45;&gt;Node22 -->
<g id="edge34" class="edge"><title>Node21&#45;&gt;Node22</title>
<path fill="none" stroke="midnightblue" d="M71.7795,-56.083C76.6724,-48.5341 83.8274,-37.4948 89.8326,-28.2298"/>
<polygon fill="midnightblue" stroke="midnightblue" points="92.826,-30.0463 95.328,-19.7511 86.952,-26.239 92.826,-30.0463"/>
</g>
<!-- Node23 -->
<g id="node24" class="node"><title>Node23</title>
<polygon fill="none" stroke="#bfbfbf" points="0,-0.5 0,-19.5 62,-19.5 62,-0.5 0,-0.5"/>
<text text-anchor="middle" x="31" y="-7.5" font-family="Helvetica,sans-Serif" font-size="10.00">sys/time.h</text>
</g>
<!-- Node21&#45;&gt;Node23 -->
<g id="edge35" class="edge"><title>Node21&#45;&gt;Node23</title>
<path fill="none" stroke="midnightblue" d="M60.2205,-56.083C55.3276,-48.5341 48.1726,-37.4948 42.1674,-28.2298"/>
<polygon fill="midnightblue" stroke="midnightblue" points="45.048,-26.239 36.672,-19.7511 39.174,-30.0463 45.048,-26.239"/>
</g>
</g>
</svg>
