<?xml version="1.0" encoding="UTF-8" standalone="no"?>
<!DOCTYPE svg PUBLIC "-//W3C//DTD SVG 1.1//EN"
 "http://www.w3.org/Graphics/SVG/1.1/DTD/svg11.dtd">
<!-- Generated by graphviz version 2.38.0 (20140413.2041)
 -->
<!-- Title: AACodonMutSelFiniteProfileProcess.h Pages: 1 -->
<svg width="786pt" height="453pt"
 viewBox="0.00 0.00 785.50 453.00" xmlns="http://www.w3.org/2000/svg" xmlns:xlink="http://www.w3.org/1999/xlink">
<g id="graph0" class="graph" transform="scale(1 1) rotate(0) translate(4 449)">
<title>AACodonMutSelFiniteProfileProcess.h</title>
<!-- Node0 -->
<g id="node1" class="node"><title>Node0</title>
<polygon fill="#bfbfbf" stroke="black" points="326.5,-414.5 326.5,-444.5 467.5,-444.5 467.5,-414.5 326.5,-414.5"/>
<text text-anchor="start" x="334.5" y="-432.5" font-family="Helvetica,sans-Serif" font-size="10.00">AACodonMutSelFiniteProfile</text>
<text text-anchor="middle" x="397" y="-421.5" font-family="Helvetica,sans-Serif" font-size="10.00">Process.h</text>
</g>
<!-- Node1 -->
<g id="node2" class="node"><title>Node1</title>
<g id="a_node2"><a xlink:href="MatrixFiniteProfileProcess_8h.html" target="_top" xlink:title="MatrixFiniteProfileProcess.h">
<polygon fill="none" stroke="black" points="172,-353 172,-372 312,-372 312,-353 172,-353"/>
<text text-anchor="middle" x="242" y="-360" font-family="Helvetica,sans-Serif" font-size="10.00">MatrixFiniteProfileProcess.h</text>
</a>
</g>
</g>
<!-- Node0&#45;&gt;Node1 -->
<g id="edge1" class="edge"><title>Node0&#45;&gt;Node1</title>
<path fill="none" stroke="midnightblue" d="M363.367,-414.396C336.05,-402.941 297.892,-386.938 271.694,-375.952"/>
<polygon fill="midnightblue" stroke="midnightblue" points="272.861,-372.647 262.286,-372.007 270.154,-379.102 272.861,-372.647"/>
</g>
<!-- Node22 -->
<g id="node23" class="node"><title>Node22</title>
<g id="a_node23"><a xlink:href="AACodonMutSelProfileProcess_8h.html" target="_top" xlink:title="AACodonMutSelProfileProcess.h">
<polygon fill="none" stroke="black" points="482.5,-353 482.5,-372 643.5,-372 643.5,-353 482.5,-353"/>
<text text-anchor="middle" x="563" y="-360" font-family="Helvetica,sans-Serif" font-size="10.00">AACodonMutSelProfileProcess.h</text>
</a>
</g>
</g>
<!-- Node0&#45;&gt;Node22 -->
<g id="edge33" class="edge"><title>Node0&#45;&gt;Node22</title>
<path fill="none" stroke="midnightblue" d="M433.02,-414.396C462.533,-402.84 503.863,-386.656 531.938,-375.663"/>
<polygon fill="midnightblue" stroke="midnightblue" points="533.239,-378.912 541.274,-372.007 530.687,-372.394 533.239,-378.912"/>
</g>
<!-- Node29 -->
<g id="node30" class="node"><title>Node29</title>
<g id="a_node30"><a xlink:href="GeneralPathSuffStatMatrixMixtureProfileProcess_8h.html" target="_top" xlink:title="GeneralPathSuffStatMatrix\lMixtureProfileProcess.h">
<polygon fill="none" stroke="black" points="330,-347.5 330,-377.5 464,-377.5 464,-347.5 330,-347.5"/>
<text text-anchor="start" x="338" y="-365.5" font-family="Helvetica,sans-Serif" font-size="10.00">GeneralPathSuffStatMatrix</text>
<text text-anchor="middle" x="397" y="-354.5" font-family="Helvetica,sans-Serif" font-size="10.00">MixtureProfileProcess.h</text>
</a>
</g>
</g>
<!-- Node0&#45;&gt;Node29 -->
<g id="edge51" class="edge"><title>Node0&#45;&gt;Node29</title>
<path fill="none" stroke="midnightblue" d="M397,-414.396C397,-406.645 397,-396.812 397,-387.86"/>
<polygon fill="midnightblue" stroke="midnightblue" points="400.5,-387.576 397,-377.577 393.5,-387.577 400.5,-387.576"/>
</g>
<!-- Node2 -->
<g id="node3" class="node"><title>Node2</title>
<g id="a_node3"><a xlink:href="MatrixMixtureProfileProcess_8h.html" target="_top" xlink:title="MatrixMixtureProfileProcess.h">
<polygon fill="none" stroke="black" points="235,-286 235,-305 383,-305 383,-286 235,-286"/>
<text text-anchor="middle" x="309" y="-293" font-family="Helvetica,sans-Serif" font-size="10.00">MatrixMixtureProfileProcess.h</text>
</a>
</g>
</g>
<!-- Node1&#45;&gt;Node2 -->
<g id="edge2" class="edge"><title>Node1&#45;&gt;Node2</title>
<path fill="none" stroke="midnightblue" d="M251.036,-352.734C261.685,-342.403 279.585,-325.037 292.681,-312.332"/>
<polygon fill="midnightblue" stroke="midnightblue" points="295.367,-314.603 300.107,-305.127 290.493,-309.578 295.367,-314.603"/>
</g>
<!-- Node21 -->
<g id="node22" class="node"><title>Node21</title>
<g id="a_node22"><a xlink:href="FiniteProfileProcess_8h.html" target="_top" xlink:title="FiniteProfileProcess.h">
<polygon fill="none" stroke="black" points="103.5,-286 103.5,-305 216.5,-305 216.5,-286 103.5,-286"/>
<text text-anchor="middle" x="160" y="-293" font-family="Helvetica,sans-Serif" font-size="10.00">FiniteProfileProcess.h</text>
</a>
</g>
</g>
<!-- Node1&#45;&gt;Node21 -->
<g id="edge30" class="edge"><title>Node1&#45;&gt;Node21</title>
<path fill="none" stroke="midnightblue" d="M230.941,-352.734C217.662,-342.208 195.171,-324.379 179.071,-311.617"/>
<polygon fill="midnightblue" stroke="midnightblue" points="180.894,-308.596 170.884,-305.127 176.546,-314.082 180.894,-308.596"/>
</g>
<!-- Node3 -->
<g id="node4" class="node"><title>Node3</title>
<g id="a_node4"><a xlink:href="MatrixProfileProcess_8h.html" target="_top" xlink:title="MatrixProfileProcess.h">
<polygon fill="none" stroke="black" points="328,-224.5 328,-243.5 444,-243.5 444,-224.5 328,-224.5"/>
<text text-anchor="middle" x="386" y="-231.5" font-family="Helvetica,sans-Serif" font-size="10.00">MatrixProfileProcess.h</text>
</a>
</g>
</g>
<!-- Node2&#45;&gt;Node3 -->
<g id="edge3" class="edge"><title>Node2&#45;&gt;Node3</title>
<path fill="none" stroke="midnightblue" d="M320.032,-285.975C332.268,-276.52 352.229,-261.096 366.993,-249.687"/>
<polygon fill="midnightblue" stroke="midnightblue" points="369.215,-252.393 374.988,-243.509 364.935,-246.854 369.215,-252.393"/>
</g>
<!-- Node20 -->
<g id="node21" class="node"><title>Node20</title>
<g id="a_node21"><a xlink:href="MixtureProfileProcess_8h.html" target="_top" xlink:title="MixtureProfileProcess.h">
<polygon fill="none" stroke="black" points="188.5,-224.5 188.5,-243.5 309.5,-243.5 309.5,-224.5 188.5,-224.5"/>
<text text-anchor="middle" x="249" y="-231.5" font-family="Helvetica,sans-Serif" font-size="10.00">MixtureProfileProcess.h</text>
</a>
</g>
</g>
<!-- Node2&#45;&gt;Node20 -->
<g id="edge27" class="edge"><title>Node2&#45;&gt;Node20</title>
<path fill="none" stroke="midnightblue" d="M300.403,-285.975C291.136,-276.785 276.183,-261.956 264.788,-250.656"/>
<polygon fill="midnightblue" stroke="midnightblue" points="267.146,-248.065 257.581,-243.509 262.217,-253.036 267.146,-248.065"/>
</g>
<!-- Node4 -->
<g id="node5" class="node"><title>Node4</title>
<g id="a_node5"><a xlink:href="SubMatrix_8h.html" target="_top" xlink:title="SubMatrix.h">
<polygon fill="none" stroke="black" points="226.5,-168.5 226.5,-187.5 295.5,-187.5 295.5,-168.5 226.5,-168.5"/>
<text text-anchor="middle" x="261" y="-175.5" font-family="Helvetica,sans-Serif" font-size="10.00">SubMatrix.h</text>
</a>
</g>
</g>
<!-- Node3&#45;&gt;Node4 -->
<g id="edge4" class="edge"><title>Node3&#45;&gt;Node4</title>
<path fill="none" stroke="midnightblue" d="M366.193,-224.444C345.713,-215.596 313.517,-201.687 290.135,-191.586"/>
<polygon fill="midnightblue" stroke="midnightblue" points="291.282,-188.269 280.714,-187.516 288.506,-194.695 291.282,-188.269"/>
</g>
<!-- Node12 -->
<g id="node13" class="node"><title>Node12</title>
<g id="a_node13"><a xlink:href="ProfileProcess_8h.html" target="_top" xlink:title="ProfileProcess.h">
<polygon fill="none" stroke="black" points="370.5,-168.5 370.5,-187.5 459.5,-187.5 459.5,-168.5 370.5,-168.5"/>
<text text-anchor="middle" x="415" y="-175.5" font-family="Helvetica,sans-Serif" font-size="10.00">ProfileProcess.h</text>
</a>
</g>
</g>
<!-- Node3&#45;&gt;Node12 -->
<g id="edge14" class="edge"><title>Node3&#45;&gt;Node12</title>
<path fill="none" stroke="midnightblue" d="M390.789,-224.083C394.758,-216.691 400.525,-205.953 405.435,-196.811"/>
<polygon fill="midnightblue" stroke="midnightblue" points="408.653,-198.217 410.3,-187.751 402.486,-194.905 408.653,-198.217"/>
</g>
<!-- Node5 -->
<g id="node6" class="node"><title>Node5</title>
<polygon fill="none" stroke="#bfbfbf" points="317,-0.5 317,-19.5 371,-19.5 371,-0.5 317,-0.5"/>
<text text-anchor="middle" x="344" y="-7.5" font-family="Helvetica,sans-Serif" font-size="10.00">iostream</text>
</g>
<!-- Node4&#45;&gt;Node5 -->
<g id="edge5" class="edge"><title>Node4&#45;&gt;Node5</title>
<path fill="none" stroke="midnightblue" d="M239.994,-168.361C196.635,-149.323 104.24,-101.801 141,-56 161.389,-30.5968 253.915,-18.6465 306.738,-13.8062"/>
<polygon fill="midnightblue" stroke="midnightblue" points="307.084,-17.2894 316.74,-12.9311 306.473,-10.3161 307.084,-17.2894"/>
</g>
<!-- Node6 -->
<g id="node7" class="node"><title>Node6</title>
<polygon fill="none" stroke="#bfbfbf" points="150,-56.5 150,-75.5 194,-75.5 194,-56.5 150,-56.5"/>
<text text-anchor="middle" x="172" y="-63.5" font-family="Helvetica,sans-Serif" font-size="10.00">cmath</text>
</g>
<!-- Node4&#45;&gt;Node6 -->
<g id="edge6" class="edge"><title>Node4&#45;&gt;Node6</title>
<path fill="none" stroke="midnightblue" d="M254.87,-168.418C245.796,-155.819 228.119,-131.678 212,-112 204.052,-102.297 194.766,-91.8024 187.143,-83.3909"/>
<polygon fill="midnightblue" stroke="midnightblue" points="189.516,-80.7993 180.185,-75.7801 184.349,-85.5224 189.516,-80.7993"/>
</g>
<!-- Node7 -->
<g id="node8" class="node"><title>Node7</title>
<g id="a_node8"><a xlink:href="Random_8h.html" target="_top" xlink:title="Random.h">
<polygon fill="none" stroke="black" points="352,-112.5 352,-131.5 414,-131.5 414,-112.5 352,-112.5"/>
<text text-anchor="middle" x="383" y="-119.5" font-family="Helvetica,sans-Serif" font-size="10.00">Random.h</text>
</a>
</g>
</g>
<!-- Node4&#45;&gt;Node7 -->
<g id="edge7" class="edge"><title>Node4&#45;&gt;Node7</title>
<path fill="none" stroke="midnightblue" d="M280.331,-168.444C300.32,-159.596 331.743,-145.687 354.564,-135.586"/>
<polygon fill="midnightblue" stroke="midnightblue" points="356.032,-138.764 363.759,-131.516 353.198,-132.363 356.032,-138.764"/>
</g>
<!-- Node7&#45;&gt;Node5 -->
<g id="edge10" class="edge"><title>Node7&#45;&gt;Node5</title>
<path fill="none" stroke="midnightblue" d="M351.696,-113.165C311.952,-102.907 247.703,-85.1552 241,-76 220.335,-47.7728 269.4,-28.8822 306.697,-19.0497"/>
<polygon fill="midnightblue" stroke="midnightblue" points="307.983,-22.336 316.837,-16.5164 306.287,-15.5447 307.983,-22.336"/>
</g>
<!-- Node7&#45;&gt;Node6 -->
<g id="edge8" class="edge"><title>Node7&#45;&gt;Node6</title>
<path fill="none" stroke="midnightblue" d="M351.866,-113.032C312.215,-102.884 244.049,-85.439 203.991,-75.1873"/>
<polygon fill="midnightblue" stroke="midnightblue" points="204.762,-71.7719 194.207,-72.6832 203.027,-78.5534 204.762,-71.7719"/>
</g>
<!-- Node8 -->
<g id="node9" class="node"><title>Node8</title>
<polygon fill="none" stroke="#bfbfbf" points="519.5,-0.5 519.5,-19.5 564.5,-19.5 564.5,-0.5 519.5,-0.5"/>
<text text-anchor="middle" x="542" y="-7.5" font-family="Helvetica,sans-Serif" font-size="10.00">cstdlib</text>
</g>
<!-- Node7&#45;&gt;Node8 -->
<g id="edge9" class="edge"><title>Node7&#45;&gt;Node8</title>
<path fill="none" stroke="midnightblue" d="M395.476,-112.368C422.645,-93.5728 487.408,-48.7684 520.993,-25.5334"/>
<polygon fill="midnightblue" stroke="midnightblue" points="523.349,-28.1592 529.581,-19.5914 519.366,-22.4025 523.349,-28.1592"/>
</g>
<!-- Node9 -->
<g id="node10" class="node"><title>Node9</title>
<polygon fill="none" stroke="#bfbfbf" points="386,-56.5 386,-75.5 438,-75.5 438,-56.5 386,-56.5"/>
<text text-anchor="middle" x="412" y="-63.5" font-family="Helvetica,sans-Serif" font-size="10.00">sstream</text>
</g>
<!-- Node7&#45;&gt;Node9 -->
<g id="edge11" class="edge"><title>Node7&#45;&gt;Node9</title>
<path fill="none" stroke="midnightblue" d="M387.789,-112.083C391.758,-104.691 397.525,-93.9533 402.435,-84.8111"/>
<polygon fill="midnightblue" stroke="midnightblue" points="405.653,-86.217 407.3,-75.7511 399.486,-82.9051 405.653,-86.217"/>
</g>
<!-- Node10 -->
<g id="node11" class="node"><title>Node10</title>
<polygon fill="none" stroke="#bfbfbf" points="250,-56.5 250,-75.5 300,-75.5 300,-56.5 250,-56.5"/>
<text text-anchor="middle" x="275" y="-63.5" font-family="Helvetica,sans-Serif" font-size="10.00">iomanip</text>
</g>
<!-- Node7&#45;&gt;Node10 -->
<g id="edge12" class="edge"><title>Node7&#45;&gt;Node10</title>
<path fill="none" stroke="midnightblue" d="M365.648,-112.324C348.328,-103.664 321.485,-90.2424 301.498,-80.249"/>
<polygon fill="midnightblue" stroke="midnightblue" points="302.819,-76.9962 292.309,-75.6545 299.688,-83.2572 302.819,-76.9962"/>
</g>
<!-- Node11 -->
<g id="node12" class="node"><title>Node11</title>
<polygon fill="none" stroke="#bfbfbf" points="318,-56.5 318,-75.5 368,-75.5 368,-56.5 318,-56.5"/>
<text text-anchor="middle" x="343" y="-63.5" font-family="Helvetica,sans-Serif" font-size="10.00">fstream</text>
</g>
<!-- Node7&#45;&gt;Node11 -->
<g id="edge13" class="edge"><title>Node7&#45;&gt;Node11</title>
<path fill="none" stroke="midnightblue" d="M376.395,-112.083C370.745,-104.455 362.455,-93.2645 355.549,-83.9408"/>
<polygon fill="midnightblue" stroke="midnightblue" points="358.247,-81.7034 349.482,-75.7511 352.622,-85.87 358.247,-81.7034"/>
</g>
<!-- Node12&#45;&gt;Node5 -->
<g id="edge25" class="edge"><title>Node12&#45;&gt;Node5</title>
<path fill="none" stroke="midnightblue" d="M421.653,-168.335C436.879,-147.368 471.153,-92.9099 447,-56 432.48,-33.8108 404.352,-22.4989 381.155,-16.7688"/>
<polygon fill="midnightblue" stroke="midnightblue" points="381.761,-13.3182 371.241,-14.5744 380.248,-20.1528 381.761,-13.3182"/>
</g>
<!-- Node13 -->
<g id="node14" class="node"><title>Node13</title>
<g id="a_node14"><a xlink:href="Chrono_8h.html" target="_top" xlink:title="Chrono.h">
<polygon fill="none" stroke="black" points="38,-56.5 38,-75.5 94,-75.5 94,-56.5 38,-56.5"/>
<text text-anchor="middle" x="66" y="-63.5" font-family="Helvetica,sans-Serif" font-size="10.00">Chrono.h</text>
</a>
</g>
</g>
<!-- Node12&#45;&gt;Node13 -->
<g id="edge15" class="edge"><title>Node12&#45;&gt;Node13</title>
<path fill="none" stroke="midnightblue" d="M387.905,-168.46C325.93,-148.926 173.754,-100.963 103.127,-78.7018"/>
<polygon fill="midnightblue" stroke="midnightblue" points="103.908,-75.2784 93.3184,-75.6104 101.804,-81.9547 103.908,-75.2784"/>
</g>
<!-- Node16 -->
<g id="node17" class="node"><title>Node16</title>
<g id="a_node17"><a xlink:href="StateSpace_8h.html" target="_top" xlink:title="StateSpace.h">
<polygon fill="none" stroke="black" points="513,-112.5 513,-131.5 589,-131.5 589,-112.5 513,-112.5"/>
<text text-anchor="middle" x="551" y="-119.5" font-family="Helvetica,sans-Serif" font-size="10.00">StateSpace.h</text>
</a>
</g>
</g>
<!-- Node12&#45;&gt;Node16 -->
<g id="edge20" class="edge"><title>Node12&#45;&gt;Node16</title>
<path fill="none" stroke="midnightblue" d="M436.55,-168.444C459.031,-159.517 494.488,-145.439 519.98,-135.317"/>
<polygon fill="midnightblue" stroke="midnightblue" points="521.549,-138.46 529.551,-131.516 518.965,-131.954 521.549,-138.46"/>
</g>
<!-- Node19 -->
<g id="node20" class="node"><title>Node19</title>
<polygon fill="none" stroke="#bfbfbf" points="742.5,-56.5 742.5,-75.5 777.5,-75.5 777.5,-56.5 742.5,-56.5"/>
<text text-anchor="middle" x="760" y="-63.5" font-family="Helvetica,sans-Serif" font-size="10.00">map</text>
</g>
<!-- Node12&#45;&gt;Node19 -->
<g id="edge26" class="edge"><title>Node12&#45;&gt;Node19</title>
<path fill="none" stroke="midnightblue" d="M459.539,-169.833C537.919,-157.216 692.348,-132.327 693,-132 715.519,-120.692 735.399,-99.1426 747.539,-83.9634"/>
<polygon fill="midnightblue" stroke="midnightblue" points="750.428,-85.9474 753.754,-75.8878 744.881,-81.6782 750.428,-85.9474"/>
</g>
<!-- Node13&#45;&gt;Node5 -->
<g id="edge18" class="edge"><title>Node13&#45;&gt;Node5</title>
<path fill="none" stroke="midnightblue" d="M94.4482,-58.8127C98.9778,-57.8539 103.615,-56.8878 108,-56 178.122,-41.8034 260.226,-26.4289 306.775,-17.8282"/>
<polygon fill="midnightblue" stroke="midnightblue" points="307.507,-21.2524 316.706,-15.9965 306.237,-14.3685 307.507,-21.2524"/>
</g>
<!-- Node13&#45;&gt;Node8 -->
<g id="edge19" class="edge"><title>Node13&#45;&gt;Node8</title>
<path fill="none" stroke="midnightblue" d="M94.1298,-61.5726C108.202,-59.8712 125.498,-57.7999 141,-56 277.731,-40.1244 440.803,-22.1091 509.231,-14.5911"/>
<polygon fill="midnightblue" stroke="midnightblue" points="509.824,-18.0471 519.382,-13.4766 509.06,-11.0889 509.824,-18.0471"/>
</g>
<!-- Node14 -->
<g id="node15" class="node"><title>Node14</title>
<polygon fill="none" stroke="#bfbfbf" points="80.5,-0.5 80.5,-19.5 121.5,-19.5 121.5,-0.5 80.5,-0.5"/>
<text text-anchor="middle" x="101" y="-7.5" font-family="Helvetica,sans-Serif" font-size="10.00">ctime</text>
</g>
<!-- Node13&#45;&gt;Node14 -->
<g id="edge16" class="edge"><title>Node13&#45;&gt;Node14</title>
<path fill="none" stroke="midnightblue" d="M71.7795,-56.083C76.6724,-48.5341 83.8274,-37.4948 89.8326,-28.2298"/>
<polygon fill="midnightblue" stroke="midnightblue" points="92.826,-30.0463 95.328,-19.7511 86.952,-26.239 92.826,-30.0463"/>
</g>
<!-- Node15 -->
<g id="node16" class="node"><title>Node15</title>
<polygon fill="none" stroke="#bfbfbf" points="0,-0.5 0,-19.5 62,-19.5 62,-0.5 0,-0.5"/>
<text text-anchor="middle" x="31" y="-7.5" font-family="Helvetica,sans-Serif" font-size="10.00">sys/time.h</text>
</g>
<!-- Node13&#45;&gt;Node15 -->
<g id="edge17" class="edge"><title>Node13&#45;&gt;Node15</title>
<path fill="none" stroke="midnightblue" d="M60.2205,-56.083C55.3276,-48.5341 48.1726,-37.4948 42.1674,-28.2298"/>
<polygon fill="midnightblue" stroke="midnightblue" points="45.048,-26.239 36.672,-19.7511 39.174,-30.0463 45.048,-26.239"/>
</g>
<!-- Node17 -->
<g id="node18" class="node"><title>Node17</title>
<g id="a_node18"><a xlink:href="BiologicalSequences_8h.html" target="_top" xlink:title="BiologicalSequences.h">
<polygon fill="none" stroke="black" points="570,-56.5 570,-75.5 686,-75.5 686,-56.5 570,-56.5"/>
<text text-anchor="middle" x="628" y="-63.5" font-family="Helvetica,sans-Serif" font-size="10.00">BiologicalSequences.h</text>
</a>
</g>
</g>
<!-- Node16&#45;&gt;Node17 -->
<g id="edge21" class="edge"><title>Node16&#45;&gt;Node17</title>
<path fill="none" stroke="midnightblue" d="M563.371,-112.324C575.158,-104.058 593.132,-91.4527 607.136,-81.6322"/>
<polygon fill="midnightblue" stroke="midnightblue" points="609.482,-84.2619 615.659,-75.6545 605.462,-78.5307 609.482,-84.2619"/>
</g>
<!-- Node17&#45;&gt;Node5 -->
<g id="edge23" class="edge"><title>Node17&#45;&gt;Node5</title>
<path fill="none" stroke="midnightblue" d="M582.999,-56.4435C527.249,-45.8432 433.289,-27.9774 381.34,-18.0999"/>
<polygon fill="midnightblue" stroke="midnightblue" points="381.706,-14.6068 371.228,-16.1772 380.398,-21.4836 381.706,-14.6068"/>
</g>
<!-- Node17&#45;&gt;Node8 -->
<g id="edge22" class="edge"><title>Node17&#45;&gt;Node8</title>
<path fill="none" stroke="midnightblue" d="M614.183,-56.324C600.767,-47.9002 580.176,-34.9709 564.414,-25.0741"/>
<polygon fill="midnightblue" stroke="midnightblue" points="566.113,-22.0081 555.783,-19.6545 562.391,-27.9364 566.113,-22.0081"/>
</g>
<!-- Node18 -->
<g id="node19" class="node"><title>Node18</title>
<polygon fill="none" stroke="#bfbfbf" points="650.5,-0.5 650.5,-19.5 691.5,-19.5 691.5,-0.5 650.5,-0.5"/>
<text text-anchor="middle" x="671" y="-7.5" font-family="Helvetica,sans-Serif" font-size="10.00">string</text>
</g>
<!-- Node17&#45;&gt;Node18 -->
<g id="edge24" class="edge"><title>Node17&#45;&gt;Node18</title>
<path fill="none" stroke="midnightblue" d="M635.101,-56.083C641.237,-48.3768 650.27,-37.0333 657.739,-27.6531"/>
<polygon fill="midnightblue" stroke="midnightblue" points="660.54,-29.7542 664.032,-19.7511 655.064,-25.3936 660.54,-29.7542"/>
</g>
<!-- Node20&#45;&gt;Node6 -->
<g id="edge28" class="edge"><title>Node20&#45;&gt;Node6</title>
<path fill="none" stroke="midnightblue" d="M241.904,-224.48C234.884,-215.744 224.179,-201.554 217,-188 198.624,-153.306 184.326,-109.437 177.129,-85.194"/>
<polygon fill="midnightblue" stroke="midnightblue" points="180.477,-84.1714 174.333,-75.5398 173.753,-86.1188 180.477,-84.1714"/>
</g>
<!-- Node20&#45;&gt;Node12 -->
<g id="edge29" class="edge"><title>Node20&#45;&gt;Node12</title>
<path fill="none" stroke="midnightblue" d="M275.303,-224.444C303.351,-215.32 347.944,-200.813 379.184,-190.651"/>
<polygon fill="midnightblue" stroke="midnightblue" points="380.393,-193.938 388.82,-187.516 378.228,-187.282 380.393,-193.938"/>
</g>
<!-- Node21&#45;&gt;Node6 -->
<g id="edge31" class="edge"><title>Node21&#45;&gt;Node6</title>
<path fill="none" stroke="midnightblue" d="M160.456,-285.86C162.208,-252.638 168.537,-132.66 171.005,-85.8705"/>
<polygon fill="midnightblue" stroke="midnightblue" points="174.512,-85.8196 171.544,-75.6491 167.522,-85.4508 174.512,-85.8196"/>
</g>
<!-- Node21&#45;&gt;Node20 -->
<g id="edge32" class="edge"><title>Node21&#45;&gt;Node20</title>
<path fill="none" stroke="midnightblue" d="M172.752,-285.975C187.027,-276.431 210.397,-260.807 227.508,-249.368"/>
<polygon fill="midnightblue" stroke="midnightblue" points="229.904,-251.977 236.272,-243.509 226.014,-246.157 229.904,-251.977"/>
</g>
<!-- Node23 -->
<g id="node24" class="node"><title>Node23</title>
<g id="a_node24"><a xlink:href="CodonSubMatrix_8h.html" target="_top" xlink:title="CodonSubMatrix.h">
<polygon fill="none" stroke="black" points="462,-224.5 462,-243.5 560,-243.5 560,-224.5 462,-224.5"/>
<text text-anchor="middle" x="511" y="-231.5" font-family="Helvetica,sans-Serif" font-size="10.00">CodonSubMatrix.h</text>
</a>
</g>
</g>
<!-- Node22&#45;&gt;Node23 -->
<g id="edge34" class="edge"><title>Node22&#45;&gt;Node23</title>
<path fill="none" stroke="midnightblue" d="M562.105,-352.557C560.308,-337.138 555.409,-304.817 544,-280 539.305,-269.786 532.086,-259.587 525.597,-251.487"/>
<polygon fill="midnightblue" stroke="midnightblue" points="528.104,-249.03 518.995,-243.62 522.742,-253.53 528.104,-249.03"/>
</g>
<!-- Node25 -->
<g id="node26" class="node"><title>Node25</title>
<g id="a_node26"><a xlink:href="CodonSequenceAlignment_8h.html" target="_top" xlink:title="CodonSequenceAlignment.h">
<polygon fill="none" stroke="black" points="578,-224.5 578,-243.5 718,-243.5 718,-224.5 578,-224.5"/>
<text text-anchor="middle" x="648" y="-231.5" font-family="Helvetica,sans-Serif" font-size="10.00">CodonSequenceAlignment.h</text>
</a>
</g>
</g>
<!-- Node22&#45;&gt;Node25 -->
<g id="edge39" class="edge"><title>Node22&#45;&gt;Node25</title>
<path fill="none" stroke="midnightblue" d="M568.842,-352.805C582.733,-332.133 617.943,-279.732 636.364,-252.318"/>
<polygon fill="midnightblue" stroke="midnightblue" points="639.445,-254.008 642.117,-243.756 633.634,-250.104 639.445,-254.008"/>
</g>
<!-- Node28 -->
<g id="node29" class="node"><title>Node28</title>
<g id="a_node29"><a xlink:href="GeneralPathSuffStatMatrixProfileProcess_8h.html" target="_top" xlink:title="GeneralPathSuffStatMatrix\lProfileProcess.h">
<polygon fill="none" stroke="black" points="401,-280.5 401,-310.5 535,-310.5 535,-280.5 401,-280.5"/>
<text text-anchor="start" x="409" y="-298.5" font-family="Helvetica,sans-Serif" font-size="10.00">GeneralPathSuffStatMatrix</text>
<text text-anchor="middle" x="468" y="-287.5" font-family="Helvetica,sans-Serif" font-size="10.00">ProfileProcess.h</text>
</a>
</g>
</g>
<!-- Node22&#45;&gt;Node28 -->
<g id="edge49" class="edge"><title>Node22&#45;&gt;Node28</title>
<path fill="none" stroke="midnightblue" d="M550.188,-352.734C536.608,-343.443 514.712,-328.461 496.934,-316.297"/>
<polygon fill="midnightblue" stroke="midnightblue" points="498.821,-313.347 488.592,-310.589 494.868,-319.124 498.821,-313.347"/>
</g>
<!-- Node23&#45;&gt;Node4 -->
<g id="edge38" class="edge"><title>Node23&#45;&gt;Node4</title>
<path fill="none" stroke="midnightblue" d="M471.387,-224.444C426.236,-214.691 352.613,-198.789 305.515,-188.615"/>
<polygon fill="midnightblue" stroke="midnightblue" points="306.111,-185.163 295.597,-186.473 304.633,-192.006 306.111,-185.163"/>
</g>
<!-- Node24 -->
<g id="node25" class="node"><title>Node24</title>
<g id="a_node25"><a xlink:href="CodonStateSpace_8h.html" target="_top" xlink:title="CodonStateSpace.h">
<polygon fill="none" stroke="black" points="610,-168.5 610,-187.5 714,-187.5 714,-168.5 610,-168.5"/>
<text text-anchor="middle" x="662" y="-175.5" font-family="Helvetica,sans-Serif" font-size="10.00">CodonStateSpace.h</text>
</a>
</g>
</g>
<!-- Node23&#45;&gt;Node24 -->
<g id="edge35" class="edge"><title>Node23&#45;&gt;Node24</title>
<path fill="none" stroke="midnightblue" d="M534.926,-224.444C560.219,-215.399 600.302,-201.064 628.68,-190.916"/>
<polygon fill="midnightblue" stroke="midnightblue" points="629.948,-194.179 638.186,-187.516 627.591,-187.588 629.948,-194.179"/>
</g>
<!-- Node24&#45;&gt;Node16 -->
<g id="edge36" class="edge"><title>Node24&#45;&gt;Node16</title>
<path fill="none" stroke="midnightblue" d="M644.166,-168.324C626.284,-159.625 598.525,-146.12 577.954,-136.113"/>
<polygon fill="midnightblue" stroke="midnightblue" points="579.313,-132.882 568.79,-131.655 576.251,-139.177 579.313,-132.882"/>
</g>
<!-- Node24&#45;&gt;Node19 -->
<g id="edge37" class="edge"><title>Node24&#45;&gt;Node19</title>
<path fill="none" stroke="midnightblue" d="M680.838,-168.484C696.065,-160.796 717.17,-148.212 731,-132 742.517,-118.499 750.239,-99.6907 754.799,-85.778"/>
<polygon fill="midnightblue" stroke="midnightblue" points="758.252,-86.4496 757.79,-75.8648 751.55,-84.4272 758.252,-86.4496"/>
</g>
<!-- Node25&#45;&gt;Node6 -->
<g id="edge48" class="edge"><title>Node25&#45;&gt;Node6</title>
<path fill="none" stroke="midnightblue" d="M584.502,-224.455C506.369,-213.721 381.484,-195.769 361,-188 325.27,-174.449 233.323,-110.619 192.293,-81.5202"/>
<polygon fill="midnightblue" stroke="midnightblue" points="194.081,-78.4967 183.904,-75.5508 190.023,-84.2002 194.081,-78.4967"/>
</g>
<!-- Node25&#45;&gt;Node24 -->
<g id="edge47" class="edge"><title>Node25&#45;&gt;Node24</title>
<path fill="none" stroke="midnightblue" d="M650.312,-224.083C652.167,-216.927 654.835,-206.635 657.154,-197.691"/>
<polygon fill="midnightblue" stroke="midnightblue" points="660.609,-198.309 659.731,-187.751 653.834,-196.553 660.609,-198.309"/>
</g>
<!-- Node26 -->
<g id="node27" class="node"><title>Node26</title>
<g id="a_node27"><a xlink:href="SequenceAlignment_8h.html" target="_top" xlink:title="SequenceAlignment.h">
<polygon fill="none" stroke="black" points="480,-168.5 480,-187.5 592,-187.5 592,-168.5 480,-168.5"/>
<text text-anchor="middle" x="536" y="-175.5" font-family="Helvetica,sans-Serif" font-size="10.00">SequenceAlignment.h</text>
</a>
</g>
</g>
<!-- Node25&#45;&gt;Node26 -->
<g id="edge40" class="edge"><title>Node25&#45;&gt;Node26</title>
<path fill="none" stroke="midnightblue" d="M630.005,-224.324C611.962,-215.625 583.953,-202.12 563.197,-192.113"/>
<polygon fill="midnightblue" stroke="midnightblue" points="564.478,-188.845 553.95,-187.655 561.438,-195.15 564.478,-188.845"/>
</g>
<!-- Node26&#45;&gt;Node7 -->
<g id="edge46" class="edge"><title>Node26&#45;&gt;Node7</title>
<path fill="none" stroke="midnightblue" d="M511.757,-168.444C486.129,-159.399 445.515,-145.064 416.762,-134.916"/>
<polygon fill="midnightblue" stroke="midnightblue" points="417.725,-131.544 407.13,-131.516 415.395,-138.145 417.725,-131.544"/>
</g>
<!-- Node26&#45;&gt;Node16 -->
<g id="edge41" class="edge"><title>Node26&#45;&gt;Node16</title>
<path fill="none" stroke="midnightblue" d="M538.477,-168.083C540.486,-160.849 543.386,-150.409 545.89,-141.397"/>
<polygon fill="midnightblue" stroke="midnightblue" points="549.265,-142.323 548.569,-131.751 542.52,-140.449 549.265,-142.323"/>
</g>
<!-- Node27 -->
<g id="node28" class="node"><title>Node27</title>
<g id="a_node28"><a xlink:href="TaxonSet_8h.html" target="_top" xlink:title="TaxonSet.h">
<polygon fill="none" stroke="black" points="616.5,-112.5 616.5,-131.5 683.5,-131.5 683.5,-112.5 616.5,-112.5"/>
<text text-anchor="middle" x="650" y="-119.5" font-family="Helvetica,sans-Serif" font-size="10.00">TaxonSet.h</text>
</a>
</g>
</g>
<!-- Node26&#45;&gt;Node27 -->
<g id="edge42" class="edge"><title>Node26&#45;&gt;Node27</title>
<path fill="none" stroke="midnightblue" d="M554.064,-168.444C572.575,-159.675 601.581,-145.935 622.855,-135.858"/>
<polygon fill="midnightblue" stroke="midnightblue" points="624.482,-138.96 632.021,-131.516 621.485,-132.634 624.482,-138.96"/>
</g>
<!-- Node27&#45;&gt;Node5 -->
<g id="edge45" class="edge"><title>Node27&#45;&gt;Node5</title>
<path fill="none" stroke="midnightblue" d="M628.648,-112.476C596.548,-99.7434 533.872,-75.2006 480,-56 446.513,-44.0649 408.02,-31.4279 380.552,-22.5942"/>
<polygon fill="midnightblue" stroke="midnightblue" points="381.552,-19.2394 370.961,-19.5201 379.415,-25.9053 381.552,-19.2394"/>
</g>
<!-- Node27&#45;&gt;Node18 -->
<g id="edge44" class="edge"><title>Node27&#45;&gt;Node18</title>
<path fill="none" stroke="midnightblue" d="M663.064,-112.436C673.914,-104.471 688.573,-91.5154 695,-76 701.658,-59.9268 693.133,-41.2691 684.456,-28.077"/>
<polygon fill="midnightblue" stroke="midnightblue" points="687.278,-26.0065 678.608,-19.9161 681.588,-30.0835 687.278,-26.0065"/>
</g>
<!-- Node27&#45;&gt;Node19 -->
<g id="edge43" class="edge"><title>Node27&#45;&gt;Node19</title>
<path fill="none" stroke="midnightblue" d="M667.673,-112.324C685.394,-103.625 712.903,-90.1202 733.288,-80.113"/>
<polygon fill="midnightblue" stroke="midnightblue" points="734.936,-83.2031 742.37,-75.6545 731.851,-76.9195 734.936,-83.2031"/>
</g>
<!-- Node28&#45;&gt;Node3 -->
<g id="edge50" class="edge"><title>Node28&#45;&gt;Node3</title>
<path fill="none" stroke="midnightblue" d="M448.567,-280.399C435.792,-271.129 419.111,-259.025 406.186,-249.647"/>
<polygon fill="midnightblue" stroke="midnightblue" points="408.081,-246.698 397.932,-243.658 403.97,-252.364 408.081,-246.698"/>
</g>
<!-- Node29&#45;&gt;Node2 -->
<g id="edge53" class="edge"><title>Node29&#45;&gt;Node2</title>
<path fill="none" stroke="midnightblue" d="M377.905,-347.396C363.421,-336.697 343.568,-322.033 328.892,-311.193"/>
<polygon fill="midnightblue" stroke="midnightblue" points="330.64,-308.133 320.517,-305.007 326.481,-313.764 330.64,-308.133"/>
</g>
<!-- Node29&#45;&gt;Node28 -->
<g id="edge52" class="edge"><title>Node29&#45;&gt;Node28</title>
<path fill="none" stroke="midnightblue" d="M412.406,-347.396C421.989,-338.623 434.485,-327.183 445.202,-317.371"/>
<polygon fill="midnightblue" stroke="midnightblue" points="447.612,-319.911 452.624,-310.577 442.885,-314.748 447.612,-319.911"/>
</g>
</g>
</svg>
