<?xml version="1.0" encoding="UTF-8" standalone="no"?>
<!DOCTYPE svg PUBLIC "-//W3C//DTD SVG 1.1//EN"
 "http://www.w3.org/Graphics/SVG/1.1/DTD/svg11.dtd">
<!-- Generated by graphviz version 2.38.0 (20140413.2041)
 -->
<!-- Title: BPCompare.cpp Pages: 1 -->
<svg width="1154pt" height="196pt"
 viewBox="0.00 0.00 1153.70 196.00" xmlns="http://www.w3.org/2000/svg" xmlns:xlink="http://www.w3.org/1999/xlink">
<g id="graph0" class="graph" transform="scale(1 1) rotate(0) translate(4 192)">
<title>BPCompare.cpp</title>
<!-- Node0 -->
<g id="node1" class="node"><title>Node0</title>
<polygon fill="#bfbfbf" stroke="black" points="638.702,-168.5 638.702,-187.5 727.702,-187.5 727.702,-168.5 638.702,-168.5"/>
<text text-anchor="middle" x="683.202" y="-175.5" font-family="Helvetica,sans-Serif" font-size="10.00">BPCompare.cpp</text>
</g>
<!-- Node1 -->
<g id="node2" class="node"><title>Node1</title>
<g id="a_node2"><a xlink:href="phylo_8h.html" target="_top" xlink:title="phylo.h">
<polygon fill="none" stroke="black" points="488.202,-112.5 488.202,-131.5 536.202,-131.5 536.202,-112.5 488.202,-112.5"/>
<text text-anchor="middle" x="512.202" y="-119.5" font-family="Helvetica,sans-Serif" font-size="10.00">phylo.h</text>
</a>
</g>
</g>
<!-- Node0&#45;&gt;Node1 -->
<g id="edge1" class="edge"><title>Node0&#45;&gt;Node1</title>
<path fill="none" stroke="midnightblue" d="M656.107,-168.444C626.364,-159.051 578.56,-143.955 546.294,-133.766"/>
<polygon fill="midnightblue" stroke="midnightblue" points="546.996,-130.317 536.406,-130.643 544.888,-136.992 546.996,-130.317"/>
</g>
<!-- Node19 -->
<g id="node20" class="node"><title>Node19</title>
<g id="a_node20"><a xlink:href="Parallel_8h.html" target="_top" xlink:title="Parallel.h">
<polygon fill="none" stroke="black" points="825.702,-112.5 825.702,-131.5 882.702,-131.5 882.702,-112.5 825.702,-112.5"/>
<text text-anchor="middle" x="854.202" y="-119.5" font-family="Helvetica,sans-Serif" font-size="10.00">Parallel.h</text>
</a>
</g>
</g>
<!-- Node0&#45;&gt;Node19 -->
<g id="edge24" class="edge"><title>Node0&#45;&gt;Node19</title>
<path fill="none" stroke="midnightblue" d="M710.297,-168.444C739.19,-159.32 785.127,-144.813 817.307,-134.651"/>
<polygon fill="midnightblue" stroke="midnightblue" points="818.751,-137.865 827.233,-131.516 816.643,-131.19 818.751,-137.865"/>
</g>
<!-- Node2 -->
<g id="node3" class="node"><title>Node2</title>
<polygon fill="none" stroke="#bfbfbf" points="633.202,-0.5 633.202,-19.5 685.202,-19.5 685.202,-0.5 633.202,-0.5"/>
<text text-anchor="middle" x="659.202" y="-7.5" font-family="Helvetica,sans-Serif" font-size="10.00">sstream</text>
</g>
<!-- Node1&#45;&gt;Node2 -->
<g id="edge2" class="edge"><title>Node1&#45;&gt;Node2</title>
<path fill="none" stroke="midnightblue" d="M487.93,-121.357C384.096,-122.488 -14.6644,-122.582 47.202,-56 57.0659,-45.3842 492.458,-20.2959 622.746,-13.0141"/>
<polygon fill="midnightblue" stroke="midnightblue" points="623.205,-16.494 632.994,-12.4429 622.815,-9.50489 623.205,-16.494"/>
</g>
<!-- Node3 -->
<g id="node4" class="node"><title>Node3</title>
<polygon fill="none" stroke="#bfbfbf" points="56.702,-56.5 56.702,-75.5 97.702,-75.5 97.702,-56.5 56.702,-56.5"/>
<text text-anchor="middle" x="77.202" y="-63.5" font-family="Helvetica,sans-Serif" font-size="10.00">string</text>
</g>
<!-- Node1&#45;&gt;Node3 -->
<g id="edge3" class="edge"><title>Node1&#45;&gt;Node3</title>
<path fill="none" stroke="midnightblue" d="M487.77,-119.827C425.741,-116.524 257.111,-105.52 107.556,-75.6856"/>
<polygon fill="midnightblue" stroke="midnightblue" points="108.23,-72.2512 97.7341,-73.6931 106.839,-79.1114 108.23,-72.2512"/>
</g>
<!-- Node4 -->
<g id="node5" class="node"><title>Node4</title>
<polygon fill="none" stroke="#bfbfbf" points="116.202,-56.5 116.202,-75.5 160.202,-75.5 160.202,-56.5 116.202,-56.5"/>
<text text-anchor="middle" x="138.202" y="-63.5" font-family="Helvetica,sans-Serif" font-size="10.00">cmath</text>
</g>
<!-- Node1&#45;&gt;Node4 -->
<g id="edge4" class="edge"><title>Node1&#45;&gt;Node4</title>
<path fill="none" stroke="midnightblue" d="M487.87,-119.089C432.909,-114.501 294.892,-101.464 170.523,-75.9952"/>
<polygon fill="midnightblue" stroke="midnightblue" points="170.954,-72.51 160.451,-73.8986 169.528,-79.3631 170.954,-72.51"/>
</g>
<!-- Node5 -->
<g id="node6" class="node"><title>Node5</title>
<polygon fill="none" stroke="#bfbfbf" points="780.202,-0.5 780.202,-19.5 834.202,-19.5 834.202,-0.5 780.202,-0.5"/>
<text text-anchor="middle" x="807.202" y="-7.5" font-family="Helvetica,sans-Serif" font-size="10.00">iostream</text>
</g>
<!-- Node1&#45;&gt;Node5 -->
<g id="edge5" class="edge"><title>Node1&#45;&gt;Node5</title>
<path fill="none" stroke="midnightblue" d="M536.218,-120.213C620.492,-117.208 899.076,-105.128 925.202,-76 952.368,-45.7137 888.134,-26.5749 844.168,-17.4178"/>
<polygon fill="midnightblue" stroke="midnightblue" points="844.806,-13.9762 834.316,-15.459 843.441,-20.8419 844.806,-13.9762"/>
</g>
<!-- Node6 -->
<g id="node7" class="node"><title>Node6</title>
<polygon fill="none" stroke="#bfbfbf" points="887.202,-0.5 887.202,-19.5 937.202,-19.5 937.202,-0.5 887.202,-0.5"/>
<text text-anchor="middle" x="912.202" y="-7.5" font-family="Helvetica,sans-Serif" font-size="10.00">iomanip</text>
</g>
<!-- Node1&#45;&gt;Node6 -->
<g id="edge6" class="edge"><title>Node1&#45;&gt;Node6</title>
<path fill="none" stroke="midnightblue" d="M536.356,-120.324C623.183,-117.65 915.787,-106.426 943.202,-76 955.935,-61.8688 942.584,-41.5765 929.656,-27.4372"/>
<polygon fill="midnightblue" stroke="midnightblue" points="931.79,-24.6136 922.293,-19.9162 926.788,-29.5105 931.79,-24.6136"/>
</g>
<!-- Node7 -->
<g id="node8" class="node"><title>Node7</title>
<polygon fill="none" stroke="#bfbfbf" points="39.202,-0.5 39.202,-19.5 89.202,-19.5 89.202,-0.5 39.202,-0.5"/>
<text text-anchor="middle" x="64.202" y="-7.5" font-family="Helvetica,sans-Serif" font-size="10.00">fstream</text>
</g>
<!-- Node1&#45;&gt;Node7 -->
<g id="edge7" class="edge"><title>Node1&#45;&gt;Node7</title>
<path fill="none" stroke="midnightblue" d="M487.884,-120.722C391.259,-119.368 38.1262,-111.976 5.202,-76 -10.9852,-58.3124 15.0057,-37.8161 37.4471,-24.6433"/>
<polygon fill="midnightblue" stroke="midnightblue" points="39.3774,-27.5741 46.4012,-19.6421 35.964,-21.4628 39.3774,-27.5741"/>
</g>
<!-- Node8 -->
<g id="node9" class="node"><title>Node8</title>
<polygon fill="none" stroke="#bfbfbf" points="415.702,-0.5 415.702,-19.5 460.702,-19.5 460.702,-0.5 415.702,-0.5"/>
<text text-anchor="middle" x="438.202" y="-7.5" font-family="Helvetica,sans-Serif" font-size="10.00">cstdlib</text>
</g>
<!-- Node1&#45;&gt;Node8 -->
<g id="edge8" class="edge"><title>Node1&#45;&gt;Node8</title>
<path fill="none" stroke="midnightblue" d="M487.991,-120.682C392.614,-119.183 46.4816,-111.328 14.202,-76 -39.8819,-16.8086 296.998,-11.2051 405.403,-10.9185"/>
<polygon fill="midnightblue" stroke="midnightblue" points="405.454,-14.4186 415.449,-10.9058 405.445,-7.41859 405.454,-14.4186"/>
</g>
<!-- Node9 -->
<g id="node10" class="node"><title>Node9</title>
<g id="a_node10"><a xlink:href="StringStreamUtils_8h.html" target="_top" xlink:title="StringStreamUtils.h">
<polygon fill="none" stroke="black" points="722.202,-56.5 722.202,-75.5 824.202,-75.5 824.202,-56.5 722.202,-56.5"/>
<text text-anchor="middle" x="773.202" y="-63.5" font-family="Helvetica,sans-Serif" font-size="10.00">StringStreamUtils.h</text>
</a>
</g>
</g>
<!-- Node1&#45;&gt;Node9 -->
<g id="edge9" class="edge"><title>Node1&#45;&gt;Node9</title>
<path fill="none" stroke="midnightblue" d="M536.288,-116.017C578.226,-107.34 665.529,-89.2772 721.641,-77.6677"/>
<polygon fill="midnightblue" stroke="midnightblue" points="722.654,-81.0324 731.738,-75.5788 721.236,-74.1776 722.654,-81.0324"/>
</g>
<!-- Node10 -->
<g id="node11" class="node"><title>Node10</title>
<g id="a_node11"><a xlink:href="TaxaParameters_8h.html" target="_top" xlink:title="TaxaParameters.h">
<polygon fill="none" stroke="black" points="178.702,-56.5 178.702,-75.5 275.702,-75.5 275.702,-56.5 178.702,-56.5"/>
<text text-anchor="middle" x="227.202" y="-63.5" font-family="Helvetica,sans-Serif" font-size="10.00">TaxaParameters.h</text>
</a>
</g>
</g>
<!-- Node1&#45;&gt;Node10 -->
<g id="edge15" class="edge"><title>Node1&#45;&gt;Node10</title>
<path fill="none" stroke="midnightblue" d="M487.903,-116.396C442.636,-107.819 344.37,-89.2003 282.251,-77.4304"/>
<polygon fill="midnightblue" stroke="midnightblue" points="282.705,-73.9542 272.228,-75.5313 281.402,-80.8318 282.705,-73.9542"/>
</g>
<!-- Node11 -->
<g id="node12" class="node"><title>Node11</title>
<g id="a_node12"><a xlink:href="Bipartition_8h.html" target="_top" xlink:title="Bipartition.h">
<polygon fill="none" stroke="black" points="294.202,-56.5 294.202,-75.5 362.202,-75.5 362.202,-56.5 294.202,-56.5"/>
<text text-anchor="middle" x="328.202" y="-63.5" font-family="Helvetica,sans-Serif" font-size="10.00">Bipartition.h</text>
</a>
</g>
</g>
<!-- Node1&#45;&gt;Node11 -->
<g id="edge16" class="edge"><title>Node1&#45;&gt;Node11</title>
<path fill="none" stroke="midnightblue" d="M488.147,-113.94C457.428,-104.925 403.873,-89.2079 367.267,-78.4646"/>
<polygon fill="midnightblue" stroke="midnightblue" points="368.005,-75.0338 357.424,-75.576 366.034,-81.7505 368.005,-75.0338"/>
</g>
<!-- Node12 -->
<g id="node13" class="node"><title>Node12</title>
<g id="a_node13"><a xlink:href="BipartitionList_8h.html" target="_top" xlink:title="BipartitionList.h">
<polygon fill="none" stroke="black" points="380.202,-56.5 380.202,-75.5 464.202,-75.5 464.202,-56.5 380.202,-56.5"/>
<text text-anchor="middle" x="422.202" y="-63.5" font-family="Helvetica,sans-Serif" font-size="10.00">BipartitionList.h</text>
</a>
</g>
</g>
<!-- Node1&#45;&gt;Node12 -->
<g id="edge17" class="edge"><title>Node1&#45;&gt;Node12</title>
<path fill="none" stroke="midnightblue" d="M497.742,-112.324C483.702,-103.9 462.154,-90.9709 445.659,-81.0741"/>
<polygon fill="midnightblue" stroke="midnightblue" points="447.002,-77.7983 436.626,-75.6545 443.4,-83.8007 447.002,-77.7983"/>
</g>
<!-- Node13 -->
<g id="node14" class="node"><title>Node13</title>
<g id="a_node14"><a xlink:href="TreeList_8h.html" target="_top" xlink:title="TreeList.h">
<polygon fill="none" stroke="black" points="482.202,-56.5 482.202,-75.5 542.202,-75.5 542.202,-56.5 482.202,-56.5"/>
<text text-anchor="middle" x="512.202" y="-63.5" font-family="Helvetica,sans-Serif" font-size="10.00">TreeList.h</text>
</a>
</g>
</g>
<!-- Node1&#45;&gt;Node13 -->
<g id="edge18" class="edge"><title>Node1&#45;&gt;Node13</title>
<path fill="none" stroke="midnightblue" d="M512.202,-112.083C512.202,-105.006 512.202,-94.8611 512.202,-85.9865"/>
<polygon fill="midnightblue" stroke="midnightblue" points="515.702,-85.751 512.202,-75.7511 508.702,-85.7511 515.702,-85.751"/>
</g>
<!-- Node14 -->
<g id="node15" class="node"><title>Node14</title>
<g id="a_node15"><a xlink:href="PolyNode_8h.html" target="_top" xlink:title="PolyNode.h">
<polygon fill="none" stroke="black" points="560.202,-56.5 560.202,-75.5 628.202,-75.5 628.202,-56.5 560.202,-56.5"/>
<text text-anchor="middle" x="594.202" y="-63.5" font-family="Helvetica,sans-Serif" font-size="10.00">PolyNode.h</text>
</a>
</g>
</g>
<!-- Node1&#45;&gt;Node14 -->
<g id="edge19" class="edge"><title>Node1&#45;&gt;Node14</title>
<path fill="none" stroke="midnightblue" d="M525.377,-112.324C538.049,-103.979 557.435,-91.2122 572.408,-81.3524"/>
<polygon fill="midnightblue" stroke="midnightblue" points="574.633,-84.0776 581.06,-75.6545 570.783,-78.2313 574.633,-84.0776"/>
</g>
<!-- Node15 -->
<g id="node16" class="node"><title>Node15</title>
<g id="a_node16"><a xlink:href="PBTree_8h.html" target="_top" xlink:title="PBTree.h">
<polygon fill="none" stroke="black" points="646.202,-56.5 646.202,-75.5 704.202,-75.5 704.202,-56.5 646.202,-56.5"/>
<text text-anchor="middle" x="675.202" y="-63.5" font-family="Helvetica,sans-Serif" font-size="10.00">PBTree.h</text>
</a>
</g>
</g>
<!-- Node1&#45;&gt;Node15 -->
<g id="edge20" class="edge"><title>Node1&#45;&gt;Node15</title>
<path fill="none" stroke="midnightblue" d="M536.253,-113.032C563.582,-103.978 608.446,-89.1156 639.778,-78.7356"/>
<polygon fill="midnightblue" stroke="midnightblue" points="641.044,-82.0033 649.436,-75.536 638.843,-75.3584 641.044,-82.0033"/>
</g>
<!-- Node16 -->
<g id="node17" class="node"><title>Node16</title>
<g id="a_node17"><a xlink:href="AmphiNode_8h.html" target="_top" xlink:title="AmphiNode.h">
<polygon fill="none" stroke="black" points="1010.2,-56.5 1010.2,-75.5 1086.2,-75.5 1086.2,-56.5 1010.2,-56.5"/>
<text text-anchor="middle" x="1048.2" y="-63.5" font-family="Helvetica,sans-Serif" font-size="10.00">AmphiNode.h</text>
</a>
</g>
</g>
<!-- Node1&#45;&gt;Node16 -->
<g id="edge21" class="edge"><title>Node1&#45;&gt;Node16</title>
<path fill="none" stroke="midnightblue" d="M536.451,-119.423C607.379,-114.666 820.525,-99.3328 996.202,-76 997.479,-75.8304 998.773,-75.6522 1000.08,-75.467"/>
<polygon fill="midnightblue" stroke="midnightblue" points="1000.84,-78.8919 1010.2,-73.9325 999.788,-71.971 1000.84,-78.8919"/>
</g>
<!-- Node18 -->
<g id="node19" class="node"><title>Node18</title>
<g id="a_node19"><a xlink:href="Consensus_8h.html" target="_top" xlink:title="Consensus.h">
<polygon fill="none" stroke="black" points="842.202,-56.5 842.202,-75.5 916.202,-75.5 916.202,-56.5 842.202,-56.5"/>
<text text-anchor="middle" x="879.202" y="-63.5" font-family="Helvetica,sans-Serif" font-size="10.00">Consensus.h</text>
</a>
</g>
</g>
<!-- Node1&#45;&gt;Node18 -->
<g id="edge23" class="edge"><title>Node1&#45;&gt;Node18</title>
<path fill="none" stroke="midnightblue" d="M536.431,-118.057C588.534,-111.631 715.307,-95.4811 831.909,-76.1411"/>
<polygon fill="midnightblue" stroke="midnightblue" points="832.79,-79.5425 842.076,-74.4421 831.636,-72.6382 832.79,-79.5425"/>
</g>
<!-- Node9&#45;&gt;Node2 -->
<g id="edge12" class="edge"><title>Node9&#45;&gt;Node2</title>
<path fill="none" stroke="midnightblue" d="M755.138,-56.4435C736.627,-47.6751 707.621,-33.9355 686.347,-23.8579"/>
<polygon fill="midnightblue" stroke="midnightblue" points="687.717,-20.6343 677.181,-19.5164 684.72,-26.9604 687.717,-20.6343"/>
</g>
<!-- Node9&#45;&gt;Node5 -->
<g id="edge11" class="edge"><title>Node9&#45;&gt;Node5</title>
<path fill="none" stroke="midnightblue" d="M778.816,-56.083C783.569,-48.5341 790.52,-37.4948 796.354,-28.2298"/>
<polygon fill="midnightblue" stroke="midnightblue" points="799.326,-30.0783 801.692,-19.7511 793.402,-26.3486 799.326,-30.0783"/>
</g>
<!-- Node9&#45;&gt;Node6 -->
<g id="edge13" class="edge"><title>Node9&#45;&gt;Node6</title>
<path fill="none" stroke="midnightblue" d="M795.227,-56.4435C818.306,-47.4776 854.764,-33.314 880.843,-23.1827"/>
<polygon fill="midnightblue" stroke="midnightblue" points="882.226,-26.4002 890.28,-19.5164 879.691,-19.8753 882.226,-26.4002"/>
</g>
<!-- Node9&#45;&gt;Node7 -->
<g id="edge14" class="edge"><title>Node9&#45;&gt;Node7</title>
<path fill="none" stroke="midnightblue" d="M722.175,-57.0633C719.142,-56.6795 716.134,-56.321 713.202,-56 479.725,-30.436 197.312,-16.7104 99.5295,-12.4588"/>
<polygon fill="midnightblue" stroke="midnightblue" points="99.4644,-8.9529 89.3234,-12.0205 99.164,-15.9465 99.4644,-8.9529"/>
</g>
<!-- Node9&#45;&gt;Node8 -->
<g id="edge10" class="edge"><title>Node9&#45;&gt;Node8</title>
<path fill="none" stroke="midnightblue" d="M721.958,-56.7398C652.248,-45.503 529.528,-25.7213 471.019,-16.2899"/>
<polygon fill="midnightblue" stroke="midnightblue" points="471.298,-12.7897 460.868,-14.6536 470.184,-19.7005 471.298,-12.7897"/>
</g>
<!-- Node17 -->
<g id="node18" class="node"><title>Node17</title>
<g id="a_node18"><a xlink:href="Node_8h.html" target="_top" xlink:title="Node.h">
<polygon fill="none" stroke="black" points="1024.2,-0.5 1024.2,-19.5 1072.2,-19.5 1072.2,-0.5 1024.2,-0.5"/>
<text text-anchor="middle" x="1048.2" y="-7.5" font-family="Helvetica,sans-Serif" font-size="10.00">Node.h</text>
</a>
</g>
</g>
<!-- Node16&#45;&gt;Node17 -->
<g id="edge22" class="edge"><title>Node16&#45;&gt;Node17</title>
<path fill="none" stroke="midnightblue" d="M1048.2,-56.083C1048.2,-49.0059 1048.2,-38.8611 1048.2,-29.9865"/>
<polygon fill="midnightblue" stroke="midnightblue" points="1051.7,-29.751 1048.2,-19.7511 1044.7,-29.7511 1051.7,-29.751"/>
</g>
<!-- Node20 -->
<g id="node21" class="node"><title>Node20</title>
<polygon fill="none" stroke="#bfbfbf" points="1104.7,-56.5 1104.7,-75.5 1145.7,-75.5 1145.7,-56.5 1104.7,-56.5"/>
<text text-anchor="middle" x="1125.2" y="-63.5" font-family="Helvetica,sans-Serif" font-size="10.00">mpi.h</text>
</g>
<!-- Node19&#45;&gt;Node20 -->
<g id="edge25" class="edge"><title>Node19&#45;&gt;Node20</title>
<path fill="none" stroke="midnightblue" d="M882.978,-116.648C926.656,-109.822 1012.44,-95.557 1094.85,-75.8546"/>
<polygon fill="midnightblue" stroke="midnightblue" points="1095.73,-79.244 1104.62,-73.4889 1094.08,-72.4406 1095.73,-79.244"/>
</g>
</g>
</svg>
