<?xml version="1.0" encoding="UTF-8" standalone="no"?>
<!DOCTYPE svg PUBLIC "-//W3C//DTD SVG 1.1//EN"
 "http://www.w3.org/Graphics/SVG/1.1/DTD/svg11.dtd">
<!-- Generated by graphviz version 2.40.1 (20161225.0304)
 -->
<!-- Title: BranchProcess.h Pages: 1 -->
<svg width="944pt" height="386pt"
 viewBox="0.00 0.00 943.50 386.00" xmlns="http://www.w3.org/2000/svg" xmlns:xlink="http://www.w3.org/1999/xlink">
<g id="graph0" class="graph" transform="scale(1 1) rotate(0) translate(4 382)">
<title>BranchProcess.h</title>
<!-- Node10 -->
<g id="node1" class="node">
<title>Node10</title>
<polygon fill="#bfbfbf" stroke="#000000" points="496,-358.5 496,-377.5 588,-377.5 588,-358.5 496,-358.5"/>
<text text-anchor="middle" x="542" y="-365.5" font-family="Helvetica,sans-Serif" font-size="10.00" fill="#000000">BranchProcess.h</text>
</g>
<!-- Node11 -->
<g id="node2" class="node">
<title>Node11</title>
<g id="a_node2"><a xlink:href="BranchProcess_8cpp.html" target="_top" xlink:title="BranchProcess.cpp">
<polygon fill="none" stroke="#000000" points="379,-302.5 379,-321.5 481,-321.5 481,-302.5 379,-302.5"/>
<text text-anchor="middle" x="430" y="-309.5" font-family="Helvetica,sans-Serif" font-size="10.00" fill="#000000">BranchProcess.cpp</text>
</a>
</g>
</g>
<!-- Node10&#45;&gt;Node11 -->
<g id="edge1" class="edge">
<title>Node10&#45;&gt;Node11</title>
<path fill="none" stroke="#191970" d="M513.6737,-353.8368C493.4279,-343.7139 466.7358,-330.3679 449.0022,-321.5011"/>
<polygon fill="#191970" stroke="#191970" points="512.237,-357.0316 522.7465,-358.3733 515.3675,-350.7706 512.237,-357.0316"/>
</g>
<!-- Node12 -->
<g id="node3" class="node">
<title>Node12</title>
<g id="a_node3"><a xlink:href="PhyloProcess_8h.html" target="_top" xlink:title="PhyloProcess.h">
<polygon fill="none" stroke="#000000" points="499,-302.5 499,-321.5 585,-321.5 585,-302.5 499,-302.5"/>
<text text-anchor="middle" x="542" y="-309.5" font-family="Helvetica,sans-Serif" font-size="10.00" fill="#000000">PhyloProcess.h</text>
</a>
</g>
</g>
<!-- Node10&#45;&gt;Node12 -->
<g id="edge2" class="edge">
<title>Node10&#45;&gt;Node12</title>
<path fill="none" stroke="#191970" d="M542,-348.1575C542,-339.155 542,-328.9199 542,-321.6427"/>
<polygon fill="#191970" stroke="#191970" points="538.5001,-348.2455 542,-358.2455 545.5001,-348.2456 538.5001,-348.2455"/>
</g>
<!-- Node27 -->
<g id="node18" class="node">
<title>Node27</title>
<g id="a_node18"><a xlink:href="GammaBranchProcess_8h.html" target="_top" xlink:title="GammaBranchProcess.h">
<polygon fill="none" stroke="#000000" points="612,-185 612,-204 738,-204 738,-185 612,-185"/>
<text text-anchor="middle" x="675" y="-192" font-family="Helvetica,sans-Serif" font-size="10.00" fill="#000000">GammaBranchProcess.h</text>
</a>
</g>
</g>
<!-- Node10&#45;&gt;Node27 -->
<g id="edge17" class="edge">
<title>Node10&#45;&gt;Node27</title>
<path fill="none" stroke="#191970" d="M563.2425,-352.1143C586.5023,-333.718 623.4818,-301.3763 646,-266 658.9474,-245.6595 668.0247,-218.5743 672.2732,-204.2852"/>
<polygon fill="#191970" stroke="#191970" points="560.817,-349.5661 555.0585,-358.4594 565.1061,-355.0982 560.817,-349.5661"/>
</g>
<!-- Node13 -->
<g id="node4" class="node">
<title>Node13</title>
<g id="a_node4"><a xlink:href="MatrixPhyloProcess_8h.html" target="_top" xlink:title="MatrixPhyloProcess.h">
<polygon fill="none" stroke="#000000" points="328.5,-246.5 328.5,-265.5 441.5,-265.5 441.5,-246.5 328.5,-246.5"/>
<text text-anchor="middle" x="385" y="-253.5" font-family="Helvetica,sans-Serif" font-size="10.00" fill="#000000">MatrixPhyloProcess.h</text>
</a>
</g>
</g>
<!-- Node12&#45;&gt;Node13 -->
<g id="edge3" class="edge">
<title>Node12&#45;&gt;Node13</title>
<path fill="none" stroke="#191970" d="M505.3381,-298.9231C476.6376,-288.686 437.3956,-274.6889 411.6371,-265.5011"/>
<polygon fill="#191970" stroke="#191970" points="504.4161,-302.3102 515.0107,-302.3733 506.7678,-295.7171 504.4161,-302.3102"/>
</g>
<!-- Node25 -->
<g id="node16" class="node">
<title>Node25</title>
<g id="a_node16"><a xlink:href="NNI_8cpp.html" target="_top" xlink:title="NNI.cpp">
<polygon fill="none" stroke="#000000" points="469.5,-246.5 469.5,-265.5 522.5,-265.5 522.5,-246.5 469.5,-246.5"/>
<text text-anchor="middle" x="496" y="-253.5" font-family="Helvetica,sans-Serif" font-size="10.00" fill="#000000">NNI.cpp</text>
</a>
</g>
</g>
<!-- Node12&#45;&gt;Node25 -->
<g id="edge15" class="edge">
<title>Node12&#45;&gt;Node25</title>
<path fill="none" stroke="#191970" d="M527.6253,-294.5004C519.8029,-284.9775 510.424,-273.5596 503.9208,-265.6427"/>
<polygon fill="#191970" stroke="#191970" points="524.9354,-296.7399 533.9874,-302.2455 530.3445,-292.2967 524.9354,-296.7399"/>
</g>
<!-- Node26 -->
<g id="node17" class="node">
<title>Node26</title>
<g id="a_node17"><a xlink:href="PhyloProcess_8cpp.html" target="_top" xlink:title="PhyloProcess.cpp">
<polygon fill="none" stroke="#000000" points="541,-246.5 541,-265.5 637,-265.5 637,-246.5 541,-246.5"/>
<text text-anchor="middle" x="589" y="-253.5" font-family="Helvetica,sans-Serif" font-size="10.00" fill="#000000">PhyloProcess.cpp</text>
</a>
</g>
</g>
<!-- Node12&#45;&gt;Node26 -->
<g id="edge16" class="edge">
<title>Node12&#45;&gt;Node26</title>
<path fill="none" stroke="#191970" d="M556.6872,-294.5004C564.6796,-284.9775 574.2625,-273.5596 580.907,-265.6427"/>
<polygon fill="#191970" stroke="#191970" points="553.9346,-292.3357 550.1868,-302.2455 559.2964,-296.8358 553.9346,-292.3357"/>
</g>
<!-- Node14 -->
<g id="node5" class="node">
<title>Node14</title>
<g id="a_node5"><a xlink:href="ExpoConjugateGTRPhyloProcess_8h.html" target="_top" xlink:title="ExpoConjugateGTRPhyloProcess.h">
<polygon fill="none" stroke="#000000" points="279.5,-185 279.5,-204 452.5,-204 452.5,-185 279.5,-185"/>
<text text-anchor="middle" x="366" y="-192" font-family="Helvetica,sans-Serif" font-size="10.00" fill="#000000">ExpoConjugateGTRPhyloProcess.h</text>
</a>
</g>
</g>
<!-- Node13&#45;&gt;Node14 -->
<g id="edge4" class="edge">
<title>Node13&#45;&gt;Node14</title>
<path fill="none" stroke="#191970" d="M379.0013,-236.5832C375.6763,-225.8205 371.6859,-212.9042 369.0106,-204.2449"/>
<polygon fill="#191970" stroke="#191970" points="375.7354,-237.8693 382.0313,-246.3906 382.4235,-235.8031 375.7354,-237.8693"/>
</g>
<!-- Node22 -->
<g id="node13" class="node">
<title>Node22</title>
<g id="a_node13"><a xlink:href="GeneralPathSuffStatMatrixPhyloProcess_8h.html" target="_top" xlink:title="GeneralPathSuffStatMatrix\lPhyloProcess.h">
<polygon fill="none" stroke="#000000" points="64,-179.5 64,-209.5 198,-209.5 198,-179.5 64,-179.5"/>
<text text-anchor="start" x="72" y="-197.5" font-family="Helvetica,sans-Serif" font-size="10.00" fill="#000000">GeneralPathSuffStatMatrix</text>
<text text-anchor="middle" x="131" y="-186.5" font-family="Helvetica,sans-Serif" font-size="10.00" fill="#000000">PhyloProcess.h</text>
</a>
</g>
</g>
<!-- Node13&#45;&gt;Node22 -->
<g id="edge12" class="edge">
<title>Node13&#45;&gt;Node22</title>
<path fill="none" stroke="#191970" d="M335.6457,-244.05C294.992,-234.2067 237.1125,-220.1926 193.2751,-209.5784"/>
<polygon fill="#191970" stroke="#191970" points="335.0484,-247.5065 345.5912,-246.4581 336.6957,-240.7031 335.0484,-247.5065"/>
</g>
<!-- Node24 -->
<g id="node15" class="node">
<title>Node24</title>
<g id="a_node15"><a xlink:href="MatrixPhyloProcess_8cpp.html" target="_top" xlink:title="MatrixPhyloProcess.cpp">
<polygon fill="none" stroke="#000000" points="470.5,-185 470.5,-204 593.5,-204 593.5,-185 470.5,-185"/>
<text text-anchor="middle" x="532" y="-192" font-family="Helvetica,sans-Serif" font-size="10.00" fill="#000000">MatrixPhyloProcess.cpp</text>
</a>
</g>
</g>
<!-- Node13&#45;&gt;Node24 -->
<g id="edge14" class="edge">
<title>Node13&#45;&gt;Node24</title>
<path fill="none" stroke="#191970" d="M417.279,-242.4955C445.0955,-230.858 484.5533,-214.3501 509.1925,-204.0419"/>
<polygon fill="#191970" stroke="#191970" points="415.8431,-239.3022 407.9688,-246.3906 418.5448,-245.7599 415.8431,-239.3022"/>
</g>
<!-- Node15 -->
<g id="node6" class="node">
<title>Node15</title>
<g id="a_node6"><a xlink:href="ExpoConjugateGTRPhyloProcess_8cpp.html" target="_top" xlink:title="ExpoConjugateGTRPhyloProcess.cpp">
<polygon fill="none" stroke="#000000" points="152,-118 152,-137 336,-137 336,-118 152,-118"/>
<text text-anchor="middle" x="244" y="-125" font-family="Helvetica,sans-Serif" font-size="10.00" fill="#000000">ExpoConjugateGTRPhyloProcess.cpp</text>
</a>
</g>
</g>
<!-- Node14&#45;&gt;Node15 -->
<g id="edge5" class="edge">
<title>Node14&#45;&gt;Node15</title>
<path fill="none" stroke="#191970" d="M339.7018,-180.0575C316.0286,-167.0567 281.9071,-148.3179 261.4472,-137.0817"/>
<polygon fill="#191970" stroke="#191970" points="338.0704,-183.1546 348.5204,-184.9005 341.44,-177.019 338.0704,-183.1546"/>
</g>
<!-- Node16 -->
<g id="node7" class="node">
<title>Node16</title>
<g id="a_node7"><a xlink:href="RASCATGTRSBDPGammaPhyloProcess_8h.html" target="_top" xlink:title="RASCATGTRSBDPGammaPhyloProcess.h">
<polygon fill="none" stroke="#000000" points="570,-118 570,-137 780,-137 780,-118 570,-118"/>
<text text-anchor="middle" x="675" y="-125" font-family="Helvetica,sans-Serif" font-size="10.00" fill="#000000">RASCATGTRSBDPGammaPhyloProcess.h</text>
</a>
</g>
</g>
<!-- Node14&#45;&gt;Node16 -->
<g id="edge6" class="edge">
<title>Node14&#45;&gt;Node16</title>
<path fill="none" stroke="#191970" d="M419.9522,-182.8016C479.7582,-169.834 575.0978,-149.1616 630.7073,-137.1039"/>
<polygon fill="#191970" stroke="#191970" points="418.9752,-179.432 409.944,-184.9717 420.4586,-186.2731 418.9752,-179.432"/>
</g>
<!-- Node20 -->
<g id="node11" class="node">
<title>Node20</title>
<g id="a_node11"><a xlink:href="RASCATGTRDPGammaPhyloProcess_8h.html" target="_top" xlink:title="RASCATGTRDPGammaPhyloProcess.h">
<polygon fill="none" stroke="#000000" points="354.5,-118 354.5,-137 551.5,-137 551.5,-118 354.5,-118"/>
<text text-anchor="middle" x="453" y="-125" font-family="Helvetica,sans-Serif" font-size="10.00" fill="#000000">RASCATGTRDPGammaPhyloProcess.h</text>
</a>
</g>
</g>
<!-- Node14&#45;&gt;Node20 -->
<g id="edge10" class="edge">
<title>Node14&#45;&gt;Node20</title>
<path fill="none" stroke="#191970" d="M386.5737,-178.6559C403.3458,-165.7395 426.4843,-147.9201 440.5581,-137.0817"/>
<polygon fill="#191970" stroke="#191970" points="384.2523,-176.026 378.465,-184.9005 388.5234,-181.572 384.2523,-176.026"/>
</g>
<!-- Node17 -->
<g id="node8" class="node">
<title>Node17</title>
<g id="a_node8"><a xlink:href="Model_8h.html" target="_top" xlink:title="Model.h">
<polygon fill="none" stroke="#000000" points="611.5,-56.5 611.5,-75.5 662.5,-75.5 662.5,-56.5 611.5,-56.5"/>
<text text-anchor="middle" x="637" y="-63.5" font-family="Helvetica,sans-Serif" font-size="10.00" fill="#000000">Model.h</text>
</a>
</g>
</g>
<!-- Node16&#45;&gt;Node17 -->
<g id="edge7" class="edge">
<title>Node16&#45;&gt;Node17</title>
<path fill="none" stroke="#191970" d="M663.6221,-109.0857C656.8539,-98.132 648.5389,-84.6748 643.0212,-75.7449"/>
<polygon fill="#191970" stroke="#191970" points="660.8286,-111.2233 669.0625,-117.8906 666.7835,-107.5438 660.8286,-111.2233"/>
</g>
<!-- Node19 -->
<g id="node10" class="node">
<title>Node19</title>
<g id="a_node10"><a xlink:href="RASCATGTRSBDPGammaPhyloProcess_8cpp.html" target="_top" xlink:title="RASCATGTRSBDPGammaPhyloProcess.cpp">
<polygon fill="none" stroke="#000000" points="680.5,-56.5 680.5,-75.5 901.5,-75.5 901.5,-56.5 680.5,-56.5"/>
<text text-anchor="middle" x="791" y="-63.5" font-family="Helvetica,sans-Serif" font-size="10.00" fill="#000000">RASCATGTRSBDPGammaPhyloProcess.cpp</text>
</a>
</g>
</g>
<!-- Node16&#45;&gt;Node19 -->
<g id="edge9" class="edge">
<title>Node16&#45;&gt;Node19</title>
<path fill="none" stroke="#191970" d="M702.2157,-113.071C724.0459,-101.4972 754.0685,-85.5801 773.0023,-75.5419"/>
<polygon fill="#191970" stroke="#191970" points="700.3206,-110.1142 693.125,-117.8906 703.5996,-116.2987 700.3206,-110.1142"/>
</g>
<!-- Node18 -->
<g id="node9" class="node">
<title>Node18</title>
<g id="a_node9"><a xlink:href="PB_8cpp.html" target="_top" xlink:title="PB.cpp">
<polygon fill="none" stroke="#000000" points="612.5,-.5 612.5,-19.5 661.5,-19.5 661.5,-.5 612.5,-.5"/>
<text text-anchor="middle" x="637" y="-7.5" font-family="Helvetica,sans-Serif" font-size="10.00" fill="#000000">PB.cpp</text>
</a>
</g>
</g>
<!-- Node17&#45;&gt;Node18 -->
<g id="edge8" class="edge">
<title>Node17&#45;&gt;Node18</title>
<path fill="none" stroke="#191970" d="M637,-46.1575C637,-37.155 637,-26.9199 637,-19.6427"/>
<polygon fill="#191970" stroke="#191970" points="633.5001,-46.2455 637,-56.2455 640.5001,-46.2456 633.5001,-46.2455"/>
</g>
<!-- Node21 -->
<g id="node12" class="node">
<title>Node21</title>
<g id="a_node12"><a xlink:href="RASCATGTRDPGammaPhyloProcess_8cpp.html" target="_top" xlink:title="RASCATGTRDPGammaPhyloProcess.cpp">
<polygon fill="none" stroke="#000000" points="349.5,-56.5 349.5,-75.5 556.5,-75.5 556.5,-56.5 349.5,-56.5"/>
<text text-anchor="middle" x="453" y="-63.5" font-family="Helvetica,sans-Serif" font-size="10.00" fill="#000000">RASCATGTRDPGammaPhyloProcess.cpp</text>
</a>
</g>
</g>
<!-- Node20&#45;&gt;Node21 -->
<g id="edge11" class="edge">
<title>Node20&#45;&gt;Node21</title>
<path fill="none" stroke="#191970" d="M453,-107.7462C453,-97.0519 453,-84.314 453,-75.7449"/>
<polygon fill="#191970" stroke="#191970" points="449.5001,-107.8906 453,-117.8906 456.5001,-107.8907 449.5001,-107.8906"/>
</g>
<!-- Node23 -->
<g id="node14" class="node">
<title>Node23</title>
<g id="a_node14"><a xlink:href="GeneralPathSuffStatMatrixPhyloProcess_8cpp.html" target="_top" xlink:title="GeneralPathSuffStatMatrix\lPhyloProcess.cpp">
<polygon fill="none" stroke="#000000" points="0,-112.5 0,-142.5 134,-142.5 134,-112.5 0,-112.5"/>
<text text-anchor="start" x="8" y="-130.5" font-family="Helvetica,sans-Serif" font-size="10.00" fill="#000000">GeneralPathSuffStatMatrix</text>
<text text-anchor="middle" x="67" y="-119.5" font-family="Helvetica,sans-Serif" font-size="10.00" fill="#000000">PhyloProcess.cpp</text>
</a>
</g>
</g>
<!-- Node22&#45;&gt;Node23 -->
<g id="edge13" class="edge">
<title>Node22&#45;&gt;Node23</title>
<path fill="none" stroke="#191970" d="M109.4361,-171.9253C100.2254,-162.2828 89.7193,-151.2843 81.4651,-142.6432"/>
<polygon fill="#191970" stroke="#191970" points="107.0392,-174.4831 116.4774,-179.2967 112.101,-169.648 107.0392,-174.4831"/>
</g>
<!-- Node27&#45;&gt;Node16 -->
<g id="edge19" class="edge">
<title>Node27&#45;&gt;Node16</title>
<path fill="none" stroke="#191970" d="M675,-174.6079C675,-162.214 675,-146.8263 675,-137.0817"/>
<polygon fill="#191970" stroke="#191970" points="671.5001,-174.9005 675,-184.9005 678.5001,-174.9006 671.5001,-174.9005"/>
</g>
<!-- Node27&#45;&gt;Node20 -->
<g id="edge20" class="edge">
<title>Node27&#45;&gt;Node20</title>
<path fill="none" stroke="#191970" d="M633.5683,-181.9958C590.4518,-168.9832 523.873,-148.8896 484.7482,-137.0817"/>
<polygon fill="#191970" stroke="#191970" points="632.608,-185.3619 643.1928,-184.9005 634.6306,-178.6604 632.608,-185.3619"/>
</g>
<!-- Node28 -->
<g id="node19" class="node">
<title>Node28</title>
<g id="a_node19"><a xlink:href="GammaBranchProcess_8cpp.html" target="_top" xlink:title="GammaBranchProcess.cpp">
<polygon fill="none" stroke="#000000" points="798.5,-118 798.5,-137 935.5,-137 935.5,-118 798.5,-118"/>
<text text-anchor="middle" x="867" y="-125" font-family="Helvetica,sans-Serif" font-size="10.00" fill="#000000">GammaBranchProcess.cpp</text>
</a>
</g>
</g>
<!-- Node27&#45;&gt;Node28 -->
<g id="edge18" class="edge">
<title>Node27&#45;&gt;Node28</title>
<path fill="none" stroke="#191970" d="M712.0171,-181.5826C749.3324,-168.5611 806.0606,-148.7653 839.5421,-137.0817"/>
<polygon fill="#191970" stroke="#191970" points="710.7974,-178.3011 702.5089,-184.9005 713.1038,-184.9103 710.7974,-178.3011"/>
</g>
</g>
</svg>
