<?xml version="1.0" encoding="UTF-8" standalone="no"?>
<!DOCTYPE svg PUBLIC "-//W3C//DTD SVG 1.1//EN"
 "http://www.w3.org/Graphics/SVG/1.1/DTD/svg11.dtd">
<!-- Generated by graphviz version 2.38.0 (20140413.2041)
 -->
<!-- Title: BranchProcess.h Pages: 1 -->
<svg width="2818pt" height="397pt"
 viewBox="0.00 0.00 2817.50 397.00" xmlns="http://www.w3.org/2000/svg" xmlns:xlink="http://www.w3.org/1999/xlink">
<g id="graph0" class="graph" transform="scale(1 1) rotate(0) translate(4 393)">
<title>BranchProcess.h</title>
<!-- Node10 -->
<g id="node1" class="node"><title>Node10</title>
<polygon fill="#bfbfbf" stroke="black" points="938,-369.5 938,-388.5 1030,-388.5 1030,-369.5 938,-369.5"/>
<text text-anchor="middle" x="984" y="-376.5" font-family="Helvetica,sans-Serif" font-size="10.00">BranchProcess.h</text>
</g>
<!-- Node11 -->
<g id="node2" class="node"><title>Node11</title>
<g id="a_node2"><a xlink:href="PhyloProcess_8h.html" target="_top" xlink:title="PhyloProcess.h">
<polygon fill="none" stroke="black" points="694,-313.5 694,-332.5 780,-332.5 780,-313.5 694,-313.5"/>
<text text-anchor="middle" x="737" y="-320.5" font-family="Helvetica,sans-Serif" font-size="10.00">PhyloProcess.h</text>
</a>
</g>
</g>
<!-- Node10&#45;&gt;Node11 -->
<g id="edge1" class="edge"><title>Node10&#45;&gt;Node11</title>
<path fill="none" stroke="midnightblue" d="M934.973,-367.281C888.296,-357.077 818.969,-341.92 775.955,-332.516"/>
<polygon fill="midnightblue" stroke="midnightblue" points="934.345,-370.727 944.862,-369.444 935.84,-363.888 934.345,-370.727"/>
</g>
<!-- Node52 -->
<g id="node43" class="node"><title>Node52</title>
<g id="a_node43"><a xlink:href="GammaBranchProcess_8h.html" target="_top" xlink:title="GammaBranchProcess.h">
<polygon fill="none" stroke="black" points="1221,-257.5 1221,-276.5 1347,-276.5 1347,-257.5 1221,-257.5"/>
<text text-anchor="middle" x="1284" y="-264.5" font-family="Helvetica,sans-Serif" font-size="10.00">GammaBranchProcess.h</text>
</a>
</g>
</g>
<!-- Node10&#45;&gt;Node52 -->
<g id="edge52" class="edge"><title>Node10&#45;&gt;Node52</title>
<path fill="none" stroke="midnightblue" d="M984.317,-359.265C985.625,-344.493 989.929,-324.524 1003,-313 1019.12,-298.787 1143.14,-283.106 1220.94,-274.518"/>
<polygon fill="midnightblue" stroke="midnightblue" points="980.818,-359.157 983.806,-369.322 987.809,-359.513 980.818,-359.157"/>
</g>
<!-- Node54 -->
<g id="node45" class="node"><title>Node54</title>
<g id="a_node45"><a xlink:href="BranchProcess_8cpp.html" target="_top" xlink:title="BranchProcess.cpp">
<polygon fill="none" stroke="black" points="1012,-313.5 1012,-332.5 1114,-332.5 1114,-313.5 1012,-313.5"/>
<text text-anchor="middle" x="1063" y="-320.5" font-family="Helvetica,sans-Serif" font-size="10.00">BranchProcess.cpp</text>
</a>
</g>
</g>
<!-- Node10&#45;&gt;Node54 -->
<g id="edge66" class="edge"><title>Node10&#45;&gt;Node54</title>
<path fill="none" stroke="midnightblue" d="M1005.03,-363.622C1019.47,-353.757 1038.14,-340.992 1050.34,-332.655"/>
<polygon fill="midnightblue" stroke="midnightblue" points="1002.97,-360.791 996.693,-369.324 1006.92,-366.57 1002.97,-360.791"/>
</g>
<!-- Node12 -->
<g id="node3" class="node"><title>Node12</title>
<g id="a_node3"><a xlink:href="MatrixPhyloProcess_8h.html" target="_top" xlink:title="MatrixPhyloProcess.h">
<polygon fill="none" stroke="black" points="1055.5,-257.5 1055.5,-276.5 1168.5,-276.5 1168.5,-257.5 1055.5,-257.5"/>
<text text-anchor="middle" x="1112" y="-264.5" font-family="Helvetica,sans-Serif" font-size="10.00">MatrixPhyloProcess.h</text>
</a>
</g>
</g>
<!-- Node11&#45;&gt;Node12 -->
<g id="edge2" class="edge"><title>Node11&#45;&gt;Node12</title>
<path fill="none" stroke="midnightblue" d="M789.978,-314.371C860.186,-304.261 983.541,-286.498 1055.48,-276.138"/>
<polygon fill="midnightblue" stroke="midnightblue" points="789.416,-310.916 780.017,-315.806 790.414,-317.844 789.416,-310.916"/>
</g>
<!-- Node37 -->
<g id="node28" class="node"><title>Node37</title>
<g id="a_node28"><a xlink:href="GeneProfileProcess_8h.html" target="_top" xlink:title="GeneProfileProcess.h">
<polygon fill="none" stroke="black" points="180,-257.5 180,-276.5 292,-276.5 292,-257.5 180,-257.5"/>
<text text-anchor="middle" x="236" y="-264.5" font-family="Helvetica,sans-Serif" font-size="10.00">GeneProfileProcess.h</text>
</a>
</g>
</g>
<!-- Node11&#45;&gt;Node37 -->
<g id="edge32" class="edge"><title>Node11&#45;&gt;Node37</title>
<path fill="none" stroke="midnightblue" d="M683.855,-316.272C588.535,-305.998 389.395,-284.534 292.026,-274.039"/>
<polygon fill="midnightblue" stroke="midnightblue" points="683.534,-319.757 693.851,-317.349 684.284,-312.798 683.534,-319.757"/>
</g>
<!-- Node41 -->
<g id="node32" class="node"><title>Node41</title>
<g id="a_node32"><a xlink:href="GeneralConjugatePath_8h.html" target="_top" xlink:title="GeneralConjugatePath.h">
<polygon fill="none" stroke="black" points="430.5,-257.5 430.5,-276.5 553.5,-276.5 553.5,-257.5 430.5,-257.5"/>
<text text-anchor="middle" x="492" y="-264.5" font-family="Helvetica,sans-Serif" font-size="10.00">GeneralConjugatePath.h</text>
</a>
</g>
</g>
<!-- Node11&#45;&gt;Node41 -->
<g id="edge38" class="edge"><title>Node11&#45;&gt;Node41</title>
<path fill="none" stroke="midnightblue" d="M688.37,-311.281C642.071,-301.077 573.305,-285.92 530.639,-276.516"/>
<polygon fill="midnightblue" stroke="midnightblue" points="687.66,-314.709 698.179,-313.444 689.167,-307.873 687.66,-314.709"/>
</g>
<!-- Node42 -->
<g id="node33" class="node"><title>Node42</title>
<g id="a_node33"><a xlink:href="PoissonPhyloProcess_8h.html" target="_top" xlink:title="PoissonPhyloProcess.h">
<polygon fill="none" stroke="black" points="571.5,-257.5 571.5,-276.5 692.5,-276.5 692.5,-257.5 571.5,-257.5"/>
<text text-anchor="middle" x="632" y="-264.5" font-family="Helvetica,sans-Serif" font-size="10.00">PoissonPhyloProcess.h</text>
</a>
</g>
</g>
<!-- Node11&#45;&gt;Node42 -->
<g id="edge39" class="edge"><title>Node11&#45;&gt;Node42</title>
<path fill="none" stroke="midnightblue" d="M711.19,-308.726C691.747,-298.727 665.652,-285.307 648.828,-276.655"/>
<polygon fill="midnightblue" stroke="midnightblue" points="709.636,-311.863 720.13,-313.324 712.838,-305.638 709.636,-311.863"/>
</g>
<!-- Node50 -->
<g id="node41" class="node"><title>Node50</title>
<g id="a_node41"><a xlink:href="NNI_8cpp.html" target="_top" xlink:title="NNI.cpp">
<polygon fill="none" stroke="black" points="710.5,-257.5 710.5,-276.5 763.5,-276.5 763.5,-257.5 710.5,-257.5"/>
<text text-anchor="middle" x="737" y="-264.5" font-family="Helvetica,sans-Serif" font-size="10.00">NNI.cpp</text>
</a>
</g>
</g>
<!-- Node11&#45;&gt;Node50 -->
<g id="edge50" class="edge"><title>Node11&#45;&gt;Node50</title>
<path fill="none" stroke="midnightblue" d="M737,-302.805C737,-293.91 737,-283.78 737,-276.751"/>
<polygon fill="midnightblue" stroke="midnightblue" points="733.5,-303.083 737,-313.083 740.5,-303.083 733.5,-303.083"/>
</g>
<!-- Node51 -->
<g id="node42" class="node"><title>Node51</title>
<g id="a_node42"><a xlink:href="PhyloProcess_8cpp.html" target="_top" xlink:title="PhyloProcess.cpp">
<polygon fill="none" stroke="black" points="782,-257.5 782,-276.5 878,-276.5 878,-257.5 782,-257.5"/>
<text text-anchor="middle" x="830" y="-264.5" font-family="Helvetica,sans-Serif" font-size="10.00">PhyloProcess.cpp</text>
</a>
</g>
</g>
<!-- Node11&#45;&gt;Node51 -->
<g id="edge51" class="edge"><title>Node11&#45;&gt;Node51</title>
<path fill="none" stroke="midnightblue" d="M760.806,-308.177C777.919,-298.241 800.465,-285.149 815.095,-276.655"/>
<polygon fill="midnightblue" stroke="midnightblue" points="758.832,-305.276 751.942,-313.324 762.347,-311.329 758.832,-305.276"/>
</g>
<!-- Node13 -->
<g id="node4" class="node"><title>Node13</title>
<g id="a_node4"><a xlink:href="GeneralPathSuffStatMatrixPhyloProcess_8h.html" target="_top" xlink:title="GeneralPathSuffStatMatrix\lPhyloProcess.h">
<polygon fill="none" stroke="black" points="1188,-190.5 1188,-220.5 1322,-220.5 1322,-190.5 1188,-190.5"/>
<text text-anchor="start" x="1196" y="-208.5" font-family="Helvetica,sans-Serif" font-size="10.00">GeneralPathSuffStatMatrix</text>
<text text-anchor="middle" x="1255" y="-197.5" font-family="Helvetica,sans-Serif" font-size="10.00">PhyloProcess.h</text>
</a>
</g>
</g>
<!-- Node12&#45;&gt;Node13 -->
<g id="edge3" class="edge"><title>Node12&#45;&gt;Node13</title>
<path fill="none" stroke="midnightblue" d="M1141.83,-253.59C1165.01,-243.942 1197.18,-230.558 1221.3,-220.523"/>
<polygon fill="midnightblue" stroke="midnightblue" points="1140.38,-250.402 1132.49,-257.475 1143.07,-256.865 1140.38,-250.402"/>
</g>
<!-- Node27 -->
<g id="node18" class="node"><title>Node27</title>
<g id="a_node18"><a xlink:href="ExpoConjugateGTRPhyloProcess_8h.html" target="_top" xlink:title="ExpoConjugateGTRPhyloProcess.h">
<polygon fill="none" stroke="black" points="1814.5,-196 1814.5,-215 1987.5,-215 1987.5,-196 1814.5,-196"/>
<text text-anchor="middle" x="1901" y="-203" font-family="Helvetica,sans-Serif" font-size="10.00">ExpoConjugateGTRPhyloProcess.h</text>
</a>
</g>
</g>
<!-- Node12&#45;&gt;Node27 -->
<g id="edge20" class="edge"><title>Node12&#45;&gt;Node27</title>
<path fill="none" stroke="midnightblue" d="M1178.68,-259.844C1189.8,-258.861 1201.23,-257.88 1212,-257 1428.67,-239.311 1683.91,-221.355 1814.49,-212.378"/>
<polygon fill="midnightblue" stroke="midnightblue" points="1178.22,-256.37 1168.57,-260.744 1178.84,-263.343 1178.22,-256.37"/>
</g>
<!-- Node36 -->
<g id="node27" class="node"><title>Node36</title>
<g id="a_node27"><a xlink:href="MatrixPhyloProcess_8cpp.html" target="_top" xlink:title="MatrixPhyloProcess.cpp">
<polygon fill="none" stroke="black" points="730.5,-196 730.5,-215 853.5,-215 853.5,-196 730.5,-196"/>
<text text-anchor="middle" x="792" y="-203" font-family="Helvetica,sans-Serif" font-size="10.00">MatrixPhyloProcess.cpp</text>
</a>
</g>
</g>
<!-- Node12&#45;&gt;Node36 -->
<g id="edge31" class="edge"><title>Node12&#45;&gt;Node36</title>
<path fill="none" stroke="midnightblue" d="M1055.34,-255.652C1005.88,-246.594 932.165,-233.038 868,-221 857.834,-219.093 846.908,-217.021 836.599,-215.056"/>
<polygon fill="midnightblue" stroke="midnightblue" points="1054.74,-259.101 1065.21,-257.458 1056,-252.215 1054.74,-259.101"/>
</g>
<!-- Node14 -->
<g id="node5" class="node"><title>Node14</title>
<g id="a_node5"><a xlink:href="AACodonMutSelFinitePhyloProcess_8h.html" target="_top" xlink:title="AACodonMutSelFinitePhylo\lProcess.h">
<polygon fill="none" stroke="black" points="1091,-123.5 1091,-153.5 1229,-153.5 1229,-123.5 1091,-123.5"/>
<text text-anchor="start" x="1099" y="-141.5" font-family="Helvetica,sans-Serif" font-size="10.00">AACodonMutSelFinitePhylo</text>
<text text-anchor="middle" x="1160" y="-130.5" font-family="Helvetica,sans-Serif" font-size="10.00">Process.h</text>
</a>
</g>
</g>
<!-- Node13&#45;&gt;Node14 -->
<g id="edge4" class="edge"><title>Node13&#45;&gt;Node14</title>
<path fill="none" stroke="midnightblue" d="M1226.11,-184.734C1211.41,-174.676 1193.89,-162.685 1180.57,-153.577"/>
<polygon fill="midnightblue" stroke="midnightblue" points="1224.16,-187.638 1234.39,-190.396 1228.11,-181.861 1224.16,-187.638"/>
</g>
<!-- Node19 -->
<g id="node10" class="node"><title>Node19</title>
<g id="a_node10"><a xlink:href="AACodonMutSelGenePhyloProcess_8h.html" target="_top" xlink:title="AACodonMutSelGenePhyloProcess.h">
<polygon fill="none" stroke="black" points="251,-62 251,-81 433,-81 433,-62 251,-62"/>
<text text-anchor="middle" x="342" y="-69" font-family="Helvetica,sans-Serif" font-size="10.00">AACodonMutSelGenePhyloProcess.h</text>
</a>
</g>
</g>
<!-- Node13&#45;&gt;Node19 -->
<g id="edge9" class="edge"><title>Node13&#45;&gt;Node19</title>
<path fill="none" stroke="midnightblue" d="M1177.84,-189.013C1146.96,-181.042 1111.74,-169.638 1082,-154 1062.71,-143.855 1064.31,-130.923 1044,-123 919.15,-74.2862 575.322,-100.628 442,-87 426.642,-85.4302 410.027,-83.2263 394.833,-81.0096"/>
<polygon fill="midnightblue" stroke="midnightblue" points="1177.15,-192.448 1187.71,-191.481 1178.85,-185.658 1177.15,-192.448"/>
</g>
<!-- Node20 -->
<g id="node11" class="node"><title>Node20</title>
<g id="a_node11"><a xlink:href="AACodonMutSelSBDPPhyloProcess_8h.html" target="_top" xlink:title="AACodonMutSelSBDPPhyloProcess.h">
<polygon fill="none" stroke="black" points="1399,-129 1399,-148 1585,-148 1585,-129 1399,-129"/>
<text text-anchor="middle" x="1492" y="-136" font-family="Helvetica,sans-Serif" font-size="10.00">AACodonMutSelSBDPPhyloProcess.h</text>
</a>
</g>
</g>
<!-- Node13&#45;&gt;Node20 -->
<g id="edge10" class="edge"><title>Node13&#45;&gt;Node20</title>
<path fill="none" stroke="midnightblue" d="M1315.78,-187.83C1362.16,-175.109 1424.16,-158.106 1460.9,-148.029"/>
<polygon fill="midnightblue" stroke="midnightblue" points="1314.85,-184.456 1306.13,-190.476 1316.7,-191.206 1314.85,-184.456"/>
</g>
<!-- Node22 -->
<g id="node13" class="node"><title>Node22</title>
<g id="a_node13"><a xlink:href="CodonMutSelFinitePhyloProcess_8h.html" target="_top" xlink:title="CodonMutSelFinitePhyloProcess.h">
<polygon fill="none" stroke="black" points="1602.5,-129 1602.5,-148 1771.5,-148 1771.5,-129 1602.5,-129"/>
<text text-anchor="middle" x="1687" y="-136" font-family="Helvetica,sans-Serif" font-size="10.00">CodonMutSelFinitePhyloProcess.h</text>
</a>
</g>
</g>
<!-- Node13&#45;&gt;Node22 -->
<g id="edge13" class="edge"><title>Node13&#45;&gt;Node22</title>
<path fill="none" stroke="midnightblue" d="M1332.17,-189.859C1449.13,-170.934 1480.46,-170.621 1594,-154 1606.77,-152.13 1620.52,-150.034 1633.42,-148.028"/>
<polygon fill="midnightblue" stroke="midnightblue" points="1331.41,-186.437 1322.1,-191.5 1332.54,-193.346 1331.41,-186.437"/>
</g>
<!-- Node24 -->
<g id="node15" class="node"><title>Node24</title>
<g id="a_node15"><a xlink:href="CodonMutSelSBDPPhyloProcess_8h.html" target="_top" xlink:title="CodonMutSelSBDPPhyloProcess.h">
<polygon fill="none" stroke="black" points="2172.5,-129 2172.5,-148 2345.5,-148 2345.5,-129 2172.5,-129"/>
<text text-anchor="middle" x="2259" y="-136" font-family="Helvetica,sans-Serif" font-size="10.00">CodonMutSelSBDPPhyloProcess.h</text>
</a>
</g>
</g>
<!-- Node13&#45;&gt;Node24 -->
<g id="edge16" class="edge"><title>Node13&#45;&gt;Node24</title>
<path fill="none" stroke="midnightblue" d="M1332.19,-189.989C1700.4,-147.966 1797.93,-189.367 2163,-154 2178.1,-152.537 2194.45,-150.311 2209.3,-148.038"/>
<polygon fill="midnightblue" stroke="midnightblue" points="1331.59,-186.536 1322.06,-191.159 1332.39,-193.489 1331.59,-186.536"/>
</g>
<!-- Node26 -->
<g id="node17" class="node"><title>Node26</title>
<g id="a_node17"><a xlink:href="GeneralPathSuffStatMatrixPhyloProcess_8cpp.html" target="_top" xlink:title="GeneralPathSuffStatMatrix\lPhyloProcess.cpp">
<polygon fill="none" stroke="black" points="1247,-123.5 1247,-153.5 1381,-153.5 1381,-123.5 1247,-123.5"/>
<text text-anchor="start" x="1255" y="-141.5" font-family="Helvetica,sans-Serif" font-size="10.00">GeneralPathSuffStatMatrix</text>
<text text-anchor="middle" x="1314" y="-130.5" font-family="Helvetica,sans-Serif" font-size="10.00">PhyloProcess.cpp</text>
</a>
</g>
</g>
<!-- Node13&#45;&gt;Node26 -->
<g id="edge19" class="edge"><title>Node13&#45;&gt;Node26</title>
<path fill="none" stroke="midnightblue" d="M1274.75,-182.736C1283.48,-173.119 1293.5,-162.089 1301.22,-153.577"/>
<polygon fill="midnightblue" stroke="midnightblue" points="1271.93,-180.639 1267.8,-190.396 1277.11,-185.344 1271.93,-180.639"/>
</g>
<!-- Node15 -->
<g id="node6" class="node"><title>Node15</title>
<g id="a_node6"><a xlink:href="AACodonMutSelFinitePhyloProcess_8cpp.html" target="_top" xlink:title="AACodonMutSelFinitePhylo\lProcess.cpp">
<polygon fill="none" stroke="black" points="1091,-56.5 1091,-86.5 1229,-86.5 1229,-56.5 1091,-56.5"/>
<text text-anchor="start" x="1099" y="-74.5" font-family="Helvetica,sans-Serif" font-size="10.00">AACodonMutSelFinitePhylo</text>
<text text-anchor="middle" x="1160" y="-63.5" font-family="Helvetica,sans-Serif" font-size="10.00">Process.cpp</text>
</a>
</g>
</g>
<!-- Node14&#45;&gt;Node15 -->
<g id="edge5" class="edge"><title>Node14&#45;&gt;Node15</title>
<path fill="none" stroke="midnightblue" d="M1160,-113.108C1160,-104.154 1160,-94.3227 1160,-86.5765"/>
<polygon fill="midnightblue" stroke="midnightblue" points="1156.5,-113.396 1160,-123.396 1163.5,-113.396 1156.5,-113.396"/>
</g>
<!-- Node16 -->
<g id="node7" class="node"><title>Node16</title>
<g id="a_node7"><a xlink:href="Model_8h.html" target="_top" xlink:title="Model.h">
<polygon fill="none" stroke="black" points="1568.5,-62 1568.5,-81 1619.5,-81 1619.5,-62 1568.5,-62"/>
<text text-anchor="middle" x="1594" y="-69" font-family="Helvetica,sans-Serif" font-size="10.00">Model.h</text>
</a>
</g>
</g>
<!-- Node14&#45;&gt;Node16 -->
<g id="edge6" class="edge"><title>Node14&#45;&gt;Node16</title>
<path fill="none" stroke="midnightblue" d="M1239.27,-122.903C1381.84,-102.78 1423.1,-122.022 1559,-87 1564.73,-85.5228 1570.76,-83.2921 1576.17,-81.0203"/>
<polygon fill="midnightblue" stroke="midnightblue" points="1238.67,-119.452 1229.28,-124.353 1239.68,-126.38 1238.67,-119.452"/>
</g>
<!-- Node17 -->
<g id="node8" class="node"><title>Node17</title>
<g id="a_node8"><a xlink:href="PB_8cpp.html" target="_top" xlink:title="PB.cpp">
<polygon fill="none" stroke="black" points="1530.5,-0.5 1530.5,-19.5 1579.5,-19.5 1579.5,-0.5 1530.5,-0.5"/>
<text text-anchor="middle" x="1555" y="-7.5" font-family="Helvetica,sans-Serif" font-size="10.00">PB.cpp</text>
</a>
</g>
</g>
<!-- Node16&#45;&gt;Node17 -->
<g id="edge7" class="edge"><title>Node16&#45;&gt;Node17</title>
<path fill="none" stroke="midnightblue" d="M1582.86,-53.5051C1575.57,-42.388 1566.37,-28.3395 1560.58,-19.5091"/>
<polygon fill="midnightblue" stroke="midnightblue" points="1580,-55.5303 1588.41,-61.9751 1585.86,-51.6929 1580,-55.5303"/>
</g>
<!-- Node18 -->
<g id="node9" class="node"><title>Node18</title>
<g id="a_node9"><a xlink:href="ReadPB_8cpp.html" target="_top" xlink:title="ReadPB.cpp">
<polygon fill="none" stroke="black" points="1598,-0.5 1598,-19.5 1670,-19.5 1670,-0.5 1598,-0.5"/>
<text text-anchor="middle" x="1634" y="-7.5" font-family="Helvetica,sans-Serif" font-size="10.00">ReadPB.cpp</text>
</a>
</g>
</g>
<!-- Node16&#45;&gt;Node18 -->
<g id="edge8" class="edge"><title>Node16&#45;&gt;Node18</title>
<path fill="none" stroke="midnightblue" d="M1605.43,-53.5051C1612.9,-42.388 1622.34,-28.3395 1628.28,-19.5091"/>
<polygon fill="midnightblue" stroke="midnightblue" points="1602.41,-51.7234 1599.73,-61.9751 1608.21,-55.6288 1602.41,-51.7234"/>
</g>
<!-- Node20&#45;&gt;Node16 -->
<g id="edge12" class="edge"><title>Node20&#45;&gt;Node16</title>
<path fill="none" stroke="midnightblue" d="M1514.33,-123.269C1534.52,-110.403 1563.59,-91.879 1580.46,-81.1273"/>
<polygon fill="midnightblue" stroke="midnightblue" points="1512.31,-120.408 1505.76,-128.734 1516.07,-126.311 1512.31,-120.408"/>
</g>
<!-- Node21 -->
<g id="node12" class="node"><title>Node21</title>
<g id="a_node12"><a xlink:href="AACodonMutSelSBDPPhyloProcess_8cpp.html" target="_top" xlink:title="AACodonMutSelSBDPPhyloProcess.cpp">
<polygon fill="none" stroke="black" points="1353.5,-62 1353.5,-81 1550.5,-81 1550.5,-62 1353.5,-62"/>
<text text-anchor="middle" x="1452" y="-69" font-family="Helvetica,sans-Serif" font-size="10.00">AACodonMutSelSBDPPhyloProcess.cpp</text>
</a>
</g>
</g>
<!-- Node20&#45;&gt;Node21 -->
<g id="edge11" class="edge"><title>Node20&#45;&gt;Node21</title>
<path fill="none" stroke="midnightblue" d="M1481.25,-120.035C1473.51,-107.45 1463.39,-91.0072 1457.31,-81.1273"/>
<polygon fill="midnightblue" stroke="midnightblue" points="1478.38,-122.052 1486.61,-128.734 1484.35,-118.383 1478.38,-122.052"/>
</g>
<!-- Node22&#45;&gt;Node16 -->
<g id="edge15" class="edge"><title>Node22&#45;&gt;Node16</title>
<path fill="none" stroke="midnightblue" d="M1666.14,-122.92C1647.75,-110.069 1621.59,-91.7821 1606.34,-81.1273"/>
<polygon fill="midnightblue" stroke="midnightblue" points="1664.26,-125.874 1674.46,-128.734 1668.27,-120.136 1664.26,-125.874"/>
</g>
<!-- Node23 -->
<g id="node14" class="node"><title>Node23</title>
<g id="a_node14"><a xlink:href="CodonMutSelFinitePhyloProcess_8cpp.html" target="_top" xlink:title="CodonMutSelFinitePhyloProcess.cpp">
<polygon fill="none" stroke="black" points="1637.5,-62 1637.5,-81 1816.5,-81 1816.5,-62 1637.5,-62"/>
<text text-anchor="middle" x="1727" y="-69" font-family="Helvetica,sans-Serif" font-size="10.00">CodonMutSelFinitePhyloProcess.cpp</text>
</a>
</g>
</g>
<!-- Node22&#45;&gt;Node23 -->
<g id="edge14" class="edge"><title>Node22&#45;&gt;Node23</title>
<path fill="none" stroke="midnightblue" d="M1697.75,-120.035C1705.49,-107.45 1715.61,-91.0072 1721.69,-81.1273"/>
<polygon fill="midnightblue" stroke="midnightblue" points="1694.65,-118.383 1692.39,-128.734 1700.62,-122.052 1694.65,-118.383"/>
</g>
<!-- Node24&#45;&gt;Node16 -->
<g id="edge18" class="edge"><title>Node24&#45;&gt;Node16</title>
<path fill="none" stroke="midnightblue" d="M2197.79,-127.482C2186.26,-125.813 2174.28,-124.229 2163,-123 1926.09,-97.182 1859.76,-142.525 1628,-87 1622.26,-85.6245 1616.25,-83.3649 1610.91,-81.0344"/>
<polygon fill="midnightblue" stroke="midnightblue" points="2197.38,-130.959 2207.79,-128.963 2198.41,-124.035 2197.38,-130.959"/>
</g>
<!-- Node25 -->
<g id="node16" class="node"><title>Node25</title>
<g id="a_node16"><a xlink:href="CodonMutSelSBDPPhyloProcess_8cpp.html" target="_top" xlink:title="CodonMutSelSBDPPhyloProcess.cpp">
<polygon fill="none" stroke="black" points="2162.5,-62 2162.5,-81 2345.5,-81 2345.5,-62 2162.5,-62"/>
<text text-anchor="middle" x="2254" y="-69" font-family="Helvetica,sans-Serif" font-size="10.00">CodonMutSelSBDPPhyloProcess.cpp</text>
</a>
</g>
</g>
<!-- Node24&#45;&gt;Node25 -->
<g id="edge17" class="edge"><title>Node24&#45;&gt;Node25</title>
<path fill="none" stroke="midnightblue" d="M2257.54,-118.537C2256.59,-106.17 2255.39,-90.6198 2254.66,-81.1273"/>
<polygon fill="midnightblue" stroke="midnightblue" points="2254.07,-119.032 2258.33,-128.734 2261.05,-118.495 2254.07,-119.032"/>
</g>
<!-- Node28 -->
<g id="node19" class="node"><title>Node28</title>
<g id="a_node19"><a xlink:href="ExpoConjugateGTRGeneGammaPhyloProcess_8h.html" target="_top" xlink:title="ExpoConjugateGTRGeneGamma\lPhyloProcess.h">
<polygon fill="none" stroke="black" points="873,-123.5 873,-153.5 1035,-153.5 1035,-123.5 873,-123.5"/>
<text text-anchor="start" x="881" y="-141.5" font-family="Helvetica,sans-Serif" font-size="10.00">ExpoConjugateGTRGeneGamma</text>
<text text-anchor="middle" x="954" y="-130.5" font-family="Helvetica,sans-Serif" font-size="10.00">PhyloProcess.h</text>
</a>
</g>
</g>
<!-- Node27&#45;&gt;Node28 -->
<g id="edge21" class="edge"><title>Node27&#45;&gt;Node28</title>
<path fill="none" stroke="midnightblue" d="M1803.89,-200.124C1650.41,-192.846 1342.46,-176.768 1082,-154 1066.85,-152.676 1050.72,-151.032 1035.19,-149.332"/>
<polygon fill="midnightblue" stroke="midnightblue" points="1804.06,-203.637 1814.22,-200.612 1804.39,-196.644 1804.06,-203.637"/>
</g>
<!-- Node29 -->
<g id="node20" class="node"><title>Node29</title>
<g id="a_node20"><a xlink:href="ExpoConjugateGTRPhyloProcess_8cpp.html" target="_top" xlink:title="ExpoConjugateGTRPhyloProcess.cpp">
<polygon fill="none" stroke="black" points="1790,-129 1790,-148 1974,-148 1974,-129 1790,-129"/>
<text text-anchor="middle" x="1882" y="-136" font-family="Helvetica,sans-Serif" font-size="10.00">ExpoConjugateGTRPhyloProcess.cpp</text>
</a>
</g>
</g>
<!-- Node27&#45;&gt;Node29 -->
<g id="edge22" class="edge"><title>Node27&#45;&gt;Node29</title>
<path fill="none" stroke="midnightblue" d="M1895.57,-185.915C1891.94,-173.488 1887.32,-157.717 1884.52,-148.127"/>
<polygon fill="midnightblue" stroke="midnightblue" points="1892.27,-187.117 1898.44,-195.734 1898.99,-185.153 1892.27,-187.117"/>
</g>
<!-- Node30 -->
<g id="node21" class="node"><title>Node30</title>
<g id="a_node21"><a xlink:href="RASCATGTRFiniteGammaPhyloProcess_8h.html" target="_top" xlink:title="RASCATGTRFiniteGammaPhylo\lProcess.h">
<polygon fill="none" stroke="black" points="1992,-123.5 1992,-153.5 2154,-153.5 2154,-123.5 1992,-123.5"/>
<text text-anchor="start" x="2000" y="-141.5" font-family="Helvetica,sans-Serif" font-size="10.00">RASCATGTRFiniteGammaPhylo</text>
<text text-anchor="middle" x="2073" y="-130.5" font-family="Helvetica,sans-Serif" font-size="10.00">Process.h</text>
</a>
</g>
</g>
<!-- Node27&#45;&gt;Node30 -->
<g id="edge23" class="edge"><title>Node27&#45;&gt;Node30</title>
<path fill="none" stroke="midnightblue" d="M1933.54,-192.202C1962.69,-181.188 2005.41,-165.042 2035.88,-153.528"/>
<polygon fill="midnightblue" stroke="midnightblue" points="1931.96,-189.059 1923.84,-195.869 1934.43,-195.607 1931.96,-189.059"/>
</g>
<!-- Node32 -->
<g id="node23" class="node"><title>Node32</title>
<g id="a_node23"><a xlink:href="RASCATGTRSBDPGammaPhyloProcess_8h.html" target="_top" xlink:title="RASCATGTRSBDPGammaPhyloProcess.h">
<polygon fill="none" stroke="black" points="2364,-129 2364,-148 2574,-148 2574,-129 2364,-129"/>
<text text-anchor="middle" x="2469" y="-136" font-family="Helvetica,sans-Serif" font-size="10.00">RASCATGTRSBDPGammaPhyloProcess.h</text>
</a>
</g>
</g>
<!-- Node27&#45;&gt;Node32 -->
<g id="edge26" class="edge"><title>Node27&#45;&gt;Node32</title>
<path fill="none" stroke="midnightblue" d="M1990.46,-194.911C2081.87,-185.024 2227.89,-168.979 2354,-154 2369.79,-152.125 2386.78,-150.026 2402.74,-148.021"/>
<polygon fill="midnightblue" stroke="midnightblue" points="1989.98,-191.443 1980.42,-195.997 1990.73,-198.402 1989.98,-191.443"/>
</g>
<!-- Node34 -->
<g id="node25" class="node"><title>Node34</title>
<g id="a_node25"><a xlink:href="RASCATGTRDPGammaPhyloProcess_8h.html" target="_top" xlink:title="RASCATGTRDPGammaPhyloProcess.h">
<polygon fill="none" stroke="black" points="2592.5,-129 2592.5,-148 2789.5,-148 2789.5,-129 2592.5,-129"/>
<text text-anchor="middle" x="2691" y="-136" font-family="Helvetica,sans-Serif" font-size="10.00">RASCATGTRDPGammaPhyloProcess.h</text>
</a>
</g>
</g>
<!-- Node27&#45;&gt;Node34 -->
<g id="edge29" class="edge"><title>Node27&#45;&gt;Node34</title>
<path fill="none" stroke="midnightblue" d="M1997.65,-199.161C2129.97,-191.437 2374.83,-175.662 2583,-154 2599.09,-152.326 2616.48,-150.153 2632.5,-148"/>
<polygon fill="midnightblue" stroke="midnightblue" points="1997.32,-195.674 1987.54,-199.748 1997.73,-202.662 1997.32,-195.674"/>
</g>
<!-- Node30&#45;&gt;Node16 -->
<g id="edge24" class="edge"><title>Node30&#45;&gt;Node16</title>
<path fill="none" stroke="midnightblue" d="M1981.54,-122.882C1823.9,-103.344 1778.43,-125.745 1628,-87 1622.41,-85.5594 1616.54,-83.3396 1611.29,-81.0665"/>
<polygon fill="midnightblue" stroke="midnightblue" points="1981.23,-126.371 1991.6,-124.165 1982.12,-119.427 1981.23,-126.371"/>
</g>
<!-- Node31 -->
<g id="node22" class="node"><title>Node31</title>
<g id="a_node22"><a xlink:href="RASCATGTRFiniteGammaPhyloProcess_8cpp.html" target="_top" xlink:title="RASCATGTRFiniteGammaPhylo\lProcess.cpp">
<polygon fill="none" stroke="black" points="1982,-56.5 1982,-86.5 2144,-86.5 2144,-56.5 1982,-56.5"/>
<text text-anchor="start" x="1990" y="-74.5" font-family="Helvetica,sans-Serif" font-size="10.00">RASCATGTRFiniteGammaPhylo</text>
<text text-anchor="middle" x="2063" y="-63.5" font-family="Helvetica,sans-Serif" font-size="10.00">Process.cpp</text>
</a>
</g>
</g>
<!-- Node30&#45;&gt;Node31 -->
<g id="edge25" class="edge"><title>Node30&#45;&gt;Node31</title>
<path fill="none" stroke="midnightblue" d="M2069.29,-113.403C2067.9,-104.37 2066.37,-94.4078 2065.17,-86.5765"/>
<polygon fill="midnightblue" stroke="midnightblue" points="2065.85,-114.044 2070.83,-123.396 2072.77,-112.98 2065.85,-114.044"/>
</g>
<!-- Node32&#45;&gt;Node16 -->
<g id="edge27" class="edge"><title>Node32&#45;&gt;Node16</title>
<path fill="none" stroke="midnightblue" d="M2398.48,-127.751C2383.8,-125.962 2368.41,-124.264 2354,-123 2032.17,-94.7727 1942.82,-159.496 1628,-87 1622.25,-85.6752 1616.24,-83.4299 1610.9,-81.0968"/>
<polygon fill="midnightblue" stroke="midnightblue" points="2398.16,-131.237 2408.51,-128.999 2399.02,-124.291 2398.16,-131.237"/>
</g>
<!-- Node33 -->
<g id="node24" class="node"><title>Node33</title>
<g id="a_node24"><a xlink:href="RASCATGTRSBDPGammaPhyloProcess_8cpp.html" target="_top" xlink:title="RASCATGTRSBDPGammaPhyloProcess.cpp">
<polygon fill="none" stroke="black" points="2363.5,-62 2363.5,-81 2584.5,-81 2584.5,-62 2363.5,-62"/>
<text text-anchor="middle" x="2474" y="-69" font-family="Helvetica,sans-Serif" font-size="10.00">RASCATGTRSBDPGammaPhyloProcess.cpp</text>
</a>
</g>
</g>
<!-- Node32&#45;&gt;Node33 -->
<g id="edge28" class="edge"><title>Node32&#45;&gt;Node33</title>
<path fill="none" stroke="midnightblue" d="M2470.46,-118.537C2471.41,-106.17 2472.61,-90.6198 2473.34,-81.1273"/>
<polygon fill="midnightblue" stroke="midnightblue" points="2466.95,-118.495 2469.67,-128.734 2473.93,-119.032 2466.95,-118.495"/>
</g>
<!-- Node35 -->
<g id="node26" class="node"><title>Node35</title>
<g id="a_node26"><a xlink:href="RASCATGTRDPGammaPhyloProcess_8cpp.html" target="_top" xlink:title="RASCATGTRDPGammaPhyloProcess.cpp">
<polygon fill="none" stroke="black" points="2602.5,-62 2602.5,-81 2809.5,-81 2809.5,-62 2602.5,-62"/>
<text text-anchor="middle" x="2706" y="-69" font-family="Helvetica,sans-Serif" font-size="10.00">RASCATGTRDPGammaPhyloProcess.cpp</text>
</a>
</g>
</g>
<!-- Node34&#45;&gt;Node35 -->
<g id="edge30" class="edge"><title>Node34&#45;&gt;Node35</title>
<path fill="none" stroke="midnightblue" d="M2695.29,-118.915C2698.16,-106.488 2701.8,-90.7166 2704.01,-81.1273"/>
<polygon fill="midnightblue" stroke="midnightblue" points="2691.86,-118.203 2693.02,-128.734 2698.68,-119.777 2691.86,-118.203"/>
</g>
<!-- Node37&#45;&gt;Node28 -->
<g id="edge36" class="edge"><title>Node37&#45;&gt;Node28</title>
<path fill="none" stroke="midnightblue" d="M217.677,-250.466C200.322,-233.935 179.22,-207.766 196,-190 244.143,-139.027 756.139,-159.948 826,-154 841.153,-152.71 857.287,-151.082 872.812,-149.387"/>
<polygon fill="midnightblue" stroke="midnightblue" points="215.478,-253.196 225.238,-257.318 220.179,-248.009 215.478,-253.196"/>
</g>
<!-- Node38 -->
<g id="node29" class="node"><title>Node38</title>
<g id="a_node29"><a xlink:href="AACodonMutSelGeneProfileProcess_8h.html" target="_top" xlink:title="AACodonMutSelGeneProfile\lProcess.h">
<polygon fill="none" stroke="black" points="9,-190.5 9,-220.5 149,-220.5 149,-190.5 9,-190.5"/>
<text text-anchor="start" x="17" y="-208.5" font-family="Helvetica,sans-Serif" font-size="10.00">AACodonMutSelGeneProfile</text>
<text text-anchor="middle" x="79" y="-197.5" font-family="Helvetica,sans-Serif" font-size="10.00">Process.h</text>
</a>
</g>
</g>
<!-- Node37&#45;&gt;Node38 -->
<g id="edge33" class="edge"><title>Node37&#45;&gt;Node38</title>
<path fill="none" stroke="midnightblue" d="M203.934,-253.847C178.429,-244.182 142.716,-230.647 116.002,-220.523"/>
<polygon fill="midnightblue" stroke="midnightblue" points="202.914,-257.204 213.506,-257.475 205.395,-250.658 202.914,-257.204"/>
</g>
<!-- Node40 -->
<g id="node31" class="node"><title>Node40</title>
<g id="a_node31"><a xlink:href="PoissonGeneGammaPhyloProcess_8h.html" target="_top" xlink:title="PoissonGeneGammaPhyloProcess.h">
<polygon fill="none" stroke="black" points="205.5,-196 205.5,-215 384.5,-215 384.5,-196 205.5,-196"/>
<text text-anchor="middle" x="295" y="-203" font-family="Helvetica,sans-Serif" font-size="10.00">PoissonGeneGammaPhyloProcess.h</text>
</a>
</g>
</g>
<!-- Node37&#45;&gt;Node40 -->
<g id="edge37" class="edge"><title>Node37&#45;&gt;Node40</title>
<path fill="none" stroke="midnightblue" d="M251.544,-250.325C262.753,-239.02 277.456,-224.193 286.562,-215.009"/>
<polygon fill="midnightblue" stroke="midnightblue" points="249.009,-247.91 244.453,-257.475 253.98,-252.839 249.009,-247.91"/>
</g>
<!-- Node39 -->
<g id="node30" class="node"><title>Node39</title>
<g id="a_node30"><a xlink:href="AACodonMutSelGeneSubstitutionProcess_8h.html" target="_top" xlink:title="AACodonMutSelGeneSubstitution\lProcess.h">
<polygon fill="none" stroke="black" points="0,-123.5 0,-153.5 164,-153.5 164,-123.5 0,-123.5"/>
<text text-anchor="start" x="8" y="-141.5" font-family="Helvetica,sans-Serif" font-size="10.00">AACodonMutSelGeneSubstitution</text>
<text text-anchor="middle" x="82" y="-130.5" font-family="Helvetica,sans-Serif" font-size="10.00">Process.h</text>
</a>
</g>
</g>
<!-- Node38&#45;&gt;Node39 -->
<g id="edge34" class="edge"><title>Node38&#45;&gt;Node39</title>
<path fill="none" stroke="midnightblue" d="M80.1122,-180.403C80.5291,-171.37 80.9889,-161.408 81.3503,-153.577"/>
<polygon fill="midnightblue" stroke="midnightblue" points="76.6158,-180.245 79.651,-190.396 83.6084,-180.568 76.6158,-180.245"/>
</g>
<!-- Node39&#45;&gt;Node19 -->
<g id="edge35" class="edge"><title>Node39&#45;&gt;Node19</title>
<path fill="none" stroke="midnightblue" d="M148.04,-120.99C198.994,-108.252 267.407,-91.1484 307.885,-81.0287"/>
<polygon fill="midnightblue" stroke="midnightblue" points="146.949,-117.655 138.096,-123.476 148.646,-124.446 146.949,-117.655"/>
</g>
<!-- Node42&#45;&gt;Node40 -->
<g id="edge48" class="edge"><title>Node42&#45;&gt;Node40</title>
<path fill="none" stroke="midnightblue" d="M573.595,-255.688C508.358,-244.17 403.962,-225.738 343.194,-215.009"/>
<polygon fill="midnightblue" stroke="midnightblue" points="573.26,-259.183 583.716,-257.475 574.477,-252.29 573.26,-259.183"/>
</g>
<!-- Node43 -->
<g id="node34" class="node"><title>Node43</title>
<g id="a_node34"><a xlink:href="RASCATFiniteGammaPhyloProcess_8h.html" target="_top" xlink:title="RASCATFiniteGammaPhyloProcess.h">
<polygon fill="none" stroke="black" points="909.5,-196 909.5,-215 1094.5,-215 1094.5,-196 909.5,-196"/>
<text text-anchor="middle" x="1002" y="-203" font-family="Helvetica,sans-Serif" font-size="10.00">RASCATFiniteGammaPhyloProcess.h</text>
</a>
</g>
</g>
<!-- Node42&#45;&gt;Node43 -->
<g id="edge40" class="edge"><title>Node42&#45;&gt;Node43</title>
<path fill="none" stroke="midnightblue" d="M695.242,-255.83C766.806,-244.322 882.094,-225.782 949.086,-215.009"/>
<polygon fill="midnightblue" stroke="midnightblue" points="694.329,-252.432 685.012,-257.475 695.441,-259.343 694.329,-252.432"/>
</g>
<!-- Node45 -->
<g id="node36" class="node"><title>Node45</title>
<g id="a_node36"><a xlink:href="RASCATGammaPhyloProcess_8h.html" target="_top" xlink:title="RASCATGammaPhyloProcess.h">
<polygon fill="none" stroke="black" points="551.5,-196 551.5,-215 712.5,-215 712.5,-196 551.5,-196"/>
<text text-anchor="middle" x="632" y="-203" font-family="Helvetica,sans-Serif" font-size="10.00">RASCATGammaPhyloProcess.h</text>
</a>
</g>
</g>
<!-- Node42&#45;&gt;Node45 -->
<g id="edge43" class="edge"><title>Node42&#45;&gt;Node45</title>
<path fill="none" stroke="midnightblue" d="M632,-247.317C632,-236.496 632,-223.398 632,-215.009"/>
<polygon fill="midnightblue" stroke="midnightblue" points="628.5,-247.475 632,-257.475 635.5,-247.475 628.5,-247.475"/>
</g>
<!-- Node49 -->
<g id="node40" class="node"><title>Node49</title>
<g id="a_node40"><a xlink:href="PoissonPhyloProcess_8cpp.html" target="_top" xlink:title="PoissonPhyloProcess.cpp">
<polygon fill="none" stroke="black" points="402.5,-196 402.5,-215 533.5,-215 533.5,-196 402.5,-196"/>
<text text-anchor="middle" x="468" y="-203" font-family="Helvetica,sans-Serif" font-size="10.00">PoissonPhyloProcess.cpp</text>
</a>
</g>
</g>
<!-- Node42&#45;&gt;Node49 -->
<g id="edge49" class="edge"><title>Node42&#45;&gt;Node49</title>
<path fill="none" stroke="midnightblue" d="M598.739,-253.933C566.864,-242.368 519.566,-225.208 491.454,-215.009"/>
<polygon fill="midnightblue" stroke="midnightblue" points="597.909,-257.355 608.503,-257.475 600.296,-250.774 597.909,-257.355"/>
</g>
<!-- Node43&#45;&gt;Node16 -->
<g id="edge41" class="edge"><title>Node43&#45;&gt;Node16</title>
<path fill="none" stroke="midnightblue" d="M949.664,-193.436C898.476,-180.388 832.477,-156.198 864,-123 917.245,-66.9261 1483.58,-104.045 1559,-87 1564.9,-85.6662 1571.08,-83.4183 1576.58,-81.0857"/>
<polygon fill="midnightblue" stroke="midnightblue" points="949.124,-196.907 959.671,-195.896 950.796,-190.11 949.124,-196.907"/>
</g>
<!-- Node44 -->
<g id="node35" class="node"><title>Node44</title>
<g id="a_node35"><a xlink:href="RASCATFiniteGammaPhyloProcess_8cpp.html" target="_top" xlink:title="RASCATFiniteGammaPhyloProcess.cpp">
<polygon fill="none" stroke="black" points="621,-129 621,-148 817,-148 817,-129 621,-129"/>
<text text-anchor="middle" x="719" y="-136" font-family="Helvetica,sans-Serif" font-size="10.00">RASCATFiniteGammaPhyloProcess.cpp</text>
</a>
</g>
</g>
<!-- Node43&#45;&gt;Node44 -->
<g id="edge42" class="edge"><title>Node43&#45;&gt;Node44</title>
<path fill="none" stroke="midnightblue" d="M954.735,-193.644C898.975,-180.837 807.423,-159.809 756.371,-148.083"/>
<polygon fill="midnightblue" stroke="midnightblue" points="954.182,-197.108 964.712,-195.936 955.749,-190.286 954.182,-197.108"/>
</g>
<!-- Node46 -->
<g id="node37" class="node"><title>Node46</title>
<g id="a_node37"><a xlink:href="RASCATSBDPGammaPhyloProcess_8h.html" target="_top" xlink:title="RASCATSBDPGammaPhyloProcess.h">
<polygon fill="none" stroke="black" points="413.5,-129 413.5,-148 602.5,-148 602.5,-129 413.5,-129"/>
<text text-anchor="middle" x="508" y="-136" font-family="Helvetica,sans-Serif" font-size="10.00">RASCATSBDPGammaPhyloProcess.h</text>
</a>
</g>
</g>
<!-- Node45&#45;&gt;Node46 -->
<g id="edge44" class="edge"><title>Node45&#45;&gt;Node46</title>
<path fill="none" stroke="midnightblue" d="M606.443,-191.103C581.887,-178.231 545.505,-159.16 524.534,-148.167"/>
<polygon fill="midnightblue" stroke="midnightblue" points="605.052,-194.326 615.534,-195.869 608.302,-188.126 605.052,-194.326"/>
</g>
<!-- Node48 -->
<g id="node39" class="node"><title>Node48</title>
<g id="a_node39"><a xlink:href="RASCATGammaPhyloProcess_8cpp.html" target="_top" xlink:title="RASCATGammaPhyloProcess.cpp">
<polygon fill="none" stroke="black" points="185,-129 185,-148 357,-148 357,-129 185,-129"/>
<text text-anchor="middle" x="271" y="-136" font-family="Helvetica,sans-Serif" font-size="10.00">RASCATGammaPhyloProcess.cpp</text>
</a>
</g>
</g>
<!-- Node45&#45;&gt;Node48 -->
<g id="edge47" class="edge"><title>Node45&#45;&gt;Node48</title>
<path fill="none" stroke="midnightblue" d="M574.328,-194.116C503.376,-181.341 384.254,-159.892 318.384,-148.032"/>
<polygon fill="midnightblue" stroke="midnightblue" points="573.972,-197.608 584.434,-195.936 575.213,-190.719 573.972,-197.608"/>
</g>
<!-- Node46&#45;&gt;Node16 -->
<g id="edge45" class="edge"><title>Node46&#45;&gt;Node16</title>
<path fill="none" stroke="midnightblue" d="M571.62,-127.598C584.933,-125.816 598.904,-124.159 612,-123 821.777,-104.436 1353.27,-132.008 1559,-87 1564.91,-85.7068 1571.09,-83.4704 1576.59,-81.1357"/>
<polygon fill="midnightblue" stroke="midnightblue" points="571.021,-124.147 561.592,-128.979 571.976,-131.081 571.021,-124.147"/>
</g>
<!-- Node47 -->
<g id="node38" class="node"><title>Node47</title>
<g id="a_node38"><a xlink:href="RASCATSBDPGammaPhyloProcess_8cpp.html" target="_top" xlink:title="RASCATSBDPGammaPhyloProcess.cpp">
<polygon fill="none" stroke="black" points="451,-62 451,-81 651,-81 651,-62 451,-62"/>
<text text-anchor="middle" x="551" y="-69" font-family="Helvetica,sans-Serif" font-size="10.00">RASCATSBDPGammaPhyloProcess.cpp</text>
</a>
</g>
</g>
<!-- Node46&#45;&gt;Node47 -->
<g id="edge46" class="edge"><title>Node46&#45;&gt;Node47</title>
<path fill="none" stroke="midnightblue" d="M519.554,-120.035C527.879,-107.45 538.757,-91.0072 545.293,-81.1273"/>
<polygon fill="midnightblue" stroke="midnightblue" points="516.397,-118.463 513.799,-128.734 522.236,-122.325 516.397,-118.463"/>
</g>
<!-- Node52&#45;&gt;Node14 -->
<g id="edge53" class="edge"><title>Node52&#45;&gt;Node14</title>
<path fill="none" stroke="midnightblue" d="M1232.05,-254.367C1212.86,-247.613 1192.51,-237.125 1179,-221 1162.86,-201.735 1159.85,-171.288 1159.61,-153.571"/>
<polygon fill="midnightblue" stroke="midnightblue" points="1231.05,-257.722 1241.64,-257.48 1233.21,-251.064 1231.05,-257.722"/>
</g>
<!-- Node52&#45;&gt;Node19 -->
<g id="edge54" class="edge"><title>Node52&#45;&gt;Node19</title>
<path fill="none" stroke="midnightblue" d="M1210.76,-259.646C1107.33,-250.334 927.891,-232.808 900,-221 879.929,-212.503 882.23,-198.112 862,-190 767.243,-152.002 493.621,-202.896 404,-154 373.411,-137.311 353.318,-98.4033 345.58,-81.082"/>
<polygon fill="midnightblue" stroke="midnightblue" points="1210.56,-263.142 1220.83,-260.549 1211.19,-256.17 1210.56,-263.142"/>
</g>
<!-- Node52&#45;&gt;Node20 -->
<g id="edge55" class="edge"><title>Node52&#45;&gt;Node20</title>
<path fill="none" stroke="midnightblue" d="M1357.05,-258.86C1407.77,-252.274 1469.15,-240.499 1486,-221 1503.81,-200.387 1498.28,-164.85 1494.4,-148.37"/>
<polygon fill="midnightblue" stroke="midnightblue" points="1356.55,-255.395 1347.06,-260.109 1357.42,-262.341 1356.55,-255.395"/>
</g>
<!-- Node52&#45;&gt;Node22 -->
<g id="edge56" class="edge"><title>Node52&#45;&gt;Node22</title>
<path fill="none" stroke="midnightblue" d="M1354.82,-255.788C1398.93,-248.414 1456.51,-236.936 1506,-221 1569.31,-200.612 1640.04,-164.643 1671.01,-148.174"/>
<polygon fill="midnightblue" stroke="midnightblue" points="1354.07,-252.364 1344.76,-257.436 1355.2,-259.272 1354.07,-252.364"/>
</g>
<!-- Node52&#45;&gt;Node24 -->
<g id="edge57" class="edge"><title>Node52&#45;&gt;Node24</title>
<path fill="none" stroke="midnightblue" d="M1357.56,-264.193C1519.59,-259.786 1902.95,-246.897 2030,-221 2111.04,-204.48 2202.23,-165.482 2240.51,-148.11"/>
<polygon fill="midnightblue" stroke="midnightblue" points="1357.11,-260.704 1347.21,-264.471 1357.3,-267.701 1357.11,-260.704"/>
</g>
<!-- Node52&#45;&gt;Node28 -->
<g id="edge58" class="edge"><title>Node52&#45;&gt;Node28</title>
<path fill="none" stroke="midnightblue" d="M1247.47,-254.138C1222.71,-245.737 1189.46,-233.735 1161,-221 1134.32,-209.061 1129.82,-201.619 1103,-190 1070.04,-175.722 1031.63,-162.788 1002.06,-153.584"/>
<polygon fill="midnightblue" stroke="midnightblue" points="1246.59,-257.534 1257.18,-257.398 1248.81,-250.898 1246.59,-257.534"/>
</g>
<!-- Node52&#45;&gt;Node30 -->
<g id="edge60" class="edge"><title>Node52&#45;&gt;Node30</title>
<path fill="none" stroke="midnightblue" d="M1357.19,-264.405C1527.31,-260.266 1939.27,-247.602 1996,-221 2027.2,-206.373 2052.06,-173.012 2064.44,-153.815"/>
<polygon fill="midnightblue" stroke="midnightblue" points="1356.99,-260.909 1347.07,-264.648 1357.15,-267.907 1356.99,-260.909"/>
</g>
<!-- Node52&#45;&gt;Node32 -->
<g id="edge61" class="edge"><title>Node52&#45;&gt;Node32</title>
<path fill="none" stroke="midnightblue" d="M1357.63,-265.846C1500.62,-264.68 1825.59,-257.795 2096,-221 2224.4,-203.528 2374.22,-165.211 2437.86,-148.077"/>
<polygon fill="midnightblue" stroke="midnightblue" points="1357.21,-262.349 1347.24,-265.923 1357.27,-269.349 1357.21,-262.349"/>
</g>
<!-- Node52&#45;&gt;Node34 -->
<g id="edge65" class="edge"><title>Node52&#45;&gt;Node34</title>
<path fill="none" stroke="midnightblue" d="M1357.33,-265.17C1512.13,-262.803 1883.51,-253.879 2193,-221 2363.1,-202.929 2563.42,-165.015 2648.91,-148.038"/>
<polygon fill="midnightblue" stroke="midnightblue" points="1356.95,-261.675 1347.01,-265.323 1357.06,-268.674 1356.95,-261.675"/>
</g>
<!-- Node52&#45;&gt;Node40 -->
<g id="edge64" class="edge"><title>Node52&#45;&gt;Node40</title>
<path fill="none" stroke="midnightblue" d="M1210.68,-259.461C1199.41,-258.563 1187.9,-257.708 1177,-257 828.923,-234.378 740.192,-254.57 393,-221 377.593,-219.51 360.906,-217.276 345.744,-215.005"/>
<polygon fill="midnightblue" stroke="midnightblue" points="1210.69,-262.974 1220.94,-260.295 1211.26,-255.997 1210.69,-262.974"/>
</g>
<!-- Node52&#45;&gt;Node43 -->
<g id="edge62" class="edge"><title>Node52&#45;&gt;Node43</title>
<path fill="none" stroke="midnightblue" d="M1233.77,-255.402C1179.1,-243.867 1092.76,-225.65 1042.33,-215.009"/>
<polygon fill="midnightblue" stroke="midnightblue" points="1233.09,-258.835 1243.6,-257.475 1234.53,-251.986 1233.09,-258.835"/>
</g>
<!-- Node52&#45;&gt;Node45 -->
<g id="edge63" class="edge"><title>Node52&#45;&gt;Node45</title>
<path fill="none" stroke="midnightblue" d="M1210.66,-259.781C1199.39,-258.84 1187.88,-257.887 1177,-257 974.375,-240.48 922.832,-245.366 721,-221 707.634,-219.386 693.204,-217.22 679.933,-215.056"/>
<polygon fill="midnightblue" stroke="midnightblue" points="1210.66,-263.293 1220.92,-260.64 1211.25,-256.318 1210.66,-263.293"/>
</g>
<!-- Node53 -->
<g id="node44" class="node"><title>Node53</title>
<g id="a_node44"><a xlink:href="GammaBranchProcess_8cpp.html" target="_top" xlink:title="GammaBranchProcess.cpp">
<polygon fill="none" stroke="black" points="1340.5,-196 1340.5,-215 1477.5,-215 1477.5,-196 1340.5,-196"/>
<text text-anchor="middle" x="1409" y="-203" font-family="Helvetica,sans-Serif" font-size="10.00">GammaBranchProcess.cpp</text>
</a>
</g>
</g>
<!-- Node52&#45;&gt;Node53 -->
<g id="edge59" class="edge"><title>Node52&#45;&gt;Node53</title>
<path fill="none" stroke="midnightblue" d="M1310.94,-253.174C1335.2,-241.629 1370.16,-224.987 1391.12,-215.009"/>
<polygon fill="midnightblue" stroke="midnightblue" points="1309.43,-250.017 1301.91,-257.475 1312.44,-256.337 1309.43,-250.017"/>
</g>
</g>
</svg>
