<?xml version="1.0" encoding="UTF-8" standalone="no"?>
<!DOCTYPE svg PUBLIC "-//W3C//DTD SVG 1.1//EN"
 "http://www.w3.org/Graphics/SVG/1.1/DTD/svg11.dtd">
<!-- Generated by graphviz version 2.40.1 (20161225.0304)
 -->
<!-- Title: BranchProcess.h Pages: 1 -->
<svg width="721pt" height="386pt"
 viewBox="0.00 0.00 720.50 386.00" xmlns="http://www.w3.org/2000/svg" xmlns:xlink="http://www.w3.org/1999/xlink">
<g id="graph0" class="graph" transform="scale(1 1) rotate(0) translate(4 382)">
<title>BranchProcess.h</title>
<!-- Node10 -->
<g id="node1" class="node">
<title>Node10</title>
<polygon fill="#bfbfbf" stroke="#000000" points="213,-358.5 213,-377.5 305,-377.5 305,-358.5 213,-358.5"/>
<text text-anchor="middle" x="259" y="-365.5" font-family="Helvetica,sans-Serif" font-size="10.00" fill="#000000">BranchProcess.h</text>
</g>
<!-- Node11 -->
<g id="node2" class="node">
<title>Node11</title>
<g id="a_node2"><a xlink:href="BranchProcess_8cpp.html" target="_top" xlink:title="BranchProcess.cpp">
<polygon fill="none" stroke="#000000" points="96,-302.5 96,-321.5 198,-321.5 198,-302.5 96,-302.5"/>
<text text-anchor="middle" x="147" y="-309.5" font-family="Helvetica,sans-Serif" font-size="10.00" fill="#000000">BranchProcess.cpp</text>
</a>
</g>
</g>
<!-- Node10&#45;&gt;Node11 -->
<g id="edge1" class="edge">
<title>Node10&#45;&gt;Node11</title>
<path fill="none" stroke="#191970" d="M230.6737,-353.8368C210.4279,-343.7139 183.7358,-330.3679 166.0022,-321.5011"/>
<polygon fill="#191970" stroke="#191970" points="229.237,-357.0316 239.7465,-358.3733 232.3675,-350.7706 229.237,-357.0316"/>
</g>
<!-- Node12 -->
<g id="node3" class="node">
<title>Node12</title>
<g id="a_node3"><a xlink:href="PhyloProcess_8h.html" target="_top" xlink:title="PhyloProcess.h">
<polygon fill="none" stroke="#000000" points="216,-302.5 216,-321.5 302,-321.5 302,-302.5 216,-302.5"/>
<text text-anchor="middle" x="259" y="-309.5" font-family="Helvetica,sans-Serif" font-size="10.00" fill="#000000">PhyloProcess.h</text>
</a>
</g>
</g>
<!-- Node10&#45;&gt;Node12 -->
<g id="edge2" class="edge">
<title>Node10&#45;&gt;Node12</title>
<path fill="none" stroke="#191970" d="M259,-348.1575C259,-339.155 259,-328.9199 259,-321.6427"/>
<polygon fill="#191970" stroke="#191970" points="255.5001,-348.2455 259,-358.2455 262.5001,-348.2456 255.5001,-348.2455"/>
</g>
<!-- Node25 -->
<g id="node16" class="node">
<title>Node25</title>
<g id="a_node16"><a xlink:href="GammaBranchProcess_8h.html" target="_top" xlink:title="GammaBranchProcess.h">
<polygon fill="none" stroke="#000000" points="365,-302.5 365,-321.5 491,-321.5 491,-302.5 365,-302.5"/>
<text text-anchor="middle" x="428" y="-309.5" font-family="Helvetica,sans-Serif" font-size="10.00" fill="#000000">GammaBranchProcess.h</text>
</a>
</g>
</g>
<!-- Node10&#45;&gt;Node25 -->
<g id="edge15" class="edge">
<title>Node10&#45;&gt;Node25</title>
<path fill="none" stroke="#191970" d="M297.6573,-355.1905C328.6193,-344.9309 371.3574,-330.7691 399.327,-321.5011"/>
<polygon fill="#191970" stroke="#191970" points="296.4437,-351.9054 288.0521,-358.3733 298.6455,-358.5501 296.4437,-351.9054"/>
</g>
<!-- Node13 -->
<g id="node4" class="node">
<title>Node13</title>
<g id="a_node4"><a xlink:href="MatrixPhyloProcess_8h.html" target="_top" xlink:title="MatrixPhyloProcess.h">
<polygon fill="none" stroke="#000000" points="157.5,-246.5 157.5,-265.5 270.5,-265.5 270.5,-246.5 157.5,-246.5"/>
<text text-anchor="middle" x="214" y="-253.5" font-family="Helvetica,sans-Serif" font-size="10.00" fill="#000000">MatrixPhyloProcess.h</text>
</a>
</g>
</g>
<!-- Node12&#45;&gt;Node13 -->
<g id="edge3" class="edge">
<title>Node12&#45;&gt;Node13</title>
<path fill="none" stroke="#191970" d="M244.7054,-294.2112C237.1004,-284.7472 228.0462,-273.4797 221.7486,-265.6427"/>
<polygon fill="#191970" stroke="#191970" points="242.1694,-296.6428 251.1616,-302.2455 247.6259,-292.2581 242.1694,-296.6428"/>
</g>
<!-- Node23 -->
<g id="node14" class="node">
<title>Node23</title>
<g id="a_node14"><a xlink:href="NNI_8cpp.html" target="_top" xlink:title="NNI.cpp">
<polygon fill="none" stroke="#000000" points="288.5,-246.5 288.5,-265.5 341.5,-265.5 341.5,-246.5 288.5,-246.5"/>
<text text-anchor="middle" x="315" y="-253.5" font-family="Helvetica,sans-Serif" font-size="10.00" fill="#000000">NNI.cpp</text>
</a>
</g>
</g>
<!-- Node12&#45;&gt;Node23 -->
<g id="edge13" class="edge">
<title>Node12&#45;&gt;Node23</title>
<path fill="none" stroke="#191970" d="M275.9249,-295.0751C285.5598,-285.4402 297.2804,-273.7196 305.3573,-265.6427"/>
<polygon fill="#191970" stroke="#191970" points="273.3507,-292.6996 268.7545,-302.2455 278.3004,-297.6493 273.3507,-292.6996"/>
</g>
<!-- Node24 -->
<g id="node15" class="node">
<title>Node24</title>
<g id="a_node15"><a xlink:href="PhyloProcess_8cpp.html" target="_top" xlink:title="PhyloProcess.cpp">
<polygon fill="none" stroke="#000000" points="43,-246.5 43,-265.5 139,-265.5 139,-246.5 43,-246.5"/>
<text text-anchor="middle" x="91" y="-253.5" font-family="Helvetica,sans-Serif" font-size="10.00" fill="#000000">PhyloProcess.cpp</text>
</a>
</g>
</g>
<!-- Node12&#45;&gt;Node24 -->
<g id="edge14" class="edge">
<title>Node12&#45;&gt;Node24</title>
<path fill="none" stroke="#191970" d="M220.5714,-299.1905C189.7927,-288.9309 147.3074,-274.7691 119.5034,-265.5011"/>
<polygon fill="#191970" stroke="#191970" points="219.5261,-302.5313 230.1198,-302.3733 221.7398,-295.8905 219.5261,-302.5313"/>
</g>
<!-- Node14 -->
<g id="node5" class="node">
<title>Node14</title>
<g id="a_node5"><a xlink:href="ExpoConjugateGTRPhyloProcess_8h.html" target="_top" xlink:title="ExpoConjugateGTRPhyloProcess.h">
<polygon fill="none" stroke="#000000" points="293.5,-185 293.5,-204 466.5,-204 466.5,-185 293.5,-185"/>
<text text-anchor="middle" x="380" y="-192" font-family="Helvetica,sans-Serif" font-size="10.00" fill="#000000">ExpoConjugateGTRPhyloProcess.h</text>
</a>
</g>
</g>
<!-- Node13&#45;&gt;Node14 -->
<g id="edge4" class="edge">
<title>Node13&#45;&gt;Node14</title>
<path fill="none" stroke="#191970" d="M249.6311,-242.7993C281.0834,-231.1468 326.1778,-214.4402 354.2446,-204.0419"/>
<polygon fill="#191970" stroke="#191970" points="248.0987,-239.6345 239.9375,-246.3906 250.5306,-246.1985 248.0987,-239.6345"/>
</g>
<!-- Node20 -->
<g id="node11" class="node">
<title>Node20</title>
<g id="a_node11"><a xlink:href="GeneralPathSuffStatMatrixPhyloProcess_8h.html" target="_top" xlink:title="GeneralPathSuffStatMatrix\lPhyloProcess.h">
<polygon fill="none" stroke="#000000" points="0,-179.5 0,-209.5 134,-209.5 134,-179.5 0,-179.5"/>
<text text-anchor="start" x="8" y="-197.5" font-family="Helvetica,sans-Serif" font-size="10.00" fill="#000000">GeneralPathSuffStatMatrix</text>
<text text-anchor="middle" x="67" y="-186.5" font-family="Helvetica,sans-Serif" font-size="10.00" fill="#000000">PhyloProcess.h</text>
</a>
</g>
</g>
<!-- Node13&#45;&gt;Node20 -->
<g id="edge10" class="edge">
<title>Node13&#45;&gt;Node20</title>
<path fill="none" stroke="#191970" d="M181.6038,-242.4465C158.3452,-232.7159 126.993,-219.5991 102.9602,-209.5446"/>
<polygon fill="#191970" stroke="#191970" points="180.4552,-245.7599 191.0313,-246.3906 183.1569,-239.3022 180.4552,-245.7599"/>
</g>
<!-- Node22 -->
<g id="node13" class="node">
<title>Node22</title>
<g id="a_node13"><a xlink:href="MatrixPhyloProcess_8cpp.html" target="_top" xlink:title="MatrixPhyloProcess.cpp">
<polygon fill="none" stroke="#000000" points="152.5,-185 152.5,-204 275.5,-204 275.5,-185 152.5,-185"/>
<text text-anchor="middle" x="214" y="-192" font-family="Helvetica,sans-Serif" font-size="10.00" fill="#000000">MatrixPhyloProcess.cpp</text>
</a>
</g>
</g>
<!-- Node13&#45;&gt;Node22 -->
<g id="edge12" class="edge">
<title>Node13&#45;&gt;Node22</title>
<path fill="none" stroke="#191970" d="M214,-236.2462C214,-225.5519 214,-212.814 214,-204.2449"/>
<polygon fill="#191970" stroke="#191970" points="210.5001,-236.3906 214,-246.3906 217.5001,-236.3907 210.5001,-236.3906"/>
</g>
<!-- Node15 -->
<g id="node6" class="node">
<title>Node15</title>
<g id="a_node6"><a xlink:href="ExpoConjugateGTRPhyloProcess_8cpp.html" target="_top" xlink:title="ExpoConjugateGTRPhyloProcess.cpp">
<polygon fill="none" stroke="#000000" points="218,-118 218,-137 402,-137 402,-118 218,-118"/>
<text text-anchor="middle" x="310" y="-125" font-family="Helvetica,sans-Serif" font-size="10.00" fill="#000000">ExpoConjugateGTRPhyloProcess.cpp</text>
</a>
</g>
</g>
<!-- Node14&#45;&gt;Node15 -->
<g id="edge5" class="edge">
<title>Node14&#45;&gt;Node15</title>
<path fill="none" stroke="#191970" d="M362.6986,-177.94C349.2709,-165.0879 331.1267,-147.7212 320.0107,-137.0817"/>
<polygon fill="#191970" stroke="#191970" points="360.3264,-180.5144 369.9707,-184.9005 365.1666,-175.4575 360.3264,-180.5144"/>
</g>
<!-- Node16 -->
<g id="node7" class="node">
<title>Node16</title>
<g id="a_node7"><a xlink:href="RASCATGTRSBDPGammaPhyloProcess_8h.html" target="_top" xlink:title="RASCATGTRSBDPGammaPhyloProcess.h">
<polygon fill="none" stroke="#000000" points="420,-118 420,-137 630,-137 630,-118 420,-118"/>
<text text-anchor="middle" x="525" y="-125" font-family="Helvetica,sans-Serif" font-size="10.00" fill="#000000">RASCATGTRSBDPGammaPhyloProcess.h</text>
</a>
</g>
</g>
<!-- Node14&#45;&gt;Node16 -->
<g id="edge6" class="edge">
<title>Node14&#45;&gt;Node16</title>
<path fill="none" stroke="#191970" d="M410.1423,-180.5722C438.3127,-167.5555 479.6237,-148.467 504.2636,-137.0817"/>
<polygon fill="#191970" stroke="#191970" points="408.3846,-177.5287 400.775,-184.9005 411.3208,-183.8831 408.3846,-177.5287"/>
</g>
<!-- Node17 -->
<g id="node8" class="node">
<title>Node17</title>
<g id="a_node8"><a xlink:href="Model_8h.html" target="_top" xlink:title="Model.h">
<polygon fill="none" stroke="#000000" points="422.5,-56.5 422.5,-75.5 473.5,-75.5 473.5,-56.5 422.5,-56.5"/>
<text text-anchor="middle" x="448" y="-63.5" font-family="Helvetica,sans-Serif" font-size="10.00" fill="#000000">Model.h</text>
</a>
</g>
</g>
<!-- Node16&#45;&gt;Node17 -->
<g id="edge7" class="edge">
<title>Node16&#45;&gt;Node17</title>
<path fill="none" stroke="#191970" d="M505.1542,-111.6491C490.847,-100.222 472.0076,-85.1749 459.9468,-75.5419"/>
<polygon fill="#191970" stroke="#191970" points="502.9708,-114.3846 512.9688,-117.8906 507.3394,-108.915 502.9708,-114.3846"/>
</g>
<!-- Node19 -->
<g id="node10" class="node">
<title>Node19</title>
<g id="a_node10"><a xlink:href="RASCATGTRSBDPGammaPhyloProcess_8cpp.html" target="_top" xlink:title="RASCATGTRSBDPGammaPhyloProcess.cpp">
<polygon fill="none" stroke="#000000" points="491.5,-56.5 491.5,-75.5 712.5,-75.5 712.5,-56.5 491.5,-56.5"/>
<text text-anchor="middle" x="602" y="-63.5" font-family="Helvetica,sans-Serif" font-size="10.00" fill="#000000">RASCATGTRSBDPGammaPhyloProcess.cpp</text>
</a>
</g>
</g>
<!-- Node16&#45;&gt;Node19 -->
<g id="edge9" class="edge">
<title>Node16&#45;&gt;Node19</title>
<path fill="none" stroke="#191970" d="M544.8458,-111.6491C559.153,-100.222 577.9924,-85.1749 590.0532,-75.5419"/>
<polygon fill="#191970" stroke="#191970" points="542.6606,-108.915 537.0313,-117.8906 547.0292,-114.3846 542.6606,-108.915"/>
</g>
<!-- Node18 -->
<g id="node9" class="node">
<title>Node18</title>
<g id="a_node9"><a xlink:href="PB_8cpp.html" target="_top" xlink:title="PB.cpp">
<polygon fill="none" stroke="#000000" points="423.5,-.5 423.5,-19.5 472.5,-19.5 472.5,-.5 423.5,-.5"/>
<text text-anchor="middle" x="448" y="-7.5" font-family="Helvetica,sans-Serif" font-size="10.00" fill="#000000">PB.cpp</text>
</a>
</g>
</g>
<!-- Node17&#45;&gt;Node18 -->
<g id="edge8" class="edge">
<title>Node17&#45;&gt;Node18</title>
<path fill="none" stroke="#191970" d="M448,-46.1575C448,-37.155 448,-26.9199 448,-19.6427"/>
<polygon fill="#191970" stroke="#191970" points="444.5001,-46.2455 448,-56.2455 451.5001,-46.2456 444.5001,-46.2455"/>
</g>
<!-- Node21 -->
<g id="node12" class="node">
<title>Node21</title>
<g id="a_node12"><a xlink:href="GeneralPathSuffStatMatrixPhyloProcess_8cpp.html" target="_top" xlink:title="GeneralPathSuffStatMatrix\lPhyloProcess.cpp">
<polygon fill="none" stroke="#000000" points="0,-112.5 0,-142.5 134,-142.5 134,-112.5 0,-112.5"/>
<text text-anchor="start" x="8" y="-130.5" font-family="Helvetica,sans-Serif" font-size="10.00" fill="#000000">GeneralPathSuffStatMatrix</text>
<text text-anchor="middle" x="67" y="-119.5" font-family="Helvetica,sans-Serif" font-size="10.00" fill="#000000">PhyloProcess.cpp</text>
</a>
</g>
</g>
<!-- Node20&#45;&gt;Node21 -->
<g id="edge11" class="edge">
<title>Node20&#45;&gt;Node21</title>
<path fill="none" stroke="#191970" d="M67,-169.0249C67,-160.128 67,-150.4287 67,-142.6432"/>
<polygon fill="#191970" stroke="#191970" points="63.5001,-169.2966 67,-179.2967 70.5001,-169.2967 63.5001,-169.2966"/>
</g>
<!-- Node25&#45;&gt;Node16 -->
<g id="edge17" class="edge">
<title>Node25&#45;&gt;Node16</title>
<path fill="none" stroke="#191970" d="M466.1882,-298.0488C480.9282,-290.7427 496.498,-280.2795 506,-266 533.4286,-224.7803 529.2081,-161.3057 526.3618,-137.2198"/>
<polygon fill="#191970" stroke="#191970" points="464.3249,-295.0527 456.694,-302.4025 467.2427,-301.4157 464.3249,-295.0527"/>
</g>
<!-- Node26 -->
<g id="node17" class="node">
<title>Node26</title>
<g id="a_node17"><a xlink:href="GammaBranchProcess_8cpp.html" target="_top" xlink:title="GammaBranchProcess.cpp">
<polygon fill="none" stroke="#000000" points="359.5,-246.5 359.5,-265.5 496.5,-265.5 496.5,-246.5 359.5,-246.5"/>
<text text-anchor="middle" x="428" y="-253.5" font-family="Helvetica,sans-Serif" font-size="10.00" fill="#000000">GammaBranchProcess.cpp</text>
</a>
</g>
</g>
<!-- Node25&#45;&gt;Node26 -->
<g id="edge16" class="edge">
<title>Node25&#45;&gt;Node26</title>
<path fill="none" stroke="#191970" d="M428,-292.1575C428,-283.155 428,-272.9199 428,-265.6427"/>
<polygon fill="#191970" stroke="#191970" points="424.5001,-292.2455 428,-302.2455 431.5001,-292.2456 424.5001,-292.2455"/>
</g>
</g>
</svg>
