<?xml version="1.0" encoding="UTF-8" standalone="no"?>
<!DOCTYPE svg PUBLIC "-//W3C//DTD SVG 1.1//EN"
 "http://www.w3.org/Graphics/SVG/1.1/DTD/svg11.dtd">
<!-- Generated by graphviz version 2.38.0 (20140413.2041)
 -->
<!-- Title: BranchProcess.cpp Pages: 1 -->
<svg width="708pt" height="252pt"
 viewBox="0.00 0.00 707.50 252.00" xmlns="http://www.w3.org/2000/svg" xmlns:xlink="http://www.w3.org/1999/xlink">
<g id="graph0" class="graph" transform="scale(1 1) rotate(0) translate(4 248)">
<title>BranchProcess.cpp</title>
<!-- Node0 -->
<g id="node1" class="node"><title>Node0</title>
<polygon fill="#bfbfbf" stroke="black" points="517.5,-224.5 517.5,-243.5 619.5,-243.5 619.5,-224.5 517.5,-224.5"/>
<text text-anchor="middle" x="568.5" y="-231.5" font-family="Helvetica,sans-Serif" font-size="10.00">BranchProcess.cpp</text>
</g>
<!-- Node1 -->
<g id="node2" class="node"><title>Node1</title>
<g id="a_node2"><a xlink:href="BranchProcess_8h.html" target="_top" xlink:title="BranchProcess.h">
<polygon fill="none" stroke="black" points="224.5,-168.5 224.5,-187.5 316.5,-187.5 316.5,-168.5 224.5,-168.5"/>
<text text-anchor="middle" x="270.5" y="-175.5" font-family="Helvetica,sans-Serif" font-size="10.00">BranchProcess.h</text>
</a>
</g>
</g>
<!-- Node0&#45;&gt;Node1 -->
<g id="edge1" class="edge"><title>Node0&#45;&gt;Node1</title>
<path fill="none" stroke="midnightblue" d="M521.281,-224.444C468.442,-214.869 382.891,-199.366 326.662,-189.177"/>
<polygon fill="midnightblue" stroke="midnightblue" points="326.983,-185.678 316.519,-187.339 325.735,-192.566 326.983,-185.678"/>
</g>
<!-- Node11 -->
<g id="node12" class="node"><title>Node11</title>
<g id="a_node12"><a xlink:href="Random_8h.html" target="_top" xlink:title="Random.h">
<polygon fill="none" stroke="black" points="505.5,-168.5 505.5,-187.5 567.5,-187.5 567.5,-168.5 505.5,-168.5"/>
<text text-anchor="middle" x="536.5" y="-175.5" font-family="Helvetica,sans-Serif" font-size="10.00">Random.h</text>
</a>
</g>
</g>
<!-- Node0&#45;&gt;Node11 -->
<g id="edge15" class="edge"><title>Node0&#45;&gt;Node11</title>
<path fill="none" stroke="midnightblue" d="M563.216,-224.083C558.789,-216.613 552.337,-205.724 546.882,-196.52"/>
<polygon fill="midnightblue" stroke="midnightblue" points="549.795,-194.57 541.686,-187.751 543.773,-198.138 549.795,-194.57"/>
</g>
<!-- Node13 -->
<g id="node14" class="node"><title>Node13</title>
<polygon fill="none" stroke="#bfbfbf" points="579.5,-112.5 579.5,-131.5 631.5,-131.5 631.5,-112.5 579.5,-112.5"/>
<text text-anchor="middle" x="605.5" y="-119.5" font-family="Helvetica,sans-Serif" font-size="10.00">sstream</text>
</g>
<!-- Node0&#45;&gt;Node13 -->
<g id="edge22" class="edge"><title>Node0&#45;&gt;Node13</title>
<path fill="none" stroke="midnightblue" d="M571.403,-224.368C577.401,-206.537 591.273,-165.295 599.354,-141.272"/>
<polygon fill="midnightblue" stroke="midnightblue" points="602.739,-142.185 602.61,-131.591 596.105,-139.954 602.739,-142.185"/>
</g>
<!-- Node14 -->
<g id="node15" class="node"><title>Node14</title>
<polygon fill="none" stroke="#bfbfbf" points="649.5,-112.5 649.5,-131.5 699.5,-131.5 699.5,-112.5 649.5,-112.5"/>
<text text-anchor="middle" x="674.5" y="-119.5" font-family="Helvetica,sans-Serif" font-size="10.00">iomanip</text>
</g>
<!-- Node0&#45;&gt;Node14 -->
<g id="edge23" class="edge"><title>Node0&#45;&gt;Node14</title>
<path fill="none" stroke="midnightblue" d="M576.818,-224.368C594.543,-205.974 636.271,-162.671 659.032,-139.052"/>
<polygon fill="midnightblue" stroke="midnightblue" points="661.802,-141.221 666.221,-131.591 656.762,-136.364 661.802,-141.221"/>
</g>
<!-- Node2 -->
<g id="node3" class="node"><title>Node2</title>
<g id="a_node3"><a xlink:href="Tree_8h.html" target="_top" xlink:title="Tree.h">
<polygon fill="none" stroke="black" points="119.5,-112.5 119.5,-131.5 163.5,-131.5 163.5,-112.5 119.5,-112.5"/>
<text text-anchor="middle" x="141.5" y="-119.5" font-family="Helvetica,sans-Serif" font-size="10.00">Tree.h</text>
</a>
</g>
</g>
<!-- Node1&#45;&gt;Node2 -->
<g id="edge2" class="edge"><title>Node1&#45;&gt;Node2</title>
<path fill="none" stroke="midnightblue" d="M250.06,-168.444C228.83,-159.557 195.401,-145.563 171.245,-135.451"/>
<polygon fill="midnightblue" stroke="midnightblue" points="172.421,-132.149 161.845,-131.516 169.718,-138.606 172.421,-132.149"/>
</g>
<!-- Node8 -->
<g id="node9" class="node"><title>Node8</title>
<g id="a_node9"><a xlink:href="Chrono_8h.html" target="_top" xlink:title="Chrono.h">
<polygon fill="none" stroke="black" points="242.5,-112.5 242.5,-131.5 298.5,-131.5 298.5,-112.5 242.5,-112.5"/>
<text text-anchor="middle" x="270.5" y="-119.5" font-family="Helvetica,sans-Serif" font-size="10.00">Chrono.h</text>
</a>
</g>
</g>
<!-- Node1&#45;&gt;Node8 -->
<g id="edge10" class="edge"><title>Node1&#45;&gt;Node8</title>
<path fill="none" stroke="midnightblue" d="M270.5,-168.083C270.5,-161.006 270.5,-150.861 270.5,-141.986"/>
<polygon fill="midnightblue" stroke="midnightblue" points="274,-141.751 270.5,-131.751 267,-141.751 274,-141.751"/>
</g>
<!-- Node3 -->
<g id="node4" class="node"><title>Node3</title>
<polygon fill="none" stroke="#bfbfbf" points="170,-56.5 170,-75.5 215,-75.5 215,-56.5 170,-56.5"/>
<text text-anchor="middle" x="192.5" y="-63.5" font-family="Helvetica,sans-Serif" font-size="10.00">cstdlib</text>
</g>
<!-- Node2&#45;&gt;Node3 -->
<g id="edge3" class="edge"><title>Node2&#45;&gt;Node3</title>
<path fill="none" stroke="midnightblue" d="M149.922,-112.083C157.348,-104.22 168.352,-92.5688 177.312,-83.0813"/>
<polygon fill="midnightblue" stroke="midnightblue" points="179.913,-85.4244 184.235,-75.7511 174.824,-80.618 179.913,-85.4244"/>
</g>
<!-- Node4 -->
<g id="node5" class="node"><title>Node4</title>
<polygon fill="none" stroke="#bfbfbf" points="0,-0.5 0,-19.5 41,-19.5 41,-0.5 0,-0.5"/>
<text text-anchor="middle" x="20.5" y="-7.5" font-family="Helvetica,sans-Serif" font-size="10.00">string</text>
</g>
<!-- Node2&#45;&gt;Node4 -->
<g id="edge4" class="edge"><title>Node2&#45;&gt;Node4</title>
<path fill="none" stroke="midnightblue" d="M119.155,-117.443C95.1712,-112.433 57.6721,-100.952 36.5,-76 25.5833,-63.1343 21.9028,-43.9549 20.762,-29.7614"/>
<polygon fill="midnightblue" stroke="midnightblue" points="24.2535,-29.4937 20.3018,-19.6634 17.2608,-29.8124 24.2535,-29.4937"/>
</g>
<!-- Node5 -->
<g id="node6" class="node"><title>Node5</title>
<polygon fill="none" stroke="#bfbfbf" points="165.5,-0.5 165.5,-19.5 219.5,-19.5 219.5,-0.5 165.5,-0.5"/>
<text text-anchor="middle" x="192.5" y="-7.5" font-family="Helvetica,sans-Serif" font-size="10.00">iostream</text>
</g>
<!-- Node2&#45;&gt;Node5 -->
<g id="edge5" class="edge"><title>Node2&#45;&gt;Node5</title>
<path fill="none" stroke="midnightblue" d="M143.089,-112.251C145.627,-99.4424 151.271,-75.0441 160.5,-56 165.351,-45.9902 172.378,-35.8098 178.613,-27.6697"/>
<polygon fill="midnightblue" stroke="midnightblue" points="181.434,-29.7452 184.926,-19.7423 175.958,-25.3844 181.434,-29.7452"/>
</g>
<!-- Node6 -->
<g id="node7" class="node"><title>Node6</title>
<g id="a_node7"><a xlink:href="TaxonSet_8h.html" target="_top" xlink:title="TaxonSet.h">
<polygon fill="none" stroke="black" points="46,-56.5 46,-75.5 113,-75.5 113,-56.5 46,-56.5"/>
<text text-anchor="middle" x="79.5" y="-63.5" font-family="Helvetica,sans-Serif" font-size="10.00">TaxonSet.h</text>
</a>
</g>
</g>
<!-- Node2&#45;&gt;Node6 -->
<g id="edge6" class="edge"><title>Node2&#45;&gt;Node6</title>
<path fill="none" stroke="midnightblue" d="M131.539,-112.324C122.373,-104.341 108.563,-92.3128 97.4718,-82.6529"/>
<polygon fill="midnightblue" stroke="midnightblue" points="99.4822,-79.7624 89.6426,-75.8339 94.8847,-85.041 99.4822,-79.7624"/>
</g>
<!-- Node6&#45;&gt;Node4 -->
<g id="edge8" class="edge"><title>Node6&#45;&gt;Node4</title>
<path fill="none" stroke="midnightblue" d="M70.0206,-56.324C61.2989,-48.3414 48.1565,-36.3128 37.6022,-26.6529"/>
<polygon fill="midnightblue" stroke="midnightblue" points="39.8917,-24.0036 30.1519,-19.8339 35.1655,-29.1674 39.8917,-24.0036"/>
</g>
<!-- Node6&#45;&gt;Node5 -->
<g id="edge9" class="edge"><title>Node6&#45;&gt;Node5</title>
<path fill="none" stroke="midnightblue" d="M97.4052,-56.4435C115.754,-47.6751 144.505,-33.9355 165.594,-23.8579"/>
<polygon fill="midnightblue" stroke="midnightblue" points="167.165,-26.9862 174.679,-19.5164 164.147,-20.6703 167.165,-26.9862"/>
</g>
<!-- Node7 -->
<g id="node8" class="node"><title>Node7</title>
<polygon fill="none" stroke="#bfbfbf" points="62,-0.5 62,-19.5 97,-19.5 97,-0.5 62,-0.5"/>
<text text-anchor="middle" x="79.5" y="-7.5" font-family="Helvetica,sans-Serif" font-size="10.00">map</text>
</g>
<!-- Node6&#45;&gt;Node7 -->
<g id="edge7" class="edge"><title>Node6&#45;&gt;Node7</title>
<path fill="none" stroke="midnightblue" d="M79.5,-56.083C79.5,-49.0059 79.5,-38.8611 79.5,-29.9865"/>
<polygon fill="midnightblue" stroke="midnightblue" points="83.0001,-29.751 79.5,-19.7511 76.0001,-29.7511 83.0001,-29.751"/>
</g>
<!-- Node8&#45;&gt;Node3 -->
<g id="edge14" class="edge"><title>Node8&#45;&gt;Node3</title>
<path fill="none" stroke="midnightblue" d="M257.968,-112.324C245.914,-103.979 227.473,-91.2122 213.231,-81.3524"/>
<polygon fill="midnightblue" stroke="midnightblue" points="215.215,-78.469 205.001,-75.6545 211.231,-84.2243 215.215,-78.469"/>
</g>
<!-- Node8&#45;&gt;Node5 -->
<g id="edge13" class="edge"><title>Node8&#45;&gt;Node5</title>
<path fill="none" stroke="midnightblue" d="M264.379,-112.368C251.507,-94.2153 221.432,-51.8015 204.548,-27.9902"/>
<polygon fill="midnightblue" stroke="midnightblue" points="207.231,-25.7243 198.592,-19.5914 201.521,-29.7733 207.231,-25.7243"/>
</g>
<!-- Node9 -->
<g id="node10" class="node"><title>Node9</title>
<polygon fill="none" stroke="#bfbfbf" points="272,-56.5 272,-75.5 313,-75.5 313,-56.5 272,-56.5"/>
<text text-anchor="middle" x="292.5" y="-63.5" font-family="Helvetica,sans-Serif" font-size="10.00">ctime</text>
</g>
<!-- Node8&#45;&gt;Node9 -->
<g id="edge11" class="edge"><title>Node8&#45;&gt;Node9</title>
<path fill="none" stroke="midnightblue" d="M274.133,-112.083C277.112,-104.77 281.426,-94.1814 285.125,-85.1034"/>
<polygon fill="midnightblue" stroke="midnightblue" points="288.403,-86.3326 288.935,-75.7511 281.92,-83.6914 288.403,-86.3326"/>
</g>
<!-- Node10 -->
<g id="node11" class="node"><title>Node10</title>
<polygon fill="none" stroke="#bfbfbf" points="331.5,-56.5 331.5,-75.5 393.5,-75.5 393.5,-56.5 331.5,-56.5"/>
<text text-anchor="middle" x="362.5" y="-63.5" font-family="Helvetica,sans-Serif" font-size="10.00">sys/time.h</text>
</g>
<!-- Node8&#45;&gt;Node10 -->
<g id="edge12" class="edge"><title>Node8&#45;&gt;Node10</title>
<path fill="none" stroke="midnightblue" d="M285.281,-112.324C299.767,-103.822 322.073,-90.7288 338.993,-80.7975"/>
<polygon fill="midnightblue" stroke="midnightblue" points="340.903,-83.735 347.755,-75.6545 337.359,-77.6981 340.903,-83.735"/>
</g>
<!-- Node11&#45;&gt;Node3 -->
<g id="edge17" class="edge"><title>Node11&#45;&gt;Node3</title>
<path fill="none" stroke="midnightblue" d="M505.487,-175.638C437.527,-172.145 277.994,-161.008 233.5,-132 216.609,-120.988 205.373,-100.326 199.001,-85.2441"/>
<polygon fill="midnightblue" stroke="midnightblue" points="202.246,-83.9316 195.357,-75.882 195.722,-86.4705 202.246,-83.9316"/>
</g>
<!-- Node11&#45;&gt;Node5 -->
<g id="edge18" class="edge"><title>Node11&#45;&gt;Node5</title>
<path fill="none" stroke="midnightblue" d="M505.706,-168.434C485.163,-161.424 458.687,-149.733 440.5,-132 413.461,-105.636 432.354,-79.1279 402.5,-56 375.903,-35.3952 282.443,-21.478 229.609,-15.0593"/>
<polygon fill="midnightblue" stroke="midnightblue" points="229.958,-11.5763 219.616,-13.8758 229.135,-18.5277 229.958,-11.5763"/>
</g>
<!-- Node12 -->
<g id="node13" class="node"><title>Node12</title>
<polygon fill="none" stroke="#bfbfbf" points="449.5,-112.5 449.5,-131.5 493.5,-131.5 493.5,-112.5 449.5,-112.5"/>
<text text-anchor="middle" x="471.5" y="-119.5" font-family="Helvetica,sans-Serif" font-size="10.00">cmath</text>
</g>
<!-- Node11&#45;&gt;Node12 -->
<g id="edge16" class="edge"><title>Node11&#45;&gt;Node12</title>
<path fill="none" stroke="midnightblue" d="M526.057,-168.324C516.354,-160.263 501.685,-148.077 490,-138.369"/>
<polygon fill="midnightblue" stroke="midnightblue" points="492.062,-135.532 482.133,-131.834 487.589,-140.916 492.062,-135.532"/>
</g>
<!-- Node11&#45;&gt;Node13 -->
<g id="edge19" class="edge"><title>Node11&#45;&gt;Node13</title>
<path fill="none" stroke="midnightblue" d="M547.586,-168.324C557.986,-160.185 573.761,-147.839 586.222,-138.087"/>
<polygon fill="midnightblue" stroke="midnightblue" points="588.494,-140.753 594.212,-131.834 584.18,-135.241 588.494,-140.753"/>
</g>
<!-- Node11&#45;&gt;Node14 -->
<g id="edge20" class="edge"><title>Node11&#45;&gt;Node14</title>
<path fill="none" stroke="midnightblue" d="M558.367,-168.444C581.279,-159.478 617.475,-145.314 643.366,-135.183"/>
<polygon fill="midnightblue" stroke="midnightblue" points="644.699,-138.42 652.736,-131.516 642.148,-131.901 644.699,-138.42"/>
</g>
<!-- Node15 -->
<g id="node16" class="node"><title>Node15</title>
<polygon fill="none" stroke="#bfbfbf" points="511.5,-112.5 511.5,-131.5 561.5,-131.5 561.5,-112.5 511.5,-112.5"/>
<text text-anchor="middle" x="536.5" y="-119.5" font-family="Helvetica,sans-Serif" font-size="10.00">fstream</text>
</g>
<!-- Node11&#45;&gt;Node15 -->
<g id="edge21" class="edge"><title>Node11&#45;&gt;Node15</title>
<path fill="none" stroke="midnightblue" d="M536.5,-168.083C536.5,-161.006 536.5,-150.861 536.5,-141.986"/>
<polygon fill="midnightblue" stroke="midnightblue" points="540,-141.751 536.5,-131.751 533,-141.751 540,-141.751"/>
</g>
</g>
</svg>
