<?xml version="1.0" encoding="UTF-8" standalone="no"?>
<!DOCTYPE svg PUBLIC "-//W3C//DTD SVG 1.1//EN"
 "http://www.w3.org/Graphics/SVG/1.1/DTD/svg11.dtd">
<!-- Generated by graphviz version 2.38.0 (20140413.2041)
 -->
<!-- Title: BranchSitePath.h Pages: 1 -->
<svg width="558pt" height="196pt"
 viewBox="0.00 0.00 557.50 196.00" xmlns="http://www.w3.org/2000/svg" xmlns:xlink="http://www.w3.org/1999/xlink">
<g id="graph0" class="graph" transform="scale(1 1) rotate(0) translate(4 192)">
<title>BranchSitePath.h</title>
<!-- Node0 -->
<g id="node1" class="node"><title>Node0</title>
<polygon fill="#bfbfbf" stroke="black" points="49,-168.5 49,-187.5 142,-187.5 142,-168.5 49,-168.5"/>
<text text-anchor="middle" x="95.5" y="-175.5" font-family="Helvetica,sans-Serif" font-size="10.00">BranchSitePath.h</text>
</g>
<!-- Node1 -->
<g id="node2" class="node"><title>Node1</title>
<polygon fill="none" stroke="#bfbfbf" points="63,-0.5 63,-19.5 104,-19.5 104,-0.5 63,-0.5"/>
<text text-anchor="middle" x="83.5" y="-7.5" font-family="Helvetica,sans-Serif" font-size="10.00">string</text>
</g>
<!-- Node0&#45;&gt;Node1 -->
<g id="edge1" class="edge"><title>Node0&#45;&gt;Node1</title>
<path fill="none" stroke="midnightblue" d="M94.8548,-168.075C92.9659,-141.945 87.4188,-65.2106 84.8429,-29.577"/>
<polygon fill="midnightblue" stroke="midnightblue" points="88.3314,-29.2897 84.1194,-19.5681 81.3496,-29.7945 88.3314,-29.2897"/>
</g>
<!-- Node2 -->
<g id="node3" class="node"><title>Node2</title>
<polygon fill="none" stroke="#bfbfbf" points="0,-0.5 0,-19.5 35,-19.5 35,-0.5 0,-0.5"/>
<text text-anchor="middle" x="17.5" y="-7.5" font-family="Helvetica,sans-Serif" font-size="10.00">map</text>
</g>
<!-- Node0&#45;&gt;Node2 -->
<g id="edge2" class="edge"><title>Node0&#45;&gt;Node2</title>
<path fill="none" stroke="midnightblue" d="M91.3064,-168.075C78.9222,-141.719 42.3463,-63.878 25.7984,-28.6608"/>
<polygon fill="midnightblue" stroke="midnightblue" points="28.9465,-27.1303 21.526,-19.5681 22.611,-30.1072 28.9465,-27.1303"/>
</g>
<!-- Node3 -->
<g id="node4" class="node"><title>Node3</title>
<g id="a_node4"><a xlink:href="Tree_8h.html" target="_top" xlink:title="Tree.h">
<polygon fill="none" stroke="black" points="123.5,-112.5 123.5,-131.5 167.5,-131.5 167.5,-112.5 123.5,-112.5"/>
<text text-anchor="middle" x="145.5" y="-119.5" font-family="Helvetica,sans-Serif" font-size="10.00">Tree.h</text>
</a>
</g>
</g>
<!-- Node0&#45;&gt;Node3 -->
<g id="edge3" class="edge"><title>Node0&#45;&gt;Node3</title>
<path fill="none" stroke="midnightblue" d="M103.756,-168.083C110.965,-160.298 121.61,-148.801 130.346,-139.367"/>
<polygon fill="midnightblue" stroke="midnightblue" points="133.171,-141.467 137.397,-131.751 128.035,-136.711 133.171,-141.467"/>
</g>
<!-- Node7 -->
<g id="node8" class="node"><title>Node7</title>
<g id="a_node8"><a xlink:href="SubMatrix_8h.html" target="_top" xlink:title="SubMatrix.h">
<polygon fill="none" stroke="black" points="268,-112.5 268,-131.5 337,-131.5 337,-112.5 268,-112.5"/>
<text text-anchor="middle" x="302.5" y="-119.5" font-family="Helvetica,sans-Serif" font-size="10.00">SubMatrix.h</text>
</a>
</g>
</g>
<!-- Node0&#45;&gt;Node7 -->
<g id="edge11" class="edge"><title>Node0&#45;&gt;Node7</title>
<path fill="none" stroke="midnightblue" d="M128.3,-168.444C163.88,-159.162 220.814,-144.309 259.847,-134.127"/>
<polygon fill="midnightblue" stroke="midnightblue" points="261.061,-137.427 269.854,-131.516 259.294,-130.654 261.061,-137.427"/>
</g>
<!-- Node3&#45;&gt;Node1 -->
<g id="edge5" class="edge"><title>Node3&#45;&gt;Node1</title>
<path fill="none" stroke="midnightblue" d="M134.8,-112.448C125.052,-104.116 110.928,-90.5992 102.5,-76 94.1425,-61.5222 89.2075,-43.0749 86.4714,-29.534"/>
<polygon fill="midnightblue" stroke="midnightblue" points="89.8827,-28.7284 84.6634,-19.5084 82.9938,-29.9708 89.8827,-28.7284"/>
</g>
<!-- Node4 -->
<g id="node5" class="node"><title>Node4</title>
<polygon fill="none" stroke="#bfbfbf" points="236,-0.5 236,-19.5 281,-19.5 281,-0.5 236,-0.5"/>
<text text-anchor="middle" x="258.5" y="-7.5" font-family="Helvetica,sans-Serif" font-size="10.00">cstdlib</text>
</g>
<!-- Node3&#45;&gt;Node4 -->
<g id="edge4" class="edge"><title>Node3&#45;&gt;Node4</title>
<path fill="none" stroke="midnightblue" d="M158.361,-112.46C170.779,-103.929 189.811,-90.0898 204.5,-76 220.307,-60.8379 236.043,-41.2533 246.415,-27.5614"/>
<polygon fill="midnightblue" stroke="midnightblue" points="249.237,-29.6314 252.403,-19.5205 243.623,-25.4505 249.237,-29.6314"/>
</g>
<!-- Node5 -->
<g id="node6" class="node"><title>Node5</title>
<polygon fill="none" stroke="#bfbfbf" points="163.5,-0.5 163.5,-19.5 217.5,-19.5 217.5,-0.5 163.5,-0.5"/>
<text text-anchor="middle" x="190.5" y="-7.5" font-family="Helvetica,sans-Serif" font-size="10.00">iostream</text>
</g>
<!-- Node3&#45;&gt;Node5 -->
<g id="edge6" class="edge"><title>Node3&#45;&gt;Node5</title>
<path fill="none" stroke="midnightblue" d="M157.148,-112.485C167.212,-104.371 181.114,-91.1677 187.5,-76 193.665,-61.3589 193.962,-43.1893 192.978,-29.7857"/>
<polygon fill="midnightblue" stroke="midnightblue" points="196.458,-29.4176 191.95,-19.8297 189.495,-30.1362 196.458,-29.4176"/>
</g>
<!-- Node6 -->
<g id="node7" class="node"><title>Node6</title>
<g id="a_node7"><a xlink:href="TaxonSet_8h.html" target="_top" xlink:title="TaxonSet.h">
<polygon fill="none" stroke="black" points="112,-56.5 112,-75.5 179,-75.5 179,-56.5 112,-56.5"/>
<text text-anchor="middle" x="145.5" y="-63.5" font-family="Helvetica,sans-Serif" font-size="10.00">TaxonSet.h</text>
</a>
</g>
</g>
<!-- Node3&#45;&gt;Node6 -->
<g id="edge7" class="edge"><title>Node3&#45;&gt;Node6</title>
<path fill="none" stroke="midnightblue" d="M145.5,-112.083C145.5,-105.006 145.5,-94.8611 145.5,-85.9865"/>
<polygon fill="midnightblue" stroke="midnightblue" points="149,-85.751 145.5,-75.7511 142,-85.7511 149,-85.751"/>
</g>
<!-- Node6&#45;&gt;Node1 -->
<g id="edge9" class="edge"><title>Node6&#45;&gt;Node1</title>
<path fill="none" stroke="midnightblue" d="M135.539,-56.324C126.373,-48.3414 112.563,-36.3128 101.472,-26.6529"/>
<polygon fill="midnightblue" stroke="midnightblue" points="103.482,-23.7624 93.6426,-19.8339 98.8847,-29.041 103.482,-23.7624"/>
</g>
<!-- Node6&#45;&gt;Node2 -->
<g id="edge8" class="edge"><title>Node6&#45;&gt;Node2</title>
<path fill="none" stroke="midnightblue" d="M125.218,-56.4435C103.409,-47.2429 68.6267,-32.5691 44.5119,-22.3957"/>
<polygon fill="midnightblue" stroke="midnightblue" points="45.7879,-19.1353 35.2138,-18.473 43.067,-25.5849 45.7879,-19.1353"/>
</g>
<!-- Node6&#45;&gt;Node5 -->
<g id="edge10" class="edge"><title>Node6&#45;&gt;Node5</title>
<path fill="none" stroke="midnightblue" d="M152.931,-56.083C159.353,-48.3768 168.806,-37.0333 176.622,-27.6531"/>
<polygon fill="midnightblue" stroke="midnightblue" points="179.494,-29.674 183.207,-19.7511 174.117,-25.1927 179.494,-29.674"/>
</g>
<!-- Node7&#45;&gt;Node5 -->
<g id="edge12" class="edge"><title>Node7&#45;&gt;Node5</title>
<path fill="none" stroke="midnightblue" d="M293.712,-112.368C274.901,-93.8941 230.507,-50.2926 206.53,-26.7436"/>
<polygon fill="midnightblue" stroke="midnightblue" points="208.835,-24.1015 199.248,-19.5914 203.93,-29.0956 208.835,-24.1015"/>
</g>
<!-- Node8 -->
<g id="node9" class="node"><title>Node8</title>
<polygon fill="none" stroke="#bfbfbf" points="299.5,-0.5 299.5,-19.5 343.5,-19.5 343.5,-0.5 299.5,-0.5"/>
<text text-anchor="middle" x="321.5" y="-7.5" font-family="Helvetica,sans-Serif" font-size="10.00">cmath</text>
</g>
<!-- Node7&#45;&gt;Node8 -->
<g id="edge13" class="edge"><title>Node7&#45;&gt;Node8</title>
<path fill="none" stroke="midnightblue" d="M303.991,-112.368C307.057,-94.617 314.13,-53.6664 318.288,-29.5974"/>
<polygon fill="midnightblue" stroke="midnightblue" points="321.763,-30.0413 320.016,-19.5914 314.865,-28.8498 321.763,-30.0413"/>
</g>
<!-- Node9 -->
<g id="node10" class="node"><title>Node9</title>
<g id="a_node10"><a xlink:href="Random_8h.html" target="_top" xlink:title="Random.h">
<polygon fill="none" stroke="black" points="349.5,-56.5 349.5,-75.5 411.5,-75.5 411.5,-56.5 349.5,-56.5"/>
<text text-anchor="middle" x="380.5" y="-63.5" font-family="Helvetica,sans-Serif" font-size="10.00">Random.h</text>
</a>
</g>
</g>
<!-- Node7&#45;&gt;Node9 -->
<g id="edge14" class="edge"><title>Node7&#45;&gt;Node9</title>
<path fill="none" stroke="midnightblue" d="M315.032,-112.324C327.086,-103.979 345.527,-91.2122 359.769,-81.3524"/>
<polygon fill="midnightblue" stroke="midnightblue" points="361.769,-84.2243 367.999,-75.6545 357.785,-78.469 361.769,-84.2243"/>
</g>
<!-- Node9&#45;&gt;Node4 -->
<g id="edge16" class="edge"><title>Node9&#45;&gt;Node4</title>
<path fill="none" stroke="midnightblue" d="M361.169,-56.4435C341.18,-47.5961 309.757,-33.6875 286.936,-23.5865"/>
<polygon fill="midnightblue" stroke="midnightblue" points="288.302,-20.3635 277.741,-19.5164 285.468,-26.7645 288.302,-20.3635"/>
</g>
<!-- Node9&#45;&gt;Node5 -->
<g id="edge17" class="edge"><title>Node9&#45;&gt;Node5</title>
<path fill="none" stroke="midnightblue" d="M350.394,-56.4435C317.156,-46.997 263.617,-31.7807 227.76,-21.5897"/>
<polygon fill="midnightblue" stroke="midnightblue" points="228.271,-18.0963 217.695,-18.729 226.357,-24.8296 228.271,-18.0963"/>
</g>
<!-- Node9&#45;&gt;Node8 -->
<g id="edge15" class="edge"><title>Node9&#45;&gt;Node8</title>
<path fill="none" stroke="midnightblue" d="M371.021,-56.324C362.299,-48.3414 349.157,-36.3128 338.602,-26.6529"/>
<polygon fill="midnightblue" stroke="midnightblue" points="340.892,-24.0036 331.152,-19.8339 336.166,-29.1674 340.892,-24.0036"/>
</g>
<!-- Node10 -->
<g id="node11" class="node"><title>Node10</title>
<polygon fill="none" stroke="#bfbfbf" points="361.5,-0.5 361.5,-19.5 413.5,-19.5 413.5,-0.5 361.5,-0.5"/>
<text text-anchor="middle" x="387.5" y="-7.5" font-family="Helvetica,sans-Serif" font-size="10.00">sstream</text>
</g>
<!-- Node9&#45;&gt;Node10 -->
<g id="edge18" class="edge"><title>Node9&#45;&gt;Node10</title>
<path fill="none" stroke="midnightblue" d="M381.656,-56.083C382.584,-48.9272 383.918,-38.6353 385.077,-29.6911"/>
<polygon fill="midnightblue" stroke="midnightblue" points="388.551,-30.1181 386.366,-19.7511 381.609,-29.2181 388.551,-30.1181"/>
</g>
<!-- Node11 -->
<g id="node12" class="node"><title>Node11</title>
<polygon fill="none" stroke="#bfbfbf" points="431.5,-0.5 431.5,-19.5 481.5,-19.5 481.5,-0.5 431.5,-0.5"/>
<text text-anchor="middle" x="456.5" y="-7.5" font-family="Helvetica,sans-Serif" font-size="10.00">iomanip</text>
</g>
<!-- Node9&#45;&gt;Node11 -->
<g id="edge19" class="edge"><title>Node9&#45;&gt;Node11</title>
<path fill="none" stroke="midnightblue" d="M392.711,-56.324C404.276,-48.1066 421.875,-35.6017 435.661,-25.8069"/>
<polygon fill="midnightblue" stroke="midnightblue" points="437.943,-28.4791 444.067,-19.8339 433.888,-22.7729 437.943,-28.4791"/>
</g>
<!-- Node12 -->
<g id="node13" class="node"><title>Node12</title>
<polygon fill="none" stroke="#bfbfbf" points="499.5,-0.5 499.5,-19.5 549.5,-19.5 549.5,-0.5 499.5,-0.5"/>
<text text-anchor="middle" x="524.5" y="-7.5" font-family="Helvetica,sans-Serif" font-size="10.00">fstream</text>
</g>
<!-- Node9&#45;&gt;Node12 -->
<g id="edge20" class="edge"><title>Node9&#45;&gt;Node12</title>
<path fill="none" stroke="midnightblue" d="M403.317,-56.4435C427.332,-47.4381 465.329,-33.1891 492.369,-23.049"/>
<polygon fill="midnightblue" stroke="midnightblue" points="493.655,-26.3049 501.79,-19.5164 491.197,-19.7506 493.655,-26.3049"/>
</g>
</g>
</svg>
