<?xml version="1.0" encoding="UTF-8" standalone="no"?>
<!DOCTYPE svg PUBLIC "-//W3C//DTD SVG 1.1//EN"
 "http://www.w3.org/Graphics/SVG/1.1/DTD/svg11.dtd">
<!-- Generated by graphviz version 2.38.0 (20140413.2041)
 -->
<!-- Title: BranchProcess.h Pages: 1 -->
<svg width="402pt" height="196pt"
 viewBox="0.00 0.00 401.50 196.00" xmlns="http://www.w3.org/2000/svg" xmlns:xlink="http://www.w3.org/1999/xlink">
<g id="graph0" class="graph" transform="scale(1 1) rotate(0) translate(4 192)">
<title>BranchProcess.h</title>
<!-- Node0 -->
<g id="node1" class="node"><title>Node0</title>
<polygon fill="#bfbfbf" stroke="black" points="146.5,-168.5 146.5,-187.5 238.5,-187.5 238.5,-168.5 146.5,-168.5"/>
<text text-anchor="middle" x="192.5" y="-175.5" font-family="Helvetica,sans-Serif" font-size="10.00">BranchProcess.h</text>
</g>
<!-- Node1 -->
<g id="node2" class="node"><title>Node1</title>
<g id="a_node2"><a xlink:href="Tree_8h.html" target="_top" xlink:title="Tree.h">
<polygon fill="none" stroke="black" points="119.5,-112.5 119.5,-131.5 163.5,-131.5 163.5,-112.5 119.5,-112.5"/>
<text text-anchor="middle" x="141.5" y="-119.5" font-family="Helvetica,sans-Serif" font-size="10.00">Tree.h</text>
</a>
</g>
</g>
<!-- Node0&#45;&gt;Node1 -->
<g id="edge1" class="edge"><title>Node0&#45;&gt;Node1</title>
<path fill="none" stroke="midnightblue" d="M184.078,-168.083C176.652,-160.22 165.648,-148.569 156.688,-139.081"/>
<polygon fill="midnightblue" stroke="midnightblue" points="159.176,-136.618 149.765,-131.751 154.087,-141.424 159.176,-136.618"/>
</g>
<!-- Node7 -->
<g id="node8" class="node"><title>Node7</title>
<g id="a_node8"><a xlink:href="Chrono_8h.html" target="_top" xlink:title="Chrono.h">
<polygon fill="none" stroke="black" points="215.5,-112.5 215.5,-131.5 271.5,-131.5 271.5,-112.5 215.5,-112.5"/>
<text text-anchor="middle" x="243.5" y="-119.5" font-family="Helvetica,sans-Serif" font-size="10.00">Chrono.h</text>
</a>
</g>
</g>
<!-- Node0&#45;&gt;Node7 -->
<g id="edge9" class="edge"><title>Node0&#45;&gt;Node7</title>
<path fill="none" stroke="midnightblue" d="M200.922,-168.083C208.348,-160.22 219.352,-148.569 228.312,-139.081"/>
<polygon fill="midnightblue" stroke="midnightblue" points="230.913,-141.424 235.235,-131.751 225.824,-136.618 230.913,-141.424"/>
</g>
<!-- Node2 -->
<g id="node3" class="node"><title>Node2</title>
<polygon fill="none" stroke="#bfbfbf" points="170,-56.5 170,-75.5 215,-75.5 215,-56.5 170,-56.5"/>
<text text-anchor="middle" x="192.5" y="-63.5" font-family="Helvetica,sans-Serif" font-size="10.00">cstdlib</text>
</g>
<!-- Node1&#45;&gt;Node2 -->
<g id="edge2" class="edge"><title>Node1&#45;&gt;Node2</title>
<path fill="none" stroke="midnightblue" d="M149.922,-112.083C157.348,-104.22 168.352,-92.5688 177.312,-83.0813"/>
<polygon fill="midnightblue" stroke="midnightblue" points="179.913,-85.4244 184.235,-75.7511 174.824,-80.618 179.913,-85.4244"/>
</g>
<!-- Node3 -->
<g id="node4" class="node"><title>Node3</title>
<polygon fill="none" stroke="#bfbfbf" points="0,-0.5 0,-19.5 41,-19.5 41,-0.5 0,-0.5"/>
<text text-anchor="middle" x="20.5" y="-7.5" font-family="Helvetica,sans-Serif" font-size="10.00">string</text>
</g>
<!-- Node1&#45;&gt;Node3 -->
<g id="edge3" class="edge"><title>Node1&#45;&gt;Node3</title>
<path fill="none" stroke="midnightblue" d="M119.155,-117.443C95.1712,-112.433 57.6721,-100.952 36.5,-76 25.5833,-63.1343 21.9028,-43.9549 20.762,-29.7614"/>
<polygon fill="midnightblue" stroke="midnightblue" points="24.2535,-29.4937 20.3018,-19.6634 17.2608,-29.8124 24.2535,-29.4937"/>
</g>
<!-- Node4 -->
<g id="node5" class="node"><title>Node4</title>
<polygon fill="none" stroke="#bfbfbf" points="114.5,-0.5 114.5,-19.5 168.5,-19.5 168.5,-0.5 114.5,-0.5"/>
<text text-anchor="middle" x="141.5" y="-7.5" font-family="Helvetica,sans-Serif" font-size="10.00">iostream</text>
</g>
<!-- Node1&#45;&gt;Node4 -->
<g id="edge4" class="edge"><title>Node1&#45;&gt;Node4</title>
<path fill="none" stroke="midnightblue" d="M141.5,-112.368C141.5,-94.617 141.5,-53.6664 141.5,-29.5974"/>
<polygon fill="midnightblue" stroke="midnightblue" points="145,-29.5914 141.5,-19.5914 138,-29.5915 145,-29.5914"/>
</g>
<!-- Node5 -->
<g id="node6" class="node"><title>Node5</title>
<g id="a_node6"><a xlink:href="TaxonSet_8h.html" target="_top" xlink:title="TaxonSet.h">
<polygon fill="none" stroke="black" points="46,-56.5 46,-75.5 113,-75.5 113,-56.5 46,-56.5"/>
<text text-anchor="middle" x="79.5" y="-63.5" font-family="Helvetica,sans-Serif" font-size="10.00">TaxonSet.h</text>
</a>
</g>
</g>
<!-- Node1&#45;&gt;Node5 -->
<g id="edge5" class="edge"><title>Node1&#45;&gt;Node5</title>
<path fill="none" stroke="midnightblue" d="M131.539,-112.324C122.373,-104.341 108.563,-92.3128 97.4718,-82.6529"/>
<polygon fill="midnightblue" stroke="midnightblue" points="99.4822,-79.7624 89.6426,-75.8339 94.8847,-85.041 99.4822,-79.7624"/>
</g>
<!-- Node5&#45;&gt;Node3 -->
<g id="edge7" class="edge"><title>Node5&#45;&gt;Node3</title>
<path fill="none" stroke="midnightblue" d="M70.0206,-56.324C61.2989,-48.3414 48.1565,-36.3128 37.6022,-26.6529"/>
<polygon fill="midnightblue" stroke="midnightblue" points="39.8917,-24.0036 30.1519,-19.8339 35.1655,-29.1674 39.8917,-24.0036"/>
</g>
<!-- Node5&#45;&gt;Node4 -->
<g id="edge8" class="edge"><title>Node5&#45;&gt;Node4</title>
<path fill="none" stroke="midnightblue" d="M89.4614,-56.324C98.6266,-48.3414 112.437,-36.3128 123.528,-26.6529"/>
<polygon fill="midnightblue" stroke="midnightblue" points="126.115,-29.041 131.357,-19.8339 121.518,-23.7624 126.115,-29.041"/>
</g>
<!-- Node6 -->
<g id="node7" class="node"><title>Node6</title>
<polygon fill="none" stroke="#bfbfbf" points="61,-0.5 61,-19.5 96,-19.5 96,-0.5 61,-0.5"/>
<text text-anchor="middle" x="78.5" y="-7.5" font-family="Helvetica,sans-Serif" font-size="10.00">map</text>
</g>
<!-- Node5&#45;&gt;Node6 -->
<g id="edge6" class="edge"><title>Node5&#45;&gt;Node6</title>
<path fill="none" stroke="midnightblue" d="M79.3349,-56.083C79.2038,-49.0059 79.0159,-38.8611 78.8516,-29.9865"/>
<polygon fill="midnightblue" stroke="midnightblue" points="82.3467,-29.6845 78.6621,-19.7511 75.3479,-29.8142 82.3467,-29.6845"/>
</g>
<!-- Node7&#45;&gt;Node2 -->
<g id="edge13" class="edge"><title>Node7&#45;&gt;Node2</title>
<path fill="none" stroke="midnightblue" d="M235.078,-112.083C227.652,-104.22 216.648,-92.5688 207.688,-83.0813"/>
<polygon fill="midnightblue" stroke="midnightblue" points="210.176,-80.618 200.765,-75.7511 205.087,-85.4244 210.176,-80.618"/>
</g>
<!-- Node7&#45;&gt;Node4 -->
<g id="edge12" class="edge"><title>Node7&#45;&gt;Node4</title>
<path fill="none" stroke="midnightblue" d="M243.061,-112.462C241.959,-99.0472 238.089,-72.8321 224.5,-56 212.536,-41.1806 194.334,-30.5433 178.02,-23.3446"/>
<polygon fill="midnightblue" stroke="midnightblue" points="179.274,-20.0758 168.695,-19.4979 176.605,-26.5469 179.274,-20.0758"/>
</g>
<!-- Node8 -->
<g id="node9" class="node"><title>Node8</title>
<polygon fill="none" stroke="#bfbfbf" points="272,-56.5 272,-75.5 313,-75.5 313,-56.5 272,-56.5"/>
<text text-anchor="middle" x="292.5" y="-63.5" font-family="Helvetica,sans-Serif" font-size="10.00">ctime</text>
</g>
<!-- Node7&#45;&gt;Node8 -->
<g id="edge10" class="edge"><title>Node7&#45;&gt;Node8</title>
<path fill="none" stroke="midnightblue" d="M251.591,-112.083C258.655,-104.298 269.088,-92.8015 277.649,-83.3665"/>
<polygon fill="midnightblue" stroke="midnightblue" points="280.431,-85.5087 284.559,-75.7511 275.247,-80.8047 280.431,-85.5087"/>
</g>
<!-- Node9 -->
<g id="node10" class="node"><title>Node9</title>
<polygon fill="none" stroke="#bfbfbf" points="331.5,-56.5 331.5,-75.5 393.5,-75.5 393.5,-56.5 331.5,-56.5"/>
<text text-anchor="middle" x="362.5" y="-63.5" font-family="Helvetica,sans-Serif" font-size="10.00">sys/time.h</text>
</g>
<!-- Node7&#45;&gt;Node9 -->
<g id="edge11" class="edge"><title>Node7&#45;&gt;Node9</title>
<path fill="none" stroke="midnightblue" d="M262.356,-112.444C281.766,-103.636 312.23,-89.8116 334.465,-79.722"/>
<polygon fill="midnightblue" stroke="midnightblue" points="336.072,-82.836 343.732,-75.5164 333.18,-76.4615 336.072,-82.836"/>
</g>
</g>
</svg>
