<?xml version="1.0" encoding="UTF-8" standalone="no"?>
<!DOCTYPE svg PUBLIC "-//W3C//DTD SVG 1.1//EN"
 "http://www.w3.org/Graphics/SVG/1.1/DTD/svg11.dtd">
<!-- Generated by graphviz version 2.40.1 (20161225.0304)
 -->
<!-- Title: BranchSitePath.h Pages: 1 -->
<svg width="1160pt" height="520pt"
 viewBox="0.00 0.00 1159.50 520.00" xmlns="http://www.w3.org/2000/svg" xmlns:xlink="http://www.w3.org/1999/xlink">
<g id="graph0" class="graph" transform="scale(1 1) rotate(0) translate(4 516)">
<title>BranchSitePath.h</title>
<!-- Node13 -->
<g id="node1" class="node">
<title>Node13</title>
<polygon fill="#bfbfbf" stroke="#000000" points="806,-492.5 806,-511.5 899,-511.5 899,-492.5 806,-492.5"/>
<text text-anchor="middle" x="852.5" y="-499.5" font-family="Helvetica,sans-Serif" font-size="10.00" fill="#000000">BranchSitePath.h</text>
</g>
<!-- Node14 -->
<g id="node2" class="node">
<title>Node14</title>
<g id="a_node2"><a xlink:href="SubstitutionProcess_8h.html" target="_top" xlink:title="SubstitutionProcess.h">
<polygon fill="none" stroke="#000000" points="796,-436.5 796,-455.5 909,-455.5 909,-436.5 796,-436.5"/>
<text text-anchor="middle" x="852.5" y="-443.5" font-family="Helvetica,sans-Serif" font-size="10.00" fill="#000000">SubstitutionProcess.h</text>
</a>
</g>
</g>
<!-- Node13&#45;&gt;Node14 -->
<g id="edge1" class="edge">
<title>Node13&#45;&gt;Node14</title>
<path fill="none" stroke="#191970" d="M852.5,-482.1575C852.5,-473.155 852.5,-462.9199 852.5,-455.6427"/>
<polygon fill="#191970" stroke="#191970" points="849.0001,-482.2455 852.5,-492.2455 856.0001,-482.2456 849.0001,-482.2455"/>
</g>
<!-- Node15 -->
<g id="node3" class="node">
<title>Node15</title>
<g id="a_node3"><a xlink:href="PhyloProcess_8h.html" target="_top" xlink:title="PhyloProcess.h">
<polygon fill="none" stroke="#000000" points="809.5,-380.5 809.5,-399.5 895.5,-399.5 895.5,-380.5 809.5,-380.5"/>
<text text-anchor="middle" x="852.5" y="-387.5" font-family="Helvetica,sans-Serif" font-size="10.00" fill="#000000">PhyloProcess.h</text>
</a>
</g>
</g>
<!-- Node14&#45;&gt;Node15 -->
<g id="edge2" class="edge">
<title>Node14&#45;&gt;Node15</title>
<path fill="none" stroke="#191970" d="M852.5,-426.1575C852.5,-417.155 852.5,-406.9199 852.5,-399.6427"/>
<polygon fill="#191970" stroke="#191970" points="849.0001,-426.2455 852.5,-436.2455 856.0001,-426.2456 849.0001,-426.2455"/>
</g>
<!-- Node30 -->
<g id="node18" class="node">
<title>Node30</title>
<g id="a_node18"><a xlink:href="MatrixSubstitutionProcess_8h.html" target="_top" xlink:title="MatrixSubstitutionProcess.h">
<polygon fill="none" stroke="#000000" points="616.5,-380.5 616.5,-399.5 756.5,-399.5 756.5,-380.5 616.5,-380.5"/>
<text text-anchor="middle" x="686.5" y="-387.5" font-family="Helvetica,sans-Serif" font-size="10.00" fill="#000000">MatrixSubstitutionProcess.h</text>
</a>
</g>
</g>
<!-- Node14&#45;&gt;Node30 -->
<g id="edge17" class="edge">
<title>Node14&#45;&gt;Node30</title>
<path fill="none" stroke="#191970" d="M814.1333,-433.057C783.7534,-422.8084 742.0181,-408.729 714.664,-399.5011"/>
<polygon fill="#191970" stroke="#191970" points="813.3694,-436.4931 823.9636,-436.3733 815.607,-429.8603 813.3694,-436.4931"/>
</g>
<!-- Node38 -->
<g id="node26" class="node">
<title>Node38</title>
<g id="a_node26"><a xlink:href="SubstitutionProcess_8cpp.html" target="_top" xlink:title="SubstitutionProcess.cpp">
<polygon fill="none" stroke="#000000" points="914,-380.5 914,-399.5 1037,-399.5 1037,-380.5 914,-380.5"/>
<text text-anchor="middle" x="975.5" y="-387.5" font-family="Helvetica,sans-Serif" font-size="10.00" fill="#000000">SubstitutionProcess.cpp</text>
</a>
</g>
</g>
<!-- Node14&#45;&gt;Node38 -->
<g id="edge29" class="edge">
<title>Node14&#45;&gt;Node38</title>
<path fill="none" stroke="#191970" d="M883.0065,-432.1109C905.3112,-421.9559 934.9799,-408.4482 954.6315,-399.5011"/>
<polygon fill="#191970" stroke="#191970" points="881.2953,-429.0442 873.6445,-436.3733 884.1959,-435.415 881.2953,-429.0442"/>
</g>
<!-- Node16 -->
<g id="node4" class="node">
<title>Node16</title>
<g id="a_node4"><a xlink:href="MatrixPhyloProcess_8h.html" target="_top" xlink:title="MatrixPhyloProcess.h">
<polygon fill="none" stroke="#000000" points="514,-252 514,-271 627,-271 627,-252 514,-252"/>
<text text-anchor="middle" x="570.5" y="-259" font-family="Helvetica,sans-Serif" font-size="10.00" fill="#000000">MatrixPhyloProcess.h</text>
</a>
</g>
</g>
<!-- Node15&#45;&gt;Node16 -->
<g id="edge3" class="edge">
<title>Node15&#45;&gt;Node16</title>
<path fill="none" stroke="#191970" d="M840.9901,-371.3854C829.0475,-353.6612 808.7389,-327.5881 784.5,-313 736.2069,-283.935 672.5216,-271.2662 627.2133,-265.7484"/>
<polygon fill="#191970" stroke="#191970" points="838.359,-373.7608 846.7361,-380.2473 844.2324,-369.9525 838.359,-373.7608"/>
</g>
<!-- Node28 -->
<g id="node16" class="node">
<title>Node28</title>
<g id="a_node16"><a xlink:href="NNI_8cpp.html" target="_top" xlink:title="NNI.cpp">
<polygon fill="none" stroke="#000000" points="984,-319 984,-338 1037,-338 1037,-319 984,-319"/>
<text text-anchor="middle" x="1010.5" y="-326" font-family="Helvetica,sans-Serif" font-size="10.00" fill="#000000">NNI.cpp</text>
</a>
</g>
</g>
<!-- Node15&#45;&gt;Node28 -->
<g id="edge15" class="edge">
<title>Node15&#45;&gt;Node28</title>
<path fill="none" stroke="#191970" d="M888.3765,-376.9664C912.7716,-367.9832 945.719,-355.6147 974.5,-344 979.1696,-342.1156 984.1476,-340.0254 988.8656,-338.006"/>
<polygon fill="#191970" stroke="#191970" points="886.9955,-373.7449 878.8135,-380.4758 889.4072,-380.3163 886.9955,-373.7449"/>
</g>
<!-- Node29 -->
<g id="node17" class="node">
<title>Node29</title>
<g id="a_node17"><a xlink:href="PhyloProcess_8cpp.html" target="_top" xlink:title="PhyloProcess.cpp">
<polygon fill="none" stroke="#000000" points="1055.5,-319 1055.5,-338 1151.5,-338 1151.5,-319 1055.5,-319"/>
<text text-anchor="middle" x="1103.5" y="-326" font-family="Helvetica,sans-Serif" font-size="10.00" fill="#000000">PhyloProcess.cpp</text>
</a>
</g>
</g>
<!-- Node15&#45;&gt;Node29 -->
<g id="edge16" class="edge">
<title>Node15&#45;&gt;Node29</title>
<path fill="none" stroke="#191970" d="M904.4486,-378.1681C943.5814,-369.1375 998.5139,-356.21 1046.5,-344 1053.8545,-342.1287 1061.7199,-340.044 1069.1864,-338.0258"/>
<polygon fill="#191970" stroke="#191970" points="903.5631,-374.7803 894.6034,-380.4348 905.1337,-381.6019 903.5631,-374.7803"/>
</g>
<!-- Node17 -->
<g id="node5" class="node">
<title>Node17</title>
<g id="a_node5"><a xlink:href="ExpoConjugateGTRPhyloProcess_8h.html" target="_top" xlink:title="ExpoConjugateGTRPhyloProcess.h">
<polygon fill="none" stroke="#000000" points="320,-185 320,-204 493,-204 493,-185 320,-185"/>
<text text-anchor="middle" x="406.5" y="-192" font-family="Helvetica,sans-Serif" font-size="10.00" fill="#000000">ExpoConjugateGTRPhyloProcess.h</text>
</a>
</g>
</g>
<!-- Node16&#45;&gt;Node17 -->
<g id="edge4" class="edge">
<title>Node16&#45;&gt;Node17</title>
<path fill="none" stroke="#191970" d="M537.6525,-248.0806C505.7738,-235.057 458.1873,-215.6162 429.9536,-204.0817"/>
<polygon fill="#191970" stroke="#191970" points="536.4218,-251.3586 547.0028,-251.9005 539.0692,-244.8785 536.4218,-251.3586"/>
</g>
<!-- Node25 -->
<g id="node13" class="node">
<title>Node25</title>
<g id="a_node13"><a xlink:href="GeneralPathSuffStatMatrixPhyloProcess_8h.html" target="_top" xlink:title="GeneralPathSuffStatMatrix\lPhyloProcess.h">
<polygon fill="none" stroke="#000000" points="728.5,-179.5 728.5,-209.5 862.5,-209.5 862.5,-179.5 728.5,-179.5"/>
<text text-anchor="start" x="736.5" y="-197.5" font-family="Helvetica,sans-Serif" font-size="10.00" fill="#000000">GeneralPathSuffStatMatrix</text>
<text text-anchor="middle" x="795.5" y="-186.5" font-family="Helvetica,sans-Serif" font-size="10.00" fill="#000000">PhyloProcess.h</text>
</a>
</g>
</g>
<!-- Node16&#45;&gt;Node25 -->
<g id="edge12" class="edge">
<title>Node16&#45;&gt;Node25</title>
<path fill="none" stroke="#191970" d="M612.3568,-249.036C649.9033,-237.8555 705.0831,-221.4242 745.0538,-209.5218"/>
<polygon fill="#191970" stroke="#191970" points="611.3222,-245.6921 602.737,-251.9005 613.32,-252.401 611.3222,-245.6921"/>
</g>
<!-- Node27 -->
<g id="node15" class="node">
<title>Node27</title>
<g id="a_node15"><a xlink:href="MatrixPhyloProcess_8cpp.html" target="_top" xlink:title="MatrixPhyloProcess.cpp">
<polygon fill="none" stroke="#000000" points="511,-185 511,-204 634,-204 634,-185 511,-185"/>
<text text-anchor="middle" x="572.5" y="-192" font-family="Helvetica,sans-Serif" font-size="10.00" fill="#000000">MatrixPhyloProcess.cpp</text>
</a>
</g>
</g>
<!-- Node16&#45;&gt;Node27 -->
<g id="edge14" class="edge">
<title>Node16&#45;&gt;Node27</title>
<path fill="none" stroke="#191970" d="M571.0938,-241.6079C571.4638,-229.214 571.9231,-213.8263 572.214,-204.0817"/>
<polygon fill="#191970" stroke="#191970" points="567.5866,-241.8005 570.7866,-251.9005 574.5835,-242.0094 567.5866,-241.8005"/>
</g>
<!-- Node18 -->
<g id="node6" class="node">
<title>Node18</title>
<g id="a_node6"><a xlink:href="ExpoConjugateGTRPhyloProcess_8cpp.html" target="_top" xlink:title="ExpoConjugateGTRPhyloProcess.cpp">
<polygon fill="none" stroke="#000000" points="523.5,-118 523.5,-137 707.5,-137 707.5,-118 523.5,-118"/>
<text text-anchor="middle" x="615.5" y="-125" font-family="Helvetica,sans-Serif" font-size="10.00" fill="#000000">ExpoConjugateGTRPhyloProcess.cpp</text>
</a>
</g>
</g>
<!-- Node17&#45;&gt;Node18 -->
<g id="edge5" class="edge">
<title>Node17&#45;&gt;Node18</title>
<path fill="none" stroke="#191970" d="M446.0194,-181.8311C486.6246,-168.8141 548.9323,-148.8399 585.6109,-137.0817"/>
<polygon fill="#191970" stroke="#191970" points="444.8988,-178.5148 436.4446,-184.9005 447.0357,-185.1807 444.8988,-178.5148"/>
</g>
<!-- Node19 -->
<g id="node7" class="node">
<title>Node19</title>
<g id="a_node7"><a xlink:href="RASCATGTRSBDPGammaPhyloProcess_8h.html" target="_top" xlink:title="RASCATGTRSBDPGammaPhyloProcess.h">
<polygon fill="none" stroke="#000000" points="74.5,-118 74.5,-137 284.5,-137 284.5,-118 74.5,-118"/>
<text text-anchor="middle" x="179.5" y="-125" font-family="Helvetica,sans-Serif" font-size="10.00" fill="#000000">RASCATGTRSBDPGammaPhyloProcess.h</text>
</a>
</g>
</g>
<!-- Node17&#45;&gt;Node19 -->
<g id="edge6" class="edge">
<title>Node17&#45;&gt;Node19</title>
<path fill="none" stroke="#191970" d="M364.1352,-181.9958C320.0475,-168.9832 251.9693,-148.8896 211.9632,-137.0817"/>
<polygon fill="#191970" stroke="#191970" points="363.3947,-185.4265 373.9764,-184.9005 365.3763,-178.7128 363.3947,-185.4265"/>
</g>
<!-- Node23 -->
<g id="node11" class="node">
<title>Node23</title>
<g id="a_node11"><a xlink:href="RASCATGTRDPGammaPhyloProcess_8h.html" target="_top" xlink:title="RASCATGTRDPGammaPhyloProcess.h">
<polygon fill="none" stroke="#000000" points="308,-118 308,-137 505,-137 505,-118 308,-118"/>
<text text-anchor="middle" x="406.5" y="-125" font-family="Helvetica,sans-Serif" font-size="10.00" fill="#000000">RASCATGTRDPGammaPhyloProcess.h</text>
</a>
</g>
</g>
<!-- Node17&#45;&gt;Node23 -->
<g id="edge10" class="edge">
<title>Node17&#45;&gt;Node23</title>
<path fill="none" stroke="#191970" d="M406.5,-174.6079C406.5,-162.214 406.5,-146.8263 406.5,-137.0817"/>
<polygon fill="#191970" stroke="#191970" points="403.0001,-174.9005 406.5,-184.9005 410.0001,-174.9006 403.0001,-174.9005"/>
</g>
<!-- Node20 -->
<g id="node8" class="node">
<title>Node20</title>
<g id="a_node8"><a xlink:href="Model_8h.html" target="_top" xlink:title="Model.h">
<polygon fill="none" stroke="#000000" points="0,-56.5 0,-75.5 51,-75.5 51,-56.5 0,-56.5"/>
<text text-anchor="middle" x="25.5" y="-63.5" font-family="Helvetica,sans-Serif" font-size="10.00" fill="#000000">Model.h</text>
</a>
</g>
</g>
<!-- Node19&#45;&gt;Node20 -->
<g id="edge7" class="edge">
<title>Node19&#45;&gt;Node20</title>
<path fill="none" stroke="#191970" d="M146.065,-114.1477C116.9041,-102.5023 75.3188,-85.8952 49.3935,-75.5419"/>
<polygon fill="#191970" stroke="#191970" points="144.8526,-117.4323 155.4375,-117.8906 147.4487,-110.9315 144.8526,-117.4323"/>
</g>
<!-- Node22 -->
<g id="node10" class="node">
<title>Node22</title>
<g id="a_node10"><a xlink:href="RASCATGTRSBDPGammaPhyloProcess_8cpp.html" target="_top" xlink:title="RASCATGTRSBDPGammaPhyloProcess.cpp">
<polygon fill="none" stroke="#000000" points="69,-56.5 69,-75.5 290,-75.5 290,-56.5 69,-56.5"/>
<text text-anchor="middle" x="179.5" y="-63.5" font-family="Helvetica,sans-Serif" font-size="10.00" fill="#000000">RASCATGTRSBDPGammaPhyloProcess.cpp</text>
</a>
</g>
</g>
<!-- Node19&#45;&gt;Node22 -->
<g id="edge9" class="edge">
<title>Node19&#45;&gt;Node22</title>
<path fill="none" stroke="#191970" d="M179.5,-107.7462C179.5,-97.0519 179.5,-84.314 179.5,-75.7449"/>
<polygon fill="#191970" stroke="#191970" points="176.0001,-107.8906 179.5,-117.8906 183.0001,-107.8907 176.0001,-107.8906"/>
</g>
<!-- Node21 -->
<g id="node9" class="node">
<title>Node21</title>
<g id="a_node9"><a xlink:href="PB_8cpp.html" target="_top" xlink:title="PB.cpp">
<polygon fill="none" stroke="#000000" points="1,-.5 1,-19.5 50,-19.5 50,-.5 1,-.5"/>
<text text-anchor="middle" x="25.5" y="-7.5" font-family="Helvetica,sans-Serif" font-size="10.00" fill="#000000">PB.cpp</text>
</a>
</g>
</g>
<!-- Node20&#45;&gt;Node21 -->
<g id="edge8" class="edge">
<title>Node20&#45;&gt;Node21</title>
<path fill="none" stroke="#191970" d="M25.5,-46.1575C25.5,-37.155 25.5,-26.9199 25.5,-19.6427"/>
<polygon fill="#191970" stroke="#191970" points="22.0001,-46.2455 25.5,-56.2455 29.0001,-46.2456 22.0001,-46.2455"/>
</g>
<!-- Node24 -->
<g id="node12" class="node">
<title>Node24</title>
<g id="a_node12"><a xlink:href="RASCATGTRDPGammaPhyloProcess_8cpp.html" target="_top" xlink:title="RASCATGTRDPGammaPhyloProcess.cpp">
<polygon fill="none" stroke="#000000" points="308,-56.5 308,-75.5 515,-75.5 515,-56.5 308,-56.5"/>
<text text-anchor="middle" x="411.5" y="-63.5" font-family="Helvetica,sans-Serif" font-size="10.00" fill="#000000">RASCATGTRDPGammaPhyloProcess.cpp</text>
</a>
</g>
</g>
<!-- Node23&#45;&gt;Node24 -->
<g id="edge11" class="edge">
<title>Node23&#45;&gt;Node24</title>
<path fill="none" stroke="#191970" d="M408.106,-107.7462C408.9755,-97.0519 410.0111,-84.314 410.7077,-75.7449"/>
<polygon fill="#191970" stroke="#191970" points="404.6032,-107.6399 407.2813,-117.8906 411.5802,-108.2072 404.6032,-107.6399"/>
</g>
<!-- Node26 -->
<g id="node14" class="node">
<title>Node26</title>
<g id="a_node14"><a xlink:href="GeneralPathSuffStatMatrixPhyloProcess_8cpp.html" target="_top" xlink:title="GeneralPathSuffStatMatrix\lPhyloProcess.cpp">
<polygon fill="none" stroke="#000000" points="728.5,-112.5 728.5,-142.5 862.5,-142.5 862.5,-112.5 728.5,-112.5"/>
<text text-anchor="start" x="736.5" y="-130.5" font-family="Helvetica,sans-Serif" font-size="10.00" fill="#000000">GeneralPathSuffStatMatrix</text>
<text text-anchor="middle" x="795.5" y="-119.5" font-family="Helvetica,sans-Serif" font-size="10.00" fill="#000000">PhyloProcess.cpp</text>
</a>
</g>
</g>
<!-- Node25&#45;&gt;Node26 -->
<g id="edge13" class="edge">
<title>Node25&#45;&gt;Node26</title>
<path fill="none" stroke="#191970" d="M795.5,-169.0249C795.5,-160.128 795.5,-150.4287 795.5,-142.6432"/>
<polygon fill="#191970" stroke="#191970" points="792.0001,-169.2966 795.5,-179.2967 799.0001,-169.2967 792.0001,-169.2966"/>
</g>
<!-- Node30&#45;&gt;Node16 -->
<g id="edge18" class="edge">
<title>Node30&#45;&gt;Node16</title>
<path fill="none" stroke="#191970" d="M611.4336,-378.5651C572.3322,-370.9117 530.2528,-359.4034 518.5,-344 499.3978,-318.9643 535.5039,-286.7574 556.6777,-271.0162"/>
<polygon fill="#191970" stroke="#191970" points="610.8142,-382.0099 621.2903,-380.4278 612.1141,-375.1316 610.8142,-382.0099"/>
</g>
<!-- Node31 -->
<g id="node19" class="node">
<title>Node31</title>
<g id="a_node19"><a xlink:href="GTRSubstitutionProcess_8h.html" target="_top" xlink:title="GTRSubstitutionProcess.h">
<polygon fill="none" stroke="#000000" points="337.5,-319 337.5,-338 471.5,-338 471.5,-319 337.5,-319"/>
<text text-anchor="middle" x="404.5" y="-326" font-family="Helvetica,sans-Serif" font-size="10.00" fill="#000000">GTRSubstitutionProcess.h</text>
</a>
</g>
</g>
<!-- Node30&#45;&gt;Node31 -->
<g id="edge19" class="edge">
<title>Node30&#45;&gt;Node31</title>
<path fill="none" stroke="#191970" d="M632.7606,-378.2802C579.2484,-366.61 498.1043,-348.9137 448.3557,-338.0643"/>
<polygon fill="#191970" stroke="#191970" points="632.2308,-381.7469 642.7469,-380.4581 633.7223,-374.9076 632.2308,-381.7469"/>
</g>
<!-- Node34 -->
<g id="node22" class="node">
<title>Node34</title>
<g id="a_node22"><a xlink:href="GeneralPathSuffStatMatrixSubstitutionProcess_8h.html" target="_top" xlink:title="GeneralPathSuffStatMatrix\lSubstitutionProcess.h">
<polygon fill="none" stroke="#000000" points="831.5,-313.5 831.5,-343.5 965.5,-343.5 965.5,-313.5 831.5,-313.5"/>
<text text-anchor="start" x="839.5" y="-331.5" font-family="Helvetica,sans-Serif" font-size="10.00" fill="#000000">GeneralPathSuffStatMatrix</text>
<text text-anchor="middle" x="898.5" y="-320.5" font-family="Helvetica,sans-Serif" font-size="10.00" fill="#000000">SubstitutionProcess.h</text>
</a>
</g>
</g>
<!-- Node30&#45;&gt;Node34 -->
<g id="edge24" class="edge">
<title>Node30&#45;&gt;Node34</title>
<path fill="none" stroke="#191970" d="M729.2359,-377.6025C763.1136,-367.7748 810.587,-354.0031 846.639,-343.5446"/>
<polygon fill="#191970" stroke="#191970" points="728.2539,-374.2431 719.625,-380.3906 730.2042,-380.9659 728.2539,-374.2431"/>
</g>
<!-- Node36 -->
<g id="node24" class="node">
<title>Node36</title>
<g id="a_node24"><a xlink:href="MatrixSubstitutionProcess_8cpp.html" target="_top" xlink:title="MatrixSubstitutionProcess.cpp">
<polygon fill="none" stroke="#000000" points="527.5,-319 527.5,-338 677.5,-338 677.5,-319 527.5,-319"/>
<text text-anchor="middle" x="602.5" y="-326" font-family="Helvetica,sans-Serif" font-size="10.00" fill="#000000">MatrixSubstitutionProcess.cpp</text>
</a>
</g>
</g>
<!-- Node30&#45;&gt;Node36 -->
<g id="edge27" class="edge">
<title>Node30&#45;&gt;Node36</title>
<path fill="none" stroke="#191970" d="M665.2863,-374.4685C649.627,-363.0037 628.8131,-347.765 615.5328,-338.0419"/>
<polygon fill="#191970" stroke="#191970" points="663.2388,-377.3072 673.375,-380.3906 667.374,-371.6592 663.2388,-377.3072"/>
</g>
<!-- Node37 -->
<g id="node25" class="node">
<title>Node37</title>
<g id="a_node25"><a xlink:href="Propagate_8cpp.html" target="_top" xlink:title="Propagate.cpp">
<polygon fill="none" stroke="#000000" points="695.5,-319 695.5,-338 775.5,-338 775.5,-319 695.5,-319"/>
<text text-anchor="middle" x="735.5" y="-326" font-family="Helvetica,sans-Serif" font-size="10.00" fill="#000000">Propagate.cpp</text>
</a>
</g>
</g>
<!-- Node30&#45;&gt;Node37 -->
<g id="edge28" class="edge">
<title>Node30&#45;&gt;Node37</title>
<path fill="none" stroke="#191970" d="M700.6451,-372.2465C709.4642,-361.1775 720.4771,-347.3552 727.7358,-338.2449"/>
<polygon fill="#191970" stroke="#191970" points="697.6503,-370.3885 694.1563,-380.3906 703.1251,-374.7505 697.6503,-370.3885"/>
</g>
<!-- Node31&#45;&gt;Node16 -->
<g id="edge20" class="edge">
<title>Node31&#45;&gt;Node16</title>
<path fill="none" stroke="#191970" d="M437.7481,-315.0806C470.0155,-302.057 518.1824,-282.6162 546.7604,-271.0817"/>
<polygon fill="#191970" stroke="#191970" points="436.2469,-311.9121 428.2838,-318.9005 438.8669,-318.4033 436.2469,-311.9121"/>
</g>
<!-- Node32 -->
<g id="node20" class="node">
<title>Node32</title>
<g id="a_node20"><a xlink:href="ExpoConjugateGTRSubstitutionProcess_8h.html" target="_top" xlink:title="ExpoConjugateGTRSubstitution\lProcess.h">
<polygon fill="none" stroke="#000000" points="326.5,-246.5 326.5,-276.5 482.5,-276.5 482.5,-246.5 326.5,-246.5"/>
<text text-anchor="start" x="334.5" y="-264.5" font-family="Helvetica,sans-Serif" font-size="10.00" fill="#000000">ExpoConjugateGTRSubstitution</text>
<text text-anchor="middle" x="404.5" y="-253.5" font-family="Helvetica,sans-Serif" font-size="10.00" fill="#000000">Process.h</text>
</a>
</g>
</g>
<!-- Node31&#45;&gt;Node32 -->
<g id="edge21" class="edge">
<title>Node31&#45;&gt;Node32</title>
<path fill="none" stroke="#191970" d="M404.5,-308.7758C404.5,-298.4641 404.5,-286.0437 404.5,-276.5218"/>
<polygon fill="#191970" stroke="#191970" points="401.0001,-308.9005 404.5,-318.9005 408.0001,-308.9006 401.0001,-308.9005"/>
</g>
<!-- Node32&#45;&gt;Node17 -->
<g id="edge22" class="edge">
<title>Node32&#45;&gt;Node17</title>
<path fill="none" stroke="#191970" d="M405.2576,-236.1199C405.5923,-224.9072 405.9656,-212.4031 406.2148,-204.055"/>
<polygon fill="#191970" stroke="#191970" points="401.7539,-236.1967 404.9538,-246.2967 408.7507,-236.4056 401.7539,-236.1967"/>
</g>
<!-- Node33 -->
<g id="node21" class="node">
<title>Node33</title>
<g id="a_node21"><a xlink:href="ExpoConjugateGTRSubstitutionProcess_8cpp.html" target="_top" xlink:title="ExpoConjugateGTRSubstitution\lProcess.cpp">
<polygon fill="none" stroke="#000000" points="145.5,-179.5 145.5,-209.5 301.5,-209.5 301.5,-179.5 145.5,-179.5"/>
<text text-anchor="start" x="153.5" y="-197.5" font-family="Helvetica,sans-Serif" font-size="10.00" fill="#000000">ExpoConjugateGTRSubstitution</text>
<text text-anchor="middle" x="223.5" y="-186.5" font-family="Helvetica,sans-Serif" font-size="10.00" fill="#000000">Process.cpp</text>
</a>
</g>
</g>
<!-- Node32&#45;&gt;Node33 -->
<g id="edge23" class="edge">
<title>Node32&#45;&gt;Node33</title>
<path fill="none" stroke="#191970" d="M354.1577,-242.865C325.8253,-232.3773 290.9062,-219.4515 264.2971,-209.6017"/>
<polygon fill="#191970" stroke="#191970" points="353.2869,-246.2747 363.8801,-246.4639 355.717,-239.71 353.2869,-246.2747"/>
</g>
<!-- Node34&#45;&gt;Node25 -->
<g id="edge25" class="edge">
<title>Node34&#45;&gt;Node25</title>
<path fill="none" stroke="#191970" d="M858.2505,-308.1965C845.3258,-300.0121 831.93,-289.5143 822.5,-277 807.1725,-256.6594 800.3153,-227.2207 797.4248,-209.5608"/>
<polygon fill="#191970" stroke="#191970" points="856.6933,-311.3439 867.0687,-313.4895 860.2959,-305.3421 856.6933,-311.3439"/>
</g>
<!-- Node35 -->
<g id="node23" class="node">
<title>Node35</title>
<g id="a_node23"><a xlink:href="GeneralPathSuffStatMatrixSubstitutionProcess_8cpp.html" target="_top" xlink:title="GeneralPathSuffStatMatrix\lSubstitutionProcess.cpp">
<polygon fill="none" stroke="#000000" points="831.5,-246.5 831.5,-276.5 965.5,-276.5 965.5,-246.5 831.5,-246.5"/>
<text text-anchor="start" x="839.5" y="-264.5" font-family="Helvetica,sans-Serif" font-size="10.00" fill="#000000">GeneralPathSuffStatMatrix</text>
<text text-anchor="middle" x="898.5" y="-253.5" font-family="Helvetica,sans-Serif" font-size="10.00" fill="#000000">SubstitutionProcess.cpp</text>
</a>
</g>
</g>
<!-- Node34&#45;&gt;Node35 -->
<g id="edge26" class="edge">
<title>Node34&#45;&gt;Node35</title>
<path fill="none" stroke="#191970" d="M898.5,-303.0249C898.5,-294.128 898.5,-284.4287 898.5,-276.6432"/>
<polygon fill="#191970" stroke="#191970" points="895.0001,-303.2966 898.5,-313.2967 902.0001,-303.2967 895.0001,-303.2966"/>
</g>
</g>
</svg>
