<?xml version="1.0" encoding="UTF-8" standalone="no"?>
<!DOCTYPE svg PUBLIC "-//W3C//DTD SVG 1.1//EN"
 "http://www.w3.org/Graphics/SVG/1.1/DTD/svg11.dtd">
<!-- Generated by graphviz version 2.38.0 (20140413.2041)
 -->
<!-- Title: Chronogram.h Pages: 1 -->
<svg width="382pt" height="196pt"
 viewBox="0.00 0.00 382.00 196.00" xmlns="http://www.w3.org/2000/svg" xmlns:xlink="http://www.w3.org/1999/xlink">
<g id="graph0" class="graph" transform="scale(1 1) rotate(0) translate(4 192)">
<title>Chronogram.h</title>
<!-- Node0 -->
<g id="node1" class="node"><title>Node0</title>
<polygon fill="#bfbfbf" stroke="black" points="129.5,-168.5 129.5,-187.5 207.5,-187.5 207.5,-168.5 129.5,-168.5"/>
<text text-anchor="middle" x="168.5" y="-175.5" font-family="Helvetica,sans-Serif" font-size="10.00">Chronogram.h</text>
</g>
<!-- Node1 -->
<g id="node2" class="node"><title>Node1</title>
<polygon fill="none" stroke="#bfbfbf" points="5,-112.5 5,-131.5 64,-131.5 64,-112.5 5,-112.5"/>
<text text-anchor="middle" x="34.5" y="-119.5" font-family="Helvetica,sans-Serif" font-size="10.00">ValTree.h</text>
</g>
<!-- Node0&#45;&gt;Node1 -->
<g id="edge1" class="edge"><title>Node0&#45;&gt;Node1</title>
<path fill="none" stroke="midnightblue" d="M147.267,-168.444C125.116,-159.517 90.1813,-145.439 65.064,-135.317"/>
<polygon fill="midnightblue" stroke="midnightblue" points="66.2168,-132.008 55.6334,-131.516 63.6003,-138.501 66.2168,-132.008"/>
</g>
<!-- Node2 -->
<g id="node3" class="node"><title>Node2</title>
<g id="a_node3"><a xlink:href="Tree_8h.html" target="_top" xlink:title="Tree.h">
<polygon fill="none" stroke="black" points="82.5,-112.5 82.5,-131.5 126.5,-131.5 126.5,-112.5 82.5,-112.5"/>
<text text-anchor="middle" x="104.5" y="-119.5" font-family="Helvetica,sans-Serif" font-size="10.00">Tree.h</text>
</a>
</g>
</g>
<!-- Node0&#45;&gt;Node2 -->
<g id="edge2" class="edge"><title>Node0&#45;&gt;Node2</title>
<path fill="none" stroke="midnightblue" d="M158.217,-168.324C148.664,-160.263 134.22,-148.077 122.716,-138.369"/>
<polygon fill="midnightblue" stroke="midnightblue" points="124.87,-135.608 114.97,-131.834 120.356,-140.958 124.87,-135.608"/>
</g>
<!-- Node8 -->
<g id="node9" class="node"><title>Node8</title>
<polygon fill="none" stroke="#bfbfbf" points="145,-112.5 145,-131.5 192,-131.5 192,-112.5 145,-112.5"/>
<text text-anchor="middle" x="168.5" y="-119.5" font-family="Helvetica,sans-Serif" font-size="10.00">math.h</text>
</g>
<!-- Node0&#45;&gt;Node8 -->
<g id="edge10" class="edge"><title>Node0&#45;&gt;Node8</title>
<path fill="none" stroke="midnightblue" d="M168.5,-168.083C168.5,-161.006 168.5,-150.861 168.5,-141.986"/>
<polygon fill="midnightblue" stroke="midnightblue" points="172,-141.751 168.5,-131.751 165,-141.751 172,-141.751"/>
</g>
<!-- Node9 -->
<g id="node10" class="node"><title>Node9</title>
<polygon fill="none" stroke="#bfbfbf" points="210.5,-112.5 210.5,-131.5 266.5,-131.5 266.5,-112.5 210.5,-112.5"/>
<text text-anchor="middle" x="238.5" y="-119.5" font-family="Helvetica,sans-Serif" font-size="10.00">algorithm</text>
</g>
<!-- Node0&#45;&gt;Node9 -->
<g id="edge11" class="edge"><title>Node0&#45;&gt;Node9</title>
<path fill="none" stroke="midnightblue" d="M179.747,-168.324C190.297,-160.185 206.301,-147.839 218.942,-138.087"/>
<polygon fill="midnightblue" stroke="midnightblue" points="221.269,-140.713 227.049,-131.834 216.993,-135.171 221.269,-140.713"/>
</g>
<!-- Node10 -->
<g id="node11" class="node"><title>Node10</title>
<polygon fill="none" stroke="#bfbfbf" points="285,-112.5 285,-131.5 374,-131.5 374,-112.5 285,-112.5"/>
<text text-anchor="middle" x="329.5" y="-119.5" font-family="Helvetica,sans-Serif" font-size="10.00">RandomTypes.h</text>
</g>
<!-- Node0&#45;&gt;Node10 -->
<g id="edge12" class="edge"><title>Node0&#45;&gt;Node10</title>
<path fill="none" stroke="midnightblue" d="M194.011,-168.444C221.096,-159.359 264.09,-144.939 294.369,-134.783"/>
<polygon fill="midnightblue" stroke="midnightblue" points="295.74,-138.015 304.108,-131.516 293.514,-131.378 295.74,-138.015"/>
</g>
<!-- Node3 -->
<g id="node4" class="node"><title>Node3</title>
<polygon fill="none" stroke="#bfbfbf" points="0,-56.5 0,-75.5 45,-75.5 45,-56.5 0,-56.5"/>
<text text-anchor="middle" x="22.5" y="-63.5" font-family="Helvetica,sans-Serif" font-size="10.00">cstdlib</text>
</g>
<!-- Node2&#45;&gt;Node3 -->
<g id="edge3" class="edge"><title>Node2&#45;&gt;Node3</title>
<path fill="none" stroke="midnightblue" d="M91.3253,-112.324C78.6532,-103.979 59.2666,-91.2122 44.2944,-81.3524"/>
<polygon fill="midnightblue" stroke="midnightblue" points="45.9187,-78.2313 35.642,-75.6545 42.0688,-84.0776 45.9187,-78.2313"/>
</g>
<!-- Node4 -->
<g id="node5" class="node"><title>Node4</title>
<polygon fill="none" stroke="#bfbfbf" points="55,-0.5 55,-19.5 96,-19.5 96,-0.5 55,-0.5"/>
<text text-anchor="middle" x="75.5" y="-7.5" font-family="Helvetica,sans-Serif" font-size="10.00">string</text>
</g>
<!-- Node2&#45;&gt;Node4 -->
<g id="edge4" class="edge"><title>Node2&#45;&gt;Node4</title>
<path fill="none" stroke="midnightblue" d="M102.187,-112.376C99.7617,-103.321 95.8447,-88.6643 92.5,-76 88.3995,-60.4739 83.7928,-42.8485 80.4103,-29.8721"/>
<polygon fill="midnightblue" stroke="midnightblue" points="83.7036,-28.63 77.7963,-19.8349 76.9296,-30.3942 83.7036,-28.63"/>
</g>
<!-- Node5 -->
<g id="node6" class="node"><title>Node5</title>
<polygon fill="none" stroke="#bfbfbf" points="170.5,-0.5 170.5,-19.5 224.5,-19.5 224.5,-0.5 170.5,-0.5"/>
<text text-anchor="middle" x="197.5" y="-7.5" font-family="Helvetica,sans-Serif" font-size="10.00">iostream</text>
</g>
<!-- Node2&#45;&gt;Node5 -->
<g id="edge5" class="edge"><title>Node2&#45;&gt;Node5</title>
<path fill="none" stroke="midnightblue" d="M126.687,-112.712C143.251,-105.438 165.229,-93.2982 178.5,-76 188.777,-62.6041 193.503,-43.7827 195.672,-29.8385"/>
<polygon fill="midnightblue" stroke="midnightblue" points="199.147,-30.2562 196.92,-19.8981 192.201,-29.3841 199.147,-30.2562"/>
</g>
<!-- Node6 -->
<g id="node7" class="node"><title>Node6</title>
<g id="a_node7"><a xlink:href="TaxonSet_8h.html" target="_top" xlink:title="TaxonSet.h">
<polygon fill="none" stroke="black" points="102,-56.5 102,-75.5 169,-75.5 169,-56.5 102,-56.5"/>
<text text-anchor="middle" x="135.5" y="-63.5" font-family="Helvetica,sans-Serif" font-size="10.00">TaxonSet.h</text>
</a>
</g>
</g>
<!-- Node2&#45;&gt;Node6 -->
<g id="edge6" class="edge"><title>Node2&#45;&gt;Node6</title>
<path fill="none" stroke="midnightblue" d="M109.619,-112.083C113.908,-104.613 120.158,-93.7244 125.442,-84.5199"/>
<polygon fill="midnightblue" stroke="midnightblue" points="128.533,-86.1662 130.476,-75.7511 122.462,-82.6811 128.533,-86.1662"/>
</g>
<!-- Node6&#45;&gt;Node4 -->
<g id="edge8" class="edge"><title>Node6&#45;&gt;Node4</title>
<path fill="none" stroke="midnightblue" d="M125.86,-56.324C116.99,-48.3414 103.625,-36.3128 92.8921,-26.6529"/>
<polygon fill="midnightblue" stroke="midnightblue" points="95.0898,-23.922 85.3154,-19.8339 90.407,-29.1251 95.0898,-23.922"/>
</g>
<!-- Node6&#45;&gt;Node5 -->
<g id="edge9" class="edge"><title>Node6&#45;&gt;Node5</title>
<path fill="none" stroke="midnightblue" d="M145.461,-56.324C154.627,-48.3414 168.437,-36.3128 179.528,-26.6529"/>
<polygon fill="midnightblue" stroke="midnightblue" points="182.115,-29.041 187.357,-19.8339 177.518,-23.7624 182.115,-29.041"/>
</g>
<!-- Node7 -->
<g id="node8" class="node"><title>Node7</title>
<polygon fill="none" stroke="#bfbfbf" points="117,-0.5 117,-19.5 152,-19.5 152,-0.5 117,-0.5"/>
<text text-anchor="middle" x="134.5" y="-7.5" font-family="Helvetica,sans-Serif" font-size="10.00">map</text>
</g>
<!-- Node6&#45;&gt;Node7 -->
<g id="edge7" class="edge"><title>Node6&#45;&gt;Node7</title>
<path fill="none" stroke="midnightblue" d="M135.335,-56.083C135.204,-49.0059 135.016,-38.8611 134.852,-29.9865"/>
<polygon fill="midnightblue" stroke="midnightblue" points="138.347,-29.6845 134.662,-19.7511 131.348,-29.8142 138.347,-29.6845"/>
</g>
</g>
</svg>
