<?xml version="1.0" encoding="UTF-8" standalone="no"?>
<!DOCTYPE svg PUBLIC "-//W3C//DTD SVG 1.1//EN"
 "http://www.w3.org/Graphics/SVG/1.1/DTD/svg11.dtd">
<!-- Generated by graphviz version 2.38.0 (20140413.2041)
 -->
<!-- Title: MatrixProfileProcess Pages: 1 -->
<svg width="377pt" height="849pt"
 viewBox="0.00 0.00 377.00 849.00" xmlns="http://www.w3.org/2000/svg" xmlns:xlink="http://www.w3.org/1999/xlink">
<g id="graph0" class="graph" transform="scale(1 1) rotate(0) translate(4 845)">
<title>MatrixProfileProcess</title>
<!-- Node60 -->
<g id="node1" class="node"><title>Node60</title>
<polygon fill="#bfbfbf" stroke="black" points="130,-0.5 130,-123.5 258,-123.5 258,-0.5 130,-0.5"/>
<text text-anchor="middle" x="194" y="-111.5" font-family="Helvetica,sans-Serif" font-size="10.00">MatrixProfileProcess</text>
<polyline fill="none" stroke="black" points="130,-104.5 258,-104.5 "/>
<text text-anchor="middle" x="194" y="-92.5" font-family="Helvetica,sans-Serif" font-size="10.00"> </text>
<polyline fill="none" stroke="black" points="130,-85.5 258,-85.5 "/>
<text text-anchor="start" x="138" y="-73.5" font-family="Helvetica,sans-Serif" font-size="10.00">+ MatrixProfileProcess()</text>
<text text-anchor="start" x="138" y="-62.5" font-family="Helvetica,sans-Serif" font-size="10.00">+ ~MatrixProfileProcess()</text>
<text text-anchor="start" x="138" y="-51.5" font-family="Helvetica,sans-Serif" font-size="10.00">+ GetMatrix()</text>
<text text-anchor="start" x="138" y="-40.5" font-family="Helvetica,sans-Serif" font-size="10.00"># CreateMatrices()</text>
<text text-anchor="start" x="138" y="-29.5" font-family="Helvetica,sans-Serif" font-size="10.00"># DeleteMatrices()</text>
<text text-anchor="start" x="138" y="-18.5" font-family="Helvetica,sans-Serif" font-size="10.00"># ProfileProposeMove()</text>
<text text-anchor="start" x="138" y="-7.5" font-family="Helvetica,sans-Serif" font-size="10.00"># UpdateMatrices()</text>
</g>
<!-- Node61 -->
<g id="node2" class="node"><title>Node61</title>
<g id="a_node2"><a xlink:href="classProfileProcess.html" target="_top" xlink:title="{ProfileProcess\n||+ ProfileProcess()\l+ ~ProfileProcess()\l+ GetVersion()\l+ GetStatInfCount()\l+ GetDim()\l+ GetNsite()\l+ GetProfile()\l+ GetStateSpace()\l+ LogProfilePrior()\l+ SampleProfile()\l+ GetMeanStationaryEntropy()\l+ GetSiteStationaryEntropy()\l+ UpdateSiteProfileSuffStat()\l+ GlobalUpdateSiteProfileSuffStat()\l+ SlaveUpdateSiteProfileSuffStat()\l+ GlobalUpdateParameters()\l+ SlaveUpdateParameters()\l+ ProfileSuffStatLogProb()\l+ ToStream()\l+ FromStream()\l+ SetBurnin()\l+ isObserved()\l+ GetMinStat()\l+ GetMinMinStat()\l# DrawProfileFromPrior()\l# GetNormalizationFactor()\l# Create()\l# Delete()\l# GetNprocs()\l# GetMyid()\l# GetSiteMin()\l# GetSiteMax()\l# GetEmpiricalFreq()\l# GetMinTotWeight()\l# SetMinTotWeight()\l}">
<polygon fill="none" stroke="black" points="108,-161.5 108,-592.5 280,-592.5 280,-161.5 108,-161.5"/>
<text text-anchor="middle" x="194" y="-580.5" font-family="Helvetica,sans-Serif" font-size="10.00">ProfileProcess</text>
<polyline fill="none" stroke="black" points="108,-573.5 280,-573.5 "/>
<text text-anchor="middle" x="194" y="-561.5" font-family="Helvetica,sans-Serif" font-size="10.00"> </text>
<polyline fill="none" stroke="black" points="108,-554.5 280,-554.5 "/>
<text text-anchor="start" x="116" y="-542.5" font-family="Helvetica,sans-Serif" font-size="10.00">+ ProfileProcess()</text>
<text text-anchor="start" x="116" y="-531.5" font-family="Helvetica,sans-Serif" font-size="10.00">+ ~ProfileProcess()</text>
<text text-anchor="start" x="116" y="-520.5" font-family="Helvetica,sans-Serif" font-size="10.00">+ GetVersion()</text>
<text text-anchor="start" x="116" y="-509.5" font-family="Helvetica,sans-Serif" font-size="10.00">+ GetStatInfCount()</text>
<text text-anchor="start" x="116" y="-498.5" font-family="Helvetica,sans-Serif" font-size="10.00">+ GetDim()</text>
<text text-anchor="start" x="116" y="-487.5" font-family="Helvetica,sans-Serif" font-size="10.00">+ GetNsite()</text>
<text text-anchor="start" x="116" y="-476.5" font-family="Helvetica,sans-Serif" font-size="10.00">+ GetProfile()</text>
<text text-anchor="start" x="116" y="-465.5" font-family="Helvetica,sans-Serif" font-size="10.00">+ GetStateSpace()</text>
<text text-anchor="start" x="116" y="-454.5" font-family="Helvetica,sans-Serif" font-size="10.00">+ LogProfilePrior()</text>
<text text-anchor="start" x="116" y="-443.5" font-family="Helvetica,sans-Serif" font-size="10.00">+ SampleProfile()</text>
<text text-anchor="start" x="116" y="-432.5" font-family="Helvetica,sans-Serif" font-size="10.00">+ GetMeanStationaryEntropy()</text>
<text text-anchor="start" x="116" y="-421.5" font-family="Helvetica,sans-Serif" font-size="10.00">+ GetSiteStationaryEntropy()</text>
<text text-anchor="start" x="116" y="-410.5" font-family="Helvetica,sans-Serif" font-size="10.00">+ UpdateSiteProfileSuffStat()</text>
<text text-anchor="start" x="116" y="-399.5" font-family="Helvetica,sans-Serif" font-size="10.00">+ GlobalUpdateSiteProfileSuffStat()</text>
<text text-anchor="start" x="116" y="-388.5" font-family="Helvetica,sans-Serif" font-size="10.00">+ SlaveUpdateSiteProfileSuffStat()</text>
<text text-anchor="start" x="116" y="-377.5" font-family="Helvetica,sans-Serif" font-size="10.00">+ GlobalUpdateParameters()</text>
<text text-anchor="start" x="116" y="-366.5" font-family="Helvetica,sans-Serif" font-size="10.00">+ SlaveUpdateParameters()</text>
<text text-anchor="start" x="116" y="-355.5" font-family="Helvetica,sans-Serif" font-size="10.00">+ ProfileSuffStatLogProb()</text>
<text text-anchor="start" x="116" y="-344.5" font-family="Helvetica,sans-Serif" font-size="10.00">+ ToStream()</text>
<text text-anchor="start" x="116" y="-333.5" font-family="Helvetica,sans-Serif" font-size="10.00">+ FromStream()</text>
<text text-anchor="start" x="116" y="-322.5" font-family="Helvetica,sans-Serif" font-size="10.00">+ SetBurnin()</text>
<text text-anchor="start" x="116" y="-311.5" font-family="Helvetica,sans-Serif" font-size="10.00">+ isObserved()</text>
<text text-anchor="start" x="116" y="-300.5" font-family="Helvetica,sans-Serif" font-size="10.00">+ GetMinStat()</text>
<text text-anchor="start" x="116" y="-289.5" font-family="Helvetica,sans-Serif" font-size="10.00">+ GetMinMinStat()</text>
<text text-anchor="start" x="116" y="-278.5" font-family="Helvetica,sans-Serif" font-size="10.00"># DrawProfileFromPrior()</text>
<text text-anchor="start" x="116" y="-267.5" font-family="Helvetica,sans-Serif" font-size="10.00"># GetNormalizationFactor()</text>
<text text-anchor="start" x="116" y="-256.5" font-family="Helvetica,sans-Serif" font-size="10.00"># Create()</text>
<text text-anchor="start" x="116" y="-245.5" font-family="Helvetica,sans-Serif" font-size="10.00"># Delete()</text>
<text text-anchor="start" x="116" y="-234.5" font-family="Helvetica,sans-Serif" font-size="10.00"># GetNprocs()</text>
<text text-anchor="start" x="116" y="-223.5" font-family="Helvetica,sans-Serif" font-size="10.00"># GetMyid()</text>
<text text-anchor="start" x="116" y="-212.5" font-family="Helvetica,sans-Serif" font-size="10.00"># GetSiteMin()</text>
<text text-anchor="start" x="116" y="-201.5" font-family="Helvetica,sans-Serif" font-size="10.00"># GetSiteMax()</text>
<text text-anchor="start" x="116" y="-190.5" font-family="Helvetica,sans-Serif" font-size="10.00"># GetEmpiricalFreq()</text>
<text text-anchor="start" x="116" y="-179.5" font-family="Helvetica,sans-Serif" font-size="10.00"># GetMinTotWeight()</text>
<text text-anchor="start" x="116" y="-168.5" font-family="Helvetica,sans-Serif" font-size="10.00"># SetMinTotWeight()</text>
</a>
</g>
</g>
<!-- Node61&#45;&gt;Node60 -->
<g id="edge1" class="edge"><title>Node61&#45;&gt;Node60</title>
<path fill="none" stroke="midnightblue" d="M194,-151.003C194,-141.381 194,-132.191 194,-123.623"/>
<polygon fill="none" stroke="midnightblue" points="190.5,-151.176 194,-161.176 197.5,-151.176 190.5,-151.176"/>
</g>
<!-- Node62 -->
<g id="node3" class="node"><title>Node62</title>
<g id="a_node3"><a xlink:href="classChrono.html" target="_top" xlink:title="{Chrono\n||+ Chrono()\l+ ~Chrono()\l+ Reset()\l+ Start()\l+ Stop()\l+ ToStream()\l+ FromStream()\l+ operator++()\l+ GetTime()\l+ GetTimePerCount()\l+ GetCount()\l}">
<polygon fill="none" stroke="black" points="0,-673.5 0,-840.5 110,-840.5 110,-673.5 0,-673.5"/>
<text text-anchor="middle" x="55" y="-828.5" font-family="Helvetica,sans-Serif" font-size="10.00">Chrono</text>
<polyline fill="none" stroke="black" points="0,-821.5 110,-821.5 "/>
<text text-anchor="middle" x="55" y="-809.5" font-family="Helvetica,sans-Serif" font-size="10.00"> </text>
<polyline fill="none" stroke="black" points="0,-802.5 110,-802.5 "/>
<text text-anchor="start" x="8" y="-790.5" font-family="Helvetica,sans-Serif" font-size="10.00">+ Chrono()</text>
<text text-anchor="start" x="8" y="-779.5" font-family="Helvetica,sans-Serif" font-size="10.00">+ ~Chrono()</text>
<text text-anchor="start" x="8" y="-768.5" font-family="Helvetica,sans-Serif" font-size="10.00">+ Reset()</text>
<text text-anchor="start" x="8" y="-757.5" font-family="Helvetica,sans-Serif" font-size="10.00">+ Start()</text>
<text text-anchor="start" x="8" y="-746.5" font-family="Helvetica,sans-Serif" font-size="10.00">+ Stop()</text>
<text text-anchor="start" x="8" y="-735.5" font-family="Helvetica,sans-Serif" font-size="10.00">+ ToStream()</text>
<text text-anchor="start" x="8" y="-724.5" font-family="Helvetica,sans-Serif" font-size="10.00">+ FromStream()</text>
<text text-anchor="start" x="8" y="-713.5" font-family="Helvetica,sans-Serif" font-size="10.00">+ operator++()</text>
<text text-anchor="start" x="8" y="-702.5" font-family="Helvetica,sans-Serif" font-size="10.00">+ GetTime()</text>
<text text-anchor="start" x="8" y="-691.5" font-family="Helvetica,sans-Serif" font-size="10.00">+ GetTimePerCount()</text>
<text text-anchor="start" x="8" y="-680.5" font-family="Helvetica,sans-Serif" font-size="10.00">+ GetCount()</text>
</a>
</g>
</g>
<!-- Node62&#45;&gt;Node61 -->
<g id="edge2" class="edge"><title>Node62&#45;&gt;Node61</title>
<path fill="none" stroke="#404040" d="M72.9301,-673.229C78.0937,-652.693 84.1961,-630.877 91,-611 94.9075,-599.584 99.1519,-587.956 103.617,-576.289"/>
<polygon fill="none" stroke="#404040" points="103.619,-576.284 102.062,-569.243 107.962,-565.098 109.519,-572.139 103.619,-576.284"/>
<text text-anchor="middle" x="118.5" y="-641.5" font-family="Helvetica,sans-Serif" font-size="10.00"> #chronostat</text>
<text text-anchor="middle" x="118.5" y="-630.5" font-family="Helvetica,sans-Serif" font-size="10.00">#chronorr</text>
<text text-anchor="middle" x="118.5" y="-619.5" font-family="Helvetica,sans-Serif" font-size="10.00">#chronodp</text>
</g>
<!-- Node63 -->
<g id="node4" class="node"><title>Node63</title>
<polygon fill="none" stroke="#bfbfbf" points="128.5,-728.5 128.5,-785.5 173.5,-785.5 173.5,-728.5 128.5,-728.5"/>
<text text-anchor="middle" x="151" y="-773.5" font-family="Helvetica,sans-Serif" font-size="10.00">double</text>
<polyline fill="none" stroke="#bfbfbf" points="128.5,-766.5 173.5,-766.5 "/>
<text text-anchor="middle" x="151" y="-754.5" font-family="Helvetica,sans-Serif" font-size="10.00"> </text>
<polyline fill="none" stroke="#bfbfbf" points="128.5,-747.5 173.5,-747.5 "/>
<text text-anchor="middle" x="151" y="-735.5" font-family="Helvetica,sans-Serif" font-size="10.00"> </text>
</g>
<!-- Node63&#45;&gt;Node61 -->
<g id="edge3" class="edge"><title>Node63&#45;&gt;Node61</title>
<path fill="none" stroke="#404040" d="M149.789,-728.403C148.833,-699.178 148.217,-651.733 152,-611 152.193,-608.925 152.394,-606.841 152.604,-604.748"/>
<polygon fill="none" stroke="#404040" points="152.618,-604.617 149.28,-598.225 153.896,-592.685 157.234,-599.077 152.618,-604.617"/>
<text text-anchor="middle" x="184" y="-630.5" font-family="Helvetica,sans-Serif" font-size="10.00"> #mintotweight</text>
</g>
<!-- Node64 -->
<g id="node5" class="node"><title>Node64</title>
<polygon fill="none" stroke="#bfbfbf" points="223.5,-728.5 223.5,-785.5 252.5,-785.5 252.5,-728.5 223.5,-728.5"/>
<text text-anchor="middle" x="238" y="-773.5" font-family="Helvetica,sans-Serif" font-size="10.00">int</text>
<polyline fill="none" stroke="#bfbfbf" points="223.5,-766.5 252.5,-766.5 "/>
<text text-anchor="middle" x="238" y="-754.5" font-family="Helvetica,sans-Serif" font-size="10.00"> </text>
<polyline fill="none" stroke="#bfbfbf" points="223.5,-747.5 252.5,-747.5 "/>
<text text-anchor="middle" x="238" y="-735.5" font-family="Helvetica,sans-Serif" font-size="10.00"> </text>
</g>
<!-- Node64&#45;&gt;Node61 -->
<g id="edge4" class="edge"><title>Node64&#45;&gt;Node61</title>
<path fill="none" stroke="#404040" d="M234.765,-728.205C231.513,-700.267 226.167,-654.34 220.4,-604.801"/>
<polygon fill="none" stroke="#404040" points="220.394,-604.744 215.727,-599.247 219.006,-592.825 223.673,-598.322 220.394,-604.744"/>
<text text-anchor="middle" x="256" y="-647" font-family="Helvetica,sans-Serif" font-size="10.00"> #dim</text>
<text text-anchor="middle" x="256" y="-636" font-family="Helvetica,sans-Serif" font-size="10.00">#statinfcount</text>
<text text-anchor="middle" x="256" y="-625" font-family="Helvetica,sans-Serif" font-size="10.00">#totstatcount</text>
<text text-anchor="middle" x="256" y="-614" font-family="Helvetica,sans-Serif" font-size="10.00">#nsite</text>
</g>
<!-- Node65 -->
<g id="node6" class="node"><title>Node65</title>
<polygon fill="none" stroke="#bfbfbf" points="301.5,-728.5 301.5,-785.5 336.5,-785.5 336.5,-728.5 301.5,-728.5"/>
<text text-anchor="middle" x="319" y="-773.5" font-family="Helvetica,sans-Serif" font-size="10.00">bool</text>
<polyline fill="none" stroke="#bfbfbf" points="301.5,-766.5 336.5,-766.5 "/>
<text text-anchor="middle" x="319" y="-754.5" font-family="Helvetica,sans-Serif" font-size="10.00"> </text>
<polyline fill="none" stroke="#bfbfbf" points="301.5,-747.5 336.5,-747.5 "/>
<text text-anchor="middle" x="319" y="-735.5" font-family="Helvetica,sans-Serif" font-size="10.00"> </text>
</g>
<!-- Node65&#45;&gt;Node61 -->
<g id="edge5" class="edge"><title>Node65&#45;&gt;Node61</title>
<path fill="none" stroke="#404040" d="M314.832,-728.366C310.031,-698.909 301.206,-651.085 289,-611 287.4,-605.745 285.728,-600.445 283.995,-595.115"/>
<polygon fill="none" stroke="#404040" points="283.889,-594.797 278.202,-590.364 280.107,-583.409 285.794,-587.842 283.889,-594.797"/>
<text text-anchor="middle" x="335" y="-636" font-family="Helvetica,sans-Serif" font-size="10.00"> #activesuffstat</text>
<text text-anchor="middle" x="335" y="-625" font-family="Helvetica,sans-Serif" font-size="10.00">#burnin</text>
</g>
</g>
</svg>
