<?xml version="1.0" encoding="UTF-8" standalone="no"?>
<!DOCTYPE svg PUBLIC "-//W3C//DTD SVG 1.1//EN"
 "http://www.w3.org/Graphics/SVG/1.1/DTD/svg11.dtd">
<!-- Generated by graphviz version 2.38.0 (20140413.2041)
 -->
<!-- Title: MatrixFiniteProfileProcess Pages: 1 -->
<svg width="980pt" height="1862pt"
 viewBox="0.00 0.00 980.24 1862.00" xmlns="http://www.w3.org/2000/svg" xmlns:xlink="http://www.w3.org/1999/xlink">
<g id="graph0" class="graph" transform="scale(1 1) rotate(0) translate(4 1858)">
<title>MatrixFiniteProfileProcess</title>
<!-- Node16 -->
<g id="node1" class="node"><title>Node16</title>
<polygon fill="#bfbfbf" stroke="black" points="531.241,-0.5 531.241,-134.5 689.241,-134.5 689.241,-0.5 531.241,-0.5"/>
<text text-anchor="middle" x="610.241" y="-122.5" font-family="Helvetica,sans-Serif" font-size="10.00">MatrixFiniteProfileProcess</text>
<polyline fill="none" stroke="black" points="531.241,-115.5 689.241,-115.5 "/>
<text text-anchor="middle" x="610.241" y="-103.5" font-family="Helvetica,sans-Serif" font-size="10.00"> </text>
<polyline fill="none" stroke="black" points="531.241,-96.5 689.241,-96.5 "/>
<text text-anchor="start" x="539.241" y="-84.5" font-family="Helvetica,sans-Serif" font-size="10.00">+ MatrixFiniteProfileProcess()</text>
<text text-anchor="start" x="539.241" y="-73.5" font-family="Helvetica,sans-Serif" font-size="10.00">+ ~MatrixFiniteProfileProcess()</text>
<text text-anchor="start" x="539.241" y="-62.5" font-family="Helvetica,sans-Serif" font-size="10.00"># Create()</text>
<text text-anchor="start" x="539.241" y="-51.5" font-family="Helvetica,sans-Serif" font-size="10.00"># Create()</text>
<text text-anchor="start" x="539.241" y="-40.5" font-family="Helvetica,sans-Serif" font-size="10.00"># Delete()</text>
<text text-anchor="start" x="539.241" y="-29.5" font-family="Helvetica,sans-Serif" font-size="10.00"># GlobalIncrementalFiniteMove()</text>
<text text-anchor="start" x="539.241" y="-18.5" font-family="Helvetica,sans-Serif" font-size="10.00"># SlaveIncrementalFiniteMove()</text>
<text text-anchor="start" x="539.241" y="-7.5" font-family="Helvetica,sans-Serif" font-size="10.00"># IncrementalFiniteMove()</text>
</g>
<!-- Node17 -->
<g id="node2" class="node"><title>Node17</title>
<g id="a_node2"><a xlink:href="classMatrixMixtureProfileProcess.html" target="_top" target="_top" xlink:title="{MatrixMixtureProfileProcess\n||+ MatrixMixtureProfileProcess()\l+ ~MatrixMixtureProfileProcess()\l+ GetMatrix()\l# Create()\l# Delete()\l# SwapComponents()\l# GlobalMoveProfile()\l# SlaveMoveProfile()\l# MoveProfile()\l# MoveProfile()\l# UpdateModeProfileSuffStat()\l# UpdateMatrices()\l# CreateMatrices()\l# DeleteMatrices()\l# CreateMatrix()\l# DeleteMatrix()\l# UpdateMatrix()\l}">
<polygon fill="none" stroke="black" points="401.741,-194.5 401.741,-427.5 562.741,-427.5 562.741,-194.5 401.741,-194.5"/>
<text text-anchor="middle" x="482.241" y="-415.5" font-family="Helvetica,sans-Serif" font-size="10.00">MatrixMixtureProfileProcess</text>
<polyline fill="none" stroke="black" points="401.741,-408.5 562.741,-408.5 "/>
<text text-anchor="middle" x="482.241" y="-396.5" font-family="Helvetica,sans-Serif" font-size="10.00"> </text>
<polyline fill="none" stroke="black" points="401.741,-389.5 562.741,-389.5 "/>
<text text-anchor="start" x="409.741" y="-377.5" font-family="Helvetica,sans-Serif" font-size="10.00">+ MatrixMixtureProfileProcess()</text>
<text text-anchor="start" x="409.741" y="-366.5" font-family="Helvetica,sans-Serif" font-size="10.00">+ ~MatrixMixtureProfileProcess()</text>
<text text-anchor="start" x="409.741" y="-355.5" font-family="Helvetica,sans-Serif" font-size="10.00">+ GetMatrix()</text>
<text text-anchor="start" x="409.741" y="-344.5" font-family="Helvetica,sans-Serif" font-size="10.00"># Create()</text>
<text text-anchor="start" x="409.741" y="-333.5" font-family="Helvetica,sans-Serif" font-size="10.00"># Delete()</text>
<text text-anchor="start" x="409.741" y="-322.5" font-family="Helvetica,sans-Serif" font-size="10.00"># SwapComponents()</text>
<text text-anchor="start" x="409.741" y="-311.5" font-family="Helvetica,sans-Serif" font-size="10.00"># GlobalMoveProfile()</text>
<text text-anchor="start" x="409.741" y="-300.5" font-family="Helvetica,sans-Serif" font-size="10.00"># SlaveMoveProfile()</text>
<text text-anchor="start" x="409.741" y="-289.5" font-family="Helvetica,sans-Serif" font-size="10.00"># MoveProfile()</text>
<text text-anchor="start" x="409.741" y="-278.5" font-family="Helvetica,sans-Serif" font-size="10.00"># MoveProfile()</text>
<text text-anchor="start" x="409.741" y="-267.5" font-family="Helvetica,sans-Serif" font-size="10.00"># UpdateModeProfileSuffStat()</text>
<text text-anchor="start" x="409.741" y="-256.5" font-family="Helvetica,sans-Serif" font-size="10.00"># UpdateMatrices()</text>
<text text-anchor="start" x="409.741" y="-245.5" font-family="Helvetica,sans-Serif" font-size="10.00"># CreateMatrices()</text>
<text text-anchor="start" x="409.741" y="-234.5" font-family="Helvetica,sans-Serif" font-size="10.00"># DeleteMatrices()</text>
<text text-anchor="start" x="409.741" y="-223.5" font-family="Helvetica,sans-Serif" font-size="10.00"># CreateMatrix()</text>
<text text-anchor="start" x="409.741" y="-212.5" font-family="Helvetica,sans-Serif" font-size="10.00"># DeleteMatrix()</text>
<text text-anchor="start" x="409.741" y="-201.5" font-family="Helvetica,sans-Serif" font-size="10.00"># UpdateMatrix()</text>
</a>
</g>
</g>
<!-- Node17&#45;&gt;Node16 -->
<g id="edge1" class="edge"><title>Node17&#45;&gt;Node16</title>
<path fill="none" stroke="midnightblue" d="M548.448,-185.086C557.684,-167.661 566.858,-150.352 575.201,-134.612"/>
<polygon fill="none" stroke="midnightblue" points="545.208,-183.727 543.617,-194.201 551.393,-187.005 545.208,-183.727"/>
</g>
<!-- Node18 -->
<g id="node3" class="node"><title>Node18</title>
<g id="a_node3"><a xlink:href="classMatrixProfileProcess.html" target="_top" target="_top" xlink:title="{MatrixProfileProcess\n||+ MatrixProfileProcess()\l+ ~MatrixProfileProcess()\l+ GetMatrix()\l# CreateMatrices()\l# DeleteMatrices()\l# ProfileProposeMove()\l# UpdateMatrices()\l}">
<polygon fill="none" stroke="black" points="180.241,-695.5 180.241,-818.5 308.241,-818.5 308.241,-695.5 180.241,-695.5"/>
<text text-anchor="middle" x="244.241" y="-806.5" font-family="Helvetica,sans-Serif" font-size="10.00">MatrixProfileProcess</text>
<polyline fill="none" stroke="black" points="180.241,-799.5 308.241,-799.5 "/>
<text text-anchor="middle" x="244.241" y="-787.5" font-family="Helvetica,sans-Serif" font-size="10.00"> </text>
<polyline fill="none" stroke="black" points="180.241,-780.5 308.241,-780.5 "/>
<text text-anchor="start" x="188.241" y="-768.5" font-family="Helvetica,sans-Serif" font-size="10.00">+ MatrixProfileProcess()</text>
<text text-anchor="start" x="188.241" y="-757.5" font-family="Helvetica,sans-Serif" font-size="10.00">+ ~MatrixProfileProcess()</text>
<text text-anchor="start" x="188.241" y="-746.5" font-family="Helvetica,sans-Serif" font-size="10.00">+ GetMatrix()</text>
<text text-anchor="start" x="188.241" y="-735.5" font-family="Helvetica,sans-Serif" font-size="10.00"># CreateMatrices()</text>
<text text-anchor="start" x="188.241" y="-724.5" font-family="Helvetica,sans-Serif" font-size="10.00"># DeleteMatrices()</text>
<text text-anchor="start" x="188.241" y="-713.5" font-family="Helvetica,sans-Serif" font-size="10.00"># ProfileProposeMove()</text>
<text text-anchor="start" x="188.241" y="-702.5" font-family="Helvetica,sans-Serif" font-size="10.00"># UpdateMatrices()</text>
</a>
</g>
</g>
<!-- Node18&#45;&gt;Node17 -->
<g id="edge2" class="edge"><title>Node18&#45;&gt;Node17</title>
<path fill="none" stroke="midnightblue" d="M281.707,-686.106C318.817,-616.876 376.301,-509.637 420.225,-427.693"/>
<polygon fill="none" stroke="midnightblue" points="278.475,-684.727 276.835,-695.195 284.644,-688.035 278.475,-684.727"/>
</g>
<!-- Node19 -->
<g id="node4" class="node"><title>Node19</title>
<g id="a_node4"><a xlink:href="classProfileProcess.html" target="_top" target="_top" xlink:title="{ProfileProcess\n||+ ProfileProcess()\l+ ~ProfileProcess()\l+ GetVersion()\l+ GetStatInfCount()\l+ GetDim()\l+ GetNsite()\l+ GetProfile()\l+ GetStateSpace()\l+ LogProfilePrior()\l+ SampleProfile()\l+ GetMeanStationaryEntropy()\l+ GetSiteStationaryEntropy()\l+ UpdateSiteProfileSuffStat()\l+ GlobalUpdateSiteProfileSuffStat()\l+ SlaveUpdateSiteProfileSuffStat()\l+ GlobalUpdateParameters()\l+ SlaveUpdateParameters()\l+ ProfileSuffStatLogProb()\l+ ToStream()\l+ FromStream()\l+ SetBurnin()\l+ isObserved()\l+ GetMinStat()\l+ GetMinMinStat()\l# DrawProfileFromPrior()\l# GetNormalizationFactor()\l# Create()\l# Delete()\l# GetNprocs()\l# GetMyid()\l# GetSiteMin()\l# GetSiteMax()\l# GetEmpiricalFreq()\l# GetMinTotWeight()\l# SetMinTotWeight()\l}">
<polygon fill="none" stroke="black" points="196.241,-1125 196.241,-1556 368.241,-1556 368.241,-1125 196.241,-1125"/>
<text text-anchor="middle" x="282.241" y="-1544" font-family="Helvetica,sans-Serif" font-size="10.00">ProfileProcess</text>
<polyline fill="none" stroke="black" points="196.241,-1537 368.241,-1537 "/>
<text text-anchor="middle" x="282.241" y="-1525" font-family="Helvetica,sans-Serif" font-size="10.00"> </text>
<polyline fill="none" stroke="black" points="196.241,-1518 368.241,-1518 "/>
<text text-anchor="start" x="204.241" y="-1506" font-family="Helvetica,sans-Serif" font-size="10.00">+ ProfileProcess()</text>
<text text-anchor="start" x="204.241" y="-1495" font-family="Helvetica,sans-Serif" font-size="10.00">+ ~ProfileProcess()</text>
<text text-anchor="start" x="204.241" y="-1484" font-family="Helvetica,sans-Serif" font-size="10.00">+ GetVersion()</text>
<text text-anchor="start" x="204.241" y="-1473" font-family="Helvetica,sans-Serif" font-size="10.00">+ GetStatInfCount()</text>
<text text-anchor="start" x="204.241" y="-1462" font-family="Helvetica,sans-Serif" font-size="10.00">+ GetDim()</text>
<text text-anchor="start" x="204.241" y="-1451" font-family="Helvetica,sans-Serif" font-size="10.00">+ GetNsite()</text>
<text text-anchor="start" x="204.241" y="-1440" font-family="Helvetica,sans-Serif" font-size="10.00">+ GetProfile()</text>
<text text-anchor="start" x="204.241" y="-1429" font-family="Helvetica,sans-Serif" font-size="10.00">+ GetStateSpace()</text>
<text text-anchor="start" x="204.241" y="-1418" font-family="Helvetica,sans-Serif" font-size="10.00">+ LogProfilePrior()</text>
<text text-anchor="start" x="204.241" y="-1407" font-family="Helvetica,sans-Serif" font-size="10.00">+ SampleProfile()</text>
<text text-anchor="start" x="204.241" y="-1396" font-family="Helvetica,sans-Serif" font-size="10.00">+ GetMeanStationaryEntropy()</text>
<text text-anchor="start" x="204.241" y="-1385" font-family="Helvetica,sans-Serif" font-size="10.00">+ GetSiteStationaryEntropy()</text>
<text text-anchor="start" x="204.241" y="-1374" font-family="Helvetica,sans-Serif" font-size="10.00">+ UpdateSiteProfileSuffStat()</text>
<text text-anchor="start" x="204.241" y="-1363" font-family="Helvetica,sans-Serif" font-size="10.00">+ GlobalUpdateSiteProfileSuffStat()</text>
<text text-anchor="start" x="204.241" y="-1352" font-family="Helvetica,sans-Serif" font-size="10.00">+ SlaveUpdateSiteProfileSuffStat()</text>
<text text-anchor="start" x="204.241" y="-1341" font-family="Helvetica,sans-Serif" font-size="10.00">+ GlobalUpdateParameters()</text>
<text text-anchor="start" x="204.241" y="-1330" font-family="Helvetica,sans-Serif" font-size="10.00">+ SlaveUpdateParameters()</text>
<text text-anchor="start" x="204.241" y="-1319" font-family="Helvetica,sans-Serif" font-size="10.00">+ ProfileSuffStatLogProb()</text>
<text text-anchor="start" x="204.241" y="-1308" font-family="Helvetica,sans-Serif" font-size="10.00">+ ToStream()</text>
<text text-anchor="start" x="204.241" y="-1297" font-family="Helvetica,sans-Serif" font-size="10.00">+ FromStream()</text>
<text text-anchor="start" x="204.241" y="-1286" font-family="Helvetica,sans-Serif" font-size="10.00">+ SetBurnin()</text>
<text text-anchor="start" x="204.241" y="-1275" font-family="Helvetica,sans-Serif" font-size="10.00">+ isObserved()</text>
<text text-anchor="start" x="204.241" y="-1264" font-family="Helvetica,sans-Serif" font-size="10.00">+ GetMinStat()</text>
<text text-anchor="start" x="204.241" y="-1253" font-family="Helvetica,sans-Serif" font-size="10.00">+ GetMinMinStat()</text>
<text text-anchor="start" x="204.241" y="-1242" font-family="Helvetica,sans-Serif" font-size="10.00"># DrawProfileFromPrior()</text>
<text text-anchor="start" x="204.241" y="-1231" font-family="Helvetica,sans-Serif" font-size="10.00"># GetNormalizationFactor()</text>
<text text-anchor="start" x="204.241" y="-1220" font-family="Helvetica,sans-Serif" font-size="10.00"># Create()</text>
<text text-anchor="start" x="204.241" y="-1209" font-family="Helvetica,sans-Serif" font-size="10.00"># Delete()</text>
<text text-anchor="start" x="204.241" y="-1198" font-family="Helvetica,sans-Serif" font-size="10.00"># GetNprocs()</text>
<text text-anchor="start" x="204.241" y="-1187" font-family="Helvetica,sans-Serif" font-size="10.00"># GetMyid()</text>
<text text-anchor="start" x="204.241" y="-1176" font-family="Helvetica,sans-Serif" font-size="10.00"># GetSiteMin()</text>
<text text-anchor="start" x="204.241" y="-1165" font-family="Helvetica,sans-Serif" font-size="10.00"># GetSiteMax()</text>
<text text-anchor="start" x="204.241" y="-1154" font-family="Helvetica,sans-Serif" font-size="10.00"># GetEmpiricalFreq()</text>
<text text-anchor="start" x="204.241" y="-1143" font-family="Helvetica,sans-Serif" font-size="10.00"># GetMinTotWeight()</text>
<text text-anchor="start" x="204.241" y="-1132" font-family="Helvetica,sans-Serif" font-size="10.00"># SetMinTotWeight()</text>
</a>
</g>
</g>
<!-- Node19&#45;&gt;Node18 -->
<g id="edge3" class="edge"><title>Node19&#45;&gt;Node18</title>
<path fill="none" stroke="midnightblue" d="M267.528,-1114.34C260.559,-1007.7 252.778,-888.633 248.207,-818.68"/>
<polygon fill="none" stroke="midnightblue" points="264.055,-1114.87 268.199,-1124.62 271.04,-1114.42 264.055,-1114.87"/>
</g>
<!-- Node24 -->
<g id="node9" class="node"><title>Node24</title>
<g id="a_node9"><a xlink:href="classMixtureProfileProcess.html" target="_top" target="_top" xlink:title="{MixtureProfileProcess\n||+ MixtureProfileProcess()\l+ ~MixtureProfileProcess()\l+ GetProfile()\l+ GetNcomponent()\l+ GetNDisplayedComponent()\l+ GetNOccupiedComponent()\l+ GetNmodeMax()\l+ GetMeanStationaryEntropy()\l+ GetSiteStationaryEntropy()\l+ GetStatEnt()\l+ GetStatEnt()\l+ GetCenterStatEnt()\l+ GetMeanDirWeight()\l+ RenormalizeProfiles()\l+ Move()\l+ MoveDirWeights()\l# UpdateModeProfileSuffStat()\l# ProfileSuffStatLogProb()\l# LogStatProb()\l# ProfileSuffStatLogProb()\l# Create()\l# Delete()\l# CreateComponent()\l# DeleteComponent()\l# UpdateComponent()\l# UpdateComponents()\l# GetAllocEntropy()\l# AddSite()\l# RemoveSite()\l# SampleProfile()\l# SampleHyper()\l# SampleAlloc()\l# SampleStat()\l# SampleStat()\l# SampleStat()\l# UpdateOccupancyNumbers()\l# ResampleEmptyProfiles()\l# LogProfilePrior()\l# LogHyperPrior()\l# LogAllocPrior()\l# LogStatPrior()\l# LogStatPrior()\l# SwapComponents()\l}">
<polygon fill="none" stroke="black" points="535.241,-497.5 535.241,-1016.5 687.241,-1016.5 687.241,-497.5 535.241,-497.5"/>
<text text-anchor="middle" x="611.241" y="-1004.5" font-family="Helvetica,sans-Serif" font-size="10.00">MixtureProfileProcess</text>
<polyline fill="none" stroke="black" points="535.241,-997.5 687.241,-997.5 "/>
<text text-anchor="middle" x="611.241" y="-985.5" font-family="Helvetica,sans-Serif" font-size="10.00"> </text>
<polyline fill="none" stroke="black" points="535.241,-978.5 687.241,-978.5 "/>
<text text-anchor="start" x="543.241" y="-966.5" font-family="Helvetica,sans-Serif" font-size="10.00">+ MixtureProfileProcess()</text>
<text text-anchor="start" x="543.241" y="-955.5" font-family="Helvetica,sans-Serif" font-size="10.00">+ ~MixtureProfileProcess()</text>
<text text-anchor="start" x="543.241" y="-944.5" font-family="Helvetica,sans-Serif" font-size="10.00">+ GetProfile()</text>
<text text-anchor="start" x="543.241" y="-933.5" font-family="Helvetica,sans-Serif" font-size="10.00">+ GetNcomponent()</text>
<text text-anchor="start" x="543.241" y="-922.5" font-family="Helvetica,sans-Serif" font-size="10.00">+ GetNDisplayedComponent()</text>
<text text-anchor="start" x="543.241" y="-911.5" font-family="Helvetica,sans-Serif" font-size="10.00">+ GetNOccupiedComponent()</text>
<text text-anchor="start" x="543.241" y="-900.5" font-family="Helvetica,sans-Serif" font-size="10.00">+ GetNmodeMax()</text>
<text text-anchor="start" x="543.241" y="-889.5" font-family="Helvetica,sans-Serif" font-size="10.00">+ GetMeanStationaryEntropy()</text>
<text text-anchor="start" x="543.241" y="-878.5" font-family="Helvetica,sans-Serif" font-size="10.00">+ GetSiteStationaryEntropy()</text>
<text text-anchor="start" x="543.241" y="-867.5" font-family="Helvetica,sans-Serif" font-size="10.00">+ GetStatEnt()</text>
<text text-anchor="start" x="543.241" y="-856.5" font-family="Helvetica,sans-Serif" font-size="10.00">+ GetStatEnt()</text>
<text text-anchor="start" x="543.241" y="-845.5" font-family="Helvetica,sans-Serif" font-size="10.00">+ GetCenterStatEnt()</text>
<text text-anchor="start" x="543.241" y="-834.5" font-family="Helvetica,sans-Serif" font-size="10.00">+ GetMeanDirWeight()</text>
<text text-anchor="start" x="543.241" y="-823.5" font-family="Helvetica,sans-Serif" font-size="10.00">+ RenormalizeProfiles()</text>
<text text-anchor="start" x="543.241" y="-812.5" font-family="Helvetica,sans-Serif" font-size="10.00">+ Move()</text>
<text text-anchor="start" x="543.241" y="-801.5" font-family="Helvetica,sans-Serif" font-size="10.00">+ MoveDirWeights()</text>
<text text-anchor="start" x="543.241" y="-790.5" font-family="Helvetica,sans-Serif" font-size="10.00"># UpdateModeProfileSuffStat()</text>
<text text-anchor="start" x="543.241" y="-779.5" font-family="Helvetica,sans-Serif" font-size="10.00"># ProfileSuffStatLogProb()</text>
<text text-anchor="start" x="543.241" y="-768.5" font-family="Helvetica,sans-Serif" font-size="10.00"># LogStatProb()</text>
<text text-anchor="start" x="543.241" y="-757.5" font-family="Helvetica,sans-Serif" font-size="10.00"># ProfileSuffStatLogProb()</text>
<text text-anchor="start" x="543.241" y="-746.5" font-family="Helvetica,sans-Serif" font-size="10.00"># Create()</text>
<text text-anchor="start" x="543.241" y="-735.5" font-family="Helvetica,sans-Serif" font-size="10.00"># Delete()</text>
<text text-anchor="start" x="543.241" y="-724.5" font-family="Helvetica,sans-Serif" font-size="10.00"># CreateComponent()</text>
<text text-anchor="start" x="543.241" y="-713.5" font-family="Helvetica,sans-Serif" font-size="10.00"># DeleteComponent()</text>
<text text-anchor="start" x="543.241" y="-702.5" font-family="Helvetica,sans-Serif" font-size="10.00"># UpdateComponent()</text>
<text text-anchor="start" x="543.241" y="-691.5" font-family="Helvetica,sans-Serif" font-size="10.00"># UpdateComponents()</text>
<text text-anchor="start" x="543.241" y="-680.5" font-family="Helvetica,sans-Serif" font-size="10.00"># GetAllocEntropy()</text>
<text text-anchor="start" x="543.241" y="-669.5" font-family="Helvetica,sans-Serif" font-size="10.00"># AddSite()</text>
<text text-anchor="start" x="543.241" y="-658.5" font-family="Helvetica,sans-Serif" font-size="10.00"># RemoveSite()</text>
<text text-anchor="start" x="543.241" y="-647.5" font-family="Helvetica,sans-Serif" font-size="10.00"># SampleProfile()</text>
<text text-anchor="start" x="543.241" y="-636.5" font-family="Helvetica,sans-Serif" font-size="10.00"># SampleHyper()</text>
<text text-anchor="start" x="543.241" y="-625.5" font-family="Helvetica,sans-Serif" font-size="10.00"># SampleAlloc()</text>
<text text-anchor="start" x="543.241" y="-614.5" font-family="Helvetica,sans-Serif" font-size="10.00"># SampleStat()</text>
<text text-anchor="start" x="543.241" y="-603.5" font-family="Helvetica,sans-Serif" font-size="10.00"># SampleStat()</text>
<text text-anchor="start" x="543.241" y="-592.5" font-family="Helvetica,sans-Serif" font-size="10.00"># SampleStat()</text>
<text text-anchor="start" x="543.241" y="-581.5" font-family="Helvetica,sans-Serif" font-size="10.00"># UpdateOccupancyNumbers()</text>
<text text-anchor="start" x="543.241" y="-570.5" font-family="Helvetica,sans-Serif" font-size="10.00"># ResampleEmptyProfiles()</text>
<text text-anchor="start" x="543.241" y="-559.5" font-family="Helvetica,sans-Serif" font-size="10.00"># LogProfilePrior()</text>
<text text-anchor="start" x="543.241" y="-548.5" font-family="Helvetica,sans-Serif" font-size="10.00"># LogHyperPrior()</text>
<text text-anchor="start" x="543.241" y="-537.5" font-family="Helvetica,sans-Serif" font-size="10.00"># LogAllocPrior()</text>
<text text-anchor="start" x="543.241" y="-526.5" font-family="Helvetica,sans-Serif" font-size="10.00"># LogStatPrior()</text>
<text text-anchor="start" x="543.241" y="-515.5" font-family="Helvetica,sans-Serif" font-size="10.00"># LogStatPrior()</text>
<text text-anchor="start" x="543.241" y="-504.5" font-family="Helvetica,sans-Serif" font-size="10.00"># SwapComponents()</text>
</a>
</g>
</g>
<!-- Node19&#45;&gt;Node24 -->
<g id="edge9" class="edge"><title>Node19&#45;&gt;Node24</title>
<path fill="none" stroke="midnightblue" d="M373.783,-1145.67C385.042,-1128.49 397.218,-1111.97 410.241,-1097 450.155,-1051.12 484.907,-1065.76 521.241,-1017 526.148,-1010.42 530.801,-1003.54 535.214,-996.449"/>
<polygon fill="none" stroke="midnightblue" points="370.796,-1143.84 368.33,-1154.15 376.683,-1147.63 370.796,-1143.84"/>
</g>
<!-- Node20 -->
<g id="node5" class="node"><title>Node20</title>
<g id="a_node5"><a xlink:href="classChrono.html" target="_top" target="_top" xlink:title="{Chrono\n||+ Chrono()\l+ ~Chrono()\l+ Reset()\l+ Start()\l+ Stop()\l+ ToStream()\l+ FromStream()\l+ operator++()\l+ GetTime()\l+ GetTimePerCount()\l+ GetCount()\l}">
<polygon fill="none" stroke="black" points="195.241,-1686.5 195.241,-1853.5 305.241,-1853.5 305.241,-1686.5 195.241,-1686.5"/>
<text text-anchor="middle" x="250.241" y="-1841.5" font-family="Helvetica,sans-Serif" font-size="10.00">Chrono</text>
<polyline fill="none" stroke="black" points="195.241,-1834.5 305.241,-1834.5 "/>
<text text-anchor="middle" x="250.241" y="-1822.5" font-family="Helvetica,sans-Serif" font-size="10.00"> </text>
<polyline fill="none" stroke="black" points="195.241,-1815.5 305.241,-1815.5 "/>
<text text-anchor="start" x="203.241" y="-1803.5" font-family="Helvetica,sans-Serif" font-size="10.00">+ Chrono()</text>
<text text-anchor="start" x="203.241" y="-1792.5" font-family="Helvetica,sans-Serif" font-size="10.00">+ ~Chrono()</text>
<text text-anchor="start" x="203.241" y="-1781.5" font-family="Helvetica,sans-Serif" font-size="10.00">+ Reset()</text>
<text text-anchor="start" x="203.241" y="-1770.5" font-family="Helvetica,sans-Serif" font-size="10.00">+ Start()</text>
<text text-anchor="start" x="203.241" y="-1759.5" font-family="Helvetica,sans-Serif" font-size="10.00">+ Stop()</text>
<text text-anchor="start" x="203.241" y="-1748.5" font-family="Helvetica,sans-Serif" font-size="10.00">+ ToStream()</text>
<text text-anchor="start" x="203.241" y="-1737.5" font-family="Helvetica,sans-Serif" font-size="10.00">+ FromStream()</text>
<text text-anchor="start" x="203.241" y="-1726.5" font-family="Helvetica,sans-Serif" font-size="10.00">+ operator++()</text>
<text text-anchor="start" x="203.241" y="-1715.5" font-family="Helvetica,sans-Serif" font-size="10.00">+ GetTime()</text>
<text text-anchor="start" x="203.241" y="-1704.5" font-family="Helvetica,sans-Serif" font-size="10.00">+ GetTimePerCount()</text>
<text text-anchor="start" x="203.241" y="-1693.5" font-family="Helvetica,sans-Serif" font-size="10.00">+ GetCount()</text>
</a>
</g>
</g>
<!-- Node20&#45;&gt;Node19 -->
<g id="edge4" class="edge"><title>Node20&#45;&gt;Node19</title>
<path fill="none" stroke="#404040" d="M248.899,-1686.12C248.956,-1659.26 249.538,-1629.35 251.241,-1602 251.922,-1591.07 252.749,-1579.89 253.688,-1568.61"/>
<polygon fill="none" stroke="#404040" points="253.715,-1568.29 250.247,-1561.97 254.749,-1556.34 258.218,-1562.66 253.715,-1568.29"/>
<text text-anchor="middle" x="278.741" y="-1643.5" font-family="Helvetica,sans-Serif" font-size="10.00"> #chronostat</text>
<text text-anchor="middle" x="278.741" y="-1632.5" font-family="Helvetica,sans-Serif" font-size="10.00">#chronorr</text>
<text text-anchor="middle" x="278.741" y="-1621.5" font-family="Helvetica,sans-Serif" font-size="10.00">#chronodp</text>
</g>
<!-- Node21 -->
<g id="node6" class="node"><title>Node21</title>
<polygon fill="none" stroke="#bfbfbf" points="580.741,-1741.5 580.741,-1798.5 625.741,-1798.5 625.741,-1741.5 580.741,-1741.5"/>
<text text-anchor="middle" x="603.241" y="-1786.5" font-family="Helvetica,sans-Serif" font-size="10.00">double</text>
<polyline fill="none" stroke="#bfbfbf" points="580.741,-1779.5 625.741,-1779.5 "/>
<text text-anchor="middle" x="603.241" y="-1767.5" font-family="Helvetica,sans-Serif" font-size="10.00"> </text>
<polyline fill="none" stroke="#bfbfbf" points="580.741,-1760.5 625.741,-1760.5 "/>
<text text-anchor="middle" x="603.241" y="-1748.5" font-family="Helvetica,sans-Serif" font-size="10.00"> </text>
</g>
<!-- Node21&#45;&gt;Node19 -->
<g id="edge5" class="edge"><title>Node21&#45;&gt;Node19</title>
<path fill="none" stroke="#404040" d="M580.565,-1763.77C538.945,-1753.02 450.073,-1724.56 400.241,-1668 379.707,-1644.69 387.674,-1631.26 377.241,-1602 373.24,-1590.78 369.124,-1579.29 364.954,-1567.69"/>
<polygon fill="none" stroke="#404040" points="364.833,-1567.36 359.036,-1563.07 360.767,-1556.07 366.563,-1560.36 364.833,-1567.36"/>
<text text-anchor="middle" x="432.241" y="-1632.5" font-family="Helvetica,sans-Serif" font-size="10.00"> #mintotweight</text>
</g>
<!-- Node21&#45;&gt;Node24 -->
<g id="edge10" class="edge"><title>Node21&#45;&gt;Node24</title>
<path fill="none" stroke="#404040" d="M611.28,-1741.42C616.719,-1721.28 623.408,-1693.2 626.241,-1668 629.518,-1638.85 626.502,-1631.33 626.241,-1602 624.539,-1410.42 620.664,-1194.42 617.279,-1028.89"/>
<polygon fill="none" stroke="#404040" points="617.272,-1028.55 613.15,-1022.64 617.025,-1016.56 621.148,-1022.47 617.272,-1028.55"/>
<text text-anchor="middle" x="674.741" y="-1360" font-family="Helvetica,sans-Serif" font-size="10.00"> #logstatprior</text>
<text text-anchor="middle" x="674.741" y="-1349" font-family="Helvetica,sans-Serif" font-size="10.00">#profile</text>
<text text-anchor="middle" x="674.741" y="-1338" font-family="Helvetica,sans-Serif" font-size="10.00">#profilesuffstatlogprob</text>
<text text-anchor="middle" x="674.741" y="-1327" font-family="Helvetica,sans-Serif" font-size="10.00">#allocprofile</text>
<text text-anchor="middle" x="674.741" y="-1316" font-family="Helvetica,sans-Serif" font-size="10.00">#dirweight</text>
</g>
<!-- Node25 -->
<g id="node10" class="node"><title>Node25</title>
<g id="a_node10"><a xlink:href="classSubMatrix.html" target="_top" target="_top" xlink:title="{SubMatrix\n||+ SubMatrix()\l+ ~SubMatrix()\l+ Create()\l+ operator()()\l+ GetRow()\l+ GetStationary()\l+ Stationary()\l+ GetNstate()\l+ GetRate()\l+ ScalarMul()\l+ isNormalised()\l+ Normalise()\l+ CorruptMatrix()\l+ UpdateMatrix()\l+ ActivatePowers()\l+ InactivatePowers()\l+ Power()\l+ GetUniformizationMu()\l+ GetEigenVal()\l+ GetEigenVect()\l+ GetInvEigenVect()\l+ GetFiniteTimeTransitionProb()\l+ DrawUniformizedTransition()\l+ DrawUniformizedSubstitution\lNumber()\l+ DrawOneStep()\l+ ToStream()\l+ CheckReversibility()\l+ GetDiagStat()\l+ GetUniSubCount()\l+ GetMeanUni()\l# ComputeExponential()\l# ComputeArray()\l# ComputeStationary()\l# UpdateRow()\l# UpdateStationary()\l# ComputePowers()\l# CreatePowers()\l# ArrayUpdated()\l# Diagonalise()\l}">
<polygon fill="none" stroke="black" points="419.241,-1097.5 419.241,-1583.5 575.241,-1583.5 575.241,-1097.5 419.241,-1097.5"/>
<text text-anchor="middle" x="497.241" y="-1571.5" font-family="Helvetica,sans-Serif" font-size="10.00">SubMatrix</text>
<polyline fill="none" stroke="black" points="419.241,-1564.5 575.241,-1564.5 "/>
<text text-anchor="middle" x="497.241" y="-1552.5" font-family="Helvetica,sans-Serif" font-size="10.00"> </text>
<polyline fill="none" stroke="black" points="419.241,-1545.5 575.241,-1545.5 "/>
<text text-anchor="start" x="427.241" y="-1533.5" font-family="Helvetica,sans-Serif" font-size="10.00">+ SubMatrix()</text>
<text text-anchor="start" x="427.241" y="-1522.5" font-family="Helvetica,sans-Serif" font-size="10.00">+ ~SubMatrix()</text>
<text text-anchor="start" x="427.241" y="-1511.5" font-family="Helvetica,sans-Serif" font-size="10.00">+ Create()</text>
<text text-anchor="start" x="427.241" y="-1500.5" font-family="Helvetica,sans-Serif" font-size="10.00">+ operator()()</text>
<text text-anchor="start" x="427.241" y="-1489.5" font-family="Helvetica,sans-Serif" font-size="10.00">+ GetRow()</text>
<text text-anchor="start" x="427.241" y="-1478.5" font-family="Helvetica,sans-Serif" font-size="10.00">+ GetStationary()</text>
<text text-anchor="start" x="427.241" y="-1467.5" font-family="Helvetica,sans-Serif" font-size="10.00">+ Stationary()</text>
<text text-anchor="start" x="427.241" y="-1456.5" font-family="Helvetica,sans-Serif" font-size="10.00">+ GetNstate()</text>
<text text-anchor="start" x="427.241" y="-1445.5" font-family="Helvetica,sans-Serif" font-size="10.00">+ GetRate()</text>
<text text-anchor="start" x="427.241" y="-1434.5" font-family="Helvetica,sans-Serif" font-size="10.00">+ ScalarMul()</text>
<text text-anchor="start" x="427.241" y="-1423.5" font-family="Helvetica,sans-Serif" font-size="10.00">+ isNormalised()</text>
<text text-anchor="start" x="427.241" y="-1412.5" font-family="Helvetica,sans-Serif" font-size="10.00">+ Normalise()</text>
<text text-anchor="start" x="427.241" y="-1401.5" font-family="Helvetica,sans-Serif" font-size="10.00">+ CorruptMatrix()</text>
<text text-anchor="start" x="427.241" y="-1390.5" font-family="Helvetica,sans-Serif" font-size="10.00">+ UpdateMatrix()</text>
<text text-anchor="start" x="427.241" y="-1379.5" font-family="Helvetica,sans-Serif" font-size="10.00">+ ActivatePowers()</text>
<text text-anchor="start" x="427.241" y="-1368.5" font-family="Helvetica,sans-Serif" font-size="10.00">+ InactivatePowers()</text>
<text text-anchor="start" x="427.241" y="-1357.5" font-family="Helvetica,sans-Serif" font-size="10.00">+ Power()</text>
<text text-anchor="start" x="427.241" y="-1346.5" font-family="Helvetica,sans-Serif" font-size="10.00">+ GetUniformizationMu()</text>
<text text-anchor="start" x="427.241" y="-1335.5" font-family="Helvetica,sans-Serif" font-size="10.00">+ GetEigenVal()</text>
<text text-anchor="start" x="427.241" y="-1324.5" font-family="Helvetica,sans-Serif" font-size="10.00">+ GetEigenVect()</text>
<text text-anchor="start" x="427.241" y="-1313.5" font-family="Helvetica,sans-Serif" font-size="10.00">+ GetInvEigenVect()</text>
<text text-anchor="start" x="427.241" y="-1302.5" font-family="Helvetica,sans-Serif" font-size="10.00">+ GetFiniteTimeTransitionProb()</text>
<text text-anchor="start" x="427.241" y="-1291.5" font-family="Helvetica,sans-Serif" font-size="10.00">+ DrawUniformizedTransition()</text>
<text text-anchor="start" x="427.241" y="-1280.5" font-family="Helvetica,sans-Serif" font-size="10.00">+ DrawUniformizedSubstitution</text>
<text text-anchor="start" x="427.241" y="-1269.5" font-family="Helvetica,sans-Serif" font-size="10.00">Number()</text>
<text text-anchor="start" x="427.241" y="-1258.5" font-family="Helvetica,sans-Serif" font-size="10.00">+ DrawOneStep()</text>
<text text-anchor="start" x="427.241" y="-1247.5" font-family="Helvetica,sans-Serif" font-size="10.00">+ ToStream()</text>
<text text-anchor="start" x="427.241" y="-1236.5" font-family="Helvetica,sans-Serif" font-size="10.00">+ CheckReversibility()</text>
<text text-anchor="start" x="427.241" y="-1225.5" font-family="Helvetica,sans-Serif" font-size="10.00">+ GetDiagStat()</text>
<text text-anchor="start" x="427.241" y="-1214.5" font-family="Helvetica,sans-Serif" font-size="10.00">+ GetUniSubCount()</text>
<text text-anchor="start" x="427.241" y="-1203.5" font-family="Helvetica,sans-Serif" font-size="10.00">+ GetMeanUni()</text>
<text text-anchor="start" x="427.241" y="-1192.5" font-family="Helvetica,sans-Serif" font-size="10.00"># ComputeExponential()</text>
<text text-anchor="start" x="427.241" y="-1181.5" font-family="Helvetica,sans-Serif" font-size="10.00"># ComputeArray()</text>
<text text-anchor="start" x="427.241" y="-1170.5" font-family="Helvetica,sans-Serif" font-size="10.00"># ComputeStationary()</text>
<text text-anchor="start" x="427.241" y="-1159.5" font-family="Helvetica,sans-Serif" font-size="10.00"># UpdateRow()</text>
<text text-anchor="start" x="427.241" y="-1148.5" font-family="Helvetica,sans-Serif" font-size="10.00"># UpdateStationary()</text>
<text text-anchor="start" x="427.241" y="-1137.5" font-family="Helvetica,sans-Serif" font-size="10.00"># ComputePowers()</text>
<text text-anchor="start" x="427.241" y="-1126.5" font-family="Helvetica,sans-Serif" font-size="10.00"># CreatePowers()</text>
<text text-anchor="start" x="427.241" y="-1115.5" font-family="Helvetica,sans-Serif" font-size="10.00"># ArrayUpdated()</text>
<text text-anchor="start" x="427.241" y="-1104.5" font-family="Helvetica,sans-Serif" font-size="10.00"># Diagonalise()</text>
</a>
</g>
</g>
<!-- Node21&#45;&gt;Node25 -->
<g id="edge13" class="edge"><title>Node21&#45;&gt;Node25</title>
<path fill="none" stroke="#404040" d="M592.682,-1741.42C585.217,-1721.27 575.318,-1693.19 568.241,-1668 561.673,-1644.62 555.354,-1620.15 549.378,-1595.58"/>
<polygon fill="none" stroke="#404040" points="549.375,-1595.56 544.081,-1590.67 546.565,-1583.9 551.859,-1588.8 549.375,-1595.56"/>
<text text-anchor="middle" x="597.241" y="-1649" font-family="Helvetica,sans-Serif" font-size="10.00"> #UniMu</text>
<text text-anchor="middle" x="597.241" y="-1638" font-family="Helvetica,sans-Serif" font-size="10.00">#mStationary</text>
<text text-anchor="middle" x="597.241" y="-1627" font-family="Helvetica,sans-Serif" font-size="10.00">#Q</text>
<text text-anchor="middle" x="597.241" y="-1616" font-family="Helvetica,sans-Serif" font-size="10.00">#mPow</text>
</g>
<!-- Node26 -->
<g id="node11" class="node"><title>Node26</title>
<g id="a_node11"><a xlink:href="classFiniteProfileProcess.html" target="_top" target="_top" xlink:title="{FiniteProfileProcess\n||+ FiniteProfileProcess()\l+ ~FiniteProfileProcess()\l+ GetLogNPrior()\l+ SetFixedNcomponent()\l# DrawProfileFromPrior()\l# ReadStatFix()\l# SetStatFix()\l# IncrementalFiniteMove()\l# MoveHyper()\l# MoveWeightAlpha()\l# MoveNcomponent()\l# ResampleWeights()\l# Create()\l# Create()\l# Delete()\l# SampleAlloc()\l# SampleStat()\l# SampleHyper()\l# SampleWeights()\l# LogHyperPrior()\l# LogWeightPrior()\l}">
<polygon fill="none" stroke="black" points="628.241,-172.5 628.241,-449.5 758.241,-449.5 758.241,-172.5 628.241,-172.5"/>
<text text-anchor="middle" x="693.241" y="-437.5" font-family="Helvetica,sans-Serif" font-size="10.00">FiniteProfileProcess</text>
<polyline fill="none" stroke="black" points="628.241,-430.5 758.241,-430.5 "/>
<text text-anchor="middle" x="693.241" y="-418.5" font-family="Helvetica,sans-Serif" font-size="10.00"> </text>
<polyline fill="none" stroke="black" points="628.241,-411.5 758.241,-411.5 "/>
<text text-anchor="start" x="636.241" y="-399.5" font-family="Helvetica,sans-Serif" font-size="10.00">+ FiniteProfileProcess()</text>
<text text-anchor="start" x="636.241" y="-388.5" font-family="Helvetica,sans-Serif" font-size="10.00">+ ~FiniteProfileProcess()</text>
<text text-anchor="start" x="636.241" y="-377.5" font-family="Helvetica,sans-Serif" font-size="10.00">+ GetLogNPrior()</text>
<text text-anchor="start" x="636.241" y="-366.5" font-family="Helvetica,sans-Serif" font-size="10.00">+ SetFixedNcomponent()</text>
<text text-anchor="start" x="636.241" y="-355.5" font-family="Helvetica,sans-Serif" font-size="10.00"># DrawProfileFromPrior()</text>
<text text-anchor="start" x="636.241" y="-344.5" font-family="Helvetica,sans-Serif" font-size="10.00"># ReadStatFix()</text>
<text text-anchor="start" x="636.241" y="-333.5" font-family="Helvetica,sans-Serif" font-size="10.00"># SetStatFix()</text>
<text text-anchor="start" x="636.241" y="-322.5" font-family="Helvetica,sans-Serif" font-size="10.00"># IncrementalFiniteMove()</text>
<text text-anchor="start" x="636.241" y="-311.5" font-family="Helvetica,sans-Serif" font-size="10.00"># MoveHyper()</text>
<text text-anchor="start" x="636.241" y="-300.5" font-family="Helvetica,sans-Serif" font-size="10.00"># MoveWeightAlpha()</text>
<text text-anchor="start" x="636.241" y="-289.5" font-family="Helvetica,sans-Serif" font-size="10.00"># MoveNcomponent()</text>
<text text-anchor="start" x="636.241" y="-278.5" font-family="Helvetica,sans-Serif" font-size="10.00"># ResampleWeights()</text>
<text text-anchor="start" x="636.241" y="-267.5" font-family="Helvetica,sans-Serif" font-size="10.00"># Create()</text>
<text text-anchor="start" x="636.241" y="-256.5" font-family="Helvetica,sans-Serif" font-size="10.00"># Create()</text>
<text text-anchor="start" x="636.241" y="-245.5" font-family="Helvetica,sans-Serif" font-size="10.00"># Delete()</text>
<text text-anchor="start" x="636.241" y="-234.5" font-family="Helvetica,sans-Serif" font-size="10.00"># SampleAlloc()</text>
<text text-anchor="start" x="636.241" y="-223.5" font-family="Helvetica,sans-Serif" font-size="10.00"># SampleStat()</text>
<text text-anchor="start" x="636.241" y="-212.5" font-family="Helvetica,sans-Serif" font-size="10.00"># SampleHyper()</text>
<text text-anchor="start" x="636.241" y="-201.5" font-family="Helvetica,sans-Serif" font-size="10.00"># SampleWeights()</text>
<text text-anchor="start" x="636.241" y="-190.5" font-family="Helvetica,sans-Serif" font-size="10.00"># LogHyperPrior()</text>
<text text-anchor="start" x="636.241" y="-179.5" font-family="Helvetica,sans-Serif" font-size="10.00"># LogWeightPrior()</text>
</a>
</g>
</g>
<!-- Node21&#45;&gt;Node26 -->
<g id="edge19" class="edge"><title>Node21&#45;&gt;Node26</title>
<path fill="none" stroke="#404040" d="M626.046,-1751C648.039,-1733.83 682.431,-1707.48 713.241,-1686 725.377,-1677.54 734.013,-1680.91 741.241,-1668 773.029,-1611.23 758.593,-561.974 755.241,-497 754.574,-484.06 755.225,-480.61 752.241,-468 751.726,-465.823 751.188,-463.635 750.63,-461.439"/>
<polygon fill="none" stroke="#404040" points="750.571,-461.222 745.15,-456.467 747.455,-449.634 752.876,-454.389 750.571,-461.222"/>
<text text-anchor="middle" x="792.741" y="-1071" font-family="Helvetica,sans-Serif" font-size="10.00"> #weightalpha</text>
<text text-anchor="middle" x="792.741" y="-1060" font-family="Helvetica,sans-Serif" font-size="10.00">#empweight</text>
<text text-anchor="middle" x="792.741" y="-1049" font-family="Helvetica,sans-Serif" font-size="10.00">#statfix</text>
<text text-anchor="middle" x="792.741" y="-1038" font-family="Helvetica,sans-Serif" font-size="10.00">#weight</text>
</g>
<!-- Node22 -->
<g id="node7" class="node"><title>Node22</title>
<polygon fill="none" stroke="#bfbfbf" points="722.741,-1741.5 722.741,-1798.5 751.741,-1798.5 751.741,-1741.5 722.741,-1741.5"/>
<text text-anchor="middle" x="737.241" y="-1786.5" font-family="Helvetica,sans-Serif" font-size="10.00">int</text>
<polyline fill="none" stroke="#bfbfbf" points="722.741,-1779.5 751.741,-1779.5 "/>
<text text-anchor="middle" x="737.241" y="-1767.5" font-family="Helvetica,sans-Serif" font-size="10.00"> </text>
<polyline fill="none" stroke="#bfbfbf" points="722.741,-1760.5 751.741,-1760.5 "/>
<text text-anchor="middle" x="737.241" y="-1748.5" font-family="Helvetica,sans-Serif" font-size="10.00"> </text>
</g>
<!-- Node22&#45;&gt;Node19 -->
<g id="edge6" class="edge"><title>Node22&#45;&gt;Node19</title>
<path fill="none" stroke="#404040" d="M722.672,-1752.7C704.204,-1733.22 670.392,-1701.34 634.241,-1686 574.868,-1660.8 541.197,-1707.54 490.241,-1668 465.334,-1648.67 487.123,-1623.69 464.241,-1602 445.88,-1584.6 429.534,-1600.36 410.241,-1584 397.752,-1573.41 386.308,-1561.28 375.854,-1548.23"/>
<polygon fill="none" stroke="#404040" points="375.737,-1548.08 368.907,-1545.76 368.416,-1538.57 375.246,-1540.88 375.737,-1548.08"/>
<text text-anchor="middle" x="519.241" y="-1649" font-family="Helvetica,sans-Serif" font-size="10.00"> #dim</text>
<text text-anchor="middle" x="519.241" y="-1638" font-family="Helvetica,sans-Serif" font-size="10.00">#statinfcount</text>
<text text-anchor="middle" x="519.241" y="-1627" font-family="Helvetica,sans-Serif" font-size="10.00">#totstatcount</text>
<text text-anchor="middle" x="519.241" y="-1616" font-family="Helvetica,sans-Serif" font-size="10.00">#nsite</text>
</g>
<!-- Node22&#45;&gt;Node24 -->
<g id="edge11" class="edge"><title>Node22&#45;&gt;Node24</title>
<path fill="none" stroke="#404040" d="M741.789,-1741.23C744.865,-1720.99 748.647,-1692.88 750.241,-1668 752.117,-1638.73 750.909,-1631.33 750.241,-1602 745.129,-1377.38 773.55,-1316.85 727.241,-1097 719.382,-1059.69 709.08,-1052.91 696.241,-1017 694.607,-1012.43 692.968,-1007.81 691.326,-1003.15"/>
<polygon fill="none" stroke="#404040" points="691.213,-1002.83 685.453,-998.492 687.242,-991.507 693.002,-995.845 691.213,-1002.83"/>
<text text-anchor="middle" x="785.741" y="-1349" font-family="Helvetica,sans-Serif" font-size="10.00"> #occupancy</text>
<text text-anchor="middle" x="785.741" y="-1338" font-family="Helvetica,sans-Serif" font-size="10.00">#Ncomponent</text>
<text text-anchor="middle" x="785.741" y="-1327" font-family="Helvetica,sans-Serif" font-size="10.00">#alloc</text>
</g>
<!-- Node22&#45;&gt;Node25 -->
<g id="edge14" class="edge"><title>Node22&#45;&gt;Node25</title>
<path fill="none" stroke="#404040" d="M723.123,-1741.45C704.59,-1706.77 669.739,-1646.36 630.241,-1602 621.84,-1592.56 615.959,-1594 608.241,-1584 598.775,-1571.73 589.886,-1558.53 581.587,-1544.84"/>
<polygon fill="none" stroke="#404040" points="581.456,-1544.62 574.961,-1541.48 575.355,-1534.28 581.85,-1537.42 581.456,-1544.62"/>
<text text-anchor="middle" x="712.741" y="-1660" font-family="Helvetica,sans-Serif" font-size="10.00"> +nunisubcount</text>
<text text-anchor="middle" x="712.741" y="-1649" font-family="Helvetica,sans-Serif" font-size="10.00">#Nstate</text>
<text text-anchor="middle" x="712.741" y="-1638" font-family="Helvetica,sans-Serif" font-size="10.00">+UniSubNmax</text>
<text text-anchor="middle" x="712.741" y="-1627" font-family="Helvetica,sans-Serif" font-size="10.00">#npow</text>
<text text-anchor="middle" x="712.741" y="-1616" font-family="Helvetica,sans-Serif" font-size="10.00">+nuni</text>
<text text-anchor="middle" x="712.741" y="-1605" font-family="Helvetica,sans-Serif" font-size="10.00">+nunimax</text>
</g>
<!-- Node22&#45;&gt;Node26 -->
<g id="edge20" class="edge"><title>Node22&#45;&gt;Node26</title>
<path fill="none" stroke="#404040" d="M751.839,-1744.64C771.579,-1710.24 805.956,-1644.83 820.241,-1584 933.679,-1100.95 945.647,-938.896 789.241,-468 783.057,-449.381 774.278,-430.675 764.514,-413.007"/>
<polygon fill="none" stroke="#404040" points="764.267,-412.573 757.819,-409.343 758.321,-402.15 764.768,-405.38 764.267,-412.573"/>
<text text-anchor="middle" x="938.741" y="-1060" font-family="Helvetica,sans-Serif" font-size="10.00"> #dirweightprior</text>
<text text-anchor="middle" x="938.741" y="-1049" font-family="Helvetica,sans-Serif" font-size="10.00">#Ncat</text>
</g>
<!-- Node23 -->
<g id="node8" class="node"><title>Node23</title>
<polygon fill="none" stroke="#bfbfbf" points="141.741,-1741.5 141.741,-1798.5 176.741,-1798.5 176.741,-1741.5 141.741,-1741.5"/>
<text text-anchor="middle" x="159.241" y="-1786.5" font-family="Helvetica,sans-Serif" font-size="10.00">bool</text>
<polyline fill="none" stroke="#bfbfbf" points="141.741,-1779.5 176.741,-1779.5 "/>
<text text-anchor="middle" x="159.241" y="-1767.5" font-family="Helvetica,sans-Serif" font-size="10.00"> </text>
<polyline fill="none" stroke="#bfbfbf" points="141.741,-1760.5 176.741,-1760.5 "/>
<text text-anchor="middle" x="159.241" y="-1748.5" font-family="Helvetica,sans-Serif" font-size="10.00"> </text>
</g>
<!-- Node23&#45;&gt;Node19 -->
<g id="edge7" class="edge"><title>Node23&#45;&gt;Node19</title>
<path fill="none" stroke="#404040" d="M159.895,-1741.4C161.216,-1707.95 165.204,-1650.09 177.241,-1602 181.515,-1584.93 186.67,-1567.49 192.374,-1550.13"/>
<polygon fill="none" stroke="#404040" points="192.379,-1550.12 190.497,-1543.15 196.198,-1538.74 198.081,-1545.7 192.379,-1550.12"/>
<text text-anchor="middle" x="211.241" y="-1638" font-family="Helvetica,sans-Serif" font-size="10.00"> #activesuffstat</text>
<text text-anchor="middle" x="211.241" y="-1627" font-family="Helvetica,sans-Serif" font-size="10.00">#burnin</text>
</g>
<!-- Node23&#45;&gt;Node25 -->
<g id="edge15" class="edge"><title>Node23&#45;&gt;Node25</title>
<path fill="none" stroke="#404040" d="M160.933,-1741.37C163.588,-1722.91 170.167,-1699.61 186.241,-1686 227.399,-1651.15 265.685,-1703.55 306.241,-1668 329.196,-1647.88 304.236,-1624.15 325.241,-1602 342.071,-1584.25 358.891,-1600.17 377.241,-1584 390.056,-1572.71 401.651,-1559.73 412.115,-1545.78"/>
<polygon fill="none" stroke="#404040" points="412.166,-1545.71 412.427,-1538.5 419.179,-1535.97 418.918,-1543.18 412.166,-1545.71"/>
<text text-anchor="middle" x="349.241" y="-1654.5" font-family="Helvetica,sans-Serif" font-size="10.00"> #flagarray</text>
<text text-anchor="middle" x="349.241" y="-1643.5" font-family="Helvetica,sans-Serif" font-size="10.00">#diagflag</text>
<text text-anchor="middle" x="349.241" y="-1632.5" font-family="Helvetica,sans-Serif" font-size="10.00">#powflag</text>
<text text-anchor="middle" x="349.241" y="-1621.5" font-family="Helvetica,sans-Serif" font-size="10.00">#normalise</text>
<text text-anchor="middle" x="349.241" y="-1610.5" font-family="Helvetica,sans-Serif" font-size="10.00">#statflag</text>
</g>
<!-- Node23&#45;&gt;Node26 -->
<g id="edge21" class="edge"><title>Node23&#45;&gt;Node26</title>
<path fill="none" stroke="#404040" d="M147.956,-1741.12C89.2498,-1591.07 -165.893,-872.485 171.241,-497 231.035,-430.404 491.934,-491.481 571.241,-450 588.723,-440.856 604.865,-428.104 619.297,-414.015"/>
<polygon fill="none" stroke="#404040" points="619.652,-413.653 621.001,-406.569 628.058,-405.09 626.71,-412.174 619.652,-413.653"/>
<text text-anchor="middle" x="24.2413" y="-1060" font-family="Helvetica,sans-Serif" font-size="10.00"> #empmix</text>
<text text-anchor="middle" x="24.2413" y="-1049" font-family="Helvetica,sans-Serif" font-size="10.00">#fixncomp</text>
</g>
<!-- Node24&#45;&gt;Node17 -->
<g id="edge8" class="edge"><title>Node24&#45;&gt;Node17</title>
<path fill="none" stroke="midnightblue" d="M533.306,-487.758C527.231,-466.849 521.323,-446.513 515.809,-427.537"/>
<polygon fill="none" stroke="midnightblue" points="529.957,-488.776 536.108,-497.402 536.679,-486.823 529.957,-488.776"/>
</g>
<!-- Node24&#45;&gt;Node26 -->
<g id="edge17" class="edge"><title>Node24&#45;&gt;Node26</title>
<path fill="none" stroke="midnightblue" d="M660.827,-487.512C663.206,-474.631 665.545,-461.968 667.809,-449.708"/>
<polygon fill="none" stroke="midnightblue" points="657.375,-486.933 659,-497.402 664.258,-488.204 657.375,-486.933"/>
</g>
<!-- Node25&#45;&gt;Node17 -->
<g id="edge12" class="edge"><title>Node25&#45;&gt;Node17</title>
<path fill="none" stroke="#404040" d="M473.086,-1097.08C471.098,-1070.09 469.407,-1042.97 468.241,-1017 457.882,-786.121 459.515,-727.946 468.241,-497 468.938,-478.562 470.024,-459.113 471.29,-440.028"/>
<polygon fill="none" stroke="#404040" points="471.302,-439.852 467.721,-433.593 472.122,-427.88 475.703,-434.14 471.302,-439.852"/>
<text text-anchor="middle" x="497.241" y="-754.5" font-family="Helvetica,sans-Serif" font-size="10.00"> #matrixarray</text>
</g>
<!-- Node26&#45;&gt;Node16 -->
<g id="edge16" class="edge"><title>Node26&#45;&gt;Node16</title>
<path fill="none" stroke="midnightblue" d="M642.585,-162.608C639.271,-152.966 636.039,-143.563 632.98,-134.661"/>
<polygon fill="none" stroke="midnightblue" points="639.362,-164 645.922,-172.319 645.982,-161.725 639.362,-164"/>
</g>
<!-- Node27 -->
<g id="node12" class="node"><title>Node27</title>
<polygon fill="none" stroke="#bfbfbf" points="705.741,-728.5 705.741,-785.5 746.741,-785.5 746.741,-728.5 705.741,-728.5"/>
<text text-anchor="middle" x="726.241" y="-773.5" font-family="Helvetica,sans-Serif" font-size="10.00">string</text>
<polyline fill="none" stroke="#bfbfbf" points="705.741,-766.5 746.741,-766.5 "/>
<text text-anchor="middle" x="726.241" y="-754.5" font-family="Helvetica,sans-Serif" font-size="10.00"> </text>
<polyline fill="none" stroke="#bfbfbf" points="705.741,-747.5 746.741,-747.5 "/>
<text text-anchor="middle" x="726.241" y="-735.5" font-family="Helvetica,sans-Serif" font-size="10.00"> </text>
</g>
<!-- Node27&#45;&gt;Node26 -->
<g id="edge18" class="edge"><title>Node27&#45;&gt;Node26</title>
<path fill="none" stroke="#404040" d="M724.177,-728.226C720.273,-675.693 711.553,-558.37 704.363,-461.632"/>
<polygon fill="none" stroke="#404040" points="704.361,-461.609 699.927,-455.922 703.471,-449.642 707.905,-455.329 704.361,-461.609"/>
<text text-anchor="middle" x="726.741" y="-471" font-family="Helvetica,sans-Serif" font-size="10.00"> #mixtype</text>
</g>
</g>
</svg>
