<?xml version="1.0" encoding="UTF-8" standalone="no"?>
<!DOCTYPE svg PUBLIC "-//W3C//DTD SVG 1.1//EN"
 "http://www.w3.org/Graphics/SVG/1.1/DTD/svg11.dtd">
<!-- Generated by graphviz version 2.38.0 (20140413.2041)
 -->
<!-- Title: AACodonMutSelProfileSubMatrix Pages: 1 -->
<svg width="620pt" height="1086pt"
 viewBox="0.00 0.00 619.50 1086.00" xmlns="http://www.w3.org/2000/svg" xmlns:xlink="http://www.w3.org/1999/xlink">
<g id="graph0" class="graph" transform="scale(1 1) rotate(0) translate(4 1082)">
<title>AACodonMutSelProfileSubMatrix</title>
<!-- Node3 -->
<g id="node1" class="node"><title>Node3</title>
<polygon fill="#bfbfbf" stroke="black" points="0,-0.5 0,-112.5 176,-112.5 176,-0.5 0,-0.5"/>
<text text-anchor="middle" x="88" y="-100.5" font-family="Helvetica,sans-Serif" font-size="10.00">AACodonMutSelProfileSubMatrix</text>
<polyline fill="none" stroke="black" points="0,-93.5 176,-93.5 "/>
<text text-anchor="middle" x="88" y="-81.5" font-family="Helvetica,sans-Serif" font-size="10.00"> </text>
<polyline fill="none" stroke="black" points="0,-74.5 176,-74.5 "/>
<text text-anchor="start" x="8" y="-62.5" font-family="Helvetica,sans-Serif" font-size="10.00">+ AACodonMutSelProfileSubMatrix()</text>
<text text-anchor="start" x="8" y="-51.5" font-family="Helvetica,sans-Serif" font-size="10.00">+ GetAAProfile()</text>
<text text-anchor="start" x="8" y="-40.5" font-family="Helvetica,sans-Serif" font-size="10.00">+ GetCodonProfile()</text>
<text text-anchor="start" x="8" y="-29.5" font-family="Helvetica,sans-Serif" font-size="10.00"># ComputeArray()</text>
<text text-anchor="start" x="8" y="-18.5" font-family="Helvetica,sans-Serif" font-size="10.00"># ComputeStationary()</text>
<text text-anchor="start" x="8" y="-7.5" font-family="Helvetica,sans-Serif" font-size="10.00"># GetRate()</text>
</g>
<!-- Node4 -->
<g id="node2" class="node"><title>Node4</title>
<g id="a_node2"><a xlink:href="classCodonSubMatrix.html" target="_top" xlink:title="{CodonSubMatrix\n||+ CodonSubMatrix()\l+ GetCodonStateSpace()\l+ GetNstate()\l+ Synonymous()\l+ GetCodonPosition()\l+ GetDifferingPosition()\l+ GetNucRRIndex()\l# ComputeArray()\l# ComputeStationary()\l}">
<polygon fill="none" stroke="black" points="218.5,-150.5 218.5,-295.5 345.5,-295.5 345.5,-150.5 218.5,-150.5"/>
<text text-anchor="middle" x="282" y="-283.5" font-family="Helvetica,sans-Serif" font-size="10.00">CodonSubMatrix</text>
<polyline fill="none" stroke="black" points="218.5,-276.5 345.5,-276.5 "/>
<text text-anchor="middle" x="282" y="-264.5" font-family="Helvetica,sans-Serif" font-size="10.00"> </text>
<polyline fill="none" stroke="black" points="218.5,-257.5 345.5,-257.5 "/>
<text text-anchor="start" x="226.5" y="-245.5" font-family="Helvetica,sans-Serif" font-size="10.00">+ CodonSubMatrix()</text>
<text text-anchor="start" x="226.5" y="-234.5" font-family="Helvetica,sans-Serif" font-size="10.00">+ GetCodonStateSpace()</text>
<text text-anchor="start" x="226.5" y="-223.5" font-family="Helvetica,sans-Serif" font-size="10.00">+ GetNstate()</text>
<text text-anchor="start" x="226.5" y="-212.5" font-family="Helvetica,sans-Serif" font-size="10.00">+ Synonymous()</text>
<text text-anchor="start" x="226.5" y="-201.5" font-family="Helvetica,sans-Serif" font-size="10.00">+ GetCodonPosition()</text>
<text text-anchor="start" x="226.5" y="-190.5" font-family="Helvetica,sans-Serif" font-size="10.00">+ GetDifferingPosition()</text>
<text text-anchor="start" x="226.5" y="-179.5" font-family="Helvetica,sans-Serif" font-size="10.00">+ GetNucRRIndex()</text>
<text text-anchor="start" x="226.5" y="-168.5" font-family="Helvetica,sans-Serif" font-size="10.00"># ComputeArray()</text>
<text text-anchor="start" x="226.5" y="-157.5" font-family="Helvetica,sans-Serif" font-size="10.00"># ComputeStationary()</text>
</a>
</g>
</g>
<!-- Node4&#45;&gt;Node3 -->
<g id="edge1" class="edge"><title>Node4&#45;&gt;Node3</title>
<path fill="none" stroke="midnightblue" d="M210.753,-161.587C191.852,-145.56 171.544,-128.341 152.995,-112.612"/>
<polygon fill="none" stroke="midnightblue" points="208.586,-164.339 218.477,-168.137 213.114,-159 208.586,-164.339"/>
</g>
<!-- Node5 -->
<g id="node3" class="node"><title>Node5</title>
<g id="a_node3"><a xlink:href="classSubMatrix.html" target="_top" xlink:title="{SubMatrix\n||+ SubMatrix()\l+ ~SubMatrix()\l+ Create()\l+ operator()()\l+ GetRow()\l+ GetStationary()\l+ Stationary()\l+ GetNstate()\l+ GetRate()\l+ ScalarMul()\l+ isNormalised()\l+ Normalise()\l+ CorruptMatrix()\l+ UpdateMatrix()\l+ ActivatePowers()\l+ InactivatePowers()\l+ Power()\l+ GetUniformizationMu()\l+ GetEigenVal()\l+ GetEigenVect()\l+ GetInvEigenVect()\l+ GetFiniteTimeTransitionProb()\l+ DrawUniformizedTransition()\l+ DrawUniformizedSubstitution\lNumber()\l+ DrawOneStep()\l+ ToStream()\l+ CheckReversibility()\l+ GetDiagStat()\l+ GetUniSubCount()\l+ GetMeanUni()\l# ComputeExponential()\l# ComputeArray()\l# ComputeStationary()\l# UpdateRow()\l# UpdateStationary()\l# ComputePowers()\l# CreatePowers()\l# ArrayUpdated()\l# Diagonalise()\l}">
<polygon fill="none" stroke="black" points="204,-398.5 204,-884.5 360,-884.5 360,-398.5 204,-398.5"/>
<text text-anchor="middle" x="282" y="-872.5" font-family="Helvetica,sans-Serif" font-size="10.00">SubMatrix</text>
<polyline fill="none" stroke="black" points="204,-865.5 360,-865.5 "/>
<text text-anchor="middle" x="282" y="-853.5" font-family="Helvetica,sans-Serif" font-size="10.00"> </text>
<polyline fill="none" stroke="black" points="204,-846.5 360,-846.5 "/>
<text text-anchor="start" x="212" y="-834.5" font-family="Helvetica,sans-Serif" font-size="10.00">+ SubMatrix()</text>
<text text-anchor="start" x="212" y="-823.5" font-family="Helvetica,sans-Serif" font-size="10.00">+ ~SubMatrix()</text>
<text text-anchor="start" x="212" y="-812.5" font-family="Helvetica,sans-Serif" font-size="10.00">+ Create()</text>
<text text-anchor="start" x="212" y="-801.5" font-family="Helvetica,sans-Serif" font-size="10.00">+ operator()()</text>
<text text-anchor="start" x="212" y="-790.5" font-family="Helvetica,sans-Serif" font-size="10.00">+ GetRow()</text>
<text text-anchor="start" x="212" y="-779.5" font-family="Helvetica,sans-Serif" font-size="10.00">+ GetStationary()</text>
<text text-anchor="start" x="212" y="-768.5" font-family="Helvetica,sans-Serif" font-size="10.00">+ Stationary()</text>
<text text-anchor="start" x="212" y="-757.5" font-family="Helvetica,sans-Serif" font-size="10.00">+ GetNstate()</text>
<text text-anchor="start" x="212" y="-746.5" font-family="Helvetica,sans-Serif" font-size="10.00">+ GetRate()</text>
<text text-anchor="start" x="212" y="-735.5" font-family="Helvetica,sans-Serif" font-size="10.00">+ ScalarMul()</text>
<text text-anchor="start" x="212" y="-724.5" font-family="Helvetica,sans-Serif" font-size="10.00">+ isNormalised()</text>
<text text-anchor="start" x="212" y="-713.5" font-family="Helvetica,sans-Serif" font-size="10.00">+ Normalise()</text>
<text text-anchor="start" x="212" y="-702.5" font-family="Helvetica,sans-Serif" font-size="10.00">+ CorruptMatrix()</text>
<text text-anchor="start" x="212" y="-691.5" font-family="Helvetica,sans-Serif" font-size="10.00">+ UpdateMatrix()</text>
<text text-anchor="start" x="212" y="-680.5" font-family="Helvetica,sans-Serif" font-size="10.00">+ ActivatePowers()</text>
<text text-anchor="start" x="212" y="-669.5" font-family="Helvetica,sans-Serif" font-size="10.00">+ InactivatePowers()</text>
<text text-anchor="start" x="212" y="-658.5" font-family="Helvetica,sans-Serif" font-size="10.00">+ Power()</text>
<text text-anchor="start" x="212" y="-647.5" font-family="Helvetica,sans-Serif" font-size="10.00">+ GetUniformizationMu()</text>
<text text-anchor="start" x="212" y="-636.5" font-family="Helvetica,sans-Serif" font-size="10.00">+ GetEigenVal()</text>
<text text-anchor="start" x="212" y="-625.5" font-family="Helvetica,sans-Serif" font-size="10.00">+ GetEigenVect()</text>
<text text-anchor="start" x="212" y="-614.5" font-family="Helvetica,sans-Serif" font-size="10.00">+ GetInvEigenVect()</text>
<text text-anchor="start" x="212" y="-603.5" font-family="Helvetica,sans-Serif" font-size="10.00">+ GetFiniteTimeTransitionProb()</text>
<text text-anchor="start" x="212" y="-592.5" font-family="Helvetica,sans-Serif" font-size="10.00">+ DrawUniformizedTransition()</text>
<text text-anchor="start" x="212" y="-581.5" font-family="Helvetica,sans-Serif" font-size="10.00">+ DrawUniformizedSubstitution</text>
<text text-anchor="start" x="212" y="-570.5" font-family="Helvetica,sans-Serif" font-size="10.00">Number()</text>
<text text-anchor="start" x="212" y="-559.5" font-family="Helvetica,sans-Serif" font-size="10.00">+ DrawOneStep()</text>
<text text-anchor="start" x="212" y="-548.5" font-family="Helvetica,sans-Serif" font-size="10.00">+ ToStream()</text>
<text text-anchor="start" x="212" y="-537.5" font-family="Helvetica,sans-Serif" font-size="10.00">+ CheckReversibility()</text>
<text text-anchor="start" x="212" y="-526.5" font-family="Helvetica,sans-Serif" font-size="10.00">+ GetDiagStat()</text>
<text text-anchor="start" x="212" y="-515.5" font-family="Helvetica,sans-Serif" font-size="10.00">+ GetUniSubCount()</text>
<text text-anchor="start" x="212" y="-504.5" font-family="Helvetica,sans-Serif" font-size="10.00">+ GetMeanUni()</text>
<text text-anchor="start" x="212" y="-493.5" font-family="Helvetica,sans-Serif" font-size="10.00"># ComputeExponential()</text>
<text text-anchor="start" x="212" y="-482.5" font-family="Helvetica,sans-Serif" font-size="10.00"># ComputeArray()</text>
<text text-anchor="start" x="212" y="-471.5" font-family="Helvetica,sans-Serif" font-size="10.00"># ComputeStationary()</text>
<text text-anchor="start" x="212" y="-460.5" font-family="Helvetica,sans-Serif" font-size="10.00"># UpdateRow()</text>
<text text-anchor="start" x="212" y="-449.5" font-family="Helvetica,sans-Serif" font-size="10.00"># UpdateStationary()</text>
<text text-anchor="start" x="212" y="-438.5" font-family="Helvetica,sans-Serif" font-size="10.00"># ComputePowers()</text>
<text text-anchor="start" x="212" y="-427.5" font-family="Helvetica,sans-Serif" font-size="10.00"># CreatePowers()</text>
<text text-anchor="start" x="212" y="-416.5" font-family="Helvetica,sans-Serif" font-size="10.00"># ArrayUpdated()</text>
<text text-anchor="start" x="212" y="-405.5" font-family="Helvetica,sans-Serif" font-size="10.00"># Diagonalise()</text>
</a>
</g>
</g>
<!-- Node5&#45;&gt;Node4 -->
<g id="edge2" class="edge"><title>Node5&#45;&gt;Node4</title>
<path fill="none" stroke="midnightblue" d="M282,-388.179C282,-354.42 282,-322.28 282,-295.532"/>
<polygon fill="none" stroke="midnightblue" points="278.5,-388.22 282,-398.22 285.5,-388.22 278.5,-388.22"/>
</g>
<!-- Node6 -->
<g id="node4" class="node"><title>Node6</title>
<polygon fill="none" stroke="#bfbfbf" points="122.5,-1004 122.5,-1061 167.5,-1061 167.5,-1004 122.5,-1004"/>
<text text-anchor="middle" x="145" y="-1049" font-family="Helvetica,sans-Serif" font-size="10.00">double</text>
<polyline fill="none" stroke="#bfbfbf" points="122.5,-1042 167.5,-1042 "/>
<text text-anchor="middle" x="145" y="-1030" font-family="Helvetica,sans-Serif" font-size="10.00"> </text>
<polyline fill="none" stroke="#bfbfbf" points="122.5,-1023 167.5,-1023 "/>
<text text-anchor="middle" x="145" y="-1011" font-family="Helvetica,sans-Serif" font-size="10.00"> </text>
</g>
<!-- Node6&#45;&gt;Node3 -->
<g id="edge11" class="edge"><title>Node6&#45;&gt;Node3</title>
<path fill="none" stroke="#404040" d="M132.952,-1003.92C128.652,-993.187 124.109,-980.682 121,-969 111.285,-932.493 113.337,-922.399 108,-885 71.9086,-632.095 19.3633,-568.463 42,-314 47.7711,-249.127 61.5979,-176.103 72.5954,-124.61"/>
<polygon fill="none" stroke="#404040" points="72.644,-124.385 70.0025,-117.675 75.1802,-112.656 77.8218,-119.366 72.644,-124.385"/>
<text text-anchor="middle" x="99.5" y="-372" font-family="Helvetica,sans-Serif" font-size="10.00"> #TOOLARGENEGATIVE</text>
<text text-anchor="middle" x="99.5" y="-361" font-family="Helvetica,sans-Serif" font-size="10.00">#aaprofile</text>
<text text-anchor="middle" x="99.5" y="-350" font-family="Helvetica,sans-Serif" font-size="10.00">#TOOSMALL</text>
<text text-anchor="middle" x="99.5" y="-339" font-family="Helvetica,sans-Serif" font-size="10.00">#omega</text>
<text text-anchor="middle" x="99.5" y="-328" font-family="Helvetica,sans-Serif" font-size="10.00">#TOOLARGE</text>
<text text-anchor="middle" x="99.5" y="-317" font-family="Helvetica,sans-Serif" font-size="10.00">#codonprofile</text>
</g>
<!-- Node6&#45;&gt;Node4 -->
<g id="edge6" class="edge"><title>Node6&#45;&gt;Node4</title>
<path fill="none" stroke="#404040" d="M139.592,-1003.96C123.105,-913.897 79.0121,-621.123 154,-398 165.968,-362.39 188.17,-328.005 210.763,-299.34"/>
<polygon fill="none" stroke="#404040" points="210.89,-299.183 211.545,-292.002 218.426,-289.844 217.771,-297.026 210.89,-299.183"/>
<text text-anchor="middle" x="174.5" y="-644.5" font-family="Helvetica,sans-Serif" font-size="10.00"> #nucstat</text>
<text text-anchor="middle" x="174.5" y="-633.5" font-family="Helvetica,sans-Serif" font-size="10.00">#nucrr</text>
</g>
<!-- Node6&#45;&gt;Node5 -->
<g id="edge3" class="edge"><title>Node6&#45;&gt;Node5</title>
<path fill="none" stroke="#404040" d="M154.743,-1003.84C164.852,-975.132 181.706,-927.277 199.893,-875.635"/>
<polygon fill="none" stroke="#404040" points="199.93,-875.531 198.15,-868.543 203.916,-864.212 205.696,-871.2 199.93,-875.531"/>
<text text-anchor="middle" x="219" y="-950" font-family="Helvetica,sans-Serif" font-size="10.00"> #UniMu</text>
<text text-anchor="middle" x="219" y="-939" font-family="Helvetica,sans-Serif" font-size="10.00">#mStationary</text>
<text text-anchor="middle" x="219" y="-928" font-family="Helvetica,sans-Serif" font-size="10.00">#Q</text>
<text text-anchor="middle" x="219" y="-917" font-family="Helvetica,sans-Serif" font-size="10.00">#mPow</text>
</g>
<!-- Node7 -->
<g id="node5" class="node"><title>Node7</title>
<polygon fill="none" stroke="#bfbfbf" points="444.5,-1004 444.5,-1061 473.5,-1061 473.5,-1004 444.5,-1004"/>
<text text-anchor="middle" x="459" y="-1049" font-family="Helvetica,sans-Serif" font-size="10.00">int</text>
<polyline fill="none" stroke="#bfbfbf" points="444.5,-1042 473.5,-1042 "/>
<text text-anchor="middle" x="459" y="-1030" font-family="Helvetica,sans-Serif" font-size="10.00"> </text>
<polyline fill="none" stroke="#bfbfbf" points="444.5,-1023 473.5,-1023 "/>
<text text-anchor="middle" x="459" y="-1011" font-family="Helvetica,sans-Serif" font-size="10.00"> </text>
</g>
<!-- Node7&#45;&gt;Node5 -->
<g id="edge4" class="edge"><title>Node7&#45;&gt;Node5</title>
<path fill="none" stroke="#404040" d="M444.448,-1004.6C430.091,-978.371 407.269,-937.511 386,-903 380.955,-894.815 378.4,-893.549 374,-885 371.112,-879.389 368.264,-873.665 365.462,-867.857"/>
<polygon fill="none" stroke="#404040" points="365.264,-867.44 359.081,-863.729 360.128,-856.595 366.311,-860.305 365.264,-867.44"/>
<text text-anchor="middle" x="456.5" y="-961" font-family="Helvetica,sans-Serif" font-size="10.00"> +nunisubcount</text>
<text text-anchor="middle" x="456.5" y="-950" font-family="Helvetica,sans-Serif" font-size="10.00">#Nstate</text>
<text text-anchor="middle" x="456.5" y="-939" font-family="Helvetica,sans-Serif" font-size="10.00">+UniSubNmax</text>
<text text-anchor="middle" x="456.5" y="-928" font-family="Helvetica,sans-Serif" font-size="10.00">#npow</text>
<text text-anchor="middle" x="456.5" y="-917" font-family="Helvetica,sans-Serif" font-size="10.00">+nuni</text>
<text text-anchor="middle" x="456.5" y="-906" font-family="Helvetica,sans-Serif" font-size="10.00">+nunimax</text>
</g>
<!-- Node9 -->
<g id="node7" class="node"><title>Node9</title>
<g id="a_node7"><a xlink:href="classCodonStateSpace.html" target="_top" xlink:title="{CodonStateSpace\n||+ CodonStateSpace()\l+ ~CodonStateSpace()\l+ GetNstate()\l+ GetState()\l+ GetState()\l+ GetDNAStateSpace()\l+ GetProteinStateSpace()\l+ GetCodonFromDNA()\l+ GetDifferingPosition()\l+ GetCodonPosition()\l+ IsNonCTNearest()\l+ Translation()\l+ Synonymous()\l+ TranslationWithStops()\l+ CheckStop()\l+ GetDegeneracy()\l+ GetNstop()\l+ GetStopPos1()\l+ GetStopPos2()\l+ GetStopPos3()\l}">
<polygon fill="none" stroke="black" points="465.5,-508.5 465.5,-774.5 594.5,-774.5 594.5,-508.5 465.5,-508.5"/>
<text text-anchor="middle" x="530" y="-762.5" font-family="Helvetica,sans-Serif" font-size="10.00">CodonStateSpace</text>
<polyline fill="none" stroke="black" points="465.5,-755.5 594.5,-755.5 "/>
<text text-anchor="middle" x="530" y="-743.5" font-family="Helvetica,sans-Serif" font-size="10.00"> </text>
<polyline fill="none" stroke="black" points="465.5,-736.5 594.5,-736.5 "/>
<text text-anchor="start" x="473.5" y="-724.5" font-family="Helvetica,sans-Serif" font-size="10.00">+ CodonStateSpace()</text>
<text text-anchor="start" x="473.5" y="-713.5" font-family="Helvetica,sans-Serif" font-size="10.00">+ ~CodonStateSpace()</text>
<text text-anchor="start" x="473.5" y="-702.5" font-family="Helvetica,sans-Serif" font-size="10.00">+ GetNstate()</text>
<text text-anchor="start" x="473.5" y="-691.5" font-family="Helvetica,sans-Serif" font-size="10.00">+ GetState()</text>
<text text-anchor="start" x="473.5" y="-680.5" font-family="Helvetica,sans-Serif" font-size="10.00">+ GetState()</text>
<text text-anchor="start" x="473.5" y="-669.5" font-family="Helvetica,sans-Serif" font-size="10.00">+ GetDNAStateSpace()</text>
<text text-anchor="start" x="473.5" y="-658.5" font-family="Helvetica,sans-Serif" font-size="10.00">+ GetProteinStateSpace()</text>
<text text-anchor="start" x="473.5" y="-647.5" font-family="Helvetica,sans-Serif" font-size="10.00">+ GetCodonFromDNA()</text>
<text text-anchor="start" x="473.5" y="-636.5" font-family="Helvetica,sans-Serif" font-size="10.00">+ GetDifferingPosition()</text>
<text text-anchor="start" x="473.5" y="-625.5" font-family="Helvetica,sans-Serif" font-size="10.00">+ GetCodonPosition()</text>
<text text-anchor="start" x="473.5" y="-614.5" font-family="Helvetica,sans-Serif" font-size="10.00">+ IsNonCTNearest()</text>
<text text-anchor="start" x="473.5" y="-603.5" font-family="Helvetica,sans-Serif" font-size="10.00">+ Translation()</text>
<text text-anchor="start" x="473.5" y="-592.5" font-family="Helvetica,sans-Serif" font-size="10.00">+ Synonymous()</text>
<text text-anchor="start" x="473.5" y="-581.5" font-family="Helvetica,sans-Serif" font-size="10.00">+ TranslationWithStops()</text>
<text text-anchor="start" x="473.5" y="-570.5" font-family="Helvetica,sans-Serif" font-size="10.00">+ CheckStop()</text>
<text text-anchor="start" x="473.5" y="-559.5" font-family="Helvetica,sans-Serif" font-size="10.00">+ GetDegeneracy()</text>
<text text-anchor="start" x="473.5" y="-548.5" font-family="Helvetica,sans-Serif" font-size="10.00">+ GetNstop()</text>
<text text-anchor="start" x="473.5" y="-537.5" font-family="Helvetica,sans-Serif" font-size="10.00">+ GetStopPos1()</text>
<text text-anchor="start" x="473.5" y="-526.5" font-family="Helvetica,sans-Serif" font-size="10.00">+ GetStopPos2()</text>
<text text-anchor="start" x="473.5" y="-515.5" font-family="Helvetica,sans-Serif" font-size="10.00">+ GetStopPos3()</text>
</a>
</g>
</g>
<!-- Node7&#45;&gt;Node9 -->
<g id="edge10" class="edge"><title>Node7&#45;&gt;Node9</title>
<path fill="none" stroke="#404040" d="M473.55,-1012.63C481.885,-1000.77 491.712,-984.773 497,-969 516.36,-911.257 525.306,-844.809 529.159,-786.993"/>
<polygon fill="none" stroke="#404040" points="529.173,-786.77 525.547,-780.537 529.906,-774.793 533.532,-781.026 529.173,-786.77"/>
<text text-anchor="middle" x="530.5" y="-933.5" font-family="Helvetica,sans-Serif" font-size="10.00"> +Npos</text>
</g>
<!-- Node8 -->
<g id="node6" class="node"><title>Node8</title>
<polygon fill="none" stroke="#bfbfbf" points="337.5,-1004 337.5,-1061 372.5,-1061 372.5,-1004 337.5,-1004"/>
<text text-anchor="middle" x="355" y="-1049" font-family="Helvetica,sans-Serif" font-size="10.00">bool</text>
<polyline fill="none" stroke="#bfbfbf" points="337.5,-1042 372.5,-1042 "/>
<text text-anchor="middle" x="355" y="-1030" font-family="Helvetica,sans-Serif" font-size="10.00"> </text>
<polyline fill="none" stroke="#bfbfbf" points="337.5,-1023 372.5,-1023 "/>
<text text-anchor="middle" x="355" y="-1011" font-family="Helvetica,sans-Serif" font-size="10.00"> </text>
</g>
<!-- Node8&#45;&gt;Node4 -->
<g id="edge7" class="edge"><title>Node8&#45;&gt;Node4</title>
<path fill="none" stroke="#404040" d="M369.763,-1003.99C374.683,-993.368 379.535,-980.922 382,-969 387.939,-940.274 382.377,-932.331 382,-903 379.111,-678.5 423.391,-615.831 369,-398 361.199,-366.758 347.141,-334.652 332.569,-306.659"/>
<polygon fill="none" stroke="#404040" points="332.394,-306.331 326.043,-302.917 326.752,-295.74 333.103,-299.155 332.394,-306.331"/>
<text text-anchor="middle" x="422.5" y="-639" font-family="Helvetica,sans-Serif" font-size="10.00"> #normalise</text>
</g>
<!-- Node8&#45;&gt;Node5 -->
<g id="edge5" class="edge"><title>Node8&#45;&gt;Node5</title>
<path fill="none" stroke="#404040" d="M344.587,-1003.79C340.841,-993.043 336.842,-980.561 334,-969 328.26,-945.648 323.005,-921.196 318.232,-896.628"/>
<polygon fill="none" stroke="#404040" points="318.179,-896.349 313.124,-891.206 315.927,-884.562 320.982,-889.705 318.179,-896.349"/>
<text text-anchor="middle" x="358" y="-955.5" font-family="Helvetica,sans-Serif" font-size="10.00"> #flagarray</text>
<text text-anchor="middle" x="358" y="-944.5" font-family="Helvetica,sans-Serif" font-size="10.00">#diagflag</text>
<text text-anchor="middle" x="358" y="-933.5" font-family="Helvetica,sans-Serif" font-size="10.00">#powflag</text>
<text text-anchor="middle" x="358" y="-922.5" font-family="Helvetica,sans-Serif" font-size="10.00">#normalise</text>
<text text-anchor="middle" x="358" y="-911.5" font-family="Helvetica,sans-Serif" font-size="10.00">#statflag</text>
</g>
<!-- Node9&#45;&gt;Node4 -->
<g id="edge8" class="edge"><title>Node9&#45;&gt;Node4</title>
<path fill="none" stroke="#404040" d="M504.081,-508.254C486.203,-444.019 456.921,-369.03 410,-314 394.691,-296.045 375.035,-279.913 355.744,-266.434"/>
<polygon fill="none" stroke="#404040" points="355.646,-266.368 348.435,-266.31 345.714,-259.632 352.925,-259.689 355.646,-266.368"/>
<text text-anchor="middle" x="481.5" y="-344.5" font-family="Helvetica,sans-Serif" font-size="10.00"> #statespace</text>
</g>
<!-- Node10 -->
<g id="node8" class="node"><title>Node10</title>
<g id="a_node8"><a xlink:href="classStateSpace.html" target="_top" xlink:title="{StateSpace\n||+ ~StateSpace()\l+ GetState()\l+ GetNstate()\l+ GetState()\l}">
<polygon fill="none" stroke="black" points="522.5,-987.5 522.5,-1077.5 611.5,-1077.5 611.5,-987.5 522.5,-987.5"/>
<text text-anchor="middle" x="567" y="-1065.5" font-family="Helvetica,sans-Serif" font-size="10.00">StateSpace</text>
<polyline fill="none" stroke="black" points="522.5,-1058.5 611.5,-1058.5 "/>
<text text-anchor="middle" x="567" y="-1046.5" font-family="Helvetica,sans-Serif" font-size="10.00"> </text>
<polyline fill="none" stroke="black" points="522.5,-1039.5 611.5,-1039.5 "/>
<text text-anchor="start" x="530.5" y="-1027.5" font-family="Helvetica,sans-Serif" font-size="10.00">+ ~StateSpace()</text>
<text text-anchor="start" x="530.5" y="-1016.5" font-family="Helvetica,sans-Serif" font-size="10.00">+ GetState()</text>
<text text-anchor="start" x="530.5" y="-1005.5" font-family="Helvetica,sans-Serif" font-size="10.00">+ GetNstate()</text>
<text text-anchor="start" x="530.5" y="-994.5" font-family="Helvetica,sans-Serif" font-size="10.00">+ GetState()</text>
</a>
</g>
</g>
<!-- Node10&#45;&gt;Node9 -->
<g id="edge9" class="edge"><title>Node10&#45;&gt;Node9</title>
<path fill="none" stroke="midnightblue" d="M561.837,-977.215C556.874,-925.039 549.178,-844.126 542.596,-774.925"/>
<polygon fill="none" stroke="midnightblue" points="558.36,-977.632 562.792,-987.255 565.329,-976.969 558.36,-977.632"/>
</g>
</g>
</svg>
