<?xml version="1.0" encoding="UTF-8" standalone="no"?>
<!DOCTYPE svg PUBLIC "-//W3C//DTD SVG 1.1//EN"
 "http://www.w3.org/Graphics/SVG/1.1/DTD/svg11.dtd">
<!-- Generated by graphviz version 2.38.0 (20140413.2041)
 -->
<!-- Title: GTRSubMatrix Pages: 1 -->
<svg width="387pt" height="838pt"
 viewBox="0.00 0.00 387.44 838.00" xmlns="http://www.w3.org/2000/svg" xmlns:xlink="http://www.w3.org/1999/xlink">
<g id="graph0" class="graph" transform="scale(1 1) rotate(0) translate(4 834)">
<title>GTRSubMatrix</title>
<!-- Node3 -->
<g id="node1" class="node"><title>Node3</title>
<polygon fill="#bfbfbf" stroke="black" points="156.937,-0.5 156.937,-145.5 271.937,-145.5 271.937,-0.5 156.937,-0.5"/>
<text text-anchor="middle" x="214.437" y="-133.5" font-family="Helvetica,sans-Serif" font-size="10.00">GTRSubMatrix</text>
<polyline fill="none" stroke="black" points="156.937,-126.5 271.937,-126.5 "/>
<text text-anchor="middle" x="214.437" y="-114.5" font-family="Helvetica,sans-Serif" font-size="10.00"> </text>
<polyline fill="none" stroke="black" points="156.937,-107.5 271.937,-107.5 "/>
<text text-anchor="start" x="164.937" y="-95.5" font-family="Helvetica,sans-Serif" font-size="10.00">+ GTRSubMatrix()</text>
<text text-anchor="start" x="164.937" y="-84.5" font-family="Helvetica,sans-Serif" font-size="10.00">+ ~GTRSubMatrix()</text>
<text text-anchor="start" x="164.937" y="-73.5" font-family="Helvetica,sans-Serif" font-size="10.00">+ GetNRelativeRate()</text>
<text text-anchor="start" x="164.937" y="-62.5" font-family="Helvetica,sans-Serif" font-size="10.00">+ RelativeRate()</text>
<text text-anchor="start" x="164.937" y="-51.5" font-family="Helvetica,sans-Serif" font-size="10.00">+ SetRelativeRate()</text>
<text text-anchor="start" x="164.937" y="-40.5" font-family="Helvetica,sans-Serif" font-size="10.00">+ rrindex()</text>
<text text-anchor="start" x="164.937" y="-29.5" font-family="Helvetica,sans-Serif" font-size="10.00">+ SetMinStat()</text>
<text text-anchor="start" x="164.937" y="-18.5" font-family="Helvetica,sans-Serif" font-size="10.00"># ComputeArray()</text>
<text text-anchor="start" x="164.937" y="-7.5" font-family="Helvetica,sans-Serif" font-size="10.00"># ComputeStationary()</text>
</g>
<!-- Node4 -->
<g id="node2" class="node"><title>Node4</title>
<g id="a_node2"><a xlink:href="classSubMatrix.html" target="_top" xlink:title="{SubMatrix\n||+ SubMatrix()\l+ ~SubMatrix()\l+ Create()\l+ operator()()\l+ GetRow()\l+ GetStationary()\l+ Stationary()\l+ GetNstate()\l+ GetRate()\l+ ScalarMul()\l+ isNormalised()\l+ Normalise()\l+ CorruptMatrix()\l+ UpdateMatrix()\l+ ActivatePowers()\l+ InactivatePowers()\l+ Power()\l+ GetUniformizationMu()\l+ GetEigenVal()\l+ GetEigenVect()\l+ GetInvEigenVect()\l+ GetFiniteTimeTransitionProb()\l+ DrawUniformizedTransition()\l+ DrawUniformizedSubstitution\lNumber()\l+ DrawOneStep()\l+ ToStream()\l+ CheckReversibility()\l+ GetDiagStat()\l+ GetUniSubCount()\l+ GetMeanUni()\l# ComputeExponential()\l# ComputeArray()\l# ComputeStationary()\l# UpdateRow()\l# UpdateStationary()\l# ComputePowers()\l# CreatePowers()\l# ArrayUpdated()\l# Diagonalise()\l}">
<polygon fill="none" stroke="black" points="136.437,-183.5 136.437,-669.5 292.437,-669.5 292.437,-183.5 136.437,-183.5"/>
<text text-anchor="middle" x="214.437" y="-657.5" font-family="Helvetica,sans-Serif" font-size="10.00">SubMatrix</text>
<polyline fill="none" stroke="black" points="136.437,-650.5 292.437,-650.5 "/>
<text text-anchor="middle" x="214.437" y="-638.5" font-family="Helvetica,sans-Serif" font-size="10.00"> </text>
<polyline fill="none" stroke="black" points="136.437,-631.5 292.437,-631.5 "/>
<text text-anchor="start" x="144.437" y="-619.5" font-family="Helvetica,sans-Serif" font-size="10.00">+ SubMatrix()</text>
<text text-anchor="start" x="144.437" y="-608.5" font-family="Helvetica,sans-Serif" font-size="10.00">+ ~SubMatrix()</text>
<text text-anchor="start" x="144.437" y="-597.5" font-family="Helvetica,sans-Serif" font-size="10.00">+ Create()</text>
<text text-anchor="start" x="144.437" y="-586.5" font-family="Helvetica,sans-Serif" font-size="10.00">+ operator()()</text>
<text text-anchor="start" x="144.437" y="-575.5" font-family="Helvetica,sans-Serif" font-size="10.00">+ GetRow()</text>
<text text-anchor="start" x="144.437" y="-564.5" font-family="Helvetica,sans-Serif" font-size="10.00">+ GetStationary()</text>
<text text-anchor="start" x="144.437" y="-553.5" font-family="Helvetica,sans-Serif" font-size="10.00">+ Stationary()</text>
<text text-anchor="start" x="144.437" y="-542.5" font-family="Helvetica,sans-Serif" font-size="10.00">+ GetNstate()</text>
<text text-anchor="start" x="144.437" y="-531.5" font-family="Helvetica,sans-Serif" font-size="10.00">+ GetRate()</text>
<text text-anchor="start" x="144.437" y="-520.5" font-family="Helvetica,sans-Serif" font-size="10.00">+ ScalarMul()</text>
<text text-anchor="start" x="144.437" y="-509.5" font-family="Helvetica,sans-Serif" font-size="10.00">+ isNormalised()</text>
<text text-anchor="start" x="144.437" y="-498.5" font-family="Helvetica,sans-Serif" font-size="10.00">+ Normalise()</text>
<text text-anchor="start" x="144.437" y="-487.5" font-family="Helvetica,sans-Serif" font-size="10.00">+ CorruptMatrix()</text>
<text text-anchor="start" x="144.437" y="-476.5" font-family="Helvetica,sans-Serif" font-size="10.00">+ UpdateMatrix()</text>
<text text-anchor="start" x="144.437" y="-465.5" font-family="Helvetica,sans-Serif" font-size="10.00">+ ActivatePowers()</text>
<text text-anchor="start" x="144.437" y="-454.5" font-family="Helvetica,sans-Serif" font-size="10.00">+ InactivatePowers()</text>
<text text-anchor="start" x="144.437" y="-443.5" font-family="Helvetica,sans-Serif" font-size="10.00">+ Power()</text>
<text text-anchor="start" x="144.437" y="-432.5" font-family="Helvetica,sans-Serif" font-size="10.00">+ GetUniformizationMu()</text>
<text text-anchor="start" x="144.437" y="-421.5" font-family="Helvetica,sans-Serif" font-size="10.00">+ GetEigenVal()</text>
<text text-anchor="start" x="144.437" y="-410.5" font-family="Helvetica,sans-Serif" font-size="10.00">+ GetEigenVect()</text>
<text text-anchor="start" x="144.437" y="-399.5" font-family="Helvetica,sans-Serif" font-size="10.00">+ GetInvEigenVect()</text>
<text text-anchor="start" x="144.437" y="-388.5" font-family="Helvetica,sans-Serif" font-size="10.00">+ GetFiniteTimeTransitionProb()</text>
<text text-anchor="start" x="144.437" y="-377.5" font-family="Helvetica,sans-Serif" font-size="10.00">+ DrawUniformizedTransition()</text>
<text text-anchor="start" x="144.437" y="-366.5" font-family="Helvetica,sans-Serif" font-size="10.00">+ DrawUniformizedSubstitution</text>
<text text-anchor="start" x="144.437" y="-355.5" font-family="Helvetica,sans-Serif" font-size="10.00">Number()</text>
<text text-anchor="start" x="144.437" y="-344.5" font-family="Helvetica,sans-Serif" font-size="10.00">+ DrawOneStep()</text>
<text text-anchor="start" x="144.437" y="-333.5" font-family="Helvetica,sans-Serif" font-size="10.00">+ ToStream()</text>
<text text-anchor="start" x="144.437" y="-322.5" font-family="Helvetica,sans-Serif" font-size="10.00">+ CheckReversibility()</text>
<text text-anchor="start" x="144.437" y="-311.5" font-family="Helvetica,sans-Serif" font-size="10.00">+ GetDiagStat()</text>
<text text-anchor="start" x="144.437" y="-300.5" font-family="Helvetica,sans-Serif" font-size="10.00">+ GetUniSubCount()</text>
<text text-anchor="start" x="144.437" y="-289.5" font-family="Helvetica,sans-Serif" font-size="10.00">+ GetMeanUni()</text>
<text text-anchor="start" x="144.437" y="-278.5" font-family="Helvetica,sans-Serif" font-size="10.00"># ComputeExponential()</text>
<text text-anchor="start" x="144.437" y="-267.5" font-family="Helvetica,sans-Serif" font-size="10.00"># ComputeArray()</text>
<text text-anchor="start" x="144.437" y="-256.5" font-family="Helvetica,sans-Serif" font-size="10.00"># ComputeStationary()</text>
<text text-anchor="start" x="144.437" y="-245.5" font-family="Helvetica,sans-Serif" font-size="10.00"># UpdateRow()</text>
<text text-anchor="start" x="144.437" y="-234.5" font-family="Helvetica,sans-Serif" font-size="10.00"># UpdateStationary()</text>
<text text-anchor="start" x="144.437" y="-223.5" font-family="Helvetica,sans-Serif" font-size="10.00"># ComputePowers()</text>
<text text-anchor="start" x="144.437" y="-212.5" font-family="Helvetica,sans-Serif" font-size="10.00"># CreatePowers()</text>
<text text-anchor="start" x="144.437" y="-201.5" font-family="Helvetica,sans-Serif" font-size="10.00"># ArrayUpdated()</text>
<text text-anchor="start" x="144.437" y="-190.5" font-family="Helvetica,sans-Serif" font-size="10.00"># Diagonalise()</text>
</a>
</g>
</g>
<!-- Node4&#45;&gt;Node3 -->
<g id="edge1" class="edge"><title>Node4&#45;&gt;Node3</title>
<path fill="none" stroke="midnightblue" d="M214.437,-173.114C214.437,-163.477 214.437,-154.221 214.437,-145.502"/>
<polygon fill="none" stroke="midnightblue" points="210.937,-173.29 214.437,-183.29 217.937,-173.29 210.937,-173.29"/>
</g>
<!-- Node5 -->
<g id="node3" class="node"><title>Node5</title>
<polygon fill="none" stroke="#bfbfbf" points="46.9372,-772.5 46.9372,-829.5 91.9372,-829.5 91.9372,-772.5 46.9372,-772.5"/>
<text text-anchor="middle" x="69.4372" y="-817.5" font-family="Helvetica,sans-Serif" font-size="10.00">double</text>
<polyline fill="none" stroke="#bfbfbf" points="46.9372,-810.5 91.9372,-810.5 "/>
<text text-anchor="middle" x="69.4372" y="-798.5" font-family="Helvetica,sans-Serif" font-size="10.00"> </text>
<polyline fill="none" stroke="#bfbfbf" points="46.9372,-791.5 91.9372,-791.5 "/>
<text text-anchor="middle" x="69.4372" y="-779.5" font-family="Helvetica,sans-Serif" font-size="10.00"> </text>
</g>
<!-- Node5&#45;&gt;Node3 -->
<g id="edge5" class="edge"><title>Node5&#45;&gt;Node3</title>
<path fill="none" stroke="#404040" d="M59.7134,-772.303C29.5462,-681.309 -54.1682,-385.798 53.4372,-183 73.067,-146.005 111.487,-119.266 145.873,-101.533"/>
<polygon fill="none" stroke="#404040" points="146.112,-101.414 149.714,-95.1671 156.866,-96.0896 153.264,-102.337 146.112,-101.414"/>
<text text-anchor="middle" x="90.4372" y="-429.5" font-family="Helvetica,sans-Serif" font-size="10.00"> #mRelativeRate</text>
<text text-anchor="middle" x="90.4372" y="-418.5" font-family="Helvetica,sans-Serif" font-size="10.00">#ExternalStat</text>
</g>
<!-- Node5&#45;&gt;Node4 -->
<g id="edge2" class="edge"><title>Node5&#45;&gt;Node4</title>
<path fill="none" stroke="#404040" d="M78.2085,-772.234C85.8734,-749.191 97.8765,-715.813 111.437,-688 115.546,-679.573 118.312,-678.419 122.437,-670 125.409,-663.935 128.348,-657.747 131.249,-651.474"/>
<polygon fill="none" stroke="#404040" points="131.457,-651.017 130.301,-643.899 136.427,-640.095 137.582,-647.213 131.457,-651.017"/>
<text text-anchor="middle" x="140.437" y="-735" font-family="Helvetica,sans-Serif" font-size="10.00"> #UniMu</text>
<text text-anchor="middle" x="140.437" y="-724" font-family="Helvetica,sans-Serif" font-size="10.00">#mStationary</text>
<text text-anchor="middle" x="140.437" y="-713" font-family="Helvetica,sans-Serif" font-size="10.00">#Q</text>
<text text-anchor="middle" x="140.437" y="-702" font-family="Helvetica,sans-Serif" font-size="10.00">#mPow</text>
</g>
<!-- Node6 -->
<g id="node4" class="node"><title>Node6</title>
<polygon fill="none" stroke="#bfbfbf" points="272.937,-772.5 272.937,-829.5 301.937,-829.5 301.937,-772.5 272.937,-772.5"/>
<text text-anchor="middle" x="287.437" y="-817.5" font-family="Helvetica,sans-Serif" font-size="10.00">int</text>
<polyline fill="none" stroke="#bfbfbf" points="272.937,-810.5 301.937,-810.5 "/>
<text text-anchor="middle" x="287.437" y="-798.5" font-family="Helvetica,sans-Serif" font-size="10.00"> </text>
<polyline fill="none" stroke="#bfbfbf" points="272.937,-791.5 301.937,-791.5 "/>
<text text-anchor="middle" x="287.437" y="-779.5" font-family="Helvetica,sans-Serif" font-size="10.00"> </text>
</g>
<!-- Node6&#45;&gt;Node3 -->
<g id="edge6" class="edge"><title>Node6&#45;&gt;Node3</title>
<path fill="none" stroke="#404040" d="M302.018,-780.436C306.982,-772.628 311.911,-763.293 314.437,-754 322.131,-725.694 314.815,-717.331 314.437,-688 311.548,-463.5 378.357,-393.932 301.437,-183 296.234,-168.731 288.356,-154.91 279.428,-142.174"/>
<polygon fill="none" stroke="#404040" points="279.198,-141.861 272.417,-139.408 272.074,-132.205 278.854,-134.658 279.198,-141.861"/>
<text text-anchor="middle" x="358.937" y="-429.5" font-family="Helvetica,sans-Serif" font-size="10.00"> #minstat</text>
<text text-anchor="middle" x="358.937" y="-418.5" font-family="Helvetica,sans-Serif" font-size="10.00">#Nrr</text>
</g>
<!-- Node6&#45;&gt;Node4 -->
<g id="edge3" class="edge"><title>Node6&#45;&gt;Node4</title>
<path fill="none" stroke="#404040" d="M272.678,-787.484C263.763,-779.009 253.067,-767.016 247.437,-754 237.577,-731.203 230.118,-706.702 224.528,-681.739"/>
<polygon fill="none" stroke="#404040" points="224.496,-681.588 219.34,-676.547 222.011,-669.848 227.167,-674.89 224.496,-681.588"/>
<text text-anchor="middle" x="280.937" y="-746" font-family="Helvetica,sans-Serif" font-size="10.00"> +nunisubcount</text>
<text text-anchor="middle" x="280.937" y="-735" font-family="Helvetica,sans-Serif" font-size="10.00">#Nstate</text>
<text text-anchor="middle" x="280.937" y="-724" font-family="Helvetica,sans-Serif" font-size="10.00">+UniSubNmax</text>
<text text-anchor="middle" x="280.937" y="-713" font-family="Helvetica,sans-Serif" font-size="10.00">#npow</text>
<text text-anchor="middle" x="280.937" y="-702" font-family="Helvetica,sans-Serif" font-size="10.00">+nuni</text>
<text text-anchor="middle" x="280.937" y="-691" font-family="Helvetica,sans-Serif" font-size="10.00">+nunimax</text>
</g>
<!-- Node7 -->
<g id="node5" class="node"><title>Node7</title>
<polygon fill="none" stroke="#bfbfbf" points="157.937,-772.5 157.937,-829.5 192.937,-829.5 192.937,-772.5 157.937,-772.5"/>
<text text-anchor="middle" x="175.437" y="-817.5" font-family="Helvetica,sans-Serif" font-size="10.00">bool</text>
<polyline fill="none" stroke="#bfbfbf" points="157.937,-810.5 192.937,-810.5 "/>
<text text-anchor="middle" x="175.437" y="-798.5" font-family="Helvetica,sans-Serif" font-size="10.00"> </text>
<polyline fill="none" stroke="#bfbfbf" points="157.937,-791.5 192.937,-791.5 "/>
<text text-anchor="middle" x="175.437" y="-779.5" font-family="Helvetica,sans-Serif" font-size="10.00"> </text>
</g>
<!-- Node7&#45;&gt;Node4 -->
<g id="edge4" class="edge"><title>Node7&#45;&gt;Node4</title>
<path fill="none" stroke="#404040" d="M174.641,-772.339C174.238,-749.644 174.227,-716.694 176.437,-688 176.597,-685.924 176.763,-683.84 176.936,-681.749"/>
<polygon fill="none" stroke="#404040" points="176.945,-681.646 173.481,-675.321 177.987,-669.691 181.451,-676.016 176.945,-681.646"/>
<text text-anchor="middle" x="200.437" y="-740.5" font-family="Helvetica,sans-Serif" font-size="10.00"> #flagarray</text>
<text text-anchor="middle" x="200.437" y="-729.5" font-family="Helvetica,sans-Serif" font-size="10.00">#diagflag</text>
<text text-anchor="middle" x="200.437" y="-718.5" font-family="Helvetica,sans-Serif" font-size="10.00">#powflag</text>
<text text-anchor="middle" x="200.437" y="-707.5" font-family="Helvetica,sans-Serif" font-size="10.00">#normalise</text>
<text text-anchor="middle" x="200.437" y="-696.5" font-family="Helvetica,sans-Serif" font-size="10.00">#statflag</text>
</g>
</g>
</svg>
