<?xml version="1.0" encoding="UTF-8" standalone="no"?>
<!DOCTYPE svg PUBLIC "-//W3C//DTD SVG 1.1//EN"
 "http://www.w3.org/Graphics/SVG/1.1/DTD/svg11.dtd">
<!-- Generated by graphviz version 2.38.0 (20140413.2041)
 -->
<!-- Title: AACodonMutSelProfileProcess Pages: 1 -->
<svg width="534pt" height="1412pt"
 viewBox="0.00 0.00 534.00 1412.00" xmlns="http://www.w3.org/2000/svg" xmlns:xlink="http://www.w3.org/1999/xlink">
<g id="graph0" class="graph" transform="scale(1 1) rotate(0) translate(4 1408)">
<title>AACodonMutSelProfileProcess</title>
<!-- Node13 -->
<g id="node1" class="node"><title>Node13</title>
<polygon fill="#bfbfbf" stroke="black" points="248.5,-0.5 248.5,-343.5 422.5,-343.5 422.5,-0.5 248.5,-0.5"/>
<text text-anchor="middle" x="335.5" y="-331.5" font-family="Helvetica,sans-Serif" font-size="10.00">AACodonMutSelProfileProcess</text>
<polyline fill="none" stroke="black" points="248.5,-324.5 422.5,-324.5 "/>
<text text-anchor="middle" x="335.5" y="-312.5" font-family="Helvetica,sans-Serif" font-size="10.00"> </text>
<polyline fill="none" stroke="black" points="248.5,-305.5 422.5,-305.5 "/>
<text text-anchor="start" x="256.5" y="-293.5" font-family="Helvetica,sans-Serif" font-size="10.00">+ AACodonMutSelProfileProcess()</text>
<text text-anchor="start" x="256.5" y="-282.5" font-family="Helvetica,sans-Serif" font-size="10.00">+ ~AACodonMutSelProfileProcess()</text>
<text text-anchor="start" x="256.5" y="-271.5" font-family="Helvetica,sans-Serif" font-size="10.00">+ GetNnucrr()</text>
<text text-anchor="start" x="256.5" y="-260.5" font-family="Helvetica,sans-Serif" font-size="10.00">+ GetNucRR()</text>
<text text-anchor="start" x="256.5" y="-249.5" font-family="Helvetica,sans-Serif" font-size="10.00">+ GetNucRR()</text>
<text text-anchor="start" x="256.5" y="-238.5" font-family="Helvetica,sans-Serif" font-size="10.00">+ GetNucStat()</text>
<text text-anchor="start" x="256.5" y="-227.5" font-family="Helvetica,sans-Serif" font-size="10.00">+ GetNucStat()</text>
<text text-anchor="start" x="256.5" y="-216.5" font-family="Helvetica,sans-Serif" font-size="10.00">+ GetCodonProfileEntry()</text>
<text text-anchor="start" x="256.5" y="-205.5" font-family="Helvetica,sans-Serif" font-size="10.00">+ GetCodonProfileEntropy()</text>
<text text-anchor="start" x="256.5" y="-194.5" font-family="Helvetica,sans-Serif" font-size="10.00">+ GetOmega()</text>
<text text-anchor="start" x="256.5" y="-183.5" font-family="Helvetica,sans-Serif" font-size="10.00"># Create()</text>
<text text-anchor="start" x="256.5" y="-172.5" font-family="Helvetica,sans-Serif" font-size="10.00"># Delete()</text>
<text text-anchor="start" x="256.5" y="-161.5" font-family="Helvetica,sans-Serif" font-size="10.00"># GetNormalizationFactor()</text>
<text text-anchor="start" x="256.5" y="-150.5" font-family="Helvetica,sans-Serif" font-size="10.00"># LogNucRRPrior()</text>
<text text-anchor="start" x="256.5" y="-139.5" font-family="Helvetica,sans-Serif" font-size="10.00"># SampleNucRR()</text>
<text text-anchor="start" x="256.5" y="-128.5" font-family="Helvetica,sans-Serif" font-size="10.00"># LogNucStatPrior()</text>
<text text-anchor="start" x="256.5" y="-117.5" font-family="Helvetica,sans-Serif" font-size="10.00"># SampleNucStat()</text>
<text text-anchor="start" x="256.5" y="-106.5" font-family="Helvetica,sans-Serif" font-size="10.00"># LogCodonProfilePrior()</text>
<text text-anchor="start" x="256.5" y="-95.5" font-family="Helvetica,sans-Serif" font-size="10.00"># SampleCodonProfile()</text>
<text text-anchor="start" x="256.5" y="-84.5" font-family="Helvetica,sans-Serif" font-size="10.00"># LogOmegaPrior()</text>
<text text-anchor="start" x="256.5" y="-73.5" font-family="Helvetica,sans-Serif" font-size="10.00"># SampleOmega()</text>
<text text-anchor="start" x="256.5" y="-62.5" font-family="Helvetica,sans-Serif" font-size="10.00"># MoveNucRR()</text>
<text text-anchor="start" x="256.5" y="-51.5" font-family="Helvetica,sans-Serif" font-size="10.00"># MoveNucRR()</text>
<text text-anchor="start" x="256.5" y="-40.5" font-family="Helvetica,sans-Serif" font-size="10.00"># MoveNucStat()</text>
<text text-anchor="start" x="256.5" y="-29.5" font-family="Helvetica,sans-Serif" font-size="10.00"># MoveCodonProfile()</text>
<text text-anchor="start" x="256.5" y="-18.5" font-family="Helvetica,sans-Serif" font-size="10.00"># MoveNucStatCodonProfile()</text>
<text text-anchor="start" x="256.5" y="-7.5" font-family="Helvetica,sans-Serif" font-size="10.00"># MoveOmega()</text>
</g>
<!-- Node14 -->
<g id="node2" class="node"><title>Node14</title>
<g id="a_node2"><a xlink:href="classGeneralPathSuffStatMatrixProfileProcess.html" target="_top" xlink:title="{GeneralPathSuffStatMatrix\lProfileProcess\n||+ GeneralPathSuffStatMatrix\lProfileProcess()\l+ ~GeneralPathSuffStatMatrix\lProfileProcess()\l+ GetSitePairCount()\l+ GetSiteWaitingTime()\l+ GetSiteRootState()\l}">
<polygon fill="none" stroke="black" points="188,-381.5 188,-515.5 337,-515.5 337,-381.5 188,-381.5"/>
<text text-anchor="start" x="196" y="-503.5" font-family="Helvetica,sans-Serif" font-size="10.00">GeneralPathSuffStatMatrix</text>
<text text-anchor="middle" x="262.5" y="-492.5" font-family="Helvetica,sans-Serif" font-size="10.00">ProfileProcess</text>
<polyline fill="none" stroke="black" points="188,-485.5 337,-485.5 "/>
<text text-anchor="middle" x="262.5" y="-473.5" font-family="Helvetica,sans-Serif" font-size="10.00"> </text>
<polyline fill="none" stroke="black" points="188,-466.5 337,-466.5 "/>
<text text-anchor="start" x="196" y="-454.5" font-family="Helvetica,sans-Serif" font-size="10.00">+ GeneralPathSuffStatMatrix</text>
<text text-anchor="start" x="196" y="-443.5" font-family="Helvetica,sans-Serif" font-size="10.00">ProfileProcess()</text>
<text text-anchor="start" x="196" y="-432.5" font-family="Helvetica,sans-Serif" font-size="10.00">+ ~GeneralPathSuffStatMatrix</text>
<text text-anchor="start" x="196" y="-421.5" font-family="Helvetica,sans-Serif" font-size="10.00">ProfileProcess()</text>
<text text-anchor="start" x="196" y="-410.5" font-family="Helvetica,sans-Serif" font-size="10.00">+ GetSitePairCount()</text>
<text text-anchor="start" x="196" y="-399.5" font-family="Helvetica,sans-Serif" font-size="10.00">+ GetSiteWaitingTime()</text>
<text text-anchor="start" x="196" y="-388.5" font-family="Helvetica,sans-Serif" font-size="10.00">+ GetSiteRootState()</text>
</a>
</g>
</g>
<!-- Node14&#45;&gt;Node13 -->
<g id="edge1" class="edge"><title>Node14&#45;&gt;Node13</title>
<path fill="none" stroke="midnightblue" d="M282.712,-371.499C285.09,-362.554 287.585,-353.173 290.142,-343.559"/>
<polygon fill="none" stroke="midnightblue" points="279.266,-370.837 280.078,-381.401 286.031,-372.637 279.266,-370.837"/>
</g>
<!-- Node15 -->
<g id="node3" class="node"><title>Node15</title>
<g id="a_node3"><a xlink:href="classMatrixProfileProcess.html" target="_top" xlink:title="{MatrixProfileProcess\n||+ MatrixProfileProcess()\l+ ~MatrixProfileProcess()\l+ GetMatrix()\l# CreateMatrices()\l# DeleteMatrices()\l# ProfileProposeMove()\l# UpdateMatrices()\l}">
<polygon fill="none" stroke="black" points="189.5,-563.5 189.5,-686.5 317.5,-686.5 317.5,-563.5 189.5,-563.5"/>
<text text-anchor="middle" x="253.5" y="-674.5" font-family="Helvetica,sans-Serif" font-size="10.00">MatrixProfileProcess</text>
<polyline fill="none" stroke="black" points="189.5,-667.5 317.5,-667.5 "/>
<text text-anchor="middle" x="253.5" y="-655.5" font-family="Helvetica,sans-Serif" font-size="10.00"> </text>
<polyline fill="none" stroke="black" points="189.5,-648.5 317.5,-648.5 "/>
<text text-anchor="start" x="197.5" y="-636.5" font-family="Helvetica,sans-Serif" font-size="10.00">+ MatrixProfileProcess()</text>
<text text-anchor="start" x="197.5" y="-625.5" font-family="Helvetica,sans-Serif" font-size="10.00">+ ~MatrixProfileProcess()</text>
<text text-anchor="start" x="197.5" y="-614.5" font-family="Helvetica,sans-Serif" font-size="10.00">+ GetMatrix()</text>
<text text-anchor="start" x="197.5" y="-603.5" font-family="Helvetica,sans-Serif" font-size="10.00"># CreateMatrices()</text>
<text text-anchor="start" x="197.5" y="-592.5" font-family="Helvetica,sans-Serif" font-size="10.00"># DeleteMatrices()</text>
<text text-anchor="start" x="197.5" y="-581.5" font-family="Helvetica,sans-Serif" font-size="10.00"># ProfileProposeMove()</text>
<text text-anchor="start" x="197.5" y="-570.5" font-family="Helvetica,sans-Serif" font-size="10.00"># UpdateMatrices()</text>
</a>
</g>
</g>
<!-- Node15&#45;&gt;Node14 -->
<g id="edge2" class="edge"><title>Node15&#45;&gt;Node14</title>
<path fill="none" stroke="midnightblue" d="M257.154,-553.162C257.794,-540.747 258.458,-527.873 259.091,-515.594"/>
<polygon fill="none" stroke="midnightblue" points="253.642,-553.291 256.623,-563.458 260.633,-553.652 253.642,-553.291"/>
</g>
<!-- Node16 -->
<g id="node4" class="node"><title>Node16</title>
<g id="a_node4"><a xlink:href="classProfileProcess.html" target="_top" xlink:title="{ProfileProcess\n||+ ProfileProcess()\l+ ~ProfileProcess()\l+ GetVersion()\l+ GetStatInfCount()\l+ GetDim()\l+ GetNsite()\l+ GetProfile()\l+ GetStateSpace()\l+ LogProfilePrior()\l+ SampleProfile()\l+ GetMeanStationaryEntropy()\l+ GetSiteStationaryEntropy()\l+ UpdateSiteProfileSuffStat()\l+ GlobalUpdateSiteProfileSuffStat()\l+ SlaveUpdateSiteProfileSuffStat()\l+ GlobalUpdateParameters()\l+ SlaveUpdateParameters()\l+ ProfileSuffStatLogProb()\l+ ToStream()\l+ FromStream()\l+ SetBurnin()\l+ isObserved()\l+ GetMinStat()\l+ GetMinMinStat()\l# DrawProfileFromPrior()\l# GetNormalizationFactor()\l# Create()\l# Delete()\l# GetNprocs()\l# GetMyid()\l# GetSiteMin()\l# GetSiteMax()\l# GetEmpiricalFreq()\l# GetMinTotWeight()\l# SetMinTotWeight()\l}">
<polygon fill="none" stroke="black" points="131.5,-724.5 131.5,-1155.5 303.5,-1155.5 303.5,-724.5 131.5,-724.5"/>
<text text-anchor="middle" x="217.5" y="-1143.5" font-family="Helvetica,sans-Serif" font-size="10.00">ProfileProcess</text>
<polyline fill="none" stroke="black" points="131.5,-1136.5 303.5,-1136.5 "/>
<text text-anchor="middle" x="217.5" y="-1124.5" font-family="Helvetica,sans-Serif" font-size="10.00"> </text>
<polyline fill="none" stroke="black" points="131.5,-1117.5 303.5,-1117.5 "/>
<text text-anchor="start" x="139.5" y="-1105.5" font-family="Helvetica,sans-Serif" font-size="10.00">+ ProfileProcess()</text>
<text text-anchor="start" x="139.5" y="-1094.5" font-family="Helvetica,sans-Serif" font-size="10.00">+ ~ProfileProcess()</text>
<text text-anchor="start" x="139.5" y="-1083.5" font-family="Helvetica,sans-Serif" font-size="10.00">+ GetVersion()</text>
<text text-anchor="start" x="139.5" y="-1072.5" font-family="Helvetica,sans-Serif" font-size="10.00">+ GetStatInfCount()</text>
<text text-anchor="start" x="139.5" y="-1061.5" font-family="Helvetica,sans-Serif" font-size="10.00">+ GetDim()</text>
<text text-anchor="start" x="139.5" y="-1050.5" font-family="Helvetica,sans-Serif" font-size="10.00">+ GetNsite()</text>
<text text-anchor="start" x="139.5" y="-1039.5" font-family="Helvetica,sans-Serif" font-size="10.00">+ GetProfile()</text>
<text text-anchor="start" x="139.5" y="-1028.5" font-family="Helvetica,sans-Serif" font-size="10.00">+ GetStateSpace()</text>
<text text-anchor="start" x="139.5" y="-1017.5" font-family="Helvetica,sans-Serif" font-size="10.00">+ LogProfilePrior()</text>
<text text-anchor="start" x="139.5" y="-1006.5" font-family="Helvetica,sans-Serif" font-size="10.00">+ SampleProfile()</text>
<text text-anchor="start" x="139.5" y="-995.5" font-family="Helvetica,sans-Serif" font-size="10.00">+ GetMeanStationaryEntropy()</text>
<text text-anchor="start" x="139.5" y="-984.5" font-family="Helvetica,sans-Serif" font-size="10.00">+ GetSiteStationaryEntropy()</text>
<text text-anchor="start" x="139.5" y="-973.5" font-family="Helvetica,sans-Serif" font-size="10.00">+ UpdateSiteProfileSuffStat()</text>
<text text-anchor="start" x="139.5" y="-962.5" font-family="Helvetica,sans-Serif" font-size="10.00">+ GlobalUpdateSiteProfileSuffStat()</text>
<text text-anchor="start" x="139.5" y="-951.5" font-family="Helvetica,sans-Serif" font-size="10.00">+ SlaveUpdateSiteProfileSuffStat()</text>
<text text-anchor="start" x="139.5" y="-940.5" font-family="Helvetica,sans-Serif" font-size="10.00">+ GlobalUpdateParameters()</text>
<text text-anchor="start" x="139.5" y="-929.5" font-family="Helvetica,sans-Serif" font-size="10.00">+ SlaveUpdateParameters()</text>
<text text-anchor="start" x="139.5" y="-918.5" font-family="Helvetica,sans-Serif" font-size="10.00">+ ProfileSuffStatLogProb()</text>
<text text-anchor="start" x="139.5" y="-907.5" font-family="Helvetica,sans-Serif" font-size="10.00">+ ToStream()</text>
<text text-anchor="start" x="139.5" y="-896.5" font-family="Helvetica,sans-Serif" font-size="10.00">+ FromStream()</text>
<text text-anchor="start" x="139.5" y="-885.5" font-family="Helvetica,sans-Serif" font-size="10.00">+ SetBurnin()</text>
<text text-anchor="start" x="139.5" y="-874.5" font-family="Helvetica,sans-Serif" font-size="10.00">+ isObserved()</text>
<text text-anchor="start" x="139.5" y="-863.5" font-family="Helvetica,sans-Serif" font-size="10.00">+ GetMinStat()</text>
<text text-anchor="start" x="139.5" y="-852.5" font-family="Helvetica,sans-Serif" font-size="10.00">+ GetMinMinStat()</text>
<text text-anchor="start" x="139.5" y="-841.5" font-family="Helvetica,sans-Serif" font-size="10.00"># DrawProfileFromPrior()</text>
<text text-anchor="start" x="139.5" y="-830.5" font-family="Helvetica,sans-Serif" font-size="10.00"># GetNormalizationFactor()</text>
<text text-anchor="start" x="139.5" y="-819.5" font-family="Helvetica,sans-Serif" font-size="10.00"># Create()</text>
<text text-anchor="start" x="139.5" y="-808.5" font-family="Helvetica,sans-Serif" font-size="10.00"># Delete()</text>
<text text-anchor="start" x="139.5" y="-797.5" font-family="Helvetica,sans-Serif" font-size="10.00"># GetNprocs()</text>
<text text-anchor="start" x="139.5" y="-786.5" font-family="Helvetica,sans-Serif" font-size="10.00"># GetMyid()</text>
<text text-anchor="start" x="139.5" y="-775.5" font-family="Helvetica,sans-Serif" font-size="10.00"># GetSiteMin()</text>
<text text-anchor="start" x="139.5" y="-764.5" font-family="Helvetica,sans-Serif" font-size="10.00"># GetSiteMax()</text>
<text text-anchor="start" x="139.5" y="-753.5" font-family="Helvetica,sans-Serif" font-size="10.00"># GetEmpiricalFreq()</text>
<text text-anchor="start" x="139.5" y="-742.5" font-family="Helvetica,sans-Serif" font-size="10.00"># GetMinTotWeight()</text>
<text text-anchor="start" x="139.5" y="-731.5" font-family="Helvetica,sans-Serif" font-size="10.00"># SetMinTotWeight()</text>
</a>
</g>
</g>
<!-- Node16&#45;&gt;Node15 -->
<g id="edge3" class="edge"><title>Node16&#45;&gt;Node15</title>
<path fill="none" stroke="midnightblue" d="M243.378,-714.003C244.485,-704.381 245.542,-695.191 246.527,-686.623"/>
<polygon fill="none" stroke="midnightblue" points="239.874,-713.842 242.208,-724.176 246.828,-714.642 239.874,-713.842"/>
</g>
<!-- Node17 -->
<g id="node5" class="node"><title>Node17</title>
<g id="a_node5"><a xlink:href="classChrono.html" target="_top" xlink:title="{Chrono\n||+ Chrono()\l+ ~Chrono()\l+ Reset()\l+ Start()\l+ Stop()\l+ ToStream()\l+ FromStream()\l+ operator++()\l+ GetTime()\l+ GetTimePerCount()\l+ GetCount()\l}">
<polygon fill="none" stroke="black" points="162.5,-1236.5 162.5,-1403.5 272.5,-1403.5 272.5,-1236.5 162.5,-1236.5"/>
<text text-anchor="middle" x="217.5" y="-1391.5" font-family="Helvetica,sans-Serif" font-size="10.00">Chrono</text>
<polyline fill="none" stroke="black" points="162.5,-1384.5 272.5,-1384.5 "/>
<text text-anchor="middle" x="217.5" y="-1372.5" font-family="Helvetica,sans-Serif" font-size="10.00"> </text>
<polyline fill="none" stroke="black" points="162.5,-1365.5 272.5,-1365.5 "/>
<text text-anchor="start" x="170.5" y="-1353.5" font-family="Helvetica,sans-Serif" font-size="10.00">+ Chrono()</text>
<text text-anchor="start" x="170.5" y="-1342.5" font-family="Helvetica,sans-Serif" font-size="10.00">+ ~Chrono()</text>
<text text-anchor="start" x="170.5" y="-1331.5" font-family="Helvetica,sans-Serif" font-size="10.00">+ Reset()</text>
<text text-anchor="start" x="170.5" y="-1320.5" font-family="Helvetica,sans-Serif" font-size="10.00">+ Start()</text>
<text text-anchor="start" x="170.5" y="-1309.5" font-family="Helvetica,sans-Serif" font-size="10.00">+ Stop()</text>
<text text-anchor="start" x="170.5" y="-1298.5" font-family="Helvetica,sans-Serif" font-size="10.00">+ ToStream()</text>
<text text-anchor="start" x="170.5" y="-1287.5" font-family="Helvetica,sans-Serif" font-size="10.00">+ FromStream()</text>
<text text-anchor="start" x="170.5" y="-1276.5" font-family="Helvetica,sans-Serif" font-size="10.00">+ operator++()</text>
<text text-anchor="start" x="170.5" y="-1265.5" font-family="Helvetica,sans-Serif" font-size="10.00">+ GetTime()</text>
<text text-anchor="start" x="170.5" y="-1254.5" font-family="Helvetica,sans-Serif" font-size="10.00">+ GetTimePerCount()</text>
<text text-anchor="start" x="170.5" y="-1243.5" font-family="Helvetica,sans-Serif" font-size="10.00">+ GetCount()</text>
</a>
</g>
</g>
<!-- Node17&#45;&gt;Node16 -->
<g id="edge4" class="edge"><title>Node17&#45;&gt;Node16</title>
<path fill="none" stroke="#404040" d="M217.5,-1236.05C217.5,-1215.32 217.5,-1192.07 217.5,-1167.97"/>
<polygon fill="none" stroke="#404040" points="217.5,-1167.68 213.5,-1161.68 217.5,-1155.68 221.5,-1161.68 217.5,-1167.68"/>
<text text-anchor="middle" x="245" y="-1204.5" font-family="Helvetica,sans-Serif" font-size="10.00"> #chronostat</text>
<text text-anchor="middle" x="245" y="-1193.5" font-family="Helvetica,sans-Serif" font-size="10.00">#chronorr</text>
<text text-anchor="middle" x="245" y="-1182.5" font-family="Helvetica,sans-Serif" font-size="10.00">#chronodp</text>
</g>
<!-- Node18 -->
<g id="node6" class="node"><title>Node18</title>
<polygon fill="none" stroke="#bfbfbf" points="0,-1291.5 0,-1348.5 45,-1348.5 45,-1291.5 0,-1291.5"/>
<text text-anchor="middle" x="22.5" y="-1336.5" font-family="Helvetica,sans-Serif" font-size="10.00">double</text>
<polyline fill="none" stroke="#bfbfbf" points="0,-1329.5 45,-1329.5 "/>
<text text-anchor="middle" x="22.5" y="-1317.5" font-family="Helvetica,sans-Serif" font-size="10.00"> </text>
<polyline fill="none" stroke="#bfbfbf" points="0,-1310.5 45,-1310.5 "/>
<text text-anchor="middle" x="22.5" y="-1298.5" font-family="Helvetica,sans-Serif" font-size="10.00"> </text>
</g>
<!-- Node18&#45;&gt;Node13 -->
<g id="edge8" class="edge"><title>Node18&#45;&gt;Node13</title>
<path fill="none" stroke="#404040" d="M20.5059,-1291.04C16.2169,-1228.4 6.5,-1072.04 6.5,-941 6.5,-941 6.5,-941 6.5,-447.5 6.5,-326.214 139.953,-248.075 236.868,-207.319"/>
<polygon fill="none" stroke="#404040" points="237.102,-207.223 241.127,-201.24 248.198,-202.654 244.173,-208.637 237.102,-207.223"/>
<text text-anchor="middle" x="35.5" y="-639" font-family="Helvetica,sans-Serif" font-size="10.00"> #nucstat</text>
<text text-anchor="middle" x="35.5" y="-628" font-family="Helvetica,sans-Serif" font-size="10.00">#nucrr</text>
<text text-anchor="middle" x="35.5" y="-617" font-family="Helvetica,sans-Serif" font-size="10.00">#omega</text>
<text text-anchor="middle" x="35.5" y="-606" font-family="Helvetica,sans-Serif" font-size="10.00">#codonprofile</text>
</g>
<!-- Node18&#45;&gt;Node16 -->
<g id="edge5" class="edge"><title>Node18&#45;&gt;Node16</title>
<path fill="none" stroke="#404040" d="M29.5194,-1291.24C37.54,-1261.48 51.984,-1213.2 70.5,-1174 86.0534,-1141.07 105.359,-1107.12 124.809,-1075.66"/>
<polygon fill="none" stroke="#404040" points="125.051,-1075.27 124.835,-1068.07 131.405,-1065.09 131.621,-1072.3 125.051,-1075.27"/>
<text text-anchor="middle" x="102.5" y="-1193.5" font-family="Helvetica,sans-Serif" font-size="10.00"> #mintotweight</text>
</g>
<!-- Node19 -->
<g id="node7" class="node"><title>Node19</title>
<polygon fill="none" stroke="#bfbfbf" points="354,-1291.5 354,-1348.5 383,-1348.5 383,-1291.5 354,-1291.5"/>
<text text-anchor="middle" x="368.5" y="-1336.5" font-family="Helvetica,sans-Serif" font-size="10.00">int</text>
<polyline fill="none" stroke="#bfbfbf" points="354,-1329.5 383,-1329.5 "/>
<text text-anchor="middle" x="368.5" y="-1317.5" font-family="Helvetica,sans-Serif" font-size="10.00"> </text>
<polyline fill="none" stroke="#bfbfbf" points="354,-1310.5 383,-1310.5 "/>
<text text-anchor="middle" x="368.5" y="-1298.5" font-family="Helvetica,sans-Serif" font-size="10.00"> </text>
</g>
<!-- Node19&#45;&gt;Node13 -->
<g id="edge9" class="edge"><title>Node19&#45;&gt;Node13</title>
<path fill="none" stroke="#404040" d="M368.5,-1291.49C368.5,-1229.13 368.5,-1072.25 368.5,-941 368.5,-941 368.5,-941 368.5,-447.5 368.5,-417.732 366.563,-386.277 363.628,-355.7"/>
<polygon fill="none" stroke="#404040" points="363.61,-355.515 359.029,-349.945 362.409,-343.575 366.989,-349.145 363.61,-355.515"/>
<text text-anchor="middle" x="397" y="-628" font-family="Helvetica,sans-Serif" font-size="10.00"> #omegaprior</text>
<text text-anchor="middle" x="397" y="-617" font-family="Helvetica,sans-Serif" font-size="10.00">#Nnucrr</text>
</g>
<!-- Node19&#45;&gt;Node16 -->
<g id="edge6" class="edge"><title>Node19&#45;&gt;Node16</title>
<path fill="none" stroke="#404040" d="M353.808,-1302.27C337.674,-1283.12 312.002,-1250.21 296.5,-1218 288.717,-1201.83 281.563,-1184.75 275.016,-1167.33"/>
<polygon fill="none" stroke="#404040" points="274.934,-1167.11 269.112,-1162.85 270.8,-1155.84 276.622,-1160.09 274.934,-1167.11"/>
<text text-anchor="middle" x="325.5" y="-1210" font-family="Helvetica,sans-Serif" font-size="10.00"> #dim</text>
<text text-anchor="middle" x="325.5" y="-1199" font-family="Helvetica,sans-Serif" font-size="10.00">#statinfcount</text>
<text text-anchor="middle" x="325.5" y="-1188" font-family="Helvetica,sans-Serif" font-size="10.00">#totstatcount</text>
<text text-anchor="middle" x="325.5" y="-1177" font-family="Helvetica,sans-Serif" font-size="10.00">#nsite</text>
</g>
<!-- Node21 -->
<g id="node9" class="node"><title>Node21</title>
<g id="a_node9"><a xlink:href="classCodonStateSpace.html" target="_top" xlink:title="{CodonStateSpace\n||+ CodonStateSpace()\l+ ~CodonStateSpace()\l+ GetNstate()\l+ GetState()\l+ GetState()\l+ GetDNAStateSpace()\l+ GetProteinStateSpace()\l+ GetCodonFromDNA()\l+ GetDifferingPosition()\l+ GetCodonPosition()\l+ IsNonCTNearest()\l+ Translation()\l+ Synonymous()\l+ TranslationWithStops()\l+ CheckStop()\l+ GetDegeneracy()\l+ GetNstop()\l+ GetStopPos1()\l+ GetStopPos2()\l+ GetStopPos3()\l}">
<polygon fill="none" stroke="black" points="397,-807 397,-1073 526,-1073 526,-807 397,-807"/>
<text text-anchor="middle" x="461.5" y="-1061" font-family="Helvetica,sans-Serif" font-size="10.00">CodonStateSpace</text>
<polyline fill="none" stroke="black" points="397,-1054 526,-1054 "/>
<text text-anchor="middle" x="461.5" y="-1042" font-family="Helvetica,sans-Serif" font-size="10.00"> </text>
<polyline fill="none" stroke="black" points="397,-1035 526,-1035 "/>
<text text-anchor="start" x="405" y="-1023" font-family="Helvetica,sans-Serif" font-size="10.00">+ CodonStateSpace()</text>
<text text-anchor="start" x="405" y="-1012" font-family="Helvetica,sans-Serif" font-size="10.00">+ ~CodonStateSpace()</text>
<text text-anchor="start" x="405" y="-1001" font-family="Helvetica,sans-Serif" font-size="10.00">+ GetNstate()</text>
<text text-anchor="start" x="405" y="-990" font-family="Helvetica,sans-Serif" font-size="10.00">+ GetState()</text>
<text text-anchor="start" x="405" y="-979" font-family="Helvetica,sans-Serif" font-size="10.00">+ GetState()</text>
<text text-anchor="start" x="405" y="-968" font-family="Helvetica,sans-Serif" font-size="10.00">+ GetDNAStateSpace()</text>
<text text-anchor="start" x="405" y="-957" font-family="Helvetica,sans-Serif" font-size="10.00">+ GetProteinStateSpace()</text>
<text text-anchor="start" x="405" y="-946" font-family="Helvetica,sans-Serif" font-size="10.00">+ GetCodonFromDNA()</text>
<text text-anchor="start" x="405" y="-935" font-family="Helvetica,sans-Serif" font-size="10.00">+ GetDifferingPosition()</text>
<text text-anchor="start" x="405" y="-924" font-family="Helvetica,sans-Serif" font-size="10.00">+ GetCodonPosition()</text>
<text text-anchor="start" x="405" y="-913" font-family="Helvetica,sans-Serif" font-size="10.00">+ IsNonCTNearest()</text>
<text text-anchor="start" x="405" y="-902" font-family="Helvetica,sans-Serif" font-size="10.00">+ Translation()</text>
<text text-anchor="start" x="405" y="-891" font-family="Helvetica,sans-Serif" font-size="10.00">+ Synonymous()</text>
<text text-anchor="start" x="405" y="-880" font-family="Helvetica,sans-Serif" font-size="10.00">+ TranslationWithStops()</text>
<text text-anchor="start" x="405" y="-869" font-family="Helvetica,sans-Serif" font-size="10.00">+ CheckStop()</text>
<text text-anchor="start" x="405" y="-858" font-family="Helvetica,sans-Serif" font-size="10.00">+ GetDegeneracy()</text>
<text text-anchor="start" x="405" y="-847" font-family="Helvetica,sans-Serif" font-size="10.00">+ GetNstop()</text>
<text text-anchor="start" x="405" y="-836" font-family="Helvetica,sans-Serif" font-size="10.00">+ GetStopPos1()</text>
<text text-anchor="start" x="405" y="-825" font-family="Helvetica,sans-Serif" font-size="10.00">+ GetStopPos2()</text>
<text text-anchor="start" x="405" y="-814" font-family="Helvetica,sans-Serif" font-size="10.00">+ GetStopPos3()</text>
</a>
</g>
</g>
<!-- Node19&#45;&gt;Node21 -->
<g id="edge12" class="edge"><title>Node19&#45;&gt;Node21</title>
<path fill="none" stroke="#404040" d="M375.339,-1291.2C386.012,-1247.82 407.355,-1161.07 426.128,-1084.77"/>
<polygon fill="none" stroke="#404040" points="426.13,-1084.76 423.679,-1077.98 428.997,-1073.11 431.448,-1079.89 426.13,-1084.76"/>
<text text-anchor="middle" x="420" y="-1193.5" font-family="Helvetica,sans-Serif" font-size="10.00"> +Npos</text>
</g>
<!-- Node20 -->
<g id="node8" class="node"><title>Node20</title>
<polygon fill="none" stroke="#bfbfbf" points="109,-1291.5 109,-1348.5 144,-1348.5 144,-1291.5 109,-1291.5"/>
<text text-anchor="middle" x="126.5" y="-1336.5" font-family="Helvetica,sans-Serif" font-size="10.00">bool</text>
<polyline fill="none" stroke="#bfbfbf" points="109,-1329.5 144,-1329.5 "/>
<text text-anchor="middle" x="126.5" y="-1317.5" font-family="Helvetica,sans-Serif" font-size="10.00"> </text>
<polyline fill="none" stroke="#bfbfbf" points="109,-1310.5 144,-1310.5 "/>
<text text-anchor="middle" x="126.5" y="-1298.5" font-family="Helvetica,sans-Serif" font-size="10.00"> </text>
</g>
<!-- Node20&#45;&gt;Node16 -->
<g id="edge7" class="edge"><title>Node20&#45;&gt;Node16</title>
<path fill="none" stroke="#404040" d="M128.73,-1291.23C131.415,-1261.87 136.698,-1214.31 145.5,-1174 145.979,-1171.81 146.469,-1169.61 146.969,-1167.4"/>
<polygon fill="none" stroke="#404040" points="147.015,-1167.2 144.481,-1160.45 149.739,-1155.51 152.272,-1162.27 147.015,-1167.2"/>
<text text-anchor="middle" x="179.5" y="-1199" font-family="Helvetica,sans-Serif" font-size="10.00"> #activesuffstat</text>
<text text-anchor="middle" x="179.5" y="-1188" font-family="Helvetica,sans-Serif" font-size="10.00">#burnin</text>
</g>
<!-- Node21&#45;&gt;Node13 -->
<g id="edge10" class="edge"><title>Node21&#45;&gt;Node13</title>
<path fill="none" stroke="#404040" d="M454.93,-806.622C450.164,-734.324 442.252,-643.396 429.5,-563 415.128,-472.39 404.015,-451.185 382.5,-362 381.98,-359.844 381.456,-357.675 380.928,-355.494"/>
<polygon fill="none" stroke="#404040" points="380.904,-355.395 375.601,-350.508 378.073,-343.734 383.376,-348.621 380.904,-355.395"/>
<text text-anchor="middle" x="454" y="-537" font-family="Helvetica,sans-Serif" font-size="10.00"> #statespace</text>
</g>
<!-- Node22 -->
<g id="node10" class="node"><title>Node22</title>
<g id="a_node10"><a xlink:href="classStateSpace.html" target="_top" xlink:title="{StateSpace\n||+ ~StateSpace()\l+ GetState()\l+ GetNstate()\l+ GetState()\l}">
<polygon fill="none" stroke="black" points="417,-1275 417,-1365 506,-1365 506,-1275 417,-1275"/>
<text text-anchor="middle" x="461.5" y="-1353" font-family="Helvetica,sans-Serif" font-size="10.00">StateSpace</text>
<polyline fill="none" stroke="black" points="417,-1346 506,-1346 "/>
<text text-anchor="middle" x="461.5" y="-1334" font-family="Helvetica,sans-Serif" font-size="10.00"> </text>
<polyline fill="none" stroke="black" points="417,-1327 506,-1327 "/>
<text text-anchor="start" x="425" y="-1315" font-family="Helvetica,sans-Serif" font-size="10.00">+ ~StateSpace()</text>
<text text-anchor="start" x="425" y="-1304" font-family="Helvetica,sans-Serif" font-size="10.00">+ GetState()</text>
<text text-anchor="start" x="425" y="-1293" font-family="Helvetica,sans-Serif" font-size="10.00">+ GetNstate()</text>
<text text-anchor="start" x="425" y="-1282" font-family="Helvetica,sans-Serif" font-size="10.00">+ GetState()</text>
</a>
</g>
</g>
<!-- Node22&#45;&gt;Node21 -->
<g id="edge11" class="edge"><title>Node22&#45;&gt;Node21</title>
<path fill="none" stroke="midnightblue" d="M461.5,-1264.66C461.5,-1214.77 461.5,-1138.84 461.5,-1073.06"/>
<polygon fill="none" stroke="midnightblue" points="458,-1264.9 461.5,-1274.9 465,-1264.9 458,-1264.9"/>
</g>
</g>
</svg>
