<?xml version="1.0" encoding="UTF-8" standalone="no"?>
<!DOCTYPE svg PUBLIC "-//W3C//DTD SVG 1.1//EN"
 "http://www.w3.org/Graphics/SVG/1.1/DTD/svg11.dtd">
<!-- Generated by graphviz version 2.38.0 (20140413.2041)
 -->
<!-- Title: ExpoConjugateGTRGeneProfileProcess Pages: 1 -->
<svg width="753pt" height="1615pt"
 viewBox="0.00 0.00 752.87 1615.00" xmlns="http://www.w3.org/2000/svg" xmlns:xlink="http://www.w3.org/1999/xlink">
<g id="graph0" class="graph" transform="scale(1 1) rotate(0) translate(4 1611)">
<title>ExpoConjugateGTRGeneProfileProcess</title>
<!-- Node8 -->
<g id="node1" class="node"><title>Node8</title>
<polygon fill="#bfbfbf" stroke="black" points="419.87,-0.5 419.87,-178.5 589.87,-178.5 589.87,-0.5 419.87,-0.5"/>
<text text-anchor="start" x="427.87" y="-166.5" font-family="Helvetica,sans-Serif" font-size="10.00">ExpoConjugateGTRGeneProfile</text>
<text text-anchor="middle" x="504.87" y="-155.5" font-family="Helvetica,sans-Serif" font-size="10.00">Process</text>
<polyline fill="none" stroke="black" points="419.87,-148.5 589.87,-148.5 "/>
<text text-anchor="middle" x="504.87" y="-136.5" font-family="Helvetica,sans-Serif" font-size="10.00"> </text>
<polyline fill="none" stroke="black" points="419.87,-129.5 589.87,-129.5 "/>
<text text-anchor="start" x="427.87" y="-117.5" font-family="Helvetica,sans-Serif" font-size="10.00">+ ExpoConjugateGTRGeneProfile</text>
<text text-anchor="start" x="427.87" y="-106.5" font-family="Helvetica,sans-Serif" font-size="10.00">Process()</text>
<text text-anchor="start" x="427.87" y="-95.5" font-family="Helvetica,sans-Serif" font-size="10.00">+ ~ExpoConjugateGTRGeneProfile</text>
<text text-anchor="start" x="427.87" y="-84.5" font-family="Helvetica,sans-Serif" font-size="10.00">Process()</text>
<text text-anchor="start" x="427.87" y="-73.5" font-family="Helvetica,sans-Serif" font-size="10.00">+ SetMixtureParameters()</text>
<text text-anchor="start" x="427.87" y="-62.5" font-family="Helvetica,sans-Serif" font-size="10.00"># Create()</text>
<text text-anchor="start" x="427.87" y="-51.5" font-family="Helvetica,sans-Serif" font-size="10.00"># Delete()</text>
<text text-anchor="start" x="427.87" y="-40.5" font-family="Helvetica,sans-Serif" font-size="10.00"># GetMatrix()</text>
<text text-anchor="start" x="427.87" y="-29.5" font-family="Helvetica,sans-Serif" font-size="10.00"># UpdateMatrices()</text>
<text text-anchor="start" x="427.87" y="-18.5" font-family="Helvetica,sans-Serif" font-size="10.00"># CreateMatrices()</text>
<text text-anchor="start" x="427.87" y="-7.5" font-family="Helvetica,sans-Serif" font-size="10.00"># DeleteMatrices()</text>
</g>
<!-- Node9 -->
<g id="node2" class="node"><title>Node9</title>
<g id="a_node2"><a xlink:href="classExpoConjugateGTRProfileProcess.html" target="_top" xlink:title="{ExpoConjugateGTRProfileProcess\n||+ ExpoConjugateGTRProfileProcess()\l+ ~ExpoConjugateGTRProfile\lProcess()\l+ Create()\l+ Delete()\l+ GetSiteProfileSuffStatCount()\l+ GetSiteProfileSuffStatBeta()\l+ MoveRR()\l}">
<polygon fill="none" stroke="black" points="446.37,-226.5 446.37,-360.5 629.37,-360.5 629.37,-226.5 446.37,-226.5"/>
<text text-anchor="middle" x="537.87" y="-348.5" font-family="Helvetica,sans-Serif" font-size="10.00">ExpoConjugateGTRProfileProcess</text>
<polyline fill="none" stroke="black" points="446.37,-341.5 629.37,-341.5 "/>
<text text-anchor="middle" x="537.87" y="-329.5" font-family="Helvetica,sans-Serif" font-size="10.00"> </text>
<polyline fill="none" stroke="black" points="446.37,-322.5 629.37,-322.5 "/>
<text text-anchor="start" x="454.37" y="-310.5" font-family="Helvetica,sans-Serif" font-size="10.00">+ ExpoConjugateGTRProfileProcess()</text>
<text text-anchor="start" x="454.37" y="-299.5" font-family="Helvetica,sans-Serif" font-size="10.00">+ ~ExpoConjugateGTRProfile</text>
<text text-anchor="start" x="454.37" y="-288.5" font-family="Helvetica,sans-Serif" font-size="10.00">Process()</text>
<text text-anchor="start" x="454.37" y="-277.5" font-family="Helvetica,sans-Serif" font-size="10.00">+ Create()</text>
<text text-anchor="start" x="454.37" y="-266.5" font-family="Helvetica,sans-Serif" font-size="10.00">+ Delete()</text>
<text text-anchor="start" x="454.37" y="-255.5" font-family="Helvetica,sans-Serif" font-size="10.00">+ GetSiteProfileSuffStatCount()</text>
<text text-anchor="start" x="454.37" y="-244.5" font-family="Helvetica,sans-Serif" font-size="10.00">+ GetSiteProfileSuffStatBeta()</text>
<text text-anchor="start" x="454.37" y="-233.5" font-family="Helvetica,sans-Serif" font-size="10.00">+ MoveRR()</text>
</a>
</g>
</g>
<!-- Node9&#45;&gt;Node8 -->
<g id="edge1" class="edge"><title>Node9&#45;&gt;Node8</title>
<path fill="none" stroke="midnightblue" d="M520.336,-216.168C519.822,-213.415 519.331,-210.686 518.87,-208 517.238,-198.484 515.733,-188.501 514.364,-178.544"/>
<polygon fill="none" stroke="midnightblue" points="516.943,-217.057 522.289,-226.205 523.815,-215.721 516.943,-217.057"/>
</g>
<!-- Node9&#45;&gt;Node8 -->
<g id="edge19" class="edge"><title>Node9&#45;&gt;Node8</title>
<path fill="none" stroke="#404040" d="M527.065,-226.358C525.204,-214.967 523.233,-202.901 521.264,-190.848"/>
<polygon fill="none" stroke="#404040" points="521.235,-190.668 516.319,-185.391 519.3,-178.825 524.215,-184.101 521.235,-190.668"/>
<text text-anchor="middle" x="546.87" y="-200" font-family="Helvetica,sans-Serif" font-size="10.00"> #expohub</text>
</g>
<!-- Node10 -->
<g id="node3" class="node"><title>Node10</title>
<g id="a_node3"><a xlink:href="classGTRProfileProcess.html" target="_top" xlink:title="{GTRProfileProcess\n||+ GTRProfileProcess()\l+ ~GTRProfileProcess()\l+ GetNrr()\l+ GetRR()\l+ GetRRMean()\l+ SetRR()\l+ GetRRVarCoeff()\l+ GetRREntropy()\l+ rrindex()\l# Create()\l# Delete()\l# LogRRPrior()\l# SampleRR()\l# UpdateRRSuffStat()\l# GlobalUpdateRRSuffStat()\l# SlaveUpdateRRSuffStat()\l# MoveRR()\l}">
<polygon fill="none" stroke="black" points="377.37,-398.5 377.37,-631.5 518.37,-631.5 518.37,-398.5 377.37,-398.5"/>
<text text-anchor="middle" x="447.87" y="-619.5" font-family="Helvetica,sans-Serif" font-size="10.00">GTRProfileProcess</text>
<polyline fill="none" stroke="black" points="377.37,-612.5 518.37,-612.5 "/>
<text text-anchor="middle" x="447.87" y="-600.5" font-family="Helvetica,sans-Serif" font-size="10.00"> </text>
<polyline fill="none" stroke="black" points="377.37,-593.5 518.37,-593.5 "/>
<text text-anchor="start" x="385.37" y="-581.5" font-family="Helvetica,sans-Serif" font-size="10.00">+ GTRProfileProcess()</text>
<text text-anchor="start" x="385.37" y="-570.5" font-family="Helvetica,sans-Serif" font-size="10.00">+ ~GTRProfileProcess()</text>
<text text-anchor="start" x="385.37" y="-559.5" font-family="Helvetica,sans-Serif" font-size="10.00">+ GetNrr()</text>
<text text-anchor="start" x="385.37" y="-548.5" font-family="Helvetica,sans-Serif" font-size="10.00">+ GetRR()</text>
<text text-anchor="start" x="385.37" y="-537.5" font-family="Helvetica,sans-Serif" font-size="10.00">+ GetRRMean()</text>
<text text-anchor="start" x="385.37" y="-526.5" font-family="Helvetica,sans-Serif" font-size="10.00">+ SetRR()</text>
<text text-anchor="start" x="385.37" y="-515.5" font-family="Helvetica,sans-Serif" font-size="10.00">+ GetRRVarCoeff()</text>
<text text-anchor="start" x="385.37" y="-504.5" font-family="Helvetica,sans-Serif" font-size="10.00">+ GetRREntropy()</text>
<text text-anchor="start" x="385.37" y="-493.5" font-family="Helvetica,sans-Serif" font-size="10.00">+ rrindex()</text>
<text text-anchor="start" x="385.37" y="-482.5" font-family="Helvetica,sans-Serif" font-size="10.00"># Create()</text>
<text text-anchor="start" x="385.37" y="-471.5" font-family="Helvetica,sans-Serif" font-size="10.00"># Delete()</text>
<text text-anchor="start" x="385.37" y="-460.5" font-family="Helvetica,sans-Serif" font-size="10.00"># LogRRPrior()</text>
<text text-anchor="start" x="385.37" y="-449.5" font-family="Helvetica,sans-Serif" font-size="10.00"># SampleRR()</text>
<text text-anchor="start" x="385.37" y="-438.5" font-family="Helvetica,sans-Serif" font-size="10.00"># UpdateRRSuffStat()</text>
<text text-anchor="start" x="385.37" y="-427.5" font-family="Helvetica,sans-Serif" font-size="10.00"># GlobalUpdateRRSuffStat()</text>
<text text-anchor="start" x="385.37" y="-416.5" font-family="Helvetica,sans-Serif" font-size="10.00"># SlaveUpdateRRSuffStat()</text>
<text text-anchor="start" x="385.37" y="-405.5" font-family="Helvetica,sans-Serif" font-size="10.00"># MoveRR()</text>
</a>
</g>
</g>
<!-- Node10&#45;&gt;Node9 -->
<g id="edge2" class="edge"><title>Node10&#45;&gt;Node9</title>
<path fill="none" stroke="midnightblue" d="M499.077,-389.114C503.059,-379.401 506.975,-369.85 510.697,-360.772"/>
<polygon fill="none" stroke="midnightblue" points="495.798,-387.885 495.243,-398.465 502.275,-390.54 495.798,-387.885"/>
</g>
<!-- Node11 -->
<g id="node4" class="node"><title>Node11</title>
<g id="a_node4"><a xlink:href="classMatrixProfileProcess.html" target="_top" xlink:title="{MatrixProfileProcess\n||+ MatrixProfileProcess()\l+ ~MatrixProfileProcess()\l+ GetMatrix()\l# CreateMatrices()\l# DeleteMatrices()\l# ProfileProposeMove()\l# UpdateMatrices()\l}">
<polygon fill="none" stroke="black" points="328.87,-718 328.87,-841 456.87,-841 456.87,-718 328.87,-718"/>
<text text-anchor="middle" x="392.87" y="-829" font-family="Helvetica,sans-Serif" font-size="10.00">MatrixProfileProcess</text>
<polyline fill="none" stroke="black" points="328.87,-822 456.87,-822 "/>
<text text-anchor="middle" x="392.87" y="-810" font-family="Helvetica,sans-Serif" font-size="10.00"> </text>
<polyline fill="none" stroke="black" points="328.87,-803 456.87,-803 "/>
<text text-anchor="start" x="336.87" y="-791" font-family="Helvetica,sans-Serif" font-size="10.00">+ MatrixProfileProcess()</text>
<text text-anchor="start" x="336.87" y="-780" font-family="Helvetica,sans-Serif" font-size="10.00">+ ~MatrixProfileProcess()</text>
<text text-anchor="start" x="336.87" y="-769" font-family="Helvetica,sans-Serif" font-size="10.00">+ GetMatrix()</text>
<text text-anchor="start" x="336.87" y="-758" font-family="Helvetica,sans-Serif" font-size="10.00"># CreateMatrices()</text>
<text text-anchor="start" x="336.87" y="-747" font-family="Helvetica,sans-Serif" font-size="10.00"># DeleteMatrices()</text>
<text text-anchor="start" x="336.87" y="-736" font-family="Helvetica,sans-Serif" font-size="10.00"># ProfileProposeMove()</text>
<text text-anchor="start" x="336.87" y="-725" font-family="Helvetica,sans-Serif" font-size="10.00"># UpdateMatrices()</text>
</a>
</g>
</g>
<!-- Node11&#45;&gt;Node10 -->
<g id="edge3" class="edge"><title>Node11&#45;&gt;Node10</title>
<path fill="none" stroke="midnightblue" d="M407.622,-708.095C412.545,-684.599 418.168,-657.763 423.618,-631.75"/>
<polygon fill="none" stroke="midnightblue" points="404.183,-707.442 405.558,-717.948 411.034,-708.878 404.183,-707.442"/>
</g>
<!-- Node12 -->
<g id="node5" class="node"><title>Node12</title>
<g id="a_node5"><a xlink:href="classProfileProcess.html" target="_top" xlink:title="{ProfileProcess\n||+ ProfileProcess()\l+ ~ProfileProcess()\l+ GetVersion()\l+ GetStatInfCount()\l+ GetDim()\l+ GetNsite()\l+ GetProfile()\l+ GetStateSpace()\l+ LogProfilePrior()\l+ SampleProfile()\l+ GetMeanStationaryEntropy()\l+ GetSiteStationaryEntropy()\l+ UpdateSiteProfileSuffStat()\l+ GlobalUpdateSiteProfileSuffStat()\l+ SlaveUpdateSiteProfileSuffStat()\l+ GlobalUpdateParameters()\l+ SlaveUpdateParameters()\l+ ProfileSuffStatLogProb()\l+ ToStream()\l+ FromStream()\l+ SetBurnin()\l+ isObserved()\l+ GetMinStat()\l+ GetMinMinStat()\l# DrawProfileFromPrior()\l# GetNormalizationFactor()\l# Create()\l# Delete()\l# GetNprocs()\l# GetMyid()\l# GetSiteMin()\l# GetSiteMax()\l# GetEmpiricalFreq()\l# GetMinTotWeight()\l# SetMinTotWeight()\l}">
<polygon fill="none" stroke="black" points="130.87,-927.5 130.87,-1358.5 302.87,-1358.5 302.87,-927.5 130.87,-927.5"/>
<text text-anchor="middle" x="216.87" y="-1346.5" font-family="Helvetica,sans-Serif" font-size="10.00">ProfileProcess</text>
<polyline fill="none" stroke="black" points="130.87,-1339.5 302.87,-1339.5 "/>
<text text-anchor="middle" x="216.87" y="-1327.5" font-family="Helvetica,sans-Serif" font-size="10.00"> </text>
<polyline fill="none" stroke="black" points="130.87,-1320.5 302.87,-1320.5 "/>
<text text-anchor="start" x="138.87" y="-1308.5" font-family="Helvetica,sans-Serif" font-size="10.00">+ ProfileProcess()</text>
<text text-anchor="start" x="138.87" y="-1297.5" font-family="Helvetica,sans-Serif" font-size="10.00">+ ~ProfileProcess()</text>
<text text-anchor="start" x="138.87" y="-1286.5" font-family="Helvetica,sans-Serif" font-size="10.00">+ GetVersion()</text>
<text text-anchor="start" x="138.87" y="-1275.5" font-family="Helvetica,sans-Serif" font-size="10.00">+ GetStatInfCount()</text>
<text text-anchor="start" x="138.87" y="-1264.5" font-family="Helvetica,sans-Serif" font-size="10.00">+ GetDim()</text>
<text text-anchor="start" x="138.87" y="-1253.5" font-family="Helvetica,sans-Serif" font-size="10.00">+ GetNsite()</text>
<text text-anchor="start" x="138.87" y="-1242.5" font-family="Helvetica,sans-Serif" font-size="10.00">+ GetProfile()</text>
<text text-anchor="start" x="138.87" y="-1231.5" font-family="Helvetica,sans-Serif" font-size="10.00">+ GetStateSpace()</text>
<text text-anchor="start" x="138.87" y="-1220.5" font-family="Helvetica,sans-Serif" font-size="10.00">+ LogProfilePrior()</text>
<text text-anchor="start" x="138.87" y="-1209.5" font-family="Helvetica,sans-Serif" font-size="10.00">+ SampleProfile()</text>
<text text-anchor="start" x="138.87" y="-1198.5" font-family="Helvetica,sans-Serif" font-size="10.00">+ GetMeanStationaryEntropy()</text>
<text text-anchor="start" x="138.87" y="-1187.5" font-family="Helvetica,sans-Serif" font-size="10.00">+ GetSiteStationaryEntropy()</text>
<text text-anchor="start" x="138.87" y="-1176.5" font-family="Helvetica,sans-Serif" font-size="10.00">+ UpdateSiteProfileSuffStat()</text>
<text text-anchor="start" x="138.87" y="-1165.5" font-family="Helvetica,sans-Serif" font-size="10.00">+ GlobalUpdateSiteProfileSuffStat()</text>
<text text-anchor="start" x="138.87" y="-1154.5" font-family="Helvetica,sans-Serif" font-size="10.00">+ SlaveUpdateSiteProfileSuffStat()</text>
<text text-anchor="start" x="138.87" y="-1143.5" font-family="Helvetica,sans-Serif" font-size="10.00">+ GlobalUpdateParameters()</text>
<text text-anchor="start" x="138.87" y="-1132.5" font-family="Helvetica,sans-Serif" font-size="10.00">+ SlaveUpdateParameters()</text>
<text text-anchor="start" x="138.87" y="-1121.5" font-family="Helvetica,sans-Serif" font-size="10.00">+ ProfileSuffStatLogProb()</text>
<text text-anchor="start" x="138.87" y="-1110.5" font-family="Helvetica,sans-Serif" font-size="10.00">+ ToStream()</text>
<text text-anchor="start" x="138.87" y="-1099.5" font-family="Helvetica,sans-Serif" font-size="10.00">+ FromStream()</text>
<text text-anchor="start" x="138.87" y="-1088.5" font-family="Helvetica,sans-Serif" font-size="10.00">+ SetBurnin()</text>
<text text-anchor="start" x="138.87" y="-1077.5" font-family="Helvetica,sans-Serif" font-size="10.00">+ isObserved()</text>
<text text-anchor="start" x="138.87" y="-1066.5" font-family="Helvetica,sans-Serif" font-size="10.00">+ GetMinStat()</text>
<text text-anchor="start" x="138.87" y="-1055.5" font-family="Helvetica,sans-Serif" font-size="10.00">+ GetMinMinStat()</text>
<text text-anchor="start" x="138.87" y="-1044.5" font-family="Helvetica,sans-Serif" font-size="10.00"># DrawProfileFromPrior()</text>
<text text-anchor="start" x="138.87" y="-1033.5" font-family="Helvetica,sans-Serif" font-size="10.00"># GetNormalizationFactor()</text>
<text text-anchor="start" x="138.87" y="-1022.5" font-family="Helvetica,sans-Serif" font-size="10.00"># Create()</text>
<text text-anchor="start" x="138.87" y="-1011.5" font-family="Helvetica,sans-Serif" font-size="10.00"># Delete()</text>
<text text-anchor="start" x="138.87" y="-1000.5" font-family="Helvetica,sans-Serif" font-size="10.00"># GetNprocs()</text>
<text text-anchor="start" x="138.87" y="-989.5" font-family="Helvetica,sans-Serif" font-size="10.00"># GetMyid()</text>
<text text-anchor="start" x="138.87" y="-978.5" font-family="Helvetica,sans-Serif" font-size="10.00"># GetSiteMin()</text>
<text text-anchor="start" x="138.87" y="-967.5" font-family="Helvetica,sans-Serif" font-size="10.00"># GetSiteMax()</text>
<text text-anchor="start" x="138.87" y="-956.5" font-family="Helvetica,sans-Serif" font-size="10.00"># GetEmpiricalFreq()</text>
<text text-anchor="start" x="138.87" y="-945.5" font-family="Helvetica,sans-Serif" font-size="10.00"># GetMinTotWeight()</text>
<text text-anchor="start" x="138.87" y="-934.5" font-family="Helvetica,sans-Serif" font-size="10.00"># SetMinTotWeight()</text>
</a>
</g>
</g>
<!-- Node12&#45;&gt;Node11 -->
<g id="edge4" class="edge"><title>Node12&#45;&gt;Node11</title>
<path fill="none" stroke="midnightblue" d="M307.389,-956.077C327.61,-914.545 347.652,-873.377 363.243,-841.355"/>
<polygon fill="none" stroke="midnightblue" points="304.168,-954.698 302.937,-965.221 310.461,-957.762 304.168,-954.698"/>
</g>
<!-- Node18 -->
<g id="node11" class="node"><title>Node18</title>
<g id="a_node11"><a xlink:href="classGeneProfileProcess.html" target="_top" xlink:title="{GeneProfileProcess\n||+ GeneProfileProcess()\l+ ~GeneProfileProcess()\l+ GetProfile()\l+ GetStateSpace()\l+ LogProfilePrior()\l+ SampleProfile()\l+ GetMeanStationaryEntropy()\l+ GetSiteStationaryEntropy()\l+ GlobalUpdateParameters()\l+ SlaveUpdateParameters()\l+ ProfileSuffStatLogProb()\l+ SetMixtureParameters()\l# Create()\l# Delete()\l}">
<polygon fill="none" stroke="black" points="102.37,-679.5 102.37,-879.5 251.37,-879.5 251.37,-679.5 102.37,-679.5"/>
<text text-anchor="middle" x="176.87" y="-867.5" font-family="Helvetica,sans-Serif" font-size="10.00">GeneProfileProcess</text>
<polyline fill="none" stroke="black" points="102.37,-860.5 251.37,-860.5 "/>
<text text-anchor="middle" x="176.87" y="-848.5" font-family="Helvetica,sans-Serif" font-size="10.00"> </text>
<polyline fill="none" stroke="black" points="102.37,-841.5 251.37,-841.5 "/>
<text text-anchor="start" x="110.37" y="-829.5" font-family="Helvetica,sans-Serif" font-size="10.00">+ GeneProfileProcess()</text>
<text text-anchor="start" x="110.37" y="-818.5" font-family="Helvetica,sans-Serif" font-size="10.00">+ ~GeneProfileProcess()</text>
<text text-anchor="start" x="110.37" y="-807.5" font-family="Helvetica,sans-Serif" font-size="10.00">+ GetProfile()</text>
<text text-anchor="start" x="110.37" y="-796.5" font-family="Helvetica,sans-Serif" font-size="10.00">+ GetStateSpace()</text>
<text text-anchor="start" x="110.37" y="-785.5" font-family="Helvetica,sans-Serif" font-size="10.00">+ LogProfilePrior()</text>
<text text-anchor="start" x="110.37" y="-774.5" font-family="Helvetica,sans-Serif" font-size="10.00">+ SampleProfile()</text>
<text text-anchor="start" x="110.37" y="-763.5" font-family="Helvetica,sans-Serif" font-size="10.00">+ GetMeanStationaryEntropy()</text>
<text text-anchor="start" x="110.37" y="-752.5" font-family="Helvetica,sans-Serif" font-size="10.00">+ GetSiteStationaryEntropy()</text>
<text text-anchor="start" x="110.37" y="-741.5" font-family="Helvetica,sans-Serif" font-size="10.00">+ GlobalUpdateParameters()</text>
<text text-anchor="start" x="110.37" y="-730.5" font-family="Helvetica,sans-Serif" font-size="10.00">+ SlaveUpdateParameters()</text>
<text text-anchor="start" x="110.37" y="-719.5" font-family="Helvetica,sans-Serif" font-size="10.00">+ ProfileSuffStatLogProb()</text>
<text text-anchor="start" x="110.37" y="-708.5" font-family="Helvetica,sans-Serif" font-size="10.00">+ SetMixtureParameters()</text>
<text text-anchor="start" x="110.37" y="-697.5" font-family="Helvetica,sans-Serif" font-size="10.00"># Create()</text>
<text text-anchor="start" x="110.37" y="-686.5" font-family="Helvetica,sans-Serif" font-size="10.00"># Delete()</text>
</a>
</g>
</g>
<!-- Node12&#45;&gt;Node18 -->
<g id="edge16" class="edge"><title>Node12&#45;&gt;Node18</title>
<path fill="none" stroke="midnightblue" d="M205.318,-917.086C204.554,-910.648 203.739,-904.275 202.87,-898 202.04,-891.998 201.064,-885.849 199.986,-879.661"/>
<polygon fill="none" stroke="midnightblue" points="201.867,-917.713 206.479,-927.252 208.822,-916.92 201.867,-917.713"/>
</g>
<!-- Node12&#45;&gt;Node18 -->
<g id="edge17" class="edge"><title>Node12&#45;&gt;Node18</title>
<path fill="none" stroke="#404040" d="M175.755,-927.329C175.055,-921.161 174.423,-915.042 173.87,-909 173.425,-904.131 173.808,-902.888 173.87,-898 173.897,-895.931 173.926,-893.841 173.957,-891.736"/>
<polygon fill="none" stroke="#404040" points="173.96,-891.541 170.061,-885.475 174.161,-879.543 178.06,-885.609 173.96,-891.541"/>
<text text-anchor="middle" x="186.37" y="-901" font-family="Helvetica,sans-Serif" font-size="10.00"> #hub</text>
</g>
<!-- Node13 -->
<g id="node6" class="node"><title>Node13</title>
<g id="a_node6"><a xlink:href="classChrono.html" target="_top" xlink:title="{Chrono\n||+ Chrono()\l+ ~Chrono()\l+ Reset()\l+ Start()\l+ Stop()\l+ ToStream()\l+ FromStream()\l+ operator++()\l+ GetTime()\l+ GetTimePerCount()\l+ GetCount()\l}">
<polygon fill="none" stroke="black" points="136.87,-1439.5 136.87,-1606.5 246.87,-1606.5 246.87,-1439.5 136.87,-1439.5"/>
<text text-anchor="middle" x="191.87" y="-1594.5" font-family="Helvetica,sans-Serif" font-size="10.00">Chrono</text>
<polyline fill="none" stroke="black" points="136.87,-1587.5 246.87,-1587.5 "/>
<text text-anchor="middle" x="191.87" y="-1575.5" font-family="Helvetica,sans-Serif" font-size="10.00"> </text>
<polyline fill="none" stroke="black" points="136.87,-1568.5 246.87,-1568.5 "/>
<text text-anchor="start" x="144.87" y="-1556.5" font-family="Helvetica,sans-Serif" font-size="10.00">+ Chrono()</text>
<text text-anchor="start" x="144.87" y="-1545.5" font-family="Helvetica,sans-Serif" font-size="10.00">+ ~Chrono()</text>
<text text-anchor="start" x="144.87" y="-1534.5" font-family="Helvetica,sans-Serif" font-size="10.00">+ Reset()</text>
<text text-anchor="start" x="144.87" y="-1523.5" font-family="Helvetica,sans-Serif" font-size="10.00">+ Start()</text>
<text text-anchor="start" x="144.87" y="-1512.5" font-family="Helvetica,sans-Serif" font-size="10.00">+ Stop()</text>
<text text-anchor="start" x="144.87" y="-1501.5" font-family="Helvetica,sans-Serif" font-size="10.00">+ ToStream()</text>
<text text-anchor="start" x="144.87" y="-1490.5" font-family="Helvetica,sans-Serif" font-size="10.00">+ FromStream()</text>
<text text-anchor="start" x="144.87" y="-1479.5" font-family="Helvetica,sans-Serif" font-size="10.00">+ operator++()</text>
<text text-anchor="start" x="144.87" y="-1468.5" font-family="Helvetica,sans-Serif" font-size="10.00">+ GetTime()</text>
<text text-anchor="start" x="144.87" y="-1457.5" font-family="Helvetica,sans-Serif" font-size="10.00">+ GetTimePerCount()</text>
<text text-anchor="start" x="144.87" y="-1446.5" font-family="Helvetica,sans-Serif" font-size="10.00">+ GetCount()</text>
</a>
</g>
</g>
<!-- Node13&#45;&gt;Node12 -->
<g id="edge5" class="edge"><title>Node13&#45;&gt;Node12</title>
<path fill="none" stroke="#404040" d="M191.075,-1439.14C191.257,-1418.81 191.768,-1397.11 192.87,-1377 192.985,-1374.91 193.105,-1372.8 193.23,-1370.69"/>
<polygon fill="none" stroke="#404040" points="193.243,-1370.48 189.627,-1364.24 193.996,-1358.5 197.612,-1364.74 193.243,-1370.48"/>
<text text-anchor="middle" x="220.37" y="-1407.5" font-family="Helvetica,sans-Serif" font-size="10.00"> #chronostat</text>
<text text-anchor="middle" x="220.37" y="-1396.5" font-family="Helvetica,sans-Serif" font-size="10.00">#chronorr</text>
<text text-anchor="middle" x="220.37" y="-1385.5" font-family="Helvetica,sans-Serif" font-size="10.00">#chronodp</text>
</g>
<!-- Node14 -->
<g id="node7" class="node"><title>Node14</title>
<polygon fill="none" stroke="#bfbfbf" points="538.37,-1494.5 538.37,-1551.5 583.37,-1551.5 583.37,-1494.5 538.37,-1494.5"/>
<text text-anchor="middle" x="560.87" y="-1539.5" font-family="Helvetica,sans-Serif" font-size="10.00">double</text>
<polyline fill="none" stroke="#bfbfbf" points="538.37,-1532.5 583.37,-1532.5 "/>
<text text-anchor="middle" x="560.87" y="-1520.5" font-family="Helvetica,sans-Serif" font-size="10.00"> </text>
<polyline fill="none" stroke="#bfbfbf" points="538.37,-1513.5 583.37,-1513.5 "/>
<text text-anchor="middle" x="560.87" y="-1501.5" font-family="Helvetica,sans-Serif" font-size="10.00"> </text>
</g>
<!-- Node14&#45;&gt;Node9 -->
<g id="edge13" class="edge"><title>Node14&#45;&gt;Node9</title>
<path fill="none" stroke="#404040" d="M575.689,-1494.46C607.172,-1433.29 677.87,-1280.71 677.87,-1144 677.87,-1144 677.87,-1144 677.87,-514 677.87,-460.439 647.873,-409.432 615.649,-370.091"/>
<polygon fill="none" stroke="#404040" points="615.603,-370.036 608.678,-368.025 607.87,-360.859 614.795,-362.87 615.603,-370.036"/>
<text text-anchor="middle" x="711.37" y="-777" font-family="Helvetica,sans-Serif" font-size="10.00"> +rrsuffstatbeta</text>
</g>
<!-- Node14&#45;&gt;Node10 -->
<g id="edge10" class="edge"><title>Node14&#45;&gt;Node10</title>
<path fill="none" stroke="#404040" d="M559.52,-1494.21C554.111,-1387.95 531.996,-997.346 484.87,-679 483.165,-667.482 481.086,-655.57 478.791,-643.671"/>
<polygon fill="none" stroke="#404040" points="478.769,-643.561 473.677,-638.455 476.431,-631.791 481.523,-636.896 478.769,-643.561"/>
<text text-anchor="middle" x="521.37" y="-901" font-family="Helvetica,sans-Serif" font-size="10.00"> #rr</text>
</g>
<!-- Node14&#45;&gt;Node12 -->
<g id="edge6" class="edge"><title>Node14&#45;&gt;Node12</title>
<path fill="none" stroke="#404040" d="M538.213,-1498.71C521.991,-1482.05 499.617,-1459.12 479.87,-1439 444.864,-1403.34 434.693,-1395.78 400.87,-1359 370.93,-1326.44 339.291,-1290.19 310.85,-1256.87"/>
<polygon fill="none" stroke="#404040" points="310.698,-1256.69 303.763,-1254.72 302.918,-1247.55 309.853,-1249.53 310.698,-1256.69"/>
<text text-anchor="middle" x="493.87" y="-1396.5" font-family="Helvetica,sans-Serif" font-size="10.00"> #mintotweight</text>
</g>
<!-- Node15 -->
<g id="node8" class="node"><title>Node15</title>
<polygon fill="none" stroke="#bfbfbf" points="442.37,-1494.5 442.37,-1551.5 471.37,-1551.5 471.37,-1494.5 442.37,-1494.5"/>
<text text-anchor="middle" x="456.87" y="-1539.5" font-family="Helvetica,sans-Serif" font-size="10.00">int</text>
<polyline fill="none" stroke="#bfbfbf" points="442.37,-1532.5 471.37,-1532.5 "/>
<text text-anchor="middle" x="456.87" y="-1520.5" font-family="Helvetica,sans-Serif" font-size="10.00"> </text>
<polyline fill="none" stroke="#bfbfbf" points="442.37,-1513.5 471.37,-1513.5 "/>
<text text-anchor="middle" x="456.87" y="-1501.5" font-family="Helvetica,sans-Serif" font-size="10.00"> </text>
</g>
<!-- Node15&#45;&gt;Node9 -->
<g id="edge14" class="edge"><title>Node15&#45;&gt;Node9</title>
<path fill="none" stroke="#404040" d="M463.763,-1494.29C468.58,-1474.08 474.845,-1445.98 478.87,-1421 515.275,-1195.1 519.924,-1137.45 532.87,-909 543.761,-716.816 541.784,-490.292 539.668,-373.295"/>
<polygon fill="none" stroke="#404040" points="539.661,-372.947 535.55,-367.023 539.437,-360.949 543.548,-366.873 539.661,-372.947"/>
<text text-anchor="middle" x="577.37" y="-777" font-family="Helvetica,sans-Serif" font-size="10.00"> +rrsuffstatcount</text>
</g>
<!-- Node15&#45;&gt;Node10 -->
<g id="edge11" class="edge"><title>Node15&#45;&gt;Node10</title>
<path fill="none" stroke="#404040" d="M458.864,-1494.33C461.092,-1461.92 464.557,-1406.6 465.87,-1359 474.204,-1056.89 482.482,-980.765 465.87,-679 465.243,-667.607 464.371,-655.786 463.347,-643.95"/>
<polygon fill="none" stroke="#404040" points="463.313,-643.579 458.787,-637.966 462.227,-631.629 466.754,-637.242 463.313,-643.579"/>
<text text-anchor="middle" x="485.87" y="-901" font-family="Helvetica,sans-Serif" font-size="10.00"> #Nrr</text>
</g>
<!-- Node15&#45;&gt;Node12 -->
<g id="edge7" class="edge"><title>Node15&#45;&gt;Node12</title>
<path fill="none" stroke="#404040" d="M442.192,-1518.61C406.546,-1509.55 315.102,-1481.29 270.87,-1421 263.189,-1410.53 256.373,-1392.52 250.394,-1370.54"/>
<polygon fill="none" stroke="#404040" points="250.338,-1370.32 244.968,-1365.51 247.344,-1358.7 252.714,-1363.51 250.338,-1370.32"/>
<text text-anchor="middle" x="299.87" y="-1413" font-family="Helvetica,sans-Serif" font-size="10.00"> #dim</text>
<text text-anchor="middle" x="299.87" y="-1402" font-family="Helvetica,sans-Serif" font-size="10.00">#statinfcount</text>
<text text-anchor="middle" x="299.87" y="-1391" font-family="Helvetica,sans-Serif" font-size="10.00">#totstatcount</text>
<text text-anchor="middle" x="299.87" y="-1380" font-family="Helvetica,sans-Serif" font-size="10.00">#nsite</text>
</g>
<!-- Node15&#45;&gt;Node18 -->
<g id="edge18" class="edge"><title>Node15&#45;&gt;Node18</title>
<path fill="none" stroke="#404040" d="M452.335,-1494.22C435.069,-1390.51 371.404,-1026.89 311.87,-927 295.922,-900.24 281.457,-902.461 259.87,-880 259.783,-879.909 259.695,-879.817 259.607,-879.726"/>
<polygon fill="none" stroke="#404040" points="259.643,-879.764 252.619,-878.134 251.422,-871.023 258.446,-872.653 259.643,-879.764"/>
<text text-anchor="middle" x="444.87" y="-1140.5" font-family="Helvetica,sans-Serif" font-size="10.00"> #offset</text>
</g>
<!-- Node16 -->
<g id="node9" class="node"><title>Node16</title>
<polygon fill="none" stroke="#bfbfbf" points="67.3705,-1494.5 67.3705,-1551.5 102.37,-1551.5 102.37,-1494.5 67.3705,-1494.5"/>
<text text-anchor="middle" x="84.8705" y="-1539.5" font-family="Helvetica,sans-Serif" font-size="10.00">bool</text>
<polyline fill="none" stroke="#bfbfbf" points="67.3705,-1532.5 102.37,-1532.5 "/>
<text text-anchor="middle" x="84.8705" y="-1520.5" font-family="Helvetica,sans-Serif" font-size="10.00"> </text>
<polyline fill="none" stroke="#bfbfbf" points="67.3705,-1513.5 102.37,-1513.5 "/>
<text text-anchor="middle" x="84.8705" y="-1501.5" font-family="Helvetica,sans-Serif" font-size="10.00"> </text>
</g>
<!-- Node16&#45;&gt;Node10 -->
<g id="edge12" class="edge"><title>Node16&#45;&gt;Node10</title>
<path fill="none" stroke="#404040" d="M75.4152,-1494.26C38.8145,-1381.48 -83.0158,-950.456 92.8705,-679 153.037,-586.142 280.702,-545.438 365.393,-528.127"/>
<polygon fill="none" stroke="#404040" points="365.53,-528.1 370.647,-523.019 377.305,-525.788 372.189,-530.869 365.53,-528.1"/>
<text text-anchor="middle" x="24.3705" y="-901" font-family="Helvetica,sans-Serif" font-size="10.00"> #fixrr</text>
</g>
<!-- Node16&#45;&gt;Node12 -->
<g id="edge8" class="edge"><title>Node16&#45;&gt;Node12</title>
<path fill="none" stroke="#404040" d="M90.1832,-1494.38C96.1598,-1464.94 106.766,-1417.13 119.87,-1377 122.049,-1370.33 124.335,-1363.58 126.706,-1356.79"/>
<polygon fill="none" stroke="#404040" points="126.759,-1356.64 124.996,-1349.65 130.772,-1345.33 132.535,-1352.32 126.759,-1356.64"/>
<text text-anchor="middle" x="153.87" y="-1402" font-family="Helvetica,sans-Serif" font-size="10.00"> #activesuffstat</text>
<text text-anchor="middle" x="153.87" y="-1391" font-family="Helvetica,sans-Serif" font-size="10.00">#burnin</text>
</g>
<!-- Node17 -->
<g id="node10" class="node"><title>Node17</title>
<polygon fill="none" stroke="#bfbfbf" points="269.37,-751 269.37,-808 310.37,-808 310.37,-751 269.37,-751"/>
<text text-anchor="middle" x="289.87" y="-796" font-family="Helvetica,sans-Serif" font-size="10.00">string</text>
<polyline fill="none" stroke="#bfbfbf" points="269.37,-789 310.37,-789 "/>
<text text-anchor="middle" x="289.87" y="-777" font-family="Helvetica,sans-Serif" font-size="10.00"> </text>
<polyline fill="none" stroke="#bfbfbf" points="269.37,-770 310.37,-770 "/>
<text text-anchor="middle" x="289.87" y="-758" font-family="Helvetica,sans-Serif" font-size="10.00"> </text>
</g>
<!-- Node17&#45;&gt;Node10 -->
<g id="edge9" class="edge"><title>Node17&#45;&gt;Node10</title>
<path fill="none" stroke="#404040" d="M295.292,-750.837C300.006,-730.258 307.973,-701.894 319.87,-679 333.432,-652.903 351.383,-626.854 369.537,-603.483"/>
<polygon fill="none" stroke="#404040" points="369.604,-603.399 370.184,-596.211 377.042,-593.982 376.462,-601.17 369.604,-603.399"/>
<text text-anchor="middle" x="350.87" y="-653" font-family="Helvetica,sans-Serif" font-size="10.00"> #rrtype</text>
</g>
<!-- Node18&#45;&gt;Node8 -->
<g id="edge15" class="edge"><title>Node18&#45;&gt;Node8</title>
<path fill="none" stroke="midnightblue" d="M226.908,-670.077C278.679,-558.396 362.262,-379.476 436.87,-226 444.35,-210.613 452.415,-194.305 460.287,-178.535"/>
<polygon fill="none" stroke="midnightblue" points="223.647,-668.79 222.618,-679.335 229.998,-671.733 223.647,-668.79"/>
</g>
</g>
</svg>
