<?xml version="1.0" encoding="UTF-8" standalone="no"?>
<!DOCTYPE svg PUBLIC "-//W3C//DTD SVG 1.1//EN"
 "http://www.w3.org/Graphics/SVG/1.1/DTD/svg11.dtd">
<!-- Generated by graphviz version 2.38.0 (20140413.2041)
 -->
<!-- Title: GTRSubstitutionProcess Pages: 1 -->
<svg width="827pt" height="1587pt"
 viewBox="0.00 0.00 827.26 1587.00" xmlns="http://www.w3.org/2000/svg" xmlns:xlink="http://www.w3.org/1999/xlink">
<g id="graph0" class="graph" transform="scale(1 1) rotate(0) translate(4 1583)">
<title>GTRSubstitutionProcess</title>
<!-- Node19 -->
<g id="node1" class="node"><title>Node19</title>
<polygon fill="#bfbfbf" stroke="black" points="264.763,-0.5 264.763,-90.5 410.763,-90.5 410.763,-0.5 264.763,-0.5"/>
<text text-anchor="middle" x="337.763" y="-78.5" font-family="Helvetica,sans-Serif" font-size="10.00">GTRSubstitutionProcess</text>
<polyline fill="none" stroke="black" points="264.763,-71.5 410.763,-71.5 "/>
<text text-anchor="middle" x="337.763" y="-59.5" font-family="Helvetica,sans-Serif" font-size="10.00"> </text>
<polyline fill="none" stroke="black" points="264.763,-52.5 410.763,-52.5 "/>
<text text-anchor="start" x="272.763" y="-40.5" font-family="Helvetica,sans-Serif" font-size="10.00">+ GTRSubstitutionProcess()</text>
<text text-anchor="start" x="272.763" y="-29.5" font-family="Helvetica,sans-Serif" font-size="10.00">+ ~GTRSubstitutionProcess()</text>
<text text-anchor="start" x="272.763" y="-18.5" font-family="Helvetica,sans-Serif" font-size="10.00"># Create()</text>
<text text-anchor="start" x="272.763" y="-7.5" font-family="Helvetica,sans-Serif" font-size="10.00"># Delete()</text>
</g>
<!-- Node20 -->
<g id="node2" class="node"><title>Node20</title>
<g id="a_node2"><a xlink:href="classMatrixSubstitutionProcess.html" target="_top" xlink:title="{MatrixSubstitutionProcess\n||+ MatrixSubstitutionProcess()\l+ ~MatrixSubstitutionProcess()\l+ GetNstate()\l+ GetStationary()\l# Propagate()\l# SamplePaths()\l# SampleRootPaths()\l# ResampleAcceptReject()\l# ResampleUniformized()\l# SimuPropagate()\l}">
<polygon fill="none" stroke="black" points="261.763,-167 261.763,-323 413.763,-323 413.763,-167 261.763,-167"/>
<text text-anchor="middle" x="337.763" y="-311" font-family="Helvetica,sans-Serif" font-size="10.00">MatrixSubstitutionProcess</text>
<polyline fill="none" stroke="black" points="261.763,-304 413.763,-304 "/>
<text text-anchor="middle" x="337.763" y="-292" font-family="Helvetica,sans-Serif" font-size="10.00"> </text>
<polyline fill="none" stroke="black" points="261.763,-285 413.763,-285 "/>
<text text-anchor="start" x="269.763" y="-273" font-family="Helvetica,sans-Serif" font-size="10.00">+ MatrixSubstitutionProcess()</text>
<text text-anchor="start" x="269.763" y="-262" font-family="Helvetica,sans-Serif" font-size="10.00">+ ~MatrixSubstitutionProcess()</text>
<text text-anchor="start" x="269.763" y="-251" font-family="Helvetica,sans-Serif" font-size="10.00">+ GetNstate()</text>
<text text-anchor="start" x="269.763" y="-240" font-family="Helvetica,sans-Serif" font-size="10.00">+ GetStationary()</text>
<text text-anchor="start" x="269.763" y="-229" font-family="Helvetica,sans-Serif" font-size="10.00"># Propagate()</text>
<text text-anchor="start" x="269.763" y="-218" font-family="Helvetica,sans-Serif" font-size="10.00"># SamplePaths()</text>
<text text-anchor="start" x="269.763" y="-207" font-family="Helvetica,sans-Serif" font-size="10.00"># SampleRootPaths()</text>
<text text-anchor="start" x="269.763" y="-196" font-family="Helvetica,sans-Serif" font-size="10.00"># ResampleAcceptReject()</text>
<text text-anchor="start" x="269.763" y="-185" font-family="Helvetica,sans-Serif" font-size="10.00"># ResampleUniformized()</text>
<text text-anchor="start" x="269.763" y="-174" font-family="Helvetica,sans-Serif" font-size="10.00"># SimuPropagate()</text>
</a>
</g>
</g>
<!-- Node20&#45;&gt;Node19 -->
<g id="edge1" class="edge"><title>Node20&#45;&gt;Node19</title>
<path fill="none" stroke="midnightblue" d="M337.763,-156.706C337.763,-133.826 337.763,-110.115 337.763,-90.5746"/>
<polygon fill="none" stroke="midnightblue" points="334.263,-156.793 337.763,-166.793 341.263,-156.793 334.263,-156.793"/>
</g>
<!-- Node21 -->
<g id="node3" class="node"><title>Node21</title>
<g id="a_node3"><a xlink:href="classSubstitutionProcess.html" target="_top" xlink:title="{SubstitutionProcess\n||+ SubstitutionProcess()\l+ ~SubstitutionProcess()\l+ GetNsite()\l+ GetDim()\l+ GetNstate()\l+ GetGlobalNstate()\l+ GetStationary()\l+ GetSiteMin()\l+ GetSiteMax()\l+ GetInfProbCount()\l# Create()\l# Delete()\l# CreateConditionalLikelihood\lVector()\l# DeleteConditionalLikelihood\lVector()\l# CreateProbVector()\l# CreateCondSiteLogL()\l# DeleteCondSiteLogL()\l# DrawAllocations()\l# DrawAllocationsFromPrior()\l# Reset()\l# Multiply()\l# MultiplyByStationaries()\l# Offset()\l# Initialize()\l# ComputeLikelihood()\l# ConditionalLikelihoodsTo\lStatePostProbs()\l# Propagate()\l# SimuPropagate()\l# ChooseStates()\l# ChooseStatesAtEquilibrium()\l# SetCondToStates()\l# SamplePaths()\l# SampleRootPaths()\l}">
<polygon fill="none" stroke="black" points="223.263,-409.5 223.263,-851.5 374.263,-851.5 374.263,-409.5 223.263,-409.5"/>
<text text-anchor="middle" x="298.763" y="-839.5" font-family="Helvetica,sans-Serif" font-size="10.00">SubstitutionProcess</text>
<polyline fill="none" stroke="black" points="223.263,-832.5 374.263,-832.5 "/>
<text text-anchor="middle" x="298.763" y="-820.5" font-family="Helvetica,sans-Serif" font-size="10.00"> </text>
<polyline fill="none" stroke="black" points="223.263,-813.5 374.263,-813.5 "/>
<text text-anchor="start" x="231.263" y="-801.5" font-family="Helvetica,sans-Serif" font-size="10.00">+ SubstitutionProcess()</text>
<text text-anchor="start" x="231.263" y="-790.5" font-family="Helvetica,sans-Serif" font-size="10.00">+ ~SubstitutionProcess()</text>
<text text-anchor="start" x="231.263" y="-779.5" font-family="Helvetica,sans-Serif" font-size="10.00">+ GetNsite()</text>
<text text-anchor="start" x="231.263" y="-768.5" font-family="Helvetica,sans-Serif" font-size="10.00">+ GetDim()</text>
<text text-anchor="start" x="231.263" y="-757.5" font-family="Helvetica,sans-Serif" font-size="10.00">+ GetNstate()</text>
<text text-anchor="start" x="231.263" y="-746.5" font-family="Helvetica,sans-Serif" font-size="10.00">+ GetGlobalNstate()</text>
<text text-anchor="start" x="231.263" y="-735.5" font-family="Helvetica,sans-Serif" font-size="10.00">+ GetStationary()</text>
<text text-anchor="start" x="231.263" y="-724.5" font-family="Helvetica,sans-Serif" font-size="10.00">+ GetSiteMin()</text>
<text text-anchor="start" x="231.263" y="-713.5" font-family="Helvetica,sans-Serif" font-size="10.00">+ GetSiteMax()</text>
<text text-anchor="start" x="231.263" y="-702.5" font-family="Helvetica,sans-Serif" font-size="10.00">+ GetInfProbCount()</text>
<text text-anchor="start" x="231.263" y="-691.5" font-family="Helvetica,sans-Serif" font-size="10.00"># Create()</text>
<text text-anchor="start" x="231.263" y="-680.5" font-family="Helvetica,sans-Serif" font-size="10.00"># Delete()</text>
<text text-anchor="start" x="231.263" y="-669.5" font-family="Helvetica,sans-Serif" font-size="10.00"># CreateConditionalLikelihood</text>
<text text-anchor="start" x="231.263" y="-658.5" font-family="Helvetica,sans-Serif" font-size="10.00">Vector()</text>
<text text-anchor="start" x="231.263" y="-647.5" font-family="Helvetica,sans-Serif" font-size="10.00"># DeleteConditionalLikelihood</text>
<text text-anchor="start" x="231.263" y="-636.5" font-family="Helvetica,sans-Serif" font-size="10.00">Vector()</text>
<text text-anchor="start" x="231.263" y="-625.5" font-family="Helvetica,sans-Serif" font-size="10.00"># CreateProbVector()</text>
<text text-anchor="start" x="231.263" y="-614.5" font-family="Helvetica,sans-Serif" font-size="10.00"># CreateCondSiteLogL()</text>
<text text-anchor="start" x="231.263" y="-603.5" font-family="Helvetica,sans-Serif" font-size="10.00"># DeleteCondSiteLogL()</text>
<text text-anchor="start" x="231.263" y="-592.5" font-family="Helvetica,sans-Serif" font-size="10.00"># DrawAllocations()</text>
<text text-anchor="start" x="231.263" y="-581.5" font-family="Helvetica,sans-Serif" font-size="10.00"># DrawAllocationsFromPrior()</text>
<text text-anchor="start" x="231.263" y="-570.5" font-family="Helvetica,sans-Serif" font-size="10.00"># Reset()</text>
<text text-anchor="start" x="231.263" y="-559.5" font-family="Helvetica,sans-Serif" font-size="10.00"># Multiply()</text>
<text text-anchor="start" x="231.263" y="-548.5" font-family="Helvetica,sans-Serif" font-size="10.00"># MultiplyByStationaries()</text>
<text text-anchor="start" x="231.263" y="-537.5" font-family="Helvetica,sans-Serif" font-size="10.00"># Offset()</text>
<text text-anchor="start" x="231.263" y="-526.5" font-family="Helvetica,sans-Serif" font-size="10.00"># Initialize()</text>
<text text-anchor="start" x="231.263" y="-515.5" font-family="Helvetica,sans-Serif" font-size="10.00"># ComputeLikelihood()</text>
<text text-anchor="start" x="231.263" y="-504.5" font-family="Helvetica,sans-Serif" font-size="10.00"># ConditionalLikelihoodsTo</text>
<text text-anchor="start" x="231.263" y="-493.5" font-family="Helvetica,sans-Serif" font-size="10.00">StatePostProbs()</text>
<text text-anchor="start" x="231.263" y="-482.5" font-family="Helvetica,sans-Serif" font-size="10.00"># Propagate()</text>
<text text-anchor="start" x="231.263" y="-471.5" font-family="Helvetica,sans-Serif" font-size="10.00"># SimuPropagate()</text>
<text text-anchor="start" x="231.263" y="-460.5" font-family="Helvetica,sans-Serif" font-size="10.00"># ChooseStates()</text>
<text text-anchor="start" x="231.263" y="-449.5" font-family="Helvetica,sans-Serif" font-size="10.00"># ChooseStatesAtEquilibrium()</text>
<text text-anchor="start" x="231.263" y="-438.5" font-family="Helvetica,sans-Serif" font-size="10.00"># SetCondToStates()</text>
<text text-anchor="start" x="231.263" y="-427.5" font-family="Helvetica,sans-Serif" font-size="10.00"># SamplePaths()</text>
<text text-anchor="start" x="231.263" y="-416.5" font-family="Helvetica,sans-Serif" font-size="10.00"># SampleRootPaths()</text>
</a>
</g>
</g>
<!-- Node21&#45;&gt;Node20 -->
<g id="edge2" class="edge"><title>Node21&#45;&gt;Node20</title>
<path fill="none" stroke="midnightblue" d="M322.166,-399.367C324.943,-372.058 327.61,-345.832 329.929,-323.029"/>
<polygon fill="none" stroke="midnightblue" points="318.668,-399.17 321.138,-409.473 325.632,-399.878 318.668,-399.17"/>
</g>
<!-- Node22 -->
<g id="node4" class="node"><title>Node22</title>
<g id="a_node4"><a xlink:href="classRateProcess.html" target="_top" xlink:title="{RateProcess\n||+ RateProcess()\l+ ~RateProcess()\l+ GetVersion()\l+ GetNsite()\l+ GetNrate()\l+ GetRate()\l+ GetRateWeight()\l+ GetMeanRate()\l+ GetPriorMeanRate()\l+ GetAlpha()\l+ ActivateSumOverRateAllocations()\l+ InactivateSumOverRateAllocations()\l+ SumOverRateAllocations()\l+ LogRatePrior()\l+ SampleRate()\l+ ToStream()\l+ FromStream()\l# GlobalUpdateSiteRateSuffStat()\l# SlaveUpdateSiteRateSuffStat()\l# UpdateSiteRateSuffStat()\l# GetSiteRateSuffStatBeta()\l# GetSiteRateSuffStatCount()\l# Create()\l# Delete()\l# GetNprocs()\l# GetMyid()\l# GetSiteMin()\l# GetSiteMax()\l}">
<polygon fill="none" stroke="black" points="145.263,-938 145.263,-1292 330.263,-1292 330.263,-938 145.263,-938"/>
<text text-anchor="middle" x="237.763" y="-1280" font-family="Helvetica,sans-Serif" font-size="10.00">RateProcess</text>
<polyline fill="none" stroke="black" points="145.263,-1273 330.263,-1273 "/>
<text text-anchor="middle" x="237.763" y="-1261" font-family="Helvetica,sans-Serif" font-size="10.00"> </text>
<polyline fill="none" stroke="black" points="145.263,-1254 330.263,-1254 "/>
<text text-anchor="start" x="153.263" y="-1242" font-family="Helvetica,sans-Serif" font-size="10.00">+ RateProcess()</text>
<text text-anchor="start" x="153.263" y="-1231" font-family="Helvetica,sans-Serif" font-size="10.00">+ ~RateProcess()</text>
<text text-anchor="start" x="153.263" y="-1220" font-family="Helvetica,sans-Serif" font-size="10.00">+ GetVersion()</text>
<text text-anchor="start" x="153.263" y="-1209" font-family="Helvetica,sans-Serif" font-size="10.00">+ GetNsite()</text>
<text text-anchor="start" x="153.263" y="-1198" font-family="Helvetica,sans-Serif" font-size="10.00">+ GetNrate()</text>
<text text-anchor="start" x="153.263" y="-1187" font-family="Helvetica,sans-Serif" font-size="10.00">+ GetRate()</text>
<text text-anchor="start" x="153.263" y="-1176" font-family="Helvetica,sans-Serif" font-size="10.00">+ GetRateWeight()</text>
<text text-anchor="start" x="153.263" y="-1165" font-family="Helvetica,sans-Serif" font-size="10.00">+ GetMeanRate()</text>
<text text-anchor="start" x="153.263" y="-1154" font-family="Helvetica,sans-Serif" font-size="10.00">+ GetPriorMeanRate()</text>
<text text-anchor="start" x="153.263" y="-1143" font-family="Helvetica,sans-Serif" font-size="10.00">+ GetAlpha()</text>
<text text-anchor="start" x="153.263" y="-1132" font-family="Helvetica,sans-Serif" font-size="10.00">+ ActivateSumOverRateAllocations()</text>
<text text-anchor="start" x="153.263" y="-1121" font-family="Helvetica,sans-Serif" font-size="10.00">+ InactivateSumOverRateAllocations()</text>
<text text-anchor="start" x="153.263" y="-1110" font-family="Helvetica,sans-Serif" font-size="10.00">+ SumOverRateAllocations()</text>
<text text-anchor="start" x="153.263" y="-1099" font-family="Helvetica,sans-Serif" font-size="10.00">+ LogRatePrior()</text>
<text text-anchor="start" x="153.263" y="-1088" font-family="Helvetica,sans-Serif" font-size="10.00">+ SampleRate()</text>
<text text-anchor="start" x="153.263" y="-1077" font-family="Helvetica,sans-Serif" font-size="10.00">+ ToStream()</text>
<text text-anchor="start" x="153.263" y="-1066" font-family="Helvetica,sans-Serif" font-size="10.00">+ FromStream()</text>
<text text-anchor="start" x="153.263" y="-1055" font-family="Helvetica,sans-Serif" font-size="10.00"># GlobalUpdateSiteRateSuffStat()</text>
<text text-anchor="start" x="153.263" y="-1044" font-family="Helvetica,sans-Serif" font-size="10.00"># SlaveUpdateSiteRateSuffStat()</text>
<text text-anchor="start" x="153.263" y="-1033" font-family="Helvetica,sans-Serif" font-size="10.00"># UpdateSiteRateSuffStat()</text>
<text text-anchor="start" x="153.263" y="-1022" font-family="Helvetica,sans-Serif" font-size="10.00"># GetSiteRateSuffStatBeta()</text>
<text text-anchor="start" x="153.263" y="-1011" font-family="Helvetica,sans-Serif" font-size="10.00"># GetSiteRateSuffStatCount()</text>
<text text-anchor="start" x="153.263" y="-1000" font-family="Helvetica,sans-Serif" font-size="10.00"># Create()</text>
<text text-anchor="start" x="153.263" y="-989" font-family="Helvetica,sans-Serif" font-size="10.00"># Delete()</text>
<text text-anchor="start" x="153.263" y="-978" font-family="Helvetica,sans-Serif" font-size="10.00"># GetNprocs()</text>
<text text-anchor="start" x="153.263" y="-967" font-family="Helvetica,sans-Serif" font-size="10.00"># GetMyid()</text>
<text text-anchor="start" x="153.263" y="-956" font-family="Helvetica,sans-Serif" font-size="10.00"># GetSiteMin()</text>
<text text-anchor="start" x="153.263" y="-945" font-family="Helvetica,sans-Serif" font-size="10.00"># GetSiteMax()</text>
</a>
</g>
</g>
<!-- Node22&#45;&gt;Node19 -->
<g id="edge22" class="edge"><title>Node22&#45;&gt;Node19</title>
<path fill="none" stroke="midnightblue" d="M218.603,-927.867C216.598,-902.4 214.886,-876.572 213.763,-852 199.05,-530.092 106.202,-414.987 252.763,-128 259.737,-114.344 269.92,-101.695 280.833,-90.6342"/>
<polygon fill="none" stroke="midnightblue" points="215.126,-928.299 219.416,-937.987 222.104,-927.739 215.126,-928.299"/>
</g>
<!-- Node22&#45;&gt;Node21 -->
<g id="edge3" class="edge"><title>Node22&#45;&gt;Node21</title>
<path fill="none" stroke="midnightblue" d="M261.337,-927.535C264.479,-902.681 267.725,-877.008 270.931,-851.648"/>
<polygon fill="none" stroke="midnightblue" points="257.826,-927.398 260.044,-937.758 264.771,-928.276 257.826,-927.398"/>
</g>
<!-- Node23 -->
<g id="node5" class="node"><title>Node23</title>
<g id="a_node5"><a xlink:href="classChrono.html" target="_top" xlink:title="{Chrono\n||+ Chrono()\l+ ~Chrono()\l+ Reset()\l+ Start()\l+ Stop()\l+ ToStream()\l+ FromStream()\l+ operator++()\l+ GetTime()\l+ GetTimePerCount()\l+ GetCount()\l}">
<polygon fill="none" stroke="black" points="37.7628,-1411.5 37.7628,-1578.5 147.763,-1578.5 147.763,-1411.5 37.7628,-1411.5"/>
<text text-anchor="middle" x="92.7628" y="-1566.5" font-family="Helvetica,sans-Serif" font-size="10.00">Chrono</text>
<polyline fill="none" stroke="black" points="37.7628,-1559.5 147.763,-1559.5 "/>
<text text-anchor="middle" x="92.7628" y="-1547.5" font-family="Helvetica,sans-Serif" font-size="10.00"> </text>
<polyline fill="none" stroke="black" points="37.7628,-1540.5 147.763,-1540.5 "/>
<text text-anchor="start" x="45.7628" y="-1528.5" font-family="Helvetica,sans-Serif" font-size="10.00">+ Chrono()</text>
<text text-anchor="start" x="45.7628" y="-1517.5" font-family="Helvetica,sans-Serif" font-size="10.00">+ ~Chrono()</text>
<text text-anchor="start" x="45.7628" y="-1506.5" font-family="Helvetica,sans-Serif" font-size="10.00">+ Reset()</text>
<text text-anchor="start" x="45.7628" y="-1495.5" font-family="Helvetica,sans-Serif" font-size="10.00">+ Start()</text>
<text text-anchor="start" x="45.7628" y="-1484.5" font-family="Helvetica,sans-Serif" font-size="10.00">+ Stop()</text>
<text text-anchor="start" x="45.7628" y="-1473.5" font-family="Helvetica,sans-Serif" font-size="10.00">+ ToStream()</text>
<text text-anchor="start" x="45.7628" y="-1462.5" font-family="Helvetica,sans-Serif" font-size="10.00">+ FromStream()</text>
<text text-anchor="start" x="45.7628" y="-1451.5" font-family="Helvetica,sans-Serif" font-size="10.00">+ operator++()</text>
<text text-anchor="start" x="45.7628" y="-1440.5" font-family="Helvetica,sans-Serif" font-size="10.00">+ GetTime()</text>
<text text-anchor="start" x="45.7628" y="-1429.5" font-family="Helvetica,sans-Serif" font-size="10.00">+ GetTimePerCount()</text>
<text text-anchor="start" x="45.7628" y="-1418.5" font-family="Helvetica,sans-Serif" font-size="10.00">+ GetCount()</text>
</a>
</g>
</g>
<!-- Node23&#45;&gt;Node22 -->
<g id="edge4" class="edge"><title>Node23&#45;&gt;Node22</title>
<path fill="none" stroke="#404040" d="M48.2779,-1411.43C42.5071,-1389.43 42.7387,-1366.84 56.7628,-1349 77.6781,-1322.39 104.312,-1352.12 130.763,-1331 141.473,-1322.45 151.196,-1312.55 160.01,-1301.79"/>
<polygon fill="none" stroke="#404040" points="160.16,-1301.59 160.684,-1294.4 167.524,-1292.12 167,-1299.31 160.16,-1301.59"/>
<text text-anchor="middle" x="84.2628" y="-1368.5" font-family="Helvetica,sans-Serif" font-size="10.00"> #chronorate</text>
</g>
<!-- Node26 -->
<g id="node8" class="node"><title>Node26</title>
<g id="a_node8"><a xlink:href="classProfileProcess.html" target="_top" xlink:title="{ProfileProcess\n||+ ProfileProcess()\l+ ~ProfileProcess()\l+ GetVersion()\l+ GetStatInfCount()\l+ GetDim()\l+ GetNsite()\l+ GetProfile()\l+ GetStateSpace()\l+ LogProfilePrior()\l+ SampleProfile()\l+ GetMeanStationaryEntropy()\l+ GetSiteStationaryEntropy()\l+ UpdateSiteProfileSuffStat()\l+ GlobalUpdateSiteProfileSuffStat()\l+ SlaveUpdateSiteProfileSuffStat()\l+ GlobalUpdateParameters()\l+ SlaveUpdateParameters()\l+ ProfileSuffStatLogProb()\l+ ToStream()\l+ FromStream()\l+ SetBurnin()\l+ isObserved()\l+ GetMinStat()\l+ GetMinMinStat()\l# DrawProfileFromPrior()\l# GetNormalizationFactor()\l# Create()\l# Delete()\l# GetNprocs()\l# GetMyid()\l# GetSiteMin()\l# GetSiteMax()\l# GetEmpiricalFreq()\l# GetMinTotWeight()\l# SetMinTotWeight()\l}">
<polygon fill="none" stroke="black" points="348.763,-899.5 348.763,-1330.5 520.763,-1330.5 520.763,-899.5 348.763,-899.5"/>
<text text-anchor="middle" x="434.763" y="-1318.5" font-family="Helvetica,sans-Serif" font-size="10.00">ProfileProcess</text>
<polyline fill="none" stroke="black" points="348.763,-1311.5 520.763,-1311.5 "/>
<text text-anchor="middle" x="434.763" y="-1299.5" font-family="Helvetica,sans-Serif" font-size="10.00"> </text>
<polyline fill="none" stroke="black" points="348.763,-1292.5 520.763,-1292.5 "/>
<text text-anchor="start" x="356.763" y="-1280.5" font-family="Helvetica,sans-Serif" font-size="10.00">+ ProfileProcess()</text>
<text text-anchor="start" x="356.763" y="-1269.5" font-family="Helvetica,sans-Serif" font-size="10.00">+ ~ProfileProcess()</text>
<text text-anchor="start" x="356.763" y="-1258.5" font-family="Helvetica,sans-Serif" font-size="10.00">+ GetVersion()</text>
<text text-anchor="start" x="356.763" y="-1247.5" font-family="Helvetica,sans-Serif" font-size="10.00">+ GetStatInfCount()</text>
<text text-anchor="start" x="356.763" y="-1236.5" font-family="Helvetica,sans-Serif" font-size="10.00">+ GetDim()</text>
<text text-anchor="start" x="356.763" y="-1225.5" font-family="Helvetica,sans-Serif" font-size="10.00">+ GetNsite()</text>
<text text-anchor="start" x="356.763" y="-1214.5" font-family="Helvetica,sans-Serif" font-size="10.00">+ GetProfile()</text>
<text text-anchor="start" x="356.763" y="-1203.5" font-family="Helvetica,sans-Serif" font-size="10.00">+ GetStateSpace()</text>
<text text-anchor="start" x="356.763" y="-1192.5" font-family="Helvetica,sans-Serif" font-size="10.00">+ LogProfilePrior()</text>
<text text-anchor="start" x="356.763" y="-1181.5" font-family="Helvetica,sans-Serif" font-size="10.00">+ SampleProfile()</text>
<text text-anchor="start" x="356.763" y="-1170.5" font-family="Helvetica,sans-Serif" font-size="10.00">+ GetMeanStationaryEntropy()</text>
<text text-anchor="start" x="356.763" y="-1159.5" font-family="Helvetica,sans-Serif" font-size="10.00">+ GetSiteStationaryEntropy()</text>
<text text-anchor="start" x="356.763" y="-1148.5" font-family="Helvetica,sans-Serif" font-size="10.00">+ UpdateSiteProfileSuffStat()</text>
<text text-anchor="start" x="356.763" y="-1137.5" font-family="Helvetica,sans-Serif" font-size="10.00">+ GlobalUpdateSiteProfileSuffStat()</text>
<text text-anchor="start" x="356.763" y="-1126.5" font-family="Helvetica,sans-Serif" font-size="10.00">+ SlaveUpdateSiteProfileSuffStat()</text>
<text text-anchor="start" x="356.763" y="-1115.5" font-family="Helvetica,sans-Serif" font-size="10.00">+ GlobalUpdateParameters()</text>
<text text-anchor="start" x="356.763" y="-1104.5" font-family="Helvetica,sans-Serif" font-size="10.00">+ SlaveUpdateParameters()</text>
<text text-anchor="start" x="356.763" y="-1093.5" font-family="Helvetica,sans-Serif" font-size="10.00">+ ProfileSuffStatLogProb()</text>
<text text-anchor="start" x="356.763" y="-1082.5" font-family="Helvetica,sans-Serif" font-size="10.00">+ ToStream()</text>
<text text-anchor="start" x="356.763" y="-1071.5" font-family="Helvetica,sans-Serif" font-size="10.00">+ FromStream()</text>
<text text-anchor="start" x="356.763" y="-1060.5" font-family="Helvetica,sans-Serif" font-size="10.00">+ SetBurnin()</text>
<text text-anchor="start" x="356.763" y="-1049.5" font-family="Helvetica,sans-Serif" font-size="10.00">+ isObserved()</text>
<text text-anchor="start" x="356.763" y="-1038.5" font-family="Helvetica,sans-Serif" font-size="10.00">+ GetMinStat()</text>
<text text-anchor="start" x="356.763" y="-1027.5" font-family="Helvetica,sans-Serif" font-size="10.00">+ GetMinMinStat()</text>
<text text-anchor="start" x="356.763" y="-1016.5" font-family="Helvetica,sans-Serif" font-size="10.00"># DrawProfileFromPrior()</text>
<text text-anchor="start" x="356.763" y="-1005.5" font-family="Helvetica,sans-Serif" font-size="10.00"># GetNormalizationFactor()</text>
<text text-anchor="start" x="356.763" y="-994.5" font-family="Helvetica,sans-Serif" font-size="10.00"># Create()</text>
<text text-anchor="start" x="356.763" y="-983.5" font-family="Helvetica,sans-Serif" font-size="10.00"># Delete()</text>
<text text-anchor="start" x="356.763" y="-972.5" font-family="Helvetica,sans-Serif" font-size="10.00"># GetNprocs()</text>
<text text-anchor="start" x="356.763" y="-961.5" font-family="Helvetica,sans-Serif" font-size="10.00"># GetMyid()</text>
<text text-anchor="start" x="356.763" y="-950.5" font-family="Helvetica,sans-Serif" font-size="10.00"># GetSiteMin()</text>
<text text-anchor="start" x="356.763" y="-939.5" font-family="Helvetica,sans-Serif" font-size="10.00"># GetSiteMax()</text>
<text text-anchor="start" x="356.763" y="-928.5" font-family="Helvetica,sans-Serif" font-size="10.00"># GetEmpiricalFreq()</text>
<text text-anchor="start" x="356.763" y="-917.5" font-family="Helvetica,sans-Serif" font-size="10.00"># GetMinTotWeight()</text>
<text text-anchor="start" x="356.763" y="-906.5" font-family="Helvetica,sans-Serif" font-size="10.00"># SetMinTotWeight()</text>
</a>
</g>
</g>
<!-- Node23&#45;&gt;Node26 -->
<g id="edge8" class="edge"><title>Node23&#45;&gt;Node26</title>
<path fill="none" stroke="#404040" d="M110.441,-1411.2C119.523,-1387.57 133.202,-1364.14 153.763,-1349 220.281,-1300.01 271.717,-1379.26 338.763,-1331 338.866,-1330.93 338.97,-1330.85 339.074,-1330.78"/>
<polygon fill="none" stroke="#404040" points="338.964,-1330.86 341.194,-1324 348.381,-1323.43 346.151,-1330.28 338.964,-1330.86"/>
<text text-anchor="middle" x="181.263" y="-1379.5" font-family="Helvetica,sans-Serif" font-size="10.00"> #chronostat</text>
<text text-anchor="middle" x="181.263" y="-1368.5" font-family="Helvetica,sans-Serif" font-size="10.00">#chronorr</text>
<text text-anchor="middle" x="181.263" y="-1357.5" font-family="Helvetica,sans-Serif" font-size="10.00">#chronodp</text>
</g>
<!-- Node24 -->
<g id="node6" class="node"><title>Node24</title>
<polygon fill="none" stroke="#bfbfbf" points="243.263,-1466.5 243.263,-1523.5 272.263,-1523.5 272.263,-1466.5 243.263,-1466.5"/>
<text text-anchor="middle" x="257.763" y="-1511.5" font-family="Helvetica,sans-Serif" font-size="10.00">int</text>
<polyline fill="none" stroke="#bfbfbf" points="243.263,-1504.5 272.263,-1504.5 "/>
<text text-anchor="middle" x="257.763" y="-1492.5" font-family="Helvetica,sans-Serif" font-size="10.00"> </text>
<polyline fill="none" stroke="#bfbfbf" points="243.263,-1485.5 272.263,-1485.5 "/>
<text text-anchor="middle" x="257.763" y="-1473.5" font-family="Helvetica,sans-Serif" font-size="10.00"> </text>
</g>
<!-- Node24&#45;&gt;Node21 -->
<g id="edge13" class="edge"><title>Node24&#45;&gt;Node21</title>
<path fill="none" stroke="#404040" d="M243.02,-1479.65C224.185,-1461.87 190.027,-1431.43 156.763,-1411 139.805,-1400.58 132.193,-1404.23 115.763,-1393 83.5899,-1371.01 68.6758,-1367 53.7628,-1331 -19.7124,-1153.62 -15.8037,-1077.95 53.7628,-899 85.8063,-816.571 156.42,-744.08 213.645,-695.429"/>
<polygon fill="none" stroke="#404040" points="213.873,-695.238 215.9,-688.318 223.068,-687.528 221.04,-694.448 213.873,-695.238"/>
<text text-anchor="middle" x="94.7628" y="-1134.5" font-family="Helvetica,sans-Serif" font-size="10.00"> #sitemin</text>
<text text-anchor="middle" x="94.7628" y="-1123.5" font-family="Helvetica,sans-Serif" font-size="10.00">#suboverflowcount</text>
<text text-anchor="middle" x="94.7628" y="-1112.5" font-family="Helvetica,sans-Serif" font-size="10.00">#infprobcount</text>
<text text-anchor="middle" x="94.7628" y="-1101.5" font-family="Helvetica,sans-Serif" font-size="10.00">#ratealloc</text>
<text text-anchor="middle" x="94.7628" y="-1090.5" font-family="Helvetica,sans-Serif" font-size="10.00">#sitemax</text>
</g>
<!-- Node24&#45;&gt;Node22 -->
<g id="edge5" class="edge"><title>Node24&#45;&gt;Node22</title>
<path fill="none" stroke="#404040" d="M243.414,-1466.13C234.047,-1446.31 222.676,-1418.75 217.763,-1393 212.342,-1364.59 210.56,-1334.29 211.008,-1304.53"/>
<polygon fill="none" stroke="#404040" points="211.015,-1304.27 207.167,-1298.17 211.317,-1292.27 215.165,-1298.37 211.015,-1304.27"/>
<text text-anchor="middle" x="232.763" y="-1368.5" font-family="Helvetica,sans-Serif" font-size="10.00"> #nsite</text>
</g>
<!-- Node24&#45;&gt;Node26 -->
<g id="edge10" class="edge"><title>Node24&#45;&gt;Node26</title>
<path fill="none" stroke="#404040" d="M272.472,-1469.03C284.177,-1448.8 300.703,-1419.42 313.763,-1393 323.762,-1372.77 333.817,-1351.52 343.626,-1330.16"/>
<polygon fill="none" stroke="#404040" points="343.744,-1329.9 342.599,-1322.78 348.731,-1318.99 349.876,-1326.11 343.744,-1329.9"/>
<text text-anchor="middle" x="360.763" y="-1385" font-family="Helvetica,sans-Serif" font-size="10.00"> #dim</text>
<text text-anchor="middle" x="360.763" y="-1374" font-family="Helvetica,sans-Serif" font-size="10.00">#statinfcount</text>
<text text-anchor="middle" x="360.763" y="-1363" font-family="Helvetica,sans-Serif" font-size="10.00">#totstatcount</text>
<text text-anchor="middle" x="360.763" y="-1352" font-family="Helvetica,sans-Serif" font-size="10.00">#nsite</text>
</g>
<!-- Node29 -->
<g id="node11" class="node"><title>Node29</title>
<g id="a_node11"><a xlink:href="classGTRProfileProcess.html" target="_top" xlink:title="{GTRProfileProcess\n||+ GTRProfileProcess()\l+ ~GTRProfileProcess()\l+ GetNrr()\l+ GetRR()\l+ GetRRMean()\l+ SetRR()\l+ GetRRVarCoeff()\l+ GetRREntropy()\l+ rrindex()\l# Create()\l# Delete()\l# LogRRPrior()\l# SampleRR()\l# UpdateRRSuffStat()\l# GlobalUpdateRRSuffStat()\l# SlaveUpdateRRSuffStat()\l# MoveRR()\l}">
<polygon fill="none" stroke="black" points="513.263,-128.5 513.263,-361.5 654.263,-361.5 654.263,-128.5 513.263,-128.5"/>
<text text-anchor="middle" x="583.763" y="-349.5" font-family="Helvetica,sans-Serif" font-size="10.00">GTRProfileProcess</text>
<polyline fill="none" stroke="black" points="513.263,-342.5 654.263,-342.5 "/>
<text text-anchor="middle" x="583.763" y="-330.5" font-family="Helvetica,sans-Serif" font-size="10.00"> </text>
<polyline fill="none" stroke="black" points="513.263,-323.5 654.263,-323.5 "/>
<text text-anchor="start" x="521.263" y="-311.5" font-family="Helvetica,sans-Serif" font-size="10.00">+ GTRProfileProcess()</text>
<text text-anchor="start" x="521.263" y="-300.5" font-family="Helvetica,sans-Serif" font-size="10.00">+ ~GTRProfileProcess()</text>
<text text-anchor="start" x="521.263" y="-289.5" font-family="Helvetica,sans-Serif" font-size="10.00">+ GetNrr()</text>
<text text-anchor="start" x="521.263" y="-278.5" font-family="Helvetica,sans-Serif" font-size="10.00">+ GetRR()</text>
<text text-anchor="start" x="521.263" y="-267.5" font-family="Helvetica,sans-Serif" font-size="10.00">+ GetRRMean()</text>
<text text-anchor="start" x="521.263" y="-256.5" font-family="Helvetica,sans-Serif" font-size="10.00">+ SetRR()</text>
<text text-anchor="start" x="521.263" y="-245.5" font-family="Helvetica,sans-Serif" font-size="10.00">+ GetRRVarCoeff()</text>
<text text-anchor="start" x="521.263" y="-234.5" font-family="Helvetica,sans-Serif" font-size="10.00">+ GetRREntropy()</text>
<text text-anchor="start" x="521.263" y="-223.5" font-family="Helvetica,sans-Serif" font-size="10.00">+ rrindex()</text>
<text text-anchor="start" x="521.263" y="-212.5" font-family="Helvetica,sans-Serif" font-size="10.00"># Create()</text>
<text text-anchor="start" x="521.263" y="-201.5" font-family="Helvetica,sans-Serif" font-size="10.00"># Delete()</text>
<text text-anchor="start" x="521.263" y="-190.5" font-family="Helvetica,sans-Serif" font-size="10.00"># LogRRPrior()</text>
<text text-anchor="start" x="521.263" y="-179.5" font-family="Helvetica,sans-Serif" font-size="10.00"># SampleRR()</text>
<text text-anchor="start" x="521.263" y="-168.5" font-family="Helvetica,sans-Serif" font-size="10.00"># UpdateRRSuffStat()</text>
<text text-anchor="start" x="521.263" y="-157.5" font-family="Helvetica,sans-Serif" font-size="10.00"># GlobalUpdateRRSuffStat()</text>
<text text-anchor="start" x="521.263" y="-146.5" font-family="Helvetica,sans-Serif" font-size="10.00"># SlaveUpdateRRSuffStat()</text>
<text text-anchor="start" x="521.263" y="-135.5" font-family="Helvetica,sans-Serif" font-size="10.00"># MoveRR()</text>
</a>
</g>
</g>
<!-- Node24&#45;&gt;Node29 -->
<g id="edge20" class="edge"><title>Node24&#45;&gt;Node29</title>
<path fill="none" stroke="#404040" d="M272.274,-1484.43C297.832,-1467.32 352.11,-1429.81 393.763,-1393 414.021,-1375.1 412.024,-1361.94 435.763,-1349 473.114,-1328.65 501.854,-1363.1 529.763,-1331 591.232,-1260.3 589.812,-645.723 586.097,-374.128"/>
<polygon fill="none" stroke="#404040" points="586.093,-373.851 582.009,-367.908 585.924,-361.852 590.008,-367.795 586.093,-373.851"/>
<text text-anchor="middle" x="595.763" y="-873" font-family="Helvetica,sans-Serif" font-size="10.00"> #Nrr</text>
</g>
<!-- Node25 -->
<g id="node7" class="node"><title>Node25</title>
<polygon fill="none" stroke="#bfbfbf" points="424.263,-1466.5 424.263,-1523.5 459.263,-1523.5 459.263,-1466.5 424.263,-1466.5"/>
<text text-anchor="middle" x="441.763" y="-1511.5" font-family="Helvetica,sans-Serif" font-size="10.00">bool</text>
<polyline fill="none" stroke="#bfbfbf" points="424.263,-1504.5 459.263,-1504.5 "/>
<text text-anchor="middle" x="441.763" y="-1492.5" font-family="Helvetica,sans-Serif" font-size="10.00"> </text>
<polyline fill="none" stroke="#bfbfbf" points="424.263,-1485.5 459.263,-1485.5 "/>
<text text-anchor="middle" x="441.763" y="-1473.5" font-family="Helvetica,sans-Serif" font-size="10.00"> </text>
</g>
<!-- Node25&#45;&gt;Node22 -->
<g id="edge6" class="edge"><title>Node25&#45;&gt;Node22</title>
<path fill="none" stroke="#404040" d="M423.962,-1486.25C383.377,-1468.19 286.008,-1422.64 266.763,-1393 256.085,-1376.55 249.262,-1342.72 244.923,-1304.17"/>
<polygon fill="none" stroke="#404040" points="244.906,-1304.01 240.302,-1298.46 243.655,-1292.07 248.259,-1297.62 244.906,-1304.01"/>
<text text-anchor="middle" x="288.263" y="-1368.5" font-family="Helvetica,sans-Serif" font-size="10.00"> #sumflag</text>
</g>
<!-- Node25&#45;&gt;Node26 -->
<g id="edge11" class="edge"><title>Node25&#45;&gt;Node26</title>
<path fill="none" stroke="#404040" d="M441.248,-1466.2C440.732,-1438.33 439.884,-1392.53 438.969,-1343.11"/>
<polygon fill="none" stroke="#404040" points="438.963,-1342.82 434.853,-1336.9 438.741,-1330.82 442.851,-1336.75 438.963,-1342.82"/>
<text text-anchor="middle" x="474.763" y="-1374" font-family="Helvetica,sans-Serif" font-size="10.00"> #activesuffstat</text>
<text text-anchor="middle" x="474.763" y="-1363" font-family="Helvetica,sans-Serif" font-size="10.00">#burnin</text>
</g>
<!-- Node25&#45;&gt;Node29 -->
<g id="edge21" class="edge"><title>Node25&#45;&gt;Node29</title>
<path fill="none" stroke="#404040" d="M459.519,-1488.77C493.69,-1477.64 567.858,-1447.99 597.763,-1393 645.342,-1305.51 610.022,-654.485 592.302,-373.976"/>
<polygon fill="none" stroke="#404040" points="592.284,-373.691 587.912,-367.956 591.524,-361.715 595.896,-367.449 592.284,-373.691"/>
<text text-anchor="middle" x="630.263" y="-873" font-family="Helvetica,sans-Serif" font-size="10.00"> #fixrr</text>
</g>
<!-- Node26&#45;&gt;Node21 -->
<g id="edge7" class="edge"><title>Node26&#45;&gt;Node21</title>
<path fill="none" stroke="midnightblue" d="M371.411,-889.243C367.904,-876.799 364.38,-864.296 360.877,-851.868"/>
<polygon fill="none" stroke="midnightblue" points="368.138,-890.532 374.22,-899.207 374.876,-888.633 368.138,-890.532"/>
</g>
<!-- Node28 -->
<g id="node10" class="node"><title>Node28</title>
<g id="a_node10"><a xlink:href="classMatrixProfileProcess.html" target="_top" xlink:title="{MatrixProfileProcess\n||+ MatrixProfileProcess()\l+ ~MatrixProfileProcess()\l+ GetMatrix()\l# CreateMatrices()\l# DeleteMatrices()\l# ProfileProposeMove()\l# UpdateMatrices()\l}">
<polygon fill="none" stroke="black" points="392.763,-569 392.763,-692 520.763,-692 520.763,-569 392.763,-569"/>
<text text-anchor="middle" x="456.763" y="-680" font-family="Helvetica,sans-Serif" font-size="10.00">MatrixProfileProcess</text>
<polyline fill="none" stroke="black" points="392.763,-673 520.763,-673 "/>
<text text-anchor="middle" x="456.763" y="-661" font-family="Helvetica,sans-Serif" font-size="10.00"> </text>
<polyline fill="none" stroke="black" points="392.763,-654 520.763,-654 "/>
<text text-anchor="start" x="400.763" y="-642" font-family="Helvetica,sans-Serif" font-size="10.00">+ MatrixProfileProcess()</text>
<text text-anchor="start" x="400.763" y="-631" font-family="Helvetica,sans-Serif" font-size="10.00">+ ~MatrixProfileProcess()</text>
<text text-anchor="start" x="400.763" y="-620" font-family="Helvetica,sans-Serif" font-size="10.00">+ GetMatrix()</text>
<text text-anchor="start" x="400.763" y="-609" font-family="Helvetica,sans-Serif" font-size="10.00"># CreateMatrices()</text>
<text text-anchor="start" x="400.763" y="-598" font-family="Helvetica,sans-Serif" font-size="10.00"># DeleteMatrices()</text>
<text text-anchor="start" x="400.763" y="-587" font-family="Helvetica,sans-Serif" font-size="10.00"># ProfileProposeMove()</text>
<text text-anchor="start" x="400.763" y="-576" font-family="Helvetica,sans-Serif" font-size="10.00"># UpdateMatrices()</text>
</a>
</g>
</g>
<!-- Node26&#45;&gt;Node28 -->
<g id="edge15" class="edge"><title>Node26&#45;&gt;Node28</title>
<path fill="none" stroke="midnightblue" d="M445.022,-889.004C448.324,-816.582 451.715,-742.198 453.999,-692.116"/>
<polygon fill="none" stroke="midnightblue" points="441.516,-889.058 444.556,-899.207 448.508,-889.377 441.516,-889.058"/>
</g>
<!-- Node27 -->
<g id="node9" class="node"><title>Node27</title>
<polygon fill="none" stroke="#bfbfbf" points="635.263,-1466.5 635.263,-1523.5 680.263,-1523.5 680.263,-1466.5 635.263,-1466.5"/>
<text text-anchor="middle" x="657.763" y="-1511.5" font-family="Helvetica,sans-Serif" font-size="10.00">double</text>
<polyline fill="none" stroke="#bfbfbf" points="635.263,-1504.5 680.263,-1504.5 "/>
<text text-anchor="middle" x="657.763" y="-1492.5" font-family="Helvetica,sans-Serif" font-size="10.00"> </text>
<polyline fill="none" stroke="#bfbfbf" points="635.263,-1485.5 680.263,-1485.5 "/>
<text text-anchor="middle" x="657.763" y="-1473.5" font-family="Helvetica,sans-Serif" font-size="10.00"> </text>
</g>
<!-- Node27&#45;&gt;Node21 -->
<g id="edge12" class="edge"><title>Node27&#45;&gt;Node21</title>
<path fill="none" stroke="#404040" d="M658.304,-1466.49C659.837,-1356.85 659.375,-953.026 571.763,-870 541.3,-841.132 417.195,-877.371 383.763,-852 383.661,-851.922 383.559,-851.845 383.457,-851.767"/>
<polygon fill="none" stroke="#404040" points="383.541,-851.838 376.372,-851.062 374.33,-844.146 381.5,-844.922 383.541,-851.838"/>
<text text-anchor="middle" x="689.763" y="-1129" font-family="Helvetica,sans-Serif" font-size="10.00"> #condsitelogL</text>
<text text-anchor="middle" x="689.763" y="-1118" font-family="Helvetica,sans-Serif" font-size="10.00">#meansiterate</text>
<text text-anchor="middle" x="689.763" y="-1107" font-family="Helvetica,sans-Serif" font-size="10.00">#sitelogL</text>
<text text-anchor="middle" x="689.763" y="-1096" font-family="Helvetica,sans-Serif" font-size="10.00">#logL</text>
</g>
<!-- Node27&#45;&gt;Node26 -->
<g id="edge9" class="edge"><title>Node27&#45;&gt;Node26</title>
<path fill="none" stroke="#404040" d="M635.234,-1467.51C618.88,-1447.67 596.738,-1419.49 579.763,-1393 561.489,-1364.49 543.509,-1333.42 526.766,-1302.73"/>
<polygon fill="none" stroke="#404040" points="526.613,-1302.45 520.238,-1299.08 520.897,-1291.9 527.272,-1295.27 526.613,-1302.45"/>
<text text-anchor="middle" x="611.763" y="-1368.5" font-family="Helvetica,sans-Serif" font-size="10.00"> #mintotweight</text>
</g>
<!-- Node27&#45;&gt;Node29 -->
<g id="edge19" class="edge"><title>Node27&#45;&gt;Node29</title>
<path fill="none" stroke="#404040" d="M673.362,-1466.23C690.144,-1434.63 715.77,-1380.91 725.763,-1331 809.141,-914.582 743.556,-789.976 632.763,-380 632.182,-377.852 631.582,-375.689 630.964,-373.516"/>
<polygon fill="none" stroke="#404040" points="630.907,-373.321 625.37,-368.701 627.506,-361.813 633.042,-366.433 630.907,-373.321"/>
<text text-anchor="middle" x="763.263" y="-873" font-family="Helvetica,sans-Serif" font-size="10.00"> #rr</text>
</g>
<!-- Node28&#45;&gt;Node20 -->
<g id="edge14" class="edge"><title>Node28&#45;&gt;Node20</title>
<path fill="none" stroke="midnightblue" d="M434.924,-559.12C414.179,-492.265 383.062,-391.986 361.663,-323.021"/>
<polygon fill="none" stroke="midnightblue" points="431.6,-560.22 437.907,-568.733 438.286,-558.145 431.6,-560.22"/>
</g>
<!-- Node28&#45;&gt;Node29 -->
<g id="edge17" class="edge"><title>Node28&#45;&gt;Node29</title>
<path fill="none" stroke="midnightblue" d="M477.757,-559.223C492.976,-509.075 514.379,-440.141 534.763,-380 536.79,-374.018 538.9,-367.898 541.056,-361.727"/>
<polygon fill="none" stroke="midnightblue" points="474.347,-558.409 474.798,-568.994 481.046,-560.438 474.347,-558.409"/>
</g>
<!-- Node29&#45;&gt;Node19 -->
<g id="edge16" class="edge"><title>Node29&#45;&gt;Node19</title>
<path fill="none" stroke="midnightblue" d="M504.77,-180.581C468.285,-151.289 425.848,-117.219 392.883,-90.7532"/>
<polygon fill="none" stroke="midnightblue" points="502.95,-183.609 512.939,-187.14 507.333,-178.15 502.95,-183.609"/>
</g>
<!-- Node30 -->
<g id="node12" class="node"><title>Node30</title>
<polygon fill="none" stroke="#bfbfbf" points="778.263,-602 778.263,-659 819.263,-659 819.263,-602 778.263,-602"/>
<text text-anchor="middle" x="798.763" y="-647" font-family="Helvetica,sans-Serif" font-size="10.00">string</text>
<polyline fill="none" stroke="#bfbfbf" points="778.263,-640 819.263,-640 "/>
<text text-anchor="middle" x="798.763" y="-628" font-family="Helvetica,sans-Serif" font-size="10.00"> </text>
<polyline fill="none" stroke="#bfbfbf" points="778.263,-621 819.263,-621 "/>
<text text-anchor="middle" x="798.763" y="-609" font-family="Helvetica,sans-Serif" font-size="10.00"> </text>
</g>
<!-- Node30&#45;&gt;Node29 -->
<g id="edge18" class="edge"><title>Node30&#45;&gt;Node29</title>
<path fill="none" stroke="#404040" d="M801.488,-601.789C804.906,-553.215 805.919,-451.112 763.763,-380 740.618,-340.958 701.262,-309.699 665.241,-287.226"/>
<polygon fill="none" stroke="#404040" points="664.952,-287.05 657.747,-287.359 654.691,-280.828 661.895,-280.519 664.952,-287.05"/>
<text text-anchor="middle" x="784.763" y="-383" font-family="Helvetica,sans-Serif" font-size="10.00"> #rrtype</text>
</g>
</g>
</svg>
