<?xml version="1.0" encoding="UTF-8" standalone="no"?>
<!DOCTYPE svg PUBLIC "-//W3C//DTD SVG 1.1//EN"
 "http://www.w3.org/Graphics/SVG/1.1/DTD/svg11.dtd">
<!-- Generated by graphviz version 2.38.0 (20140413.2041)
 -->
<!-- Title: GTRProfileProcess Pages: 1 -->
<svg width="475pt" height="1140pt"
 viewBox="0.00 0.00 475.00 1140.00" xmlns="http://www.w3.org/2000/svg" xmlns:xlink="http://www.w3.org/1999/xlink">
<g id="graph0" class="graph" transform="scale(1 1) rotate(0) translate(4 1136)">
<title>GTRProfileProcess</title>
<!-- Node27 -->
<g id="node1" class="node"><title>Node27</title>
<polygon fill="#bfbfbf" stroke="black" points="221,-0.5 221,-233.5 362,-233.5 362,-0.5 221,-0.5"/>
<text text-anchor="middle" x="291.5" y="-221.5" font-family="Helvetica,sans-Serif" font-size="10.00">GTRProfileProcess</text>
<polyline fill="none" stroke="black" points="221,-214.5 362,-214.5 "/>
<text text-anchor="middle" x="291.5" y="-202.5" font-family="Helvetica,sans-Serif" font-size="10.00"> </text>
<polyline fill="none" stroke="black" points="221,-195.5 362,-195.5 "/>
<text text-anchor="start" x="229" y="-183.5" font-family="Helvetica,sans-Serif" font-size="10.00">+ GTRProfileProcess()</text>
<text text-anchor="start" x="229" y="-172.5" font-family="Helvetica,sans-Serif" font-size="10.00">+ ~GTRProfileProcess()</text>
<text text-anchor="start" x="229" y="-161.5" font-family="Helvetica,sans-Serif" font-size="10.00">+ GetNrr()</text>
<text text-anchor="start" x="229" y="-150.5" font-family="Helvetica,sans-Serif" font-size="10.00">+ GetRR()</text>
<text text-anchor="start" x="229" y="-139.5" font-family="Helvetica,sans-Serif" font-size="10.00">+ GetRRMean()</text>
<text text-anchor="start" x="229" y="-128.5" font-family="Helvetica,sans-Serif" font-size="10.00">+ SetRR()</text>
<text text-anchor="start" x="229" y="-117.5" font-family="Helvetica,sans-Serif" font-size="10.00">+ GetRRVarCoeff()</text>
<text text-anchor="start" x="229" y="-106.5" font-family="Helvetica,sans-Serif" font-size="10.00">+ GetRREntropy()</text>
<text text-anchor="start" x="229" y="-95.5" font-family="Helvetica,sans-Serif" font-size="10.00">+ rrindex()</text>
<text text-anchor="start" x="229" y="-84.5" font-family="Helvetica,sans-Serif" font-size="10.00"># Create()</text>
<text text-anchor="start" x="229" y="-73.5" font-family="Helvetica,sans-Serif" font-size="10.00"># Delete()</text>
<text text-anchor="start" x="229" y="-62.5" font-family="Helvetica,sans-Serif" font-size="10.00"># LogRRPrior()</text>
<text text-anchor="start" x="229" y="-51.5" font-family="Helvetica,sans-Serif" font-size="10.00"># SampleRR()</text>
<text text-anchor="start" x="229" y="-40.5" font-family="Helvetica,sans-Serif" font-size="10.00"># UpdateRRSuffStat()</text>
<text text-anchor="start" x="229" y="-29.5" font-family="Helvetica,sans-Serif" font-size="10.00"># GlobalUpdateRRSuffStat()</text>
<text text-anchor="start" x="229" y="-18.5" font-family="Helvetica,sans-Serif" font-size="10.00"># SlaveUpdateRRSuffStat()</text>
<text text-anchor="start" x="229" y="-7.5" font-family="Helvetica,sans-Serif" font-size="10.00"># MoveRR()</text>
</g>
<!-- Node28 -->
<g id="node2" class="node"><title>Node28</title>
<g id="a_node2"><a xlink:href="classMatrixProfileProcess.html" target="_top" xlink:title="{MatrixProfileProcess\n||+ MatrixProfileProcess()\l+ ~MatrixProfileProcess()\l+ GetMatrix()\l# CreateMatrices()\l# DeleteMatrices()\l# ProfileProposeMove()\l# UpdateMatrices()\l}">
<polygon fill="none" stroke="black" points="124.5,-281.5 124.5,-404.5 252.5,-404.5 252.5,-281.5 124.5,-281.5"/>
<text text-anchor="middle" x="188.5" y="-392.5" font-family="Helvetica,sans-Serif" font-size="10.00">MatrixProfileProcess</text>
<polyline fill="none" stroke="black" points="124.5,-385.5 252.5,-385.5 "/>
<text text-anchor="middle" x="188.5" y="-373.5" font-family="Helvetica,sans-Serif" font-size="10.00"> </text>
<polyline fill="none" stroke="black" points="124.5,-366.5 252.5,-366.5 "/>
<text text-anchor="start" x="132.5" y="-354.5" font-family="Helvetica,sans-Serif" font-size="10.00">+ MatrixProfileProcess()</text>
<text text-anchor="start" x="132.5" y="-343.5" font-family="Helvetica,sans-Serif" font-size="10.00">+ ~MatrixProfileProcess()</text>
<text text-anchor="start" x="132.5" y="-332.5" font-family="Helvetica,sans-Serif" font-size="10.00">+ GetMatrix()</text>
<text text-anchor="start" x="132.5" y="-321.5" font-family="Helvetica,sans-Serif" font-size="10.00"># CreateMatrices()</text>
<text text-anchor="start" x="132.5" y="-310.5" font-family="Helvetica,sans-Serif" font-size="10.00"># DeleteMatrices()</text>
<text text-anchor="start" x="132.5" y="-299.5" font-family="Helvetica,sans-Serif" font-size="10.00"># ProfileProposeMove()</text>
<text text-anchor="start" x="132.5" y="-288.5" font-family="Helvetica,sans-Serif" font-size="10.00"># UpdateMatrices()</text>
</a>
</g>
</g>
<!-- Node28&#45;&gt;Node27 -->
<g id="edge1" class="edge"><title>Node28&#45;&gt;Node27</title>
<path fill="none" stroke="midnightblue" d="M220.593,-272.205C226.211,-259.988 232.189,-246.986 238.2,-233.914"/>
<polygon fill="none" stroke="midnightblue" points="217.371,-270.835 216.373,-281.382 223.731,-273.759 217.371,-270.835"/>
</g>
<!-- Node29 -->
<g id="node3" class="node"><title>Node29</title>
<g id="a_node3"><a xlink:href="classProfileProcess.html" target="_top" xlink:title="{ProfileProcess\n||+ ProfileProcess()\l+ ~ProfileProcess()\l+ GetVersion()\l+ GetStatInfCount()\l+ GetDim()\l+ GetNsite()\l+ GetProfile()\l+ GetStateSpace()\l+ LogProfilePrior()\l+ SampleProfile()\l+ GetMeanStationaryEntropy()\l+ GetSiteStationaryEntropy()\l+ UpdateSiteProfileSuffStat()\l+ GlobalUpdateSiteProfileSuffStat()\l+ SlaveUpdateSiteProfileSuffStat()\l+ GlobalUpdateParameters()\l+ SlaveUpdateParameters()\l+ ProfileSuffStatLogProb()\l+ ToStream()\l+ FromStream()\l+ SetBurnin()\l+ isObserved()\l+ GetMinStat()\l+ GetMinMinStat()\l# DrawProfileFromPrior()\l# GetNormalizationFactor()\l# Create()\l# Delete()\l# GetNprocs()\l# GetMyid()\l# GetSiteMin()\l# GetSiteMax()\l# GetEmpiricalFreq()\l# GetMinTotWeight()\l# SetMinTotWeight()\l}">
<polygon fill="none" stroke="black" points="91.5,-452.5 91.5,-883.5 263.5,-883.5 263.5,-452.5 91.5,-452.5"/>
<text text-anchor="middle" x="177.5" y="-871.5" font-family="Helvetica,sans-Serif" font-size="10.00">ProfileProcess</text>
<polyline fill="none" stroke="black" points="91.5,-864.5 263.5,-864.5 "/>
<text text-anchor="middle" x="177.5" y="-852.5" font-family="Helvetica,sans-Serif" font-size="10.00"> </text>
<polyline fill="none" stroke="black" points="91.5,-845.5 263.5,-845.5 "/>
<text text-anchor="start" x="99.5" y="-833.5" font-family="Helvetica,sans-Serif" font-size="10.00">+ ProfileProcess()</text>
<text text-anchor="start" x="99.5" y="-822.5" font-family="Helvetica,sans-Serif" font-size="10.00">+ ~ProfileProcess()</text>
<text text-anchor="start" x="99.5" y="-811.5" font-family="Helvetica,sans-Serif" font-size="10.00">+ GetVersion()</text>
<text text-anchor="start" x="99.5" y="-800.5" font-family="Helvetica,sans-Serif" font-size="10.00">+ GetStatInfCount()</text>
<text text-anchor="start" x="99.5" y="-789.5" font-family="Helvetica,sans-Serif" font-size="10.00">+ GetDim()</text>
<text text-anchor="start" x="99.5" y="-778.5" font-family="Helvetica,sans-Serif" font-size="10.00">+ GetNsite()</text>
<text text-anchor="start" x="99.5" y="-767.5" font-family="Helvetica,sans-Serif" font-size="10.00">+ GetProfile()</text>
<text text-anchor="start" x="99.5" y="-756.5" font-family="Helvetica,sans-Serif" font-size="10.00">+ GetStateSpace()</text>
<text text-anchor="start" x="99.5" y="-745.5" font-family="Helvetica,sans-Serif" font-size="10.00">+ LogProfilePrior()</text>
<text text-anchor="start" x="99.5" y="-734.5" font-family="Helvetica,sans-Serif" font-size="10.00">+ SampleProfile()</text>
<text text-anchor="start" x="99.5" y="-723.5" font-family="Helvetica,sans-Serif" font-size="10.00">+ GetMeanStationaryEntropy()</text>
<text text-anchor="start" x="99.5" y="-712.5" font-family="Helvetica,sans-Serif" font-size="10.00">+ GetSiteStationaryEntropy()</text>
<text text-anchor="start" x="99.5" y="-701.5" font-family="Helvetica,sans-Serif" font-size="10.00">+ UpdateSiteProfileSuffStat()</text>
<text text-anchor="start" x="99.5" y="-690.5" font-family="Helvetica,sans-Serif" font-size="10.00">+ GlobalUpdateSiteProfileSuffStat()</text>
<text text-anchor="start" x="99.5" y="-679.5" font-family="Helvetica,sans-Serif" font-size="10.00">+ SlaveUpdateSiteProfileSuffStat()</text>
<text text-anchor="start" x="99.5" y="-668.5" font-family="Helvetica,sans-Serif" font-size="10.00">+ GlobalUpdateParameters()</text>
<text text-anchor="start" x="99.5" y="-657.5" font-family="Helvetica,sans-Serif" font-size="10.00">+ SlaveUpdateParameters()</text>
<text text-anchor="start" x="99.5" y="-646.5" font-family="Helvetica,sans-Serif" font-size="10.00">+ ProfileSuffStatLogProb()</text>
<text text-anchor="start" x="99.5" y="-635.5" font-family="Helvetica,sans-Serif" font-size="10.00">+ ToStream()</text>
<text text-anchor="start" x="99.5" y="-624.5" font-family="Helvetica,sans-Serif" font-size="10.00">+ FromStream()</text>
<text text-anchor="start" x="99.5" y="-613.5" font-family="Helvetica,sans-Serif" font-size="10.00">+ SetBurnin()</text>
<text text-anchor="start" x="99.5" y="-602.5" font-family="Helvetica,sans-Serif" font-size="10.00">+ isObserved()</text>
<text text-anchor="start" x="99.5" y="-591.5" font-family="Helvetica,sans-Serif" font-size="10.00">+ GetMinStat()</text>
<text text-anchor="start" x="99.5" y="-580.5" font-family="Helvetica,sans-Serif" font-size="10.00">+ GetMinMinStat()</text>
<text text-anchor="start" x="99.5" y="-569.5" font-family="Helvetica,sans-Serif" font-size="10.00"># DrawProfileFromPrior()</text>
<text text-anchor="start" x="99.5" y="-558.5" font-family="Helvetica,sans-Serif" font-size="10.00"># GetNormalizationFactor()</text>
<text text-anchor="start" x="99.5" y="-547.5" font-family="Helvetica,sans-Serif" font-size="10.00"># Create()</text>
<text text-anchor="start" x="99.5" y="-536.5" font-family="Helvetica,sans-Serif" font-size="10.00"># Delete()</text>
<text text-anchor="start" x="99.5" y="-525.5" font-family="Helvetica,sans-Serif" font-size="10.00"># GetNprocs()</text>
<text text-anchor="start" x="99.5" y="-514.5" font-family="Helvetica,sans-Serif" font-size="10.00"># GetMyid()</text>
<text text-anchor="start" x="99.5" y="-503.5" font-family="Helvetica,sans-Serif" font-size="10.00"># GetSiteMin()</text>
<text text-anchor="start" x="99.5" y="-492.5" font-family="Helvetica,sans-Serif" font-size="10.00"># GetSiteMax()</text>
<text text-anchor="start" x="99.5" y="-481.5" font-family="Helvetica,sans-Serif" font-size="10.00"># GetEmpiricalFreq()</text>
<text text-anchor="start" x="99.5" y="-470.5" font-family="Helvetica,sans-Serif" font-size="10.00"># GetMinTotWeight()</text>
<text text-anchor="start" x="99.5" y="-459.5" font-family="Helvetica,sans-Serif" font-size="10.00"># SetMinTotWeight()</text>
</a>
</g>
</g>
<!-- Node29&#45;&gt;Node28 -->
<g id="edge2" class="edge"><title>Node29&#45;&gt;Node28</title>
<path fill="none" stroke="midnightblue" d="M185.158,-442.134C185.612,-428.804 186.043,-416.158 186.434,-404.652"/>
<polygon fill="none" stroke="midnightblue" points="181.649,-442.34 184.807,-452.453 188.645,-442.578 181.649,-442.34"/>
</g>
<!-- Node30 -->
<g id="node4" class="node"><title>Node30</title>
<g id="a_node4"><a xlink:href="classChrono.html" target="_top" xlink:title="{Chrono\n||+ Chrono()\l+ ~Chrono()\l+ Reset()\l+ Start()\l+ Stop()\l+ ToStream()\l+ FromStream()\l+ operator++()\l+ GetTime()\l+ GetTimePerCount()\l+ GetCount()\l}">
<polygon fill="none" stroke="black" points="75.5,-964.5 75.5,-1131.5 185.5,-1131.5 185.5,-964.5 75.5,-964.5"/>
<text text-anchor="middle" x="130.5" y="-1119.5" font-family="Helvetica,sans-Serif" font-size="10.00">Chrono</text>
<polyline fill="none" stroke="black" points="75.5,-1112.5 185.5,-1112.5 "/>
<text text-anchor="middle" x="130.5" y="-1100.5" font-family="Helvetica,sans-Serif" font-size="10.00"> </text>
<polyline fill="none" stroke="black" points="75.5,-1093.5 185.5,-1093.5 "/>
<text text-anchor="start" x="83.5" y="-1081.5" font-family="Helvetica,sans-Serif" font-size="10.00">+ Chrono()</text>
<text text-anchor="start" x="83.5" y="-1070.5" font-family="Helvetica,sans-Serif" font-size="10.00">+ ~Chrono()</text>
<text text-anchor="start" x="83.5" y="-1059.5" font-family="Helvetica,sans-Serif" font-size="10.00">+ Reset()</text>
<text text-anchor="start" x="83.5" y="-1048.5" font-family="Helvetica,sans-Serif" font-size="10.00">+ Start()</text>
<text text-anchor="start" x="83.5" y="-1037.5" font-family="Helvetica,sans-Serif" font-size="10.00">+ Stop()</text>
<text text-anchor="start" x="83.5" y="-1026.5" font-family="Helvetica,sans-Serif" font-size="10.00">+ ToStream()</text>
<text text-anchor="start" x="83.5" y="-1015.5" font-family="Helvetica,sans-Serif" font-size="10.00">+ FromStream()</text>
<text text-anchor="start" x="83.5" y="-1004.5" font-family="Helvetica,sans-Serif" font-size="10.00">+ operator++()</text>
<text text-anchor="start" x="83.5" y="-993.5" font-family="Helvetica,sans-Serif" font-size="10.00">+ GetTime()</text>
<text text-anchor="start" x="83.5" y="-982.5" font-family="Helvetica,sans-Serif" font-size="10.00">+ GetTimePerCount()</text>
<text text-anchor="start" x="83.5" y="-971.5" font-family="Helvetica,sans-Serif" font-size="10.00">+ GetCount()</text>
</a>
</g>
</g>
<!-- Node30&#45;&gt;Node29 -->
<g id="edge3" class="edge"><title>Node30&#45;&gt;Node29</title>
<path fill="none" stroke="#404040" d="M128.387,-964.423C128.602,-943.982 129.459,-922.162 131.5,-902 131.711,-899.92 131.931,-897.831 132.16,-895.734"/>
<polygon fill="none" stroke="#404040" points="132.18,-895.567 128.903,-889.143 133.573,-883.648 136.849,-890.071 132.18,-895.567"/>
<text text-anchor="middle" x="159" y="-932.5" font-family="Helvetica,sans-Serif" font-size="10.00"> #chronostat</text>
<text text-anchor="middle" x="159" y="-921.5" font-family="Helvetica,sans-Serif" font-size="10.00">#chronorr</text>
<text text-anchor="middle" x="159" y="-910.5" font-family="Helvetica,sans-Serif" font-size="10.00">#chronodp</text>
</g>
<!-- Node31 -->
<g id="node5" class="node"><title>Node31</title>
<polygon fill="none" stroke="#bfbfbf" points="0,-1019.5 0,-1076.5 45,-1076.5 45,-1019.5 0,-1019.5"/>
<text text-anchor="middle" x="22.5" y="-1064.5" font-family="Helvetica,sans-Serif" font-size="10.00">double</text>
<polyline fill="none" stroke="#bfbfbf" points="0,-1057.5 45,-1057.5 "/>
<text text-anchor="middle" x="22.5" y="-1045.5" font-family="Helvetica,sans-Serif" font-size="10.00"> </text>
<polyline fill="none" stroke="#bfbfbf" points="0,-1038.5 45,-1038.5 "/>
<text text-anchor="middle" x="22.5" y="-1026.5" font-family="Helvetica,sans-Serif" font-size="10.00"> </text>
</g>
<!-- Node31&#45;&gt;Node27 -->
<g id="edge8" class="edge"><title>Node31&#45;&gt;Node27</title>
<path fill="none" stroke="#404040" d="M18.7933,-1019.34C6.17338,-914.845 -26.8361,-537.154 115.5,-281 138.705,-239.239 176.454,-202.175 211.053,-173.983"/>
<polygon fill="none" stroke="#404040" points="211.335,-173.758 213.529,-166.888 220.713,-166.27 218.52,-173.14 211.335,-173.758"/>
<text text-anchor="middle" x="63" y="-426" font-family="Helvetica,sans-Serif" font-size="10.00"> #rr</text>
</g>
<!-- Node31&#45;&gt;Node29 -->
<g id="edge4" class="edge"><title>Node31&#45;&gt;Node29</title>
<path fill="none" stroke="#404040" d="M28.1784,-1019.5C34.6741,-989.947 46.3923,-941.854 61.5,-902 68.8992,-882.481 77.4052,-862.419 86.3777,-842.647"/>
<polygon fill="none" stroke="#404040" points="86.3983,-842.602 85.2673,-835.48 91.4064,-831.697 92.5373,-838.818 86.3983,-842.602"/>
<text text-anchor="middle" x="93.5" y="-921.5" font-family="Helvetica,sans-Serif" font-size="10.00"> #mintotweight</text>
</g>
<!-- Node32 -->
<g id="node6" class="node"><title>Node32</title>
<polygon fill="none" stroke="#bfbfbf" points="331,-1019.5 331,-1076.5 360,-1076.5 360,-1019.5 331,-1019.5"/>
<text text-anchor="middle" x="345.5" y="-1064.5" font-family="Helvetica,sans-Serif" font-size="10.00">int</text>
<polyline fill="none" stroke="#bfbfbf" points="331,-1057.5 360,-1057.5 "/>
<text text-anchor="middle" x="345.5" y="-1045.5" font-family="Helvetica,sans-Serif" font-size="10.00"> </text>
<polyline fill="none" stroke="#bfbfbf" points="331,-1038.5 360,-1038.5 "/>
<text text-anchor="middle" x="345.5" y="-1026.5" font-family="Helvetica,sans-Serif" font-size="10.00"> </text>
</g>
<!-- Node32&#45;&gt;Node27 -->
<g id="edge9" class="edge"><title>Node32&#45;&gt;Node27</title>
<path fill="none" stroke="#404040" d="M351.795,-1019.31C356.052,-999.115 361.288,-971.016 363.5,-946 365.222,-926.52 364.355,-921.537 363.5,-902 353.354,-670.164 324.998,-401.01 307.048,-246.002"/>
<polygon fill="none" stroke="#404040" points="307,-245.583 302.333,-240.085 305.613,-233.663 310.28,-239.161 307,-245.583"/>
<text text-anchor="middle" x="338.5" y="-426" font-family="Helvetica,sans-Serif" font-size="10.00"> #Nrr</text>
</g>
<!-- Node32&#45;&gt;Node29 -->
<g id="edge5" class="edge"><title>Node32&#45;&gt;Node29</title>
<path fill="none" stroke="#404040" d="M333.384,-1019.46C320.538,-990.278 299.64,-942.87 281.5,-902 277.256,-892.439 272.911,-882.66 268.518,-872.784"/>
<polygon fill="none" stroke="#404040" points="268.419,-872.562 262.326,-868.706 263.541,-861.598 269.635,-865.454 268.419,-872.562"/>
<text text-anchor="middle" x="330.5" y="-938" font-family="Helvetica,sans-Serif" font-size="10.00"> #dim</text>
<text text-anchor="middle" x="330.5" y="-927" font-family="Helvetica,sans-Serif" font-size="10.00">#statinfcount</text>
<text text-anchor="middle" x="330.5" y="-916" font-family="Helvetica,sans-Serif" font-size="10.00">#totstatcount</text>
<text text-anchor="middle" x="330.5" y="-905" font-family="Helvetica,sans-Serif" font-size="10.00">#nsite</text>
</g>
<!-- Node33 -->
<g id="node7" class="node"><title>Node33</title>
<polygon fill="none" stroke="#bfbfbf" points="252,-1019.5 252,-1076.5 287,-1076.5 287,-1019.5 252,-1019.5"/>
<text text-anchor="middle" x="269.5" y="-1064.5" font-family="Helvetica,sans-Serif" font-size="10.00">bool</text>
<polyline fill="none" stroke="#bfbfbf" points="252,-1057.5 287,-1057.5 "/>
<text text-anchor="middle" x="269.5" y="-1045.5" font-family="Helvetica,sans-Serif" font-size="10.00"> </text>
<polyline fill="none" stroke="#bfbfbf" points="252,-1038.5 287,-1038.5 "/>
<text text-anchor="middle" x="269.5" y="-1026.5" font-family="Helvetica,sans-Serif" font-size="10.00"> </text>
</g>
<!-- Node33&#45;&gt;Node27 -->
<g id="edge10" class="edge"><title>Node33&#45;&gt;Node27</title>
<path fill="none" stroke="#404040" d="M272.173,-1019.16C274.005,-998.896 276.311,-970.773 277.5,-946 289.385,-698.448 291.612,-408.843 291.799,-246.069"/>
<polygon fill="none" stroke="#404040" points="291.799,-245.608 287.804,-239.605 291.809,-233.608 295.804,-239.612 291.799,-245.608"/>
<text text-anchor="middle" x="304" y="-426" font-family="Helvetica,sans-Serif" font-size="10.00"> #fixrr</text>
</g>
<!-- Node33&#45;&gt;Node29 -->
<g id="edge6" class="edge"><title>Node33&#45;&gt;Node29</title>
<path fill="none" stroke="#404040" d="M251.91,-1023.91C237.95,-1004.28 219.219,-974.793 209.5,-946 204.06,-929.882 199.51,-912.969 195.709,-895.784"/>
<polygon fill="none" stroke="#404040" points="195.668,-895.592 190.517,-890.545 193.195,-883.85 198.346,-888.896 195.668,-895.592"/>
<text text-anchor="middle" x="243.5" y="-927" font-family="Helvetica,sans-Serif" font-size="10.00"> #activesuffstat</text>
<text text-anchor="middle" x="243.5" y="-916" font-family="Helvetica,sans-Serif" font-size="10.00">#burnin</text>
</g>
<!-- Node34 -->
<g id="node8" class="node"><title>Node34</title>
<polygon fill="none" stroke="#bfbfbf" points="426,-314.5 426,-371.5 467,-371.5 467,-314.5 426,-314.5"/>
<text text-anchor="middle" x="446.5" y="-359.5" font-family="Helvetica,sans-Serif" font-size="10.00">string</text>
<polyline fill="none" stroke="#bfbfbf" points="426,-352.5 467,-352.5 "/>
<text text-anchor="middle" x="446.5" y="-340.5" font-family="Helvetica,sans-Serif" font-size="10.00"> </text>
<polyline fill="none" stroke="#bfbfbf" points="426,-333.5 467,-333.5 "/>
<text text-anchor="middle" x="446.5" y="-321.5" font-family="Helvetica,sans-Serif" font-size="10.00"> </text>
</g>
<!-- Node34&#45;&gt;Node27 -->
<g id="edge7" class="edge"><title>Node34&#45;&gt;Node27</title>
<path fill="none" stroke="#404040" d="M438.633,-314.427C432.696,-295.972 423.517,-271.573 411.5,-252 399.782,-232.913 385.211,-214.004 370.306,-196.671"/>
<polygon fill="none" stroke="#404040" points="369.921,-196.232 362.957,-194.36 362.007,-187.212 368.971,-189.084 369.921,-196.232"/>
<text text-anchor="middle" x="434.5" y="-255" font-family="Helvetica,sans-Serif" font-size="10.00"> #rrtype</text>
</g>
</g>
</svg>
