<?xml version="1.0" encoding="UTF-8" standalone="no"?>
<!DOCTYPE svg PUBLIC "-//W3C//DTD SVG 1.1//EN"
 "http://www.w3.org/Graphics/SVG/1.1/DTD/svg11.dtd">
<!-- Generated by graphviz version 2.38.0 (20140413.2041)
 -->
<!-- Title: FiniteProfileProcess Pages: 1 -->
<svg width="610pt" height="1613pt"
 viewBox="0.00 0.00 610.00 1613.00" xmlns="http://www.w3.org/2000/svg" xmlns:xlink="http://www.w3.org/1999/xlink">
<g id="graph0" class="graph" transform="scale(1 1) rotate(0) translate(4 1609)">
<title>FiniteProfileProcess</title>
<!-- Node17 -->
<g id="node1" class="node"><title>Node17</title>
<polygon fill="#bfbfbf" stroke="black" points="188.5,-0.5 188.5,-277.5 318.5,-277.5 318.5,-0.5 188.5,-0.5"/>
<text text-anchor="middle" x="253.5" y="-265.5" font-family="Helvetica,sans-Serif" font-size="10.00">FiniteProfileProcess</text>
<polyline fill="none" stroke="black" points="188.5,-258.5 318.5,-258.5 "/>
<text text-anchor="middle" x="253.5" y="-246.5" font-family="Helvetica,sans-Serif" font-size="10.00"> </text>
<polyline fill="none" stroke="black" points="188.5,-239.5 318.5,-239.5 "/>
<text text-anchor="start" x="196.5" y="-227.5" font-family="Helvetica,sans-Serif" font-size="10.00">+ FiniteProfileProcess()</text>
<text text-anchor="start" x="196.5" y="-216.5" font-family="Helvetica,sans-Serif" font-size="10.00">+ ~FiniteProfileProcess()</text>
<text text-anchor="start" x="196.5" y="-205.5" font-family="Helvetica,sans-Serif" font-size="10.00">+ GetLogNPrior()</text>
<text text-anchor="start" x="196.5" y="-194.5" font-family="Helvetica,sans-Serif" font-size="10.00">+ SetFixedNcomponent()</text>
<text text-anchor="start" x="196.5" y="-183.5" font-family="Helvetica,sans-Serif" font-size="10.00"># DrawProfileFromPrior()</text>
<text text-anchor="start" x="196.5" y="-172.5" font-family="Helvetica,sans-Serif" font-size="10.00"># ReadStatFix()</text>
<text text-anchor="start" x="196.5" y="-161.5" font-family="Helvetica,sans-Serif" font-size="10.00"># SetStatFix()</text>
<text text-anchor="start" x="196.5" y="-150.5" font-family="Helvetica,sans-Serif" font-size="10.00"># IncrementalFiniteMove()</text>
<text text-anchor="start" x="196.5" y="-139.5" font-family="Helvetica,sans-Serif" font-size="10.00"># MoveHyper()</text>
<text text-anchor="start" x="196.5" y="-128.5" font-family="Helvetica,sans-Serif" font-size="10.00"># MoveWeightAlpha()</text>
<text text-anchor="start" x="196.5" y="-117.5" font-family="Helvetica,sans-Serif" font-size="10.00"># MoveNcomponent()</text>
<text text-anchor="start" x="196.5" y="-106.5" font-family="Helvetica,sans-Serif" font-size="10.00"># ResampleWeights()</text>
<text text-anchor="start" x="196.5" y="-95.5" font-family="Helvetica,sans-Serif" font-size="10.00"># Create()</text>
<text text-anchor="start" x="196.5" y="-84.5" font-family="Helvetica,sans-Serif" font-size="10.00"># Create()</text>
<text text-anchor="start" x="196.5" y="-73.5" font-family="Helvetica,sans-Serif" font-size="10.00"># Delete()</text>
<text text-anchor="start" x="196.5" y="-62.5" font-family="Helvetica,sans-Serif" font-size="10.00"># SampleAlloc()</text>
<text text-anchor="start" x="196.5" y="-51.5" font-family="Helvetica,sans-Serif" font-size="10.00"># SampleStat()</text>
<text text-anchor="start" x="196.5" y="-40.5" font-family="Helvetica,sans-Serif" font-size="10.00"># SampleHyper()</text>
<text text-anchor="start" x="196.5" y="-29.5" font-family="Helvetica,sans-Serif" font-size="10.00"># SampleWeights()</text>
<text text-anchor="start" x="196.5" y="-18.5" font-family="Helvetica,sans-Serif" font-size="10.00"># LogHyperPrior()</text>
<text text-anchor="start" x="196.5" y="-7.5" font-family="Helvetica,sans-Serif" font-size="10.00"># LogWeightPrior()</text>
</g>
<!-- Node18 -->
<g id="node2" class="node"><title>Node18</title>
<g id="a_node2"><a xlink:href="classMixtureProfileProcess.html" target="_top" target="_top" xlink:title="{MixtureProfileProcess\n||+ MixtureProfileProcess()\l+ ~MixtureProfileProcess()\l+ GetProfile()\l+ GetNcomponent()\l+ GetNDisplayedComponent()\l+ GetNOccupiedComponent()\l+ GetNmodeMax()\l+ GetMeanStationaryEntropy()\l+ GetSiteStationaryEntropy()\l+ GetStatEnt()\l+ GetStatEnt()\l+ GetCenterStatEnt()\l+ GetMeanDirWeight()\l+ RenormalizeProfiles()\l+ Move()\l+ MoveDirWeights()\l# UpdateModeProfileSuffStat()\l# ProfileSuffStatLogProb()\l# LogStatProb()\l# ProfileSuffStatLogProb()\l# Create()\l# Delete()\l# CreateComponent()\l# DeleteComponent()\l# UpdateComponent()\l# UpdateComponents()\l# GetAllocEntropy()\l# AddSite()\l# RemoveSite()\l# SampleProfile()\l# SampleHyper()\l# SampleAlloc()\l# SampleStat()\l# SampleStat()\l# SampleStat()\l# UpdateOccupancyNumbers()\l# ResampleEmptyProfiles()\l# LogProfilePrior()\l# LogHyperPrior()\l# LogAllocPrior()\l# LogStatPrior()\l# LogStatPrior()\l# SwapComponents()\l}">
<polygon fill="none" stroke="black" points="177.5,-325.5 177.5,-844.5 329.5,-844.5 329.5,-325.5 177.5,-325.5"/>
<text text-anchor="middle" x="253.5" y="-832.5" font-family="Helvetica,sans-Serif" font-size="10.00">MixtureProfileProcess</text>
<polyline fill="none" stroke="black" points="177.5,-825.5 329.5,-825.5 "/>
<text text-anchor="middle" x="253.5" y="-813.5" font-family="Helvetica,sans-Serif" font-size="10.00"> </text>
<polyline fill="none" stroke="black" points="177.5,-806.5 329.5,-806.5 "/>
<text text-anchor="start" x="185.5" y="-794.5" font-family="Helvetica,sans-Serif" font-size="10.00">+ MixtureProfileProcess()</text>
<text text-anchor="start" x="185.5" y="-783.5" font-family="Helvetica,sans-Serif" font-size="10.00">+ ~MixtureProfileProcess()</text>
<text text-anchor="start" x="185.5" y="-772.5" font-family="Helvetica,sans-Serif" font-size="10.00">+ GetProfile()</text>
<text text-anchor="start" x="185.5" y="-761.5" font-family="Helvetica,sans-Serif" font-size="10.00">+ GetNcomponent()</text>
<text text-anchor="start" x="185.5" y="-750.5" font-family="Helvetica,sans-Serif" font-size="10.00">+ GetNDisplayedComponent()</text>
<text text-anchor="start" x="185.5" y="-739.5" font-family="Helvetica,sans-Serif" font-size="10.00">+ GetNOccupiedComponent()</text>
<text text-anchor="start" x="185.5" y="-728.5" font-family="Helvetica,sans-Serif" font-size="10.00">+ GetNmodeMax()</text>
<text text-anchor="start" x="185.5" y="-717.5" font-family="Helvetica,sans-Serif" font-size="10.00">+ GetMeanStationaryEntropy()</text>
<text text-anchor="start" x="185.5" y="-706.5" font-family="Helvetica,sans-Serif" font-size="10.00">+ GetSiteStationaryEntropy()</text>
<text text-anchor="start" x="185.5" y="-695.5" font-family="Helvetica,sans-Serif" font-size="10.00">+ GetStatEnt()</text>
<text text-anchor="start" x="185.5" y="-684.5" font-family="Helvetica,sans-Serif" font-size="10.00">+ GetStatEnt()</text>
<text text-anchor="start" x="185.5" y="-673.5" font-family="Helvetica,sans-Serif" font-size="10.00">+ GetCenterStatEnt()</text>
<text text-anchor="start" x="185.5" y="-662.5" font-family="Helvetica,sans-Serif" font-size="10.00">+ GetMeanDirWeight()</text>
<text text-anchor="start" x="185.5" y="-651.5" font-family="Helvetica,sans-Serif" font-size="10.00">+ RenormalizeProfiles()</text>
<text text-anchor="start" x="185.5" y="-640.5" font-family="Helvetica,sans-Serif" font-size="10.00">+ Move()</text>
<text text-anchor="start" x="185.5" y="-629.5" font-family="Helvetica,sans-Serif" font-size="10.00">+ MoveDirWeights()</text>
<text text-anchor="start" x="185.5" y="-618.5" font-family="Helvetica,sans-Serif" font-size="10.00"># UpdateModeProfileSuffStat()</text>
<text text-anchor="start" x="185.5" y="-607.5" font-family="Helvetica,sans-Serif" font-size="10.00"># ProfileSuffStatLogProb()</text>
<text text-anchor="start" x="185.5" y="-596.5" font-family="Helvetica,sans-Serif" font-size="10.00"># LogStatProb()</text>
<text text-anchor="start" x="185.5" y="-585.5" font-family="Helvetica,sans-Serif" font-size="10.00"># ProfileSuffStatLogProb()</text>
<text text-anchor="start" x="185.5" y="-574.5" font-family="Helvetica,sans-Serif" font-size="10.00"># Create()</text>
<text text-anchor="start" x="185.5" y="-563.5" font-family="Helvetica,sans-Serif" font-size="10.00"># Delete()</text>
<text text-anchor="start" x="185.5" y="-552.5" font-family="Helvetica,sans-Serif" font-size="10.00"># CreateComponent()</text>
<text text-anchor="start" x="185.5" y="-541.5" font-family="Helvetica,sans-Serif" font-size="10.00"># DeleteComponent()</text>
<text text-anchor="start" x="185.5" y="-530.5" font-family="Helvetica,sans-Serif" font-size="10.00"># UpdateComponent()</text>
<text text-anchor="start" x="185.5" y="-519.5" font-family="Helvetica,sans-Serif" font-size="10.00"># UpdateComponents()</text>
<text text-anchor="start" x="185.5" y="-508.5" font-family="Helvetica,sans-Serif" font-size="10.00"># GetAllocEntropy()</text>
<text text-anchor="start" x="185.5" y="-497.5" font-family="Helvetica,sans-Serif" font-size="10.00"># AddSite()</text>
<text text-anchor="start" x="185.5" y="-486.5" font-family="Helvetica,sans-Serif" font-size="10.00"># RemoveSite()</text>
<text text-anchor="start" x="185.5" y="-475.5" font-family="Helvetica,sans-Serif" font-size="10.00"># SampleProfile()</text>
<text text-anchor="start" x="185.5" y="-464.5" font-family="Helvetica,sans-Serif" font-size="10.00"># SampleHyper()</text>
<text text-anchor="start" x="185.5" y="-453.5" font-family="Helvetica,sans-Serif" font-size="10.00"># SampleAlloc()</text>
<text text-anchor="start" x="185.5" y="-442.5" font-family="Helvetica,sans-Serif" font-size="10.00"># SampleStat()</text>
<text text-anchor="start" x="185.5" y="-431.5" font-family="Helvetica,sans-Serif" font-size="10.00"># SampleStat()</text>
<text text-anchor="start" x="185.5" y="-420.5" font-family="Helvetica,sans-Serif" font-size="10.00"># SampleStat()</text>
<text text-anchor="start" x="185.5" y="-409.5" font-family="Helvetica,sans-Serif" font-size="10.00"># UpdateOccupancyNumbers()</text>
<text text-anchor="start" x="185.5" y="-398.5" font-family="Helvetica,sans-Serif" font-size="10.00"># ResampleEmptyProfiles()</text>
<text text-anchor="start" x="185.5" y="-387.5" font-family="Helvetica,sans-Serif" font-size="10.00"># LogProfilePrior()</text>
<text text-anchor="start" x="185.5" y="-376.5" font-family="Helvetica,sans-Serif" font-size="10.00"># LogHyperPrior()</text>
<text text-anchor="start" x="185.5" y="-365.5" font-family="Helvetica,sans-Serif" font-size="10.00"># LogAllocPrior()</text>
<text text-anchor="start" x="185.5" y="-354.5" font-family="Helvetica,sans-Serif" font-size="10.00"># LogStatPrior()</text>
<text text-anchor="start" x="185.5" y="-343.5" font-family="Helvetica,sans-Serif" font-size="10.00"># LogStatPrior()</text>
<text text-anchor="start" x="185.5" y="-332.5" font-family="Helvetica,sans-Serif" font-size="10.00"># SwapComponents()</text>
</a>
</g>
</g>
<!-- Node18&#45;&gt;Node17 -->
<g id="edge1" class="edge"><title>Node18&#45;&gt;Node17</title>
<path fill="none" stroke="midnightblue" d="M253.5,-315.133C253.5,-302.382 253.5,-289.847 253.5,-277.708"/>
<polygon fill="none" stroke="midnightblue" points="250,-315.402 253.5,-325.402 257,-315.402 250,-315.402"/>
</g>
<!-- Node19 -->
<g id="node3" class="node"><title>Node19</title>
<g id="a_node3"><a xlink:href="classProfileProcess.html" target="_top" target="_top" xlink:title="{ProfileProcess\n||+ ProfileProcess()\l+ ~ProfileProcess()\l+ GetVersion()\l+ GetStatInfCount()\l+ GetDim()\l+ GetNsite()\l+ GetProfile()\l+ GetStateSpace()\l+ LogProfilePrior()\l+ SampleProfile()\l+ GetMeanStationaryEntropy()\l+ GetSiteStationaryEntropy()\l+ UpdateSiteProfileSuffStat()\l+ GlobalUpdateSiteProfileSuffStat()\l+ SlaveUpdateSiteProfileSuffStat()\l+ GlobalUpdateParameters()\l+ SlaveUpdateParameters()\l+ ProfileSuffStatLogProb()\l+ ToStream()\l+ FromStream()\l+ SetBurnin()\l+ isObserved()\l+ GetMinStat()\l+ GetMinMinStat()\l# DrawProfileFromPrior()\l# GetNormalizationFactor()\l# Create()\l# Delete()\l# GetNprocs()\l# GetMyid()\l# GetSiteMin()\l# GetSiteMax()\l# GetEmpiricalFreq()\l# GetMinTotWeight()\l# SetMinTotWeight()\l}">
<polygon fill="none" stroke="black" points="332.5,-925.5 332.5,-1356.5 504.5,-1356.5 504.5,-925.5 332.5,-925.5"/>
<text text-anchor="middle" x="418.5" y="-1344.5" font-family="Helvetica,sans-Serif" font-size="10.00">ProfileProcess</text>
<polyline fill="none" stroke="black" points="332.5,-1337.5 504.5,-1337.5 "/>
<text text-anchor="middle" x="418.5" y="-1325.5" font-family="Helvetica,sans-Serif" font-size="10.00"> </text>
<polyline fill="none" stroke="black" points="332.5,-1318.5 504.5,-1318.5 "/>
<text text-anchor="start" x="340.5" y="-1306.5" font-family="Helvetica,sans-Serif" font-size="10.00">+ ProfileProcess()</text>
<text text-anchor="start" x="340.5" y="-1295.5" font-family="Helvetica,sans-Serif" font-size="10.00">+ ~ProfileProcess()</text>
<text text-anchor="start" x="340.5" y="-1284.5" font-family="Helvetica,sans-Serif" font-size="10.00">+ GetVersion()</text>
<text text-anchor="start" x="340.5" y="-1273.5" font-family="Helvetica,sans-Serif" font-size="10.00">+ GetStatInfCount()</text>
<text text-anchor="start" x="340.5" y="-1262.5" font-family="Helvetica,sans-Serif" font-size="10.00">+ GetDim()</text>
<text text-anchor="start" x="340.5" y="-1251.5" font-family="Helvetica,sans-Serif" font-size="10.00">+ GetNsite()</text>
<text text-anchor="start" x="340.5" y="-1240.5" font-family="Helvetica,sans-Serif" font-size="10.00">+ GetProfile()</text>
<text text-anchor="start" x="340.5" y="-1229.5" font-family="Helvetica,sans-Serif" font-size="10.00">+ GetStateSpace()</text>
<text text-anchor="start" x="340.5" y="-1218.5" font-family="Helvetica,sans-Serif" font-size="10.00">+ LogProfilePrior()</text>
<text text-anchor="start" x="340.5" y="-1207.5" font-family="Helvetica,sans-Serif" font-size="10.00">+ SampleProfile()</text>
<text text-anchor="start" x="340.5" y="-1196.5" font-family="Helvetica,sans-Serif" font-size="10.00">+ GetMeanStationaryEntropy()</text>
<text text-anchor="start" x="340.5" y="-1185.5" font-family="Helvetica,sans-Serif" font-size="10.00">+ GetSiteStationaryEntropy()</text>
<text text-anchor="start" x="340.5" y="-1174.5" font-family="Helvetica,sans-Serif" font-size="10.00">+ UpdateSiteProfileSuffStat()</text>
<text text-anchor="start" x="340.5" y="-1163.5" font-family="Helvetica,sans-Serif" font-size="10.00">+ GlobalUpdateSiteProfileSuffStat()</text>
<text text-anchor="start" x="340.5" y="-1152.5" font-family="Helvetica,sans-Serif" font-size="10.00">+ SlaveUpdateSiteProfileSuffStat()</text>
<text text-anchor="start" x="340.5" y="-1141.5" font-family="Helvetica,sans-Serif" font-size="10.00">+ GlobalUpdateParameters()</text>
<text text-anchor="start" x="340.5" y="-1130.5" font-family="Helvetica,sans-Serif" font-size="10.00">+ SlaveUpdateParameters()</text>
<text text-anchor="start" x="340.5" y="-1119.5" font-family="Helvetica,sans-Serif" font-size="10.00">+ ProfileSuffStatLogProb()</text>
<text text-anchor="start" x="340.5" y="-1108.5" font-family="Helvetica,sans-Serif" font-size="10.00">+ ToStream()</text>
<text text-anchor="start" x="340.5" y="-1097.5" font-family="Helvetica,sans-Serif" font-size="10.00">+ FromStream()</text>
<text text-anchor="start" x="340.5" y="-1086.5" font-family="Helvetica,sans-Serif" font-size="10.00">+ SetBurnin()</text>
<text text-anchor="start" x="340.5" y="-1075.5" font-family="Helvetica,sans-Serif" font-size="10.00">+ isObserved()</text>
<text text-anchor="start" x="340.5" y="-1064.5" font-family="Helvetica,sans-Serif" font-size="10.00">+ GetMinStat()</text>
<text text-anchor="start" x="340.5" y="-1053.5" font-family="Helvetica,sans-Serif" font-size="10.00">+ GetMinMinStat()</text>
<text text-anchor="start" x="340.5" y="-1042.5" font-family="Helvetica,sans-Serif" font-size="10.00"># DrawProfileFromPrior()</text>
<text text-anchor="start" x="340.5" y="-1031.5" font-family="Helvetica,sans-Serif" font-size="10.00"># GetNormalizationFactor()</text>
<text text-anchor="start" x="340.5" y="-1020.5" font-family="Helvetica,sans-Serif" font-size="10.00"># Create()</text>
<text text-anchor="start" x="340.5" y="-1009.5" font-family="Helvetica,sans-Serif" font-size="10.00"># Delete()</text>
<text text-anchor="start" x="340.5" y="-998.5" font-family="Helvetica,sans-Serif" font-size="10.00"># GetNprocs()</text>
<text text-anchor="start" x="340.5" y="-987.5" font-family="Helvetica,sans-Serif" font-size="10.00"># GetMyid()</text>
<text text-anchor="start" x="340.5" y="-976.5" font-family="Helvetica,sans-Serif" font-size="10.00"># GetSiteMin()</text>
<text text-anchor="start" x="340.5" y="-965.5" font-family="Helvetica,sans-Serif" font-size="10.00"># GetSiteMax()</text>
<text text-anchor="start" x="340.5" y="-954.5" font-family="Helvetica,sans-Serif" font-size="10.00"># GetEmpiricalFreq()</text>
<text text-anchor="start" x="340.5" y="-943.5" font-family="Helvetica,sans-Serif" font-size="10.00"># GetMinTotWeight()</text>
<text text-anchor="start" x="340.5" y="-932.5" font-family="Helvetica,sans-Serif" font-size="10.00"># SetMinTotWeight()</text>
</a>
</g>
</g>
<!-- Node19&#45;&gt;Node18 -->
<g id="edge2" class="edge"><title>Node19&#45;&gt;Node18</title>
<path fill="none" stroke="midnightblue" d="M351.695,-915.697C344.404,-891.218 336.944,-866.169 329.553,-841.353"/>
<polygon fill="none" stroke="midnightblue" points="348.38,-916.828 354.589,-925.413 355.089,-914.83 348.38,-916.828"/>
</g>
<!-- Node20 -->
<g id="node4" class="node"><title>Node20</title>
<g id="a_node4"><a xlink:href="classChrono.html" target="_top" target="_top" xlink:title="{Chrono\n||+ Chrono()\l+ ~Chrono()\l+ Reset()\l+ Start()\l+ Stop()\l+ ToStream()\l+ FromStream()\l+ operator++()\l+ GetTime()\l+ GetTimePerCount()\l+ GetCount()\l}">
<polygon fill="none" stroke="black" points="316.5,-1437.5 316.5,-1604.5 426.5,-1604.5 426.5,-1437.5 316.5,-1437.5"/>
<text text-anchor="middle" x="371.5" y="-1592.5" font-family="Helvetica,sans-Serif" font-size="10.00">Chrono</text>
<polyline fill="none" stroke="black" points="316.5,-1585.5 426.5,-1585.5 "/>
<text text-anchor="middle" x="371.5" y="-1573.5" font-family="Helvetica,sans-Serif" font-size="10.00"> </text>
<polyline fill="none" stroke="black" points="316.5,-1566.5 426.5,-1566.5 "/>
<text text-anchor="start" x="324.5" y="-1554.5" font-family="Helvetica,sans-Serif" font-size="10.00">+ Chrono()</text>
<text text-anchor="start" x="324.5" y="-1543.5" font-family="Helvetica,sans-Serif" font-size="10.00">+ ~Chrono()</text>
<text text-anchor="start" x="324.5" y="-1532.5" font-family="Helvetica,sans-Serif" font-size="10.00">+ Reset()</text>
<text text-anchor="start" x="324.5" y="-1521.5" font-family="Helvetica,sans-Serif" font-size="10.00">+ Start()</text>
<text text-anchor="start" x="324.5" y="-1510.5" font-family="Helvetica,sans-Serif" font-size="10.00">+ Stop()</text>
<text text-anchor="start" x="324.5" y="-1499.5" font-family="Helvetica,sans-Serif" font-size="10.00">+ ToStream()</text>
<text text-anchor="start" x="324.5" y="-1488.5" font-family="Helvetica,sans-Serif" font-size="10.00">+ FromStream()</text>
<text text-anchor="start" x="324.5" y="-1477.5" font-family="Helvetica,sans-Serif" font-size="10.00">+ operator++()</text>
<text text-anchor="start" x="324.5" y="-1466.5" font-family="Helvetica,sans-Serif" font-size="10.00">+ GetTime()</text>
<text text-anchor="start" x="324.5" y="-1455.5" font-family="Helvetica,sans-Serif" font-size="10.00">+ GetTimePerCount()</text>
<text text-anchor="start" x="324.5" y="-1444.5" font-family="Helvetica,sans-Serif" font-size="10.00">+ GetCount()</text>
</a>
</g>
</g>
<!-- Node20&#45;&gt;Node19 -->
<g id="edge3" class="edge"><title>Node20&#45;&gt;Node19</title>
<path fill="none" stroke="#404040" d="M369.387,-1437.42C369.602,-1416.98 370.459,-1395.16 372.5,-1375 372.711,-1372.92 372.931,-1370.83 373.16,-1368.73"/>
<polygon fill="none" stroke="#404040" points="373.18,-1368.57 369.903,-1362.14 374.573,-1356.65 377.849,-1363.07 373.18,-1368.57"/>
<text text-anchor="middle" x="400" y="-1405.5" font-family="Helvetica,sans-Serif" font-size="10.00"> #chronostat</text>
<text text-anchor="middle" x="400" y="-1394.5" font-family="Helvetica,sans-Serif" font-size="10.00">#chronorr</text>
<text text-anchor="middle" x="400" y="-1383.5" font-family="Helvetica,sans-Serif" font-size="10.00">#chronodp</text>
</g>
<!-- Node21 -->
<g id="node5" class="node"><title>Node21</title>
<polygon fill="none" stroke="#bfbfbf" points="0,-1492.5 0,-1549.5 45,-1549.5 45,-1492.5 0,-1492.5"/>
<text text-anchor="middle" x="22.5" y="-1537.5" font-family="Helvetica,sans-Serif" font-size="10.00">double</text>
<polyline fill="none" stroke="#bfbfbf" points="0,-1530.5 45,-1530.5 "/>
<text text-anchor="middle" x="22.5" y="-1518.5" font-family="Helvetica,sans-Serif" font-size="10.00"> </text>
<polyline fill="none" stroke="#bfbfbf" points="0,-1511.5 45,-1511.5 "/>
<text text-anchor="middle" x="22.5" y="-1499.5" font-family="Helvetica,sans-Serif" font-size="10.00"> </text>
</g>
<!-- Node21&#45;&gt;Node17 -->
<g id="edge10" class="edge"><title>Node21&#45;&gt;Node17</title>
<path fill="none" stroke="#404040" d="M20.0495,-1492.31C9.2239,-1358.24 -26.7049,-764.927 140.5,-325 151.242,-296.738 166.37,-267.995 182.073,-241.857"/>
<polygon fill="none" stroke="#404040" points="182.089,-241.831 181.806,-234.625 188.348,-231.592 188.632,-238.798 182.089,-241.831"/>
<text text-anchor="middle" x="56" y="-899" font-family="Helvetica,sans-Serif" font-size="10.00"> #weightalpha</text>
<text text-anchor="middle" x="56" y="-888" font-family="Helvetica,sans-Serif" font-size="10.00">#empweight</text>
<text text-anchor="middle" x="56" y="-877" font-family="Helvetica,sans-Serif" font-size="10.00">#statfix</text>
<text text-anchor="middle" x="56" y="-866" font-family="Helvetica,sans-Serif" font-size="10.00">#weight</text>
</g>
<!-- Node21&#45;&gt;Node18 -->
<g id="edge7" class="edge"><title>Node21&#45;&gt;Node18</title>
<path fill="none" stroke="#404040" d="M24.0814,-1492.49C29.9057,-1401.1 53.6903,-1100.01 125.5,-863 137.698,-822.738 154.646,-780.801 172.222,-742.101"/>
<polygon fill="none" stroke="#404040" points="172.431,-741.645 171.301,-734.523 177.441,-730.74 178.571,-737.863 172.431,-741.645"/>
<text text-anchor="middle" x="156" y="-1160.5" font-family="Helvetica,sans-Serif" font-size="10.00"> #logstatprior</text>
<text text-anchor="middle" x="156" y="-1149.5" font-family="Helvetica,sans-Serif" font-size="10.00">#profile</text>
<text text-anchor="middle" x="156" y="-1138.5" font-family="Helvetica,sans-Serif" font-size="10.00">#profilesuffstatlogprob</text>
<text text-anchor="middle" x="156" y="-1127.5" font-family="Helvetica,sans-Serif" font-size="10.00">#allocprofile</text>
<text text-anchor="middle" x="156" y="-1116.5" font-family="Helvetica,sans-Serif" font-size="10.00">#dirweight</text>
</g>
<!-- Node21&#45;&gt;Node19 -->
<g id="edge4" class="edge"><title>Node21&#45;&gt;Node19</title>
<path fill="none" stroke="#404040" d="M45.1415,-1498.41C80.3165,-1466.17 151.558,-1405.94 223.5,-1375 262.978,-1358.02 284.587,-1383.39 318.5,-1357 320.175,-1355.7 321.823,-1354.36 323.445,-1352.99"/>
<polygon fill="none" stroke="#404040" points="323.574,-1352.87 325.317,-1345.87 332.446,-1344.79 330.704,-1351.79 323.574,-1352.87"/>
<text text-anchor="middle" x="255.5" y="-1394.5" font-family="Helvetica,sans-Serif" font-size="10.00"> #mintotweight</text>
</g>
<!-- Node22 -->
<g id="node6" class="node"><title>Node22</title>
<polygon fill="none" stroke="#bfbfbf" points="243,-1492.5 243,-1549.5 272,-1549.5 272,-1492.5 243,-1492.5"/>
<text text-anchor="middle" x="257.5" y="-1537.5" font-family="Helvetica,sans-Serif" font-size="10.00">int</text>
<polyline fill="none" stroke="#bfbfbf" points="243,-1530.5 272,-1530.5 "/>
<text text-anchor="middle" x="257.5" y="-1518.5" font-family="Helvetica,sans-Serif" font-size="10.00"> </text>
<polyline fill="none" stroke="#bfbfbf" points="243,-1511.5 272,-1511.5 "/>
<text text-anchor="middle" x="257.5" y="-1499.5" font-family="Helvetica,sans-Serif" font-size="10.00"> </text>
</g>
<!-- Node22&#45;&gt;Node17 -->
<g id="edge11" class="edge"><title>Node22&#45;&gt;Node17</title>
<path fill="none" stroke="#404040" d="M242.986,-1510.67C220.098,-1494.98 176.482,-1460.89 159.5,-1419 152.153,-1400.88 159.416,-1394.56 159.5,-1375 160.5,-1141.66 117.662,-552.737 168.5,-325 172.254,-308.183 177.661,-291.062 183.955,-274.363"/>
<polygon fill="none" stroke="#404040" points="184.075,-274.054 182.534,-267.01 188.444,-262.878 189.985,-269.923 184.075,-274.054"/>
<text text-anchor="middle" x="181" y="-888" font-family="Helvetica,sans-Serif" font-size="10.00"> #dirweightprior</text>
<text text-anchor="middle" x="181" y="-877" font-family="Helvetica,sans-Serif" font-size="10.00">#Ncat</text>
</g>
<!-- Node22&#45;&gt;Node18 -->
<g id="edge8" class="edge"><title>Node22&#45;&gt;Node18</title>
<path fill="none" stroke="#404040" d="M257.381,-1492.3C256.981,-1398.89 255.651,-1088.34 254.659,-856.637"/>
<polygon fill="none" stroke="#404040" points="254.659,-856.624 250.633,-850.641 254.608,-844.624 258.633,-850.607 254.659,-856.624"/>
<text text-anchor="middle" x="288" y="-1149.5" font-family="Helvetica,sans-Serif" font-size="10.00"> #occupancy</text>
<text text-anchor="middle" x="288" y="-1138.5" font-family="Helvetica,sans-Serif" font-size="10.00">#Ncomponent</text>
<text text-anchor="middle" x="288" y="-1127.5" font-family="Helvetica,sans-Serif" font-size="10.00">#alloc</text>
</g>
<!-- Node22&#45;&gt;Node19 -->
<g id="edge5" class="edge"><title>Node22&#45;&gt;Node19</title>
<path fill="none" stroke="#404040" d="M265.654,-1492.47C274.764,-1462.9 290.604,-1414.79 308.5,-1375 312.254,-1366.65 314.345,-1365.15 318.5,-1357 321.319,-1351.47 324.152,-1345.84 326.989,-1340.15"/>
<polygon fill="none" stroke="#404040" points="327.119,-1339.89 326.198,-1332.74 332.446,-1329.14 333.367,-1336.29 327.119,-1339.89"/>
<text text-anchor="middle" x="337.5" y="-1411" font-family="Helvetica,sans-Serif" font-size="10.00"> #dim</text>
<text text-anchor="middle" x="337.5" y="-1400" font-family="Helvetica,sans-Serif" font-size="10.00">#statinfcount</text>
<text text-anchor="middle" x="337.5" y="-1389" font-family="Helvetica,sans-Serif" font-size="10.00">#totstatcount</text>
<text text-anchor="middle" x="337.5" y="-1378" font-family="Helvetica,sans-Serif" font-size="10.00">#nsite</text>
</g>
<!-- Node23 -->
<g id="node7" class="node"><title>Node23</title>
<polygon fill="none" stroke="#bfbfbf" points="480,-1492.5 480,-1549.5 515,-1549.5 515,-1492.5 480,-1492.5"/>
<text text-anchor="middle" x="497.5" y="-1537.5" font-family="Helvetica,sans-Serif" font-size="10.00">bool</text>
<polyline fill="none" stroke="#bfbfbf" points="480,-1530.5 515,-1530.5 "/>
<text text-anchor="middle" x="497.5" y="-1518.5" font-family="Helvetica,sans-Serif" font-size="10.00"> </text>
<polyline fill="none" stroke="#bfbfbf" points="480,-1511.5 515,-1511.5 "/>
<text text-anchor="middle" x="497.5" y="-1499.5" font-family="Helvetica,sans-Serif" font-size="10.00"> </text>
</g>
<!-- Node23&#45;&gt;Node17 -->
<g id="edge12" class="edge"><title>Node23&#45;&gt;Node17</title>
<path fill="none" stroke="#404040" d="M504.842,-1492.37C509.808,-1472.21 515.916,-1444.12 518.5,-1419 520.501,-1399.55 518.609,-1394.56 518.5,-1375 517.389,-1174.99 542.886,-1122.84 513.5,-925 472.689,-650.237 435.637,-585.24 338.5,-325 333.84,-312.514 328.708,-299.693 323.345,-286.906"/>
<polygon fill="none" stroke="#404040" points="323.271,-286.732 317.244,-282.774 318.579,-275.688 324.607,-279.646 323.271,-286.732"/>
<text text-anchor="middle" x="534.5" y="-888" font-family="Helvetica,sans-Serif" font-size="10.00"> #empmix</text>
<text text-anchor="middle" x="534.5" y="-877" font-family="Helvetica,sans-Serif" font-size="10.00">#fixncomp</text>
</g>
<!-- Node23&#45;&gt;Node19 -->
<g id="edge6" class="edge"><title>Node23&#45;&gt;Node19</title>
<path fill="none" stroke="#404040" d="M481.601,-1492.21C471.036,-1472.42 457.807,-1444.87 450.5,-1419 445.903,-1402.72 441.964,-1385.73 438.59,-1368.52"/>
<polygon fill="none" stroke="#404040" points="438.562,-1368.37 433.522,-1363.21 436.344,-1356.58 441.384,-1361.73 438.562,-1368.37"/>
<text text-anchor="middle" x="484.5" y="-1400" font-family="Helvetica,sans-Serif" font-size="10.00"> #activesuffstat</text>
<text text-anchor="middle" x="484.5" y="-1389" font-family="Helvetica,sans-Serif" font-size="10.00">#burnin</text>
</g>
<!-- Node24 -->
<g id="node8" class="node"><title>Node24</title>
<polygon fill="none" stroke="#bfbfbf" points="561,-556.5 561,-613.5 602,-613.5 602,-556.5 561,-556.5"/>
<text text-anchor="middle" x="581.5" y="-601.5" font-family="Helvetica,sans-Serif" font-size="10.00">string</text>
<polyline fill="none" stroke="#bfbfbf" points="561,-594.5 602,-594.5 "/>
<text text-anchor="middle" x="581.5" y="-582.5" font-family="Helvetica,sans-Serif" font-size="10.00"> </text>
<polyline fill="none" stroke="#bfbfbf" points="561,-575.5 602,-575.5 "/>
<text text-anchor="middle" x="581.5" y="-563.5" font-family="Helvetica,sans-Serif" font-size="10.00"> </text>
</g>
<!-- Node24&#45;&gt;Node17 -->
<g id="edge9" class="edge"><title>Node24&#45;&gt;Node17</title>
<path fill="none" stroke="#404040" d="M586.005,-556.109C593.329,-501.061 601.916,-376.786 546.5,-296 495.885,-222.213 398.885,-180.546 330.385,-159.179"/>
<polygon fill="none" stroke="#404040" points="330.283,-159.148 323.381,-161.239 318.797,-155.672 325.699,-153.582 330.283,-159.148"/>
<text text-anchor="middle" x="573" y="-299" font-family="Helvetica,sans-Serif" font-size="10.00"> #mixtype</text>
</g>
</g>
</svg>
