<?xml version="1.0" encoding="UTF-8" standalone="no"?>
<!DOCTYPE svg PUBLIC "-//W3C//DTD SVG 1.1//EN"
 "http://www.w3.org/Graphics/SVG/1.1/DTD/svg11.dtd">
<!-- Generated by graphviz version 2.38.0 (20140413.2041)
 -->
<!-- Title: CodonMutSelProfileProcess Pages: 1 -->
<svg width="534pt" height="1302pt"
 viewBox="0.00 0.00 534.00 1302.00" xmlns="http://www.w3.org/2000/svg" xmlns:xlink="http://www.w3.org/1999/xlink">
<g id="graph0" class="graph" transform="scale(1 1) rotate(0) translate(4 1298)">
<title>CodonMutSelProfileProcess</title>
<!-- Node10 -->
<g id="node1" class="node"><title>Node10</title>
<polygon fill="#bfbfbf" stroke="black" points="255,-0.5 255,-233.5 416,-233.5 416,-0.5 255,-0.5"/>
<text text-anchor="middle" x="335.5" y="-221.5" font-family="Helvetica,sans-Serif" font-size="10.00">CodonMutSelProfileProcess</text>
<polyline fill="none" stroke="black" points="255,-214.5 416,-214.5 "/>
<text text-anchor="middle" x="335.5" y="-202.5" font-family="Helvetica,sans-Serif" font-size="10.00"> </text>
<polyline fill="none" stroke="black" points="255,-195.5 416,-195.5 "/>
<text text-anchor="start" x="263" y="-183.5" font-family="Helvetica,sans-Serif" font-size="10.00">+ CodonMutSelProfileProcess()</text>
<text text-anchor="start" x="263" y="-172.5" font-family="Helvetica,sans-Serif" font-size="10.00">+ ~CodonMutSelProfileProcess()</text>
<text text-anchor="start" x="263" y="-161.5" font-family="Helvetica,sans-Serif" font-size="10.00">+ GetNnucrr()</text>
<text text-anchor="start" x="263" y="-150.5" font-family="Helvetica,sans-Serif" font-size="10.00">+ GetNucRR()</text>
<text text-anchor="start" x="263" y="-139.5" font-family="Helvetica,sans-Serif" font-size="10.00">+ GetNucRR()</text>
<text text-anchor="start" x="263" y="-128.5" font-family="Helvetica,sans-Serif" font-size="10.00">+ GetNucStat()</text>
<text text-anchor="start" x="263" y="-117.5" font-family="Helvetica,sans-Serif" font-size="10.00">+ GetNucStat()</text>
<text text-anchor="start" x="263" y="-106.5" font-family="Helvetica,sans-Serif" font-size="10.00"># Create()</text>
<text text-anchor="start" x="263" y="-95.5" font-family="Helvetica,sans-Serif" font-size="10.00"># Delete()</text>
<text text-anchor="start" x="263" y="-84.5" font-family="Helvetica,sans-Serif" font-size="10.00"># GetNormalizationFactor()</text>
<text text-anchor="start" x="263" y="-73.5" font-family="Helvetica,sans-Serif" font-size="10.00"># LogNucRRPrior()</text>
<text text-anchor="start" x="263" y="-62.5" font-family="Helvetica,sans-Serif" font-size="10.00"># SampleNucRR()</text>
<text text-anchor="start" x="263" y="-51.5" font-family="Helvetica,sans-Serif" font-size="10.00"># LogNucStatPrior()</text>
<text text-anchor="start" x="263" y="-40.5" font-family="Helvetica,sans-Serif" font-size="10.00"># SampleNucStat()</text>
<text text-anchor="start" x="263" y="-29.5" font-family="Helvetica,sans-Serif" font-size="10.00"># MoveNucRR()</text>
<text text-anchor="start" x="263" y="-18.5" font-family="Helvetica,sans-Serif" font-size="10.00"># MoveNucRR()</text>
<text text-anchor="start" x="263" y="-7.5" font-family="Helvetica,sans-Serif" font-size="10.00"># MoveNucStat()</text>
</g>
<!-- Node11 -->
<g id="node2" class="node"><title>Node11</title>
<g id="a_node2"><a xlink:href="classGeneralPathSuffStatMatrixProfileProcess.html" target="_top" xlink:title="{GeneralPathSuffStatMatrix\lProfileProcess\n||+ GeneralPathSuffStatMatrix\lProfileProcess()\l+ ~GeneralPathSuffStatMatrix\lProfileProcess()\l+ GetSitePairCount()\l+ GetSiteWaitingTime()\l+ GetSiteRootState()\l}">
<polygon fill="none" stroke="black" points="188,-271.5 188,-405.5 337,-405.5 337,-271.5 188,-271.5"/>
<text text-anchor="start" x="196" y="-393.5" font-family="Helvetica,sans-Serif" font-size="10.00">GeneralPathSuffStatMatrix</text>
<text text-anchor="middle" x="262.5" y="-382.5" font-family="Helvetica,sans-Serif" font-size="10.00">ProfileProcess</text>
<polyline fill="none" stroke="black" points="188,-375.5 337,-375.5 "/>
<text text-anchor="middle" x="262.5" y="-363.5" font-family="Helvetica,sans-Serif" font-size="10.00"> </text>
<polyline fill="none" stroke="black" points="188,-356.5 337,-356.5 "/>
<text text-anchor="start" x="196" y="-344.5" font-family="Helvetica,sans-Serif" font-size="10.00">+ GeneralPathSuffStatMatrix</text>
<text text-anchor="start" x="196" y="-333.5" font-family="Helvetica,sans-Serif" font-size="10.00">ProfileProcess()</text>
<text text-anchor="start" x="196" y="-322.5" font-family="Helvetica,sans-Serif" font-size="10.00">+ ~GeneralPathSuffStatMatrix</text>
<text text-anchor="start" x="196" y="-311.5" font-family="Helvetica,sans-Serif" font-size="10.00">ProfileProcess()</text>
<text text-anchor="start" x="196" y="-300.5" font-family="Helvetica,sans-Serif" font-size="10.00">+ GetSitePairCount()</text>
<text text-anchor="start" x="196" y="-289.5" font-family="Helvetica,sans-Serif" font-size="10.00">+ GetSiteWaitingTime()</text>
<text text-anchor="start" x="196" y="-278.5" font-family="Helvetica,sans-Serif" font-size="10.00">+ GetSiteRootState()</text>
</a>
</g>
</g>
<!-- Node11&#45;&gt;Node10 -->
<g id="edge1" class="edge"><title>Node11&#45;&gt;Node10</title>
<path fill="none" stroke="midnightblue" d="M287.733,-261.627C290.757,-252.534 293.896,-243.098 297.054,-233.602"/>
<polygon fill="none" stroke="midnightblue" points="284.336,-260.752 284.501,-271.345 290.978,-262.961 284.336,-260.752"/>
</g>
<!-- Node12 -->
<g id="node3" class="node"><title>Node12</title>
<g id="a_node3"><a xlink:href="classMatrixProfileProcess.html" target="_top" xlink:title="{MatrixProfileProcess\n||+ MatrixProfileProcess()\l+ ~MatrixProfileProcess()\l+ GetMatrix()\l# CreateMatrices()\l# DeleteMatrices()\l# ProfileProposeMove()\l# UpdateMatrices()\l}">
<polygon fill="none" stroke="black" points="189.5,-453.5 189.5,-576.5 317.5,-576.5 317.5,-453.5 189.5,-453.5"/>
<text text-anchor="middle" x="253.5" y="-564.5" font-family="Helvetica,sans-Serif" font-size="10.00">MatrixProfileProcess</text>
<polyline fill="none" stroke="black" points="189.5,-557.5 317.5,-557.5 "/>
<text text-anchor="middle" x="253.5" y="-545.5" font-family="Helvetica,sans-Serif" font-size="10.00"> </text>
<polyline fill="none" stroke="black" points="189.5,-538.5 317.5,-538.5 "/>
<text text-anchor="start" x="197.5" y="-526.5" font-family="Helvetica,sans-Serif" font-size="10.00">+ MatrixProfileProcess()</text>
<text text-anchor="start" x="197.5" y="-515.5" font-family="Helvetica,sans-Serif" font-size="10.00">+ ~MatrixProfileProcess()</text>
<text text-anchor="start" x="197.5" y="-504.5" font-family="Helvetica,sans-Serif" font-size="10.00">+ GetMatrix()</text>
<text text-anchor="start" x="197.5" y="-493.5" font-family="Helvetica,sans-Serif" font-size="10.00"># CreateMatrices()</text>
<text text-anchor="start" x="197.5" y="-482.5" font-family="Helvetica,sans-Serif" font-size="10.00"># DeleteMatrices()</text>
<text text-anchor="start" x="197.5" y="-471.5" font-family="Helvetica,sans-Serif" font-size="10.00"># ProfileProposeMove()</text>
<text text-anchor="start" x="197.5" y="-460.5" font-family="Helvetica,sans-Serif" font-size="10.00"># UpdateMatrices()</text>
</a>
</g>
</g>
<!-- Node12&#45;&gt;Node11 -->
<g id="edge2" class="edge"><title>Node12&#45;&gt;Node11</title>
<path fill="none" stroke="midnightblue" d="M257.154,-443.162C257.794,-430.747 258.458,-417.873 259.091,-405.594"/>
<polygon fill="none" stroke="midnightblue" points="253.642,-443.291 256.623,-453.458 260.633,-443.652 253.642,-443.291"/>
</g>
<!-- Node13 -->
<g id="node4" class="node"><title>Node13</title>
<g id="a_node4"><a xlink:href="classProfileProcess.html" target="_top" xlink:title="{ProfileProcess\n||+ ProfileProcess()\l+ ~ProfileProcess()\l+ GetVersion()\l+ GetStatInfCount()\l+ GetDim()\l+ GetNsite()\l+ GetProfile()\l+ GetStateSpace()\l+ LogProfilePrior()\l+ SampleProfile()\l+ GetMeanStationaryEntropy()\l+ GetSiteStationaryEntropy()\l+ UpdateSiteProfileSuffStat()\l+ GlobalUpdateSiteProfileSuffStat()\l+ SlaveUpdateSiteProfileSuffStat()\l+ GlobalUpdateParameters()\l+ SlaveUpdateParameters()\l+ ProfileSuffStatLogProb()\l+ ToStream()\l+ FromStream()\l+ SetBurnin()\l+ isObserved()\l+ GetMinStat()\l+ GetMinMinStat()\l# DrawProfileFromPrior()\l# GetNormalizationFactor()\l# Create()\l# Delete()\l# GetNprocs()\l# GetMyid()\l# GetSiteMin()\l# GetSiteMax()\l# GetEmpiricalFreq()\l# GetMinTotWeight()\l# SetMinTotWeight()\l}">
<polygon fill="none" stroke="black" points="131.5,-614.5 131.5,-1045.5 303.5,-1045.5 303.5,-614.5 131.5,-614.5"/>
<text text-anchor="middle" x="217.5" y="-1033.5" font-family="Helvetica,sans-Serif" font-size="10.00">ProfileProcess</text>
<polyline fill="none" stroke="black" points="131.5,-1026.5 303.5,-1026.5 "/>
<text text-anchor="middle" x="217.5" y="-1014.5" font-family="Helvetica,sans-Serif" font-size="10.00"> </text>
<polyline fill="none" stroke="black" points="131.5,-1007.5 303.5,-1007.5 "/>
<text text-anchor="start" x="139.5" y="-995.5" font-family="Helvetica,sans-Serif" font-size="10.00">+ ProfileProcess()</text>
<text text-anchor="start" x="139.5" y="-984.5" font-family="Helvetica,sans-Serif" font-size="10.00">+ ~ProfileProcess()</text>
<text text-anchor="start" x="139.5" y="-973.5" font-family="Helvetica,sans-Serif" font-size="10.00">+ GetVersion()</text>
<text text-anchor="start" x="139.5" y="-962.5" font-family="Helvetica,sans-Serif" font-size="10.00">+ GetStatInfCount()</text>
<text text-anchor="start" x="139.5" y="-951.5" font-family="Helvetica,sans-Serif" font-size="10.00">+ GetDim()</text>
<text text-anchor="start" x="139.5" y="-940.5" font-family="Helvetica,sans-Serif" font-size="10.00">+ GetNsite()</text>
<text text-anchor="start" x="139.5" y="-929.5" font-family="Helvetica,sans-Serif" font-size="10.00">+ GetProfile()</text>
<text text-anchor="start" x="139.5" y="-918.5" font-family="Helvetica,sans-Serif" font-size="10.00">+ GetStateSpace()</text>
<text text-anchor="start" x="139.5" y="-907.5" font-family="Helvetica,sans-Serif" font-size="10.00">+ LogProfilePrior()</text>
<text text-anchor="start" x="139.5" y="-896.5" font-family="Helvetica,sans-Serif" font-size="10.00">+ SampleProfile()</text>
<text text-anchor="start" x="139.5" y="-885.5" font-family="Helvetica,sans-Serif" font-size="10.00">+ GetMeanStationaryEntropy()</text>
<text text-anchor="start" x="139.5" y="-874.5" font-family="Helvetica,sans-Serif" font-size="10.00">+ GetSiteStationaryEntropy()</text>
<text text-anchor="start" x="139.5" y="-863.5" font-family="Helvetica,sans-Serif" font-size="10.00">+ UpdateSiteProfileSuffStat()</text>
<text text-anchor="start" x="139.5" y="-852.5" font-family="Helvetica,sans-Serif" font-size="10.00">+ GlobalUpdateSiteProfileSuffStat()</text>
<text text-anchor="start" x="139.5" y="-841.5" font-family="Helvetica,sans-Serif" font-size="10.00">+ SlaveUpdateSiteProfileSuffStat()</text>
<text text-anchor="start" x="139.5" y="-830.5" font-family="Helvetica,sans-Serif" font-size="10.00">+ GlobalUpdateParameters()</text>
<text text-anchor="start" x="139.5" y="-819.5" font-family="Helvetica,sans-Serif" font-size="10.00">+ SlaveUpdateParameters()</text>
<text text-anchor="start" x="139.5" y="-808.5" font-family="Helvetica,sans-Serif" font-size="10.00">+ ProfileSuffStatLogProb()</text>
<text text-anchor="start" x="139.5" y="-797.5" font-family="Helvetica,sans-Serif" font-size="10.00">+ ToStream()</text>
<text text-anchor="start" x="139.5" y="-786.5" font-family="Helvetica,sans-Serif" font-size="10.00">+ FromStream()</text>
<text text-anchor="start" x="139.5" y="-775.5" font-family="Helvetica,sans-Serif" font-size="10.00">+ SetBurnin()</text>
<text text-anchor="start" x="139.5" y="-764.5" font-family="Helvetica,sans-Serif" font-size="10.00">+ isObserved()</text>
<text text-anchor="start" x="139.5" y="-753.5" font-family="Helvetica,sans-Serif" font-size="10.00">+ GetMinStat()</text>
<text text-anchor="start" x="139.5" y="-742.5" font-family="Helvetica,sans-Serif" font-size="10.00">+ GetMinMinStat()</text>
<text text-anchor="start" x="139.5" y="-731.5" font-family="Helvetica,sans-Serif" font-size="10.00"># DrawProfileFromPrior()</text>
<text text-anchor="start" x="139.5" y="-720.5" font-family="Helvetica,sans-Serif" font-size="10.00"># GetNormalizationFactor()</text>
<text text-anchor="start" x="139.5" y="-709.5" font-family="Helvetica,sans-Serif" font-size="10.00"># Create()</text>
<text text-anchor="start" x="139.5" y="-698.5" font-family="Helvetica,sans-Serif" font-size="10.00"># Delete()</text>
<text text-anchor="start" x="139.5" y="-687.5" font-family="Helvetica,sans-Serif" font-size="10.00"># GetNprocs()</text>
<text text-anchor="start" x="139.5" y="-676.5" font-family="Helvetica,sans-Serif" font-size="10.00"># GetMyid()</text>
<text text-anchor="start" x="139.5" y="-665.5" font-family="Helvetica,sans-Serif" font-size="10.00"># GetSiteMin()</text>
<text text-anchor="start" x="139.5" y="-654.5" font-family="Helvetica,sans-Serif" font-size="10.00"># GetSiteMax()</text>
<text text-anchor="start" x="139.5" y="-643.5" font-family="Helvetica,sans-Serif" font-size="10.00"># GetEmpiricalFreq()</text>
<text text-anchor="start" x="139.5" y="-632.5" font-family="Helvetica,sans-Serif" font-size="10.00"># GetMinTotWeight()</text>
<text text-anchor="start" x="139.5" y="-621.5" font-family="Helvetica,sans-Serif" font-size="10.00"># SetMinTotWeight()</text>
</a>
</g>
</g>
<!-- Node13&#45;&gt;Node12 -->
<g id="edge3" class="edge"><title>Node13&#45;&gt;Node12</title>
<path fill="none" stroke="midnightblue" d="M243.378,-604.003C244.485,-594.381 245.542,-585.191 246.527,-576.623"/>
<polygon fill="none" stroke="midnightblue" points="239.874,-603.842 242.208,-614.176 246.828,-604.642 239.874,-603.842"/>
</g>
<!-- Node14 -->
<g id="node5" class="node"><title>Node14</title>
<g id="a_node5"><a xlink:href="classChrono.html" target="_top" xlink:title="{Chrono\n||+ Chrono()\l+ ~Chrono()\l+ Reset()\l+ Start()\l+ Stop()\l+ ToStream()\l+ FromStream()\l+ operator++()\l+ GetTime()\l+ GetTimePerCount()\l+ GetCount()\l}">
<polygon fill="none" stroke="black" points="162.5,-1126.5 162.5,-1293.5 272.5,-1293.5 272.5,-1126.5 162.5,-1126.5"/>
<text text-anchor="middle" x="217.5" y="-1281.5" font-family="Helvetica,sans-Serif" font-size="10.00">Chrono</text>
<polyline fill="none" stroke="black" points="162.5,-1274.5 272.5,-1274.5 "/>
<text text-anchor="middle" x="217.5" y="-1262.5" font-family="Helvetica,sans-Serif" font-size="10.00"> </text>
<polyline fill="none" stroke="black" points="162.5,-1255.5 272.5,-1255.5 "/>
<text text-anchor="start" x="170.5" y="-1243.5" font-family="Helvetica,sans-Serif" font-size="10.00">+ Chrono()</text>
<text text-anchor="start" x="170.5" y="-1232.5" font-family="Helvetica,sans-Serif" font-size="10.00">+ ~Chrono()</text>
<text text-anchor="start" x="170.5" y="-1221.5" font-family="Helvetica,sans-Serif" font-size="10.00">+ Reset()</text>
<text text-anchor="start" x="170.5" y="-1210.5" font-family="Helvetica,sans-Serif" font-size="10.00">+ Start()</text>
<text text-anchor="start" x="170.5" y="-1199.5" font-family="Helvetica,sans-Serif" font-size="10.00">+ Stop()</text>
<text text-anchor="start" x="170.5" y="-1188.5" font-family="Helvetica,sans-Serif" font-size="10.00">+ ToStream()</text>
<text text-anchor="start" x="170.5" y="-1177.5" font-family="Helvetica,sans-Serif" font-size="10.00">+ FromStream()</text>
<text text-anchor="start" x="170.5" y="-1166.5" font-family="Helvetica,sans-Serif" font-size="10.00">+ operator++()</text>
<text text-anchor="start" x="170.5" y="-1155.5" font-family="Helvetica,sans-Serif" font-size="10.00">+ GetTime()</text>
<text text-anchor="start" x="170.5" y="-1144.5" font-family="Helvetica,sans-Serif" font-size="10.00">+ GetTimePerCount()</text>
<text text-anchor="start" x="170.5" y="-1133.5" font-family="Helvetica,sans-Serif" font-size="10.00">+ GetCount()</text>
</a>
</g>
</g>
<!-- Node14&#45;&gt;Node13 -->
<g id="edge4" class="edge"><title>Node14&#45;&gt;Node13</title>
<path fill="none" stroke="#404040" d="M217.5,-1126.05C217.5,-1105.32 217.5,-1082.07 217.5,-1057.97"/>
<polygon fill="none" stroke="#404040" points="217.5,-1057.68 213.5,-1051.68 217.5,-1045.68 221.5,-1051.68 217.5,-1057.68"/>
<text text-anchor="middle" x="245" y="-1094.5" font-family="Helvetica,sans-Serif" font-size="10.00"> #chronostat</text>
<text text-anchor="middle" x="245" y="-1083.5" font-family="Helvetica,sans-Serif" font-size="10.00">#chronorr</text>
<text text-anchor="middle" x="245" y="-1072.5" font-family="Helvetica,sans-Serif" font-size="10.00">#chronodp</text>
</g>
<!-- Node15 -->
<g id="node6" class="node"><title>Node15</title>
<polygon fill="none" stroke="#bfbfbf" points="0,-1181.5 0,-1238.5 45,-1238.5 45,-1181.5 0,-1181.5"/>
<text text-anchor="middle" x="22.5" y="-1226.5" font-family="Helvetica,sans-Serif" font-size="10.00">double</text>
<polyline fill="none" stroke="#bfbfbf" points="0,-1219.5 45,-1219.5 "/>
<text text-anchor="middle" x="22.5" y="-1207.5" font-family="Helvetica,sans-Serif" font-size="10.00"> </text>
<polyline fill="none" stroke="#bfbfbf" points="0,-1200.5 45,-1200.5 "/>
<text text-anchor="middle" x="22.5" y="-1188.5" font-family="Helvetica,sans-Serif" font-size="10.00"> </text>
</g>
<!-- Node15&#45;&gt;Node10 -->
<g id="edge8" class="edge"><title>Node15&#45;&gt;Node10</title>
<path fill="none" stroke="#404040" d="M20.5059,-1181.04C16.2169,-1118.4 6.5,-962.039 6.5,-831 6.5,-831 6.5,-831 6.5,-337.5 6.5,-223.187 145.64,-164.724 242.949,-137.815"/>
<polygon fill="none" stroke="#404040" points="243.007,-137.8 247.764,-132.381 254.596,-134.688 249.838,-140.107 243.007,-137.8"/>
<text text-anchor="middle" x="27" y="-518" font-family="Helvetica,sans-Serif" font-size="10.00"> #nucstat</text>
<text text-anchor="middle" x="27" y="-507" font-family="Helvetica,sans-Serif" font-size="10.00">#nucrr</text>
</g>
<!-- Node15&#45;&gt;Node13 -->
<g id="edge5" class="edge"><title>Node15&#45;&gt;Node13</title>
<path fill="none" stroke="#404040" d="M29.5194,-1181.24C37.54,-1151.48 51.984,-1103.2 70.5,-1064 86.0534,-1031.07 105.359,-997.116 124.809,-965.661"/>
<polygon fill="none" stroke="#404040" points="125.051,-965.274 124.835,-958.066 131.405,-955.095 131.621,-962.302 125.051,-965.274"/>
<text text-anchor="middle" x="102.5" y="-1083.5" font-family="Helvetica,sans-Serif" font-size="10.00"> #mintotweight</text>
</g>
<!-- Node16 -->
<g id="node7" class="node"><title>Node16</title>
<polygon fill="none" stroke="#bfbfbf" points="354,-1181.5 354,-1238.5 383,-1238.5 383,-1181.5 354,-1181.5"/>
<text text-anchor="middle" x="368.5" y="-1226.5" font-family="Helvetica,sans-Serif" font-size="10.00">int</text>
<polyline fill="none" stroke="#bfbfbf" points="354,-1219.5 383,-1219.5 "/>
<text text-anchor="middle" x="368.5" y="-1207.5" font-family="Helvetica,sans-Serif" font-size="10.00"> </text>
<polyline fill="none" stroke="#bfbfbf" points="354,-1200.5 383,-1200.5 "/>
<text text-anchor="middle" x="368.5" y="-1188.5" font-family="Helvetica,sans-Serif" font-size="10.00"> </text>
</g>
<!-- Node16&#45;&gt;Node10 -->
<g id="edge9" class="edge"><title>Node16&#45;&gt;Node10</title>
<path fill="none" stroke="#404040" d="M368.5,-1181.49C368.5,-1119.13 368.5,-962.25 368.5,-831 368.5,-831 368.5,-831 368.5,-337.5 368.5,-307.695 365.488,-275.864 361.284,-245.951"/>
<polygon fill="none" stroke="#404040" points="361.229,-245.579 356.398,-240.225 359.483,-233.707 364.313,-239.061 361.229,-245.579"/>
<text text-anchor="middle" x="387.5" y="-512.5" font-family="Helvetica,sans-Serif" font-size="10.00"> #Nnucrr</text>
</g>
<!-- Node16&#45;&gt;Node13 -->
<g id="edge6" class="edge"><title>Node16&#45;&gt;Node13</title>
<path fill="none" stroke="#404040" d="M353.808,-1192.27C337.674,-1173.12 312.002,-1140.21 296.5,-1108 288.717,-1091.83 281.563,-1074.75 275.016,-1057.33"/>
<polygon fill="none" stroke="#404040" points="274.934,-1057.11 269.112,-1052.85 270.8,-1045.84 276.622,-1050.09 274.934,-1057.11"/>
<text text-anchor="middle" x="325.5" y="-1100" font-family="Helvetica,sans-Serif" font-size="10.00"> #dim</text>
<text text-anchor="middle" x="325.5" y="-1089" font-family="Helvetica,sans-Serif" font-size="10.00">#statinfcount</text>
<text text-anchor="middle" x="325.5" y="-1078" font-family="Helvetica,sans-Serif" font-size="10.00">#totstatcount</text>
<text text-anchor="middle" x="325.5" y="-1067" font-family="Helvetica,sans-Serif" font-size="10.00">#nsite</text>
</g>
<!-- Node18 -->
<g id="node9" class="node"><title>Node18</title>
<g id="a_node9"><a xlink:href="classCodonStateSpace.html" target="_top" xlink:title="{CodonStateSpace\n||+ CodonStateSpace()\l+ ~CodonStateSpace()\l+ GetNstate()\l+ GetState()\l+ GetState()\l+ GetDNAStateSpace()\l+ GetProteinStateSpace()\l+ GetCodonFromDNA()\l+ GetDifferingPosition()\l+ GetCodonPosition()\l+ IsNonCTNearest()\l+ Translation()\l+ Synonymous()\l+ TranslationWithStops()\l+ CheckStop()\l+ GetDegeneracy()\l+ GetNstop()\l+ GetStopPos1()\l+ GetStopPos2()\l+ GetStopPos3()\l}">
<polygon fill="none" stroke="black" points="397,-697 397,-963 526,-963 526,-697 397,-697"/>
<text text-anchor="middle" x="461.5" y="-951" font-family="Helvetica,sans-Serif" font-size="10.00">CodonStateSpace</text>
<polyline fill="none" stroke="black" points="397,-944 526,-944 "/>
<text text-anchor="middle" x="461.5" y="-932" font-family="Helvetica,sans-Serif" font-size="10.00"> </text>
<polyline fill="none" stroke="black" points="397,-925 526,-925 "/>
<text text-anchor="start" x="405" y="-913" font-family="Helvetica,sans-Serif" font-size="10.00">+ CodonStateSpace()</text>
<text text-anchor="start" x="405" y="-902" font-family="Helvetica,sans-Serif" font-size="10.00">+ ~CodonStateSpace()</text>
<text text-anchor="start" x="405" y="-891" font-family="Helvetica,sans-Serif" font-size="10.00">+ GetNstate()</text>
<text text-anchor="start" x="405" y="-880" font-family="Helvetica,sans-Serif" font-size="10.00">+ GetState()</text>
<text text-anchor="start" x="405" y="-869" font-family="Helvetica,sans-Serif" font-size="10.00">+ GetState()</text>
<text text-anchor="start" x="405" y="-858" font-family="Helvetica,sans-Serif" font-size="10.00">+ GetDNAStateSpace()</text>
<text text-anchor="start" x="405" y="-847" font-family="Helvetica,sans-Serif" font-size="10.00">+ GetProteinStateSpace()</text>
<text text-anchor="start" x="405" y="-836" font-family="Helvetica,sans-Serif" font-size="10.00">+ GetCodonFromDNA()</text>
<text text-anchor="start" x="405" y="-825" font-family="Helvetica,sans-Serif" font-size="10.00">+ GetDifferingPosition()</text>
<text text-anchor="start" x="405" y="-814" font-family="Helvetica,sans-Serif" font-size="10.00">+ GetCodonPosition()</text>
<text text-anchor="start" x="405" y="-803" font-family="Helvetica,sans-Serif" font-size="10.00">+ IsNonCTNearest()</text>
<text text-anchor="start" x="405" y="-792" font-family="Helvetica,sans-Serif" font-size="10.00">+ Translation()</text>
<text text-anchor="start" x="405" y="-781" font-family="Helvetica,sans-Serif" font-size="10.00">+ Synonymous()</text>
<text text-anchor="start" x="405" y="-770" font-family="Helvetica,sans-Serif" font-size="10.00">+ TranslationWithStops()</text>
<text text-anchor="start" x="405" y="-759" font-family="Helvetica,sans-Serif" font-size="10.00">+ CheckStop()</text>
<text text-anchor="start" x="405" y="-748" font-family="Helvetica,sans-Serif" font-size="10.00">+ GetDegeneracy()</text>
<text text-anchor="start" x="405" y="-737" font-family="Helvetica,sans-Serif" font-size="10.00">+ GetNstop()</text>
<text text-anchor="start" x="405" y="-726" font-family="Helvetica,sans-Serif" font-size="10.00">+ GetStopPos1()</text>
<text text-anchor="start" x="405" y="-715" font-family="Helvetica,sans-Serif" font-size="10.00">+ GetStopPos2()</text>
<text text-anchor="start" x="405" y="-704" font-family="Helvetica,sans-Serif" font-size="10.00">+ GetStopPos3()</text>
</a>
</g>
</g>
<!-- Node16&#45;&gt;Node18 -->
<g id="edge12" class="edge"><title>Node16&#45;&gt;Node18</title>
<path fill="none" stroke="#404040" d="M375.339,-1181.2C386.012,-1137.82 407.355,-1051.07 426.128,-974.771"/>
<polygon fill="none" stroke="#404040" points="426.13,-974.762 423.679,-967.98 428.997,-963.11 431.448,-969.892 426.13,-974.762"/>
<text text-anchor="middle" x="420" y="-1083.5" font-family="Helvetica,sans-Serif" font-size="10.00"> +Npos</text>
</g>
<!-- Node17 -->
<g id="node8" class="node"><title>Node17</title>
<polygon fill="none" stroke="#bfbfbf" points="109,-1181.5 109,-1238.5 144,-1238.5 144,-1181.5 109,-1181.5"/>
<text text-anchor="middle" x="126.5" y="-1226.5" font-family="Helvetica,sans-Serif" font-size="10.00">bool</text>
<polyline fill="none" stroke="#bfbfbf" points="109,-1219.5 144,-1219.5 "/>
<text text-anchor="middle" x="126.5" y="-1207.5" font-family="Helvetica,sans-Serif" font-size="10.00"> </text>
<polyline fill="none" stroke="#bfbfbf" points="109,-1200.5 144,-1200.5 "/>
<text text-anchor="middle" x="126.5" y="-1188.5" font-family="Helvetica,sans-Serif" font-size="10.00"> </text>
</g>
<!-- Node17&#45;&gt;Node13 -->
<g id="edge7" class="edge"><title>Node17&#45;&gt;Node13</title>
<path fill="none" stroke="#404040" d="M128.73,-1181.23C131.415,-1151.87 136.698,-1104.31 145.5,-1064 145.979,-1061.81 146.469,-1059.61 146.969,-1057.4"/>
<polygon fill="none" stroke="#404040" points="147.015,-1057.2 144.481,-1050.45 149.739,-1045.51 152.272,-1052.27 147.015,-1057.2"/>
<text text-anchor="middle" x="179.5" y="-1089" font-family="Helvetica,sans-Serif" font-size="10.00"> #activesuffstat</text>
<text text-anchor="middle" x="179.5" y="-1078" font-family="Helvetica,sans-Serif" font-size="10.00">#burnin</text>
</g>
<!-- Node18&#45;&gt;Node10 -->
<g id="edge10" class="edge"><title>Node18&#45;&gt;Node10</title>
<path fill="none" stroke="#404040" d="M451.128,-696.958C440.051,-579.077 418.952,-402.339 382.5,-252 381.978,-249.847 381.435,-247.681 380.873,-245.504"/>
<polygon fill="none" stroke="#404040" points="380.835,-245.367 375.405,-240.622 377.695,-233.785 383.126,-238.529 380.835,-245.367"/>
<text text-anchor="middle" x="446" y="-427" font-family="Helvetica,sans-Serif" font-size="10.00"> #statespace</text>
</g>
<!-- Node19 -->
<g id="node10" class="node"><title>Node19</title>
<g id="a_node10"><a xlink:href="classStateSpace.html" target="_top" xlink:title="{StateSpace\n||+ ~StateSpace()\l+ GetState()\l+ GetNstate()\l+ GetState()\l}">
<polygon fill="none" stroke="black" points="417,-1165 417,-1255 506,-1255 506,-1165 417,-1165"/>
<text text-anchor="middle" x="461.5" y="-1243" font-family="Helvetica,sans-Serif" font-size="10.00">StateSpace</text>
<polyline fill="none" stroke="black" points="417,-1236 506,-1236 "/>
<text text-anchor="middle" x="461.5" y="-1224" font-family="Helvetica,sans-Serif" font-size="10.00"> </text>
<polyline fill="none" stroke="black" points="417,-1217 506,-1217 "/>
<text text-anchor="start" x="425" y="-1205" font-family="Helvetica,sans-Serif" font-size="10.00">+ ~StateSpace()</text>
<text text-anchor="start" x="425" y="-1194" font-family="Helvetica,sans-Serif" font-size="10.00">+ GetState()</text>
<text text-anchor="start" x="425" y="-1183" font-family="Helvetica,sans-Serif" font-size="10.00">+ GetNstate()</text>
<text text-anchor="start" x="425" y="-1172" font-family="Helvetica,sans-Serif" font-size="10.00">+ GetState()</text>
</a>
</g>
</g>
<!-- Node19&#45;&gt;Node18 -->
<g id="edge11" class="edge"><title>Node19&#45;&gt;Node18</title>
<path fill="none" stroke="midnightblue" d="M461.5,-1154.66C461.5,-1104.77 461.5,-1028.84 461.5,-963.059"/>
<polygon fill="none" stroke="midnightblue" points="458,-1154.9 461.5,-1164.9 465,-1154.9 458,-1154.9"/>
</g>
</g>
</svg>
