<?xml version="1.0" encoding="UTF-8" standalone="no"?>
<!DOCTYPE svg PUBLIC "-//W3C//DTD SVG 1.1//EN"
 "http://www.w3.org/Graphics/SVG/1.1/DTD/svg11.dtd">
<!-- Generated by graphviz version 2.38.0 (20140413.2041)
 -->
<!-- Title: SimpleStateSpace Pages: 1 -->
<svg width="273pt" height="270pt"
 viewBox="0.00 0.00 272.50 270.00" xmlns="http://www.w3.org/2000/svg" xmlns:xlink="http://www.w3.org/1999/xlink">
<g id="graph0" class="graph" transform="scale(1 1) rotate(0) translate(4 266)">
<title>SimpleStateSpace</title>
<!-- Node5 -->
<g id="node1" class="node"><title>Node5</title>
<polygon fill="#bfbfbf" stroke="black" points="65,-0.5 65,-112.5 178,-112.5 178,-0.5 65,-0.5"/>
<text text-anchor="middle" x="121.5" y="-100.5" font-family="Helvetica,sans-Serif" font-size="10.00">SimpleStateSpace</text>
<polyline fill="none" stroke="black" points="65,-93.5 178,-93.5 "/>
<text text-anchor="middle" x="121.5" y="-81.5" font-family="Helvetica,sans-Serif" font-size="10.00"> </text>
<polyline fill="none" stroke="black" points="65,-74.5 178,-74.5 "/>
<text text-anchor="start" x="73" y="-62.5" font-family="Helvetica,sans-Serif" font-size="10.00">+ SimpleStateSpace()</text>
<text text-anchor="start" x="73" y="-51.5" font-family="Helvetica,sans-Serif" font-size="10.00">+ SimpleStateSpace()</text>
<text text-anchor="start" x="73" y="-40.5" font-family="Helvetica,sans-Serif" font-size="10.00">+ GetState()</text>
<text text-anchor="start" x="73" y="-29.5" font-family="Helvetica,sans-Serif" font-size="10.00">+ GetNstate()</text>
<text text-anchor="start" x="73" y="-18.5" font-family="Helvetica,sans-Serif" font-size="10.00">+ GetState()</text>
<text text-anchor="start" x="73" y="-7.5" font-family="Helvetica,sans-Serif" font-size="10.00">+ GetCharState()</text>
</g>
<!-- Node6 -->
<g id="node2" class="node"><title>Node6</title>
<g id="a_node2"><a xlink:href="classStateSpace.html" target="_top" xlink:title="{StateSpace\n||+ ~StateSpace()\l+ GetState()\l+ GetNstate()\l+ GetState()\l}">
<polygon fill="none" stroke="black" points="0,-171.5 0,-261.5 89,-261.5 89,-171.5 0,-171.5"/>
<text text-anchor="middle" x="44.5" y="-249.5" font-family="Helvetica,sans-Serif" font-size="10.00">StateSpace</text>
<polyline fill="none" stroke="black" points="0,-242.5 89,-242.5 "/>
<text text-anchor="middle" x="44.5" y="-230.5" font-family="Helvetica,sans-Serif" font-size="10.00"> </text>
<polyline fill="none" stroke="black" points="0,-223.5 89,-223.5 "/>
<text text-anchor="start" x="8" y="-211.5" font-family="Helvetica,sans-Serif" font-size="10.00">+ ~StateSpace()</text>
<text text-anchor="start" x="8" y="-200.5" font-family="Helvetica,sans-Serif" font-size="10.00">+ GetState()</text>
<text text-anchor="start" x="8" y="-189.5" font-family="Helvetica,sans-Serif" font-size="10.00">+ GetNstate()</text>
<text text-anchor="start" x="8" y="-178.5" font-family="Helvetica,sans-Serif" font-size="10.00">+ GetState()</text>
</a>
</g>
</g>
<!-- Node6&#45;&gt;Node5 -->
<g id="edge1" class="edge"><title>Node6&#45;&gt;Node5</title>
<path fill="none" stroke="midnightblue" d="M70.441,-162.27C78.2412,-146.265 86.8139,-128.674 94.6705,-112.553"/>
<polygon fill="none" stroke="midnightblue" points="67.1835,-160.966 65.9488,-171.488 73.476,-164.032 67.1835,-160.966"/>
</g>
<!-- Node7 -->
<g id="node3" class="node"><title>Node7</title>
<polygon fill="none" stroke="#bfbfbf" points="107,-188 107,-245 136,-245 136,-188 107,-188"/>
<text text-anchor="middle" x="121.5" y="-233" font-family="Helvetica,sans-Serif" font-size="10.00">int</text>
<polyline fill="none" stroke="#bfbfbf" points="107,-226 136,-226 "/>
<text text-anchor="middle" x="121.5" y="-214" font-family="Helvetica,sans-Serif" font-size="10.00"> </text>
<polyline fill="none" stroke="#bfbfbf" points="107,-207 136,-207 "/>
<text text-anchor="middle" x="121.5" y="-195" font-family="Helvetica,sans-Serif" font-size="10.00"> </text>
</g>
<!-- Node7&#45;&gt;Node5 -->
<g id="edge2" class="edge"><title>Node7&#45;&gt;Node5</title>
<path fill="none" stroke="#404040" d="M121.5,-187.979C121.5,-170.448 121.5,-146.926 121.5,-124.684"/>
<polygon fill="none" stroke="#404040" points="121.5,-124.504 117.5,-118.504 121.5,-112.504 125.5,-118.504 121.5,-124.504"/>
<text text-anchor="middle" x="156.5" y="-145" font-family="Helvetica,sans-Serif" font-size="10.00"> #NAlphabetSet</text>
<text text-anchor="middle" x="156.5" y="-134" font-family="Helvetica,sans-Serif" font-size="10.00">#Nstate</text>
</g>
<!-- Node8 -->
<g id="node4" class="node"><title>Node8</title>
<polygon fill="none" stroke="#bfbfbf" points="193.5,-188 193.5,-245 235.5,-245 235.5,-188 193.5,-188"/>
<text text-anchor="middle" x="214.5" y="-233" font-family="Helvetica,sans-Serif" font-size="10.00">char *</text>
<polyline fill="none" stroke="#bfbfbf" points="193.5,-226 235.5,-226 "/>
<text text-anchor="middle" x="214.5" y="-214" font-family="Helvetica,sans-Serif" font-size="10.00"> </text>
<polyline fill="none" stroke="#bfbfbf" points="193.5,-207 235.5,-207 "/>
<text text-anchor="middle" x="214.5" y="-195" font-family="Helvetica,sans-Serif" font-size="10.00"> </text>
</g>
<!-- Node8&#45;&gt;Node5 -->
<g id="edge3" class="edge"><title>Node8&#45;&gt;Node5</title>
<path fill="none" stroke="#404040" d="M210.978,-187.901C207.92,-170.703 202.367,-148.582 192.5,-131 190.332,-127.137 187.912,-123.328 185.308,-119.6"/>
<polygon fill="none" stroke="#404040" points="185.253,-119.527 178.45,-117.136 178.039,-109.937 184.843,-112.327 185.253,-119.527"/>
<text text-anchor="middle" x="233.5" y="-145" font-family="Helvetica,sans-Serif" font-size="10.00"> #AlphabetSet</text>
<text text-anchor="middle" x="233.5" y="-134" font-family="Helvetica,sans-Serif" font-size="10.00">#Alphabet</text>
</g>
</g>
</svg>
