<?xml version="1.0" encoding="UTF-8" standalone="no"?>
<!DOCTYPE svg PUBLIC "-//W3C//DTD SVG 1.1//EN"
 "http://www.w3.org/Graphics/SVG/1.1/DTD/svg11.dtd">
<!-- Generated by graphviz version 2.38.0 (20140413.2041)
 -->
<!-- Title: BranchLength Pages: 1 -->
<svg width="106pt" height="182pt"
 viewBox="0.00 0.00 106.00 182.00" xmlns="http://www.w3.org/2000/svg" xmlns:xlink="http://www.w3.org/1999/xlink">
<g id="graph0" class="graph" transform="scale(1 1) rotate(0) translate(4 178)">
<title>BranchLength</title>
<!-- Node0 -->
<g id="node1" class="node"><title>Node0</title>
<polygon fill="#bfbfbf" stroke="black" points="-7.10543e-15,-0.5 -7.10543e-15,-79.5 98,-79.5 98,-0.5 -7.10543e-15,-0.5"/>
<text text-anchor="middle" x="49" y="-67.5" font-family="Helvetica,sans-Serif" font-size="10.00">BranchLength</text>
<polyline fill="none" stroke="black" points="-7.10543e-15,-60.5 98,-60.5 "/>
<text text-anchor="middle" x="49" y="-48.5" font-family="Helvetica,sans-Serif" font-size="10.00"> </text>
<polyline fill="none" stroke="black" points="-7.10543e-15,-41.5 98,-41.5 "/>
<text text-anchor="start" x="8" y="-29.5" font-family="Helvetica,sans-Serif" font-size="10.00">+ BranchLength()</text>
<text text-anchor="start" x="8" y="-18.5" font-family="Helvetica,sans-Serif" font-size="10.00">+ ~BranchLength()</text>
<text text-anchor="start" x="8" y="-7.5" font-family="Helvetica,sans-Serif" font-size="10.00">+ specialUpdate()</text>
</g>
<!-- Node1 -->
<g id="node2" class="node"><title>Node1</title>
<g id="a_node2"><a xlink:href="classDvar.html" target="_top" xlink:title="{Dvar\&lt; PosReal \&gt;\n||}">
<polygon fill="none" stroke="black" points="2.5,-116.5 2.5,-173.5 95.5,-173.5 95.5,-116.5 2.5,-116.5"/>
<text text-anchor="middle" x="49" y="-161.5" font-family="Helvetica,sans-Serif" font-size="10.00">Dvar&lt; PosReal &gt;</text>
<polyline fill="none" stroke="black" points="2.5,-154.5 95.5,-154.5 "/>
<text text-anchor="middle" x="49" y="-142.5" font-family="Helvetica,sans-Serif" font-size="10.00"> </text>
<polyline fill="none" stroke="black" points="2.5,-135.5 95.5,-135.5 "/>
<text text-anchor="middle" x="49" y="-123.5" font-family="Helvetica,sans-Serif" font-size="10.00"> </text>
</a>
</g>
</g>
<!-- Node1&#45;&gt;Node0 -->
<g id="edge1" class="edge"><title>Node1&#45;&gt;Node0</title>
<path fill="none" stroke="midnightblue" d="M49,-106.156C49,-97.4733 49,-88.2318 49,-79.5205"/>
<polygon fill="none" stroke="midnightblue" points="45.5001,-106.398 49,-116.398 52.5001,-106.398 45.5001,-106.398"/>
</g>
</g>
</svg>
