<?xml version="1.0" encoding="UTF-8" standalone="no"?>
<!DOCTYPE svg PUBLIC "-//W3C//DTD SVG 1.1//EN"
 "http://www.w3.org/Graphics/SVG/1.1/DTD/svg11.dtd">
<!-- Generated by graphviz version 2.38.0 (20140413.2041)
 -->
<!-- Title: PBTree Pages: 1 -->
<svg width="486pt" height="1756pt"
 viewBox="0.00 0.00 485.50 1756.00" xmlns="http://www.w3.org/2000/svg" xmlns:xlink="http://www.w3.org/1999/xlink">
<g id="graph0" class="graph" transform="scale(1 1) rotate(0) translate(4 1752)">
<title>PBTree</title>
<!-- Node2 -->
<g id="node1" class="node"><title>Node2</title>
<polygon fill="#bfbfbf" stroke="black" points="143.5,-809.5 143.5,-1328.5 285.5,-1328.5 285.5,-809.5 143.5,-809.5"/>
<text text-anchor="middle" x="214.5" y="-1316.5" font-family="Helvetica,sans-Serif" font-size="10.00">PBTree</text>
<polyline fill="none" stroke="black" points="143.5,-1309.5 285.5,-1309.5 "/>
<text text-anchor="middle" x="214.5" y="-1297.5" font-family="Helvetica,sans-Serif" font-size="10.00"> </text>
<polyline fill="none" stroke="black" points="143.5,-1290.5 285.5,-1290.5 "/>
<text text-anchor="start" x="151.5" y="-1278.5" font-family="Helvetica,sans-Serif" font-size="10.00">+ PBTree()</text>
<text text-anchor="start" x="151.5" y="-1267.5" font-family="Helvetica,sans-Serif" font-size="10.00">+ PBTree()</text>
<text text-anchor="start" x="151.5" y="-1256.5" font-family="Helvetica,sans-Serif" font-size="10.00">+ PBTree()</text>
<text text-anchor="start" x="151.5" y="-1245.5" font-family="Helvetica,sans-Serif" font-size="10.00">+ PBTree()</text>
<text text-anchor="start" x="151.5" y="-1234.5" font-family="Helvetica,sans-Serif" font-size="10.00">+ ~PBTree()</text>
<text text-anchor="start" x="151.5" y="-1223.5" font-family="Helvetica,sans-Serif" font-size="10.00">+ GetParameters()</text>
<text text-anchor="start" x="151.5" y="-1212.5" font-family="Helvetica,sans-Serif" font-size="10.00">+ SetParameters()</text>
<text text-anchor="start" x="151.5" y="-1201.5" font-family="Helvetica,sans-Serif" font-size="10.00">+ Clone()</text>
<text text-anchor="start" x="151.5" y="-1190.5" font-family="Helvetica,sans-Serif" font-size="10.00">+ Phylip()</text>
<text text-anchor="start" x="151.5" y="-1179.5" font-family="Helvetica,sans-Serif" font-size="10.00">+ WriteToStream()</text>
<text text-anchor="start" x="151.5" y="-1168.5" font-family="Helvetica,sans-Serif" font-size="10.00">+ ReadFromStream()</text>
<text text-anchor="start" x="151.5" y="-1157.5" font-family="Helvetica,sans-Serif" font-size="10.00">+ ReadPhylip()</text>
<text text-anchor="start" x="151.5" y="-1146.5" font-family="Helvetica,sans-Serif" font-size="10.00">+ GetRoot()</text>
<text text-anchor="start" x="151.5" y="-1135.5" font-family="Helvetica,sans-Serif" font-size="10.00">+ GetLeaf()</text>
<text text-anchor="start" x="151.5" y="-1124.5" font-family="Helvetica,sans-Serif" font-size="10.00">+ GetSize()</text>
<text text-anchor="start" x="151.5" y="-1113.5" font-family="Helvetica,sans-Serif" font-size="10.00">+ GetSpeciesNames()</text>
<text text-anchor="start" x="151.5" y="-1102.5" font-family="Helvetica,sans-Serif" font-size="10.00">+ GetLength()</text>
<text text-anchor="start" x="151.5" y="-1091.5" font-family="Helvetica,sans-Serif" font-size="10.00">+ Simplify()</text>
<text text-anchor="start" x="151.5" y="-1080.5" font-family="Helvetica,sans-Serif" font-size="10.00">+ operator==()</text>
<text text-anchor="start" x="151.5" y="-1069.5" font-family="Helvetica,sans-Serif" font-size="10.00">+ operator!=()</text>
<text text-anchor="start" x="151.5" y="-1058.5" font-family="Helvetica,sans-Serif" font-size="10.00">+ FindNode()</text>
<text text-anchor="start" x="151.5" y="-1047.5" font-family="Helvetica,sans-Serif" font-size="10.00">+ FindNode()</text>
<text text-anchor="start" x="151.5" y="-1036.5" font-family="Helvetica,sans-Serif" font-size="10.00">+ GetRootBipartition()</text>
<text text-anchor="start" x="151.5" y="-1025.5" font-family="Helvetica,sans-Serif" font-size="10.00">+ BipartitionPruning()</text>
<text text-anchor="start" x="151.5" y="-1014.5" font-family="Helvetica,sans-Serif" font-size="10.00">+ SetLabelOffset()</text>
<text text-anchor="start" x="151.5" y="-1003.5" font-family="Helvetica,sans-Serif" font-size="10.00">+ TranslateLabels()</text>
<text text-anchor="start" x="151.5" y="-992.5" font-family="Helvetica,sans-Serif" font-size="10.00">+ Dichotomise()</text>
<text text-anchor="start" x="151.5" y="-981.5" font-family="Helvetica,sans-Serif" font-size="10.00">+ Trichotomise()</text>
<text text-anchor="start" x="151.5" y="-970.5" font-family="Helvetica,sans-Serif" font-size="10.00">+ IsDichotomous()</text>
<text text-anchor="start" x="151.5" y="-959.5" font-family="Helvetica,sans-Serif" font-size="10.00">+ BipartitionPruning()</text>
<text text-anchor="start" x="151.5" y="-948.5" font-family="Helvetica,sans-Serif" font-size="10.00">+ FinishCreation()</text>
<text text-anchor="start" x="151.5" y="-937.5" font-family="Helvetica,sans-Serif" font-size="10.00">+ RegisterWithData()</text>
<text text-anchor="start" x="151.5" y="-926.5" font-family="Helvetica,sans-Serif" font-size="10.00">+ RegisterWithParam()</text>
<text text-anchor="start" x="151.5" y="-915.5" font-family="Helvetica,sans-Serif" font-size="10.00">+ SetNames()</text>
<text text-anchor="start" x="151.5" y="-904.5" font-family="Helvetica,sans-Serif" font-size="10.00">+ SetFormalBranchLengths()</text>
<text text-anchor="start" x="151.5" y="-893.5" font-family="Helvetica,sans-Serif" font-size="10.00">+ Root()</text>
<text text-anchor="start" x="151.5" y="-882.5" font-family="Helvetica,sans-Serif" font-size="10.00">+ RootAt()</text>
<text text-anchor="start" x="151.5" y="-871.5" font-family="Helvetica,sans-Serif" font-size="10.00">+ RootAt()</text>
<text text-anchor="start" x="151.5" y="-860.5" font-family="Helvetica,sans-Serif" font-size="10.00">+ RootAt0Alphabetical()</text>
<text text-anchor="start" x="151.5" y="-849.5" font-family="Helvetica,sans-Serif" font-size="10.00">+ Eliminate()</text>
<text text-anchor="start" x="151.5" y="-838.5" font-family="Helvetica,sans-Serif" font-size="10.00">+ Eliminate()</text>
<text text-anchor="start" x="151.5" y="-827.5" font-family="Helvetica,sans-Serif" font-size="10.00">+ Eliminate()</text>
<text text-anchor="start" x="151.5" y="-816.5" font-family="Helvetica,sans-Serif" font-size="10.00">+ Eliminate()</text>
</g>
<!-- Node4 -->
<g id="node3" class="node"><title>Node4</title>
<g id="a_node3"><a xlink:href="classPolyNode.html" target="_top" xlink:title="{PolyNode\n||+ PolyNode()\l+ PolyNode()\l+ ~PolyNode()\l+ deleteRecursive()\l+ Up()\l+ Down()\l+ Next()\l+ Prev()\l+ IsLeaf()\l+ IsRoot()\l+ GetDegree()\l+ GetMaxDegree()\l+ ComputeDegree()\l+ CheckDegree()\l+ IsDichotomous()\l+ GetLeafSet()\l+ GetLabel()\l+ SetLabel()\l+ GetName()\l+ SetName()\l+ SetNames()\l+ GetBranchLength()\l+ SetBranchLength()\l+ GetProb()\l+ SetProb()\l+ SetTree()\l+ GetTree()\l+ Simplify()\l+ Detach()\l+ DetachRecursive()\l+ AttachTo()\l+ ComputeMinLeafLabel()\l+ DetachOld()\l+ Insert()\l+ RegisterWithData()\l+ Dichotomise()\l+ SetSuper()\l+ GetSize()\l+ GetDepth()\l+ GetMinDepth()\l+ GetLength()\l+ GetIntDepth()\l+ ComputeSizeAndDepth()\l+ SetFormalBranchLengths()\l+ GetSpeciesNames()\l+ GetSpeciesNames()\l+ FindNode()\l+ FindNodePruning()\l+ GetBipartition()\l+ BipartitionPruning()\l+ BipartitionPruningWithSupports()\l+ Analyse()\l+ Insert()\l+ FlipFlop()\l+ TranslateLabels()\l+ SortLeaves()\l+ SortLeavesAlphabetical()\l+ Phylip()\l+ ResetLabels()\l+ Swap()\l}">
<polygon fill="none" stroke="black" points="211,-0.5 211,-706.5 378,-706.5 378,-0.5 211,-0.5"/>
<text text-anchor="middle" x="294.5" y="-694.5" font-family="Helvetica,sans-Serif" font-size="10.00">PolyNode</text>
<polyline fill="none" stroke="black" points="211,-687.5 378,-687.5 "/>
<text text-anchor="middle" x="294.5" y="-675.5" font-family="Helvetica,sans-Serif" font-size="10.00"> </text>
<polyline fill="none" stroke="black" points="211,-668.5 378,-668.5 "/>
<text text-anchor="start" x="219" y="-656.5" font-family="Helvetica,sans-Serif" font-size="10.00">+ PolyNode()</text>
<text text-anchor="start" x="219" y="-645.5" font-family="Helvetica,sans-Serif" font-size="10.00">+ PolyNode()</text>
<text text-anchor="start" x="219" y="-634.5" font-family="Helvetica,sans-Serif" font-size="10.00">+ ~PolyNode()</text>
<text text-anchor="start" x="219" y="-623.5" font-family="Helvetica,sans-Serif" font-size="10.00">+ deleteRecursive()</text>
<text text-anchor="start" x="219" y="-612.5" font-family="Helvetica,sans-Serif" font-size="10.00">+ Up()</text>
<text text-anchor="start" x="219" y="-601.5" font-family="Helvetica,sans-Serif" font-size="10.00">+ Down()</text>
<text text-anchor="start" x="219" y="-590.5" font-family="Helvetica,sans-Serif" font-size="10.00">+ Next()</text>
<text text-anchor="start" x="219" y="-579.5" font-family="Helvetica,sans-Serif" font-size="10.00">+ Prev()</text>
<text text-anchor="start" x="219" y="-568.5" font-family="Helvetica,sans-Serif" font-size="10.00">+ IsLeaf()</text>
<text text-anchor="start" x="219" y="-557.5" font-family="Helvetica,sans-Serif" font-size="10.00">+ IsRoot()</text>
<text text-anchor="start" x="219" y="-546.5" font-family="Helvetica,sans-Serif" font-size="10.00">+ GetDegree()</text>
<text text-anchor="start" x="219" y="-535.5" font-family="Helvetica,sans-Serif" font-size="10.00">+ GetMaxDegree()</text>
<text text-anchor="start" x="219" y="-524.5" font-family="Helvetica,sans-Serif" font-size="10.00">+ ComputeDegree()</text>
<text text-anchor="start" x="219" y="-513.5" font-family="Helvetica,sans-Serif" font-size="10.00">+ CheckDegree()</text>
<text text-anchor="start" x="219" y="-502.5" font-family="Helvetica,sans-Serif" font-size="10.00">+ IsDichotomous()</text>
<text text-anchor="start" x="219" y="-491.5" font-family="Helvetica,sans-Serif" font-size="10.00">+ GetLeafSet()</text>
<text text-anchor="start" x="219" y="-480.5" font-family="Helvetica,sans-Serif" font-size="10.00">+ GetLabel()</text>
<text text-anchor="start" x="219" y="-469.5" font-family="Helvetica,sans-Serif" font-size="10.00">+ SetLabel()</text>
<text text-anchor="start" x="219" y="-458.5" font-family="Helvetica,sans-Serif" font-size="10.00">+ GetName()</text>
<text text-anchor="start" x="219" y="-447.5" font-family="Helvetica,sans-Serif" font-size="10.00">+ SetName()</text>
<text text-anchor="start" x="219" y="-436.5" font-family="Helvetica,sans-Serif" font-size="10.00">+ SetNames()</text>
<text text-anchor="start" x="219" y="-425.5" font-family="Helvetica,sans-Serif" font-size="10.00">+ GetBranchLength()</text>
<text text-anchor="start" x="219" y="-414.5" font-family="Helvetica,sans-Serif" font-size="10.00">+ SetBranchLength()</text>
<text text-anchor="start" x="219" y="-403.5" font-family="Helvetica,sans-Serif" font-size="10.00">+ GetProb()</text>
<text text-anchor="start" x="219" y="-392.5" font-family="Helvetica,sans-Serif" font-size="10.00">+ SetProb()</text>
<text text-anchor="start" x="219" y="-381.5" font-family="Helvetica,sans-Serif" font-size="10.00">+ SetTree()</text>
<text text-anchor="start" x="219" y="-370.5" font-family="Helvetica,sans-Serif" font-size="10.00">+ GetTree()</text>
<text text-anchor="start" x="219" y="-359.5" font-family="Helvetica,sans-Serif" font-size="10.00">+ Simplify()</text>
<text text-anchor="start" x="219" y="-348.5" font-family="Helvetica,sans-Serif" font-size="10.00">+ Detach()</text>
<text text-anchor="start" x="219" y="-337.5" font-family="Helvetica,sans-Serif" font-size="10.00">+ DetachRecursive()</text>
<text text-anchor="start" x="219" y="-326.5" font-family="Helvetica,sans-Serif" font-size="10.00">+ AttachTo()</text>
<text text-anchor="start" x="219" y="-315.5" font-family="Helvetica,sans-Serif" font-size="10.00">+ ComputeMinLeafLabel()</text>
<text text-anchor="start" x="219" y="-304.5" font-family="Helvetica,sans-Serif" font-size="10.00">+ DetachOld()</text>
<text text-anchor="start" x="219" y="-293.5" font-family="Helvetica,sans-Serif" font-size="10.00">+ Insert()</text>
<text text-anchor="start" x="219" y="-282.5" font-family="Helvetica,sans-Serif" font-size="10.00">+ RegisterWithData()</text>
<text text-anchor="start" x="219" y="-271.5" font-family="Helvetica,sans-Serif" font-size="10.00">+ Dichotomise()</text>
<text text-anchor="start" x="219" y="-260.5" font-family="Helvetica,sans-Serif" font-size="10.00">+ SetSuper()</text>
<text text-anchor="start" x="219" y="-249.5" font-family="Helvetica,sans-Serif" font-size="10.00">+ GetSize()</text>
<text text-anchor="start" x="219" y="-238.5" font-family="Helvetica,sans-Serif" font-size="10.00">+ GetDepth()</text>
<text text-anchor="start" x="219" y="-227.5" font-family="Helvetica,sans-Serif" font-size="10.00">+ GetMinDepth()</text>
<text text-anchor="start" x="219" y="-216.5" font-family="Helvetica,sans-Serif" font-size="10.00">+ GetLength()</text>
<text text-anchor="start" x="219" y="-205.5" font-family="Helvetica,sans-Serif" font-size="10.00">+ GetIntDepth()</text>
<text text-anchor="start" x="219" y="-194.5" font-family="Helvetica,sans-Serif" font-size="10.00">+ ComputeSizeAndDepth()</text>
<text text-anchor="start" x="219" y="-183.5" font-family="Helvetica,sans-Serif" font-size="10.00">+ SetFormalBranchLengths()</text>
<text text-anchor="start" x="219" y="-172.5" font-family="Helvetica,sans-Serif" font-size="10.00">+ GetSpeciesNames()</text>
<text text-anchor="start" x="219" y="-161.5" font-family="Helvetica,sans-Serif" font-size="10.00">+ GetSpeciesNames()</text>
<text text-anchor="start" x="219" y="-150.5" font-family="Helvetica,sans-Serif" font-size="10.00">+ FindNode()</text>
<text text-anchor="start" x="219" y="-139.5" font-family="Helvetica,sans-Serif" font-size="10.00">+ FindNodePruning()</text>
<text text-anchor="start" x="219" y="-128.5" font-family="Helvetica,sans-Serif" font-size="10.00">+ GetBipartition()</text>
<text text-anchor="start" x="219" y="-117.5" font-family="Helvetica,sans-Serif" font-size="10.00">+ BipartitionPruning()</text>
<text text-anchor="start" x="219" y="-106.5" font-family="Helvetica,sans-Serif" font-size="10.00">+ BipartitionPruningWithSupports()</text>
<text text-anchor="start" x="219" y="-95.5" font-family="Helvetica,sans-Serif" font-size="10.00">+ Analyse()</text>
<text text-anchor="start" x="219" y="-84.5" font-family="Helvetica,sans-Serif" font-size="10.00">+ Insert()</text>
<text text-anchor="start" x="219" y="-73.5" font-family="Helvetica,sans-Serif" font-size="10.00">+ FlipFlop()</text>
<text text-anchor="start" x="219" y="-62.5" font-family="Helvetica,sans-Serif" font-size="10.00">+ TranslateLabels()</text>
<text text-anchor="start" x="219" y="-51.5" font-family="Helvetica,sans-Serif" font-size="10.00">+ SortLeaves()</text>
<text text-anchor="start" x="219" y="-40.5" font-family="Helvetica,sans-Serif" font-size="10.00">+ SortLeavesAlphabetical()</text>
<text text-anchor="start" x="219" y="-29.5" font-family="Helvetica,sans-Serif" font-size="10.00">+ Phylip()</text>
<text text-anchor="start" x="219" y="-18.5" font-family="Helvetica,sans-Serif" font-size="10.00">+ ResetLabels()</text>
<text text-anchor="start" x="219" y="-7.5" font-family="Helvetica,sans-Serif" font-size="10.00">+ Swap()</text>
</a>
</g>
</g>
<!-- Node2&#45;&gt;Node4 -->
<g id="edge7" class="edge"><title>Node2&#45;&gt;Node4</title>
<path fill="none" stroke="#404040" d="M269.964,-809.449C270.866,-803.248 271.714,-797.091 272.5,-791 275.537,-767.476 278.16,-743.189 280.425,-718.675"/>
<polygon fill="none" stroke="#404040" points="280.434,-718.577 276.987,-712.243 281.509,-706.625 284.955,-712.959 280.434,-718.577"/>
<text text-anchor="middle" x="298" y="-755.5" font-family="Helvetica,sans-Serif" font-size="10.00"> +mTree</text>
</g>
<!-- Node3 -->
<g id="node2" class="node"><title>Node3</title>
<polygon fill="none" stroke="#bfbfbf" points="0,-1690.5 0,-1747.5 41,-1747.5 41,-1690.5 0,-1690.5"/>
<text text-anchor="middle" x="20.5" y="-1735.5" font-family="Helvetica,sans-Serif" font-size="10.00">string</text>
<polyline fill="none" stroke="#bfbfbf" points="0,-1728.5 41,-1728.5 "/>
<text text-anchor="middle" x="20.5" y="-1716.5" font-family="Helvetica,sans-Serif" font-size="10.00"> </text>
<polyline fill="none" stroke="#bfbfbf" points="0,-1709.5 41,-1709.5 "/>
<text text-anchor="middle" x="20.5" y="-1697.5" font-family="Helvetica,sans-Serif" font-size="10.00"> </text>
</g>
<!-- Node3&#45;&gt;Node2 -->
<g id="edge1" class="edge"><title>Node3&#45;&gt;Node2</title>
<path fill="none" stroke="#404040" d="M21.4811,-1690.36C23.9452,-1637.1 32.2985,-1516.96 59.5,-1420 78.8473,-1351.04 109.378,-1278.1 138.245,-1216.77"/>
<polygon fill="none" stroke="#404040" points="138.282,-1216.69 137.239,-1209.56 143.424,-1205.85 144.467,-1212.99 138.282,-1216.69"/>
<text text-anchor="middle" x="77.5" y="-1529" font-family="Helvetica,sans-Serif" font-size="10.00"> +Name</text>
</g>
<!-- Node3&#45;&gt;Node4 -->
<g id="edge4" class="edge"><title>Node3&#45;&gt;Node4</title>
<path fill="none" stroke="#404040" d="M19.6995,-1690.45C18.3691,-1637.84 16.3287,-1519.46 21.5,-1420 33.8729,-1182.04 130.922,-822.106 134.5,-809 154.838,-734.505 181.312,-654.638 206.854,-582.958"/>
<polygon fill="none" stroke="#404040" points="206.901,-582.825 205.156,-575.829 210.944,-571.527 212.689,-578.524 206.901,-582.825"/>
<text text-anchor="middle" x="44.5" y="-1372" font-family="Helvetica,sans-Serif" font-size="10.00"> +name</text>
</g>
<!-- Node7 -->
<g id="node6" class="node"><title>Node7</title>
<g id="a_node6"><a xlink:href="classTaxaParameters.html" target="_top" xlink:title="{TaxaParameters\n||+ TaxaParameters()\l+ TaxaParameters()\l+ TaxaParameters()\l+ TaxaParameters()\l+ TaxaParameters()\l+ TaxaParameters()\l+ ~TaxaParameters()\l+ ReadFromStream()\l+ WriteToStream()\l+ ReadNexus()\l+ GetSpeciesName()\l+ Member()\l+ RegisterWith()\l+ GetParameters()\l+ GetOutGroup()\l+ SetOutGroup()\l}">
<polygon fill="none" stroke="black" points="104.5,-1420.5 104.5,-1642.5 214.5,-1642.5 214.5,-1420.5 104.5,-1420.5"/>
<text text-anchor="middle" x="159.5" y="-1630.5" font-family="Helvetica,sans-Serif" font-size="10.00">TaxaParameters</text>
<polyline fill="none" stroke="black" points="104.5,-1623.5 214.5,-1623.5 "/>
<text text-anchor="middle" x="159.5" y="-1611.5" font-family="Helvetica,sans-Serif" font-size="10.00"> </text>
<polyline fill="none" stroke="black" points="104.5,-1604.5 214.5,-1604.5 "/>
<text text-anchor="start" x="112.5" y="-1592.5" font-family="Helvetica,sans-Serif" font-size="10.00">+ TaxaParameters()</text>
<text text-anchor="start" x="112.5" y="-1581.5" font-family="Helvetica,sans-Serif" font-size="10.00">+ TaxaParameters()</text>
<text text-anchor="start" x="112.5" y="-1570.5" font-family="Helvetica,sans-Serif" font-size="10.00">+ TaxaParameters()</text>
<text text-anchor="start" x="112.5" y="-1559.5" font-family="Helvetica,sans-Serif" font-size="10.00">+ TaxaParameters()</text>
<text text-anchor="start" x="112.5" y="-1548.5" font-family="Helvetica,sans-Serif" font-size="10.00">+ TaxaParameters()</text>
<text text-anchor="start" x="112.5" y="-1537.5" font-family="Helvetica,sans-Serif" font-size="10.00">+ TaxaParameters()</text>
<text text-anchor="start" x="112.5" y="-1526.5" font-family="Helvetica,sans-Serif" font-size="10.00">+ ~TaxaParameters()</text>
<text text-anchor="start" x="112.5" y="-1515.5" font-family="Helvetica,sans-Serif" font-size="10.00">+ ReadFromStream()</text>
<text text-anchor="start" x="112.5" y="-1504.5" font-family="Helvetica,sans-Serif" font-size="10.00">+ WriteToStream()</text>
<text text-anchor="start" x="112.5" y="-1493.5" font-family="Helvetica,sans-Serif" font-size="10.00">+ ReadNexus()</text>
<text text-anchor="start" x="112.5" y="-1482.5" font-family="Helvetica,sans-Serif" font-size="10.00">+ GetSpeciesName()</text>
<text text-anchor="start" x="112.5" y="-1471.5" font-family="Helvetica,sans-Serif" font-size="10.00">+ Member()</text>
<text text-anchor="start" x="112.5" y="-1460.5" font-family="Helvetica,sans-Serif" font-size="10.00">+ RegisterWith()</text>
<text text-anchor="start" x="112.5" y="-1449.5" font-family="Helvetica,sans-Serif" font-size="10.00">+ GetParameters()</text>
<text text-anchor="start" x="112.5" y="-1438.5" font-family="Helvetica,sans-Serif" font-size="10.00">+ GetOutGroup()</text>
<text text-anchor="start" x="112.5" y="-1427.5" font-family="Helvetica,sans-Serif" font-size="10.00">+ SetOutGroup()</text>
</a>
</g>
</g>
<!-- Node3&#45;&gt;Node7 -->
<g id="edge10" class="edge"><title>Node3&#45;&gt;Node7</title>
<path fill="none" stroke="#404040" d="M41.0099,-1690.63C55.874,-1670.79 76.8209,-1642.84 96.9771,-1615.94"/>
<polygon fill="none" stroke="#404040" points="97.1586,-1615.7 97.5555,-1608.5 104.355,-1606.09 103.958,-1613.29 97.1586,-1615.7"/>
<text text-anchor="middle" x="100.5" y="-1664" font-family="Helvetica,sans-Serif" font-size="10.00"> +SpeciesNames</text>
</g>
<!-- Node4&#45;&gt;Node2 -->
<g id="edge2" class="edge"><title>Node4&#45;&gt;Node2</title>
<path fill="none" stroke="#404040" d="M217.604,-706.724C216.85,-712.855 216.147,-718.951 215.5,-725 212.998,-748.407 211.244,-772.764 210.068,-797.219"/>
<polygon fill="none" stroke="#404040" points="210.068,-797.241 213.798,-803.412 209.537,-809.229 205.806,-803.058 210.068,-797.241"/>
<text text-anchor="middle" x="244" y="-761" font-family="Helvetica,sans-Serif" font-size="10.00"> +mNodeList</text>
<text text-anchor="middle" x="244" y="-750" font-family="Helvetica,sans-Serif" font-size="10.00">+mRoot</text>
</g>
<!-- Node4&#45;&gt;Node4 -->
<g id="edge5" class="edge"><title>Node4&#45;&gt;Node4</title>
<path fill="none" stroke="#404040" d="M378.12,-419.888C388.887,-408.375 396,-386.246 396,-353.5 396,-328.429 391.831,-309.581 385.044,-296.957"/>
<polygon fill="none" stroke="#404040" points="385.024,-296.928 378.3,-294.321 378.12,-287.112 384.844,-289.719 385.024,-296.928"/>
<text text-anchor="middle" x="411" y="-367.5" font-family="Helvetica,sans-Serif" font-size="10.00"> +up</text>
<text text-anchor="middle" x="411" y="-356.5" font-family="Helvetica,sans-Serif" font-size="10.00">+prev</text>
<text text-anchor="middle" x="411" y="-345.5" font-family="Helvetica,sans-Serif" font-size="10.00">+down</text>
<text text-anchor="middle" x="411" y="-334.5" font-family="Helvetica,sans-Serif" font-size="10.00">+next</text>
</g>
<!-- Node5 -->
<g id="node4" class="node"><title>Node5</title>
<polygon fill="none" stroke="#bfbfbf" points="415,-1040.5 415,-1097.5 460,-1097.5 460,-1040.5 415,-1040.5"/>
<text text-anchor="middle" x="437.5" y="-1085.5" font-family="Helvetica,sans-Serif" font-size="10.00">double</text>
<polyline fill="none" stroke="#bfbfbf" points="415,-1078.5 460,-1078.5 "/>
<text text-anchor="middle" x="437.5" y="-1066.5" font-family="Helvetica,sans-Serif" font-size="10.00"> </text>
<polyline fill="none" stroke="#bfbfbf" points="415,-1059.5 460,-1059.5 "/>
<text text-anchor="middle" x="437.5" y="-1047.5" font-family="Helvetica,sans-Serif" font-size="10.00"> </text>
</g>
<!-- Node5&#45;&gt;Node4 -->
<g id="edge3" class="edge"><title>Node5&#45;&gt;Node4</title>
<path fill="none" stroke="#404040" d="M436.117,-1040.19C432.845,-981.493 423.138,-840.799 400.5,-725 394.986,-696.794 388.338,-667.623 381.092,-638.603"/>
<polygon fill="none" stroke="#404040" points="381.004,-638.254 375.656,-633.417 378.064,-626.62 383.412,-631.457 381.004,-638.254"/>
<text text-anchor="middle" x="445" y="-783" font-family="Helvetica,sans-Serif" font-size="10.00"> +mProb</text>
<text text-anchor="middle" x="445" y="-772" font-family="Helvetica,sans-Serif" font-size="10.00">+Y2</text>
<text text-anchor="middle" x="445" y="-761" font-family="Helvetica,sans-Serif" font-size="10.00">+depth</text>
<text text-anchor="middle" x="445" y="-750" font-family="Helvetica,sans-Serif" font-size="10.00">+X</text>
<text text-anchor="middle" x="445" y="-739" font-family="Helvetica,sans-Serif" font-size="10.00">+Y</text>
<text text-anchor="middle" x="445" y="-728" font-family="Helvetica,sans-Serif" font-size="10.00">+branchLength</text>
</g>
<!-- Node6 -->
<g id="node5" class="node"><title>Node6</title>
<polygon fill="none" stroke="#bfbfbf" points="258,-1690.5 258,-1747.5 287,-1747.5 287,-1690.5 258,-1690.5"/>
<text text-anchor="middle" x="272.5" y="-1735.5" font-family="Helvetica,sans-Serif" font-size="10.00">int</text>
<polyline fill="none" stroke="#bfbfbf" points="258,-1728.5 287,-1728.5 "/>
<text text-anchor="middle" x="272.5" y="-1716.5" font-family="Helvetica,sans-Serif" font-size="10.00"> </text>
<polyline fill="none" stroke="#bfbfbf" points="258,-1709.5 287,-1709.5 "/>
<text text-anchor="middle" x="272.5" y="-1697.5" font-family="Helvetica,sans-Serif" font-size="10.00"> </text>
</g>
<!-- Node6&#45;&gt;Node2 -->
<g id="edge8" class="edge"><title>Node6&#45;&gt;Node2</title>
<path fill="none" stroke="#404040" d="M270.008,-1690.16C264.551,-1629.19 251.048,-1478.33 238.726,-1340.67"/>
<polygon fill="none" stroke="#404040" points="238.722,-1340.62 234.203,-1335 237.652,-1328.67 242.171,-1334.29 238.722,-1340.62"/>
<text text-anchor="middle" x="312.5" y="-1551" font-family="Helvetica,sans-Serif" font-size="10.00"> +mLabelOffset</text>
<text text-anchor="middle" x="312.5" y="-1540" font-family="Helvetica,sans-Serif" font-size="10.00">+fromPB</text>
<text text-anchor="middle" x="312.5" y="-1529" font-family="Helvetica,sans-Serif" font-size="10.00">+WithSpeciesNames</text>
<text text-anchor="middle" x="312.5" y="-1518" font-family="Helvetica,sans-Serif" font-size="10.00">+WithBranchLengths</text>
<text text-anchor="middle" x="312.5" y="-1507" font-family="Helvetica,sans-Serif" font-size="10.00">+WithProb</text>
</g>
<!-- Node6&#45;&gt;Node4 -->
<g id="edge6" class="edge"><title>Node6&#45;&gt;Node4</title>
<path fill="none" stroke="#404040" d="M287.285,-1711.09C308.747,-1700.13 347.692,-1676.51 363.5,-1643 405.782,-1553.36 366.562,-1519.06 363.5,-1420 353.94,-1110.67 340.888,-1033.81 320.5,-725 320.361,-722.899 320.222,-720.791 320.082,-718.677"/>
<polygon fill="none" stroke="#404040" points="320.069,-718.479 315.68,-712.758 319.273,-706.506 323.662,-712.227 320.069,-718.479"/>
<text text-anchor="middle" x="384" y="-1394" font-family="Helvetica,sans-Serif" font-size="10.00"> +value</text>
<text text-anchor="middle" x="384" y="-1383" font-family="Helvetica,sans-Serif" font-size="10.00">+label</text>
<text text-anchor="middle" x="384" y="-1372" font-family="Helvetica,sans-Serif" font-size="10.00">+intdepth</text>
<text text-anchor="middle" x="384" y="-1361" font-family="Helvetica,sans-Serif" font-size="10.00">+degree</text>
<text text-anchor="middle" x="384" y="-1350" font-family="Helvetica,sans-Serif" font-size="10.00">+size</text>
</g>
<!-- Node6&#45;&gt;Node7 -->
<g id="edge11" class="edge"><title>Node6&#45;&gt;Node7</title>
<path fill="none" stroke="#404040" d="M257.875,-1707.2C247.024,-1698.6 232.447,-1685.77 222.5,-1672 218.16,-1665.99 214.017,-1659.64 210.081,-1653.08"/>
<polygon fill="none" stroke="#404040" points="210.056,-1653.04 203.595,-1649.84 204.067,-1642.64 210.528,-1645.84 210.056,-1653.04"/>
<text text-anchor="middle" x="240.5" y="-1664" font-family="Helvetica,sans-Serif" font-size="10.00"> +Ntaxa</text>
</g>
<!-- Node7&#45;&gt;Node2 -->
<g id="edge9" class="edge"><title>Node7&#45;&gt;Node2</title>
<path fill="none" stroke="#404040" d="M172.639,-1420.49C175.572,-1395.93 178.809,-1368.83 182.143,-1340.91"/>
<polygon fill="none" stroke="#404040" points="182.155,-1340.82 178.895,-1334.38 183.578,-1328.9 186.838,-1335.33 182.155,-1340.82"/>
<text text-anchor="middle" x="203.5" y="-1372" font-family="Helvetica,sans-Serif" font-size="10.00"> +mParam</text>
</g>
<!-- Node8 -->
<g id="node7" class="node"><title>Node8</title>
<polygon fill="none" stroke="#bfbfbf" points="108,-1690.5 108,-1747.5 197,-1747.5 197,-1690.5 108,-1690.5"/>
<text text-anchor="middle" x="152.5" y="-1735.5" font-family="Helvetica,sans-Serif" font-size="10.00">MCParameters *</text>
<polyline fill="none" stroke="#bfbfbf" points="108,-1728.5 197,-1728.5 "/>
<text text-anchor="middle" x="152.5" y="-1716.5" font-family="Helvetica,sans-Serif" font-size="10.00"> </text>
<polyline fill="none" stroke="#bfbfbf" points="108,-1709.5 197,-1709.5 "/>
<text text-anchor="middle" x="152.5" y="-1697.5" font-family="Helvetica,sans-Serif" font-size="10.00"> </text>
</g>
<!-- Node8&#45;&gt;Node7 -->
<g id="edge12" class="edge"><title>Node8&#45;&gt;Node7</title>
<path fill="none" stroke="#404040" d="M152.822,-1690.45C152.974,-1681.1 153.192,-1670.6 153.5,-1661 153.567,-1658.93 153.636,-1656.84 153.708,-1654.73"/>
<polygon fill="none" stroke="#404040" points="153.715,-1654.54 149.936,-1648.4 154.151,-1642.55 157.93,-1648.69 153.715,-1654.54"/>
<text text-anchor="middle" x="176.5" y="-1664" font-family="Helvetica,sans-Serif" font-size="10.00"> +mParam</text>
</g>
</g>
</svg>
