<?xml version="1.0" encoding="UTF-8" standalone="no"?>
<!DOCTYPE svg PUBLIC "-//W3C//DTD SVG 1.1//EN"
 "http://www.w3.org/Graphics/SVG/1.1/DTD/svg11.dtd">
<!-- Generated by graphviz version 2.38.0 (20140413.2041)
 -->
<!-- Title: DGamRateProcess Pages: 1 -->
<svg width="430pt" height="980pt"
 viewBox="0.00 0.00 430.00 980.00" xmlns="http://www.w3.org/2000/svg" xmlns:xlink="http://www.w3.org/1999/xlink">
<g id="graph0" class="graph" transform="scale(1 1) rotate(0) translate(4 976)">
<title>DGamRateProcess</title>
<!-- Node18 -->
<g id="node1" class="node"><title>Node18</title>
<polygon fill="#bfbfbf" stroke="black" points="177.5,-0.5 177.5,-332.5 362.5,-332.5 362.5,-0.5 177.5,-0.5"/>
<text text-anchor="middle" x="270" y="-320.5" font-family="Helvetica,sans-Serif" font-size="10.00">DGamRateProcess</text>
<polyline fill="none" stroke="black" points="177.5,-313.5 362.5,-313.5 "/>
<text text-anchor="middle" x="270" y="-301.5" font-family="Helvetica,sans-Serif" font-size="10.00"> </text>
<polyline fill="none" stroke="black" points="177.5,-294.5 362.5,-294.5 "/>
<text text-anchor="start" x="185.5" y="-282.5" font-family="Helvetica,sans-Serif" font-size="10.00">+ DGamRateProcess()</text>
<text text-anchor="start" x="185.5" y="-271.5" font-family="Helvetica,sans-Serif" font-size="10.00">+ ~DGamRateProcess()</text>
<text text-anchor="start" x="185.5" y="-260.5" font-family="Helvetica,sans-Serif" font-size="10.00">+ GetAlpha()</text>
<text text-anchor="start" x="185.5" y="-249.5" font-family="Helvetica,sans-Serif" font-size="10.00">+ GetNrate()</text>
<text text-anchor="start" x="185.5" y="-238.5" font-family="Helvetica,sans-Serif" font-size="10.00">+ GetNcat()</text>
<text text-anchor="start" x="185.5" y="-227.5" font-family="Helvetica,sans-Serif" font-size="10.00">+ GetRate()</text>
<text text-anchor="start" x="185.5" y="-216.5" font-family="Helvetica,sans-Serif" font-size="10.00">+ GetRateWeight()</text>
<text text-anchor="start" x="185.5" y="-205.5" font-family="Helvetica,sans-Serif" font-size="10.00">+ ActivateSumOverRateAllocations()</text>
<text text-anchor="start" x="185.5" y="-194.5" font-family="Helvetica,sans-Serif" font-size="10.00">+ InactivateSumOverRateAllocations()</text>
<text text-anchor="start" x="185.5" y="-183.5" font-family="Helvetica,sans-Serif" font-size="10.00">+ GetPriorMeanRate()</text>
<text text-anchor="start" x="185.5" y="-172.5" font-family="Helvetica,sans-Serif" font-size="10.00">+ Move()</text>
<text text-anchor="start" x="185.5" y="-161.5" font-family="Helvetica,sans-Serif" font-size="10.00">+ NonMPIMove()</text>
<text text-anchor="start" x="185.5" y="-150.5" font-family="Helvetica,sans-Serif" font-size="10.00">+ MoveAlpha()</text>
<text text-anchor="start" x="185.5" y="-139.5" font-family="Helvetica,sans-Serif" font-size="10.00">+ NonMPIMoveAlpha()</text>
<text text-anchor="start" x="185.5" y="-128.5" font-family="Helvetica,sans-Serif" font-size="10.00">+ SetAlpha()</text>
<text text-anchor="start" x="185.5" y="-117.5" font-family="Helvetica,sans-Serif" font-size="10.00">+ ToStream()</text>
<text text-anchor="start" x="185.5" y="-106.5" font-family="Helvetica,sans-Serif" font-size="10.00">+ FromStream()</text>
<text text-anchor="start" x="185.5" y="-95.5" font-family="Helvetica,sans-Serif" font-size="10.00"># Create()</text>
<text text-anchor="start" x="185.5" y="-84.5" font-family="Helvetica,sans-Serif" font-size="10.00"># Delete()</text>
<text text-anchor="start" x="185.5" y="-73.5" font-family="Helvetica,sans-Serif" font-size="10.00"># SampleRate()</text>
<text text-anchor="start" x="185.5" y="-62.5" font-family="Helvetica,sans-Serif" font-size="10.00"># LogRatePrior()</text>
<text text-anchor="start" x="185.5" y="-51.5" font-family="Helvetica,sans-Serif" font-size="10.00"># GlobalUpdateRateSuffStat()</text>
<text text-anchor="start" x="185.5" y="-40.5" font-family="Helvetica,sans-Serif" font-size="10.00"># SlaveUpdateRateSuffStat()</text>
<text text-anchor="start" x="185.5" y="-29.5" font-family="Helvetica,sans-Serif" font-size="10.00"># UpdateRateSuffStat()</text>
<text text-anchor="start" x="185.5" y="-18.5" font-family="Helvetica,sans-Serif" font-size="10.00"># RateSuffStatLogProb()</text>
<text text-anchor="start" x="185.5" y="-7.5" font-family="Helvetica,sans-Serif" font-size="10.00"># UpdateDiscreteCategories()</text>
</g>
<!-- Node19 -->
<g id="node2" class="node"><title>Node19</title>
<g id="a_node2"><a xlink:href="classRateProcess.html" target="_top" xlink:title="{RateProcess\n||+ RateProcess()\l+ ~RateProcess()\l+ GetVersion()\l+ GetNsite()\l+ GetNrate()\l+ GetRate()\l+ GetRateWeight()\l+ GetMeanRate()\l+ GetPriorMeanRate()\l+ GetAlpha()\l+ ActivateSumOverRateAllocations()\l+ InactivateSumOverRateAllocations()\l+ SumOverRateAllocations()\l+ LogRatePrior()\l+ SampleRate()\l+ ToStream()\l+ FromStream()\l# GlobalUpdateSiteRateSuffStat()\l# SlaveUpdateSiteRateSuffStat()\l# UpdateSiteRateSuffStat()\l# GetSiteRateSuffStatBeta()\l# GetSiteRateSuffStatCount()\l# Create()\l# Delete()\l# GetNprocs()\l# GetMyid()\l# GetSiteMin()\l# GetSiteMax()\l}">
<polygon fill="none" stroke="black" points="48.5,-402.5 48.5,-756.5 233.5,-756.5 233.5,-402.5 48.5,-402.5"/>
<text text-anchor="middle" x="141" y="-744.5" font-family="Helvetica,sans-Serif" font-size="10.00">RateProcess</text>
<polyline fill="none" stroke="black" points="48.5,-737.5 233.5,-737.5 "/>
<text text-anchor="middle" x="141" y="-725.5" font-family="Helvetica,sans-Serif" font-size="10.00"> </text>
<polyline fill="none" stroke="black" points="48.5,-718.5 233.5,-718.5 "/>
<text text-anchor="start" x="56.5" y="-706.5" font-family="Helvetica,sans-Serif" font-size="10.00">+ RateProcess()</text>
<text text-anchor="start" x="56.5" y="-695.5" font-family="Helvetica,sans-Serif" font-size="10.00">+ ~RateProcess()</text>
<text text-anchor="start" x="56.5" y="-684.5" font-family="Helvetica,sans-Serif" font-size="10.00">+ GetVersion()</text>
<text text-anchor="start" x="56.5" y="-673.5" font-family="Helvetica,sans-Serif" font-size="10.00">+ GetNsite()</text>
<text text-anchor="start" x="56.5" y="-662.5" font-family="Helvetica,sans-Serif" font-size="10.00">+ GetNrate()</text>
<text text-anchor="start" x="56.5" y="-651.5" font-family="Helvetica,sans-Serif" font-size="10.00">+ GetRate()</text>
<text text-anchor="start" x="56.5" y="-640.5" font-family="Helvetica,sans-Serif" font-size="10.00">+ GetRateWeight()</text>
<text text-anchor="start" x="56.5" y="-629.5" font-family="Helvetica,sans-Serif" font-size="10.00">+ GetMeanRate()</text>
<text text-anchor="start" x="56.5" y="-618.5" font-family="Helvetica,sans-Serif" font-size="10.00">+ GetPriorMeanRate()</text>
<text text-anchor="start" x="56.5" y="-607.5" font-family="Helvetica,sans-Serif" font-size="10.00">+ GetAlpha()</text>
<text text-anchor="start" x="56.5" y="-596.5" font-family="Helvetica,sans-Serif" font-size="10.00">+ ActivateSumOverRateAllocations()</text>
<text text-anchor="start" x="56.5" y="-585.5" font-family="Helvetica,sans-Serif" font-size="10.00">+ InactivateSumOverRateAllocations()</text>
<text text-anchor="start" x="56.5" y="-574.5" font-family="Helvetica,sans-Serif" font-size="10.00">+ SumOverRateAllocations()</text>
<text text-anchor="start" x="56.5" y="-563.5" font-family="Helvetica,sans-Serif" font-size="10.00">+ LogRatePrior()</text>
<text text-anchor="start" x="56.5" y="-552.5" font-family="Helvetica,sans-Serif" font-size="10.00">+ SampleRate()</text>
<text text-anchor="start" x="56.5" y="-541.5" font-family="Helvetica,sans-Serif" font-size="10.00">+ ToStream()</text>
<text text-anchor="start" x="56.5" y="-530.5" font-family="Helvetica,sans-Serif" font-size="10.00">+ FromStream()</text>
<text text-anchor="start" x="56.5" y="-519.5" font-family="Helvetica,sans-Serif" font-size="10.00"># GlobalUpdateSiteRateSuffStat()</text>
<text text-anchor="start" x="56.5" y="-508.5" font-family="Helvetica,sans-Serif" font-size="10.00"># SlaveUpdateSiteRateSuffStat()</text>
<text text-anchor="start" x="56.5" y="-497.5" font-family="Helvetica,sans-Serif" font-size="10.00"># UpdateSiteRateSuffStat()</text>
<text text-anchor="start" x="56.5" y="-486.5" font-family="Helvetica,sans-Serif" font-size="10.00"># GetSiteRateSuffStatBeta()</text>
<text text-anchor="start" x="56.5" y="-475.5" font-family="Helvetica,sans-Serif" font-size="10.00"># GetSiteRateSuffStatCount()</text>
<text text-anchor="start" x="56.5" y="-464.5" font-family="Helvetica,sans-Serif" font-size="10.00"># Create()</text>
<text text-anchor="start" x="56.5" y="-453.5" font-family="Helvetica,sans-Serif" font-size="10.00"># Delete()</text>
<text text-anchor="start" x="56.5" y="-442.5" font-family="Helvetica,sans-Serif" font-size="10.00"># GetNprocs()</text>
<text text-anchor="start" x="56.5" y="-431.5" font-family="Helvetica,sans-Serif" font-size="10.00"># GetMyid()</text>
<text text-anchor="start" x="56.5" y="-420.5" font-family="Helvetica,sans-Serif" font-size="10.00"># GetSiteMin()</text>
<text text-anchor="start" x="56.5" y="-409.5" font-family="Helvetica,sans-Serif" font-size="10.00"># GetSiteMax()</text>
</a>
</g>
</g>
<!-- Node19&#45;&gt;Node18 -->
<g id="edge1" class="edge"><title>Node19&#45;&gt;Node18</title>
<path fill="none" stroke="midnightblue" d="M199.335,-392.641C205.597,-372.692 211.936,-352.493 218.115,-332.807"/>
<polygon fill="none" stroke="midnightblue" points="195.924,-391.821 196.269,-402.41 202.603,-393.917 195.924,-391.821"/>
</g>
<!-- Node20 -->
<g id="node3" class="node"><title>Node20</title>
<g id="a_node3"><a xlink:href="classChrono.html" target="_top" xlink:title="{Chrono\n||+ Chrono()\l+ ~Chrono()\l+ Reset()\l+ Start()\l+ Stop()\l+ ToStream()\l+ FromStream()\l+ operator++()\l+ GetTime()\l+ GetTimePerCount()\l+ GetCount()\l}">
<polygon fill="none" stroke="black" points="0,-804.5 0,-971.5 110,-971.5 110,-804.5 0,-804.5"/>
<text text-anchor="middle" x="55" y="-959.5" font-family="Helvetica,sans-Serif" font-size="10.00">Chrono</text>
<polyline fill="none" stroke="black" points="0,-952.5 110,-952.5 "/>
<text text-anchor="middle" x="55" y="-940.5" font-family="Helvetica,sans-Serif" font-size="10.00"> </text>
<polyline fill="none" stroke="black" points="0,-933.5 110,-933.5 "/>
<text text-anchor="start" x="8" y="-921.5" font-family="Helvetica,sans-Serif" font-size="10.00">+ Chrono()</text>
<text text-anchor="start" x="8" y="-910.5" font-family="Helvetica,sans-Serif" font-size="10.00">+ ~Chrono()</text>
<text text-anchor="start" x="8" y="-899.5" font-family="Helvetica,sans-Serif" font-size="10.00">+ Reset()</text>
<text text-anchor="start" x="8" y="-888.5" font-family="Helvetica,sans-Serif" font-size="10.00">+ Start()</text>
<text text-anchor="start" x="8" y="-877.5" font-family="Helvetica,sans-Serif" font-size="10.00">+ Stop()</text>
<text text-anchor="start" x="8" y="-866.5" font-family="Helvetica,sans-Serif" font-size="10.00">+ ToStream()</text>
<text text-anchor="start" x="8" y="-855.5" font-family="Helvetica,sans-Serif" font-size="10.00">+ FromStream()</text>
<text text-anchor="start" x="8" y="-844.5" font-family="Helvetica,sans-Serif" font-size="10.00">+ operator++()</text>
<text text-anchor="start" x="8" y="-833.5" font-family="Helvetica,sans-Serif" font-size="10.00">+ GetTime()</text>
<text text-anchor="start" x="8" y="-822.5" font-family="Helvetica,sans-Serif" font-size="10.00">+ GetTimePerCount()</text>
<text text-anchor="start" x="8" y="-811.5" font-family="Helvetica,sans-Serif" font-size="10.00">+ GetCount()</text>
</a>
</g>
</g>
<!-- Node20&#45;&gt;Node19 -->
<g id="edge2" class="edge"><title>Node20&#45;&gt;Node19</title>
<path fill="none" stroke="#404040" d="M77.803,-804.413C80.5567,-794.5 83.3364,-784.52 86,-775 86.6031,-772.844 87.2103,-770.675 87.821,-768.495"/>
<polygon fill="none" stroke="#404040" points="87.8777,-768.293 85.646,-761.436 91.1173,-756.738 93.349,-763.595 87.8777,-768.293"/>
<text text-anchor="middle" x="113.5" y="-778" font-family="Helvetica,sans-Serif" font-size="10.00"> #chronorate</text>
</g>
<!-- Node21 -->
<g id="node4" class="node"><title>Node21</title>
<polygon fill="none" stroke="#bfbfbf" points="230.5,-859.5 230.5,-916.5 259.5,-916.5 259.5,-859.5 230.5,-859.5"/>
<text text-anchor="middle" x="245" y="-904.5" font-family="Helvetica,sans-Serif" font-size="10.00">int</text>
<polyline fill="none" stroke="#bfbfbf" points="230.5,-897.5 259.5,-897.5 "/>
<text text-anchor="middle" x="245" y="-885.5" font-family="Helvetica,sans-Serif" font-size="10.00"> </text>
<polyline fill="none" stroke="#bfbfbf" points="230.5,-878.5 259.5,-878.5 "/>
<text text-anchor="middle" x="245" y="-866.5" font-family="Helvetica,sans-Serif" font-size="10.00"> </text>
</g>
<!-- Node21&#45;&gt;Node18 -->
<g id="edge6" class="edge"><title>Node21&#45;&gt;Node18</title>
<path fill="none" stroke="#404040" d="M245.965,-859.236C248.871,-775.588 257.719,-520.949 263.828,-345.133"/>
<polygon fill="none" stroke="#404040" points="263.837,-344.87 260.048,-338.735 264.254,-332.877 268.043,-339.013 263.837,-344.87"/>
<text text-anchor="middle" x="301.5" y="-588" font-family="Helvetica,sans-Serif" font-size="10.00"> #Ncat</text>
<text text-anchor="middle" x="301.5" y="-577" font-family="Helvetica,sans-Serif" font-size="10.00">#ratesuffstatcount</text>
<text text-anchor="middle" x="301.5" y="-566" font-family="Helvetica,sans-Serif" font-size="10.00">#alloc</text>
</g>
<!-- Node21&#45;&gt;Node19 -->
<g id="edge3" class="edge"><title>Node21&#45;&gt;Node19</title>
<path fill="none" stroke="#404040" d="M235.587,-859.26C228.098,-837.187 216.895,-804.17 204.792,-768.502"/>
<polygon fill="none" stroke="#404040" points="204.69,-768.203 198.975,-763.806 200.835,-756.839 206.55,-761.236 204.69,-768.203"/>
<text text-anchor="middle" x="224" y="-778" font-family="Helvetica,sans-Serif" font-size="10.00"> #nsite</text>
</g>
<!-- Node22 -->
<g id="node5" class="node"><title>Node22</title>
<polygon fill="none" stroke="#bfbfbf" points="128.5,-859.5 128.5,-916.5 163.5,-916.5 163.5,-859.5 128.5,-859.5"/>
<text text-anchor="middle" x="146" y="-904.5" font-family="Helvetica,sans-Serif" font-size="10.00">bool</text>
<polyline fill="none" stroke="#bfbfbf" points="128.5,-897.5 163.5,-897.5 "/>
<text text-anchor="middle" x="146" y="-885.5" font-family="Helvetica,sans-Serif" font-size="10.00"> </text>
<polyline fill="none" stroke="#bfbfbf" points="128.5,-878.5 163.5,-878.5 "/>
<text text-anchor="middle" x="146" y="-866.5" font-family="Helvetica,sans-Serif" font-size="10.00"> </text>
</g>
<!-- Node22&#45;&gt;Node19 -->
<g id="edge4" class="edge"><title>Node22&#45;&gt;Node19</title>
<path fill="none" stroke="#404040" d="M145.547,-859.26C145.189,-837.282 144.653,-804.456 144.074,-768.966"/>
<polygon fill="none" stroke="#404040" points="144.072,-768.838 139.975,-762.904 143.877,-756.839 147.974,-762.773 144.072,-768.838"/>
<text text-anchor="middle" x="166.5" y="-778" font-family="Helvetica,sans-Serif" font-size="10.00"> #sumflag</text>
</g>
<!-- Node23 -->
<g id="node6" class="node"><title>Node23</title>
<polygon fill="none" stroke="#bfbfbf" points="367.5,-551 367.5,-608 412.5,-608 412.5,-551 367.5,-551"/>
<text text-anchor="middle" x="390" y="-596" font-family="Helvetica,sans-Serif" font-size="10.00">double</text>
<polyline fill="none" stroke="#bfbfbf" points="367.5,-589 412.5,-589 "/>
<text text-anchor="middle" x="390" y="-577" font-family="Helvetica,sans-Serif" font-size="10.00"> </text>
<polyline fill="none" stroke="#bfbfbf" points="367.5,-570 412.5,-570 "/>
<text text-anchor="middle" x="390" y="-558" font-family="Helvetica,sans-Serif" font-size="10.00"> </text>
</g>
<!-- Node23&#45;&gt;Node18 -->
<g id="edge5" class="edge"><title>Node23&#45;&gt;Node18</title>
<path fill="none" stroke="#404040" d="M385.36,-550.709C379.245,-515.702 367.541,-453.85 353,-402 347.687,-383.056 341.637,-363.427 335.28,-343.958"/>
<polygon fill="none" stroke="#404040" points="335.265,-343.915 329.586,-339.471 331.504,-332.52 337.183,-336.964 335.265,-343.915"/>
<text text-anchor="middle" x="385" y="-376" font-family="Helvetica,sans-Serif" font-size="10.00"> #rate</text>
<text text-anchor="middle" x="385" y="-365" font-family="Helvetica,sans-Serif" font-size="10.00">#ratesuffstatbeta</text>
<text text-anchor="middle" x="385" y="-354" font-family="Helvetica,sans-Serif" font-size="10.00">#alpha</text>
</g>
</g>
</svg>
