<?xml version="1.0" encoding="UTF-8" standalone="no"?>
<!DOCTYPE svg PUBLIC "-//W3C//DTD SVG 1.1//EN"
 "http://www.w3.org/Graphics/SVG/1.1/DTD/svg11.dtd">
<!-- Generated by graphviz version 2.38.0 (20140413.2041)
 -->
<!-- Title: SubstitutionProcess Pages: 1 -->
<svg width="652pt" height="1168pt"
 viewBox="0.00 0.00 652.39 1168.00" xmlns="http://www.w3.org/2000/svg" xmlns:xlink="http://www.w3.org/1999/xlink">
<g id="graph0" class="graph" transform="scale(1 1) rotate(0) translate(4 1164)">
<title>SubstitutionProcess</title>
<!-- Node45 -->
<g id="node1" class="node"><title>Node45</title>
<polygon fill="#bfbfbf" stroke="black" points="275.895,-0.5 275.895,-442.5 426.895,-442.5 426.895,-0.5 275.895,-0.5"/>
<text text-anchor="middle" x="351.395" y="-430.5" font-family="Helvetica,sans-Serif" font-size="10.00">SubstitutionProcess</text>
<polyline fill="none" stroke="black" points="275.895,-423.5 426.895,-423.5 "/>
<text text-anchor="middle" x="351.395" y="-411.5" font-family="Helvetica,sans-Serif" font-size="10.00"> </text>
<polyline fill="none" stroke="black" points="275.895,-404.5 426.895,-404.5 "/>
<text text-anchor="start" x="283.895" y="-392.5" font-family="Helvetica,sans-Serif" font-size="10.00">+ SubstitutionProcess()</text>
<text text-anchor="start" x="283.895" y="-381.5" font-family="Helvetica,sans-Serif" font-size="10.00">+ ~SubstitutionProcess()</text>
<text text-anchor="start" x="283.895" y="-370.5" font-family="Helvetica,sans-Serif" font-size="10.00">+ GetNsite()</text>
<text text-anchor="start" x="283.895" y="-359.5" font-family="Helvetica,sans-Serif" font-size="10.00">+ GetDim()</text>
<text text-anchor="start" x="283.895" y="-348.5" font-family="Helvetica,sans-Serif" font-size="10.00">+ GetNstate()</text>
<text text-anchor="start" x="283.895" y="-337.5" font-family="Helvetica,sans-Serif" font-size="10.00">+ GetGlobalNstate()</text>
<text text-anchor="start" x="283.895" y="-326.5" font-family="Helvetica,sans-Serif" font-size="10.00">+ GetStationary()</text>
<text text-anchor="start" x="283.895" y="-315.5" font-family="Helvetica,sans-Serif" font-size="10.00">+ GetSiteMin()</text>
<text text-anchor="start" x="283.895" y="-304.5" font-family="Helvetica,sans-Serif" font-size="10.00">+ GetSiteMax()</text>
<text text-anchor="start" x="283.895" y="-293.5" font-family="Helvetica,sans-Serif" font-size="10.00">+ GetInfProbCount()</text>
<text text-anchor="start" x="283.895" y="-282.5" font-family="Helvetica,sans-Serif" font-size="10.00"># Create()</text>
<text text-anchor="start" x="283.895" y="-271.5" font-family="Helvetica,sans-Serif" font-size="10.00"># Delete()</text>
<text text-anchor="start" x="283.895" y="-260.5" font-family="Helvetica,sans-Serif" font-size="10.00"># CreateConditionalLikelihood</text>
<text text-anchor="start" x="283.895" y="-249.5" font-family="Helvetica,sans-Serif" font-size="10.00">Vector()</text>
<text text-anchor="start" x="283.895" y="-238.5" font-family="Helvetica,sans-Serif" font-size="10.00"># DeleteConditionalLikelihood</text>
<text text-anchor="start" x="283.895" y="-227.5" font-family="Helvetica,sans-Serif" font-size="10.00">Vector()</text>
<text text-anchor="start" x="283.895" y="-216.5" font-family="Helvetica,sans-Serif" font-size="10.00"># CreateProbVector()</text>
<text text-anchor="start" x="283.895" y="-205.5" font-family="Helvetica,sans-Serif" font-size="10.00"># CreateCondSiteLogL()</text>
<text text-anchor="start" x="283.895" y="-194.5" font-family="Helvetica,sans-Serif" font-size="10.00"># DeleteCondSiteLogL()</text>
<text text-anchor="start" x="283.895" y="-183.5" font-family="Helvetica,sans-Serif" font-size="10.00"># DrawAllocations()</text>
<text text-anchor="start" x="283.895" y="-172.5" font-family="Helvetica,sans-Serif" font-size="10.00"># DrawAllocationsFromPrior()</text>
<text text-anchor="start" x="283.895" y="-161.5" font-family="Helvetica,sans-Serif" font-size="10.00"># Reset()</text>
<text text-anchor="start" x="283.895" y="-150.5" font-family="Helvetica,sans-Serif" font-size="10.00"># Multiply()</text>
<text text-anchor="start" x="283.895" y="-139.5" font-family="Helvetica,sans-Serif" font-size="10.00"># MultiplyByStationaries()</text>
<text text-anchor="start" x="283.895" y="-128.5" font-family="Helvetica,sans-Serif" font-size="10.00"># Offset()</text>
<text text-anchor="start" x="283.895" y="-117.5" font-family="Helvetica,sans-Serif" font-size="10.00"># Initialize()</text>
<text text-anchor="start" x="283.895" y="-106.5" font-family="Helvetica,sans-Serif" font-size="10.00"># ComputeLikelihood()</text>
<text text-anchor="start" x="283.895" y="-95.5" font-family="Helvetica,sans-Serif" font-size="10.00"># ConditionalLikelihoodsTo</text>
<text text-anchor="start" x="283.895" y="-84.5" font-family="Helvetica,sans-Serif" font-size="10.00">StatePostProbs()</text>
<text text-anchor="start" x="283.895" y="-73.5" font-family="Helvetica,sans-Serif" font-size="10.00"># Propagate()</text>
<text text-anchor="start" x="283.895" y="-62.5" font-family="Helvetica,sans-Serif" font-size="10.00"># SimuPropagate()</text>
<text text-anchor="start" x="283.895" y="-51.5" font-family="Helvetica,sans-Serif" font-size="10.00"># ChooseStates()</text>
<text text-anchor="start" x="283.895" y="-40.5" font-family="Helvetica,sans-Serif" font-size="10.00"># ChooseStatesAtEquilibrium()</text>
<text text-anchor="start" x="283.895" y="-29.5" font-family="Helvetica,sans-Serif" font-size="10.00"># SetCondToStates()</text>
<text text-anchor="start" x="283.895" y="-18.5" font-family="Helvetica,sans-Serif" font-size="10.00"># SamplePaths()</text>
<text text-anchor="start" x="283.895" y="-7.5" font-family="Helvetica,sans-Serif" font-size="10.00"># SampleRootPaths()</text>
</g>
<!-- Node46 -->
<g id="node2" class="node"><title>Node46</title>
<g id="a_node2"><a xlink:href="classRateProcess.html" target="_top" xlink:title="{RateProcess\n||+ RateProcess()\l+ ~RateProcess()\l+ GetVersion()\l+ GetNsite()\l+ GetNrate()\l+ GetRate()\l+ GetRateWeight()\l+ GetMeanRate()\l+ GetPriorMeanRate()\l+ GetAlpha()\l+ ActivateSumOverRateAllocations()\l+ InactivateSumOverRateAllocations()\l+ SumOverRateAllocations()\l+ LogRatePrior()\l+ SampleRate()\l+ ToStream()\l+ FromStream()\l# GlobalUpdateSiteRateSuffStat()\l# SlaveUpdateSiteRateSuffStat()\l# UpdateSiteRateSuffStat()\l# GetSiteRateSuffStatBeta()\l# GetSiteRateSuffStatCount()\l# Create()\l# Delete()\l# GetNprocs()\l# GetMyid()\l# GetSiteMin()\l# GetSiteMax()\l}">
<polygon fill="none" stroke="black" points="135.895,-519 135.895,-873 320.895,-873 320.895,-519 135.895,-519"/>
<text text-anchor="middle" x="228.395" y="-861" font-family="Helvetica,sans-Serif" font-size="10.00">RateProcess</text>
<polyline fill="none" stroke="black" points="135.895,-854 320.895,-854 "/>
<text text-anchor="middle" x="228.395" y="-842" font-family="Helvetica,sans-Serif" font-size="10.00"> </text>
<polyline fill="none" stroke="black" points="135.895,-835 320.895,-835 "/>
<text text-anchor="start" x="143.895" y="-823" font-family="Helvetica,sans-Serif" font-size="10.00">+ RateProcess()</text>
<text text-anchor="start" x="143.895" y="-812" font-family="Helvetica,sans-Serif" font-size="10.00">+ ~RateProcess()</text>
<text text-anchor="start" x="143.895" y="-801" font-family="Helvetica,sans-Serif" font-size="10.00">+ GetVersion()</text>
<text text-anchor="start" x="143.895" y="-790" font-family="Helvetica,sans-Serif" font-size="10.00">+ GetNsite()</text>
<text text-anchor="start" x="143.895" y="-779" font-family="Helvetica,sans-Serif" font-size="10.00">+ GetNrate()</text>
<text text-anchor="start" x="143.895" y="-768" font-family="Helvetica,sans-Serif" font-size="10.00">+ GetRate()</text>
<text text-anchor="start" x="143.895" y="-757" font-family="Helvetica,sans-Serif" font-size="10.00">+ GetRateWeight()</text>
<text text-anchor="start" x="143.895" y="-746" font-family="Helvetica,sans-Serif" font-size="10.00">+ GetMeanRate()</text>
<text text-anchor="start" x="143.895" y="-735" font-family="Helvetica,sans-Serif" font-size="10.00">+ GetPriorMeanRate()</text>
<text text-anchor="start" x="143.895" y="-724" font-family="Helvetica,sans-Serif" font-size="10.00">+ GetAlpha()</text>
<text text-anchor="start" x="143.895" y="-713" font-family="Helvetica,sans-Serif" font-size="10.00">+ ActivateSumOverRateAllocations()</text>
<text text-anchor="start" x="143.895" y="-702" font-family="Helvetica,sans-Serif" font-size="10.00">+ InactivateSumOverRateAllocations()</text>
<text text-anchor="start" x="143.895" y="-691" font-family="Helvetica,sans-Serif" font-size="10.00">+ SumOverRateAllocations()</text>
<text text-anchor="start" x="143.895" y="-680" font-family="Helvetica,sans-Serif" font-size="10.00">+ LogRatePrior()</text>
<text text-anchor="start" x="143.895" y="-669" font-family="Helvetica,sans-Serif" font-size="10.00">+ SampleRate()</text>
<text text-anchor="start" x="143.895" y="-658" font-family="Helvetica,sans-Serif" font-size="10.00">+ ToStream()</text>
<text text-anchor="start" x="143.895" y="-647" font-family="Helvetica,sans-Serif" font-size="10.00">+ FromStream()</text>
<text text-anchor="start" x="143.895" y="-636" font-family="Helvetica,sans-Serif" font-size="10.00"># GlobalUpdateSiteRateSuffStat()</text>
<text text-anchor="start" x="143.895" y="-625" font-family="Helvetica,sans-Serif" font-size="10.00"># SlaveUpdateSiteRateSuffStat()</text>
<text text-anchor="start" x="143.895" y="-614" font-family="Helvetica,sans-Serif" font-size="10.00"># UpdateSiteRateSuffStat()</text>
<text text-anchor="start" x="143.895" y="-603" font-family="Helvetica,sans-Serif" font-size="10.00"># GetSiteRateSuffStatBeta()</text>
<text text-anchor="start" x="143.895" y="-592" font-family="Helvetica,sans-Serif" font-size="10.00"># GetSiteRateSuffStatCount()</text>
<text text-anchor="start" x="143.895" y="-581" font-family="Helvetica,sans-Serif" font-size="10.00"># Create()</text>
<text text-anchor="start" x="143.895" y="-570" font-family="Helvetica,sans-Serif" font-size="10.00"># Delete()</text>
<text text-anchor="start" x="143.895" y="-559" font-family="Helvetica,sans-Serif" font-size="10.00"># GetNprocs()</text>
<text text-anchor="start" x="143.895" y="-548" font-family="Helvetica,sans-Serif" font-size="10.00"># GetMyid()</text>
<text text-anchor="start" x="143.895" y="-537" font-family="Helvetica,sans-Serif" font-size="10.00"># GetSiteMin()</text>
<text text-anchor="start" x="143.895" y="-526" font-family="Helvetica,sans-Serif" font-size="10.00"># GetSiteMax()</text>
</a>
</g>
</g>
<!-- Node46&#45;&gt;Node45 -->
<g id="edge1" class="edge"><title>Node46&#45;&gt;Node45</title>
<path fill="none" stroke="midnightblue" d="M276.866,-508.801C282.512,-487.111 288.312,-464.831 294.063,-442.738"/>
<polygon fill="none" stroke="midnightblue" points="273.415,-508.163 274.283,-518.723 280.189,-509.927 273.415,-508.163"/>
</g>
<!-- Node47 -->
<g id="node3" class="node"><title>Node47</title>
<g id="a_node3"><a xlink:href="classChrono.html" target="_top" xlink:title="{Chrono\n||+ Chrono()\l+ ~Chrono()\l+ Reset()\l+ Start()\l+ Stop()\l+ ToStream()\l+ FromStream()\l+ operator++()\l+ GetTime()\l+ GetTimePerCount()\l+ GetCount()\l}">
<polygon fill="none" stroke="black" points="191.395,-992.5 191.395,-1159.5 301.395,-1159.5 301.395,-992.5 191.395,-992.5"/>
<text text-anchor="middle" x="246.395" y="-1147.5" font-family="Helvetica,sans-Serif" font-size="10.00">Chrono</text>
<polyline fill="none" stroke="black" points="191.395,-1140.5 301.395,-1140.5 "/>
<text text-anchor="middle" x="246.395" y="-1128.5" font-family="Helvetica,sans-Serif" font-size="10.00"> </text>
<polyline fill="none" stroke="black" points="191.395,-1121.5 301.395,-1121.5 "/>
<text text-anchor="start" x="199.395" y="-1109.5" font-family="Helvetica,sans-Serif" font-size="10.00">+ Chrono()</text>
<text text-anchor="start" x="199.395" y="-1098.5" font-family="Helvetica,sans-Serif" font-size="10.00">+ ~Chrono()</text>
<text text-anchor="start" x="199.395" y="-1087.5" font-family="Helvetica,sans-Serif" font-size="10.00">+ Reset()</text>
<text text-anchor="start" x="199.395" y="-1076.5" font-family="Helvetica,sans-Serif" font-size="10.00">+ Start()</text>
<text text-anchor="start" x="199.395" y="-1065.5" font-family="Helvetica,sans-Serif" font-size="10.00">+ Stop()</text>
<text text-anchor="start" x="199.395" y="-1054.5" font-family="Helvetica,sans-Serif" font-size="10.00">+ ToStream()</text>
<text text-anchor="start" x="199.395" y="-1043.5" font-family="Helvetica,sans-Serif" font-size="10.00">+ FromStream()</text>
<text text-anchor="start" x="199.395" y="-1032.5" font-family="Helvetica,sans-Serif" font-size="10.00">+ operator++()</text>
<text text-anchor="start" x="199.395" y="-1021.5" font-family="Helvetica,sans-Serif" font-size="10.00">+ GetTime()</text>
<text text-anchor="start" x="199.395" y="-1010.5" font-family="Helvetica,sans-Serif" font-size="10.00">+ GetTimePerCount()</text>
<text text-anchor="start" x="199.395" y="-999.5" font-family="Helvetica,sans-Serif" font-size="10.00">+ GetCount()</text>
</a>
</g>
</g>
<!-- Node47&#45;&gt;Node46 -->
<g id="edge2" class="edge"><title>Node47&#45;&gt;Node46</title>
<path fill="none" stroke="#404040" d="M191.136,-1045.15C165.479,-1028.04 137.567,-1003.98 123.395,-974 114.729,-955.671 121.361,-922.358 134.689,-885.028"/>
<polygon fill="none" stroke="#404040" points="134.856,-884.577 133.193,-877.56 139.031,-873.326 140.694,-880.343 134.856,-884.577"/>
<text text-anchor="middle" x="150.895" y="-949.5" font-family="Helvetica,sans-Serif" font-size="10.00"> #chronorate</text>
</g>
<!-- Node50 -->
<g id="node6" class="node"><title>Node50</title>
<g id="a_node6"><a xlink:href="classProfileProcess.html" target="_top" xlink:title="{ProfileProcess\n||+ ProfileProcess()\l+ ~ProfileProcess()\l+ GetVersion()\l+ GetStatInfCount()\l+ GetDim()\l+ GetNsite()\l+ GetProfile()\l+ GetStateSpace()\l+ LogProfilePrior()\l+ SampleProfile()\l+ GetMeanStationaryEntropy()\l+ GetSiteStationaryEntropy()\l+ UpdateSiteProfileSuffStat()\l+ GlobalUpdateSiteProfileSuffStat()\l+ SlaveUpdateSiteProfileSuffStat()\l+ GlobalUpdateParameters()\l+ SlaveUpdateParameters()\l+ ProfileSuffStatLogProb()\l+ ToStream()\l+ FromStream()\l+ SetBurnin()\l+ isObserved()\l+ GetMinStat()\l+ GetMinMinStat()\l# DrawProfileFromPrior()\l# GetNormalizationFactor()\l# Create()\l# Delete()\l# GetNprocs()\l# GetMyid()\l# GetSiteMin()\l# GetSiteMax()\l# GetEmpiricalFreq()\l# GetMinTotWeight()\l# SetMinTotWeight()\l}">
<polygon fill="none" stroke="black" points="339.395,-480.5 339.395,-911.5 511.395,-911.5 511.395,-480.5 339.395,-480.5"/>
<text text-anchor="middle" x="425.395" y="-899.5" font-family="Helvetica,sans-Serif" font-size="10.00">ProfileProcess</text>
<polyline fill="none" stroke="black" points="339.395,-892.5 511.395,-892.5 "/>
<text text-anchor="middle" x="425.395" y="-880.5" font-family="Helvetica,sans-Serif" font-size="10.00"> </text>
<polyline fill="none" stroke="black" points="339.395,-873.5 511.395,-873.5 "/>
<text text-anchor="start" x="347.395" y="-861.5" font-family="Helvetica,sans-Serif" font-size="10.00">+ ProfileProcess()</text>
<text text-anchor="start" x="347.395" y="-850.5" font-family="Helvetica,sans-Serif" font-size="10.00">+ ~ProfileProcess()</text>
<text text-anchor="start" x="347.395" y="-839.5" font-family="Helvetica,sans-Serif" font-size="10.00">+ GetVersion()</text>
<text text-anchor="start" x="347.395" y="-828.5" font-family="Helvetica,sans-Serif" font-size="10.00">+ GetStatInfCount()</text>
<text text-anchor="start" x="347.395" y="-817.5" font-family="Helvetica,sans-Serif" font-size="10.00">+ GetDim()</text>
<text text-anchor="start" x="347.395" y="-806.5" font-family="Helvetica,sans-Serif" font-size="10.00">+ GetNsite()</text>
<text text-anchor="start" x="347.395" y="-795.5" font-family="Helvetica,sans-Serif" font-size="10.00">+ GetProfile()</text>
<text text-anchor="start" x="347.395" y="-784.5" font-family="Helvetica,sans-Serif" font-size="10.00">+ GetStateSpace()</text>
<text text-anchor="start" x="347.395" y="-773.5" font-family="Helvetica,sans-Serif" font-size="10.00">+ LogProfilePrior()</text>
<text text-anchor="start" x="347.395" y="-762.5" font-family="Helvetica,sans-Serif" font-size="10.00">+ SampleProfile()</text>
<text text-anchor="start" x="347.395" y="-751.5" font-family="Helvetica,sans-Serif" font-size="10.00">+ GetMeanStationaryEntropy()</text>
<text text-anchor="start" x="347.395" y="-740.5" font-family="Helvetica,sans-Serif" font-size="10.00">+ GetSiteStationaryEntropy()</text>
<text text-anchor="start" x="347.395" y="-729.5" font-family="Helvetica,sans-Serif" font-size="10.00">+ UpdateSiteProfileSuffStat()</text>
<text text-anchor="start" x="347.395" y="-718.5" font-family="Helvetica,sans-Serif" font-size="10.00">+ GlobalUpdateSiteProfileSuffStat()</text>
<text text-anchor="start" x="347.395" y="-707.5" font-family="Helvetica,sans-Serif" font-size="10.00">+ SlaveUpdateSiteProfileSuffStat()</text>
<text text-anchor="start" x="347.395" y="-696.5" font-family="Helvetica,sans-Serif" font-size="10.00">+ GlobalUpdateParameters()</text>
<text text-anchor="start" x="347.395" y="-685.5" font-family="Helvetica,sans-Serif" font-size="10.00">+ SlaveUpdateParameters()</text>
<text text-anchor="start" x="347.395" y="-674.5" font-family="Helvetica,sans-Serif" font-size="10.00">+ ProfileSuffStatLogProb()</text>
<text text-anchor="start" x="347.395" y="-663.5" font-family="Helvetica,sans-Serif" font-size="10.00">+ ToStream()</text>
<text text-anchor="start" x="347.395" y="-652.5" font-family="Helvetica,sans-Serif" font-size="10.00">+ FromStream()</text>
<text text-anchor="start" x="347.395" y="-641.5" font-family="Helvetica,sans-Serif" font-size="10.00">+ SetBurnin()</text>
<text text-anchor="start" x="347.395" y="-630.5" font-family="Helvetica,sans-Serif" font-size="10.00">+ isObserved()</text>
<text text-anchor="start" x="347.395" y="-619.5" font-family="Helvetica,sans-Serif" font-size="10.00">+ GetMinStat()</text>
<text text-anchor="start" x="347.395" y="-608.5" font-family="Helvetica,sans-Serif" font-size="10.00">+ GetMinMinStat()</text>
<text text-anchor="start" x="347.395" y="-597.5" font-family="Helvetica,sans-Serif" font-size="10.00"># DrawProfileFromPrior()</text>
<text text-anchor="start" x="347.395" y="-586.5" font-family="Helvetica,sans-Serif" font-size="10.00"># GetNormalizationFactor()</text>
<text text-anchor="start" x="347.395" y="-575.5" font-family="Helvetica,sans-Serif" font-size="10.00"># Create()</text>
<text text-anchor="start" x="347.395" y="-564.5" font-family="Helvetica,sans-Serif" font-size="10.00"># Delete()</text>
<text text-anchor="start" x="347.395" y="-553.5" font-family="Helvetica,sans-Serif" font-size="10.00"># GetNprocs()</text>
<text text-anchor="start" x="347.395" y="-542.5" font-family="Helvetica,sans-Serif" font-size="10.00"># GetMyid()</text>
<text text-anchor="start" x="347.395" y="-531.5" font-family="Helvetica,sans-Serif" font-size="10.00"># GetSiteMin()</text>
<text text-anchor="start" x="347.395" y="-520.5" font-family="Helvetica,sans-Serif" font-size="10.00"># GetSiteMax()</text>
<text text-anchor="start" x="347.395" y="-509.5" font-family="Helvetica,sans-Serif" font-size="10.00"># GetEmpiricalFreq()</text>
<text text-anchor="start" x="347.395" y="-498.5" font-family="Helvetica,sans-Serif" font-size="10.00"># GetMinTotWeight()</text>
<text text-anchor="start" x="347.395" y="-487.5" font-family="Helvetica,sans-Serif" font-size="10.00"># SetMinTotWeight()</text>
</a>
</g>
</g>
<!-- Node47&#45;&gt;Node50 -->
<g id="edge6" class="edge"><title>Node47&#45;&gt;Node50</title>
<path fill="none" stroke="#404040" d="M301.417,-1010.82C310.116,-999.015 318.5,-986.468 325.395,-974 329.126,-967.252 336.651,-948.304 345.975,-923.28"/>
<polygon fill="none" stroke="#404040" points="346.062,-923.046 344.393,-916.03 350.227,-911.791 351.896,-918.807 346.062,-923.046"/>
<text text-anchor="middle" x="369.895" y="-960.5" font-family="Helvetica,sans-Serif" font-size="10.00"> #chronostat</text>
<text text-anchor="middle" x="369.895" y="-949.5" font-family="Helvetica,sans-Serif" font-size="10.00">#chronorr</text>
<text text-anchor="middle" x="369.895" y="-938.5" font-family="Helvetica,sans-Serif" font-size="10.00">#chronodp</text>
</g>
<!-- Node48 -->
<g id="node4" class="node"><title>Node48</title>
<polygon fill="none" stroke="#bfbfbf" points="54.8949,-1047.5 54.8949,-1104.5 83.8949,-1104.5 83.8949,-1047.5 54.8949,-1047.5"/>
<text text-anchor="middle" x="69.3949" y="-1092.5" font-family="Helvetica,sans-Serif" font-size="10.00">int</text>
<polyline fill="none" stroke="#bfbfbf" points="54.8949,-1085.5 83.8949,-1085.5 "/>
<text text-anchor="middle" x="69.3949" y="-1073.5" font-family="Helvetica,sans-Serif" font-size="10.00"> </text>
<polyline fill="none" stroke="#bfbfbf" points="54.8949,-1066.5 83.8949,-1066.5 "/>
<text text-anchor="middle" x="69.3949" y="-1054.5" font-family="Helvetica,sans-Serif" font-size="10.00"> </text>
</g>
<!-- Node48&#45;&gt;Node45 -->
<g id="edge11" class="edge"><title>Node48&#45;&gt;Node45</title>
<path fill="none" stroke="#404040" d="M59.7394,-1047.48C30.6157,-959.606 -48.8032,-679.812 44.3949,-480 89.5888,-383.106 191.169,-309.744 265.143,-266.582"/>
<polygon fill="none" stroke="#404040" points="265.441,-266.41 268.652,-259.953 275.847,-260.433 272.636,-266.89 265.441,-266.41"/>
<text text-anchor="middle" x="85.3949" y="-715.5" font-family="Helvetica,sans-Serif" font-size="10.00"> #sitemin</text>
<text text-anchor="middle" x="85.3949" y="-704.5" font-family="Helvetica,sans-Serif" font-size="10.00">#suboverflowcount</text>
<text text-anchor="middle" x="85.3949" y="-693.5" font-family="Helvetica,sans-Serif" font-size="10.00">#infprobcount</text>
<text text-anchor="middle" x="85.3949" y="-682.5" font-family="Helvetica,sans-Serif" font-size="10.00">#ratealloc</text>
<text text-anchor="middle" x="85.3949" y="-671.5" font-family="Helvetica,sans-Serif" font-size="10.00">#sitemax</text>
</g>
<!-- Node48&#45;&gt;Node46 -->
<g id="edge3" class="edge"><title>Node48&#45;&gt;Node46</title>
<path fill="none" stroke="#404040" d="M65.3853,-1047.22C62.391,-1015.89 62.277,-964.785 86.3949,-930 96.3617,-915.625 109.108,-924.45 121.395,-912 130.161,-903.117 138.341,-893.372 145.95,-883.087"/>
<polygon fill="none" stroke="#404040" points="146.117,-882.852 146.335,-875.644 153.072,-873.072 152.854,-880.28 146.117,-882.852"/>
<text text-anchor="middle" x="101.395" y="-949.5" font-family="Helvetica,sans-Serif" font-size="10.00"> #nsite</text>
</g>
<!-- Node48&#45;&gt;Node50 -->
<g id="edge8" class="edge"><title>Node48&#45;&gt;Node50</title>
<path fill="none" stroke="#404040" d="M84.1429,-1063.79C106.444,-1046.32 149.234,-1010.8 178.395,-974 192.363,-956.372 184.806,-942.663 203.395,-930 250.147,-898.152 284.238,-946.071 329.395,-912 329.609,-911.838 329.823,-911.676 330.036,-911.514"/>
<polygon fill="none" stroke="#404040" points="330.084,-911.474 332.148,-904.565 339.319,-903.812 337.255,-910.722 330.084,-911.474"/>
<text text-anchor="middle" x="232.395" y="-966" font-family="Helvetica,sans-Serif" font-size="10.00"> #dim</text>
<text text-anchor="middle" x="232.395" y="-955" font-family="Helvetica,sans-Serif" font-size="10.00">#statinfcount</text>
<text text-anchor="middle" x="232.395" y="-944" font-family="Helvetica,sans-Serif" font-size="10.00">#totstatcount</text>
<text text-anchor="middle" x="232.395" y="-933" font-family="Helvetica,sans-Serif" font-size="10.00">#nsite</text>
</g>
<!-- Node49 -->
<g id="node5" class="node"><title>Node49</title>
<polygon fill="none" stroke="#bfbfbf" points="335.895,-1047.5 335.895,-1104.5 370.895,-1104.5 370.895,-1047.5 335.895,-1047.5"/>
<text text-anchor="middle" x="353.395" y="-1092.5" font-family="Helvetica,sans-Serif" font-size="10.00">bool</text>
<polyline fill="none" stroke="#bfbfbf" points="335.895,-1085.5 370.895,-1085.5 "/>
<text text-anchor="middle" x="353.395" y="-1073.5" font-family="Helvetica,sans-Serif" font-size="10.00"> </text>
<polyline fill="none" stroke="#bfbfbf" points="335.895,-1066.5 370.895,-1066.5 "/>
<text text-anchor="middle" x="353.395" y="-1054.5" font-family="Helvetica,sans-Serif" font-size="10.00"> </text>
</g>
<!-- Node49&#45;&gt;Node46 -->
<g id="edge4" class="edge"><title>Node49&#45;&gt;Node46</title>
<path fill="none" stroke="#404040" d="M343.382,-1047.37C336.133,-1030.06 325.038,-1008.08 310.395,-992 300.433,-981.062 290.699,-986.243 282.395,-974 271.241,-957.556 261.735,-923.725 253.951,-885.177"/>
<polygon fill="none" stroke="#404040" points="253.888,-884.854 248.813,-879.731 251.591,-873.076 256.665,-878.199 253.888,-884.854"/>
<text text-anchor="middle" x="303.895" y="-949.5" font-family="Helvetica,sans-Serif" font-size="10.00"> #sumflag</text>
</g>
<!-- Node49&#45;&gt;Node50 -->
<g id="edge9" class="edge"><title>Node49&#45;&gt;Node50</title>
<path fill="none" stroke="#404040" d="M370.643,-1047.42C382.036,-1027.74 396.155,-1000.21 403.395,-974 407.882,-957.754 411.554,-940.783 414.55,-923.587"/>
<polygon fill="none" stroke="#404040" points="414.565,-923.493 411.595,-916.922 416.518,-911.653 419.488,-918.224 414.565,-923.493"/>
<text text-anchor="middle" x="446.395" y="-955" font-family="Helvetica,sans-Serif" font-size="10.00"> #activesuffstat</text>
<text text-anchor="middle" x="446.395" y="-944" font-family="Helvetica,sans-Serif" font-size="10.00">#burnin</text>
</g>
<!-- Node50&#45;&gt;Node45 -->
<g id="edge5" class="edge"><title>Node50&#45;&gt;Node45</title>
<path fill="none" stroke="midnightblue" d="M390.197,-470.258C388.764,-461.104 387.326,-451.926 385.894,-442.781"/>
<polygon fill="none" stroke="midnightblue" points="386.746,-470.842 391.751,-480.18 393.662,-469.759 386.746,-470.842"/>
</g>
<!-- Node51 -->
<g id="node7" class="node"><title>Node51</title>
<polygon fill="none" stroke="#bfbfbf" points="532.895,-1047.5 532.895,-1104.5 577.895,-1104.5 577.895,-1047.5 532.895,-1047.5"/>
<text text-anchor="middle" x="555.395" y="-1092.5" font-family="Helvetica,sans-Serif" font-size="10.00">double</text>
<polyline fill="none" stroke="#bfbfbf" points="532.895,-1085.5 577.895,-1085.5 "/>
<text text-anchor="middle" x="555.395" y="-1073.5" font-family="Helvetica,sans-Serif" font-size="10.00"> </text>
<polyline fill="none" stroke="#bfbfbf" points="532.895,-1066.5 577.895,-1066.5 "/>
<text text-anchor="middle" x="555.395" y="-1054.5" font-family="Helvetica,sans-Serif" font-size="10.00"> </text>
</g>
<!-- Node51&#45;&gt;Node45 -->
<g id="edge10" class="edge"><title>Node51&#45;&gt;Node45</title>
<path fill="none" stroke="#404040" d="M564.61,-1047.07C570.733,-1027 578.21,-999.148 581.395,-974 583.852,-954.599 582.711,-949.511 581.395,-930 567.809,-728.629 591.072,-669.05 520.395,-480 499.897,-425.171 466.027,-370.149 433.97,-325.124"/>
<polygon fill="none" stroke="#404040" points="433.964,-325.115 427.211,-322.585 426.949,-315.379 433.702,-317.909 433.964,-325.115"/>
<text text-anchor="middle" x="612.395" y="-710" font-family="Helvetica,sans-Serif" font-size="10.00"> #condsitelogL</text>
<text text-anchor="middle" x="612.395" y="-699" font-family="Helvetica,sans-Serif" font-size="10.00">#meansiterate</text>
<text text-anchor="middle" x="612.395" y="-688" font-family="Helvetica,sans-Serif" font-size="10.00">#sitelogL</text>
<text text-anchor="middle" x="612.395" y="-677" font-family="Helvetica,sans-Serif" font-size="10.00">#logL</text>
</g>
<!-- Node51&#45;&gt;Node50 -->
<g id="edge7" class="edge"><title>Node51&#45;&gt;Node50</title>
<path fill="none" stroke="#404040" d="M544.617,-1047.24C536.843,-1027.01 526.211,-998.901 517.395,-974 511.534,-957.444 505.573,-940.295 499.648,-923.015"/>
<polygon fill="none" stroke="#404040" points="499.643,-923 493.917,-918.617 495.761,-911.645 501.487,-916.029 499.643,-923"/>
<text text-anchor="middle" x="549.395" y="-949.5" font-family="Helvetica,sans-Serif" font-size="10.00"> #mintotweight</text>
</g>
</g>
</svg>
