<?xml version="1.0" encoding="UTF-8" standalone="no"?>
<!DOCTYPE svg PUBLIC "-//W3C//DTD SVG 1.1//EN"
 "http://www.w3.org/Graphics/SVG/1.1/DTD/svg11.dtd">
<!-- Generated by graphviz version 2.38.0 (20140413.2041)
 -->
<!-- Title: PolyNode Pages: 1 -->
<svg width="639pt" height="1453pt"
 viewBox="0.00 0.00 638.50 1453.00" xmlns="http://www.w3.org/2000/svg" xmlns:xlink="http://www.w3.org/1999/xlink">
<g id="graph0" class="graph" transform="scale(1 1) rotate(0) translate(4 1449)">
<title>PolyNode</title>
<!-- Node1 -->
<g id="node1" class="node"><title>Node1</title>
<polygon fill="#bfbfbf" stroke="black" points="157,-578.5 157,-1284.5 324,-1284.5 324,-578.5 157,-578.5"/>
<text text-anchor="middle" x="240.5" y="-1272.5" font-family="Helvetica,sans-Serif" font-size="10.00">PolyNode</text>
<polyline fill="none" stroke="black" points="157,-1265.5 324,-1265.5 "/>
<text text-anchor="middle" x="240.5" y="-1253.5" font-family="Helvetica,sans-Serif" font-size="10.00"> </text>
<polyline fill="none" stroke="black" points="157,-1246.5 324,-1246.5 "/>
<text text-anchor="start" x="165" y="-1234.5" font-family="Helvetica,sans-Serif" font-size="10.00">+ PolyNode()</text>
<text text-anchor="start" x="165" y="-1223.5" font-family="Helvetica,sans-Serif" font-size="10.00">+ PolyNode()</text>
<text text-anchor="start" x="165" y="-1212.5" font-family="Helvetica,sans-Serif" font-size="10.00">+ ~PolyNode()</text>
<text text-anchor="start" x="165" y="-1201.5" font-family="Helvetica,sans-Serif" font-size="10.00">+ deleteRecursive()</text>
<text text-anchor="start" x="165" y="-1190.5" font-family="Helvetica,sans-Serif" font-size="10.00">+ Up()</text>
<text text-anchor="start" x="165" y="-1179.5" font-family="Helvetica,sans-Serif" font-size="10.00">+ Down()</text>
<text text-anchor="start" x="165" y="-1168.5" font-family="Helvetica,sans-Serif" font-size="10.00">+ Next()</text>
<text text-anchor="start" x="165" y="-1157.5" font-family="Helvetica,sans-Serif" font-size="10.00">+ Prev()</text>
<text text-anchor="start" x="165" y="-1146.5" font-family="Helvetica,sans-Serif" font-size="10.00">+ IsLeaf()</text>
<text text-anchor="start" x="165" y="-1135.5" font-family="Helvetica,sans-Serif" font-size="10.00">+ IsRoot()</text>
<text text-anchor="start" x="165" y="-1124.5" font-family="Helvetica,sans-Serif" font-size="10.00">+ GetDegree()</text>
<text text-anchor="start" x="165" y="-1113.5" font-family="Helvetica,sans-Serif" font-size="10.00">+ GetMaxDegree()</text>
<text text-anchor="start" x="165" y="-1102.5" font-family="Helvetica,sans-Serif" font-size="10.00">+ ComputeDegree()</text>
<text text-anchor="start" x="165" y="-1091.5" font-family="Helvetica,sans-Serif" font-size="10.00">+ CheckDegree()</text>
<text text-anchor="start" x="165" y="-1080.5" font-family="Helvetica,sans-Serif" font-size="10.00">+ IsDichotomous()</text>
<text text-anchor="start" x="165" y="-1069.5" font-family="Helvetica,sans-Serif" font-size="10.00">+ GetLeafSet()</text>
<text text-anchor="start" x="165" y="-1058.5" font-family="Helvetica,sans-Serif" font-size="10.00">+ GetLabel()</text>
<text text-anchor="start" x="165" y="-1047.5" font-family="Helvetica,sans-Serif" font-size="10.00">+ SetLabel()</text>
<text text-anchor="start" x="165" y="-1036.5" font-family="Helvetica,sans-Serif" font-size="10.00">+ GetName()</text>
<text text-anchor="start" x="165" y="-1025.5" font-family="Helvetica,sans-Serif" font-size="10.00">+ SetName()</text>
<text text-anchor="start" x="165" y="-1014.5" font-family="Helvetica,sans-Serif" font-size="10.00">+ SetNames()</text>
<text text-anchor="start" x="165" y="-1003.5" font-family="Helvetica,sans-Serif" font-size="10.00">+ GetBranchLength()</text>
<text text-anchor="start" x="165" y="-992.5" font-family="Helvetica,sans-Serif" font-size="10.00">+ SetBranchLength()</text>
<text text-anchor="start" x="165" y="-981.5" font-family="Helvetica,sans-Serif" font-size="10.00">+ GetProb()</text>
<text text-anchor="start" x="165" y="-970.5" font-family="Helvetica,sans-Serif" font-size="10.00">+ SetProb()</text>
<text text-anchor="start" x="165" y="-959.5" font-family="Helvetica,sans-Serif" font-size="10.00">+ SetTree()</text>
<text text-anchor="start" x="165" y="-948.5" font-family="Helvetica,sans-Serif" font-size="10.00">+ GetTree()</text>
<text text-anchor="start" x="165" y="-937.5" font-family="Helvetica,sans-Serif" font-size="10.00">+ Simplify()</text>
<text text-anchor="start" x="165" y="-926.5" font-family="Helvetica,sans-Serif" font-size="10.00">+ Detach()</text>
<text text-anchor="start" x="165" y="-915.5" font-family="Helvetica,sans-Serif" font-size="10.00">+ DetachRecursive()</text>
<text text-anchor="start" x="165" y="-904.5" font-family="Helvetica,sans-Serif" font-size="10.00">+ AttachTo()</text>
<text text-anchor="start" x="165" y="-893.5" font-family="Helvetica,sans-Serif" font-size="10.00">+ ComputeMinLeafLabel()</text>
<text text-anchor="start" x="165" y="-882.5" font-family="Helvetica,sans-Serif" font-size="10.00">+ DetachOld()</text>
<text text-anchor="start" x="165" y="-871.5" font-family="Helvetica,sans-Serif" font-size="10.00">+ Insert()</text>
<text text-anchor="start" x="165" y="-860.5" font-family="Helvetica,sans-Serif" font-size="10.00">+ RegisterWithData()</text>
<text text-anchor="start" x="165" y="-849.5" font-family="Helvetica,sans-Serif" font-size="10.00">+ Dichotomise()</text>
<text text-anchor="start" x="165" y="-838.5" font-family="Helvetica,sans-Serif" font-size="10.00">+ SetSuper()</text>
<text text-anchor="start" x="165" y="-827.5" font-family="Helvetica,sans-Serif" font-size="10.00">+ GetSize()</text>
<text text-anchor="start" x="165" y="-816.5" font-family="Helvetica,sans-Serif" font-size="10.00">+ GetDepth()</text>
<text text-anchor="start" x="165" y="-805.5" font-family="Helvetica,sans-Serif" font-size="10.00">+ GetMinDepth()</text>
<text text-anchor="start" x="165" y="-794.5" font-family="Helvetica,sans-Serif" font-size="10.00">+ GetLength()</text>
<text text-anchor="start" x="165" y="-783.5" font-family="Helvetica,sans-Serif" font-size="10.00">+ GetIntDepth()</text>
<text text-anchor="start" x="165" y="-772.5" font-family="Helvetica,sans-Serif" font-size="10.00">+ ComputeSizeAndDepth()</text>
<text text-anchor="start" x="165" y="-761.5" font-family="Helvetica,sans-Serif" font-size="10.00">+ SetFormalBranchLengths()</text>
<text text-anchor="start" x="165" y="-750.5" font-family="Helvetica,sans-Serif" font-size="10.00">+ GetSpeciesNames()</text>
<text text-anchor="start" x="165" y="-739.5" font-family="Helvetica,sans-Serif" font-size="10.00">+ GetSpeciesNames()</text>
<text text-anchor="start" x="165" y="-728.5" font-family="Helvetica,sans-Serif" font-size="10.00">+ FindNode()</text>
<text text-anchor="start" x="165" y="-717.5" font-family="Helvetica,sans-Serif" font-size="10.00">+ FindNodePruning()</text>
<text text-anchor="start" x="165" y="-706.5" font-family="Helvetica,sans-Serif" font-size="10.00">+ GetBipartition()</text>
<text text-anchor="start" x="165" y="-695.5" font-family="Helvetica,sans-Serif" font-size="10.00">+ BipartitionPruning()</text>
<text text-anchor="start" x="165" y="-684.5" font-family="Helvetica,sans-Serif" font-size="10.00">+ BipartitionPruningWithSupports()</text>
<text text-anchor="start" x="165" y="-673.5" font-family="Helvetica,sans-Serif" font-size="10.00">+ Analyse()</text>
<text text-anchor="start" x="165" y="-662.5" font-family="Helvetica,sans-Serif" font-size="10.00">+ Insert()</text>
<text text-anchor="start" x="165" y="-651.5" font-family="Helvetica,sans-Serif" font-size="10.00">+ FlipFlop()</text>
<text text-anchor="start" x="165" y="-640.5" font-family="Helvetica,sans-Serif" font-size="10.00">+ TranslateLabels()</text>
<text text-anchor="start" x="165" y="-629.5" font-family="Helvetica,sans-Serif" font-size="10.00">+ SortLeaves()</text>
<text text-anchor="start" x="165" y="-618.5" font-family="Helvetica,sans-Serif" font-size="10.00">+ SortLeavesAlphabetical()</text>
<text text-anchor="start" x="165" y="-607.5" font-family="Helvetica,sans-Serif" font-size="10.00">+ Phylip()</text>
<text text-anchor="start" x="165" y="-596.5" font-family="Helvetica,sans-Serif" font-size="10.00">+ ResetLabels()</text>
<text text-anchor="start" x="165" y="-585.5" font-family="Helvetica,sans-Serif" font-size="10.00">+ Swap()</text>
</g>
<!-- Node1&#45;&gt;Node1 -->
<g id="edge3" class="edge"><title>Node1&#45;&gt;Node1</title>
<path fill="none" stroke="#404040" d="M324.12,-994.272C334.887,-983.387 342,-962.463 342,-931.5 342,-908.036 337.915,-890.337 331.251,-878.403"/>
<polygon fill="none" stroke="#404040" points="331.24,-878.388 324.46,-875.931 324.12,-868.728 330.9,-871.184 331.24,-878.388"/>
<text text-anchor="middle" x="357" y="-945.5" font-family="Helvetica,sans-Serif" font-size="10.00"> +up</text>
<text text-anchor="middle" x="357" y="-934.5" font-family="Helvetica,sans-Serif" font-size="10.00">+prev</text>
<text text-anchor="middle" x="357" y="-923.5" font-family="Helvetica,sans-Serif" font-size="10.00">+down</text>
<text text-anchor="middle" x="357" y="-912.5" font-family="Helvetica,sans-Serif" font-size="10.00">+next</text>
</g>
<!-- Node5 -->
<g id="node5" class="node"><title>Node5</title>
<g id="a_node5"><a xlink:href="classPBTree.html" target="_top" xlink:title="{PBTree\n||+ PBTree()\l+ PBTree()\l+ PBTree()\l+ PBTree()\l+ ~PBTree()\l+ GetParameters()\l+ SetParameters()\l+ Clone()\l+ Phylip()\l+ WriteToStream()\l+ ReadFromStream()\l+ ReadPhylip()\l+ GetRoot()\l+ GetLeaf()\l+ GetSize()\l+ GetSpeciesNames()\l+ GetLength()\l+ Simplify()\l+ operator==()\l+ operator!=()\l+ FindNode()\l+ FindNode()\l+ GetRootBipartition()\l+ BipartitionPruning()\l+ SetLabelOffset()\l+ TranslateLabels()\l+ Dichotomise()\l+ Trichotomise()\l+ IsDichotomous()\l+ BipartitionPruning()\l+ FinishCreation()\l+ RegisterWithData()\l+ RegisterWithParam()\l+ SetNames()\l+ SetFormalBranchLengths()\l+ Root()\l+ RootAt()\l+ RootAt()\l+ RootAt0Alphabetical()\l+ Eliminate()\l+ Eliminate()\l+ Eliminate()\l+ Eliminate()\l}">
<polygon fill="none" stroke="black" points="229.5,-0.5 229.5,-519.5 371.5,-519.5 371.5,-0.5 229.5,-0.5"/>
<text text-anchor="middle" x="300.5" y="-507.5" font-family="Helvetica,sans-Serif" font-size="10.00">PBTree</text>
<polyline fill="none" stroke="black" points="229.5,-500.5 371.5,-500.5 "/>
<text text-anchor="middle" x="300.5" y="-488.5" font-family="Helvetica,sans-Serif" font-size="10.00"> </text>
<polyline fill="none" stroke="black" points="229.5,-481.5 371.5,-481.5 "/>
<text text-anchor="start" x="237.5" y="-469.5" font-family="Helvetica,sans-Serif" font-size="10.00">+ PBTree()</text>
<text text-anchor="start" x="237.5" y="-458.5" font-family="Helvetica,sans-Serif" font-size="10.00">+ PBTree()</text>
<text text-anchor="start" x="237.5" y="-447.5" font-family="Helvetica,sans-Serif" font-size="10.00">+ PBTree()</text>
<text text-anchor="start" x="237.5" y="-436.5" font-family="Helvetica,sans-Serif" font-size="10.00">+ PBTree()</text>
<text text-anchor="start" x="237.5" y="-425.5" font-family="Helvetica,sans-Serif" font-size="10.00">+ ~PBTree()</text>
<text text-anchor="start" x="237.5" y="-414.5" font-family="Helvetica,sans-Serif" font-size="10.00">+ GetParameters()</text>
<text text-anchor="start" x="237.5" y="-403.5" font-family="Helvetica,sans-Serif" font-size="10.00">+ SetParameters()</text>
<text text-anchor="start" x="237.5" y="-392.5" font-family="Helvetica,sans-Serif" font-size="10.00">+ Clone()</text>
<text text-anchor="start" x="237.5" y="-381.5" font-family="Helvetica,sans-Serif" font-size="10.00">+ Phylip()</text>
<text text-anchor="start" x="237.5" y="-370.5" font-family="Helvetica,sans-Serif" font-size="10.00">+ WriteToStream()</text>
<text text-anchor="start" x="237.5" y="-359.5" font-family="Helvetica,sans-Serif" font-size="10.00">+ ReadFromStream()</text>
<text text-anchor="start" x="237.5" y="-348.5" font-family="Helvetica,sans-Serif" font-size="10.00">+ ReadPhylip()</text>
<text text-anchor="start" x="237.5" y="-337.5" font-family="Helvetica,sans-Serif" font-size="10.00">+ GetRoot()</text>
<text text-anchor="start" x="237.5" y="-326.5" font-family="Helvetica,sans-Serif" font-size="10.00">+ GetLeaf()</text>
<text text-anchor="start" x="237.5" y="-315.5" font-family="Helvetica,sans-Serif" font-size="10.00">+ GetSize()</text>
<text text-anchor="start" x="237.5" y="-304.5" font-family="Helvetica,sans-Serif" font-size="10.00">+ GetSpeciesNames()</text>
<text text-anchor="start" x="237.5" y="-293.5" font-family="Helvetica,sans-Serif" font-size="10.00">+ GetLength()</text>
<text text-anchor="start" x="237.5" y="-282.5" font-family="Helvetica,sans-Serif" font-size="10.00">+ Simplify()</text>
<text text-anchor="start" x="237.5" y="-271.5" font-family="Helvetica,sans-Serif" font-size="10.00">+ operator==()</text>
<text text-anchor="start" x="237.5" y="-260.5" font-family="Helvetica,sans-Serif" font-size="10.00">+ operator!=()</text>
<text text-anchor="start" x="237.5" y="-249.5" font-family="Helvetica,sans-Serif" font-size="10.00">+ FindNode()</text>
<text text-anchor="start" x="237.5" y="-238.5" font-family="Helvetica,sans-Serif" font-size="10.00">+ FindNode()</text>
<text text-anchor="start" x="237.5" y="-227.5" font-family="Helvetica,sans-Serif" font-size="10.00">+ GetRootBipartition()</text>
<text text-anchor="start" x="237.5" y="-216.5" font-family="Helvetica,sans-Serif" font-size="10.00">+ BipartitionPruning()</text>
<text text-anchor="start" x="237.5" y="-205.5" font-family="Helvetica,sans-Serif" font-size="10.00">+ SetLabelOffset()</text>
<text text-anchor="start" x="237.5" y="-194.5" font-family="Helvetica,sans-Serif" font-size="10.00">+ TranslateLabels()</text>
<text text-anchor="start" x="237.5" y="-183.5" font-family="Helvetica,sans-Serif" font-size="10.00">+ Dichotomise()</text>
<text text-anchor="start" x="237.5" y="-172.5" font-family="Helvetica,sans-Serif" font-size="10.00">+ Trichotomise()</text>
<text text-anchor="start" x="237.5" y="-161.5" font-family="Helvetica,sans-Serif" font-size="10.00">+ IsDichotomous()</text>
<text text-anchor="start" x="237.5" y="-150.5" font-family="Helvetica,sans-Serif" font-size="10.00">+ BipartitionPruning()</text>
<text text-anchor="start" x="237.5" y="-139.5" font-family="Helvetica,sans-Serif" font-size="10.00">+ FinishCreation()</text>
<text text-anchor="start" x="237.5" y="-128.5" font-family="Helvetica,sans-Serif" font-size="10.00">+ RegisterWithData()</text>
<text text-anchor="start" x="237.5" y="-117.5" font-family="Helvetica,sans-Serif" font-size="10.00">+ RegisterWithParam()</text>
<text text-anchor="start" x="237.5" y="-106.5" font-family="Helvetica,sans-Serif" font-size="10.00">+ SetNames()</text>
<text text-anchor="start" x="237.5" y="-95.5" font-family="Helvetica,sans-Serif" font-size="10.00">+ SetFormalBranchLengths()</text>
<text text-anchor="start" x="237.5" y="-84.5" font-family="Helvetica,sans-Serif" font-size="10.00">+ Root()</text>
<text text-anchor="start" x="237.5" y="-73.5" font-family="Helvetica,sans-Serif" font-size="10.00">+ RootAt()</text>
<text text-anchor="start" x="237.5" y="-62.5" font-family="Helvetica,sans-Serif" font-size="10.00">+ RootAt()</text>
<text text-anchor="start" x="237.5" y="-51.5" font-family="Helvetica,sans-Serif" font-size="10.00">+ RootAt0Alphabetical()</text>
<text text-anchor="start" x="237.5" y="-40.5" font-family="Helvetica,sans-Serif" font-size="10.00">+ Eliminate()</text>
<text text-anchor="start" x="237.5" y="-29.5" font-family="Helvetica,sans-Serif" font-size="10.00">+ Eliminate()</text>
<text text-anchor="start" x="237.5" y="-18.5" font-family="Helvetica,sans-Serif" font-size="10.00">+ Eliminate()</text>
<text text-anchor="start" x="237.5" y="-7.5" font-family="Helvetica,sans-Serif" font-size="10.00">+ Eliminate()</text>
</a>
</g>
</g>
<!-- Node1&#45;&gt;Node5 -->
<g id="edge7" class="edge"><title>Node1&#45;&gt;Node5</title>
<path fill="none" stroke="#404040" d="M276.893,-578.022C277.439,-571.969 277.975,-565.958 278.5,-560 279.319,-550.704 280.13,-541.243 280.932,-531.686"/>
<polygon fill="none" stroke="#404040" points="280.948,-531.493 277.459,-525.182 281.943,-519.535 285.432,-525.845 280.948,-531.493"/>
<text text-anchor="middle" x="309" y="-552" font-family="Helvetica,sans-Serif" font-size="10.00"> +mNodeList</text>
<text text-anchor="middle" x="309" y="-541" font-family="Helvetica,sans-Serif" font-size="10.00">+mRoot</text>
</g>
<!-- Node2 -->
<g id="node2" class="node"><title>Node2</title>
<polygon fill="none" stroke="#bfbfbf" points="0,-1387.5 0,-1444.5 45,-1444.5 45,-1387.5 0,-1387.5"/>
<text text-anchor="middle" x="22.5" y="-1432.5" font-family="Helvetica,sans-Serif" font-size="10.00">double</text>
<polyline fill="none" stroke="#bfbfbf" points="0,-1425.5 45,-1425.5 "/>
<text text-anchor="middle" x="22.5" y="-1413.5" font-family="Helvetica,sans-Serif" font-size="10.00"> </text>
<polyline fill="none" stroke="#bfbfbf" points="0,-1406.5 45,-1406.5 "/>
<text text-anchor="middle" x="22.5" y="-1394.5" font-family="Helvetica,sans-Serif" font-size="10.00"> </text>
</g>
<!-- Node2&#45;&gt;Node1 -->
<g id="edge1" class="edge"><title>Node2&#45;&gt;Node1</title>
<path fill="none" stroke="#404040" d="M45.0971,-1391.11C78.9022,-1355.28 139.071,-1291.15 142.5,-1285 145.561,-1279.51 148.532,-1273.91 151.415,-1268.23"/>
<polygon fill="none" stroke="#404040" points="151.547,-1267.96 150.612,-1260.81 156.852,-1257.19 157.788,-1264.34 151.547,-1267.96"/>
<text text-anchor="middle" x="159" y="-1361" font-family="Helvetica,sans-Serif" font-size="10.00"> +mProb</text>
<text text-anchor="middle" x="159" y="-1350" font-family="Helvetica,sans-Serif" font-size="10.00">+Y2</text>
<text text-anchor="middle" x="159" y="-1339" font-family="Helvetica,sans-Serif" font-size="10.00">+depth</text>
<text text-anchor="middle" x="159" y="-1328" font-family="Helvetica,sans-Serif" font-size="10.00">+X</text>
<text text-anchor="middle" x="159" y="-1317" font-family="Helvetica,sans-Serif" font-size="10.00">+Y</text>
<text text-anchor="middle" x="159" y="-1306" font-family="Helvetica,sans-Serif" font-size="10.00">+branchLength</text>
</g>
<!-- Node3 -->
<g id="node3" class="node"><title>Node3</title>
<polygon fill="none" stroke="#bfbfbf" points="176,-1387.5 176,-1444.5 217,-1444.5 217,-1387.5 176,-1387.5"/>
<text text-anchor="middle" x="196.5" y="-1432.5" font-family="Helvetica,sans-Serif" font-size="10.00">string</text>
<polyline fill="none" stroke="#bfbfbf" points="176,-1425.5 217,-1425.5 "/>
<text text-anchor="middle" x="196.5" y="-1413.5" font-family="Helvetica,sans-Serif" font-size="10.00"> </text>
<polyline fill="none" stroke="#bfbfbf" points="176,-1406.5 217,-1406.5 "/>
<text text-anchor="middle" x="196.5" y="-1394.5" font-family="Helvetica,sans-Serif" font-size="10.00"> </text>
</g>
<!-- Node3&#45;&gt;Node1 -->
<g id="edge2" class="edge"><title>Node3&#45;&gt;Node1</title>
<path fill="none" stroke="#404040" d="M195.928,-1387.35C195.656,-1364.67 195.71,-1331.72 197.5,-1303 197.622,-1301.04 197.748,-1299.07 197.876,-1297.1"/>
<polygon fill="none" stroke="#404040" points="197.89,-1296.89 194.305,-1290.64 198.703,-1284.92 202.287,-1291.18 197.89,-1296.89"/>
<text text-anchor="middle" x="214.5" y="-1333.5" font-family="Helvetica,sans-Serif" font-size="10.00"> +name</text>
</g>
<!-- Node3&#45;&gt;Node5 -->
<g id="edge6" class="edge"><title>Node3&#45;&gt;Node5</title>
<path fill="none" stroke="#404040" d="M175.966,-1392.67C155.078,-1368.31 124.049,-1327.12 111.5,-1285 21.7868,-983.857 28.0458,-880.937 111.5,-578 133.257,-499.021 180.424,-419.862 222.193,-360.402"/>
<polygon fill="none" stroke="#404040" points="222.432,-360.067 222.646,-352.859 229.382,-350.285 229.168,-357.492 222.432,-360.067"/>
<text text-anchor="middle" x="129.5" y="-929" font-family="Helvetica,sans-Serif" font-size="10.00"> +Name</text>
</g>
<!-- Node6 -->
<g id="node6" class="node"><title>Node6</title>
<g id="a_node6"><a xlink:href="classTaxaParameters.html" target="_top" xlink:title="{TaxaParameters\n||+ TaxaParameters()\l+ TaxaParameters()\l+ TaxaParameters()\l+ TaxaParameters()\l+ TaxaParameters()\l+ TaxaParameters()\l+ ~TaxaParameters()\l+ ReadFromStream()\l+ WriteToStream()\l+ ReadNexus()\l+ GetSpeciesName()\l+ Member()\l+ RegisterWith()\l+ GetParameters()\l+ GetOutGroup()\l+ SetOutGroup()\l}">
<polygon fill="none" stroke="black" points="520.5,-820.5 520.5,-1042.5 630.5,-1042.5 630.5,-820.5 520.5,-820.5"/>
<text text-anchor="middle" x="575.5" y="-1030.5" font-family="Helvetica,sans-Serif" font-size="10.00">TaxaParameters</text>
<polyline fill="none" stroke="black" points="520.5,-1023.5 630.5,-1023.5 "/>
<text text-anchor="middle" x="575.5" y="-1011.5" font-family="Helvetica,sans-Serif" font-size="10.00"> </text>
<polyline fill="none" stroke="black" points="520.5,-1004.5 630.5,-1004.5 "/>
<text text-anchor="start" x="528.5" y="-992.5" font-family="Helvetica,sans-Serif" font-size="10.00">+ TaxaParameters()</text>
<text text-anchor="start" x="528.5" y="-981.5" font-family="Helvetica,sans-Serif" font-size="10.00">+ TaxaParameters()</text>
<text text-anchor="start" x="528.5" y="-970.5" font-family="Helvetica,sans-Serif" font-size="10.00">+ TaxaParameters()</text>
<text text-anchor="start" x="528.5" y="-959.5" font-family="Helvetica,sans-Serif" font-size="10.00">+ TaxaParameters()</text>
<text text-anchor="start" x="528.5" y="-948.5" font-family="Helvetica,sans-Serif" font-size="10.00">+ TaxaParameters()</text>
<text text-anchor="start" x="528.5" y="-937.5" font-family="Helvetica,sans-Serif" font-size="10.00">+ TaxaParameters()</text>
<text text-anchor="start" x="528.5" y="-926.5" font-family="Helvetica,sans-Serif" font-size="10.00">+ ~TaxaParameters()</text>
<text text-anchor="start" x="528.5" y="-915.5" font-family="Helvetica,sans-Serif" font-size="10.00">+ ReadFromStream()</text>
<text text-anchor="start" x="528.5" y="-904.5" font-family="Helvetica,sans-Serif" font-size="10.00">+ WriteToStream()</text>
<text text-anchor="start" x="528.5" y="-893.5" font-family="Helvetica,sans-Serif" font-size="10.00">+ ReadNexus()</text>
<text text-anchor="start" x="528.5" y="-882.5" font-family="Helvetica,sans-Serif" font-size="10.00">+ GetSpeciesName()</text>
<text text-anchor="start" x="528.5" y="-871.5" font-family="Helvetica,sans-Serif" font-size="10.00">+ Member()</text>
<text text-anchor="start" x="528.5" y="-860.5" font-family="Helvetica,sans-Serif" font-size="10.00">+ RegisterWith()</text>
<text text-anchor="start" x="528.5" y="-849.5" font-family="Helvetica,sans-Serif" font-size="10.00">+ GetParameters()</text>
<text text-anchor="start" x="528.5" y="-838.5" font-family="Helvetica,sans-Serif" font-size="10.00">+ GetOutGroup()</text>
<text text-anchor="start" x="528.5" y="-827.5" font-family="Helvetica,sans-Serif" font-size="10.00">+ SetOutGroup()</text>
</a>
</g>
</g>
<!-- Node3&#45;&gt;Node6 -->
<g id="edge10" class="edge"><title>Node3&#45;&gt;Node6</title>
<path fill="none" stroke="#404040" d="M217.089,-1407.4C237.743,-1399.34 270.053,-1385.49 295.5,-1369 333.042,-1344.67 330.721,-1321.4 371.5,-1303 426.675,-1278.11 462.418,-1326.48 506.5,-1285 568.036,-1227.09 583.761,-1131.73 584.93,-1054.79"/>
<polygon fill="none" stroke="#404040" points="584.931,-1054.6 580.965,-1048.58 584.998,-1042.6 588.965,-1048.63 584.931,-1054.6"/>
<text text-anchor="middle" x="409.5" y="-1333.5" font-family="Helvetica,sans-Serif" font-size="10.00"> +SpeciesNames</text>
</g>
<!-- Node4 -->
<g id="node4" class="node"><title>Node4</title>
<polygon fill="none" stroke="#bfbfbf" points="394,-1387.5 394,-1444.5 423,-1444.5 423,-1387.5 394,-1387.5"/>
<text text-anchor="middle" x="408.5" y="-1432.5" font-family="Helvetica,sans-Serif" font-size="10.00">int</text>
<polyline fill="none" stroke="#bfbfbf" points="394,-1425.5 423,-1425.5 "/>
<text text-anchor="middle" x="408.5" y="-1413.5" font-family="Helvetica,sans-Serif" font-size="10.00"> </text>
<polyline fill="none" stroke="#bfbfbf" points="394,-1406.5 423,-1406.5 "/>
<text text-anchor="middle" x="408.5" y="-1394.5" font-family="Helvetica,sans-Serif" font-size="10.00"> </text>
</g>
<!-- Node4&#45;&gt;Node1 -->
<g id="edge4" class="edge"><title>Node4&#45;&gt;Node1</title>
<path fill="none" stroke="#404040" d="M393.559,-1415.73C361.899,-1416.35 288.212,-1412.77 254.5,-1369 242.963,-1354.02 235.39,-1328.31 230.674,-1296.62"/>
<polygon fill="none" stroke="#404040" points="230.668,-1296.57 225.902,-1291.16 229.064,-1284.68 233.83,-1290.09 230.668,-1296.57"/>
<text text-anchor="middle" x="275" y="-1355.5" font-family="Helvetica,sans-Serif" font-size="10.00"> +value</text>
<text text-anchor="middle" x="275" y="-1344.5" font-family="Helvetica,sans-Serif" font-size="10.00">+label</text>
<text text-anchor="middle" x="275" y="-1333.5" font-family="Helvetica,sans-Serif" font-size="10.00">+intdepth</text>
<text text-anchor="middle" x="275" y="-1322.5" font-family="Helvetica,sans-Serif" font-size="10.00">+degree</text>
<text text-anchor="middle" x="275" y="-1311.5" font-family="Helvetica,sans-Serif" font-size="10.00">+size</text>
</g>
<!-- Node4&#45;&gt;Node5 -->
<g id="edge8" class="edge"><title>Node4&#45;&gt;Node5</title>
<path fill="none" stroke="#404040" d="M409.705,-1387.36C413.864,-1281.68 425.034,-893.283 380.5,-578 378.349,-562.773 375.757,-547.218 372.842,-531.575"/>
<polygon fill="none" stroke="#404040" points="372.806,-531.387 367.75,-526.245 370.552,-519.6 375.608,-524.742 372.806,-531.387"/>
<text text-anchor="middle" x="461.5" y="-951" font-family="Helvetica,sans-Serif" font-size="10.00"> +mLabelOffset</text>
<text text-anchor="middle" x="461.5" y="-940" font-family="Helvetica,sans-Serif" font-size="10.00">+fromPB</text>
<text text-anchor="middle" x="461.5" y="-929" font-family="Helvetica,sans-Serif" font-size="10.00">+WithSpeciesNames</text>
<text text-anchor="middle" x="461.5" y="-918" font-family="Helvetica,sans-Serif" font-size="10.00">+WithBranchLengths</text>
<text text-anchor="middle" x="461.5" y="-907" font-family="Helvetica,sans-Serif" font-size="10.00">+WithProb</text>
</g>
<!-- Node4&#45;&gt;Node6 -->
<g id="edge11" class="edge"><title>Node4&#45;&gt;Node6</title>
<path fill="none" stroke="#404040" d="M423.078,-1400.47C444.851,-1377.87 485.542,-1331.98 506.5,-1285 538.923,-1212.32 556.167,-1124.51 565.308,-1054.71"/>
<polygon fill="none" stroke="#404040" points="565.311,-1054.69 562.094,-1048.23 566.815,-1042.78 570.031,-1049.23 565.311,-1054.69"/>
<text text-anchor="middle" x="514.5" y="-1333.5" font-family="Helvetica,sans-Serif" font-size="10.00"> +Ntaxa</text>
</g>
<!-- Node5&#45;&gt;Node1 -->
<g id="edge5" class="edge"><title>Node5&#45;&gt;Node1</title>
<path fill="none" stroke="#404040" d="M243.629,-519.869C242.851,-525.96 242.138,-532.011 241.5,-538 240.51,-547.29 239.622,-556.711 238.83,-566.223"/>
<polygon fill="none" stroke="#404040" points="238.82,-566.352 242.336,-572.648 237.877,-578.315 234.361,-572.019 238.82,-566.352"/>
<text text-anchor="middle" x="260" y="-546.5" font-family="Helvetica,sans-Serif" font-size="10.00"> +mTree</text>
</g>
<!-- Node6&#45;&gt;Node5 -->
<g id="edge9" class="edge"><title>Node6&#45;&gt;Node5</title>
<path fill="none" stroke="#404040" d="M564.9,-820.198C555.43,-749.095 537.982,-655.74 506.5,-578 474.703,-499.483 422.607,-419.562 378.762,-359.61"/>
<polygon fill="none" stroke="#404040" points="378.641,-359.446 371.861,-356.99 371.521,-349.787 378.301,-352.243 378.641,-359.446"/>
<text text-anchor="middle" x="521.5" y="-546.5" font-family="Helvetica,sans-Serif" font-size="10.00"> +mParam</text>
</g>
<!-- Node7 -->
<g id="node7" class="node"><title>Node7</title>
<polygon fill="none" stroke="#bfbfbf" points="531,-1387.5 531,-1444.5 620,-1444.5 620,-1387.5 531,-1387.5"/>
<text text-anchor="middle" x="575.5" y="-1432.5" font-family="Helvetica,sans-Serif" font-size="10.00">MCParameters *</text>
<polyline fill="none" stroke="#bfbfbf" points="531,-1425.5 620,-1425.5 "/>
<text text-anchor="middle" x="575.5" y="-1413.5" font-family="Helvetica,sans-Serif" font-size="10.00"> </text>
<polyline fill="none" stroke="#bfbfbf" points="531,-1406.5 620,-1406.5 "/>
<text text-anchor="middle" x="575.5" y="-1394.5" font-family="Helvetica,sans-Serif" font-size="10.00"> </text>
</g>
<!-- Node7&#45;&gt;Node6 -->
<g id="edge12" class="edge"><title>Node7&#45;&gt;Node6</title>
<path fill="none" stroke="#404040" d="M575.5,-1387.33C575.5,-1324.24 575.5,-1166.61 575.5,-1054.65"/>
<polygon fill="none" stroke="#404040" points="575.5,-1054.6 571.5,-1048.6 575.5,-1042.6 579.5,-1048.6 575.5,-1054.6"/>
<text text-anchor="middle" x="598.5" y="-1333.5" font-family="Helvetica,sans-Serif" font-size="10.00"> +mParam</text>
</g>
</g>
</svg>
