<?xml version="1.0" encoding="UTF-8" standalone="no"?>
<!DOCTYPE svg PUBLIC "-//W3C//DTD SVG 1.1//EN"
 "http://www.w3.org/Graphics/SVG/1.1/DTD/svg11.dtd">
<!-- Generated by graphviz version 2.38.0 (20140413.2041)
 -->
<!-- Title: Chronogram Pages: 1 -->
<svg width="1246pt" height="1723pt"
 viewBox="0.00 0.00 1246.00 1723.00" xmlns="http://www.w3.org/2000/svg" xmlns:xlink="http://www.w3.org/1999/xlink">
<g id="graph0" class="graph" transform="scale(1 1) rotate(0) translate(4 1719)">
<title>Chronogram</title>
<!-- Node6 -->
<g id="node1" class="node"><title>Node6</title>
<polygon fill="#bfbfbf" stroke="black" points="364,-0.5 364,-519.5 524,-519.5 524,-0.5 364,-0.5"/>
<text text-anchor="middle" x="444" y="-507.5" font-family="Helvetica,sans-Serif" font-size="10.00">Chronogram</text>
<polyline fill="none" stroke="black" points="364,-500.5 524,-500.5 "/>
<text text-anchor="middle" x="444" y="-488.5" font-family="Helvetica,sans-Serif" font-size="10.00"> </text>
<polyline fill="none" stroke="black" points="364,-481.5 524,-481.5 "/>
<text text-anchor="start" x="372" y="-469.5" font-family="Helvetica,sans-Serif" font-size="10.00">+ Chronogram()</text>
<text text-anchor="start" x="372" y="-458.5" font-family="Helvetica,sans-Serif" font-size="10.00">+ Chronogram()</text>
<text text-anchor="start" x="372" y="-447.5" font-family="Helvetica,sans-Serif" font-size="10.00">+ Chronogram()</text>
<text text-anchor="start" x="372" y="-436.5" font-family="Helvetica,sans-Serif" font-size="10.00">+ PrintAges()</text>
<text text-anchor="start" x="372" y="-425.5" font-family="Helvetica,sans-Serif" font-size="10.00">+ GetDateList()</text>
<text text-anchor="start" x="372" y="-414.5" font-family="Helvetica,sans-Serif" font-size="10.00">+ PushAges()</text>
<text text-anchor="start" x="372" y="-403.5" font-family="Helvetica,sans-Serif" font-size="10.00">+ GetLeafList()</text>
<text text-anchor="start" x="372" y="-392.5" font-family="Helvetica,sans-Serif" font-size="10.00">+ PushLeaves()</text>
<text text-anchor="start" x="372" y="-381.5" font-family="Helvetica,sans-Serif" font-size="10.00">+ ~Chronogram()</text>
<text text-anchor="start" x="372" y="-370.5" font-family="Helvetica,sans-Serif" font-size="10.00">+ GetTree()</text>
<text text-anchor="start" x="372" y="-359.5" font-family="Helvetica,sans-Serif" font-size="10.00">+ GetBranchLength()</text>
<text text-anchor="start" x="372" y="-348.5" font-family="Helvetica,sans-Serif" font-size="10.00">+ GetNodeDate()</text>
<text text-anchor="start" x="372" y="-337.5" font-family="Helvetica,sans-Serif" font-size="10.00">+ GetRootAge()</text>
<text text-anchor="start" x="372" y="-326.5" font-family="Helvetica,sans-Serif" font-size="10.00">+ GetRate()</text>
<text text-anchor="start" x="372" y="-315.5" font-family="Helvetica,sans-Serif" font-size="10.00">+ MultiplyTimes()</text>
<text text-anchor="start" x="372" y="-304.5" font-family="Helvetica,sans-Serif" font-size="10.00">+ GetAbsoluteTime()</text>
<text text-anchor="start" x="372" y="-293.5" font-family="Helvetica,sans-Serif" font-size="10.00">+ GetBranchTimeLength()</text>
<text text-anchor="start" x="372" y="-282.5" font-family="Helvetica,sans-Serif" font-size="10.00">+ Sample()</text>
<text text-anchor="start" x="372" y="-271.5" font-family="Helvetica,sans-Serif" font-size="10.00">+ drawSample()</text>
<text text-anchor="start" x="372" y="-260.5" font-family="Helvetica,sans-Serif" font-size="10.00">+ Clamp()</text>
<text text-anchor="start" x="372" y="-249.5" font-family="Helvetica,sans-Serif" font-size="10.00">+ specialUpdate()</text>
<text text-anchor="start" x="372" y="-238.5" font-family="Helvetica,sans-Serif" font-size="10.00">+ GetTotalTime()</text>
<text text-anchor="start" x="372" y="-227.5" font-family="Helvetica,sans-Serif" font-size="10.00">+ RecursiveClamp()</text>
<text text-anchor="start" x="372" y="-216.5" font-family="Helvetica,sans-Serif" font-size="10.00">+ RecursiveGetTotalTime()</text>
<text text-anchor="start" x="372" y="-205.5" font-family="Helvetica,sans-Serif" font-size="10.00">+ RecursiveUpdate()</text>
<text text-anchor="start" x="372" y="-194.5" font-family="Helvetica,sans-Serif" font-size="10.00">+ Move()</text>
<text text-anchor="start" x="372" y="-183.5" font-family="Helvetica,sans-Serif" font-size="10.00">+ EmptyMove()</text>
<text text-anchor="start" x="372" y="-172.5" font-family="Helvetica,sans-Serif" font-size="10.00">+ RecursiveRegister()</text>
<text text-anchor="start" x="372" y="-161.5" font-family="Helvetica,sans-Serif" font-size="10.00">+ GetMinDeltaTime()</text>
<text text-anchor="start" x="372" y="-150.5" font-family="Helvetica,sans-Serif" font-size="10.00">+ compposreal()</text>
<text text-anchor="start" x="372" y="-139.5" font-family="Helvetica,sans-Serif" font-size="10.00"># CreateNodeVal()</text>
<text text-anchor="start" x="372" y="-128.5" font-family="Helvetica,sans-Serif" font-size="10.00"># RecursiveCreateNode()</text>
<text text-anchor="start" x="372" y="-117.5" font-family="Helvetica,sans-Serif" font-size="10.00"># CreateBranchVal()</text>
<text text-anchor="start" x="372" y="-106.5" font-family="Helvetica,sans-Serif" font-size="10.00"># RecursiveCreateBranch()</text>
<text text-anchor="start" x="372" y="-95.5" font-family="Helvetica,sans-Serif" font-size="10.00"># RecursiveMultiplyTimes()</text>
<text text-anchor="start" x="372" y="-84.5" font-family="Helvetica,sans-Serif" font-size="10.00"># RecursiveSetNodesValues()</text>
<text text-anchor="start" x="372" y="-73.5" font-family="Helvetica,sans-Serif" font-size="10.00"># RecursiveEqualizeLeafNodes()</text>
<text text-anchor="start" x="372" y="-62.5" font-family="Helvetica,sans-Serif" font-size="10.00"># RecursiveNormalizeTree()</text>
<text text-anchor="start" x="372" y="-51.5" font-family="Helvetica,sans-Serif" font-size="10.00"># RecursiveUpdateBranches()</text>
<text text-anchor="start" x="372" y="-40.5" font-family="Helvetica,sans-Serif" font-size="10.00"># SetMinMax()</text>
<text text-anchor="start" x="372" y="-29.5" font-family="Helvetica,sans-Serif" font-size="10.00"># MoveTime()</text>
<text text-anchor="start" x="372" y="-18.5" font-family="Helvetica,sans-Serif" font-size="10.00"># GeneralMoveTime()</text>
<text text-anchor="start" x="372" y="-7.5" font-family="Helvetica,sans-Serif" font-size="10.00"># EmptyMove()</text>
</g>
<!-- Node7 -->
<g id="node2" class="node"><title>Node7</title>
<g id="a_node2"><a xlink:href="classNodeBranchProcess.html" target="_top" xlink:title="{NodeBranchProcess\&lt;\l PosReal, PosReal \&gt;\n||+ val()\l+ val()\l+ setval()\l+ setval()\l+ drawSample()\l+ GetLogProb()\l+ GetLogProb()\l}">
<polygon fill="none" stroke="black" points="127.5,-837 127.5,-971 240.5,-971 240.5,-837 127.5,-837"/>
<text text-anchor="start" x="135.5" y="-959" font-family="Helvetica,sans-Serif" font-size="10.00">NodeBranchProcess&lt;</text>
<text text-anchor="middle" x="184" y="-948" font-family="Helvetica,sans-Serif" font-size="10.00"> PosReal, PosReal &gt;</text>
<polyline fill="none" stroke="black" points="127.5,-941 240.5,-941 "/>
<text text-anchor="middle" x="184" y="-929" font-family="Helvetica,sans-Serif" font-size="10.00"> </text>
<polyline fill="none" stroke="black" points="127.5,-922 240.5,-922 "/>
<text text-anchor="start" x="135.5" y="-910" font-family="Helvetica,sans-Serif" font-size="10.00">+ val()</text>
<text text-anchor="start" x="135.5" y="-899" font-family="Helvetica,sans-Serif" font-size="10.00">+ val()</text>
<text text-anchor="start" x="135.5" y="-888" font-family="Helvetica,sans-Serif" font-size="10.00">+ setval()</text>
<text text-anchor="start" x="135.5" y="-877" font-family="Helvetica,sans-Serif" font-size="10.00">+ setval()</text>
<text text-anchor="start" x="135.5" y="-866" font-family="Helvetica,sans-Serif" font-size="10.00">+ drawSample()</text>
<text text-anchor="start" x="135.5" y="-855" font-family="Helvetica,sans-Serif" font-size="10.00">+ GetLogProb()</text>
<text text-anchor="start" x="135.5" y="-844" font-family="Helvetica,sans-Serif" font-size="10.00">+ GetLogProb()</text>
</a>
</g>
</g>
<!-- Node7&#45;&gt;Node6 -->
<g id="edge1" class="edge"><title>Node7&#45;&gt;Node6</title>
<path fill="none" stroke="midnightblue" d="M214.618,-827.398C251.08,-737.363 313.396,-583.491 363.881,-458.832"/>
<polygon fill="none" stroke="midnightblue" points="211.355,-826.13 210.845,-836.713 217.843,-828.758 211.355,-826.13"/>
</g>
<!-- Node8 -->
<g id="node3" class="node"><title>Node8</title>
<polygon fill="none" stroke="#bfbfbf" points="0,-1652 0,-1709 48,-1709 48,-1652 0,-1652"/>
<text text-anchor="middle" x="24" y="-1697" font-family="Helvetica,sans-Serif" font-size="10.00">MCMC</text>
<polyline fill="none" stroke="#bfbfbf" points="0,-1690 48,-1690 "/>
<text text-anchor="middle" x="24" y="-1678" font-family="Helvetica,sans-Serif" font-size="10.00"> </text>
<polyline fill="none" stroke="#bfbfbf" points="0,-1671 48,-1671 "/>
<text text-anchor="middle" x="24" y="-1659" font-family="Helvetica,sans-Serif" font-size="10.00"> </text>
</g>
<!-- Node8&#45;&gt;Node7 -->
<g id="edge2" class="edge"><title>Node8&#45;&gt;Node7</title>
<path fill="none" stroke="midnightblue" d="M22.4449,-1641.7C20.446,-1574.33 19.6452,-1429.38 43,-1310 67.1224,-1186.7 120.71,-1049.97 154.435,-971.098"/>
<polygon fill="none" stroke="midnightblue" points="18.9511,-1641.95 22.7725,-1651.83 25.9474,-1641.72 18.9511,-1641.95"/>
</g>
<!-- Node10 -->
<g id="node5" class="node"><title>Node10</title>
<g id="a_node5"><a xlink:href="classNodeBranchProcess.html" target="_top" xlink:title="{NodeBranchProcess\&lt;\l U, V \&gt;\n||+ val()\l+ setval()\l+ val()\l+ setval()\l+ drawSample()\l+ GetLogProb()\l+ GetLogProb()\l}">
<polygon fill="none" stroke="black" points="52.5,-1387.5 52.5,-1521.5 165.5,-1521.5 165.5,-1387.5 52.5,-1387.5"/>
<text text-anchor="start" x="60.5" y="-1509.5" font-family="Helvetica,sans-Serif" font-size="10.00">NodeBranchProcess&lt;</text>
<text text-anchor="middle" x="109" y="-1498.5" font-family="Helvetica,sans-Serif" font-size="10.00"> U, V &gt;</text>
<polyline fill="none" stroke="black" points="52.5,-1491.5 165.5,-1491.5 "/>
<text text-anchor="middle" x="109" y="-1479.5" font-family="Helvetica,sans-Serif" font-size="10.00"> </text>
<polyline fill="none" stroke="black" points="52.5,-1472.5 165.5,-1472.5 "/>
<text text-anchor="start" x="60.5" y="-1460.5" font-family="Helvetica,sans-Serif" font-size="10.00">+ val()</text>
<text text-anchor="start" x="60.5" y="-1449.5" font-family="Helvetica,sans-Serif" font-size="10.00">+ setval()</text>
<text text-anchor="start" x="60.5" y="-1438.5" font-family="Helvetica,sans-Serif" font-size="10.00">+ val()</text>
<text text-anchor="start" x="60.5" y="-1427.5" font-family="Helvetica,sans-Serif" font-size="10.00">+ setval()</text>
<text text-anchor="start" x="60.5" y="-1416.5" font-family="Helvetica,sans-Serif" font-size="10.00">+ drawSample()</text>
<text text-anchor="start" x="60.5" y="-1405.5" font-family="Helvetica,sans-Serif" font-size="10.00">+ GetLogProb()</text>
<text text-anchor="start" x="60.5" y="-1394.5" font-family="Helvetica,sans-Serif" font-size="10.00">+ GetLogProb()</text>
</a>
</g>
</g>
<!-- Node8&#45;&gt;Node10 -->
<g id="edge5" class="edge"><title>Node8&#45;&gt;Node10</title>
<path fill="none" stroke="midnightblue" d="M38.2446,-1641.96C50.6499,-1609.27 68.9272,-1561.1 83.7978,-1521.92"/>
<polygon fill="none" stroke="midnightblue" points="34.869,-1640.99 34.5934,-1651.58 41.4136,-1643.48 34.869,-1640.99"/>
</g>
<!-- Node9 -->
<g id="node4" class="node"><title>Node9</title>
<polygon fill="none" stroke="#bfbfbf" points="183.5,-1415 183.5,-1494 312.5,-1494 312.5,-1415 183.5,-1415"/>
<text text-anchor="start" x="191.5" y="-1482" font-family="Helvetica,sans-Serif" font-size="10.00">NodeBranchValPtrTree</text>
<text text-anchor="start" x="191.5" y="-1471" font-family="Helvetica,sans-Serif" font-size="10.00">&lt; Rvar&lt; PosReal &gt;, Dvar</text>
<text text-anchor="middle" x="248" y="-1460" font-family="Helvetica,sans-Serif" font-size="10.00">&lt; PosReal &gt; &gt;</text>
<polyline fill="none" stroke="#bfbfbf" points="183.5,-1453 312.5,-1453 "/>
<text text-anchor="middle" x="248" y="-1441" font-family="Helvetica,sans-Serif" font-size="10.00"> </text>
<polyline fill="none" stroke="#bfbfbf" points="183.5,-1434 312.5,-1434 "/>
<text text-anchor="middle" x="248" y="-1422" font-family="Helvetica,sans-Serif" font-size="10.00"> </text>
</g>
<!-- Node9&#45;&gt;Node7 -->
<g id="edge3" class="edge"><title>Node9&#45;&gt;Node7</title>
<path fill="none" stroke="midnightblue" d="M242.905,-1404.62C238.759,-1365.27 232.685,-1308.56 227,-1259 215.482,-1158.59 201.167,-1042.29 192.307,-971.191"/>
<polygon fill="none" stroke="midnightblue" points="239.442,-1405.16 243.968,-1414.74 246.403,-1404.42 239.442,-1405.16"/>
</g>
<!-- Node10&#45;&gt;Node7 -->
<g id="edge4" class="edge"><title>Node10&#45;&gt;Node7</title>
<path fill="none" stroke="orange" d="M111.174,-1376.76C112.744,-1340.9 115.428,-1297.67 120,-1259 131.952,-1157.9 154.63,-1042.03 169.53,-971.185"/>
<polygon fill="orange" stroke="orange" points="107.66,-1377.02 110.741,-1387.16 114.654,-1377.31 107.66,-1377.02"/>
<text text-anchor="middle" x="171.5" y="-1273" font-family="Helvetica,sans-Serif" font-size="10.00"> &lt; PosReal, PosReal &gt;</text>
</g>
<!-- Node11 -->
<g id="node6" class="node"><title>Node11</title>
<polygon fill="none" stroke="#bfbfbf" points="66.5,-1646.5 66.5,-1714.5 199.5,-1714.5 199.5,-1646.5 66.5,-1646.5"/>
<text text-anchor="start" x="74.5" y="-1702.5" font-family="Helvetica,sans-Serif" font-size="10.00">NodeBranchValPtrTree</text>
<text text-anchor="middle" x="133" y="-1691.5" font-family="Helvetica,sans-Serif" font-size="10.00">&lt; Rvar&lt; U &gt;, Dvar&lt; V &gt; &gt;</text>
<polyline fill="none" stroke="#bfbfbf" points="66.5,-1684.5 199.5,-1684.5 "/>
<text text-anchor="middle" x="133" y="-1672.5" font-family="Helvetica,sans-Serif" font-size="10.00"> </text>
<polyline fill="none" stroke="#bfbfbf" points="66.5,-1665.5 199.5,-1665.5 "/>
<text text-anchor="middle" x="133" y="-1653.5" font-family="Helvetica,sans-Serif" font-size="10.00"> </text>
</g>
<!-- Node11&#45;&gt;Node10 -->
<g id="edge6" class="edge"><title>Node11&#45;&gt;Node10</title>
<path fill="none" stroke="midnightblue" d="M128.378,-1636.36C124.893,-1603.84 120.052,-1558.65 116.081,-1521.59"/>
<polygon fill="none" stroke="midnightblue" points="124.913,-1636.88 129.459,-1646.45 131.873,-1636.13 124.913,-1636.88"/>
</g>
<!-- Node12 -->
<g id="node7" class="node"><title>Node12</title>
<polygon fill="none" stroke="#bfbfbf" points="330.5,-1426 330.5,-1483 359.5,-1483 359.5,-1426 330.5,-1426"/>
<text text-anchor="middle" x="345" y="-1471" font-family="Helvetica,sans-Serif" font-size="10.00">int</text>
<polyline fill="none" stroke="#bfbfbf" points="330.5,-1464 359.5,-1464 "/>
<text text-anchor="middle" x="345" y="-1452" font-family="Helvetica,sans-Serif" font-size="10.00"> </text>
<polyline fill="none" stroke="#bfbfbf" points="330.5,-1445 359.5,-1445 "/>
<text text-anchor="middle" x="345" y="-1433" font-family="Helvetica,sans-Serif" font-size="10.00"> </text>
</g>
<!-- Node12&#45;&gt;Node6 -->
<g id="edge7" class="edge"><title>Node12&#45;&gt;Node6</title>
<path fill="none" stroke="#404040" d="M347.301,-1425.78C357.117,-1307.54 396.138,-837.521 421.511,-531.892"/>
<polygon fill="none" stroke="#404040" points="421.527,-531.691 418.038,-525.381 422.52,-519.732 426.01,-526.043 421.527,-531.691"/>
<text text-anchor="middle" x="439.5" y="-901.5" font-family="Helvetica,sans-Serif" font-size="10.00"> #totnode</text>
</g>
<!-- Node13 -->
<g id="node8" class="node"><title>Node13</title>
<g id="a_node8"><a xlink:href="classTree.html" target="_top" xlink:title="{Tree\n||+ Tree()\l+ Tree()\l+ MakeRandomTree()\l+ Tree()\l+ Tree()\l+ Tree()\l+ ReadFromStream()\l+ ~Tree()\l+ DeleteNextLeaf()\l+ Detach()\l+ Attach()\l+ NNIturn()\l+ RootAtRandom()\l+ RootAt()\l+ ChooseLinkAtRandom()\l+ CountInternalNodes()\l+ ChooseInternalNode()\l+ CountNodes()\l+ ChooseNode()\l+ DrawSubTree()\l+ GrepNode()\l+ RecursiveCheckDegree()\l+ CheckRootDegree()\l+ DeleteUnaryNode()\l+ GetRoot()\l+ GetRoot()\l+ GetTaxonSet()\l+ MakeTaxonSet()\l+ RegisterWith()\l+ RegisterWith()\l+ GetBranchName()\l+ GetNodeName()\l+ EraseInternalNodeName()\l+ EraseInternalNodeName()\l+ GetSize()\l+ GetSize()\l+ GetFullSize()\l+ GetLCA()\l+ Subdivide()\l+ Reduce()\l+ Print()\l+ PrintReduced()\l+ SetIndices()\l+ GetNlink()\l+ GetNbranch()\l+ GetNnode()\l+ GetNode()\l+ GetBranch()\l+ GetLink()\l# CheckIndices()\l# SetIndices()\l# RecursiveGetLCA()\l# ParseGroup()\l# ParseList()\l# RecursiveClone()\l# RecursiveDelete()\l# SetRoot()\l}">
<polygon fill="none" stroke="black" points="506.5,-567.5 506.5,-1240.5 645.5,-1240.5 645.5,-567.5 506.5,-567.5"/>
<text text-anchor="middle" x="576" y="-1228.5" font-family="Helvetica,sans-Serif" font-size="10.00">Tree</text>
<polyline fill="none" stroke="black" points="506.5,-1221.5 645.5,-1221.5 "/>
<text text-anchor="middle" x="576" y="-1209.5" font-family="Helvetica,sans-Serif" font-size="10.00"> </text>
<polyline fill="none" stroke="black" points="506.5,-1202.5 645.5,-1202.5 "/>
<text text-anchor="start" x="514.5" y="-1190.5" font-family="Helvetica,sans-Serif" font-size="10.00">+ Tree()</text>
<text text-anchor="start" x="514.5" y="-1179.5" font-family="Helvetica,sans-Serif" font-size="10.00">+ Tree()</text>
<text text-anchor="start" x="514.5" y="-1168.5" font-family="Helvetica,sans-Serif" font-size="10.00">+ MakeRandomTree()</text>
<text text-anchor="start" x="514.5" y="-1157.5" font-family="Helvetica,sans-Serif" font-size="10.00">+ Tree()</text>
<text text-anchor="start" x="514.5" y="-1146.5" font-family="Helvetica,sans-Serif" font-size="10.00">+ Tree()</text>
<text text-anchor="start" x="514.5" y="-1135.5" font-family="Helvetica,sans-Serif" font-size="10.00">+ Tree()</text>
<text text-anchor="start" x="514.5" y="-1124.5" font-family="Helvetica,sans-Serif" font-size="10.00">+ ReadFromStream()</text>
<text text-anchor="start" x="514.5" y="-1113.5" font-family="Helvetica,sans-Serif" font-size="10.00">+ ~Tree()</text>
<text text-anchor="start" x="514.5" y="-1102.5" font-family="Helvetica,sans-Serif" font-size="10.00">+ DeleteNextLeaf()</text>
<text text-anchor="start" x="514.5" y="-1091.5" font-family="Helvetica,sans-Serif" font-size="10.00">+ Detach()</text>
<text text-anchor="start" x="514.5" y="-1080.5" font-family="Helvetica,sans-Serif" font-size="10.00">+ Attach()</text>
<text text-anchor="start" x="514.5" y="-1069.5" font-family="Helvetica,sans-Serif" font-size="10.00">+ NNIturn()</text>
<text text-anchor="start" x="514.5" y="-1058.5" font-family="Helvetica,sans-Serif" font-size="10.00">+ RootAtRandom()</text>
<text text-anchor="start" x="514.5" y="-1047.5" font-family="Helvetica,sans-Serif" font-size="10.00">+ RootAt()</text>
<text text-anchor="start" x="514.5" y="-1036.5" font-family="Helvetica,sans-Serif" font-size="10.00">+ ChooseLinkAtRandom()</text>
<text text-anchor="start" x="514.5" y="-1025.5" font-family="Helvetica,sans-Serif" font-size="10.00">+ CountInternalNodes()</text>
<text text-anchor="start" x="514.5" y="-1014.5" font-family="Helvetica,sans-Serif" font-size="10.00">+ ChooseInternalNode()</text>
<text text-anchor="start" x="514.5" y="-1003.5" font-family="Helvetica,sans-Serif" font-size="10.00">+ CountNodes()</text>
<text text-anchor="start" x="514.5" y="-992.5" font-family="Helvetica,sans-Serif" font-size="10.00">+ ChooseNode()</text>
<text text-anchor="start" x="514.5" y="-981.5" font-family="Helvetica,sans-Serif" font-size="10.00">+ DrawSubTree()</text>
<text text-anchor="start" x="514.5" y="-970.5" font-family="Helvetica,sans-Serif" font-size="10.00">+ GrepNode()</text>
<text text-anchor="start" x="514.5" y="-959.5" font-family="Helvetica,sans-Serif" font-size="10.00">+ RecursiveCheckDegree()</text>
<text text-anchor="start" x="514.5" y="-948.5" font-family="Helvetica,sans-Serif" font-size="10.00">+ CheckRootDegree()</text>
<text text-anchor="start" x="514.5" y="-937.5" font-family="Helvetica,sans-Serif" font-size="10.00">+ DeleteUnaryNode()</text>
<text text-anchor="start" x="514.5" y="-926.5" font-family="Helvetica,sans-Serif" font-size="10.00">+ GetRoot()</text>
<text text-anchor="start" x="514.5" y="-915.5" font-family="Helvetica,sans-Serif" font-size="10.00">+ GetRoot()</text>
<text text-anchor="start" x="514.5" y="-904.5" font-family="Helvetica,sans-Serif" font-size="10.00">+ GetTaxonSet()</text>
<text text-anchor="start" x="514.5" y="-893.5" font-family="Helvetica,sans-Serif" font-size="10.00">+ MakeTaxonSet()</text>
<text text-anchor="start" x="514.5" y="-882.5" font-family="Helvetica,sans-Serif" font-size="10.00">+ RegisterWith()</text>
<text text-anchor="start" x="514.5" y="-871.5" font-family="Helvetica,sans-Serif" font-size="10.00">+ RegisterWith()</text>
<text text-anchor="start" x="514.5" y="-860.5" font-family="Helvetica,sans-Serif" font-size="10.00">+ GetBranchName()</text>
<text text-anchor="start" x="514.5" y="-849.5" font-family="Helvetica,sans-Serif" font-size="10.00">+ GetNodeName()</text>
<text text-anchor="start" x="514.5" y="-838.5" font-family="Helvetica,sans-Serif" font-size="10.00">+ EraseInternalNodeName()</text>
<text text-anchor="start" x="514.5" y="-827.5" font-family="Helvetica,sans-Serif" font-size="10.00">+ EraseInternalNodeName()</text>
<text text-anchor="start" x="514.5" y="-816.5" font-family="Helvetica,sans-Serif" font-size="10.00">+ GetSize()</text>
<text text-anchor="start" x="514.5" y="-805.5" font-family="Helvetica,sans-Serif" font-size="10.00">+ GetSize()</text>
<text text-anchor="start" x="514.5" y="-794.5" font-family="Helvetica,sans-Serif" font-size="10.00">+ GetFullSize()</text>
<text text-anchor="start" x="514.5" y="-783.5" font-family="Helvetica,sans-Serif" font-size="10.00">+ GetLCA()</text>
<text text-anchor="start" x="514.5" y="-772.5" font-family="Helvetica,sans-Serif" font-size="10.00">+ Subdivide()</text>
<text text-anchor="start" x="514.5" y="-761.5" font-family="Helvetica,sans-Serif" font-size="10.00">+ Reduce()</text>
<text text-anchor="start" x="514.5" y="-750.5" font-family="Helvetica,sans-Serif" font-size="10.00">+ Print()</text>
<text text-anchor="start" x="514.5" y="-739.5" font-family="Helvetica,sans-Serif" font-size="10.00">+ PrintReduced()</text>
<text text-anchor="start" x="514.5" y="-728.5" font-family="Helvetica,sans-Serif" font-size="10.00">+ SetIndices()</text>
<text text-anchor="start" x="514.5" y="-717.5" font-family="Helvetica,sans-Serif" font-size="10.00">+ GetNlink()</text>
<text text-anchor="start" x="514.5" y="-706.5" font-family="Helvetica,sans-Serif" font-size="10.00">+ GetNbranch()</text>
<text text-anchor="start" x="514.5" y="-695.5" font-family="Helvetica,sans-Serif" font-size="10.00">+ GetNnode()</text>
<text text-anchor="start" x="514.5" y="-684.5" font-family="Helvetica,sans-Serif" font-size="10.00">+ GetNode()</text>
<text text-anchor="start" x="514.5" y="-673.5" font-family="Helvetica,sans-Serif" font-size="10.00">+ GetBranch()</text>
<text text-anchor="start" x="514.5" y="-662.5" font-family="Helvetica,sans-Serif" font-size="10.00">+ GetLink()</text>
<text text-anchor="start" x="514.5" y="-651.5" font-family="Helvetica,sans-Serif" font-size="10.00"># CheckIndices()</text>
<text text-anchor="start" x="514.5" y="-640.5" font-family="Helvetica,sans-Serif" font-size="10.00"># SetIndices()</text>
<text text-anchor="start" x="514.5" y="-629.5" font-family="Helvetica,sans-Serif" font-size="10.00"># RecursiveGetLCA()</text>
<text text-anchor="start" x="514.5" y="-618.5" font-family="Helvetica,sans-Serif" font-size="10.00"># ParseGroup()</text>
<text text-anchor="start" x="514.5" y="-607.5" font-family="Helvetica,sans-Serif" font-size="10.00"># ParseList()</text>
<text text-anchor="start" x="514.5" y="-596.5" font-family="Helvetica,sans-Serif" font-size="10.00"># RecursiveClone()</text>
<text text-anchor="start" x="514.5" y="-585.5" font-family="Helvetica,sans-Serif" font-size="10.00"># RecursiveDelete()</text>
<text text-anchor="start" x="514.5" y="-574.5" font-family="Helvetica,sans-Serif" font-size="10.00"># SetRoot()</text>
</a>
</g>
</g>
<!-- Node12&#45;&gt;Node13 -->
<g id="edge14" class="edge"><title>Node12&#45;&gt;Node13</title>
<path fill="none" stroke="#404040" d="M341.696,-1425.86C339.498,-1394.24 340.95,-1342.64 368,-1310 383.072,-1291.82 399.711,-1306.94 418,-1292 438.54,-1275.22 437.372,-1264.84 449,-1241 467.906,-1202.24 485.865,-1159.89 502.01,-1118.74"/>
<polygon fill="none" stroke="#404040" points="502.051,-1118.63 500.5,-1111.59 506.405,-1107.45 507.955,-1114.49 502.051,-1118.63"/>
<text text-anchor="middle" x="463.5" y="-1284" font-family="Helvetica,sans-Serif" font-size="10.00"> #Nlink</text>
<text text-anchor="middle" x="463.5" y="-1273" font-family="Helvetica,sans-Serif" font-size="10.00">#Nbranch</text>
<text text-anchor="middle" x="463.5" y="-1262" font-family="Helvetica,sans-Serif" font-size="10.00">#Nnode</text>
</g>
<!-- Node13&#45;&gt;Node6 -->
<g id="edge8" class="edge"><title>Node13&#45;&gt;Node6</title>
<path fill="none" stroke="#404040" d="M507.004,-567.428C504.545,-555.469 502.092,-543.538 499.658,-531.7"/>
<polygon fill="none" stroke="#404040" points="499.648,-531.65 494.521,-526.578 497.231,-519.896 502.357,-524.967 499.648,-531.65"/>
<text text-anchor="middle" x="515.5" y="-541" font-family="Helvetica,sans-Serif" font-size="10.00"> #tree</text>
</g>
<!-- Node14 -->
<g id="node9" class="node"><title>Node14</title>
<g id="a_node9"><a xlink:href="classNewickTree.html" target="_top" xlink:title="{NewickTree\n||+ ~NewickTree()\l+ GetRoot()\l+ GetRoot()\l+ ToStream()\l+ ToStream()\l+ ToStreamSimplified()\l+ GetLeftMost()\l+ GetRightMost()\l+ GetNodeName()\l+ GetBranchName()\l+ Simplify()\l}">
<polygon fill="none" stroke="black" points="377.5,-1371 377.5,-1538 494.5,-1538 494.5,-1371 377.5,-1371"/>
<text text-anchor="middle" x="436" y="-1526" font-family="Helvetica,sans-Serif" font-size="10.00">NewickTree</text>
<polyline fill="none" stroke="black" points="377.5,-1519 494.5,-1519 "/>
<text text-anchor="middle" x="436" y="-1507" font-family="Helvetica,sans-Serif" font-size="10.00"> </text>
<polyline fill="none" stroke="black" points="377.5,-1500 494.5,-1500 "/>
<text text-anchor="start" x="385.5" y="-1488" font-family="Helvetica,sans-Serif" font-size="10.00">+ ~NewickTree()</text>
<text text-anchor="start" x="385.5" y="-1477" font-family="Helvetica,sans-Serif" font-size="10.00">+ GetRoot()</text>
<text text-anchor="start" x="385.5" y="-1466" font-family="Helvetica,sans-Serif" font-size="10.00">+ GetRoot()</text>
<text text-anchor="start" x="385.5" y="-1455" font-family="Helvetica,sans-Serif" font-size="10.00">+ ToStream()</text>
<text text-anchor="start" x="385.5" y="-1444" font-family="Helvetica,sans-Serif" font-size="10.00">+ ToStream()</text>
<text text-anchor="start" x="385.5" y="-1433" font-family="Helvetica,sans-Serif" font-size="10.00">+ ToStreamSimplified()</text>
<text text-anchor="start" x="385.5" y="-1422" font-family="Helvetica,sans-Serif" font-size="10.00">+ GetLeftMost()</text>
<text text-anchor="start" x="385.5" y="-1411" font-family="Helvetica,sans-Serif" font-size="10.00">+ GetRightMost()</text>
<text text-anchor="start" x="385.5" y="-1400" font-family="Helvetica,sans-Serif" font-size="10.00">+ GetNodeName()</text>
<text text-anchor="start" x="385.5" y="-1389" font-family="Helvetica,sans-Serif" font-size="10.00">+ GetBranchName()</text>
<text text-anchor="start" x="385.5" y="-1378" font-family="Helvetica,sans-Serif" font-size="10.00">+ Simplify()</text>
</a>
</g>
</g>
<!-- Node14&#45;&gt;Node13 -->
<g id="edge9" class="edge"><title>Node14&#45;&gt;Node13</title>
<path fill="none" stroke="midnightblue" d="M472.969,-1361.38C481.224,-1338.9 489.459,-1314.76 496,-1292 500.807,-1275.27 505.448,-1258.05 509.907,-1240.61"/>
<polygon fill="none" stroke="midnightblue" points="469.632,-1360.31 469.434,-1370.9 476.195,-1362.74 469.632,-1360.31"/>
</g>
<!-- Node15 -->
<g id="node10" class="node"><title>Node15</title>
<polygon fill="none" stroke="#bfbfbf" points="418.5,-1652 418.5,-1709 453.5,-1709 453.5,-1652 418.5,-1652"/>
<text text-anchor="middle" x="436" y="-1697" font-family="Helvetica,sans-Serif" font-size="10.00">bool</text>
<polyline fill="none" stroke="#bfbfbf" points="418.5,-1690 453.5,-1690 "/>
<text text-anchor="middle" x="436" y="-1678" font-family="Helvetica,sans-Serif" font-size="10.00"> </text>
<polyline fill="none" stroke="#bfbfbf" points="418.5,-1671 453.5,-1671 "/>
<text text-anchor="middle" x="436" y="-1659" font-family="Helvetica,sans-Serif" font-size="10.00"> </text>
</g>
<!-- Node15&#45;&gt;Node14 -->
<g id="edge10" class="edge"><title>Node15&#45;&gt;Node14</title>
<path fill="none" stroke="#404040" d="M436,-1651.58C436,-1626.19 436,-1587.21 436,-1550.67"/>
<polygon fill="none" stroke="#404040" points="436,-1550.39 432,-1544.39 436,-1538.39 440,-1544.39 436,-1550.39"/>
<text text-anchor="middle" x="457.5" y="-1620" font-family="Helvetica,sans-Serif" font-size="10.00"> #simplify</text>
</g>
<!-- Node16 -->
<g id="node11" class="node"><title>Node16</title>
<polygon fill="none" stroke="#bfbfbf" points="512.5,-1426 512.5,-1483 639.5,-1483 639.5,-1426 512.5,-1426"/>
<text text-anchor="middle" x="576" y="-1471" font-family="Helvetica,sans-Serif" font-size="10.00">map&lt; int, const Node * &gt;</text>
<polyline fill="none" stroke="#bfbfbf" points="512.5,-1464 639.5,-1464 "/>
<text text-anchor="middle" x="576" y="-1452" font-family="Helvetica,sans-Serif" font-size="10.00"> </text>
<polyline fill="none" stroke="#bfbfbf" points="512.5,-1445 639.5,-1445 "/>
<text text-anchor="middle" x="576" y="-1433" font-family="Helvetica,sans-Serif" font-size="10.00"> </text>
</g>
<!-- Node16&#45;&gt;Node13 -->
<g id="edge11" class="edge"><title>Node16&#45;&gt;Node13</title>
<path fill="none" stroke="#404040" d="M576,-1425.92C576,-1390.68 576,-1325.48 576,-1252.84"/>
<polygon fill="none" stroke="#404040" points="576,-1252.64 572,-1246.64 576,-1240.64 580,-1246.64 576,-1252.64"/>
<text text-anchor="middle" x="600.5" y="-1273" font-family="Helvetica,sans-Serif" font-size="10.00"> #nodemap</text>
</g>
<!-- Node17 -->
<g id="node12" class="node"><title>Node17</title>
<g id="a_node12"><a xlink:href="classTaxonSet.html" target="_top" xlink:title="{TaxonSet\n||+ TaxonSet()\l+ TaxonSet()\l+ ~TaxonSet()\l+ GetNtaxa()\l+ GetTaxon()\l+ GetTaxonIndex()\l+ GetTaxonIndexWithIncompleteName()\l+ ToStream()\l}">
<polygon fill="none" stroke="black" points="657.5,-1387.5 657.5,-1521.5 850.5,-1521.5 850.5,-1387.5 657.5,-1387.5"/>
<text text-anchor="middle" x="754" y="-1509.5" font-family="Helvetica,sans-Serif" font-size="10.00">TaxonSet</text>
<polyline fill="none" stroke="black" points="657.5,-1502.5 850.5,-1502.5 "/>
<text text-anchor="middle" x="754" y="-1490.5" font-family="Helvetica,sans-Serif" font-size="10.00"> </text>
<polyline fill="none" stroke="black" points="657.5,-1483.5 850.5,-1483.5 "/>
<text text-anchor="start" x="665.5" y="-1471.5" font-family="Helvetica,sans-Serif" font-size="10.00">+ TaxonSet()</text>
<text text-anchor="start" x="665.5" y="-1460.5" font-family="Helvetica,sans-Serif" font-size="10.00">+ TaxonSet()</text>
<text text-anchor="start" x="665.5" y="-1449.5" font-family="Helvetica,sans-Serif" font-size="10.00">+ ~TaxonSet()</text>
<text text-anchor="start" x="665.5" y="-1438.5" font-family="Helvetica,sans-Serif" font-size="10.00">+ GetNtaxa()</text>
<text text-anchor="start" x="665.5" y="-1427.5" font-family="Helvetica,sans-Serif" font-size="10.00">+ GetTaxon()</text>
<text text-anchor="start" x="665.5" y="-1416.5" font-family="Helvetica,sans-Serif" font-size="10.00">+ GetTaxonIndex()</text>
<text text-anchor="start" x="665.5" y="-1405.5" font-family="Helvetica,sans-Serif" font-size="10.00">+ GetTaxonIndexWithIncompleteName()</text>
<text text-anchor="start" x="665.5" y="-1394.5" font-family="Helvetica,sans-Serif" font-size="10.00">+ ToStream()</text>
</a>
</g>
</g>
<!-- Node17&#45;&gt;Node13 -->
<g id="edge12" class="edge"><title>Node17&#45;&gt;Node13</title>
<path fill="none" stroke="#404040" d="M718.959,-1387.49C698.161,-1346.26 672.518,-1291.57 655,-1241 653.078,-1235.45 651.188,-1229.84 649.33,-1224.17"/>
<polygon fill="none" stroke="#404040" points="649.238,-1223.88 643.592,-1219.4 645.56,-1212.46 651.207,-1216.95 649.238,-1223.88"/>
<text text-anchor="middle" x="692" y="-1273" font-family="Helvetica,sans-Serif" font-size="10.00"> #taxset</text>
</g>
<!-- Node18 -->
<g id="node13" class="node"><title>Node18</title>
<polygon fill="none" stroke="#bfbfbf" points="868.5,-1426 868.5,-1483 963.5,-1483 963.5,-1426 868.5,-1426"/>
<text text-anchor="middle" x="916" y="-1471" font-family="Helvetica,sans-Serif" font-size="10.00">map&lt; int, Link * &gt;</text>
<polyline fill="none" stroke="#bfbfbf" points="868.5,-1464 963.5,-1464 "/>
<text text-anchor="middle" x="916" y="-1452" font-family="Helvetica,sans-Serif" font-size="10.00"> </text>
<polyline fill="none" stroke="#bfbfbf" points="868.5,-1445 963.5,-1445 "/>
<text text-anchor="middle" x="916" y="-1433" font-family="Helvetica,sans-Serif" font-size="10.00"> </text>
</g>
<!-- Node18&#45;&gt;Node13 -->
<g id="edge13" class="edge"><title>Node18&#45;&gt;Node13</title>
<path fill="none" stroke="#404040" d="M912.043,-1425.92C906.044,-1393.87 891.667,-1341.39 859,-1310 809.741,-1262.67 778.907,-1280.31 714,-1259 687.952,-1250.45 673.744,-1261.01 655,-1241 654.488,-1240.45 653.979,-1239.9 653.473,-1239.35"/>
<polygon fill="none" stroke="#404040" points="653.396,-1239.26 646.445,-1237.34 645.546,-1230.19 652.496,-1232.11 653.396,-1239.26"/>
<text text-anchor="middle" x="858.5" y="-1273" font-family="Helvetica,sans-Serif" font-size="10.00"> #linkmap</text>
</g>
<!-- Node19 -->
<g id="node14" class="node"><title>Node19</title>
<g id="a_node14"><a xlink:href="classLink.html" target="_top" xlink:title="{Link\n||+ Link()\l+ Link()\l+ Next()\l+ Out()\l+ GetBranch()\l+ GetNode()\l+ SetBranch()\l+ SetNode()\l+ GetNodeLeafSet()\l+ SetIndex()\l+ GetIndex()\l+ SetOut()\l+ SetNext()\l+ AppendTo()\l+ Insert()\l+ InsertOut()\l+ Knit()\l+ isLeaf()\l+ isUnary()\l+ isRoot()\l+ GetDegree()\l+ GetUp()\l}">
<polygon fill="none" stroke="black" points="982,-1310.5 982,-1598.5 1086,-1598.5 1086,-1310.5 982,-1310.5"/>
<text text-anchor="middle" x="1034" y="-1586.5" font-family="Helvetica,sans-Serif" font-size="10.00">Link</text>
<polyline fill="none" stroke="black" points="982,-1579.5 1086,-1579.5 "/>
<text text-anchor="middle" x="1034" y="-1567.5" font-family="Helvetica,sans-Serif" font-size="10.00"> </text>
<polyline fill="none" stroke="black" points="982,-1560.5 1086,-1560.5 "/>
<text text-anchor="start" x="990" y="-1548.5" font-family="Helvetica,sans-Serif" font-size="10.00">+ Link()</text>
<text text-anchor="start" x="990" y="-1537.5" font-family="Helvetica,sans-Serif" font-size="10.00">+ Link()</text>
<text text-anchor="start" x="990" y="-1526.5" font-family="Helvetica,sans-Serif" font-size="10.00">+ Next()</text>
<text text-anchor="start" x="990" y="-1515.5" font-family="Helvetica,sans-Serif" font-size="10.00">+ Out()</text>
<text text-anchor="start" x="990" y="-1504.5" font-family="Helvetica,sans-Serif" font-size="10.00">+ GetBranch()</text>
<text text-anchor="start" x="990" y="-1493.5" font-family="Helvetica,sans-Serif" font-size="10.00">+ GetNode()</text>
<text text-anchor="start" x="990" y="-1482.5" font-family="Helvetica,sans-Serif" font-size="10.00">+ SetBranch()</text>
<text text-anchor="start" x="990" y="-1471.5" font-family="Helvetica,sans-Serif" font-size="10.00">+ SetNode()</text>
<text text-anchor="start" x="990" y="-1460.5" font-family="Helvetica,sans-Serif" font-size="10.00">+ GetNodeLeafSet()</text>
<text text-anchor="start" x="990" y="-1449.5" font-family="Helvetica,sans-Serif" font-size="10.00">+ SetIndex()</text>
<text text-anchor="start" x="990" y="-1438.5" font-family="Helvetica,sans-Serif" font-size="10.00">+ GetIndex()</text>
<text text-anchor="start" x="990" y="-1427.5" font-family="Helvetica,sans-Serif" font-size="10.00">+ SetOut()</text>
<text text-anchor="start" x="990" y="-1416.5" font-family="Helvetica,sans-Serif" font-size="10.00">+ SetNext()</text>
<text text-anchor="start" x="990" y="-1405.5" font-family="Helvetica,sans-Serif" font-size="10.00">+ AppendTo()</text>
<text text-anchor="start" x="990" y="-1394.5" font-family="Helvetica,sans-Serif" font-size="10.00">+ Insert()</text>
<text text-anchor="start" x="990" y="-1383.5" font-family="Helvetica,sans-Serif" font-size="10.00">+ InsertOut()</text>
<text text-anchor="start" x="990" y="-1372.5" font-family="Helvetica,sans-Serif" font-size="10.00">+ Knit()</text>
<text text-anchor="start" x="990" y="-1361.5" font-family="Helvetica,sans-Serif" font-size="10.00">+ isLeaf()</text>
<text text-anchor="start" x="990" y="-1350.5" font-family="Helvetica,sans-Serif" font-size="10.00">+ isUnary()</text>
<text text-anchor="start" x="990" y="-1339.5" font-family="Helvetica,sans-Serif" font-size="10.00">+ isRoot()</text>
<text text-anchor="start" x="990" y="-1328.5" font-family="Helvetica,sans-Serif" font-size="10.00">+ GetDegree()</text>
<text text-anchor="start" x="990" y="-1317.5" font-family="Helvetica,sans-Serif" font-size="10.00">+ GetUp()</text>
</a>
</g>
</g>
<!-- Node19&#45;&gt;Node13 -->
<g id="edge15" class="edge"><title>Node19&#45;&gt;Node13</title>
<path fill="none" stroke="#404040" d="M981.783,-1322.16C978.685,-1317.93 975.426,-1313.85 972,-1310 941.966,-1276.22 927.161,-1272.44 884,-1259 835.262,-1243.83 693.739,-1274.24 655,-1241 654.901,-1240.91 654.801,-1240.83 654.702,-1240.74"/>
<polygon fill="none" stroke="#404040" points="654.603,-1240.65 647.482,-1239.52 645.791,-1232.51 652.912,-1233.64 654.603,-1240.65"/>
<text text-anchor="middle" x="966.5" y="-1273" font-family="Helvetica,sans-Serif" font-size="10.00"> #root</text>
</g>
<!-- Node20 -->
<g id="node15" class="node"><title>Node20</title>
<polygon fill="none" stroke="#bfbfbf" points="1008,-1652 1008,-1709 1060,-1709 1060,-1652 1008,-1652"/>
<text text-anchor="middle" x="1034" y="-1697" font-family="Helvetica,sans-Serif" font-size="10.00">double *</text>
<polyline fill="none" stroke="#bfbfbf" points="1008,-1690 1060,-1690 "/>
<text text-anchor="middle" x="1034" y="-1678" font-family="Helvetica,sans-Serif" font-size="10.00"> </text>
<polyline fill="none" stroke="#bfbfbf" points="1008,-1671 1060,-1671 "/>
<text text-anchor="middle" x="1034" y="-1659" font-family="Helvetica,sans-Serif" font-size="10.00"> </text>
</g>
<!-- Node20&#45;&gt;Node19 -->
<g id="edge16" class="edge"><title>Node20&#45;&gt;Node19</title>
<path fill="none" stroke="#404040" d="M1034,-1651.58C1034,-1640.18 1034,-1626.04 1034,-1610.61"/>
<polygon fill="none" stroke="#404040" points="1034,-1610.58 1030,-1604.58 1034,-1598.58 1038,-1604.58 1034,-1610.58"/>
<text text-anchor="middle" x="1044" y="-1620" font-family="Helvetica,sans-Serif" font-size="10.00"> +tbl</text>
</g>
<!-- Node21 -->
<g id="node16" class="node"><title>Node21</title>
<polygon fill="none" stroke="#bfbfbf" points="1104,-1426 1104,-1483 1238,-1483 1238,-1426 1104,-1426"/>
<text text-anchor="middle" x="1171" y="-1471" font-family="Helvetica,sans-Serif" font-size="10.00">map&lt; int, const Branch * &gt;</text>
<polyline fill="none" stroke="#bfbfbf" points="1104,-1464 1238,-1464 "/>
<text text-anchor="middle" x="1171" y="-1452" font-family="Helvetica,sans-Serif" font-size="10.00"> </text>
<polyline fill="none" stroke="#bfbfbf" points="1104,-1445 1238,-1445 "/>
<text text-anchor="middle" x="1171" y="-1433" font-family="Helvetica,sans-Serif" font-size="10.00"> </text>
</g>
<!-- Node21&#45;&gt;Node13 -->
<g id="edge17" class="edge"><title>Node21&#45;&gt;Node13</title>
<path fill="none" stroke="#404040" d="M1162.45,-1425.8C1151.43,-1394.13 1129.48,-1342.47 1095,-1310 1055.19,-1272.5 1036.11,-1272.06 983,-1259 947.556,-1250.29 682.978,-1264.44 655,-1241 654.9,-1240.92 654.799,-1240.83 654.699,-1240.75"/>
<polygon fill="none" stroke="#404040" points="654.603,-1240.66 647.47,-1239.61 645.7,-1232.61 652.834,-1233.67 654.603,-1240.66"/>
<text text-anchor="middle" x="1102.5" y="-1273" font-family="Helvetica,sans-Serif" font-size="10.00"> #branchmap</text>
</g>
<!-- Node22 -->
<g id="node17" class="node"><title>Node22</title>
<polygon fill="none" stroke="#bfbfbf" points="664,-875.5 664,-932.5 758,-932.5 758,-875.5 664,-875.5"/>
<text text-anchor="middle" x="711" y="-920.5" font-family="Helvetica,sans-Serif" font-size="10.00">Var&lt; PosReal &gt; *</text>
<polyline fill="none" stroke="#bfbfbf" points="664,-913.5 758,-913.5 "/>
<text text-anchor="middle" x="711" y="-901.5" font-family="Helvetica,sans-Serif" font-size="10.00"> </text>
<polyline fill="none" stroke="#bfbfbf" points="664,-894.5 758,-894.5 "/>
<text text-anchor="middle" x="711" y="-882.5" font-family="Helvetica,sans-Serif" font-size="10.00"> </text>
</g>
<!-- Node22&#45;&gt;Node6 -->
<g id="edge18" class="edge"><title>Node22&#45;&gt;Node6</title>
<path fill="none" stroke="#404040" d="M710.302,-875.35C707.97,-816.485 697.859,-675.311 654,-567 624.396,-493.89 575.084,-420.729 531.682,-364.283"/>
<polygon fill="none" stroke="#404040" points="531.57,-364.139 524.732,-361.85 524.214,-354.658 531.052,-356.946 531.57,-364.139"/>
<text text-anchor="middle" x="659.5" y="-541" font-family="Helvetica,sans-Serif" font-size="10.00"> #rate</text>
</g>
</g>
</svg>
