<?xml version="1.0" encoding="UTF-8" standalone="no"?>
<!DOCTYPE svg PUBLIC "-//W3C//DTD SVG 1.1//EN"
 "http://www.w3.org/Graphics/SVG/1.1/DTD/svg11.dtd">
<!-- Generated by graphviz version 2.38.0 (20140413.2041)
 -->
<!-- Title: AAMutSelProfileSubMatrix Pages: 1 -->
<svg width="606pt" height="1053pt"
 viewBox="0.00 0.00 605.50 1053.00" xmlns="http://www.w3.org/2000/svg" xmlns:xlink="http://www.w3.org/1999/xlink">
<g id="graph0" class="graph" transform="scale(1 1) rotate(0) translate(4 1049)">
<title>AAMutSelProfileSubMatrix</title>
<!-- Node3 -->
<g id="node1" class="node"><title>Node3</title>
<polygon fill="#bfbfbf" stroke="black" points="0,-0.5 0,-101.5 148,-101.5 148,-0.5 0,-0.5"/>
<text text-anchor="middle" x="74" y="-89.5" font-family="Helvetica,sans-Serif" font-size="10.00">AAMutSelProfileSubMatrix</text>
<polyline fill="none" stroke="black" points="0,-82.5 148,-82.5 "/>
<text text-anchor="middle" x="74" y="-70.5" font-family="Helvetica,sans-Serif" font-size="10.00"> </text>
<polyline fill="none" stroke="black" points="0,-63.5 148,-63.5 "/>
<text text-anchor="start" x="8" y="-51.5" font-family="Helvetica,sans-Serif" font-size="10.00">+ AAMutSelProfileSubMatrix()</text>
<text text-anchor="start" x="8" y="-40.5" font-family="Helvetica,sans-Serif" font-size="10.00">+ GetAAProfile()</text>
<text text-anchor="start" x="8" y="-29.5" font-family="Helvetica,sans-Serif" font-size="10.00"># ComputeArray()</text>
<text text-anchor="start" x="8" y="-18.5" font-family="Helvetica,sans-Serif" font-size="10.00"># ComputeStationary()</text>
<text text-anchor="start" x="8" y="-7.5" font-family="Helvetica,sans-Serif" font-size="10.00"># GetRate()</text>
</g>
<!-- Node4 -->
<g id="node2" class="node"><title>Node4</title>
<g id="a_node2"><a xlink:href="classCodonSubMatrix.html" target="_top" xlink:title="{CodonSubMatrix\n||+ CodonSubMatrix()\l+ GetCodonStateSpace()\l+ GetNstate()\l+ Synonymous()\l+ GetCodonPosition()\l+ GetDifferingPosition()\l+ GetNucRRIndex()\l# ComputeArray()\l# ComputeStationary()\l}">
<polygon fill="none" stroke="black" points="204.5,-139.5 204.5,-284.5 331.5,-284.5 331.5,-139.5 204.5,-139.5"/>
<text text-anchor="middle" x="268" y="-272.5" font-family="Helvetica,sans-Serif" font-size="10.00">CodonSubMatrix</text>
<polyline fill="none" stroke="black" points="204.5,-265.5 331.5,-265.5 "/>
<text text-anchor="middle" x="268" y="-253.5" font-family="Helvetica,sans-Serif" font-size="10.00"> </text>
<polyline fill="none" stroke="black" points="204.5,-246.5 331.5,-246.5 "/>
<text text-anchor="start" x="212.5" y="-234.5" font-family="Helvetica,sans-Serif" font-size="10.00">+ CodonSubMatrix()</text>
<text text-anchor="start" x="212.5" y="-223.5" font-family="Helvetica,sans-Serif" font-size="10.00">+ GetCodonStateSpace()</text>
<text text-anchor="start" x="212.5" y="-212.5" font-family="Helvetica,sans-Serif" font-size="10.00">+ GetNstate()</text>
<text text-anchor="start" x="212.5" y="-201.5" font-family="Helvetica,sans-Serif" font-size="10.00">+ Synonymous()</text>
<text text-anchor="start" x="212.5" y="-190.5" font-family="Helvetica,sans-Serif" font-size="10.00">+ GetCodonPosition()</text>
<text text-anchor="start" x="212.5" y="-179.5" font-family="Helvetica,sans-Serif" font-size="10.00">+ GetDifferingPosition()</text>
<text text-anchor="start" x="212.5" y="-168.5" font-family="Helvetica,sans-Serif" font-size="10.00">+ GetNucRRIndex()</text>
<text text-anchor="start" x="212.5" y="-157.5" font-family="Helvetica,sans-Serif" font-size="10.00"># ComputeArray()</text>
<text text-anchor="start" x="212.5" y="-146.5" font-family="Helvetica,sans-Serif" font-size="10.00"># ComputeStationary()</text>
</a>
</g>
</g>
<!-- Node4&#45;&gt;Node3 -->
<g id="edge1" class="edge"><title>Node4&#45;&gt;Node3</title>
<path fill="none" stroke="midnightblue" d="M196.488,-152.389C176.19,-135.753 154.289,-117.804 134.697,-101.746"/>
<polygon fill="none" stroke="midnightblue" points="194.524,-155.306 204.477,-158.937 198.962,-149.892 194.524,-155.306"/>
</g>
<!-- Node5 -->
<g id="node3" class="node"><title>Node5</title>
<g id="a_node3"><a xlink:href="classSubMatrix.html" target="_top" xlink:title="{SubMatrix\n||+ SubMatrix()\l+ ~SubMatrix()\l+ Create()\l+ operator()()\l+ GetRow()\l+ GetStationary()\l+ Stationary()\l+ GetNstate()\l+ GetRate()\l+ ScalarMul()\l+ isNormalised()\l+ Normalise()\l+ CorruptMatrix()\l+ UpdateMatrix()\l+ ActivatePowers()\l+ InactivatePowers()\l+ Power()\l+ GetUniformizationMu()\l+ GetEigenVal()\l+ GetEigenVect()\l+ GetInvEigenVect()\l+ GetFiniteTimeTransitionProb()\l+ DrawUniformizedTransition()\l+ DrawUniformizedSubstitution\lNumber()\l+ DrawOneStep()\l+ ToStream()\l+ CheckReversibility()\l+ GetDiagStat()\l+ GetUniSubCount()\l+ GetMeanUni()\l# ComputeExponential()\l# ComputeArray()\l# ComputeStationary()\l# UpdateRow()\l# UpdateStationary()\l# ComputePowers()\l# CreatePowers()\l# ArrayUpdated()\l# Diagonalise()\l}">
<polygon fill="none" stroke="black" points="190,-365.5 190,-851.5 346,-851.5 346,-365.5 190,-365.5"/>
<text text-anchor="middle" x="268" y="-839.5" font-family="Helvetica,sans-Serif" font-size="10.00">SubMatrix</text>
<polyline fill="none" stroke="black" points="190,-832.5 346,-832.5 "/>
<text text-anchor="middle" x="268" y="-820.5" font-family="Helvetica,sans-Serif" font-size="10.00"> </text>
<polyline fill="none" stroke="black" points="190,-813.5 346,-813.5 "/>
<text text-anchor="start" x="198" y="-801.5" font-family="Helvetica,sans-Serif" font-size="10.00">+ SubMatrix()</text>
<text text-anchor="start" x="198" y="-790.5" font-family="Helvetica,sans-Serif" font-size="10.00">+ ~SubMatrix()</text>
<text text-anchor="start" x="198" y="-779.5" font-family="Helvetica,sans-Serif" font-size="10.00">+ Create()</text>
<text text-anchor="start" x="198" y="-768.5" font-family="Helvetica,sans-Serif" font-size="10.00">+ operator()()</text>
<text text-anchor="start" x="198" y="-757.5" font-family="Helvetica,sans-Serif" font-size="10.00">+ GetRow()</text>
<text text-anchor="start" x="198" y="-746.5" font-family="Helvetica,sans-Serif" font-size="10.00">+ GetStationary()</text>
<text text-anchor="start" x="198" y="-735.5" font-family="Helvetica,sans-Serif" font-size="10.00">+ Stationary()</text>
<text text-anchor="start" x="198" y="-724.5" font-family="Helvetica,sans-Serif" font-size="10.00">+ GetNstate()</text>
<text text-anchor="start" x="198" y="-713.5" font-family="Helvetica,sans-Serif" font-size="10.00">+ GetRate()</text>
<text text-anchor="start" x="198" y="-702.5" font-family="Helvetica,sans-Serif" font-size="10.00">+ ScalarMul()</text>
<text text-anchor="start" x="198" y="-691.5" font-family="Helvetica,sans-Serif" font-size="10.00">+ isNormalised()</text>
<text text-anchor="start" x="198" y="-680.5" font-family="Helvetica,sans-Serif" font-size="10.00">+ Normalise()</text>
<text text-anchor="start" x="198" y="-669.5" font-family="Helvetica,sans-Serif" font-size="10.00">+ CorruptMatrix()</text>
<text text-anchor="start" x="198" y="-658.5" font-family="Helvetica,sans-Serif" font-size="10.00">+ UpdateMatrix()</text>
<text text-anchor="start" x="198" y="-647.5" font-family="Helvetica,sans-Serif" font-size="10.00">+ ActivatePowers()</text>
<text text-anchor="start" x="198" y="-636.5" font-family="Helvetica,sans-Serif" font-size="10.00">+ InactivatePowers()</text>
<text text-anchor="start" x="198" y="-625.5" font-family="Helvetica,sans-Serif" font-size="10.00">+ Power()</text>
<text text-anchor="start" x="198" y="-614.5" font-family="Helvetica,sans-Serif" font-size="10.00">+ GetUniformizationMu()</text>
<text text-anchor="start" x="198" y="-603.5" font-family="Helvetica,sans-Serif" font-size="10.00">+ GetEigenVal()</text>
<text text-anchor="start" x="198" y="-592.5" font-family="Helvetica,sans-Serif" font-size="10.00">+ GetEigenVect()</text>
<text text-anchor="start" x="198" y="-581.5" font-family="Helvetica,sans-Serif" font-size="10.00">+ GetInvEigenVect()</text>
<text text-anchor="start" x="198" y="-570.5" font-family="Helvetica,sans-Serif" font-size="10.00">+ GetFiniteTimeTransitionProb()</text>
<text text-anchor="start" x="198" y="-559.5" font-family="Helvetica,sans-Serif" font-size="10.00">+ DrawUniformizedTransition()</text>
<text text-anchor="start" x="198" y="-548.5" font-family="Helvetica,sans-Serif" font-size="10.00">+ DrawUniformizedSubstitution</text>
<text text-anchor="start" x="198" y="-537.5" font-family="Helvetica,sans-Serif" font-size="10.00">Number()</text>
<text text-anchor="start" x="198" y="-526.5" font-family="Helvetica,sans-Serif" font-size="10.00">+ DrawOneStep()</text>
<text text-anchor="start" x="198" y="-515.5" font-family="Helvetica,sans-Serif" font-size="10.00">+ ToStream()</text>
<text text-anchor="start" x="198" y="-504.5" font-family="Helvetica,sans-Serif" font-size="10.00">+ CheckReversibility()</text>
<text text-anchor="start" x="198" y="-493.5" font-family="Helvetica,sans-Serif" font-size="10.00">+ GetDiagStat()</text>
<text text-anchor="start" x="198" y="-482.5" font-family="Helvetica,sans-Serif" font-size="10.00">+ GetUniSubCount()</text>
<text text-anchor="start" x="198" y="-471.5" font-family="Helvetica,sans-Serif" font-size="10.00">+ GetMeanUni()</text>
<text text-anchor="start" x="198" y="-460.5" font-family="Helvetica,sans-Serif" font-size="10.00"># ComputeExponential()</text>
<text text-anchor="start" x="198" y="-449.5" font-family="Helvetica,sans-Serif" font-size="10.00"># ComputeArray()</text>
<text text-anchor="start" x="198" y="-438.5" font-family="Helvetica,sans-Serif" font-size="10.00"># ComputeStationary()</text>
<text text-anchor="start" x="198" y="-427.5" font-family="Helvetica,sans-Serif" font-size="10.00"># UpdateRow()</text>
<text text-anchor="start" x="198" y="-416.5" font-family="Helvetica,sans-Serif" font-size="10.00"># UpdateStationary()</text>
<text text-anchor="start" x="198" y="-405.5" font-family="Helvetica,sans-Serif" font-size="10.00"># ComputePowers()</text>
<text text-anchor="start" x="198" y="-394.5" font-family="Helvetica,sans-Serif" font-size="10.00"># CreatePowers()</text>
<text text-anchor="start" x="198" y="-383.5" font-family="Helvetica,sans-Serif" font-size="10.00"># ArrayUpdated()</text>
<text text-anchor="start" x="198" y="-372.5" font-family="Helvetica,sans-Serif" font-size="10.00"># Diagonalise()</text>
</a>
</g>
</g>
<!-- Node5&#45;&gt;Node4 -->
<g id="edge2" class="edge"><title>Node5&#45;&gt;Node4</title>
<path fill="none" stroke="midnightblue" d="M268,-355.057C268,-329.648 268,-305.567 268,-284.696"/>
<polygon fill="none" stroke="midnightblue" points="264.5,-355.242 268,-365.242 271.5,-355.242 264.5,-355.242"/>
</g>
<!-- Node6 -->
<g id="node4" class="node"><title>Node6</title>
<polygon fill="none" stroke="#bfbfbf" points="108.5,-971 108.5,-1028 153.5,-1028 153.5,-971 108.5,-971"/>
<text text-anchor="middle" x="131" y="-1016" font-family="Helvetica,sans-Serif" font-size="10.00">double</text>
<polyline fill="none" stroke="#bfbfbf" points="108.5,-1009 153.5,-1009 "/>
<text text-anchor="middle" x="131" y="-997" font-family="Helvetica,sans-Serif" font-size="10.00"> </text>
<polyline fill="none" stroke="#bfbfbf" points="108.5,-990 153.5,-990 "/>
<text text-anchor="middle" x="131" y="-978" font-family="Helvetica,sans-Serif" font-size="10.00"> </text>
</g>
<!-- Node6&#45;&gt;Node3 -->
<g id="edge11" class="edge"><title>Node6&#45;&gt;Node3</title>
<path fill="none" stroke="#404040" d="M118.027,-970.967C113.378,-960.241 108.442,-947.728 105,-936 94.3205,-899.611 95.5729,-889.512 90,-852 53.9309,-609.212 8.72931,-547.529 30,-303 35.6669,-237.852 49.4586,-164.257 60.1034,-113.689"/>
<polygon fill="none" stroke="#404040" points="60.1641,-113.404 57.5029,-106.702 62.666,-101.668 65.3271,-108.37 60.1641,-113.404"/>
<text text-anchor="middle" x="87.5" y="-339" font-family="Helvetica,sans-Serif" font-size="10.00"> #TOOLARGENEGATIVE</text>
<text text-anchor="middle" x="87.5" y="-328" font-family="Helvetica,sans-Serif" font-size="10.00">#aaprofile</text>
<text text-anchor="middle" x="87.5" y="-317" font-family="Helvetica,sans-Serif" font-size="10.00">#TOOSMALL</text>
<text text-anchor="middle" x="87.5" y="-306" font-family="Helvetica,sans-Serif" font-size="10.00">#TOOLARGE</text>
</g>
<!-- Node6&#45;&gt;Node4 -->
<g id="edge6" class="edge"><title>Node6&#45;&gt;Node4</title>
<path fill="none" stroke="#404040" d="M125.004,-970.749C106.716,-880.05 57.7297,-585.541 140,-365 151.92,-333.045 173.722,-303.103 195.996,-278.384"/>
<polygon fill="none" stroke="#404040" points="196.053,-278.324 197.195,-271.204 204.207,-269.52 203.064,-276.64 196.053,-278.324"/>
<text text-anchor="middle" x="160.5" y="-611.5" font-family="Helvetica,sans-Serif" font-size="10.00"> #nucstat</text>
<text text-anchor="middle" x="160.5" y="-600.5" font-family="Helvetica,sans-Serif" font-size="10.00">#nucrr</text>
</g>
<!-- Node6&#45;&gt;Node5 -->
<g id="edge3" class="edge"><title>Node6&#45;&gt;Node5</title>
<path fill="none" stroke="#404040" d="M140.743,-970.836C150.852,-942.132 167.706,-894.277 185.893,-842.635"/>
<polygon fill="none" stroke="#404040" points="185.93,-842.531 184.15,-835.543 189.916,-831.212 191.696,-838.2 185.93,-842.531"/>
<text text-anchor="middle" x="205" y="-917" font-family="Helvetica,sans-Serif" font-size="10.00"> #UniMu</text>
<text text-anchor="middle" x="205" y="-906" font-family="Helvetica,sans-Serif" font-size="10.00">#mStationary</text>
<text text-anchor="middle" x="205" y="-895" font-family="Helvetica,sans-Serif" font-size="10.00">#Q</text>
<text text-anchor="middle" x="205" y="-884" font-family="Helvetica,sans-Serif" font-size="10.00">#mPow</text>
</g>
<!-- Node7 -->
<g id="node5" class="node"><title>Node7</title>
<polygon fill="none" stroke="#bfbfbf" points="430.5,-971 430.5,-1028 459.5,-1028 459.5,-971 430.5,-971"/>
<text text-anchor="middle" x="445" y="-1016" font-family="Helvetica,sans-Serif" font-size="10.00">int</text>
<polyline fill="none" stroke="#bfbfbf" points="430.5,-1009 459.5,-1009 "/>
<text text-anchor="middle" x="445" y="-997" font-family="Helvetica,sans-Serif" font-size="10.00"> </text>
<polyline fill="none" stroke="#bfbfbf" points="430.5,-990 459.5,-990 "/>
<text text-anchor="middle" x="445" y="-978" font-family="Helvetica,sans-Serif" font-size="10.00"> </text>
</g>
<!-- Node7&#45;&gt;Node5 -->
<g id="edge4" class="edge"><title>Node7&#45;&gt;Node5</title>
<path fill="none" stroke="#404040" d="M430.448,-971.597C416.091,-945.371 393.269,-904.511 372,-870 366.955,-861.815 364.4,-860.549 360,-852 357.112,-846.389 354.264,-840.665 351.462,-834.857"/>
<polygon fill="none" stroke="#404040" points="351.264,-834.44 345.081,-830.729 346.128,-823.595 352.311,-827.305 351.264,-834.44"/>
<text text-anchor="middle" x="442.5" y="-928" font-family="Helvetica,sans-Serif" font-size="10.00"> +nunisubcount</text>
<text text-anchor="middle" x="442.5" y="-917" font-family="Helvetica,sans-Serif" font-size="10.00">#Nstate</text>
<text text-anchor="middle" x="442.5" y="-906" font-family="Helvetica,sans-Serif" font-size="10.00">+UniSubNmax</text>
<text text-anchor="middle" x="442.5" y="-895" font-family="Helvetica,sans-Serif" font-size="10.00">#npow</text>
<text text-anchor="middle" x="442.5" y="-884" font-family="Helvetica,sans-Serif" font-size="10.00">+nuni</text>
<text text-anchor="middle" x="442.5" y="-873" font-family="Helvetica,sans-Serif" font-size="10.00">+nunimax</text>
</g>
<!-- Node9 -->
<g id="node7" class="node"><title>Node9</title>
<g id="a_node7"><a xlink:href="classCodonStateSpace.html" target="_top" xlink:title="{CodonStateSpace\n||+ CodonStateSpace()\l+ ~CodonStateSpace()\l+ GetNstate()\l+ GetState()\l+ GetState()\l+ GetDNAStateSpace()\l+ GetProteinStateSpace()\l+ GetCodonFromDNA()\l+ GetDifferingPosition()\l+ GetCodonPosition()\l+ IsNonCTNearest()\l+ Translation()\l+ Synonymous()\l+ TranslationWithStops()\l+ CheckStop()\l+ GetDegeneracy()\l+ GetNstop()\l+ GetStopPos1()\l+ GetStopPos2()\l+ GetStopPos3()\l}">
<polygon fill="none" stroke="black" points="451.5,-475.5 451.5,-741.5 580.5,-741.5 580.5,-475.5 451.5,-475.5"/>
<text text-anchor="middle" x="516" y="-729.5" font-family="Helvetica,sans-Serif" font-size="10.00">CodonStateSpace</text>
<polyline fill="none" stroke="black" points="451.5,-722.5 580.5,-722.5 "/>
<text text-anchor="middle" x="516" y="-710.5" font-family="Helvetica,sans-Serif" font-size="10.00"> </text>
<polyline fill="none" stroke="black" points="451.5,-703.5 580.5,-703.5 "/>
<text text-anchor="start" x="459.5" y="-691.5" font-family="Helvetica,sans-Serif" font-size="10.00">+ CodonStateSpace()</text>
<text text-anchor="start" x="459.5" y="-680.5" font-family="Helvetica,sans-Serif" font-size="10.00">+ ~CodonStateSpace()</text>
<text text-anchor="start" x="459.5" y="-669.5" font-family="Helvetica,sans-Serif" font-size="10.00">+ GetNstate()</text>
<text text-anchor="start" x="459.5" y="-658.5" font-family="Helvetica,sans-Serif" font-size="10.00">+ GetState()</text>
<text text-anchor="start" x="459.5" y="-647.5" font-family="Helvetica,sans-Serif" font-size="10.00">+ GetState()</text>
<text text-anchor="start" x="459.5" y="-636.5" font-family="Helvetica,sans-Serif" font-size="10.00">+ GetDNAStateSpace()</text>
<text text-anchor="start" x="459.5" y="-625.5" font-family="Helvetica,sans-Serif" font-size="10.00">+ GetProteinStateSpace()</text>
<text text-anchor="start" x="459.5" y="-614.5" font-family="Helvetica,sans-Serif" font-size="10.00">+ GetCodonFromDNA()</text>
<text text-anchor="start" x="459.5" y="-603.5" font-family="Helvetica,sans-Serif" font-size="10.00">+ GetDifferingPosition()</text>
<text text-anchor="start" x="459.5" y="-592.5" font-family="Helvetica,sans-Serif" font-size="10.00">+ GetCodonPosition()</text>
<text text-anchor="start" x="459.5" y="-581.5" font-family="Helvetica,sans-Serif" font-size="10.00">+ IsNonCTNearest()</text>
<text text-anchor="start" x="459.5" y="-570.5" font-family="Helvetica,sans-Serif" font-size="10.00">+ Translation()</text>
<text text-anchor="start" x="459.5" y="-559.5" font-family="Helvetica,sans-Serif" font-size="10.00">+ Synonymous()</text>
<text text-anchor="start" x="459.5" y="-548.5" font-family="Helvetica,sans-Serif" font-size="10.00">+ TranslationWithStops()</text>
<text text-anchor="start" x="459.5" y="-537.5" font-family="Helvetica,sans-Serif" font-size="10.00">+ CheckStop()</text>
<text text-anchor="start" x="459.5" y="-526.5" font-family="Helvetica,sans-Serif" font-size="10.00">+ GetDegeneracy()</text>
<text text-anchor="start" x="459.5" y="-515.5" font-family="Helvetica,sans-Serif" font-size="10.00">+ GetNstop()</text>
<text text-anchor="start" x="459.5" y="-504.5" font-family="Helvetica,sans-Serif" font-size="10.00">+ GetStopPos1()</text>
<text text-anchor="start" x="459.5" y="-493.5" font-family="Helvetica,sans-Serif" font-size="10.00">+ GetStopPos2()</text>
<text text-anchor="start" x="459.5" y="-482.5" font-family="Helvetica,sans-Serif" font-size="10.00">+ GetStopPos3()</text>
</a>
</g>
</g>
<!-- Node7&#45;&gt;Node9 -->
<g id="edge10" class="edge"><title>Node7&#45;&gt;Node9</title>
<path fill="none" stroke="#404040" d="M459.55,-979.63C467.885,-967.769 477.712,-951.773 483,-936 502.36,-878.257 511.306,-811.809 515.159,-753.993"/>
<polygon fill="none" stroke="#404040" points="515.173,-753.77 511.547,-747.537 515.906,-741.793 519.532,-748.026 515.173,-753.77"/>
<text text-anchor="middle" x="516.5" y="-900.5" font-family="Helvetica,sans-Serif" font-size="10.00"> +Npos</text>
</g>
<!-- Node8 -->
<g id="node6" class="node"><title>Node8</title>
<polygon fill="none" stroke="#bfbfbf" points="323.5,-971 323.5,-1028 358.5,-1028 358.5,-971 323.5,-971"/>
<text text-anchor="middle" x="341" y="-1016" font-family="Helvetica,sans-Serif" font-size="10.00">bool</text>
<polyline fill="none" stroke="#bfbfbf" points="323.5,-1009 358.5,-1009 "/>
<text text-anchor="middle" x="341" y="-997" font-family="Helvetica,sans-Serif" font-size="10.00"> </text>
<polyline fill="none" stroke="#bfbfbf" points="323.5,-990 358.5,-990 "/>
<text text-anchor="middle" x="341" y="-978" font-family="Helvetica,sans-Serif" font-size="10.00"> </text>
</g>
<!-- Node8&#45;&gt;Node4 -->
<g id="edge7" class="edge"><title>Node8&#45;&gt;Node4</title>
<path fill="none" stroke="#404040" d="M355.763,-970.987C360.683,-960.368 365.535,-947.922 368,-936 373.939,-907.274 368.377,-899.331 368,-870 365.111,-645.5 415.491,-581.216 355,-365 348.312,-341.094 337.042,-316.978 324.792,-295.215"/>
<polygon fill="none" stroke="#404040" points="324.733,-295.114 318.263,-291.929 318.715,-284.732 325.185,-287.917 324.733,-295.114"/>
<text text-anchor="middle" x="410.5" y="-606" font-family="Helvetica,sans-Serif" font-size="10.00"> #normalise</text>
</g>
<!-- Node8&#45;&gt;Node5 -->
<g id="edge5" class="edge"><title>Node8&#45;&gt;Node5</title>
<path fill="none" stroke="#404040" d="M330.587,-970.791C326.841,-960.043 322.842,-947.561 320,-936 314.26,-912.648 309.005,-888.196 304.232,-863.628"/>
<polygon fill="none" stroke="#404040" points="304.179,-863.349 299.124,-858.206 301.927,-851.562 306.982,-856.705 304.179,-863.349"/>
<text text-anchor="middle" x="344" y="-922.5" font-family="Helvetica,sans-Serif" font-size="10.00"> #flagarray</text>
<text text-anchor="middle" x="344" y="-911.5" font-family="Helvetica,sans-Serif" font-size="10.00">#diagflag</text>
<text text-anchor="middle" x="344" y="-900.5" font-family="Helvetica,sans-Serif" font-size="10.00">#powflag</text>
<text text-anchor="middle" x="344" y="-889.5" font-family="Helvetica,sans-Serif" font-size="10.00">#normalise</text>
<text text-anchor="middle" x="344" y="-878.5" font-family="Helvetica,sans-Serif" font-size="10.00">#statflag</text>
</g>
<!-- Node9&#45;&gt;Node4 -->
<g id="edge8" class="edge"><title>Node9&#45;&gt;Node4</title>
<path fill="none" stroke="#404040" d="M488.454,-475.165C470.508,-416.355 441.641,-349.962 396,-303 379.951,-286.487 360.497,-271.042 341.652,-257.768"/>
<polygon fill="none" stroke="#404040" points="341.457,-257.634 334.247,-257.525 331.574,-250.828 338.784,-250.936 341.457,-257.634"/>
<text text-anchor="middle" x="458.5" y="-322.5" font-family="Helvetica,sans-Serif" font-size="10.00"> #statespace</text>
</g>
<!-- Node10 -->
<g id="node8" class="node"><title>Node10</title>
<g id="a_node8"><a xlink:href="classStateSpace.html" target="_top" xlink:title="{StateSpace\n||+ ~StateSpace()\l+ GetState()\l+ GetNstate()\l+ GetState()\l}">
<polygon fill="none" stroke="black" points="508.5,-954.5 508.5,-1044.5 597.5,-1044.5 597.5,-954.5 508.5,-954.5"/>
<text text-anchor="middle" x="553" y="-1032.5" font-family="Helvetica,sans-Serif" font-size="10.00">StateSpace</text>
<polyline fill="none" stroke="black" points="508.5,-1025.5 597.5,-1025.5 "/>
<text text-anchor="middle" x="553" y="-1013.5" font-family="Helvetica,sans-Serif" font-size="10.00"> </text>
<polyline fill="none" stroke="black" points="508.5,-1006.5 597.5,-1006.5 "/>
<text text-anchor="start" x="516.5" y="-994.5" font-family="Helvetica,sans-Serif" font-size="10.00">+ ~StateSpace()</text>
<text text-anchor="start" x="516.5" y="-983.5" font-family="Helvetica,sans-Serif" font-size="10.00">+ GetState()</text>
<text text-anchor="start" x="516.5" y="-972.5" font-family="Helvetica,sans-Serif" font-size="10.00">+ GetNstate()</text>
<text text-anchor="start" x="516.5" y="-961.5" font-family="Helvetica,sans-Serif" font-size="10.00">+ GetState()</text>
</a>
</g>
</g>
<!-- Node10&#45;&gt;Node9 -->
<g id="edge9" class="edge"><title>Node10&#45;&gt;Node9</title>
<path fill="none" stroke="midnightblue" d="M547.837,-944.215C542.874,-892.039 535.178,-811.126 528.596,-741.925"/>
<polygon fill="none" stroke="midnightblue" points="544.36,-944.632 548.792,-954.255 551.329,-943.969 544.36,-944.632"/>
</g>
</g>
</svg>
