<?xml version="1.0" encoding="UTF-8" standalone="no"?>
<!DOCTYPE svg PUBLIC "-//W3C//DTD SVG 1.1//EN"
 "http://www.w3.org/Graphics/SVG/1.1/DTD/svg11.dtd">
<!-- Generated by graphviz version 2.38.0 (20140413.2041)
 -->
<!-- Title: AACodonMutSelGeneProfileProcess Pages: 1 -->
<svg width="771pt" height="1747pt"
 viewBox="0.00 0.00 771.00 1747.00" xmlns="http://www.w3.org/2000/svg" xmlns:xlink="http://www.w3.org/1999/xlink">
<g id="graph0" class="graph" transform="scale(1 1) rotate(0) translate(4 1743)">
<title>AACodonMutSelGeneProfileProcess</title>
<!-- Node8 -->
<g id="node1" class="node"><title>Node8</title>
<polygon fill="#bfbfbf" stroke="black" points="379.5,-0.5 379.5,-178.5 534.5,-178.5 534.5,-0.5 379.5,-0.5"/>
<text text-anchor="start" x="387.5" y="-166.5" font-family="Helvetica,sans-Serif" font-size="10.00">AACodonMutSelGeneProfile</text>
<text text-anchor="middle" x="457" y="-155.5" font-family="Helvetica,sans-Serif" font-size="10.00">Process</text>
<polyline fill="none" stroke="black" points="379.5,-148.5 534.5,-148.5 "/>
<text text-anchor="middle" x="457" y="-136.5" font-family="Helvetica,sans-Serif" font-size="10.00"> </text>
<polyline fill="none" stroke="black" points="379.5,-129.5 534.5,-129.5 "/>
<text text-anchor="start" x="387.5" y="-117.5" font-family="Helvetica,sans-Serif" font-size="10.00">+ AACodonMutSelGeneProfile</text>
<text text-anchor="start" x="387.5" y="-106.5" font-family="Helvetica,sans-Serif" font-size="10.00">Process()</text>
<text text-anchor="start" x="387.5" y="-95.5" font-family="Helvetica,sans-Serif" font-size="10.00">+ ~AACodonMutSelGeneProfile</text>
<text text-anchor="start" x="387.5" y="-84.5" font-family="Helvetica,sans-Serif" font-size="10.00">Process()</text>
<text text-anchor="start" x="387.5" y="-73.5" font-family="Helvetica,sans-Serif" font-size="10.00">+ SetMixtureParameters()</text>
<text text-anchor="start" x="387.5" y="-62.5" font-family="Helvetica,sans-Serif" font-size="10.00"># Create()</text>
<text text-anchor="start" x="387.5" y="-51.5" font-family="Helvetica,sans-Serif" font-size="10.00"># Delete()</text>
<text text-anchor="start" x="387.5" y="-40.5" font-family="Helvetica,sans-Serif" font-size="10.00"># GetMatrix()</text>
<text text-anchor="start" x="387.5" y="-29.5" font-family="Helvetica,sans-Serif" font-size="10.00"># UpdateMatrices()</text>
<text text-anchor="start" x="387.5" y="-18.5" font-family="Helvetica,sans-Serif" font-size="10.00"># CreateMatrices()</text>
<text text-anchor="start" x="387.5" y="-7.5" font-family="Helvetica,sans-Serif" font-size="10.00"># DeleteMatrices()</text>
</g>
<!-- Node9 -->
<g id="node2" class="node"><title>Node9</title>
<g id="a_node2"><a xlink:href="classAACodonMutSelProfileProcess.html" target="_top" xlink:title="{AACodonMutSelProfileProcess\n||+ AACodonMutSelProfileProcess()\l+ ~AACodonMutSelProfileProcess()\l+ GetNnucrr()\l+ GetNucRR()\l+ GetNucRR()\l+ GetNucStat()\l+ GetNucStat()\l+ GetCodonProfileEntry()\l+ GetCodonProfileEntropy()\l+ GetOmega()\l# Create()\l# Delete()\l# GetNormalizationFactor()\l# LogNucRRPrior()\l# SampleNucRR()\l# LogNucStatPrior()\l# SampleNucStat()\l# LogCodonProfilePrior()\l# SampleCodonProfile()\l# LogOmegaPrior()\l# SampleOmega()\l# MoveNucRR()\l# MoveNucRR()\l# MoveNucStat()\l# MoveCodonProfile()\l# MoveNucStatCodonProfile()\l# MoveOmega()\l}">
<polygon fill="none" stroke="black" points="371,-226.5 371,-569.5 545,-569.5 545,-226.5 371,-226.5"/>
<text text-anchor="middle" x="458" y="-557.5" font-family="Helvetica,sans-Serif" font-size="10.00">AACodonMutSelProfileProcess</text>
<polyline fill="none" stroke="black" points="371,-550.5 545,-550.5 "/>
<text text-anchor="middle" x="458" y="-538.5" font-family="Helvetica,sans-Serif" font-size="10.00"> </text>
<polyline fill="none" stroke="black" points="371,-531.5 545,-531.5 "/>
<text text-anchor="start" x="379" y="-519.5" font-family="Helvetica,sans-Serif" font-size="10.00">+ AACodonMutSelProfileProcess()</text>
<text text-anchor="start" x="379" y="-508.5" font-family="Helvetica,sans-Serif" font-size="10.00">+ ~AACodonMutSelProfileProcess()</text>
<text text-anchor="start" x="379" y="-497.5" font-family="Helvetica,sans-Serif" font-size="10.00">+ GetNnucrr()</text>
<text text-anchor="start" x="379" y="-486.5" font-family="Helvetica,sans-Serif" font-size="10.00">+ GetNucRR()</text>
<text text-anchor="start" x="379" y="-475.5" font-family="Helvetica,sans-Serif" font-size="10.00">+ GetNucRR()</text>
<text text-anchor="start" x="379" y="-464.5" font-family="Helvetica,sans-Serif" font-size="10.00">+ GetNucStat()</text>
<text text-anchor="start" x="379" y="-453.5" font-family="Helvetica,sans-Serif" font-size="10.00">+ GetNucStat()</text>
<text text-anchor="start" x="379" y="-442.5" font-family="Helvetica,sans-Serif" font-size="10.00">+ GetCodonProfileEntry()</text>
<text text-anchor="start" x="379" y="-431.5" font-family="Helvetica,sans-Serif" font-size="10.00">+ GetCodonProfileEntropy()</text>
<text text-anchor="start" x="379" y="-420.5" font-family="Helvetica,sans-Serif" font-size="10.00">+ GetOmega()</text>
<text text-anchor="start" x="379" y="-409.5" font-family="Helvetica,sans-Serif" font-size="10.00"># Create()</text>
<text text-anchor="start" x="379" y="-398.5" font-family="Helvetica,sans-Serif" font-size="10.00"># Delete()</text>
<text text-anchor="start" x="379" y="-387.5" font-family="Helvetica,sans-Serif" font-size="10.00"># GetNormalizationFactor()</text>
<text text-anchor="start" x="379" y="-376.5" font-family="Helvetica,sans-Serif" font-size="10.00"># LogNucRRPrior()</text>
<text text-anchor="start" x="379" y="-365.5" font-family="Helvetica,sans-Serif" font-size="10.00"># SampleNucRR()</text>
<text text-anchor="start" x="379" y="-354.5" font-family="Helvetica,sans-Serif" font-size="10.00"># LogNucStatPrior()</text>
<text text-anchor="start" x="379" y="-343.5" font-family="Helvetica,sans-Serif" font-size="10.00"># SampleNucStat()</text>
<text text-anchor="start" x="379" y="-332.5" font-family="Helvetica,sans-Serif" font-size="10.00"># LogCodonProfilePrior()</text>
<text text-anchor="start" x="379" y="-321.5" font-family="Helvetica,sans-Serif" font-size="10.00"># SampleCodonProfile()</text>
<text text-anchor="start" x="379" y="-310.5" font-family="Helvetica,sans-Serif" font-size="10.00"># LogOmegaPrior()</text>
<text text-anchor="start" x="379" y="-299.5" font-family="Helvetica,sans-Serif" font-size="10.00"># SampleOmega()</text>
<text text-anchor="start" x="379" y="-288.5" font-family="Helvetica,sans-Serif" font-size="10.00"># MoveNucRR()</text>
<text text-anchor="start" x="379" y="-277.5" font-family="Helvetica,sans-Serif" font-size="10.00"># MoveNucRR()</text>
<text text-anchor="start" x="379" y="-266.5" font-family="Helvetica,sans-Serif" font-size="10.00"># MoveNucStat()</text>
<text text-anchor="start" x="379" y="-255.5" font-family="Helvetica,sans-Serif" font-size="10.00"># MoveCodonProfile()</text>
<text text-anchor="start" x="379" y="-244.5" font-family="Helvetica,sans-Serif" font-size="10.00"># MoveNucStatCodonProfile()</text>
<text text-anchor="start" x="379" y="-233.5" font-family="Helvetica,sans-Serif" font-size="10.00"># MoveOmega()</text>
</a>
</g>
</g>
<!-- Node9&#45;&gt;Node8 -->
<g id="edge1" class="edge"><title>Node9&#45;&gt;Node8</title>
<path fill="none" stroke="midnightblue" d="M454.89,-216.085C454.906,-209.644 454.941,-203.267 455,-197 455.056,-190.99 455.131,-184.79 455.218,-178.544"/>
<polygon fill="none" stroke="midnightblue" points="451.39,-216.249 454.882,-226.251 458.39,-216.254 451.39,-216.249"/>
</g>
<!-- Node9&#45;&gt;Node8 -->
<g id="edge18" class="edge"><title>Node9&#45;&gt;Node8</title>
<path fill="none" stroke="#404040" d="M457.443,-226.274C457.404,-214.261 457.365,-202.394 457.328,-190.972"/>
<polygon fill="none" stroke="#404040" points="457.327,-190.768 453.308,-184.781 457.288,-178.768 461.308,-184.755 457.327,-190.768"/>
<text text-anchor="middle" x="493" y="-200" font-family="Helvetica,sans-Serif" font-size="10.00"> #aacmutselhub</text>
</g>
<!-- Node10 -->
<g id="node3" class="node"><title>Node10</title>
<g id="a_node3"><a xlink:href="classGeneralPathSuffStatMatrixProfileProcess.html" target="_top" xlink:title="{GeneralPathSuffStatMatrix\lProfileProcess\n||+ GeneralPathSuffStatMatrix\lProfileProcess()\l+ ~GeneralPathSuffStatMatrix\lProfileProcess()\l+ GetSitePairCount()\l+ GetSiteWaitingTime()\l+ GetSiteRootState()\l}">
<polygon fill="none" stroke="black" points="234.5,-607.5 234.5,-741.5 383.5,-741.5 383.5,-607.5 234.5,-607.5"/>
<text text-anchor="start" x="242.5" y="-729.5" font-family="Helvetica,sans-Serif" font-size="10.00">GeneralPathSuffStatMatrix</text>
<text text-anchor="middle" x="309" y="-718.5" font-family="Helvetica,sans-Serif" font-size="10.00">ProfileProcess</text>
<polyline fill="none" stroke="black" points="234.5,-711.5 383.5,-711.5 "/>
<text text-anchor="middle" x="309" y="-699.5" font-family="Helvetica,sans-Serif" font-size="10.00"> </text>
<polyline fill="none" stroke="black" points="234.5,-692.5 383.5,-692.5 "/>
<text text-anchor="start" x="242.5" y="-680.5" font-family="Helvetica,sans-Serif" font-size="10.00">+ GeneralPathSuffStatMatrix</text>
<text text-anchor="start" x="242.5" y="-669.5" font-family="Helvetica,sans-Serif" font-size="10.00">ProfileProcess()</text>
<text text-anchor="start" x="242.5" y="-658.5" font-family="Helvetica,sans-Serif" font-size="10.00">+ ~GeneralPathSuffStatMatrix</text>
<text text-anchor="start" x="242.5" y="-647.5" font-family="Helvetica,sans-Serif" font-size="10.00">ProfileProcess()</text>
<text text-anchor="start" x="242.5" y="-636.5" font-family="Helvetica,sans-Serif" font-size="10.00">+ GetSitePairCount()</text>
<text text-anchor="start" x="242.5" y="-625.5" font-family="Helvetica,sans-Serif" font-size="10.00">+ GetSiteWaitingTime()</text>
<text text-anchor="start" x="242.5" y="-614.5" font-family="Helvetica,sans-Serif" font-size="10.00">+ GetSiteRootState()</text>
</a>
</g>
</g>
<!-- Node10&#45;&gt;Node9 -->
<g id="edge2" class="edge"><title>Node10&#45;&gt;Node9</title>
<path fill="none" stroke="midnightblue" d="M349.687,-598.542C356.41,-586.157 363.599,-572.913 370.956,-559.359"/>
<polygon fill="none" stroke="midnightblue" points="346.573,-596.943 344.879,-607.401 352.725,-600.282 346.573,-596.943"/>
</g>
<!-- Node11 -->
<g id="node4" class="node"><title>Node11</title>
<g id="a_node4"><a xlink:href="classMatrixProfileProcess.html" target="_top" xlink:title="{MatrixProfileProcess\n||+ MatrixProfileProcess()\l+ ~MatrixProfileProcess()\l+ GetMatrix()\l# CreateMatrices()\l# DeleteMatrices()\l# ProfileProposeMove()\l# UpdateMatrices()\l}">
<polygon fill="none" stroke="black" points="247,-850 247,-973 375,-973 375,-850 247,-850"/>
<text text-anchor="middle" x="311" y="-961" font-family="Helvetica,sans-Serif" font-size="10.00">MatrixProfileProcess</text>
<polyline fill="none" stroke="black" points="247,-954 375,-954 "/>
<text text-anchor="middle" x="311" y="-942" font-family="Helvetica,sans-Serif" font-size="10.00"> </text>
<polyline fill="none" stroke="black" points="247,-935 375,-935 "/>
<text text-anchor="start" x="255" y="-923" font-family="Helvetica,sans-Serif" font-size="10.00">+ MatrixProfileProcess()</text>
<text text-anchor="start" x="255" y="-912" font-family="Helvetica,sans-Serif" font-size="10.00">+ ~MatrixProfileProcess()</text>
<text text-anchor="start" x="255" y="-901" font-family="Helvetica,sans-Serif" font-size="10.00">+ GetMatrix()</text>
<text text-anchor="start" x="255" y="-890" font-family="Helvetica,sans-Serif" font-size="10.00"># CreateMatrices()</text>
<text text-anchor="start" x="255" y="-879" font-family="Helvetica,sans-Serif" font-size="10.00"># DeleteMatrices()</text>
<text text-anchor="start" x="255" y="-868" font-family="Helvetica,sans-Serif" font-size="10.00"># ProfileProposeMove()</text>
<text text-anchor="start" x="255" y="-857" font-family="Helvetica,sans-Serif" font-size="10.00"># UpdateMatrices()</text>
</a>
</g>
</g>
<!-- Node11&#45;&gt;Node10 -->
<g id="edge3" class="edge"><title>Node11&#45;&gt;Node10</title>
<path fill="none" stroke="midnightblue" d="M310.397,-839.64C310.132,-808.508 309.823,-772.162 309.563,-741.596"/>
<polygon fill="none" stroke="midnightblue" points="306.9,-840.012 310.485,-849.982 313.9,-839.952 306.9,-840.012"/>
</g>
<!-- Node12 -->
<g id="node5" class="node"><title>Node12</title>
<g id="a_node5"><a xlink:href="classProfileProcess.html" target="_top" xlink:title="{ProfileProcess\n||+ ProfileProcess()\l+ ~ProfileProcess()\l+ GetVersion()\l+ GetStatInfCount()\l+ GetDim()\l+ GetNsite()\l+ GetProfile()\l+ GetStateSpace()\l+ LogProfilePrior()\l+ SampleProfile()\l+ GetMeanStationaryEntropy()\l+ GetSiteStationaryEntropy()\l+ UpdateSiteProfileSuffStat()\l+ GlobalUpdateSiteProfileSuffStat()\l+ SlaveUpdateSiteProfileSuffStat()\l+ GlobalUpdateParameters()\l+ SlaveUpdateParameters()\l+ ProfileSuffStatLogProb()\l+ ToStream()\l+ FromStream()\l+ SetBurnin()\l+ isObserved()\l+ GetMinStat()\l+ GetMinMinStat()\l# DrawProfileFromPrior()\l# GetNormalizationFactor()\l# Create()\l# Delete()\l# GetNprocs()\l# GetMyid()\l# GetSiteMin()\l# GetSiteMax()\l# GetEmpiricalFreq()\l# GetMinTotWeight()\l# SetMinTotWeight()\l}">
<polygon fill="none" stroke="black" points="101,-1059.5 101,-1490.5 273,-1490.5 273,-1059.5 101,-1059.5"/>
<text text-anchor="middle" x="187" y="-1478.5" font-family="Helvetica,sans-Serif" font-size="10.00">ProfileProcess</text>
<polyline fill="none" stroke="black" points="101,-1471.5 273,-1471.5 "/>
<text text-anchor="middle" x="187" y="-1459.5" font-family="Helvetica,sans-Serif" font-size="10.00"> </text>
<polyline fill="none" stroke="black" points="101,-1452.5 273,-1452.5 "/>
<text text-anchor="start" x="109" y="-1440.5" font-family="Helvetica,sans-Serif" font-size="10.00">+ ProfileProcess()</text>
<text text-anchor="start" x="109" y="-1429.5" font-family="Helvetica,sans-Serif" font-size="10.00">+ ~ProfileProcess()</text>
<text text-anchor="start" x="109" y="-1418.5" font-family="Helvetica,sans-Serif" font-size="10.00">+ GetVersion()</text>
<text text-anchor="start" x="109" y="-1407.5" font-family="Helvetica,sans-Serif" font-size="10.00">+ GetStatInfCount()</text>
<text text-anchor="start" x="109" y="-1396.5" font-family="Helvetica,sans-Serif" font-size="10.00">+ GetDim()</text>
<text text-anchor="start" x="109" y="-1385.5" font-family="Helvetica,sans-Serif" font-size="10.00">+ GetNsite()</text>
<text text-anchor="start" x="109" y="-1374.5" font-family="Helvetica,sans-Serif" font-size="10.00">+ GetProfile()</text>
<text text-anchor="start" x="109" y="-1363.5" font-family="Helvetica,sans-Serif" font-size="10.00">+ GetStateSpace()</text>
<text text-anchor="start" x="109" y="-1352.5" font-family="Helvetica,sans-Serif" font-size="10.00">+ LogProfilePrior()</text>
<text text-anchor="start" x="109" y="-1341.5" font-family="Helvetica,sans-Serif" font-size="10.00">+ SampleProfile()</text>
<text text-anchor="start" x="109" y="-1330.5" font-family="Helvetica,sans-Serif" font-size="10.00">+ GetMeanStationaryEntropy()</text>
<text text-anchor="start" x="109" y="-1319.5" font-family="Helvetica,sans-Serif" font-size="10.00">+ GetSiteStationaryEntropy()</text>
<text text-anchor="start" x="109" y="-1308.5" font-family="Helvetica,sans-Serif" font-size="10.00">+ UpdateSiteProfileSuffStat()</text>
<text text-anchor="start" x="109" y="-1297.5" font-family="Helvetica,sans-Serif" font-size="10.00">+ GlobalUpdateSiteProfileSuffStat()</text>
<text text-anchor="start" x="109" y="-1286.5" font-family="Helvetica,sans-Serif" font-size="10.00">+ SlaveUpdateSiteProfileSuffStat()</text>
<text text-anchor="start" x="109" y="-1275.5" font-family="Helvetica,sans-Serif" font-size="10.00">+ GlobalUpdateParameters()</text>
<text text-anchor="start" x="109" y="-1264.5" font-family="Helvetica,sans-Serif" font-size="10.00">+ SlaveUpdateParameters()</text>
<text text-anchor="start" x="109" y="-1253.5" font-family="Helvetica,sans-Serif" font-size="10.00">+ ProfileSuffStatLogProb()</text>
<text text-anchor="start" x="109" y="-1242.5" font-family="Helvetica,sans-Serif" font-size="10.00">+ ToStream()</text>
<text text-anchor="start" x="109" y="-1231.5" font-family="Helvetica,sans-Serif" font-size="10.00">+ FromStream()</text>
<text text-anchor="start" x="109" y="-1220.5" font-family="Helvetica,sans-Serif" font-size="10.00">+ SetBurnin()</text>
<text text-anchor="start" x="109" y="-1209.5" font-family="Helvetica,sans-Serif" font-size="10.00">+ isObserved()</text>
<text text-anchor="start" x="109" y="-1198.5" font-family="Helvetica,sans-Serif" font-size="10.00">+ GetMinStat()</text>
<text text-anchor="start" x="109" y="-1187.5" font-family="Helvetica,sans-Serif" font-size="10.00">+ GetMinMinStat()</text>
<text text-anchor="start" x="109" y="-1176.5" font-family="Helvetica,sans-Serif" font-size="10.00"># DrawProfileFromPrior()</text>
<text text-anchor="start" x="109" y="-1165.5" font-family="Helvetica,sans-Serif" font-size="10.00"># GetNormalizationFactor()</text>
<text text-anchor="start" x="109" y="-1154.5" font-family="Helvetica,sans-Serif" font-size="10.00"># Create()</text>
<text text-anchor="start" x="109" y="-1143.5" font-family="Helvetica,sans-Serif" font-size="10.00"># Delete()</text>
<text text-anchor="start" x="109" y="-1132.5" font-family="Helvetica,sans-Serif" font-size="10.00"># GetNprocs()</text>
<text text-anchor="start" x="109" y="-1121.5" font-family="Helvetica,sans-Serif" font-size="10.00"># GetMyid()</text>
<text text-anchor="start" x="109" y="-1110.5" font-family="Helvetica,sans-Serif" font-size="10.00"># GetSiteMin()</text>
<text text-anchor="start" x="109" y="-1099.5" font-family="Helvetica,sans-Serif" font-size="10.00"># GetSiteMax()</text>
<text text-anchor="start" x="109" y="-1088.5" font-family="Helvetica,sans-Serif" font-size="10.00"># GetEmpiricalFreq()</text>
<text text-anchor="start" x="109" y="-1077.5" font-family="Helvetica,sans-Serif" font-size="10.00"># GetMinTotWeight()</text>
<text text-anchor="start" x="109" y="-1066.5" font-family="Helvetica,sans-Serif" font-size="10.00"># SetMinTotWeight()</text>
</a>
</g>
</g>
<!-- Node12&#45;&gt;Node11 -->
<g id="edge4" class="edge"><title>Node12&#45;&gt;Node11</title>
<path fill="none" stroke="midnightblue" d="M263.922,-1049.75C273.506,-1021.81 282.584,-995.342 290.164,-973.242"/>
<polygon fill="none" stroke="midnightblue" points="260.588,-1048.68 260.654,-1059.28 267.209,-1050.95 260.588,-1048.68"/>
</g>
<!-- Node19 -->
<g id="node12" class="node"><title>Node19</title>
<g id="a_node12"><a xlink:href="classGeneProfileProcess.html" target="_top" xlink:title="{GeneProfileProcess\n||+ GeneProfileProcess()\l+ ~GeneProfileProcess()\l+ GetProfile()\l+ GetStateSpace()\l+ LogProfilePrior()\l+ SampleProfile()\l+ GetMeanStationaryEntropy()\l+ GetSiteStationaryEntropy()\l+ GlobalUpdateParameters()\l+ SlaveUpdateParameters()\l+ ProfileSuffStatLogProb()\l+ SetMixtureParameters()\l# Create()\l# Delete()\l}">
<polygon fill="none" stroke="black" points="79.5,-811.5 79.5,-1011.5 228.5,-1011.5 228.5,-811.5 79.5,-811.5"/>
<text text-anchor="middle" x="154" y="-999.5" font-family="Helvetica,sans-Serif" font-size="10.00">GeneProfileProcess</text>
<polyline fill="none" stroke="black" points="79.5,-992.5 228.5,-992.5 "/>
<text text-anchor="middle" x="154" y="-980.5" font-family="Helvetica,sans-Serif" font-size="10.00"> </text>
<polyline fill="none" stroke="black" points="79.5,-973.5 228.5,-973.5 "/>
<text text-anchor="start" x="87.5" y="-961.5" font-family="Helvetica,sans-Serif" font-size="10.00">+ GeneProfileProcess()</text>
<text text-anchor="start" x="87.5" y="-950.5" font-family="Helvetica,sans-Serif" font-size="10.00">+ ~GeneProfileProcess()</text>
<text text-anchor="start" x="87.5" y="-939.5" font-family="Helvetica,sans-Serif" font-size="10.00">+ GetProfile()</text>
<text text-anchor="start" x="87.5" y="-928.5" font-family="Helvetica,sans-Serif" font-size="10.00">+ GetStateSpace()</text>
<text text-anchor="start" x="87.5" y="-917.5" font-family="Helvetica,sans-Serif" font-size="10.00">+ LogProfilePrior()</text>
<text text-anchor="start" x="87.5" y="-906.5" font-family="Helvetica,sans-Serif" font-size="10.00">+ SampleProfile()</text>
<text text-anchor="start" x="87.5" y="-895.5" font-family="Helvetica,sans-Serif" font-size="10.00">+ GetMeanStationaryEntropy()</text>
<text text-anchor="start" x="87.5" y="-884.5" font-family="Helvetica,sans-Serif" font-size="10.00">+ GetSiteStationaryEntropy()</text>
<text text-anchor="start" x="87.5" y="-873.5" font-family="Helvetica,sans-Serif" font-size="10.00">+ GlobalUpdateParameters()</text>
<text text-anchor="start" x="87.5" y="-862.5" font-family="Helvetica,sans-Serif" font-size="10.00">+ SlaveUpdateParameters()</text>
<text text-anchor="start" x="87.5" y="-851.5" font-family="Helvetica,sans-Serif" font-size="10.00">+ ProfileSuffStatLogProb()</text>
<text text-anchor="start" x="87.5" y="-840.5" font-family="Helvetica,sans-Serif" font-size="10.00">+ SetMixtureParameters()</text>
<text text-anchor="start" x="87.5" y="-829.5" font-family="Helvetica,sans-Serif" font-size="10.00"># Create()</text>
<text text-anchor="start" x="87.5" y="-818.5" font-family="Helvetica,sans-Serif" font-size="10.00"># Delete()</text>
</a>
</g>
</g>
<!-- Node12&#45;&gt;Node19 -->
<g id="edge15" class="edge"><title>Node12&#45;&gt;Node19</title>
<path fill="none" stroke="midnightblue" d="M166.457,-1048.96C165.289,-1036.17 164.15,-1023.69 163.066,-1011.81"/>
<polygon fill="none" stroke="midnightblue" points="163.004,-1049.63 167.399,-1059.28 169.975,-1049 163.004,-1049.63"/>
</g>
<!-- Node12&#45;&gt;Node19 -->
<g id="edge16" class="edge"><title>Node12&#45;&gt;Node19</title>
<path fill="none" stroke="#404040" d="M167.695,-1059.44C166.787,-1049.49 165.885,-1039.64 165,-1030 164.81,-1027.93 164.618,-1025.84 164.424,-1023.74"/>
<polygon fill="none" stroke="#404040" points="164.401,-1023.49 159.866,-1017.89 163.297,-1011.54 167.832,-1017.15 164.401,-1023.49"/>
<text text-anchor="middle" x="178.5" y="-1033" font-family="Helvetica,sans-Serif" font-size="10.00"> #hub</text>
</g>
<!-- Node13 -->
<g id="node6" class="node"><title>Node13</title>
<g id="a_node6"><a xlink:href="classChrono.html" target="_top" xlink:title="{Chrono\n||+ Chrono()\l+ ~Chrono()\l+ Reset()\l+ Start()\l+ Stop()\l+ ToStream()\l+ FromStream()\l+ operator++()\l+ GetTime()\l+ GetTimePerCount()\l+ GetCount()\l}">
<polygon fill="none" stroke="black" points="0,-1571.5 0,-1738.5 110,-1738.5 110,-1571.5 0,-1571.5"/>
<text text-anchor="middle" x="55" y="-1726.5" font-family="Helvetica,sans-Serif" font-size="10.00">Chrono</text>
<polyline fill="none" stroke="black" points="0,-1719.5 110,-1719.5 "/>
<text text-anchor="middle" x="55" y="-1707.5" font-family="Helvetica,sans-Serif" font-size="10.00"> </text>
<polyline fill="none" stroke="black" points="0,-1700.5 110,-1700.5 "/>
<text text-anchor="start" x="8" y="-1688.5" font-family="Helvetica,sans-Serif" font-size="10.00">+ Chrono()</text>
<text text-anchor="start" x="8" y="-1677.5" font-family="Helvetica,sans-Serif" font-size="10.00">+ ~Chrono()</text>
<text text-anchor="start" x="8" y="-1666.5" font-family="Helvetica,sans-Serif" font-size="10.00">+ Reset()</text>
<text text-anchor="start" x="8" y="-1655.5" font-family="Helvetica,sans-Serif" font-size="10.00">+ Start()</text>
<text text-anchor="start" x="8" y="-1644.5" font-family="Helvetica,sans-Serif" font-size="10.00">+ Stop()</text>
<text text-anchor="start" x="8" y="-1633.5" font-family="Helvetica,sans-Serif" font-size="10.00">+ ToStream()</text>
<text text-anchor="start" x="8" y="-1622.5" font-family="Helvetica,sans-Serif" font-size="10.00">+ FromStream()</text>
<text text-anchor="start" x="8" y="-1611.5" font-family="Helvetica,sans-Serif" font-size="10.00">+ operator++()</text>
<text text-anchor="start" x="8" y="-1600.5" font-family="Helvetica,sans-Serif" font-size="10.00">+ GetTime()</text>
<text text-anchor="start" x="8" y="-1589.5" font-family="Helvetica,sans-Serif" font-size="10.00">+ GetTimePerCount()</text>
<text text-anchor="start" x="8" y="-1578.5" font-family="Helvetica,sans-Serif" font-size="10.00">+ GetCount()</text>
</a>
</g>
</g>
<!-- Node13&#45;&gt;Node12 -->
<g id="edge5" class="edge"><title>Node13&#45;&gt;Node12</title>
<path fill="none" stroke="#404040" d="M69.7409,-1571.2C74.2047,-1550.67 79.6426,-1528.86 86,-1509 89.307,-1498.67 92.9111,-1488.17 96.7248,-1477.64"/>
<polygon fill="none" stroke="#404040" points="96.7916,-1477.46 95.1131,-1470.44 100.941,-1466.2 102.62,-1473.21 96.7916,-1477.46"/>
<text text-anchor="middle" x="113.5" y="-1539.5" font-family="Helvetica,sans-Serif" font-size="10.00"> #chronostat</text>
<text text-anchor="middle" x="113.5" y="-1528.5" font-family="Helvetica,sans-Serif" font-size="10.00">#chronorr</text>
<text text-anchor="middle" x="113.5" y="-1517.5" font-family="Helvetica,sans-Serif" font-size="10.00">#chronodp</text>
</g>
<!-- Node14 -->
<g id="node7" class="node"><title>Node14</title>
<polygon fill="none" stroke="#bfbfbf" points="294.5,-1626.5 294.5,-1683.5 339.5,-1683.5 339.5,-1626.5 294.5,-1626.5"/>
<text text-anchor="middle" x="317" y="-1671.5" font-family="Helvetica,sans-Serif" font-size="10.00">double</text>
<polyline fill="none" stroke="#bfbfbf" points="294.5,-1664.5 339.5,-1664.5 "/>
<text text-anchor="middle" x="317" y="-1652.5" font-family="Helvetica,sans-Serif" font-size="10.00"> </text>
<polyline fill="none" stroke="#bfbfbf" points="294.5,-1645.5 339.5,-1645.5 "/>
<text text-anchor="middle" x="317" y="-1633.5" font-family="Helvetica,sans-Serif" font-size="10.00"> </text>
</g>
<!-- Node14&#45;&gt;Node9 -->
<g id="edge9" class="edge"><title>Node14&#45;&gt;Node9</title>
<path fill="none" stroke="#404040" d="M339.731,-1627.74C354.96,-1608.45 373.84,-1580.86 383,-1553 383,-1553 425,-811 425,-811 430.128,-735.966 436.589,-653.311 442.431,-581.853"/>
<polygon fill="none" stroke="#404040" points="442.458,-581.528 438.961,-575.221 443.438,-569.568 446.935,-575.875 442.458,-581.528"/>
<text text-anchor="middle" x="454" y="-925.5" font-family="Helvetica,sans-Serif" font-size="10.00"> #nucstat</text>
<text text-anchor="middle" x="454" y="-914.5" font-family="Helvetica,sans-Serif" font-size="10.00">#nucrr</text>
<text text-anchor="middle" x="454" y="-903.5" font-family="Helvetica,sans-Serif" font-size="10.00">#omega</text>
<text text-anchor="middle" x="454" y="-892.5" font-family="Helvetica,sans-Serif" font-size="10.00">#codonprofile</text>
</g>
<!-- Node14&#45;&gt;Node12 -->
<g id="edge6" class="edge"><title>Node14&#45;&gt;Node12</title>
<path fill="none" stroke="#404040" d="M294.268,-1631.67C276.142,-1612.5 251.614,-1583.25 238,-1553 230.715,-1536.81 224.471,-1519.65 219.118,-1502.11"/>
<polygon fill="none" stroke="#404040" points="219.101,-1502.05 213.576,-1497.42 215.727,-1490.53 221.253,-1495.17 219.101,-1502.05"/>
<text text-anchor="middle" x="270" y="-1528.5" font-family="Helvetica,sans-Serif" font-size="10.00"> #mintotweight</text>
</g>
<!-- Node15 -->
<g id="node8" class="node"><title>Node15</title>
<polygon fill="none" stroke="#bfbfbf" points="490.5,-1626.5 490.5,-1683.5 519.5,-1683.5 519.5,-1626.5 490.5,-1626.5"/>
<text text-anchor="middle" x="505" y="-1671.5" font-family="Helvetica,sans-Serif" font-size="10.00">int</text>
<polyline fill="none" stroke="#bfbfbf" points="490.5,-1664.5 519.5,-1664.5 "/>
<text text-anchor="middle" x="505" y="-1652.5" font-family="Helvetica,sans-Serif" font-size="10.00"> </text>
<polyline fill="none" stroke="#bfbfbf" points="490.5,-1645.5 519.5,-1645.5 "/>
<text text-anchor="middle" x="505" y="-1633.5" font-family="Helvetica,sans-Serif" font-size="10.00"> </text>
</g>
<!-- Node15&#45;&gt;Node8 -->
<g id="edge19" class="edge"><title>Node15&#45;&gt;Node8</title>
<path fill="none" stroke="#404040" d="M513.456,-1626.45C519.906,-1608.97 530.221,-1586.75 545,-1571 556.168,-1559.1 563.049,-1561.46 577,-1553 620.106,-1526.85 646.063,-1534.24 672,-1491 721.349,-1408.74 691,-1371.93 691,-1276 691,-1276 691,-1276 691,-397 691,-296.455 610.463,-208.393 543.885,-152.772"/>
<polygon fill="none" stroke="#404040" points="543.867,-152.757 536.692,-152.04 534.594,-145.141 541.769,-145.858 543.867,-152.757"/>
<text text-anchor="middle" x="727" y="-785" font-family="Helvetica,sans-Serif" font-size="10.00"> #fixcodonprofile</text>
<text text-anchor="middle" x="727" y="-774" font-family="Helvetica,sans-Serif" font-size="10.00">#fixbl</text>
<text text-anchor="middle" x="727" y="-763" font-family="Helvetica,sans-Serif" font-size="10.00">#fixomega</text>
</g>
<!-- Node15&#45;&gt;Node9 -->
<g id="edge10" class="edge"><title>Node15&#45;&gt;Node9</title>
<path fill="none" stroke="#404040" d="M505,-1626.49C505,-1564.13 505,-1407.25 505,-1276 505,-1276 505,-1276 505,-673.5 505,-643.621 502.261,-612.172 498.106,-581.652"/>
<polygon fill="none" stroke="#404040" points="498.075,-581.433 493.267,-576.058 496.379,-569.553 501.187,-574.928 498.075,-581.433"/>
<text text-anchor="middle" x="533.5" y="-914.5" font-family="Helvetica,sans-Serif" font-size="10.00"> #omegaprior</text>
<text text-anchor="middle" x="533.5" y="-903.5" font-family="Helvetica,sans-Serif" font-size="10.00">#Nnucrr</text>
</g>
<!-- Node15&#45;&gt;Node12 -->
<g id="edge7" class="edge"><title>Node15&#45;&gt;Node12</title>
<path fill="none" stroke="#404040" d="M490.441,-1645.36C464.384,-1629.41 408.956,-1593.29 371,-1553 337.879,-1517.85 306.755,-1476.08 279.86,-1435.79"/>
<polygon fill="none" stroke="#404040" points="279.731,-1435.59 273.086,-1432.79 273.115,-1425.58 279.76,-1428.38 279.731,-1435.59"/>
<text text-anchor="middle" x="400" y="-1545" font-family="Helvetica,sans-Serif" font-size="10.00"> #dim</text>
<text text-anchor="middle" x="400" y="-1534" font-family="Helvetica,sans-Serif" font-size="10.00">#statinfcount</text>
<text text-anchor="middle" x="400" y="-1523" font-family="Helvetica,sans-Serif" font-size="10.00">#totstatcount</text>
<text text-anchor="middle" x="400" y="-1512" font-family="Helvetica,sans-Serif" font-size="10.00">#nsite</text>
</g>
<!-- Node17 -->
<g id="node10" class="node"><title>Node17</title>
<g id="a_node10"><a xlink:href="classCodonStateSpace.html" target="_top" xlink:title="{CodonStateSpace\n||+ CodonStateSpace()\l+ ~CodonStateSpace()\l+ GetNstate()\l+ GetState()\l+ GetState()\l+ GetDNAStateSpace()\l+ GetProteinStateSpace()\l+ GetCodonFromDNA()\l+ GetDifferingPosition()\l+ GetCodonPosition()\l+ IsNonCTNearest()\l+ Translation()\l+ Synonymous()\l+ TranslationWithStops()\l+ CheckStop()\l+ GetDegeneracy()\l+ GetNstop()\l+ GetStopPos1()\l+ GetStopPos2()\l+ GetStopPos3()\l}">
<polygon fill="none" stroke="black" points="533.5,-1142 533.5,-1408 662.5,-1408 662.5,-1142 533.5,-1142"/>
<text text-anchor="middle" x="598" y="-1396" font-family="Helvetica,sans-Serif" font-size="10.00">CodonStateSpace</text>
<polyline fill="none" stroke="black" points="533.5,-1389 662.5,-1389 "/>
<text text-anchor="middle" x="598" y="-1377" font-family="Helvetica,sans-Serif" font-size="10.00"> </text>
<polyline fill="none" stroke="black" points="533.5,-1370 662.5,-1370 "/>
<text text-anchor="start" x="541.5" y="-1358" font-family="Helvetica,sans-Serif" font-size="10.00">+ CodonStateSpace()</text>
<text text-anchor="start" x="541.5" y="-1347" font-family="Helvetica,sans-Serif" font-size="10.00">+ ~CodonStateSpace()</text>
<text text-anchor="start" x="541.5" y="-1336" font-family="Helvetica,sans-Serif" font-size="10.00">+ GetNstate()</text>
<text text-anchor="start" x="541.5" y="-1325" font-family="Helvetica,sans-Serif" font-size="10.00">+ GetState()</text>
<text text-anchor="start" x="541.5" y="-1314" font-family="Helvetica,sans-Serif" font-size="10.00">+ GetState()</text>
<text text-anchor="start" x="541.5" y="-1303" font-family="Helvetica,sans-Serif" font-size="10.00">+ GetDNAStateSpace()</text>
<text text-anchor="start" x="541.5" y="-1292" font-family="Helvetica,sans-Serif" font-size="10.00">+ GetProteinStateSpace()</text>
<text text-anchor="start" x="541.5" y="-1281" font-family="Helvetica,sans-Serif" font-size="10.00">+ GetCodonFromDNA()</text>
<text text-anchor="start" x="541.5" y="-1270" font-family="Helvetica,sans-Serif" font-size="10.00">+ GetDifferingPosition()</text>
<text text-anchor="start" x="541.5" y="-1259" font-family="Helvetica,sans-Serif" font-size="10.00">+ GetCodonPosition()</text>
<text text-anchor="start" x="541.5" y="-1248" font-family="Helvetica,sans-Serif" font-size="10.00">+ IsNonCTNearest()</text>
<text text-anchor="start" x="541.5" y="-1237" font-family="Helvetica,sans-Serif" font-size="10.00">+ Translation()</text>
<text text-anchor="start" x="541.5" y="-1226" font-family="Helvetica,sans-Serif" font-size="10.00">+ Synonymous()</text>
<text text-anchor="start" x="541.5" y="-1215" font-family="Helvetica,sans-Serif" font-size="10.00">+ TranslationWithStops()</text>
<text text-anchor="start" x="541.5" y="-1204" font-family="Helvetica,sans-Serif" font-size="10.00">+ CheckStop()</text>
<text text-anchor="start" x="541.5" y="-1193" font-family="Helvetica,sans-Serif" font-size="10.00">+ GetDegeneracy()</text>
<text text-anchor="start" x="541.5" y="-1182" font-family="Helvetica,sans-Serif" font-size="10.00">+ GetNstop()</text>
<text text-anchor="start" x="541.5" y="-1171" font-family="Helvetica,sans-Serif" font-size="10.00">+ GetStopPos1()</text>
<text text-anchor="start" x="541.5" y="-1160" font-family="Helvetica,sans-Serif" font-size="10.00">+ GetStopPos2()</text>
<text text-anchor="start" x="541.5" y="-1149" font-family="Helvetica,sans-Serif" font-size="10.00">+ GetStopPos3()</text>
</a>
</g>
</g>
<!-- Node15&#45;&gt;Node17 -->
<g id="edge13" class="edge"><title>Node15&#45;&gt;Node17</title>
<path fill="none" stroke="#404040" d="M511.839,-1626.2C522.512,-1582.82 543.855,-1496.07 562.628,-1419.77"/>
<polygon fill="none" stroke="#404040" points="562.63,-1419.76 560.179,-1412.98 565.497,-1408.11 567.948,-1414.89 562.63,-1419.76"/>
<text text-anchor="middle" x="556.5" y="-1528.5" font-family="Helvetica,sans-Serif" font-size="10.00"> +Npos</text>
</g>
<!-- Node15&#45;&gt;Node19 -->
<g id="edge17" class="edge"><title>Node15&#45;&gt;Node19</title>
<path fill="none" stroke="#404040" d="M496.251,-1626.38C463.343,-1523.28 345.632,-1161.51 282,-1059 266.909,-1034.69 257.013,-1033.38 238,-1012 237.615,-1011.57 237.229,-1011.13 236.843,-1010.7"/>
<polygon fill="none" stroke="#404040" points="236.583,-1010.4 229.615,-1008.54 228.652,-1001.4 235.62,-1003.26 236.583,-1010.4"/>
<text text-anchor="middle" x="468" y="-1272.5" font-family="Helvetica,sans-Serif" font-size="10.00"> #offset</text>
</g>
<!-- Node16 -->
<g id="node9" class="node"><title>Node16</title>
<polygon fill="none" stroke="#bfbfbf" points="128.5,-1626.5 128.5,-1683.5 163.5,-1683.5 163.5,-1626.5 128.5,-1626.5"/>
<text text-anchor="middle" x="146" y="-1671.5" font-family="Helvetica,sans-Serif" font-size="10.00">bool</text>
<polyline fill="none" stroke="#bfbfbf" points="128.5,-1664.5 163.5,-1664.5 "/>
<text text-anchor="middle" x="146" y="-1652.5" font-family="Helvetica,sans-Serif" font-size="10.00"> </text>
<polyline fill="none" stroke="#bfbfbf" points="128.5,-1645.5 163.5,-1645.5 "/>
<text text-anchor="middle" x="146" y="-1633.5" font-family="Helvetica,sans-Serif" font-size="10.00"> </text>
</g>
<!-- Node16&#45;&gt;Node12 -->
<g id="edge8" class="edge"><title>Node16&#45;&gt;Node12</title>
<path fill="none" stroke="#404040" d="M144.857,-1626.41C143.957,-1597.19 143.386,-1549.75 147,-1509 147.184,-1506.93 147.376,-1504.84 147.576,-1502.75"/>
<polygon fill="none" stroke="#404040" points="147.588,-1502.64 144.219,-1496.26 148.808,-1490.7 152.177,-1497.08 147.588,-1502.64"/>
<text text-anchor="middle" x="181" y="-1534" font-family="Helvetica,sans-Serif" font-size="10.00"> #activesuffstat</text>
<text text-anchor="middle" x="181" y="-1523" font-family="Helvetica,sans-Serif" font-size="10.00">#burnin</text>
</g>
<!-- Node17&#45;&gt;Node9 -->
<g id="edge11" class="edge"><title>Node17&#45;&gt;Node9</title>
<path fill="none" stroke="#404040" d="M593.737,-1141.78C589.554,-1048.89 581.447,-921.927 566,-811 552.03,-710.68 545.035,-685.885 519,-588 518.393,-585.72 517.776,-583.426 517.148,-581.122"/>
<polygon fill="none" stroke="#404040" points="517.137,-581.084 511.679,-576.372 513.929,-569.521 519.388,-574.233 517.137,-581.084"/>
<text text-anchor="middle" x="591.5" y="-774" font-family="Helvetica,sans-Serif" font-size="10.00"> #statespace</text>
</g>
<!-- Node18 -->
<g id="node11" class="node"><title>Node18</title>
<g id="a_node11"><a xlink:href="classStateSpace.html" target="_top" xlink:title="{StateSpace\n||+ ~StateSpace()\l+ GetState()\l+ GetNstate()\l+ GetState()\l}">
<polygon fill="none" stroke="black" points="553.5,-1610 553.5,-1700 642.5,-1700 642.5,-1610 553.5,-1610"/>
<text text-anchor="middle" x="598" y="-1688" font-family="Helvetica,sans-Serif" font-size="10.00">StateSpace</text>
<polyline fill="none" stroke="black" points="553.5,-1681 642.5,-1681 "/>
<text text-anchor="middle" x="598" y="-1669" font-family="Helvetica,sans-Serif" font-size="10.00"> </text>
<polyline fill="none" stroke="black" points="553.5,-1662 642.5,-1662 "/>
<text text-anchor="start" x="561.5" y="-1650" font-family="Helvetica,sans-Serif" font-size="10.00">+ ~StateSpace()</text>
<text text-anchor="start" x="561.5" y="-1639" font-family="Helvetica,sans-Serif" font-size="10.00">+ GetState()</text>
<text text-anchor="start" x="561.5" y="-1628" font-family="Helvetica,sans-Serif" font-size="10.00">+ GetNstate()</text>
<text text-anchor="start" x="561.5" y="-1617" font-family="Helvetica,sans-Serif" font-size="10.00">+ GetState()</text>
</a>
</g>
</g>
<!-- Node18&#45;&gt;Node17 -->
<g id="edge12" class="edge"><title>Node18&#45;&gt;Node17</title>
<path fill="none" stroke="midnightblue" d="M598,-1599.66C598,-1549.77 598,-1473.84 598,-1408.06"/>
<polygon fill="none" stroke="midnightblue" points="594.5,-1599.9 598,-1609.9 601.5,-1599.9 594.5,-1599.9"/>
</g>
<!-- Node19&#45;&gt;Node8 -->
<g id="edge14" class="edge"><title>Node19&#45;&gt;Node8</title>
<path fill="none" stroke="midnightblue" d="M174.239,-801.389C202.896,-662.215 263.112,-416.725 362,-226 370.199,-210.187 379.999,-194.085 390.143,-178.762"/>
<polygon fill="none" stroke="midnightblue" points="170.803,-800.726 172.23,-811.224 177.661,-802.126 170.803,-800.726"/>
</g>
</g>
</svg>
