<?xml version="1.0" encoding="UTF-8" standalone="no"?>
<!DOCTYPE svg PUBLIC "-//W3C//DTD SVG 1.1//EN"
 "http://www.w3.org/Graphics/SVG/1.1/DTD/svg11.dtd">
<!-- Generated by graphviz version 2.38.0 (20140413.2041)
 -->
<!-- Title: AAMutSelProfileProcess Pages: 1 -->
<svg width="377pt" height="1116pt"
 viewBox="0.00 0.00 377.00 1116.00" xmlns="http://www.w3.org/2000/svg" xmlns:xlink="http://www.w3.org/1999/xlink">
<g id="graph0" class="graph" transform="scale(1 1) rotate(0) translate(4 1112)">
<title>AAMutSelProfileProcess</title>
<!-- Node7 -->
<g id="node1" class="node"><title>Node7</title>
<polygon fill="#bfbfbf" stroke="black" points="131.5,-0.5 131.5,-57.5 256.5,-57.5 256.5,-0.5 131.5,-0.5"/>
<text text-anchor="middle" x="194" y="-45.5" font-family="Helvetica,sans-Serif" font-size="10.00">AAMutSelProfileProcess</text>
<polyline fill="none" stroke="black" points="131.5,-38.5 256.5,-38.5 "/>
<text text-anchor="middle" x="194" y="-26.5" font-family="Helvetica,sans-Serif" font-size="10.00"> </text>
<polyline fill="none" stroke="black" points="131.5,-19.5 256.5,-19.5 "/>
<text text-anchor="middle" x="194" y="-7.5" font-family="Helvetica,sans-Serif" font-size="10.00"> </text>
</g>
<!-- Node8 -->
<g id="node2" class="node"><title>Node8</title>
<g id="a_node2"><a xlink:href="classGeneralPathSuffStatMatrixProfileProcess.html" target="_top" xlink:title="{GeneralPathSuffStatMatrix\lProfileProcess\n||+ GeneralPathSuffStatMatrix\lProfileProcess()\l+ ~GeneralPathSuffStatMatrix\lProfileProcess()\l+ GetSitePairCount()\l+ GetSiteWaitingTime()\l+ GetSiteRootState()\l}">
<polygon fill="none" stroke="black" points="119.5,-95.5 119.5,-229.5 268.5,-229.5 268.5,-95.5 119.5,-95.5"/>
<text text-anchor="start" x="127.5" y="-217.5" font-family="Helvetica,sans-Serif" font-size="10.00">GeneralPathSuffStatMatrix</text>
<text text-anchor="middle" x="194" y="-206.5" font-family="Helvetica,sans-Serif" font-size="10.00">ProfileProcess</text>
<polyline fill="none" stroke="black" points="119.5,-199.5 268.5,-199.5 "/>
<text text-anchor="middle" x="194" y="-187.5" font-family="Helvetica,sans-Serif" font-size="10.00"> </text>
<polyline fill="none" stroke="black" points="119.5,-180.5 268.5,-180.5 "/>
<text text-anchor="start" x="127.5" y="-168.5" font-family="Helvetica,sans-Serif" font-size="10.00">+ GeneralPathSuffStatMatrix</text>
<text text-anchor="start" x="127.5" y="-157.5" font-family="Helvetica,sans-Serif" font-size="10.00">ProfileProcess()</text>
<text text-anchor="start" x="127.5" y="-146.5" font-family="Helvetica,sans-Serif" font-size="10.00">+ ~GeneralPathSuffStatMatrix</text>
<text text-anchor="start" x="127.5" y="-135.5" font-family="Helvetica,sans-Serif" font-size="10.00">ProfileProcess()</text>
<text text-anchor="start" x="127.5" y="-124.5" font-family="Helvetica,sans-Serif" font-size="10.00">+ GetSitePairCount()</text>
<text text-anchor="start" x="127.5" y="-113.5" font-family="Helvetica,sans-Serif" font-size="10.00">+ GetSiteWaitingTime()</text>
<text text-anchor="start" x="127.5" y="-102.5" font-family="Helvetica,sans-Serif" font-size="10.00">+ GetSiteRootState()</text>
</a>
</g>
</g>
<!-- Node8&#45;&gt;Node7 -->
<g id="edge1" class="edge"><title>Node8&#45;&gt;Node7</title>
<path fill="none" stroke="midnightblue" d="M194,-85.1172C194,-75.3593 194,-65.9224 194,-57.697"/>
<polygon fill="none" stroke="midnightblue" points="190.5,-85.3647 194,-95.3647 197.5,-85.3648 190.5,-85.3647"/>
</g>
<!-- Node9 -->
<g id="node3" class="node"><title>Node9</title>
<g id="a_node3"><a xlink:href="classMatrixProfileProcess.html" target="_top" xlink:title="{MatrixProfileProcess\n||+ MatrixProfileProcess()\l+ ~MatrixProfileProcess()\l+ GetMatrix()\l# CreateMatrices()\l# DeleteMatrices()\l# ProfileProposeMove()\l# UpdateMatrices()\l}">
<polygon fill="none" stroke="black" points="130,-267.5 130,-390.5 258,-390.5 258,-267.5 130,-267.5"/>
<text text-anchor="middle" x="194" y="-378.5" font-family="Helvetica,sans-Serif" font-size="10.00">MatrixProfileProcess</text>
<polyline fill="none" stroke="black" points="130,-371.5 258,-371.5 "/>
<text text-anchor="middle" x="194" y="-359.5" font-family="Helvetica,sans-Serif" font-size="10.00"> </text>
<polyline fill="none" stroke="black" points="130,-352.5 258,-352.5 "/>
<text text-anchor="start" x="138" y="-340.5" font-family="Helvetica,sans-Serif" font-size="10.00">+ MatrixProfileProcess()</text>
<text text-anchor="start" x="138" y="-329.5" font-family="Helvetica,sans-Serif" font-size="10.00">+ ~MatrixProfileProcess()</text>
<text text-anchor="start" x="138" y="-318.5" font-family="Helvetica,sans-Serif" font-size="10.00">+ GetMatrix()</text>
<text text-anchor="start" x="138" y="-307.5" font-family="Helvetica,sans-Serif" font-size="10.00"># CreateMatrices()</text>
<text text-anchor="start" x="138" y="-296.5" font-family="Helvetica,sans-Serif" font-size="10.00"># DeleteMatrices()</text>
<text text-anchor="start" x="138" y="-285.5" font-family="Helvetica,sans-Serif" font-size="10.00"># ProfileProposeMove()</text>
<text text-anchor="start" x="138" y="-274.5" font-family="Helvetica,sans-Serif" font-size="10.00"># UpdateMatrices()</text>
</a>
</g>
</g>
<!-- Node9&#45;&gt;Node8 -->
<g id="edge2" class="edge"><title>Node9&#45;&gt;Node8</title>
<path fill="none" stroke="midnightblue" d="M194,-257.024C194,-247.907 194,-238.601 194,-229.566"/>
<polygon fill="none" stroke="midnightblue" points="190.5,-257.214 194,-267.214 197.5,-257.214 190.5,-257.214"/>
</g>
<!-- Node10 -->
<g id="node4" class="node"><title>Node10</title>
<g id="a_node4"><a xlink:href="classProfileProcess.html" target="_top" xlink:title="{ProfileProcess\n||+ ProfileProcess()\l+ ~ProfileProcess()\l+ GetVersion()\l+ GetStatInfCount()\l+ GetDim()\l+ GetNsite()\l+ GetProfile()\l+ GetStateSpace()\l+ LogProfilePrior()\l+ SampleProfile()\l+ GetMeanStationaryEntropy()\l+ GetSiteStationaryEntropy()\l+ UpdateSiteProfileSuffStat()\l+ GlobalUpdateSiteProfileSuffStat()\l+ SlaveUpdateSiteProfileSuffStat()\l+ GlobalUpdateParameters()\l+ SlaveUpdateParameters()\l+ ProfileSuffStatLogProb()\l+ ToStream()\l+ FromStream()\l+ SetBurnin()\l+ isObserved()\l+ GetMinStat()\l+ GetMinMinStat()\l# DrawProfileFromPrior()\l# GetNormalizationFactor()\l# Create()\l# Delete()\l# GetNprocs()\l# GetMyid()\l# GetSiteMin()\l# GetSiteMax()\l# GetEmpiricalFreq()\l# GetMinTotWeight()\l# SetMinTotWeight()\l}">
<polygon fill="none" stroke="black" points="108,-428.5 108,-859.5 280,-859.5 280,-428.5 108,-428.5"/>
<text text-anchor="middle" x="194" y="-847.5" font-family="Helvetica,sans-Serif" font-size="10.00">ProfileProcess</text>
<polyline fill="none" stroke="black" points="108,-840.5 280,-840.5 "/>
<text text-anchor="middle" x="194" y="-828.5" font-family="Helvetica,sans-Serif" font-size="10.00"> </text>
<polyline fill="none" stroke="black" points="108,-821.5 280,-821.5 "/>
<text text-anchor="start" x="116" y="-809.5" font-family="Helvetica,sans-Serif" font-size="10.00">+ ProfileProcess()</text>
<text text-anchor="start" x="116" y="-798.5" font-family="Helvetica,sans-Serif" font-size="10.00">+ ~ProfileProcess()</text>
<text text-anchor="start" x="116" y="-787.5" font-family="Helvetica,sans-Serif" font-size="10.00">+ GetVersion()</text>
<text text-anchor="start" x="116" y="-776.5" font-family="Helvetica,sans-Serif" font-size="10.00">+ GetStatInfCount()</text>
<text text-anchor="start" x="116" y="-765.5" font-family="Helvetica,sans-Serif" font-size="10.00">+ GetDim()</text>
<text text-anchor="start" x="116" y="-754.5" font-family="Helvetica,sans-Serif" font-size="10.00">+ GetNsite()</text>
<text text-anchor="start" x="116" y="-743.5" font-family="Helvetica,sans-Serif" font-size="10.00">+ GetProfile()</text>
<text text-anchor="start" x="116" y="-732.5" font-family="Helvetica,sans-Serif" font-size="10.00">+ GetStateSpace()</text>
<text text-anchor="start" x="116" y="-721.5" font-family="Helvetica,sans-Serif" font-size="10.00">+ LogProfilePrior()</text>
<text text-anchor="start" x="116" y="-710.5" font-family="Helvetica,sans-Serif" font-size="10.00">+ SampleProfile()</text>
<text text-anchor="start" x="116" y="-699.5" font-family="Helvetica,sans-Serif" font-size="10.00">+ GetMeanStationaryEntropy()</text>
<text text-anchor="start" x="116" y="-688.5" font-family="Helvetica,sans-Serif" font-size="10.00">+ GetSiteStationaryEntropy()</text>
<text text-anchor="start" x="116" y="-677.5" font-family="Helvetica,sans-Serif" font-size="10.00">+ UpdateSiteProfileSuffStat()</text>
<text text-anchor="start" x="116" y="-666.5" font-family="Helvetica,sans-Serif" font-size="10.00">+ GlobalUpdateSiteProfileSuffStat()</text>
<text text-anchor="start" x="116" y="-655.5" font-family="Helvetica,sans-Serif" font-size="10.00">+ SlaveUpdateSiteProfileSuffStat()</text>
<text text-anchor="start" x="116" y="-644.5" font-family="Helvetica,sans-Serif" font-size="10.00">+ GlobalUpdateParameters()</text>
<text text-anchor="start" x="116" y="-633.5" font-family="Helvetica,sans-Serif" font-size="10.00">+ SlaveUpdateParameters()</text>
<text text-anchor="start" x="116" y="-622.5" font-family="Helvetica,sans-Serif" font-size="10.00">+ ProfileSuffStatLogProb()</text>
<text text-anchor="start" x="116" y="-611.5" font-family="Helvetica,sans-Serif" font-size="10.00">+ ToStream()</text>
<text text-anchor="start" x="116" y="-600.5" font-family="Helvetica,sans-Serif" font-size="10.00">+ FromStream()</text>
<text text-anchor="start" x="116" y="-589.5" font-family="Helvetica,sans-Serif" font-size="10.00">+ SetBurnin()</text>
<text text-anchor="start" x="116" y="-578.5" font-family="Helvetica,sans-Serif" font-size="10.00">+ isObserved()</text>
<text text-anchor="start" x="116" y="-567.5" font-family="Helvetica,sans-Serif" font-size="10.00">+ GetMinStat()</text>
<text text-anchor="start" x="116" y="-556.5" font-family="Helvetica,sans-Serif" font-size="10.00">+ GetMinMinStat()</text>
<text text-anchor="start" x="116" y="-545.5" font-family="Helvetica,sans-Serif" font-size="10.00"># DrawProfileFromPrior()</text>
<text text-anchor="start" x="116" y="-534.5" font-family="Helvetica,sans-Serif" font-size="10.00"># GetNormalizationFactor()</text>
<text text-anchor="start" x="116" y="-523.5" font-family="Helvetica,sans-Serif" font-size="10.00"># Create()</text>
<text text-anchor="start" x="116" y="-512.5" font-family="Helvetica,sans-Serif" font-size="10.00"># Delete()</text>
<text text-anchor="start" x="116" y="-501.5" font-family="Helvetica,sans-Serif" font-size="10.00"># GetNprocs()</text>
<text text-anchor="start" x="116" y="-490.5" font-family="Helvetica,sans-Serif" font-size="10.00"># GetMyid()</text>
<text text-anchor="start" x="116" y="-479.5" font-family="Helvetica,sans-Serif" font-size="10.00"># GetSiteMin()</text>
<text text-anchor="start" x="116" y="-468.5" font-family="Helvetica,sans-Serif" font-size="10.00"># GetSiteMax()</text>
<text text-anchor="start" x="116" y="-457.5" font-family="Helvetica,sans-Serif" font-size="10.00"># GetEmpiricalFreq()</text>
<text text-anchor="start" x="116" y="-446.5" font-family="Helvetica,sans-Serif" font-size="10.00"># GetMinTotWeight()</text>
<text text-anchor="start" x="116" y="-435.5" font-family="Helvetica,sans-Serif" font-size="10.00"># SetMinTotWeight()</text>
</a>
</g>
</g>
<!-- Node10&#45;&gt;Node9 -->
<g id="edge3" class="edge"><title>Node10&#45;&gt;Node9</title>
<path fill="none" stroke="midnightblue" d="M194,-418.003C194,-408.381 194,-399.191 194,-390.623"/>
<polygon fill="none" stroke="midnightblue" points="190.5,-418.176 194,-428.176 197.5,-418.176 190.5,-418.176"/>
</g>
<!-- Node11 -->
<g id="node5" class="node"><title>Node11</title>
<g id="a_node5"><a xlink:href="classChrono.html" target="_top" xlink:title="{Chrono\n||+ Chrono()\l+ ~Chrono()\l+ Reset()\l+ Start()\l+ Stop()\l+ ToStream()\l+ FromStream()\l+ operator++()\l+ GetTime()\l+ GetTimePerCount()\l+ GetCount()\l}">
<polygon fill="none" stroke="black" points="0,-940.5 0,-1107.5 110,-1107.5 110,-940.5 0,-940.5"/>
<text text-anchor="middle" x="55" y="-1095.5" font-family="Helvetica,sans-Serif" font-size="10.00">Chrono</text>
<polyline fill="none" stroke="black" points="0,-1088.5 110,-1088.5 "/>
<text text-anchor="middle" x="55" y="-1076.5" font-family="Helvetica,sans-Serif" font-size="10.00"> </text>
<polyline fill="none" stroke="black" points="0,-1069.5 110,-1069.5 "/>
<text text-anchor="start" x="8" y="-1057.5" font-family="Helvetica,sans-Serif" font-size="10.00">+ Chrono()</text>
<text text-anchor="start" x="8" y="-1046.5" font-family="Helvetica,sans-Serif" font-size="10.00">+ ~Chrono()</text>
<text text-anchor="start" x="8" y="-1035.5" font-family="Helvetica,sans-Serif" font-size="10.00">+ Reset()</text>
<text text-anchor="start" x="8" y="-1024.5" font-family="Helvetica,sans-Serif" font-size="10.00">+ Start()</text>
<text text-anchor="start" x="8" y="-1013.5" font-family="Helvetica,sans-Serif" font-size="10.00">+ Stop()</text>
<text text-anchor="start" x="8" y="-1002.5" font-family="Helvetica,sans-Serif" font-size="10.00">+ ToStream()</text>
<text text-anchor="start" x="8" y="-991.5" font-family="Helvetica,sans-Serif" font-size="10.00">+ FromStream()</text>
<text text-anchor="start" x="8" y="-980.5" font-family="Helvetica,sans-Serif" font-size="10.00">+ operator++()</text>
<text text-anchor="start" x="8" y="-969.5" font-family="Helvetica,sans-Serif" font-size="10.00">+ GetTime()</text>
<text text-anchor="start" x="8" y="-958.5" font-family="Helvetica,sans-Serif" font-size="10.00">+ GetTimePerCount()</text>
<text text-anchor="start" x="8" y="-947.5" font-family="Helvetica,sans-Serif" font-size="10.00">+ GetCount()</text>
</a>
</g>
</g>
<!-- Node11&#45;&gt;Node10 -->
<g id="edge4" class="edge"><title>Node11&#45;&gt;Node10</title>
<path fill="none" stroke="#404040" d="M72.9301,-940.229C78.0937,-919.693 84.1961,-897.877 91,-878 94.9075,-866.584 99.1519,-854.956 103.617,-843.289"/>
<polygon fill="none" stroke="#404040" points="103.619,-843.284 102.062,-836.243 107.962,-832.098 109.519,-839.139 103.619,-843.284"/>
<text text-anchor="middle" x="118.5" y="-908.5" font-family="Helvetica,sans-Serif" font-size="10.00"> #chronostat</text>
<text text-anchor="middle" x="118.5" y="-897.5" font-family="Helvetica,sans-Serif" font-size="10.00">#chronorr</text>
<text text-anchor="middle" x="118.5" y="-886.5" font-family="Helvetica,sans-Serif" font-size="10.00">#chronodp</text>
</g>
<!-- Node12 -->
<g id="node6" class="node"><title>Node12</title>
<polygon fill="none" stroke="#bfbfbf" points="128.5,-995.5 128.5,-1052.5 173.5,-1052.5 173.5,-995.5 128.5,-995.5"/>
<text text-anchor="middle" x="151" y="-1040.5" font-family="Helvetica,sans-Serif" font-size="10.00">double</text>
<polyline fill="none" stroke="#bfbfbf" points="128.5,-1033.5 173.5,-1033.5 "/>
<text text-anchor="middle" x="151" y="-1021.5" font-family="Helvetica,sans-Serif" font-size="10.00"> </text>
<polyline fill="none" stroke="#bfbfbf" points="128.5,-1014.5 173.5,-1014.5 "/>
<text text-anchor="middle" x="151" y="-1002.5" font-family="Helvetica,sans-Serif" font-size="10.00"> </text>
</g>
<!-- Node12&#45;&gt;Node10 -->
<g id="edge5" class="edge"><title>Node12&#45;&gt;Node10</title>
<path fill="none" stroke="#404040" d="M149.789,-995.403C148.833,-966.178 148.217,-918.733 152,-878 152.193,-875.925 152.394,-873.841 152.604,-871.748"/>
<polygon fill="none" stroke="#404040" points="152.618,-871.617 149.28,-865.225 153.896,-859.685 157.234,-866.077 152.618,-871.617"/>
<text text-anchor="middle" x="184" y="-897.5" font-family="Helvetica,sans-Serif" font-size="10.00"> #mintotweight</text>
</g>
<!-- Node13 -->
<g id="node7" class="node"><title>Node13</title>
<polygon fill="none" stroke="#bfbfbf" points="223.5,-995.5 223.5,-1052.5 252.5,-1052.5 252.5,-995.5 223.5,-995.5"/>
<text text-anchor="middle" x="238" y="-1040.5" font-family="Helvetica,sans-Serif" font-size="10.00">int</text>
<polyline fill="none" stroke="#bfbfbf" points="223.5,-1033.5 252.5,-1033.5 "/>
<text text-anchor="middle" x="238" y="-1021.5" font-family="Helvetica,sans-Serif" font-size="10.00"> </text>
<polyline fill="none" stroke="#bfbfbf" points="223.5,-1014.5 252.5,-1014.5 "/>
<text text-anchor="middle" x="238" y="-1002.5" font-family="Helvetica,sans-Serif" font-size="10.00"> </text>
</g>
<!-- Node13&#45;&gt;Node10 -->
<g id="edge6" class="edge"><title>Node13&#45;&gt;Node10</title>
<path fill="none" stroke="#404040" d="M234.765,-995.205C231.513,-967.267 226.167,-921.34 220.4,-871.801"/>
<polygon fill="none" stroke="#404040" points="220.394,-871.744 215.727,-866.247 219.006,-859.825 223.673,-865.322 220.394,-871.744"/>
<text text-anchor="middle" x="256" y="-914" font-family="Helvetica,sans-Serif" font-size="10.00"> #dim</text>
<text text-anchor="middle" x="256" y="-903" font-family="Helvetica,sans-Serif" font-size="10.00">#statinfcount</text>
<text text-anchor="middle" x="256" y="-892" font-family="Helvetica,sans-Serif" font-size="10.00">#totstatcount</text>
<text text-anchor="middle" x="256" y="-881" font-family="Helvetica,sans-Serif" font-size="10.00">#nsite</text>
</g>
<!-- Node14 -->
<g id="node8" class="node"><title>Node14</title>
<polygon fill="none" stroke="#bfbfbf" points="301.5,-995.5 301.5,-1052.5 336.5,-1052.5 336.5,-995.5 301.5,-995.5"/>
<text text-anchor="middle" x="319" y="-1040.5" font-family="Helvetica,sans-Serif" font-size="10.00">bool</text>
<polyline fill="none" stroke="#bfbfbf" points="301.5,-1033.5 336.5,-1033.5 "/>
<text text-anchor="middle" x="319" y="-1021.5" font-family="Helvetica,sans-Serif" font-size="10.00"> </text>
<polyline fill="none" stroke="#bfbfbf" points="301.5,-1014.5 336.5,-1014.5 "/>
<text text-anchor="middle" x="319" y="-1002.5" font-family="Helvetica,sans-Serif" font-size="10.00"> </text>
</g>
<!-- Node14&#45;&gt;Node10 -->
<g id="edge7" class="edge"><title>Node14&#45;&gt;Node10</title>
<path fill="none" stroke="#404040" d="M314.832,-995.366C310.031,-965.909 301.206,-918.085 289,-878 287.4,-872.745 285.728,-867.445 283.995,-862.115"/>
<polygon fill="none" stroke="#404040" points="283.889,-861.797 278.202,-857.364 280.107,-850.409 285.794,-854.842 283.889,-861.797"/>
<text text-anchor="middle" x="335" y="-903" font-family="Helvetica,sans-Serif" font-size="10.00"> #activesuffstat</text>
<text text-anchor="middle" x="335" y="-892" font-family="Helvetica,sans-Serif" font-size="10.00">#burnin</text>
</g>
</g>
</svg>
