<?xml version="1.0" encoding="UTF-8" standalone="no"?>
<!DOCTYPE svg PUBLIC "-//W3C//DTD SVG 1.1//EN"
 "http://www.w3.org/Graphics/SVG/1.1/DTD/svg11.dtd">
<!-- Generated by graphviz version 2.38.0 (20140413.2041)
 -->
<!-- Title: GTRMixtureProfileProcess Pages: 1 -->
<svg width="952pt" height="1796pt"
 viewBox="0.00 0.00 951.95 1796.00" xmlns="http://www.w3.org/2000/svg" xmlns:xlink="http://www.w3.org/1999/xlink">
<g id="graph0" class="graph" transform="scale(1 1) rotate(0) translate(4 1792)">
<title>GTRMixtureProfileProcess</title>
<!-- Node19 -->
<g id="node1" class="node"><title>Node19</title>
<polygon fill="#bfbfbf" stroke="black" points="248.453,-0.5 248.453,-145.5 403.453,-145.5 403.453,-0.5 248.453,-0.5"/>
<text text-anchor="middle" x="325.953" y="-133.5" font-family="Helvetica,sans-Serif" font-size="10.00">GTRMixtureProfileProcess</text>
<polyline fill="none" stroke="black" points="248.453,-126.5 403.453,-126.5 "/>
<text text-anchor="middle" x="325.953" y="-114.5" font-family="Helvetica,sans-Serif" font-size="10.00"> </text>
<polyline fill="none" stroke="black" points="248.453,-107.5 403.453,-107.5 "/>
<text text-anchor="start" x="256.453" y="-95.5" font-family="Helvetica,sans-Serif" font-size="10.00">+ GTRMixtureProfileProcess()</text>
<text text-anchor="start" x="256.453" y="-84.5" font-family="Helvetica,sans-Serif" font-size="10.00">+ ~GTRMixtureProfileProcess()</text>
<text text-anchor="start" x="256.453" y="-73.5" font-family="Helvetica,sans-Serif" font-size="10.00"># Create()</text>
<text text-anchor="start" x="256.453" y="-62.5" font-family="Helvetica,sans-Serif" font-size="10.00"># Delete()</text>
<text text-anchor="start" x="256.453" y="-51.5" font-family="Helvetica,sans-Serif" font-size="10.00"># CreateMatrix()</text>
<text text-anchor="start" x="256.453" y="-40.5" font-family="Helvetica,sans-Serif" font-size="10.00"># UpdateMatrix()</text>
<text text-anchor="start" x="256.453" y="-29.5" font-family="Helvetica,sans-Serif" font-size="10.00"># GetGTRMatrix()</text>
<text text-anchor="start" x="256.453" y="-18.5" font-family="Helvetica,sans-Serif" font-size="10.00"># GetNormRate()</text>
<text text-anchor="start" x="256.453" y="-7.5" font-family="Helvetica,sans-Serif" font-size="10.00"># GetNormalizationFactor()</text>
</g>
<!-- Node20 -->
<g id="node2" class="node"><title>Node20</title>
<g id="a_node2"><a xlink:href="classGTRProfileProcess.html" target="_top" xlink:title="{GTRProfileProcess\n||+ GTRProfileProcess()\l+ ~GTRProfileProcess()\l+ GetNrr()\l+ GetRR()\l+ GetRRMean()\l+ SetRR()\l+ GetRRVarCoeff()\l+ GetRREntropy()\l+ rrindex()\l# Create()\l# Delete()\l# LogRRPrior()\l# SampleRR()\l# UpdateRRSuffStat()\l# GlobalUpdateRRSuffStat()\l# SlaveUpdateRRSuffStat()\l# MoveRR()\l}">
<polygon fill="none" stroke="black" points="134.453,-183.5 134.453,-416.5 275.453,-416.5 275.453,-183.5 134.453,-183.5"/>
<text text-anchor="middle" x="204.953" y="-404.5" font-family="Helvetica,sans-Serif" font-size="10.00">GTRProfileProcess</text>
<polyline fill="none" stroke="black" points="134.453,-397.5 275.453,-397.5 "/>
<text text-anchor="middle" x="204.953" y="-385.5" font-family="Helvetica,sans-Serif" font-size="10.00"> </text>
<polyline fill="none" stroke="black" points="134.453,-378.5 275.453,-378.5 "/>
<text text-anchor="start" x="142.453" y="-366.5" font-family="Helvetica,sans-Serif" font-size="10.00">+ GTRProfileProcess()</text>
<text text-anchor="start" x="142.453" y="-355.5" font-family="Helvetica,sans-Serif" font-size="10.00">+ ~GTRProfileProcess()</text>
<text text-anchor="start" x="142.453" y="-344.5" font-family="Helvetica,sans-Serif" font-size="10.00">+ GetNrr()</text>
<text text-anchor="start" x="142.453" y="-333.5" font-family="Helvetica,sans-Serif" font-size="10.00">+ GetRR()</text>
<text text-anchor="start" x="142.453" y="-322.5" font-family="Helvetica,sans-Serif" font-size="10.00">+ GetRRMean()</text>
<text text-anchor="start" x="142.453" y="-311.5" font-family="Helvetica,sans-Serif" font-size="10.00">+ SetRR()</text>
<text text-anchor="start" x="142.453" y="-300.5" font-family="Helvetica,sans-Serif" font-size="10.00">+ GetRRVarCoeff()</text>
<text text-anchor="start" x="142.453" y="-289.5" font-family="Helvetica,sans-Serif" font-size="10.00">+ GetRREntropy()</text>
<text text-anchor="start" x="142.453" y="-278.5" font-family="Helvetica,sans-Serif" font-size="10.00">+ rrindex()</text>
<text text-anchor="start" x="142.453" y="-267.5" font-family="Helvetica,sans-Serif" font-size="10.00"># Create()</text>
<text text-anchor="start" x="142.453" y="-256.5" font-family="Helvetica,sans-Serif" font-size="10.00"># Delete()</text>
<text text-anchor="start" x="142.453" y="-245.5" font-family="Helvetica,sans-Serif" font-size="10.00"># LogRRPrior()</text>
<text text-anchor="start" x="142.453" y="-234.5" font-family="Helvetica,sans-Serif" font-size="10.00"># SampleRR()</text>
<text text-anchor="start" x="142.453" y="-223.5" font-family="Helvetica,sans-Serif" font-size="10.00"># UpdateRRSuffStat()</text>
<text text-anchor="start" x="142.453" y="-212.5" font-family="Helvetica,sans-Serif" font-size="10.00"># GlobalUpdateRRSuffStat()</text>
<text text-anchor="start" x="142.453" y="-201.5" font-family="Helvetica,sans-Serif" font-size="10.00"># SlaveUpdateRRSuffStat()</text>
<text text-anchor="start" x="142.453" y="-190.5" font-family="Helvetica,sans-Serif" font-size="10.00"># MoveRR()</text>
</a>
</g>
</g>
<!-- Node20&#45;&gt;Node19 -->
<g id="edge1" class="edge"><title>Node20&#45;&gt;Node19</title>
<path fill="none" stroke="midnightblue" d="M272.061,-174.213C277.311,-164.451 282.493,-154.814 287.448,-145.601"/>
<polygon fill="none" stroke="midnightblue" points="268.879,-172.74 267.225,-183.205 275.044,-176.055 268.879,-172.74"/>
</g>
<!-- Node21 -->
<g id="node3" class="node"><title>Node21</title>
<g id="a_node3"><a xlink:href="classMatrixProfileProcess.html" target="_top" xlink:title="{MatrixProfileProcess\n||+ MatrixProfileProcess()\l+ ~MatrixProfileProcess()\l+ GetMatrix()\l# CreateMatrices()\l# DeleteMatrices()\l# ProfileProposeMove()\l# UpdateMatrices()\l}">
<polygon fill="none" stroke="black" points="217.953,-662.5 217.953,-785.5 345.953,-785.5 345.953,-662.5 217.953,-662.5"/>
<text text-anchor="middle" x="281.953" y="-773.5" font-family="Helvetica,sans-Serif" font-size="10.00">MatrixProfileProcess</text>
<polyline fill="none" stroke="black" points="217.953,-766.5 345.953,-766.5 "/>
<text text-anchor="middle" x="281.953" y="-754.5" font-family="Helvetica,sans-Serif" font-size="10.00"> </text>
<polyline fill="none" stroke="black" points="217.953,-747.5 345.953,-747.5 "/>
<text text-anchor="start" x="225.953" y="-735.5" font-family="Helvetica,sans-Serif" font-size="10.00">+ MatrixProfileProcess()</text>
<text text-anchor="start" x="225.953" y="-724.5" font-family="Helvetica,sans-Serif" font-size="10.00">+ ~MatrixProfileProcess()</text>
<text text-anchor="start" x="225.953" y="-713.5" font-family="Helvetica,sans-Serif" font-size="10.00">+ GetMatrix()</text>
<text text-anchor="start" x="225.953" y="-702.5" font-family="Helvetica,sans-Serif" font-size="10.00"># CreateMatrices()</text>
<text text-anchor="start" x="225.953" y="-691.5" font-family="Helvetica,sans-Serif" font-size="10.00"># DeleteMatrices()</text>
<text text-anchor="start" x="225.953" y="-680.5" font-family="Helvetica,sans-Serif" font-size="10.00"># ProfileProposeMove()</text>
<text text-anchor="start" x="225.953" y="-669.5" font-family="Helvetica,sans-Serif" font-size="10.00"># UpdateMatrices()</text>
</a>
</g>
</g>
<!-- Node21&#45;&gt;Node20 -->
<g id="edge2" class="edge"><title>Node21&#45;&gt;Node20</title>
<path fill="none" stroke="midnightblue" d="M269.01,-652.065C257.298,-587.877 239.831,-492.15 226.094,-416.863"/>
<polygon fill="none" stroke="midnightblue" points="265.601,-652.879 270.839,-662.088 272.487,-651.622 265.601,-652.879"/>
</g>
<!-- Node28 -->
<g id="node10" class="node"><title>Node28</title>
<g id="a_node10"><a xlink:href="classMatrixMixtureProfileProcess.html" target="_top" xlink:title="{MatrixMixtureProfileProcess\n||+ MatrixMixtureProfileProcess()\l+ ~MatrixMixtureProfileProcess()\l+ GetMatrix()\l# Create()\l# Delete()\l# SwapComponents()\l# GlobalMoveProfile()\l# SlaveMoveProfile()\l# MoveProfile()\l# MoveProfile()\l# UpdateModeProfileSuffStat()\l# UpdateMatrices()\l# CreateMatrices()\l# DeleteMatrices()\l# CreateMatrix()\l# DeleteMatrix()\l# UpdateMatrix()\l}">
<polygon fill="none" stroke="black" points="324.453,-183.5 324.453,-416.5 485.453,-416.5 485.453,-183.5 324.453,-183.5"/>
<text text-anchor="middle" x="404.953" y="-404.5" font-family="Helvetica,sans-Serif" font-size="10.00">MatrixMixtureProfileProcess</text>
<polyline fill="none" stroke="black" points="324.453,-397.5 485.453,-397.5 "/>
<text text-anchor="middle" x="404.953" y="-385.5" font-family="Helvetica,sans-Serif" font-size="10.00"> </text>
<polyline fill="none" stroke="black" points="324.453,-378.5 485.453,-378.5 "/>
<text text-anchor="start" x="332.453" y="-366.5" font-family="Helvetica,sans-Serif" font-size="10.00">+ MatrixMixtureProfileProcess()</text>
<text text-anchor="start" x="332.453" y="-355.5" font-family="Helvetica,sans-Serif" font-size="10.00">+ ~MatrixMixtureProfileProcess()</text>
<text text-anchor="start" x="332.453" y="-344.5" font-family="Helvetica,sans-Serif" font-size="10.00">+ GetMatrix()</text>
<text text-anchor="start" x="332.453" y="-333.5" font-family="Helvetica,sans-Serif" font-size="10.00"># Create()</text>
<text text-anchor="start" x="332.453" y="-322.5" font-family="Helvetica,sans-Serif" font-size="10.00"># Delete()</text>
<text text-anchor="start" x="332.453" y="-311.5" font-family="Helvetica,sans-Serif" font-size="10.00"># SwapComponents()</text>
<text text-anchor="start" x="332.453" y="-300.5" font-family="Helvetica,sans-Serif" font-size="10.00"># GlobalMoveProfile()</text>
<text text-anchor="start" x="332.453" y="-289.5" font-family="Helvetica,sans-Serif" font-size="10.00"># SlaveMoveProfile()</text>
<text text-anchor="start" x="332.453" y="-278.5" font-family="Helvetica,sans-Serif" font-size="10.00"># MoveProfile()</text>
<text text-anchor="start" x="332.453" y="-267.5" font-family="Helvetica,sans-Serif" font-size="10.00"># MoveProfile()</text>
<text text-anchor="start" x="332.453" y="-256.5" font-family="Helvetica,sans-Serif" font-size="10.00"># UpdateModeProfileSuffStat()</text>
<text text-anchor="start" x="332.453" y="-245.5" font-family="Helvetica,sans-Serif" font-size="10.00"># UpdateMatrices()</text>
<text text-anchor="start" x="332.453" y="-234.5" font-family="Helvetica,sans-Serif" font-size="10.00"># CreateMatrices()</text>
<text text-anchor="start" x="332.453" y="-223.5" font-family="Helvetica,sans-Serif" font-size="10.00"># DeleteMatrices()</text>
<text text-anchor="start" x="332.453" y="-212.5" font-family="Helvetica,sans-Serif" font-size="10.00"># CreateMatrix()</text>
<text text-anchor="start" x="332.453" y="-201.5" font-family="Helvetica,sans-Serif" font-size="10.00"># DeleteMatrix()</text>
<text text-anchor="start" x="332.453" y="-190.5" font-family="Helvetica,sans-Serif" font-size="10.00"># UpdateMatrix()</text>
</a>
</g>
</g>
<!-- Node21&#45;&gt;Node28 -->
<g id="edge13" class="edge"><title>Node21&#45;&gt;Node28</title>
<path fill="none" stroke="midnightblue" d="M301.32,-652.623C315.788,-600.463 336.214,-527.682 354.953,-464 359.465,-448.666 364.299,-432.548 369.117,-416.66"/>
<polygon fill="none" stroke="midnightblue" points="297.896,-651.872 298.599,-662.443 304.642,-653.741 297.896,-651.872"/>
</g>
<!-- Node22 -->
<g id="node4" class="node"><title>Node22</title>
<g id="a_node4"><a xlink:href="classProfileProcess.html" target="_top" xlink:title="{ProfileProcess\n||+ ProfileProcess()\l+ ~ProfileProcess()\l+ GetVersion()\l+ GetStatInfCount()\l+ GetDim()\l+ GetNsite()\l+ GetProfile()\l+ GetStateSpace()\l+ LogProfilePrior()\l+ SampleProfile()\l+ GetMeanStationaryEntropy()\l+ GetSiteStationaryEntropy()\l+ UpdateSiteProfileSuffStat()\l+ GlobalUpdateSiteProfileSuffStat()\l+ SlaveUpdateSiteProfileSuffStat()\l+ GlobalUpdateParameters()\l+ SlaveUpdateParameters()\l+ ProfileSuffStatLogProb()\l+ ToStream()\l+ FromStream()\l+ SetBurnin()\l+ isObserved()\l+ GetMinStat()\l+ GetMinMinStat()\l# DrawProfileFromPrior()\l# GetNormalizationFactor()\l# Create()\l# Delete()\l# GetNprocs()\l# GetMyid()\l# GetSiteMin()\l# GetSiteMax()\l# GetEmpiricalFreq()\l# GetMinTotWeight()\l# SetMinTotWeight()\l}">
<polygon fill="none" stroke="black" points="217.953,-1059 217.953,-1490 389.953,-1490 389.953,-1059 217.953,-1059"/>
<text text-anchor="middle" x="303.953" y="-1478" font-family="Helvetica,sans-Serif" font-size="10.00">ProfileProcess</text>
<polyline fill="none" stroke="black" points="217.953,-1471 389.953,-1471 "/>
<text text-anchor="middle" x="303.953" y="-1459" font-family="Helvetica,sans-Serif" font-size="10.00"> </text>
<polyline fill="none" stroke="black" points="217.953,-1452 389.953,-1452 "/>
<text text-anchor="start" x="225.953" y="-1440" font-family="Helvetica,sans-Serif" font-size="10.00">+ ProfileProcess()</text>
<text text-anchor="start" x="225.953" y="-1429" font-family="Helvetica,sans-Serif" font-size="10.00">+ ~ProfileProcess()</text>
<text text-anchor="start" x="225.953" y="-1418" font-family="Helvetica,sans-Serif" font-size="10.00">+ GetVersion()</text>
<text text-anchor="start" x="225.953" y="-1407" font-family="Helvetica,sans-Serif" font-size="10.00">+ GetStatInfCount()</text>
<text text-anchor="start" x="225.953" y="-1396" font-family="Helvetica,sans-Serif" font-size="10.00">+ GetDim()</text>
<text text-anchor="start" x="225.953" y="-1385" font-family="Helvetica,sans-Serif" font-size="10.00">+ GetNsite()</text>
<text text-anchor="start" x="225.953" y="-1374" font-family="Helvetica,sans-Serif" font-size="10.00">+ GetProfile()</text>
<text text-anchor="start" x="225.953" y="-1363" font-family="Helvetica,sans-Serif" font-size="10.00">+ GetStateSpace()</text>
<text text-anchor="start" x="225.953" y="-1352" font-family="Helvetica,sans-Serif" font-size="10.00">+ LogProfilePrior()</text>
<text text-anchor="start" x="225.953" y="-1341" font-family="Helvetica,sans-Serif" font-size="10.00">+ SampleProfile()</text>
<text text-anchor="start" x="225.953" y="-1330" font-family="Helvetica,sans-Serif" font-size="10.00">+ GetMeanStationaryEntropy()</text>
<text text-anchor="start" x="225.953" y="-1319" font-family="Helvetica,sans-Serif" font-size="10.00">+ GetSiteStationaryEntropy()</text>
<text text-anchor="start" x="225.953" y="-1308" font-family="Helvetica,sans-Serif" font-size="10.00">+ UpdateSiteProfileSuffStat()</text>
<text text-anchor="start" x="225.953" y="-1297" font-family="Helvetica,sans-Serif" font-size="10.00">+ GlobalUpdateSiteProfileSuffStat()</text>
<text text-anchor="start" x="225.953" y="-1286" font-family="Helvetica,sans-Serif" font-size="10.00">+ SlaveUpdateSiteProfileSuffStat()</text>
<text text-anchor="start" x="225.953" y="-1275" font-family="Helvetica,sans-Serif" font-size="10.00">+ GlobalUpdateParameters()</text>
<text text-anchor="start" x="225.953" y="-1264" font-family="Helvetica,sans-Serif" font-size="10.00">+ SlaveUpdateParameters()</text>
<text text-anchor="start" x="225.953" y="-1253" font-family="Helvetica,sans-Serif" font-size="10.00">+ ProfileSuffStatLogProb()</text>
<text text-anchor="start" x="225.953" y="-1242" font-family="Helvetica,sans-Serif" font-size="10.00">+ ToStream()</text>
<text text-anchor="start" x="225.953" y="-1231" font-family="Helvetica,sans-Serif" font-size="10.00">+ FromStream()</text>
<text text-anchor="start" x="225.953" y="-1220" font-family="Helvetica,sans-Serif" font-size="10.00">+ SetBurnin()</text>
<text text-anchor="start" x="225.953" y="-1209" font-family="Helvetica,sans-Serif" font-size="10.00">+ isObserved()</text>
<text text-anchor="start" x="225.953" y="-1198" font-family="Helvetica,sans-Serif" font-size="10.00">+ GetMinStat()</text>
<text text-anchor="start" x="225.953" y="-1187" font-family="Helvetica,sans-Serif" font-size="10.00">+ GetMinMinStat()</text>
<text text-anchor="start" x="225.953" y="-1176" font-family="Helvetica,sans-Serif" font-size="10.00"># DrawProfileFromPrior()</text>
<text text-anchor="start" x="225.953" y="-1165" font-family="Helvetica,sans-Serif" font-size="10.00"># GetNormalizationFactor()</text>
<text text-anchor="start" x="225.953" y="-1154" font-family="Helvetica,sans-Serif" font-size="10.00"># Create()</text>
<text text-anchor="start" x="225.953" y="-1143" font-family="Helvetica,sans-Serif" font-size="10.00"># Delete()</text>
<text text-anchor="start" x="225.953" y="-1132" font-family="Helvetica,sans-Serif" font-size="10.00"># GetNprocs()</text>
<text text-anchor="start" x="225.953" y="-1121" font-family="Helvetica,sans-Serif" font-size="10.00"># GetMyid()</text>
<text text-anchor="start" x="225.953" y="-1110" font-family="Helvetica,sans-Serif" font-size="10.00"># GetSiteMin()</text>
<text text-anchor="start" x="225.953" y="-1099" font-family="Helvetica,sans-Serif" font-size="10.00"># GetSiteMax()</text>
<text text-anchor="start" x="225.953" y="-1088" font-family="Helvetica,sans-Serif" font-size="10.00"># GetEmpiricalFreq()</text>
<text text-anchor="start" x="225.953" y="-1077" font-family="Helvetica,sans-Serif" font-size="10.00"># GetMinTotWeight()</text>
<text text-anchor="start" x="225.953" y="-1066" font-family="Helvetica,sans-Serif" font-size="10.00"># SetMinTotWeight()</text>
</a>
</g>
</g>
<!-- Node22&#45;&gt;Node21 -->
<g id="edge3" class="edge"><title>Node22&#45;&gt;Node21</title>
<path fill="none" stroke="midnightblue" d="M294.932,-1048.58C291.102,-953.096 286.941,-849.361 284.39,-785.752"/>
<polygon fill="none" stroke="midnightblue" points="291.439,-1048.83 295.337,-1058.69 298.433,-1048.55 291.439,-1048.83"/>
</g>
<!-- Node29 -->
<g id="node11" class="node"><title>Node29</title>
<g id="a_node11"><a xlink:href="classMixtureProfileProcess.html" target="_top" xlink:title="{MixtureProfileProcess\n||+ MixtureProfileProcess()\l+ ~MixtureProfileProcess()\l+ GetProfile()\l+ GetNcomponent()\l+ GetNDisplayedComponent()\l+ GetNOccupiedComponent()\l+ GetNmodeMax()\l+ GetMeanStationaryEntropy()\l+ GetSiteStationaryEntropy()\l+ GetStatEnt()\l+ GetStatEnt()\l+ GetCenterStatEnt()\l+ GetMeanDirWeight()\l+ RenormalizeProfiles()\l+ Move()\l+ MoveDirWeights()\l# UpdateModeProfileSuffStat()\l# ProfileSuffStatLogProb()\l# LogStatProb()\l# ProfileSuffStatLogProb()\l# Create()\l# Delete()\l# CreateComponent()\l# DeleteComponent()\l# UpdateComponent()\l# UpdateComponents()\l# GetAllocEntropy()\l# AddSite()\l# RemoveSite()\l# SampleProfile()\l# SampleHyper()\l# SampleAlloc()\l# SampleStat()\l# SampleStat()\l# SampleStat()\l# UpdateOccupancyNumbers()\l# ResampleEmptyProfiles()\l# LogProfilePrior()\l# LogHyperPrior()\l# LogAllocPrior()\l# LogStatPrior()\l# LogStatPrior()\l# SwapComponents()\l}">
<polygon fill="none" stroke="black" points="363.953,-464.5 363.953,-983.5 515.953,-983.5 515.953,-464.5 363.953,-464.5"/>
<text text-anchor="middle" x="439.953" y="-971.5" font-family="Helvetica,sans-Serif" font-size="10.00">MixtureProfileProcess</text>
<polyline fill="none" stroke="black" points="363.953,-964.5 515.953,-964.5 "/>
<text text-anchor="middle" x="439.953" y="-952.5" font-family="Helvetica,sans-Serif" font-size="10.00"> </text>
<polyline fill="none" stroke="black" points="363.953,-945.5 515.953,-945.5 "/>
<text text-anchor="start" x="371.953" y="-933.5" font-family="Helvetica,sans-Serif" font-size="10.00">+ MixtureProfileProcess()</text>
<text text-anchor="start" x="371.953" y="-922.5" font-family="Helvetica,sans-Serif" font-size="10.00">+ ~MixtureProfileProcess()</text>
<text text-anchor="start" x="371.953" y="-911.5" font-family="Helvetica,sans-Serif" font-size="10.00">+ GetProfile()</text>
<text text-anchor="start" x="371.953" y="-900.5" font-family="Helvetica,sans-Serif" font-size="10.00">+ GetNcomponent()</text>
<text text-anchor="start" x="371.953" y="-889.5" font-family="Helvetica,sans-Serif" font-size="10.00">+ GetNDisplayedComponent()</text>
<text text-anchor="start" x="371.953" y="-878.5" font-family="Helvetica,sans-Serif" font-size="10.00">+ GetNOccupiedComponent()</text>
<text text-anchor="start" x="371.953" y="-867.5" font-family="Helvetica,sans-Serif" font-size="10.00">+ GetNmodeMax()</text>
<text text-anchor="start" x="371.953" y="-856.5" font-family="Helvetica,sans-Serif" font-size="10.00">+ GetMeanStationaryEntropy()</text>
<text text-anchor="start" x="371.953" y="-845.5" font-family="Helvetica,sans-Serif" font-size="10.00">+ GetSiteStationaryEntropy()</text>
<text text-anchor="start" x="371.953" y="-834.5" font-family="Helvetica,sans-Serif" font-size="10.00">+ GetStatEnt()</text>
<text text-anchor="start" x="371.953" y="-823.5" font-family="Helvetica,sans-Serif" font-size="10.00">+ GetStatEnt()</text>
<text text-anchor="start" x="371.953" y="-812.5" font-family="Helvetica,sans-Serif" font-size="10.00">+ GetCenterStatEnt()</text>
<text text-anchor="start" x="371.953" y="-801.5" font-family="Helvetica,sans-Serif" font-size="10.00">+ GetMeanDirWeight()</text>
<text text-anchor="start" x="371.953" y="-790.5" font-family="Helvetica,sans-Serif" font-size="10.00">+ RenormalizeProfiles()</text>
<text text-anchor="start" x="371.953" y="-779.5" font-family="Helvetica,sans-Serif" font-size="10.00">+ Move()</text>
<text text-anchor="start" x="371.953" y="-768.5" font-family="Helvetica,sans-Serif" font-size="10.00">+ MoveDirWeights()</text>
<text text-anchor="start" x="371.953" y="-757.5" font-family="Helvetica,sans-Serif" font-size="10.00"># UpdateModeProfileSuffStat()</text>
<text text-anchor="start" x="371.953" y="-746.5" font-family="Helvetica,sans-Serif" font-size="10.00"># ProfileSuffStatLogProb()</text>
<text text-anchor="start" x="371.953" y="-735.5" font-family="Helvetica,sans-Serif" font-size="10.00"># LogStatProb()</text>
<text text-anchor="start" x="371.953" y="-724.5" font-family="Helvetica,sans-Serif" font-size="10.00"># ProfileSuffStatLogProb()</text>
<text text-anchor="start" x="371.953" y="-713.5" font-family="Helvetica,sans-Serif" font-size="10.00"># Create()</text>
<text text-anchor="start" x="371.953" y="-702.5" font-family="Helvetica,sans-Serif" font-size="10.00"># Delete()</text>
<text text-anchor="start" x="371.953" y="-691.5" font-family="Helvetica,sans-Serif" font-size="10.00"># CreateComponent()</text>
<text text-anchor="start" x="371.953" y="-680.5" font-family="Helvetica,sans-Serif" font-size="10.00"># DeleteComponent()</text>
<text text-anchor="start" x="371.953" y="-669.5" font-family="Helvetica,sans-Serif" font-size="10.00"># UpdateComponent()</text>
<text text-anchor="start" x="371.953" y="-658.5" font-family="Helvetica,sans-Serif" font-size="10.00"># UpdateComponents()</text>
<text text-anchor="start" x="371.953" y="-647.5" font-family="Helvetica,sans-Serif" font-size="10.00"># GetAllocEntropy()</text>
<text text-anchor="start" x="371.953" y="-636.5" font-family="Helvetica,sans-Serif" font-size="10.00"># AddSite()</text>
<text text-anchor="start" x="371.953" y="-625.5" font-family="Helvetica,sans-Serif" font-size="10.00"># RemoveSite()</text>
<text text-anchor="start" x="371.953" y="-614.5" font-family="Helvetica,sans-Serif" font-size="10.00"># SampleProfile()</text>
<text text-anchor="start" x="371.953" y="-603.5" font-family="Helvetica,sans-Serif" font-size="10.00"># SampleHyper()</text>
<text text-anchor="start" x="371.953" y="-592.5" font-family="Helvetica,sans-Serif" font-size="10.00"># SampleAlloc()</text>
<text text-anchor="start" x="371.953" y="-581.5" font-family="Helvetica,sans-Serif" font-size="10.00"># SampleStat()</text>
<text text-anchor="start" x="371.953" y="-570.5" font-family="Helvetica,sans-Serif" font-size="10.00"># SampleStat()</text>
<text text-anchor="start" x="371.953" y="-559.5" font-family="Helvetica,sans-Serif" font-size="10.00"># SampleStat()</text>
<text text-anchor="start" x="371.953" y="-548.5" font-family="Helvetica,sans-Serif" font-size="10.00"># UpdateOccupancyNumbers()</text>
<text text-anchor="start" x="371.953" y="-537.5" font-family="Helvetica,sans-Serif" font-size="10.00"># ResampleEmptyProfiles()</text>
<text text-anchor="start" x="371.953" y="-526.5" font-family="Helvetica,sans-Serif" font-size="10.00"># LogProfilePrior()</text>
<text text-anchor="start" x="371.953" y="-515.5" font-family="Helvetica,sans-Serif" font-size="10.00"># LogHyperPrior()</text>
<text text-anchor="start" x="371.953" y="-504.5" font-family="Helvetica,sans-Serif" font-size="10.00"># LogAllocPrior()</text>
<text text-anchor="start" x="371.953" y="-493.5" font-family="Helvetica,sans-Serif" font-size="10.00"># LogStatPrior()</text>
<text text-anchor="start" x="371.953" y="-482.5" font-family="Helvetica,sans-Serif" font-size="10.00"># LogStatPrior()</text>
<text text-anchor="start" x="371.953" y="-471.5" font-family="Helvetica,sans-Serif" font-size="10.00"># SwapComponents()</text>
</a>
</g>
</g>
<!-- Node22&#45;&gt;Node29 -->
<g id="edge15" class="edge"><title>Node22&#45;&gt;Node29</title>
<path fill="none" stroke="midnightblue" d="M359.657,-1048.84C364.987,-1027.35 370.421,-1005.43 375.822,-983.645"/>
<polygon fill="none" stroke="midnightblue" points="356.226,-1048.14 357.216,-1058.69 363.02,-1049.82 356.226,-1048.14"/>
</g>
<!-- Node23 -->
<g id="node5" class="node"><title>Node23</title>
<g id="a_node5"><a xlink:href="classChrono.html" target="_top" xlink:title="{Chrono\n||+ Chrono()\l+ ~Chrono()\l+ Reset()\l+ Start()\l+ Stop()\l+ ToStream()\l+ FromStream()\l+ operator++()\l+ GetTime()\l+ GetTimePerCount()\l+ GetCount()\l}">
<polygon fill="none" stroke="black" points="167.953,-1620.5 167.953,-1787.5 277.953,-1787.5 277.953,-1620.5 167.953,-1620.5"/>
<text text-anchor="middle" x="222.953" y="-1775.5" font-family="Helvetica,sans-Serif" font-size="10.00">Chrono</text>
<polyline fill="none" stroke="black" points="167.953,-1768.5 277.953,-1768.5 "/>
<text text-anchor="middle" x="222.953" y="-1756.5" font-family="Helvetica,sans-Serif" font-size="10.00"> </text>
<polyline fill="none" stroke="black" points="167.953,-1749.5 277.953,-1749.5 "/>
<text text-anchor="start" x="175.953" y="-1737.5" font-family="Helvetica,sans-Serif" font-size="10.00">+ Chrono()</text>
<text text-anchor="start" x="175.953" y="-1726.5" font-family="Helvetica,sans-Serif" font-size="10.00">+ ~Chrono()</text>
<text text-anchor="start" x="175.953" y="-1715.5" font-family="Helvetica,sans-Serif" font-size="10.00">+ Reset()</text>
<text text-anchor="start" x="175.953" y="-1704.5" font-family="Helvetica,sans-Serif" font-size="10.00">+ Start()</text>
<text text-anchor="start" x="175.953" y="-1693.5" font-family="Helvetica,sans-Serif" font-size="10.00">+ Stop()</text>
<text text-anchor="start" x="175.953" y="-1682.5" font-family="Helvetica,sans-Serif" font-size="10.00">+ ToStream()</text>
<text text-anchor="start" x="175.953" y="-1671.5" font-family="Helvetica,sans-Serif" font-size="10.00">+ FromStream()</text>
<text text-anchor="start" x="175.953" y="-1660.5" font-family="Helvetica,sans-Serif" font-size="10.00">+ operator++()</text>
<text text-anchor="start" x="175.953" y="-1649.5" font-family="Helvetica,sans-Serif" font-size="10.00">+ GetTime()</text>
<text text-anchor="start" x="175.953" y="-1638.5" font-family="Helvetica,sans-Serif" font-size="10.00">+ GetTimePerCount()</text>
<text text-anchor="start" x="175.953" y="-1627.5" font-family="Helvetica,sans-Serif" font-size="10.00">+ GetCount()</text>
</a>
</g>
</g>
<!-- Node23&#45;&gt;Node22 -->
<g id="edge4" class="edge"><title>Node23&#45;&gt;Node22</title>
<path fill="none" stroke="#404040" d="M218.694,-1620.23C218.571,-1593.24 219.783,-1563.23 223.953,-1536 225.667,-1524.81 227.761,-1513.43 230.147,-1502"/>
<polygon fill="none" stroke="#404040" points="230.189,-1501.8 227.554,-1495.09 232.736,-1490.08 235.371,-1496.79 230.189,-1501.8"/>
<text text-anchor="middle" x="251.453" y="-1577.5" font-family="Helvetica,sans-Serif" font-size="10.00"> #chronostat</text>
<text text-anchor="middle" x="251.453" y="-1566.5" font-family="Helvetica,sans-Serif" font-size="10.00">#chronorr</text>
<text text-anchor="middle" x="251.453" y="-1555.5" font-family="Helvetica,sans-Serif" font-size="10.00">#chronodp</text>
</g>
<!-- Node24 -->
<g id="node6" class="node"><title>Node24</title>
<polygon fill="none" stroke="#bfbfbf" points="388.453,-1675.5 388.453,-1732.5 433.453,-1732.5 433.453,-1675.5 388.453,-1675.5"/>
<text text-anchor="middle" x="410.953" y="-1720.5" font-family="Helvetica,sans-Serif" font-size="10.00">double</text>
<polyline fill="none" stroke="#bfbfbf" points="388.453,-1713.5 433.453,-1713.5 "/>
<text text-anchor="middle" x="410.953" y="-1701.5" font-family="Helvetica,sans-Serif" font-size="10.00"> </text>
<polyline fill="none" stroke="#bfbfbf" points="388.453,-1694.5 433.453,-1694.5 "/>
<text text-anchor="middle" x="410.953" y="-1682.5" font-family="Helvetica,sans-Serif" font-size="10.00"> </text>
</g>
<!-- Node24&#45;&gt;Node20 -->
<g id="edge9" class="edge"><title>Node24&#45;&gt;Node20</title>
<path fill="none" stroke="#404040" d="M388.15,-1684.18C364.295,-1665.38 325.08,-1636.91 286.953,-1620 256.8,-1606.63 236.166,-1627.26 214.953,-1602 140.837,-1513.75 178.538,-739.363 196.876,-428.918"/>
<polygon fill="none" stroke="#404040" points="196.889,-428.706 193.252,-422.479 197.601,-416.727 201.238,-422.954 196.889,-428.706"/>
<text text-anchor="middle" x="180.453" y="-1005" font-family="Helvetica,sans-Serif" font-size="10.00"> #rr</text>
</g>
<!-- Node24&#45;&gt;Node22 -->
<g id="edge5" class="edge"><title>Node24&#45;&gt;Node22</title>
<path fill="none" stroke="#404040" d="M399.145,-1675.09C390.979,-1655.02 380.304,-1627.18 372.953,-1602 363.585,-1569.91 354.934,-1535.7 347.154,-1501.96"/>
<polygon fill="none" stroke="#404040" points="347.106,-1501.75 341.873,-1496.79 344.439,-1490.05 349.672,-1495.01 347.106,-1501.75"/>
<text text-anchor="middle" x="404.953" y="-1566.5" font-family="Helvetica,sans-Serif" font-size="10.00"> #mintotweight</text>
</g>
<!-- Node24&#45;&gt;Node29 -->
<g id="edge16" class="edge"><title>Node24&#45;&gt;Node29</title>
<path fill="none" stroke="#404040" d="M420.169,-1675.07C426.291,-1655 433.768,-1627.15 436.953,-1602 440.639,-1572.9 438.575,-1565.29 436.953,-1536 436.508,-1527.96 435.398,-1526.04 434.953,-1518 425.344,-1344.51 426.425,-1149.34 429.991,-996.041"/>
<polygon fill="none" stroke="#404040" points="429.999,-995.676 426.144,-989.582 430.286,-983.679 434.141,-989.773 429.999,-995.676"/>
<text text-anchor="middle" x="483.453" y="-1294" font-family="Helvetica,sans-Serif" font-size="10.00"> #logstatprior</text>
<text text-anchor="middle" x="483.453" y="-1283" font-family="Helvetica,sans-Serif" font-size="10.00">#profile</text>
<text text-anchor="middle" x="483.453" y="-1272" font-family="Helvetica,sans-Serif" font-size="10.00">#profilesuffstatlogprob</text>
<text text-anchor="middle" x="483.453" y="-1261" font-family="Helvetica,sans-Serif" font-size="10.00">#allocprofile</text>
<text text-anchor="middle" x="483.453" y="-1250" font-family="Helvetica,sans-Serif" font-size="10.00">#dirweight</text>
</g>
<!-- Node30 -->
<g id="node12" class="node"><title>Node30</title>
<g id="a_node12"><a xlink:href="classSubMatrix.html" target="_top" xlink:title="{SubMatrix\n||+ SubMatrix()\l+ ~SubMatrix()\l+ Create()\l+ operator()()\l+ GetRow()\l+ GetStationary()\l+ Stationary()\l+ GetNstate()\l+ GetRate()\l+ ScalarMul()\l+ isNormalised()\l+ Normalise()\l+ CorruptMatrix()\l+ UpdateMatrix()\l+ ActivatePowers()\l+ InactivatePowers()\l+ Power()\l+ GetUniformizationMu()\l+ GetEigenVal()\l+ GetEigenVect()\l+ GetInvEigenVect()\l+ GetFiniteTimeTransitionProb()\l+ DrawUniformizedTransition()\l+ DrawUniformizedSubstitution\lNumber()\l+ DrawOneStep()\l+ ToStream()\l+ CheckReversibility()\l+ GetDiagStat()\l+ GetUniSubCount()\l+ GetMeanUni()\l# ComputeExponential()\l# ComputeArray()\l# ComputeStationary()\l# UpdateRow()\l# UpdateStationary()\l# ComputePowers()\l# CreatePowers()\l# ArrayUpdated()\l# Diagonalise()\l}">
<polygon fill="none" stroke="black" points="540.953,-1031.5 540.953,-1517.5 696.953,-1517.5 696.953,-1031.5 540.953,-1031.5"/>
<text text-anchor="middle" x="618.953" y="-1505.5" font-family="Helvetica,sans-Serif" font-size="10.00">SubMatrix</text>
<polyline fill="none" stroke="black" points="540.953,-1498.5 696.953,-1498.5 "/>
<text text-anchor="middle" x="618.953" y="-1486.5" font-family="Helvetica,sans-Serif" font-size="10.00"> </text>
<polyline fill="none" stroke="black" points="540.953,-1479.5 696.953,-1479.5 "/>
<text text-anchor="start" x="548.953" y="-1467.5" font-family="Helvetica,sans-Serif" font-size="10.00">+ SubMatrix()</text>
<text text-anchor="start" x="548.953" y="-1456.5" font-family="Helvetica,sans-Serif" font-size="10.00">+ ~SubMatrix()</text>
<text text-anchor="start" x="548.953" y="-1445.5" font-family="Helvetica,sans-Serif" font-size="10.00">+ Create()</text>
<text text-anchor="start" x="548.953" y="-1434.5" font-family="Helvetica,sans-Serif" font-size="10.00">+ operator()()</text>
<text text-anchor="start" x="548.953" y="-1423.5" font-family="Helvetica,sans-Serif" font-size="10.00">+ GetRow()</text>
<text text-anchor="start" x="548.953" y="-1412.5" font-family="Helvetica,sans-Serif" font-size="10.00">+ GetStationary()</text>
<text text-anchor="start" x="548.953" y="-1401.5" font-family="Helvetica,sans-Serif" font-size="10.00">+ Stationary()</text>
<text text-anchor="start" x="548.953" y="-1390.5" font-family="Helvetica,sans-Serif" font-size="10.00">+ GetNstate()</text>
<text text-anchor="start" x="548.953" y="-1379.5" font-family="Helvetica,sans-Serif" font-size="10.00">+ GetRate()</text>
<text text-anchor="start" x="548.953" y="-1368.5" font-family="Helvetica,sans-Serif" font-size="10.00">+ ScalarMul()</text>
<text text-anchor="start" x="548.953" y="-1357.5" font-family="Helvetica,sans-Serif" font-size="10.00">+ isNormalised()</text>
<text text-anchor="start" x="548.953" y="-1346.5" font-family="Helvetica,sans-Serif" font-size="10.00">+ Normalise()</text>
<text text-anchor="start" x="548.953" y="-1335.5" font-family="Helvetica,sans-Serif" font-size="10.00">+ CorruptMatrix()</text>
<text text-anchor="start" x="548.953" y="-1324.5" font-family="Helvetica,sans-Serif" font-size="10.00">+ UpdateMatrix()</text>
<text text-anchor="start" x="548.953" y="-1313.5" font-family="Helvetica,sans-Serif" font-size="10.00">+ ActivatePowers()</text>
<text text-anchor="start" x="548.953" y="-1302.5" font-family="Helvetica,sans-Serif" font-size="10.00">+ InactivatePowers()</text>
<text text-anchor="start" x="548.953" y="-1291.5" font-family="Helvetica,sans-Serif" font-size="10.00">+ Power()</text>
<text text-anchor="start" x="548.953" y="-1280.5" font-family="Helvetica,sans-Serif" font-size="10.00">+ GetUniformizationMu()</text>
<text text-anchor="start" x="548.953" y="-1269.5" font-family="Helvetica,sans-Serif" font-size="10.00">+ GetEigenVal()</text>
<text text-anchor="start" x="548.953" y="-1258.5" font-family="Helvetica,sans-Serif" font-size="10.00">+ GetEigenVect()</text>
<text text-anchor="start" x="548.953" y="-1247.5" font-family="Helvetica,sans-Serif" font-size="10.00">+ GetInvEigenVect()</text>
<text text-anchor="start" x="548.953" y="-1236.5" font-family="Helvetica,sans-Serif" font-size="10.00">+ GetFiniteTimeTransitionProb()</text>
<text text-anchor="start" x="548.953" y="-1225.5" font-family="Helvetica,sans-Serif" font-size="10.00">+ DrawUniformizedTransition()</text>
<text text-anchor="start" x="548.953" y="-1214.5" font-family="Helvetica,sans-Serif" font-size="10.00">+ DrawUniformizedSubstitution</text>
<text text-anchor="start" x="548.953" y="-1203.5" font-family="Helvetica,sans-Serif" font-size="10.00">Number()</text>
<text text-anchor="start" x="548.953" y="-1192.5" font-family="Helvetica,sans-Serif" font-size="10.00">+ DrawOneStep()</text>
<text text-anchor="start" x="548.953" y="-1181.5" font-family="Helvetica,sans-Serif" font-size="10.00">+ ToStream()</text>
<text text-anchor="start" x="548.953" y="-1170.5" font-family="Helvetica,sans-Serif" font-size="10.00">+ CheckReversibility()</text>
<text text-anchor="start" x="548.953" y="-1159.5" font-family="Helvetica,sans-Serif" font-size="10.00">+ GetDiagStat()</text>
<text text-anchor="start" x="548.953" y="-1148.5" font-family="Helvetica,sans-Serif" font-size="10.00">+ GetUniSubCount()</text>
<text text-anchor="start" x="548.953" y="-1137.5" font-family="Helvetica,sans-Serif" font-size="10.00">+ GetMeanUni()</text>
<text text-anchor="start" x="548.953" y="-1126.5" font-family="Helvetica,sans-Serif" font-size="10.00"># ComputeExponential()</text>
<text text-anchor="start" x="548.953" y="-1115.5" font-family="Helvetica,sans-Serif" font-size="10.00"># ComputeArray()</text>
<text text-anchor="start" x="548.953" y="-1104.5" font-family="Helvetica,sans-Serif" font-size="10.00"># ComputeStationary()</text>
<text text-anchor="start" x="548.953" y="-1093.5" font-family="Helvetica,sans-Serif" font-size="10.00"># UpdateRow()</text>
<text text-anchor="start" x="548.953" y="-1082.5" font-family="Helvetica,sans-Serif" font-size="10.00"># UpdateStationary()</text>
<text text-anchor="start" x="548.953" y="-1071.5" font-family="Helvetica,sans-Serif" font-size="10.00"># ComputePowers()</text>
<text text-anchor="start" x="548.953" y="-1060.5" font-family="Helvetica,sans-Serif" font-size="10.00"># CreatePowers()</text>
<text text-anchor="start" x="548.953" y="-1049.5" font-family="Helvetica,sans-Serif" font-size="10.00"># ArrayUpdated()</text>
<text text-anchor="start" x="548.953" y="-1038.5" font-family="Helvetica,sans-Serif" font-size="10.00"># Diagonalise()</text>
</a>
</g>
</g>
<!-- Node24&#45;&gt;Node30 -->
<g id="edge19" class="edge"><title>Node24&#45;&gt;Node30</title>
<path fill="none" stroke="#404040" d="M433.547,-1692.51C464.048,-1677.13 517.811,-1645.5 545.953,-1602 555.542,-1587.18 564.693,-1560.99 573.073,-1529.66"/>
<polygon fill="none" stroke="#404040" points="573.111,-1529.52 570.746,-1522.7 576.125,-1517.9 578.49,-1524.71 573.111,-1529.52"/>
<text text-anchor="middle" x="600.953" y="-1583" font-family="Helvetica,sans-Serif" font-size="10.00"> #UniMu</text>
<text text-anchor="middle" x="600.953" y="-1572" font-family="Helvetica,sans-Serif" font-size="10.00">#mStationary</text>
<text text-anchor="middle" x="600.953" y="-1561" font-family="Helvetica,sans-Serif" font-size="10.00">#Q</text>
<text text-anchor="middle" x="600.953" y="-1550" font-family="Helvetica,sans-Serif" font-size="10.00">#mPow</text>
</g>
<!-- Node25 -->
<g id="node7" class="node"><title>Node25</title>
<polygon fill="none" stroke="#bfbfbf" points="676.453,-1675.5 676.453,-1732.5 705.453,-1732.5 705.453,-1675.5 676.453,-1675.5"/>
<text text-anchor="middle" x="690.953" y="-1720.5" font-family="Helvetica,sans-Serif" font-size="10.00">int</text>
<polyline fill="none" stroke="#bfbfbf" points="676.453,-1713.5 705.453,-1713.5 "/>
<text text-anchor="middle" x="690.953" y="-1701.5" font-family="Helvetica,sans-Serif" font-size="10.00"> </text>
<polyline fill="none" stroke="#bfbfbf" points="676.453,-1694.5 705.453,-1694.5 "/>
<text text-anchor="middle" x="690.953" y="-1682.5" font-family="Helvetica,sans-Serif" font-size="10.00"> </text>
</g>
<!-- Node25&#45;&gt;Node20 -->
<g id="edge10" class="edge"><title>Node25&#45;&gt;Node20</title>
<path fill="none" stroke="#404040" d="M705.595,-1686.71C731.869,-1656.25 786.125,-1587.46 805.953,-1518 935.42,-1064.49 1030.56,-782.741 682.953,-464 561.425,-352.565 461.997,-491.598 314.953,-417 304.465,-411.679 294.435,-404.941 284.999,-397.402"/>
<polygon fill="none" stroke="#404040" points="284.94,-397.352 277.775,-396.543 275.766,-389.618 282.931,-390.427 284.94,-397.352"/>
<text text-anchor="middle" x="932.953" y="-1005" font-family="Helvetica,sans-Serif" font-size="10.00"> #Nrr</text>
</g>
<!-- Node25&#45;&gt;Node22 -->
<g id="edge6" class="edge"><title>Node25&#45;&gt;Node22</title>
<path fill="none" stroke="#404040" d="M676.367,-1698.88C640.235,-1688.08 545.084,-1656.01 483.953,-1602 457.717,-1578.82 467.203,-1559.17 440.953,-1536 427.242,-1523.9 416.479,-1531.32 403.953,-1518 398.631,-1512.34 393.574,-1506.36 388.77,-1500.12"/>
<polygon fill="none" stroke="#404040" points="388.529,-1499.79 381.754,-1497.32 381.428,-1490.11 388.203,-1492.58 388.529,-1499.79"/>
<text text-anchor="middle" x="512.953" y="-1583" font-family="Helvetica,sans-Serif" font-size="10.00"> #dim</text>
<text text-anchor="middle" x="512.953" y="-1572" font-family="Helvetica,sans-Serif" font-size="10.00">#statinfcount</text>
<text text-anchor="middle" x="512.953" y="-1561" font-family="Helvetica,sans-Serif" font-size="10.00">#totstatcount</text>
<text text-anchor="middle" x="512.953" y="-1550" font-family="Helvetica,sans-Serif" font-size="10.00">#nsite</text>
</g>
<!-- Node25&#45;&gt;Node29 -->
<g id="edge17" class="edge"><title>Node25&#45;&gt;Node29</title>
<path fill="none" stroke="#404040" d="M700.875,-1675.13C707.467,-1655.08 715.519,-1627.24 718.953,-1602 722.907,-1572.93 719.331,-1565.33 718.953,-1536 717.509,-1423.75 776.005,-1118.72 705.953,-1031 655.497,-967.817 589.115,-1035.37 525.534,-987.257"/>
<polygon fill="none" stroke="#404040" points="525.312,-987.068 518.151,-986.224 516.175,-979.289 523.337,-980.133 525.312,-987.068"/>
<text text-anchor="middle" x="771.453" y="-1283" font-family="Helvetica,sans-Serif" font-size="10.00"> #occupancy</text>
<text text-anchor="middle" x="771.453" y="-1272" font-family="Helvetica,sans-Serif" font-size="10.00">#Ncomponent</text>
<text text-anchor="middle" x="771.453" y="-1261" font-family="Helvetica,sans-Serif" font-size="10.00">#alloc</text>
</g>
<!-- Node25&#45;&gt;Node30 -->
<g id="edge20" class="edge"><title>Node25&#45;&gt;Node30</title>
<path fill="none" stroke="#404040" d="M677.955,-1675.35C669.161,-1655.4 658.071,-1627.59 651.953,-1602 646.404,-1578.79 641.788,-1554.42 637.947,-1529.92"/>
<polygon fill="none" stroke="#404040" points="637.921,-1529.74 633.067,-1524.41 636.124,-1517.88 640.977,-1523.21 637.921,-1529.74"/>
<text text-anchor="middle" x="685.453" y="-1594" font-family="Helvetica,sans-Serif" font-size="10.00"> +nunisubcount</text>
<text text-anchor="middle" x="685.453" y="-1583" font-family="Helvetica,sans-Serif" font-size="10.00">#Nstate</text>
<text text-anchor="middle" x="685.453" y="-1572" font-family="Helvetica,sans-Serif" font-size="10.00">+UniSubNmax</text>
<text text-anchor="middle" x="685.453" y="-1561" font-family="Helvetica,sans-Serif" font-size="10.00">#npow</text>
<text text-anchor="middle" x="685.453" y="-1550" font-family="Helvetica,sans-Serif" font-size="10.00">+nuni</text>
<text text-anchor="middle" x="685.453" y="-1539" font-family="Helvetica,sans-Serif" font-size="10.00">+nunimax</text>
</g>
<!-- Node26 -->
<g id="node8" class="node"><title>Node26</title>
<polygon fill="none" stroke="#bfbfbf" points="89.4531,-1675.5 89.4531,-1732.5 124.453,-1732.5 124.453,-1675.5 89.4531,-1675.5"/>
<text text-anchor="middle" x="106.953" y="-1720.5" font-family="Helvetica,sans-Serif" font-size="10.00">bool</text>
<polyline fill="none" stroke="#bfbfbf" points="89.4531,-1713.5 124.453,-1713.5 "/>
<text text-anchor="middle" x="106.953" y="-1701.5" font-family="Helvetica,sans-Serif" font-size="10.00"> </text>
<polyline fill="none" stroke="#bfbfbf" points="89.4531,-1694.5 124.453,-1694.5 "/>
<text text-anchor="middle" x="106.953" y="-1682.5" font-family="Helvetica,sans-Serif" font-size="10.00"> </text>
</g>
<!-- Node26&#45;&gt;Node20 -->
<g id="edge11" class="edge"><title>Node26&#45;&gt;Node20</title>
<path fill="none" stroke="#404040" d="M106.798,-1675.18C106.387,-1538.93 108.581,-928.674 175.953,-435 176.235,-432.933 176.532,-430.85 176.842,-428.755"/>
<polygon fill="none" stroke="#404040" points="176.882,-428.503 173.868,-421.952 178.755,-416.65 181.77,-423.201 176.882,-428.503"/>
<text text-anchor="middle" x="137.453" y="-1005" font-family="Helvetica,sans-Serif" font-size="10.00"> #fixrr</text>
</g>
<!-- Node26&#45;&gt;Node22 -->
<g id="edge7" class="edge"><title>Node26&#45;&gt;Node22</title>
<path fill="none" stroke="#404040" d="M110.911,-1675.3C116.341,-1641.5 127.687,-1583.04 146.953,-1536 164.315,-1493.61 187.938,-1450.04 211.585,-1410.95"/>
<polygon fill="none" stroke="#404040" points="211.664,-1410.82 211.379,-1403.62 217.921,-1400.58 218.205,-1407.79 211.664,-1410.82"/>
<text text-anchor="middle" x="180.953" y="-1572" font-family="Helvetica,sans-Serif" font-size="10.00"> #activesuffstat</text>
<text text-anchor="middle" x="180.953" y="-1561" font-family="Helvetica,sans-Serif" font-size="10.00">#burnin</text>
</g>
<!-- Node26&#45;&gt;Node30 -->
<g id="edge21" class="edge"><title>Node26&#45;&gt;Node30</title>
<path fill="none" stroke="#404040" d="M117.042,-1675.35C125.356,-1656.65 139.041,-1633.05 158.953,-1620 204.063,-1590.44 236.756,-1635.58 278.953,-1602 303.622,-1582.37 279.632,-1554.78 304.953,-1536 344.706,-1506.51 487.388,-1547.74 526.953,-1518 528.472,-1516.86 529.965,-1515.69 531.434,-1514.49"/>
<polygon fill="none" stroke="#404040" points="531.793,-1514.17 533.631,-1507.2 540.775,-1506.22 538.937,-1513.19 531.793,-1514.17"/>
<text text-anchor="middle" x="328.953" y="-1588.5" font-family="Helvetica,sans-Serif" font-size="10.00"> #flagarray</text>
<text text-anchor="middle" x="328.953" y="-1577.5" font-family="Helvetica,sans-Serif" font-size="10.00">#diagflag</text>
<text text-anchor="middle" x="328.953" y="-1566.5" font-family="Helvetica,sans-Serif" font-size="10.00">#powflag</text>
<text text-anchor="middle" x="328.953" y="-1555.5" font-family="Helvetica,sans-Serif" font-size="10.00">#normalise</text>
<text text-anchor="middle" x="328.953" y="-1544.5" font-family="Helvetica,sans-Serif" font-size="10.00">#statflag</text>
</g>
<!-- Node27 -->
<g id="node9" class="node"><title>Node27</title>
<polygon fill="none" stroke="#bfbfbf" points="4.45314,-695.5 4.45314,-752.5 45.4531,-752.5 45.4531,-695.5 4.45314,-695.5"/>
<text text-anchor="middle" x="24.9531" y="-740.5" font-family="Helvetica,sans-Serif" font-size="10.00">string</text>
<polyline fill="none" stroke="#bfbfbf" points="4.45314,-733.5 45.4531,-733.5 "/>
<text text-anchor="middle" x="24.9531" y="-721.5" font-family="Helvetica,sans-Serif" font-size="10.00"> </text>
<polyline fill="none" stroke="#bfbfbf" points="4.45314,-714.5 45.4531,-714.5 "/>
<text text-anchor="middle" x="24.9531" y="-702.5" font-family="Helvetica,sans-Serif" font-size="10.00"> </text>
</g>
<!-- Node27&#45;&gt;Node20 -->
<g id="edge8" class="edge"><title>Node27&#45;&gt;Node20</title>
<path fill="none" stroke="#404040" d="M17.3321,-695.34C4.16257,-641.749 -17.5039,-521.442 25.9531,-435 46.5839,-393.963 86.3817,-362.235 123.222,-339.977"/>
<polygon fill="none" stroke="#404040" points="123.664,-339.718 126.825,-333.237 134.024,-333.662 130.863,-340.143 123.664,-339.718"/>
<text text-anchor="middle" x="42.9531" y="-438" font-family="Helvetica,sans-Serif" font-size="10.00"> #rrtype</text>
</g>
<!-- Node28&#45;&gt;Node19 -->
<g id="edge12" class="edge"><title>Node28&#45;&gt;Node19</title>
<path fill="none" stroke="midnightblue" d="M360.929,-173.615C357.573,-164.058 354.262,-154.626 351.093,-145.601"/>
<polygon fill="none" stroke="midnightblue" points="357.681,-174.929 364.296,-183.205 364.286,-172.61 357.681,-174.929"/>
</g>
<!-- Node29&#45;&gt;Node28 -->
<g id="edge14" class="edge"><title>Node29&#45;&gt;Node28</title>
<path fill="none" stroke="midnightblue" d="M417.654,-454.136C416.593,-441.343 415.557,-428.858 414.565,-416.889"/>
<polygon fill="none" stroke="midnightblue" points="414.195,-454.782 418.51,-464.458 421.171,-454.203 414.195,-454.782"/>
</g>
<!-- Node30&#45;&gt;Node28 -->
<g id="edge18" class="edge"><title>Node30&#45;&gt;Node28</title>
<path fill="none" stroke="#404040" d="M623.031,-1031.43C618.173,-866.308 596.421,-645.506 524.953,-464 516.768,-443.213 505.248,-422.698 492.554,-403.602"/>
<polygon fill="none" stroke="#404040" points="492.384,-403.354 485.695,-400.661 485.608,-393.45 492.298,-396.143 492.384,-403.354"/>
<text text-anchor="middle" x="649.953" y="-721.5" font-family="Helvetica,sans-Serif" font-size="10.00"> #matrixarray</text>
</g>
</g>
</svg>
