<?xml version="1.0" encoding="UTF-8" standalone="no"?>
<!DOCTYPE svg PUBLIC "-//W3C//DTD SVG 1.1//EN"
 "http://www.w3.org/Graphics/SVG/1.1/DTD/svg11.dtd">
<!-- Generated by graphviz version 2.38.0 (20140413.2041)
 -->
<!-- Title: Tree Pages: 1 -->
<svg width="916pt" height="1145pt"
 viewBox="0.00 0.00 915.50 1145.00" xmlns="http://www.w3.org/2000/svg" xmlns:xlink="http://www.w3.org/1999/xlink">
<g id="graph0" class="graph" transform="scale(1 1) rotate(0) translate(4 1141)">
<title>Tree</title>
<!-- Node2 -->
<g id="node1" class="node"><title>Node2</title>
<polygon fill="#bfbfbf" stroke="black" points="469,-0.5 469,-673.5 608,-673.5 608,-0.5 469,-0.5"/>
<text text-anchor="middle" x="538.5" y="-661.5" font-family="Helvetica,sans-Serif" font-size="10.00">Tree</text>
<polyline fill="none" stroke="black" points="469,-654.5 608,-654.5 "/>
<text text-anchor="middle" x="538.5" y="-642.5" font-family="Helvetica,sans-Serif" font-size="10.00"> </text>
<polyline fill="none" stroke="black" points="469,-635.5 608,-635.5 "/>
<text text-anchor="start" x="477" y="-623.5" font-family="Helvetica,sans-Serif" font-size="10.00">+ Tree()</text>
<text text-anchor="start" x="477" y="-612.5" font-family="Helvetica,sans-Serif" font-size="10.00">+ Tree()</text>
<text text-anchor="start" x="477" y="-601.5" font-family="Helvetica,sans-Serif" font-size="10.00">+ MakeRandomTree()</text>
<text text-anchor="start" x="477" y="-590.5" font-family="Helvetica,sans-Serif" font-size="10.00">+ Tree()</text>
<text text-anchor="start" x="477" y="-579.5" font-family="Helvetica,sans-Serif" font-size="10.00">+ Tree()</text>
<text text-anchor="start" x="477" y="-568.5" font-family="Helvetica,sans-Serif" font-size="10.00">+ Tree()</text>
<text text-anchor="start" x="477" y="-557.5" font-family="Helvetica,sans-Serif" font-size="10.00">+ ReadFromStream()</text>
<text text-anchor="start" x="477" y="-546.5" font-family="Helvetica,sans-Serif" font-size="10.00">+ ~Tree()</text>
<text text-anchor="start" x="477" y="-535.5" font-family="Helvetica,sans-Serif" font-size="10.00">+ DeleteNextLeaf()</text>
<text text-anchor="start" x="477" y="-524.5" font-family="Helvetica,sans-Serif" font-size="10.00">+ Detach()</text>
<text text-anchor="start" x="477" y="-513.5" font-family="Helvetica,sans-Serif" font-size="10.00">+ Attach()</text>
<text text-anchor="start" x="477" y="-502.5" font-family="Helvetica,sans-Serif" font-size="10.00">+ NNIturn()</text>
<text text-anchor="start" x="477" y="-491.5" font-family="Helvetica,sans-Serif" font-size="10.00">+ RootAtRandom()</text>
<text text-anchor="start" x="477" y="-480.5" font-family="Helvetica,sans-Serif" font-size="10.00">+ RootAt()</text>
<text text-anchor="start" x="477" y="-469.5" font-family="Helvetica,sans-Serif" font-size="10.00">+ ChooseLinkAtRandom()</text>
<text text-anchor="start" x="477" y="-458.5" font-family="Helvetica,sans-Serif" font-size="10.00">+ CountInternalNodes()</text>
<text text-anchor="start" x="477" y="-447.5" font-family="Helvetica,sans-Serif" font-size="10.00">+ ChooseInternalNode()</text>
<text text-anchor="start" x="477" y="-436.5" font-family="Helvetica,sans-Serif" font-size="10.00">+ CountNodes()</text>
<text text-anchor="start" x="477" y="-425.5" font-family="Helvetica,sans-Serif" font-size="10.00">+ ChooseNode()</text>
<text text-anchor="start" x="477" y="-414.5" font-family="Helvetica,sans-Serif" font-size="10.00">+ DrawSubTree()</text>
<text text-anchor="start" x="477" y="-403.5" font-family="Helvetica,sans-Serif" font-size="10.00">+ GrepNode()</text>
<text text-anchor="start" x="477" y="-392.5" font-family="Helvetica,sans-Serif" font-size="10.00">+ RecursiveCheckDegree()</text>
<text text-anchor="start" x="477" y="-381.5" font-family="Helvetica,sans-Serif" font-size="10.00">+ CheckRootDegree()</text>
<text text-anchor="start" x="477" y="-370.5" font-family="Helvetica,sans-Serif" font-size="10.00">+ DeleteUnaryNode()</text>
<text text-anchor="start" x="477" y="-359.5" font-family="Helvetica,sans-Serif" font-size="10.00">+ GetRoot()</text>
<text text-anchor="start" x="477" y="-348.5" font-family="Helvetica,sans-Serif" font-size="10.00">+ GetRoot()</text>
<text text-anchor="start" x="477" y="-337.5" font-family="Helvetica,sans-Serif" font-size="10.00">+ GetTaxonSet()</text>
<text text-anchor="start" x="477" y="-326.5" font-family="Helvetica,sans-Serif" font-size="10.00">+ MakeTaxonSet()</text>
<text text-anchor="start" x="477" y="-315.5" font-family="Helvetica,sans-Serif" font-size="10.00">+ RegisterWith()</text>
<text text-anchor="start" x="477" y="-304.5" font-family="Helvetica,sans-Serif" font-size="10.00">+ RegisterWith()</text>
<text text-anchor="start" x="477" y="-293.5" font-family="Helvetica,sans-Serif" font-size="10.00">+ GetBranchName()</text>
<text text-anchor="start" x="477" y="-282.5" font-family="Helvetica,sans-Serif" font-size="10.00">+ GetNodeName()</text>
<text text-anchor="start" x="477" y="-271.5" font-family="Helvetica,sans-Serif" font-size="10.00">+ EraseInternalNodeName()</text>
<text text-anchor="start" x="477" y="-260.5" font-family="Helvetica,sans-Serif" font-size="10.00">+ EraseInternalNodeName()</text>
<text text-anchor="start" x="477" y="-249.5" font-family="Helvetica,sans-Serif" font-size="10.00">+ GetSize()</text>
<text text-anchor="start" x="477" y="-238.5" font-family="Helvetica,sans-Serif" font-size="10.00">+ GetSize()</text>
<text text-anchor="start" x="477" y="-227.5" font-family="Helvetica,sans-Serif" font-size="10.00">+ GetFullSize()</text>
<text text-anchor="start" x="477" y="-216.5" font-family="Helvetica,sans-Serif" font-size="10.00">+ GetLCA()</text>
<text text-anchor="start" x="477" y="-205.5" font-family="Helvetica,sans-Serif" font-size="10.00">+ Subdivide()</text>
<text text-anchor="start" x="477" y="-194.5" font-family="Helvetica,sans-Serif" font-size="10.00">+ Reduce()</text>
<text text-anchor="start" x="477" y="-183.5" font-family="Helvetica,sans-Serif" font-size="10.00">+ Print()</text>
<text text-anchor="start" x="477" y="-172.5" font-family="Helvetica,sans-Serif" font-size="10.00">+ PrintReduced()</text>
<text text-anchor="start" x="477" y="-161.5" font-family="Helvetica,sans-Serif" font-size="10.00">+ SetIndices()</text>
<text text-anchor="start" x="477" y="-150.5" font-family="Helvetica,sans-Serif" font-size="10.00">+ GetNlink()</text>
<text text-anchor="start" x="477" y="-139.5" font-family="Helvetica,sans-Serif" font-size="10.00">+ GetNbranch()</text>
<text text-anchor="start" x="477" y="-128.5" font-family="Helvetica,sans-Serif" font-size="10.00">+ GetNnode()</text>
<text text-anchor="start" x="477" y="-117.5" font-family="Helvetica,sans-Serif" font-size="10.00">+ GetNode()</text>
<text text-anchor="start" x="477" y="-106.5" font-family="Helvetica,sans-Serif" font-size="10.00">+ GetBranch()</text>
<text text-anchor="start" x="477" y="-95.5" font-family="Helvetica,sans-Serif" font-size="10.00">+ GetLink()</text>
<text text-anchor="start" x="477" y="-84.5" font-family="Helvetica,sans-Serif" font-size="10.00"># CheckIndices()</text>
<text text-anchor="start" x="477" y="-73.5" font-family="Helvetica,sans-Serif" font-size="10.00"># SetIndices()</text>
<text text-anchor="start" x="477" y="-62.5" font-family="Helvetica,sans-Serif" font-size="10.00"># RecursiveGetLCA()</text>
<text text-anchor="start" x="477" y="-51.5" font-family="Helvetica,sans-Serif" font-size="10.00"># ParseGroup()</text>
<text text-anchor="start" x="477" y="-40.5" font-family="Helvetica,sans-Serif" font-size="10.00"># ParseList()</text>
<text text-anchor="start" x="477" y="-29.5" font-family="Helvetica,sans-Serif" font-size="10.00"># RecursiveClone()</text>
<text text-anchor="start" x="477" y="-18.5" font-family="Helvetica,sans-Serif" font-size="10.00"># RecursiveDelete()</text>
<text text-anchor="start" x="477" y="-7.5" font-family="Helvetica,sans-Serif" font-size="10.00"># SetRoot()</text>
</g>
<!-- Node3 -->
<g id="node2" class="node"><title>Node3</title>
<g id="a_node2"><a xlink:href="classNewickTree.html" target="_top" xlink:title="{NewickTree\n||+ ~NewickTree()\l+ GetRoot()\l+ GetRoot()\l+ ToStream()\l+ ToStream()\l+ ToStreamSimplified()\l+ GetLeftMost()\l+ GetRightMost()\l+ GetNodeName()\l+ GetBranchName()\l+ Simplify()\l}">
<polygon fill="none" stroke="black" points="0,-804 0,-971 117,-971 117,-804 0,-804"/>
<text text-anchor="middle" x="58.5" y="-959" font-family="Helvetica,sans-Serif" font-size="10.00">NewickTree</text>
<polyline fill="none" stroke="black" points="0,-952 117,-952 "/>
<text text-anchor="middle" x="58.5" y="-940" font-family="Helvetica,sans-Serif" font-size="10.00"> </text>
<polyline fill="none" stroke="black" points="0,-933 117,-933 "/>
<text text-anchor="start" x="8" y="-921" font-family="Helvetica,sans-Serif" font-size="10.00">+ ~NewickTree()</text>
<text text-anchor="start" x="8" y="-910" font-family="Helvetica,sans-Serif" font-size="10.00">+ GetRoot()</text>
<text text-anchor="start" x="8" y="-899" font-family="Helvetica,sans-Serif" font-size="10.00">+ GetRoot()</text>
<text text-anchor="start" x="8" y="-888" font-family="Helvetica,sans-Serif" font-size="10.00">+ ToStream()</text>
<text text-anchor="start" x="8" y="-877" font-family="Helvetica,sans-Serif" font-size="10.00">+ ToStream()</text>
<text text-anchor="start" x="8" y="-866" font-family="Helvetica,sans-Serif" font-size="10.00">+ ToStreamSimplified()</text>
<text text-anchor="start" x="8" y="-855" font-family="Helvetica,sans-Serif" font-size="10.00">+ GetLeftMost()</text>
<text text-anchor="start" x="8" y="-844" font-family="Helvetica,sans-Serif" font-size="10.00">+ GetRightMost()</text>
<text text-anchor="start" x="8" y="-833" font-family="Helvetica,sans-Serif" font-size="10.00">+ GetNodeName()</text>
<text text-anchor="start" x="8" y="-822" font-family="Helvetica,sans-Serif" font-size="10.00">+ GetBranchName()</text>
<text text-anchor="start" x="8" y="-811" font-family="Helvetica,sans-Serif" font-size="10.00">+ Simplify()</text>
</a>
</g>
</g>
<!-- Node3&#45;&gt;Node2 -->
<g id="edge1" class="edge"><title>Node3&#45;&gt;Node2</title>
<path fill="none" stroke="midnightblue" d="M95.3466,-794.712C104.137,-776.903 114.272,-758.861 125.5,-743 226.168,-600.79 380.085,-465.315 468.834,-392.766"/>
<polygon fill="none" stroke="midnightblue" points="92.0633,-793.463 90.8739,-803.991 98.3689,-796.502 92.0633,-793.463"/>
</g>
<!-- Node4 -->
<g id="node3" class="node"><title>Node4</title>
<polygon fill="none" stroke="#bfbfbf" points="41,-1079.5 41,-1136.5 76,-1136.5 76,-1079.5 41,-1079.5"/>
<text text-anchor="middle" x="58.5" y="-1124.5" font-family="Helvetica,sans-Serif" font-size="10.00">bool</text>
<polyline fill="none" stroke="#bfbfbf" points="41,-1117.5 76,-1117.5 "/>
<text text-anchor="middle" x="58.5" y="-1105.5" font-family="Helvetica,sans-Serif" font-size="10.00"> </text>
<polyline fill="none" stroke="#bfbfbf" points="41,-1098.5 76,-1098.5 "/>
<text text-anchor="middle" x="58.5" y="-1086.5" font-family="Helvetica,sans-Serif" font-size="10.00"> </text>
</g>
<!-- Node4&#45;&gt;Node3 -->
<g id="edge2" class="edge"><title>Node4&#45;&gt;Node3</title>
<path fill="none" stroke="#404040" d="M58.5,-1079.33C58.5,-1055.08 58.5,-1018.39 58.5,-983.635"/>
<polygon fill="none" stroke="#404040" points="58.5001,-983.446 54.5,-977.446 58.5,-971.446 62.5,-977.446 58.5001,-983.446"/>
<text text-anchor="middle" x="80" y="-1053" font-family="Helvetica,sans-Serif" font-size="10.00"> #simplify</text>
</g>
<!-- Node5 -->
<g id="node4" class="node"><title>Node5</title>
<polygon fill="none" stroke="#bfbfbf" points="135,-859 135,-916 262,-916 262,-859 135,-859"/>
<text text-anchor="middle" x="198.5" y="-904" font-family="Helvetica,sans-Serif" font-size="10.00">map&lt; int, const Node * &gt;</text>
<polyline fill="none" stroke="#bfbfbf" points="135,-897 262,-897 "/>
<text text-anchor="middle" x="198.5" y="-885" font-family="Helvetica,sans-Serif" font-size="10.00"> </text>
<polyline fill="none" stroke="#bfbfbf" points="135,-878 262,-878 "/>
<text text-anchor="middle" x="198.5" y="-866" font-family="Helvetica,sans-Serif" font-size="10.00"> </text>
</g>
<!-- Node5&#45;&gt;Node2 -->
<g id="edge3" class="edge"><title>Node5&#45;&gt;Node2</title>
<path fill="none" stroke="#404040" d="M211.216,-858.743C224.912,-829.453 247.806,-782.198 270.5,-743 330.357,-639.614 406.053,-526.606 461.719,-446.297"/>
<polygon fill="none" stroke="#404040" points="461.903,-446.031 462.04,-438.821 468.748,-436.175 468.611,-443.385 461.903,-446.031"/>
<text text-anchor="middle" x="322" y="-706" font-family="Helvetica,sans-Serif" font-size="10.00"> #nodemap</text>
</g>
<!-- Node6 -->
<g id="node5" class="node"><title>Node6</title>
<g id="a_node5"><a xlink:href="classTaxonSet.html" target="_top" xlink:title="{TaxonSet\n||+ TaxonSet()\l+ TaxonSet()\l+ ~TaxonSet()\l+ GetNtaxa()\l+ GetTaxon()\l+ GetTaxonIndex()\l+ GetTaxonIndexWithIncompleteName()\l+ ToStream()\l}">
<polygon fill="none" stroke="black" points="280,-820.5 280,-954.5 473,-954.5 473,-820.5 280,-820.5"/>
<text text-anchor="middle" x="376.5" y="-942.5" font-family="Helvetica,sans-Serif" font-size="10.00">TaxonSet</text>
<polyline fill="none" stroke="black" points="280,-935.5 473,-935.5 "/>
<text text-anchor="middle" x="376.5" y="-923.5" font-family="Helvetica,sans-Serif" font-size="10.00"> </text>
<polyline fill="none" stroke="black" points="280,-916.5 473,-916.5 "/>
<text text-anchor="start" x="288" y="-904.5" font-family="Helvetica,sans-Serif" font-size="10.00">+ TaxonSet()</text>
<text text-anchor="start" x="288" y="-893.5" font-family="Helvetica,sans-Serif" font-size="10.00">+ TaxonSet()</text>
<text text-anchor="start" x="288" y="-882.5" font-family="Helvetica,sans-Serif" font-size="10.00">+ ~TaxonSet()</text>
<text text-anchor="start" x="288" y="-871.5" font-family="Helvetica,sans-Serif" font-size="10.00">+ GetNtaxa()</text>
<text text-anchor="start" x="288" y="-860.5" font-family="Helvetica,sans-Serif" font-size="10.00">+ GetTaxon()</text>
<text text-anchor="start" x="288" y="-849.5" font-family="Helvetica,sans-Serif" font-size="10.00">+ GetTaxonIndex()</text>
<text text-anchor="start" x="288" y="-838.5" font-family="Helvetica,sans-Serif" font-size="10.00">+ GetTaxonIndexWithIncompleteName()</text>
<text text-anchor="start" x="288" y="-827.5" font-family="Helvetica,sans-Serif" font-size="10.00">+ ToStream()</text>
</a>
</g>
</g>
<!-- Node6&#45;&gt;Node2 -->
<g id="edge4" class="edge"><title>Node6&#45;&gt;Node2</title>
<path fill="none" stroke="#404040" d="M396.041,-820.338C413.437,-761.438 440.009,-671.472 465.511,-585.128"/>
<polygon fill="none" stroke="#404040" points="465.539,-585.031 463.402,-578.144 468.938,-573.523 471.075,-580.41 465.539,-585.031"/>
<text text-anchor="middle" x="452.5" y="-706" font-family="Helvetica,sans-Serif" font-size="10.00"> #taxset</text>
</g>
<!-- Node7 -->
<g id="node6" class="node"><title>Node7</title>
<polygon fill="none" stroke="#bfbfbf" points="491,-859 491,-916 586,-916 586,-859 491,-859"/>
<text text-anchor="middle" x="538.5" y="-904" font-family="Helvetica,sans-Serif" font-size="10.00">map&lt; int, Link * &gt;</text>
<polyline fill="none" stroke="#bfbfbf" points="491,-897 586,-897 "/>
<text text-anchor="middle" x="538.5" y="-885" font-family="Helvetica,sans-Serif" font-size="10.00"> </text>
<polyline fill="none" stroke="#bfbfbf" points="491,-878 586,-878 "/>
<text text-anchor="middle" x="538.5" y="-866" font-family="Helvetica,sans-Serif" font-size="10.00"> </text>
</g>
<!-- Node7&#45;&gt;Node2 -->
<g id="edge5" class="edge"><title>Node7&#45;&gt;Node2</title>
<path fill="none" stroke="#404040" d="M538.5,-858.924C538.5,-823.684 538.5,-758.481 538.5,-685.841"/>
<polygon fill="none" stroke="#404040" points="538.5,-685.644 534.5,-679.644 538.5,-673.644 542.5,-679.644 538.5,-685.644"/>
<text text-anchor="middle" x="560" y="-706" font-family="Helvetica,sans-Serif" font-size="10.00"> #linkmap</text>
</g>
<!-- Node8 -->
<g id="node7" class="node"><title>Node8</title>
<polygon fill="none" stroke="#bfbfbf" points="604,-859 604,-916 633,-916 633,-859 604,-859"/>
<text text-anchor="middle" x="618.5" y="-904" font-family="Helvetica,sans-Serif" font-size="10.00">int</text>
<polyline fill="none" stroke="#bfbfbf" points="604,-897 633,-897 "/>
<text text-anchor="middle" x="618.5" y="-885" font-family="Helvetica,sans-Serif" font-size="10.00"> </text>
<polyline fill="none" stroke="#bfbfbf" points="604,-878 633,-878 "/>
<text text-anchor="middle" x="618.5" y="-866" font-family="Helvetica,sans-Serif" font-size="10.00"> </text>
</g>
<!-- Node8&#45;&gt;Node2 -->
<g id="edge6" class="edge"><title>Node8&#45;&gt;Node2</title>
<path fill="none" stroke="#404040" d="M614.478,-858.924C609.338,-823.684 599.828,-758.481 589.233,-685.841"/>
<polygon fill="none" stroke="#404040" points="589.186,-685.518 584.362,-680.159 587.454,-673.644 592.279,-679.004 589.186,-685.518"/>
<text text-anchor="middle" x="617" y="-717" font-family="Helvetica,sans-Serif" font-size="10.00"> #Nlink</text>
<text text-anchor="middle" x="617" y="-706" font-family="Helvetica,sans-Serif" font-size="10.00">#Nbranch</text>
<text text-anchor="middle" x="617" y="-695" font-family="Helvetica,sans-Serif" font-size="10.00">#Nnode</text>
</g>
<!-- Node9 -->
<g id="node8" class="node"><title>Node9</title>
<g id="a_node8"><a xlink:href="classLink.html" target="_top" xlink:title="{Link\n||+ Link()\l+ Link()\l+ Next()\l+ Out()\l+ GetBranch()\l+ GetNode()\l+ SetBranch()\l+ SetNode()\l+ GetNodeLeafSet()\l+ SetIndex()\l+ GetIndex()\l+ SetOut()\l+ SetNext()\l+ AppendTo()\l+ Insert()\l+ InsertOut()\l+ Knit()\l+ isLeaf()\l+ isUnary()\l+ isRoot()\l+ GetDegree()\l+ GetUp()\l}">
<polygon fill="none" stroke="black" points="651.5,-743.5 651.5,-1031.5 755.5,-1031.5 755.5,-743.5 651.5,-743.5"/>
<text text-anchor="middle" x="703.5" y="-1019.5" font-family="Helvetica,sans-Serif" font-size="10.00">Link</text>
<polyline fill="none" stroke="black" points="651.5,-1012.5 755.5,-1012.5 "/>
<text text-anchor="middle" x="703.5" y="-1000.5" font-family="Helvetica,sans-Serif" font-size="10.00"> </text>
<polyline fill="none" stroke="black" points="651.5,-993.5 755.5,-993.5 "/>
<text text-anchor="start" x="659.5" y="-981.5" font-family="Helvetica,sans-Serif" font-size="10.00">+ Link()</text>
<text text-anchor="start" x="659.5" y="-970.5" font-family="Helvetica,sans-Serif" font-size="10.00">+ Link()</text>
<text text-anchor="start" x="659.5" y="-959.5" font-family="Helvetica,sans-Serif" font-size="10.00">+ Next()</text>
<text text-anchor="start" x="659.5" y="-948.5" font-family="Helvetica,sans-Serif" font-size="10.00">+ Out()</text>
<text text-anchor="start" x="659.5" y="-937.5" font-family="Helvetica,sans-Serif" font-size="10.00">+ GetBranch()</text>
<text text-anchor="start" x="659.5" y="-926.5" font-family="Helvetica,sans-Serif" font-size="10.00">+ GetNode()</text>
<text text-anchor="start" x="659.5" y="-915.5" font-family="Helvetica,sans-Serif" font-size="10.00">+ SetBranch()</text>
<text text-anchor="start" x="659.5" y="-904.5" font-family="Helvetica,sans-Serif" font-size="10.00">+ SetNode()</text>
<text text-anchor="start" x="659.5" y="-893.5" font-family="Helvetica,sans-Serif" font-size="10.00">+ GetNodeLeafSet()</text>
<text text-anchor="start" x="659.5" y="-882.5" font-family="Helvetica,sans-Serif" font-size="10.00">+ SetIndex()</text>
<text text-anchor="start" x="659.5" y="-871.5" font-family="Helvetica,sans-Serif" font-size="10.00">+ GetIndex()</text>
<text text-anchor="start" x="659.5" y="-860.5" font-family="Helvetica,sans-Serif" font-size="10.00">+ SetOut()</text>
<text text-anchor="start" x="659.5" y="-849.5" font-family="Helvetica,sans-Serif" font-size="10.00">+ SetNext()</text>
<text text-anchor="start" x="659.5" y="-838.5" font-family="Helvetica,sans-Serif" font-size="10.00">+ AppendTo()</text>
<text text-anchor="start" x="659.5" y="-827.5" font-family="Helvetica,sans-Serif" font-size="10.00">+ Insert()</text>
<text text-anchor="start" x="659.5" y="-816.5" font-family="Helvetica,sans-Serif" font-size="10.00">+ InsertOut()</text>
<text text-anchor="start" x="659.5" y="-805.5" font-family="Helvetica,sans-Serif" font-size="10.00">+ Knit()</text>
<text text-anchor="start" x="659.5" y="-794.5" font-family="Helvetica,sans-Serif" font-size="10.00">+ isLeaf()</text>
<text text-anchor="start" x="659.5" y="-783.5" font-family="Helvetica,sans-Serif" font-size="10.00">+ isUnary()</text>
<text text-anchor="start" x="659.5" y="-772.5" font-family="Helvetica,sans-Serif" font-size="10.00">+ isRoot()</text>
<text text-anchor="start" x="659.5" y="-761.5" font-family="Helvetica,sans-Serif" font-size="10.00">+ GetDegree()</text>
<text text-anchor="start" x="659.5" y="-750.5" font-family="Helvetica,sans-Serif" font-size="10.00">+ GetUp()</text>
</a>
</g>
</g>
<!-- Node9&#45;&gt;Node2 -->
<g id="edge7" class="edge"><title>Node9&#45;&gt;Node2</title>
<path fill="none" stroke="#404040" d="M660.471,-743.462C645.517,-693.752 628.3,-636.516 611.602,-581.01"/>
<polygon fill="none" stroke="#404040" points="611.505,-580.686 605.946,-576.093 608.048,-569.195 613.607,-573.788 611.505,-580.686"/>
<text text-anchor="middle" x="668" y="-706" font-family="Helvetica,sans-Serif" font-size="10.00"> #root</text>
</g>
<!-- Node10 -->
<g id="node9" class="node"><title>Node10</title>
<polygon fill="none" stroke="#bfbfbf" points="677.5,-1079.5 677.5,-1136.5 729.5,-1136.5 729.5,-1079.5 677.5,-1079.5"/>
<text text-anchor="middle" x="703.5" y="-1124.5" font-family="Helvetica,sans-Serif" font-size="10.00">double *</text>
<polyline fill="none" stroke="#bfbfbf" points="677.5,-1117.5 729.5,-1117.5 "/>
<text text-anchor="middle" x="703.5" y="-1105.5" font-family="Helvetica,sans-Serif" font-size="10.00"> </text>
<polyline fill="none" stroke="#bfbfbf" points="677.5,-1098.5 729.5,-1098.5 "/>
<text text-anchor="middle" x="703.5" y="-1086.5" font-family="Helvetica,sans-Serif" font-size="10.00"> </text>
</g>
<!-- Node10&#45;&gt;Node9 -->
<g id="edge8" class="edge"><title>Node10&#45;&gt;Node9</title>
<path fill="none" stroke="#404040" d="M703.5,-1079.33C703.5,-1069.39 703.5,-1057.37 703.5,-1044.24"/>
<polygon fill="none" stroke="#404040" points="703.5,-1043.9 699.5,-1037.9 703.5,-1031.9 707.5,-1037.9 703.5,-1043.9"/>
<text text-anchor="middle" x="713.5" y="-1053" font-family="Helvetica,sans-Serif" font-size="10.00"> +tbl</text>
</g>
<!-- Node11 -->
<g id="node10" class="node"><title>Node11</title>
<polygon fill="none" stroke="#bfbfbf" points="773.5,-859 773.5,-916 907.5,-916 907.5,-859 773.5,-859"/>
<text text-anchor="middle" x="840.5" y="-904" font-family="Helvetica,sans-Serif" font-size="10.00">map&lt; int, const Branch * &gt;</text>
<polyline fill="none" stroke="#bfbfbf" points="773.5,-897 907.5,-897 "/>
<text text-anchor="middle" x="840.5" y="-885" font-family="Helvetica,sans-Serif" font-size="10.00"> </text>
<polyline fill="none" stroke="#bfbfbf" points="773.5,-878 907.5,-878 "/>
<text text-anchor="middle" x="840.5" y="-866" font-family="Helvetica,sans-Serif" font-size="10.00"> </text>
</g>
<!-- Node11&#45;&gt;Node2 -->
<g id="edge9" class="edge"><title>Node11&#45;&gt;Node2</title>
<path fill="none" stroke="#404040" d="M826.109,-858.894C810.956,-829.93 786.316,-783.123 764.5,-743 715.082,-652.114 658.342,-550.443 614.077,-471.705"/>
<polygon fill="none" stroke="#404040" points="614.075,-471.701 607.647,-468.432 608.192,-461.241 614.62,-464.51 614.075,-471.701"/>
<text text-anchor="middle" x="782" y="-706" font-family="Helvetica,sans-Serif" font-size="10.00"> #branchmap</text>
</g>
</g>
</svg>
