<?xml version="1.0" encoding="UTF-8" standalone="no"?>
<!DOCTYPE svg PUBLIC "-//W3C//DTD SVG 1.1//EN"
 "http://www.w3.org/Graphics/SVG/1.1/DTD/svg11.dtd">
<!-- Generated by graphviz version 2.38.0 (20140413.2041)
 -->
<!-- Title: CodonStateSpace Pages: 1 -->
<svg width="155pt" height="413pt"
 viewBox="0.00 0.00 155.00 413.00" xmlns="http://www.w3.org/2000/svg" xmlns:xlink="http://www.w3.org/1999/xlink">
<g id="graph0" class="graph" transform="scale(1 1) rotate(0) translate(4 409)">
<title>CodonStateSpace</title>
<!-- Node2 -->
<g id="node1" class="node"><title>Node2</title>
<polygon fill="#bfbfbf" stroke="black" points="18,-0.5 18,-266.5 147,-266.5 147,-0.5 18,-0.5"/>
<text text-anchor="middle" x="82.5" y="-254.5" font-family="Helvetica,sans-Serif" font-size="10.00">CodonStateSpace</text>
<polyline fill="none" stroke="black" points="18,-247.5 147,-247.5 "/>
<text text-anchor="middle" x="82.5" y="-235.5" font-family="Helvetica,sans-Serif" font-size="10.00"> </text>
<polyline fill="none" stroke="black" points="18,-228.5 147,-228.5 "/>
<text text-anchor="start" x="26" y="-216.5" font-family="Helvetica,sans-Serif" font-size="10.00">+ CodonStateSpace()</text>
<text text-anchor="start" x="26" y="-205.5" font-family="Helvetica,sans-Serif" font-size="10.00">+ ~CodonStateSpace()</text>
<text text-anchor="start" x="26" y="-194.5" font-family="Helvetica,sans-Serif" font-size="10.00">+ GetNstate()</text>
<text text-anchor="start" x="26" y="-183.5" font-family="Helvetica,sans-Serif" font-size="10.00">+ GetState()</text>
<text text-anchor="start" x="26" y="-172.5" font-family="Helvetica,sans-Serif" font-size="10.00">+ GetState()</text>
<text text-anchor="start" x="26" y="-161.5" font-family="Helvetica,sans-Serif" font-size="10.00">+ GetDNAStateSpace()</text>
<text text-anchor="start" x="26" y="-150.5" font-family="Helvetica,sans-Serif" font-size="10.00">+ GetProteinStateSpace()</text>
<text text-anchor="start" x="26" y="-139.5" font-family="Helvetica,sans-Serif" font-size="10.00">+ GetCodonFromDNA()</text>
<text text-anchor="start" x="26" y="-128.5" font-family="Helvetica,sans-Serif" font-size="10.00">+ GetDifferingPosition()</text>
<text text-anchor="start" x="26" y="-117.5" font-family="Helvetica,sans-Serif" font-size="10.00">+ GetCodonPosition()</text>
<text text-anchor="start" x="26" y="-106.5" font-family="Helvetica,sans-Serif" font-size="10.00">+ IsNonCTNearest()</text>
<text text-anchor="start" x="26" y="-95.5" font-family="Helvetica,sans-Serif" font-size="10.00">+ Translation()</text>
<text text-anchor="start" x="26" y="-84.5" font-family="Helvetica,sans-Serif" font-size="10.00">+ Synonymous()</text>
<text text-anchor="start" x="26" y="-73.5" font-family="Helvetica,sans-Serif" font-size="10.00">+ TranslationWithStops()</text>
<text text-anchor="start" x="26" y="-62.5" font-family="Helvetica,sans-Serif" font-size="10.00">+ CheckStop()</text>
<text text-anchor="start" x="26" y="-51.5" font-family="Helvetica,sans-Serif" font-size="10.00">+ GetDegeneracy()</text>
<text text-anchor="start" x="26" y="-40.5" font-family="Helvetica,sans-Serif" font-size="10.00">+ GetNstop()</text>
<text text-anchor="start" x="26" y="-29.5" font-family="Helvetica,sans-Serif" font-size="10.00">+ GetStopPos1()</text>
<text text-anchor="start" x="26" y="-18.5" font-family="Helvetica,sans-Serif" font-size="10.00">+ GetStopPos2()</text>
<text text-anchor="start" x="26" y="-7.5" font-family="Helvetica,sans-Serif" font-size="10.00">+ GetStopPos3()</text>
</g>
<!-- Node3 -->
<g id="node2" class="node"><title>Node3</title>
<g id="a_node2"><a xlink:href="classStateSpace.html" target="_top" xlink:title="{StateSpace\n||+ ~StateSpace()\l+ GetState()\l+ GetNstate()\l+ GetState()\l}">
<polygon fill="none" stroke="black" points="0,-314.5 0,-404.5 89,-404.5 89,-314.5 0,-314.5"/>
<text text-anchor="middle" x="44.5" y="-392.5" font-family="Helvetica,sans-Serif" font-size="10.00">StateSpace</text>
<polyline fill="none" stroke="black" points="0,-385.5 89,-385.5 "/>
<text text-anchor="middle" x="44.5" y="-373.5" font-family="Helvetica,sans-Serif" font-size="10.00"> </text>
<polyline fill="none" stroke="black" points="0,-366.5 89,-366.5 "/>
<text text-anchor="start" x="8" y="-354.5" font-family="Helvetica,sans-Serif" font-size="10.00">+ ~StateSpace()</text>
<text text-anchor="start" x="8" y="-343.5" font-family="Helvetica,sans-Serif" font-size="10.00">+ GetState()</text>
<text text-anchor="start" x="8" y="-332.5" font-family="Helvetica,sans-Serif" font-size="10.00">+ GetNstate()</text>
<text text-anchor="start" x="8" y="-321.5" font-family="Helvetica,sans-Serif" font-size="10.00">+ GetState()</text>
</a>
</g>
</g>
<!-- Node3&#45;&gt;Node2 -->
<g id="edge1" class="edge"><title>Node3&#45;&gt;Node2</title>
<path fill="none" stroke="midnightblue" d="M53.6965,-304.289C55.6797,-292.599 57.8591,-279.752 60.1038,-266.519"/>
<polygon fill="none" stroke="midnightblue" points="50.2295,-303.8 52.0076,-314.245 57.1309,-304.971 50.2295,-303.8"/>
</g>
<!-- Node4 -->
<g id="node3" class="node"><title>Node4</title>
<polygon fill="none" stroke="#bfbfbf" points="107,-331 107,-388 136,-388 136,-331 107,-331"/>
<text text-anchor="middle" x="121.5" y="-376" font-family="Helvetica,sans-Serif" font-size="10.00">int</text>
<polyline fill="none" stroke="#bfbfbf" points="107,-369 136,-369 "/>
<text text-anchor="middle" x="121.5" y="-357" font-family="Helvetica,sans-Serif" font-size="10.00"> </text>
<polyline fill="none" stroke="#bfbfbf" points="107,-350 136,-350 "/>
<text text-anchor="middle" x="121.5" y="-338" font-family="Helvetica,sans-Serif" font-size="10.00"> </text>
</g>
<!-- Node4&#45;&gt;Node2 -->
<g id="edge2" class="edge"><title>Node4&#45;&gt;Node2</title>
<path fill="none" stroke="#404040" d="M116.639,-330.583C114.193,-316.532 111.022,-298.319 107.6,-278.662"/>
<polygon fill="none" stroke="#404040" points="107.558,-278.425 102.589,-273.2 105.5,-266.603 110.47,-271.828 107.558,-278.425"/>
<text text-anchor="middle" x="127" y="-288" font-family="Helvetica,sans-Serif" font-size="10.00"> +Npos</text>
</g>
</g>
</svg>
