<?xml version="1.0" encoding="UTF-8" standalone="no"?>
<!DOCTYPE svg PUBLIC "-//W3C//DTD SVG 1.1//EN"
 "http://www.w3.org/Graphics/SVG/1.1/DTD/svg11.dtd">
<!-- Generated by graphviz version 2.38.0 (20140413.2041)
 -->
<!-- Title: ProfileProcess Pages: 1 -->
<svg width="377pt" height="688pt"
 viewBox="0.00 0.00 377.00 688.00" xmlns="http://www.w3.org/2000/svg" xmlns:xlink="http://www.w3.org/1999/xlink">
<g id="graph0" class="graph" transform="scale(1 1) rotate(0) translate(4 684)">
<title>ProfileProcess</title>
<!-- Node86 -->
<g id="node1" class="node"><title>Node86</title>
<polygon fill="#bfbfbf" stroke="black" points="108,-0.5 108,-431.5 280,-431.5 280,-0.5 108,-0.5"/>
<text text-anchor="middle" x="194" y="-419.5" font-family="Helvetica,sans-Serif" font-size="10.00">ProfileProcess</text>
<polyline fill="none" stroke="black" points="108,-412.5 280,-412.5 "/>
<text text-anchor="middle" x="194" y="-400.5" font-family="Helvetica,sans-Serif" font-size="10.00"> </text>
<polyline fill="none" stroke="black" points="108,-393.5 280,-393.5 "/>
<text text-anchor="start" x="116" y="-381.5" font-family="Helvetica,sans-Serif" font-size="10.00">+ ProfileProcess()</text>
<text text-anchor="start" x="116" y="-370.5" font-family="Helvetica,sans-Serif" font-size="10.00">+ ~ProfileProcess()</text>
<text text-anchor="start" x="116" y="-359.5" font-family="Helvetica,sans-Serif" font-size="10.00">+ GetVersion()</text>
<text text-anchor="start" x="116" y="-348.5" font-family="Helvetica,sans-Serif" font-size="10.00">+ GetStatInfCount()</text>
<text text-anchor="start" x="116" y="-337.5" font-family="Helvetica,sans-Serif" font-size="10.00">+ GetDim()</text>
<text text-anchor="start" x="116" y="-326.5" font-family="Helvetica,sans-Serif" font-size="10.00">+ GetNsite()</text>
<text text-anchor="start" x="116" y="-315.5" font-family="Helvetica,sans-Serif" font-size="10.00">+ GetProfile()</text>
<text text-anchor="start" x="116" y="-304.5" font-family="Helvetica,sans-Serif" font-size="10.00">+ GetStateSpace()</text>
<text text-anchor="start" x="116" y="-293.5" font-family="Helvetica,sans-Serif" font-size="10.00">+ LogProfilePrior()</text>
<text text-anchor="start" x="116" y="-282.5" font-family="Helvetica,sans-Serif" font-size="10.00">+ SampleProfile()</text>
<text text-anchor="start" x="116" y="-271.5" font-family="Helvetica,sans-Serif" font-size="10.00">+ GetMeanStationaryEntropy()</text>
<text text-anchor="start" x="116" y="-260.5" font-family="Helvetica,sans-Serif" font-size="10.00">+ GetSiteStationaryEntropy()</text>
<text text-anchor="start" x="116" y="-249.5" font-family="Helvetica,sans-Serif" font-size="10.00">+ UpdateSiteProfileSuffStat()</text>
<text text-anchor="start" x="116" y="-238.5" font-family="Helvetica,sans-Serif" font-size="10.00">+ GlobalUpdateSiteProfileSuffStat()</text>
<text text-anchor="start" x="116" y="-227.5" font-family="Helvetica,sans-Serif" font-size="10.00">+ SlaveUpdateSiteProfileSuffStat()</text>
<text text-anchor="start" x="116" y="-216.5" font-family="Helvetica,sans-Serif" font-size="10.00">+ GlobalUpdateParameters()</text>
<text text-anchor="start" x="116" y="-205.5" font-family="Helvetica,sans-Serif" font-size="10.00">+ SlaveUpdateParameters()</text>
<text text-anchor="start" x="116" y="-194.5" font-family="Helvetica,sans-Serif" font-size="10.00">+ ProfileSuffStatLogProb()</text>
<text text-anchor="start" x="116" y="-183.5" font-family="Helvetica,sans-Serif" font-size="10.00">+ ToStream()</text>
<text text-anchor="start" x="116" y="-172.5" font-family="Helvetica,sans-Serif" font-size="10.00">+ FromStream()</text>
<text text-anchor="start" x="116" y="-161.5" font-family="Helvetica,sans-Serif" font-size="10.00">+ SetBurnin()</text>
<text text-anchor="start" x="116" y="-150.5" font-family="Helvetica,sans-Serif" font-size="10.00">+ isObserved()</text>
<text text-anchor="start" x="116" y="-139.5" font-family="Helvetica,sans-Serif" font-size="10.00">+ GetMinStat()</text>
<text text-anchor="start" x="116" y="-128.5" font-family="Helvetica,sans-Serif" font-size="10.00">+ GetMinMinStat()</text>
<text text-anchor="start" x="116" y="-117.5" font-family="Helvetica,sans-Serif" font-size="10.00"># DrawProfileFromPrior()</text>
<text text-anchor="start" x="116" y="-106.5" font-family="Helvetica,sans-Serif" font-size="10.00"># GetNormalizationFactor()</text>
<text text-anchor="start" x="116" y="-95.5" font-family="Helvetica,sans-Serif" font-size="10.00"># Create()</text>
<text text-anchor="start" x="116" y="-84.5" font-family="Helvetica,sans-Serif" font-size="10.00"># Delete()</text>
<text text-anchor="start" x="116" y="-73.5" font-family="Helvetica,sans-Serif" font-size="10.00"># GetNprocs()</text>
<text text-anchor="start" x="116" y="-62.5" font-family="Helvetica,sans-Serif" font-size="10.00"># GetMyid()</text>
<text text-anchor="start" x="116" y="-51.5" font-family="Helvetica,sans-Serif" font-size="10.00"># GetSiteMin()</text>
<text text-anchor="start" x="116" y="-40.5" font-family="Helvetica,sans-Serif" font-size="10.00"># GetSiteMax()</text>
<text text-anchor="start" x="116" y="-29.5" font-family="Helvetica,sans-Serif" font-size="10.00"># GetEmpiricalFreq()</text>
<text text-anchor="start" x="116" y="-18.5" font-family="Helvetica,sans-Serif" font-size="10.00"># GetMinTotWeight()</text>
<text text-anchor="start" x="116" y="-7.5" font-family="Helvetica,sans-Serif" font-size="10.00"># SetMinTotWeight()</text>
</g>
<!-- Node87 -->
<g id="node2" class="node"><title>Node87</title>
<g id="a_node2"><a xlink:href="classChrono.html" target="_top" xlink:title="{Chrono\n||+ Chrono()\l+ ~Chrono()\l+ Reset()\l+ Start()\l+ Stop()\l+ ToStream()\l+ FromStream()\l+ operator++()\l+ GetTime()\l+ GetTimePerCount()\l+ GetCount()\l}">
<polygon fill="none" stroke="black" points="0,-512.5 0,-679.5 110,-679.5 110,-512.5 0,-512.5"/>
<text text-anchor="middle" x="55" y="-667.5" font-family="Helvetica,sans-Serif" font-size="10.00">Chrono</text>
<polyline fill="none" stroke="black" points="0,-660.5 110,-660.5 "/>
<text text-anchor="middle" x="55" y="-648.5" font-family="Helvetica,sans-Serif" font-size="10.00"> </text>
<polyline fill="none" stroke="black" points="0,-641.5 110,-641.5 "/>
<text text-anchor="start" x="8" y="-629.5" font-family="Helvetica,sans-Serif" font-size="10.00">+ Chrono()</text>
<text text-anchor="start" x="8" y="-618.5" font-family="Helvetica,sans-Serif" font-size="10.00">+ ~Chrono()</text>
<text text-anchor="start" x="8" y="-607.5" font-family="Helvetica,sans-Serif" font-size="10.00">+ Reset()</text>
<text text-anchor="start" x="8" y="-596.5" font-family="Helvetica,sans-Serif" font-size="10.00">+ Start()</text>
<text text-anchor="start" x="8" y="-585.5" font-family="Helvetica,sans-Serif" font-size="10.00">+ Stop()</text>
<text text-anchor="start" x="8" y="-574.5" font-family="Helvetica,sans-Serif" font-size="10.00">+ ToStream()</text>
<text text-anchor="start" x="8" y="-563.5" font-family="Helvetica,sans-Serif" font-size="10.00">+ FromStream()</text>
<text text-anchor="start" x="8" y="-552.5" font-family="Helvetica,sans-Serif" font-size="10.00">+ operator++()</text>
<text text-anchor="start" x="8" y="-541.5" font-family="Helvetica,sans-Serif" font-size="10.00">+ GetTime()</text>
<text text-anchor="start" x="8" y="-530.5" font-family="Helvetica,sans-Serif" font-size="10.00">+ GetTimePerCount()</text>
<text text-anchor="start" x="8" y="-519.5" font-family="Helvetica,sans-Serif" font-size="10.00">+ GetCount()</text>
</a>
</g>
</g>
<!-- Node87&#45;&gt;Node86 -->
<g id="edge1" class="edge"><title>Node87&#45;&gt;Node86</title>
<path fill="none" stroke="#404040" d="M72.9301,-512.229C78.0937,-491.693 84.1961,-469.877 91,-450 94.9075,-438.584 99.1519,-426.956 103.617,-415.289"/>
<polygon fill="none" stroke="#404040" points="103.619,-415.284 102.062,-408.243 107.962,-404.098 109.519,-411.139 103.619,-415.284"/>
<text text-anchor="middle" x="118.5" y="-480.5" font-family="Helvetica,sans-Serif" font-size="10.00"> #chronostat</text>
<text text-anchor="middle" x="118.5" y="-469.5" font-family="Helvetica,sans-Serif" font-size="10.00">#chronorr</text>
<text text-anchor="middle" x="118.5" y="-458.5" font-family="Helvetica,sans-Serif" font-size="10.00">#chronodp</text>
</g>
<!-- Node88 -->
<g id="node3" class="node"><title>Node88</title>
<polygon fill="none" stroke="#bfbfbf" points="128.5,-567.5 128.5,-624.5 173.5,-624.5 173.5,-567.5 128.5,-567.5"/>
<text text-anchor="middle" x="151" y="-612.5" font-family="Helvetica,sans-Serif" font-size="10.00">double</text>
<polyline fill="none" stroke="#bfbfbf" points="128.5,-605.5 173.5,-605.5 "/>
<text text-anchor="middle" x="151" y="-593.5" font-family="Helvetica,sans-Serif" font-size="10.00"> </text>
<polyline fill="none" stroke="#bfbfbf" points="128.5,-586.5 173.5,-586.5 "/>
<text text-anchor="middle" x="151" y="-574.5" font-family="Helvetica,sans-Serif" font-size="10.00"> </text>
</g>
<!-- Node88&#45;&gt;Node86 -->
<g id="edge2" class="edge"><title>Node88&#45;&gt;Node86</title>
<path fill="none" stroke="#404040" d="M149.789,-567.403C148.833,-538.178 148.217,-490.733 152,-450 152.193,-447.925 152.394,-445.841 152.604,-443.748"/>
<polygon fill="none" stroke="#404040" points="152.618,-443.617 149.28,-437.225 153.896,-431.685 157.234,-438.077 152.618,-443.617"/>
<text text-anchor="middle" x="184" y="-469.5" font-family="Helvetica,sans-Serif" font-size="10.00"> #mintotweight</text>
</g>
<!-- Node89 -->
<g id="node4" class="node"><title>Node89</title>
<polygon fill="none" stroke="#bfbfbf" points="223.5,-567.5 223.5,-624.5 252.5,-624.5 252.5,-567.5 223.5,-567.5"/>
<text text-anchor="middle" x="238" y="-612.5" font-family="Helvetica,sans-Serif" font-size="10.00">int</text>
<polyline fill="none" stroke="#bfbfbf" points="223.5,-605.5 252.5,-605.5 "/>
<text text-anchor="middle" x="238" y="-593.5" font-family="Helvetica,sans-Serif" font-size="10.00"> </text>
<polyline fill="none" stroke="#bfbfbf" points="223.5,-586.5 252.5,-586.5 "/>
<text text-anchor="middle" x="238" y="-574.5" font-family="Helvetica,sans-Serif" font-size="10.00"> </text>
</g>
<!-- Node89&#45;&gt;Node86 -->
<g id="edge3" class="edge"><title>Node89&#45;&gt;Node86</title>
<path fill="none" stroke="#404040" d="M234.765,-567.205C231.513,-539.267 226.167,-493.34 220.4,-443.801"/>
<polygon fill="none" stroke="#404040" points="220.394,-443.744 215.727,-438.247 219.006,-431.825 223.673,-437.322 220.394,-443.744"/>
<text text-anchor="middle" x="256" y="-486" font-family="Helvetica,sans-Serif" font-size="10.00"> #dim</text>
<text text-anchor="middle" x="256" y="-475" font-family="Helvetica,sans-Serif" font-size="10.00">#statinfcount</text>
<text text-anchor="middle" x="256" y="-464" font-family="Helvetica,sans-Serif" font-size="10.00">#totstatcount</text>
<text text-anchor="middle" x="256" y="-453" font-family="Helvetica,sans-Serif" font-size="10.00">#nsite</text>
</g>
<!-- Node90 -->
<g id="node5" class="node"><title>Node90</title>
<polygon fill="none" stroke="#bfbfbf" points="301.5,-567.5 301.5,-624.5 336.5,-624.5 336.5,-567.5 301.5,-567.5"/>
<text text-anchor="middle" x="319" y="-612.5" font-family="Helvetica,sans-Serif" font-size="10.00">bool</text>
<polyline fill="none" stroke="#bfbfbf" points="301.5,-605.5 336.5,-605.5 "/>
<text text-anchor="middle" x="319" y="-593.5" font-family="Helvetica,sans-Serif" font-size="10.00"> </text>
<polyline fill="none" stroke="#bfbfbf" points="301.5,-586.5 336.5,-586.5 "/>
<text text-anchor="middle" x="319" y="-574.5" font-family="Helvetica,sans-Serif" font-size="10.00"> </text>
</g>
<!-- Node90&#45;&gt;Node86 -->
<g id="edge4" class="edge"><title>Node90&#45;&gt;Node86</title>
<path fill="none" stroke="#404040" d="M314.832,-567.366C310.031,-537.909 301.206,-490.085 289,-450 287.4,-444.745 285.728,-439.445 283.995,-434.115"/>
<polygon fill="none" stroke="#404040" points="283.889,-433.797 278.202,-429.364 280.107,-422.409 285.794,-426.842 283.889,-433.797"/>
<text text-anchor="middle" x="335" y="-475" font-family="Helvetica,sans-Serif" font-size="10.00"> #activesuffstat</text>
<text text-anchor="middle" x="335" y="-464" font-family="Helvetica,sans-Serif" font-size="10.00">#burnin</text>
</g>
</g>
</svg>
