<?xml version="1.0" encoding="UTF-8" standalone="no"?>
<!DOCTYPE svg PUBLIC "-//W3C//DTD SVG 1.1//EN"
 "http://www.w3.org/Graphics/SVG/1.1/DTD/svg11.dtd">
<!-- Generated by graphviz version 2.38.0 (20140413.2041)
 -->
<!-- Title: Dvar Pages: 1 -->
<svg width="140pt" height="182pt"
 viewBox="0.00 0.00 140.00 182.00" xmlns="http://www.w3.org/2000/svg" xmlns:xlink="http://www.w3.org/1999/xlink">
<g id="graph0" class="graph" transform="scale(1 1) rotate(0) translate(4 178)">
<title>Dvar</title>
<!-- Node0 -->
<g id="node1" class="node"><title>Node0</title>
<polygon fill="#bfbfbf" stroke="black" points="47,-116.5 47,-173.5 85,-173.5 85,-116.5 47,-116.5"/>
<text text-anchor="middle" x="66" y="-161.5" font-family="Helvetica,sans-Serif" font-size="10.00">Dvar</text>
<polyline fill="none" stroke="black" points="47,-154.5 85,-154.5 "/>
<text text-anchor="middle" x="66" y="-142.5" font-family="Helvetica,sans-Serif" font-size="10.00"> </text>
<polyline fill="none" stroke="black" points="47,-135.5 85,-135.5 "/>
<text text-anchor="middle" x="66" y="-123.5" font-family="Helvetica,sans-Serif" font-size="10.00"> </text>
</g>
<!-- Node1 -->
<g id="node2" class="node"><title>Node1</title>
<g id="a_node2"><a xlink:href="classBranchLength.html" target="_top" xlink:title="{BranchLength\&lt; PosReal \&gt;\n||+ BranchLength()\l+ ~BranchLength()\l+ specialUpdate()\l}">
<polygon fill="none" stroke="black" points="0,-0.5 0,-79.5 132,-79.5 132,-0.5 0,-0.5"/>
<text text-anchor="middle" x="66" y="-67.5" font-family="Helvetica,sans-Serif" font-size="10.00">BranchLength&lt; PosReal &gt;</text>
<polyline fill="none" stroke="black" points="0,-60.5 132,-60.5 "/>
<text text-anchor="middle" x="66" y="-48.5" font-family="Helvetica,sans-Serif" font-size="10.00"> </text>
<polyline fill="none" stroke="black" points="0,-41.5 132,-41.5 "/>
<text text-anchor="start" x="8" y="-29.5" font-family="Helvetica,sans-Serif" font-size="10.00">+ BranchLength()</text>
<text text-anchor="start" x="8" y="-18.5" font-family="Helvetica,sans-Serif" font-size="10.00">+ ~BranchLength()</text>
<text text-anchor="start" x="8" y="-7.5" font-family="Helvetica,sans-Serif" font-size="10.00">+ specialUpdate()</text>
</a>
</g>
</g>
<!-- Node0&#45;&gt;Node1 -->
<g id="edge1" class="edge"><title>Node0&#45;&gt;Node1</title>
<path fill="none" stroke="midnightblue" d="M66,-106.156C66,-97.4733 66,-88.2318 66,-79.5205"/>
<polygon fill="none" stroke="midnightblue" points="62.5001,-106.398 66,-116.398 69.5001,-106.398 62.5001,-106.398"/>
</g>
</g>
</svg>
