<?xml version="1.0" encoding="UTF-8" standalone="no"?>
<!DOCTYPE svg PUBLIC "-//W3C//DTD SVG 1.1//EN"
 "http://www.w3.org/Graphics/SVG/1.1/DTD/svg11.dtd">
<!-- Generated by graphviz version 2.38.0 (20140413.2041)
 -->
<!-- Title: PoissonFiniteProfileProcess Pages: 1 -->
<svg width="780pt" height="1818pt"
 viewBox="0.00 0.00 780.41 1818.00" xmlns="http://www.w3.org/2000/svg" xmlns:xlink="http://www.w3.org/1999/xlink">
<g id="graph0" class="graph" transform="scale(1 1) rotate(0) translate(4 1814)">
<title>PoissonFiniteProfileProcess</title>
<!-- Node8 -->
<g id="node1" class="node"><title>Node8</title>
<polygon fill="#bfbfbf" stroke="black" points="214.908,-0.5 214.908,-167.5 375.908,-167.5 375.908,-0.5 214.908,-0.5"/>
<text text-anchor="middle" x="295.408" y="-155.5" font-family="Helvetica,sans-Serif" font-size="10.00">PoissonFiniteProfileProcess</text>
<polyline fill="none" stroke="black" points="214.908,-148.5 375.908,-148.5 "/>
<text text-anchor="middle" x="295.408" y="-136.5" font-family="Helvetica,sans-Serif" font-size="10.00"> </text>
<polyline fill="none" stroke="black" points="214.908,-129.5 375.908,-129.5 "/>
<text text-anchor="start" x="222.908" y="-117.5" font-family="Helvetica,sans-Serif" font-size="10.00">+ PoissonFiniteProfileProcess()</text>
<text text-anchor="start" x="222.908" y="-106.5" font-family="Helvetica,sans-Serif" font-size="10.00">+ ~PoissonFiniteProfileProcess()</text>
<text text-anchor="start" x="222.908" y="-95.5" font-family="Helvetica,sans-Serif" font-size="10.00">+ Move()</text>
<text text-anchor="start" x="222.908" y="-84.5" font-family="Helvetica,sans-Serif" font-size="10.00">+ ToStream()</text>
<text text-anchor="start" x="222.908" y="-73.5" font-family="Helvetica,sans-Serif" font-size="10.00">+ FromStream()</text>
<text text-anchor="start" x="222.908" y="-62.5" font-family="Helvetica,sans-Serif" font-size="10.00"># Create()</text>
<text text-anchor="start" x="222.908" y="-51.5" font-family="Helvetica,sans-Serif" font-size="10.00"># Create()</text>
<text text-anchor="start" x="222.908" y="-40.5" font-family="Helvetica,sans-Serif" font-size="10.00"># Delete()</text>
<text text-anchor="start" x="222.908" y="-29.5" font-family="Helvetica,sans-Serif" font-size="10.00"># IncrementalFiniteMove()</text>
<text text-anchor="start" x="222.908" y="-18.5" font-family="Helvetica,sans-Serif" font-size="10.00"># GlobalIncrementalFiniteMove()</text>
<text text-anchor="start" x="222.908" y="-7.5" font-family="Helvetica,sans-Serif" font-size="10.00"># SlaveIncrementalFiniteMove()</text>
</g>
<!-- Node9 -->
<g id="node2" class="node"><title>Node9</title>
<g id="a_node2"><a xlink:href="classPoissonMixtureProfileProcess.html" target="_top" xlink:title="{PoissonMixtureProfileProcess\n||+ PoissonMixtureProfileProcess()\l+ ~PoissonMixtureProfileProcess()\l# Create()\l# Delete()\l# CreateComponent()\l# DeleteComponent()\l# UpdateComponent()\l# UpdateModeProfileSuffStat()\l# ProfileSuffStatLogProb()\l# DiffLogSampling()\l# LogStatProb()\l# LogStatIntPrior()\l# LogStatIntPrior()\l# MoveDirWeights()\l# MoveProfile()\l# MoveProfile()\l# SwapComponents()\l# AddSite()\l# RemoveSite()\l# GetNormRate()\l# GetNormalizationFactor()\l}">
<polygon fill="none" stroke="black" points="284.908,-205.5 284.908,-482.5 453.908,-482.5 453.908,-205.5 284.908,-205.5"/>
<text text-anchor="middle" x="369.408" y="-470.5" font-family="Helvetica,sans-Serif" font-size="10.00">PoissonMixtureProfileProcess</text>
<polyline fill="none" stroke="black" points="284.908,-463.5 453.908,-463.5 "/>
<text text-anchor="middle" x="369.408" y="-451.5" font-family="Helvetica,sans-Serif" font-size="10.00"> </text>
<polyline fill="none" stroke="black" points="284.908,-444.5 453.908,-444.5 "/>
<text text-anchor="start" x="292.908" y="-432.5" font-family="Helvetica,sans-Serif" font-size="10.00">+ PoissonMixtureProfileProcess()</text>
<text text-anchor="start" x="292.908" y="-421.5" font-family="Helvetica,sans-Serif" font-size="10.00">+ ~PoissonMixtureProfileProcess()</text>
<text text-anchor="start" x="292.908" y="-410.5" font-family="Helvetica,sans-Serif" font-size="10.00"># Create()</text>
<text text-anchor="start" x="292.908" y="-399.5" font-family="Helvetica,sans-Serif" font-size="10.00"># Delete()</text>
<text text-anchor="start" x="292.908" y="-388.5" font-family="Helvetica,sans-Serif" font-size="10.00"># CreateComponent()</text>
<text text-anchor="start" x="292.908" y="-377.5" font-family="Helvetica,sans-Serif" font-size="10.00"># DeleteComponent()</text>
<text text-anchor="start" x="292.908" y="-366.5" font-family="Helvetica,sans-Serif" font-size="10.00"># UpdateComponent()</text>
<text text-anchor="start" x="292.908" y="-355.5" font-family="Helvetica,sans-Serif" font-size="10.00"># UpdateModeProfileSuffStat()</text>
<text text-anchor="start" x="292.908" y="-344.5" font-family="Helvetica,sans-Serif" font-size="10.00"># ProfileSuffStatLogProb()</text>
<text text-anchor="start" x="292.908" y="-333.5" font-family="Helvetica,sans-Serif" font-size="10.00"># DiffLogSampling()</text>
<text text-anchor="start" x="292.908" y="-322.5" font-family="Helvetica,sans-Serif" font-size="10.00"># LogStatProb()</text>
<text text-anchor="start" x="292.908" y="-311.5" font-family="Helvetica,sans-Serif" font-size="10.00"># LogStatIntPrior()</text>
<text text-anchor="start" x="292.908" y="-300.5" font-family="Helvetica,sans-Serif" font-size="10.00"># LogStatIntPrior()</text>
<text text-anchor="start" x="292.908" y="-289.5" font-family="Helvetica,sans-Serif" font-size="10.00"># MoveDirWeights()</text>
<text text-anchor="start" x="292.908" y="-278.5" font-family="Helvetica,sans-Serif" font-size="10.00"># MoveProfile()</text>
<text text-anchor="start" x="292.908" y="-267.5" font-family="Helvetica,sans-Serif" font-size="10.00"># MoveProfile()</text>
<text text-anchor="start" x="292.908" y="-256.5" font-family="Helvetica,sans-Serif" font-size="10.00"># SwapComponents()</text>
<text text-anchor="start" x="292.908" y="-245.5" font-family="Helvetica,sans-Serif" font-size="10.00"># AddSite()</text>
<text text-anchor="start" x="292.908" y="-234.5" font-family="Helvetica,sans-Serif" font-size="10.00"># RemoveSite()</text>
<text text-anchor="start" x="292.908" y="-223.5" font-family="Helvetica,sans-Serif" font-size="10.00"># GetNormRate()</text>
<text text-anchor="start" x="292.908" y="-212.5" font-family="Helvetica,sans-Serif" font-size="10.00"># GetNormalizationFactor()</text>
</a>
</g>
</g>
<!-- Node9&#45;&gt;Node8 -->
<g id="edge1" class="edge"><title>Node9&#45;&gt;Node8</title>
<path fill="none" stroke="midnightblue" d="M327.075,-195.408C324.36,-185.942 321.684,-176.612 319.108,-167.629"/>
<polygon fill="none" stroke="midnightblue" points="323.795,-196.666 329.917,-205.313 330.524,-194.736 323.795,-196.666"/>
</g>
<!-- Node10 -->
<g id="node3" class="node"><title>Node10</title>
<g id="a_node3"><a xlink:href="classPoissonProfileProcess.html" target="_top" xlink:title="{PoissonProfileProcess\n||+ PoissonProfileProcess()\l+ ~PoissonProfileProcess()\l# UpdateZip()\l# GetSiteProfileSuffStatCount()\l}">
<polygon fill="none" stroke="black" points="429.408,-745 429.408,-835 583.408,-835 583.408,-745 429.408,-745"/>
<text text-anchor="middle" x="506.408" y="-823" font-family="Helvetica,sans-Serif" font-size="10.00">PoissonProfileProcess</text>
<polyline fill="none" stroke="black" points="429.408,-816 583.408,-816 "/>
<text text-anchor="middle" x="506.408" y="-804" font-family="Helvetica,sans-Serif" font-size="10.00"> </text>
<polyline fill="none" stroke="black" points="429.408,-797 583.408,-797 "/>
<text text-anchor="start" x="437.408" y="-785" font-family="Helvetica,sans-Serif" font-size="10.00">+ PoissonProfileProcess()</text>
<text text-anchor="start" x="437.408" y="-774" font-family="Helvetica,sans-Serif" font-size="10.00">+ ~PoissonProfileProcess()</text>
<text text-anchor="start" x="437.408" y="-763" font-family="Helvetica,sans-Serif" font-size="10.00"># UpdateZip()</text>
<text text-anchor="start" x="437.408" y="-752" font-family="Helvetica,sans-Serif" font-size="10.00"># GetSiteProfileSuffStatCount()</text>
</a>
</g>
</g>
<!-- Node10&#45;&gt;Node9 -->
<g id="edge2" class="edge"><title>Node10&#45;&gt;Node9</title>
<path fill="none" stroke="midnightblue" d="M489.807,-735.197C470.616,-673.002 438.294,-568.252 411.97,-482.937"/>
<polygon fill="none" stroke="midnightblue" points="486.478,-736.281 492.771,-744.804 493.167,-734.217 486.478,-736.281"/>
</g>
<!-- Node11 -->
<g id="node4" class="node"><title>Node11</title>
<g id="a_node4"><a xlink:href="classProfileProcess.html" target="_top" xlink:title="{ProfileProcess\n||+ ProfileProcess()\l+ ~ProfileProcess()\l+ GetVersion()\l+ GetStatInfCount()\l+ GetDim()\l+ GetNsite()\l+ GetProfile()\l+ GetStateSpace()\l+ LogProfilePrior()\l+ SampleProfile()\l+ GetMeanStationaryEntropy()\l+ GetSiteStationaryEntropy()\l+ UpdateSiteProfileSuffStat()\l+ GlobalUpdateSiteProfileSuffStat()\l+ SlaveUpdateSiteProfileSuffStat()\l+ GlobalUpdateParameters()\l+ SlaveUpdateParameters()\l+ ProfileSuffStatLogProb()\l+ ToStream()\l+ FromStream()\l+ SetBurnin()\l+ isObserved()\l+ GetMinStat()\l+ GetMinMinStat()\l# DrawProfileFromPrior()\l# GetNormalizationFactor()\l# Create()\l# Delete()\l# GetNprocs()\l# GetMyid()\l# GetSiteMin()\l# GetSiteMax()\l# GetEmpiricalFreq()\l# GetMinTotWeight()\l# SetMinTotWeight()\l}">
<polygon fill="none" stroke="black" points="249.408,-1130.5 249.408,-1561.5 421.408,-1561.5 421.408,-1130.5 249.408,-1130.5"/>
<text text-anchor="middle" x="335.408" y="-1549.5" font-family="Helvetica,sans-Serif" font-size="10.00">ProfileProcess</text>
<polyline fill="none" stroke="black" points="249.408,-1542.5 421.408,-1542.5 "/>
<text text-anchor="middle" x="335.408" y="-1530.5" font-family="Helvetica,sans-Serif" font-size="10.00"> </text>
<polyline fill="none" stroke="black" points="249.408,-1523.5 421.408,-1523.5 "/>
<text text-anchor="start" x="257.408" y="-1511.5" font-family="Helvetica,sans-Serif" font-size="10.00">+ ProfileProcess()</text>
<text text-anchor="start" x="257.408" y="-1500.5" font-family="Helvetica,sans-Serif" font-size="10.00">+ ~ProfileProcess()</text>
<text text-anchor="start" x="257.408" y="-1489.5" font-family="Helvetica,sans-Serif" font-size="10.00">+ GetVersion()</text>
<text text-anchor="start" x="257.408" y="-1478.5" font-family="Helvetica,sans-Serif" font-size="10.00">+ GetStatInfCount()</text>
<text text-anchor="start" x="257.408" y="-1467.5" font-family="Helvetica,sans-Serif" font-size="10.00">+ GetDim()</text>
<text text-anchor="start" x="257.408" y="-1456.5" font-family="Helvetica,sans-Serif" font-size="10.00">+ GetNsite()</text>
<text text-anchor="start" x="257.408" y="-1445.5" font-family="Helvetica,sans-Serif" font-size="10.00">+ GetProfile()</text>
<text text-anchor="start" x="257.408" y="-1434.5" font-family="Helvetica,sans-Serif" font-size="10.00">+ GetStateSpace()</text>
<text text-anchor="start" x="257.408" y="-1423.5" font-family="Helvetica,sans-Serif" font-size="10.00">+ LogProfilePrior()</text>
<text text-anchor="start" x="257.408" y="-1412.5" font-family="Helvetica,sans-Serif" font-size="10.00">+ SampleProfile()</text>
<text text-anchor="start" x="257.408" y="-1401.5" font-family="Helvetica,sans-Serif" font-size="10.00">+ GetMeanStationaryEntropy()</text>
<text text-anchor="start" x="257.408" y="-1390.5" font-family="Helvetica,sans-Serif" font-size="10.00">+ GetSiteStationaryEntropy()</text>
<text text-anchor="start" x="257.408" y="-1379.5" font-family="Helvetica,sans-Serif" font-size="10.00">+ UpdateSiteProfileSuffStat()</text>
<text text-anchor="start" x="257.408" y="-1368.5" font-family="Helvetica,sans-Serif" font-size="10.00">+ GlobalUpdateSiteProfileSuffStat()</text>
<text text-anchor="start" x="257.408" y="-1357.5" font-family="Helvetica,sans-Serif" font-size="10.00">+ SlaveUpdateSiteProfileSuffStat()</text>
<text text-anchor="start" x="257.408" y="-1346.5" font-family="Helvetica,sans-Serif" font-size="10.00">+ GlobalUpdateParameters()</text>
<text text-anchor="start" x="257.408" y="-1335.5" font-family="Helvetica,sans-Serif" font-size="10.00">+ SlaveUpdateParameters()</text>
<text text-anchor="start" x="257.408" y="-1324.5" font-family="Helvetica,sans-Serif" font-size="10.00">+ ProfileSuffStatLogProb()</text>
<text text-anchor="start" x="257.408" y="-1313.5" font-family="Helvetica,sans-Serif" font-size="10.00">+ ToStream()</text>
<text text-anchor="start" x="257.408" y="-1302.5" font-family="Helvetica,sans-Serif" font-size="10.00">+ FromStream()</text>
<text text-anchor="start" x="257.408" y="-1291.5" font-family="Helvetica,sans-Serif" font-size="10.00">+ SetBurnin()</text>
<text text-anchor="start" x="257.408" y="-1280.5" font-family="Helvetica,sans-Serif" font-size="10.00">+ isObserved()</text>
<text text-anchor="start" x="257.408" y="-1269.5" font-family="Helvetica,sans-Serif" font-size="10.00">+ GetMinStat()</text>
<text text-anchor="start" x="257.408" y="-1258.5" font-family="Helvetica,sans-Serif" font-size="10.00">+ GetMinMinStat()</text>
<text text-anchor="start" x="257.408" y="-1247.5" font-family="Helvetica,sans-Serif" font-size="10.00"># DrawProfileFromPrior()</text>
<text text-anchor="start" x="257.408" y="-1236.5" font-family="Helvetica,sans-Serif" font-size="10.00"># GetNormalizationFactor()</text>
<text text-anchor="start" x="257.408" y="-1225.5" font-family="Helvetica,sans-Serif" font-size="10.00"># Create()</text>
<text text-anchor="start" x="257.408" y="-1214.5" font-family="Helvetica,sans-Serif" font-size="10.00"># Delete()</text>
<text text-anchor="start" x="257.408" y="-1203.5" font-family="Helvetica,sans-Serif" font-size="10.00"># GetNprocs()</text>
<text text-anchor="start" x="257.408" y="-1192.5" font-family="Helvetica,sans-Serif" font-size="10.00"># GetMyid()</text>
<text text-anchor="start" x="257.408" y="-1181.5" font-family="Helvetica,sans-Serif" font-size="10.00"># GetSiteMin()</text>
<text text-anchor="start" x="257.408" y="-1170.5" font-family="Helvetica,sans-Serif" font-size="10.00"># GetSiteMax()</text>
<text text-anchor="start" x="257.408" y="-1159.5" font-family="Helvetica,sans-Serif" font-size="10.00"># GetEmpiricalFreq()</text>
<text text-anchor="start" x="257.408" y="-1148.5" font-family="Helvetica,sans-Serif" font-size="10.00"># GetMinTotWeight()</text>
<text text-anchor="start" x="257.408" y="-1137.5" font-family="Helvetica,sans-Serif" font-size="10.00"># SetMinTotWeight()</text>
</a>
</g>
</g>
<!-- Node11&#45;&gt;Node10 -->
<g id="edge3" class="edge"><title>Node11&#45;&gt;Node10</title>
<path fill="none" stroke="midnightblue" d="M425.546,-1170.08C433.667,-1150.77 441.166,-1131.16 447.408,-1112 478.737,-1015.83 495.061,-897.709 502.074,-835.004"/>
<polygon fill="none" stroke="midnightblue" points="422.219,-1168.96 421.512,-1179.53 428.657,-1171.71 422.219,-1168.96"/>
</g>
<!-- Node16 -->
<g id="node9" class="node"><title>Node16</title>
<g id="a_node9"><a xlink:href="classMixtureProfileProcess.html" target="_top" xlink:title="{MixtureProfileProcess\n||+ MixtureProfileProcess()\l+ ~MixtureProfileProcess()\l+ GetProfile()\l+ GetNcomponent()\l+ GetNDisplayedComponent()\l+ GetNOccupiedComponent()\l+ GetNmodeMax()\l+ GetMeanStationaryEntropy()\l+ GetSiteStationaryEntropy()\l+ GetStatEnt()\l+ GetStatEnt()\l+ GetCenterStatEnt()\l+ GetMeanDirWeight()\l+ RenormalizeProfiles()\l+ Move()\l+ MoveDirWeights()\l# UpdateModeProfileSuffStat()\l# ProfileSuffStatLogProb()\l# LogStatProb()\l# ProfileSuffStatLogProb()\l# Create()\l# Delete()\l# CreateComponent()\l# DeleteComponent()\l# UpdateComponent()\l# UpdateComponents()\l# GetAllocEntropy()\l# AddSite()\l# RemoveSite()\l# SampleProfile()\l# SampleHyper()\l# SampleAlloc()\l# SampleStat()\l# SampleStat()\l# SampleStat()\l# UpdateOccupancyNumbers()\l# ResampleEmptyProfiles()\l# LogProfilePrior()\l# LogHyperPrior()\l# LogAllocPrior()\l# LogStatPrior()\l# LogStatPrior()\l# SwapComponents()\l}">
<polygon fill="none" stroke="black" points="259.408,-530.5 259.408,-1049.5 411.408,-1049.5 411.408,-530.5 259.408,-530.5"/>
<text text-anchor="middle" x="335.408" y="-1037.5" font-family="Helvetica,sans-Serif" font-size="10.00">MixtureProfileProcess</text>
<polyline fill="none" stroke="black" points="259.408,-1030.5 411.408,-1030.5 "/>
<text text-anchor="middle" x="335.408" y="-1018.5" font-family="Helvetica,sans-Serif" font-size="10.00"> </text>
<polyline fill="none" stroke="black" points="259.408,-1011.5 411.408,-1011.5 "/>
<text text-anchor="start" x="267.408" y="-999.5" font-family="Helvetica,sans-Serif" font-size="10.00">+ MixtureProfileProcess()</text>
<text text-anchor="start" x="267.408" y="-988.5" font-family="Helvetica,sans-Serif" font-size="10.00">+ ~MixtureProfileProcess()</text>
<text text-anchor="start" x="267.408" y="-977.5" font-family="Helvetica,sans-Serif" font-size="10.00">+ GetProfile()</text>
<text text-anchor="start" x="267.408" y="-966.5" font-family="Helvetica,sans-Serif" font-size="10.00">+ GetNcomponent()</text>
<text text-anchor="start" x="267.408" y="-955.5" font-family="Helvetica,sans-Serif" font-size="10.00">+ GetNDisplayedComponent()</text>
<text text-anchor="start" x="267.408" y="-944.5" font-family="Helvetica,sans-Serif" font-size="10.00">+ GetNOccupiedComponent()</text>
<text text-anchor="start" x="267.408" y="-933.5" font-family="Helvetica,sans-Serif" font-size="10.00">+ GetNmodeMax()</text>
<text text-anchor="start" x="267.408" y="-922.5" font-family="Helvetica,sans-Serif" font-size="10.00">+ GetMeanStationaryEntropy()</text>
<text text-anchor="start" x="267.408" y="-911.5" font-family="Helvetica,sans-Serif" font-size="10.00">+ GetSiteStationaryEntropy()</text>
<text text-anchor="start" x="267.408" y="-900.5" font-family="Helvetica,sans-Serif" font-size="10.00">+ GetStatEnt()</text>
<text text-anchor="start" x="267.408" y="-889.5" font-family="Helvetica,sans-Serif" font-size="10.00">+ GetStatEnt()</text>
<text text-anchor="start" x="267.408" y="-878.5" font-family="Helvetica,sans-Serif" font-size="10.00">+ GetCenterStatEnt()</text>
<text text-anchor="start" x="267.408" y="-867.5" font-family="Helvetica,sans-Serif" font-size="10.00">+ GetMeanDirWeight()</text>
<text text-anchor="start" x="267.408" y="-856.5" font-family="Helvetica,sans-Serif" font-size="10.00">+ RenormalizeProfiles()</text>
<text text-anchor="start" x="267.408" y="-845.5" font-family="Helvetica,sans-Serif" font-size="10.00">+ Move()</text>
<text text-anchor="start" x="267.408" y="-834.5" font-family="Helvetica,sans-Serif" font-size="10.00">+ MoveDirWeights()</text>
<text text-anchor="start" x="267.408" y="-823.5" font-family="Helvetica,sans-Serif" font-size="10.00"># UpdateModeProfileSuffStat()</text>
<text text-anchor="start" x="267.408" y="-812.5" font-family="Helvetica,sans-Serif" font-size="10.00"># ProfileSuffStatLogProb()</text>
<text text-anchor="start" x="267.408" y="-801.5" font-family="Helvetica,sans-Serif" font-size="10.00"># LogStatProb()</text>
<text text-anchor="start" x="267.408" y="-790.5" font-family="Helvetica,sans-Serif" font-size="10.00"># ProfileSuffStatLogProb()</text>
<text text-anchor="start" x="267.408" y="-779.5" font-family="Helvetica,sans-Serif" font-size="10.00"># Create()</text>
<text text-anchor="start" x="267.408" y="-768.5" font-family="Helvetica,sans-Serif" font-size="10.00"># Delete()</text>
<text text-anchor="start" x="267.408" y="-757.5" font-family="Helvetica,sans-Serif" font-size="10.00"># CreateComponent()</text>
<text text-anchor="start" x="267.408" y="-746.5" font-family="Helvetica,sans-Serif" font-size="10.00"># DeleteComponent()</text>
<text text-anchor="start" x="267.408" y="-735.5" font-family="Helvetica,sans-Serif" font-size="10.00"># UpdateComponent()</text>
<text text-anchor="start" x="267.408" y="-724.5" font-family="Helvetica,sans-Serif" font-size="10.00"># UpdateComponents()</text>
<text text-anchor="start" x="267.408" y="-713.5" font-family="Helvetica,sans-Serif" font-size="10.00"># GetAllocEntropy()</text>
<text text-anchor="start" x="267.408" y="-702.5" font-family="Helvetica,sans-Serif" font-size="10.00"># AddSite()</text>
<text text-anchor="start" x="267.408" y="-691.5" font-family="Helvetica,sans-Serif" font-size="10.00"># RemoveSite()</text>
<text text-anchor="start" x="267.408" y="-680.5" font-family="Helvetica,sans-Serif" font-size="10.00"># SampleProfile()</text>
<text text-anchor="start" x="267.408" y="-669.5" font-family="Helvetica,sans-Serif" font-size="10.00"># SampleHyper()</text>
<text text-anchor="start" x="267.408" y="-658.5" font-family="Helvetica,sans-Serif" font-size="10.00"># SampleAlloc()</text>
<text text-anchor="start" x="267.408" y="-647.5" font-family="Helvetica,sans-Serif" font-size="10.00"># SampleStat()</text>
<text text-anchor="start" x="267.408" y="-636.5" font-family="Helvetica,sans-Serif" font-size="10.00"># SampleStat()</text>
<text text-anchor="start" x="267.408" y="-625.5" font-family="Helvetica,sans-Serif" font-size="10.00"># SampleStat()</text>
<text text-anchor="start" x="267.408" y="-614.5" font-family="Helvetica,sans-Serif" font-size="10.00"># UpdateOccupancyNumbers()</text>
<text text-anchor="start" x="267.408" y="-603.5" font-family="Helvetica,sans-Serif" font-size="10.00"># ResampleEmptyProfiles()</text>
<text text-anchor="start" x="267.408" y="-592.5" font-family="Helvetica,sans-Serif" font-size="10.00"># LogProfilePrior()</text>
<text text-anchor="start" x="267.408" y="-581.5" font-family="Helvetica,sans-Serif" font-size="10.00"># LogHyperPrior()</text>
<text text-anchor="start" x="267.408" y="-570.5" font-family="Helvetica,sans-Serif" font-size="10.00"># LogAllocPrior()</text>
<text text-anchor="start" x="267.408" y="-559.5" font-family="Helvetica,sans-Serif" font-size="10.00"># LogStatPrior()</text>
<text text-anchor="start" x="267.408" y="-548.5" font-family="Helvetica,sans-Serif" font-size="10.00"># LogStatPrior()</text>
<text text-anchor="start" x="267.408" y="-537.5" font-family="Helvetica,sans-Serif" font-size="10.00"># SwapComponents()</text>
</a>
</g>
</g>
<!-- Node11&#45;&gt;Node16 -->
<g id="edge9" class="edge"><title>Node11&#45;&gt;Node16</title>
<path fill="none" stroke="midnightblue" d="M335.408,-1120.14C335.408,-1096.91 335.408,-1073.17 335.408,-1049.62"/>
<polygon fill="none" stroke="midnightblue" points="331.908,-1120.41 335.408,-1130.41 338.908,-1120.41 331.908,-1120.41"/>
</g>
<!-- Node12 -->
<g id="node5" class="node"><title>Node12</title>
<g id="a_node5"><a xlink:href="classChrono.html" target="_top" xlink:title="{Chrono\n||+ Chrono()\l+ ~Chrono()\l+ Reset()\l+ Start()\l+ Stop()\l+ ToStream()\l+ FromStream()\l+ operator++()\l+ GetTime()\l+ GetTimePerCount()\l+ GetCount()\l}">
<polygon fill="none" stroke="black" points="275.408,-1642.5 275.408,-1809.5 385.408,-1809.5 385.408,-1642.5 275.408,-1642.5"/>
<text text-anchor="middle" x="330.408" y="-1797.5" font-family="Helvetica,sans-Serif" font-size="10.00">Chrono</text>
<polyline fill="none" stroke="black" points="275.408,-1790.5 385.408,-1790.5 "/>
<text text-anchor="middle" x="330.408" y="-1778.5" font-family="Helvetica,sans-Serif" font-size="10.00"> </text>
<polyline fill="none" stroke="black" points="275.408,-1771.5 385.408,-1771.5 "/>
<text text-anchor="start" x="283.408" y="-1759.5" font-family="Helvetica,sans-Serif" font-size="10.00">+ Chrono()</text>
<text text-anchor="start" x="283.408" y="-1748.5" font-family="Helvetica,sans-Serif" font-size="10.00">+ ~Chrono()</text>
<text text-anchor="start" x="283.408" y="-1737.5" font-family="Helvetica,sans-Serif" font-size="10.00">+ Reset()</text>
<text text-anchor="start" x="283.408" y="-1726.5" font-family="Helvetica,sans-Serif" font-size="10.00">+ Start()</text>
<text text-anchor="start" x="283.408" y="-1715.5" font-family="Helvetica,sans-Serif" font-size="10.00">+ Stop()</text>
<text text-anchor="start" x="283.408" y="-1704.5" font-family="Helvetica,sans-Serif" font-size="10.00">+ ToStream()</text>
<text text-anchor="start" x="283.408" y="-1693.5" font-family="Helvetica,sans-Serif" font-size="10.00">+ FromStream()</text>
<text text-anchor="start" x="283.408" y="-1682.5" font-family="Helvetica,sans-Serif" font-size="10.00">+ operator++()</text>
<text text-anchor="start" x="283.408" y="-1671.5" font-family="Helvetica,sans-Serif" font-size="10.00">+ GetTime()</text>
<text text-anchor="start" x="283.408" y="-1660.5" font-family="Helvetica,sans-Serif" font-size="10.00">+ GetTimePerCount()</text>
<text text-anchor="start" x="283.408" y="-1649.5" font-family="Helvetica,sans-Serif" font-size="10.00">+ GetCount()</text>
</a>
</g>
</g>
<!-- Node12&#45;&gt;Node11 -->
<g id="edge4" class="edge"><title>Node12&#45;&gt;Node11</title>
<path fill="none" stroke="#404040" d="M330.833,-1642.19C330.977,-1621.85 331.166,-1600.14 331.408,-1580 331.433,-1577.91 331.459,-1575.82 331.485,-1573.71"/>
<polygon fill="none" stroke="#404040" points="331.487,-1573.56 327.565,-1567.51 331.642,-1561.56 335.564,-1567.61 331.487,-1573.56"/>
<text text-anchor="middle" x="358.908" y="-1610.5" font-family="Helvetica,sans-Serif" font-size="10.00"> #chronostat</text>
<text text-anchor="middle" x="358.908" y="-1599.5" font-family="Helvetica,sans-Serif" font-size="10.00">#chronorr</text>
<text text-anchor="middle" x="358.908" y="-1588.5" font-family="Helvetica,sans-Serif" font-size="10.00">#chronodp</text>
</g>
<!-- Node13 -->
<g id="node6" class="node"><title>Node13</title>
<polygon fill="none" stroke="#bfbfbf" points="96.908,-1697.5 96.908,-1754.5 141.908,-1754.5 141.908,-1697.5 96.908,-1697.5"/>
<text text-anchor="middle" x="119.408" y="-1742.5" font-family="Helvetica,sans-Serif" font-size="10.00">double</text>
<polyline fill="none" stroke="#bfbfbf" points="96.908,-1735.5 141.908,-1735.5 "/>
<text text-anchor="middle" x="119.408" y="-1723.5" font-family="Helvetica,sans-Serif" font-size="10.00"> </text>
<polyline fill="none" stroke="#bfbfbf" points="96.908,-1716.5 141.908,-1716.5 "/>
<text text-anchor="middle" x="119.408" y="-1704.5" font-family="Helvetica,sans-Serif" font-size="10.00"> </text>
</g>
<!-- Node13&#45;&gt;Node11 -->
<g id="edge5" class="edge"><title>Node13&#45;&gt;Node11</title>
<path fill="none" stroke="#404040" d="M122.724,-1697.45C128.094,-1664.88 141.743,-1611.16 175.408,-1580 195.839,-1561.09 214.357,-1580.22 235.408,-1562 237.217,-1560.43 238.996,-1558.83 240.744,-1557.19"/>
<polygon fill="none" stroke="#404040" points="240.761,-1557.17 242.168,-1550.1 249.237,-1548.67 247.831,-1555.75 240.761,-1557.17"/>
<text text-anchor="middle" x="207.408" y="-1599.5" font-family="Helvetica,sans-Serif" font-size="10.00"> #mintotweight</text>
</g>
<!-- Node13&#45;&gt;Node16 -->
<g id="edge10" class="edge"><title>Node13&#45;&gt;Node16</title>
<path fill="none" stroke="#404040" d="M112.708,-1697.42C92.7238,-1608.77 41.0335,-1325.54 143.408,-1130 170.784,-1077.71 214.997,-1097.95 249.408,-1050 250.487,-1048.5 251.553,-1046.98 252.607,-1045.45"/>
<polygon fill="none" stroke="#404040" points="252.784,-1045.18 252.737,-1037.97 259.375,-1035.15 259.422,-1042.36 252.784,-1045.18"/>
<text text-anchor="middle" x="191.908" y="-1365.5" font-family="Helvetica,sans-Serif" font-size="10.00"> #logstatprior</text>
<text text-anchor="middle" x="191.908" y="-1354.5" font-family="Helvetica,sans-Serif" font-size="10.00">#profile</text>
<text text-anchor="middle" x="191.908" y="-1343.5" font-family="Helvetica,sans-Serif" font-size="10.00">#profilesuffstatlogprob</text>
<text text-anchor="middle" x="191.908" y="-1332.5" font-family="Helvetica,sans-Serif" font-size="10.00">#allocprofile</text>
<text text-anchor="middle" x="191.908" y="-1321.5" font-family="Helvetica,sans-Serif" font-size="10.00">#dirweight</text>
</g>
<!-- Node17 -->
<g id="node10" class="node"><title>Node17</title>
<g id="a_node10"><a xlink:href="classFiniteProfileProcess.html" target="_top" xlink:title="{FiniteProfileProcess\n||+ FiniteProfileProcess()\l+ ~FiniteProfileProcess()\l+ GetLogNPrior()\l+ SetFixedNcomponent()\l# DrawProfileFromPrior()\l# ReadStatFix()\l# SetStatFix()\l# IncrementalFiniteMove()\l# MoveHyper()\l# MoveWeightAlpha()\l# MoveNcomponent()\l# ResampleWeights()\l# Create()\l# Create()\l# Delete()\l# SampleAlloc()\l# SampleStat()\l# SampleHyper()\l# SampleWeights()\l# LogHyperPrior()\l# LogWeightPrior()\l}">
<polygon fill="none" stroke="black" points="116.408,-205.5 116.408,-482.5 246.408,-482.5 246.408,-205.5 116.408,-205.5"/>
<text text-anchor="middle" x="181.408" y="-470.5" font-family="Helvetica,sans-Serif" font-size="10.00">FiniteProfileProcess</text>
<polyline fill="none" stroke="black" points="116.408,-463.5 246.408,-463.5 "/>
<text text-anchor="middle" x="181.408" y="-451.5" font-family="Helvetica,sans-Serif" font-size="10.00"> </text>
<polyline fill="none" stroke="black" points="116.408,-444.5 246.408,-444.5 "/>
<text text-anchor="start" x="124.408" y="-432.5" font-family="Helvetica,sans-Serif" font-size="10.00">+ FiniteProfileProcess()</text>
<text text-anchor="start" x="124.408" y="-421.5" font-family="Helvetica,sans-Serif" font-size="10.00">+ ~FiniteProfileProcess()</text>
<text text-anchor="start" x="124.408" y="-410.5" font-family="Helvetica,sans-Serif" font-size="10.00">+ GetLogNPrior()</text>
<text text-anchor="start" x="124.408" y="-399.5" font-family="Helvetica,sans-Serif" font-size="10.00">+ SetFixedNcomponent()</text>
<text text-anchor="start" x="124.408" y="-388.5" font-family="Helvetica,sans-Serif" font-size="10.00"># DrawProfileFromPrior()</text>
<text text-anchor="start" x="124.408" y="-377.5" font-family="Helvetica,sans-Serif" font-size="10.00"># ReadStatFix()</text>
<text text-anchor="start" x="124.408" y="-366.5" font-family="Helvetica,sans-Serif" font-size="10.00"># SetStatFix()</text>
<text text-anchor="start" x="124.408" y="-355.5" font-family="Helvetica,sans-Serif" font-size="10.00"># IncrementalFiniteMove()</text>
<text text-anchor="start" x="124.408" y="-344.5" font-family="Helvetica,sans-Serif" font-size="10.00"># MoveHyper()</text>
<text text-anchor="start" x="124.408" y="-333.5" font-family="Helvetica,sans-Serif" font-size="10.00"># MoveWeightAlpha()</text>
<text text-anchor="start" x="124.408" y="-322.5" font-family="Helvetica,sans-Serif" font-size="10.00"># MoveNcomponent()</text>
<text text-anchor="start" x="124.408" y="-311.5" font-family="Helvetica,sans-Serif" font-size="10.00"># ResampleWeights()</text>
<text text-anchor="start" x="124.408" y="-300.5" font-family="Helvetica,sans-Serif" font-size="10.00"># Create()</text>
<text text-anchor="start" x="124.408" y="-289.5" font-family="Helvetica,sans-Serif" font-size="10.00"># Create()</text>
<text text-anchor="start" x="124.408" y="-278.5" font-family="Helvetica,sans-Serif" font-size="10.00"># Delete()</text>
<text text-anchor="start" x="124.408" y="-267.5" font-family="Helvetica,sans-Serif" font-size="10.00"># SampleAlloc()</text>
<text text-anchor="start" x="124.408" y="-256.5" font-family="Helvetica,sans-Serif" font-size="10.00"># SampleStat()</text>
<text text-anchor="start" x="124.408" y="-245.5" font-family="Helvetica,sans-Serif" font-size="10.00"># SampleHyper()</text>
<text text-anchor="start" x="124.408" y="-234.5" font-family="Helvetica,sans-Serif" font-size="10.00"># SampleWeights()</text>
<text text-anchor="start" x="124.408" y="-223.5" font-family="Helvetica,sans-Serif" font-size="10.00"># LogHyperPrior()</text>
<text text-anchor="start" x="124.408" y="-212.5" font-family="Helvetica,sans-Serif" font-size="10.00"># LogWeightPrior()</text>
</a>
</g>
</g>
<!-- Node13&#45;&gt;Node17 -->
<g id="edge16" class="edge"><title>Node13&#45;&gt;Node17</title>
<path fill="none" stroke="#404040" d="M110.582,-1697.32C100.634,-1665.12 84.649,-1610.22 75.408,-1562 -10.9304,-1111.49 -42.5408,-969.321 89.408,-530 95.187,-510.759 102.841,-491.082 111.273,-472.081"/>
<polygon fill="none" stroke="#404040" points="111.353,-471.904 110.194,-464.787 116.319,-460.98 117.477,-468.097 111.353,-471.904"/>
<text text-anchor="middle" x="34.908" y="-1104" font-family="Helvetica,sans-Serif" font-size="10.00"> #weightalpha</text>
<text text-anchor="middle" x="34.908" y="-1093" font-family="Helvetica,sans-Serif" font-size="10.00">#empweight</text>
<text text-anchor="middle" x="34.908" y="-1082" font-family="Helvetica,sans-Serif" font-size="10.00">#statfix</text>
<text text-anchor="middle" x="34.908" y="-1071" font-family="Helvetica,sans-Serif" font-size="10.00">#weight</text>
</g>
<!-- Node14 -->
<g id="node7" class="node"><title>Node14</title>
<polygon fill="none" stroke="#bfbfbf" points="478.908,-1697.5 478.908,-1754.5 507.908,-1754.5 507.908,-1697.5 478.908,-1697.5"/>
<text text-anchor="middle" x="493.408" y="-1742.5" font-family="Helvetica,sans-Serif" font-size="10.00">int</text>
<polyline fill="none" stroke="#bfbfbf" points="478.908,-1735.5 507.908,-1735.5 "/>
<text text-anchor="middle" x="493.408" y="-1723.5" font-family="Helvetica,sans-Serif" font-size="10.00"> </text>
<polyline fill="none" stroke="#bfbfbf" points="478.908,-1716.5 507.908,-1716.5 "/>
<text text-anchor="middle" x="493.408" y="-1704.5" font-family="Helvetica,sans-Serif" font-size="10.00"> </text>
</g>
<!-- Node14&#45;&gt;Node9 -->
<g id="edge12" class="edge"><title>Node14&#45;&gt;Node9</title>
<path fill="none" stroke="#404040" d="M507.576,-1697.3C523.073,-1665.54 547.196,-1611.47 558.408,-1562 659.846,-1114.44 787.519,-945.374 592.408,-530 565.753,-473.253 512.195,-427.911 464.248,-396.319"/>
<polygon fill="none" stroke="#404040" points="464.2,-396.289 456.989,-396.4 454.113,-389.788 461.323,-389.676 464.2,-396.289"/>
<text text-anchor="middle" x="726.408" y="-1087.5" font-family="Helvetica,sans-Serif" font-size="10.00"> #profilesuffstatcount</text>
</g>
<!-- Node14&#45;&gt;Node11 -->
<g id="edge6" class="edge"><title>Node14&#45;&gt;Node11</title>
<path fill="none" stroke="#404040" d="M478.686,-1711.4C459.895,-1693.24 427.642,-1659.25 409.408,-1624 401.019,-1607.78 393.515,-1590.53 386.815,-1572.87"/>
<polygon fill="none" stroke="#404040" points="386.782,-1572.78 380.955,-1568.53 382.637,-1561.51 388.463,-1565.76 386.782,-1572.78"/>
<text text-anchor="middle" x="438.408" y="-1616" font-family="Helvetica,sans-Serif" font-size="10.00"> #dim</text>
<text text-anchor="middle" x="438.408" y="-1605" font-family="Helvetica,sans-Serif" font-size="10.00">#statinfcount</text>
<text text-anchor="middle" x="438.408" y="-1594" font-family="Helvetica,sans-Serif" font-size="10.00">#totstatcount</text>
<text text-anchor="middle" x="438.408" y="-1583" font-family="Helvetica,sans-Serif" font-size="10.00">#nsite</text>
</g>
<!-- Node14&#45;&gt;Node16 -->
<g id="edge11" class="edge"><title>Node14&#45;&gt;Node16</title>
<path fill="none" stroke="#404040" d="M493.58,-1697.47C493.677,-1668.29 493.593,-1620.89 492.408,-1580 486.605,-1379.82 508.413,-1326.43 469.408,-1130 463.713,-1101.32 465.378,-1091.06 447.408,-1068 438.544,-1056.62 429.136,-1061.48 420.408,-1050 419.831,-1049.24 419.257,-1048.48 418.688,-1047.71"/>
<polygon fill="none" stroke="#404040" points="418.414,-1047.32 411.686,-1044.73 411.494,-1037.52 418.222,-1040.11 418.414,-1047.32"/>
<text text-anchor="middle" x="523.908" y="-1354.5" font-family="Helvetica,sans-Serif" font-size="10.00"> #occupancy</text>
<text text-anchor="middle" x="523.908" y="-1343.5" font-family="Helvetica,sans-Serif" font-size="10.00">#Ncomponent</text>
<text text-anchor="middle" x="523.908" y="-1332.5" font-family="Helvetica,sans-Serif" font-size="10.00">#alloc</text>
</g>
<!-- Node14&#45;&gt;Node17 -->
<g id="edge17" class="edge"><title>Node14&#45;&gt;Node17</title>
<path fill="none" stroke="#404040" d="M488.857,-1697.38C483.637,-1665.01 475.071,-1609.72 469.408,-1562 458.05,-1466.28 490.23,-1205.58 430.408,-1130 430.408,-1130 190.408,-1050 190.408,-1050 128.22,-964.87 145.646,-675.11 163.703,-494.643"/>
<polygon fill="none" stroke="#404040" points="163.708,-494.587 160.334,-488.214 164.92,-482.648 168.293,-489.022 163.708,-494.587"/>
<text text-anchor="middle" x="409.908" y="-1093" font-family="Helvetica,sans-Serif" font-size="10.00"> #dirweightprior</text>
<text text-anchor="middle" x="409.908" y="-1082" font-family="Helvetica,sans-Serif" font-size="10.00">#Ncat</text>
</g>
<!-- Node15 -->
<g id="node8" class="node"><title>Node15</title>
<polygon fill="none" stroke="#bfbfbf" points="190.908,-1697.5 190.908,-1754.5 225.908,-1754.5 225.908,-1697.5 190.908,-1697.5"/>
<text text-anchor="middle" x="208.408" y="-1742.5" font-family="Helvetica,sans-Serif" font-size="10.00">bool</text>
<polyline fill="none" stroke="#bfbfbf" points="190.908,-1735.5 225.908,-1735.5 "/>
<text text-anchor="middle" x="208.408" y="-1723.5" font-family="Helvetica,sans-Serif" font-size="10.00"> </text>
<polyline fill="none" stroke="#bfbfbf" points="190.908,-1716.5 225.908,-1716.5 "/>
<text text-anchor="middle" x="208.408" y="-1704.5" font-family="Helvetica,sans-Serif" font-size="10.00"> </text>
</g>
<!-- Node15&#45;&gt;Node11 -->
<g id="edge7" class="edge"><title>Node15&#45;&gt;Node11</title>
<path fill="none" stroke="#404040" d="M217.747,-1697.2C227.153,-1669.21 242.629,-1623.15 259.313,-1573.49"/>
<polygon fill="none" stroke="#404040" points="259.41,-1573.2 257.529,-1566.24 263.231,-1561.82 265.112,-1568.79 259.41,-1573.2"/>
<text text-anchor="middle" x="291.408" y="-1605" font-family="Helvetica,sans-Serif" font-size="10.00"> #activesuffstat</text>
<text text-anchor="middle" x="291.408" y="-1594" font-family="Helvetica,sans-Serif" font-size="10.00">#burnin</text>
</g>
<!-- Node15&#45;&gt;Node17 -->
<g id="edge18" class="edge"><title>Node15&#45;&gt;Node17</title>
<path fill="none" stroke="#404040" d="M190.893,-1699.83C161.956,-1657.99 106.891,-1577.22 102.408,-1562 35.6924,-1335.53 128.869,-735.363 157.408,-501 157.659,-498.943 157.915,-496.871 158.177,-494.788"/>
<polygon fill="none" stroke="#404040" points="158.196,-494.643 154.999,-488.179 159.736,-482.742 162.933,-489.206 158.196,-494.643"/>
<text text-anchor="middle" x="114.408" y="-1093" font-family="Helvetica,sans-Serif" font-size="10.00"> #empmix</text>
<text text-anchor="middle" x="114.408" y="-1082" font-family="Helvetica,sans-Serif" font-size="10.00">#fixncomp</text>
</g>
<!-- Node16&#45;&gt;Node9 -->
<g id="edge8" class="edge"><title>Node16&#45;&gt;Node9</title>
<path fill="none" stroke="midnightblue" d="M355.997,-520.133C356.973,-507.382 357.933,-494.847 358.863,-482.708"/>
<polygon fill="none" stroke="midnightblue" points="352.484,-520.164 355.211,-530.402 359.464,-520.699 352.484,-520.164"/>
</g>
<!-- Node16&#45;&gt;Node17 -->
<g id="edge14" class="edge"><title>Node16&#45;&gt;Node17</title>
<path fill="none" stroke="midnightblue" d="M256.07,-540.082C251.524,-526.837 246.952,-513.744 242.408,-501 240.259,-494.974 238.029,-488.832 235.748,-482.637"/>
<polygon fill="none" stroke="midnightblue" points="252.829,-541.42 259.376,-549.75 259.452,-539.155 252.829,-541.42"/>
</g>
<!-- Node17&#45;&gt;Node8 -->
<g id="edge13" class="edge"><title>Node17&#45;&gt;Node8</title>
<path fill="none" stroke="midnightblue" d="M246.359,-196.006C250.632,-186.335 254.845,-176.801 258.898,-167.629"/>
<polygon fill="none" stroke="midnightblue" points="243.087,-194.752 242.246,-205.313 249.489,-197.581 243.087,-194.752"/>
</g>
<!-- Node18 -->
<g id="node11" class="node"><title>Node18</title>
<polygon fill="none" stroke="#bfbfbf" points="199.908,-761.5 199.908,-818.5 240.908,-818.5 240.908,-761.5 199.908,-761.5"/>
<text text-anchor="middle" x="220.408" y="-806.5" font-family="Helvetica,sans-Serif" font-size="10.00">string</text>
<polyline fill="none" stroke="#bfbfbf" points="199.908,-799.5 240.908,-799.5 "/>
<text text-anchor="middle" x="220.408" y="-787.5" font-family="Helvetica,sans-Serif" font-size="10.00"> </text>
<polyline fill="none" stroke="#bfbfbf" points="199.908,-780.5 240.908,-780.5 "/>
<text text-anchor="middle" x="220.408" y="-768.5" font-family="Helvetica,sans-Serif" font-size="10.00"> </text>
</g>
<!-- Node18&#45;&gt;Node17 -->
<g id="edge15" class="edge"><title>Node18&#45;&gt;Node17</title>
<path fill="none" stroke="#404040" d="M217.968,-761.226C213.354,-708.693 203.049,-591.37 194.551,-494.632"/>
<polygon fill="none" stroke="#404040" points="194.548,-494.596 190.039,-488.969 193.498,-482.642 198.008,-488.269 194.548,-494.596"/>
<text text-anchor="middle" x="216.908" y="-504" font-family="Helvetica,sans-Serif" font-size="10.00"> #mixtype</text>
</g>
</g>
</svg>
