<?xml version="1.0" encoding="UTF-8" standalone="no"?>
<!DOCTYPE svg PUBLIC "-//W3C//DTD SVG 1.1//EN"
 "http://www.w3.org/Graphics/SVG/1.1/DTD/svg11.dtd">
<!-- Generated by graphviz version 2.38.0 (20140413.2041)
 -->
<!-- Title: NewickTree Pages: 1 -->
<svg width="125pt" height="281pt"
 viewBox="0.00 0.00 125.00 281.00" xmlns="http://www.w3.org/2000/svg" xmlns:xlink="http://www.w3.org/1999/xlink">
<g id="graph0" class="graph" transform="scale(1 1) rotate(0) translate(4 277)">
<title>NewickTree</title>
<!-- Node27 -->
<g id="node1" class="node"><title>Node27</title>
<polygon fill="#bfbfbf" stroke="black" points="0,-0.5 0,-167.5 117,-167.5 117,-0.5 0,-0.5"/>
<text text-anchor="middle" x="58.5" y="-155.5" font-family="Helvetica,sans-Serif" font-size="10.00">NewickTree</text>
<polyline fill="none" stroke="black" points="0,-148.5 117,-148.5 "/>
<text text-anchor="middle" x="58.5" y="-136.5" font-family="Helvetica,sans-Serif" font-size="10.00"> </text>
<polyline fill="none" stroke="black" points="0,-129.5 117,-129.5 "/>
<text text-anchor="start" x="8" y="-117.5" font-family="Helvetica,sans-Serif" font-size="10.00">+ ~NewickTree()</text>
<text text-anchor="start" x="8" y="-106.5" font-family="Helvetica,sans-Serif" font-size="10.00">+ GetRoot()</text>
<text text-anchor="start" x="8" y="-95.5" font-family="Helvetica,sans-Serif" font-size="10.00">+ GetRoot()</text>
<text text-anchor="start" x="8" y="-84.5" font-family="Helvetica,sans-Serif" font-size="10.00">+ ToStream()</text>
<text text-anchor="start" x="8" y="-73.5" font-family="Helvetica,sans-Serif" font-size="10.00">+ ToStream()</text>
<text text-anchor="start" x="8" y="-62.5" font-family="Helvetica,sans-Serif" font-size="10.00">+ ToStreamSimplified()</text>
<text text-anchor="start" x="8" y="-51.5" font-family="Helvetica,sans-Serif" font-size="10.00">+ GetLeftMost()</text>
<text text-anchor="start" x="8" y="-40.5" font-family="Helvetica,sans-Serif" font-size="10.00">+ GetRightMost()</text>
<text text-anchor="start" x="8" y="-29.5" font-family="Helvetica,sans-Serif" font-size="10.00">+ GetNodeName()</text>
<text text-anchor="start" x="8" y="-18.5" font-family="Helvetica,sans-Serif" font-size="10.00">+ GetBranchName()</text>
<text text-anchor="start" x="8" y="-7.5" font-family="Helvetica,sans-Serif" font-size="10.00">+ Simplify()</text>
</g>
<!-- Node28 -->
<g id="node2" class="node"><title>Node28</title>
<polygon fill="none" stroke="#bfbfbf" points="41,-215.5 41,-272.5 76,-272.5 76,-215.5 41,-215.5"/>
<text text-anchor="middle" x="58.5" y="-260.5" font-family="Helvetica,sans-Serif" font-size="10.00">bool</text>
<polyline fill="none" stroke="#bfbfbf" points="41,-253.5 76,-253.5 "/>
<text text-anchor="middle" x="58.5" y="-241.5" font-family="Helvetica,sans-Serif" font-size="10.00"> </text>
<polyline fill="none" stroke="#bfbfbf" points="41,-234.5 76,-234.5 "/>
<text text-anchor="middle" x="58.5" y="-222.5" font-family="Helvetica,sans-Serif" font-size="10.00"> </text>
</g>
<!-- Node28&#45;&gt;Node27 -->
<g id="edge1" class="edge"><title>Node28&#45;&gt;Node27</title>
<path fill="none" stroke="#404040" d="M58.5,-215.479C58.5,-205.122 58.5,-192.674 58.5,-179.634"/>
<polygon fill="none" stroke="#404040" points="58.5001,-179.536 54.5,-173.536 58.5,-167.536 62.5,-173.536 58.5001,-179.536"/>
<text text-anchor="middle" x="80" y="-189" font-family="Helvetica,sans-Serif" font-size="10.00"> #simplify</text>
</g>
</g>
</svg>
