<?xml version="1.0" encoding="UTF-8" standalone="no"?>
<!DOCTYPE svg PUBLIC "-//W3C//DTD SVG 1.1//EN"
 "http://www.w3.org/Graphics/SVG/1.1/DTD/svg11.dtd">
<!-- Generated by graphviz version 2.38.0 (20140413.2041)
 -->
<!-- Title: TreeList Pages: 1 -->
<svg width="523pt" height="1756pt"
 viewBox="0.00 0.00 522.50 1756.00" xmlns="http://www.w3.org/2000/svg" xmlns:xlink="http://www.w3.org/1999/xlink">
<g id="graph0" class="graph" transform="scale(1 1) rotate(0) translate(4 1752)">
<title>TreeList</title>
<!-- Node1 -->
<g id="node1" class="node"><title>Node1</title>
<polygon fill="#bfbfbf" stroke="black" points="0,-264.5 0,-442.5 109,-442.5 109,-264.5 0,-264.5"/>
<text text-anchor="middle" x="54.5" y="-430.5" font-family="Helvetica,sans-Serif" font-size="10.00">TreeList</text>
<polyline fill="none" stroke="black" points="0,-423.5 109,-423.5 "/>
<text text-anchor="middle" x="54.5" y="-411.5" font-family="Helvetica,sans-Serif" font-size="10.00"> </text>
<polyline fill="none" stroke="black" points="0,-404.5 109,-404.5 "/>
<text text-anchor="start" x="8" y="-392.5" font-family="Helvetica,sans-Serif" font-size="10.00">+ TreeList()</text>
<text text-anchor="start" x="8" y="-381.5" font-family="Helvetica,sans-Serif" font-size="10.00">+ TreeList()</text>
<text text-anchor="start" x="8" y="-370.5" font-family="Helvetica,sans-Serif" font-size="10.00">+ TreeList()</text>
<text text-anchor="start" x="8" y="-359.5" font-family="Helvetica,sans-Serif" font-size="10.00">+ ~TreeList()</text>
<text text-anchor="start" x="8" y="-348.5" font-family="Helvetica,sans-Serif" font-size="10.00">+ GetTree()</text>
<text text-anchor="start" x="8" y="-337.5" font-family="Helvetica,sans-Serif" font-size="10.00">+ GetSize()</text>
<text text-anchor="start" x="8" y="-326.5" font-family="Helvetica,sans-Serif" font-size="10.00">+ GetParameters()</text>
<text text-anchor="start" x="8" y="-315.5" font-family="Helvetica,sans-Serif" font-size="10.00">+ SetParameters()</text>
<text text-anchor="start" x="8" y="-304.5" font-family="Helvetica,sans-Serif" font-size="10.00">+ RootAt()</text>
<text text-anchor="start" x="8" y="-293.5" font-family="Helvetica,sans-Serif" font-size="10.00">+ ReadFromStream()</text>
<text text-anchor="start" x="8" y="-282.5" font-family="Helvetica,sans-Serif" font-size="10.00">+ WriteToStream()</text>
<text text-anchor="start" x="8" y="-271.5" font-family="Helvetica,sans-Serif" font-size="10.00">+ ToPS()</text>
</g>
<!-- Node2 -->
<g id="node2" class="node"><title>Node2</title>
<polygon fill="none" stroke="#bfbfbf" points="144,-1690.5 144,-1747.5 173,-1747.5 173,-1690.5 144,-1690.5"/>
<text text-anchor="middle" x="158.5" y="-1735.5" font-family="Helvetica,sans-Serif" font-size="10.00">int</text>
<polyline fill="none" stroke="#bfbfbf" points="144,-1728.5 173,-1728.5 "/>
<text text-anchor="middle" x="158.5" y="-1716.5" font-family="Helvetica,sans-Serif" font-size="10.00"> </text>
<polyline fill="none" stroke="#bfbfbf" points="144,-1709.5 173,-1709.5 "/>
<text text-anchor="middle" x="158.5" y="-1697.5" font-family="Helvetica,sans-Serif" font-size="10.00"> </text>
</g>
<!-- Node2&#45;&gt;Node1 -->
<g id="edge1" class="edge"><title>Node2&#45;&gt;Node1</title>
<path fill="none" stroke="#404040" d="M143.662,-1707.73C134.883,-1701.98 123.383,-1694.98 112.5,-1690 72.1761,-1671.56 42.4694,-1683.54 24.5,-1643 -15.6663,-1552.39 15.886,-1518.74 24.5,-1420 28.0691,-1379.09 36.6372,-1369.88 40.5,-1329 70.552,-1010.94 63.8897,-631.934 58.3229,-454.908"/>
<polygon fill="none" stroke="#404040" points="58.3184,-454.765 54.1277,-448.897 57.9329,-442.771 62.1236,-448.64 58.3184,-454.765"/>
<text text-anchor="middle" x="57" y="-1372" font-family="Helvetica,sans-Serif" font-size="10.00"> +mSize</text>
</g>
<!-- Node3 -->
<g id="node3" class="node"><title>Node3</title>
<g id="a_node3"><a xlink:href="classTaxaParameters.html" target="_top" xlink:title="{TaxaParameters\n||+ TaxaParameters()\l+ TaxaParameters()\l+ TaxaParameters()\l+ TaxaParameters()\l+ TaxaParameters()\l+ TaxaParameters()\l+ ~TaxaParameters()\l+ ReadFromStream()\l+ WriteToStream()\l+ ReadNexus()\l+ GetSpeciesName()\l+ Member()\l+ RegisterWith()\l+ GetParameters()\l+ GetOutGroup()\l+ SetOutGroup()\l}">
<polygon fill="none" stroke="black" points="33.5,-1420.5 33.5,-1642.5 143.5,-1642.5 143.5,-1420.5 33.5,-1420.5"/>
<text text-anchor="middle" x="88.5" y="-1630.5" font-family="Helvetica,sans-Serif" font-size="10.00">TaxaParameters</text>
<polyline fill="none" stroke="black" points="33.5,-1623.5 143.5,-1623.5 "/>
<text text-anchor="middle" x="88.5" y="-1611.5" font-family="Helvetica,sans-Serif" font-size="10.00"> </text>
<polyline fill="none" stroke="black" points="33.5,-1604.5 143.5,-1604.5 "/>
<text text-anchor="start" x="41.5" y="-1592.5" font-family="Helvetica,sans-Serif" font-size="10.00">+ TaxaParameters()</text>
<text text-anchor="start" x="41.5" y="-1581.5" font-family="Helvetica,sans-Serif" font-size="10.00">+ TaxaParameters()</text>
<text text-anchor="start" x="41.5" y="-1570.5" font-family="Helvetica,sans-Serif" font-size="10.00">+ TaxaParameters()</text>
<text text-anchor="start" x="41.5" y="-1559.5" font-family="Helvetica,sans-Serif" font-size="10.00">+ TaxaParameters()</text>
<text text-anchor="start" x="41.5" y="-1548.5" font-family="Helvetica,sans-Serif" font-size="10.00">+ TaxaParameters()</text>
<text text-anchor="start" x="41.5" y="-1537.5" font-family="Helvetica,sans-Serif" font-size="10.00">+ TaxaParameters()</text>
<text text-anchor="start" x="41.5" y="-1526.5" font-family="Helvetica,sans-Serif" font-size="10.00">+ ~TaxaParameters()</text>
<text text-anchor="start" x="41.5" y="-1515.5" font-family="Helvetica,sans-Serif" font-size="10.00">+ ReadFromStream()</text>
<text text-anchor="start" x="41.5" y="-1504.5" font-family="Helvetica,sans-Serif" font-size="10.00">+ WriteToStream()</text>
<text text-anchor="start" x="41.5" y="-1493.5" font-family="Helvetica,sans-Serif" font-size="10.00">+ ReadNexus()</text>
<text text-anchor="start" x="41.5" y="-1482.5" font-family="Helvetica,sans-Serif" font-size="10.00">+ GetSpeciesName()</text>
<text text-anchor="start" x="41.5" y="-1471.5" font-family="Helvetica,sans-Serif" font-size="10.00">+ Member()</text>
<text text-anchor="start" x="41.5" y="-1460.5" font-family="Helvetica,sans-Serif" font-size="10.00">+ RegisterWith()</text>
<text text-anchor="start" x="41.5" y="-1449.5" font-family="Helvetica,sans-Serif" font-size="10.00">+ GetParameters()</text>
<text text-anchor="start" x="41.5" y="-1438.5" font-family="Helvetica,sans-Serif" font-size="10.00">+ GetOutGroup()</text>
<text text-anchor="start" x="41.5" y="-1427.5" font-family="Helvetica,sans-Serif" font-size="10.00">+ SetOutGroup()</text>
</a>
</g>
</g>
<!-- Node2&#45;&gt;Node3 -->
<g id="edge4" class="edge"><title>Node2&#45;&gt;Node3</title>
<path fill="none" stroke="#404040" d="M143.945,-1697.62C138.872,-1689.86 133.463,-1680.78 129.5,-1672 126.936,-1666.32 124.485,-1660.44 122.15,-1654.45"/>
<polygon fill="none" stroke="#404040" points="122.004,-1654.06 116.156,-1649.84 117.801,-1642.82 123.649,-1647.04 122.004,-1654.06"/>
<text text-anchor="middle" x="147.5" y="-1664" font-family="Helvetica,sans-Serif" font-size="10.00"> +Ntaxa</text>
</g>
<!-- Node6 -->
<g id="node6" class="node"><title>Node6</title>
<g id="a_node6"><a xlink:href="classPBTree.html" target="_top" xlink:title="{PBTree\n||+ PBTree()\l+ PBTree()\l+ PBTree()\l+ PBTree()\l+ ~PBTree()\l+ GetParameters()\l+ SetParameters()\l+ Clone()\l+ Phylip()\l+ WriteToStream()\l+ ReadFromStream()\l+ ReadPhylip()\l+ GetRoot()\l+ GetLeaf()\l+ GetSize()\l+ GetSpeciesNames()\l+ GetLength()\l+ Simplify()\l+ operator==()\l+ operator!=()\l+ FindNode()\l+ FindNode()\l+ GetRootBipartition()\l+ BipartitionPruning()\l+ SetLabelOffset()\l+ TranslateLabels()\l+ Dichotomise()\l+ Trichotomise()\l+ IsDichotomous()\l+ BipartitionPruning()\l+ FinishCreation()\l+ RegisterWithData()\l+ RegisterWithParam()\l+ SetNames()\l+ SetFormalBranchLengths()\l+ Root()\l+ RootAt()\l+ RootAt()\l+ RootAt0Alphabetical()\l+ Eliminate()\l+ Eliminate()\l+ Eliminate()\l+ Eliminate()\l}">
<polygon fill="none" stroke="black" points="104.5,-809.5 104.5,-1328.5 246.5,-1328.5 246.5,-809.5 104.5,-809.5"/>
<text text-anchor="middle" x="175.5" y="-1316.5" font-family="Helvetica,sans-Serif" font-size="10.00">PBTree</text>
<polyline fill="none" stroke="black" points="104.5,-1309.5 246.5,-1309.5 "/>
<text text-anchor="middle" x="175.5" y="-1297.5" font-family="Helvetica,sans-Serif" font-size="10.00"> </text>
<polyline fill="none" stroke="black" points="104.5,-1290.5 246.5,-1290.5 "/>
<text text-anchor="start" x="112.5" y="-1278.5" font-family="Helvetica,sans-Serif" font-size="10.00">+ PBTree()</text>
<text text-anchor="start" x="112.5" y="-1267.5" font-family="Helvetica,sans-Serif" font-size="10.00">+ PBTree()</text>
<text text-anchor="start" x="112.5" y="-1256.5" font-family="Helvetica,sans-Serif" font-size="10.00">+ PBTree()</text>
<text text-anchor="start" x="112.5" y="-1245.5" font-family="Helvetica,sans-Serif" font-size="10.00">+ PBTree()</text>
<text text-anchor="start" x="112.5" y="-1234.5" font-family="Helvetica,sans-Serif" font-size="10.00">+ ~PBTree()</text>
<text text-anchor="start" x="112.5" y="-1223.5" font-family="Helvetica,sans-Serif" font-size="10.00">+ GetParameters()</text>
<text text-anchor="start" x="112.5" y="-1212.5" font-family="Helvetica,sans-Serif" font-size="10.00">+ SetParameters()</text>
<text text-anchor="start" x="112.5" y="-1201.5" font-family="Helvetica,sans-Serif" font-size="10.00">+ Clone()</text>
<text text-anchor="start" x="112.5" y="-1190.5" font-family="Helvetica,sans-Serif" font-size="10.00">+ Phylip()</text>
<text text-anchor="start" x="112.5" y="-1179.5" font-family="Helvetica,sans-Serif" font-size="10.00">+ WriteToStream()</text>
<text text-anchor="start" x="112.5" y="-1168.5" font-family="Helvetica,sans-Serif" font-size="10.00">+ ReadFromStream()</text>
<text text-anchor="start" x="112.5" y="-1157.5" font-family="Helvetica,sans-Serif" font-size="10.00">+ ReadPhylip()</text>
<text text-anchor="start" x="112.5" y="-1146.5" font-family="Helvetica,sans-Serif" font-size="10.00">+ GetRoot()</text>
<text text-anchor="start" x="112.5" y="-1135.5" font-family="Helvetica,sans-Serif" font-size="10.00">+ GetLeaf()</text>
<text text-anchor="start" x="112.5" y="-1124.5" font-family="Helvetica,sans-Serif" font-size="10.00">+ GetSize()</text>
<text text-anchor="start" x="112.5" y="-1113.5" font-family="Helvetica,sans-Serif" font-size="10.00">+ GetSpeciesNames()</text>
<text text-anchor="start" x="112.5" y="-1102.5" font-family="Helvetica,sans-Serif" font-size="10.00">+ GetLength()</text>
<text text-anchor="start" x="112.5" y="-1091.5" font-family="Helvetica,sans-Serif" font-size="10.00">+ Simplify()</text>
<text text-anchor="start" x="112.5" y="-1080.5" font-family="Helvetica,sans-Serif" font-size="10.00">+ operator==()</text>
<text text-anchor="start" x="112.5" y="-1069.5" font-family="Helvetica,sans-Serif" font-size="10.00">+ operator!=()</text>
<text text-anchor="start" x="112.5" y="-1058.5" font-family="Helvetica,sans-Serif" font-size="10.00">+ FindNode()</text>
<text text-anchor="start" x="112.5" y="-1047.5" font-family="Helvetica,sans-Serif" font-size="10.00">+ FindNode()</text>
<text text-anchor="start" x="112.5" y="-1036.5" font-family="Helvetica,sans-Serif" font-size="10.00">+ GetRootBipartition()</text>
<text text-anchor="start" x="112.5" y="-1025.5" font-family="Helvetica,sans-Serif" font-size="10.00">+ BipartitionPruning()</text>
<text text-anchor="start" x="112.5" y="-1014.5" font-family="Helvetica,sans-Serif" font-size="10.00">+ SetLabelOffset()</text>
<text text-anchor="start" x="112.5" y="-1003.5" font-family="Helvetica,sans-Serif" font-size="10.00">+ TranslateLabels()</text>
<text text-anchor="start" x="112.5" y="-992.5" font-family="Helvetica,sans-Serif" font-size="10.00">+ Dichotomise()</text>
<text text-anchor="start" x="112.5" y="-981.5" font-family="Helvetica,sans-Serif" font-size="10.00">+ Trichotomise()</text>
<text text-anchor="start" x="112.5" y="-970.5" font-family="Helvetica,sans-Serif" font-size="10.00">+ IsDichotomous()</text>
<text text-anchor="start" x="112.5" y="-959.5" font-family="Helvetica,sans-Serif" font-size="10.00">+ BipartitionPruning()</text>
<text text-anchor="start" x="112.5" y="-948.5" font-family="Helvetica,sans-Serif" font-size="10.00">+ FinishCreation()</text>
<text text-anchor="start" x="112.5" y="-937.5" font-family="Helvetica,sans-Serif" font-size="10.00">+ RegisterWithData()</text>
<text text-anchor="start" x="112.5" y="-926.5" font-family="Helvetica,sans-Serif" font-size="10.00">+ RegisterWithParam()</text>
<text text-anchor="start" x="112.5" y="-915.5" font-family="Helvetica,sans-Serif" font-size="10.00">+ SetNames()</text>
<text text-anchor="start" x="112.5" y="-904.5" font-family="Helvetica,sans-Serif" font-size="10.00">+ SetFormalBranchLengths()</text>
<text text-anchor="start" x="112.5" y="-893.5" font-family="Helvetica,sans-Serif" font-size="10.00">+ Root()</text>
<text text-anchor="start" x="112.5" y="-882.5" font-family="Helvetica,sans-Serif" font-size="10.00">+ RootAt()</text>
<text text-anchor="start" x="112.5" y="-871.5" font-family="Helvetica,sans-Serif" font-size="10.00">+ RootAt()</text>
<text text-anchor="start" x="112.5" y="-860.5" font-family="Helvetica,sans-Serif" font-size="10.00">+ RootAt0Alphabetical()</text>
<text text-anchor="start" x="112.5" y="-849.5" font-family="Helvetica,sans-Serif" font-size="10.00">+ Eliminate()</text>
<text text-anchor="start" x="112.5" y="-838.5" font-family="Helvetica,sans-Serif" font-size="10.00">+ Eliminate()</text>
<text text-anchor="start" x="112.5" y="-827.5" font-family="Helvetica,sans-Serif" font-size="10.00">+ Eliminate()</text>
<text text-anchor="start" x="112.5" y="-816.5" font-family="Helvetica,sans-Serif" font-size="10.00">+ Eliminate()</text>
</a>
</g>
</g>
<!-- Node2&#45;&gt;Node6 -->
<g id="edge14" class="edge"><title>Node2&#45;&gt;Node6</title>
<path fill="none" stroke="#404040" d="M163.325,-1690.34C164.204,-1684.31 165,-1677.96 165.5,-1672 174.58,-1563.92 177.942,-1444.54 178.73,-1340.8"/>
<polygon fill="none" stroke="#404040" points="178.731,-1340.55 174.772,-1334.52 178.811,-1328.55 182.771,-1334.57 178.731,-1340.55"/>
<text text-anchor="middle" x="225.5" y="-1551" font-family="Helvetica,sans-Serif" font-size="10.00"> +mLabelOffset</text>
<text text-anchor="middle" x="225.5" y="-1540" font-family="Helvetica,sans-Serif" font-size="10.00">+fromPB</text>
<text text-anchor="middle" x="225.5" y="-1529" font-family="Helvetica,sans-Serif" font-size="10.00">+WithSpeciesNames</text>
<text text-anchor="middle" x="225.5" y="-1518" font-family="Helvetica,sans-Serif" font-size="10.00">+WithBranchLengths</text>
<text text-anchor="middle" x="225.5" y="-1507" font-family="Helvetica,sans-Serif" font-size="10.00">+WithProb</text>
</g>
<!-- Node7 -->
<g id="node7" class="node"><title>Node7</title>
<g id="a_node7"><a xlink:href="classPolyNode.html" target="_top" xlink:title="{PolyNode\n||+ PolyNode()\l+ PolyNode()\l+ ~PolyNode()\l+ deleteRecursive()\l+ Up()\l+ Down()\l+ Next()\l+ Prev()\l+ IsLeaf()\l+ IsRoot()\l+ GetDegree()\l+ GetMaxDegree()\l+ ComputeDegree()\l+ CheckDegree()\l+ IsDichotomous()\l+ GetLeafSet()\l+ GetLabel()\l+ SetLabel()\l+ GetName()\l+ SetName()\l+ SetNames()\l+ GetBranchLength()\l+ SetBranchLength()\l+ GetProb()\l+ SetProb()\l+ SetTree()\l+ GetTree()\l+ Simplify()\l+ Detach()\l+ DetachRecursive()\l+ AttachTo()\l+ ComputeMinLeafLabel()\l+ DetachOld()\l+ Insert()\l+ RegisterWithData()\l+ Dichotomise()\l+ SetSuper()\l+ GetSize()\l+ GetDepth()\l+ GetMinDepth()\l+ GetLength()\l+ GetIntDepth()\l+ ComputeSizeAndDepth()\l+ SetFormalBranchLengths()\l+ GetSpeciesNames()\l+ GetSpeciesNames()\l+ FindNode()\l+ FindNodePruning()\l+ GetBipartition()\l+ BipartitionPruning()\l+ BipartitionPruningWithSupports()\l+ Analyse()\l+ Insert()\l+ FlipFlop()\l+ TranslateLabels()\l+ SortLeaves()\l+ SortLeavesAlphabetical()\l+ Phylip()\l+ ResetLabels()\l+ Swap()\l}">
<polygon fill="none" stroke="black" points="220,-0.5 220,-706.5 387,-706.5 387,-0.5 220,-0.5"/>
<text text-anchor="middle" x="303.5" y="-694.5" font-family="Helvetica,sans-Serif" font-size="10.00">PolyNode</text>
<polyline fill="none" stroke="black" points="220,-687.5 387,-687.5 "/>
<text text-anchor="middle" x="303.5" y="-675.5" font-family="Helvetica,sans-Serif" font-size="10.00"> </text>
<polyline fill="none" stroke="black" points="220,-668.5 387,-668.5 "/>
<text text-anchor="start" x="228" y="-656.5" font-family="Helvetica,sans-Serif" font-size="10.00">+ PolyNode()</text>
<text text-anchor="start" x="228" y="-645.5" font-family="Helvetica,sans-Serif" font-size="10.00">+ PolyNode()</text>
<text text-anchor="start" x="228" y="-634.5" font-family="Helvetica,sans-Serif" font-size="10.00">+ ~PolyNode()</text>
<text text-anchor="start" x="228" y="-623.5" font-family="Helvetica,sans-Serif" font-size="10.00">+ deleteRecursive()</text>
<text text-anchor="start" x="228" y="-612.5" font-family="Helvetica,sans-Serif" font-size="10.00">+ Up()</text>
<text text-anchor="start" x="228" y="-601.5" font-family="Helvetica,sans-Serif" font-size="10.00">+ Down()</text>
<text text-anchor="start" x="228" y="-590.5" font-family="Helvetica,sans-Serif" font-size="10.00">+ Next()</text>
<text text-anchor="start" x="228" y="-579.5" font-family="Helvetica,sans-Serif" font-size="10.00">+ Prev()</text>
<text text-anchor="start" x="228" y="-568.5" font-family="Helvetica,sans-Serif" font-size="10.00">+ IsLeaf()</text>
<text text-anchor="start" x="228" y="-557.5" font-family="Helvetica,sans-Serif" font-size="10.00">+ IsRoot()</text>
<text text-anchor="start" x="228" y="-546.5" font-family="Helvetica,sans-Serif" font-size="10.00">+ GetDegree()</text>
<text text-anchor="start" x="228" y="-535.5" font-family="Helvetica,sans-Serif" font-size="10.00">+ GetMaxDegree()</text>
<text text-anchor="start" x="228" y="-524.5" font-family="Helvetica,sans-Serif" font-size="10.00">+ ComputeDegree()</text>
<text text-anchor="start" x="228" y="-513.5" font-family="Helvetica,sans-Serif" font-size="10.00">+ CheckDegree()</text>
<text text-anchor="start" x="228" y="-502.5" font-family="Helvetica,sans-Serif" font-size="10.00">+ IsDichotomous()</text>
<text text-anchor="start" x="228" y="-491.5" font-family="Helvetica,sans-Serif" font-size="10.00">+ GetLeafSet()</text>
<text text-anchor="start" x="228" y="-480.5" font-family="Helvetica,sans-Serif" font-size="10.00">+ GetLabel()</text>
<text text-anchor="start" x="228" y="-469.5" font-family="Helvetica,sans-Serif" font-size="10.00">+ SetLabel()</text>
<text text-anchor="start" x="228" y="-458.5" font-family="Helvetica,sans-Serif" font-size="10.00">+ GetName()</text>
<text text-anchor="start" x="228" y="-447.5" font-family="Helvetica,sans-Serif" font-size="10.00">+ SetName()</text>
<text text-anchor="start" x="228" y="-436.5" font-family="Helvetica,sans-Serif" font-size="10.00">+ SetNames()</text>
<text text-anchor="start" x="228" y="-425.5" font-family="Helvetica,sans-Serif" font-size="10.00">+ GetBranchLength()</text>
<text text-anchor="start" x="228" y="-414.5" font-family="Helvetica,sans-Serif" font-size="10.00">+ SetBranchLength()</text>
<text text-anchor="start" x="228" y="-403.5" font-family="Helvetica,sans-Serif" font-size="10.00">+ GetProb()</text>
<text text-anchor="start" x="228" y="-392.5" font-family="Helvetica,sans-Serif" font-size="10.00">+ SetProb()</text>
<text text-anchor="start" x="228" y="-381.5" font-family="Helvetica,sans-Serif" font-size="10.00">+ SetTree()</text>
<text text-anchor="start" x="228" y="-370.5" font-family="Helvetica,sans-Serif" font-size="10.00">+ GetTree()</text>
<text text-anchor="start" x="228" y="-359.5" font-family="Helvetica,sans-Serif" font-size="10.00">+ Simplify()</text>
<text text-anchor="start" x="228" y="-348.5" font-family="Helvetica,sans-Serif" font-size="10.00">+ Detach()</text>
<text text-anchor="start" x="228" y="-337.5" font-family="Helvetica,sans-Serif" font-size="10.00">+ DetachRecursive()</text>
<text text-anchor="start" x="228" y="-326.5" font-family="Helvetica,sans-Serif" font-size="10.00">+ AttachTo()</text>
<text text-anchor="start" x="228" y="-315.5" font-family="Helvetica,sans-Serif" font-size="10.00">+ ComputeMinLeafLabel()</text>
<text text-anchor="start" x="228" y="-304.5" font-family="Helvetica,sans-Serif" font-size="10.00">+ DetachOld()</text>
<text text-anchor="start" x="228" y="-293.5" font-family="Helvetica,sans-Serif" font-size="10.00">+ Insert()</text>
<text text-anchor="start" x="228" y="-282.5" font-family="Helvetica,sans-Serif" font-size="10.00">+ RegisterWithData()</text>
<text text-anchor="start" x="228" y="-271.5" font-family="Helvetica,sans-Serif" font-size="10.00">+ Dichotomise()</text>
<text text-anchor="start" x="228" y="-260.5" font-family="Helvetica,sans-Serif" font-size="10.00">+ SetSuper()</text>
<text text-anchor="start" x="228" y="-249.5" font-family="Helvetica,sans-Serif" font-size="10.00">+ GetSize()</text>
<text text-anchor="start" x="228" y="-238.5" font-family="Helvetica,sans-Serif" font-size="10.00">+ GetDepth()</text>
<text text-anchor="start" x="228" y="-227.5" font-family="Helvetica,sans-Serif" font-size="10.00">+ GetMinDepth()</text>
<text text-anchor="start" x="228" y="-216.5" font-family="Helvetica,sans-Serif" font-size="10.00">+ GetLength()</text>
<text text-anchor="start" x="228" y="-205.5" font-family="Helvetica,sans-Serif" font-size="10.00">+ GetIntDepth()</text>
<text text-anchor="start" x="228" y="-194.5" font-family="Helvetica,sans-Serif" font-size="10.00">+ ComputeSizeAndDepth()</text>
<text text-anchor="start" x="228" y="-183.5" font-family="Helvetica,sans-Serif" font-size="10.00">+ SetFormalBranchLengths()</text>
<text text-anchor="start" x="228" y="-172.5" font-family="Helvetica,sans-Serif" font-size="10.00">+ GetSpeciesNames()</text>
<text text-anchor="start" x="228" y="-161.5" font-family="Helvetica,sans-Serif" font-size="10.00">+ GetSpeciesNames()</text>
<text text-anchor="start" x="228" y="-150.5" font-family="Helvetica,sans-Serif" font-size="10.00">+ FindNode()</text>
<text text-anchor="start" x="228" y="-139.5" font-family="Helvetica,sans-Serif" font-size="10.00">+ FindNodePruning()</text>
<text text-anchor="start" x="228" y="-128.5" font-family="Helvetica,sans-Serif" font-size="10.00">+ GetBipartition()</text>
<text text-anchor="start" x="228" y="-117.5" font-family="Helvetica,sans-Serif" font-size="10.00">+ BipartitionPruning()</text>
<text text-anchor="start" x="228" y="-106.5" font-family="Helvetica,sans-Serif" font-size="10.00">+ BipartitionPruningWithSupports()</text>
<text text-anchor="start" x="228" y="-95.5" font-family="Helvetica,sans-Serif" font-size="10.00">+ Analyse()</text>
<text text-anchor="start" x="228" y="-84.5" font-family="Helvetica,sans-Serif" font-size="10.00">+ Insert()</text>
<text text-anchor="start" x="228" y="-73.5" font-family="Helvetica,sans-Serif" font-size="10.00">+ FlipFlop()</text>
<text text-anchor="start" x="228" y="-62.5" font-family="Helvetica,sans-Serif" font-size="10.00">+ TranslateLabels()</text>
<text text-anchor="start" x="228" y="-51.5" font-family="Helvetica,sans-Serif" font-size="10.00">+ SortLeaves()</text>
<text text-anchor="start" x="228" y="-40.5" font-family="Helvetica,sans-Serif" font-size="10.00">+ SortLeavesAlphabetical()</text>
<text text-anchor="start" x="228" y="-29.5" font-family="Helvetica,sans-Serif" font-size="10.00">+ Phylip()</text>
<text text-anchor="start" x="228" y="-18.5" font-family="Helvetica,sans-Serif" font-size="10.00">+ ResetLabels()</text>
<text text-anchor="start" x="228" y="-7.5" font-family="Helvetica,sans-Serif" font-size="10.00">+ Swap()</text>
</a>
</g>
</g>
<!-- Node2&#45;&gt;Node7 -->
<g id="edge12" class="edge"><title>Node2&#45;&gt;Node7</title>
<path fill="none" stroke="#404040" d="M173.101,-1717.56C200.019,-1715.87 257.037,-1707.99 282.5,-1672 336.383,-1595.84 330.123,-1081.79 318.489,-718.827"/>
<polygon fill="none" stroke="#404040" points="318.488,-718.781 314.296,-712.914 318.1,-706.787 322.292,-712.655 318.488,-718.781"/>
<text text-anchor="middle" x="345" y="-1394" font-family="Helvetica,sans-Serif" font-size="10.00"> +value</text>
<text text-anchor="middle" x="345" y="-1383" font-family="Helvetica,sans-Serif" font-size="10.00">+label</text>
<text text-anchor="middle" x="345" y="-1372" font-family="Helvetica,sans-Serif" font-size="10.00">+intdepth</text>
<text text-anchor="middle" x="345" y="-1361" font-family="Helvetica,sans-Serif" font-size="10.00">+degree</text>
<text text-anchor="middle" x="345" y="-1350" font-family="Helvetica,sans-Serif" font-size="10.00">+size</text>
</g>
<!-- Node3&#45;&gt;Node1 -->
<g id="edge2" class="edge"><title>Node3&#45;&gt;Node1</title>
<path fill="none" stroke="#404040" d="M63.2608,-1420.46C57.5686,-1390.92 52.3653,-1358.88 49.5,-1329 19.0096,-1011.01 36.2161,-631.971 47.3475,-454.922"/>
<polygon fill="none" stroke="#404040" points="47.3578,-454.76 43.7476,-448.518 48.1211,-442.784 51.7314,-449.027 47.3578,-454.76"/>
<text text-anchor="middle" x="72.5" y="-1066.5" font-family="Helvetica,sans-Serif" font-size="10.00"> +mParam</text>
</g>
<!-- Node3&#45;&gt;Node6 -->
<g id="edge15" class="edge"><title>Node3&#45;&gt;Node6</title>
<path fill="none" stroke="#404040" d="M106.532,-1420.27C110.649,-1396.1 115.11,-1370.67 119.5,-1347 119.885,-1344.93 120.272,-1342.85 120.662,-1340.76"/>
<polygon fill="none" stroke="#404040" points="120.708,-1340.51 117.885,-1333.88 122.924,-1328.72 125.747,-1335.35 120.708,-1340.51"/>
<text text-anchor="middle" x="142.5" y="-1372" font-family="Helvetica,sans-Serif" font-size="10.00"> +mParam</text>
</g>
<!-- Node4 -->
<g id="node4" class="node"><title>Node4</title>
<polygon fill="none" stroke="#bfbfbf" points="339,-1690.5 339,-1747.5 380,-1747.5 380,-1690.5 339,-1690.5"/>
<text text-anchor="middle" x="359.5" y="-1735.5" font-family="Helvetica,sans-Serif" font-size="10.00">string</text>
<polyline fill="none" stroke="#bfbfbf" points="339,-1728.5 380,-1728.5 "/>
<text text-anchor="middle" x="359.5" y="-1716.5" font-family="Helvetica,sans-Serif" font-size="10.00"> </text>
<polyline fill="none" stroke="#bfbfbf" points="339,-1709.5 380,-1709.5 "/>
<text text-anchor="middle" x="359.5" y="-1697.5" font-family="Helvetica,sans-Serif" font-size="10.00"> </text>
</g>
<!-- Node4&#45;&gt;Node3 -->
<g id="edge3" class="edge"><title>Node4&#45;&gt;Node3</title>
<path fill="none" stroke="#404040" d="M338.987,-1714.9C299.852,-1708.08 213.455,-1688.63 157.5,-1643 155.66,-1641.5 153.854,-1639.94 152.083,-1638.32"/>
<polygon fill="none" stroke="#404040" points="152.031,-1638.26 144.956,-1636.87 143.525,-1629.8 150.6,-1631.2 152.031,-1638.26"/>
<text text-anchor="middle" x="240.5" y="-1664" font-family="Helvetica,sans-Serif" font-size="10.00"> +SpeciesNames</text>
</g>
<!-- Node4&#45;&gt;Node6 -->
<g id="edge7" class="edge"><title>Node4&#45;&gt;Node6</title>
<path fill="none" stroke="#404040" d="M363.147,-1690.22C370.393,-1627.42 382.866,-1470.38 345.5,-1347 326.18,-1283.21 288.494,-1219.31 253.505,-1168.99"/>
<polygon fill="none" stroke="#404040" points="253.458,-1168.92 246.733,-1166.32 246.549,-1159.11 253.274,-1161.71 253.458,-1168.92"/>
<text text-anchor="middle" x="389.5" y="-1529" font-family="Helvetica,sans-Serif" font-size="10.00"> +Name</text>
</g>
<!-- Node4&#45;&gt;Node7 -->
<g id="edge10" class="edge"><title>Node4&#45;&gt;Node7</title>
<path fill="none" stroke="#404040" d="M380.147,-1694.88C391.195,-1680.92 403.695,-1662.17 409.5,-1643 438.221,-1548.14 414.412,-1518.99 409.5,-1420 397.893,-1186.08 372.036,-924.329 348.767,-718.802"/>
<polygon fill="none" stroke="#404040" points="348.734,-718.51 344.083,-713 347.38,-706.587 352.032,-712.097 348.734,-718.51"/>
<text text-anchor="middle" x="425.5" y="-1372" font-family="Helvetica,sans-Serif" font-size="10.00"> +name</text>
</g>
<!-- Node5 -->
<g id="node5" class="node"><title>Node5</title>
<polygon fill="none" stroke="#bfbfbf" points="15,-1690.5 15,-1747.5 104,-1747.5 104,-1690.5 15,-1690.5"/>
<text text-anchor="middle" x="59.5" y="-1735.5" font-family="Helvetica,sans-Serif" font-size="10.00">MCParameters *</text>
<polyline fill="none" stroke="#bfbfbf" points="15,-1728.5 104,-1728.5 "/>
<text text-anchor="middle" x="59.5" y="-1716.5" font-family="Helvetica,sans-Serif" font-size="10.00"> </text>
<polyline fill="none" stroke="#bfbfbf" points="15,-1709.5 104,-1709.5 "/>
<text text-anchor="middle" x="59.5" y="-1697.5" font-family="Helvetica,sans-Serif" font-size="10.00"> </text>
</g>
<!-- Node5&#45;&gt;Node3 -->
<g id="edge5" class="edge"><title>Node5&#45;&gt;Node3</title>
<path fill="none" stroke="#404040" d="M58.8917,-1690.38C58.9757,-1681.03 59.3884,-1670.54 60.5,-1661 60.7408,-1658.93 61,-1656.85 61.2758,-1654.76"/>
<polygon fill="none" stroke="#404040" points="61.3074,-1654.54 58.2085,-1648.03 63.0271,-1642.66 66.1259,-1649.18 61.3074,-1654.54"/>
<text text-anchor="middle" x="83.5" y="-1664" font-family="Helvetica,sans-Serif" font-size="10.00"> +mParam</text>
</g>
<!-- Node6&#45;&gt;Node1 -->
<g id="edge6" class="edge"><title>Node6&#45;&gt;Node1</title>
<path fill="none" stroke="#404040" d="M104.499,-859.435C98.3486,-836.526 92.8307,-813.394 88.5,-791 66.4804,-677.137 58.6308,-543.95 55.8823,-454.917"/>
<polygon fill="none" stroke="#404040" points="55.8746,-454.649 51.7026,-448.767 55.5273,-442.654 59.6993,-448.535 55.8746,-454.649"/>
<text text-anchor="middle" x="119" y="-755.5" font-family="Helvetica,sans-Serif" font-size="10.00"> +mTreeArray</text>
</g>
<!-- Node6&#45;&gt;Node7 -->
<g id="edge13" class="edge"><title>Node6&#45;&gt;Node7</title>
<path fill="none" stroke="#404040" d="M170.818,-809.236C172.809,-780.699 175.906,-752.158 180.5,-725 188.54,-677.464 201.609,-627.738 216.292,-580.711"/>
<polygon fill="none" stroke="#404040" points="216.334,-580.577 214.331,-573.649 219.955,-569.136 221.958,-576.063 216.334,-580.577"/>
<text text-anchor="middle" x="199" y="-755.5" font-family="Helvetica,sans-Serif" font-size="10.00"> +mTree</text>
</g>
<!-- Node7&#45;&gt;Node6 -->
<g id="edge8" class="edge"><title>Node7&#45;&gt;Node6</title>
<path fill="none" stroke="#404040" d="M235.745,-706.963C234.649,-713.02 233.567,-719.037 232.5,-725 228.298,-748.49 224.035,-772.905 219.829,-797.398"/>
<polygon fill="none" stroke="#404040" points="219.795,-797.597 222.725,-804.186 217.77,-809.424 214.84,-802.835 219.795,-797.597"/>
<text text-anchor="middle" x="261" y="-761" font-family="Helvetica,sans-Serif" font-size="10.00"> +mNodeList</text>
<text text-anchor="middle" x="261" y="-750" font-family="Helvetica,sans-Serif" font-size="10.00">+mRoot</text>
</g>
<!-- Node7&#45;&gt;Node7 -->
<g id="edge11" class="edge"><title>Node7&#45;&gt;Node7</title>
<path fill="none" stroke="#404040" d="M387.12,-419.888C397.887,-408.375 405,-386.246 405,-353.5 405,-328.429 400.831,-309.581 394.044,-296.957"/>
<polygon fill="none" stroke="#404040" points="394.024,-296.928 387.3,-294.321 387.12,-287.112 393.844,-289.719 394.024,-296.928"/>
<text text-anchor="middle" x="420" y="-367.5" font-family="Helvetica,sans-Serif" font-size="10.00"> +up</text>
<text text-anchor="middle" x="420" y="-356.5" font-family="Helvetica,sans-Serif" font-size="10.00">+prev</text>
<text text-anchor="middle" x="420" y="-345.5" font-family="Helvetica,sans-Serif" font-size="10.00">+down</text>
<text text-anchor="middle" x="420" y="-334.5" font-family="Helvetica,sans-Serif" font-size="10.00">+next</text>
</g>
<!-- Node8 -->
<g id="node8" class="node"><title>Node8</title>
<polygon fill="none" stroke="#bfbfbf" points="452,-1040.5 452,-1097.5 497,-1097.5 497,-1040.5 452,-1040.5"/>
<text text-anchor="middle" x="474.5" y="-1085.5" font-family="Helvetica,sans-Serif" font-size="10.00">double</text>
<polyline fill="none" stroke="#bfbfbf" points="452,-1078.5 497,-1078.5 "/>
<text text-anchor="middle" x="474.5" y="-1066.5" font-family="Helvetica,sans-Serif" font-size="10.00"> </text>
<polyline fill="none" stroke="#bfbfbf" points="452,-1059.5 497,-1059.5 "/>
<text text-anchor="middle" x="474.5" y="-1047.5" font-family="Helvetica,sans-Serif" font-size="10.00"> </text>
</g>
<!-- Node8&#45;&gt;Node7 -->
<g id="edge9" class="edge"><title>Node8&#45;&gt;Node7</title>
<path fill="none" stroke="#404040" d="M473.746,-1040.06C471.664,-981.106 464.083,-839.958 437.5,-725 425.645,-673.731 408.813,-619.817 391.067,-569.477"/>
<polygon fill="none" stroke="#404040" points="391.049,-569.426 385.269,-565.113 387.027,-558.12 392.807,-562.432 391.049,-569.426"/>
<text text-anchor="middle" x="482" y="-783" font-family="Helvetica,sans-Serif" font-size="10.00"> +mProb</text>
<text text-anchor="middle" x="482" y="-772" font-family="Helvetica,sans-Serif" font-size="10.00">+Y2</text>
<text text-anchor="middle" x="482" y="-761" font-family="Helvetica,sans-Serif" font-size="10.00">+depth</text>
<text text-anchor="middle" x="482" y="-750" font-family="Helvetica,sans-Serif" font-size="10.00">+X</text>
<text text-anchor="middle" x="482" y="-739" font-family="Helvetica,sans-Serif" font-size="10.00">+Y</text>
<text text-anchor="middle" x="482" y="-728" font-family="Helvetica,sans-Serif" font-size="10.00">+branchLength</text>
</g>
</g>
</svg>
