<?xml version="1.0" encoding="UTF-8" standalone="no"?>
<!DOCTYPE svg PUBLIC "-//W3C//DTD SVG 1.1//EN"
 "http://www.w3.org/Graphics/SVG/1.1/DTD/svg11.dtd">
<!-- Generated by graphviz version 2.38.0 (20140413.2041)
 -->
<!-- Title: NodeBranchProcess&lt; U, V &gt; Pages: 1 -->
<svg width="208pt" height="248pt"
 viewBox="0.00 0.00 207.50 248.00" xmlns="http://www.w3.org/2000/svg" xmlns:xlink="http://www.w3.org/1999/xlink">
<g id="graph0" class="graph" transform="scale(1 1) rotate(0) translate(4 244)">
<title>NodeBranchProcess&lt; U, V &gt;</title>
<!-- Node5 -->
<g id="node1" class="node"><title>Node5</title>
<polygon fill="#bfbfbf" stroke="black" points="21.5,-0.5 21.5,-134.5 134.5,-134.5 134.5,-0.5 21.5,-0.5"/>
<text text-anchor="start" x="29.5" y="-122.5" font-family="Helvetica,sans-Serif" font-size="10.00">NodeBranchProcess&lt;</text>
<text text-anchor="middle" x="78" y="-111.5" font-family="Helvetica,sans-Serif" font-size="10.00"> U, V &gt;</text>
<polyline fill="none" stroke="black" points="21.5,-104.5 134.5,-104.5 "/>
<text text-anchor="middle" x="78" y="-92.5" font-family="Helvetica,sans-Serif" font-size="10.00"> </text>
<polyline fill="none" stroke="black" points="21.5,-85.5 134.5,-85.5 "/>
<text text-anchor="start" x="29.5" y="-73.5" font-family="Helvetica,sans-Serif" font-size="10.00">+ val()</text>
<text text-anchor="start" x="29.5" y="-62.5" font-family="Helvetica,sans-Serif" font-size="10.00">+ setval()</text>
<text text-anchor="start" x="29.5" y="-51.5" font-family="Helvetica,sans-Serif" font-size="10.00">+ val()</text>
<text text-anchor="start" x="29.5" y="-40.5" font-family="Helvetica,sans-Serif" font-size="10.00">+ setval()</text>
<text text-anchor="start" x="29.5" y="-29.5" font-family="Helvetica,sans-Serif" font-size="10.00">+ drawSample()</text>
<text text-anchor="start" x="29.5" y="-18.5" font-family="Helvetica,sans-Serif" font-size="10.00">+ GetLogProb()</text>
<text text-anchor="start" x="29.5" y="-7.5" font-family="Helvetica,sans-Serif" font-size="10.00">+ GetLogProb()</text>
</g>
<!-- Node6 -->
<g id="node2" class="node"><title>Node6</title>
<polygon fill="none" stroke="#bfbfbf" points="0,-177 0,-234 48,-234 48,-177 0,-177"/>
<text text-anchor="middle" x="24" y="-222" font-family="Helvetica,sans-Serif" font-size="10.00">MCMC</text>
<polyline fill="none" stroke="#bfbfbf" points="0,-215 48,-215 "/>
<text text-anchor="middle" x="24" y="-203" font-family="Helvetica,sans-Serif" font-size="10.00"> </text>
<polyline fill="none" stroke="#bfbfbf" points="0,-196 48,-196 "/>
<text text-anchor="middle" x="24" y="-184" font-family="Helvetica,sans-Serif" font-size="10.00"> </text>
</g>
<!-- Node6&#45;&gt;Node5 -->
<g id="edge1" class="edge"><title>Node6&#45;&gt;Node5</title>
<path fill="none" stroke="midnightblue" d="M38.6423,-167.623C42.6841,-157.444 47.197,-146.078 51.6847,-134.776"/>
<polygon fill="none" stroke="midnightblue" points="35.3651,-166.393 34.9277,-176.978 41.8711,-168.976 35.3651,-166.393"/>
</g>
<!-- Node7 -->
<g id="node3" class="node"><title>Node7</title>
<polygon fill="none" stroke="#bfbfbf" points="66.5,-171.5 66.5,-239.5 199.5,-239.5 199.5,-171.5 66.5,-171.5"/>
<text text-anchor="start" x="74.5" y="-227.5" font-family="Helvetica,sans-Serif" font-size="10.00">NodeBranchValPtrTree</text>
<text text-anchor="middle" x="133" y="-216.5" font-family="Helvetica,sans-Serif" font-size="10.00">&lt; Rvar&lt; U &gt;, Dvar&lt; V &gt; &gt;</text>
<polyline fill="none" stroke="#bfbfbf" points="66.5,-209.5 199.5,-209.5 "/>
<text text-anchor="middle" x="133" y="-197.5" font-family="Helvetica,sans-Serif" font-size="10.00"> </text>
<polyline fill="none" stroke="#bfbfbf" points="66.5,-190.5 199.5,-190.5 "/>
<text text-anchor="middle" x="133" y="-178.5" font-family="Helvetica,sans-Serif" font-size="10.00"> </text>
</g>
<!-- Node7&#45;&gt;Node5 -->
<g id="edge2" class="edge"><title>Node7&#45;&gt;Node5</title>
<path fill="none" stroke="midnightblue" d="M115.729,-161.793C112.239,-153.164 108.493,-143.901 104.765,-134.683"/>
<polygon fill="none" stroke="midnightblue" points="112.552,-163.272 119.545,-171.231 119.041,-160.648 112.552,-163.272"/>
</g>
</g>
</svg>
