<?xml version="1.0" encoding="UTF-8" standalone="no"?>
<!DOCTYPE svg PUBLIC "-//W3C//DTD SVG 1.1//EN"
 "http://www.w3.org/Graphics/SVG/1.1/DTD/svg11.dtd">
<!-- Generated by graphviz version 2.38.0 (20140413.2041)
 -->
<!-- Title: RNAStateSpace Pages: 1 -->
<svg width="273pt" height="376pt"
 viewBox="0.00 0.00 272.50 376.00" xmlns="http://www.w3.org/2000/svg" xmlns:xlink="http://www.w3.org/1999/xlink">
<g id="graph0" class="graph" transform="scale(1 1) rotate(0) translate(4 372)">
<title>RNAStateSpace</title>
<!-- Node3 -->
<g id="node1" class="node"><title>Node3</title>
<polygon fill="#bfbfbf" stroke="black" points="66.5,-0.5 66.5,-68.5 176.5,-68.5 176.5,-0.5 66.5,-0.5"/>
<text text-anchor="middle" x="121.5" y="-56.5" font-family="Helvetica,sans-Serif" font-size="10.00">RNAStateSpace</text>
<polyline fill="none" stroke="black" points="66.5,-49.5 176.5,-49.5 "/>
<text text-anchor="middle" x="121.5" y="-37.5" font-family="Helvetica,sans-Serif" font-size="10.00"> </text>
<polyline fill="none" stroke="black" points="66.5,-30.5 176.5,-30.5 "/>
<text text-anchor="start" x="74.5" y="-18.5" font-family="Helvetica,sans-Serif" font-size="10.00">+ RNAStateSpace()</text>
<text text-anchor="start" x="74.5" y="-7.5" font-family="Helvetica,sans-Serif" font-size="10.00">+ ~RNAStateSpace()</text>
</g>
<!-- Node4 -->
<g id="node2" class="node"><title>Node4</title>
<g id="a_node2"><a xlink:href="classSimpleStateSpace.html" target="_top" xlink:title="{SimpleStateSpace\n||+ SimpleStateSpace()\l+ SimpleStateSpace()\l+ GetState()\l+ GetNstate()\l+ GetState()\l+ GetCharState()\l}">
<polygon fill="none" stroke="black" points="65,-106.5 65,-218.5 178,-218.5 178,-106.5 65,-106.5"/>
<text text-anchor="middle" x="121.5" y="-206.5" font-family="Helvetica,sans-Serif" font-size="10.00">SimpleStateSpace</text>
<polyline fill="none" stroke="black" points="65,-199.5 178,-199.5 "/>
<text text-anchor="middle" x="121.5" y="-187.5" font-family="Helvetica,sans-Serif" font-size="10.00"> </text>
<polyline fill="none" stroke="black" points="65,-180.5 178,-180.5 "/>
<text text-anchor="start" x="73" y="-168.5" font-family="Helvetica,sans-Serif" font-size="10.00">+ SimpleStateSpace()</text>
<text text-anchor="start" x="73" y="-157.5" font-family="Helvetica,sans-Serif" font-size="10.00">+ SimpleStateSpace()</text>
<text text-anchor="start" x="73" y="-146.5" font-family="Helvetica,sans-Serif" font-size="10.00">+ GetState()</text>
<text text-anchor="start" x="73" y="-135.5" font-family="Helvetica,sans-Serif" font-size="10.00">+ GetNstate()</text>
<text text-anchor="start" x="73" y="-124.5" font-family="Helvetica,sans-Serif" font-size="10.00">+ GetState()</text>
<text text-anchor="start" x="73" y="-113.5" font-family="Helvetica,sans-Serif" font-size="10.00">+ GetCharState()</text>
</a>
</g>
</g>
<!-- Node4&#45;&gt;Node3 -->
<g id="edge1" class="edge"><title>Node4&#45;&gt;Node3</title>
<path fill="none" stroke="midnightblue" d="M121.5,-95.9612C121.5,-86.4839 121.5,-77.0833 121.5,-68.6192"/>
<polygon fill="none" stroke="midnightblue" points="118,-96.2345 121.5,-106.235 125,-96.2346 118,-96.2345"/>
</g>
<!-- Node5 -->
<g id="node3" class="node"><title>Node5</title>
<g id="a_node3"><a xlink:href="classStateSpace.html" target="_top" xlink:title="{StateSpace\n||+ ~StateSpace()\l+ GetState()\l+ GetNstate()\l+ GetState()\l}">
<polygon fill="none" stroke="black" points="0,-277.5 0,-367.5 89,-367.5 89,-277.5 0,-277.5"/>
<text text-anchor="middle" x="44.5" y="-355.5" font-family="Helvetica,sans-Serif" font-size="10.00">StateSpace</text>
<polyline fill="none" stroke="black" points="0,-348.5 89,-348.5 "/>
<text text-anchor="middle" x="44.5" y="-336.5" font-family="Helvetica,sans-Serif" font-size="10.00"> </text>
<polyline fill="none" stroke="black" points="0,-329.5 89,-329.5 "/>
<text text-anchor="start" x="8" y="-317.5" font-family="Helvetica,sans-Serif" font-size="10.00">+ ~StateSpace()</text>
<text text-anchor="start" x="8" y="-306.5" font-family="Helvetica,sans-Serif" font-size="10.00">+ GetState()</text>
<text text-anchor="start" x="8" y="-295.5" font-family="Helvetica,sans-Serif" font-size="10.00">+ GetNstate()</text>
<text text-anchor="start" x="8" y="-284.5" font-family="Helvetica,sans-Serif" font-size="10.00">+ GetState()</text>
</a>
</g>
</g>
<!-- Node5&#45;&gt;Node4 -->
<g id="edge2" class="edge"><title>Node5&#45;&gt;Node4</title>
<path fill="none" stroke="midnightblue" d="M70.441,-268.27C78.2412,-252.265 86.8139,-234.674 94.6705,-218.553"/>
<polygon fill="none" stroke="midnightblue" points="67.1835,-266.966 65.9488,-277.488 73.476,-270.032 67.1835,-266.966"/>
</g>
<!-- Node6 -->
<g id="node4" class="node"><title>Node6</title>
<polygon fill="none" stroke="#bfbfbf" points="107,-294 107,-351 136,-351 136,-294 107,-294"/>
<text text-anchor="middle" x="121.5" y="-339" font-family="Helvetica,sans-Serif" font-size="10.00">int</text>
<polyline fill="none" stroke="#bfbfbf" points="107,-332 136,-332 "/>
<text text-anchor="middle" x="121.5" y="-320" font-family="Helvetica,sans-Serif" font-size="10.00"> </text>
<polyline fill="none" stroke="#bfbfbf" points="107,-313 136,-313 "/>
<text text-anchor="middle" x="121.5" y="-301" font-family="Helvetica,sans-Serif" font-size="10.00"> </text>
</g>
<!-- Node6&#45;&gt;Node4 -->
<g id="edge3" class="edge"><title>Node6&#45;&gt;Node4</title>
<path fill="none" stroke="#404040" d="M121.5,-293.979C121.5,-276.448 121.5,-252.926 121.5,-230.684"/>
<polygon fill="none" stroke="#404040" points="121.5,-230.504 117.5,-224.504 121.5,-218.504 125.5,-224.504 121.5,-230.504"/>
<text text-anchor="middle" x="156.5" y="-251" font-family="Helvetica,sans-Serif" font-size="10.00"> #NAlphabetSet</text>
<text text-anchor="middle" x="156.5" y="-240" font-family="Helvetica,sans-Serif" font-size="10.00">#Nstate</text>
</g>
<!-- Node7 -->
<g id="node5" class="node"><title>Node7</title>
<polygon fill="none" stroke="#bfbfbf" points="193.5,-294 193.5,-351 235.5,-351 235.5,-294 193.5,-294"/>
<text text-anchor="middle" x="214.5" y="-339" font-family="Helvetica,sans-Serif" font-size="10.00">char *</text>
<polyline fill="none" stroke="#bfbfbf" points="193.5,-332 235.5,-332 "/>
<text text-anchor="middle" x="214.5" y="-320" font-family="Helvetica,sans-Serif" font-size="10.00"> </text>
<polyline fill="none" stroke="#bfbfbf" points="193.5,-313 235.5,-313 "/>
<text text-anchor="middle" x="214.5" y="-301" font-family="Helvetica,sans-Serif" font-size="10.00"> </text>
</g>
<!-- Node7&#45;&gt;Node4 -->
<g id="edge4" class="edge"><title>Node7&#45;&gt;Node4</title>
<path fill="none" stroke="#404040" d="M210.978,-293.901C207.92,-276.703 202.367,-254.582 192.5,-237 190.332,-233.137 187.912,-229.328 185.308,-225.6"/>
<polygon fill="none" stroke="#404040" points="185.253,-225.527 178.45,-223.136 178.039,-215.937 184.843,-218.327 185.253,-225.527"/>
<text text-anchor="middle" x="233.5" y="-251" font-family="Helvetica,sans-Serif" font-size="10.00"> #AlphabetSet</text>
<text text-anchor="middle" x="233.5" y="-240" font-family="Helvetica,sans-Serif" font-size="10.00">#Alphabet</text>
</g>
</g>
</svg>
