<?xml version="1.0" encoding="UTF-8" standalone="no"?>
<!DOCTYPE svg PUBLIC "-//W3C//DTD SVG 1.1//EN"
 "http://www.w3.org/Graphics/SVG/1.1/DTD/svg11.dtd">
<!-- Generated by graphviz version 2.38.0 (20140413.2041)
 -->
<!-- Title: PoissonGeneProfileProcess Pages: 1 -->
<svg width="395pt" height="1074pt"
 viewBox="0.00 0.00 394.50 1074.00" xmlns="http://www.w3.org/2000/svg" xmlns:xlink="http://www.w3.org/1999/xlink">
<g id="graph0" class="graph" transform="scale(1 1) rotate(0) translate(4 1070)">
<title>PoissonGeneProfileProcess</title>
<!-- Node6 -->
<g id="node1" class="node"><title>Node6</title>
<polygon fill="#bfbfbf" stroke="black" points="91.5,-0.5 91.5,-90.5 251.5,-90.5 251.5,-0.5 91.5,-0.5"/>
<text text-anchor="middle" x="171.5" y="-78.5" font-family="Helvetica,sans-Serif" font-size="10.00">PoissonGeneProfileProcess</text>
<polyline fill="none" stroke="black" points="91.5,-71.5 251.5,-71.5 "/>
<text text-anchor="middle" x="171.5" y="-59.5" font-family="Helvetica,sans-Serif" font-size="10.00"> </text>
<polyline fill="none" stroke="black" points="91.5,-52.5 251.5,-52.5 "/>
<text text-anchor="start" x="99.5" y="-40.5" font-family="Helvetica,sans-Serif" font-size="10.00">+ PoissonGeneProfileProcess()</text>
<text text-anchor="start" x="99.5" y="-29.5" font-family="Helvetica,sans-Serif" font-size="10.00">+ ~PoissonGeneProfileProcess()</text>
<text text-anchor="start" x="99.5" y="-18.5" font-family="Helvetica,sans-Serif" font-size="10.00"># Create()</text>
<text text-anchor="start" x="99.5" y="-7.5" font-family="Helvetica,sans-Serif" font-size="10.00"># Delete()</text>
</g>
<!-- Node7 -->
<g id="node2" class="node"><title>Node7</title>
<g id="a_node2"><a xlink:href="classPoissonProfileProcess.html" target="_top" xlink:title="{PoissonProfileProcess\n||+ PoissonProfileProcess()\l+ ~PoissonProfileProcess()\l# UpdateZip()\l# GetSiteProfileSuffStatCount()\l}">
<polygon fill="none" stroke="black" points="167.5,-193.5 167.5,-283.5 321.5,-283.5 321.5,-193.5 167.5,-193.5"/>
<text text-anchor="middle" x="244.5" y="-271.5" font-family="Helvetica,sans-Serif" font-size="10.00">PoissonProfileProcess</text>
<polyline fill="none" stroke="black" points="167.5,-264.5 321.5,-264.5 "/>
<text text-anchor="middle" x="244.5" y="-252.5" font-family="Helvetica,sans-Serif" font-size="10.00"> </text>
<polyline fill="none" stroke="black" points="167.5,-245.5 321.5,-245.5 "/>
<text text-anchor="start" x="175.5" y="-233.5" font-family="Helvetica,sans-Serif" font-size="10.00">+ PoissonProfileProcess()</text>
<text text-anchor="start" x="175.5" y="-222.5" font-family="Helvetica,sans-Serif" font-size="10.00">+ ~PoissonProfileProcess()</text>
<text text-anchor="start" x="175.5" y="-211.5" font-family="Helvetica,sans-Serif" font-size="10.00"># UpdateZip()</text>
<text text-anchor="start" x="175.5" y="-200.5" font-family="Helvetica,sans-Serif" font-size="10.00"># GetSiteProfileSuffStatCount()</text>
</a>
</g>
</g>
<!-- Node7&#45;&gt;Node6 -->
<g id="edge1" class="edge"><title>Node7&#45;&gt;Node6</title>
<path fill="none" stroke="midnightblue" d="M246.207,-183.161C245.059,-159.449 241.071,-131.895 230.5,-109 227.56,-102.633 223.711,-96.4968 219.386,-90.7218"/>
<polygon fill="none" stroke="midnightblue" points="242.717,-183.528 246.542,-193.408 249.713,-183.299 242.717,-183.528"/>
</g>
<!-- Node7&#45;&gt;Node6 -->
<g id="edge11" class="edge"><title>Node7&#45;&gt;Node6</title>
<path fill="none" stroke="#404040" d="M207.328,-193.393C192.131,-172.538 176.307,-146.446 168.5,-120 166.868,-114.473 165.905,-108.611 165.425,-102.703"/>
<polygon fill="none" stroke="#404040" points="165.422,-102.601 161.243,-96.7241 165.06,-90.6061 169.239,-96.4827 165.422,-102.601"/>
<text text-anchor="middle" x="197.5" y="-112" font-family="Helvetica,sans-Serif" font-size="10.00"> #poissonhub</text>
</g>
<!-- Node8 -->
<g id="node3" class="node"><title>Node8</title>
<g id="a_node3"><a xlink:href="classProfileProcess.html" target="_top" xlink:title="{ProfileProcess\n||+ ProfileProcess()\l+ ~ProfileProcess()\l+ GetVersion()\l+ GetStatInfCount()\l+ GetDim()\l+ GetNsite()\l+ GetProfile()\l+ GetStateSpace()\l+ LogProfilePrior()\l+ SampleProfile()\l+ GetMeanStationaryEntropy()\l+ GetSiteStationaryEntropy()\l+ UpdateSiteProfileSuffStat()\l+ GlobalUpdateSiteProfileSuffStat()\l+ SlaveUpdateSiteProfileSuffStat()\l+ GlobalUpdateParameters()\l+ SlaveUpdateParameters()\l+ ProfileSuffStatLogProb()\l+ ToStream()\l+ FromStream()\l+ SetBurnin()\l+ isObserved()\l+ GetMinStat()\l+ GetMinMinStat()\l# DrawProfileFromPrior()\l# GetNormalizationFactor()\l# Create()\l# Delete()\l# GetNprocs()\l# GetMyid()\l# GetSiteMin()\l# GetSiteMax()\l# GetEmpiricalFreq()\l# GetMinTotWeight()\l# SetMinTotWeight()\l}">
<polygon fill="none" stroke="black" points="101.5,-386.5 101.5,-817.5 273.5,-817.5 273.5,-386.5 101.5,-386.5"/>
<text text-anchor="middle" x="187.5" y="-805.5" font-family="Helvetica,sans-Serif" font-size="10.00">ProfileProcess</text>
<polyline fill="none" stroke="black" points="101.5,-798.5 273.5,-798.5 "/>
<text text-anchor="middle" x="187.5" y="-786.5" font-family="Helvetica,sans-Serif" font-size="10.00"> </text>
<polyline fill="none" stroke="black" points="101.5,-779.5 273.5,-779.5 "/>
<text text-anchor="start" x="109.5" y="-767.5" font-family="Helvetica,sans-Serif" font-size="10.00">+ ProfileProcess()</text>
<text text-anchor="start" x="109.5" y="-756.5" font-family="Helvetica,sans-Serif" font-size="10.00">+ ~ProfileProcess()</text>
<text text-anchor="start" x="109.5" y="-745.5" font-family="Helvetica,sans-Serif" font-size="10.00">+ GetVersion()</text>
<text text-anchor="start" x="109.5" y="-734.5" font-family="Helvetica,sans-Serif" font-size="10.00">+ GetStatInfCount()</text>
<text text-anchor="start" x="109.5" y="-723.5" font-family="Helvetica,sans-Serif" font-size="10.00">+ GetDim()</text>
<text text-anchor="start" x="109.5" y="-712.5" font-family="Helvetica,sans-Serif" font-size="10.00">+ GetNsite()</text>
<text text-anchor="start" x="109.5" y="-701.5" font-family="Helvetica,sans-Serif" font-size="10.00">+ GetProfile()</text>
<text text-anchor="start" x="109.5" y="-690.5" font-family="Helvetica,sans-Serif" font-size="10.00">+ GetStateSpace()</text>
<text text-anchor="start" x="109.5" y="-679.5" font-family="Helvetica,sans-Serif" font-size="10.00">+ LogProfilePrior()</text>
<text text-anchor="start" x="109.5" y="-668.5" font-family="Helvetica,sans-Serif" font-size="10.00">+ SampleProfile()</text>
<text text-anchor="start" x="109.5" y="-657.5" font-family="Helvetica,sans-Serif" font-size="10.00">+ GetMeanStationaryEntropy()</text>
<text text-anchor="start" x="109.5" y="-646.5" font-family="Helvetica,sans-Serif" font-size="10.00">+ GetSiteStationaryEntropy()</text>
<text text-anchor="start" x="109.5" y="-635.5" font-family="Helvetica,sans-Serif" font-size="10.00">+ UpdateSiteProfileSuffStat()</text>
<text text-anchor="start" x="109.5" y="-624.5" font-family="Helvetica,sans-Serif" font-size="10.00">+ GlobalUpdateSiteProfileSuffStat()</text>
<text text-anchor="start" x="109.5" y="-613.5" font-family="Helvetica,sans-Serif" font-size="10.00">+ SlaveUpdateSiteProfileSuffStat()</text>
<text text-anchor="start" x="109.5" y="-602.5" font-family="Helvetica,sans-Serif" font-size="10.00">+ GlobalUpdateParameters()</text>
<text text-anchor="start" x="109.5" y="-591.5" font-family="Helvetica,sans-Serif" font-size="10.00">+ SlaveUpdateParameters()</text>
<text text-anchor="start" x="109.5" y="-580.5" font-family="Helvetica,sans-Serif" font-size="10.00">+ ProfileSuffStatLogProb()</text>
<text text-anchor="start" x="109.5" y="-569.5" font-family="Helvetica,sans-Serif" font-size="10.00">+ ToStream()</text>
<text text-anchor="start" x="109.5" y="-558.5" font-family="Helvetica,sans-Serif" font-size="10.00">+ FromStream()</text>
<text text-anchor="start" x="109.5" y="-547.5" font-family="Helvetica,sans-Serif" font-size="10.00">+ SetBurnin()</text>
<text text-anchor="start" x="109.5" y="-536.5" font-family="Helvetica,sans-Serif" font-size="10.00">+ isObserved()</text>
<text text-anchor="start" x="109.5" y="-525.5" font-family="Helvetica,sans-Serif" font-size="10.00">+ GetMinStat()</text>
<text text-anchor="start" x="109.5" y="-514.5" font-family="Helvetica,sans-Serif" font-size="10.00">+ GetMinMinStat()</text>
<text text-anchor="start" x="109.5" y="-503.5" font-family="Helvetica,sans-Serif" font-size="10.00"># DrawProfileFromPrior()</text>
<text text-anchor="start" x="109.5" y="-492.5" font-family="Helvetica,sans-Serif" font-size="10.00"># GetNormalizationFactor()</text>
<text text-anchor="start" x="109.5" y="-481.5" font-family="Helvetica,sans-Serif" font-size="10.00"># Create()</text>
<text text-anchor="start" x="109.5" y="-470.5" font-family="Helvetica,sans-Serif" font-size="10.00"># Delete()</text>
<text text-anchor="start" x="109.5" y="-459.5" font-family="Helvetica,sans-Serif" font-size="10.00"># GetNprocs()</text>
<text text-anchor="start" x="109.5" y="-448.5" font-family="Helvetica,sans-Serif" font-size="10.00"># GetMyid()</text>
<text text-anchor="start" x="109.5" y="-437.5" font-family="Helvetica,sans-Serif" font-size="10.00"># GetSiteMin()</text>
<text text-anchor="start" x="109.5" y="-426.5" font-family="Helvetica,sans-Serif" font-size="10.00"># GetSiteMax()</text>
<text text-anchor="start" x="109.5" y="-415.5" font-family="Helvetica,sans-Serif" font-size="10.00"># GetEmpiricalFreq()</text>
<text text-anchor="start" x="109.5" y="-404.5" font-family="Helvetica,sans-Serif" font-size="10.00"># GetMinTotWeight()</text>
<text text-anchor="start" x="109.5" y="-393.5" font-family="Helvetica,sans-Serif" font-size="10.00"># SetMinTotWeight()</text>
</a>
</g>
</g>
<!-- Node8&#45;&gt;Node7 -->
<g id="edge2" class="edge"><title>Node8&#45;&gt;Node7</title>
<path fill="none" stroke="midnightblue" d="M222.929,-376.308C228.469,-341.172 233.637,-308.395 237.525,-283.737"/>
<polygon fill="none" stroke="midnightblue" points="219.457,-375.852 221.357,-386.275 226.372,-376.942 219.457,-375.852"/>
</g>
<!-- Node13 -->
<g id="node8" class="node"><title>Node13</title>
<g id="a_node8"><a xlink:href="classGeneProfileProcess.html" target="_top" xlink:title="{GeneProfileProcess\n||+ GeneProfileProcess()\l+ ~GeneProfileProcess()\l+ GetProfile()\l+ GetStateSpace()\l+ LogProfilePrior()\l+ SampleProfile()\l+ GetMeanStationaryEntropy()\l+ GetSiteStationaryEntropy()\l+ GlobalUpdateParameters()\l+ SlaveUpdateParameters()\l+ ProfileSuffStatLogProb()\l+ SetMixtureParameters()\l# Create()\l# Delete()\l}">
<polygon fill="none" stroke="black" points="0,-138.5 0,-338.5 149,-338.5 149,-138.5 0,-138.5"/>
<text text-anchor="middle" x="74.5" y="-326.5" font-family="Helvetica,sans-Serif" font-size="10.00">GeneProfileProcess</text>
<polyline fill="none" stroke="black" points="0,-319.5 149,-319.5 "/>
<text text-anchor="middle" x="74.5" y="-307.5" font-family="Helvetica,sans-Serif" font-size="10.00"> </text>
<polyline fill="none" stroke="black" points="0,-300.5 149,-300.5 "/>
<text text-anchor="start" x="8" y="-288.5" font-family="Helvetica,sans-Serif" font-size="10.00">+ GeneProfileProcess()</text>
<text text-anchor="start" x="8" y="-277.5" font-family="Helvetica,sans-Serif" font-size="10.00">+ ~GeneProfileProcess()</text>
<text text-anchor="start" x="8" y="-266.5" font-family="Helvetica,sans-Serif" font-size="10.00">+ GetProfile()</text>
<text text-anchor="start" x="8" y="-255.5" font-family="Helvetica,sans-Serif" font-size="10.00">+ GetStateSpace()</text>
<text text-anchor="start" x="8" y="-244.5" font-family="Helvetica,sans-Serif" font-size="10.00">+ LogProfilePrior()</text>
<text text-anchor="start" x="8" y="-233.5" font-family="Helvetica,sans-Serif" font-size="10.00">+ SampleProfile()</text>
<text text-anchor="start" x="8" y="-222.5" font-family="Helvetica,sans-Serif" font-size="10.00">+ GetMeanStationaryEntropy()</text>
<text text-anchor="start" x="8" y="-211.5" font-family="Helvetica,sans-Serif" font-size="10.00">+ GetSiteStationaryEntropy()</text>
<text text-anchor="start" x="8" y="-200.5" font-family="Helvetica,sans-Serif" font-size="10.00">+ GlobalUpdateParameters()</text>
<text text-anchor="start" x="8" y="-189.5" font-family="Helvetica,sans-Serif" font-size="10.00">+ SlaveUpdateParameters()</text>
<text text-anchor="start" x="8" y="-178.5" font-family="Helvetica,sans-Serif" font-size="10.00">+ ProfileSuffStatLogProb()</text>
<text text-anchor="start" x="8" y="-167.5" font-family="Helvetica,sans-Serif" font-size="10.00">+ SetMixtureParameters()</text>
<text text-anchor="start" x="8" y="-156.5" font-family="Helvetica,sans-Serif" font-size="10.00"># Create()</text>
<text text-anchor="start" x="8" y="-145.5" font-family="Helvetica,sans-Serif" font-size="10.00"># Delete()</text>
</a>
</g>
</g>
<!-- Node8&#45;&gt;Node13 -->
<g id="edge8" class="edge"><title>Node8&#45;&gt;Node13</title>
<path fill="none" stroke="midnightblue" d="M117.392,-376.716C113.311,-363.66 109.33,-350.926 105.543,-338.81"/>
<polygon fill="none" stroke="midnightblue" points="114.056,-377.775 120.38,-386.275 120.737,-375.686 114.056,-377.775"/>
</g>
<!-- Node8&#45;&gt;Node13 -->
<g id="edge9" class="edge"><title>Node8&#45;&gt;Node13</title>
<path fill="none" stroke="#404040" d="M138.109,-386.411C135.027,-376.419 131.822,-366.573 128.5,-357 127.681,-354.639 126.83,-352.261 125.953,-349.872"/>
<polygon fill="none" stroke="#404040" points="125.944,-349.848 120.07,-345.665 121.671,-338.634 127.546,-342.817 125.944,-349.848"/>
<text text-anchor="middle" x="144" y="-360" font-family="Helvetica,sans-Serif" font-size="10.00"> #hub</text>
</g>
<!-- Node9 -->
<g id="node4" class="node"><title>Node9</title>
<g id="a_node4"><a xlink:href="classChrono.html" target="_top" xlink:title="{Chrono\n||+ Chrono()\l+ ~Chrono()\l+ Reset()\l+ Start()\l+ Stop()\l+ ToStream()\l+ FromStream()\l+ operator++()\l+ GetTime()\l+ GetTimePerCount()\l+ GetCount()\l}">
<polygon fill="none" stroke="black" points="103.5,-898.5 103.5,-1065.5 213.5,-1065.5 213.5,-898.5 103.5,-898.5"/>
<text text-anchor="middle" x="158.5" y="-1053.5" font-family="Helvetica,sans-Serif" font-size="10.00">Chrono</text>
<polyline fill="none" stroke="black" points="103.5,-1046.5 213.5,-1046.5 "/>
<text text-anchor="middle" x="158.5" y="-1034.5" font-family="Helvetica,sans-Serif" font-size="10.00"> </text>
<polyline fill="none" stroke="black" points="103.5,-1027.5 213.5,-1027.5 "/>
<text text-anchor="start" x="111.5" y="-1015.5" font-family="Helvetica,sans-Serif" font-size="10.00">+ Chrono()</text>
<text text-anchor="start" x="111.5" y="-1004.5" font-family="Helvetica,sans-Serif" font-size="10.00">+ ~Chrono()</text>
<text text-anchor="start" x="111.5" y="-993.5" font-family="Helvetica,sans-Serif" font-size="10.00">+ Reset()</text>
<text text-anchor="start" x="111.5" y="-982.5" font-family="Helvetica,sans-Serif" font-size="10.00">+ Start()</text>
<text text-anchor="start" x="111.5" y="-971.5" font-family="Helvetica,sans-Serif" font-size="10.00">+ Stop()</text>
<text text-anchor="start" x="111.5" y="-960.5" font-family="Helvetica,sans-Serif" font-size="10.00">+ ToStream()</text>
<text text-anchor="start" x="111.5" y="-949.5" font-family="Helvetica,sans-Serif" font-size="10.00">+ FromStream()</text>
<text text-anchor="start" x="111.5" y="-938.5" font-family="Helvetica,sans-Serif" font-size="10.00">+ operator++()</text>
<text text-anchor="start" x="111.5" y="-927.5" font-family="Helvetica,sans-Serif" font-size="10.00">+ GetTime()</text>
<text text-anchor="start" x="111.5" y="-916.5" font-family="Helvetica,sans-Serif" font-size="10.00">+ GetTimePerCount()</text>
<text text-anchor="start" x="111.5" y="-905.5" font-family="Helvetica,sans-Serif" font-size="10.00">+ GetCount()</text>
</a>
</g>
</g>
<!-- Node9&#45;&gt;Node8 -->
<g id="edge3" class="edge"><title>Node9&#45;&gt;Node8</title>
<path fill="none" stroke="#404040" d="M164.864,-898.046C166.455,-877.317 168.238,-854.071 170.087,-829.965"/>
<polygon fill="none" stroke="#404040" points="170.112,-829.647 166.582,-823.359 171.03,-817.682 174.559,-823.971 170.112,-829.647"/>
<text text-anchor="middle" x="198" y="-866.5" font-family="Helvetica,sans-Serif" font-size="10.00"> #chronostat</text>
<text text-anchor="middle" x="198" y="-855.5" font-family="Helvetica,sans-Serif" font-size="10.00">#chronorr</text>
<text text-anchor="middle" x="198" y="-844.5" font-family="Helvetica,sans-Serif" font-size="10.00">#chronodp</text>
</g>
<!-- Node10 -->
<g id="node5" class="node"><title>Node10</title>
<polygon fill="none" stroke="#bfbfbf" points="232,-953.5 232,-1010.5 277,-1010.5 277,-953.5 232,-953.5"/>
<text text-anchor="middle" x="254.5" y="-998.5" font-family="Helvetica,sans-Serif" font-size="10.00">double</text>
<polyline fill="none" stroke="#bfbfbf" points="232,-991.5 277,-991.5 "/>
<text text-anchor="middle" x="254.5" y="-979.5" font-family="Helvetica,sans-Serif" font-size="10.00"> </text>
<polyline fill="none" stroke="#bfbfbf" points="232,-972.5 277,-972.5 "/>
<text text-anchor="middle" x="254.5" y="-960.5" font-family="Helvetica,sans-Serif" font-size="10.00"> </text>
</g>
<!-- Node10&#45;&gt;Node8 -->
<g id="edge4" class="edge"><title>Node10&#45;&gt;Node8</title>
<path fill="none" stroke="#404040" d="M249.573,-953.205C244.621,-925.267 236.481,-879.34 227.7,-829.801"/>
<polygon fill="none" stroke="#404040" points="227.672,-829.641 222.686,-824.431 225.577,-817.825 230.563,-823.035 227.672,-829.641"/>
<text text-anchor="middle" x="269.5" y="-855.5" font-family="Helvetica,sans-Serif" font-size="10.00"> #mintotweight</text>
</g>
<!-- Node11 -->
<g id="node6" class="node"><title>Node11</title>
<polygon fill="none" stroke="#bfbfbf" points="39,-953.5 39,-1010.5 68,-1010.5 68,-953.5 39,-953.5"/>
<text text-anchor="middle" x="53.5" y="-998.5" font-family="Helvetica,sans-Serif" font-size="10.00">int</text>
<polyline fill="none" stroke="#bfbfbf" points="39,-991.5 68,-991.5 "/>
<text text-anchor="middle" x="53.5" y="-979.5" font-family="Helvetica,sans-Serif" font-size="10.00"> </text>
<polyline fill="none" stroke="#bfbfbf" points="39,-972.5 68,-972.5 "/>
<text text-anchor="middle" x="53.5" y="-960.5" font-family="Helvetica,sans-Serif" font-size="10.00"> </text>
</g>
<!-- Node11&#45;&gt;Node8 -->
<g id="edge5" class="edge"><title>Node11&#45;&gt;Node8</title>
<path fill="none" stroke="#404040" d="M63.1494,-953.461C73.381,-924.285 90.0302,-876.878 104.5,-836 105.306,-833.723 106.117,-831.434 106.931,-829.133"/>
<polygon fill="none" stroke="#404040" points="107.028,-828.861 105.262,-821.869 111.036,-817.55 112.802,-824.541 107.028,-828.861"/>
<text text-anchor="middle" x="133.5" y="-872" font-family="Helvetica,sans-Serif" font-size="10.00"> #dim</text>
<text text-anchor="middle" x="133.5" y="-861" font-family="Helvetica,sans-Serif" font-size="10.00">#statinfcount</text>
<text text-anchor="middle" x="133.5" y="-850" font-family="Helvetica,sans-Serif" font-size="10.00">#totstatcount</text>
<text text-anchor="middle" x="133.5" y="-839" font-family="Helvetica,sans-Serif" font-size="10.00">#nsite</text>
</g>
<!-- Node11&#45;&gt;Node13 -->
<g id="edge10" class="edge"><title>Node11&#45;&gt;Node13</title>
<path fill="none" stroke="#404040" d="M52.7484,-953.387C50.6508,-868.574 45.6904,-604.367 58.5,-386 59.1672,-374.626 60.0864,-362.776 61.1498,-350.96"/>
<polygon fill="none" stroke="#404040" points="61.181,-350.628 57.7609,-344.279 62.3056,-338.68 65.7257,-345.029 61.181,-350.628"/>
<text text-anchor="middle" x="75.5" y="-599.5" font-family="Helvetica,sans-Serif" font-size="10.00"> #offset</text>
</g>
<!-- Node12 -->
<g id="node7" class="node"><title>Node12</title>
<polygon fill="none" stroke="#bfbfbf" points="320,-953.5 320,-1010.5 355,-1010.5 355,-953.5 320,-953.5"/>
<text text-anchor="middle" x="337.5" y="-998.5" font-family="Helvetica,sans-Serif" font-size="10.00">bool</text>
<polyline fill="none" stroke="#bfbfbf" points="320,-991.5 355,-991.5 "/>
<text text-anchor="middle" x="337.5" y="-979.5" font-family="Helvetica,sans-Serif" font-size="10.00"> </text>
<polyline fill="none" stroke="#bfbfbf" points="320,-972.5 355,-972.5 "/>
<text text-anchor="middle" x="337.5" y="-960.5" font-family="Helvetica,sans-Serif" font-size="10.00"> </text>
</g>
<!-- Node12&#45;&gt;Node8 -->
<g id="edge6" class="edge"><title>Node12&#45;&gt;Node8</title>
<path fill="none" stroke="#404040" d="M333.538,-953.435C328.797,-923.831 319.675,-875.694 305.5,-836 297.803,-814.447 288.555,-792.336 278.665,-770.724"/>
<polygon fill="none" stroke="#404040" points="278.655,-770.703 272.501,-766.945 273.602,-759.818 279.757,-763.576 278.655,-770.703"/>
<text text-anchor="middle" x="352.5" y="-861" font-family="Helvetica,sans-Serif" font-size="10.00"> #activesuffstat</text>
<text text-anchor="middle" x="352.5" y="-850" font-family="Helvetica,sans-Serif" font-size="10.00">#burnin</text>
</g>
<!-- Node13&#45;&gt;Node6 -->
<g id="edge7" class="edge"><title>Node13&#45;&gt;Node6</title>
<path fill="none" stroke="midnightblue" d="M129.409,-129.38C136.322,-115.768 143.058,-102.504 149.042,-90.7204"/>
<polygon fill="none" stroke="midnightblue" points="126.254,-127.863 124.847,-138.364 132.496,-131.032 126.254,-127.863"/>
</g>
</g>
</svg>
