<?xml version="1.0" encoding="UTF-8" standalone="no"?>
<!DOCTYPE svg PUBLIC "-//W3C//DTD SVG 1.1//EN"
 "http://www.w3.org/Graphics/SVG/1.1/DTD/svg11.dtd">
<!-- Generated by graphviz version 2.38.0 (20140413.2041)
 -->
<!-- Title: SubMatrix Pages: 1 -->
<svg width="241pt" height="655pt"
 viewBox="0.00 0.00 240.50 655.00" xmlns="http://www.w3.org/2000/svg" xmlns:xlink="http://www.w3.org/1999/xlink">
<g id="graph0" class="graph" transform="scale(1 1) rotate(0) translate(4 651)">
<title>SubMatrix</title>
<!-- Node7 -->
<g id="node1" class="node"><title>Node7</title>
<polygon fill="#bfbfbf" stroke="black" points="25.5,-0.5 25.5,-486.5 181.5,-486.5 181.5,-0.5 25.5,-0.5"/>
<text text-anchor="middle" x="103.5" y="-474.5" font-family="Helvetica,sans-Serif" font-size="10.00">SubMatrix</text>
<polyline fill="none" stroke="black" points="25.5,-467.5 181.5,-467.5 "/>
<text text-anchor="middle" x="103.5" y="-455.5" font-family="Helvetica,sans-Serif" font-size="10.00"> </text>
<polyline fill="none" stroke="black" points="25.5,-448.5 181.5,-448.5 "/>
<text text-anchor="start" x="33.5" y="-436.5" font-family="Helvetica,sans-Serif" font-size="10.00">+ SubMatrix()</text>
<text text-anchor="start" x="33.5" y="-425.5" font-family="Helvetica,sans-Serif" font-size="10.00">+ ~SubMatrix()</text>
<text text-anchor="start" x="33.5" y="-414.5" font-family="Helvetica,sans-Serif" font-size="10.00">+ Create()</text>
<text text-anchor="start" x="33.5" y="-403.5" font-family="Helvetica,sans-Serif" font-size="10.00">+ operator()()</text>
<text text-anchor="start" x="33.5" y="-392.5" font-family="Helvetica,sans-Serif" font-size="10.00">+ GetRow()</text>
<text text-anchor="start" x="33.5" y="-381.5" font-family="Helvetica,sans-Serif" font-size="10.00">+ GetStationary()</text>
<text text-anchor="start" x="33.5" y="-370.5" font-family="Helvetica,sans-Serif" font-size="10.00">+ Stationary()</text>
<text text-anchor="start" x="33.5" y="-359.5" font-family="Helvetica,sans-Serif" font-size="10.00">+ GetNstate()</text>
<text text-anchor="start" x="33.5" y="-348.5" font-family="Helvetica,sans-Serif" font-size="10.00">+ GetRate()</text>
<text text-anchor="start" x="33.5" y="-337.5" font-family="Helvetica,sans-Serif" font-size="10.00">+ ScalarMul()</text>
<text text-anchor="start" x="33.5" y="-326.5" font-family="Helvetica,sans-Serif" font-size="10.00">+ isNormalised()</text>
<text text-anchor="start" x="33.5" y="-315.5" font-family="Helvetica,sans-Serif" font-size="10.00">+ Normalise()</text>
<text text-anchor="start" x="33.5" y="-304.5" font-family="Helvetica,sans-Serif" font-size="10.00">+ CorruptMatrix()</text>
<text text-anchor="start" x="33.5" y="-293.5" font-family="Helvetica,sans-Serif" font-size="10.00">+ UpdateMatrix()</text>
<text text-anchor="start" x="33.5" y="-282.5" font-family="Helvetica,sans-Serif" font-size="10.00">+ ActivatePowers()</text>
<text text-anchor="start" x="33.5" y="-271.5" font-family="Helvetica,sans-Serif" font-size="10.00">+ InactivatePowers()</text>
<text text-anchor="start" x="33.5" y="-260.5" font-family="Helvetica,sans-Serif" font-size="10.00">+ Power()</text>
<text text-anchor="start" x="33.5" y="-249.5" font-family="Helvetica,sans-Serif" font-size="10.00">+ GetUniformizationMu()</text>
<text text-anchor="start" x="33.5" y="-238.5" font-family="Helvetica,sans-Serif" font-size="10.00">+ GetEigenVal()</text>
<text text-anchor="start" x="33.5" y="-227.5" font-family="Helvetica,sans-Serif" font-size="10.00">+ GetEigenVect()</text>
<text text-anchor="start" x="33.5" y="-216.5" font-family="Helvetica,sans-Serif" font-size="10.00">+ GetInvEigenVect()</text>
<text text-anchor="start" x="33.5" y="-205.5" font-family="Helvetica,sans-Serif" font-size="10.00">+ GetFiniteTimeTransitionProb()</text>
<text text-anchor="start" x="33.5" y="-194.5" font-family="Helvetica,sans-Serif" font-size="10.00">+ DrawUniformizedTransition()</text>
<text text-anchor="start" x="33.5" y="-183.5" font-family="Helvetica,sans-Serif" font-size="10.00">+ DrawUniformizedSubstitution</text>
<text text-anchor="start" x="33.5" y="-172.5" font-family="Helvetica,sans-Serif" font-size="10.00">Number()</text>
<text text-anchor="start" x="33.5" y="-161.5" font-family="Helvetica,sans-Serif" font-size="10.00">+ DrawOneStep()</text>
<text text-anchor="start" x="33.5" y="-150.5" font-family="Helvetica,sans-Serif" font-size="10.00">+ ToStream()</text>
<text text-anchor="start" x="33.5" y="-139.5" font-family="Helvetica,sans-Serif" font-size="10.00">+ CheckReversibility()</text>
<text text-anchor="start" x="33.5" y="-128.5" font-family="Helvetica,sans-Serif" font-size="10.00">+ GetDiagStat()</text>
<text text-anchor="start" x="33.5" y="-117.5" font-family="Helvetica,sans-Serif" font-size="10.00">+ GetUniSubCount()</text>
<text text-anchor="start" x="33.5" y="-106.5" font-family="Helvetica,sans-Serif" font-size="10.00">+ GetMeanUni()</text>
<text text-anchor="start" x="33.5" y="-95.5" font-family="Helvetica,sans-Serif" font-size="10.00"># ComputeExponential()</text>
<text text-anchor="start" x="33.5" y="-84.5" font-family="Helvetica,sans-Serif" font-size="10.00"># ComputeArray()</text>
<text text-anchor="start" x="33.5" y="-73.5" font-family="Helvetica,sans-Serif" font-size="10.00"># ComputeStationary()</text>
<text text-anchor="start" x="33.5" y="-62.5" font-family="Helvetica,sans-Serif" font-size="10.00"># UpdateRow()</text>
<text text-anchor="start" x="33.5" y="-51.5" font-family="Helvetica,sans-Serif" font-size="10.00"># UpdateStationary()</text>
<text text-anchor="start" x="33.5" y="-40.5" font-family="Helvetica,sans-Serif" font-size="10.00"># ComputePowers()</text>
<text text-anchor="start" x="33.5" y="-29.5" font-family="Helvetica,sans-Serif" font-size="10.00"># CreatePowers()</text>
<text text-anchor="start" x="33.5" y="-18.5" font-family="Helvetica,sans-Serif" font-size="10.00"># ArrayUpdated()</text>
<text text-anchor="start" x="33.5" y="-7.5" font-family="Helvetica,sans-Serif" font-size="10.00"># Diagonalise()</text>
</g>
<!-- Node8 -->
<g id="node2" class="node"><title>Node8</title>
<polygon fill="none" stroke="#bfbfbf" points="0,-589.5 0,-646.5 45,-646.5 45,-589.5 0,-589.5"/>
<text text-anchor="middle" x="22.5" y="-634.5" font-family="Helvetica,sans-Serif" font-size="10.00">double</text>
<polyline fill="none" stroke="#bfbfbf" points="0,-627.5 45,-627.5 "/>
<text text-anchor="middle" x="22.5" y="-615.5" font-family="Helvetica,sans-Serif" font-size="10.00"> </text>
<polyline fill="none" stroke="#bfbfbf" points="0,-608.5 45,-608.5 "/>
<text text-anchor="middle" x="22.5" y="-596.5" font-family="Helvetica,sans-Serif" font-size="10.00"> </text>
</g>
<!-- Node8&#45;&gt;Node7 -->
<g id="edge1" class="edge"><title>Node8&#45;&gt;Node7</title>
<path fill="none" stroke="#404040" d="M26.6823,-589.29C30.2363,-566.567 35.6767,-533.602 41.5,-505 41.9416,-502.831 42.3883,-500.652 42.8396,-498.465"/>
<polygon fill="none" stroke="#404040" points="42.8441,-498.444 40.1544,-491.753 45.296,-486.697 47.9857,-493.387 42.8441,-498.444"/>
<text text-anchor="middle" x="70.5" y="-552" font-family="Helvetica,sans-Serif" font-size="10.00"> #UniMu</text>
<text text-anchor="middle" x="70.5" y="-541" font-family="Helvetica,sans-Serif" font-size="10.00">#mStationary</text>
<text text-anchor="middle" x="70.5" y="-530" font-family="Helvetica,sans-Serif" font-size="10.00">#Q</text>
<text text-anchor="middle" x="70.5" y="-519" font-family="Helvetica,sans-Serif" font-size="10.00">#mPow</text>
</g>
<!-- Node9 -->
<g id="node3" class="node"><title>Node9</title>
<polygon fill="none" stroke="#bfbfbf" points="89,-589.5 89,-646.5 118,-646.5 118,-589.5 89,-589.5"/>
<text text-anchor="middle" x="103.5" y="-634.5" font-family="Helvetica,sans-Serif" font-size="10.00">int</text>
<polyline fill="none" stroke="#bfbfbf" points="89,-627.5 118,-627.5 "/>
<text text-anchor="middle" x="103.5" y="-615.5" font-family="Helvetica,sans-Serif" font-size="10.00"> </text>
<polyline fill="none" stroke="#bfbfbf" points="89,-608.5 118,-608.5 "/>
<text text-anchor="middle" x="103.5" y="-596.5" font-family="Helvetica,sans-Serif" font-size="10.00"> </text>
</g>
<!-- Node9&#45;&gt;Node7 -->
<g id="edge2" class="edge"><title>Node9&#45;&gt;Node7</title>
<path fill="none" stroke="#404040" d="M103.5,-589.306C103.5,-567.626 103.5,-535.088 103.5,-498.513"/>
<polygon fill="none" stroke="#404040" points="103.5,-498.505 99.5,-492.505 103.5,-486.505 107.5,-492.504 103.5,-498.505"/>
<text text-anchor="middle" x="137" y="-563" font-family="Helvetica,sans-Serif" font-size="10.00"> +nunisubcount</text>
<text text-anchor="middle" x="137" y="-552" font-family="Helvetica,sans-Serif" font-size="10.00">#Nstate</text>
<text text-anchor="middle" x="137" y="-541" font-family="Helvetica,sans-Serif" font-size="10.00">+UniSubNmax</text>
<text text-anchor="middle" x="137" y="-530" font-family="Helvetica,sans-Serif" font-size="10.00">#npow</text>
<text text-anchor="middle" x="137" y="-519" font-family="Helvetica,sans-Serif" font-size="10.00">+nuni</text>
<text text-anchor="middle" x="137" y="-508" font-family="Helvetica,sans-Serif" font-size="10.00">+nunimax</text>
</g>
<!-- Node10 -->
<g id="node4" class="node"><title>Node10</title>
<polygon fill="none" stroke="#bfbfbf" points="176,-589.5 176,-646.5 211,-646.5 211,-589.5 176,-589.5"/>
<text text-anchor="middle" x="193.5" y="-634.5" font-family="Helvetica,sans-Serif" font-size="10.00">bool</text>
<polyline fill="none" stroke="#bfbfbf" points="176,-627.5 211,-627.5 "/>
<text text-anchor="middle" x="193.5" y="-615.5" font-family="Helvetica,sans-Serif" font-size="10.00"> </text>
<polyline fill="none" stroke="#bfbfbf" points="176,-608.5 211,-608.5 "/>
<text text-anchor="middle" x="193.5" y="-596.5" font-family="Helvetica,sans-Serif" font-size="10.00"> </text>
</g>
<!-- Node10&#45;&gt;Node7 -->
<g id="edge3" class="edge"><title>Node10&#45;&gt;Node7</title>
<path fill="none" stroke="#404040" d="M188.545,-589.284C184.365,-566.557 178.033,-533.591 171.5,-505 171.004,-502.83 170.503,-500.651 169.998,-498.464"/>
<polygon fill="none" stroke="#404040" points="169.978,-498.378 164.719,-493.444 167.251,-486.692 172.51,-491.626 169.978,-498.378"/>
<text text-anchor="middle" x="208.5" y="-557.5" font-family="Helvetica,sans-Serif" font-size="10.00"> #flagarray</text>
<text text-anchor="middle" x="208.5" y="-546.5" font-family="Helvetica,sans-Serif" font-size="10.00">#diagflag</text>
<text text-anchor="middle" x="208.5" y="-535.5" font-family="Helvetica,sans-Serif" font-size="10.00">#powflag</text>
<text text-anchor="middle" x="208.5" y="-524.5" font-family="Helvetica,sans-Serif" font-size="10.00">#normalise</text>
<text text-anchor="middle" x="208.5" y="-513.5" font-family="Helvetica,sans-Serif" font-size="10.00">#statflag</text>
</g>
</g>
</svg>
