<?xml version="1.0" encoding="UTF-8" standalone="no"?>
<!DOCTYPE svg PUBLIC "-//W3C//DTD SVG 1.1//EN"
 "http://www.w3.org/Graphics/SVG/1.1/DTD/svg11.dtd">
<!-- Generated by graphviz version 2.38.0 (20140413.2041)
 -->
<!-- Title: NodeDate Pages: 1 -->
<svg width="164pt" height="237pt"
 viewBox="0.00 0.00 164.00 237.00" xmlns="http://www.w3.org/2000/svg" xmlns:xlink="http://www.w3.org/1999/xlink">
<g id="graph0" class="graph" transform="scale(1 1) rotate(0) translate(4 233)">
<title>NodeDate</title>
<!-- Node2 -->
<g id="node1" class="node"><title>Node2</title>
<polygon fill="#bfbfbf" stroke="black" points="43.5,-0.5 43.5,-112.5 135.5,-112.5 135.5,-0.5 43.5,-0.5"/>
<text text-anchor="middle" x="89.5" y="-100.5" font-family="Helvetica,sans-Serif" font-size="10.00">NodeDate</text>
<polyline fill="none" stroke="black" points="43.5,-93.5 135.5,-93.5 "/>
<text text-anchor="middle" x="89.5" y="-81.5" font-family="Helvetica,sans-Serif" font-size="10.00"> </text>
<polyline fill="none" stroke="black" points="43.5,-74.5 135.5,-74.5 "/>
<text text-anchor="start" x="51.5" y="-62.5" font-family="Helvetica,sans-Serif" font-size="10.00">+ NodeDate()</text>
<text text-anchor="start" x="51.5" y="-51.5" font-family="Helvetica,sans-Serif" font-size="10.00">+ drawSample()</text>
<text text-anchor="start" x="51.5" y="-40.5" font-family="Helvetica,sans-Serif" font-size="10.00">+ SetMinMax()</text>
<text text-anchor="start" x="51.5" y="-29.5" font-family="Helvetica,sans-Serif" font-size="10.00">+ ProposeMove()</text>
<text text-anchor="start" x="51.5" y="-18.5" font-family="Helvetica,sans-Serif" font-size="10.00">+ EmptyMove()</text>
<text text-anchor="start" x="51.5" y="-7.5" font-family="Helvetica,sans-Serif" font-size="10.00">+ logProb()</text>
</g>
<!-- Node3 -->
<g id="node2" class="node"><title>Node3</title>
<g id="a_node2"><a xlink:href="classRvar.html" target="_top" xlink:title="{Rvar\&lt; PosReal \&gt;\n||}">
<polygon fill="none" stroke="black" points="0,-171.5 0,-228.5 93,-228.5 93,-171.5 0,-171.5"/>
<text text-anchor="middle" x="46.5" y="-216.5" font-family="Helvetica,sans-Serif" font-size="10.00">Rvar&lt; PosReal &gt;</text>
<polyline fill="none" stroke="black" points="0,-209.5 93,-209.5 "/>
<text text-anchor="middle" x="46.5" y="-197.5" font-family="Helvetica,sans-Serif" font-size="10.00"> </text>
<polyline fill="none" stroke="black" points="0,-190.5 93,-190.5 "/>
<text text-anchor="middle" x="46.5" y="-178.5" font-family="Helvetica,sans-Serif" font-size="10.00"> </text>
</a>
</g>
</g>
<!-- Node3&#45;&gt;Node2 -->
<g id="edge1" class="edge"><title>Node3&#45;&gt;Node2</title>
<path fill="none" stroke="midnightblue" d="M57.9053,-161.469C62.4568,-146.491 67.7893,-128.943 72.7635,-112.575"/>
<polygon fill="none" stroke="midnightblue" points="54.4518,-160.796 54.8929,-171.381 61.1493,-162.831 54.4518,-160.796"/>
</g>
<!-- Node4 -->
<g id="node3" class="node"><title>Node4</title>
<polygon fill="none" stroke="#bfbfbf" points="111,-171.5 111,-228.5 156,-228.5 156,-171.5 111,-171.5"/>
<text text-anchor="middle" x="133.5" y="-216.5" font-family="Helvetica,sans-Serif" font-size="10.00">double</text>
<polyline fill="none" stroke="#bfbfbf" points="111,-209.5 156,-209.5 "/>
<text text-anchor="middle" x="133.5" y="-197.5" font-family="Helvetica,sans-Serif" font-size="10.00"> </text>
<polyline fill="none" stroke="#bfbfbf" points="111,-190.5 156,-190.5 "/>
<text text-anchor="middle" x="133.5" y="-178.5" font-family="Helvetica,sans-Serif" font-size="10.00"> </text>
</g>
<!-- Node4&#45;&gt;Node2 -->
<g id="edge2" class="edge"><title>Node4&#45;&gt;Node2</title>
<path fill="none" stroke="#404040" d="M124.912,-171.381C120.685,-157.789 115.391,-140.762 110.194,-124.049"/>
<polygon fill="none" stroke="#404040" points="110.189,-124.034 104.588,-119.492 106.626,-112.575 112.227,-117.116 110.189,-124.034"/>
<text text-anchor="middle" x="130" y="-145" font-family="Helvetica,sans-Serif" font-size="10.00"> #min</text>
<text text-anchor="middle" x="130" y="-134" font-family="Helvetica,sans-Serif" font-size="10.00">#max</text>
</g>
</g>
</svg>
