<?xml version="1.0" encoding="UTF-8" standalone="no"?>
<!DOCTYPE svg PUBLIC "-//W3C//DTD SVG 1.1//EN"
 "http://www.w3.org/Graphics/SVG/1.1/DTD/svg11.dtd">
<!-- Generated by graphviz version 2.38.0 (20140413.2041)
 -->
<!-- Title: SimpleStateSpace Pages: 1 -->
<svg width="384pt" height="386pt"
 viewBox="0.00 0.00 384.00 386.00" xmlns="http://www.w3.org/2000/svg" xmlns:xlink="http://www.w3.org/1999/xlink">
<g id="graph0" class="graph" transform="scale(1 1) rotate(0) translate(4 382)">
<title>SimpleStateSpace</title>
<!-- Node0 -->
<g id="node1" class="node"><title>Node0</title>
<polygon fill="#bfbfbf" stroke="black" points="131.5,-105.5 131.5,-250.5 244.5,-250.5 244.5,-105.5 131.5,-105.5"/>
<text text-anchor="middle" x="188" y="-238.5" font-family="Helvetica,sans-Serif" font-size="10.00">SimpleStateSpace</text>
<polyline fill="none" stroke="black" points="131.5,-231.5 244.5,-231.5 "/>
<text text-anchor="start" x="139.5" y="-219.5" font-family="Helvetica,sans-Serif" font-size="10.00"># Nstate</text>
<text text-anchor="start" x="139.5" y="-208.5" font-family="Helvetica,sans-Serif" font-size="10.00"># Alphabet</text>
<text text-anchor="start" x="139.5" y="-197.5" font-family="Helvetica,sans-Serif" font-size="10.00"># NAlphabetSet</text>
<text text-anchor="start" x="139.5" y="-186.5" font-family="Helvetica,sans-Serif" font-size="10.00"># AlphabetSet</text>
<polyline fill="none" stroke="black" points="131.5,-179.5 244.5,-179.5 "/>
<text text-anchor="start" x="139.5" y="-167.5" font-family="Helvetica,sans-Serif" font-size="10.00">+ SimpleStateSpace()</text>
<text text-anchor="start" x="139.5" y="-156.5" font-family="Helvetica,sans-Serif" font-size="10.00">+ SimpleStateSpace()</text>
<text text-anchor="start" x="139.5" y="-145.5" font-family="Helvetica,sans-Serif" font-size="10.00">+ GetState()</text>
<text text-anchor="start" x="139.5" y="-134.5" font-family="Helvetica,sans-Serif" font-size="10.00">+ GetNstate()</text>
<text text-anchor="start" x="139.5" y="-123.5" font-family="Helvetica,sans-Serif" font-size="10.00">+ GetState()</text>
<text text-anchor="start" x="139.5" y="-112.5" font-family="Helvetica,sans-Serif" font-size="10.00">+ GetCharState()</text>
</g>
<!-- Node2 -->
<g id="node3" class="node"><title>Node2</title>
<g id="a_node3"><a xlink:href="classDNAStateSpace.html" target="_top" xlink:title="{DNAStateSpace\n||+ DNAStateSpace()\l+ ~DNAStateSpace()\l}">
<polygon fill="none" stroke="black" points="0,-0.5 0,-68.5 110,-68.5 110,-0.5 0,-0.5"/>
<text text-anchor="middle" x="55" y="-56.5" font-family="Helvetica,sans-Serif" font-size="10.00">DNAStateSpace</text>
<polyline fill="none" stroke="black" points="0,-49.5 110,-49.5 "/>
<text text-anchor="middle" x="55" y="-37.5" font-family="Helvetica,sans-Serif" font-size="10.00"> </text>
<polyline fill="none" stroke="black" points="0,-30.5 110,-30.5 "/>
<text text-anchor="start" x="8" y="-18.5" font-family="Helvetica,sans-Serif" font-size="10.00">+ DNAStateSpace()</text>
<text text-anchor="start" x="8" y="-7.5" font-family="Helvetica,sans-Serif" font-size="10.00">+ ~DNAStateSpace()</text>
</a>
</g>
</g>
<!-- Node0&#45;&gt;Node2 -->
<g id="edge2" class="edge"><title>Node0&#45;&gt;Node2</title>
<path fill="none" stroke="midnightblue" d="M124.32,-109.251C111.098,-95.1831 97.7265,-80.9571 86.3021,-68.8026"/>
<polygon fill="none" stroke="midnightblue" points="121.811,-111.691 131.21,-116.581 126.912,-106.897 121.811,-111.691"/>
</g>
<!-- Node3 -->
<g id="node4" class="node"><title>Node3</title>
<g id="a_node4"><a xlink:href="classProteinStateSpace.html" target="_top" xlink:title="{ProteinStateSpace\n||+ ProteinStateSpace()\l+ ~ProteinStateSpace()\l}">
<polygon fill="none" stroke="black" points="128.5,-0.5 128.5,-68.5 247.5,-68.5 247.5,-0.5 128.5,-0.5"/>
<text text-anchor="middle" x="188" y="-56.5" font-family="Helvetica,sans-Serif" font-size="10.00">ProteinStateSpace</text>
<polyline fill="none" stroke="black" points="128.5,-49.5 247.5,-49.5 "/>
<text text-anchor="middle" x="188" y="-37.5" font-family="Helvetica,sans-Serif" font-size="10.00"> </text>
<polyline fill="none" stroke="black" points="128.5,-30.5 247.5,-30.5 "/>
<text text-anchor="start" x="136.5" y="-18.5" font-family="Helvetica,sans-Serif" font-size="10.00">+ ProteinStateSpace()</text>
<text text-anchor="start" x="136.5" y="-7.5" font-family="Helvetica,sans-Serif" font-size="10.00">+ ~ProteinStateSpace()</text>
</a>
</g>
</g>
<!-- Node0&#45;&gt;Node3 -->
<g id="edge3" class="edge"><title>Node0&#45;&gt;Node3</title>
<path fill="none" stroke="midnightblue" d="M188,-95.1914C188,-85.8305 188,-76.7344 188,-68.5806"/>
<polygon fill="none" stroke="midnightblue" points="184.5,-95.4209 188,-105.421 191.5,-95.4209 184.5,-95.4209"/>
</g>
<!-- Node4 -->
<g id="node5" class="node"><title>Node4</title>
<g id="a_node5"><a xlink:href="classRNAStateSpace.html" target="_top" xlink:title="{RNAStateSpace\n||+ RNAStateSpace()\l+ ~RNAStateSpace()\l}">
<polygon fill="none" stroke="black" points="266,-0.5 266,-68.5 376,-68.5 376,-0.5 266,-0.5"/>
<text text-anchor="middle" x="321" y="-56.5" font-family="Helvetica,sans-Serif" font-size="10.00">RNAStateSpace</text>
<polyline fill="none" stroke="black" points="266,-49.5 376,-49.5 "/>
<text text-anchor="middle" x="321" y="-37.5" font-family="Helvetica,sans-Serif" font-size="10.00"> </text>
<polyline fill="none" stroke="black" points="266,-30.5 376,-30.5 "/>
<text text-anchor="start" x="274" y="-18.5" font-family="Helvetica,sans-Serif" font-size="10.00">+ RNAStateSpace()</text>
<text text-anchor="start" x="274" y="-7.5" font-family="Helvetica,sans-Serif" font-size="10.00">+ ~RNAStateSpace()</text>
</a>
</g>
</g>
<!-- Node0&#45;&gt;Node4 -->
<g id="edge4" class="edge"><title>Node0&#45;&gt;Node4</title>
<path fill="none" stroke="midnightblue" d="M251.68,-109.251C264.902,-95.1831 278.274,-80.9571 289.698,-68.8026"/>
<polygon fill="none" stroke="midnightblue" points="249.088,-106.897 244.79,-116.581 254.189,-111.691 249.088,-106.897"/>
</g>
<!-- Node1 -->
<g id="node2" class="node"><title>Node1</title>
<g id="a_node2"><a xlink:href="classStateSpace.html" target="_top" xlink:title="{StateSpace\n||+ ~StateSpace()\l+ GetState()\l+ GetNstate()\l+ GetState()\l}">
<polygon fill="none" stroke="black" points="143.5,-287.5 143.5,-377.5 232.5,-377.5 232.5,-287.5 143.5,-287.5"/>
<text text-anchor="middle" x="188" y="-365.5" font-family="Helvetica,sans-Serif" font-size="10.00">StateSpace</text>
<polyline fill="none" stroke="black" points="143.5,-358.5 232.5,-358.5 "/>
<text text-anchor="middle" x="188" y="-346.5" font-family="Helvetica,sans-Serif" font-size="10.00"> </text>
<polyline fill="none" stroke="black" points="143.5,-339.5 232.5,-339.5 "/>
<text text-anchor="start" x="151.5" y="-327.5" font-family="Helvetica,sans-Serif" font-size="10.00">+ ~StateSpace()</text>
<text text-anchor="start" x="151.5" y="-316.5" font-family="Helvetica,sans-Serif" font-size="10.00">+ GetState()</text>
<text text-anchor="start" x="151.5" y="-305.5" font-family="Helvetica,sans-Serif" font-size="10.00">+ GetNstate()</text>
<text text-anchor="start" x="151.5" y="-294.5" font-family="Helvetica,sans-Serif" font-size="10.00">+ GetState()</text>
</a>
</g>
</g>
<!-- Node1&#45;&gt;Node0 -->
<g id="edge1" class="edge"><title>Node1&#45;&gt;Node0</title>
<path fill="none" stroke="midnightblue" d="M188,-277.13C188,-268.526 188,-259.516 188,-250.591"/>
<polygon fill="none" stroke="midnightblue" points="184.5,-277.391 188,-287.391 191.5,-277.391 184.5,-277.391"/>
</g>
</g>
</svg>
