<?xml version="1.0" encoding="UTF-8" standalone="no"?>
<!DOCTYPE svg PUBLIC "-//W3C//DTD SVG 1.1//EN"
 "http://www.w3.org/Graphics/SVG/1.1/DTD/svg11.dtd">
<!-- Generated by graphviz version 2.38.0 (20140413.2041)
 -->
<!-- Title: GammaBranchProcess Pages: 1 -->
<svg width="916pt" height="2104pt"
 viewBox="0.00 0.00 916.00 2104.00" xmlns="http://www.w3.org/2000/svg" xmlns:xlink="http://www.w3.org/1999/xlink">
<g id="graph0" class="graph" transform="scale(1 1) rotate(0) translate(4 2100)">
<title>GammaBranchProcess</title>
<!-- Node16 -->
<g id="node1" class="node"><title>Node16</title>
<polygon fill="#bfbfbf" stroke="black" points="508,-0.5 508,-244.5 647,-244.5 647,-0.5 508,-0.5"/>
<text text-anchor="middle" x="577.5" y="-232.5" font-family="Helvetica,sans-Serif" font-size="10.00">GammaBranchProcess</text>
<polyline fill="none" stroke="black" points="508,-225.5 647,-225.5 "/>
<text text-anchor="middle" x="577.5" y="-213.5" font-family="Helvetica,sans-Serif" font-size="10.00"> </text>
<polyline fill="none" stroke="black" points="508,-206.5 647,-206.5 "/>
<text text-anchor="start" x="516" y="-194.5" font-family="Helvetica,sans-Serif" font-size="10.00">+ GammaBranchProcess()</text>
<text text-anchor="start" x="516" y="-183.5" font-family="Helvetica,sans-Serif" font-size="10.00">+ ~GammaBranchProcess()</text>
<text text-anchor="start" x="516" y="-172.5" font-family="Helvetica,sans-Serif" font-size="10.00">+ LogBranchLengthPrior()</text>
<text text-anchor="start" x="516" y="-161.5" font-family="Helvetica,sans-Serif" font-size="10.00">+ LogHyperPrior()</text>
<text text-anchor="start" x="516" y="-150.5" font-family="Helvetica,sans-Serif" font-size="10.00">+ GetBranchAlpha()</text>
<text text-anchor="start" x="516" y="-139.5" font-family="Helvetica,sans-Serif" font-size="10.00">+ GetBranchBeta()</text>
<text text-anchor="start" x="516" y="-128.5" font-family="Helvetica,sans-Serif" font-size="10.00">+ SampleLength()</text>
<text text-anchor="start" x="516" y="-117.5" font-family="Helvetica,sans-Serif" font-size="10.00">+ SampleLength()</text>
<text text-anchor="start" x="516" y="-106.5" font-family="Helvetica,sans-Serif" font-size="10.00">+ ToStreamWithLengths()</text>
<text text-anchor="start" x="516" y="-95.5" font-family="Helvetica,sans-Serif" font-size="10.00">+ Move()</text>
<text text-anchor="start" x="516" y="-84.5" font-family="Helvetica,sans-Serif" font-size="10.00">+ MoveBranchBeta()</text>
<text text-anchor="start" x="516" y="-73.5" font-family="Helvetica,sans-Serif" font-size="10.00">+ MoveLength()</text>
<text text-anchor="start" x="516" y="-62.5" font-family="Helvetica,sans-Serif" font-size="10.00">+ NonMPIMove()</text>
<text text-anchor="start" x="516" y="-51.5" font-family="Helvetica,sans-Serif" font-size="10.00">+ NonMPIMoveLength()</text>
<text text-anchor="start" x="516" y="-40.5" font-family="Helvetica,sans-Serif" font-size="10.00">+ ToStream()</text>
<text text-anchor="start" x="516" y="-29.5" font-family="Helvetica,sans-Serif" font-size="10.00">+ FromStream()</text>
<text text-anchor="start" x="516" y="-18.5" font-family="Helvetica,sans-Serif" font-size="10.00"># Create()</text>
<text text-anchor="start" x="516" y="-7.5" font-family="Helvetica,sans-Serif" font-size="10.00"># Delete()</text>
</g>
<!-- Node17 -->
<g id="node2" class="node"><title>Node17</title>
<g id="a_node2"><a xlink:href="classBranchProcess.html" target="_top" xlink:title="{BranchProcess\n||+ BranchProcess()\l+ ~BranchProcess()\l+ GetVersion()\l+ GetLengthTree()\l+ GetTree()\l+ GetRoot()\l+ GetRoot()\l+ GetBranchName()\l+ GetNodeName()\l+ GetLength()\l+ GetLength()\l+ SetLength()\l+ Backup()\l+ Restore()\l+ ProposeMove()\l+ MoveBranch()\l+ Restore()\l+ GetNormFactor()\l+ MoveAllBranches()\l+ RecursiveMoveAllBranches()\l+ SampleLength()\l+ LogBranchLengthPrior()\l+ GetTotalLength()\l+ GetRenormTotalLength()\l+ RenormalizeBranchLengths()\l+ DenormalizeBranchLengths()\l+ RecursiveNormalizeBranch\lLengths()\l+ RecursiveTotalLength()\l+ SetLengthsFromNames()\l+ SetNamesFromLengths()\l+ RecursiveSetLengthsFromNames()\l+ RecursiveSetNamesFromLengths()\l+ SampleLength()\l+ LogLengthPrior()\l+ GlobalUpdateBranchLength\lSuffStat()\l+ SlaveUpdateBranchLengthSuffStat()\l+ UpdateBranchLengthSuffStat()\l+ GetBranchLengthSuffStatBeta()\l+ GetBranchLengthSuffStatCount()\l+ LengthSuffStatLogProb()\l+ ToStream()\l+ FromStream()\l+ GetTaxonSet()\l# GetNbranch()\l# GetNnode()\l# GetNlink()\l# Create()\l# Delete()\l# RecursiveLogLengthPrior()\l# RecursiveSampleLength()\l}">
<polygon fill="none" stroke="black" points="485.5,-282.5 485.5,-900.5 669.5,-900.5 669.5,-282.5 485.5,-282.5"/>
<text text-anchor="middle" x="577.5" y="-888.5" font-family="Helvetica,sans-Serif" font-size="10.00">BranchProcess</text>
<polyline fill="none" stroke="black" points="485.5,-881.5 669.5,-881.5 "/>
<text text-anchor="middle" x="577.5" y="-869.5" font-family="Helvetica,sans-Serif" font-size="10.00"> </text>
<polyline fill="none" stroke="black" points="485.5,-862.5 669.5,-862.5 "/>
<text text-anchor="start" x="493.5" y="-850.5" font-family="Helvetica,sans-Serif" font-size="10.00">+ BranchProcess()</text>
<text text-anchor="start" x="493.5" y="-839.5" font-family="Helvetica,sans-Serif" font-size="10.00">+ ~BranchProcess()</text>
<text text-anchor="start" x="493.5" y="-828.5" font-family="Helvetica,sans-Serif" font-size="10.00">+ GetVersion()</text>
<text text-anchor="start" x="493.5" y="-817.5" font-family="Helvetica,sans-Serif" font-size="10.00">+ GetLengthTree()</text>
<text text-anchor="start" x="493.5" y="-806.5" font-family="Helvetica,sans-Serif" font-size="10.00">+ GetTree()</text>
<text text-anchor="start" x="493.5" y="-795.5" font-family="Helvetica,sans-Serif" font-size="10.00">+ GetRoot()</text>
<text text-anchor="start" x="493.5" y="-784.5" font-family="Helvetica,sans-Serif" font-size="10.00">+ GetRoot()</text>
<text text-anchor="start" x="493.5" y="-773.5" font-family="Helvetica,sans-Serif" font-size="10.00">+ GetBranchName()</text>
<text text-anchor="start" x="493.5" y="-762.5" font-family="Helvetica,sans-Serif" font-size="10.00">+ GetNodeName()</text>
<text text-anchor="start" x="493.5" y="-751.5" font-family="Helvetica,sans-Serif" font-size="10.00">+ GetLength()</text>
<text text-anchor="start" x="493.5" y="-740.5" font-family="Helvetica,sans-Serif" font-size="10.00">+ GetLength()</text>
<text text-anchor="start" x="493.5" y="-729.5" font-family="Helvetica,sans-Serif" font-size="10.00">+ SetLength()</text>
<text text-anchor="start" x="493.5" y="-718.5" font-family="Helvetica,sans-Serif" font-size="10.00">+ Backup()</text>
<text text-anchor="start" x="493.5" y="-707.5" font-family="Helvetica,sans-Serif" font-size="10.00">+ Restore()</text>
<text text-anchor="start" x="493.5" y="-696.5" font-family="Helvetica,sans-Serif" font-size="10.00">+ ProposeMove()</text>
<text text-anchor="start" x="493.5" y="-685.5" font-family="Helvetica,sans-Serif" font-size="10.00">+ MoveBranch()</text>
<text text-anchor="start" x="493.5" y="-674.5" font-family="Helvetica,sans-Serif" font-size="10.00">+ Restore()</text>
<text text-anchor="start" x="493.5" y="-663.5" font-family="Helvetica,sans-Serif" font-size="10.00">+ GetNormFactor()</text>
<text text-anchor="start" x="493.5" y="-652.5" font-family="Helvetica,sans-Serif" font-size="10.00">+ MoveAllBranches()</text>
<text text-anchor="start" x="493.5" y="-641.5" font-family="Helvetica,sans-Serif" font-size="10.00">+ RecursiveMoveAllBranches()</text>
<text text-anchor="start" x="493.5" y="-630.5" font-family="Helvetica,sans-Serif" font-size="10.00">+ SampleLength()</text>
<text text-anchor="start" x="493.5" y="-619.5" font-family="Helvetica,sans-Serif" font-size="10.00">+ LogBranchLengthPrior()</text>
<text text-anchor="start" x="493.5" y="-608.5" font-family="Helvetica,sans-Serif" font-size="10.00">+ GetTotalLength()</text>
<text text-anchor="start" x="493.5" y="-597.5" font-family="Helvetica,sans-Serif" font-size="10.00">+ GetRenormTotalLength()</text>
<text text-anchor="start" x="493.5" y="-586.5" font-family="Helvetica,sans-Serif" font-size="10.00">+ RenormalizeBranchLengths()</text>
<text text-anchor="start" x="493.5" y="-575.5" font-family="Helvetica,sans-Serif" font-size="10.00">+ DenormalizeBranchLengths()</text>
<text text-anchor="start" x="493.5" y="-564.5" font-family="Helvetica,sans-Serif" font-size="10.00">+ RecursiveNormalizeBranch</text>
<text text-anchor="start" x="493.5" y="-553.5" font-family="Helvetica,sans-Serif" font-size="10.00">Lengths()</text>
<text text-anchor="start" x="493.5" y="-542.5" font-family="Helvetica,sans-Serif" font-size="10.00">+ RecursiveTotalLength()</text>
<text text-anchor="start" x="493.5" y="-531.5" font-family="Helvetica,sans-Serif" font-size="10.00">+ SetLengthsFromNames()</text>
<text text-anchor="start" x="493.5" y="-520.5" font-family="Helvetica,sans-Serif" font-size="10.00">+ SetNamesFromLengths()</text>
<text text-anchor="start" x="493.5" y="-509.5" font-family="Helvetica,sans-Serif" font-size="10.00">+ RecursiveSetLengthsFromNames()</text>
<text text-anchor="start" x="493.5" y="-498.5" font-family="Helvetica,sans-Serif" font-size="10.00">+ RecursiveSetNamesFromLengths()</text>
<text text-anchor="start" x="493.5" y="-487.5" font-family="Helvetica,sans-Serif" font-size="10.00">+ SampleLength()</text>
<text text-anchor="start" x="493.5" y="-476.5" font-family="Helvetica,sans-Serif" font-size="10.00">+ LogLengthPrior()</text>
<text text-anchor="start" x="493.5" y="-465.5" font-family="Helvetica,sans-Serif" font-size="10.00">+ GlobalUpdateBranchLength</text>
<text text-anchor="start" x="493.5" y="-454.5" font-family="Helvetica,sans-Serif" font-size="10.00">SuffStat()</text>
<text text-anchor="start" x="493.5" y="-443.5" font-family="Helvetica,sans-Serif" font-size="10.00">+ SlaveUpdateBranchLengthSuffStat()</text>
<text text-anchor="start" x="493.5" y="-432.5" font-family="Helvetica,sans-Serif" font-size="10.00">+ UpdateBranchLengthSuffStat()</text>
<text text-anchor="start" x="493.5" y="-421.5" font-family="Helvetica,sans-Serif" font-size="10.00">+ GetBranchLengthSuffStatBeta()</text>
<text text-anchor="start" x="493.5" y="-410.5" font-family="Helvetica,sans-Serif" font-size="10.00">+ GetBranchLengthSuffStatCount()</text>
<text text-anchor="start" x="493.5" y="-399.5" font-family="Helvetica,sans-Serif" font-size="10.00">+ LengthSuffStatLogProb()</text>
<text text-anchor="start" x="493.5" y="-388.5" font-family="Helvetica,sans-Serif" font-size="10.00">+ ToStream()</text>
<text text-anchor="start" x="493.5" y="-377.5" font-family="Helvetica,sans-Serif" font-size="10.00">+ FromStream()</text>
<text text-anchor="start" x="493.5" y="-366.5" font-family="Helvetica,sans-Serif" font-size="10.00">+ GetTaxonSet()</text>
<text text-anchor="start" x="493.5" y="-355.5" font-family="Helvetica,sans-Serif" font-size="10.00"># GetNbranch()</text>
<text text-anchor="start" x="493.5" y="-344.5" font-family="Helvetica,sans-Serif" font-size="10.00"># GetNnode()</text>
<text text-anchor="start" x="493.5" y="-333.5" font-family="Helvetica,sans-Serif" font-size="10.00"># GetNlink()</text>
<text text-anchor="start" x="493.5" y="-322.5" font-family="Helvetica,sans-Serif" font-size="10.00"># Create()</text>
<text text-anchor="start" x="493.5" y="-311.5" font-family="Helvetica,sans-Serif" font-size="10.00"># Delete()</text>
<text text-anchor="start" x="493.5" y="-300.5" font-family="Helvetica,sans-Serif" font-size="10.00"># RecursiveLogLengthPrior()</text>
<text text-anchor="start" x="493.5" y="-289.5" font-family="Helvetica,sans-Serif" font-size="10.00"># RecursiveSampleLength()</text>
</a>
</g>
</g>
<!-- Node17&#45;&gt;Node16 -->
<g id="edge1" class="edge"><title>Node17&#45;&gt;Node16</title>
<path fill="none" stroke="midnightblue" d="M577.5,-272.025C577.5,-262.669 577.5,-253.523 577.5,-244.661"/>
<polygon fill="none" stroke="midnightblue" points="574,-272.257 577.5,-282.257 581,-272.257 574,-272.257"/>
</g>
<!-- Node18 -->
<g id="node3" class="node"><title>Node18</title>
<g id="a_node3"><a xlink:href="classNewickTree.html" target="_top" xlink:title="{NewickTree\n||+ ~NewickTree()\l+ GetRoot()\l+ GetRoot()\l+ ToStream()\l+ ToStream()\l+ ToStreamSimplified()\l+ GetLeftMost()\l+ GetRightMost()\l+ GetNodeName()\l+ GetBranchName()\l+ Simplify()\l}">
<polygon fill="none" stroke="black" points="791,-1763 791,-1930 908,-1930 908,-1763 791,-1763"/>
<text text-anchor="middle" x="849.5" y="-1918" font-family="Helvetica,sans-Serif" font-size="10.00">NewickTree</text>
<polyline fill="none" stroke="black" points="791,-1911 908,-1911 "/>
<text text-anchor="middle" x="849.5" y="-1899" font-family="Helvetica,sans-Serif" font-size="10.00"> </text>
<polyline fill="none" stroke="black" points="791,-1892 908,-1892 "/>
<text text-anchor="start" x="799" y="-1880" font-family="Helvetica,sans-Serif" font-size="10.00">+ ~NewickTree()</text>
<text text-anchor="start" x="799" y="-1869" font-family="Helvetica,sans-Serif" font-size="10.00">+ GetRoot()</text>
<text text-anchor="start" x="799" y="-1858" font-family="Helvetica,sans-Serif" font-size="10.00">+ GetRoot()</text>
<text text-anchor="start" x="799" y="-1847" font-family="Helvetica,sans-Serif" font-size="10.00">+ ToStream()</text>
<text text-anchor="start" x="799" y="-1836" font-family="Helvetica,sans-Serif" font-size="10.00">+ ToStream()</text>
<text text-anchor="start" x="799" y="-1825" font-family="Helvetica,sans-Serif" font-size="10.00">+ ToStreamSimplified()</text>
<text text-anchor="start" x="799" y="-1814" font-family="Helvetica,sans-Serif" font-size="10.00">+ GetLeftMost()</text>
<text text-anchor="start" x="799" y="-1803" font-family="Helvetica,sans-Serif" font-size="10.00">+ GetRightMost()</text>
<text text-anchor="start" x="799" y="-1792" font-family="Helvetica,sans-Serif" font-size="10.00">+ GetNodeName()</text>
<text text-anchor="start" x="799" y="-1781" font-family="Helvetica,sans-Serif" font-size="10.00">+ GetBranchName()</text>
<text text-anchor="start" x="799" y="-1770" font-family="Helvetica,sans-Serif" font-size="10.00">+ Simplify()</text>
</a>
</g>
</g>
<!-- Node18&#45;&gt;Node17 -->
<g id="edge2" class="edge"><title>Node18&#45;&gt;Node17</title>
<path fill="none" stroke="midnightblue" d="M814.63,-1753.44C805.428,-1735.32 794.391,-1717.23 781.5,-1702 746.854,-1661.06 709.675,-1679.24 682.5,-1633 611.808,-1512.72 588.152,-1161.85 580.534,-900.607"/>
<polygon fill="none" stroke="midnightblue" points="811.725,-1755.46 819.274,-1762.9 818.009,-1752.38 811.725,-1755.46"/>
</g>
<!-- Node22 -->
<g id="node7" class="node"><title>Node22</title>
<g id="a_node7"><a xlink:href="classTree.html" target="_top" xlink:title="{Tree\n||+ Tree()\l+ Tree()\l+ MakeRandomTree()\l+ Tree()\l+ Tree()\l+ Tree()\l+ ReadFromStream()\l+ ~Tree()\l+ DeleteNextLeaf()\l+ Detach()\l+ Attach()\l+ NNIturn()\l+ RootAtRandom()\l+ RootAt()\l+ ChooseLinkAtRandom()\l+ CountInternalNodes()\l+ ChooseInternalNode()\l+ CountNodes()\l+ ChooseNode()\l+ DrawSubTree()\l+ GrepNode()\l+ RecursiveCheckDegree()\l+ CheckRootDegree()\l+ DeleteUnaryNode()\l+ GetRoot()\l+ GetRoot()\l+ GetTaxonSet()\l+ MakeTaxonSet()\l+ RegisterWith()\l+ RegisterWith()\l+ GetBranchName()\l+ GetNodeName()\l+ EraseInternalNodeName()\l+ EraseInternalNodeName()\l+ GetSize()\l+ GetSize()\l+ GetFullSize()\l+ GetLCA()\l+ Subdivide()\l+ Reduce()\l+ Print()\l+ PrintReduced()\l+ SetIndices()\l+ GetNlink()\l+ GetNbranch()\l+ GetNnode()\l+ GetNode()\l+ GetBranch()\l+ GetLink()\l# CheckIndices()\l# SetIndices()\l# RecursiveGetLCA()\l# ParseGroup()\l# ParseList()\l# RecursiveClone()\l# RecursiveDelete()\l# SetRoot()\l}">
<polygon fill="none" stroke="black" points="429,-959.5 429,-1632.5 568,-1632.5 568,-959.5 429,-959.5"/>
<text text-anchor="middle" x="498.5" y="-1620.5" font-family="Helvetica,sans-Serif" font-size="10.00">Tree</text>
<polyline fill="none" stroke="black" points="429,-1613.5 568,-1613.5 "/>
<text text-anchor="middle" x="498.5" y="-1601.5" font-family="Helvetica,sans-Serif" font-size="10.00"> </text>
<polyline fill="none" stroke="black" points="429,-1594.5 568,-1594.5 "/>
<text text-anchor="start" x="437" y="-1582.5" font-family="Helvetica,sans-Serif" font-size="10.00">+ Tree()</text>
<text text-anchor="start" x="437" y="-1571.5" font-family="Helvetica,sans-Serif" font-size="10.00">+ Tree()</text>
<text text-anchor="start" x="437" y="-1560.5" font-family="Helvetica,sans-Serif" font-size="10.00">+ MakeRandomTree()</text>
<text text-anchor="start" x="437" y="-1549.5" font-family="Helvetica,sans-Serif" font-size="10.00">+ Tree()</text>
<text text-anchor="start" x="437" y="-1538.5" font-family="Helvetica,sans-Serif" font-size="10.00">+ Tree()</text>
<text text-anchor="start" x="437" y="-1527.5" font-family="Helvetica,sans-Serif" font-size="10.00">+ Tree()</text>
<text text-anchor="start" x="437" y="-1516.5" font-family="Helvetica,sans-Serif" font-size="10.00">+ ReadFromStream()</text>
<text text-anchor="start" x="437" y="-1505.5" font-family="Helvetica,sans-Serif" font-size="10.00">+ ~Tree()</text>
<text text-anchor="start" x="437" y="-1494.5" font-family="Helvetica,sans-Serif" font-size="10.00">+ DeleteNextLeaf()</text>
<text text-anchor="start" x="437" y="-1483.5" font-family="Helvetica,sans-Serif" font-size="10.00">+ Detach()</text>
<text text-anchor="start" x="437" y="-1472.5" font-family="Helvetica,sans-Serif" font-size="10.00">+ Attach()</text>
<text text-anchor="start" x="437" y="-1461.5" font-family="Helvetica,sans-Serif" font-size="10.00">+ NNIturn()</text>
<text text-anchor="start" x="437" y="-1450.5" font-family="Helvetica,sans-Serif" font-size="10.00">+ RootAtRandom()</text>
<text text-anchor="start" x="437" y="-1439.5" font-family="Helvetica,sans-Serif" font-size="10.00">+ RootAt()</text>
<text text-anchor="start" x="437" y="-1428.5" font-family="Helvetica,sans-Serif" font-size="10.00">+ ChooseLinkAtRandom()</text>
<text text-anchor="start" x="437" y="-1417.5" font-family="Helvetica,sans-Serif" font-size="10.00">+ CountInternalNodes()</text>
<text text-anchor="start" x="437" y="-1406.5" font-family="Helvetica,sans-Serif" font-size="10.00">+ ChooseInternalNode()</text>
<text text-anchor="start" x="437" y="-1395.5" font-family="Helvetica,sans-Serif" font-size="10.00">+ CountNodes()</text>
<text text-anchor="start" x="437" y="-1384.5" font-family="Helvetica,sans-Serif" font-size="10.00">+ ChooseNode()</text>
<text text-anchor="start" x="437" y="-1373.5" font-family="Helvetica,sans-Serif" font-size="10.00">+ DrawSubTree()</text>
<text text-anchor="start" x="437" y="-1362.5" font-family="Helvetica,sans-Serif" font-size="10.00">+ GrepNode()</text>
<text text-anchor="start" x="437" y="-1351.5" font-family="Helvetica,sans-Serif" font-size="10.00">+ RecursiveCheckDegree()</text>
<text text-anchor="start" x="437" y="-1340.5" font-family="Helvetica,sans-Serif" font-size="10.00">+ CheckRootDegree()</text>
<text text-anchor="start" x="437" y="-1329.5" font-family="Helvetica,sans-Serif" font-size="10.00">+ DeleteUnaryNode()</text>
<text text-anchor="start" x="437" y="-1318.5" font-family="Helvetica,sans-Serif" font-size="10.00">+ GetRoot()</text>
<text text-anchor="start" x="437" y="-1307.5" font-family="Helvetica,sans-Serif" font-size="10.00">+ GetRoot()</text>
<text text-anchor="start" x="437" y="-1296.5" font-family="Helvetica,sans-Serif" font-size="10.00">+ GetTaxonSet()</text>
<text text-anchor="start" x="437" y="-1285.5" font-family="Helvetica,sans-Serif" font-size="10.00">+ MakeTaxonSet()</text>
<text text-anchor="start" x="437" y="-1274.5" font-family="Helvetica,sans-Serif" font-size="10.00">+ RegisterWith()</text>
<text text-anchor="start" x="437" y="-1263.5" font-family="Helvetica,sans-Serif" font-size="10.00">+ RegisterWith()</text>
<text text-anchor="start" x="437" y="-1252.5" font-family="Helvetica,sans-Serif" font-size="10.00">+ GetBranchName()</text>
<text text-anchor="start" x="437" y="-1241.5" font-family="Helvetica,sans-Serif" font-size="10.00">+ GetNodeName()</text>
<text text-anchor="start" x="437" y="-1230.5" font-family="Helvetica,sans-Serif" font-size="10.00">+ EraseInternalNodeName()</text>
<text text-anchor="start" x="437" y="-1219.5" font-family="Helvetica,sans-Serif" font-size="10.00">+ EraseInternalNodeName()</text>
<text text-anchor="start" x="437" y="-1208.5" font-family="Helvetica,sans-Serif" font-size="10.00">+ GetSize()</text>
<text text-anchor="start" x="437" y="-1197.5" font-family="Helvetica,sans-Serif" font-size="10.00">+ GetSize()</text>
<text text-anchor="start" x="437" y="-1186.5" font-family="Helvetica,sans-Serif" font-size="10.00">+ GetFullSize()</text>
<text text-anchor="start" x="437" y="-1175.5" font-family="Helvetica,sans-Serif" font-size="10.00">+ GetLCA()</text>
<text text-anchor="start" x="437" y="-1164.5" font-family="Helvetica,sans-Serif" font-size="10.00">+ Subdivide()</text>
<text text-anchor="start" x="437" y="-1153.5" font-family="Helvetica,sans-Serif" font-size="10.00">+ Reduce()</text>
<text text-anchor="start" x="437" y="-1142.5" font-family="Helvetica,sans-Serif" font-size="10.00">+ Print()</text>
<text text-anchor="start" x="437" y="-1131.5" font-family="Helvetica,sans-Serif" font-size="10.00">+ PrintReduced()</text>
<text text-anchor="start" x="437" y="-1120.5" font-family="Helvetica,sans-Serif" font-size="10.00">+ SetIndices()</text>
<text text-anchor="start" x="437" y="-1109.5" font-family="Helvetica,sans-Serif" font-size="10.00">+ GetNlink()</text>
<text text-anchor="start" x="437" y="-1098.5" font-family="Helvetica,sans-Serif" font-size="10.00">+ GetNbranch()</text>
<text text-anchor="start" x="437" y="-1087.5" font-family="Helvetica,sans-Serif" font-size="10.00">+ GetNnode()</text>
<text text-anchor="start" x="437" y="-1076.5" font-family="Helvetica,sans-Serif" font-size="10.00">+ GetNode()</text>
<text text-anchor="start" x="437" y="-1065.5" font-family="Helvetica,sans-Serif" font-size="10.00">+ GetBranch()</text>
<text text-anchor="start" x="437" y="-1054.5" font-family="Helvetica,sans-Serif" font-size="10.00">+ GetLink()</text>
<text text-anchor="start" x="437" y="-1043.5" font-family="Helvetica,sans-Serif" font-size="10.00"># CheckIndices()</text>
<text text-anchor="start" x="437" y="-1032.5" font-family="Helvetica,sans-Serif" font-size="10.00"># SetIndices()</text>
<text text-anchor="start" x="437" y="-1021.5" font-family="Helvetica,sans-Serif" font-size="10.00"># RecursiveGetLCA()</text>
<text text-anchor="start" x="437" y="-1010.5" font-family="Helvetica,sans-Serif" font-size="10.00"># ParseGroup()</text>
<text text-anchor="start" x="437" y="-999.5" font-family="Helvetica,sans-Serif" font-size="10.00"># ParseList()</text>
<text text-anchor="start" x="437" y="-988.5" font-family="Helvetica,sans-Serif" font-size="10.00"># RecursiveClone()</text>
<text text-anchor="start" x="437" y="-977.5" font-family="Helvetica,sans-Serif" font-size="10.00"># RecursiveDelete()</text>
<text text-anchor="start" x="437" y="-966.5" font-family="Helvetica,sans-Serif" font-size="10.00"># SetRoot()</text>
</a>
</g>
</g>
<!-- Node18&#45;&gt;Node22 -->
<g id="edge7" class="edge"><title>Node18&#45;&gt;Node22</title>
<path fill="none" stroke="midnightblue" d="M822.704,-1753.75C812.797,-1733.87 799.428,-1714.95 781.5,-1702 728.497,-1663.72 686.477,-1724.94 635.5,-1684 611.674,-1664.87 588.438,-1615.13 568.07,-1557.44"/>
<polygon fill="none" stroke="midnightblue" points="819.598,-1755.37 827.016,-1762.94 825.934,-1752.4 819.598,-1755.37"/>
</g>
<!-- Node19 -->
<g id="node4" class="node"><title>Node19</title>
<polygon fill="none" stroke="#bfbfbf" points="832,-2038.5 832,-2095.5 867,-2095.5 867,-2038.5 832,-2038.5"/>
<text text-anchor="middle" x="849.5" y="-2083.5" font-family="Helvetica,sans-Serif" font-size="10.00">bool</text>
<polyline fill="none" stroke="#bfbfbf" points="832,-2076.5 867,-2076.5 "/>
<text text-anchor="middle" x="849.5" y="-2064.5" font-family="Helvetica,sans-Serif" font-size="10.00"> </text>
<polyline fill="none" stroke="#bfbfbf" points="832,-2057.5 867,-2057.5 "/>
<text text-anchor="middle" x="849.5" y="-2045.5" font-family="Helvetica,sans-Serif" font-size="10.00"> </text>
</g>
<!-- Node19&#45;&gt;Node18 -->
<g id="edge3" class="edge"><title>Node19&#45;&gt;Node18</title>
<path fill="none" stroke="#404040" d="M849.5,-2038.33C849.5,-2014.08 849.5,-1977.39 849.5,-1942.64"/>
<polygon fill="none" stroke="#404040" points="849.5,-1942.45 845.5,-1936.45 849.5,-1930.45 853.5,-1936.45 849.5,-1942.45"/>
<text text-anchor="middle" x="871" y="-2012" font-family="Helvetica,sans-Serif" font-size="10.00"> #simplify</text>
</g>
<!-- Node20 -->
<g id="node5" class="node"><title>Node20</title>
<g id="a_node5"><a xlink:href="classChrono.html" target="_top" xlink:title="{Chrono\n||+ Chrono()\l+ ~Chrono()\l+ Reset()\l+ Start()\l+ Stop()\l+ ToStream()\l+ FromStream()\l+ operator++()\l+ GetTime()\l+ GetTimePerCount()\l+ GetCount()\l}">
<polygon fill="none" stroke="black" points="300.5,-1212.5 300.5,-1379.5 410.5,-1379.5 410.5,-1212.5 300.5,-1212.5"/>
<text text-anchor="middle" x="355.5" y="-1367.5" font-family="Helvetica,sans-Serif" font-size="10.00">Chrono</text>
<polyline fill="none" stroke="black" points="300.5,-1360.5 410.5,-1360.5 "/>
<text text-anchor="middle" x="355.5" y="-1348.5" font-family="Helvetica,sans-Serif" font-size="10.00"> </text>
<polyline fill="none" stroke="black" points="300.5,-1341.5 410.5,-1341.5 "/>
<text text-anchor="start" x="308.5" y="-1329.5" font-family="Helvetica,sans-Serif" font-size="10.00">+ Chrono()</text>
<text text-anchor="start" x="308.5" y="-1318.5" font-family="Helvetica,sans-Serif" font-size="10.00">+ ~Chrono()</text>
<text text-anchor="start" x="308.5" y="-1307.5" font-family="Helvetica,sans-Serif" font-size="10.00">+ Reset()</text>
<text text-anchor="start" x="308.5" y="-1296.5" font-family="Helvetica,sans-Serif" font-size="10.00">+ Start()</text>
<text text-anchor="start" x="308.5" y="-1285.5" font-family="Helvetica,sans-Serif" font-size="10.00">+ Stop()</text>
<text text-anchor="start" x="308.5" y="-1274.5" font-family="Helvetica,sans-Serif" font-size="10.00">+ ToStream()</text>
<text text-anchor="start" x="308.5" y="-1263.5" font-family="Helvetica,sans-Serif" font-size="10.00">+ FromStream()</text>
<text text-anchor="start" x="308.5" y="-1252.5" font-family="Helvetica,sans-Serif" font-size="10.00">+ operator++()</text>
<text text-anchor="start" x="308.5" y="-1241.5" font-family="Helvetica,sans-Serif" font-size="10.00">+ GetTime()</text>
<text text-anchor="start" x="308.5" y="-1230.5" font-family="Helvetica,sans-Serif" font-size="10.00">+ GetTimePerCount()</text>
<text text-anchor="start" x="308.5" y="-1219.5" font-family="Helvetica,sans-Serif" font-size="10.00">+ GetCount()</text>
</a>
</g>
</g>
<!-- Node20&#45;&gt;Node17 -->
<g id="edge4" class="edge"><title>Node20&#45;&gt;Node17</title>
<path fill="none" stroke="#404040" d="M366.097,-1212.31C376.13,-1143.53 393.553,-1043.59 419.5,-959 436.099,-904.886 458.192,-847.989 480.584,-795.595"/>
<polygon fill="none" stroke="#404040" points="480.621,-795.509 479.319,-788.416 485.365,-784.486 486.667,-791.579 480.621,-795.509"/>
<text text-anchor="middle" x="461.5" y="-927.5" font-family="Helvetica,sans-Serif" font-size="10.00"> #chronolength</text>
</g>
<!-- Node21 -->
<g id="node6" class="node"><title>Node21</title>
<polygon fill="none" stroke="#bfbfbf" points="692,-1267.5 692,-1324.5 737,-1324.5 737,-1267.5 692,-1267.5"/>
<text text-anchor="middle" x="714.5" y="-1312.5" font-family="Helvetica,sans-Serif" font-size="10.00">double</text>
<polyline fill="none" stroke="#bfbfbf" points="692,-1305.5 737,-1305.5 "/>
<text text-anchor="middle" x="714.5" y="-1293.5" font-family="Helvetica,sans-Serif" font-size="10.00"> </text>
<polyline fill="none" stroke="#bfbfbf" points="692,-1286.5 737,-1286.5 "/>
<text text-anchor="middle" x="714.5" y="-1274.5" font-family="Helvetica,sans-Serif" font-size="10.00"> </text>
</g>
<!-- Node21&#45;&gt;Node16 -->
<g id="edge15" class="edge"><title>Node21&#45;&gt;Node16</title>
<path fill="none" stroke="#404040" d="M718.761,-1267.11C736.167,-1146.13 795.571,-656.103 678.5,-282 672.472,-262.737 663.46,-243.529 653.258,-225.473"/>
<polygon fill="none" stroke="#404040" points="653.182,-225.344 646.701,-222.183 647.127,-214.984 653.608,-218.146 653.182,-225.344"/>
<text text-anchor="middle" x="778.5" y="-594.5" font-family="Helvetica,sans-Serif" font-size="10.00"> #branchbeta</text>
<text text-anchor="middle" x="778.5" y="-583.5" font-family="Helvetica,sans-Serif" font-size="10.00">#branchalpha</text>
</g>
<!-- Node21&#45;&gt;Node17 -->
<g id="edge5" class="edge"><title>Node21&#45;&gt;Node17</title>
<path fill="none" stroke="#404040" d="M711.191,-1267.49C703.505,-1205.16 683.134,-1048.54 657.5,-919 657.091,-916.934 656.678,-914.861 656.26,-912.782"/>
<polygon fill="none" stroke="#404040" points="656.218,-912.571 651.102,-907.489 653.825,-900.812 658.941,-905.894 656.218,-912.571"/>
<text text-anchor="middle" x="680.5" y="-933" font-family="Helvetica,sans-Serif" font-size="10.00"> #blarray</text>
<text text-anchor="middle" x="680.5" y="-922" font-family="Helvetica,sans-Serif" font-size="10.00">#bkarray</text>
</g>
<!-- Node22&#45;&gt;Node17 -->
<g id="edge6" class="edge"><title>Node22&#45;&gt;Node17</title>
<path fill="none" stroke="#404040" d="M536.236,-959.438C537.974,-943.983 539.716,-928.487 541.45,-913.07"/>
<polygon fill="none" stroke="#404040" points="541.497,-912.651 538.193,-906.241 542.838,-900.726 546.143,-907.135 541.497,-912.651"/>
<text text-anchor="middle" x="553" y="-927.5" font-family="Helvetica,sans-Serif" font-size="10.00"> #tree</text>
</g>
<!-- Node23 -->
<g id="node8" class="node"><title>Node23</title>
<polygon fill="none" stroke="#bfbfbf" points="435,-1818 435,-1875 562,-1875 562,-1818 435,-1818"/>
<text text-anchor="middle" x="498.5" y="-1863" font-family="Helvetica,sans-Serif" font-size="10.00">map&lt; int, const Node * &gt;</text>
<polyline fill="none" stroke="#bfbfbf" points="435,-1856 562,-1856 "/>
<text text-anchor="middle" x="498.5" y="-1844" font-family="Helvetica,sans-Serif" font-size="10.00"> </text>
<polyline fill="none" stroke="#bfbfbf" points="435,-1837 562,-1837 "/>
<text text-anchor="middle" x="498.5" y="-1825" font-family="Helvetica,sans-Serif" font-size="10.00"> </text>
</g>
<!-- Node23&#45;&gt;Node22 -->
<g id="edge8" class="edge"><title>Node23&#45;&gt;Node22</title>
<path fill="none" stroke="#404040" d="M498.5,-1817.92C498.5,-1782.68 498.5,-1717.48 498.5,-1644.84"/>
<polygon fill="none" stroke="#404040" points="498.5,-1644.64 494.5,-1638.64 498.5,-1632.64 502.5,-1638.64 498.5,-1644.64"/>
<text text-anchor="middle" x="523" y="-1665" font-family="Helvetica,sans-Serif" font-size="10.00"> #nodemap</text>
</g>
<!-- Node24 -->
<g id="node9" class="node"><title>Node24</title>
<g id="a_node9"><a xlink:href="classTaxonSet.html" target="_top" xlink:title="{TaxonSet\n||+ TaxonSet()\l+ TaxonSet()\l+ ~TaxonSet()\l+ GetNtaxa()\l+ GetTaxon()\l+ GetTaxonIndex()\l+ GetTaxonIndexWithIncompleteName()\l+ ToStream()\l}">
<polygon fill="none" stroke="black" points="580,-1779.5 580,-1913.5 773,-1913.5 773,-1779.5 580,-1779.5"/>
<text text-anchor="middle" x="676.5" y="-1901.5" font-family="Helvetica,sans-Serif" font-size="10.00">TaxonSet</text>
<polyline fill="none" stroke="black" points="580,-1894.5 773,-1894.5 "/>
<text text-anchor="middle" x="676.5" y="-1882.5" font-family="Helvetica,sans-Serif" font-size="10.00"> </text>
<polyline fill="none" stroke="black" points="580,-1875.5 773,-1875.5 "/>
<text text-anchor="start" x="588" y="-1863.5" font-family="Helvetica,sans-Serif" font-size="10.00">+ TaxonSet()</text>
<text text-anchor="start" x="588" y="-1852.5" font-family="Helvetica,sans-Serif" font-size="10.00">+ TaxonSet()</text>
<text text-anchor="start" x="588" y="-1841.5" font-family="Helvetica,sans-Serif" font-size="10.00">+ ~TaxonSet()</text>
<text text-anchor="start" x="588" y="-1830.5" font-family="Helvetica,sans-Serif" font-size="10.00">+ GetNtaxa()</text>
<text text-anchor="start" x="588" y="-1819.5" font-family="Helvetica,sans-Serif" font-size="10.00">+ GetTaxon()</text>
<text text-anchor="start" x="588" y="-1808.5" font-family="Helvetica,sans-Serif" font-size="10.00">+ GetTaxonIndex()</text>
<text text-anchor="start" x="588" y="-1797.5" font-family="Helvetica,sans-Serif" font-size="10.00">+ GetTaxonIndexWithIncompleteName()</text>
<text text-anchor="start" x="588" y="-1786.5" font-family="Helvetica,sans-Serif" font-size="10.00">+ ToStream()</text>
</a>
</g>
</g>
<!-- Node24&#45;&gt;Node22 -->
<g id="edge9" class="edge"><title>Node24&#45;&gt;Node22</title>
<path fill="none" stroke="#404040" d="M625.006,-1779.2C605.543,-1751.19 584.884,-1717.37 571.5,-1684 566.305,-1671.05 561.474,-1657.7 556.983,-1644.11"/>
<polygon fill="none" stroke="#404040" points="556.966,-1644.05 551.32,-1639.57 553.289,-1632.63 558.935,-1637.12 556.966,-1644.05"/>
<text text-anchor="middle" x="589.5" y="-1665" font-family="Helvetica,sans-Serif" font-size="10.00"> #taxset</text>
</g>
<!-- Node25 -->
<g id="node10" class="node"><title>Node25</title>
<polygon fill="none" stroke="#bfbfbf" points="47,-1818 47,-1875 142,-1875 142,-1818 47,-1818"/>
<text text-anchor="middle" x="94.5" y="-1863" font-family="Helvetica,sans-Serif" font-size="10.00">map&lt; int, Link * &gt;</text>
<polyline fill="none" stroke="#bfbfbf" points="47,-1856 142,-1856 "/>
<text text-anchor="middle" x="94.5" y="-1844" font-family="Helvetica,sans-Serif" font-size="10.00"> </text>
<polyline fill="none" stroke="#bfbfbf" points="47,-1837 142,-1837 "/>
<text text-anchor="middle" x="94.5" y="-1825" font-family="Helvetica,sans-Serif" font-size="10.00"> </text>
</g>
<!-- Node25&#45;&gt;Node22 -->
<g id="edge10" class="edge"><title>Node25&#45;&gt;Node22</title>
<path fill="none" stroke="#404040" d="M99.4618,-1817.88C106.339,-1786.52 121.476,-1735.39 151.5,-1702 184.069,-1665.78 201.89,-1665.14 248.5,-1651 285.065,-1639.91 390.833,-1658.26 419.5,-1633 419.704,-1632.82 419.907,-1632.64 420.11,-1632.46"/>
<polygon fill="none" stroke="#404040" points="420.229,-1632.35 421.815,-1625.31 428.919,-1624.07 427.332,-1631.11 420.229,-1632.35"/>
<text text-anchor="middle" x="270" y="-1665" font-family="Helvetica,sans-Serif" font-size="10.00"> #linkmap</text>
</g>
<!-- Node26 -->
<g id="node11" class="node"><title>Node26</title>
<polygon fill="none" stroke="#bfbfbf" points="0,-1818 0,-1875 29,-1875 29,-1818 0,-1818"/>
<text text-anchor="middle" x="14.5" y="-1863" font-family="Helvetica,sans-Serif" font-size="10.00">int</text>
<polyline fill="none" stroke="#bfbfbf" points="0,-1856 29,-1856 "/>
<text text-anchor="middle" x="14.5" y="-1844" font-family="Helvetica,sans-Serif" font-size="10.00"> </text>
<polyline fill="none" stroke="#bfbfbf" points="0,-1837 29,-1837 "/>
<text text-anchor="middle" x="14.5" y="-1825" font-family="Helvetica,sans-Serif" font-size="10.00"> </text>
</g>
<!-- Node26&#45;&gt;Node16 -->
<g id="edge16" class="edge"><title>Node26&#45;&gt;Node16</title>
<path fill="none" stroke="#404040" d="M17.8387,-1817.8C22.7604,-1779.79 33.0791,-1709.5 48.5,-1651 210.981,-1034.57 207.755,-860.07 476.5,-282 483.821,-266.254 492.462,-250.204 501.559,-234.658"/>
<polygon fill="none" stroke="#404040" points="501.776,-234.295 501.412,-227.093 507.92,-223.986 508.284,-231.188 501.776,-234.295"/>
<text text-anchor="middle" x="254.5" y="-927.5" font-family="Helvetica,sans-Serif" font-size="10.00"> #betaprior</text>
</g>
<!-- Node26&#45;&gt;Node22 -->
<g id="edge11" class="edge"><title>Node26&#45;&gt;Node22</title>
<path fill="none" stroke="#404040" d="M12.2733,-1817.86C11.1909,-1786.95 13.788,-1736.68 37.5,-1702 62.7985,-1665 81.6231,-1664.06 124.5,-1651 155.915,-1641.43 394.392,-1654.17 419.5,-1633 419.6,-1632.92 419.7,-1632.83 419.8,-1632.75"/>
<polygon fill="none" stroke="#404040" points="419.897,-1632.66 421.646,-1625.66 428.776,-1624.59 427.027,-1631.58 419.897,-1632.66"/>
<text text-anchor="middle" x="146" y="-1676" font-family="Helvetica,sans-Serif" font-size="10.00"> #Nlink</text>
<text text-anchor="middle" x="146" y="-1665" font-family="Helvetica,sans-Serif" font-size="10.00">#Nbranch</text>
<text text-anchor="middle" x="146" y="-1654" font-family="Helvetica,sans-Serif" font-size="10.00">#Nnode</text>
</g>
<!-- Node27 -->
<g id="node12" class="node"><title>Node27</title>
<g id="a_node12"><a xlink:href="classLink.html" target="_top" xlink:title="{Link\n||+ Link()\l+ Link()\l+ Next()\l+ Out()\l+ GetBranch()\l+ GetNode()\l+ SetBranch()\l+ SetNode()\l+ GetNodeLeafSet()\l+ SetIndex()\l+ GetIndex()\l+ SetOut()\l+ SetNext()\l+ AppendTo()\l+ Insert()\l+ InsertOut()\l+ Knit()\l+ isLeaf()\l+ isUnary()\l+ isRoot()\l+ GetDegree()\l+ GetUp()\l}">
<polygon fill="none" stroke="black" points="160.5,-1702.5 160.5,-1990.5 264.5,-1990.5 264.5,-1702.5 160.5,-1702.5"/>
<text text-anchor="middle" x="212.5" y="-1978.5" font-family="Helvetica,sans-Serif" font-size="10.00">Link</text>
<polyline fill="none" stroke="black" points="160.5,-1971.5 264.5,-1971.5 "/>
<text text-anchor="middle" x="212.5" y="-1959.5" font-family="Helvetica,sans-Serif" font-size="10.00"> </text>
<polyline fill="none" stroke="black" points="160.5,-1952.5 264.5,-1952.5 "/>
<text text-anchor="start" x="168.5" y="-1940.5" font-family="Helvetica,sans-Serif" font-size="10.00">+ Link()</text>
<text text-anchor="start" x="168.5" y="-1929.5" font-family="Helvetica,sans-Serif" font-size="10.00">+ Link()</text>
<text text-anchor="start" x="168.5" y="-1918.5" font-family="Helvetica,sans-Serif" font-size="10.00">+ Next()</text>
<text text-anchor="start" x="168.5" y="-1907.5" font-family="Helvetica,sans-Serif" font-size="10.00">+ Out()</text>
<text text-anchor="start" x="168.5" y="-1896.5" font-family="Helvetica,sans-Serif" font-size="10.00">+ GetBranch()</text>
<text text-anchor="start" x="168.5" y="-1885.5" font-family="Helvetica,sans-Serif" font-size="10.00">+ GetNode()</text>
<text text-anchor="start" x="168.5" y="-1874.5" font-family="Helvetica,sans-Serif" font-size="10.00">+ SetBranch()</text>
<text text-anchor="start" x="168.5" y="-1863.5" font-family="Helvetica,sans-Serif" font-size="10.00">+ SetNode()</text>
<text text-anchor="start" x="168.5" y="-1852.5" font-family="Helvetica,sans-Serif" font-size="10.00">+ GetNodeLeafSet()</text>
<text text-anchor="start" x="168.5" y="-1841.5" font-family="Helvetica,sans-Serif" font-size="10.00">+ SetIndex()</text>
<text text-anchor="start" x="168.5" y="-1830.5" font-family="Helvetica,sans-Serif" font-size="10.00">+ GetIndex()</text>
<text text-anchor="start" x="168.5" y="-1819.5" font-family="Helvetica,sans-Serif" font-size="10.00">+ SetOut()</text>
<text text-anchor="start" x="168.5" y="-1808.5" font-family="Helvetica,sans-Serif" font-size="10.00">+ SetNext()</text>
<text text-anchor="start" x="168.5" y="-1797.5" font-family="Helvetica,sans-Serif" font-size="10.00">+ AppendTo()</text>
<text text-anchor="start" x="168.5" y="-1786.5" font-family="Helvetica,sans-Serif" font-size="10.00">+ Insert()</text>
<text text-anchor="start" x="168.5" y="-1775.5" font-family="Helvetica,sans-Serif" font-size="10.00">+ InsertOut()</text>
<text text-anchor="start" x="168.5" y="-1764.5" font-family="Helvetica,sans-Serif" font-size="10.00">+ Knit()</text>
<text text-anchor="start" x="168.5" y="-1753.5" font-family="Helvetica,sans-Serif" font-size="10.00">+ isLeaf()</text>
<text text-anchor="start" x="168.5" y="-1742.5" font-family="Helvetica,sans-Serif" font-size="10.00">+ isUnary()</text>
<text text-anchor="start" x="168.5" y="-1731.5" font-family="Helvetica,sans-Serif" font-size="10.00">+ isRoot()</text>
<text text-anchor="start" x="168.5" y="-1720.5" font-family="Helvetica,sans-Serif" font-size="10.00">+ GetDegree()</text>
<text text-anchor="start" x="168.5" y="-1709.5" font-family="Helvetica,sans-Serif" font-size="10.00">+ GetUp()</text>
</a>
</g>
</g>
<!-- Node27&#45;&gt;Node22 -->
<g id="edge12" class="edge"><title>Node27&#45;&gt;Node22</title>
<path fill="none" stroke="#404040" d="M264.706,-1712.23C267.499,-1708.66 270.428,-1705.24 273.5,-1702 308.907,-1664.63 330.715,-1672.48 377.5,-1651 395.956,-1642.53 406.441,-1648.55 419.5,-1633 420.114,-1632.27 420.724,-1631.53 421.329,-1630.79"/>
<polygon fill="none" stroke="#404040" points="421.588,-1630.46 422.102,-1623.27 428.939,-1620.97 428.425,-1628.17 421.588,-1630.46"/>
<text text-anchor="middle" x="390" y="-1665" font-family="Helvetica,sans-Serif" font-size="10.00"> #root</text>
</g>
<!-- Node28 -->
<g id="node13" class="node"><title>Node28</title>
<polygon fill="none" stroke="#bfbfbf" points="186.5,-2038.5 186.5,-2095.5 238.5,-2095.5 238.5,-2038.5 186.5,-2038.5"/>
<text text-anchor="middle" x="212.5" y="-2083.5" font-family="Helvetica,sans-Serif" font-size="10.00">double *</text>
<polyline fill="none" stroke="#bfbfbf" points="186.5,-2076.5 238.5,-2076.5 "/>
<text text-anchor="middle" x="212.5" y="-2064.5" font-family="Helvetica,sans-Serif" font-size="10.00"> </text>
<polyline fill="none" stroke="#bfbfbf" points="186.5,-2057.5 238.5,-2057.5 "/>
<text text-anchor="middle" x="212.5" y="-2045.5" font-family="Helvetica,sans-Serif" font-size="10.00"> </text>
</g>
<!-- Node28&#45;&gt;Node27 -->
<g id="edge13" class="edge"><title>Node28&#45;&gt;Node27</title>
<path fill="none" stroke="#404040" d="M212.5,-2038.33C212.5,-2028.39 212.5,-2016.37 212.5,-2003.24"/>
<polygon fill="none" stroke="#404040" points="212.5,-2002.9 208.5,-1996.9 212.5,-1990.9 216.5,-1996.9 212.5,-2002.9"/>
<text text-anchor="middle" x="222.5" y="-2012" font-family="Helvetica,sans-Serif" font-size="10.00"> +tbl</text>
</g>
<!-- Node29 -->
<g id="node14" class="node"><title>Node29</title>
<polygon fill="none" stroke="#bfbfbf" points="282.5,-1818 282.5,-1875 416.5,-1875 416.5,-1818 282.5,-1818"/>
<text text-anchor="middle" x="349.5" y="-1863" font-family="Helvetica,sans-Serif" font-size="10.00">map&lt; int, const Branch * &gt;</text>
<polyline fill="none" stroke="#bfbfbf" points="282.5,-1856 416.5,-1856 "/>
<text text-anchor="middle" x="349.5" y="-1844" font-family="Helvetica,sans-Serif" font-size="10.00"> </text>
<polyline fill="none" stroke="#bfbfbf" points="282.5,-1837 416.5,-1837 "/>
<text text-anchor="middle" x="349.5" y="-1825" font-family="Helvetica,sans-Serif" font-size="10.00"> </text>
</g>
<!-- Node29&#45;&gt;Node22 -->
<g id="edge14" class="edge"><title>Node29&#45;&gt;Node22</title>
<path fill="none" stroke="#404040" d="M359.452,-1817.89C373.787,-1777.58 400.596,-1700.11 419.5,-1633 421.604,-1625.53 423.697,-1617.96 425.775,-1610.31"/>
<polygon fill="none" stroke="#404040" points="425.795,-1610.24 423.494,-1603.4 428.917,-1598.65 431.218,-1605.48 425.795,-1610.24"/>
<text text-anchor="middle" x="442" y="-1665" font-family="Helvetica,sans-Serif" font-size="10.00"> #branchmap</text>
</g>
</g>
</svg>
