<?xml version="1.0" encoding="UTF-8" standalone="no"?>
<!DOCTYPE svg PUBLIC "-//W3C//DTD SVG 1.1//EN"
 "http://www.w3.org/Graphics/SVG/1.1/DTD/svg11.dtd">
<!-- Generated by graphviz version 2.38.0 (20140413.2041)
 -->
<!-- Title: GeneralPathSuffStatMatrixSubstitutionProcess Pages: 1 -->
<svg width="719pt" height="1534pt"
 viewBox="0.00 0.00 719.00 1534.00" xmlns="http://www.w3.org/2000/svg" xmlns:xlink="http://www.w3.org/1999/xlink">
<g id="graph0" class="graph" transform="scale(1 1) rotate(0) translate(4 1530)">
<title>GeneralPathSuffStatMatrixSubstitutionProcess</title>
<!-- Node21 -->
<g id="node1" class="node"><title>Node21</title>
<polygon fill="#bfbfbf" stroke="black" points="392.5,-0.5 392.5,-134.5 541.5,-134.5 541.5,-0.5 392.5,-0.5"/>
<text text-anchor="start" x="400.5" y="-122.5" font-family="Helvetica,sans-Serif" font-size="10.00">GeneralPathSuffStatMatrix</text>
<text text-anchor="middle" x="467" y="-111.5" font-family="Helvetica,sans-Serif" font-size="10.00">SubstitutionProcess</text>
<polyline fill="none" stroke="black" points="392.5,-104.5 541.5,-104.5 "/>
<text text-anchor="middle" x="467" y="-92.5" font-family="Helvetica,sans-Serif" font-size="10.00"> </text>
<polyline fill="none" stroke="black" points="392.5,-85.5 541.5,-85.5 "/>
<text text-anchor="start" x="400.5" y="-73.5" font-family="Helvetica,sans-Serif" font-size="10.00">+ GeneralPathSuffStatMatrix</text>
<text text-anchor="start" x="400.5" y="-62.5" font-family="Helvetica,sans-Serif" font-size="10.00">SubstitutionProcess()</text>
<text text-anchor="start" x="400.5" y="-51.5" font-family="Helvetica,sans-Serif" font-size="10.00">+ ~GeneralPathSuffStatMatrix</text>
<text text-anchor="start" x="400.5" y="-40.5" font-family="Helvetica,sans-Serif" font-size="10.00">SubstitutionProcess()</text>
<text text-anchor="start" x="400.5" y="-29.5" font-family="Helvetica,sans-Serif" font-size="10.00"># AddBranchLengthSuffStat()</text>
<text text-anchor="start" x="400.5" y="-18.5" font-family="Helvetica,sans-Serif" font-size="10.00"># AddSiteRateSuffStat()</text>
<text text-anchor="start" x="400.5" y="-7.5" font-family="Helvetica,sans-Serif" font-size="10.00"># AddSiteProfileSuffStat()</text>
</g>
<!-- Node22 -->
<g id="node2" class="node"><title>Node22</title>
<g id="a_node2"><a xlink:href="classMatrixSubstitutionProcess.html" target="_top" xlink:title="{MatrixSubstitutionProcess\n||+ MatrixSubstitutionProcess()\l+ ~MatrixSubstitutionProcess()\l+ GetNstate()\l+ GetStationary()\l# Propagate()\l# SamplePaths()\l# SampleRootPaths()\l# ResampleAcceptReject()\l# ResampleUniformized()\l# SimuPropagate()\l}">
<polygon fill="none" stroke="black" points="458,-172.5 458,-328.5 610,-328.5 610,-172.5 458,-172.5"/>
<text text-anchor="middle" x="534" y="-316.5" font-family="Helvetica,sans-Serif" font-size="10.00">MatrixSubstitutionProcess</text>
<polyline fill="none" stroke="black" points="458,-309.5 610,-309.5 "/>
<text text-anchor="middle" x="534" y="-297.5" font-family="Helvetica,sans-Serif" font-size="10.00"> </text>
<polyline fill="none" stroke="black" points="458,-290.5 610,-290.5 "/>
<text text-anchor="start" x="466" y="-278.5" font-family="Helvetica,sans-Serif" font-size="10.00">+ MatrixSubstitutionProcess()</text>
<text text-anchor="start" x="466" y="-267.5" font-family="Helvetica,sans-Serif" font-size="10.00">+ ~MatrixSubstitutionProcess()</text>
<text text-anchor="start" x="466" y="-256.5" font-family="Helvetica,sans-Serif" font-size="10.00">+ GetNstate()</text>
<text text-anchor="start" x="466" y="-245.5" font-family="Helvetica,sans-Serif" font-size="10.00">+ GetStationary()</text>
<text text-anchor="start" x="466" y="-234.5" font-family="Helvetica,sans-Serif" font-size="10.00"># Propagate()</text>
<text text-anchor="start" x="466" y="-223.5" font-family="Helvetica,sans-Serif" font-size="10.00"># SamplePaths()</text>
<text text-anchor="start" x="466" y="-212.5" font-family="Helvetica,sans-Serif" font-size="10.00"># SampleRootPaths()</text>
<text text-anchor="start" x="466" y="-201.5" font-family="Helvetica,sans-Serif" font-size="10.00"># ResampleAcceptReject()</text>
<text text-anchor="start" x="466" y="-190.5" font-family="Helvetica,sans-Serif" font-size="10.00"># ResampleUniformized()</text>
<text text-anchor="start" x="466" y="-179.5" font-family="Helvetica,sans-Serif" font-size="10.00"># SimuPropagate()</text>
</a>
</g>
</g>
<!-- Node22&#45;&gt;Node21 -->
<g id="edge1" class="edge"><title>Node22&#45;&gt;Node21</title>
<path fill="none" stroke="midnightblue" d="M501.971,-162.973C498.439,-153.433 494.886,-143.834 491.468,-134.601"/>
<polygon fill="none" stroke="midnightblue" points="498.735,-164.314 505.489,-172.477 505.3,-161.884 498.735,-164.314"/>
</g>
<!-- Node23 -->
<g id="node3" class="node"><title>Node23</title>
<g id="a_node3"><a xlink:href="classSubstitutionProcess.html" target="_top" xlink:title="{SubstitutionProcess\n||+ SubstitutionProcess()\l+ ~SubstitutionProcess()\l+ GetNsite()\l+ GetDim()\l+ GetNstate()\l+ GetGlobalNstate()\l+ GetStationary()\l+ GetSiteMin()\l+ GetSiteMax()\l+ GetInfProbCount()\l# Create()\l# Delete()\l# CreateConditionalLikelihood\lVector()\l# DeleteConditionalLikelihood\lVector()\l# CreateProbVector()\l# CreateCondSiteLogL()\l# DeleteCondSiteLogL()\l# DrawAllocations()\l# DrawAllocationsFromPrior()\l# Reset()\l# Multiply()\l# MultiplyByStationaries()\l# Offset()\l# Initialize()\l# ComputeLikelihood()\l# ConditionalLikelihoodsTo\lStatePostProbs()\l# Propagate()\l# SimuPropagate()\l# ChooseStates()\l# ChooseStatesAtEquilibrium()\l# SetCondToStates()\l# SamplePaths()\l# SampleRootPaths()\l}">
<polygon fill="none" stroke="black" points="458.5,-366.5 458.5,-808.5 609.5,-808.5 609.5,-366.5 458.5,-366.5"/>
<text text-anchor="middle" x="534" y="-796.5" font-family="Helvetica,sans-Serif" font-size="10.00">SubstitutionProcess</text>
<polyline fill="none" stroke="black" points="458.5,-789.5 609.5,-789.5 "/>
<text text-anchor="middle" x="534" y="-777.5" font-family="Helvetica,sans-Serif" font-size="10.00"> </text>
<polyline fill="none" stroke="black" points="458.5,-770.5 609.5,-770.5 "/>
<text text-anchor="start" x="466.5" y="-758.5" font-family="Helvetica,sans-Serif" font-size="10.00">+ SubstitutionProcess()</text>
<text text-anchor="start" x="466.5" y="-747.5" font-family="Helvetica,sans-Serif" font-size="10.00">+ ~SubstitutionProcess()</text>
<text text-anchor="start" x="466.5" y="-736.5" font-family="Helvetica,sans-Serif" font-size="10.00">+ GetNsite()</text>
<text text-anchor="start" x="466.5" y="-725.5" font-family="Helvetica,sans-Serif" font-size="10.00">+ GetDim()</text>
<text text-anchor="start" x="466.5" y="-714.5" font-family="Helvetica,sans-Serif" font-size="10.00">+ GetNstate()</text>
<text text-anchor="start" x="466.5" y="-703.5" font-family="Helvetica,sans-Serif" font-size="10.00">+ GetGlobalNstate()</text>
<text text-anchor="start" x="466.5" y="-692.5" font-family="Helvetica,sans-Serif" font-size="10.00">+ GetStationary()</text>
<text text-anchor="start" x="466.5" y="-681.5" font-family="Helvetica,sans-Serif" font-size="10.00">+ GetSiteMin()</text>
<text text-anchor="start" x="466.5" y="-670.5" font-family="Helvetica,sans-Serif" font-size="10.00">+ GetSiteMax()</text>
<text text-anchor="start" x="466.5" y="-659.5" font-family="Helvetica,sans-Serif" font-size="10.00">+ GetInfProbCount()</text>
<text text-anchor="start" x="466.5" y="-648.5" font-family="Helvetica,sans-Serif" font-size="10.00"># Create()</text>
<text text-anchor="start" x="466.5" y="-637.5" font-family="Helvetica,sans-Serif" font-size="10.00"># Delete()</text>
<text text-anchor="start" x="466.5" y="-626.5" font-family="Helvetica,sans-Serif" font-size="10.00"># CreateConditionalLikelihood</text>
<text text-anchor="start" x="466.5" y="-615.5" font-family="Helvetica,sans-Serif" font-size="10.00">Vector()</text>
<text text-anchor="start" x="466.5" y="-604.5" font-family="Helvetica,sans-Serif" font-size="10.00"># DeleteConditionalLikelihood</text>
<text text-anchor="start" x="466.5" y="-593.5" font-family="Helvetica,sans-Serif" font-size="10.00">Vector()</text>
<text text-anchor="start" x="466.5" y="-582.5" font-family="Helvetica,sans-Serif" font-size="10.00"># CreateProbVector()</text>
<text text-anchor="start" x="466.5" y="-571.5" font-family="Helvetica,sans-Serif" font-size="10.00"># CreateCondSiteLogL()</text>
<text text-anchor="start" x="466.5" y="-560.5" font-family="Helvetica,sans-Serif" font-size="10.00"># DeleteCondSiteLogL()</text>
<text text-anchor="start" x="466.5" y="-549.5" font-family="Helvetica,sans-Serif" font-size="10.00"># DrawAllocations()</text>
<text text-anchor="start" x="466.5" y="-538.5" font-family="Helvetica,sans-Serif" font-size="10.00"># DrawAllocationsFromPrior()</text>
<text text-anchor="start" x="466.5" y="-527.5" font-family="Helvetica,sans-Serif" font-size="10.00"># Reset()</text>
<text text-anchor="start" x="466.5" y="-516.5" font-family="Helvetica,sans-Serif" font-size="10.00"># Multiply()</text>
<text text-anchor="start" x="466.5" y="-505.5" font-family="Helvetica,sans-Serif" font-size="10.00"># MultiplyByStationaries()</text>
<text text-anchor="start" x="466.5" y="-494.5" font-family="Helvetica,sans-Serif" font-size="10.00"># Offset()</text>
<text text-anchor="start" x="466.5" y="-483.5" font-family="Helvetica,sans-Serif" font-size="10.00"># Initialize()</text>
<text text-anchor="start" x="466.5" y="-472.5" font-family="Helvetica,sans-Serif" font-size="10.00"># ComputeLikelihood()</text>
<text text-anchor="start" x="466.5" y="-461.5" font-family="Helvetica,sans-Serif" font-size="10.00"># ConditionalLikelihoodsTo</text>
<text text-anchor="start" x="466.5" y="-450.5" font-family="Helvetica,sans-Serif" font-size="10.00">StatePostProbs()</text>
<text text-anchor="start" x="466.5" y="-439.5" font-family="Helvetica,sans-Serif" font-size="10.00"># Propagate()</text>
<text text-anchor="start" x="466.5" y="-428.5" font-family="Helvetica,sans-Serif" font-size="10.00"># SimuPropagate()</text>
<text text-anchor="start" x="466.5" y="-417.5" font-family="Helvetica,sans-Serif" font-size="10.00"># ChooseStates()</text>
<text text-anchor="start" x="466.5" y="-406.5" font-family="Helvetica,sans-Serif" font-size="10.00"># ChooseStatesAtEquilibrium()</text>
<text text-anchor="start" x="466.5" y="-395.5" font-family="Helvetica,sans-Serif" font-size="10.00"># SetCondToStates()</text>
<text text-anchor="start" x="466.5" y="-384.5" font-family="Helvetica,sans-Serif" font-size="10.00"># SamplePaths()</text>
<text text-anchor="start" x="466.5" y="-373.5" font-family="Helvetica,sans-Serif" font-size="10.00"># SampleRootPaths()</text>
</a>
</g>
</g>
<!-- Node23&#45;&gt;Node22 -->
<g id="edge2" class="edge"><title>Node23&#45;&gt;Node22</title>
<path fill="none" stroke="midnightblue" d="M534,-356.25C534,-346.691 534,-337.452 534,-328.684"/>
<polygon fill="none" stroke="midnightblue" points="530.5,-356.319 534,-366.319 537.5,-356.319 530.5,-356.319"/>
</g>
<!-- Node24 -->
<g id="node4" class="node"><title>Node24</title>
<g id="a_node4"><a xlink:href="classRateProcess.html" target="_top" xlink:title="{RateProcess\n||+ RateProcess()\l+ ~RateProcess()\l+ GetVersion()\l+ GetNsite()\l+ GetNrate()\l+ GetRate()\l+ GetRateWeight()\l+ GetMeanRate()\l+ GetPriorMeanRate()\l+ GetAlpha()\l+ ActivateSumOverRateAllocations()\l+ InactivateSumOverRateAllocations()\l+ SumOverRateAllocations()\l+ LogRatePrior()\l+ SampleRate()\l+ ToStream()\l+ FromStream()\l# GlobalUpdateSiteRateSuffStat()\l# SlaveUpdateSiteRateSuffStat()\l# UpdateSiteRateSuffStat()\l# GetSiteRateSuffStatBeta()\l# GetSiteRateSuffStatCount()\l# Create()\l# Delete()\l# GetNprocs()\l# GetMyid()\l# GetSiteMin()\l# GetSiteMax()\l}">
<polygon fill="none" stroke="black" points="27.5,-885 27.5,-1239 212.5,-1239 212.5,-885 27.5,-885"/>
<text text-anchor="middle" x="120" y="-1227" font-family="Helvetica,sans-Serif" font-size="10.00">RateProcess</text>
<polyline fill="none" stroke="black" points="27.5,-1220 212.5,-1220 "/>
<text text-anchor="middle" x="120" y="-1208" font-family="Helvetica,sans-Serif" font-size="10.00"> </text>
<polyline fill="none" stroke="black" points="27.5,-1201 212.5,-1201 "/>
<text text-anchor="start" x="35.5" y="-1189" font-family="Helvetica,sans-Serif" font-size="10.00">+ RateProcess()</text>
<text text-anchor="start" x="35.5" y="-1178" font-family="Helvetica,sans-Serif" font-size="10.00">+ ~RateProcess()</text>
<text text-anchor="start" x="35.5" y="-1167" font-family="Helvetica,sans-Serif" font-size="10.00">+ GetVersion()</text>
<text text-anchor="start" x="35.5" y="-1156" font-family="Helvetica,sans-Serif" font-size="10.00">+ GetNsite()</text>
<text text-anchor="start" x="35.5" y="-1145" font-family="Helvetica,sans-Serif" font-size="10.00">+ GetNrate()</text>
<text text-anchor="start" x="35.5" y="-1134" font-family="Helvetica,sans-Serif" font-size="10.00">+ GetRate()</text>
<text text-anchor="start" x="35.5" y="-1123" font-family="Helvetica,sans-Serif" font-size="10.00">+ GetRateWeight()</text>
<text text-anchor="start" x="35.5" y="-1112" font-family="Helvetica,sans-Serif" font-size="10.00">+ GetMeanRate()</text>
<text text-anchor="start" x="35.5" y="-1101" font-family="Helvetica,sans-Serif" font-size="10.00">+ GetPriorMeanRate()</text>
<text text-anchor="start" x="35.5" y="-1090" font-family="Helvetica,sans-Serif" font-size="10.00">+ GetAlpha()</text>
<text text-anchor="start" x="35.5" y="-1079" font-family="Helvetica,sans-Serif" font-size="10.00">+ ActivateSumOverRateAllocations()</text>
<text text-anchor="start" x="35.5" y="-1068" font-family="Helvetica,sans-Serif" font-size="10.00">+ InactivateSumOverRateAllocations()</text>
<text text-anchor="start" x="35.5" y="-1057" font-family="Helvetica,sans-Serif" font-size="10.00">+ SumOverRateAllocations()</text>
<text text-anchor="start" x="35.5" y="-1046" font-family="Helvetica,sans-Serif" font-size="10.00">+ LogRatePrior()</text>
<text text-anchor="start" x="35.5" y="-1035" font-family="Helvetica,sans-Serif" font-size="10.00">+ SampleRate()</text>
<text text-anchor="start" x="35.5" y="-1024" font-family="Helvetica,sans-Serif" font-size="10.00">+ ToStream()</text>
<text text-anchor="start" x="35.5" y="-1013" font-family="Helvetica,sans-Serif" font-size="10.00">+ FromStream()</text>
<text text-anchor="start" x="35.5" y="-1002" font-family="Helvetica,sans-Serif" font-size="10.00"># GlobalUpdateSiteRateSuffStat()</text>
<text text-anchor="start" x="35.5" y="-991" font-family="Helvetica,sans-Serif" font-size="10.00"># SlaveUpdateSiteRateSuffStat()</text>
<text text-anchor="start" x="35.5" y="-980" font-family="Helvetica,sans-Serif" font-size="10.00"># UpdateSiteRateSuffStat()</text>
<text text-anchor="start" x="35.5" y="-969" font-family="Helvetica,sans-Serif" font-size="10.00"># GetSiteRateSuffStatBeta()</text>
<text text-anchor="start" x="35.5" y="-958" font-family="Helvetica,sans-Serif" font-size="10.00"># GetSiteRateSuffStatCount()</text>
<text text-anchor="start" x="35.5" y="-947" font-family="Helvetica,sans-Serif" font-size="10.00"># Create()</text>
<text text-anchor="start" x="35.5" y="-936" font-family="Helvetica,sans-Serif" font-size="10.00"># Delete()</text>
<text text-anchor="start" x="35.5" y="-925" font-family="Helvetica,sans-Serif" font-size="10.00"># GetNprocs()</text>
<text text-anchor="start" x="35.5" y="-914" font-family="Helvetica,sans-Serif" font-size="10.00"># GetMyid()</text>
<text text-anchor="start" x="35.5" y="-903" font-family="Helvetica,sans-Serif" font-size="10.00"># GetSiteMin()</text>
<text text-anchor="start" x="35.5" y="-892" font-family="Helvetica,sans-Serif" font-size="10.00"># GetSiteMax()</text>
</a>
</g>
</g>
<!-- Node24&#45;&gt;Node23 -->
<g id="edge3" class="edge"><title>Node24&#45;&gt;Node23</title>
<path fill="none" stroke="midnightblue" d="M219.15,-899.569C237.283,-879.19 257.641,-860.455 280,-846 344.207,-804.491 389.912,-858.712 448,-809 451.59,-805.928 455.031,-802.686 458.33,-799.297"/>
<polygon fill="none" stroke="midnightblue" points="216.483,-897.302 212.57,-907.147 221.769,-901.891 216.483,-897.302"/>
</g>
<!-- Node25 -->
<g id="node5" class="node"><title>Node25</title>
<g id="a_node5"><a xlink:href="classChrono.html" target="_top" xlink:title="{Chrono\n||+ Chrono()\l+ ~Chrono()\l+ Reset()\l+ Start()\l+ Stop()\l+ ToStream()\l+ FromStream()\l+ operator++()\l+ GetTime()\l+ GetTimePerCount()\l+ GetCount()\l}">
<polygon fill="none" stroke="black" points="0,-1358.5 0,-1525.5 110,-1525.5 110,-1358.5 0,-1358.5"/>
<text text-anchor="middle" x="55" y="-1513.5" font-family="Helvetica,sans-Serif" font-size="10.00">Chrono</text>
<polyline fill="none" stroke="black" points="0,-1506.5 110,-1506.5 "/>
<text text-anchor="middle" x="55" y="-1494.5" font-family="Helvetica,sans-Serif" font-size="10.00"> </text>
<polyline fill="none" stroke="black" points="0,-1487.5 110,-1487.5 "/>
<text text-anchor="start" x="8" y="-1475.5" font-family="Helvetica,sans-Serif" font-size="10.00">+ Chrono()</text>
<text text-anchor="start" x="8" y="-1464.5" font-family="Helvetica,sans-Serif" font-size="10.00">+ ~Chrono()</text>
<text text-anchor="start" x="8" y="-1453.5" font-family="Helvetica,sans-Serif" font-size="10.00">+ Reset()</text>
<text text-anchor="start" x="8" y="-1442.5" font-family="Helvetica,sans-Serif" font-size="10.00">+ Start()</text>
<text text-anchor="start" x="8" y="-1431.5" font-family="Helvetica,sans-Serif" font-size="10.00">+ Stop()</text>
<text text-anchor="start" x="8" y="-1420.5" font-family="Helvetica,sans-Serif" font-size="10.00">+ ToStream()</text>
<text text-anchor="start" x="8" y="-1409.5" font-family="Helvetica,sans-Serif" font-size="10.00">+ FromStream()</text>
<text text-anchor="start" x="8" y="-1398.5" font-family="Helvetica,sans-Serif" font-size="10.00">+ operator++()</text>
<text text-anchor="start" x="8" y="-1387.5" font-family="Helvetica,sans-Serif" font-size="10.00">+ GetTime()</text>
<text text-anchor="start" x="8" y="-1376.5" font-family="Helvetica,sans-Serif" font-size="10.00">+ GetTimePerCount()</text>
<text text-anchor="start" x="8" y="-1365.5" font-family="Helvetica,sans-Serif" font-size="10.00">+ GetCount()</text>
</a>
</g>
</g>
<!-- Node25&#45;&gt;Node24 -->
<g id="edge4" class="edge"><title>Node25&#45;&gt;Node24</title>
<path fill="none" stroke="#404040" d="M13.787,-1358.42C8.01889,-1338.18 5.41602,-1316.45 10,-1296 13.4311,-1280.7 17.9858,-1265.21 23.2919,-1249.89"/>
<polygon fill="none" stroke="#404040" points="23.4321,-1249.5 21.6966,-1242.5 27.4899,-1238.2 29.2254,-1245.2 23.4321,-1249.5"/>
<text text-anchor="middle" x="37.5" y="-1315.5" font-family="Helvetica,sans-Serif" font-size="10.00"> #chronorate</text>
</g>
<!-- Node28 -->
<g id="node8" class="node"><title>Node28</title>
<g id="a_node8"><a xlink:href="classProfileProcess.html" target="_top" xlink:title="{ProfileProcess\n||+ ProfileProcess()\l+ ~ProfileProcess()\l+ GetVersion()\l+ GetStatInfCount()\l+ GetDim()\l+ GetNsite()\l+ GetProfile()\l+ GetStateSpace()\l+ LogProfilePrior()\l+ SampleProfile()\l+ GetMeanStationaryEntropy()\l+ GetSiteStationaryEntropy()\l+ UpdateSiteProfileSuffStat()\l+ GlobalUpdateSiteProfileSuffStat()\l+ SlaveUpdateSiteProfileSuffStat()\l+ GlobalUpdateParameters()\l+ SlaveUpdateParameters()\l+ ProfileSuffStatLogProb()\l+ ToStream()\l+ FromStream()\l+ SetBurnin()\l+ isObserved()\l+ GetMinStat()\l+ GetMinMinStat()\l# DrawProfileFromPrior()\l# GetNormalizationFactor()\l# Create()\l# Delete()\l# GetNprocs()\l# GetMyid()\l# GetSiteMin()\l# GetSiteMax()\l# GetEmpiricalFreq()\l# GetMinTotWeight()\l# SetMinTotWeight()\l}">
<polygon fill="none" stroke="black" points="289,-846.5 289,-1277.5 461,-1277.5 461,-846.5 289,-846.5"/>
<text text-anchor="middle" x="375" y="-1265.5" font-family="Helvetica,sans-Serif" font-size="10.00">ProfileProcess</text>
<polyline fill="none" stroke="black" points="289,-1258.5 461,-1258.5 "/>
<text text-anchor="middle" x="375" y="-1246.5" font-family="Helvetica,sans-Serif" font-size="10.00"> </text>
<polyline fill="none" stroke="black" points="289,-1239.5 461,-1239.5 "/>
<text text-anchor="start" x="297" y="-1227.5" font-family="Helvetica,sans-Serif" font-size="10.00">+ ProfileProcess()</text>
<text text-anchor="start" x="297" y="-1216.5" font-family="Helvetica,sans-Serif" font-size="10.00">+ ~ProfileProcess()</text>
<text text-anchor="start" x="297" y="-1205.5" font-family="Helvetica,sans-Serif" font-size="10.00">+ GetVersion()</text>
<text text-anchor="start" x="297" y="-1194.5" font-family="Helvetica,sans-Serif" font-size="10.00">+ GetStatInfCount()</text>
<text text-anchor="start" x="297" y="-1183.5" font-family="Helvetica,sans-Serif" font-size="10.00">+ GetDim()</text>
<text text-anchor="start" x="297" y="-1172.5" font-family="Helvetica,sans-Serif" font-size="10.00">+ GetNsite()</text>
<text text-anchor="start" x="297" y="-1161.5" font-family="Helvetica,sans-Serif" font-size="10.00">+ GetProfile()</text>
<text text-anchor="start" x="297" y="-1150.5" font-family="Helvetica,sans-Serif" font-size="10.00">+ GetStateSpace()</text>
<text text-anchor="start" x="297" y="-1139.5" font-family="Helvetica,sans-Serif" font-size="10.00">+ LogProfilePrior()</text>
<text text-anchor="start" x="297" y="-1128.5" font-family="Helvetica,sans-Serif" font-size="10.00">+ SampleProfile()</text>
<text text-anchor="start" x="297" y="-1117.5" font-family="Helvetica,sans-Serif" font-size="10.00">+ GetMeanStationaryEntropy()</text>
<text text-anchor="start" x="297" y="-1106.5" font-family="Helvetica,sans-Serif" font-size="10.00">+ GetSiteStationaryEntropy()</text>
<text text-anchor="start" x="297" y="-1095.5" font-family="Helvetica,sans-Serif" font-size="10.00">+ UpdateSiteProfileSuffStat()</text>
<text text-anchor="start" x="297" y="-1084.5" font-family="Helvetica,sans-Serif" font-size="10.00">+ GlobalUpdateSiteProfileSuffStat()</text>
<text text-anchor="start" x="297" y="-1073.5" font-family="Helvetica,sans-Serif" font-size="10.00">+ SlaveUpdateSiteProfileSuffStat()</text>
<text text-anchor="start" x="297" y="-1062.5" font-family="Helvetica,sans-Serif" font-size="10.00">+ GlobalUpdateParameters()</text>
<text text-anchor="start" x="297" y="-1051.5" font-family="Helvetica,sans-Serif" font-size="10.00">+ SlaveUpdateParameters()</text>
<text text-anchor="start" x="297" y="-1040.5" font-family="Helvetica,sans-Serif" font-size="10.00">+ ProfileSuffStatLogProb()</text>
<text text-anchor="start" x="297" y="-1029.5" font-family="Helvetica,sans-Serif" font-size="10.00">+ ToStream()</text>
<text text-anchor="start" x="297" y="-1018.5" font-family="Helvetica,sans-Serif" font-size="10.00">+ FromStream()</text>
<text text-anchor="start" x="297" y="-1007.5" font-family="Helvetica,sans-Serif" font-size="10.00">+ SetBurnin()</text>
<text text-anchor="start" x="297" y="-996.5" font-family="Helvetica,sans-Serif" font-size="10.00">+ isObserved()</text>
<text text-anchor="start" x="297" y="-985.5" font-family="Helvetica,sans-Serif" font-size="10.00">+ GetMinStat()</text>
<text text-anchor="start" x="297" y="-974.5" font-family="Helvetica,sans-Serif" font-size="10.00">+ GetMinMinStat()</text>
<text text-anchor="start" x="297" y="-963.5" font-family="Helvetica,sans-Serif" font-size="10.00"># DrawProfileFromPrior()</text>
<text text-anchor="start" x="297" y="-952.5" font-family="Helvetica,sans-Serif" font-size="10.00"># GetNormalizationFactor()</text>
<text text-anchor="start" x="297" y="-941.5" font-family="Helvetica,sans-Serif" font-size="10.00"># Create()</text>
<text text-anchor="start" x="297" y="-930.5" font-family="Helvetica,sans-Serif" font-size="10.00"># Delete()</text>
<text text-anchor="start" x="297" y="-919.5" font-family="Helvetica,sans-Serif" font-size="10.00"># GetNprocs()</text>
<text text-anchor="start" x="297" y="-908.5" font-family="Helvetica,sans-Serif" font-size="10.00"># GetMyid()</text>
<text text-anchor="start" x="297" y="-897.5" font-family="Helvetica,sans-Serif" font-size="10.00"># GetSiteMin()</text>
<text text-anchor="start" x="297" y="-886.5" font-family="Helvetica,sans-Serif" font-size="10.00"># GetSiteMax()</text>
<text text-anchor="start" x="297" y="-875.5" font-family="Helvetica,sans-Serif" font-size="10.00"># GetEmpiricalFreq()</text>
<text text-anchor="start" x="297" y="-864.5" font-family="Helvetica,sans-Serif" font-size="10.00"># GetMinTotWeight()</text>
<text text-anchor="start" x="297" y="-853.5" font-family="Helvetica,sans-Serif" font-size="10.00"># SetMinTotWeight()</text>
</a>
</g>
</g>
<!-- Node25&#45;&gt;Node28 -->
<g id="edge8" class="edge"><title>Node25&#45;&gt;Node28</title>
<path fill="none" stroke="#404040" d="M110.166,-1403.57C134.256,-1385.83 161.972,-1363.41 184,-1340 190.295,-1333.31 236.521,-1266.31 281.915,-1199.89"/>
<polygon fill="none" stroke="#404040" points="282.125,-1199.58 282.207,-1192.37 288.894,-1189.68 288.813,-1196.89 282.125,-1199.58"/>
<text text-anchor="middle" x="240.5" y="-1326.5" font-family="Helvetica,sans-Serif" font-size="10.00"> #chronostat</text>
<text text-anchor="middle" x="240.5" y="-1315.5" font-family="Helvetica,sans-Serif" font-size="10.00">#chronorr</text>
<text text-anchor="middle" x="240.5" y="-1304.5" font-family="Helvetica,sans-Serif" font-size="10.00">#chronodp</text>
</g>
<!-- Node26 -->
<g id="node6" class="node"><title>Node26</title>
<polygon fill="none" stroke="#bfbfbf" points="360.5,-1413.5 360.5,-1470.5 389.5,-1470.5 389.5,-1413.5 360.5,-1413.5"/>
<text text-anchor="middle" x="375" y="-1458.5" font-family="Helvetica,sans-Serif" font-size="10.00">int</text>
<polyline fill="none" stroke="#bfbfbf" points="360.5,-1451.5 389.5,-1451.5 "/>
<text text-anchor="middle" x="375" y="-1439.5" font-family="Helvetica,sans-Serif" font-size="10.00"> </text>
<polyline fill="none" stroke="#bfbfbf" points="360.5,-1432.5 389.5,-1432.5 "/>
<text text-anchor="middle" x="375" y="-1420.5" font-family="Helvetica,sans-Serif" font-size="10.00"> </text>
</g>
<!-- Node26&#45;&gt;Node23 -->
<g id="edge13" class="edge"><title>Node26&#45;&gt;Node23</title>
<path fill="none" stroke="#404040" d="M389.652,-1436.08C420.613,-1424.8 492.201,-1393.8 521,-1340 527.162,-1328.49 530.701,-1037.46 532.488,-821.027"/>
<polygon fill="none" stroke="#404040" points="532.489,-820.834 528.538,-814.801 532.587,-808.834 536.538,-814.867 532.489,-820.834"/>
<text text-anchor="middle" x="574" y="-1081.5" font-family="Helvetica,sans-Serif" font-size="10.00"> #sitemin</text>
<text text-anchor="middle" x="574" y="-1070.5" font-family="Helvetica,sans-Serif" font-size="10.00">#suboverflowcount</text>
<text text-anchor="middle" x="574" y="-1059.5" font-family="Helvetica,sans-Serif" font-size="10.00">#infprobcount</text>
<text text-anchor="middle" x="574" y="-1048.5" font-family="Helvetica,sans-Serif" font-size="10.00">#ratealloc</text>
<text text-anchor="middle" x="574" y="-1037.5" font-family="Helvetica,sans-Serif" font-size="10.00">#sitemax</text>
</g>
<!-- Node26&#45;&gt;Node24 -->
<g id="edge5" class="edge"><title>Node26&#45;&gt;Node24</title>
<path fill="none" stroke="#404040" d="M360.333,-1426.28C340.392,-1407.22 302.75,-1374.48 264,-1358 218.413,-1338.61 188.321,-1375.72 154,-1340 140.023,-1325.45 131.541,-1291.05 126.459,-1251.26"/>
<polygon fill="none" stroke="#404040" points="126.458,-1251.25 121.782,-1245.76 125.051,-1239.33 129.727,-1244.82 126.458,-1251.25"/>
<text text-anchor="middle" x="169" y="-1315.5" font-family="Helvetica,sans-Serif" font-size="10.00"> #nsite</text>
</g>
<!-- Node26&#45;&gt;Node28 -->
<g id="edge10" class="edge"><title>Node26&#45;&gt;Node28</title>
<path fill="none" stroke="#404040" d="M375,-1413.2C375,-1385.33 375,-1339.53 375,-1290.11"/>
<polygon fill="none" stroke="#404040" points="375,-1289.82 371,-1283.82 375,-1277.82 379,-1283.82 375,-1289.82"/>
<text text-anchor="middle" x="404" y="-1332" font-family="Helvetica,sans-Serif" font-size="10.00"> #dim</text>
<text text-anchor="middle" x="404" y="-1321" font-family="Helvetica,sans-Serif" font-size="10.00">#statinfcount</text>
<text text-anchor="middle" x="404" y="-1310" font-family="Helvetica,sans-Serif" font-size="10.00">#totstatcount</text>
<text text-anchor="middle" x="404" y="-1299" font-family="Helvetica,sans-Serif" font-size="10.00">#nsite</text>
</g>
<!-- Node27 -->
<g id="node7" class="node"><title>Node27</title>
<polygon fill="none" stroke="#bfbfbf" points="220.5,-1413.5 220.5,-1470.5 255.5,-1470.5 255.5,-1413.5 220.5,-1413.5"/>
<text text-anchor="middle" x="238" y="-1458.5" font-family="Helvetica,sans-Serif" font-size="10.00">bool</text>
<polyline fill="none" stroke="#bfbfbf" points="220.5,-1451.5 255.5,-1451.5 "/>
<text text-anchor="middle" x="238" y="-1439.5" font-family="Helvetica,sans-Serif" font-size="10.00"> </text>
<polyline fill="none" stroke="#bfbfbf" points="220.5,-1432.5 255.5,-1432.5 "/>
<text text-anchor="middle" x="238" y="-1420.5" font-family="Helvetica,sans-Serif" font-size="10.00"> </text>
</g>
<!-- Node27&#45;&gt;Node24 -->
<g id="edge6" class="edge"><title>Node27&#45;&gt;Node24</title>
<path fill="none" stroke="#404040" d="M220.172,-1427.87C197.171,-1411.09 155.744,-1381.43 119,-1358 105.566,-1349.44 95.9489,-1353.81 88,-1340 72.5409,-1313.15 66.8121,-1282.41 66.9144,-1251.4"/>
<polygon fill="none" stroke="#404040" points="66.9242,-1251.05 63.0908,-1244.94 67.2543,-1239.05 71.0877,-1245.16 66.9242,-1251.05"/>
<text text-anchor="middle" x="109.5" y="-1315.5" font-family="Helvetica,sans-Serif" font-size="10.00"> #sumflag</text>
</g>
<!-- Node27&#45;&gt;Node28 -->
<g id="edge11" class="edge"><title>Node27&#45;&gt;Node28</title>
<path fill="none" stroke="#404040" d="M248.074,-1413.2C258.242,-1385.15 274.986,-1338.95 293.027,-1289.17"/>
<polygon fill="none" stroke="#404040" points="293.051,-1289.11 291.335,-1282.1 297.14,-1277.82 298.856,-1284.83 293.051,-1289.11"/>
<text text-anchor="middle" x="325" y="-1321" font-family="Helvetica,sans-Serif" font-size="10.00"> #activesuffstat</text>
<text text-anchor="middle" x="325" y="-1310" font-family="Helvetica,sans-Serif" font-size="10.00">#burnin</text>
</g>
<!-- Node28&#45;&gt;Node23 -->
<g id="edge7" class="edge"><title>Node28&#45;&gt;Node23</title>
<path fill="none" stroke="midnightblue" d="M450.529,-836.55C453.642,-827.299 456.763,-818.024 459.874,-808.781"/>
<polygon fill="none" stroke="midnightblue" points="447.161,-835.586 447.289,-846.18 453.795,-837.819 447.161,-835.586"/>
</g>
<!-- Node30 -->
<g id="node10" class="node"><title>Node30</title>
<g id="a_node10"><a xlink:href="classMatrixProfileProcess.html" target="_top" xlink:title="{MatrixProfileProcess\n||+ MatrixProfileProcess()\l+ ~MatrixProfileProcess()\l+ GetMatrix()\l# CreateMatrices()\l# DeleteMatrices()\l# ProfileProposeMove()\l# UpdateMatrices()\l}">
<polygon fill="none" stroke="black" points="311,-526 311,-649 439,-649 439,-526 311,-526"/>
<text text-anchor="middle" x="375" y="-637" font-family="Helvetica,sans-Serif" font-size="10.00">MatrixProfileProcess</text>
<polyline fill="none" stroke="black" points="311,-630 439,-630 "/>
<text text-anchor="middle" x="375" y="-618" font-family="Helvetica,sans-Serif" font-size="10.00"> </text>
<polyline fill="none" stroke="black" points="311,-611 439,-611 "/>
<text text-anchor="start" x="319" y="-599" font-family="Helvetica,sans-Serif" font-size="10.00">+ MatrixProfileProcess()</text>
<text text-anchor="start" x="319" y="-588" font-family="Helvetica,sans-Serif" font-size="10.00">+ ~MatrixProfileProcess()</text>
<text text-anchor="start" x="319" y="-577" font-family="Helvetica,sans-Serif" font-size="10.00">+ GetMatrix()</text>
<text text-anchor="start" x="319" y="-566" font-family="Helvetica,sans-Serif" font-size="10.00"># CreateMatrices()</text>
<text text-anchor="start" x="319" y="-555" font-family="Helvetica,sans-Serif" font-size="10.00"># DeleteMatrices()</text>
<text text-anchor="start" x="319" y="-544" font-family="Helvetica,sans-Serif" font-size="10.00"># ProfileProposeMove()</text>
<text text-anchor="start" x="319" y="-533" font-family="Helvetica,sans-Serif" font-size="10.00"># UpdateMatrices()</text>
</a>
</g>
</g>
<!-- Node28&#45;&gt;Node30 -->
<g id="edge15" class="edge"><title>Node28&#45;&gt;Node30</title>
<path fill="none" stroke="midnightblue" d="M375,-836.035C375,-767.19 375,-697.065 375,-649.115"/>
<polygon fill="none" stroke="midnightblue" points="371.5,-836.18 375,-846.18 378.5,-836.18 371.5,-836.18"/>
</g>
<!-- Node29 -->
<g id="node9" class="node"><title>Node29</title>
<polygon fill="none" stroke="#bfbfbf" points="531.5,-1413.5 531.5,-1470.5 576.5,-1470.5 576.5,-1413.5 531.5,-1413.5"/>
<text text-anchor="middle" x="554" y="-1458.5" font-family="Helvetica,sans-Serif" font-size="10.00">double</text>
<polyline fill="none" stroke="#bfbfbf" points="531.5,-1451.5 576.5,-1451.5 "/>
<text text-anchor="middle" x="554" y="-1439.5" font-family="Helvetica,sans-Serif" font-size="10.00"> </text>
<polyline fill="none" stroke="#bfbfbf" points="531.5,-1432.5 576.5,-1432.5 "/>
<text text-anchor="middle" x="554" y="-1420.5" font-family="Helvetica,sans-Serif" font-size="10.00"> </text>
</g>
<!-- Node29&#45;&gt;Node23 -->
<g id="edge12" class="edge"><title>Node29&#45;&gt;Node23</title>
<path fill="none" stroke="#404040" d="M569.222,-1413.49C585.757,-1381.9 611.129,-1327.98 621,-1278 658.202,-1089.64 652.141,-1035.46 621,-846 618.743,-832.268 615.851,-818.282 612.501,-804.283"/>
<polygon fill="none" stroke="#404040" points="612.474,-804.173 607.146,-799.313 609.583,-792.527 614.91,-797.386 612.474,-804.173"/>
<text text-anchor="middle" x="679" y="-1076" font-family="Helvetica,sans-Serif" font-size="10.00"> #condsitelogL</text>
<text text-anchor="middle" x="679" y="-1065" font-family="Helvetica,sans-Serif" font-size="10.00">#meansiterate</text>
<text text-anchor="middle" x="679" y="-1054" font-family="Helvetica,sans-Serif" font-size="10.00">#sitelogL</text>
<text text-anchor="middle" x="679" y="-1043" font-family="Helvetica,sans-Serif" font-size="10.00">#logL</text>
</g>
<!-- Node29&#45;&gt;Node28 -->
<g id="edge9" class="edge"><title>Node29&#45;&gt;Node28</title>
<path fill="none" stroke="#404040" d="M540.838,-1413.2C524.615,-1378.95 495.583,-1317.64 466.295,-1255.79"/>
<polygon fill="none" stroke="#404040" points="466.155,-1255.5 459.972,-1251.78 461.019,-1244.65 467.202,-1248.36 466.155,-1255.5"/>
<text text-anchor="middle" x="538" y="-1315.5" font-family="Helvetica,sans-Serif" font-size="10.00"> #mintotweight</text>
</g>
<!-- Node30&#45;&gt;Node22 -->
<g id="edge14" class="edge"><title>Node30&#45;&gt;Node22</title>
<path fill="none" stroke="midnightblue" d="M392.503,-516.087C405.024,-471.618 424.067,-413.753 449,-366 455.589,-353.381 463.506,-340.654 471.822,-328.505"/>
<polygon fill="none" stroke="midnightblue" points="389.071,-515.365 389.774,-525.936 395.817,-517.234 389.071,-515.365"/>
</g>
<!-- Node31 -->
<g id="node11" class="node"><title>Node31</title>
<g id="a_node11"><a xlink:href="classGeneralPathSuffStatMatrixProfileProcess.html" target="_top" xlink:title="{GeneralPathSuffStatMatrix\lProfileProcess\n||+ GeneralPathSuffStatMatrix\lProfileProcess()\l+ ~GeneralPathSuffStatMatrix\lProfileProcess()\l+ GetSitePairCount()\l+ GetSiteWaitingTime()\l+ GetSiteRootState()\l}">
<polygon fill="none" stroke="black" points="290.5,-183.5 290.5,-317.5 439.5,-317.5 439.5,-183.5 290.5,-183.5"/>
<text text-anchor="start" x="298.5" y="-305.5" font-family="Helvetica,sans-Serif" font-size="10.00">GeneralPathSuffStatMatrix</text>
<text text-anchor="middle" x="365" y="-294.5" font-family="Helvetica,sans-Serif" font-size="10.00">ProfileProcess</text>
<polyline fill="none" stroke="black" points="290.5,-287.5 439.5,-287.5 "/>
<text text-anchor="middle" x="365" y="-275.5" font-family="Helvetica,sans-Serif" font-size="10.00"> </text>
<polyline fill="none" stroke="black" points="290.5,-268.5 439.5,-268.5 "/>
<text text-anchor="start" x="298.5" y="-256.5" font-family="Helvetica,sans-Serif" font-size="10.00">+ GeneralPathSuffStatMatrix</text>
<text text-anchor="start" x="298.5" y="-245.5" font-family="Helvetica,sans-Serif" font-size="10.00">ProfileProcess()</text>
<text text-anchor="start" x="298.5" y="-234.5" font-family="Helvetica,sans-Serif" font-size="10.00">+ ~GeneralPathSuffStatMatrix</text>
<text text-anchor="start" x="298.5" y="-223.5" font-family="Helvetica,sans-Serif" font-size="10.00">ProfileProcess()</text>
<text text-anchor="start" x="298.5" y="-212.5" font-family="Helvetica,sans-Serif" font-size="10.00">+ GetSitePairCount()</text>
<text text-anchor="start" x="298.5" y="-201.5" font-family="Helvetica,sans-Serif" font-size="10.00">+ GetSiteWaitingTime()</text>
<text text-anchor="start" x="298.5" y="-190.5" font-family="Helvetica,sans-Serif" font-size="10.00">+ GetSiteRootState()</text>
</a>
</g>
</g>
<!-- Node30&#45;&gt;Node31 -->
<g id="edge17" class="edge"><title>Node30&#45;&gt;Node31</title>
<path fill="none" stroke="midnightblue" d="M372.883,-515.575C371.138,-457.131 368.682,-374.86 366.977,-317.739"/>
<polygon fill="none" stroke="midnightblue" points="369.392,-515.943 373.189,-525.834 376.389,-515.734 369.392,-515.943"/>
</g>
<!-- Node31&#45;&gt;Node21 -->
<g id="edge16" class="edge"><title>Node31&#45;&gt;Node21</title>
<path fill="none" stroke="midnightblue" d="M407.339,-174.369C414.749,-161.219 422.411,-147.624 429.673,-134.737"/>
<polygon fill="none" stroke="midnightblue" points="404.118,-172.956 402.257,-183.387 410.216,-176.393 404.118,-172.956"/>
</g>
</g>
</svg>
