<?xml version="1.0" encoding="UTF-8" standalone="no"?>
<!DOCTYPE svg PUBLIC "-//W3C//DTD SVG 1.1//EN"
 "http://www.w3.org/Graphics/SVG/1.1/DTD/svg11.dtd">
<!-- Generated by graphviz version 2.38.0 (20140413.2041)
 -->
<!-- Title: PathConjugateTree Pages: 1 -->
<svg width="372pt" height="485pt"
 viewBox="0.00 0.00 372.00 485.00" xmlns="http://www.w3.org/2000/svg" xmlns:xlink="http://www.w3.org/1999/xlink">
<g id="graph0" class="graph" transform="scale(1 1) rotate(0) translate(4 481)">
<title>PathConjugateTree</title>
<!-- Node0 -->
<g id="node1" class="node"><title>Node0</title>
<polygon fill="#bfbfbf" stroke="black" points="108.5,-116.5 108.5,-382.5 260.5,-382.5 260.5,-116.5 108.5,-116.5"/>
<text text-anchor="middle" x="184.5" y="-370.5" font-family="Helvetica,sans-Serif" font-size="10.00">PathConjugateTree</text>
<polyline fill="none" stroke="black" points="108.5,-363.5 260.5,-363.5 "/>
<text text-anchor="start" x="116.5" y="-351.5" font-family="Helvetica,sans-Serif" font-size="10.00"># lengthtree</text>
<text text-anchor="start" x="116.5" y="-340.5" font-family="Helvetica,sans-Serif" font-size="10.00"># data</text>
<polyline fill="none" stroke="black" points="108.5,-333.5 260.5,-333.5 "/>
<text text-anchor="start" x="116.5" y="-321.5" font-family="Helvetica,sans-Serif" font-size="10.00">+ PathConjugateTree()</text>
<text text-anchor="start" x="116.5" y="-310.5" font-family="Helvetica,sans-Serif" font-size="10.00">+ ~PathConjugateTree()</text>
<text text-anchor="start" x="116.5" y="-299.5" font-family="Helvetica,sans-Serif" font-size="10.00">+ GetLengthTree()</text>
<text text-anchor="start" x="116.5" y="-288.5" font-family="Helvetica,sans-Serif" font-size="10.00">+ GetData()</text>
<text text-anchor="start" x="116.5" y="-277.5" font-family="Helvetica,sans-Serif" font-size="10.00">+ GetTree()</text>
<text text-anchor="start" x="116.5" y="-266.5" font-family="Helvetica,sans-Serif" font-size="10.00">+ ActivateSufficientStatistic()</text>
<text text-anchor="start" x="116.5" y="-255.5" font-family="Helvetica,sans-Serif" font-size="10.00">+ InactivateSufficientStatistic()</text>
<text text-anchor="start" x="116.5" y="-244.5" font-family="Helvetica,sans-Serif" font-size="10.00">+ PrintSynNonSyn()</text>
<text text-anchor="start" x="116.5" y="-233.5" font-family="Helvetica,sans-Serif" font-size="10.00">+ PrintSuffStat()</text>
<text text-anchor="start" x="116.5" y="-222.5" font-family="Helvetica,sans-Serif" font-size="10.00">+ GetLogProb()</text>
<text text-anchor="start" x="116.5" y="-211.5" font-family="Helvetica,sans-Serif" font-size="10.00">+ ReadFromFile()</text>
<text text-anchor="start" x="116.5" y="-200.5" font-family="Helvetica,sans-Serif" font-size="10.00"># RecursiveGetLogProb()</text>
<text text-anchor="start" x="116.5" y="-189.5" font-family="Helvetica,sans-Serif" font-size="10.00"># RecursiveAddSuffStatFrom</text>
<text text-anchor="start" x="116.5" y="-178.5" font-family="Helvetica,sans-Serif" font-size="10.00">Stream()</text>
<text text-anchor="start" x="116.5" y="-167.5" font-family="Helvetica,sans-Serif" font-size="10.00"># RecursivePrintSuffStat()</text>
<text text-anchor="start" x="116.5" y="-156.5" font-family="Helvetica,sans-Serif" font-size="10.00"># RecursivePrintSynNonSyn()</text>
<text text-anchor="start" x="116.5" y="-145.5" font-family="Helvetica,sans-Serif" font-size="10.00"># GetPathConjugate()</text>
<text text-anchor="start" x="116.5" y="-134.5" font-family="Helvetica,sans-Serif" font-size="10.00"># ActivateSufficientStatistic()</text>
<text text-anchor="start" x="116.5" y="-123.5" font-family="Helvetica,sans-Serif" font-size="10.00"># InactivateSufficientStatistic()</text>
</g>
<!-- Node2 -->
<g id="node3" class="node"><title>Node2</title>
<g id="a_node3"><a xlink:href="classBranchMatrixPathConjugateTree.html" target="_top" xlink:title="{BranchMatrixPathConjugateTree\n|# matrixtree\l|+ BranchMatrixPathConjugateTree()\l+ ~BranchMatrixPathConjugateTree()\l# CreateBranchVal()\l}">
<polygon fill="none" stroke="black" points="0,-0.5 0,-79.5 179,-79.5 179,-0.5 0,-0.5"/>
<text text-anchor="middle" x="89.5" y="-67.5" font-family="Helvetica,sans-Serif" font-size="10.00">BranchMatrixPathConjugateTree</text>
<polyline fill="none" stroke="black" points="0,-60.5 179,-60.5 "/>
<text text-anchor="start" x="8" y="-48.5" font-family="Helvetica,sans-Serif" font-size="10.00"># matrixtree</text>
<polyline fill="none" stroke="black" points="0,-41.5 179,-41.5 "/>
<text text-anchor="start" x="8" y="-29.5" font-family="Helvetica,sans-Serif" font-size="10.00">+ BranchMatrixPathConjugateTree()</text>
<text text-anchor="start" x="8" y="-18.5" font-family="Helvetica,sans-Serif" font-size="10.00">+ ~BranchMatrixPathConjugateTree()</text>
<text text-anchor="start" x="8" y="-7.5" font-family="Helvetica,sans-Serif" font-size="10.00"># CreateBranchVal()</text>
</a>
</g>
</g>
<!-- Node0&#45;&gt;Node2 -->
<g id="edge2" class="edge"><title>Node0&#45;&gt;Node2</title>
<path fill="none" stroke="midnightblue" d="M119.851,-107.292C115.328,-97.4139 111.045,-88.0587 107.199,-79.6585"/>
<polygon fill="none" stroke="midnightblue" points="116.721,-108.864 124.066,-116.499 123.085,-105.95 116.721,-108.864"/>
</g>
<!-- Node3 -->
<g id="node4" class="node"><title>Node3</title>
<g id="a_node4"><a xlink:href="classOneMatrixPathConjugateTree.html" target="_top" xlink:title="{OneMatrixPathConjugateTree\n|# matrix\l|+ OneMatrixPathConjugateTree()\l+ ~OneMatrixPathConjugateTree()\l# CreateBranchVal()\l}">
<polygon fill="none" stroke="black" points="197,-0.5 197,-79.5 364,-79.5 364,-0.5 197,-0.5"/>
<text text-anchor="middle" x="280.5" y="-67.5" font-family="Helvetica,sans-Serif" font-size="10.00">OneMatrixPathConjugateTree</text>
<polyline fill="none" stroke="black" points="197,-60.5 364,-60.5 "/>
<text text-anchor="start" x="205" y="-48.5" font-family="Helvetica,sans-Serif" font-size="10.00"># matrix</text>
<polyline fill="none" stroke="black" points="197,-41.5 364,-41.5 "/>
<text text-anchor="start" x="205" y="-29.5" font-family="Helvetica,sans-Serif" font-size="10.00">+ OneMatrixPathConjugateTree()</text>
<text text-anchor="start" x="205" y="-18.5" font-family="Helvetica,sans-Serif" font-size="10.00">+ ~OneMatrixPathConjugateTree()</text>
<text text-anchor="start" x="205" y="-7.5" font-family="Helvetica,sans-Serif" font-size="10.00"># CreateBranchVal()</text>
</a>
</g>
</g>
<!-- Node0&#45;&gt;Node3 -->
<g id="edge3" class="edge"><title>Node0&#45;&gt;Node3</title>
<path fill="none" stroke="midnightblue" d="M249.83,-107.292C254.4,-97.4139 258.728,-88.0587 262.615,-79.6585"/>
<polygon fill="none" stroke="midnightblue" points="246.593,-105.954 245.57,-116.499 252.946,-108.893 246.593,-105.954"/>
</g>
<!-- Node1 -->
<g id="node2" class="node"><title>Node1</title>
<g id="a_node2"><a xlink:href="classBranchValPtrTree.html" target="_top" xlink:title="{BranchValPtrTree\&lt; PathConjugate \&gt;\n||}">
<polygon fill="none" stroke="black" points="96.5,-419.5 96.5,-476.5 272.5,-476.5 272.5,-419.5 96.5,-419.5"/>
<text text-anchor="middle" x="184.5" y="-464.5" font-family="Helvetica,sans-Serif" font-size="10.00">BranchValPtrTree&lt; PathConjugate &gt;</text>
<polyline fill="none" stroke="black" points="96.5,-457.5 272.5,-457.5 "/>
<text text-anchor="middle" x="184.5" y="-445.5" font-family="Helvetica,sans-Serif" font-size="10.00"> </text>
<polyline fill="none" stroke="black" points="96.5,-438.5 272.5,-438.5 "/>
<text text-anchor="middle" x="184.5" y="-426.5" font-family="Helvetica,sans-Serif" font-size="10.00"> </text>
</a>
</g>
</g>
<!-- Node1&#45;&gt;Node0 -->
<g id="edge1" class="edge"><title>Node1&#45;&gt;Node0</title>
<path fill="none" stroke="midnightblue" d="M184.5,-409.205C184.5,-401.137 184.5,-392.18 184.5,-382.746"/>
<polygon fill="none" stroke="midnightblue" points="181,-409.263 184.5,-419.263 188,-409.263 181,-409.263"/>
</g>
</g>
</svg>
