<?xml version="1.0" encoding="UTF-8" standalone="no"?>
<!DOCTYPE svg PUBLIC "-//W3C//DTD SVG 1.1//EN"
 "http://www.w3.org/Graphics/SVG/1.1/DTD/svg11.dtd">
<!-- Generated by graphviz version 2.38.0 (20140413.2041)
 -->
<!-- Title: TaxaParameters Pages: 1 -->
<svg width="249pt" height="336pt"
 viewBox="0.00 0.00 249.00 336.00" xmlns="http://www.w3.org/2000/svg" xmlns:xlink="http://www.w3.org/1999/xlink">
<g id="graph0" class="graph" transform="scale(1 1) rotate(0) translate(4 332)">
<title>TaxaParameters</title>
<!-- Node1 -->
<g id="node1" class="node"><title>Node1</title>
<polygon fill="#bfbfbf" stroke="black" points="64.5,-0.5 64.5,-222.5 174.5,-222.5 174.5,-0.5 64.5,-0.5"/>
<text text-anchor="middle" x="119.5" y="-210.5" font-family="Helvetica,sans-Serif" font-size="10.00">TaxaParameters</text>
<polyline fill="none" stroke="black" points="64.5,-203.5 174.5,-203.5 "/>
<text text-anchor="middle" x="119.5" y="-191.5" font-family="Helvetica,sans-Serif" font-size="10.00"> </text>
<polyline fill="none" stroke="black" points="64.5,-184.5 174.5,-184.5 "/>
<text text-anchor="start" x="72.5" y="-172.5" font-family="Helvetica,sans-Serif" font-size="10.00">+ TaxaParameters()</text>
<text text-anchor="start" x="72.5" y="-161.5" font-family="Helvetica,sans-Serif" font-size="10.00">+ TaxaParameters()</text>
<text text-anchor="start" x="72.5" y="-150.5" font-family="Helvetica,sans-Serif" font-size="10.00">+ TaxaParameters()</text>
<text text-anchor="start" x="72.5" y="-139.5" font-family="Helvetica,sans-Serif" font-size="10.00">+ TaxaParameters()</text>
<text text-anchor="start" x="72.5" y="-128.5" font-family="Helvetica,sans-Serif" font-size="10.00">+ TaxaParameters()</text>
<text text-anchor="start" x="72.5" y="-117.5" font-family="Helvetica,sans-Serif" font-size="10.00">+ TaxaParameters()</text>
<text text-anchor="start" x="72.5" y="-106.5" font-family="Helvetica,sans-Serif" font-size="10.00">+ ~TaxaParameters()</text>
<text text-anchor="start" x="72.5" y="-95.5" font-family="Helvetica,sans-Serif" font-size="10.00">+ ReadFromStream()</text>
<text text-anchor="start" x="72.5" y="-84.5" font-family="Helvetica,sans-Serif" font-size="10.00">+ WriteToStream()</text>
<text text-anchor="start" x="72.5" y="-73.5" font-family="Helvetica,sans-Serif" font-size="10.00">+ ReadNexus()</text>
<text text-anchor="start" x="72.5" y="-62.5" font-family="Helvetica,sans-Serif" font-size="10.00">+ GetSpeciesName()</text>
<text text-anchor="start" x="72.5" y="-51.5" font-family="Helvetica,sans-Serif" font-size="10.00">+ Member()</text>
<text text-anchor="start" x="72.5" y="-40.5" font-family="Helvetica,sans-Serif" font-size="10.00">+ RegisterWith()</text>
<text text-anchor="start" x="72.5" y="-29.5" font-family="Helvetica,sans-Serif" font-size="10.00">+ GetParameters()</text>
<text text-anchor="start" x="72.5" y="-18.5" font-family="Helvetica,sans-Serif" font-size="10.00">+ GetOutGroup()</text>
<text text-anchor="start" x="72.5" y="-7.5" font-family="Helvetica,sans-Serif" font-size="10.00">+ SetOutGroup()</text>
</g>
<!-- Node2 -->
<g id="node2" class="node"><title>Node2</title>
<polygon fill="none" stroke="#bfbfbf" points="0,-270.5 0,-327.5 41,-327.5 41,-270.5 0,-270.5"/>
<text text-anchor="middle" x="20.5" y="-315.5" font-family="Helvetica,sans-Serif" font-size="10.00">string</text>
<polyline fill="none" stroke="#bfbfbf" points="0,-308.5 41,-308.5 "/>
<text text-anchor="middle" x="20.5" y="-296.5" font-family="Helvetica,sans-Serif" font-size="10.00"> </text>
<polyline fill="none" stroke="#bfbfbf" points="0,-289.5 41,-289.5 "/>
<text text-anchor="middle" x="20.5" y="-277.5" font-family="Helvetica,sans-Serif" font-size="10.00"> </text>
</g>
<!-- Node2&#45;&gt;Node1 -->
<g id="edge1" class="edge"><title>Node2&#45;&gt;Node1</title>
<path fill="none" stroke="#404040" d="M28.3103,-270.237C31.349,-260.773 35.1523,-250.252 39.5,-241 45.1189,-229.043 51.6161,-216.827 58.43,-204.914"/>
<polygon fill="none" stroke="#404040" points="58.4371,-204.902 58.0065,-197.703 64.4854,-194.537 64.916,-201.736 58.4371,-204.902"/>
<text text-anchor="middle" x="77.5" y="-244" font-family="Helvetica,sans-Serif" font-size="10.00"> +SpeciesNames</text>
</g>
<!-- Node3 -->
<g id="node3" class="node"><title>Node3</title>
<polygon fill="none" stroke="#bfbfbf" points="105,-270.5 105,-327.5 134,-327.5 134,-270.5 105,-270.5"/>
<text text-anchor="middle" x="119.5" y="-315.5" font-family="Helvetica,sans-Serif" font-size="10.00">int</text>
<polyline fill="none" stroke="#bfbfbf" points="105,-308.5 134,-308.5 "/>
<text text-anchor="middle" x="119.5" y="-296.5" font-family="Helvetica,sans-Serif" font-size="10.00"> </text>
<polyline fill="none" stroke="#bfbfbf" points="105,-289.5 134,-289.5 "/>
<text text-anchor="middle" x="119.5" y="-277.5" font-family="Helvetica,sans-Serif" font-size="10.00"> </text>
</g>
<!-- Node3&#45;&gt;Node1 -->
<g id="edge2" class="edge"><title>Node3&#45;&gt;Node1</title>
<path fill="none" stroke="#404040" d="M119.5,-270.229C119.5,-260.092 119.5,-247.873 119.5,-234.779"/>
<polygon fill="none" stroke="#404040" points="119.5,-234.541 115.5,-228.541 119.5,-222.541 123.5,-228.541 119.5,-234.541"/>
<text text-anchor="middle" x="137.5" y="-244" font-family="Helvetica,sans-Serif" font-size="10.00"> +Ntaxa</text>
</g>
<!-- Node4 -->
<g id="node4" class="node"><title>Node4</title>
<polygon fill="none" stroke="#bfbfbf" points="152,-270.5 152,-327.5 241,-327.5 241,-270.5 152,-270.5"/>
<text text-anchor="middle" x="196.5" y="-315.5" font-family="Helvetica,sans-Serif" font-size="10.00">MCParameters *</text>
<polyline fill="none" stroke="#bfbfbf" points="152,-308.5 241,-308.5 "/>
<text text-anchor="middle" x="196.5" y="-296.5" font-family="Helvetica,sans-Serif" font-size="10.00"> </text>
<polyline fill="none" stroke="#bfbfbf" points="152,-289.5 241,-289.5 "/>
<text text-anchor="middle" x="196.5" y="-277.5" font-family="Helvetica,sans-Serif" font-size="10.00"> </text>
</g>
<!-- Node4&#45;&gt;Node1 -->
<g id="edge3" class="edge"><title>Node4&#45;&gt;Node1</title>
<path fill="none" stroke="#404040" d="M184.972,-270.229C180.679,-259.885 175.485,-247.374 169.924,-233.976"/>
<polygon fill="none" stroke="#404040" points="169.778,-233.624 163.783,-229.616 165.177,-222.541 171.172,-226.549 169.778,-233.624"/>
<text text-anchor="middle" x="198.5" y="-244" font-family="Helvetica,sans-Serif" font-size="10.00"> +mParam</text>
</g>
</g>
</svg>
