<?xml version="1.0" encoding="UTF-8" standalone="no"?>
<!DOCTYPE svg PUBLIC "-//W3C//DTD SVG 1.1//EN"
 "http://www.w3.org/Graphics/SVG/1.1/DTD/svg11.dtd">
<!-- Generated by graphviz version 2.38.0 (20140413.2041)
 -->
<!-- Title: SBDPProfileProcess Pages: 1 -->
<svg width="744pt" height="1830pt"
 viewBox="0.00 0.00 744.00 1830.00" xmlns="http://www.w3.org/2000/svg" xmlns:xlink="http://www.w3.org/1999/xlink">
<g id="graph0" class="graph" transform="scale(1 1) rotate(0) translate(4 1826)">
<title>SBDPProfileProcess</title>
<!-- Node18 -->
<g id="node1" class="node"><title>Node18</title>
<polygon fill="#bfbfbf" stroke="black" points="250.5,-0.5 250.5,-321.5 407.5,-321.5 407.5,-0.5 250.5,-0.5"/>
<text text-anchor="middle" x="329" y="-309.5" font-family="Helvetica,sans-Serif" font-size="10.00">SBDPProfileProcess</text>
<polyline fill="none" stroke="black" points="250.5,-302.5 407.5,-302.5 "/>
<text text-anchor="middle" x="329" y="-290.5" font-family="Helvetica,sans-Serif" font-size="10.00"> </text>
<polyline fill="none" stroke="black" points="250.5,-283.5 407.5,-283.5 "/>
<text text-anchor="start" x="258.5" y="-271.5" font-family="Helvetica,sans-Serif" font-size="10.00">+ SBDPProfileProcess()</text>
<text text-anchor="start" x="258.5" y="-260.5" font-family="Helvetica,sans-Serif" font-size="10.00">+ ~SBDPProfileProcess()</text>
<text text-anchor="start" x="258.5" y="-249.5" font-family="Helvetica,sans-Serif" font-size="10.00"># DrawProfileFromPrior()</text>
<text text-anchor="start" x="258.5" y="-238.5" font-family="Helvetica,sans-Serif" font-size="10.00"># GetMaxWeightError()</text>
<text text-anchor="start" x="258.5" y="-227.5" font-family="Helvetica,sans-Serif" font-size="10.00"># ResetMaxWeightError()</text>
<text text-anchor="start" x="258.5" y="-216.5" font-family="Helvetica,sans-Serif" font-size="10.00"># Create()</text>
<text text-anchor="start" x="258.5" y="-205.5" font-family="Helvetica,sans-Serif" font-size="10.00"># Delete()</text>
<text text-anchor="start" x="258.5" y="-194.5" font-family="Helvetica,sans-Serif" font-size="10.00"># GetNmodeMax()</text>
<text text-anchor="start" x="258.5" y="-183.5" font-family="Helvetica,sans-Serif" font-size="10.00"># SetNmodeMax()</text>
<text text-anchor="start" x="258.5" y="-172.5" font-family="Helvetica,sans-Serif" font-size="10.00"># IncrementalDPMove()</text>
<text text-anchor="start" x="258.5" y="-161.5" font-family="Helvetica,sans-Serif" font-size="10.00"># IncrementalDPMove()</text>
<text text-anchor="start" x="258.5" y="-150.5" font-family="Helvetica,sans-Serif" font-size="10.00"># GetWeightEnt()</text>
<text text-anchor="start" x="258.5" y="-139.5" font-family="Helvetica,sans-Serif" font-size="10.00"># GetNDisplayedComponent()</text>
<text text-anchor="start" x="258.5" y="-128.5" font-family="Helvetica,sans-Serif" font-size="10.00"># GetLastOccupiedComponent()</text>
<text text-anchor="start" x="258.5" y="-117.5" font-family="Helvetica,sans-Serif" font-size="10.00"># GetNCutoff()</text>
<text text-anchor="start" x="258.5" y="-106.5" font-family="Helvetica,sans-Serif" font-size="10.00"># SwapComponents()</text>
<text text-anchor="start" x="258.5" y="-95.5" font-family="Helvetica,sans-Serif" font-size="10.00"># LogIntegratedAllocProb()</text>
<text text-anchor="start" x="258.5" y="-84.5" font-family="Helvetica,sans-Serif" font-size="10.00"># MoveKappa()</text>
<text text-anchor="start" x="258.5" y="-73.5" font-family="Helvetica,sans-Serif" font-size="10.00"># SampleAlloc()</text>
<text text-anchor="start" x="258.5" y="-62.5" font-family="Helvetica,sans-Serif" font-size="10.00"># IncrementalSampleAlloc()</text>
<text text-anchor="start" x="258.5" y="-51.5" font-family="Helvetica,sans-Serif" font-size="10.00"># SampleWeights()</text>
<text text-anchor="start" x="258.5" y="-40.5" font-family="Helvetica,sans-Serif" font-size="10.00"># ResampleWeights()</text>
<text text-anchor="start" x="258.5" y="-29.5" font-family="Helvetica,sans-Serif" font-size="10.00"># MoveOccupiedCompAlloc()</text>
<text text-anchor="start" x="258.5" y="-18.5" font-family="Helvetica,sans-Serif" font-size="10.00"># MoveAdjacentCompAlloc()</text>
<text text-anchor="start" x="258.5" y="-7.5" font-family="Helvetica,sans-Serif" font-size="10.00"># LogStatPrior()</text>
</g>
<!-- Node19 -->
<g id="node2" class="node"><title>Node19</title>
<g id="a_node2"><a xlink:href="classDPProfileProcess.html" target="_top" xlink:title="{DPProfileProcess\n||+ DPProfileProcess()\l+ ~DPProfileProcess()\l# IncrementalDPMove()\l# MoveHyper()\l# MoveKappa()\l# LogProxy()\l# SampleAlloc()\l# SampleHyper()\l# LogHyperPrior()\l# LogAllocPrior()\l# DrawProfileFromPrior()\l}">
<polygon fill="none" stroke="black" points="266.5,-359.5 266.5,-526.5 391.5,-526.5 391.5,-359.5 266.5,-359.5"/>
<text text-anchor="middle" x="329" y="-514.5" font-family="Helvetica,sans-Serif" font-size="10.00">DPProfileProcess</text>
<polyline fill="none" stroke="black" points="266.5,-507.5 391.5,-507.5 "/>
<text text-anchor="middle" x="329" y="-495.5" font-family="Helvetica,sans-Serif" font-size="10.00"> </text>
<polyline fill="none" stroke="black" points="266.5,-488.5 391.5,-488.5 "/>
<text text-anchor="start" x="274.5" y="-476.5" font-family="Helvetica,sans-Serif" font-size="10.00">+ DPProfileProcess()</text>
<text text-anchor="start" x="274.5" y="-465.5" font-family="Helvetica,sans-Serif" font-size="10.00">+ ~DPProfileProcess()</text>
<text text-anchor="start" x="274.5" y="-454.5" font-family="Helvetica,sans-Serif" font-size="10.00"># IncrementalDPMove()</text>
<text text-anchor="start" x="274.5" y="-443.5" font-family="Helvetica,sans-Serif" font-size="10.00"># MoveHyper()</text>
<text text-anchor="start" x="274.5" y="-432.5" font-family="Helvetica,sans-Serif" font-size="10.00"># MoveKappa()</text>
<text text-anchor="start" x="274.5" y="-421.5" font-family="Helvetica,sans-Serif" font-size="10.00"># LogProxy()</text>
<text text-anchor="start" x="274.5" y="-410.5" font-family="Helvetica,sans-Serif" font-size="10.00"># SampleAlloc()</text>
<text text-anchor="start" x="274.5" y="-399.5" font-family="Helvetica,sans-Serif" font-size="10.00"># SampleHyper()</text>
<text text-anchor="start" x="274.5" y="-388.5" font-family="Helvetica,sans-Serif" font-size="10.00"># LogHyperPrior()</text>
<text text-anchor="start" x="274.5" y="-377.5" font-family="Helvetica,sans-Serif" font-size="10.00"># LogAllocPrior()</text>
<text text-anchor="start" x="274.5" y="-366.5" font-family="Helvetica,sans-Serif" font-size="10.00"># DrawProfileFromPrior()</text>
</a>
</g>
</g>
<!-- Node19&#45;&gt;Node18 -->
<g id="edge1" class="edge"><title>Node19&#45;&gt;Node18</title>
<path fill="none" stroke="midnightblue" d="M329,-348.84C329,-339.957 329,-330.789 329,-321.505"/>
<polygon fill="none" stroke="midnightblue" points="325.5,-349.127 329,-359.127 332.5,-349.127 325.5,-349.127"/>
</g>
<!-- Node20 -->
<g id="node3" class="node"><title>Node20</title>
<g id="a_node3"><a xlink:href="classMixtureProfileProcess.html" target="_top" xlink:title="{MixtureProfileProcess\n||+ MixtureProfileProcess()\l+ ~MixtureProfileProcess()\l+ GetProfile()\l+ GetNcomponent()\l+ GetNDisplayedComponent()\l+ GetNOccupiedComponent()\l+ GetNmodeMax()\l+ GetMeanStationaryEntropy()\l+ GetSiteStationaryEntropy()\l+ GetStatEnt()\l+ GetStatEnt()\l+ GetCenterStatEnt()\l+ GetMeanDirWeight()\l+ RenormalizeProfiles()\l+ Move()\l+ MoveDirWeights()\l# UpdateModeProfileSuffStat()\l# ProfileSuffStatLogProb()\l# LogStatProb()\l# ProfileSuffStatLogProb()\l# Create()\l# Delete()\l# CreateComponent()\l# DeleteComponent()\l# UpdateComponent()\l# UpdateComponents()\l# GetAllocEntropy()\l# AddSite()\l# RemoveSite()\l# SampleProfile()\l# SampleHyper()\l# SampleAlloc()\l# SampleStat()\l# SampleStat()\l# SampleStat()\l# UpdateOccupancyNumbers()\l# ResampleEmptyProfiles()\l# LogProfilePrior()\l# LogHyperPrior()\l# LogAllocPrior()\l# LogStatPrior()\l# LogStatPrior()\l# SwapComponents()\l}">
<polygon fill="none" stroke="black" points="303,-564.5 303,-1083.5 455,-1083.5 455,-564.5 303,-564.5"/>
<text text-anchor="middle" x="379" y="-1071.5" font-family="Helvetica,sans-Serif" font-size="10.00">MixtureProfileProcess</text>
<polyline fill="none" stroke="black" points="303,-1064.5 455,-1064.5 "/>
<text text-anchor="middle" x="379" y="-1052.5" font-family="Helvetica,sans-Serif" font-size="10.00"> </text>
<polyline fill="none" stroke="black" points="303,-1045.5 455,-1045.5 "/>
<text text-anchor="start" x="311" y="-1033.5" font-family="Helvetica,sans-Serif" font-size="10.00">+ MixtureProfileProcess()</text>
<text text-anchor="start" x="311" y="-1022.5" font-family="Helvetica,sans-Serif" font-size="10.00">+ ~MixtureProfileProcess()</text>
<text text-anchor="start" x="311" y="-1011.5" font-family="Helvetica,sans-Serif" font-size="10.00">+ GetProfile()</text>
<text text-anchor="start" x="311" y="-1000.5" font-family="Helvetica,sans-Serif" font-size="10.00">+ GetNcomponent()</text>
<text text-anchor="start" x="311" y="-989.5" font-family="Helvetica,sans-Serif" font-size="10.00">+ GetNDisplayedComponent()</text>
<text text-anchor="start" x="311" y="-978.5" font-family="Helvetica,sans-Serif" font-size="10.00">+ GetNOccupiedComponent()</text>
<text text-anchor="start" x="311" y="-967.5" font-family="Helvetica,sans-Serif" font-size="10.00">+ GetNmodeMax()</text>
<text text-anchor="start" x="311" y="-956.5" font-family="Helvetica,sans-Serif" font-size="10.00">+ GetMeanStationaryEntropy()</text>
<text text-anchor="start" x="311" y="-945.5" font-family="Helvetica,sans-Serif" font-size="10.00">+ GetSiteStationaryEntropy()</text>
<text text-anchor="start" x="311" y="-934.5" font-family="Helvetica,sans-Serif" font-size="10.00">+ GetStatEnt()</text>
<text text-anchor="start" x="311" y="-923.5" font-family="Helvetica,sans-Serif" font-size="10.00">+ GetStatEnt()</text>
<text text-anchor="start" x="311" y="-912.5" font-family="Helvetica,sans-Serif" font-size="10.00">+ GetCenterStatEnt()</text>
<text text-anchor="start" x="311" y="-901.5" font-family="Helvetica,sans-Serif" font-size="10.00">+ GetMeanDirWeight()</text>
<text text-anchor="start" x="311" y="-890.5" font-family="Helvetica,sans-Serif" font-size="10.00">+ RenormalizeProfiles()</text>
<text text-anchor="start" x="311" y="-879.5" font-family="Helvetica,sans-Serif" font-size="10.00">+ Move()</text>
<text text-anchor="start" x="311" y="-868.5" font-family="Helvetica,sans-Serif" font-size="10.00">+ MoveDirWeights()</text>
<text text-anchor="start" x="311" y="-857.5" font-family="Helvetica,sans-Serif" font-size="10.00"># UpdateModeProfileSuffStat()</text>
<text text-anchor="start" x="311" y="-846.5" font-family="Helvetica,sans-Serif" font-size="10.00"># ProfileSuffStatLogProb()</text>
<text text-anchor="start" x="311" y="-835.5" font-family="Helvetica,sans-Serif" font-size="10.00"># LogStatProb()</text>
<text text-anchor="start" x="311" y="-824.5" font-family="Helvetica,sans-Serif" font-size="10.00"># ProfileSuffStatLogProb()</text>
<text text-anchor="start" x="311" y="-813.5" font-family="Helvetica,sans-Serif" font-size="10.00"># Create()</text>
<text text-anchor="start" x="311" y="-802.5" font-family="Helvetica,sans-Serif" font-size="10.00"># Delete()</text>
<text text-anchor="start" x="311" y="-791.5" font-family="Helvetica,sans-Serif" font-size="10.00"># CreateComponent()</text>
<text text-anchor="start" x="311" y="-780.5" font-family="Helvetica,sans-Serif" font-size="10.00"># DeleteComponent()</text>
<text text-anchor="start" x="311" y="-769.5" font-family="Helvetica,sans-Serif" font-size="10.00"># UpdateComponent()</text>
<text text-anchor="start" x="311" y="-758.5" font-family="Helvetica,sans-Serif" font-size="10.00"># UpdateComponents()</text>
<text text-anchor="start" x="311" y="-747.5" font-family="Helvetica,sans-Serif" font-size="10.00"># GetAllocEntropy()</text>
<text text-anchor="start" x="311" y="-736.5" font-family="Helvetica,sans-Serif" font-size="10.00"># AddSite()</text>
<text text-anchor="start" x="311" y="-725.5" font-family="Helvetica,sans-Serif" font-size="10.00"># RemoveSite()</text>
<text text-anchor="start" x="311" y="-714.5" font-family="Helvetica,sans-Serif" font-size="10.00"># SampleProfile()</text>
<text text-anchor="start" x="311" y="-703.5" font-family="Helvetica,sans-Serif" font-size="10.00"># SampleHyper()</text>
<text text-anchor="start" x="311" y="-692.5" font-family="Helvetica,sans-Serif" font-size="10.00"># SampleAlloc()</text>
<text text-anchor="start" x="311" y="-681.5" font-family="Helvetica,sans-Serif" font-size="10.00"># SampleStat()</text>
<text text-anchor="start" x="311" y="-670.5" font-family="Helvetica,sans-Serif" font-size="10.00"># SampleStat()</text>
<text text-anchor="start" x="311" y="-659.5" font-family="Helvetica,sans-Serif" font-size="10.00"># SampleStat()</text>
<text text-anchor="start" x="311" y="-648.5" font-family="Helvetica,sans-Serif" font-size="10.00"># UpdateOccupancyNumbers()</text>
<text text-anchor="start" x="311" y="-637.5" font-family="Helvetica,sans-Serif" font-size="10.00"># ResampleEmptyProfiles()</text>
<text text-anchor="start" x="311" y="-626.5" font-family="Helvetica,sans-Serif" font-size="10.00"># LogProfilePrior()</text>
<text text-anchor="start" x="311" y="-615.5" font-family="Helvetica,sans-Serif" font-size="10.00"># LogHyperPrior()</text>
<text text-anchor="start" x="311" y="-604.5" font-family="Helvetica,sans-Serif" font-size="10.00"># LogAllocPrior()</text>
<text text-anchor="start" x="311" y="-593.5" font-family="Helvetica,sans-Serif" font-size="10.00"># LogStatPrior()</text>
<text text-anchor="start" x="311" y="-582.5" font-family="Helvetica,sans-Serif" font-size="10.00"># LogStatPrior()</text>
<text text-anchor="start" x="311" y="-571.5" font-family="Helvetica,sans-Serif" font-size="10.00"># SwapComponents()</text>
</a>
</g>
</g>
<!-- Node20&#45;&gt;Node19 -->
<g id="edge2" class="edge"><title>Node20&#45;&gt;Node19</title>
<path fill="none" stroke="midnightblue" d="M343.557,-554.346C342.294,-544.769 341.074,-535.522 339.914,-526.73"/>
<polygon fill="none" stroke="midnightblue" points="340.111,-554.982 344.889,-564.439 347.051,-554.067 340.111,-554.982"/>
</g>
<!-- Node21 -->
<g id="node4" class="node"><title>Node21</title>
<g id="a_node4"><a xlink:href="classProfileProcess.html" target="_top" xlink:title="{ProfileProcess\n||+ ProfileProcess()\l+ ~ProfileProcess()\l+ GetVersion()\l+ GetStatInfCount()\l+ GetDim()\l+ GetNsite()\l+ GetProfile()\l+ GetStateSpace()\l+ LogProfilePrior()\l+ SampleProfile()\l+ GetMeanStationaryEntropy()\l+ GetSiteStationaryEntropy()\l+ UpdateSiteProfileSuffStat()\l+ GlobalUpdateSiteProfileSuffStat()\l+ SlaveUpdateSiteProfileSuffStat()\l+ GlobalUpdateParameters()\l+ SlaveUpdateParameters()\l+ ProfileSuffStatLogProb()\l+ ToStream()\l+ FromStream()\l+ SetBurnin()\l+ isObserved()\l+ GetMinStat()\l+ GetMinMinStat()\l# DrawProfileFromPrior()\l# GetNormalizationFactor()\l# Create()\l# Delete()\l# GetNprocs()\l# GetMyid()\l# GetSiteMin()\l# GetSiteMax()\l# GetEmpiricalFreq()\l# GetMinTotWeight()\l# SetMinTotWeight()\l}">
<polygon fill="none" stroke="black" points="300,-1142.5 300,-1573.5 472,-1573.5 472,-1142.5 300,-1142.5"/>
<text text-anchor="middle" x="386" y="-1561.5" font-family="Helvetica,sans-Serif" font-size="10.00">ProfileProcess</text>
<polyline fill="none" stroke="black" points="300,-1554.5 472,-1554.5 "/>
<text text-anchor="middle" x="386" y="-1542.5" font-family="Helvetica,sans-Serif" font-size="10.00"> </text>
<polyline fill="none" stroke="black" points="300,-1535.5 472,-1535.5 "/>
<text text-anchor="start" x="308" y="-1523.5" font-family="Helvetica,sans-Serif" font-size="10.00">+ ProfileProcess()</text>
<text text-anchor="start" x="308" y="-1512.5" font-family="Helvetica,sans-Serif" font-size="10.00">+ ~ProfileProcess()</text>
<text text-anchor="start" x="308" y="-1501.5" font-family="Helvetica,sans-Serif" font-size="10.00">+ GetVersion()</text>
<text text-anchor="start" x="308" y="-1490.5" font-family="Helvetica,sans-Serif" font-size="10.00">+ GetStatInfCount()</text>
<text text-anchor="start" x="308" y="-1479.5" font-family="Helvetica,sans-Serif" font-size="10.00">+ GetDim()</text>
<text text-anchor="start" x="308" y="-1468.5" font-family="Helvetica,sans-Serif" font-size="10.00">+ GetNsite()</text>
<text text-anchor="start" x="308" y="-1457.5" font-family="Helvetica,sans-Serif" font-size="10.00">+ GetProfile()</text>
<text text-anchor="start" x="308" y="-1446.5" font-family="Helvetica,sans-Serif" font-size="10.00">+ GetStateSpace()</text>
<text text-anchor="start" x="308" y="-1435.5" font-family="Helvetica,sans-Serif" font-size="10.00">+ LogProfilePrior()</text>
<text text-anchor="start" x="308" y="-1424.5" font-family="Helvetica,sans-Serif" font-size="10.00">+ SampleProfile()</text>
<text text-anchor="start" x="308" y="-1413.5" font-family="Helvetica,sans-Serif" font-size="10.00">+ GetMeanStationaryEntropy()</text>
<text text-anchor="start" x="308" y="-1402.5" font-family="Helvetica,sans-Serif" font-size="10.00">+ GetSiteStationaryEntropy()</text>
<text text-anchor="start" x="308" y="-1391.5" font-family="Helvetica,sans-Serif" font-size="10.00">+ UpdateSiteProfileSuffStat()</text>
<text text-anchor="start" x="308" y="-1380.5" font-family="Helvetica,sans-Serif" font-size="10.00">+ GlobalUpdateSiteProfileSuffStat()</text>
<text text-anchor="start" x="308" y="-1369.5" font-family="Helvetica,sans-Serif" font-size="10.00">+ SlaveUpdateSiteProfileSuffStat()</text>
<text text-anchor="start" x="308" y="-1358.5" font-family="Helvetica,sans-Serif" font-size="10.00">+ GlobalUpdateParameters()</text>
<text text-anchor="start" x="308" y="-1347.5" font-family="Helvetica,sans-Serif" font-size="10.00">+ SlaveUpdateParameters()</text>
<text text-anchor="start" x="308" y="-1336.5" font-family="Helvetica,sans-Serif" font-size="10.00">+ ProfileSuffStatLogProb()</text>
<text text-anchor="start" x="308" y="-1325.5" font-family="Helvetica,sans-Serif" font-size="10.00">+ ToStream()</text>
<text text-anchor="start" x="308" y="-1314.5" font-family="Helvetica,sans-Serif" font-size="10.00">+ FromStream()</text>
<text text-anchor="start" x="308" y="-1303.5" font-family="Helvetica,sans-Serif" font-size="10.00">+ SetBurnin()</text>
<text text-anchor="start" x="308" y="-1292.5" font-family="Helvetica,sans-Serif" font-size="10.00">+ isObserved()</text>
<text text-anchor="start" x="308" y="-1281.5" font-family="Helvetica,sans-Serif" font-size="10.00">+ GetMinStat()</text>
<text text-anchor="start" x="308" y="-1270.5" font-family="Helvetica,sans-Serif" font-size="10.00">+ GetMinMinStat()</text>
<text text-anchor="start" x="308" y="-1259.5" font-family="Helvetica,sans-Serif" font-size="10.00"># DrawProfileFromPrior()</text>
<text text-anchor="start" x="308" y="-1248.5" font-family="Helvetica,sans-Serif" font-size="10.00"># GetNormalizationFactor()</text>
<text text-anchor="start" x="308" y="-1237.5" font-family="Helvetica,sans-Serif" font-size="10.00"># Create()</text>
<text text-anchor="start" x="308" y="-1226.5" font-family="Helvetica,sans-Serif" font-size="10.00"># Delete()</text>
<text text-anchor="start" x="308" y="-1215.5" font-family="Helvetica,sans-Serif" font-size="10.00"># GetNprocs()</text>
<text text-anchor="start" x="308" y="-1204.5" font-family="Helvetica,sans-Serif" font-size="10.00"># GetMyid()</text>
<text text-anchor="start" x="308" y="-1193.5" font-family="Helvetica,sans-Serif" font-size="10.00"># GetSiteMin()</text>
<text text-anchor="start" x="308" y="-1182.5" font-family="Helvetica,sans-Serif" font-size="10.00"># GetSiteMax()</text>
<text text-anchor="start" x="308" y="-1171.5" font-family="Helvetica,sans-Serif" font-size="10.00"># GetEmpiricalFreq()</text>
<text text-anchor="start" x="308" y="-1160.5" font-family="Helvetica,sans-Serif" font-size="10.00"># GetMinTotWeight()</text>
<text text-anchor="start" x="308" y="-1149.5" font-family="Helvetica,sans-Serif" font-size="10.00"># SetMinTotWeight()</text>
</a>
</g>
</g>
<!-- Node21&#45;&gt;Node20 -->
<g id="edge3" class="edge"><title>Node21&#45;&gt;Node20</title>
<path fill="none" stroke="midnightblue" d="M383.037,-1131.78C382.828,-1115.95 382.617,-1099.92 382.407,-1083.93"/>
<polygon fill="none" stroke="midnightblue" points="379.542,-1132.2 383.173,-1142.15 386.541,-1132.1 379.542,-1132.2"/>
</g>
<!-- Node22 -->
<g id="node5" class="node"><title>Node22</title>
<g id="a_node5"><a xlink:href="classChrono.html" target="_top" xlink:title="{Chrono\n||+ Chrono()\l+ ~Chrono()\l+ Reset()\l+ Start()\l+ Stop()\l+ ToStream()\l+ FromStream()\l+ operator++()\l+ GetTime()\l+ GetTimePerCount()\l+ GetCount()\l}">
<polygon fill="none" stroke="black" points="341,-1654.5 341,-1821.5 451,-1821.5 451,-1654.5 341,-1654.5"/>
<text text-anchor="middle" x="396" y="-1809.5" font-family="Helvetica,sans-Serif" font-size="10.00">Chrono</text>
<polyline fill="none" stroke="black" points="341,-1802.5 451,-1802.5 "/>
<text text-anchor="middle" x="396" y="-1790.5" font-family="Helvetica,sans-Serif" font-size="10.00"> </text>
<polyline fill="none" stroke="black" points="341,-1783.5 451,-1783.5 "/>
<text text-anchor="start" x="349" y="-1771.5" font-family="Helvetica,sans-Serif" font-size="10.00">+ Chrono()</text>
<text text-anchor="start" x="349" y="-1760.5" font-family="Helvetica,sans-Serif" font-size="10.00">+ ~Chrono()</text>
<text text-anchor="start" x="349" y="-1749.5" font-family="Helvetica,sans-Serif" font-size="10.00">+ Reset()</text>
<text text-anchor="start" x="349" y="-1738.5" font-family="Helvetica,sans-Serif" font-size="10.00">+ Start()</text>
<text text-anchor="start" x="349" y="-1727.5" font-family="Helvetica,sans-Serif" font-size="10.00">+ Stop()</text>
<text text-anchor="start" x="349" y="-1716.5" font-family="Helvetica,sans-Serif" font-size="10.00">+ ToStream()</text>
<text text-anchor="start" x="349" y="-1705.5" font-family="Helvetica,sans-Serif" font-size="10.00">+ FromStream()</text>
<text text-anchor="start" x="349" y="-1694.5" font-family="Helvetica,sans-Serif" font-size="10.00">+ operator++()</text>
<text text-anchor="start" x="349" y="-1683.5" font-family="Helvetica,sans-Serif" font-size="10.00">+ GetTime()</text>
<text text-anchor="start" x="349" y="-1672.5" font-family="Helvetica,sans-Serif" font-size="10.00">+ GetTimePerCount()</text>
<text text-anchor="start" x="349" y="-1661.5" font-family="Helvetica,sans-Serif" font-size="10.00">+ GetCount()</text>
</a>
</g>
</g>
<!-- Node22&#45;&gt;Node21 -->
<g id="edge4" class="edge"><title>Node22&#45;&gt;Node21</title>
<path fill="none" stroke="#404040" d="M393.805,-1654.05C393.257,-1633.32 392.642,-1610.07 392.004,-1585.97"/>
<polygon fill="none" stroke="#404040" points="391.997,-1585.68 387.84,-1579.79 391.679,-1573.68 395.837,-1579.57 391.997,-1585.68"/>
<text text-anchor="middle" x="421.5" y="-1622.5" font-family="Helvetica,sans-Serif" font-size="10.00"> #chronostat</text>
<text text-anchor="middle" x="421.5" y="-1611.5" font-family="Helvetica,sans-Serif" font-size="10.00">#chronorr</text>
<text text-anchor="middle" x="421.5" y="-1600.5" font-family="Helvetica,sans-Serif" font-size="10.00">#chronodp</text>
</g>
<!-- Node23 -->
<g id="node6" class="node"><title>Node23</title>
<polygon fill="none" stroke="#bfbfbf" points="101.5,-1709.5 101.5,-1766.5 146.5,-1766.5 146.5,-1709.5 101.5,-1709.5"/>
<text text-anchor="middle" x="124" y="-1754.5" font-family="Helvetica,sans-Serif" font-size="10.00">double</text>
<polyline fill="none" stroke="#bfbfbf" points="101.5,-1747.5 146.5,-1747.5 "/>
<text text-anchor="middle" x="124" y="-1735.5" font-family="Helvetica,sans-Serif" font-size="10.00"> </text>
<polyline fill="none" stroke="#bfbfbf" points="101.5,-1728.5 146.5,-1728.5 "/>
<text text-anchor="middle" x="124" y="-1716.5" font-family="Helvetica,sans-Serif" font-size="10.00"> </text>
</g>
<!-- Node23&#45;&gt;Node18 -->
<g id="edge13" class="edge"><title>Node23&#45;&gt;Node18</title>
<path fill="none" stroke="#404040" d="M108.043,-1709.11C74.5526,-1647.85 0,-1496.1 0,-1359 0,-1359 0,-1359 0,-442 0,-316.104 141.442,-234.926 238.845,-193.95"/>
<polygon fill="none" stroke="#404040" points="239.102,-193.844 243.125,-187.86 250.196,-189.272 246.173,-195.256 239.102,-193.844"/>
<text text-anchor="middle" x="36.5" y="-832.5" font-family="Helvetica,sans-Serif" font-size="10.00"> #V</text>
<text text-anchor="middle" x="36.5" y="-821.5" font-family="Helvetica,sans-Serif" font-size="10.00">#maxweighterror</text>
<text text-anchor="middle" x="36.5" y="-810.5" font-family="Helvetica,sans-Serif" font-size="10.00">#weight</text>
</g>
<!-- Node23&#45;&gt;Node19 -->
<g id="edge10" class="edge"><title>Node23&#45;&gt;Node19</title>
<path fill="none" stroke="#404040" d="M122.6,-1709.14C121.653,-1688.87 120.49,-1660.74 120,-1636 119.613,-1616.45 119.957,-1611.56 120,-1592 121.024,-1131.13 81.991,-990.757 256,-564 259.6,-555.171 263.804,-546.239 268.342,-537.442"/>
<polygon fill="none" stroke="#404040" points="268.375,-537.381 267.672,-530.204 274.026,-526.795 274.729,-533.972 268.375,-537.381"/>
<text text-anchor="middle" x="138.5" y="-1110.5" font-family="Helvetica,sans-Serif" font-size="10.00"> #kappa</text>
</g>
<!-- Node23&#45;&gt;Node20 -->
<g id="edge8" class="edge"><title>Node23&#45;&gt;Node20</title>
<path fill="none" stroke="#404040" d="M123.305,-1709.46C121.948,-1623.21 123.909,-1351.62 194,-1142 217.781,-1070.88 258.793,-998.158 296.168,-940.336"/>
<polygon fill="none" stroke="#404040" points="296.299,-940.136 296.228,-932.925 302.856,-930.086 302.928,-937.296 296.299,-940.136"/>
<text text-anchor="middle" x="242.5" y="-1377.5" font-family="Helvetica,sans-Serif" font-size="10.00"> #logstatprior</text>
<text text-anchor="middle" x="242.5" y="-1366.5" font-family="Helvetica,sans-Serif" font-size="10.00">#profile</text>
<text text-anchor="middle" x="242.5" y="-1355.5" font-family="Helvetica,sans-Serif" font-size="10.00">#profilesuffstatlogprob</text>
<text text-anchor="middle" x="242.5" y="-1344.5" font-family="Helvetica,sans-Serif" font-size="10.00">#allocprofile</text>
<text text-anchor="middle" x="242.5" y="-1333.5" font-family="Helvetica,sans-Serif" font-size="10.00">#dirweight</text>
</g>
<!-- Node23&#45;&gt;Node21 -->
<g id="edge5" class="edge"><title>Node23&#45;&gt;Node21</title>
<path fill="none" stroke="#404040" d="M146.198,-1709.24C171.563,-1677.19 213.96,-1622.65 248,-1574 262.939,-1552.65 278.289,-1529.77 293.075,-1507.2"/>
<polygon fill="none" stroke="#404040" points="293.267,-1506.9 293.197,-1499.69 299.825,-1496.85 299.896,-1504.06 293.267,-1506.9"/>
<text text-anchor="middle" x="268" y="-1611.5" font-family="Helvetica,sans-Serif" font-size="10.00"> #mintotweight</text>
</g>
<!-- Node24 -->
<g id="node7" class="node"><title>Node24</title>
<polygon fill="none" stroke="#bfbfbf" points="557.5,-1709.5 557.5,-1766.5 586.5,-1766.5 586.5,-1709.5 557.5,-1709.5"/>
<text text-anchor="middle" x="572" y="-1754.5" font-family="Helvetica,sans-Serif" font-size="10.00">int</text>
<polyline fill="none" stroke="#bfbfbf" points="557.5,-1747.5 586.5,-1747.5 "/>
<text text-anchor="middle" x="572" y="-1735.5" font-family="Helvetica,sans-Serif" font-size="10.00"> </text>
<polyline fill="none" stroke="#bfbfbf" points="557.5,-1728.5 586.5,-1728.5 "/>
<text text-anchor="middle" x="572" y="-1716.5" font-family="Helvetica,sans-Serif" font-size="10.00"> </text>
</g>
<!-- Node24&#45;&gt;Node18 -->
<g id="edge14" class="edge"><title>Node24&#45;&gt;Node18</title>
<path fill="none" stroke="#404040" d="M585.552,-1709.31C614.344,-1647.85 679,-1494.73 679,-1359 679,-1359 679,-1359 679,-442 679,-308.868 522.678,-228.624 418.976,-190.039"/>
<polygon fill="none" stroke="#404040" points="418.822,-189.983 411.815,-191.687 407.547,-185.875 414.554,-184.171 418.822,-189.983"/>
<text text-anchor="middle" x="707.5" y="-821.5" font-family="Helvetica,sans-Serif" font-size="10.00"> #nmodemax</text>
</g>
<!-- Node24&#45;&gt;Node19 -->
<g id="edge11" class="edge"><title>Node24&#45;&gt;Node19</title>
<path fill="none" stroke="#404040" d="M574.437,-1709.34C577.159,-1676.94 581.395,-1621.62 583,-1574 589.467,-1382.11 602.459,-1333.01 583,-1142 556.419,-881.074 595.139,-791.138 464,-564 448.428,-537.029 424.62,-512.923 401.31,-493.52"/>
<polygon fill="none" stroke="#404040" points="401.058,-493.317 393.877,-492.655 391.726,-485.773 398.907,-486.434 401.058,-493.317"/>
<text text-anchor="middle" x="614.5" y="-1116" font-family="Helvetica,sans-Serif" font-size="10.00"> #dirweightprior</text>
<text text-anchor="middle" x="614.5" y="-1105" font-family="Helvetica,sans-Serif" font-size="10.00">#kappaprior</text>
</g>
<!-- Node24&#45;&gt;Node20 -->
<g id="edge9" class="edge"><title>Node24&#45;&gt;Node20</title>
<path fill="none" stroke="#404040" d="M567.046,-1709.5C561.131,-1679.74 549.871,-1631.28 533,-1592 529.3,-1583.39 524.963,-1582.89 522,-1574 461.041,-1391.02 519.876,-1330.9 481,-1142 474.903,-1112.37 467.038,-1081.62 458.383,-1051.43"/>
<polygon fill="none" stroke="#404040" points="458.379,-1051.42 452.863,-1046.77 455.029,-1039.89 460.545,-1044.54 458.379,-1051.42"/>
<text text-anchor="middle" x="552.5" y="-1366.5" font-family="Helvetica,sans-Serif" font-size="10.00"> #occupancy</text>
<text text-anchor="middle" x="552.5" y="-1355.5" font-family="Helvetica,sans-Serif" font-size="10.00">#Ncomponent</text>
<text text-anchor="middle" x="552.5" y="-1344.5" font-family="Helvetica,sans-Serif" font-size="10.00">#alloc</text>
</g>
<!-- Node24&#45;&gt;Node21 -->
<g id="edge6" class="edge"><title>Node24&#45;&gt;Node21</title>
<path fill="none" stroke="#404040" d="M557.358,-1725.52C536.271,-1708.25 497.426,-1673.58 475,-1636 465.354,-1619.84 456.63,-1602.51 448.765,-1584.7"/>
<polygon fill="none" stroke="#404040" points="448.713,-1584.58 442.67,-1580.64 443.978,-1573.55 450.021,-1577.49 448.713,-1584.58"/>
<text text-anchor="middle" x="504" y="-1628" font-family="Helvetica,sans-Serif" font-size="10.00"> #dim</text>
<text text-anchor="middle" x="504" y="-1617" font-family="Helvetica,sans-Serif" font-size="10.00">#statinfcount</text>
<text text-anchor="middle" x="504" y="-1606" font-family="Helvetica,sans-Serif" font-size="10.00">#totstatcount</text>
<text text-anchor="middle" x="504" y="-1595" font-family="Helvetica,sans-Serif" font-size="10.00">#nsite</text>
</g>
<!-- Node25 -->
<g id="node8" class="node"><title>Node25</title>
<polygon fill="none" stroke="#bfbfbf" points="270.5,-1709.5 270.5,-1766.5 305.5,-1766.5 305.5,-1709.5 270.5,-1709.5"/>
<text text-anchor="middle" x="288" y="-1754.5" font-family="Helvetica,sans-Serif" font-size="10.00">bool</text>
<polyline fill="none" stroke="#bfbfbf" points="270.5,-1747.5 305.5,-1747.5 "/>
<text text-anchor="middle" x="288" y="-1735.5" font-family="Helvetica,sans-Serif" font-size="10.00"> </text>
<polyline fill="none" stroke="#bfbfbf" points="270.5,-1728.5 305.5,-1728.5 "/>
<text text-anchor="middle" x="288" y="-1716.5" font-family="Helvetica,sans-Serif" font-size="10.00"> </text>
</g>
<!-- Node25&#45;&gt;Node19 -->
<g id="edge12" class="edge"><title>Node25&#45;&gt;Node19</title>
<path fill="none" stroke="#404040" d="M285.3,-1709.08C273.286,-1578.68 228.096,-1016.93 294,-564 295.225,-555.584 296.894,-546.933 298.844,-538.316"/>
<polygon fill="none" stroke="#404040" points="298.853,-538.279 296.368,-531.509 301.662,-526.612 304.146,-533.381 298.853,-538.279"/>
<text text-anchor="middle" x="289.5" y="-1110.5" font-family="Helvetica,sans-Serif" font-size="10.00"> #movekappa</text>
</g>
<!-- Node25&#45;&gt;Node21 -->
<g id="edge7" class="edge"><title>Node25&#45;&gt;Node21</title>
<path fill="none" stroke="#404040" d="M293.871,-1709.38C300.184,-1680.13 310.705,-1632.67 321,-1592 321.546,-1589.84 322.098,-1587.67 322.654,-1585.5"/>
<polygon fill="none" stroke="#404040" points="322.681,-1585.39 320.303,-1578.58 325.672,-1573.77 328.05,-1580.58 322.681,-1585.39"/>
<text text-anchor="middle" x="355" y="-1617" font-family="Helvetica,sans-Serif" font-size="10.00"> #activesuffstat</text>
<text text-anchor="middle" x="355" y="-1606" font-family="Helvetica,sans-Serif" font-size="10.00">#burnin</text>
</g>
</g>
</svg>
