<?xml version="1.0" encoding="UTF-8" standalone="no"?>
<!DOCTYPE svg PUBLIC "-//W3C//DTD SVG 1.1//EN"
 "http://www.w3.org/Graphics/SVG/1.1/DTD/svg11.dtd">
<!-- Generated by graphviz version 2.38.0 (20140413.2041)
 -->
<!-- Title: Bipartition Pages: 1 -->
<svg width="279pt" height="727pt"
 viewBox="0.00 0.00 278.50 727.00" xmlns="http://www.w3.org/2000/svg" xmlns:xlink="http://www.w3.org/1999/xlink">
<g id="graph0" class="graph" transform="scale(1 1) rotate(0) translate(4 723)">
<title>Bipartition</title>
<!-- Node1 -->
<g id="node1" class="node"><title>Node1</title>
<polygon fill="#bfbfbf" stroke="black" points="0,-0.5 0,-343.5 110,-343.5 110,-0.5 0,-0.5"/>
<text text-anchor="middle" x="55" y="-331.5" font-family="Helvetica,sans-Serif" font-size="10.00">Bipartition</text>
<polyline fill="none" stroke="black" points="0,-324.5 110,-324.5 "/>
<text text-anchor="middle" x="55" y="-312.5" font-family="Helvetica,sans-Serif" font-size="10.00"> </text>
<polyline fill="none" stroke="black" points="0,-305.5 110,-305.5 "/>
<text text-anchor="start" x="8" y="-293.5" font-family="Helvetica,sans-Serif" font-size="10.00">+ Bipartition()</text>
<text text-anchor="start" x="8" y="-282.5" font-family="Helvetica,sans-Serif" font-size="10.00">+ Bipartition()</text>
<text text-anchor="start" x="8" y="-271.5" font-family="Helvetica,sans-Serif" font-size="10.00">+ ~Bipartition()</text>
<text text-anchor="start" x="8" y="-260.5" font-family="Helvetica,sans-Serif" font-size="10.00">+ operator=()</text>
<text text-anchor="start" x="8" y="-249.5" font-family="Helvetica,sans-Serif" font-size="10.00">+ operator=()</text>
<text text-anchor="start" x="8" y="-238.5" font-family="Helvetica,sans-Serif" font-size="10.00">+ operator==()</text>
<text text-anchor="start" x="8" y="-227.5" font-family="Helvetica,sans-Serif" font-size="10.00">+ operator!=()</text>
<text text-anchor="start" x="8" y="-216.5" font-family="Helvetica,sans-Serif" font-size="10.00">+ operator|=()</text>
<text text-anchor="start" x="8" y="-205.5" font-family="Helvetica,sans-Serif" font-size="10.00">+ operator &amp;=()</text>
<text text-anchor="start" x="8" y="-194.5" font-family="Helvetica,sans-Serif" font-size="10.00">+ operator!()</text>
<text text-anchor="start" x="8" y="-183.5" font-family="Helvetica,sans-Serif" font-size="10.00">+ IsCompatibleWith()</text>
<text text-anchor="start" x="8" y="-172.5" font-family="Helvetica,sans-Serif" font-size="10.00">+ IsCompatibleWith()</text>
<text text-anchor="start" x="8" y="-161.5" font-family="Helvetica,sans-Serif" font-size="10.00">+ IsInformative()</text>
<text text-anchor="start" x="8" y="-150.5" font-family="Helvetica,sans-Serif" font-size="10.00">+ CompareWith()</text>
<text text-anchor="start" x="8" y="-139.5" font-family="Helvetica,sans-Serif" font-size="10.00">+ CompareWith()</text>
<text text-anchor="start" x="8" y="-128.5" font-family="Helvetica,sans-Serif" font-size="10.00">+ SupportCheck()</text>
<text text-anchor="start" x="8" y="-117.5" font-family="Helvetica,sans-Serif" font-size="10.00">+ SupportCheck()</text>
<text text-anchor="start" x="8" y="-106.5" font-family="Helvetica,sans-Serif" font-size="10.00">+ AllAbsent()</text>
<text text-anchor="start" x="8" y="-95.5" font-family="Helvetica,sans-Serif" font-size="10.00">+ Suppress()</text>
<text text-anchor="start" x="8" y="-84.5" font-family="Helvetica,sans-Serif" font-size="10.00">+ PermutTaxa()</text>
<text text-anchor="start" x="8" y="-73.5" font-family="Helvetica,sans-Serif" font-size="10.00">+ GetTaxonStatus()</text>
<text text-anchor="start" x="8" y="-62.5" font-family="Helvetica,sans-Serif" font-size="10.00">+ SetTaxon()</text>
<text text-anchor="start" x="8" y="-51.5" font-family="Helvetica,sans-Serif" font-size="10.00">+ GetParameters()</text>
<text text-anchor="start" x="8" y="-40.5" font-family="Helvetica,sans-Serif" font-size="10.00">+ WriteToStream()</text>
<text text-anchor="start" x="8" y="-29.5" font-family="Helvetica,sans-Serif" font-size="10.00">+ ReadFromStream()</text>
<text text-anchor="start" x="8" y="-18.5" font-family="Helvetica,sans-Serif" font-size="10.00">+ GetPriorProb()</text>
<text text-anchor="start" x="8" y="-7.5" font-family="Helvetica,sans-Serif" font-size="10.00">+ Modulo()</text>
</g>
<!-- Node2 -->
<g id="node2" class="node"><title>Node2</title>
<polygon fill="none" stroke="#bfbfbf" points="20.5,-661.5 20.5,-718.5 49.5,-718.5 49.5,-661.5 20.5,-661.5"/>
<text text-anchor="middle" x="35" y="-706.5" font-family="Helvetica,sans-Serif" font-size="10.00">int</text>
<polyline fill="none" stroke="#bfbfbf" points="20.5,-699.5 49.5,-699.5 "/>
<text text-anchor="middle" x="35" y="-687.5" font-family="Helvetica,sans-Serif" font-size="10.00"> </text>
<polyline fill="none" stroke="#bfbfbf" points="20.5,-680.5 49.5,-680.5 "/>
<text text-anchor="middle" x="35" y="-668.5" font-family="Helvetica,sans-Serif" font-size="10.00"> </text>
</g>
<!-- Node2&#45;&gt;Node1 -->
<g id="edge1" class="edge"><title>Node2&#45;&gt;Node1</title>
<path fill="none" stroke="#404040" d="M31.7903,-661.261C30.3137,-647.135 28.73,-629.676 28,-614 23.3898,-514.996 21.8973,-489.923 28,-391 28.7133,-379.438 29.6374,-367.551 30.7123,-355.578"/>
<polygon fill="none" stroke="#404040" points="30.7164,-355.533 27.2932,-349.187 31.8352,-343.586 35.2584,-349.933 30.7164,-355.533"/>
<text text-anchor="middle" x="48.5" y="-505.5" font-family="Helvetica,sans-Serif" font-size="10.00"> +mArray</text>
<text text-anchor="middle" x="48.5" y="-494.5" font-family="Helvetica,sans-Serif" font-size="10.00">+Ntaxa</text>
</g>
<!-- Node3 -->
<g id="node3" class="node"><title>Node3</title>
<g id="a_node3"><a xlink:href="classTaxaParameters.html" target="_top" xlink:title="{TaxaParameters\n||+ TaxaParameters()\l+ TaxaParameters()\l+ TaxaParameters()\l+ TaxaParameters()\l+ TaxaParameters()\l+ TaxaParameters()\l+ ~TaxaParameters()\l+ ReadFromStream()\l+ WriteToStream()\l+ ReadNexus()\l+ GetSpeciesName()\l+ Member()\l+ RegisterWith()\l+ GetParameters()\l+ GetOutGroup()\l+ SetOutGroup()\l}">
<polygon fill="none" stroke="black" points="78,-391.5 78,-613.5 188,-613.5 188,-391.5 78,-391.5"/>
<text text-anchor="middle" x="133" y="-601.5" font-family="Helvetica,sans-Serif" font-size="10.00">TaxaParameters</text>
<polyline fill="none" stroke="black" points="78,-594.5 188,-594.5 "/>
<text text-anchor="middle" x="133" y="-582.5" font-family="Helvetica,sans-Serif" font-size="10.00"> </text>
<polyline fill="none" stroke="black" points="78,-575.5 188,-575.5 "/>
<text text-anchor="start" x="86" y="-563.5" font-family="Helvetica,sans-Serif" font-size="10.00">+ TaxaParameters()</text>
<text text-anchor="start" x="86" y="-552.5" font-family="Helvetica,sans-Serif" font-size="10.00">+ TaxaParameters()</text>
<text text-anchor="start" x="86" y="-541.5" font-family="Helvetica,sans-Serif" font-size="10.00">+ TaxaParameters()</text>
<text text-anchor="start" x="86" y="-530.5" font-family="Helvetica,sans-Serif" font-size="10.00">+ TaxaParameters()</text>
<text text-anchor="start" x="86" y="-519.5" font-family="Helvetica,sans-Serif" font-size="10.00">+ TaxaParameters()</text>
<text text-anchor="start" x="86" y="-508.5" font-family="Helvetica,sans-Serif" font-size="10.00">+ TaxaParameters()</text>
<text text-anchor="start" x="86" y="-497.5" font-family="Helvetica,sans-Serif" font-size="10.00">+ ~TaxaParameters()</text>
<text text-anchor="start" x="86" y="-486.5" font-family="Helvetica,sans-Serif" font-size="10.00">+ ReadFromStream()</text>
<text text-anchor="start" x="86" y="-475.5" font-family="Helvetica,sans-Serif" font-size="10.00">+ WriteToStream()</text>
<text text-anchor="start" x="86" y="-464.5" font-family="Helvetica,sans-Serif" font-size="10.00">+ ReadNexus()</text>
<text text-anchor="start" x="86" y="-453.5" font-family="Helvetica,sans-Serif" font-size="10.00">+ GetSpeciesName()</text>
<text text-anchor="start" x="86" y="-442.5" font-family="Helvetica,sans-Serif" font-size="10.00">+ Member()</text>
<text text-anchor="start" x="86" y="-431.5" font-family="Helvetica,sans-Serif" font-size="10.00">+ RegisterWith()</text>
<text text-anchor="start" x="86" y="-420.5" font-family="Helvetica,sans-Serif" font-size="10.00">+ GetParameters()</text>
<text text-anchor="start" x="86" y="-409.5" font-family="Helvetica,sans-Serif" font-size="10.00">+ GetOutGroup()</text>
<text text-anchor="start" x="86" y="-398.5" font-family="Helvetica,sans-Serif" font-size="10.00">+ SetOutGroup()</text>
</a>
</g>
</g>
<!-- Node2&#45;&gt;Node3 -->
<g id="edge4" class="edge"><title>Node2&#45;&gt;Node3</title>
<path fill="none" stroke="#404040" d="M49.6716,-661.229C55.9623,-649.321 63.77,-634.543 72.0635,-618.844"/>
<polygon fill="none" stroke="#404040" points="72.2646,-618.463 71.5305,-611.29 77.8701,-607.853 78.6041,-615.027 72.2646,-618.463"/>
<text text-anchor="middle" x="82" y="-635" font-family="Helvetica,sans-Serif" font-size="10.00"> +Ntaxa</text>
</g>
<!-- Node3&#45;&gt;Node1 -->
<g id="edge2" class="edge"><title>Node3&#45;&gt;Node1</title>
<path fill="none" stroke="#404040" d="M106.81,-391.2C104.043,-379.547 101.179,-367.487 98.2838,-355.292"/>
<polygon fill="none" stroke="#404040" points="98.2723,-355.243 92.9943,-350.329 95.5,-343.567 100.778,-348.481 98.2723,-355.243"/>
<text text-anchor="middle" x="123" y="-365" font-family="Helvetica,sans-Serif" font-size="10.00"> +mParam</text>
</g>
<!-- Node4 -->
<g id="node4" class="node"><title>Node4</title>
<polygon fill="none" stroke="#bfbfbf" points="106.5,-661.5 106.5,-718.5 147.5,-718.5 147.5,-661.5 106.5,-661.5"/>
<text text-anchor="middle" x="127" y="-706.5" font-family="Helvetica,sans-Serif" font-size="10.00">string</text>
<polyline fill="none" stroke="#bfbfbf" points="106.5,-699.5 147.5,-699.5 "/>
<text text-anchor="middle" x="127" y="-687.5" font-family="Helvetica,sans-Serif" font-size="10.00"> </text>
<polyline fill="none" stroke="#bfbfbf" points="106.5,-680.5 147.5,-680.5 "/>
<text text-anchor="middle" x="127" y="-668.5" font-family="Helvetica,sans-Serif" font-size="10.00"> </text>
</g>
<!-- Node4&#45;&gt;Node3 -->
<g id="edge3" class="edge"><title>Node4&#45;&gt;Node3</title>
<path fill="none" stroke="#404040" d="M127.365,-661.455C127.52,-652.104 127.729,-641.597 128,-632 128.058,-629.929 128.119,-627.839 128.182,-625.734"/>
<polygon fill="none" stroke="#404040" points="128.188,-625.543 124.378,-619.42 128.563,-613.549 132.374,-619.671 128.188,-625.543"/>
<text text-anchor="middle" x="166" y="-635" font-family="Helvetica,sans-Serif" font-size="10.00"> +SpeciesNames</text>
</g>
<!-- Node5 -->
<g id="node5" class="node"><title>Node5</title>
<polygon fill="none" stroke="#bfbfbf" points="181.5,-661.5 181.5,-718.5 270.5,-718.5 270.5,-661.5 181.5,-661.5"/>
<text text-anchor="middle" x="226" y="-706.5" font-family="Helvetica,sans-Serif" font-size="10.00">MCParameters *</text>
<polyline fill="none" stroke="#bfbfbf" points="181.5,-699.5 270.5,-699.5 "/>
<text text-anchor="middle" x="226" y="-687.5" font-family="Helvetica,sans-Serif" font-size="10.00"> </text>
<polyline fill="none" stroke="#bfbfbf" points="181.5,-680.5 270.5,-680.5 "/>
<text text-anchor="middle" x="226" y="-668.5" font-family="Helvetica,sans-Serif" font-size="10.00"> </text>
</g>
<!-- Node5&#45;&gt;Node3 -->
<g id="edge5" class="edge"><title>Node5&#45;&gt;Node3</title>
<path fill="none" stroke="#404040" d="M216.227,-661.429C212.65,-651.981 208.395,-641.42 204,-632 200.744,-625.021 197.267,-617.9 193.667,-610.766"/>
<polygon fill="none" stroke="#404040" points="193.596,-610.627 187.3,-607.113 188.123,-599.949 194.419,-603.463 193.596,-610.627"/>
<text text-anchor="middle" x="231" y="-635" font-family="Helvetica,sans-Serif" font-size="10.00"> +mParam</text>
</g>
</g>
</svg>
