<?xml version="1.0" encoding="UTF-8" standalone="no"?>
<!DOCTYPE svg PUBLIC "-//W3C//DTD SVG 1.1//EN"
 "http://www.w3.org/Graphics/SVG/1.1/DTD/svg11.dtd">
<!-- Generated by graphviz version 2.38.0 (20140413.2041)
 -->
<!-- Title: LGSubMatrix Pages: 1 -->
<svg width="387pt" height="933pt"
 viewBox="0.00 0.00 387.44 933.00" xmlns="http://www.w3.org/2000/svg" xmlns:xlink="http://www.w3.org/1999/xlink">
<g id="graph0" class="graph" transform="scale(1 1) rotate(0) translate(4 929)">
<title>LGSubMatrix</title>
<!-- Node3 -->
<g id="node1" class="node"><title>Node3</title>
<polygon fill="#bfbfbf" stroke="black" points="169.937,-0.5 169.937,-57.5 258.937,-57.5 258.937,-0.5 169.937,-0.5"/>
<text text-anchor="middle" x="214.437" y="-45.5" font-family="Helvetica,sans-Serif" font-size="10.00">LGSubMatrix</text>
<polyline fill="none" stroke="black" points="169.937,-38.5 258.937,-38.5 "/>
<text text-anchor="middle" x="214.437" y="-26.5" font-family="Helvetica,sans-Serif" font-size="10.00"> </text>
<polyline fill="none" stroke="black" points="169.937,-19.5 258.937,-19.5 "/>
<text text-anchor="start" x="177.937" y="-7.5" font-family="Helvetica,sans-Serif" font-size="10.00">+ LGSubMatrix()</text>
</g>
<!-- Node4 -->
<g id="node2" class="node"><title>Node4</title>
<g id="a_node2"><a xlink:href="classGTRSubMatrix.html" target="_top" xlink:title="{GTRSubMatrix\n||+ GTRSubMatrix()\l+ ~GTRSubMatrix()\l+ GetNRelativeRate()\l+ RelativeRate()\l+ SetRelativeRate()\l+ rrindex()\l+ SetMinStat()\l# ComputeArray()\l# ComputeStationary()\l}">
<polygon fill="none" stroke="black" points="156.937,-95.5 156.937,-240.5 271.937,-240.5 271.937,-95.5 156.937,-95.5"/>
<text text-anchor="middle" x="214.437" y="-228.5" font-family="Helvetica,sans-Serif" font-size="10.00">GTRSubMatrix</text>
<polyline fill="none" stroke="black" points="156.937,-221.5 271.937,-221.5 "/>
<text text-anchor="middle" x="214.437" y="-209.5" font-family="Helvetica,sans-Serif" font-size="10.00"> </text>
<polyline fill="none" stroke="black" points="156.937,-202.5 271.937,-202.5 "/>
<text text-anchor="start" x="164.937" y="-190.5" font-family="Helvetica,sans-Serif" font-size="10.00">+ GTRSubMatrix()</text>
<text text-anchor="start" x="164.937" y="-179.5" font-family="Helvetica,sans-Serif" font-size="10.00">+ ~GTRSubMatrix()</text>
<text text-anchor="start" x="164.937" y="-168.5" font-family="Helvetica,sans-Serif" font-size="10.00">+ GetNRelativeRate()</text>
<text text-anchor="start" x="164.937" y="-157.5" font-family="Helvetica,sans-Serif" font-size="10.00">+ RelativeRate()</text>
<text text-anchor="start" x="164.937" y="-146.5" font-family="Helvetica,sans-Serif" font-size="10.00">+ SetRelativeRate()</text>
<text text-anchor="start" x="164.937" y="-135.5" font-family="Helvetica,sans-Serif" font-size="10.00">+ rrindex()</text>
<text text-anchor="start" x="164.937" y="-124.5" font-family="Helvetica,sans-Serif" font-size="10.00">+ SetMinStat()</text>
<text text-anchor="start" x="164.937" y="-113.5" font-family="Helvetica,sans-Serif" font-size="10.00"># ComputeArray()</text>
<text text-anchor="start" x="164.937" y="-102.5" font-family="Helvetica,sans-Serif" font-size="10.00"># ComputeStationary()</text>
</a>
</g>
</g>
<!-- Node4&#45;&gt;Node3 -->
<g id="edge1" class="edge"><title>Node4&#45;&gt;Node3</title>
<path fill="none" stroke="midnightblue" d="M214.437,-85.0423C214.437,-75.3063 214.437,-65.9479 214.437,-57.7962"/>
<polygon fill="none" stroke="midnightblue" points="210.937,-85.2901 214.437,-95.2901 217.937,-85.2901 210.937,-85.2901"/>
</g>
<!-- Node5 -->
<g id="node3" class="node"><title>Node5</title>
<g id="a_node3"><a xlink:href="classSubMatrix.html" target="_top" xlink:title="{SubMatrix\n||+ SubMatrix()\l+ ~SubMatrix()\l+ Create()\l+ operator()()\l+ GetRow()\l+ GetStationary()\l+ Stationary()\l+ GetNstate()\l+ GetRate()\l+ ScalarMul()\l+ isNormalised()\l+ Normalise()\l+ CorruptMatrix()\l+ UpdateMatrix()\l+ ActivatePowers()\l+ InactivatePowers()\l+ Power()\l+ GetUniformizationMu()\l+ GetEigenVal()\l+ GetEigenVect()\l+ GetInvEigenVect()\l+ GetFiniteTimeTransitionProb()\l+ DrawUniformizedTransition()\l+ DrawUniformizedSubstitution\lNumber()\l+ DrawOneStep()\l+ ToStream()\l+ CheckReversibility()\l+ GetDiagStat()\l+ GetUniSubCount()\l+ GetMeanUni()\l# ComputeExponential()\l# ComputeArray()\l# ComputeStationary()\l# UpdateRow()\l# UpdateStationary()\l# ComputePowers()\l# CreatePowers()\l# ArrayUpdated()\l# Diagonalise()\l}">
<polygon fill="none" stroke="black" points="136.437,-278.5 136.437,-764.5 292.437,-764.5 292.437,-278.5 136.437,-278.5"/>
<text text-anchor="middle" x="214.437" y="-752.5" font-family="Helvetica,sans-Serif" font-size="10.00">SubMatrix</text>
<polyline fill="none" stroke="black" points="136.437,-745.5 292.437,-745.5 "/>
<text text-anchor="middle" x="214.437" y="-733.5" font-family="Helvetica,sans-Serif" font-size="10.00"> </text>
<polyline fill="none" stroke="black" points="136.437,-726.5 292.437,-726.5 "/>
<text text-anchor="start" x="144.437" y="-714.5" font-family="Helvetica,sans-Serif" font-size="10.00">+ SubMatrix()</text>
<text text-anchor="start" x="144.437" y="-703.5" font-family="Helvetica,sans-Serif" font-size="10.00">+ ~SubMatrix()</text>
<text text-anchor="start" x="144.437" y="-692.5" font-family="Helvetica,sans-Serif" font-size="10.00">+ Create()</text>
<text text-anchor="start" x="144.437" y="-681.5" font-family="Helvetica,sans-Serif" font-size="10.00">+ operator()()</text>
<text text-anchor="start" x="144.437" y="-670.5" font-family="Helvetica,sans-Serif" font-size="10.00">+ GetRow()</text>
<text text-anchor="start" x="144.437" y="-659.5" font-family="Helvetica,sans-Serif" font-size="10.00">+ GetStationary()</text>
<text text-anchor="start" x="144.437" y="-648.5" font-family="Helvetica,sans-Serif" font-size="10.00">+ Stationary()</text>
<text text-anchor="start" x="144.437" y="-637.5" font-family="Helvetica,sans-Serif" font-size="10.00">+ GetNstate()</text>
<text text-anchor="start" x="144.437" y="-626.5" font-family="Helvetica,sans-Serif" font-size="10.00">+ GetRate()</text>
<text text-anchor="start" x="144.437" y="-615.5" font-family="Helvetica,sans-Serif" font-size="10.00">+ ScalarMul()</text>
<text text-anchor="start" x="144.437" y="-604.5" font-family="Helvetica,sans-Serif" font-size="10.00">+ isNormalised()</text>
<text text-anchor="start" x="144.437" y="-593.5" font-family="Helvetica,sans-Serif" font-size="10.00">+ Normalise()</text>
<text text-anchor="start" x="144.437" y="-582.5" font-family="Helvetica,sans-Serif" font-size="10.00">+ CorruptMatrix()</text>
<text text-anchor="start" x="144.437" y="-571.5" font-family="Helvetica,sans-Serif" font-size="10.00">+ UpdateMatrix()</text>
<text text-anchor="start" x="144.437" y="-560.5" font-family="Helvetica,sans-Serif" font-size="10.00">+ ActivatePowers()</text>
<text text-anchor="start" x="144.437" y="-549.5" font-family="Helvetica,sans-Serif" font-size="10.00">+ InactivatePowers()</text>
<text text-anchor="start" x="144.437" y="-538.5" font-family="Helvetica,sans-Serif" font-size="10.00">+ Power()</text>
<text text-anchor="start" x="144.437" y="-527.5" font-family="Helvetica,sans-Serif" font-size="10.00">+ GetUniformizationMu()</text>
<text text-anchor="start" x="144.437" y="-516.5" font-family="Helvetica,sans-Serif" font-size="10.00">+ GetEigenVal()</text>
<text text-anchor="start" x="144.437" y="-505.5" font-family="Helvetica,sans-Serif" font-size="10.00">+ GetEigenVect()</text>
<text text-anchor="start" x="144.437" y="-494.5" font-family="Helvetica,sans-Serif" font-size="10.00">+ GetInvEigenVect()</text>
<text text-anchor="start" x="144.437" y="-483.5" font-family="Helvetica,sans-Serif" font-size="10.00">+ GetFiniteTimeTransitionProb()</text>
<text text-anchor="start" x="144.437" y="-472.5" font-family="Helvetica,sans-Serif" font-size="10.00">+ DrawUniformizedTransition()</text>
<text text-anchor="start" x="144.437" y="-461.5" font-family="Helvetica,sans-Serif" font-size="10.00">+ DrawUniformizedSubstitution</text>
<text text-anchor="start" x="144.437" y="-450.5" font-family="Helvetica,sans-Serif" font-size="10.00">Number()</text>
<text text-anchor="start" x="144.437" y="-439.5" font-family="Helvetica,sans-Serif" font-size="10.00">+ DrawOneStep()</text>
<text text-anchor="start" x="144.437" y="-428.5" font-family="Helvetica,sans-Serif" font-size="10.00">+ ToStream()</text>
<text text-anchor="start" x="144.437" y="-417.5" font-family="Helvetica,sans-Serif" font-size="10.00">+ CheckReversibility()</text>
<text text-anchor="start" x="144.437" y="-406.5" font-family="Helvetica,sans-Serif" font-size="10.00">+ GetDiagStat()</text>
<text text-anchor="start" x="144.437" y="-395.5" font-family="Helvetica,sans-Serif" font-size="10.00">+ GetUniSubCount()</text>
<text text-anchor="start" x="144.437" y="-384.5" font-family="Helvetica,sans-Serif" font-size="10.00">+ GetMeanUni()</text>
<text text-anchor="start" x="144.437" y="-373.5" font-family="Helvetica,sans-Serif" font-size="10.00"># ComputeExponential()</text>
<text text-anchor="start" x="144.437" y="-362.5" font-family="Helvetica,sans-Serif" font-size="10.00"># ComputeArray()</text>
<text text-anchor="start" x="144.437" y="-351.5" font-family="Helvetica,sans-Serif" font-size="10.00"># ComputeStationary()</text>
<text text-anchor="start" x="144.437" y="-340.5" font-family="Helvetica,sans-Serif" font-size="10.00"># UpdateRow()</text>
<text text-anchor="start" x="144.437" y="-329.5" font-family="Helvetica,sans-Serif" font-size="10.00"># UpdateStationary()</text>
<text text-anchor="start" x="144.437" y="-318.5" font-family="Helvetica,sans-Serif" font-size="10.00"># ComputePowers()</text>
<text text-anchor="start" x="144.437" y="-307.5" font-family="Helvetica,sans-Serif" font-size="10.00"># CreatePowers()</text>
<text text-anchor="start" x="144.437" y="-296.5" font-family="Helvetica,sans-Serif" font-size="10.00"># ArrayUpdated()</text>
<text text-anchor="start" x="144.437" y="-285.5" font-family="Helvetica,sans-Serif" font-size="10.00"># Diagonalise()</text>
</a>
</g>
</g>
<!-- Node5&#45;&gt;Node4 -->
<g id="edge2" class="edge"><title>Node5&#45;&gt;Node4</title>
<path fill="none" stroke="midnightblue" d="M214.437,-268.114C214.437,-258.477 214.437,-249.221 214.437,-240.502"/>
<polygon fill="none" stroke="midnightblue" points="210.937,-268.29 214.437,-278.29 217.937,-268.29 210.937,-268.29"/>
</g>
<!-- Node6 -->
<g id="node4" class="node"><title>Node6</title>
<polygon fill="none" stroke="#bfbfbf" points="46.9372,-867.5 46.9372,-924.5 91.9372,-924.5 91.9372,-867.5 46.9372,-867.5"/>
<text text-anchor="middle" x="69.4372" y="-912.5" font-family="Helvetica,sans-Serif" font-size="10.00">double</text>
<polyline fill="none" stroke="#bfbfbf" points="46.9372,-905.5 91.9372,-905.5 "/>
<text text-anchor="middle" x="69.4372" y="-893.5" font-family="Helvetica,sans-Serif" font-size="10.00"> </text>
<polyline fill="none" stroke="#bfbfbf" points="46.9372,-886.5 91.9372,-886.5 "/>
<text text-anchor="middle" x="69.4372" y="-874.5" font-family="Helvetica,sans-Serif" font-size="10.00"> </text>
</g>
<!-- Node6&#45;&gt;Node4 -->
<g id="edge6" class="edge"><title>Node6&#45;&gt;Node4</title>
<path fill="none" stroke="#404040" d="M59.7134,-867.303C29.5462,-776.309 -54.1682,-480.798 53.4372,-278 73.067,-241.005 111.487,-214.266 145.873,-196.533"/>
<polygon fill="none" stroke="#404040" points="146.112,-196.414 149.714,-190.167 156.866,-191.09 153.264,-197.337 146.112,-196.414"/>
<text text-anchor="middle" x="90.4372" y="-524.5" font-family="Helvetica,sans-Serif" font-size="10.00"> #mRelativeRate</text>
<text text-anchor="middle" x="90.4372" y="-513.5" font-family="Helvetica,sans-Serif" font-size="10.00">#ExternalStat</text>
</g>
<!-- Node6&#45;&gt;Node5 -->
<g id="edge3" class="edge"><title>Node6&#45;&gt;Node5</title>
<path fill="none" stroke="#404040" d="M78.2085,-867.234C85.8734,-844.191 97.8765,-810.813 111.437,-783 115.546,-774.573 118.312,-773.419 122.437,-765 125.409,-758.935 128.348,-752.747 131.249,-746.474"/>
<polygon fill="none" stroke="#404040" points="131.457,-746.017 130.301,-738.899 136.427,-735.095 137.582,-742.213 131.457,-746.017"/>
<text text-anchor="middle" x="140.437" y="-830" font-family="Helvetica,sans-Serif" font-size="10.00"> #UniMu</text>
<text text-anchor="middle" x="140.437" y="-819" font-family="Helvetica,sans-Serif" font-size="10.00">#mStationary</text>
<text text-anchor="middle" x="140.437" y="-808" font-family="Helvetica,sans-Serif" font-size="10.00">#Q</text>
<text text-anchor="middle" x="140.437" y="-797" font-family="Helvetica,sans-Serif" font-size="10.00">#mPow</text>
</g>
<!-- Node7 -->
<g id="node5" class="node"><title>Node7</title>
<polygon fill="none" stroke="#bfbfbf" points="272.937,-867.5 272.937,-924.5 301.937,-924.5 301.937,-867.5 272.937,-867.5"/>
<text text-anchor="middle" x="287.437" y="-912.5" font-family="Helvetica,sans-Serif" font-size="10.00">int</text>
<polyline fill="none" stroke="#bfbfbf" points="272.937,-905.5 301.937,-905.5 "/>
<text text-anchor="middle" x="287.437" y="-893.5" font-family="Helvetica,sans-Serif" font-size="10.00"> </text>
<polyline fill="none" stroke="#bfbfbf" points="272.937,-886.5 301.937,-886.5 "/>
<text text-anchor="middle" x="287.437" y="-874.5" font-family="Helvetica,sans-Serif" font-size="10.00"> </text>
</g>
<!-- Node7&#45;&gt;Node4 -->
<g id="edge7" class="edge"><title>Node7&#45;&gt;Node4</title>
<path fill="none" stroke="#404040" d="M302.018,-875.436C306.982,-867.628 311.911,-858.293 314.437,-849 322.131,-820.694 314.815,-812.331 314.437,-783 311.548,-558.5 378.357,-488.932 301.437,-278 296.234,-263.731 288.356,-249.91 279.428,-237.174"/>
<polygon fill="none" stroke="#404040" points="279.198,-236.861 272.417,-234.408 272.074,-227.205 278.854,-229.658 279.198,-236.861"/>
<text text-anchor="middle" x="358.937" y="-524.5" font-family="Helvetica,sans-Serif" font-size="10.00"> #minstat</text>
<text text-anchor="middle" x="358.937" y="-513.5" font-family="Helvetica,sans-Serif" font-size="10.00">#Nrr</text>
</g>
<!-- Node7&#45;&gt;Node5 -->
<g id="edge4" class="edge"><title>Node7&#45;&gt;Node5</title>
<path fill="none" stroke="#404040" d="M272.678,-882.484C263.763,-874.009 253.067,-862.016 247.437,-849 237.577,-826.203 230.118,-801.702 224.528,-776.739"/>
<polygon fill="none" stroke="#404040" points="224.496,-776.588 219.34,-771.547 222.011,-764.848 227.167,-769.89 224.496,-776.588"/>
<text text-anchor="middle" x="280.937" y="-841" font-family="Helvetica,sans-Serif" font-size="10.00"> +nunisubcount</text>
<text text-anchor="middle" x="280.937" y="-830" font-family="Helvetica,sans-Serif" font-size="10.00">#Nstate</text>
<text text-anchor="middle" x="280.937" y="-819" font-family="Helvetica,sans-Serif" font-size="10.00">+UniSubNmax</text>
<text text-anchor="middle" x="280.937" y="-808" font-family="Helvetica,sans-Serif" font-size="10.00">#npow</text>
<text text-anchor="middle" x="280.937" y="-797" font-family="Helvetica,sans-Serif" font-size="10.00">+nuni</text>
<text text-anchor="middle" x="280.937" y="-786" font-family="Helvetica,sans-Serif" font-size="10.00">+nunimax</text>
</g>
<!-- Node8 -->
<g id="node6" class="node"><title>Node8</title>
<polygon fill="none" stroke="#bfbfbf" points="157.937,-867.5 157.937,-924.5 192.937,-924.5 192.937,-867.5 157.937,-867.5"/>
<text text-anchor="middle" x="175.437" y="-912.5" font-family="Helvetica,sans-Serif" font-size="10.00">bool</text>
<polyline fill="none" stroke="#bfbfbf" points="157.937,-905.5 192.937,-905.5 "/>
<text text-anchor="middle" x="175.437" y="-893.5" font-family="Helvetica,sans-Serif" font-size="10.00"> </text>
<polyline fill="none" stroke="#bfbfbf" points="157.937,-886.5 192.937,-886.5 "/>
<text text-anchor="middle" x="175.437" y="-874.5" font-family="Helvetica,sans-Serif" font-size="10.00"> </text>
</g>
<!-- Node8&#45;&gt;Node5 -->
<g id="edge5" class="edge"><title>Node8&#45;&gt;Node5</title>
<path fill="none" stroke="#404040" d="M174.641,-867.339C174.238,-844.644 174.227,-811.694 176.437,-783 176.597,-780.924 176.763,-778.84 176.936,-776.749"/>
<polygon fill="none" stroke="#404040" points="176.945,-776.646 173.481,-770.321 177.987,-764.691 181.451,-771.016 176.945,-776.646"/>
<text text-anchor="middle" x="200.437" y="-835.5" font-family="Helvetica,sans-Serif" font-size="10.00"> #flagarray</text>
<text text-anchor="middle" x="200.437" y="-824.5" font-family="Helvetica,sans-Serif" font-size="10.00">#diagflag</text>
<text text-anchor="middle" x="200.437" y="-813.5" font-family="Helvetica,sans-Serif" font-size="10.00">#powflag</text>
<text text-anchor="middle" x="200.437" y="-802.5" font-family="Helvetica,sans-Serif" font-size="10.00">#normalise</text>
<text text-anchor="middle" x="200.437" y="-791.5" font-family="Helvetica,sans-Serif" font-size="10.00">#statflag</text>
</g>
</g>
</svg>
