<?xml version="1.0" encoding="UTF-8" standalone="no"?>
<!DOCTYPE svg PUBLIC "-//W3C//DTD SVG 1.1//EN"
 "http://www.w3.org/Graphics/SVG/1.1/DTD/svg11.dtd">
<!-- Generated by graphviz version 2.38.0 (20140413.2041)
 -->
<!-- Title: ConjugateRandomBranchSitePath Pages: 1 -->
<svg width="256pt" height="182pt"
 viewBox="0.00 0.00 255.50 182.00" xmlns="http://www.w3.org/2000/svg" xmlns:xlink="http://www.w3.org/1999/xlink">
<g id="graph0" class="graph" transform="scale(1 1) rotate(0) translate(4 178)">
<title>ConjugateRandomBranchSitePath</title>
<!-- Node0 -->
<g id="node1" class="node"><title>Node0</title>
<polygon fill="#bfbfbf" stroke="black" points="29,-0.5 29,-68.5 210,-68.5 210,-0.5 29,-0.5"/>
<text text-anchor="middle" x="119.5" y="-56.5" font-family="Helvetica,sans-Serif" font-size="10.00">ConjugateRandomBranchSitePath</text>
<polyline fill="none" stroke="black" points="29,-49.5 210,-49.5 "/>
<text text-anchor="middle" x="119.5" y="-37.5" font-family="Helvetica,sans-Serif" font-size="10.00"> </text>
<polyline fill="none" stroke="black" points="29,-30.5 210,-30.5 "/>
<text text-anchor="start" x="37" y="-18.5" font-family="Helvetica,sans-Serif" font-size="10.00">+ ConjugateRandomBranchSitePath()</text>
<text text-anchor="start" x="37" y="-7.5" font-family="Helvetica,sans-Serif" font-size="10.00"># AddSufficientStatistic()</text>
</g>
<!-- Node1 -->
<g id="node2" class="node"><title>Node1</title>
<g id="a_node2"><a xlink:href="classConjugateSampling.html" target="_top" xlink:title="{ConjugateSampling\&lt;\l void \&gt;\n||}">
<polygon fill="none" stroke="black" points="0,-105.5 0,-173.5 107,-173.5 107,-105.5 0,-105.5"/>
<text text-anchor="start" x="8" y="-161.5" font-family="Helvetica,sans-Serif" font-size="10.00">ConjugateSampling&lt;</text>
<text text-anchor="middle" x="53.5" y="-150.5" font-family="Helvetica,sans-Serif" font-size="10.00"> void &gt;</text>
<polyline fill="none" stroke="black" points="0,-143.5 107,-143.5 "/>
<text text-anchor="middle" x="53.5" y="-131.5" font-family="Helvetica,sans-Serif" font-size="10.00"> </text>
<polyline fill="none" stroke="black" points="0,-124.5 107,-124.5 "/>
<text text-anchor="middle" x="53.5" y="-112.5" font-family="Helvetica,sans-Serif" font-size="10.00"> </text>
</a>
</g>
</g>
<!-- Node1&#45;&gt;Node0 -->
<g id="edge1" class="edge"><title>Node1&#45;&gt;Node0</title>
<path fill="none" stroke="midnightblue" d="M80.1761,-96.8691C86.2048,-87.4607 92.526,-77.5958 98.2937,-68.5947"/>
<polygon fill="none" stroke="midnightblue" points="77.1944,-95.0351 74.7461,-105.343 83.0882,-98.8118 77.1944,-95.0351"/>
</g>
<!-- Node2 -->
<g id="node3" class="node"><title>Node2</title>
<g id="a_node3"><a xlink:href="classRandomBranchSitePath.html" target="_top" xlink:title="{RandomBranchSitePath\n||}">
<polygon fill="none" stroke="black" points="125.5,-111 125.5,-168 247.5,-168 247.5,-111 125.5,-111"/>
<text text-anchor="middle" x="186.5" y="-156" font-family="Helvetica,sans-Serif" font-size="10.00">RandomBranchSitePath</text>
<polyline fill="none" stroke="black" points="125.5,-149 247.5,-149 "/>
<text text-anchor="middle" x="186.5" y="-137" font-family="Helvetica,sans-Serif" font-size="10.00"> </text>
<polyline fill="none" stroke="black" points="125.5,-130 247.5,-130 "/>
<text text-anchor="middle" x="186.5" y="-118" font-family="Helvetica,sans-Serif" font-size="10.00"> </text>
</a>
</g>
</g>
<!-- Node2&#45;&gt;Node0 -->
<g id="edge2" class="edge"><title>Node2&#45;&gt;Node0</title>
<path fill="none" stroke="midnightblue" d="M162.999,-102.372C155.872,-91.4149 148.079,-79.4354 141.084,-68.6812"/>
<polygon fill="none" stroke="midnightblue" points="160.159,-104.424 168.545,-110.898 166.026,-100.607 160.159,-104.424"/>
</g>
</g>
</svg>
