<?xml version="1.0" encoding="UTF-8" standalone="no"?>
<!DOCTYPE svg PUBLIC "-//W3C//DTD SVG 1.1//EN"
 "http://www.w3.org/Graphics/SVG/1.1/DTD/svg11.dtd">
<!-- Generated by graphviz version 2.40.1 (20161225.0304)
 -->
<!-- Title: NewickTree Pages: 1 -->
<svg width="125pt" height="281pt"
 viewBox="0.00 0.00 125.00 281.00" xmlns="http://www.w3.org/2000/svg" xmlns:xlink="http://www.w3.org/1999/xlink">
<g id="graph0" class="graph" transform="scale(1 1) rotate(0) translate(4 277)">
<title>NewickTree</title>
<!-- Node10 -->
<g id="node1" class="node">
<title>Node10</title>
<polygon fill="#bfbfbf" stroke="#000000" points="0,-.5 0,-167.5 117,-167.5 117,-.5 0,-.5"/>
<text text-anchor="middle" x="58.5" y="-155.5" font-family="Helvetica,sans-Serif" font-size="10.00" fill="#000000">NewickTree</text>
<polyline fill="none" stroke="#000000" points="0,-148.5 117,-148.5 "/>
<text text-anchor="middle" x="58.5" y="-136.5" font-family="Helvetica,sans-Serif" font-size="10.00" fill="#000000"> </text>
<polyline fill="none" stroke="#000000" points="0,-129.5 117,-129.5 "/>
<text text-anchor="start" x="8" y="-117.5" font-family="Helvetica,sans-Serif" font-size="10.00" fill="#000000">+ ~NewickTree()</text>
<text text-anchor="start" x="8" y="-106.5" font-family="Helvetica,sans-Serif" font-size="10.00" fill="#000000">+ GetRoot()</text>
<text text-anchor="start" x="8" y="-95.5" font-family="Helvetica,sans-Serif" font-size="10.00" fill="#000000">+ GetRoot()</text>
<text text-anchor="start" x="8" y="-84.5" font-family="Helvetica,sans-Serif" font-size="10.00" fill="#000000">+ ToStream()</text>
<text text-anchor="start" x="8" y="-73.5" font-family="Helvetica,sans-Serif" font-size="10.00" fill="#000000">+ ToStream()</text>
<text text-anchor="start" x="8" y="-62.5" font-family="Helvetica,sans-Serif" font-size="10.00" fill="#000000">+ ToStreamSimplified()</text>
<text text-anchor="start" x="8" y="-51.5" font-family="Helvetica,sans-Serif" font-size="10.00" fill="#000000">+ GetLeftMost()</text>
<text text-anchor="start" x="8" y="-40.5" font-family="Helvetica,sans-Serif" font-size="10.00" fill="#000000">+ GetRightMost()</text>
<text text-anchor="start" x="8" y="-29.5" font-family="Helvetica,sans-Serif" font-size="10.00" fill="#000000">+ GetNodeName()</text>
<text text-anchor="start" x="8" y="-18.5" font-family="Helvetica,sans-Serif" font-size="10.00" fill="#000000">+ GetBranchName()</text>
<text text-anchor="start" x="8" y="-7.5" font-family="Helvetica,sans-Serif" font-size="10.00" fill="#000000">+ Simplify()</text>
</g>
<!-- Node11 -->
<g id="node2" class="node">
<title>Node11</title>
<polygon fill="none" stroke="#bfbfbf" points="41,-215.5 41,-272.5 76,-272.5 76,-215.5 41,-215.5"/>
<text text-anchor="middle" x="58.5" y="-260.5" font-family="Helvetica,sans-Serif" font-size="10.00" fill="#000000">bool</text>
<polyline fill="none" stroke="#bfbfbf" points="41,-253.5 76,-253.5 "/>
<text text-anchor="middle" x="58.5" y="-241.5" font-family="Helvetica,sans-Serif" font-size="10.00" fill="#000000"> </text>
<polyline fill="none" stroke="#bfbfbf" points="41,-234.5 76,-234.5 "/>
<text text-anchor="middle" x="58.5" y="-222.5" font-family="Helvetica,sans-Serif" font-size="10.00" fill="#000000"> </text>
</g>
<!-- Node11&#45;&gt;Node10 -->
<g id="edge1" class="edge">
<title>Node11&#45;&gt;Node10</title>
<path fill="none" stroke="#404040" d="M58.5,-215.3952C58.5,-205.0035 58.5,-192.6055 58.5,-179.637"/>
<polygon fill="none" stroke="#404040" points="58.5001,-179.6079 54.5,-173.608 58.5,-167.6079 62.5,-173.6079 58.5001,-179.6079"/>
<text text-anchor="middle" x="80" y="-189" font-family="Helvetica,sans-Serif" font-size="10.00" fill="#000000"> #simplify</text>
</g>
</g>
</svg>
