<?xml version="1.0" encoding="UTF-8" standalone="no"?>
<!DOCTYPE svg PUBLIC "-//W3C//DTD SVG 1.1//EN"
 "http://www.w3.org/Graphics/SVG/1.1/DTD/svg11.dtd">
<!-- Generated by graphviz version 2.40.1 (20161225.0304)
 -->
<!-- Title: StateSpace Pages: 1 -->
<svg width="384pt" height="386pt"
 viewBox="0.00 0.00 384.00 386.00" xmlns="http://www.w3.org/2000/svg" xmlns:xlink="http://www.w3.org/1999/xlink">
<g id="graph0" class="graph" transform="scale(1 1) rotate(0) translate(4 382)">
<title>StateSpace</title>
<!-- Node0 -->
<g id="node1" class="node">
<title>Node0</title>
<polygon fill="#bfbfbf" stroke="#000000" points="143.5,-287.5 143.5,-377.5 232.5,-377.5 232.5,-287.5 143.5,-287.5"/>
<text text-anchor="middle" x="188" y="-365.5" font-family="Helvetica,sans-Serif" font-size="10.00" fill="#000000">StateSpace</text>
<polyline fill="none" stroke="#000000" points="143.5,-358.5 232.5,-358.5 "/>
<text text-anchor="middle" x="188" y="-346.5" font-family="Helvetica,sans-Serif" font-size="10.00" fill="#000000"> </text>
<polyline fill="none" stroke="#000000" points="143.5,-339.5 232.5,-339.5 "/>
<text text-anchor="start" x="151.5" y="-327.5" font-family="Helvetica,sans-Serif" font-size="10.00" fill="#000000">+ ~StateSpace()</text>
<text text-anchor="start" x="151.5" y="-316.5" font-family="Helvetica,sans-Serif" font-size="10.00" fill="#000000">+ GetState()</text>
<text text-anchor="start" x="151.5" y="-305.5" font-family="Helvetica,sans-Serif" font-size="10.00" fill="#000000">+ GetNstate()</text>
<text text-anchor="start" x="151.5" y="-294.5" font-family="Helvetica,sans-Serif" font-size="10.00" fill="#000000">+ GetState()</text>
</g>
<!-- Node1 -->
<g id="node2" class="node">
<title>Node1</title>
<g id="a_node2"><a xlink:href="classSimpleStateSpace.html" target="_top" xlink:title="{SimpleStateSpace\n|# Nstate\l# Alphabet\l# NAlphabetSet\l# AlphabetSet\l|+ SimpleStateSpace()\l+ SimpleStateSpace()\l+ GetState()\l+ GetNstate()\l+ GetState()\l+ GetCharState()\l}">
<polygon fill="none" stroke="#000000" points="131.5,-105.5 131.5,-250.5 244.5,-250.5 244.5,-105.5 131.5,-105.5"/>
<text text-anchor="middle" x="188" y="-238.5" font-family="Helvetica,sans-Serif" font-size="10.00" fill="#000000">SimpleStateSpace</text>
<polyline fill="none" stroke="#000000" points="131.5,-231.5 244.5,-231.5 "/>
<text text-anchor="start" x="139.5" y="-219.5" font-family="Helvetica,sans-Serif" font-size="10.00" fill="#000000"># Nstate</text>
<text text-anchor="start" x="139.5" y="-208.5" font-family="Helvetica,sans-Serif" font-size="10.00" fill="#000000"># Alphabet</text>
<text text-anchor="start" x="139.5" y="-197.5" font-family="Helvetica,sans-Serif" font-size="10.00" fill="#000000"># NAlphabetSet</text>
<text text-anchor="start" x="139.5" y="-186.5" font-family="Helvetica,sans-Serif" font-size="10.00" fill="#000000"># AlphabetSet</text>
<polyline fill="none" stroke="#000000" points="131.5,-179.5 244.5,-179.5 "/>
<text text-anchor="start" x="139.5" y="-167.5" font-family="Helvetica,sans-Serif" font-size="10.00" fill="#000000">+ SimpleStateSpace()</text>
<text text-anchor="start" x="139.5" y="-156.5" font-family="Helvetica,sans-Serif" font-size="10.00" fill="#000000">+ SimpleStateSpace()</text>
<text text-anchor="start" x="139.5" y="-145.5" font-family="Helvetica,sans-Serif" font-size="10.00" fill="#000000">+ GetState()</text>
<text text-anchor="start" x="139.5" y="-134.5" font-family="Helvetica,sans-Serif" font-size="10.00" fill="#000000">+ GetNstate()</text>
<text text-anchor="start" x="139.5" y="-123.5" font-family="Helvetica,sans-Serif" font-size="10.00" fill="#000000">+ GetState()</text>
<text text-anchor="start" x="139.5" y="-112.5" font-family="Helvetica,sans-Serif" font-size="10.00" fill="#000000">+ GetCharState()</text>
</a>
</g>
</g>
<!-- Node0&#45;&gt;Node1 -->
<g id="edge1" class="edge">
<title>Node0&#45;&gt;Node1</title>
<path fill="none" stroke="#191970" d="M188,-277.1753C188,-268.61 188,-259.6527 188,-250.7745"/>
<polygon fill="none" stroke="#191970" points="184.5001,-277.3968 188,-287.3969 191.5001,-277.3969 184.5001,-277.3968"/>
</g>
<!-- Node2 -->
<g id="node3" class="node">
<title>Node2</title>
<g id="a_node3"><a xlink:href="classDNAStateSpace.html" target="_top" xlink:title="{DNAStateSpace\n||+ DNAStateSpace()\l+ ~DNAStateSpace()\l}">
<polygon fill="none" stroke="#000000" points="0,-.5 0,-68.5 110,-68.5 110,-.5 0,-.5"/>
<text text-anchor="middle" x="55" y="-56.5" font-family="Helvetica,sans-Serif" font-size="10.00" fill="#000000">DNAStateSpace</text>
<polyline fill="none" stroke="#000000" points="0,-49.5 110,-49.5 "/>
<text text-anchor="middle" x="55" y="-37.5" font-family="Helvetica,sans-Serif" font-size="10.00" fill="#000000"> </text>
<polyline fill="none" stroke="#000000" points="0,-30.5 110,-30.5 "/>
<text text-anchor="start" x="8" y="-18.5" font-family="Helvetica,sans-Serif" font-size="10.00" fill="#000000">+ DNAStateSpace()</text>
<text text-anchor="start" x="8" y="-7.5" font-family="Helvetica,sans-Serif" font-size="10.00" fill="#000000">+ ~DNAStateSpace()</text>
</a>
</g>
</g>
<!-- Node1&#45;&gt;Node2 -->
<g id="edge2" class="edge">
<title>Node1&#45;&gt;Node2</title>
<path fill="none" stroke="#191970" d="M124.3838,-109.3615C111.2831,-95.2265 98.0329,-80.9302 86.672,-68.6724"/>
<polygon fill="none" stroke="#191970" points="121.8456,-111.7717 131.2102,-116.7268 126.9796,-107.0133 121.8456,-111.7717"/>
</g>
<!-- Node3 -->
<g id="node4" class="node">
<title>Node3</title>
<g id="a_node4"><a xlink:href="classProteinStateSpace.html" target="_top" xlink:title="{ProteinStateSpace\n||+ ProteinStateSpace()\l+ ~ProteinStateSpace()\l}">
<polygon fill="none" stroke="#000000" points="128.5,-.5 128.5,-68.5 247.5,-68.5 247.5,-.5 128.5,-.5"/>
<text text-anchor="middle" x="188" y="-56.5" font-family="Helvetica,sans-Serif" font-size="10.00" fill="#000000">ProteinStateSpace</text>
<polyline fill="none" stroke="#000000" points="128.5,-49.5 247.5,-49.5 "/>
<text text-anchor="middle" x="188" y="-37.5" font-family="Helvetica,sans-Serif" font-size="10.00" fill="#000000"> </text>
<polyline fill="none" stroke="#000000" points="128.5,-30.5 247.5,-30.5 "/>
<text text-anchor="start" x="136.5" y="-18.5" font-family="Helvetica,sans-Serif" font-size="10.00" fill="#000000">+ ProteinStateSpace()</text>
<text text-anchor="start" x="136.5" y="-7.5" font-family="Helvetica,sans-Serif" font-size="10.00" fill="#000000">+ ~ProteinStateSpace()</text>
</a>
</g>
</g>
<!-- Node1&#45;&gt;Node3 -->
<g id="edge3" class="edge">
<title>Node1&#45;&gt;Node3</title>
<path fill="none" stroke="#191970" d="M188,-95.2543C188,-85.9591 188,-76.916 188,-68.7692"/>
<polygon fill="none" stroke="#191970" points="184.5001,-95.4092 188,-105.4092 191.5001,-95.4092 184.5001,-95.4092"/>
</g>
<!-- Node4 -->
<g id="node5" class="node">
<title>Node4</title>
<g id="a_node5"><a xlink:href="classRNAStateSpace.html" target="_top" xlink:title="{RNAStateSpace\n||+ RNAStateSpace()\l+ ~RNAStateSpace()\l}">
<polygon fill="none" stroke="#000000" points="266,-.5 266,-68.5 376,-68.5 376,-.5 266,-.5"/>
<text text-anchor="middle" x="321" y="-56.5" font-family="Helvetica,sans-Serif" font-size="10.00" fill="#000000">RNAStateSpace</text>
<polyline fill="none" stroke="#000000" points="266,-49.5 376,-49.5 "/>
<text text-anchor="middle" x="321" y="-37.5" font-family="Helvetica,sans-Serif" font-size="10.00" fill="#000000"> </text>
<polyline fill="none" stroke="#000000" points="266,-30.5 376,-30.5 "/>
<text text-anchor="start" x="274" y="-18.5" font-family="Helvetica,sans-Serif" font-size="10.00" fill="#000000">+ RNAStateSpace()</text>
<text text-anchor="start" x="274" y="-7.5" font-family="Helvetica,sans-Serif" font-size="10.00" fill="#000000">+ ~RNAStateSpace()</text>
</a>
</g>
</g>
<!-- Node1&#45;&gt;Node4 -->
<g id="edge4" class="edge">
<title>Node1&#45;&gt;Node4</title>
<path fill="none" stroke="#191970" d="M251.6162,-109.3615C264.7169,-95.2265 277.9671,-80.9302 289.328,-68.6724"/>
<polygon fill="none" stroke="#191970" points="249.0204,-107.0133 244.7898,-116.7268 254.1544,-111.7717 249.0204,-107.0133"/>
</g>
</g>
</svg>
