<?xml version="1.0" encoding="UTF-8" standalone="no"?>
<!DOCTYPE svg PUBLIC "-//W3C//DTD SVG 1.1//EN"
 "http://www.w3.org/Graphics/SVG/1.1/DTD/svg11.dtd">
<!-- Generated by graphviz version 2.40.1 (20161225.0304)
 -->
<!-- Title: GTRSubstitutionProcess Pages: 1 -->
<svg width="835pt" height="1587pt"
 viewBox="0.00 0.00 834.50 1587.00" xmlns="http://www.w3.org/2000/svg" xmlns:xlink="http://www.w3.org/1999/xlink">
<g id="graph0" class="graph" transform="scale(1 1) rotate(0) translate(4 1583)">
<title>GTRSubstitutionProcess</title>
<!-- Node14 -->
<g id="node1" class="node">
<title>Node14</title>
<polygon fill="#bfbfbf" stroke="#000000" points="278,-.5 278,-90.5 424,-90.5 424,-.5 278,-.5"/>
<text text-anchor="middle" x="351" y="-78.5" font-family="Helvetica,sans-Serif" font-size="10.00" fill="#000000">GTRSubstitutionProcess</text>
<polyline fill="none" stroke="#000000" points="278,-71.5 424,-71.5 "/>
<text text-anchor="middle" x="351" y="-59.5" font-family="Helvetica,sans-Serif" font-size="10.00" fill="#000000"> </text>
<polyline fill="none" stroke="#000000" points="278,-52.5 424,-52.5 "/>
<text text-anchor="start" x="286" y="-40.5" font-family="Helvetica,sans-Serif" font-size="10.00" fill="#000000">+ GTRSubstitutionProcess()</text>
<text text-anchor="start" x="286" y="-29.5" font-family="Helvetica,sans-Serif" font-size="10.00" fill="#000000">+ ~GTRSubstitutionProcess()</text>
<text text-anchor="start" x="286" y="-18.5" font-family="Helvetica,sans-Serif" font-size="10.00" fill="#000000"># Create()</text>
<text text-anchor="start" x="286" y="-7.5" font-family="Helvetica,sans-Serif" font-size="10.00" fill="#000000"># Delete()</text>
</g>
<!-- Node15 -->
<g id="node2" class="node">
<title>Node15</title>
<g id="a_node2"><a xlink:href="classMatrixSubstitutionProcess.html" target="_top" xlink:title="{MatrixSubstitutionProcess\n||+ MatrixSubstitutionProcess()\l+ ~MatrixSubstitutionProcess()\l+ GetNstate()\l+ GetStationary()\l# Propagate()\l# SamplePaths()\l# SampleRootPaths()\l# ResampleAcceptReject()\l# ResampleUniformized()\l# SimuPropagate()\l}">
<polygon fill="none" stroke="#000000" points="275,-167 275,-323 427,-323 427,-167 275,-167"/>
<text text-anchor="middle" x="351" y="-311" font-family="Helvetica,sans-Serif" font-size="10.00" fill="#000000">MatrixSubstitutionProcess</text>
<polyline fill="none" stroke="#000000" points="275,-304 427,-304 "/>
<text text-anchor="middle" x="351" y="-292" font-family="Helvetica,sans-Serif" font-size="10.00" fill="#000000"> </text>
<polyline fill="none" stroke="#000000" points="275,-285 427,-285 "/>
<text text-anchor="start" x="283" y="-273" font-family="Helvetica,sans-Serif" font-size="10.00" fill="#000000">+ MatrixSubstitutionProcess()</text>
<text text-anchor="start" x="283" y="-262" font-family="Helvetica,sans-Serif" font-size="10.00" fill="#000000">+ ~MatrixSubstitutionProcess()</text>
<text text-anchor="start" x="283" y="-251" font-family="Helvetica,sans-Serif" font-size="10.00" fill="#000000">+ GetNstate()</text>
<text text-anchor="start" x="283" y="-240" font-family="Helvetica,sans-Serif" font-size="10.00" fill="#000000">+ GetStationary()</text>
<text text-anchor="start" x="283" y="-229" font-family="Helvetica,sans-Serif" font-size="10.00" fill="#000000"># Propagate()</text>
<text text-anchor="start" x="283" y="-218" font-family="Helvetica,sans-Serif" font-size="10.00" fill="#000000"># SamplePaths()</text>
<text text-anchor="start" x="283" y="-207" font-family="Helvetica,sans-Serif" font-size="10.00" fill="#000000"># SampleRootPaths()</text>
<text text-anchor="start" x="283" y="-196" font-family="Helvetica,sans-Serif" font-size="10.00" fill="#000000"># ResampleAcceptReject()</text>
<text text-anchor="start" x="283" y="-185" font-family="Helvetica,sans-Serif" font-size="10.00" fill="#000000"># ResampleUniformized()</text>
<text text-anchor="start" x="283" y="-174" font-family="Helvetica,sans-Serif" font-size="10.00" fill="#000000"># SimuPropagate()</text>
</a>
</g>
</g>
<!-- Node15&#45;&gt;Node14 -->
<g id="edge1" class="edge">
<title>Node15&#45;&gt;Node14</title>
<path fill="none" stroke="#191970" d="M351,-156.6778C351,-133.8919 351,-110.2999 351,-90.7424"/>
<polygon fill="none" stroke="#191970" points="347.5001,-156.7249 351,-166.7249 354.5001,-156.7249 347.5001,-156.7249"/>
</g>
<!-- Node16 -->
<g id="node3" class="node">
<title>Node16</title>
<g id="a_node3"><a xlink:href="classSubstitutionProcess.html" target="_top" xlink:title="{SubstitutionProcess\n||+ SubstitutionProcess()\l+ ~SubstitutionProcess()\l+ GetNsite()\l+ GetDim()\l+ GetNstate()\l+ GetGlobalNstate()\l+ GetStationary()\l+ GetSiteMin()\l+ GetSiteMax()\l+ GetInfProbCount()\l# Create()\l# Delete()\l# CreateConditionalLikelihood\lVector()\l# DeleteConditionalLikelihood\lVector()\l# CreateProbVector()\l# CreateCondSiteLogL()\l# DeleteCondSiteLogL()\l# DrawAllocations()\l# DrawAllocationsFromPrior()\l# Reset()\l# Multiply()\l# MultiplyByStationaries()\l# Offset()\l# Initialize()\l# ComputeLikelihood()\l# ConditionalLikelihoodsTo\lStatePostProbs()\l# Propagate()\l# SimuPropagate()\l# ChooseStates()\l# ChooseStatesAtEquilibrium()\l# SetCondToStates()\l# SamplePaths()\l# SampleRootPaths()\l}">
<polygon fill="none" stroke="#000000" points="230.5,-409.5 230.5,-851.5 381.5,-851.5 381.5,-409.5 230.5,-409.5"/>
<text text-anchor="middle" x="306" y="-839.5" font-family="Helvetica,sans-Serif" font-size="10.00" fill="#000000">SubstitutionProcess</text>
<polyline fill="none" stroke="#000000" points="230.5,-832.5 381.5,-832.5 "/>
<text text-anchor="middle" x="306" y="-820.5" font-family="Helvetica,sans-Serif" font-size="10.00" fill="#000000"> </text>
<polyline fill="none" stroke="#000000" points="230.5,-813.5 381.5,-813.5 "/>
<text text-anchor="start" x="238.5" y="-801.5" font-family="Helvetica,sans-Serif" font-size="10.00" fill="#000000">+ SubstitutionProcess()</text>
<text text-anchor="start" x="238.5" y="-790.5" font-family="Helvetica,sans-Serif" font-size="10.00" fill="#000000">+ ~SubstitutionProcess()</text>
<text text-anchor="start" x="238.5" y="-779.5" font-family="Helvetica,sans-Serif" font-size="10.00" fill="#000000">+ GetNsite()</text>
<text text-anchor="start" x="238.5" y="-768.5" font-family="Helvetica,sans-Serif" font-size="10.00" fill="#000000">+ GetDim()</text>
<text text-anchor="start" x="238.5" y="-757.5" font-family="Helvetica,sans-Serif" font-size="10.00" fill="#000000">+ GetNstate()</text>
<text text-anchor="start" x="238.5" y="-746.5" font-family="Helvetica,sans-Serif" font-size="10.00" fill="#000000">+ GetGlobalNstate()</text>
<text text-anchor="start" x="238.5" y="-735.5" font-family="Helvetica,sans-Serif" font-size="10.00" fill="#000000">+ GetStationary()</text>
<text text-anchor="start" x="238.5" y="-724.5" font-family="Helvetica,sans-Serif" font-size="10.00" fill="#000000">+ GetSiteMin()</text>
<text text-anchor="start" x="238.5" y="-713.5" font-family="Helvetica,sans-Serif" font-size="10.00" fill="#000000">+ GetSiteMax()</text>
<text text-anchor="start" x="238.5" y="-702.5" font-family="Helvetica,sans-Serif" font-size="10.00" fill="#000000">+ GetInfProbCount()</text>
<text text-anchor="start" x="238.5" y="-691.5" font-family="Helvetica,sans-Serif" font-size="10.00" fill="#000000"># Create()</text>
<text text-anchor="start" x="238.5" y="-680.5" font-family="Helvetica,sans-Serif" font-size="10.00" fill="#000000"># Delete()</text>
<text text-anchor="start" x="238.5" y="-669.5" font-family="Helvetica,sans-Serif" font-size="10.00" fill="#000000"># CreateConditionalLikelihood</text>
<text text-anchor="start" x="238.5" y="-658.5" font-family="Helvetica,sans-Serif" font-size="10.00" fill="#000000">Vector()</text>
<text text-anchor="start" x="238.5" y="-647.5" font-family="Helvetica,sans-Serif" font-size="10.00" fill="#000000"># DeleteConditionalLikelihood</text>
<text text-anchor="start" x="238.5" y="-636.5" font-family="Helvetica,sans-Serif" font-size="10.00" fill="#000000">Vector()</text>
<text text-anchor="start" x="238.5" y="-625.5" font-family="Helvetica,sans-Serif" font-size="10.00" fill="#000000"># CreateProbVector()</text>
<text text-anchor="start" x="238.5" y="-614.5" font-family="Helvetica,sans-Serif" font-size="10.00" fill="#000000"># CreateCondSiteLogL()</text>
<text text-anchor="start" x="238.5" y="-603.5" font-family="Helvetica,sans-Serif" font-size="10.00" fill="#000000"># DeleteCondSiteLogL()</text>
<text text-anchor="start" x="238.5" y="-592.5" font-family="Helvetica,sans-Serif" font-size="10.00" fill="#000000"># DrawAllocations()</text>
<text text-anchor="start" x="238.5" y="-581.5" font-family="Helvetica,sans-Serif" font-size="10.00" fill="#000000"># DrawAllocationsFromPrior()</text>
<text text-anchor="start" x="238.5" y="-570.5" font-family="Helvetica,sans-Serif" font-size="10.00" fill="#000000"># Reset()</text>
<text text-anchor="start" x="238.5" y="-559.5" font-family="Helvetica,sans-Serif" font-size="10.00" fill="#000000"># Multiply()</text>
<text text-anchor="start" x="238.5" y="-548.5" font-family="Helvetica,sans-Serif" font-size="10.00" fill="#000000"># MultiplyByStationaries()</text>
<text text-anchor="start" x="238.5" y="-537.5" font-family="Helvetica,sans-Serif" font-size="10.00" fill="#000000"># Offset()</text>
<text text-anchor="start" x="238.5" y="-526.5" font-family="Helvetica,sans-Serif" font-size="10.00" fill="#000000"># Initialize()</text>
<text text-anchor="start" x="238.5" y="-515.5" font-family="Helvetica,sans-Serif" font-size="10.00" fill="#000000"># ComputeLikelihood()</text>
<text text-anchor="start" x="238.5" y="-504.5" font-family="Helvetica,sans-Serif" font-size="10.00" fill="#000000"># ConditionalLikelihoodsTo</text>
<text text-anchor="start" x="238.5" y="-493.5" font-family="Helvetica,sans-Serif" font-size="10.00" fill="#000000">StatePostProbs()</text>
<text text-anchor="start" x="238.5" y="-482.5" font-family="Helvetica,sans-Serif" font-size="10.00" fill="#000000"># Propagate()</text>
<text text-anchor="start" x="238.5" y="-471.5" font-family="Helvetica,sans-Serif" font-size="10.00" fill="#000000"># SimuPropagate()</text>
<text text-anchor="start" x="238.5" y="-460.5" font-family="Helvetica,sans-Serif" font-size="10.00" fill="#000000"># ChooseStates()</text>
<text text-anchor="start" x="238.5" y="-449.5" font-family="Helvetica,sans-Serif" font-size="10.00" fill="#000000"># ChooseStatesAtEquilibrium()</text>
<text text-anchor="start" x="238.5" y="-438.5" font-family="Helvetica,sans-Serif" font-size="10.00" fill="#000000"># SetCondToStates()</text>
<text text-anchor="start" x="238.5" y="-427.5" font-family="Helvetica,sans-Serif" font-size="10.00" fill="#000000"># SamplePaths()</text>
<text text-anchor="start" x="238.5" y="-416.5" font-family="Helvetica,sans-Serif" font-size="10.00" fill="#000000"># SampleRootPaths()</text>
</a>
</g>
</g>
<!-- Node16&#45;&gt;Node15 -->
<g id="edge2" class="edge">
<title>Node16&#45;&gt;Node15</title>
<path fill="none" stroke="#191970" d="M332.9911,-399.2761C336.1612,-372.1186 339.2074,-346.0234 341.8638,-323.267"/>
<polygon fill="none" stroke="#191970" points="329.5012,-398.9869 331.8181,-409.3253 336.454,-399.7985 329.5012,-398.9869"/>
</g>
<!-- Node17 -->
<g id="node4" class="node">
<title>Node17</title>
<g id="a_node4"><a xlink:href="classRateProcess.html" target="_top" xlink:title="{RateProcess\n||+ RateProcess()\l+ ~RateProcess()\l+ GetVersion()\l+ GetNsite()\l+ GetNrate()\l+ GetRate()\l+ GetRateWeight()\l+ GetMeanRate()\l+ GetPriorMeanRate()\l+ GetAlpha()\l+ ActivateSumOverRateAllocations()\l+ InactivateSumOverRateAllocations()\l+ SumOverRateAllocations()\l+ LogRatePrior()\l+ SampleRate()\l+ ToStream()\l+ FromStream()\l# GlobalUpdateSiteRateSuffStat()\l# SlaveUpdateSiteRateSuffStat()\l# UpdateSiteRateSuffStat()\l# GetSiteRateSuffStatBeta()\l# GetSiteRateSuffStatCount()\l# Create()\l# Delete()\l# GetNprocs()\l# GetMyid()\l# GetSiteMin()\l# GetSiteMax()\l}">
<polygon fill="none" stroke="#000000" points="152.5,-938 152.5,-1292 337.5,-1292 337.5,-938 152.5,-938"/>
<text text-anchor="middle" x="245" y="-1280" font-family="Helvetica,sans-Serif" font-size="10.00" fill="#000000">RateProcess</text>
<polyline fill="none" stroke="#000000" points="152.5,-1273 337.5,-1273 "/>
<text text-anchor="middle" x="245" y="-1261" font-family="Helvetica,sans-Serif" font-size="10.00" fill="#000000"> </text>
<polyline fill="none" stroke="#000000" points="152.5,-1254 337.5,-1254 "/>
<text text-anchor="start" x="160.5" y="-1242" font-family="Helvetica,sans-Serif" font-size="10.00" fill="#000000">+ RateProcess()</text>
<text text-anchor="start" x="160.5" y="-1231" font-family="Helvetica,sans-Serif" font-size="10.00" fill="#000000">+ ~RateProcess()</text>
<text text-anchor="start" x="160.5" y="-1220" font-family="Helvetica,sans-Serif" font-size="10.00" fill="#000000">+ GetVersion()</text>
<text text-anchor="start" x="160.5" y="-1209" font-family="Helvetica,sans-Serif" font-size="10.00" fill="#000000">+ GetNsite()</text>
<text text-anchor="start" x="160.5" y="-1198" font-family="Helvetica,sans-Serif" font-size="10.00" fill="#000000">+ GetNrate()</text>
<text text-anchor="start" x="160.5" y="-1187" font-family="Helvetica,sans-Serif" font-size="10.00" fill="#000000">+ GetRate()</text>
<text text-anchor="start" x="160.5" y="-1176" font-family="Helvetica,sans-Serif" font-size="10.00" fill="#000000">+ GetRateWeight()</text>
<text text-anchor="start" x="160.5" y="-1165" font-family="Helvetica,sans-Serif" font-size="10.00" fill="#000000">+ GetMeanRate()</text>
<text text-anchor="start" x="160.5" y="-1154" font-family="Helvetica,sans-Serif" font-size="10.00" fill="#000000">+ GetPriorMeanRate()</text>
<text text-anchor="start" x="160.5" y="-1143" font-family="Helvetica,sans-Serif" font-size="10.00" fill="#000000">+ GetAlpha()</text>
<text text-anchor="start" x="160.5" y="-1132" font-family="Helvetica,sans-Serif" font-size="10.00" fill="#000000">+ ActivateSumOverRateAllocations()</text>
<text text-anchor="start" x="160.5" y="-1121" font-family="Helvetica,sans-Serif" font-size="10.00" fill="#000000">+ InactivateSumOverRateAllocations()</text>
<text text-anchor="start" x="160.5" y="-1110" font-family="Helvetica,sans-Serif" font-size="10.00" fill="#000000">+ SumOverRateAllocations()</text>
<text text-anchor="start" x="160.5" y="-1099" font-family="Helvetica,sans-Serif" font-size="10.00" fill="#000000">+ LogRatePrior()</text>
<text text-anchor="start" x="160.5" y="-1088" font-family="Helvetica,sans-Serif" font-size="10.00" fill="#000000">+ SampleRate()</text>
<text text-anchor="start" x="160.5" y="-1077" font-family="Helvetica,sans-Serif" font-size="10.00" fill="#000000">+ ToStream()</text>
<text text-anchor="start" x="160.5" y="-1066" font-family="Helvetica,sans-Serif" font-size="10.00" fill="#000000">+ FromStream()</text>
<text text-anchor="start" x="160.5" y="-1055" font-family="Helvetica,sans-Serif" font-size="10.00" fill="#000000"># GlobalUpdateSiteRateSuffStat()</text>
<text text-anchor="start" x="160.5" y="-1044" font-family="Helvetica,sans-Serif" font-size="10.00" fill="#000000"># SlaveUpdateSiteRateSuffStat()</text>
<text text-anchor="start" x="160.5" y="-1033" font-family="Helvetica,sans-Serif" font-size="10.00" fill="#000000"># UpdateSiteRateSuffStat()</text>
<text text-anchor="start" x="160.5" y="-1022" font-family="Helvetica,sans-Serif" font-size="10.00" fill="#000000"># GetSiteRateSuffStatBeta()</text>
<text text-anchor="start" x="160.5" y="-1011" font-family="Helvetica,sans-Serif" font-size="10.00" fill="#000000"># GetSiteRateSuffStatCount()</text>
<text text-anchor="start" x="160.5" y="-1000" font-family="Helvetica,sans-Serif" font-size="10.00" fill="#000000"># Create()</text>
<text text-anchor="start" x="160.5" y="-989" font-family="Helvetica,sans-Serif" font-size="10.00" fill="#000000"># Delete()</text>
<text text-anchor="start" x="160.5" y="-978" font-family="Helvetica,sans-Serif" font-size="10.00" fill="#000000"># GetNprocs()</text>
<text text-anchor="start" x="160.5" y="-967" font-family="Helvetica,sans-Serif" font-size="10.00" fill="#000000"># GetMyid()</text>
<text text-anchor="start" x="160.5" y="-956" font-family="Helvetica,sans-Serif" font-size="10.00" fill="#000000"># GetSiteMin()</text>
<text text-anchor="start" x="160.5" y="-945" font-family="Helvetica,sans-Serif" font-size="10.00" fill="#000000"># GetSiteMax()</text>
</a>
</g>
</g>
<!-- Node17&#45;&gt;Node14 -->
<g id="edge22" class="edge">
<title>Node17&#45;&gt;Node14</title>
<path fill="none" stroke="#191970" d="M225.8154,-927.8416C223.8216,-902.3785 222.1185,-876.564 221,-852 206.3355,-529.935 117.2493,-414.0318 266,-128 273.0214,-114.4986 283.0859,-101.9093 293.8475,-90.8328"/>
<polygon fill="none" stroke="#191970" points="222.3384,-928.2701 226.6241,-937.9594 229.3162,-927.7123 222.3384,-928.2701"/>
</g>
<!-- Node17&#45;&gt;Node16 -->
<g id="edge3" class="edge">
<title>Node17&#45;&gt;Node16</title>
<path fill="none" stroke="#191970" d="M268.6102,-927.4734C271.7354,-902.6504 274.9626,-877.0186 278.1508,-851.696"/>
<polygon fill="none" stroke="#191970" points="265.1012,-927.3256 267.3245,-937.6846 272.0464,-928.2001 265.1012,-927.3256"/>
</g>
<!-- Node18 -->
<g id="node5" class="node">
<title>Node18</title>
<g id="a_node5"><a xlink:href="classChrono.html" target="_top" xlink:title="{Chrono\n||+ Chrono()\l+ ~Chrono()\l+ Reset()\l+ Start()\l+ Stop()\l+ ToStream()\l+ FromStream()\l+ operator++()\l+ GetTime()\l+ GetTimePerCount()\l+ GetCount()\l}">
<polygon fill="none" stroke="#000000" points="0,-1411.5 0,-1578.5 110,-1578.5 110,-1411.5 0,-1411.5"/>
<text text-anchor="middle" x="55" y="-1566.5" font-family="Helvetica,sans-Serif" font-size="10.00" fill="#000000">Chrono</text>
<polyline fill="none" stroke="#000000" points="0,-1559.5 110,-1559.5 "/>
<text text-anchor="middle" x="55" y="-1547.5" font-family="Helvetica,sans-Serif" font-size="10.00" fill="#000000"> </text>
<polyline fill="none" stroke="#000000" points="0,-1540.5 110,-1540.5 "/>
<text text-anchor="start" x="8" y="-1528.5" font-family="Helvetica,sans-Serif" font-size="10.00" fill="#000000">+ Chrono()</text>
<text text-anchor="start" x="8" y="-1517.5" font-family="Helvetica,sans-Serif" font-size="10.00" fill="#000000">+ ~Chrono()</text>
<text text-anchor="start" x="8" y="-1506.5" font-family="Helvetica,sans-Serif" font-size="10.00" fill="#000000">+ Reset()</text>
<text text-anchor="start" x="8" y="-1495.5" font-family="Helvetica,sans-Serif" font-size="10.00" fill="#000000">+ Start()</text>
<text text-anchor="start" x="8" y="-1484.5" font-family="Helvetica,sans-Serif" font-size="10.00" fill="#000000">+ Stop()</text>
<text text-anchor="start" x="8" y="-1473.5" font-family="Helvetica,sans-Serif" font-size="10.00" fill="#000000">+ ToStream()</text>
<text text-anchor="start" x="8" y="-1462.5" font-family="Helvetica,sans-Serif" font-size="10.00" fill="#000000">+ FromStream()</text>
<text text-anchor="start" x="8" y="-1451.5" font-family="Helvetica,sans-Serif" font-size="10.00" fill="#000000">+ operator++()</text>
<text text-anchor="start" x="8" y="-1440.5" font-family="Helvetica,sans-Serif" font-size="10.00" fill="#000000">+ GetTime()</text>
<text text-anchor="start" x="8" y="-1429.5" font-family="Helvetica,sans-Serif" font-size="10.00" fill="#000000">+ GetTimePerCount()</text>
<text text-anchor="start" x="8" y="-1418.5" font-family="Helvetica,sans-Serif" font-size="10.00" fill="#000000">+ GetCount()</text>
</a>
</g>
</g>
<!-- Node18&#45;&gt;Node17 -->
<g id="edge4" class="edge">
<title>Node18&#45;&gt;Node17</title>
<path fill="none" stroke="#404040" d="M27.0749,-1411.1591C24.7654,-1388.8693 27.6985,-1366.2322 42,-1349 69.7233,-1315.5955 103.3921,-1357.2057 138,-1331 149.0959,-1322.598 159.1146,-1312.7336 168.1489,-1301.9284"/>
<polygon fill="none" stroke="#404040" points="168.3947,-1301.6175 168.978,-1294.43 175.8369,-1292.204 175.2537,-1299.3915 168.3947,-1301.6175"/>
<text text-anchor="middle" x="69.5" y="-1368.5" font-family="Helvetica,sans-Serif" font-size="10.00" fill="#000000"> #chronorate</text>
</g>
<!-- Node21 -->
<g id="node8" class="node">
<title>Node21</title>
<g id="a_node8"><a xlink:href="classProfileProcess.html" target="_top" xlink:title="{ProfileProcess\n||+ ProfileProcess()\l+ ~ProfileProcess()\l+ GetVersion()\l+ GetStatInfCount()\l+ GetDim()\l+ GetNsite()\l+ GetProfile()\l+ GetStateSpace()\l+ LogProfilePrior()\l+ SampleProfile()\l+ GetMeanStationaryEntropy()\l+ GetSiteStationaryEntropy()\l+ UpdateSiteProfileSuffStat()\l+ GlobalUpdateSiteProfileSuffStat()\l+ SlaveUpdateSiteProfileSuffStat()\l+ GlobalUpdateParameters()\l+ SlaveUpdateParameters()\l+ ProfileSuffStatLogProb()\l+ ToStream()\l+ FromStream()\l+ SetBurnin()\l+ isObserved()\l+ GetMinStat()\l+ GetMinMinStat()\l# DrawProfileFromPrior()\l# GetNormalizationFactor()\l# Create()\l# Delete()\l# GetNprocs()\l# GetMyid()\l# GetSiteMin()\l# GetSiteMax()\l# GetEmpiricalFreq()\l# GetMinTotWeight()\l# SetMinTotWeight()\l}">
<polygon fill="none" stroke="#000000" points="356,-899.5 356,-1330.5 528,-1330.5 528,-899.5 356,-899.5"/>
<text text-anchor="middle" x="442" y="-1318.5" font-family="Helvetica,sans-Serif" font-size="10.00" fill="#000000">ProfileProcess</text>
<polyline fill="none" stroke="#000000" points="356,-1311.5 528,-1311.5 "/>
<text text-anchor="middle" x="442" y="-1299.5" font-family="Helvetica,sans-Serif" font-size="10.00" fill="#000000"> </text>
<polyline fill="none" stroke="#000000" points="356,-1292.5 528,-1292.5 "/>
<text text-anchor="start" x="364" y="-1280.5" font-family="Helvetica,sans-Serif" font-size="10.00" fill="#000000">+ ProfileProcess()</text>
<text text-anchor="start" x="364" y="-1269.5" font-family="Helvetica,sans-Serif" font-size="10.00" fill="#000000">+ ~ProfileProcess()</text>
<text text-anchor="start" x="364" y="-1258.5" font-family="Helvetica,sans-Serif" font-size="10.00" fill="#000000">+ GetVersion()</text>
<text text-anchor="start" x="364" y="-1247.5" font-family="Helvetica,sans-Serif" font-size="10.00" fill="#000000">+ GetStatInfCount()</text>
<text text-anchor="start" x="364" y="-1236.5" font-family="Helvetica,sans-Serif" font-size="10.00" fill="#000000">+ GetDim()</text>
<text text-anchor="start" x="364" y="-1225.5" font-family="Helvetica,sans-Serif" font-size="10.00" fill="#000000">+ GetNsite()</text>
<text text-anchor="start" x="364" y="-1214.5" font-family="Helvetica,sans-Serif" font-size="10.00" fill="#000000">+ GetProfile()</text>
<text text-anchor="start" x="364" y="-1203.5" font-family="Helvetica,sans-Serif" font-size="10.00" fill="#000000">+ GetStateSpace()</text>
<text text-anchor="start" x="364" y="-1192.5" font-family="Helvetica,sans-Serif" font-size="10.00" fill="#000000">+ LogProfilePrior()</text>
<text text-anchor="start" x="364" y="-1181.5" font-family="Helvetica,sans-Serif" font-size="10.00" fill="#000000">+ SampleProfile()</text>
<text text-anchor="start" x="364" y="-1170.5" font-family="Helvetica,sans-Serif" font-size="10.00" fill="#000000">+ GetMeanStationaryEntropy()</text>
<text text-anchor="start" x="364" y="-1159.5" font-family="Helvetica,sans-Serif" font-size="10.00" fill="#000000">+ GetSiteStationaryEntropy()</text>
<text text-anchor="start" x="364" y="-1148.5" font-family="Helvetica,sans-Serif" font-size="10.00" fill="#000000">+ UpdateSiteProfileSuffStat()</text>
<text text-anchor="start" x="364" y="-1137.5" font-family="Helvetica,sans-Serif" font-size="10.00" fill="#000000">+ GlobalUpdateSiteProfileSuffStat()</text>
<text text-anchor="start" x="364" y="-1126.5" font-family="Helvetica,sans-Serif" font-size="10.00" fill="#000000">+ SlaveUpdateSiteProfileSuffStat()</text>
<text text-anchor="start" x="364" y="-1115.5" font-family="Helvetica,sans-Serif" font-size="10.00" fill="#000000">+ GlobalUpdateParameters()</text>
<text text-anchor="start" x="364" y="-1104.5" font-family="Helvetica,sans-Serif" font-size="10.00" fill="#000000">+ SlaveUpdateParameters()</text>
<text text-anchor="start" x="364" y="-1093.5" font-family="Helvetica,sans-Serif" font-size="10.00" fill="#000000">+ ProfileSuffStatLogProb()</text>
<text text-anchor="start" x="364" y="-1082.5" font-family="Helvetica,sans-Serif" font-size="10.00" fill="#000000">+ ToStream()</text>
<text text-anchor="start" x="364" y="-1071.5" font-family="Helvetica,sans-Serif" font-size="10.00" fill="#000000">+ FromStream()</text>
<text text-anchor="start" x="364" y="-1060.5" font-family="Helvetica,sans-Serif" font-size="10.00" fill="#000000">+ SetBurnin()</text>
<text text-anchor="start" x="364" y="-1049.5" font-family="Helvetica,sans-Serif" font-size="10.00" fill="#000000">+ isObserved()</text>
<text text-anchor="start" x="364" y="-1038.5" font-family="Helvetica,sans-Serif" font-size="10.00" fill="#000000">+ GetMinStat()</text>
<text text-anchor="start" x="364" y="-1027.5" font-family="Helvetica,sans-Serif" font-size="10.00" fill="#000000">+ GetMinMinStat()</text>
<text text-anchor="start" x="364" y="-1016.5" font-family="Helvetica,sans-Serif" font-size="10.00" fill="#000000"># DrawProfileFromPrior()</text>
<text text-anchor="start" x="364" y="-1005.5" font-family="Helvetica,sans-Serif" font-size="10.00" fill="#000000"># GetNormalizationFactor()</text>
<text text-anchor="start" x="364" y="-994.5" font-family="Helvetica,sans-Serif" font-size="10.00" fill="#000000"># Create()</text>
<text text-anchor="start" x="364" y="-983.5" font-family="Helvetica,sans-Serif" font-size="10.00" fill="#000000"># Delete()</text>
<text text-anchor="start" x="364" y="-972.5" font-family="Helvetica,sans-Serif" font-size="10.00" fill="#000000"># GetNprocs()</text>
<text text-anchor="start" x="364" y="-961.5" font-family="Helvetica,sans-Serif" font-size="10.00" fill="#000000"># GetMyid()</text>
<text text-anchor="start" x="364" y="-950.5" font-family="Helvetica,sans-Serif" font-size="10.00" fill="#000000"># GetSiteMin()</text>
<text text-anchor="start" x="364" y="-939.5" font-family="Helvetica,sans-Serif" font-size="10.00" fill="#000000"># GetSiteMax()</text>
<text text-anchor="start" x="364" y="-928.5" font-family="Helvetica,sans-Serif" font-size="10.00" fill="#000000"># GetEmpiricalFreq()</text>
<text text-anchor="start" x="364" y="-917.5" font-family="Helvetica,sans-Serif" font-size="10.00" fill="#000000"># GetMinTotWeight()</text>
<text text-anchor="start" x="364" y="-906.5" font-family="Helvetica,sans-Serif" font-size="10.00" fill="#000000"># SetMinTotWeight()</text>
</a>
</g>
</g>
<!-- Node18&#45;&gt;Node21 -->
<g id="edge8" class="edge">
<title>Node18&#45;&gt;Node21</title>
<path fill="none" stroke="#404040" d="M96.8016,-1411.1791C112.9202,-1387.2063 133.6704,-1363.6343 159,-1349 231.2963,-1307.2304 278.2526,-1379.8032 346,-1331 346.1041,-1330.925 346.208,-1330.8499 346.3118,-1330.7747"/>
<polygon fill="none" stroke="#404040" points="346.2376,-1330.8334 348.4644,-1323.9747 355.652,-1323.3923 353.4251,-1330.251 346.2376,-1330.8334"/>
<text text-anchor="middle" x="186.5" y="-1379.5" font-family="Helvetica,sans-Serif" font-size="10.00" fill="#000000"> #chronostat</text>
<text text-anchor="middle" x="186.5" y="-1368.5" font-family="Helvetica,sans-Serif" font-size="10.00" fill="#000000">#chronorr</text>
<text text-anchor="middle" x="186.5" y="-1357.5" font-family="Helvetica,sans-Serif" font-size="10.00" fill="#000000">#chronodp</text>
</g>
<!-- Node19 -->
<g id="node6" class="node">
<title>Node19</title>
<polygon fill="none" stroke="#bfbfbf" points="268.5,-1466.5 268.5,-1523.5 297.5,-1523.5 297.5,-1466.5 268.5,-1466.5"/>
<text text-anchor="middle" x="283" y="-1511.5" font-family="Helvetica,sans-Serif" font-size="10.00" fill="#000000">int</text>
<polyline fill="none" stroke="#bfbfbf" points="268.5,-1504.5 297.5,-1504.5 "/>
<text text-anchor="middle" x="283" y="-1492.5" font-family="Helvetica,sans-Serif" font-size="10.00" fill="#000000"> </text>
<polyline fill="none" stroke="#bfbfbf" points="268.5,-1485.5 297.5,-1485.5 "/>
<text text-anchor="middle" x="283" y="-1473.5" font-family="Helvetica,sans-Serif" font-size="10.00" fill="#000000"> </text>
</g>
<!-- Node19&#45;&gt;Node16 -->
<g id="edge13" class="edge">
<title>Node19&#45;&gt;Node16</title>
<path fill="none" stroke="#404040" d="M268.2715,-1488.7141C236.6837,-1474.7583 161.0737,-1438.7739 109,-1393 82.826,-1369.9925 72.2727,-1363.9749 61,-1331 -1.1078,-1149.3228 -8.4002,-1078.0185 61,-899 93.032,-816.3733 163.6466,-743.6011 220.8747,-694.7359"/>
<polygon fill="none" stroke="#404040" points="221.12,-694.5294 223.1329,-687.6049 230.2989,-686.7997 228.286,-693.7242 221.12,-694.5294"/>
<text text-anchor="middle" x="102" y="-1134.5" font-family="Helvetica,sans-Serif" font-size="10.00" fill="#000000"> #sitemin</text>
<text text-anchor="middle" x="102" y="-1123.5" font-family="Helvetica,sans-Serif" font-size="10.00" fill="#000000">#suboverflowcount</text>
<text text-anchor="middle" x="102" y="-1112.5" font-family="Helvetica,sans-Serif" font-size="10.00" fill="#000000">#infprobcount</text>
<text text-anchor="middle" x="102" y="-1101.5" font-family="Helvetica,sans-Serif" font-size="10.00" fill="#000000">#ratealloc</text>
<text text-anchor="middle" x="102" y="-1090.5" font-family="Helvetica,sans-Serif" font-size="10.00" fill="#000000">#sitemax</text>
</g>
<!-- Node19&#45;&gt;Node17 -->
<g id="edge5" class="edge">
<title>Node19&#45;&gt;Node17</title>
<path fill="none" stroke="#404040" d="M268.4303,-1476.3851C254.1632,-1456.8763 233.3845,-1424.7075 225,-1393 217.5524,-1364.8356 214.714,-1334.5429 214.7287,-1304.6805"/>
<polygon fill="none" stroke="#404040" points="214.7327,-1304.3676 210.813,-1298.3148 214.8926,-1292.3686 218.8123,-1298.4214 214.7327,-1304.3676"/>
<text text-anchor="middle" x="240" y="-1368.5" font-family="Helvetica,sans-Serif" font-size="10.00" fill="#000000"> #nsite</text>
</g>
<!-- Node19&#45;&gt;Node21 -->
<g id="edge10" class="edge">
<title>Node19&#45;&gt;Node21</title>
<path fill="none" stroke="#404040" d="M294.9152,-1466.4615C307.2057,-1437.029 326.9324,-1389.8018 344,-1349 346.3822,-1343.3051 348.7973,-1337.5325 351.2345,-1331.7076"/>
<polygon fill="none" stroke="#404040" points="351.3138,-1331.5181 349.9399,-1324.439 355.9461,-1320.4482 357.3199,-1327.5272 351.3138,-1331.5181"/>
<text text-anchor="middle" x="373" y="-1385" font-family="Helvetica,sans-Serif" font-size="10.00" fill="#000000"> #dim</text>
<text text-anchor="middle" x="373" y="-1374" font-family="Helvetica,sans-Serif" font-size="10.00" fill="#000000">#statinfcount</text>
<text text-anchor="middle" x="373" y="-1363" font-family="Helvetica,sans-Serif" font-size="10.00" fill="#000000">#totstatcount</text>
<text text-anchor="middle" x="373" y="-1352" font-family="Helvetica,sans-Serif" font-size="10.00" fill="#000000">#nsite</text>
</g>
<!-- Node24 -->
<g id="node11" class="node">
<title>Node24</title>
<g id="a_node11"><a xlink:href="classGTRProfileProcess.html" target="_top" xlink:title="{GTRProfileProcess\n||+ GTRProfileProcess()\l+ ~GTRProfileProcess()\l+ GetNrr()\l+ GetRR()\l+ GetRRMean()\l+ SetRR()\l+ GetRRVarCoeff()\l+ GetRREntropy()\l+ rrindex()\l# Create()\l# Delete()\l# LogRRPrior()\l# SampleRR()\l# UpdateRRSuffStat()\l# GlobalUpdateRRSuffStat()\l# SlaveUpdateRRSuffStat()\l# MoveRR()\l}">
<polygon fill="none" stroke="#000000" points="520.5,-128.5 520.5,-361.5 661.5,-361.5 661.5,-128.5 520.5,-128.5"/>
<text text-anchor="middle" x="591" y="-349.5" font-family="Helvetica,sans-Serif" font-size="10.00" fill="#000000">GTRProfileProcess</text>
<polyline fill="none" stroke="#000000" points="520.5,-342.5 661.5,-342.5 "/>
<text text-anchor="middle" x="591" y="-330.5" font-family="Helvetica,sans-Serif" font-size="10.00" fill="#000000"> </text>
<polyline fill="none" stroke="#000000" points="520.5,-323.5 661.5,-323.5 "/>
<text text-anchor="start" x="528.5" y="-311.5" font-family="Helvetica,sans-Serif" font-size="10.00" fill="#000000">+ GTRProfileProcess()</text>
<text text-anchor="start" x="528.5" y="-300.5" font-family="Helvetica,sans-Serif" font-size="10.00" fill="#000000">+ ~GTRProfileProcess()</text>
<text text-anchor="start" x="528.5" y="-289.5" font-family="Helvetica,sans-Serif" font-size="10.00" fill="#000000">+ GetNrr()</text>
<text text-anchor="start" x="528.5" y="-278.5" font-family="Helvetica,sans-Serif" font-size="10.00" fill="#000000">+ GetRR()</text>
<text text-anchor="start" x="528.5" y="-267.5" font-family="Helvetica,sans-Serif" font-size="10.00" fill="#000000">+ GetRRMean()</text>
<text text-anchor="start" x="528.5" y="-256.5" font-family="Helvetica,sans-Serif" font-size="10.00" fill="#000000">+ SetRR()</text>
<text text-anchor="start" x="528.5" y="-245.5" font-family="Helvetica,sans-Serif" font-size="10.00" fill="#000000">+ GetRRVarCoeff()</text>
<text text-anchor="start" x="528.5" y="-234.5" font-family="Helvetica,sans-Serif" font-size="10.00" fill="#000000">+ GetRREntropy()</text>
<text text-anchor="start" x="528.5" y="-223.5" font-family="Helvetica,sans-Serif" font-size="10.00" fill="#000000">+ rrindex()</text>
<text text-anchor="start" x="528.5" y="-212.5" font-family="Helvetica,sans-Serif" font-size="10.00" fill="#000000"># Create()</text>
<text text-anchor="start" x="528.5" y="-201.5" font-family="Helvetica,sans-Serif" font-size="10.00" fill="#000000"># Delete()</text>
<text text-anchor="start" x="528.5" y="-190.5" font-family="Helvetica,sans-Serif" font-size="10.00" fill="#000000"># LogRRPrior()</text>
<text text-anchor="start" x="528.5" y="-179.5" font-family="Helvetica,sans-Serif" font-size="10.00" fill="#000000"># SampleRR()</text>
<text text-anchor="start" x="528.5" y="-168.5" font-family="Helvetica,sans-Serif" font-size="10.00" fill="#000000"># UpdateRRSuffStat()</text>
<text text-anchor="start" x="528.5" y="-157.5" font-family="Helvetica,sans-Serif" font-size="10.00" fill="#000000"># GlobalUpdateRRSuffStat()</text>
<text text-anchor="start" x="528.5" y="-146.5" font-family="Helvetica,sans-Serif" font-size="10.00" fill="#000000"># SlaveUpdateRRSuffStat()</text>
<text text-anchor="start" x="528.5" y="-135.5" font-family="Helvetica,sans-Serif" font-size="10.00" fill="#000000"># MoveRR()</text>
</a>
</g>
</g>
<!-- Node19&#45;&gt;Node24 -->
<g id="edge20" class="edge">
<title>Node19&#45;&gt;Node24</title>
<path fill="none" stroke="#404040" d="M297.7449,-1483.2574C320.6976,-1464.7822 366.0667,-1427.4725 402,-1393 421.2887,-1374.4955 419.6062,-1361.9305 443,-1349 480.2284,-1328.4227 509.0916,-1363.1014 537,-1331 598.4476,-1260.3205 597.0775,-646.6146 593.3561,-374.2583"/>
<polygon fill="none" stroke="#404040" points="593.3518,-373.9444 589.2679,-368.0013 593.1831,-361.9456 597.2671,-367.8888 593.3518,-373.9444"/>
<text text-anchor="middle" x="603" y="-873" font-family="Helvetica,sans-Serif" font-size="10.00" fill="#000000"> #Nrr</text>
</g>
<!-- Node20 -->
<g id="node7" class="node">
<title>Node20</title>
<polygon fill="none" stroke="#bfbfbf" points="431.5,-1466.5 431.5,-1523.5 466.5,-1523.5 466.5,-1466.5 431.5,-1466.5"/>
<text text-anchor="middle" x="449" y="-1511.5" font-family="Helvetica,sans-Serif" font-size="10.00" fill="#000000">bool</text>
<polyline fill="none" stroke="#bfbfbf" points="431.5,-1504.5 466.5,-1504.5 "/>
<text text-anchor="middle" x="449" y="-1492.5" font-family="Helvetica,sans-Serif" font-size="10.00" fill="#000000"> </text>
<polyline fill="none" stroke="#bfbfbf" points="431.5,-1485.5 466.5,-1485.5 "/>
<text text-anchor="middle" x="449" y="-1473.5" font-family="Helvetica,sans-Serif" font-size="10.00" fill="#000000"> </text>
</g>
<!-- Node20&#45;&gt;Node17 -->
<g id="edge6" class="edge">
<title>Node20&#45;&gt;Node17</title>
<path fill="none" stroke="#404040" d="M431.2986,-1484.8079C389.1012,-1460.4376 285.7346,-1400.2746 281,-1393 263.7573,-1366.5067 252.9468,-1335.5613 246.4145,-1304.1285"/>
<polygon fill="none" stroke="#404040" points="246.3622,-1303.8538 241.3097,-1298.7086 244.1159,-1292.0659 249.1683,-1297.2111 246.3622,-1303.8538"/>
<text text-anchor="middle" x="302.5" y="-1368.5" font-family="Helvetica,sans-Serif" font-size="10.00" fill="#000000"> #sumflag</text>
</g>
<!-- Node20&#45;&gt;Node21 -->
<g id="edge11" class="edge">
<title>Node20&#45;&gt;Node21</title>
<path fill="none" stroke="#404040" d="M448.4739,-1466.4382C447.9554,-1438.2941 447.1106,-1392.4325 446.1999,-1342.9927"/>
<polygon fill="none" stroke="#404040" points="446.1945,-1342.6963 442.0846,-1336.771 445.9734,-1330.6983 450.0833,-1336.6236 446.1945,-1342.6963"/>
<text text-anchor="middle" x="481" y="-1374" font-family="Helvetica,sans-Serif" font-size="10.00" fill="#000000"> #activesuffstat</text>
<text text-anchor="middle" x="481" y="-1363" font-family="Helvetica,sans-Serif" font-size="10.00" fill="#000000">#burnin</text>
</g>
<!-- Node20&#45;&gt;Node24 -->
<g id="edge21" class="edge">
<title>Node20&#45;&gt;Node24</title>
<path fill="none" stroke="#404040" d="M466.7626,-1489.6655C500.945,-1478.3214 575.1318,-1448.2153 605,-1393 652.3797,-1305.4124 617.2558,-654.9978 599.5657,-373.8515"/>
<polygon fill="none" stroke="#404040" points="599.5459,-373.5368 595.1752,-367.8012 598.7886,-361.5607 603.1593,-367.2963 599.5459,-373.5368"/>
<text text-anchor="middle" x="637.5" y="-873" font-family="Helvetica,sans-Serif" font-size="10.00" fill="#000000"> #fixrr</text>
</g>
<!-- Node21&#45;&gt;Node16 -->
<g id="edge7" class="edge">
<title>Node21&#45;&gt;Node16</title>
<path fill="none" stroke="#191970" d="M378.7529,-889.6821C375.211,-877.0642 371.6519,-864.3848 368.1141,-851.7816"/>
<polygon fill="none" stroke="#191970" points="375.3849,-890.6348 381.4573,-899.3168 382.1245,-888.743 375.3849,-890.6348"/>
</g>
<!-- Node23 -->
<g id="node10" class="node">
<title>Node23</title>
<g id="a_node10"><a xlink:href="classMatrixProfileProcess.html" target="_top" xlink:title="{MatrixProfileProcess\n||+ MatrixProfileProcess()\l+ ~MatrixProfileProcess()\l+ GetMatrix()\l# CreateMatrices()\l# DeleteMatrices()\l# ProfileProposeMove()\l# UpdateMatrices()\l}">
<polygon fill="none" stroke="#000000" points="400,-569 400,-692 528,-692 528,-569 400,-569"/>
<text text-anchor="middle" x="464" y="-680" font-family="Helvetica,sans-Serif" font-size="10.00" fill="#000000">MatrixProfileProcess</text>
<polyline fill="none" stroke="#000000" points="400,-673 528,-673 "/>
<text text-anchor="middle" x="464" y="-661" font-family="Helvetica,sans-Serif" font-size="10.00" fill="#000000"> </text>
<polyline fill="none" stroke="#000000" points="400,-654 528,-654 "/>
<text text-anchor="start" x="408" y="-642" font-family="Helvetica,sans-Serif" font-size="10.00" fill="#000000">+ MatrixProfileProcess()</text>
<text text-anchor="start" x="408" y="-631" font-family="Helvetica,sans-Serif" font-size="10.00" fill="#000000">+ ~MatrixProfileProcess()</text>
<text text-anchor="start" x="408" y="-620" font-family="Helvetica,sans-Serif" font-size="10.00" fill="#000000">+ GetMatrix()</text>
<text text-anchor="start" x="408" y="-609" font-family="Helvetica,sans-Serif" font-size="10.00" fill="#000000"># CreateMatrices()</text>
<text text-anchor="start" x="408" y="-598" font-family="Helvetica,sans-Serif" font-size="10.00" fill="#000000"># DeleteMatrices()</text>
<text text-anchor="start" x="408" y="-587" font-family="Helvetica,sans-Serif" font-size="10.00" fill="#000000"># ProfileProposeMove()</text>
<text text-anchor="start" x="408" y="-576" font-family="Helvetica,sans-Serif" font-size="10.00" fill="#000000"># UpdateMatrices()</text>
</a>
</g>
</g>
<!-- Node21&#45;&gt;Node23 -->
<g id="edge15" class="edge">
<title>Node21&#45;&gt;Node23</title>
<path fill="none" stroke="#191970" d="M452.2566,-889.1224C455.5422,-816.7642 458.9167,-742.4491 461.2003,-692.1576"/>
<polygon fill="none" stroke="#191970" points="448.751,-889.1683 451.7937,-899.3168 455.7438,-889.4859 448.751,-889.1683"/>
</g>
<!-- Node22 -->
<g id="node9" class="node">
<title>Node22</title>
<polygon fill="none" stroke="#bfbfbf" points="642.5,-1466.5 642.5,-1523.5 687.5,-1523.5 687.5,-1466.5 642.5,-1466.5"/>
<text text-anchor="middle" x="665" y="-1511.5" font-family="Helvetica,sans-Serif" font-size="10.00" fill="#000000">double</text>
<polyline fill="none" stroke="#bfbfbf" points="642.5,-1504.5 687.5,-1504.5 "/>
<text text-anchor="middle" x="665" y="-1492.5" font-family="Helvetica,sans-Serif" font-size="10.00" fill="#000000"> </text>
<polyline fill="none" stroke="#bfbfbf" points="642.5,-1485.5 687.5,-1485.5 "/>
<text text-anchor="middle" x="665" y="-1473.5" font-family="Helvetica,sans-Serif" font-size="10.00" fill="#000000"> </text>
</g>
<!-- Node22&#45;&gt;Node16 -->
<g id="edge12" class="edge">
<title>Node22&#45;&gt;Node16</title>
<path fill="none" stroke="#404040" d="M665.5645,-1466.3139C667.1091,-1354.8867 666.4521,-952.8741 579,-870 548.5369,-841.1316 424.4128,-877.3962 391,-852 390.8975,-851.9221 390.7952,-851.8441 390.6929,-851.7659"/>
<polygon fill="none" stroke="#404040" points="390.7418,-851.8068 383.5731,-851.0256 381.537,-844.1079 388.7057,-844.8891 390.7418,-851.8068"/>
<text text-anchor="middle" x="697" y="-1129" font-family="Helvetica,sans-Serif" font-size="10.00" fill="#000000"> #condsitelogL</text>
<text text-anchor="middle" x="697" y="-1118" font-family="Helvetica,sans-Serif" font-size="10.00" fill="#000000">#meansiterate</text>
<text text-anchor="middle" x="697" y="-1107" font-family="Helvetica,sans-Serif" font-size="10.00" fill="#000000">#sitelogL</text>
<text text-anchor="middle" x="697" y="-1096" font-family="Helvetica,sans-Serif" font-size="10.00" fill="#000000">#logL</text>
</g>
<!-- Node22&#45;&gt;Node21 -->
<g id="edge9" class="edge">
<title>Node22&#45;&gt;Node21</title>
<path fill="none" stroke="#404040" d="M642.4847,-1468.221C626.137,-1448.1676 603.9971,-1419.7053 587,-1393 568.6982,-1364.2449 550.6745,-1332.9244 533.8878,-1302.0139"/>
<polygon fill="none" stroke="#404040" points="533.6994,-1301.6644 527.3307,-1298.2821 528.0033,-1291.1025 534.372,-1294.4848 533.6994,-1301.6644"/>
<text text-anchor="middle" x="619" y="-1368.5" font-family="Helvetica,sans-Serif" font-size="10.00" fill="#000000"> #mintotweight</text>
</g>
<!-- Node22&#45;&gt;Node24 -->
<g id="edge19" class="edge">
<title>Node22&#45;&gt;Node24</title>
<path fill="none" stroke="#404040" d="M680.9039,-1466.472C697.6913,-1434.5894 723.0693,-1380.8785 733,-1331 815.9263,-914.4922 750.3029,-790.1083 640,-380 639.4182,-377.8368 638.8168,-375.6591 638.1981,-373.4706"/>
<polygon fill="none" stroke="#404040" points="638.1182,-373.1986 632.5887,-368.5699 634.7347,-361.6855 640.2641,-366.3142 638.1182,-373.1986"/>
<text text-anchor="middle" x="770.5" y="-873" font-family="Helvetica,sans-Serif" font-size="10.00" fill="#000000"> #rr</text>
</g>
<!-- Node23&#45;&gt;Node15 -->
<g id="edge14" class="edge">
<title>Node23&#45;&gt;Node15</title>
<path fill="none" stroke="#191970" d="M443.1481,-559.3635C423.5307,-492.4387 394.2203,-392.4461 373.9471,-323.2843"/>
<polygon fill="none" stroke="#191970" points="439.7982,-560.3784 445.9699,-568.9901 446.5156,-558.4093 439.7982,-560.3784"/>
</g>
<!-- Node23&#45;&gt;Node24 -->
<g id="edge17" class="edge">
<title>Node23&#45;&gt;Node24</title>
<path fill="none" stroke="#191970" d="M485.2443,-559.1899C500.4574,-508.9098 521.7506,-440.0929 542,-380 544.0303,-373.9748 546.1423,-367.8105 548.2996,-361.5945"/>
<polygon fill="none" stroke="#191970" points="481.825,-558.4059 482.2848,-568.9907 488.5262,-560.4294 481.825,-558.4059"/>
</g>
<!-- Node24&#45;&gt;Node14 -->
<g id="edge16" class="edge">
<title>Node24&#45;&gt;Node14</title>
<path fill="none" stroke="#191970" d="M512.4272,-179.6864C477.3373,-150.5179 436.8603,-116.8714 405.2161,-90.5671"/>
<polygon fill="none" stroke="#191970" points="510.3627,-182.5216 520.2902,-186.2224 514.8374,-177.1385 510.3627,-182.5216"/>
</g>
<!-- Node25 -->
<g id="node12" class="node">
<title>Node25</title>
<polygon fill="none" stroke="#bfbfbf" points="785.5,-602 785.5,-659 826.5,-659 826.5,-602 785.5,-602"/>
<text text-anchor="middle" x="806" y="-647" font-family="Helvetica,sans-Serif" font-size="10.00" fill="#000000">string</text>
<polyline fill="none" stroke="#bfbfbf" points="785.5,-640 826.5,-640 "/>
<text text-anchor="middle" x="806" y="-628" font-family="Helvetica,sans-Serif" font-size="10.00" fill="#000000"> </text>
<polyline fill="none" stroke="#bfbfbf" points="785.5,-621 826.5,-621 "/>
<text text-anchor="middle" x="806" y="-609" font-family="Helvetica,sans-Serif" font-size="10.00" fill="#000000"> </text>
</g>
<!-- Node25&#45;&gt;Node24 -->
<g id="edge18" class="edge">
<title>Node25&#45;&gt;Node24</title>
<path fill="none" stroke="#404040" d="M808.7834,-601.9161C812.1626,-552.8686 812.9518,-451.1007 771,-380 747.8743,-340.8061 708.5193,-309.3268 672.4954,-286.6575"/>
<polygon fill="none" stroke="#404040" points="672.1803,-286.4648 664.9747,-286.746 661.9436,-280.2029 669.1493,-279.9216 672.1803,-286.4648"/>
<text text-anchor="middle" x="792" y="-383" font-family="Helvetica,sans-Serif" font-size="10.00" fill="#000000"> #rrtype</text>
</g>
</g>
</svg>
