<?xml version="1.0" encoding="UTF-8" standalone="no"?>
<!DOCTYPE svg PUBLIC "-//W3C//DTD SVG 1.1//EN"
 "http://www.w3.org/Graphics/SVG/1.1/DTD/svg11.dtd">
<!-- Generated by graphviz version 2.38.0 (20140413.2041)
 -->
<!-- Title: GeneralPathSuffStatMatrixDPProfileProcess Pages: 1 -->
<svg width="171pt" height="359pt"
 viewBox="0.00 0.00 171.00 359.00" xmlns="http://www.w3.org/2000/svg" xmlns:xlink="http://www.w3.org/1999/xlink">
<g id="graph0" class="graph" transform="scale(1 1) rotate(0) translate(4 355)">
<title>GeneralPathSuffStatMatrixDPProfileProcess</title>
<!-- Node0 -->
<g id="node1" class="node"><title>Node0</title>
<polygon fill="#bfbfbf" stroke="black" points="14.5,-282.5 14.5,-350.5 148.5,-350.5 148.5,-282.5 14.5,-282.5"/>
<text text-anchor="start" x="22.5" y="-338.5" font-family="Helvetica,sans-Serif" font-size="10.00">GeneralPathSuffStatMatrix</text>
<text text-anchor="middle" x="81.5" y="-327.5" font-family="Helvetica,sans-Serif" font-size="10.00">DPProfileProcess</text>
<polyline fill="none" stroke="black" points="14.5,-320.5 148.5,-320.5 "/>
<text text-anchor="middle" x="81.5" y="-308.5" font-family="Helvetica,sans-Serif" font-size="10.00"> </text>
<polyline fill="none" stroke="black" points="14.5,-301.5 148.5,-301.5 "/>
<text text-anchor="middle" x="81.5" y="-289.5" font-family="Helvetica,sans-Serif" font-size="10.00"> </text>
</g>
<!-- Node1 -->
<g id="node2" class="node"><title>Node1</title>
<g id="a_node2"><a xlink:href="classAAMutSelDPProfileProcess.html" target="_top" xlink:title="{AAMutSelDPProfileProcess\n||}">
<polygon fill="none" stroke="black" points="12,-188.5 12,-245.5 151,-245.5 151,-188.5 12,-188.5"/>
<text text-anchor="middle" x="81.5" y="-233.5" font-family="Helvetica,sans-Serif" font-size="10.00">AAMutSelDPProfileProcess</text>
<polyline fill="none" stroke="black" points="12,-226.5 151,-226.5 "/>
<text text-anchor="middle" x="81.5" y="-214.5" font-family="Helvetica,sans-Serif" font-size="10.00"> </text>
<polyline fill="none" stroke="black" points="12,-207.5 151,-207.5 "/>
<text text-anchor="middle" x="81.5" y="-195.5" font-family="Helvetica,sans-Serif" font-size="10.00"> </text>
</a>
</g>
</g>
<!-- Node0&#45;&gt;Node1 -->
<g id="edge1" class="edge"><title>Node0&#45;&gt;Node1</title>
<path fill="none" stroke="midnightblue" d="M81.5,-272.454C81.5,-263.404 81.5,-254.088 81.5,-245.777"/>
<polygon fill="none" stroke="midnightblue" points="78.0001,-272.491 81.5,-282.491 85.0001,-272.491 78.0001,-272.491"/>
</g>
<!-- Node2 -->
<g id="node3" class="node"><title>Node2</title>
<g id="a_node3"><a xlink:href="classAAMutSelDPSubstitutionProcess.html" target="_top" xlink:title="{AAMutSelDPSubstitutionProcess\n||}">
<polygon fill="none" stroke="black" points="0,-94.5 0,-151.5 163,-151.5 163,-94.5 0,-94.5"/>
<text text-anchor="middle" x="81.5" y="-139.5" font-family="Helvetica,sans-Serif" font-size="10.00">AAMutSelDPSubstitutionProcess</text>
<polyline fill="none" stroke="black" points="0,-132.5 163,-132.5 "/>
<text text-anchor="middle" x="81.5" y="-120.5" font-family="Helvetica,sans-Serif" font-size="10.00"> </text>
<polyline fill="none" stroke="black" points="0,-113.5 163,-113.5 "/>
<text text-anchor="middle" x="81.5" y="-101.5" font-family="Helvetica,sans-Serif" font-size="10.00"> </text>
</a>
</g>
</g>
<!-- Node1&#45;&gt;Node2 -->
<g id="edge2" class="edge"><title>Node1&#45;&gt;Node2</title>
<path fill="none" stroke="midnightblue" d="M81.5,-178.209C81.5,-169.293 81.5,-159.951 81.5,-151.584"/>
<polygon fill="none" stroke="midnightblue" points="78.0001,-178.397 81.5,-188.397 85.0001,-178.397 78.0001,-178.397"/>
</g>
<!-- Node3 -->
<g id="node4" class="node"><title>Node3</title>
<g id="a_node4"><a xlink:href="classAAMutSelDPPhyloProcess.html" target="_top" xlink:title="{AAMutSelDPPhyloProcess\n||}">
<polygon fill="none" stroke="black" points="13.5,-0.5 13.5,-57.5 149.5,-57.5 149.5,-0.5 13.5,-0.5"/>
<text text-anchor="middle" x="81.5" y="-45.5" font-family="Helvetica,sans-Serif" font-size="10.00">AAMutSelDPPhyloProcess</text>
<polyline fill="none" stroke="black" points="13.5,-38.5 149.5,-38.5 "/>
<text text-anchor="middle" x="81.5" y="-26.5" font-family="Helvetica,sans-Serif" font-size="10.00"> </text>
<polyline fill="none" stroke="black" points="13.5,-19.5 149.5,-19.5 "/>
<text text-anchor="middle" x="81.5" y="-7.5" font-family="Helvetica,sans-Serif" font-size="10.00"> </text>
</a>
</g>
</g>
<!-- Node2&#45;&gt;Node3 -->
<g id="edge3" class="edge"><title>Node2&#45;&gt;Node3</title>
<path fill="none" stroke="midnightblue" d="M81.5,-84.2092C81.5,-75.2929 81.5,-65.9513 81.5,-57.5836"/>
<polygon fill="none" stroke="midnightblue" points="78.0001,-84.3969 81.5,-94.397 85.0001,-84.397 78.0001,-84.3969"/>
</g>
</g>
</svg>
