<?xml version="1.0" encoding="UTF-8" standalone="no"?>
<!DOCTYPE svg PUBLIC "-//W3C//DTD SVG 1.1//EN"
 "http://www.w3.org/Graphics/SVG/1.1/DTD/svg11.dtd">
<!-- Generated by graphviz version 2.38.0 (20140413.2041)
 -->
<!-- Title: GeneralPathSuffStatGTRProfileProcess Pages: 1 -->
<svg width="421pt" height="1301pt"
 viewBox="0.00 0.00 420.68 1301.00" xmlns="http://www.w3.org/2000/svg" xmlns:xlink="http://www.w3.org/1999/xlink">
<g id="graph0" class="graph" transform="scale(1 1) rotate(0) translate(4 1297)">
<title>GeneralPathSuffStatGTRProfileProcess</title>
<!-- Node6 -->
<g id="node1" class="node"><title>Node6</title>
<polygon fill="#bfbfbf" stroke="black" points="145.276,-0.5 145.276,-123.5 315.276,-123.5 315.276,-0.5 145.276,-0.5"/>
<text text-anchor="start" x="153.276" y="-111.5" font-family="Helvetica,sans-Serif" font-size="10.00">GeneralPathSuffStatGTRProfile</text>
<text text-anchor="middle" x="230.276" y="-100.5" font-family="Helvetica,sans-Serif" font-size="10.00">Process</text>
<polyline fill="none" stroke="black" points="145.276,-93.5 315.276,-93.5 "/>
<text text-anchor="middle" x="230.276" y="-81.5" font-family="Helvetica,sans-Serif" font-size="10.00"> </text>
<polyline fill="none" stroke="black" points="145.276,-74.5 315.276,-74.5 "/>
<text text-anchor="start" x="153.276" y="-62.5" font-family="Helvetica,sans-Serif" font-size="10.00">+ GeneralPathSuffStatGTRProfile</text>
<text text-anchor="start" x="153.276" y="-51.5" font-family="Helvetica,sans-Serif" font-size="10.00">Process()</text>
<text text-anchor="start" x="153.276" y="-40.5" font-family="Helvetica,sans-Serif" font-size="10.00">+ ~GeneralPathSuffStatGTRProfile</text>
<text text-anchor="start" x="153.276" y="-29.5" font-family="Helvetica,sans-Serif" font-size="10.00">Process()</text>
<text text-anchor="start" x="153.276" y="-18.5" font-family="Helvetica,sans-Serif" font-size="10.00"># MoveRR()</text>
<text text-anchor="start" x="153.276" y="-7.5" font-family="Helvetica,sans-Serif" font-size="10.00"># MoveRR()</text>
</g>
<!-- Node7 -->
<g id="node2" class="node"><title>Node7</title>
<g id="a_node2"><a xlink:href="classGTRProfileProcess.html" target="_top" xlink:title="{GTRProfileProcess\n||+ GTRProfileProcess()\l+ ~GTRProfileProcess()\l+ GetNrr()\l+ GetRR()\l+ GetRRMean()\l+ SetRR()\l+ GetRRVarCoeff()\l+ GetRREntropy()\l+ rrindex()\l# Create()\l# Delete()\l# LogRRPrior()\l# SampleRR()\l# UpdateRRSuffStat()\l# GlobalUpdateRRSuffStat()\l# SlaveUpdateRRSuffStat()\l# MoveRR()\l}">
<polygon fill="none" stroke="black" points="224.776,-161.5 224.776,-394.5 365.776,-394.5 365.776,-161.5 224.776,-161.5"/>
<text text-anchor="middle" x="295.276" y="-382.5" font-family="Helvetica,sans-Serif" font-size="10.00">GTRProfileProcess</text>
<polyline fill="none" stroke="black" points="224.776,-375.5 365.776,-375.5 "/>
<text text-anchor="middle" x="295.276" y="-363.5" font-family="Helvetica,sans-Serif" font-size="10.00"> </text>
<polyline fill="none" stroke="black" points="224.776,-356.5 365.776,-356.5 "/>
<text text-anchor="start" x="232.776" y="-344.5" font-family="Helvetica,sans-Serif" font-size="10.00">+ GTRProfileProcess()</text>
<text text-anchor="start" x="232.776" y="-333.5" font-family="Helvetica,sans-Serif" font-size="10.00">+ ~GTRProfileProcess()</text>
<text text-anchor="start" x="232.776" y="-322.5" font-family="Helvetica,sans-Serif" font-size="10.00">+ GetNrr()</text>
<text text-anchor="start" x="232.776" y="-311.5" font-family="Helvetica,sans-Serif" font-size="10.00">+ GetRR()</text>
<text text-anchor="start" x="232.776" y="-300.5" font-family="Helvetica,sans-Serif" font-size="10.00">+ GetRRMean()</text>
<text text-anchor="start" x="232.776" y="-289.5" font-family="Helvetica,sans-Serif" font-size="10.00">+ SetRR()</text>
<text text-anchor="start" x="232.776" y="-278.5" font-family="Helvetica,sans-Serif" font-size="10.00">+ GetRRVarCoeff()</text>
<text text-anchor="start" x="232.776" y="-267.5" font-family="Helvetica,sans-Serif" font-size="10.00">+ GetRREntropy()</text>
<text text-anchor="start" x="232.776" y="-256.5" font-family="Helvetica,sans-Serif" font-size="10.00">+ rrindex()</text>
<text text-anchor="start" x="232.776" y="-245.5" font-family="Helvetica,sans-Serif" font-size="10.00"># Create()</text>
<text text-anchor="start" x="232.776" y="-234.5" font-family="Helvetica,sans-Serif" font-size="10.00"># Delete()</text>
<text text-anchor="start" x="232.776" y="-223.5" font-family="Helvetica,sans-Serif" font-size="10.00"># LogRRPrior()</text>
<text text-anchor="start" x="232.776" y="-212.5" font-family="Helvetica,sans-Serif" font-size="10.00"># SampleRR()</text>
<text text-anchor="start" x="232.776" y="-201.5" font-family="Helvetica,sans-Serif" font-size="10.00"># UpdateRRSuffStat()</text>
<text text-anchor="start" x="232.776" y="-190.5" font-family="Helvetica,sans-Serif" font-size="10.00"># GlobalUpdateRRSuffStat()</text>
<text text-anchor="start" x="232.776" y="-179.5" font-family="Helvetica,sans-Serif" font-size="10.00"># SlaveUpdateRRSuffStat()</text>
<text text-anchor="start" x="232.776" y="-168.5" font-family="Helvetica,sans-Serif" font-size="10.00"># MoveRR()</text>
</a>
</g>
</g>
<!-- Node7&#45;&gt;Node6 -->
<g id="edge1" class="edge"><title>Node7&#45;&gt;Node6</title>
<path fill="none" stroke="midnightblue" d="M257.165,-151.526C254.234,-141.878 251.366,-132.436 248.661,-123.528"/>
<polygon fill="none" stroke="midnightblue" points="253.857,-152.68 260.112,-161.231 260.555,-150.646 253.857,-152.68"/>
</g>
<!-- Node8 -->
<g id="node3" class="node"><title>Node8</title>
<g id="a_node3"><a xlink:href="classMatrixProfileProcess.html" target="_top" xlink:title="{MatrixProfileProcess\n||+ MatrixProfileProcess()\l+ ~MatrixProfileProcess()\l+ GetMatrix()\l# CreateMatrices()\l# DeleteMatrices()\l# ProfileProposeMove()\l# UpdateMatrices()\l}">
<polygon fill="none" stroke="black" points="110.276,-442.5 110.276,-565.5 238.276,-565.5 238.276,-442.5 110.276,-442.5"/>
<text text-anchor="middle" x="174.276" y="-553.5" font-family="Helvetica,sans-Serif" font-size="10.00">MatrixProfileProcess</text>
<polyline fill="none" stroke="black" points="110.276,-546.5 238.276,-546.5 "/>
<text text-anchor="middle" x="174.276" y="-534.5" font-family="Helvetica,sans-Serif" font-size="10.00"> </text>
<polyline fill="none" stroke="black" points="110.276,-527.5 238.276,-527.5 "/>
<text text-anchor="start" x="118.276" y="-515.5" font-family="Helvetica,sans-Serif" font-size="10.00">+ MatrixProfileProcess()</text>
<text text-anchor="start" x="118.276" y="-504.5" font-family="Helvetica,sans-Serif" font-size="10.00">+ ~MatrixProfileProcess()</text>
<text text-anchor="start" x="118.276" y="-493.5" font-family="Helvetica,sans-Serif" font-size="10.00">+ GetMatrix()</text>
<text text-anchor="start" x="118.276" y="-482.5" font-family="Helvetica,sans-Serif" font-size="10.00"># CreateMatrices()</text>
<text text-anchor="start" x="118.276" y="-471.5" font-family="Helvetica,sans-Serif" font-size="10.00"># DeleteMatrices()</text>
<text text-anchor="start" x="118.276" y="-460.5" font-family="Helvetica,sans-Serif" font-size="10.00"># ProfileProposeMove()</text>
<text text-anchor="start" x="118.276" y="-449.5" font-family="Helvetica,sans-Serif" font-size="10.00"># UpdateMatrices()</text>
</a>
</g>
</g>
<!-- Node8&#45;&gt;Node7 -->
<g id="edge2" class="edge"><title>Node8&#45;&gt;Node7</title>
<path fill="none" stroke="midnightblue" d="M211.784,-433.564C218.439,-421.243 225.531,-408.115 232.662,-394.914"/>
<polygon fill="none" stroke="midnightblue" points="208.694,-431.921 207.02,-442.382 214.852,-435.247 208.694,-431.921"/>
</g>
<!-- Node15 -->
<g id="node10" class="node"><title>Node15</title>
<g id="a_node10"><a xlink:href="classGeneralPathSuffStatMatrixProfileProcess.html" target="_top" xlink:title="{GeneralPathSuffStatMatrix\lProfileProcess\n||+ GeneralPathSuffStatMatrix\lProfileProcess()\l+ ~GeneralPathSuffStatMatrix\lProfileProcess()\l+ GetSitePairCount()\l+ GetSiteWaitingTime()\l+ GetSiteRootState()\l}">
<polygon fill="none" stroke="black" points="57.7758,-211 57.7758,-345 206.776,-345 206.776,-211 57.7758,-211"/>
<text text-anchor="start" x="65.7758" y="-333" font-family="Helvetica,sans-Serif" font-size="10.00">GeneralPathSuffStatMatrix</text>
<text text-anchor="middle" x="132.276" y="-322" font-family="Helvetica,sans-Serif" font-size="10.00">ProfileProcess</text>
<polyline fill="none" stroke="black" points="57.7758,-315 206.776,-315 "/>
<text text-anchor="middle" x="132.276" y="-303" font-family="Helvetica,sans-Serif" font-size="10.00"> </text>
<polyline fill="none" stroke="black" points="57.7758,-296 206.776,-296 "/>
<text text-anchor="start" x="65.7758" y="-284" font-family="Helvetica,sans-Serif" font-size="10.00">+ GeneralPathSuffStatMatrix</text>
<text text-anchor="start" x="65.7758" y="-273" font-family="Helvetica,sans-Serif" font-size="10.00">ProfileProcess()</text>
<text text-anchor="start" x="65.7758" y="-262" font-family="Helvetica,sans-Serif" font-size="10.00">+ ~GeneralPathSuffStatMatrix</text>
<text text-anchor="start" x="65.7758" y="-251" font-family="Helvetica,sans-Serif" font-size="10.00">ProfileProcess()</text>
<text text-anchor="start" x="65.7758" y="-240" font-family="Helvetica,sans-Serif" font-size="10.00">+ GetSitePairCount()</text>
<text text-anchor="start" x="65.7758" y="-229" font-family="Helvetica,sans-Serif" font-size="10.00">+ GetSiteWaitingTime()</text>
<text text-anchor="start" x="65.7758" y="-218" font-family="Helvetica,sans-Serif" font-size="10.00">+ GetSiteRootState()</text>
</a>
</g>
</g>
<!-- Node8&#45;&gt;Node15 -->
<g id="edge13" class="edge"><title>Node8&#45;&gt;Node15</title>
<path fill="none" stroke="midnightblue" d="M161.021,-432.308C155.795,-404.435 149.824,-372.592 144.684,-345.175"/>
<polygon fill="none" stroke="midnightblue" points="157.627,-433.199 162.91,-442.382 164.507,-431.909 157.627,-433.199"/>
</g>
<!-- Node9 -->
<g id="node4" class="node"><title>Node9</title>
<g id="a_node4"><a xlink:href="classProfileProcess.html" target="_top" xlink:title="{ProfileProcess\n||+ ProfileProcess()\l+ ~ProfileProcess()\l+ GetVersion()\l+ GetStatInfCount()\l+ GetDim()\l+ GetNsite()\l+ GetProfile()\l+ GetStateSpace()\l+ LogProfilePrior()\l+ SampleProfile()\l+ GetMeanStationaryEntropy()\l+ GetSiteStationaryEntropy()\l+ UpdateSiteProfileSuffStat()\l+ GlobalUpdateSiteProfileSuffStat()\l+ SlaveUpdateSiteProfileSuffStat()\l+ GlobalUpdateParameters()\l+ SlaveUpdateParameters()\l+ ProfileSuffStatLogProb()\l+ ToStream()\l+ FromStream()\l+ SetBurnin()\l+ isObserved()\l+ GetMinStat()\l+ GetMinMinStat()\l# DrawProfileFromPrior()\l# GetNormalizationFactor()\l# Create()\l# Delete()\l# GetNprocs()\l# GetMyid()\l# GetSiteMin()\l# GetSiteMax()\l# GetEmpiricalFreq()\l# GetMinTotWeight()\l# SetMinTotWeight()\l}">
<polygon fill="none" stroke="black" points="88.2758,-613.5 88.2758,-1044.5 260.276,-1044.5 260.276,-613.5 88.2758,-613.5"/>
<text text-anchor="middle" x="174.276" y="-1032.5" font-family="Helvetica,sans-Serif" font-size="10.00">ProfileProcess</text>
<polyline fill="none" stroke="black" points="88.2758,-1025.5 260.276,-1025.5 "/>
<text text-anchor="middle" x="174.276" y="-1013.5" font-family="Helvetica,sans-Serif" font-size="10.00"> </text>
<polyline fill="none" stroke="black" points="88.2758,-1006.5 260.276,-1006.5 "/>
<text text-anchor="start" x="96.2758" y="-994.5" font-family="Helvetica,sans-Serif" font-size="10.00">+ ProfileProcess()</text>
<text text-anchor="start" x="96.2758" y="-983.5" font-family="Helvetica,sans-Serif" font-size="10.00">+ ~ProfileProcess()</text>
<text text-anchor="start" x="96.2758" y="-972.5" font-family="Helvetica,sans-Serif" font-size="10.00">+ GetVersion()</text>
<text text-anchor="start" x="96.2758" y="-961.5" font-family="Helvetica,sans-Serif" font-size="10.00">+ GetStatInfCount()</text>
<text text-anchor="start" x="96.2758" y="-950.5" font-family="Helvetica,sans-Serif" font-size="10.00">+ GetDim()</text>
<text text-anchor="start" x="96.2758" y="-939.5" font-family="Helvetica,sans-Serif" font-size="10.00">+ GetNsite()</text>
<text text-anchor="start" x="96.2758" y="-928.5" font-family="Helvetica,sans-Serif" font-size="10.00">+ GetProfile()</text>
<text text-anchor="start" x="96.2758" y="-917.5" font-family="Helvetica,sans-Serif" font-size="10.00">+ GetStateSpace()</text>
<text text-anchor="start" x="96.2758" y="-906.5" font-family="Helvetica,sans-Serif" font-size="10.00">+ LogProfilePrior()</text>
<text text-anchor="start" x="96.2758" y="-895.5" font-family="Helvetica,sans-Serif" font-size="10.00">+ SampleProfile()</text>
<text text-anchor="start" x="96.2758" y="-884.5" font-family="Helvetica,sans-Serif" font-size="10.00">+ GetMeanStationaryEntropy()</text>
<text text-anchor="start" x="96.2758" y="-873.5" font-family="Helvetica,sans-Serif" font-size="10.00">+ GetSiteStationaryEntropy()</text>
<text text-anchor="start" x="96.2758" y="-862.5" font-family="Helvetica,sans-Serif" font-size="10.00">+ UpdateSiteProfileSuffStat()</text>
<text text-anchor="start" x="96.2758" y="-851.5" font-family="Helvetica,sans-Serif" font-size="10.00">+ GlobalUpdateSiteProfileSuffStat()</text>
<text text-anchor="start" x="96.2758" y="-840.5" font-family="Helvetica,sans-Serif" font-size="10.00">+ SlaveUpdateSiteProfileSuffStat()</text>
<text text-anchor="start" x="96.2758" y="-829.5" font-family="Helvetica,sans-Serif" font-size="10.00">+ GlobalUpdateParameters()</text>
<text text-anchor="start" x="96.2758" y="-818.5" font-family="Helvetica,sans-Serif" font-size="10.00">+ SlaveUpdateParameters()</text>
<text text-anchor="start" x="96.2758" y="-807.5" font-family="Helvetica,sans-Serif" font-size="10.00">+ ProfileSuffStatLogProb()</text>
<text text-anchor="start" x="96.2758" y="-796.5" font-family="Helvetica,sans-Serif" font-size="10.00">+ ToStream()</text>
<text text-anchor="start" x="96.2758" y="-785.5" font-family="Helvetica,sans-Serif" font-size="10.00">+ FromStream()</text>
<text text-anchor="start" x="96.2758" y="-774.5" font-family="Helvetica,sans-Serif" font-size="10.00">+ SetBurnin()</text>
<text text-anchor="start" x="96.2758" y="-763.5" font-family="Helvetica,sans-Serif" font-size="10.00">+ isObserved()</text>
<text text-anchor="start" x="96.2758" y="-752.5" font-family="Helvetica,sans-Serif" font-size="10.00">+ GetMinStat()</text>
<text text-anchor="start" x="96.2758" y="-741.5" font-family="Helvetica,sans-Serif" font-size="10.00">+ GetMinMinStat()</text>
<text text-anchor="start" x="96.2758" y="-730.5" font-family="Helvetica,sans-Serif" font-size="10.00"># DrawProfileFromPrior()</text>
<text text-anchor="start" x="96.2758" y="-719.5" font-family="Helvetica,sans-Serif" font-size="10.00"># GetNormalizationFactor()</text>
<text text-anchor="start" x="96.2758" y="-708.5" font-family="Helvetica,sans-Serif" font-size="10.00"># Create()</text>
<text text-anchor="start" x="96.2758" y="-697.5" font-family="Helvetica,sans-Serif" font-size="10.00"># Delete()</text>
<text text-anchor="start" x="96.2758" y="-686.5" font-family="Helvetica,sans-Serif" font-size="10.00"># GetNprocs()</text>
<text text-anchor="start" x="96.2758" y="-675.5" font-family="Helvetica,sans-Serif" font-size="10.00"># GetMyid()</text>
<text text-anchor="start" x="96.2758" y="-664.5" font-family="Helvetica,sans-Serif" font-size="10.00"># GetSiteMin()</text>
<text text-anchor="start" x="96.2758" y="-653.5" font-family="Helvetica,sans-Serif" font-size="10.00"># GetSiteMax()</text>
<text text-anchor="start" x="96.2758" y="-642.5" font-family="Helvetica,sans-Serif" font-size="10.00"># GetEmpiricalFreq()</text>
<text text-anchor="start" x="96.2758" y="-631.5" font-family="Helvetica,sans-Serif" font-size="10.00"># GetMinTotWeight()</text>
<text text-anchor="start" x="96.2758" y="-620.5" font-family="Helvetica,sans-Serif" font-size="10.00"># SetMinTotWeight()</text>
</a>
</g>
</g>
<!-- Node9&#45;&gt;Node8 -->
<g id="edge3" class="edge"><title>Node9&#45;&gt;Node8</title>
<path fill="none" stroke="midnightblue" d="M174.276,-603.134C174.276,-589.804 174.276,-577.158 174.276,-565.652"/>
<polygon fill="none" stroke="midnightblue" points="170.776,-603.453 174.276,-613.453 177.776,-603.453 170.776,-603.453"/>
</g>
<!-- Node10 -->
<g id="node5" class="node"><title>Node10</title>
<g id="a_node5"><a xlink:href="classChrono.html" target="_top" xlink:title="{Chrono\n||+ Chrono()\l+ ~Chrono()\l+ Reset()\l+ Start()\l+ Stop()\l+ ToStream()\l+ FromStream()\l+ operator++()\l+ GetTime()\l+ GetTimePerCount()\l+ GetCount()\l}">
<polygon fill="none" stroke="black" points="115.276,-1125.5 115.276,-1292.5 225.276,-1292.5 225.276,-1125.5 115.276,-1125.5"/>
<text text-anchor="middle" x="170.276" y="-1280.5" font-family="Helvetica,sans-Serif" font-size="10.00">Chrono</text>
<polyline fill="none" stroke="black" points="115.276,-1273.5 225.276,-1273.5 "/>
<text text-anchor="middle" x="170.276" y="-1261.5" font-family="Helvetica,sans-Serif" font-size="10.00"> </text>
<polyline fill="none" stroke="black" points="115.276,-1254.5 225.276,-1254.5 "/>
<text text-anchor="start" x="123.276" y="-1242.5" font-family="Helvetica,sans-Serif" font-size="10.00">+ Chrono()</text>
<text text-anchor="start" x="123.276" y="-1231.5" font-family="Helvetica,sans-Serif" font-size="10.00">+ ~Chrono()</text>
<text text-anchor="start" x="123.276" y="-1220.5" font-family="Helvetica,sans-Serif" font-size="10.00">+ Reset()</text>
<text text-anchor="start" x="123.276" y="-1209.5" font-family="Helvetica,sans-Serif" font-size="10.00">+ Start()</text>
<text text-anchor="start" x="123.276" y="-1198.5" font-family="Helvetica,sans-Serif" font-size="10.00">+ Stop()</text>
<text text-anchor="start" x="123.276" y="-1187.5" font-family="Helvetica,sans-Serif" font-size="10.00">+ ToStream()</text>
<text text-anchor="start" x="123.276" y="-1176.5" font-family="Helvetica,sans-Serif" font-size="10.00">+ FromStream()</text>
<text text-anchor="start" x="123.276" y="-1165.5" font-family="Helvetica,sans-Serif" font-size="10.00">+ operator++()</text>
<text text-anchor="start" x="123.276" y="-1154.5" font-family="Helvetica,sans-Serif" font-size="10.00">+ GetTime()</text>
<text text-anchor="start" x="123.276" y="-1143.5" font-family="Helvetica,sans-Serif" font-size="10.00">+ GetTimePerCount()</text>
<text text-anchor="start" x="123.276" y="-1132.5" font-family="Helvetica,sans-Serif" font-size="10.00">+ GetCount()</text>
</a>
</g>
</g>
<!-- Node10&#45;&gt;Node9 -->
<g id="edge4" class="edge"><title>Node10&#45;&gt;Node9</title>
<path fill="none" stroke="#404040" d="M170.762,-1125.19C170.904,-1104.85 171.077,-1083.14 171.276,-1063 171.296,-1060.91 171.317,-1058.82 171.339,-1056.71"/>
<polygon fill="none" stroke="#404040" points="171.34,-1056.56 167.403,-1050.52 171.465,-1044.56 175.402,-1050.6 171.34,-1056.56"/>
<text text-anchor="middle" x="198.776" y="-1093.5" font-family="Helvetica,sans-Serif" font-size="10.00"> #chronostat</text>
<text text-anchor="middle" x="198.776" y="-1082.5" font-family="Helvetica,sans-Serif" font-size="10.00">#chronorr</text>
<text text-anchor="middle" x="198.776" y="-1071.5" font-family="Helvetica,sans-Serif" font-size="10.00">#chronodp</text>
</g>
<!-- Node11 -->
<g id="node6" class="node"><title>Node11</title>
<polygon fill="none" stroke="#bfbfbf" points="364.776,-1180.5 364.776,-1237.5 409.776,-1237.5 409.776,-1180.5 364.776,-1180.5"/>
<text text-anchor="middle" x="387.276" y="-1225.5" font-family="Helvetica,sans-Serif" font-size="10.00">double</text>
<polyline fill="none" stroke="#bfbfbf" points="364.776,-1218.5 409.776,-1218.5 "/>
<text text-anchor="middle" x="387.276" y="-1206.5" font-family="Helvetica,sans-Serif" font-size="10.00"> </text>
<polyline fill="none" stroke="#bfbfbf" points="364.776,-1199.5 409.776,-1199.5 "/>
<text text-anchor="middle" x="387.276" y="-1187.5" font-family="Helvetica,sans-Serif" font-size="10.00"> </text>
</g>
<!-- Node11&#45;&gt;Node7 -->
<g id="edge9" class="edge"><title>Node11&#45;&gt;Node7</title>
<path fill="none" stroke="#404040" d="M395.663,-1180.45C401.338,-1160.32 408.318,-1132.24 411.276,-1107 413.552,-1087.58 412.333,-1082.53 411.276,-1063 396.258,-785.506 386.776,-715.636 338.276,-442 336.226,-430.437 333.763,-418.494 331.066,-406.575"/>
<polygon fill="none" stroke="#404040" points="331.017,-406.366 325.761,-401.429 328.297,-394.678 333.553,-399.616 331.017,-406.366"/>
<text text-anchor="middle" x="372.776" y="-587" font-family="Helvetica,sans-Serif" font-size="10.00"> #rr</text>
</g>
<!-- Node11&#45;&gt;Node9 -->
<g id="edge5" class="edge"><title>Node11&#45;&gt;Node9</title>
<path fill="none" stroke="#404040" d="M376.066,-1180.47C363.721,-1150.9 342.757,-1102.79 321.276,-1063 304.691,-1032.28 285.612,-1000.13 266.809,-969.868"/>
<polygon fill="none" stroke="#404040" points="266.805,-969.861 260.233,-966.891 260.447,-959.683 267.019,-962.653 266.805,-969.861"/>
<text text-anchor="middle" x="375.276" y="-1082.5" font-family="Helvetica,sans-Serif" font-size="10.00"> #mintotweight</text>
</g>
<!-- Node12 -->
<g id="node7" class="node"><title>Node12</title>
<polygon fill="none" stroke="#bfbfbf" points="54.7758,-1180.5 54.7758,-1237.5 83.7758,-1237.5 83.7758,-1180.5 54.7758,-1180.5"/>
<text text-anchor="middle" x="69.2758" y="-1225.5" font-family="Helvetica,sans-Serif" font-size="10.00">int</text>
<polyline fill="none" stroke="#bfbfbf" points="54.7758,-1218.5 83.7758,-1218.5 "/>
<text text-anchor="middle" x="69.2758" y="-1206.5" font-family="Helvetica,sans-Serif" font-size="10.00"> </text>
<polyline fill="none" stroke="#bfbfbf" points="54.7758,-1199.5 83.7758,-1199.5 "/>
<text text-anchor="middle" x="69.2758" y="-1187.5" font-family="Helvetica,sans-Serif" font-size="10.00"> </text>
</g>
<!-- Node12&#45;&gt;Node7 -->
<g id="edge10" class="edge"><title>Node12&#45;&gt;Node7</title>
<path fill="none" stroke="#404040" d="M60.3174,-1180.24C27.3128,-1072.18 -76.6314,-674.165 101.276,-442 134.61,-398.5 172.629,-429.42 215.276,-395 215.377,-394.918 215.478,-394.837 215.579,-394.755"/>
<polygon fill="none" stroke="#404040" points="215.732,-394.621 217.602,-387.656 224.75,-386.704 222.88,-393.668 215.732,-394.621"/>
<text text-anchor="middle" x="40.2758" y="-587" font-family="Helvetica,sans-Serif" font-size="10.00"> #Nrr</text>
</g>
<!-- Node12&#45;&gt;Node9 -->
<g id="edge6" class="edge"><title>Node12&#45;&gt;Node9</title>
<path fill="none" stroke="#404040" d="M76.8461,-1180.47C84.8725,-1151.29 97.9321,-1103.89 109.276,-1063 109.907,-1060.72 110.542,-1058.43 111.181,-1056.14"/>
<polygon fill="none" stroke="#404040" points="111.186,-1056.12 108.937,-1049.27 114.396,-1044.55 116.645,-1051.41 111.186,-1056.12"/>
<text text-anchor="middle" x="138.276" y="-1099" font-family="Helvetica,sans-Serif" font-size="10.00"> #dim</text>
<text text-anchor="middle" x="138.276" y="-1088" font-family="Helvetica,sans-Serif" font-size="10.00">#statinfcount</text>
<text text-anchor="middle" x="138.276" y="-1077" font-family="Helvetica,sans-Serif" font-size="10.00">#totstatcount</text>
<text text-anchor="middle" x="138.276" y="-1066" font-family="Helvetica,sans-Serif" font-size="10.00">#nsite</text>
</g>
<!-- Node13 -->
<g id="node8" class="node"><title>Node13</title>
<polygon fill="none" stroke="#bfbfbf" points="289.776,-1180.5 289.776,-1237.5 324.776,-1237.5 324.776,-1180.5 289.776,-1180.5"/>
<text text-anchor="middle" x="307.276" y="-1225.5" font-family="Helvetica,sans-Serif" font-size="10.00">bool</text>
<polyline fill="none" stroke="#bfbfbf" points="289.776,-1218.5 324.776,-1218.5 "/>
<text text-anchor="middle" x="307.276" y="-1206.5" font-family="Helvetica,sans-Serif" font-size="10.00"> </text>
<polyline fill="none" stroke="#bfbfbf" points="289.776,-1199.5 324.776,-1199.5 "/>
<text text-anchor="middle" x="307.276" y="-1187.5" font-family="Helvetica,sans-Serif" font-size="10.00"> </text>
</g>
<!-- Node13&#45;&gt;Node7 -->
<g id="edge11" class="edge"><title>Node13&#45;&gt;Node7</title>
<path fill="none" stroke="#404040" d="M310.775,-1180.19C313.141,-1159.93 316.05,-1131.81 317.276,-1107 332.49,-798.931 342.344,-720.424 317.276,-413 317.108,-410.94 316.926,-408.865 316.73,-406.776"/>
<polygon fill="none" stroke="#404040" points="316.716,-406.639 312.118,-401.085 315.476,-394.703 320.075,-400.258 316.716,-406.639"/>
<text text-anchor="middle" x="342.776" y="-587" font-family="Helvetica,sans-Serif" font-size="10.00"> #fixrr</text>
</g>
<!-- Node13&#45;&gt;Node9 -->
<g id="edge7" class="edge"><title>Node13&#45;&gt;Node9</title>
<path fill="none" stroke="#404040" d="M289.554,-1181.53C276.911,-1161.7 260.268,-1133.53 249.276,-1107 242.509,-1090.67 236.177,-1073.55 230.29,-1056.16"/>
<polygon fill="none" stroke="#404040" points="230.268,-1056.1 224.581,-1051.66 226.486,-1044.71 232.173,-1049.14 230.268,-1056.1"/>
<text text-anchor="middle" x="283.276" y="-1088" font-family="Helvetica,sans-Serif" font-size="10.00"> #activesuffstat</text>
<text text-anchor="middle" x="283.276" y="-1077" font-family="Helvetica,sans-Serif" font-size="10.00">#burnin</text>
</g>
<!-- Node14 -->
<g id="node9" class="node"><title>Node14</title>
<polygon fill="none" stroke="#bfbfbf" points="261.776,-475.5 261.776,-532.5 302.776,-532.5 302.776,-475.5 261.776,-475.5"/>
<text text-anchor="middle" x="282.276" y="-520.5" font-family="Helvetica,sans-Serif" font-size="10.00">string</text>
<polyline fill="none" stroke="#bfbfbf" points="261.776,-513.5 302.776,-513.5 "/>
<text text-anchor="middle" x="282.276" y="-501.5" font-family="Helvetica,sans-Serif" font-size="10.00"> </text>
<polyline fill="none" stroke="#bfbfbf" points="261.776,-494.5 302.776,-494.5 "/>
<text text-anchor="middle" x="282.276" y="-482.5" font-family="Helvetica,sans-Serif" font-size="10.00"> </text>
</g>
<!-- Node14&#45;&gt;Node7 -->
<g id="edge8" class="edge"><title>Node14&#45;&gt;Node7</title>
<path fill="none" stroke="#404040" d="M282.025,-475.41C282,-457.591 282.225,-433.912 283.276,-413 283.379,-410.955 283.488,-408.893 283.605,-406.818"/>
<polygon fill="none" stroke="#404040" points="283.606,-406.787 279.979,-400.554 284.336,-394.809 287.964,-401.041 283.606,-406.787"/>
<text text-anchor="middle" x="300.276" y="-416" font-family="Helvetica,sans-Serif" font-size="10.00"> #rrtype</text>
</g>
<!-- Node15&#45;&gt;Node6 -->
<g id="edge12" class="edge"><title>Node15&#45;&gt;Node6</title>
<path fill="none" stroke="midnightblue" d="M166.846,-201.51C178.5,-176.062 191.348,-148.005 202.417,-123.835"/>
<polygon fill="none" stroke="midnightblue" points="163.594,-200.205 162.613,-210.755 169.958,-203.12 163.594,-200.205"/>
</g>
</g>
</svg>
