<?xml version="1.0" encoding="UTF-8" standalone="no"?>
<!DOCTYPE svg PUBLIC "-//W3C//DTD SVG 1.1//EN"
 "http://www.w3.org/Graphics/SVG/1.1/DTD/svg11.dtd">
<!-- Generated by graphviz version 2.38.0 (20140413.2041)
 -->
<!-- Title: BipartitionList Pages: 1 -->
<svg width="469pt" height="1316pt"
 viewBox="0.00 0.00 469.00 1316.00" xmlns="http://www.w3.org/2000/svg" xmlns:xlink="http://www.w3.org/1999/xlink">
<g id="graph0" class="graph" transform="scale(1 1) rotate(0) translate(4 1312)">
<title>BipartitionList</title>
<!-- Node1 -->
<g id="node1" class="node"><title>Node1</title>
<polygon fill="#bfbfbf" stroke="black" points="79,-0.5 79,-475.5 200,-475.5 200,-0.5 79,-0.5"/>
<text text-anchor="middle" x="139.5" y="-463.5" font-family="Helvetica,sans-Serif" font-size="10.00">BipartitionList</text>
<polyline fill="none" stroke="black" points="79,-456.5 200,-456.5 "/>
<text text-anchor="middle" x="139.5" y="-444.5" font-family="Helvetica,sans-Serif" font-size="10.00"> </text>
<polyline fill="none" stroke="black" points="79,-437.5 200,-437.5 "/>
<text text-anchor="start" x="87" y="-425.5" font-family="Helvetica,sans-Serif" font-size="10.00">+ BipartitionList()</text>
<text text-anchor="start" x="87" y="-414.5" font-family="Helvetica,sans-Serif" font-size="10.00">+ BipartitionList()</text>
<text text-anchor="start" x="87" y="-403.5" font-family="Helvetica,sans-Serif" font-size="10.00">+ BipartitionList()</text>
<text text-anchor="start" x="87" y="-392.5" font-family="Helvetica,sans-Serif" font-size="10.00">+ BipartitionList()</text>
<text text-anchor="start" x="87" y="-381.5" font-family="Helvetica,sans-Serif" font-size="10.00">+ ~BipartitionList()</text>
<text text-anchor="start" x="87" y="-370.5" font-family="Helvetica,sans-Serif" font-size="10.00">+ GetParameters()</text>
<text text-anchor="start" x="87" y="-359.5" font-family="Helvetica,sans-Serif" font-size="10.00">+ CompareWith()</text>
<text text-anchor="start" x="87" y="-348.5" font-family="Helvetica,sans-Serif" font-size="10.00">+ SupportCheck()</text>
<text text-anchor="start" x="87" y="-337.5" font-family="Helvetica,sans-Serif" font-size="10.00">+ GetSize()</text>
<text text-anchor="start" x="87" y="-326.5" font-family="Helvetica,sans-Serif" font-size="10.00">+ GetProb()</text>
<text text-anchor="start" x="87" y="-315.5" font-family="Helvetica,sans-Serif" font-size="10.00">+ GetLength()</text>
<text text-anchor="start" x="87" y="-304.5" font-family="Helvetica,sans-Serif" font-size="10.00">+ GetWeight()</text>
<text text-anchor="start" x="87" y="-293.5" font-family="Helvetica,sans-Serif" font-size="10.00">+ Reweight()</text>
<text text-anchor="start" x="87" y="-282.5" font-family="Helvetica,sans-Serif" font-size="10.00">+ RegisterWith()</text>
<text text-anchor="start" x="87" y="-271.5" font-family="Helvetica,sans-Serif" font-size="10.00">+ operator[]()</text>
<text text-anchor="start" x="87" y="-260.5" font-family="Helvetica,sans-Serif" font-size="10.00">+ GetBipartition()</text>
<text text-anchor="start" x="87" y="-249.5" font-family="Helvetica,sans-Serif" font-size="10.00">+ GetIndex()</text>
<text text-anchor="start" x="87" y="-238.5" font-family="Helvetica,sans-Serif" font-size="10.00">+ Sort()</text>
<text text-anchor="start" x="87" y="-227.5" font-family="Helvetica,sans-Serif" font-size="10.00">+ GetHisto()</text>
<text text-anchor="start" x="87" y="-216.5" font-family="Helvetica,sans-Serif" font-size="10.00">+ Truncate()</text>
<text text-anchor="start" x="87" y="-205.5" font-family="Helvetica,sans-Serif" font-size="10.00">+ Prune()</text>
<text text-anchor="start" x="87" y="-194.5" font-family="Helvetica,sans-Serif" font-size="10.00">+ PruneWithSupports()</text>
<text text-anchor="start" x="87" y="-183.5" font-family="Helvetica,sans-Serif" font-size="10.00">+ ReadFromStream()</text>
<text text-anchor="start" x="87" y="-172.5" font-family="Helvetica,sans-Serif" font-size="10.00">+ WriteToStream()</text>
<text text-anchor="start" x="87" y="-161.5" font-family="Helvetica,sans-Serif" font-size="10.00">+ Insert()</text>
<text text-anchor="start" x="87" y="-150.5" font-family="Helvetica,sans-Serif" font-size="10.00">+ FastInsert()</text>
<text text-anchor="start" x="87" y="-139.5" font-family="Helvetica,sans-Serif" font-size="10.00">+ Pop()</text>
<text text-anchor="start" x="87" y="-128.5" font-family="Helvetica,sans-Serif" font-size="10.00">+ Flush()</text>
<text text-anchor="start" x="87" y="-117.5" font-family="Helvetica,sans-Serif" font-size="10.00">+ Modulo()</text>
<text text-anchor="start" x="87" y="-106.5" font-family="Helvetica,sans-Serif" font-size="10.00">+ Append()</text>
<text text-anchor="start" x="87" y="-95.5" font-family="Helvetica,sans-Serif" font-size="10.00">+ Append()</text>
<text text-anchor="start" x="87" y="-84.5" font-family="Helvetica,sans-Serif" font-size="10.00">+ Append2()</text>
<text text-anchor="start" x="87" y="-73.5" font-family="Helvetica,sans-Serif" font-size="10.00">+ IsCompatibleWith()</text>
<text text-anchor="start" x="87" y="-62.5" font-family="Helvetica,sans-Serif" font-size="10.00">+ IsCompatibleWith()</text>
<text text-anchor="start" x="87" y="-51.5" font-family="Helvetica,sans-Serif" font-size="10.00">+ Suppress()</text>
<text text-anchor="start" x="87" y="-40.5" font-family="Helvetica,sans-Serif" font-size="10.00">+ CheckForDuplicates()</text>
<text text-anchor="start" x="87" y="-29.5" font-family="Helvetica,sans-Serif" font-size="10.00">+ BasicAllocation()</text>
<text text-anchor="start" x="87" y="-18.5" font-family="Helvetica,sans-Serif" font-size="10.00">+ IsEqualTo()</text>
<text text-anchor="start" x="87" y="-7.5" font-family="Helvetica,sans-Serif" font-size="10.00">+ Reallocate()</text>
</g>
<!-- Node2 -->
<g id="node2" class="node"><title>Node2</title>
<polygon fill="none" stroke="#bfbfbf" points="0,-688.5 0,-745.5 45,-745.5 45,-688.5 0,-688.5"/>
<text text-anchor="middle" x="22.5" y="-733.5" font-family="Helvetica,sans-Serif" font-size="10.00">double</text>
<polyline fill="none" stroke="#bfbfbf" points="0,-726.5 45,-726.5 "/>
<text text-anchor="middle" x="22.5" y="-714.5" font-family="Helvetica,sans-Serif" font-size="10.00"> </text>
<polyline fill="none" stroke="#bfbfbf" points="0,-707.5 45,-707.5 "/>
<text text-anchor="middle" x="22.5" y="-695.5" font-family="Helvetica,sans-Serif" font-size="10.00"> </text>
</g>
<!-- Node2&#45;&gt;Node1 -->
<g id="edge1" class="edge"><title>Node2&#45;&gt;Node1</title>
<path fill="none" stroke="#404040" d="M18.9387,-688.251C14.3143,-645.82 8.48551,-562.521 23.5,-494 33.7949,-447.018 53.4461,-398.281 73.6887,-356.157"/>
<polygon fill="none" stroke="#404040" points="73.7184,-356.096 72.756,-348.949 78.9826,-345.312 79.9451,-352.459 73.7184,-356.096"/>
<text text-anchor="middle" x="58" y="-519" font-family="Helvetica,sans-Serif" font-size="10.00"> +mWeight</text>
<text text-anchor="middle" x="58" y="-508" font-family="Helvetica,sans-Serif" font-size="10.00">+mLengthArray</text>
<text text-anchor="middle" x="58" y="-497" font-family="Helvetica,sans-Serif" font-size="10.00">+mWeightArray</text>
</g>
<!-- Node3 -->
<g id="node3" class="node"><title>Node3</title>
<g id="a_node3"><a xlink:href="classBipartition.html" target="_top" xlink:title="{Bipartition\n||+ Bipartition()\l+ Bipartition()\l+ ~Bipartition()\l+ operator=()\l+ operator=()\l+ operator==()\l+ operator!=()\l+ operator\|=()\l+ operator &amp;=()\l+ operator!()\l+ IsCompatibleWith()\l+ IsCompatibleWith()\l+ IsInformative()\l+ CompareWith()\l+ CompareWith()\l+ SupportCheck()\l+ SupportCheck()\l+ AllAbsent()\l+ Suppress()\l+ PermutTaxa()\l+ GetTaxonStatus()\l+ SetTaxon()\l+ GetParameters()\l+ WriteToStream()\l+ ReadFromStream()\l+ GetPriorProb()\l+ Modulo()\l}">
<polygon fill="none" stroke="black" points="154.5,-545.5 154.5,-888.5 264.5,-888.5 264.5,-545.5 154.5,-545.5"/>
<text text-anchor="middle" x="209.5" y="-876.5" font-family="Helvetica,sans-Serif" font-size="10.00">Bipartition</text>
<polyline fill="none" stroke="black" points="154.5,-869.5 264.5,-869.5 "/>
<text text-anchor="middle" x="209.5" y="-857.5" font-family="Helvetica,sans-Serif" font-size="10.00"> </text>
<polyline fill="none" stroke="black" points="154.5,-850.5 264.5,-850.5 "/>
<text text-anchor="start" x="162.5" y="-838.5" font-family="Helvetica,sans-Serif" font-size="10.00">+ Bipartition()</text>
<text text-anchor="start" x="162.5" y="-827.5" font-family="Helvetica,sans-Serif" font-size="10.00">+ Bipartition()</text>
<text text-anchor="start" x="162.5" y="-816.5" font-family="Helvetica,sans-Serif" font-size="10.00">+ ~Bipartition()</text>
<text text-anchor="start" x="162.5" y="-805.5" font-family="Helvetica,sans-Serif" font-size="10.00">+ operator=()</text>
<text text-anchor="start" x="162.5" y="-794.5" font-family="Helvetica,sans-Serif" font-size="10.00">+ operator=()</text>
<text text-anchor="start" x="162.5" y="-783.5" font-family="Helvetica,sans-Serif" font-size="10.00">+ operator==()</text>
<text text-anchor="start" x="162.5" y="-772.5" font-family="Helvetica,sans-Serif" font-size="10.00">+ operator!=()</text>
<text text-anchor="start" x="162.5" y="-761.5" font-family="Helvetica,sans-Serif" font-size="10.00">+ operator|=()</text>
<text text-anchor="start" x="162.5" y="-750.5" font-family="Helvetica,sans-Serif" font-size="10.00">+ operator &amp;=()</text>
<text text-anchor="start" x="162.5" y="-739.5" font-family="Helvetica,sans-Serif" font-size="10.00">+ operator!()</text>
<text text-anchor="start" x="162.5" y="-728.5" font-family="Helvetica,sans-Serif" font-size="10.00">+ IsCompatibleWith()</text>
<text text-anchor="start" x="162.5" y="-717.5" font-family="Helvetica,sans-Serif" font-size="10.00">+ IsCompatibleWith()</text>
<text text-anchor="start" x="162.5" y="-706.5" font-family="Helvetica,sans-Serif" font-size="10.00">+ IsInformative()</text>
<text text-anchor="start" x="162.5" y="-695.5" font-family="Helvetica,sans-Serif" font-size="10.00">+ CompareWith()</text>
<text text-anchor="start" x="162.5" y="-684.5" font-family="Helvetica,sans-Serif" font-size="10.00">+ CompareWith()</text>
<text text-anchor="start" x="162.5" y="-673.5" font-family="Helvetica,sans-Serif" font-size="10.00">+ SupportCheck()</text>
<text text-anchor="start" x="162.5" y="-662.5" font-family="Helvetica,sans-Serif" font-size="10.00">+ SupportCheck()</text>
<text text-anchor="start" x="162.5" y="-651.5" font-family="Helvetica,sans-Serif" font-size="10.00">+ AllAbsent()</text>
<text text-anchor="start" x="162.5" y="-640.5" font-family="Helvetica,sans-Serif" font-size="10.00">+ Suppress()</text>
<text text-anchor="start" x="162.5" y="-629.5" font-family="Helvetica,sans-Serif" font-size="10.00">+ PermutTaxa()</text>
<text text-anchor="start" x="162.5" y="-618.5" font-family="Helvetica,sans-Serif" font-size="10.00">+ GetTaxonStatus()</text>
<text text-anchor="start" x="162.5" y="-607.5" font-family="Helvetica,sans-Serif" font-size="10.00">+ SetTaxon()</text>
<text text-anchor="start" x="162.5" y="-596.5" font-family="Helvetica,sans-Serif" font-size="10.00">+ GetParameters()</text>
<text text-anchor="start" x="162.5" y="-585.5" font-family="Helvetica,sans-Serif" font-size="10.00">+ WriteToStream()</text>
<text text-anchor="start" x="162.5" y="-574.5" font-family="Helvetica,sans-Serif" font-size="10.00">+ ReadFromStream()</text>
<text text-anchor="start" x="162.5" y="-563.5" font-family="Helvetica,sans-Serif" font-size="10.00">+ GetPriorProb()</text>
<text text-anchor="start" x="162.5" y="-552.5" font-family="Helvetica,sans-Serif" font-size="10.00">+ Modulo()</text>
</a>
</g>
</g>
<!-- Node3&#45;&gt;Node1 -->
<g id="edge2" class="edge"><title>Node3&#45;&gt;Node1</title>
<path fill="none" stroke="#404040" d="M184.475,-545.476C181.7,-526.562 178.833,-507.025 175.953,-487.4"/>
<polygon fill="none" stroke="#404040" points="175.95,-487.38 171.121,-482.024 174.208,-475.507 179.036,-480.862 175.95,-487.38"/>
<text text-anchor="middle" x="224" y="-508" font-family="Helvetica,sans-Serif" font-size="10.00"> +mBipartitionArray</text>
</g>
<!-- Node4 -->
<g id="node4" class="node"><title>Node4</title>
<polygon fill="none" stroke="#bfbfbf" points="195,-1250.5 195,-1307.5 224,-1307.5 224,-1250.5 195,-1250.5"/>
<text text-anchor="middle" x="209.5" y="-1295.5" font-family="Helvetica,sans-Serif" font-size="10.00">int</text>
<polyline fill="none" stroke="#bfbfbf" points="195,-1288.5 224,-1288.5 "/>
<text text-anchor="middle" x="209.5" y="-1276.5" font-family="Helvetica,sans-Serif" font-size="10.00"> </text>
<polyline fill="none" stroke="#bfbfbf" points="195,-1269.5 224,-1269.5 "/>
<text text-anchor="middle" x="209.5" y="-1257.5" font-family="Helvetica,sans-Serif" font-size="10.00"> </text>
</g>
<!-- Node4&#45;&gt;Node1 -->
<g id="edge8" class="edge"><title>Node4&#45;&gt;Node1</title>
<path fill="none" stroke="#404040" d="M198.518,-1250.26C177.684,-1195.98 133.109,-1071.46 117.5,-962 95.1692,-805.413 100.138,-627.892 110.948,-487.942"/>
<polygon fill="none" stroke="#404040" points="110.962,-487.765 107.448,-481.468 111.908,-475.802 115.423,-482.099 110.962,-487.765"/>
<text text-anchor="middle" x="161.5" y="-954" font-family="Helvetica,sans-Serif" font-size="10.00"> +basicsize</text>
<text text-anchor="middle" x="161.5" y="-943" font-family="Helvetica,sans-Serif" font-size="10.00">+mCompatibleArray</text>
<text text-anchor="middle" x="161.5" y="-932" font-family="Helvetica,sans-Serif" font-size="10.00">+mAllocatedSize</text>
<text text-anchor="middle" x="161.5" y="-921" font-family="Helvetica,sans-Serif" font-size="10.00">+Ntree</text>
<text text-anchor="middle" x="161.5" y="-910" font-family="Helvetica,sans-Serif" font-size="10.00">+mSize</text>
</g>
<!-- Node4&#45;&gt;Node3 -->
<g id="edge3" class="edge"><title>Node4&#45;&gt;Node3</title>
<path fill="none" stroke="#404040" d="M209.5,-1250.23C209.5,-1187.16 209.5,-1028.68 209.5,-900.95"/>
<polygon fill="none" stroke="#404040" points="209.5,-900.689 205.5,-894.689 209.5,-888.689 213.5,-894.689 209.5,-900.689"/>
<text text-anchor="middle" x="230" y="-1094.5" font-family="Helvetica,sans-Serif" font-size="10.00"> +mArray</text>
<text text-anchor="middle" x="230" y="-1083.5" font-family="Helvetica,sans-Serif" font-size="10.00">+Ntaxa</text>
</g>
<!-- Node5 -->
<g id="node5" class="node"><title>Node5</title>
<g id="a_node5"><a xlink:href="classTaxaParameters.html" target="_top" xlink:title="{TaxaParameters\n||+ TaxaParameters()\l+ TaxaParameters()\l+ TaxaParameters()\l+ TaxaParameters()\l+ TaxaParameters()\l+ TaxaParameters()\l+ ~TaxaParameters()\l+ ReadFromStream()\l+ WriteToStream()\l+ ReadNexus()\l+ GetSpeciesName()\l+ Member()\l+ RegisterWith()\l+ GetParameters()\l+ GetOutGroup()\l+ SetOutGroup()\l}">
<polygon fill="none" stroke="black" points="268.5,-980.5 268.5,-1202.5 378.5,-1202.5 378.5,-980.5 268.5,-980.5"/>
<text text-anchor="middle" x="323.5" y="-1190.5" font-family="Helvetica,sans-Serif" font-size="10.00">TaxaParameters</text>
<polyline fill="none" stroke="black" points="268.5,-1183.5 378.5,-1183.5 "/>
<text text-anchor="middle" x="323.5" y="-1171.5" font-family="Helvetica,sans-Serif" font-size="10.00"> </text>
<polyline fill="none" stroke="black" points="268.5,-1164.5 378.5,-1164.5 "/>
<text text-anchor="start" x="276.5" y="-1152.5" font-family="Helvetica,sans-Serif" font-size="10.00">+ TaxaParameters()</text>
<text text-anchor="start" x="276.5" y="-1141.5" font-family="Helvetica,sans-Serif" font-size="10.00">+ TaxaParameters()</text>
<text text-anchor="start" x="276.5" y="-1130.5" font-family="Helvetica,sans-Serif" font-size="10.00">+ TaxaParameters()</text>
<text text-anchor="start" x="276.5" y="-1119.5" font-family="Helvetica,sans-Serif" font-size="10.00">+ TaxaParameters()</text>
<text text-anchor="start" x="276.5" y="-1108.5" font-family="Helvetica,sans-Serif" font-size="10.00">+ TaxaParameters()</text>
<text text-anchor="start" x="276.5" y="-1097.5" font-family="Helvetica,sans-Serif" font-size="10.00">+ TaxaParameters()</text>
<text text-anchor="start" x="276.5" y="-1086.5" font-family="Helvetica,sans-Serif" font-size="10.00">+ ~TaxaParameters()</text>
<text text-anchor="start" x="276.5" y="-1075.5" font-family="Helvetica,sans-Serif" font-size="10.00">+ ReadFromStream()</text>
<text text-anchor="start" x="276.5" y="-1064.5" font-family="Helvetica,sans-Serif" font-size="10.00">+ WriteToStream()</text>
<text text-anchor="start" x="276.5" y="-1053.5" font-family="Helvetica,sans-Serif" font-size="10.00">+ ReadNexus()</text>
<text text-anchor="start" x="276.5" y="-1042.5" font-family="Helvetica,sans-Serif" font-size="10.00">+ GetSpeciesName()</text>
<text text-anchor="start" x="276.5" y="-1031.5" font-family="Helvetica,sans-Serif" font-size="10.00">+ Member()</text>
<text text-anchor="start" x="276.5" y="-1020.5" font-family="Helvetica,sans-Serif" font-size="10.00">+ RegisterWith()</text>
<text text-anchor="start" x="276.5" y="-1009.5" font-family="Helvetica,sans-Serif" font-size="10.00">+ GetParameters()</text>
<text text-anchor="start" x="276.5" y="-998.5" font-family="Helvetica,sans-Serif" font-size="10.00">+ GetOutGroup()</text>
<text text-anchor="start" x="276.5" y="-987.5" font-family="Helvetica,sans-Serif" font-size="10.00">+ SetOutGroup()</text>
</a>
</g>
</g>
<!-- Node4&#45;&gt;Node5 -->
<g id="edge6" class="edge"><title>Node4&#45;&gt;Node5</title>
<path fill="none" stroke="#404040" d="M224.17,-1254.13C234.071,-1238.02 247.875,-1215.56 262.048,-1192.49"/>
<polygon fill="none" stroke="#404040" points="262.07,-1192.46 261.803,-1185.25 268.353,-1182.23 268.619,-1189.44 262.07,-1192.46"/>
<text text-anchor="middle" x="261.5" y="-1224" font-family="Helvetica,sans-Serif" font-size="10.00"> +Ntaxa</text>
</g>
<!-- Node5&#45;&gt;Node1 -->
<g id="edge9" class="edge"><title>Node5&#45;&gt;Node1</title>
<path fill="none" stroke="#404040" d="M326.241,-980.435C326.408,-858.953 318.17,-658.789 270.5,-494 255.711,-442.877 230.422,-389.973 205.984,-345.695"/>
<polygon fill="none" stroke="#404040" points="205.983,-345.693 199.564,-342.406 200.129,-335.217 206.548,-338.504 205.983,-345.693"/>
<text text-anchor="middle" x="348.5" y="-714.5" font-family="Helvetica,sans-Serif" font-size="10.00"> +mParam</text>
</g>
<!-- Node5&#45;&gt;Node3 -->
<g id="edge4" class="edge"><title>Node5&#45;&gt;Node3</title>
<path fill="none" stroke="#404040" d="M268.441,-1007.73C260.413,-992.958 253.012,-977.371 247.5,-962 240.512,-942.512 234.808,-921.694 230.153,-900.74"/>
<polygon fill="none" stroke="#404040" points="230.098,-900.484 224.938,-895.448 227.602,-888.747 232.763,-893.784 230.098,-900.484"/>
<text text-anchor="middle" x="270.5" y="-932" font-family="Helvetica,sans-Serif" font-size="10.00"> +mParam</text>
</g>
<!-- Node6 -->
<g id="node6" class="node"><title>Node6</title>
<polygon fill="none" stroke="#bfbfbf" points="297,-1250.5 297,-1307.5 338,-1307.5 338,-1250.5 297,-1250.5"/>
<text text-anchor="middle" x="317.5" y="-1295.5" font-family="Helvetica,sans-Serif" font-size="10.00">string</text>
<polyline fill="none" stroke="#bfbfbf" points="297,-1288.5 338,-1288.5 "/>
<text text-anchor="middle" x="317.5" y="-1276.5" font-family="Helvetica,sans-Serif" font-size="10.00"> </text>
<polyline fill="none" stroke="#bfbfbf" points="297,-1269.5 338,-1269.5 "/>
<text text-anchor="middle" x="317.5" y="-1257.5" font-family="Helvetica,sans-Serif" font-size="10.00"> </text>
</g>
<!-- Node6&#45;&gt;Node5 -->
<g id="edge5" class="edge"><title>Node6&#45;&gt;Node5</title>
<path fill="none" stroke="#404040" d="M317.865,-1250.45C318.02,-1241.1 318.229,-1230.6 318.5,-1221 318.558,-1218.93 318.619,-1216.84 318.682,-1214.73"/>
<polygon fill="none" stroke="#404040" points="318.688,-1214.54 314.878,-1208.42 319.063,-1202.55 322.874,-1208.67 318.688,-1214.54"/>
<text text-anchor="middle" x="356.5" y="-1224" font-family="Helvetica,sans-Serif" font-size="10.00"> +SpeciesNames</text>
</g>
<!-- Node7 -->
<g id="node7" class="node"><title>Node7</title>
<polygon fill="none" stroke="#bfbfbf" points="372,-1250.5 372,-1307.5 461,-1307.5 461,-1250.5 372,-1250.5"/>
<text text-anchor="middle" x="416.5" y="-1295.5" font-family="Helvetica,sans-Serif" font-size="10.00">MCParameters *</text>
<polyline fill="none" stroke="#bfbfbf" points="372,-1288.5 461,-1288.5 "/>
<text text-anchor="middle" x="416.5" y="-1276.5" font-family="Helvetica,sans-Serif" font-size="10.00"> </text>
<polyline fill="none" stroke="#bfbfbf" points="372,-1269.5 461,-1269.5 "/>
<text text-anchor="middle" x="416.5" y="-1257.5" font-family="Helvetica,sans-Serif" font-size="10.00"> </text>
</g>
<!-- Node7&#45;&gt;Node5 -->
<g id="edge7" class="edge"><title>Node7&#45;&gt;Node5</title>
<path fill="none" stroke="#404040" d="M406.727,-1250.43C403.15,-1240.98 398.895,-1230.42 394.5,-1221 391.244,-1214.02 387.767,-1206.9 384.167,-1199.77"/>
<polygon fill="none" stroke="#404040" points="384.096,-1199.63 377.8,-1196.11 378.623,-1188.95 384.919,-1192.46 384.096,-1199.63"/>
<text text-anchor="middle" x="422.5" y="-1224" font-family="Helvetica,sans-Serif" font-size="10.00"> +mParam</text>
</g>
</g>
</svg>
