<?xml version="1.0" encoding="UTF-8" standalone="no"?>
<!DOCTYPE svg PUBLIC "-//W3C//DTD SVG 1.1//EN"
 "http://www.w3.org/Graphics/SVG/1.1/DTD/svg11.dtd">
<!-- Generated by graphviz version 2.38.0 (20140413.2041)
 -->
<!-- Title: PoissonSBDPProfileProcess Pages: 1 -->
<svg width="938pt" height="2166pt"
 viewBox="0.00 0.00 938.00 2166.00" xmlns="http://www.w3.org/2000/svg" xmlns:xlink="http://www.w3.org/1999/xlink">
<g id="graph0" class="graph" transform="scale(1 1) rotate(0) translate(4 2162)">
<title>PoissonSBDPProfileProcess</title>
<!-- Node10 -->
<g id="node1" class="node"><title>Node10</title>
<polygon fill="#bfbfbf" stroke="black" points="439,-0.5 439,-178.5 603,-178.5 603,-0.5 439,-0.5"/>
<text text-anchor="middle" x="521" y="-166.5" font-family="Helvetica,sans-Serif" font-size="10.00">PoissonSBDPProfileProcess</text>
<polyline fill="none" stroke="black" points="439,-159.5 603,-159.5 "/>
<text text-anchor="middle" x="521" y="-147.5" font-family="Helvetica,sans-Serif" font-size="10.00"> </text>
<polyline fill="none" stroke="black" points="439,-140.5 603,-140.5 "/>
<text text-anchor="start" x="447" y="-128.5" font-family="Helvetica,sans-Serif" font-size="10.00">+ PoissonSBDPProfileProcess()</text>
<text text-anchor="start" x="447" y="-117.5" font-family="Helvetica,sans-Serif" font-size="10.00">+ ~PoissonSBDPProfileProcess()</text>
<text text-anchor="start" x="447" y="-106.5" font-family="Helvetica,sans-Serif" font-size="10.00">+ Move()</text>
<text text-anchor="start" x="447" y="-95.5" font-family="Helvetica,sans-Serif" font-size="10.00">+ LogProxy()</text>
<text text-anchor="start" x="447" y="-84.5" font-family="Helvetica,sans-Serif" font-size="10.00"># Create()</text>
<text text-anchor="start" x="447" y="-73.5" font-family="Helvetica,sans-Serif" font-size="10.00"># Delete()</text>
<text text-anchor="start" x="447" y="-62.5" font-family="Helvetica,sans-Serif" font-size="10.00"># GlobalMixMove()</text>
<text text-anchor="start" x="447" y="-51.5" font-family="Helvetica,sans-Serif" font-size="10.00"># SlaveMixMove()</text>
<text text-anchor="start" x="447" y="-40.5" font-family="Helvetica,sans-Serif" font-size="10.00"># IncrementalDPMove()</text>
<text text-anchor="start" x="447" y="-29.5" font-family="Helvetica,sans-Serif" font-size="10.00"># IncrementalDPMove()</text>
<text text-anchor="start" x="447" y="-18.5" font-family="Helvetica,sans-Serif" font-size="10.00"># SwapComponents()</text>
<text text-anchor="start" x="447" y="-7.5" font-family="Helvetica,sans-Serif" font-size="10.00"># FromStream()</text>
</g>
<!-- Node11 -->
<g id="node2" class="node"><title>Node11</title>
<g id="a_node2"><a xlink:href="classPoissonDPProfileProcess.html" target="_top" xlink:title="{PoissonDPProfileProcess\n||+ PoissonDPProfileProcess()\l+ ~PoissonDPProfileProcess()\l+ Move()\l+ ToStream()\l+ FromStream()\l# IncrementalDPMove()\l}">
<polygon fill="none" stroke="black" points="273.5,-321 273.5,-433 424.5,-433 424.5,-321 273.5,-321"/>
<text text-anchor="middle" x="349" y="-421" font-family="Helvetica,sans-Serif" font-size="10.00">PoissonDPProfileProcess</text>
<polyline fill="none" stroke="black" points="273.5,-414 424.5,-414 "/>
<text text-anchor="middle" x="349" y="-402" font-family="Helvetica,sans-Serif" font-size="10.00"> </text>
<polyline fill="none" stroke="black" points="273.5,-395 424.5,-395 "/>
<text text-anchor="start" x="281.5" y="-383" font-family="Helvetica,sans-Serif" font-size="10.00">+ PoissonDPProfileProcess()</text>
<text text-anchor="start" x="281.5" y="-372" font-family="Helvetica,sans-Serif" font-size="10.00">+ ~PoissonDPProfileProcess()</text>
<text text-anchor="start" x="281.5" y="-361" font-family="Helvetica,sans-Serif" font-size="10.00">+ Move()</text>
<text text-anchor="start" x="281.5" y="-350" font-family="Helvetica,sans-Serif" font-size="10.00">+ ToStream()</text>
<text text-anchor="start" x="281.5" y="-339" font-family="Helvetica,sans-Serif" font-size="10.00">+ FromStream()</text>
<text text-anchor="start" x="281.5" y="-328" font-family="Helvetica,sans-Serif" font-size="10.00"># IncrementalDPMove()</text>
</a>
</g>
</g>
<!-- Node11&#45;&gt;Node10 -->
<g id="edge1" class="edge"><title>Node11&#45;&gt;Node10</title>
<path fill="none" stroke="midnightblue" d="M380.248,-311.963C395.33,-282.28 414.204,-246.831 433,-216 440.48,-203.731 448.72,-191.053 457.067,-178.686"/>
<polygon fill="none" stroke="midnightblue" points="377.078,-310.474 375.693,-320.978 383.326,-313.631 377.078,-310.474"/>
</g>
<!-- Node12 -->
<g id="node3" class="node"><title>Node12</title>
<g id="a_node3"><a xlink:href="classPoissonMixtureProfileProcess.html" target="_top" xlink:title="{PoissonMixtureProfileProcess\n||+ PoissonMixtureProfileProcess()\l+ ~PoissonMixtureProfileProcess()\l# Create()\l# Delete()\l# CreateComponent()\l# DeleteComponent()\l# UpdateComponent()\l# UpdateModeProfileSuffStat()\l# ProfileSuffStatLogProb()\l# DiffLogSampling()\l# LogStatProb()\l# LogStatIntPrior()\l# LogStatIntPrior()\l# MoveDirWeights()\l# MoveProfile()\l# MoveProfile()\l# SwapComponents()\l# AddSite()\l# RemoveSite()\l# GetNormRate()\l# GetNormalizationFactor()\l}">
<polygon fill="none" stroke="black" points="133.5,-575.5 133.5,-852.5 302.5,-852.5 302.5,-575.5 133.5,-575.5"/>
<text text-anchor="middle" x="218" y="-840.5" font-family="Helvetica,sans-Serif" font-size="10.00">PoissonMixtureProfileProcess</text>
<polyline fill="none" stroke="black" points="133.5,-833.5 302.5,-833.5 "/>
<text text-anchor="middle" x="218" y="-821.5" font-family="Helvetica,sans-Serif" font-size="10.00"> </text>
<polyline fill="none" stroke="black" points="133.5,-814.5 302.5,-814.5 "/>
<text text-anchor="start" x="141.5" y="-802.5" font-family="Helvetica,sans-Serif" font-size="10.00">+ PoissonMixtureProfileProcess()</text>
<text text-anchor="start" x="141.5" y="-791.5" font-family="Helvetica,sans-Serif" font-size="10.00">+ ~PoissonMixtureProfileProcess()</text>
<text text-anchor="start" x="141.5" y="-780.5" font-family="Helvetica,sans-Serif" font-size="10.00"># Create()</text>
<text text-anchor="start" x="141.5" y="-769.5" font-family="Helvetica,sans-Serif" font-size="10.00"># Delete()</text>
<text text-anchor="start" x="141.5" y="-758.5" font-family="Helvetica,sans-Serif" font-size="10.00"># CreateComponent()</text>
<text text-anchor="start" x="141.5" y="-747.5" font-family="Helvetica,sans-Serif" font-size="10.00"># DeleteComponent()</text>
<text text-anchor="start" x="141.5" y="-736.5" font-family="Helvetica,sans-Serif" font-size="10.00"># UpdateComponent()</text>
<text text-anchor="start" x="141.5" y="-725.5" font-family="Helvetica,sans-Serif" font-size="10.00"># UpdateModeProfileSuffStat()</text>
<text text-anchor="start" x="141.5" y="-714.5" font-family="Helvetica,sans-Serif" font-size="10.00"># ProfileSuffStatLogProb()</text>
<text text-anchor="start" x="141.5" y="-703.5" font-family="Helvetica,sans-Serif" font-size="10.00"># DiffLogSampling()</text>
<text text-anchor="start" x="141.5" y="-692.5" font-family="Helvetica,sans-Serif" font-size="10.00"># LogStatProb()</text>
<text text-anchor="start" x="141.5" y="-681.5" font-family="Helvetica,sans-Serif" font-size="10.00"># LogStatIntPrior()</text>
<text text-anchor="start" x="141.5" y="-670.5" font-family="Helvetica,sans-Serif" font-size="10.00"># LogStatIntPrior()</text>
<text text-anchor="start" x="141.5" y="-659.5" font-family="Helvetica,sans-Serif" font-size="10.00"># MoveDirWeights()</text>
<text text-anchor="start" x="141.5" y="-648.5" font-family="Helvetica,sans-Serif" font-size="10.00"># MoveProfile()</text>
<text text-anchor="start" x="141.5" y="-637.5" font-family="Helvetica,sans-Serif" font-size="10.00"># MoveProfile()</text>
<text text-anchor="start" x="141.5" y="-626.5" font-family="Helvetica,sans-Serif" font-size="10.00"># SwapComponents()</text>
<text text-anchor="start" x="141.5" y="-615.5" font-family="Helvetica,sans-Serif" font-size="10.00"># AddSite()</text>
<text text-anchor="start" x="141.5" y="-604.5" font-family="Helvetica,sans-Serif" font-size="10.00"># RemoveSite()</text>
<text text-anchor="start" x="141.5" y="-593.5" font-family="Helvetica,sans-Serif" font-size="10.00"># GetNormRate()</text>
<text text-anchor="start" x="141.5" y="-582.5" font-family="Helvetica,sans-Serif" font-size="10.00"># GetNormalizationFactor()</text>
</a>
</g>
</g>
<!-- Node12&#45;&gt;Node11 -->
<g id="edge2" class="edge"><title>Node12&#45;&gt;Node11</title>
<path fill="none" stroke="midnightblue" d="M275.517,-565.915C293.917,-518.862 313.17,-469.627 327.351,-433.362"/>
<polygon fill="none" stroke="midnightblue" points="272.232,-564.705 271.85,-575.292 278.751,-567.254 272.232,-564.705"/>
</g>
<!-- Node13 -->
<g id="node4" class="node"><title>Node13</title>
<g id="a_node4"><a xlink:href="classPoissonProfileProcess.html" target="_top" xlink:title="{PoissonProfileProcess\n||+ PoissonProfileProcess()\l+ ~PoissonProfileProcess()\l# UpdateZip()\l# GetSiteProfileSuffStatCount()\l}">
<polygon fill="none" stroke="black" points="32,-1115 32,-1205 186,-1205 186,-1115 32,-1115"/>
<text text-anchor="middle" x="109" y="-1193" font-family="Helvetica,sans-Serif" font-size="10.00">PoissonProfileProcess</text>
<polyline fill="none" stroke="black" points="32,-1186 186,-1186 "/>
<text text-anchor="middle" x="109" y="-1174" font-family="Helvetica,sans-Serif" font-size="10.00"> </text>
<polyline fill="none" stroke="black" points="32,-1167 186,-1167 "/>
<text text-anchor="start" x="40" y="-1155" font-family="Helvetica,sans-Serif" font-size="10.00">+ PoissonProfileProcess()</text>
<text text-anchor="start" x="40" y="-1144" font-family="Helvetica,sans-Serif" font-size="10.00">+ ~PoissonProfileProcess()</text>
<text text-anchor="start" x="40" y="-1133" font-family="Helvetica,sans-Serif" font-size="10.00"># UpdateZip()</text>
<text text-anchor="start" x="40" y="-1122" font-family="Helvetica,sans-Serif" font-size="10.00"># GetSiteProfileSuffStatCount()</text>
</a>
</g>
</g>
<!-- Node13&#45;&gt;Node12 -->
<g id="edge3" class="edge"><title>Node13&#45;&gt;Node12</title>
<path fill="none" stroke="midnightblue" d="M122.303,-1104.81C137.583,-1042.57 163.236,-938.077 184.137,-852.937"/>
<polygon fill="none" stroke="midnightblue" points="118.835,-1104.26 119.85,-1114.8 125.633,-1105.93 118.835,-1104.26"/>
</g>
<!-- Node14 -->
<g id="node5" class="node"><title>Node14</title>
<g id="a_node5"><a xlink:href="classProfileProcess.html" target="_top" xlink:title="{ProfileProcess\n||+ ProfileProcess()\l+ ~ProfileProcess()\l+ GetVersion()\l+ GetStatInfCount()\l+ GetDim()\l+ GetNsite()\l+ GetProfile()\l+ GetStateSpace()\l+ LogProfilePrior()\l+ SampleProfile()\l+ GetMeanStationaryEntropy()\l+ GetSiteStationaryEntropy()\l+ UpdateSiteProfileSuffStat()\l+ GlobalUpdateSiteProfileSuffStat()\l+ SlaveUpdateSiteProfileSuffStat()\l+ GlobalUpdateParameters()\l+ SlaveUpdateParameters()\l+ ProfileSuffStatLogProb()\l+ ToStream()\l+ FromStream()\l+ SetBurnin()\l+ isObserved()\l+ GetMinStat()\l+ GetMinMinStat()\l# DrawProfileFromPrior()\l# GetNormalizationFactor()\l# Create()\l# Delete()\l# GetNprocs()\l# GetMyid()\l# GetSiteMin()\l# GetSiteMax()\l# GetEmpiricalFreq()\l# GetMinTotWeight()\l# SetMinTotWeight()\l}">
<polygon fill="none" stroke="black" points="16,-1478.5 16,-1909.5 188,-1909.5 188,-1478.5 16,-1478.5"/>
<text text-anchor="middle" x="102" y="-1897.5" font-family="Helvetica,sans-Serif" font-size="10.00">ProfileProcess</text>
<polyline fill="none" stroke="black" points="16,-1890.5 188,-1890.5 "/>
<text text-anchor="middle" x="102" y="-1878.5" font-family="Helvetica,sans-Serif" font-size="10.00"> </text>
<polyline fill="none" stroke="black" points="16,-1871.5 188,-1871.5 "/>
<text text-anchor="start" x="24" y="-1859.5" font-family="Helvetica,sans-Serif" font-size="10.00">+ ProfileProcess()</text>
<text text-anchor="start" x="24" y="-1848.5" font-family="Helvetica,sans-Serif" font-size="10.00">+ ~ProfileProcess()</text>
<text text-anchor="start" x="24" y="-1837.5" font-family="Helvetica,sans-Serif" font-size="10.00">+ GetVersion()</text>
<text text-anchor="start" x="24" y="-1826.5" font-family="Helvetica,sans-Serif" font-size="10.00">+ GetStatInfCount()</text>
<text text-anchor="start" x="24" y="-1815.5" font-family="Helvetica,sans-Serif" font-size="10.00">+ GetDim()</text>
<text text-anchor="start" x="24" y="-1804.5" font-family="Helvetica,sans-Serif" font-size="10.00">+ GetNsite()</text>
<text text-anchor="start" x="24" y="-1793.5" font-family="Helvetica,sans-Serif" font-size="10.00">+ GetProfile()</text>
<text text-anchor="start" x="24" y="-1782.5" font-family="Helvetica,sans-Serif" font-size="10.00">+ GetStateSpace()</text>
<text text-anchor="start" x="24" y="-1771.5" font-family="Helvetica,sans-Serif" font-size="10.00">+ LogProfilePrior()</text>
<text text-anchor="start" x="24" y="-1760.5" font-family="Helvetica,sans-Serif" font-size="10.00">+ SampleProfile()</text>
<text text-anchor="start" x="24" y="-1749.5" font-family="Helvetica,sans-Serif" font-size="10.00">+ GetMeanStationaryEntropy()</text>
<text text-anchor="start" x="24" y="-1738.5" font-family="Helvetica,sans-Serif" font-size="10.00">+ GetSiteStationaryEntropy()</text>
<text text-anchor="start" x="24" y="-1727.5" font-family="Helvetica,sans-Serif" font-size="10.00">+ UpdateSiteProfileSuffStat()</text>
<text text-anchor="start" x="24" y="-1716.5" font-family="Helvetica,sans-Serif" font-size="10.00">+ GlobalUpdateSiteProfileSuffStat()</text>
<text text-anchor="start" x="24" y="-1705.5" font-family="Helvetica,sans-Serif" font-size="10.00">+ SlaveUpdateSiteProfileSuffStat()</text>
<text text-anchor="start" x="24" y="-1694.5" font-family="Helvetica,sans-Serif" font-size="10.00">+ GlobalUpdateParameters()</text>
<text text-anchor="start" x="24" y="-1683.5" font-family="Helvetica,sans-Serif" font-size="10.00">+ SlaveUpdateParameters()</text>
<text text-anchor="start" x="24" y="-1672.5" font-family="Helvetica,sans-Serif" font-size="10.00">+ ProfileSuffStatLogProb()</text>
<text text-anchor="start" x="24" y="-1661.5" font-family="Helvetica,sans-Serif" font-size="10.00">+ ToStream()</text>
<text text-anchor="start" x="24" y="-1650.5" font-family="Helvetica,sans-Serif" font-size="10.00">+ FromStream()</text>
<text text-anchor="start" x="24" y="-1639.5" font-family="Helvetica,sans-Serif" font-size="10.00">+ SetBurnin()</text>
<text text-anchor="start" x="24" y="-1628.5" font-family="Helvetica,sans-Serif" font-size="10.00">+ isObserved()</text>
<text text-anchor="start" x="24" y="-1617.5" font-family="Helvetica,sans-Serif" font-size="10.00">+ GetMinStat()</text>
<text text-anchor="start" x="24" y="-1606.5" font-family="Helvetica,sans-Serif" font-size="10.00">+ GetMinMinStat()</text>
<text text-anchor="start" x="24" y="-1595.5" font-family="Helvetica,sans-Serif" font-size="10.00"># DrawProfileFromPrior()</text>
<text text-anchor="start" x="24" y="-1584.5" font-family="Helvetica,sans-Serif" font-size="10.00"># GetNormalizationFactor()</text>
<text text-anchor="start" x="24" y="-1573.5" font-family="Helvetica,sans-Serif" font-size="10.00"># Create()</text>
<text text-anchor="start" x="24" y="-1562.5" font-family="Helvetica,sans-Serif" font-size="10.00"># Delete()</text>
<text text-anchor="start" x="24" y="-1551.5" font-family="Helvetica,sans-Serif" font-size="10.00"># GetNprocs()</text>
<text text-anchor="start" x="24" y="-1540.5" font-family="Helvetica,sans-Serif" font-size="10.00"># GetMyid()</text>
<text text-anchor="start" x="24" y="-1529.5" font-family="Helvetica,sans-Serif" font-size="10.00"># GetSiteMin()</text>
<text text-anchor="start" x="24" y="-1518.5" font-family="Helvetica,sans-Serif" font-size="10.00"># GetSiteMax()</text>
<text text-anchor="start" x="24" y="-1507.5" font-family="Helvetica,sans-Serif" font-size="10.00"># GetEmpiricalFreq()</text>
<text text-anchor="start" x="24" y="-1496.5" font-family="Helvetica,sans-Serif" font-size="10.00"># GetMinTotWeight()</text>
<text text-anchor="start" x="24" y="-1485.5" font-family="Helvetica,sans-Serif" font-size="10.00"># SetMinTotWeight()</text>
</a>
</g>
</g>
<!-- Node14&#45;&gt;Node13 -->
<g id="edge4" class="edge"><title>Node14&#45;&gt;Node13</title>
<path fill="none" stroke="midnightblue" d="M104.96,-1468.02C106.258,-1369.43 107.656,-1263.13 108.42,-1205.07"/>
<polygon fill="none" stroke="midnightblue" points="101.459,-1468.1 104.827,-1478.15 108.458,-1468.2 101.459,-1468.1"/>
</g>
<!-- Node19 -->
<g id="node10" class="node"><title>Node19</title>
<g id="a_node10"><a xlink:href="classMixtureProfileProcess.html" target="_top" xlink:title="{MixtureProfileProcess\n||+ MixtureProfileProcess()\l+ ~MixtureProfileProcess()\l+ GetProfile()\l+ GetNcomponent()\l+ GetNDisplayedComponent()\l+ GetNOccupiedComponent()\l+ GetNmodeMax()\l+ GetMeanStationaryEntropy()\l+ GetSiteStationaryEntropy()\l+ GetStatEnt()\l+ GetStatEnt()\l+ GetCenterStatEnt()\l+ GetMeanDirWeight()\l+ RenormalizeProfiles()\l+ Move()\l+ MoveDirWeights()\l# UpdateModeProfileSuffStat()\l# ProfileSuffStatLogProb()\l# LogStatProb()\l# ProfileSuffStatLogProb()\l# Create()\l# Delete()\l# CreateComponent()\l# DeleteComponent()\l# UpdateComponent()\l# UpdateComponents()\l# GetAllocEntropy()\l# AddSite()\l# RemoveSite()\l# SampleProfile()\l# SampleHyper()\l# SampleAlloc()\l# SampleStat()\l# SampleStat()\l# SampleStat()\l# UpdateOccupancyNumbers()\l# ResampleEmptyProfiles()\l# LogProfilePrior()\l# LogHyperPrior()\l# LogAllocPrior()\l# LogStatPrior()\l# LogStatPrior()\l# SwapComponents()\l}">
<polygon fill="none" stroke="black" points="244,-900.5 244,-1419.5 396,-1419.5 396,-900.5 244,-900.5"/>
<text text-anchor="middle" x="320" y="-1407.5" font-family="Helvetica,sans-Serif" font-size="10.00">MixtureProfileProcess</text>
<polyline fill="none" stroke="black" points="244,-1400.5 396,-1400.5 "/>
<text text-anchor="middle" x="320" y="-1388.5" font-family="Helvetica,sans-Serif" font-size="10.00"> </text>
<polyline fill="none" stroke="black" points="244,-1381.5 396,-1381.5 "/>
<text text-anchor="start" x="252" y="-1369.5" font-family="Helvetica,sans-Serif" font-size="10.00">+ MixtureProfileProcess()</text>
<text text-anchor="start" x="252" y="-1358.5" font-family="Helvetica,sans-Serif" font-size="10.00">+ ~MixtureProfileProcess()</text>
<text text-anchor="start" x="252" y="-1347.5" font-family="Helvetica,sans-Serif" font-size="10.00">+ GetProfile()</text>
<text text-anchor="start" x="252" y="-1336.5" font-family="Helvetica,sans-Serif" font-size="10.00">+ GetNcomponent()</text>
<text text-anchor="start" x="252" y="-1325.5" font-family="Helvetica,sans-Serif" font-size="10.00">+ GetNDisplayedComponent()</text>
<text text-anchor="start" x="252" y="-1314.5" font-family="Helvetica,sans-Serif" font-size="10.00">+ GetNOccupiedComponent()</text>
<text text-anchor="start" x="252" y="-1303.5" font-family="Helvetica,sans-Serif" font-size="10.00">+ GetNmodeMax()</text>
<text text-anchor="start" x="252" y="-1292.5" font-family="Helvetica,sans-Serif" font-size="10.00">+ GetMeanStationaryEntropy()</text>
<text text-anchor="start" x="252" y="-1281.5" font-family="Helvetica,sans-Serif" font-size="10.00">+ GetSiteStationaryEntropy()</text>
<text text-anchor="start" x="252" y="-1270.5" font-family="Helvetica,sans-Serif" font-size="10.00">+ GetStatEnt()</text>
<text text-anchor="start" x="252" y="-1259.5" font-family="Helvetica,sans-Serif" font-size="10.00">+ GetStatEnt()</text>
<text text-anchor="start" x="252" y="-1248.5" font-family="Helvetica,sans-Serif" font-size="10.00">+ GetCenterStatEnt()</text>
<text text-anchor="start" x="252" y="-1237.5" font-family="Helvetica,sans-Serif" font-size="10.00">+ GetMeanDirWeight()</text>
<text text-anchor="start" x="252" y="-1226.5" font-family="Helvetica,sans-Serif" font-size="10.00">+ RenormalizeProfiles()</text>
<text text-anchor="start" x="252" y="-1215.5" font-family="Helvetica,sans-Serif" font-size="10.00">+ Move()</text>
<text text-anchor="start" x="252" y="-1204.5" font-family="Helvetica,sans-Serif" font-size="10.00">+ MoveDirWeights()</text>
<text text-anchor="start" x="252" y="-1193.5" font-family="Helvetica,sans-Serif" font-size="10.00"># UpdateModeProfileSuffStat()</text>
<text text-anchor="start" x="252" y="-1182.5" font-family="Helvetica,sans-Serif" font-size="10.00"># ProfileSuffStatLogProb()</text>
<text text-anchor="start" x="252" y="-1171.5" font-family="Helvetica,sans-Serif" font-size="10.00"># LogStatProb()</text>
<text text-anchor="start" x="252" y="-1160.5" font-family="Helvetica,sans-Serif" font-size="10.00"># ProfileSuffStatLogProb()</text>
<text text-anchor="start" x="252" y="-1149.5" font-family="Helvetica,sans-Serif" font-size="10.00"># Create()</text>
<text text-anchor="start" x="252" y="-1138.5" font-family="Helvetica,sans-Serif" font-size="10.00"># Delete()</text>
<text text-anchor="start" x="252" y="-1127.5" font-family="Helvetica,sans-Serif" font-size="10.00"># CreateComponent()</text>
<text text-anchor="start" x="252" y="-1116.5" font-family="Helvetica,sans-Serif" font-size="10.00"># DeleteComponent()</text>
<text text-anchor="start" x="252" y="-1105.5" font-family="Helvetica,sans-Serif" font-size="10.00"># UpdateComponent()</text>
<text text-anchor="start" x="252" y="-1094.5" font-family="Helvetica,sans-Serif" font-size="10.00"># UpdateComponents()</text>
<text text-anchor="start" x="252" y="-1083.5" font-family="Helvetica,sans-Serif" font-size="10.00"># GetAllocEntropy()</text>
<text text-anchor="start" x="252" y="-1072.5" font-family="Helvetica,sans-Serif" font-size="10.00"># AddSite()</text>
<text text-anchor="start" x="252" y="-1061.5" font-family="Helvetica,sans-Serif" font-size="10.00"># RemoveSite()</text>
<text text-anchor="start" x="252" y="-1050.5" font-family="Helvetica,sans-Serif" font-size="10.00"># SampleProfile()</text>
<text text-anchor="start" x="252" y="-1039.5" font-family="Helvetica,sans-Serif" font-size="10.00"># SampleHyper()</text>
<text text-anchor="start" x="252" y="-1028.5" font-family="Helvetica,sans-Serif" font-size="10.00"># SampleAlloc()</text>
<text text-anchor="start" x="252" y="-1017.5" font-family="Helvetica,sans-Serif" font-size="10.00"># SampleStat()</text>
<text text-anchor="start" x="252" y="-1006.5" font-family="Helvetica,sans-Serif" font-size="10.00"># SampleStat()</text>
<text text-anchor="start" x="252" y="-995.5" font-family="Helvetica,sans-Serif" font-size="10.00"># SampleStat()</text>
<text text-anchor="start" x="252" y="-984.5" font-family="Helvetica,sans-Serif" font-size="10.00"># UpdateOccupancyNumbers()</text>
<text text-anchor="start" x="252" y="-973.5" font-family="Helvetica,sans-Serif" font-size="10.00"># ResampleEmptyProfiles()</text>
<text text-anchor="start" x="252" y="-962.5" font-family="Helvetica,sans-Serif" font-size="10.00"># LogProfilePrior()</text>
<text text-anchor="start" x="252" y="-951.5" font-family="Helvetica,sans-Serif" font-size="10.00"># LogHyperPrior()</text>
<text text-anchor="start" x="252" y="-940.5" font-family="Helvetica,sans-Serif" font-size="10.00"># LogAllocPrior()</text>
<text text-anchor="start" x="252" y="-929.5" font-family="Helvetica,sans-Serif" font-size="10.00"># LogStatPrior()</text>
<text text-anchor="start" x="252" y="-918.5" font-family="Helvetica,sans-Serif" font-size="10.00"># LogStatPrior()</text>
<text text-anchor="start" x="252" y="-907.5" font-family="Helvetica,sans-Serif" font-size="10.00"># SwapComponents()</text>
</a>
</g>
</g>
<!-- Node14&#45;&gt;Node19 -->
<g id="edge10" class="edge"><title>Node14&#45;&gt;Node19</title>
<path fill="none" stroke="midnightblue" d="M181.78,-1468.68C185.84,-1458.28 189.924,-1448.01 194,-1438 209.337,-1400.32 226.847,-1360.25 243.836,-1322.63"/>
<polygon fill="none" stroke="midnightblue" points="178.416,-1467.67 178.06,-1478.26 184.942,-1470.21 178.416,-1467.67"/>
</g>
<!-- Node15 -->
<g id="node6" class="node"><title>Node15</title>
<g id="a_node6"><a xlink:href="classChrono.html" target="_top" xlink:title="{Chrono\n||+ Chrono()\l+ ~Chrono()\l+ Reset()\l+ Start()\l+ Stop()\l+ ToStream()\l+ FromStream()\l+ operator++()\l+ GetTime()\l+ GetTimePerCount()\l+ GetCount()\l}">
<polygon fill="none" stroke="black" points="0,-1990.5 0,-2157.5 110,-2157.5 110,-1990.5 0,-1990.5"/>
<text text-anchor="middle" x="55" y="-2145.5" font-family="Helvetica,sans-Serif" font-size="10.00">Chrono</text>
<polyline fill="none" stroke="black" points="0,-2138.5 110,-2138.5 "/>
<text text-anchor="middle" x="55" y="-2126.5" font-family="Helvetica,sans-Serif" font-size="10.00"> </text>
<polyline fill="none" stroke="black" points="0,-2119.5 110,-2119.5 "/>
<text text-anchor="start" x="8" y="-2107.5" font-family="Helvetica,sans-Serif" font-size="10.00">+ Chrono()</text>
<text text-anchor="start" x="8" y="-2096.5" font-family="Helvetica,sans-Serif" font-size="10.00">+ ~Chrono()</text>
<text text-anchor="start" x="8" y="-2085.5" font-family="Helvetica,sans-Serif" font-size="10.00">+ Reset()</text>
<text text-anchor="start" x="8" y="-2074.5" font-family="Helvetica,sans-Serif" font-size="10.00">+ Start()</text>
<text text-anchor="start" x="8" y="-2063.5" font-family="Helvetica,sans-Serif" font-size="10.00">+ Stop()</text>
<text text-anchor="start" x="8" y="-2052.5" font-family="Helvetica,sans-Serif" font-size="10.00">+ ToStream()</text>
<text text-anchor="start" x="8" y="-2041.5" font-family="Helvetica,sans-Serif" font-size="10.00">+ FromStream()</text>
<text text-anchor="start" x="8" y="-2030.5" font-family="Helvetica,sans-Serif" font-size="10.00">+ operator++()</text>
<text text-anchor="start" x="8" y="-2019.5" font-family="Helvetica,sans-Serif" font-size="10.00">+ GetTime()</text>
<text text-anchor="start" x="8" y="-2008.5" font-family="Helvetica,sans-Serif" font-size="10.00">+ GetTimePerCount()</text>
<text text-anchor="start" x="8" y="-1997.5" font-family="Helvetica,sans-Serif" font-size="10.00">+ GetCount()</text>
</a>
</g>
</g>
<!-- Node15&#45;&gt;Node14 -->
<g id="edge5" class="edge"><title>Node15&#45;&gt;Node14</title>
<path fill="none" stroke="#404040" d="M52.8873,-1990.42C53.1021,-1969.98 53.9586,-1948.16 56,-1928 56.2106,-1925.92 56.4309,-1923.83 56.6604,-1921.73"/>
<polygon fill="none" stroke="#404040" points="56.6799,-1921.57 53.4034,-1915.14 58.0728,-1909.65 61.3493,-1916.07 56.6799,-1921.57"/>
<text text-anchor="middle" x="83.5" y="-1958.5" font-family="Helvetica,sans-Serif" font-size="10.00"> #chronostat</text>
<text text-anchor="middle" x="83.5" y="-1947.5" font-family="Helvetica,sans-Serif" font-size="10.00">#chronorr</text>
<text text-anchor="middle" x="83.5" y="-1936.5" font-family="Helvetica,sans-Serif" font-size="10.00">#chronodp</text>
</g>
<!-- Node16 -->
<g id="node7" class="node"><title>Node16</title>
<polygon fill="none" stroke="#bfbfbf" points="353.5,-2045.5 353.5,-2102.5 398.5,-2102.5 398.5,-2045.5 353.5,-2045.5"/>
<text text-anchor="middle" x="376" y="-2090.5" font-family="Helvetica,sans-Serif" font-size="10.00">double</text>
<polyline fill="none" stroke="#bfbfbf" points="353.5,-2083.5 398.5,-2083.5 "/>
<text text-anchor="middle" x="376" y="-2071.5" font-family="Helvetica,sans-Serif" font-size="10.00"> </text>
<polyline fill="none" stroke="#bfbfbf" points="353.5,-2064.5 398.5,-2064.5 "/>
<text text-anchor="middle" x="376" y="-2052.5" font-family="Helvetica,sans-Serif" font-size="10.00"> </text>
</g>
<!-- Node16&#45;&gt;Node14 -->
<g id="edge6" class="edge"><title>Node16&#45;&gt;Node14</title>
<path fill="none" stroke="#404040" d="M353.202,-2058.88C326.018,-2041.18 280.444,-2008.67 250,-1972 229.76,-1947.62 211.083,-1920.04 194.301,-1891.96"/>
<polygon fill="none" stroke="#404040" points="194.29,-1891.94 187.8,-1888.79 188.205,-1881.6 194.695,-1884.74 194.29,-1891.94"/>
<text text-anchor="middle" x="282" y="-1947.5" font-family="Helvetica,sans-Serif" font-size="10.00"> #mintotweight</text>
</g>
<!-- Node16&#45;&gt;Node19 -->
<g id="edge11" class="edge"><title>Node16&#45;&gt;Node19</title>
<path fill="none" stroke="#404040" d="M362.357,-2045.29C347.54,-2013.51 324.808,-1959.43 316,-1910 288.069,-1753.26 287.769,-1575.13 295.059,-1431.91"/>
<polygon fill="none" stroke="#404040" points="295.06,-1431.9 291.381,-1425.7 295.692,-1419.92 299.37,-1426.12 295.06,-1431.9"/>
<text text-anchor="middle" x="364.5" y="-1713.5" font-family="Helvetica,sans-Serif" font-size="10.00"> #logstatprior</text>
<text text-anchor="middle" x="364.5" y="-1702.5" font-family="Helvetica,sans-Serif" font-size="10.00">#profile</text>
<text text-anchor="middle" x="364.5" y="-1691.5" font-family="Helvetica,sans-Serif" font-size="10.00">#profilesuffstatlogprob</text>
<text text-anchor="middle" x="364.5" y="-1680.5" font-family="Helvetica,sans-Serif" font-size="10.00">#allocprofile</text>
<text text-anchor="middle" x="364.5" y="-1669.5" font-family="Helvetica,sans-Serif" font-size="10.00">#dirweight</text>
</g>
<!-- Node20 -->
<g id="node11" class="node"><title>Node20</title>
<g id="a_node11"><a xlink:href="classDPProfileProcess.html" target="_top" xlink:title="{DPProfileProcess\n||+ DPProfileProcess()\l+ ~DPProfileProcess()\l# IncrementalDPMove()\l# MoveHyper()\l# MoveKappa()\l# LogProxy()\l# SampleAlloc()\l# SampleHyper()\l# LogHyperPrior()\l# LogAllocPrior()\l# DrawProfileFromPrior()\l}">
<polygon fill="none" stroke="black" points="320.5,-630.5 320.5,-797.5 445.5,-797.5 445.5,-630.5 320.5,-630.5"/>
<text text-anchor="middle" x="383" y="-785.5" font-family="Helvetica,sans-Serif" font-size="10.00">DPProfileProcess</text>
<polyline fill="none" stroke="black" points="320.5,-778.5 445.5,-778.5 "/>
<text text-anchor="middle" x="383" y="-766.5" font-family="Helvetica,sans-Serif" font-size="10.00"> </text>
<polyline fill="none" stroke="black" points="320.5,-759.5 445.5,-759.5 "/>
<text text-anchor="start" x="328.5" y="-747.5" font-family="Helvetica,sans-Serif" font-size="10.00">+ DPProfileProcess()</text>
<text text-anchor="start" x="328.5" y="-736.5" font-family="Helvetica,sans-Serif" font-size="10.00">+ ~DPProfileProcess()</text>
<text text-anchor="start" x="328.5" y="-725.5" font-family="Helvetica,sans-Serif" font-size="10.00"># IncrementalDPMove()</text>
<text text-anchor="start" x="328.5" y="-714.5" font-family="Helvetica,sans-Serif" font-size="10.00"># MoveHyper()</text>
<text text-anchor="start" x="328.5" y="-703.5" font-family="Helvetica,sans-Serif" font-size="10.00"># MoveKappa()</text>
<text text-anchor="start" x="328.5" y="-692.5" font-family="Helvetica,sans-Serif" font-size="10.00"># LogProxy()</text>
<text text-anchor="start" x="328.5" y="-681.5" font-family="Helvetica,sans-Serif" font-size="10.00"># SampleAlloc()</text>
<text text-anchor="start" x="328.5" y="-670.5" font-family="Helvetica,sans-Serif" font-size="10.00"># SampleHyper()</text>
<text text-anchor="start" x="328.5" y="-659.5" font-family="Helvetica,sans-Serif" font-size="10.00"># LogHyperPrior()</text>
<text text-anchor="start" x="328.5" y="-648.5" font-family="Helvetica,sans-Serif" font-size="10.00"># LogAllocPrior()</text>
<text text-anchor="start" x="328.5" y="-637.5" font-family="Helvetica,sans-Serif" font-size="10.00"># DrawProfileFromPrior()</text>
</a>
</g>
</g>
<!-- Node16&#45;&gt;Node20 -->
<g id="edge16" class="edge"><title>Node16&#45;&gt;Node20</title>
<path fill="none" stroke="#404040" d="M384.267,-2045.35C393.417,-2013.18 407.587,-1958.3 413,-1910 423.983,-1812 406.372,-920.733 405,-900 403.056,-870.631 399.714,-838.765 396.214,-809.889"/>
<polygon fill="none" stroke="#404040" points="396.181,-809.621 391.474,-804.158 394.708,-797.712 399.414,-803.176 396.181,-809.621"/>
<text text-anchor="middle" x="432.5" y="-1446.5" font-family="Helvetica,sans-Serif" font-size="10.00"> #kappa</text>
</g>
<!-- Node21 -->
<g id="node12" class="node"><title>Node21</title>
<g id="a_node12"><a xlink:href="classSBDPProfileProcess.html" target="_top" xlink:title="{SBDPProfileProcess\n||+ SBDPProfileProcess()\l+ ~SBDPProfileProcess()\l# DrawProfileFromPrior()\l# GetMaxWeightError()\l# ResetMaxWeightError()\l# Create()\l# Delete()\l# GetNmodeMax()\l# SetNmodeMax()\l# IncrementalDPMove()\l# IncrementalDPMove()\l# GetWeightEnt()\l# GetNDisplayedComponent()\l# GetLastOccupiedComponent()\l# GetNCutoff()\l# SwapComponents()\l# LogIntegratedAllocProb()\l# MoveKappa()\l# SampleAlloc()\l# IncrementalSampleAlloc()\l# SampleWeights()\l# ResampleWeights()\l# MoveOccupiedCompAlloc()\l# MoveAdjacentCompAlloc()\l# LogStatPrior()\l}">
<polygon fill="none" stroke="black" points="442.5,-216.5 442.5,-537.5 599.5,-537.5 599.5,-216.5 442.5,-216.5"/>
<text text-anchor="middle" x="521" y="-525.5" font-family="Helvetica,sans-Serif" font-size="10.00">SBDPProfileProcess</text>
<polyline fill="none" stroke="black" points="442.5,-518.5 599.5,-518.5 "/>
<text text-anchor="middle" x="521" y="-506.5" font-family="Helvetica,sans-Serif" font-size="10.00"> </text>
<polyline fill="none" stroke="black" points="442.5,-499.5 599.5,-499.5 "/>
<text text-anchor="start" x="450.5" y="-487.5" font-family="Helvetica,sans-Serif" font-size="10.00">+ SBDPProfileProcess()</text>
<text text-anchor="start" x="450.5" y="-476.5" font-family="Helvetica,sans-Serif" font-size="10.00">+ ~SBDPProfileProcess()</text>
<text text-anchor="start" x="450.5" y="-465.5" font-family="Helvetica,sans-Serif" font-size="10.00"># DrawProfileFromPrior()</text>
<text text-anchor="start" x="450.5" y="-454.5" font-family="Helvetica,sans-Serif" font-size="10.00"># GetMaxWeightError()</text>
<text text-anchor="start" x="450.5" y="-443.5" font-family="Helvetica,sans-Serif" font-size="10.00"># ResetMaxWeightError()</text>
<text text-anchor="start" x="450.5" y="-432.5" font-family="Helvetica,sans-Serif" font-size="10.00"># Create()</text>
<text text-anchor="start" x="450.5" y="-421.5" font-family="Helvetica,sans-Serif" font-size="10.00"># Delete()</text>
<text text-anchor="start" x="450.5" y="-410.5" font-family="Helvetica,sans-Serif" font-size="10.00"># GetNmodeMax()</text>
<text text-anchor="start" x="450.5" y="-399.5" font-family="Helvetica,sans-Serif" font-size="10.00"># SetNmodeMax()</text>
<text text-anchor="start" x="450.5" y="-388.5" font-family="Helvetica,sans-Serif" font-size="10.00"># IncrementalDPMove()</text>
<text text-anchor="start" x="450.5" y="-377.5" font-family="Helvetica,sans-Serif" font-size="10.00"># IncrementalDPMove()</text>
<text text-anchor="start" x="450.5" y="-366.5" font-family="Helvetica,sans-Serif" font-size="10.00"># GetWeightEnt()</text>
<text text-anchor="start" x="450.5" y="-355.5" font-family="Helvetica,sans-Serif" font-size="10.00"># GetNDisplayedComponent()</text>
<text text-anchor="start" x="450.5" y="-344.5" font-family="Helvetica,sans-Serif" font-size="10.00"># GetLastOccupiedComponent()</text>
<text text-anchor="start" x="450.5" y="-333.5" font-family="Helvetica,sans-Serif" font-size="10.00"># GetNCutoff()</text>
<text text-anchor="start" x="450.5" y="-322.5" font-family="Helvetica,sans-Serif" font-size="10.00"># SwapComponents()</text>
<text text-anchor="start" x="450.5" y="-311.5" font-family="Helvetica,sans-Serif" font-size="10.00"># LogIntegratedAllocProb()</text>
<text text-anchor="start" x="450.5" y="-300.5" font-family="Helvetica,sans-Serif" font-size="10.00"># MoveKappa()</text>
<text text-anchor="start" x="450.5" y="-289.5" font-family="Helvetica,sans-Serif" font-size="10.00"># SampleAlloc()</text>
<text text-anchor="start" x="450.5" y="-278.5" font-family="Helvetica,sans-Serif" font-size="10.00"># IncrementalSampleAlloc()</text>
<text text-anchor="start" x="450.5" y="-267.5" font-family="Helvetica,sans-Serif" font-size="10.00"># SampleWeights()</text>
<text text-anchor="start" x="450.5" y="-256.5" font-family="Helvetica,sans-Serif" font-size="10.00"># ResampleWeights()</text>
<text text-anchor="start" x="450.5" y="-245.5" font-family="Helvetica,sans-Serif" font-size="10.00"># MoveOccupiedCompAlloc()</text>
<text text-anchor="start" x="450.5" y="-234.5" font-family="Helvetica,sans-Serif" font-size="10.00"># MoveAdjacentCompAlloc()</text>
<text text-anchor="start" x="450.5" y="-223.5" font-family="Helvetica,sans-Serif" font-size="10.00"># LogStatPrior()</text>
</a>
</g>
</g>
<!-- Node16&#45;&gt;Node21 -->
<g id="edge21" class="edge"><title>Node16&#45;&gt;Node21</title>
<path fill="none" stroke="#404040" d="M391.087,-2045.09C401.14,-2025.26 413.787,-1997.69 421,-1972 428.511,-1945.25 426.388,-1937.66 429,-1910 475.519,-1417.37 502.96,-833.277 514.522,-549.657"/>
<polygon fill="none" stroke="#404040" points="514.524,-549.613 510.771,-543.456 515.011,-537.623 518.764,-543.78 514.524,-549.613"/>
<text text-anchor="middle" x="535.5" y="-1168.5" font-family="Helvetica,sans-Serif" font-size="10.00"> #V</text>
<text text-anchor="middle" x="535.5" y="-1157.5" font-family="Helvetica,sans-Serif" font-size="10.00">#maxweighterror</text>
<text text-anchor="middle" x="535.5" y="-1146.5" font-family="Helvetica,sans-Serif" font-size="10.00">#weight</text>
</g>
<!-- Node17 -->
<g id="node8" class="node"><title>Node17</title>
<polygon fill="none" stroke="#bfbfbf" points="654.5,-2045.5 654.5,-2102.5 683.5,-2102.5 683.5,-2045.5 654.5,-2045.5"/>
<text text-anchor="middle" x="669" y="-2090.5" font-family="Helvetica,sans-Serif" font-size="10.00">int</text>
<polyline fill="none" stroke="#bfbfbf" points="654.5,-2083.5 683.5,-2083.5 "/>
<text text-anchor="middle" x="669" y="-2071.5" font-family="Helvetica,sans-Serif" font-size="10.00"> </text>
<polyline fill="none" stroke="#bfbfbf" points="654.5,-2064.5 683.5,-2064.5 "/>
<text text-anchor="middle" x="669" y="-2052.5" font-family="Helvetica,sans-Serif" font-size="10.00"> </text>
</g>
<!-- Node17&#45;&gt;Node10 -->
<g id="edge23" class="edge"><title>Node17&#45;&gt;Node10</title>
<path fill="none" stroke="#404040" d="M683.752,-2057.11C728.071,-2007.64 857,-1850.38 857,-1695 857,-1695 857,-1695 857,-376 857,-248.118 713.909,-165.559 614.485,-123.629"/>
<polygon fill="none" stroke="#404040" points="614.285,-123.546 607.212,-124.951 603.195,-118.962 610.268,-117.558 614.285,-123.546"/>
<text text-anchor="middle" x="893.5" y="-874" font-family="Helvetica,sans-Serif" font-size="10.00"> #InitIncremental</text>
</g>
<!-- Node17&#45;&gt;Node12 -->
<g id="edge13" class="edge"><title>Node17&#45;&gt;Node12</title>
<path fill="none" stroke="#404040" d="M667.623,-2045.42C661.913,-1934.8 638.981,-1526.9 609,-1478 601.268,-1465.39 588.434,-1472.79 581,-1460 518.377,-1352.25 632.749,-994.064 551,-900 482.208,-820.844 407.067,-906.605 312.902,-853.293"/>
<polygon fill="none" stroke="#404040" points="312.745,-853.196 305.539,-853.451 302.532,-846.897 309.738,-846.642 312.745,-853.196"/>
<text text-anchor="middle" x="627" y="-1446.5" font-family="Helvetica,sans-Serif" font-size="10.00"> #profilesuffstatcount</text>
</g>
<!-- Node17&#45;&gt;Node14 -->
<g id="edge7" class="edge"><title>Node17&#45;&gt;Node14</title>
<path fill="none" stroke="#404040" d="M654.104,-2066.87C583.806,-2037.94 288.29,-1916.15 280,-1910 249.442,-1887.34 220.887,-1858.36 195.98,-1829.07"/>
<polygon fill="none" stroke="#404040" points="195.722,-1828.76 188.804,-1826.72 188.023,-1819.55 194.941,-1821.59 195.722,-1828.76"/>
<text text-anchor="middle" x="450" y="-1964" font-family="Helvetica,sans-Serif" font-size="10.00"> #dim</text>
<text text-anchor="middle" x="450" y="-1953" font-family="Helvetica,sans-Serif" font-size="10.00">#statinfcount</text>
<text text-anchor="middle" x="450" y="-1942" font-family="Helvetica,sans-Serif" font-size="10.00">#totstatcount</text>
<text text-anchor="middle" x="450" y="-1931" font-family="Helvetica,sans-Serif" font-size="10.00">#nsite</text>
</g>
<!-- Node17&#45;&gt;Node19 -->
<g id="edge12" class="edge"><title>Node17&#45;&gt;Node19</title>
<path fill="none" stroke="#404040" d="M654.322,-2058.34C628.363,-2031.48 574.592,-1971.46 548,-1910 463.353,-1714.38 538.758,-1637.23 463,-1438 459.668,-1429.24 456.576,-1428.18 452,-1420 435.197,-1389.96 417.977,-1357.54 401.756,-1326.14"/>
<polygon fill="none" stroke="#404040" points="401.556,-1325.75 395.253,-1322.25 396.062,-1315.08 402.365,-1318.58 401.556,-1325.75"/>
<text text-anchor="middle" x="578.5" y="-1702.5" font-family="Helvetica,sans-Serif" font-size="10.00"> #occupancy</text>
<text text-anchor="middle" x="578.5" y="-1691.5" font-family="Helvetica,sans-Serif" font-size="10.00">#Ncomponent</text>
<text text-anchor="middle" x="578.5" y="-1680.5" font-family="Helvetica,sans-Serif" font-size="10.00">#alloc</text>
</g>
<!-- Node17&#45;&gt;Node20 -->
<g id="edge17" class="edge"><title>Node17&#45;&gt;Node20</title>
<path fill="none" stroke="#404040" d="M670.433,-2045.27C678.225,-1885.13 710.833,-1078.68 589,-871 558.148,-818.409 501.991,-777.689 456.094,-751.059"/>
<polygon fill="none" stroke="#404040" points="456.011,-751.012 448.819,-751.532 445.572,-745.094 452.765,-744.573 456.011,-751.012"/>
<text text-anchor="middle" x="710.5" y="-1452" font-family="Helvetica,sans-Serif" font-size="10.00"> #dirweightprior</text>
<text text-anchor="middle" x="710.5" y="-1441" font-family="Helvetica,sans-Serif" font-size="10.00">#kappaprior</text>
</g>
<!-- Node17&#45;&gt;Node21 -->
<g id="edge22" class="edge"><title>Node17&#45;&gt;Node21</title>
<path fill="none" stroke="#404040" d="M682.045,-2045.26C709.761,-1983.69 772,-1830.36 772,-1695 772,-1695 772,-1695 772,-713 772,-601.371 681.636,-503.094 609.347,-442.335"/>
<polygon fill="none" stroke="#404040" points="608.976,-442.028 601.803,-441.287 599.729,-434.38 606.902,-435.122 608.976,-442.028"/>
<text text-anchor="middle" x="800.5" y="-1157.5" font-family="Helvetica,sans-Serif" font-size="10.00"> #nmodemax</text>
</g>
<!-- Node18 -->
<g id="node9" class="node"><title>Node18</title>
<polygon fill="none" stroke="#bfbfbf" points="163.5,-2045.5 163.5,-2102.5 198.5,-2102.5 198.5,-2045.5 163.5,-2045.5"/>
<text text-anchor="middle" x="181" y="-2090.5" font-family="Helvetica,sans-Serif" font-size="10.00">bool</text>
<polyline fill="none" stroke="#bfbfbf" points="163.5,-2083.5 198.5,-2083.5 "/>
<text text-anchor="middle" x="181" y="-2071.5" font-family="Helvetica,sans-Serif" font-size="10.00"> </text>
<polyline fill="none" stroke="#bfbfbf" points="163.5,-2064.5 198.5,-2064.5 "/>
<text text-anchor="middle" x="181" y="-2052.5" font-family="Helvetica,sans-Serif" font-size="10.00"> </text>
</g>
<!-- Node18&#45;&gt;Node14 -->
<g id="edge8" class="edge"><title>Node18&#45;&gt;Node14</title>
<path fill="none" stroke="#404040" d="M165.101,-2045.21C154.536,-2025.42 141.307,-1997.87 134,-1972 129.403,-1955.72 125.464,-1938.73 122.09,-1921.52"/>
<polygon fill="none" stroke="#404040" points="122.062,-1921.37 117.022,-1916.21 119.844,-1909.58 124.884,-1914.73 122.062,-1921.37"/>
<text text-anchor="middle" x="168" y="-1953" font-family="Helvetica,sans-Serif" font-size="10.00"> #activesuffstat</text>
<text text-anchor="middle" x="168" y="-1942" font-family="Helvetica,sans-Serif" font-size="10.00">#burnin</text>
</g>
<!-- Node18&#45;&gt;Node20 -->
<g id="edge18" class="edge"><title>Node18&#45;&gt;Node20</title>
<path fill="none" stroke="#404040" d="M188.108,-2045.35C192.961,-2025.17 199.03,-1997.08 202,-1972 216.016,-1853.66 175.389,-1003.19 235,-900 254.866,-865.611 283.96,-882.088 311,-853 323.109,-839.974 333.75,-824.525 342.878,-808.76"/>
<polygon fill="none" stroke="#404040" points="343.128,-808.311 342.545,-801.123 348.955,-797.821 349.538,-805.008 343.128,-808.311"/>
<text text-anchor="middle" x="231.5" y="-1446.5" font-family="Helvetica,sans-Serif" font-size="10.00"> #movekappa</text>
</g>
<!-- Node19&#45;&gt;Node12 -->
<g id="edge9" class="edge"><title>Node19&#45;&gt;Node12</title>
<path fill="none" stroke="midnightblue" d="M258.32,-890.512C255.361,-877.631 252.452,-864.968 249.636,-852.708"/>
<polygon fill="none" stroke="midnightblue" points="254.942,-891.44 260.592,-900.402 261.764,-889.872 254.942,-891.44"/>
</g>
<!-- Node19&#45;&gt;Node20 -->
<g id="edge15" class="edge"><title>Node19&#45;&gt;Node20</title>
<path fill="none" stroke="midnightblue" d="M358.101,-890.477C362.838,-857.094 367.366,-825.182 371.231,-797.944"/>
<polygon fill="none" stroke="midnightblue" points="354.633,-890.01 356.693,-900.402 361.563,-890.993 354.633,-890.01"/>
</g>
<!-- Node20&#45;&gt;Node11 -->
<g id="edge14" class="edge"><title>Node20&#45;&gt;Node11</title>
<path fill="none" stroke="midnightblue" d="M373.555,-619.937C367.46,-559.882 359.738,-483.802 354.597,-433.151"/>
<polygon fill="none" stroke="midnightblue" points="370.104,-620.596 374.596,-630.191 377.068,-619.889 370.104,-620.596"/>
</g>
<!-- Node20&#45;&gt;Node21 -->
<g id="edge20" class="edge"><title>Node20&#45;&gt;Node21</title>
<path fill="none" stroke="midnightblue" d="M420.971,-620.824C431.604,-595.012 443.479,-566.185 455.229,-537.662"/>
<polygon fill="none" stroke="midnightblue" points="417.685,-619.612 417.112,-630.191 424.157,-622.278 417.685,-619.612"/>
</g>
<!-- Node21&#45;&gt;Node10 -->
<g id="edge19" class="edge"><title>Node21&#45;&gt;Node10</title>
<path fill="none" stroke="midnightblue" d="M521,-205.933C521,-196.577 521,-187.384 521,-178.523"/>
<polygon fill="none" stroke="midnightblue" points="517.5,-206.14 521,-216.14 524.5,-206.14 517.5,-206.14"/>
</g>
</g>
</svg>
