<?xml version="1.0" encoding="UTF-8" standalone="no"?>
<!DOCTYPE svg PUBLIC "-//W3C//DTD SVG 1.1//EN"
 "http://www.w3.org/Graphics/SVG/1.1/DTD/svg11.dtd">
<!-- Generated by graphviz version 2.38.0 (20140413.2041)
 -->
<!-- Title: OneMatrixPathConjugateTree Pages: 1 -->
<svg width="478pt" height="1129pt"
 viewBox="0.00 0.00 478.00 1129.00" xmlns="http://www.w3.org/2000/svg" xmlns:xlink="http://www.w3.org/1999/xlink">
<g id="graph0" class="graph" transform="scale(1 1) rotate(0) translate(4 1125)">
<title>OneMatrixPathConjugateTree</title>
<!-- Node3 -->
<g id="node1" class="node"><title>Node3</title>
<polygon fill="#bfbfbf" stroke="black" points="297.5,-0.5 297.5,-79.5 464.5,-79.5 464.5,-0.5 297.5,-0.5"/>
<text text-anchor="middle" x="381" y="-67.5" font-family="Helvetica,sans-Serif" font-size="10.00">OneMatrixPathConjugateTree</text>
<polyline fill="none" stroke="black" points="297.5,-60.5 464.5,-60.5 "/>
<text text-anchor="middle" x="381" y="-48.5" font-family="Helvetica,sans-Serif" font-size="10.00"> </text>
<polyline fill="none" stroke="black" points="297.5,-41.5 464.5,-41.5 "/>
<text text-anchor="start" x="305.5" y="-29.5" font-family="Helvetica,sans-Serif" font-size="10.00">+ OneMatrixPathConjugateTree()</text>
<text text-anchor="start" x="305.5" y="-18.5" font-family="Helvetica,sans-Serif" font-size="10.00">+ ~OneMatrixPathConjugateTree()</text>
<text text-anchor="start" x="305.5" y="-7.5" font-family="Helvetica,sans-Serif" font-size="10.00"># CreateBranchVal()</text>
</g>
<!-- Node4 -->
<g id="node2" class="node"><title>Node4</title>
<g id="a_node2"><a xlink:href="classPathConjugateTree.html" target="_top" xlink:title="{PathConjugateTree\n||+ PathConjugateTree()\l+ ~PathConjugateTree()\l+ GetLengthTree()\l+ GetData()\l+ GetTree()\l+ ActivateSufficientStatistic()\l+ InactivateSufficientStatistic()\l+ PrintSynNonSyn()\l+ PrintSuffStat()\l+ GetLogProb()\l+ ReadFromFile()\l# RecursiveGetLogProb()\l# RecursiveAddSuffStatFrom\lStream()\l# RecursivePrintSuffStat()\l# RecursivePrintSynNonSyn()\l# GetPathConjugate()\l# ActivateSufficientStatistic()\l# InactivateSufficientStatistic()\l}">
<polygon fill="none" stroke="black" points="196,-127.5 196,-382.5 348,-382.5 348,-127.5 196,-127.5"/>
<text text-anchor="middle" x="272" y="-370.5" font-family="Helvetica,sans-Serif" font-size="10.00">PathConjugateTree</text>
<polyline fill="none" stroke="black" points="196,-363.5 348,-363.5 "/>
<text text-anchor="middle" x="272" y="-351.5" font-family="Helvetica,sans-Serif" font-size="10.00"> </text>
<polyline fill="none" stroke="black" points="196,-344.5 348,-344.5 "/>
<text text-anchor="start" x="204" y="-332.5" font-family="Helvetica,sans-Serif" font-size="10.00">+ PathConjugateTree()</text>
<text text-anchor="start" x="204" y="-321.5" font-family="Helvetica,sans-Serif" font-size="10.00">+ ~PathConjugateTree()</text>
<text text-anchor="start" x="204" y="-310.5" font-family="Helvetica,sans-Serif" font-size="10.00">+ GetLengthTree()</text>
<text text-anchor="start" x="204" y="-299.5" font-family="Helvetica,sans-Serif" font-size="10.00">+ GetData()</text>
<text text-anchor="start" x="204" y="-288.5" font-family="Helvetica,sans-Serif" font-size="10.00">+ GetTree()</text>
<text text-anchor="start" x="204" y="-277.5" font-family="Helvetica,sans-Serif" font-size="10.00">+ ActivateSufficientStatistic()</text>
<text text-anchor="start" x="204" y="-266.5" font-family="Helvetica,sans-Serif" font-size="10.00">+ InactivateSufficientStatistic()</text>
<text text-anchor="start" x="204" y="-255.5" font-family="Helvetica,sans-Serif" font-size="10.00">+ PrintSynNonSyn()</text>
<text text-anchor="start" x="204" y="-244.5" font-family="Helvetica,sans-Serif" font-size="10.00">+ PrintSuffStat()</text>
<text text-anchor="start" x="204" y="-233.5" font-family="Helvetica,sans-Serif" font-size="10.00">+ GetLogProb()</text>
<text text-anchor="start" x="204" y="-222.5" font-family="Helvetica,sans-Serif" font-size="10.00">+ ReadFromFile()</text>
<text text-anchor="start" x="204" y="-211.5" font-family="Helvetica,sans-Serif" font-size="10.00"># RecursiveGetLogProb()</text>
<text text-anchor="start" x="204" y="-200.5" font-family="Helvetica,sans-Serif" font-size="10.00"># RecursiveAddSuffStatFrom</text>
<text text-anchor="start" x="204" y="-189.5" font-family="Helvetica,sans-Serif" font-size="10.00">Stream()</text>
<text text-anchor="start" x="204" y="-178.5" font-family="Helvetica,sans-Serif" font-size="10.00"># RecursivePrintSuffStat()</text>
<text text-anchor="start" x="204" y="-167.5" font-family="Helvetica,sans-Serif" font-size="10.00"># RecursivePrintSynNonSyn()</text>
<text text-anchor="start" x="204" y="-156.5" font-family="Helvetica,sans-Serif" font-size="10.00"># GetPathConjugate()</text>
<text text-anchor="start" x="204" y="-145.5" font-family="Helvetica,sans-Serif" font-size="10.00"># ActivateSufficientStatistic()</text>
<text text-anchor="start" x="204" y="-134.5" font-family="Helvetica,sans-Serif" font-size="10.00"># InactivateSufficientStatistic()</text>
</a>
</g>
</g>
<!-- Node4&#45;&gt;Node3 -->
<g id="edge1" class="edge"><title>Node4&#45;&gt;Node3</title>
<path fill="none" stroke="midnightblue" d="M341.513,-118.163C348.579,-104.355 355.279,-91.2615 361.087,-79.9126"/>
<polygon fill="none" stroke="midnightblue" points="338.263,-116.832 336.823,-127.328 344.494,-120.021 338.263,-116.832"/>
</g>
<!-- Node5 -->
<g id="node3" class="node"><title>Node5</title>
<g id="a_node3"><a xlink:href="classBranchValPtrTree.html" target="_top" xlink:title="{BranchValPtrTree\&lt; PathConjugate \&gt;\n||}">
<polygon fill="none" stroke="black" points="0,-639.5 0,-696.5 176,-696.5 176,-639.5 0,-639.5"/>
<text text-anchor="middle" x="88" y="-684.5" font-family="Helvetica,sans-Serif" font-size="10.00">BranchValPtrTree&lt; PathConjugate &gt;</text>
<polyline fill="none" stroke="black" points="0,-677.5 176,-677.5 "/>
<text text-anchor="middle" x="88" y="-665.5" font-family="Helvetica,sans-Serif" font-size="10.00"> </text>
<polyline fill="none" stroke="black" points="0,-658.5 176,-658.5 "/>
<text text-anchor="middle" x="88" y="-646.5" font-family="Helvetica,sans-Serif" font-size="10.00"> </text>
</a>
</g>
</g>
<!-- Node5&#45;&gt;Node4 -->
<g id="edge2" class="edge"><title>Node5&#45;&gt;Node4</title>
<path fill="none" stroke="midnightblue" d="M102.191,-629.889C120.378,-582.922 153.35,-499.733 185,-430 191.979,-414.623 199.551,-398.615 207.218,-382.809"/>
<polygon fill="none" stroke="midnightblue" points="98.8769,-628.754 98.5398,-639.344 105.407,-631.276 98.8769,-628.754"/>
</g>
<!-- Node6 -->
<g id="node4" class="node"><title>Node6</title>
<g id="a_node4"><a xlink:href="classSequenceAlignment.html" target="_top" xlink:title="{SequenceAlignment\n||+ SequenceAlignment()\l+ SequenceAlignment()\l+ SequenceAlignment()\l+ SequenceAlignment()\l+ SequenceAlignment()\l+ SequenceAlignment()\l+ SequenceAlignment()\l+ SequenceAlignment()\l+ MissingFractionPerGene()\l+ ~SequenceAlignment()\l+ operator=()\l+ GetStateSpace()\l+ Mask()\l+ Unclamp()\l+ Restore()\l+ GetNstate()\l+ GetTaxonSet()\l+ GetNsite()\l+ GetNtaxa()\l+ isMissing()\l+ AllMissingColumn()\l+ GetAllMissingColumns()\l+ NoMissingColumn()\l+ ConstantColumn()\l+ SetState()\l+ GetState()\l+ GetBKState()\l+ GetState()\l+ GetEmpiricalFreq()\l+ GetSiteEmpiricalFreq()\l+ ToStream()\l+ ToFasta()\l+ SetTestData()\l+ GetDataVector()\l+ DeleteConstantSites()\l+ GetMeanFreqVariance()\l+ GetMeanSquaredFreq()\l+ GetMeanDiversity()\l+ CompositionalHeterogeneity()\l}">
<polygon fill="none" stroke="black" points="194.5,-430.5 194.5,-905.5 349.5,-905.5 349.5,-430.5 194.5,-430.5"/>
<text text-anchor="middle" x="272" y="-893.5" font-family="Helvetica,sans-Serif" font-size="10.00">SequenceAlignment</text>
<polyline fill="none" stroke="black" points="194.5,-886.5 349.5,-886.5 "/>
<text text-anchor="middle" x="272" y="-874.5" font-family="Helvetica,sans-Serif" font-size="10.00"> </text>
<polyline fill="none" stroke="black" points="194.5,-867.5 349.5,-867.5 "/>
<text text-anchor="start" x="202.5" y="-855.5" font-family="Helvetica,sans-Serif" font-size="10.00">+ SequenceAlignment()</text>
<text text-anchor="start" x="202.5" y="-844.5" font-family="Helvetica,sans-Serif" font-size="10.00">+ SequenceAlignment()</text>
<text text-anchor="start" x="202.5" y="-833.5" font-family="Helvetica,sans-Serif" font-size="10.00">+ SequenceAlignment()</text>
<text text-anchor="start" x="202.5" y="-822.5" font-family="Helvetica,sans-Serif" font-size="10.00">+ SequenceAlignment()</text>
<text text-anchor="start" x="202.5" y="-811.5" font-family="Helvetica,sans-Serif" font-size="10.00">+ SequenceAlignment()</text>
<text text-anchor="start" x="202.5" y="-800.5" font-family="Helvetica,sans-Serif" font-size="10.00">+ SequenceAlignment()</text>
<text text-anchor="start" x="202.5" y="-789.5" font-family="Helvetica,sans-Serif" font-size="10.00">+ SequenceAlignment()</text>
<text text-anchor="start" x="202.5" y="-778.5" font-family="Helvetica,sans-Serif" font-size="10.00">+ SequenceAlignment()</text>
<text text-anchor="start" x="202.5" y="-767.5" font-family="Helvetica,sans-Serif" font-size="10.00">+ MissingFractionPerGene()</text>
<text text-anchor="start" x="202.5" y="-756.5" font-family="Helvetica,sans-Serif" font-size="10.00">+ ~SequenceAlignment()</text>
<text text-anchor="start" x="202.5" y="-745.5" font-family="Helvetica,sans-Serif" font-size="10.00">+ operator=()</text>
<text text-anchor="start" x="202.5" y="-734.5" font-family="Helvetica,sans-Serif" font-size="10.00">+ GetStateSpace()</text>
<text text-anchor="start" x="202.5" y="-723.5" font-family="Helvetica,sans-Serif" font-size="10.00">+ Mask()</text>
<text text-anchor="start" x="202.5" y="-712.5" font-family="Helvetica,sans-Serif" font-size="10.00">+ Unclamp()</text>
<text text-anchor="start" x="202.5" y="-701.5" font-family="Helvetica,sans-Serif" font-size="10.00">+ Restore()</text>
<text text-anchor="start" x="202.5" y="-690.5" font-family="Helvetica,sans-Serif" font-size="10.00">+ GetNstate()</text>
<text text-anchor="start" x="202.5" y="-679.5" font-family="Helvetica,sans-Serif" font-size="10.00">+ GetTaxonSet()</text>
<text text-anchor="start" x="202.5" y="-668.5" font-family="Helvetica,sans-Serif" font-size="10.00">+ GetNsite()</text>
<text text-anchor="start" x="202.5" y="-657.5" font-family="Helvetica,sans-Serif" font-size="10.00">+ GetNtaxa()</text>
<text text-anchor="start" x="202.5" y="-646.5" font-family="Helvetica,sans-Serif" font-size="10.00">+ isMissing()</text>
<text text-anchor="start" x="202.5" y="-635.5" font-family="Helvetica,sans-Serif" font-size="10.00">+ AllMissingColumn()</text>
<text text-anchor="start" x="202.5" y="-624.5" font-family="Helvetica,sans-Serif" font-size="10.00">+ GetAllMissingColumns()</text>
<text text-anchor="start" x="202.5" y="-613.5" font-family="Helvetica,sans-Serif" font-size="10.00">+ NoMissingColumn()</text>
<text text-anchor="start" x="202.5" y="-602.5" font-family="Helvetica,sans-Serif" font-size="10.00">+ ConstantColumn()</text>
<text text-anchor="start" x="202.5" y="-591.5" font-family="Helvetica,sans-Serif" font-size="10.00">+ SetState()</text>
<text text-anchor="start" x="202.5" y="-580.5" font-family="Helvetica,sans-Serif" font-size="10.00">+ GetState()</text>
<text text-anchor="start" x="202.5" y="-569.5" font-family="Helvetica,sans-Serif" font-size="10.00">+ GetBKState()</text>
<text text-anchor="start" x="202.5" y="-558.5" font-family="Helvetica,sans-Serif" font-size="10.00">+ GetState()</text>
<text text-anchor="start" x="202.5" y="-547.5" font-family="Helvetica,sans-Serif" font-size="10.00">+ GetEmpiricalFreq()</text>
<text text-anchor="start" x="202.5" y="-536.5" font-family="Helvetica,sans-Serif" font-size="10.00">+ GetSiteEmpiricalFreq()</text>
<text text-anchor="start" x="202.5" y="-525.5" font-family="Helvetica,sans-Serif" font-size="10.00">+ ToStream()</text>
<text text-anchor="start" x="202.5" y="-514.5" font-family="Helvetica,sans-Serif" font-size="10.00">+ ToFasta()</text>
<text text-anchor="start" x="202.5" y="-503.5" font-family="Helvetica,sans-Serif" font-size="10.00">+ SetTestData()</text>
<text text-anchor="start" x="202.5" y="-492.5" font-family="Helvetica,sans-Serif" font-size="10.00">+ GetDataVector()</text>
<text text-anchor="start" x="202.5" y="-481.5" font-family="Helvetica,sans-Serif" font-size="10.00">+ DeleteConstantSites()</text>
<text text-anchor="start" x="202.5" y="-470.5" font-family="Helvetica,sans-Serif" font-size="10.00">+ GetMeanFreqVariance()</text>
<text text-anchor="start" x="202.5" y="-459.5" font-family="Helvetica,sans-Serif" font-size="10.00">+ GetMeanSquaredFreq()</text>
<text text-anchor="start" x="202.5" y="-448.5" font-family="Helvetica,sans-Serif" font-size="10.00">+ GetMeanDiversity()</text>
<text text-anchor="start" x="202.5" y="-437.5" font-family="Helvetica,sans-Serif" font-size="10.00">+ CompositionalHeterogeneity()</text>
</a>
</g>
</g>
<!-- Node6&#45;&gt;Node4 -->
<g id="edge3" class="edge"><title>Node6&#45;&gt;Node4</title>
<path fill="none" stroke="#404040" d="M272,-430.301C272,-418.183 272,-406.213 272,-394.565"/>
<polygon fill="none" stroke="#404040" points="272,-394.551 268,-388.551 272,-382.551 276,-388.551 272,-394.551"/>
<text text-anchor="middle" x="286" y="-404" font-family="Helvetica,sans-Serif" font-size="10.00"> #data</text>
</g>
<!-- Node7 -->
<g id="node5" class="node"><title>Node7</title>
<g id="a_node5"><a xlink:href="classStateSpace.html" target="_top" xlink:title="{StateSpace\n||+ ~StateSpace()\l+ GetState()\l+ GetNstate()\l+ GetState()\l}">
<polygon fill="none" stroke="black" points="68.5,-1008.5 68.5,-1098.5 157.5,-1098.5 157.5,-1008.5 68.5,-1008.5"/>
<text text-anchor="middle" x="113" y="-1086.5" font-family="Helvetica,sans-Serif" font-size="10.00">StateSpace</text>
<polyline fill="none" stroke="black" points="68.5,-1079.5 157.5,-1079.5 "/>
<text text-anchor="middle" x="113" y="-1067.5" font-family="Helvetica,sans-Serif" font-size="10.00"> </text>
<polyline fill="none" stroke="black" points="68.5,-1060.5 157.5,-1060.5 "/>
<text text-anchor="start" x="76.5" y="-1048.5" font-family="Helvetica,sans-Serif" font-size="10.00">+ ~StateSpace()</text>
<text text-anchor="start" x="76.5" y="-1037.5" font-family="Helvetica,sans-Serif" font-size="10.00">+ GetState()</text>
<text text-anchor="start" x="76.5" y="-1026.5" font-family="Helvetica,sans-Serif" font-size="10.00">+ GetNstate()</text>
<text text-anchor="start" x="76.5" y="-1015.5" font-family="Helvetica,sans-Serif" font-size="10.00">+ GetState()</text>
</a>
</g>
</g>
<!-- Node7&#45;&gt;Node6 -->
<g id="edge4" class="edge"><title>Node7&#45;&gt;Node6</title>
<path fill="none" stroke="#404040" d="M136.292,-1008.18C151.034,-979.416 170.061,-940.913 185,-906 186.573,-902.323 188.145,-898.607 189.713,-894.859"/>
<polygon fill="none" stroke="#404040" points="189.814,-894.616 188.414,-887.542 194.406,-883.529 195.805,-890.603 189.814,-894.616"/>
<text text-anchor="middle" x="206" y="-943.5" font-family="Helvetica,sans-Serif" font-size="10.00"> +statespace</text>
</g>
<!-- Node8 -->
<g id="node6" class="node"><title>Node8</title>
<g id="a_node6"><a xlink:href="classTaxonSet.html" target="_top" xlink:title="{TaxonSet\n||+ TaxonSet()\l+ TaxonSet()\l+ ~TaxonSet()\l+ GetNtaxa()\l+ GetTaxon()\l+ GetTaxonIndex()\l+ GetTaxonIndexWithIncompleteName()\l+ ToStream()\l}">
<polygon fill="none" stroke="black" points="175.5,-986.5 175.5,-1120.5 368.5,-1120.5 368.5,-986.5 175.5,-986.5"/>
<text text-anchor="middle" x="272" y="-1108.5" font-family="Helvetica,sans-Serif" font-size="10.00">TaxonSet</text>
<polyline fill="none" stroke="black" points="175.5,-1101.5 368.5,-1101.5 "/>
<text text-anchor="middle" x="272" y="-1089.5" font-family="Helvetica,sans-Serif" font-size="10.00"> </text>
<polyline fill="none" stroke="black" points="175.5,-1082.5 368.5,-1082.5 "/>
<text text-anchor="start" x="183.5" y="-1070.5" font-family="Helvetica,sans-Serif" font-size="10.00">+ TaxonSet()</text>
<text text-anchor="start" x="183.5" y="-1059.5" font-family="Helvetica,sans-Serif" font-size="10.00">+ TaxonSet()</text>
<text text-anchor="start" x="183.5" y="-1048.5" font-family="Helvetica,sans-Serif" font-size="10.00">+ ~TaxonSet()</text>
<text text-anchor="start" x="183.5" y="-1037.5" font-family="Helvetica,sans-Serif" font-size="10.00">+ GetNtaxa()</text>
<text text-anchor="start" x="183.5" y="-1026.5" font-family="Helvetica,sans-Serif" font-size="10.00">+ GetTaxon()</text>
<text text-anchor="start" x="183.5" y="-1015.5" font-family="Helvetica,sans-Serif" font-size="10.00">+ GetTaxonIndex()</text>
<text text-anchor="start" x="183.5" y="-1004.5" font-family="Helvetica,sans-Serif" font-size="10.00">+ GetTaxonIndexWithIncompleteName()</text>
<text text-anchor="start" x="183.5" y="-993.5" font-family="Helvetica,sans-Serif" font-size="10.00">+ ToStream()</text>
</a>
</g>
</g>
<!-- Node8&#45;&gt;Node6 -->
<g id="edge5" class="edge"><title>Node8&#45;&gt;Node6</title>
<path fill="none" stroke="#404040" d="M272,-986.137C272,-966.056 272,-942.707 272,-917.959"/>
<polygon fill="none" stroke="#404040" points="272,-917.706 268,-911.706 272,-905.706 276,-911.706 272,-917.706"/>
<text text-anchor="middle" x="290.5" y="-943.5" font-family="Helvetica,sans-Serif" font-size="10.00"> +taxset</text>
</g>
<!-- Node9 -->
<g id="node7" class="node"><title>Node9</title>
<polygon fill="none" stroke="#bfbfbf" points="386.5,-1025 386.5,-1082 415.5,-1082 415.5,-1025 386.5,-1025"/>
<text text-anchor="middle" x="401" y="-1070" font-family="Helvetica,sans-Serif" font-size="10.00">int</text>
<polyline fill="none" stroke="#bfbfbf" points="386.5,-1063 415.5,-1063 "/>
<text text-anchor="middle" x="401" y="-1051" font-family="Helvetica,sans-Serif" font-size="10.00"> </text>
<polyline fill="none" stroke="#bfbfbf" points="386.5,-1044 415.5,-1044 "/>
<text text-anchor="middle" x="401" y="-1032" font-family="Helvetica,sans-Serif" font-size="10.00"> </text>
</g>
<!-- Node9&#45;&gt;Node6 -->
<g id="edge6" class="edge"><title>Node9&#45;&gt;Node6</title>
<path fill="none" stroke="#404040" d="M391.723,-1024.92C382.97,-998.899 368.914,-957.112 353.459,-911.168"/>
<polygon fill="none" stroke="#404040" points="353.436,-911.099 347.732,-906.688 349.61,-899.725 355.315,-904.137 353.436,-911.099"/>
<text text-anchor="middle" x="390.5" y="-960" font-family="Helvetica,sans-Serif" font-size="10.00"> +Data</text>
<text text-anchor="middle" x="390.5" y="-949" font-family="Helvetica,sans-Serif" font-size="10.00">+Nsite</text>
<text text-anchor="middle" x="390.5" y="-938" font-family="Helvetica,sans-Serif" font-size="10.00">+Ntaxa</text>
<text text-anchor="middle" x="390.5" y="-927" font-family="Helvetica,sans-Serif" font-size="10.00">+BKData</text>
</g>
<!-- Node10 -->
<g id="node8" class="node"><title>Node10</title>
<polygon fill="none" stroke="#bfbfbf" points="368,-639.5 368,-696.5 440,-696.5 440,-639.5 368,-639.5"/>
<text text-anchor="middle" x="404" y="-684.5" font-family="Helvetica,sans-Serif" font-size="10.00">LengthTree *</text>
<polyline fill="none" stroke="#bfbfbf" points="368,-677.5 440,-677.5 "/>
<text text-anchor="middle" x="404" y="-665.5" font-family="Helvetica,sans-Serif" font-size="10.00"> </text>
<polyline fill="none" stroke="#bfbfbf" points="368,-658.5 440,-658.5 "/>
<text text-anchor="middle" x="404" y="-646.5" font-family="Helvetica,sans-Serif" font-size="10.00"> </text>
</g>
<!-- Node10&#45;&gt;Node4 -->
<g id="edge7" class="edge"><title>Node10&#45;&gt;Node4</title>
<path fill="none" stroke="#404040" d="M401.068,-639.376C395.772,-594.523 382.787,-503.472 358,-430 353.959,-418.022 349.255,-405.818 344.17,-393.711"/>
<polygon fill="none" stroke="#404040" points="344.145,-393.651 338.099,-389.721 339.401,-382.629 345.447,-386.559 344.145,-393.651"/>
<text text-anchor="middle" x="377" y="-404" font-family="Helvetica,sans-Serif" font-size="10.00"> #lengthtree</text>
</g>
<!-- Node11 -->
<g id="node9" class="node"><title>Node11</title>
<polygon fill="none" stroke="#bfbfbf" points="366,-226.5 366,-283.5 470,-283.5 470,-226.5 366,-226.5"/>
<text text-anchor="middle" x="418" y="-271.5" font-family="Helvetica,sans-Serif" font-size="10.00">RandomSubMatrix *</text>
<polyline fill="none" stroke="#bfbfbf" points="366,-264.5 470,-264.5 "/>
<text text-anchor="middle" x="418" y="-252.5" font-family="Helvetica,sans-Serif" font-size="10.00"> </text>
<polyline fill="none" stroke="#bfbfbf" points="366,-245.5 470,-245.5 "/>
<text text-anchor="middle" x="418" y="-233.5" font-family="Helvetica,sans-Serif" font-size="10.00"> </text>
</g>
<!-- Node11&#45;&gt;Node3 -->
<g id="edge8" class="edge"><title>Node11&#45;&gt;Node3</title>
<path fill="none" stroke="#404040" d="M413.163,-226.154C407.244,-192.079 397.109,-133.734 389.796,-91.6341"/>
<polygon fill="none" stroke="#404040" points="389.773,-91.5037 384.805,-86.2768 387.719,-79.6807 392.687,-84.9076 389.773,-91.5037"/>
<text text-anchor="middle" x="410" y="-101" font-family="Helvetica,sans-Serif" font-size="10.00"> #matrix</text>
</g>
</g>
</svg>
