<?xml version="1.0" encoding="UTF-8" standalone="no"?>
<!DOCTYPE svg PUBLIC "-//W3C//DTD SVG 1.1//EN"
 "http://www.w3.org/Graphics/SVG/1.1/DTD/svg11.dtd">
<!-- Generated by graphviz version 2.38.0 (20140413.2041)
 -->
<!-- Title: ExpoConjugateGTRProfileProcess Pages: 1 -->
<svg width="609pt" height="1312pt"
 viewBox="0.00 0.00 609.00 1312.00" xmlns="http://www.w3.org/2000/svg" xmlns:xlink="http://www.w3.org/1999/xlink">
<g id="graph0" class="graph" transform="scale(1 1) rotate(0) translate(4 1308)">
<title>ExpoConjugateGTRProfileProcess</title>
<!-- Node19 -->
<g id="node1" class="node"><title>Node19</title>
<polygon fill="#bfbfbf" stroke="black" points="186.5,-0.5 186.5,-134.5 369.5,-134.5 369.5,-0.5 186.5,-0.5"/>
<text text-anchor="middle" x="278" y="-122.5" font-family="Helvetica,sans-Serif" font-size="10.00">ExpoConjugateGTRProfileProcess</text>
<polyline fill="none" stroke="black" points="186.5,-115.5 369.5,-115.5 "/>
<text text-anchor="middle" x="278" y="-103.5" font-family="Helvetica,sans-Serif" font-size="10.00"> </text>
<polyline fill="none" stroke="black" points="186.5,-96.5 369.5,-96.5 "/>
<text text-anchor="start" x="194.5" y="-84.5" font-family="Helvetica,sans-Serif" font-size="10.00">+ ExpoConjugateGTRProfileProcess()</text>
<text text-anchor="start" x="194.5" y="-73.5" font-family="Helvetica,sans-Serif" font-size="10.00">+ ~ExpoConjugateGTRProfile</text>
<text text-anchor="start" x="194.5" y="-62.5" font-family="Helvetica,sans-Serif" font-size="10.00">Process()</text>
<text text-anchor="start" x="194.5" y="-51.5" font-family="Helvetica,sans-Serif" font-size="10.00">+ Create()</text>
<text text-anchor="start" x="194.5" y="-40.5" font-family="Helvetica,sans-Serif" font-size="10.00">+ Delete()</text>
<text text-anchor="start" x="194.5" y="-29.5" font-family="Helvetica,sans-Serif" font-size="10.00">+ GetSiteProfileSuffStatCount()</text>
<text text-anchor="start" x="194.5" y="-18.5" font-family="Helvetica,sans-Serif" font-size="10.00">+ GetSiteProfileSuffStatBeta()</text>
<text text-anchor="start" x="194.5" y="-7.5" font-family="Helvetica,sans-Serif" font-size="10.00">+ MoveRR()</text>
</g>
<!-- Node20 -->
<g id="node2" class="node"><title>Node20</title>
<g id="a_node2"><a xlink:href="classGTRProfileProcess.html" target="_top" xlink:title="{GTRProfileProcess\n||+ GTRProfileProcess()\l+ ~GTRProfileProcess()\l+ GetNrr()\l+ GetRR()\l+ GetRRMean()\l+ SetRR()\l+ GetRRVarCoeff()\l+ GetRREntropy()\l+ rrindex()\l# Create()\l# Delete()\l# LogRRPrior()\l# SampleRR()\l# UpdateRRSuffStat()\l# GlobalUpdateRRSuffStat()\l# SlaveUpdateRRSuffStat()\l# MoveRR()\l}">
<polygon fill="none" stroke="black" points="207.5,-172.5 207.5,-405.5 348.5,-405.5 348.5,-172.5 207.5,-172.5"/>
<text text-anchor="middle" x="278" y="-393.5" font-family="Helvetica,sans-Serif" font-size="10.00">GTRProfileProcess</text>
<polyline fill="none" stroke="black" points="207.5,-386.5 348.5,-386.5 "/>
<text text-anchor="middle" x="278" y="-374.5" font-family="Helvetica,sans-Serif" font-size="10.00"> </text>
<polyline fill="none" stroke="black" points="207.5,-367.5 348.5,-367.5 "/>
<text text-anchor="start" x="215.5" y="-355.5" font-family="Helvetica,sans-Serif" font-size="10.00">+ GTRProfileProcess()</text>
<text text-anchor="start" x="215.5" y="-344.5" font-family="Helvetica,sans-Serif" font-size="10.00">+ ~GTRProfileProcess()</text>
<text text-anchor="start" x="215.5" y="-333.5" font-family="Helvetica,sans-Serif" font-size="10.00">+ GetNrr()</text>
<text text-anchor="start" x="215.5" y="-322.5" font-family="Helvetica,sans-Serif" font-size="10.00">+ GetRR()</text>
<text text-anchor="start" x="215.5" y="-311.5" font-family="Helvetica,sans-Serif" font-size="10.00">+ GetRRMean()</text>
<text text-anchor="start" x="215.5" y="-300.5" font-family="Helvetica,sans-Serif" font-size="10.00">+ SetRR()</text>
<text text-anchor="start" x="215.5" y="-289.5" font-family="Helvetica,sans-Serif" font-size="10.00">+ GetRRVarCoeff()</text>
<text text-anchor="start" x="215.5" y="-278.5" font-family="Helvetica,sans-Serif" font-size="10.00">+ GetRREntropy()</text>
<text text-anchor="start" x="215.5" y="-267.5" font-family="Helvetica,sans-Serif" font-size="10.00">+ rrindex()</text>
<text text-anchor="start" x="215.5" y="-256.5" font-family="Helvetica,sans-Serif" font-size="10.00"># Create()</text>
<text text-anchor="start" x="215.5" y="-245.5" font-family="Helvetica,sans-Serif" font-size="10.00"># Delete()</text>
<text text-anchor="start" x="215.5" y="-234.5" font-family="Helvetica,sans-Serif" font-size="10.00"># LogRRPrior()</text>
<text text-anchor="start" x="215.5" y="-223.5" font-family="Helvetica,sans-Serif" font-size="10.00"># SampleRR()</text>
<text text-anchor="start" x="215.5" y="-212.5" font-family="Helvetica,sans-Serif" font-size="10.00"># UpdateRRSuffStat()</text>
<text text-anchor="start" x="215.5" y="-201.5" font-family="Helvetica,sans-Serif" font-size="10.00"># GlobalUpdateRRSuffStat()</text>
<text text-anchor="start" x="215.5" y="-190.5" font-family="Helvetica,sans-Serif" font-size="10.00"># SlaveUpdateRRSuffStat()</text>
<text text-anchor="start" x="215.5" y="-179.5" font-family="Helvetica,sans-Serif" font-size="10.00"># MoveRR()</text>
</a>
</g>
</g>
<!-- Node20&#45;&gt;Node19 -->
<g id="edge1" class="edge"><title>Node20&#45;&gt;Node19</title>
<path fill="none" stroke="midnightblue" d="M278,-162.213C278,-152.811 278,-143.569 278,-134.772"/>
<polygon fill="none" stroke="midnightblue" points="274.5,-162.465 278,-172.465 281.5,-162.465 274.5,-162.465"/>
</g>
<!-- Node21 -->
<g id="node3" class="node"><title>Node21</title>
<g id="a_node3"><a xlink:href="classMatrixProfileProcess.html" target="_top" xlink:title="{MatrixProfileProcess\n||+ MatrixProfileProcess()\l+ ~MatrixProfileProcess()\l+ GetMatrix()\l# CreateMatrices()\l# DeleteMatrices()\l# ProfileProposeMove()\l# UpdateMatrices()\l}">
<polygon fill="none" stroke="black" points="214,-453.5 214,-576.5 342,-576.5 342,-453.5 214,-453.5"/>
<text text-anchor="middle" x="278" y="-564.5" font-family="Helvetica,sans-Serif" font-size="10.00">MatrixProfileProcess</text>
<polyline fill="none" stroke="black" points="214,-557.5 342,-557.5 "/>
<text text-anchor="middle" x="278" y="-545.5" font-family="Helvetica,sans-Serif" font-size="10.00"> </text>
<polyline fill="none" stroke="black" points="214,-538.5 342,-538.5 "/>
<text text-anchor="start" x="222" y="-526.5" font-family="Helvetica,sans-Serif" font-size="10.00">+ MatrixProfileProcess()</text>
<text text-anchor="start" x="222" y="-515.5" font-family="Helvetica,sans-Serif" font-size="10.00">+ ~MatrixProfileProcess()</text>
<text text-anchor="start" x="222" y="-504.5" font-family="Helvetica,sans-Serif" font-size="10.00">+ GetMatrix()</text>
<text text-anchor="start" x="222" y="-493.5" font-family="Helvetica,sans-Serif" font-size="10.00"># CreateMatrices()</text>
<text text-anchor="start" x="222" y="-482.5" font-family="Helvetica,sans-Serif" font-size="10.00"># DeleteMatrices()</text>
<text text-anchor="start" x="222" y="-471.5" font-family="Helvetica,sans-Serif" font-size="10.00"># ProfileProposeMove()</text>
<text text-anchor="start" x="222" y="-460.5" font-family="Helvetica,sans-Serif" font-size="10.00"># UpdateMatrices()</text>
</a>
</g>
</g>
<!-- Node21&#45;&gt;Node20 -->
<g id="edge2" class="edge"><title>Node21&#45;&gt;Node20</title>
<path fill="none" stroke="midnightblue" d="M278,-443.125C278,-431.223 278,-418.602 278,-405.914"/>
<polygon fill="none" stroke="midnightblue" points="274.5,-443.382 278,-453.382 281.5,-443.382 274.5,-443.382"/>
</g>
<!-- Node22 -->
<g id="node4" class="node"><title>Node22</title>
<g id="a_node4"><a xlink:href="classProfileProcess.html" target="_top" xlink:title="{ProfileProcess\n||+ ProfileProcess()\l+ ~ProfileProcess()\l+ GetVersion()\l+ GetStatInfCount()\l+ GetDim()\l+ GetNsite()\l+ GetProfile()\l+ GetStateSpace()\l+ LogProfilePrior()\l+ SampleProfile()\l+ GetMeanStationaryEntropy()\l+ GetSiteStationaryEntropy()\l+ UpdateSiteProfileSuffStat()\l+ GlobalUpdateSiteProfileSuffStat()\l+ SlaveUpdateSiteProfileSuffStat()\l+ GlobalUpdateParameters()\l+ SlaveUpdateParameters()\l+ ProfileSuffStatLogProb()\l+ ToStream()\l+ FromStream()\l+ SetBurnin()\l+ isObserved()\l+ GetMinStat()\l+ GetMinMinStat()\l# DrawProfileFromPrior()\l# GetNormalizationFactor()\l# Create()\l# Delete()\l# GetNprocs()\l# GetMyid()\l# GetSiteMin()\l# GetSiteMax()\l# GetEmpiricalFreq()\l# GetMinTotWeight()\l# SetMinTotWeight()\l}">
<polygon fill="none" stroke="black" points="176,-624.5 176,-1055.5 348,-1055.5 348,-624.5 176,-624.5"/>
<text text-anchor="middle" x="262" y="-1043.5" font-family="Helvetica,sans-Serif" font-size="10.00">ProfileProcess</text>
<polyline fill="none" stroke="black" points="176,-1036.5 348,-1036.5 "/>
<text text-anchor="middle" x="262" y="-1024.5" font-family="Helvetica,sans-Serif" font-size="10.00"> </text>
<polyline fill="none" stroke="black" points="176,-1017.5 348,-1017.5 "/>
<text text-anchor="start" x="184" y="-1005.5" font-family="Helvetica,sans-Serif" font-size="10.00">+ ProfileProcess()</text>
<text text-anchor="start" x="184" y="-994.5" font-family="Helvetica,sans-Serif" font-size="10.00">+ ~ProfileProcess()</text>
<text text-anchor="start" x="184" y="-983.5" font-family="Helvetica,sans-Serif" font-size="10.00">+ GetVersion()</text>
<text text-anchor="start" x="184" y="-972.5" font-family="Helvetica,sans-Serif" font-size="10.00">+ GetStatInfCount()</text>
<text text-anchor="start" x="184" y="-961.5" font-family="Helvetica,sans-Serif" font-size="10.00">+ GetDim()</text>
<text text-anchor="start" x="184" y="-950.5" font-family="Helvetica,sans-Serif" font-size="10.00">+ GetNsite()</text>
<text text-anchor="start" x="184" y="-939.5" font-family="Helvetica,sans-Serif" font-size="10.00">+ GetProfile()</text>
<text text-anchor="start" x="184" y="-928.5" font-family="Helvetica,sans-Serif" font-size="10.00">+ GetStateSpace()</text>
<text text-anchor="start" x="184" y="-917.5" font-family="Helvetica,sans-Serif" font-size="10.00">+ LogProfilePrior()</text>
<text text-anchor="start" x="184" y="-906.5" font-family="Helvetica,sans-Serif" font-size="10.00">+ SampleProfile()</text>
<text text-anchor="start" x="184" y="-895.5" font-family="Helvetica,sans-Serif" font-size="10.00">+ GetMeanStationaryEntropy()</text>
<text text-anchor="start" x="184" y="-884.5" font-family="Helvetica,sans-Serif" font-size="10.00">+ GetSiteStationaryEntropy()</text>
<text text-anchor="start" x="184" y="-873.5" font-family="Helvetica,sans-Serif" font-size="10.00">+ UpdateSiteProfileSuffStat()</text>
<text text-anchor="start" x="184" y="-862.5" font-family="Helvetica,sans-Serif" font-size="10.00">+ GlobalUpdateSiteProfileSuffStat()</text>
<text text-anchor="start" x="184" y="-851.5" font-family="Helvetica,sans-Serif" font-size="10.00">+ SlaveUpdateSiteProfileSuffStat()</text>
<text text-anchor="start" x="184" y="-840.5" font-family="Helvetica,sans-Serif" font-size="10.00">+ GlobalUpdateParameters()</text>
<text text-anchor="start" x="184" y="-829.5" font-family="Helvetica,sans-Serif" font-size="10.00">+ SlaveUpdateParameters()</text>
<text text-anchor="start" x="184" y="-818.5" font-family="Helvetica,sans-Serif" font-size="10.00">+ ProfileSuffStatLogProb()</text>
<text text-anchor="start" x="184" y="-807.5" font-family="Helvetica,sans-Serif" font-size="10.00">+ ToStream()</text>
<text text-anchor="start" x="184" y="-796.5" font-family="Helvetica,sans-Serif" font-size="10.00">+ FromStream()</text>
<text text-anchor="start" x="184" y="-785.5" font-family="Helvetica,sans-Serif" font-size="10.00">+ SetBurnin()</text>
<text text-anchor="start" x="184" y="-774.5" font-family="Helvetica,sans-Serif" font-size="10.00">+ isObserved()</text>
<text text-anchor="start" x="184" y="-763.5" font-family="Helvetica,sans-Serif" font-size="10.00">+ GetMinStat()</text>
<text text-anchor="start" x="184" y="-752.5" font-family="Helvetica,sans-Serif" font-size="10.00">+ GetMinMinStat()</text>
<text text-anchor="start" x="184" y="-741.5" font-family="Helvetica,sans-Serif" font-size="10.00"># DrawProfileFromPrior()</text>
<text text-anchor="start" x="184" y="-730.5" font-family="Helvetica,sans-Serif" font-size="10.00"># GetNormalizationFactor()</text>
<text text-anchor="start" x="184" y="-719.5" font-family="Helvetica,sans-Serif" font-size="10.00"># Create()</text>
<text text-anchor="start" x="184" y="-708.5" font-family="Helvetica,sans-Serif" font-size="10.00"># Delete()</text>
<text text-anchor="start" x="184" y="-697.5" font-family="Helvetica,sans-Serif" font-size="10.00"># GetNprocs()</text>
<text text-anchor="start" x="184" y="-686.5" font-family="Helvetica,sans-Serif" font-size="10.00"># GetMyid()</text>
<text text-anchor="start" x="184" y="-675.5" font-family="Helvetica,sans-Serif" font-size="10.00"># GetSiteMin()</text>
<text text-anchor="start" x="184" y="-664.5" font-family="Helvetica,sans-Serif" font-size="10.00"># GetSiteMax()</text>
<text text-anchor="start" x="184" y="-653.5" font-family="Helvetica,sans-Serif" font-size="10.00"># GetEmpiricalFreq()</text>
<text text-anchor="start" x="184" y="-642.5" font-family="Helvetica,sans-Serif" font-size="10.00"># GetMinTotWeight()</text>
<text text-anchor="start" x="184" y="-631.5" font-family="Helvetica,sans-Serif" font-size="10.00"># SetMinTotWeight()</text>
</a>
</g>
</g>
<!-- Node22&#45;&gt;Node21 -->
<g id="edge3" class="edge"><title>Node22&#45;&gt;Node21</title>
<path fill="none" stroke="midnightblue" d="M273.139,-614.134C273.799,-600.804 274.426,-588.158 274.996,-576.652"/>
<polygon fill="none" stroke="midnightblue" points="269.627,-614.292 272.628,-624.453 276.618,-614.638 269.627,-614.292"/>
</g>
<!-- Node23 -->
<g id="node5" class="node"><title>Node23</title>
<g id="a_node5"><a xlink:href="classChrono.html" target="_top" xlink:title="{Chrono\n||+ Chrono()\l+ ~Chrono()\l+ Reset()\l+ Start()\l+ Stop()\l+ ToStream()\l+ FromStream()\l+ operator++()\l+ GetTime()\l+ GetTimePerCount()\l+ GetCount()\l}">
<polygon fill="none" stroke="black" points="160,-1136.5 160,-1303.5 270,-1303.5 270,-1136.5 160,-1136.5"/>
<text text-anchor="middle" x="215" y="-1291.5" font-family="Helvetica,sans-Serif" font-size="10.00">Chrono</text>
<polyline fill="none" stroke="black" points="160,-1284.5 270,-1284.5 "/>
<text text-anchor="middle" x="215" y="-1272.5" font-family="Helvetica,sans-Serif" font-size="10.00"> </text>
<polyline fill="none" stroke="black" points="160,-1265.5 270,-1265.5 "/>
<text text-anchor="start" x="168" y="-1253.5" font-family="Helvetica,sans-Serif" font-size="10.00">+ Chrono()</text>
<text text-anchor="start" x="168" y="-1242.5" font-family="Helvetica,sans-Serif" font-size="10.00">+ ~Chrono()</text>
<text text-anchor="start" x="168" y="-1231.5" font-family="Helvetica,sans-Serif" font-size="10.00">+ Reset()</text>
<text text-anchor="start" x="168" y="-1220.5" font-family="Helvetica,sans-Serif" font-size="10.00">+ Start()</text>
<text text-anchor="start" x="168" y="-1209.5" font-family="Helvetica,sans-Serif" font-size="10.00">+ Stop()</text>
<text text-anchor="start" x="168" y="-1198.5" font-family="Helvetica,sans-Serif" font-size="10.00">+ ToStream()</text>
<text text-anchor="start" x="168" y="-1187.5" font-family="Helvetica,sans-Serif" font-size="10.00">+ FromStream()</text>
<text text-anchor="start" x="168" y="-1176.5" font-family="Helvetica,sans-Serif" font-size="10.00">+ operator++()</text>
<text text-anchor="start" x="168" y="-1165.5" font-family="Helvetica,sans-Serif" font-size="10.00">+ GetTime()</text>
<text text-anchor="start" x="168" y="-1154.5" font-family="Helvetica,sans-Serif" font-size="10.00">+ GetTimePerCount()</text>
<text text-anchor="start" x="168" y="-1143.5" font-family="Helvetica,sans-Serif" font-size="10.00">+ GetCount()</text>
</a>
</g>
</g>
<!-- Node23&#45;&gt;Node22 -->
<g id="edge4" class="edge"><title>Node23&#45;&gt;Node22</title>
<path fill="none" stroke="#404040" d="M212.887,-1136.42C213.102,-1115.98 213.959,-1094.16 216,-1074 216.211,-1071.92 216.431,-1069.83 216.66,-1067.73"/>
<polygon fill="none" stroke="#404040" points="216.68,-1067.57 213.403,-1061.14 218.073,-1055.65 221.349,-1062.07 216.68,-1067.57"/>
<text text-anchor="middle" x="243.5" y="-1104.5" font-family="Helvetica,sans-Serif" font-size="10.00"> #chronostat</text>
<text text-anchor="middle" x="243.5" y="-1093.5" font-family="Helvetica,sans-Serif" font-size="10.00">#chronorr</text>
<text text-anchor="middle" x="243.5" y="-1082.5" font-family="Helvetica,sans-Serif" font-size="10.00">#chronodp</text>
</g>
<!-- Node24 -->
<g id="node6" class="node"><title>Node24</title>
<polygon fill="none" stroke="#bfbfbf" points="465.5,-1191.5 465.5,-1248.5 510.5,-1248.5 510.5,-1191.5 465.5,-1191.5"/>
<text text-anchor="middle" x="488" y="-1236.5" font-family="Helvetica,sans-Serif" font-size="10.00">double</text>
<polyline fill="none" stroke="#bfbfbf" points="465.5,-1229.5 510.5,-1229.5 "/>
<text text-anchor="middle" x="488" y="-1217.5" font-family="Helvetica,sans-Serif" font-size="10.00"> </text>
<polyline fill="none" stroke="#bfbfbf" points="465.5,-1210.5 510.5,-1210.5 "/>
<text text-anchor="middle" x="488" y="-1198.5" font-family="Helvetica,sans-Serif" font-size="10.00"> </text>
</g>
<!-- Node24&#45;&gt;Node19 -->
<g id="edge12" class="edge"><title>Node24&#45;&gt;Node19</title>
<path fill="none" stroke="#404040" d="M493.733,-1191.16C506.064,-1128.78 534,-972.888 534,-841 534,-841 534,-841 534,-288 534,-203.079 451.81,-143.921 380.571,-108.596"/>
<polygon fill="none" stroke="#404040" points="380.504,-108.564 373.361,-109.556 369.699,-103.344 376.841,-102.352 380.504,-108.564"/>
<text text-anchor="middle" x="567.5" y="-512.5" font-family="Helvetica,sans-Serif" font-size="10.00"> +rrsuffstatbeta</text>
</g>
<!-- Node24&#45;&gt;Node20 -->
<g id="edge9" class="edge"><title>Node24&#45;&gt;Node20</title>
<path fill="none" stroke="#404040" d="M488.457,-1191.4C489.235,-1089.44 483.923,-725.727 377,-453 370.765,-437.096 363.022,-420.982 354.632,-405.389"/>
<polygon fill="none" stroke="#404040" points="354.525,-405.194 348.125,-401.871 348.731,-394.685 355.131,-398.008 354.525,-405.194"/>
<text text-anchor="middle" x="431.5" y="-598" font-family="Helvetica,sans-Serif" font-size="10.00"> #rr</text>
</g>
<!-- Node24&#45;&gt;Node22 -->
<g id="edge5" class="edge"><title>Node24&#45;&gt;Node22</title>
<path fill="none" stroke="#404040" d="M465.192,-1192.05C448.905,-1172.2 426.966,-1144.23 410,-1118 390.711,-1088.18 371.656,-1055.6 353.965,-1023.6"/>
<polygon fill="none" stroke="#404040" points="353.796,-1023.29 347.402,-1019.96 348.019,-1012.77 354.414,-1016.11 353.796,-1023.29"/>
<text text-anchor="middle" x="442" y="-1093.5" font-family="Helvetica,sans-Serif" font-size="10.00"> #mintotweight</text>
</g>
<!-- Node25 -->
<g id="node7" class="node"><title>Node25</title>
<polygon fill="none" stroke="#bfbfbf" points="86.5,-1191.5 86.5,-1248.5 115.5,-1248.5 115.5,-1191.5 86.5,-1191.5"/>
<text text-anchor="middle" x="101" y="-1236.5" font-family="Helvetica,sans-Serif" font-size="10.00">int</text>
<polyline fill="none" stroke="#bfbfbf" points="86.5,-1229.5 115.5,-1229.5 "/>
<text text-anchor="middle" x="101" y="-1217.5" font-family="Helvetica,sans-Serif" font-size="10.00"> </text>
<polyline fill="none" stroke="#bfbfbf" points="86.5,-1210.5 115.5,-1210.5 "/>
<text text-anchor="middle" x="101" y="-1198.5" font-family="Helvetica,sans-Serif" font-size="10.00"> </text>
</g>
<!-- Node25&#45;&gt;Node19 -->
<g id="edge13" class="edge"><title>Node25&#45;&gt;Node19</title>
<path fill="none" stroke="#404040" d="M88.2083,-1191.23C61.0306,-1129.61 0,-976.175 0,-841 0,-841 0,-841 0,-288 0,-195.686 95.5929,-136.16 174.668,-102.711"/>
<polygon fill="none" stroke="#404040" points="175.105,-102.532 179.131,-96.5491 186.202,-97.9647 182.176,-103.947 175.105,-102.532"/>
<text text-anchor="middle" x="36.5" y="-512.5" font-family="Helvetica,sans-Serif" font-size="10.00"> +rrsuffstatcount</text>
</g>
<!-- Node25&#45;&gt;Node20 -->
<g id="edge10" class="edge"><title>Node25&#45;&gt;Node20</title>
<path fill="none" stroke="#404040" d="M96.6636,-1191.27C81.8475,-1088.82 39.7518,-723.643 145,-453 157.202,-421.622 177.861,-391.707 199.305,-366.27"/>
<polygon fill="none" stroke="#404040" points="199.378,-366.185 200.276,-359.03 207.226,-357.107 206.328,-364.262 199.378,-366.185"/>
<text text-anchor="middle" x="114" y="-598" font-family="Helvetica,sans-Serif" font-size="10.00"> #Nrr</text>
</g>
<!-- Node25&#45;&gt;Node22 -->
<g id="edge6" class="edge"><title>Node25&#45;&gt;Node22</title>
<path fill="none" stroke="#404040" d="M109.76,-1191.43C119.319,-1162.02 135.477,-1114.24 152,-1074 157.924,-1059.57 164.275,-1044.76 170.826,-1029.92"/>
<polygon fill="none" stroke="#404040" points="170.994,-1029.54 169.778,-1022.43 175.871,-1018.58 177.087,-1025.68 170.994,-1029.54"/>
<text text-anchor="middle" x="181" y="-1110" font-family="Helvetica,sans-Serif" font-size="10.00"> #dim</text>
<text text-anchor="middle" x="181" y="-1099" font-family="Helvetica,sans-Serif" font-size="10.00">#statinfcount</text>
<text text-anchor="middle" x="181" y="-1088" font-family="Helvetica,sans-Serif" font-size="10.00">#totstatcount</text>
<text text-anchor="middle" x="181" y="-1077" font-family="Helvetica,sans-Serif" font-size="10.00">#nsite</text>
</g>
<!-- Node26 -->
<g id="node8" class="node"><title>Node26</title>
<polygon fill="none" stroke="#bfbfbf" points="323.5,-1191.5 323.5,-1248.5 358.5,-1248.5 358.5,-1191.5 323.5,-1191.5"/>
<text text-anchor="middle" x="341" y="-1236.5" font-family="Helvetica,sans-Serif" font-size="10.00">bool</text>
<polyline fill="none" stroke="#bfbfbf" points="323.5,-1229.5 358.5,-1229.5 "/>
<text text-anchor="middle" x="341" y="-1217.5" font-family="Helvetica,sans-Serif" font-size="10.00"> </text>
<polyline fill="none" stroke="#bfbfbf" points="323.5,-1210.5 358.5,-1210.5 "/>
<text text-anchor="middle" x="341" y="-1198.5" font-family="Helvetica,sans-Serif" font-size="10.00"> </text>
</g>
<!-- Node26&#45;&gt;Node20 -->
<g id="edge11" class="edge"><title>Node26&#45;&gt;Node20</title>
<path fill="none" stroke="#404040" d="M348.342,-1191.37C353.308,-1171.21 359.416,-1143.12 362,-1118 364.001,-1098.55 362.109,-1093.56 362,-1074 360.466,-797.961 413.413,-721.895 351,-453 348.237,-441.098 344.596,-428.997 340.411,-417.042"/>
<polygon fill="none" stroke="#404040" points="340.361,-416.907 334.545,-412.644 336.243,-405.636 342.059,-409.898 340.361,-416.907"/>
<text text-anchor="middle" x="389.5" y="-598" font-family="Helvetica,sans-Serif" font-size="10.00"> #fixrr</text>
</g>
<!-- Node26&#45;&gt;Node22 -->
<g id="edge7" class="edge"><title>Node26&#45;&gt;Node22</title>
<path fill="none" stroke="#404040" d="M325.101,-1191.21C314.536,-1171.42 301.307,-1143.87 294,-1118 289.403,-1101.72 285.464,-1084.73 282.09,-1067.52"/>
<polygon fill="none" stroke="#404040" points="282.062,-1067.37 277.022,-1062.21 279.844,-1055.58 284.884,-1060.73 282.062,-1067.37"/>
<text text-anchor="middle" x="328" y="-1099" font-family="Helvetica,sans-Serif" font-size="10.00"> #activesuffstat</text>
<text text-anchor="middle" x="328" y="-1088" font-family="Helvetica,sans-Serif" font-size="10.00">#burnin</text>
</g>
<!-- Node27 -->
<g id="node9" class="node"><title>Node27</title>
<polygon fill="none" stroke="#bfbfbf" points="154.5,-486.5 154.5,-543.5 195.5,-543.5 195.5,-486.5 154.5,-486.5"/>
<text text-anchor="middle" x="175" y="-531.5" font-family="Helvetica,sans-Serif" font-size="10.00">string</text>
<polyline fill="none" stroke="#bfbfbf" points="154.5,-524.5 195.5,-524.5 "/>
<text text-anchor="middle" x="175" y="-512.5" font-family="Helvetica,sans-Serif" font-size="10.00"> </text>
<polyline fill="none" stroke="#bfbfbf" points="154.5,-505.5 195.5,-505.5 "/>
<text text-anchor="middle" x="175" y="-493.5" font-family="Helvetica,sans-Serif" font-size="10.00"> </text>
</g>
<!-- Node27&#45;&gt;Node20 -->
<g id="edge8" class="edge"><title>Node27&#45;&gt;Node20</title>
<path fill="none" stroke="#404040" d="M187.837,-486.083C196.165,-467.971 207.673,-442.945 219.684,-416.824"/>
<polygon fill="none" stroke="#404040" points="219.841,-416.481 218.714,-409.359 224.854,-405.579 225.982,-412.701 219.841,-416.481"/>
<text text-anchor="middle" x="232" y="-427" font-family="Helvetica,sans-Serif" font-size="10.00"> #rrtype</text>
</g>
</g>
</svg>
