<?xml version="1.0" encoding="UTF-8" standalone="no"?>
<!DOCTYPE svg PUBLIC "-//W3C//DTD SVG 1.1//EN"
 "http://www.w3.org/Graphics/SVG/1.1/DTD/svg11.dtd">
<!-- Generated by graphviz version 2.38.0 (20140413.2041)
 -->
<!-- Title: Rvar Pages: 1 -->
<svg width="124pt" height="226pt"
 viewBox="0.00 0.00 124.00 226.00" xmlns="http://www.w3.org/2000/svg" xmlns:xlink="http://www.w3.org/1999/xlink">
<g id="graph0" class="graph" transform="scale(1 1) rotate(0) translate(4 222)">
<title>Rvar</title>
<!-- Node0 -->
<g id="node1" class="node"><title>Node0</title>
<polygon fill="#bfbfbf" stroke="black" points="39,-160.5 39,-217.5 77,-217.5 77,-160.5 39,-160.5"/>
<text text-anchor="middle" x="58" y="-205.5" font-family="Helvetica,sans-Serif" font-size="10.00">Rvar</text>
<polyline fill="none" stroke="black" points="39,-198.5 77,-198.5 "/>
<text text-anchor="middle" x="58" y="-186.5" font-family="Helvetica,sans-Serif" font-size="10.00"> </text>
<polyline fill="none" stroke="black" points="39,-179.5 77,-179.5 "/>
<text text-anchor="middle" x="58" y="-167.5" font-family="Helvetica,sans-Serif" font-size="10.00"> </text>
</g>
<!-- Node1 -->
<g id="node2" class="node"><title>Node1</title>
<g id="a_node2"><a xlink:href="classNodeDate.html" target="_top" xlink:title="{NodeDate\&lt; PosReal \&gt;\n|# min\l# max\l|+ NodeDate()\l+ drawSample()\l+ SetMinMax()\l+ ProposeMove()\l+ EmptyMove()\l+ logProb()\l}">
<polygon fill="none" stroke="black" points="-7.10543e-15,-0.5 -7.10543e-15,-123.5 116,-123.5 116,-0.5 -7.10543e-15,-0.5"/>
<text text-anchor="middle" x="58" y="-111.5" font-family="Helvetica,sans-Serif" font-size="10.00">NodeDate&lt; PosReal &gt;</text>
<polyline fill="none" stroke="black" points="-7.10543e-15,-104.5 116,-104.5 "/>
<text text-anchor="start" x="8" y="-92.5" font-family="Helvetica,sans-Serif" font-size="10.00"># min</text>
<text text-anchor="start" x="8" y="-81.5" font-family="Helvetica,sans-Serif" font-size="10.00"># max</text>
<polyline fill="none" stroke="black" points="-7.10543e-15,-74.5 116,-74.5 "/>
<text text-anchor="start" x="8" y="-62.5" font-family="Helvetica,sans-Serif" font-size="10.00">+ NodeDate()</text>
<text text-anchor="start" x="8" y="-51.5" font-family="Helvetica,sans-Serif" font-size="10.00">+ drawSample()</text>
<text text-anchor="start" x="8" y="-40.5" font-family="Helvetica,sans-Serif" font-size="10.00">+ SetMinMax()</text>
<text text-anchor="start" x="8" y="-29.5" font-family="Helvetica,sans-Serif" font-size="10.00">+ ProposeMove()</text>
<text text-anchor="start" x="8" y="-18.5" font-family="Helvetica,sans-Serif" font-size="10.00">+ EmptyMove()</text>
<text text-anchor="start" x="8" y="-7.5" font-family="Helvetica,sans-Serif" font-size="10.00">+ logProb()</text>
</a>
</g>
</g>
<!-- Node0&#45;&gt;Node1 -->
<g id="edge1" class="edge"><title>Node0&#45;&gt;Node1</title>
<path fill="none" stroke="midnightblue" d="M58,-150.099C58,-141.739 58,-132.68 58,-123.672"/>
<polygon fill="none" stroke="midnightblue" points="54.5001,-150.258 58,-160.258 61.5001,-150.258 54.5001,-150.258"/>
</g>
</g>
</svg>
