<?xml version="1.0" encoding="UTF-8" standalone="no"?>
<!DOCTYPE svg PUBLIC "-//W3C//DTD SVG 1.1//EN"
 "http://www.w3.org/Graphics/SVG/1.1/DTD/svg11.dtd">
<!-- Generated by graphviz version 2.38.0 (20140413.2041)
 -->
<!-- Title: GeneralPathSuffStatMatrixOneProfileProcess Pages: 1 -->
<svg width="762pt" height="1379pt"
 viewBox="0.00 0.00 761.50 1379.00" xmlns="http://www.w3.org/2000/svg" xmlns:xlink="http://www.w3.org/1999/xlink">
<g id="graph0" class="graph" transform="scale(1 1) rotate(0) translate(4 1375)">
<title>GeneralPathSuffStatMatrixOneProfileProcess</title>
<!-- Node6 -->
<g id="node1" class="node"><title>Node6</title>
<polygon fill="#bfbfbf" stroke="black" points="409,-0.5 409,-123.5 558,-123.5 558,-0.5 409,-0.5"/>
<text text-anchor="start" x="417" y="-111.5" font-family="Helvetica,sans-Serif" font-size="10.00">GeneralPathSuffStatMatrix</text>
<text text-anchor="middle" x="483.5" y="-100.5" font-family="Helvetica,sans-Serif" font-size="10.00">OneProfileProcess</text>
<polyline fill="none" stroke="black" points="409,-93.5 558,-93.5 "/>
<text text-anchor="middle" x="483.5" y="-81.5" font-family="Helvetica,sans-Serif" font-size="10.00"> </text>
<polyline fill="none" stroke="black" points="409,-74.5 558,-74.5 "/>
<text text-anchor="start" x="417" y="-62.5" font-family="Helvetica,sans-Serif" font-size="10.00">+ GeneralPathSuffStatMatrix</text>
<text text-anchor="start" x="417" y="-51.5" font-family="Helvetica,sans-Serif" font-size="10.00">OneProfileProcess()</text>
<text text-anchor="start" x="417" y="-40.5" font-family="Helvetica,sans-Serif" font-size="10.00">+ ~GeneralPathSuffStatMatrix</text>
<text text-anchor="start" x="417" y="-29.5" font-family="Helvetica,sans-Serif" font-size="10.00">OneProfileProcess()</text>
<text text-anchor="start" x="417" y="-18.5" font-family="Helvetica,sans-Serif" font-size="10.00"># UpdateProfileSuffStat()</text>
<text text-anchor="start" x="417" y="-7.5" font-family="Helvetica,sans-Serif" font-size="10.00"># ProfileSuffStatLogProb()</text>
</g>
<!-- Node7 -->
<g id="node2" class="node"><title>Node7</title>
<g id="a_node2"><a xlink:href="classMatrixOneProfileProcess.html" target="_top" xlink:title="{MatrixOneProfileProcess\n||+ MatrixOneProfileProcess()\l+ ~MatrixOneProfileProcess()\l+ GetMatrix()\l# Create()\l# Delete()\l# MoveProfile()\l# UpdateProfileSuffStat()\l# UpdateProfile()\l# CreateMatrix()\l# DeleteMatrix()\l# UpdateMatrix()\l}">
<polygon fill="none" stroke="black" points="111.5,-171.5 111.5,-338.5 257.5,-338.5 257.5,-171.5 111.5,-171.5"/>
<text text-anchor="middle" x="184.5" y="-326.5" font-family="Helvetica,sans-Serif" font-size="10.00">MatrixOneProfileProcess</text>
<polyline fill="none" stroke="black" points="111.5,-319.5 257.5,-319.5 "/>
<text text-anchor="middle" x="184.5" y="-307.5" font-family="Helvetica,sans-Serif" font-size="10.00"> </text>
<polyline fill="none" stroke="black" points="111.5,-300.5 257.5,-300.5 "/>
<text text-anchor="start" x="119.5" y="-288.5" font-family="Helvetica,sans-Serif" font-size="10.00">+ MatrixOneProfileProcess()</text>
<text text-anchor="start" x="119.5" y="-277.5" font-family="Helvetica,sans-Serif" font-size="10.00">+ ~MatrixOneProfileProcess()</text>
<text text-anchor="start" x="119.5" y="-266.5" font-family="Helvetica,sans-Serif" font-size="10.00">+ GetMatrix()</text>
<text text-anchor="start" x="119.5" y="-255.5" font-family="Helvetica,sans-Serif" font-size="10.00"># Create()</text>
<text text-anchor="start" x="119.5" y="-244.5" font-family="Helvetica,sans-Serif" font-size="10.00"># Delete()</text>
<text text-anchor="start" x="119.5" y="-233.5" font-family="Helvetica,sans-Serif" font-size="10.00"># MoveProfile()</text>
<text text-anchor="start" x="119.5" y="-222.5" font-family="Helvetica,sans-Serif" font-size="10.00"># UpdateProfileSuffStat()</text>
<text text-anchor="start" x="119.5" y="-211.5" font-family="Helvetica,sans-Serif" font-size="10.00"># UpdateProfile()</text>
<text text-anchor="start" x="119.5" y="-200.5" font-family="Helvetica,sans-Serif" font-size="10.00"># CreateMatrix()</text>
<text text-anchor="start" x="119.5" y="-189.5" font-family="Helvetica,sans-Serif" font-size="10.00"># DeleteMatrix()</text>
<text text-anchor="start" x="119.5" y="-178.5" font-family="Helvetica,sans-Serif" font-size="10.00"># UpdateMatrix()</text>
</a>
</g>
</g>
<!-- Node7&#45;&gt;Node6 -->
<g id="edge1" class="edge"><title>Node7&#45;&gt;Node6</title>
<path fill="none" stroke="midnightblue" d="M265.67,-171.604C265.946,-171.402 266.223,-171.2 266.5,-171 310.557,-139.104 365.441,-111.886 408.99,-92.7522"/>
<polygon fill="none" stroke="midnightblue" points="263.496,-168.86 257.683,-177.717 267.751,-174.419 263.496,-168.86"/>
</g>
<!-- Node8 -->
<g id="node3" class="node"><title>Node8</title>
<g id="a_node3"><a xlink:href="classMatrixProfileProcess.html" target="_top" xlink:title="{MatrixProfileProcess\n||+ MatrixProfileProcess()\l+ ~MatrixProfileProcess()\l+ GetMatrix()\l# CreateMatrices()\l# DeleteMatrices()\l# ProfileProposeMove()\l# UpdateMatrices()\l}">
<polygon fill="none" stroke="black" points="286.5,-415 286.5,-538 414.5,-538 414.5,-415 286.5,-415"/>
<text text-anchor="middle" x="350.5" y="-526" font-family="Helvetica,sans-Serif" font-size="10.00">MatrixProfileProcess</text>
<polyline fill="none" stroke="black" points="286.5,-519 414.5,-519 "/>
<text text-anchor="middle" x="350.5" y="-507" font-family="Helvetica,sans-Serif" font-size="10.00"> </text>
<polyline fill="none" stroke="black" points="286.5,-500 414.5,-500 "/>
<text text-anchor="start" x="294.5" y="-488" font-family="Helvetica,sans-Serif" font-size="10.00">+ MatrixProfileProcess()</text>
<text text-anchor="start" x="294.5" y="-477" font-family="Helvetica,sans-Serif" font-size="10.00">+ ~MatrixProfileProcess()</text>
<text text-anchor="start" x="294.5" y="-466" font-family="Helvetica,sans-Serif" font-size="10.00">+ GetMatrix()</text>
<text text-anchor="start" x="294.5" y="-455" font-family="Helvetica,sans-Serif" font-size="10.00"># CreateMatrices()</text>
<text text-anchor="start" x="294.5" y="-444" font-family="Helvetica,sans-Serif" font-size="10.00"># DeleteMatrices()</text>
<text text-anchor="start" x="294.5" y="-433" font-family="Helvetica,sans-Serif" font-size="10.00"># ProfileProposeMove()</text>
<text text-anchor="start" x="294.5" y="-422" font-family="Helvetica,sans-Serif" font-size="10.00"># UpdateMatrices()</text>
</a>
</g>
</g>
<!-- Node8&#45;&gt;Node7 -->
<g id="edge2" class="edge"><title>Node8&#45;&gt;Node7</title>
<path fill="none" stroke="midnightblue" d="M298.529,-406.78C282.171,-385.149 263.934,-361.034 246.927,-338.546"/>
<polygon fill="none" stroke="midnightblue" points="295.877,-409.075 304.7,-414.94 301.46,-404.852 295.877,-409.075"/>
</g>
<!-- Node16 -->
<g id="node11" class="node"><title>Node16</title>
<g id="a_node11"><a xlink:href="classGeneralPathSuffStatMatrixProfileProcess.html" target="_top" xlink:title="{GeneralPathSuffStatMatrix\lProfileProcess\n||+ GeneralPathSuffStatMatrix\lProfileProcess()\l+ ~GeneralPathSuffStatMatrix\lProfileProcess()\l+ GetSitePairCount()\l+ GetSiteWaitingTime()\l+ GetSiteRootState()\l}">
<polygon fill="none" stroke="black" points="276,-188 276,-322 425,-322 425,-188 276,-188"/>
<text text-anchor="start" x="284" y="-310" font-family="Helvetica,sans-Serif" font-size="10.00">GeneralPathSuffStatMatrix</text>
<text text-anchor="middle" x="350.5" y="-299" font-family="Helvetica,sans-Serif" font-size="10.00">ProfileProcess</text>
<polyline fill="none" stroke="black" points="276,-292 425,-292 "/>
<text text-anchor="middle" x="350.5" y="-280" font-family="Helvetica,sans-Serif" font-size="10.00"> </text>
<polyline fill="none" stroke="black" points="276,-273 425,-273 "/>
<text text-anchor="start" x="284" y="-261" font-family="Helvetica,sans-Serif" font-size="10.00">+ GeneralPathSuffStatMatrix</text>
<text text-anchor="start" x="284" y="-250" font-family="Helvetica,sans-Serif" font-size="10.00">ProfileProcess()</text>
<text text-anchor="start" x="284" y="-239" font-family="Helvetica,sans-Serif" font-size="10.00">+ ~GeneralPathSuffStatMatrix</text>
<text text-anchor="start" x="284" y="-228" font-family="Helvetica,sans-Serif" font-size="10.00">ProfileProcess()</text>
<text text-anchor="start" x="284" y="-217" font-family="Helvetica,sans-Serif" font-size="10.00">+ GetSitePairCount()</text>
<text text-anchor="start" x="284" y="-206" font-family="Helvetica,sans-Serif" font-size="10.00">+ GetSiteWaitingTime()</text>
<text text-anchor="start" x="284" y="-195" font-family="Helvetica,sans-Serif" font-size="10.00">+ GetSiteRootState()</text>
</a>
</g>
</g>
<!-- Node8&#45;&gt;Node16 -->
<g id="edge16" class="edge"><title>Node8&#45;&gt;Node16</title>
<path fill="none" stroke="midnightblue" d="M350.5,-404.595C350.5,-378.116 350.5,-348.173 350.5,-322.14"/>
<polygon fill="none" stroke="midnightblue" points="347,-404.94 350.5,-414.94 354,-404.94 347,-404.94"/>
</g>
<!-- Node9 -->
<g id="node4" class="node"><title>Node9</title>
<g id="a_node4"><a xlink:href="classProfileProcess.html" target="_top" xlink:title="{ProfileProcess\n||+ ProfileProcess()\l+ ~ProfileProcess()\l+ GetVersion()\l+ GetStatInfCount()\l+ GetDim()\l+ GetNsite()\l+ GetProfile()\l+ GetStateSpace()\l+ LogProfilePrior()\l+ SampleProfile()\l+ GetMeanStationaryEntropy()\l+ GetSiteStationaryEntropy()\l+ UpdateSiteProfileSuffStat()\l+ GlobalUpdateSiteProfileSuffStat()\l+ SlaveUpdateSiteProfileSuffStat()\l+ GlobalUpdateParameters()\l+ SlaveUpdateParameters()\l+ ProfileSuffStatLogProb()\l+ ToStream()\l+ FromStream()\l+ SetBurnin()\l+ isObserved()\l+ GetMinStat()\l+ GetMinMinStat()\l# DrawProfileFromPrior()\l# GetNormalizationFactor()\l# Create()\l# Delete()\l# GetNprocs()\l# GetMyid()\l# GetSiteMin()\l# GetSiteMax()\l# GetEmpiricalFreq()\l# GetMinTotWeight()\l# SetMinTotWeight()\l}">
<polygon fill="none" stroke="black" points="276.5,-642 276.5,-1073 448.5,-1073 448.5,-642 276.5,-642"/>
<text text-anchor="middle" x="362.5" y="-1061" font-family="Helvetica,sans-Serif" font-size="10.00">ProfileProcess</text>
<polyline fill="none" stroke="black" points="276.5,-1054 448.5,-1054 "/>
<text text-anchor="middle" x="362.5" y="-1042" font-family="Helvetica,sans-Serif" font-size="10.00"> </text>
<polyline fill="none" stroke="black" points="276.5,-1035 448.5,-1035 "/>
<text text-anchor="start" x="284.5" y="-1023" font-family="Helvetica,sans-Serif" font-size="10.00">+ ProfileProcess()</text>
<text text-anchor="start" x="284.5" y="-1012" font-family="Helvetica,sans-Serif" font-size="10.00">+ ~ProfileProcess()</text>
<text text-anchor="start" x="284.5" y="-1001" font-family="Helvetica,sans-Serif" font-size="10.00">+ GetVersion()</text>
<text text-anchor="start" x="284.5" y="-990" font-family="Helvetica,sans-Serif" font-size="10.00">+ GetStatInfCount()</text>
<text text-anchor="start" x="284.5" y="-979" font-family="Helvetica,sans-Serif" font-size="10.00">+ GetDim()</text>
<text text-anchor="start" x="284.5" y="-968" font-family="Helvetica,sans-Serif" font-size="10.00">+ GetNsite()</text>
<text text-anchor="start" x="284.5" y="-957" font-family="Helvetica,sans-Serif" font-size="10.00">+ GetProfile()</text>
<text text-anchor="start" x="284.5" y="-946" font-family="Helvetica,sans-Serif" font-size="10.00">+ GetStateSpace()</text>
<text text-anchor="start" x="284.5" y="-935" font-family="Helvetica,sans-Serif" font-size="10.00">+ LogProfilePrior()</text>
<text text-anchor="start" x="284.5" y="-924" font-family="Helvetica,sans-Serif" font-size="10.00">+ SampleProfile()</text>
<text text-anchor="start" x="284.5" y="-913" font-family="Helvetica,sans-Serif" font-size="10.00">+ GetMeanStationaryEntropy()</text>
<text text-anchor="start" x="284.5" y="-902" font-family="Helvetica,sans-Serif" font-size="10.00">+ GetSiteStationaryEntropy()</text>
<text text-anchor="start" x="284.5" y="-891" font-family="Helvetica,sans-Serif" font-size="10.00">+ UpdateSiteProfileSuffStat()</text>
<text text-anchor="start" x="284.5" y="-880" font-family="Helvetica,sans-Serif" font-size="10.00">+ GlobalUpdateSiteProfileSuffStat()</text>
<text text-anchor="start" x="284.5" y="-869" font-family="Helvetica,sans-Serif" font-size="10.00">+ SlaveUpdateSiteProfileSuffStat()</text>
<text text-anchor="start" x="284.5" y="-858" font-family="Helvetica,sans-Serif" font-size="10.00">+ GlobalUpdateParameters()</text>
<text text-anchor="start" x="284.5" y="-847" font-family="Helvetica,sans-Serif" font-size="10.00">+ SlaveUpdateParameters()</text>
<text text-anchor="start" x="284.5" y="-836" font-family="Helvetica,sans-Serif" font-size="10.00">+ ProfileSuffStatLogProb()</text>
<text text-anchor="start" x="284.5" y="-825" font-family="Helvetica,sans-Serif" font-size="10.00">+ ToStream()</text>
<text text-anchor="start" x="284.5" y="-814" font-family="Helvetica,sans-Serif" font-size="10.00">+ FromStream()</text>
<text text-anchor="start" x="284.5" y="-803" font-family="Helvetica,sans-Serif" font-size="10.00">+ SetBurnin()</text>
<text text-anchor="start" x="284.5" y="-792" font-family="Helvetica,sans-Serif" font-size="10.00">+ isObserved()</text>
<text text-anchor="start" x="284.5" y="-781" font-family="Helvetica,sans-Serif" font-size="10.00">+ GetMinStat()</text>
<text text-anchor="start" x="284.5" y="-770" font-family="Helvetica,sans-Serif" font-size="10.00">+ GetMinMinStat()</text>
<text text-anchor="start" x="284.5" y="-759" font-family="Helvetica,sans-Serif" font-size="10.00"># DrawProfileFromPrior()</text>
<text text-anchor="start" x="284.5" y="-748" font-family="Helvetica,sans-Serif" font-size="10.00"># GetNormalizationFactor()</text>
<text text-anchor="start" x="284.5" y="-737" font-family="Helvetica,sans-Serif" font-size="10.00"># Create()</text>
<text text-anchor="start" x="284.5" y="-726" font-family="Helvetica,sans-Serif" font-size="10.00"># Delete()</text>
<text text-anchor="start" x="284.5" y="-715" font-family="Helvetica,sans-Serif" font-size="10.00"># GetNprocs()</text>
<text text-anchor="start" x="284.5" y="-704" font-family="Helvetica,sans-Serif" font-size="10.00"># GetMyid()</text>
<text text-anchor="start" x="284.5" y="-693" font-family="Helvetica,sans-Serif" font-size="10.00"># GetSiteMin()</text>
<text text-anchor="start" x="284.5" y="-682" font-family="Helvetica,sans-Serif" font-size="10.00"># GetSiteMax()</text>
<text text-anchor="start" x="284.5" y="-671" font-family="Helvetica,sans-Serif" font-size="10.00"># GetEmpiricalFreq()</text>
<text text-anchor="start" x="284.5" y="-660" font-family="Helvetica,sans-Serif" font-size="10.00"># GetMinTotWeight()</text>
<text text-anchor="start" x="284.5" y="-649" font-family="Helvetica,sans-Serif" font-size="10.00"># SetMinTotWeight()</text>
</a>
</g>
</g>
<!-- Node9&#45;&gt;Node8 -->
<g id="edge3" class="edge"><title>Node9&#45;&gt;Node8</title>
<path fill="none" stroke="midnightblue" d="M355.379,-631.609C354.294,-597.318 353.259,-564.631 352.424,-538.255"/>
<polygon fill="none" stroke="midnightblue" points="351.887,-631.922 355.702,-641.806 358.884,-631.7 351.887,-631.922"/>
</g>
<!-- Node14 -->
<g id="node9" class="node"><title>Node14</title>
<g id="a_node9"><a xlink:href="classOneProfileProcess.html" target="_top" xlink:title="{OneProfileProcess\n||+ OneProfileProcess()\l+ ~OneProfileProcess()\l+ GetProfile()\l+ GetMeanStationaryEntropy()\l+ GetSiteStationaryEntropy()\l+ GetNOccupiedComponent()\l+ GetStatEnt()\l+ Move()\l# Create()\l# Delete()\l# UpdateProfile()\l# SampleProfile()\l# SampleStat()\l# LogProfilePrior()\l}">
<polygon fill="none" stroke="black" points="0,-376.5 0,-576.5 149,-576.5 149,-376.5 0,-376.5"/>
<text text-anchor="middle" x="74.5" y="-564.5" font-family="Helvetica,sans-Serif" font-size="10.00">OneProfileProcess</text>
<polyline fill="none" stroke="black" points="0,-557.5 149,-557.5 "/>
<text text-anchor="middle" x="74.5" y="-545.5" font-family="Helvetica,sans-Serif" font-size="10.00"> </text>
<polyline fill="none" stroke="black" points="0,-538.5 149,-538.5 "/>
<text text-anchor="start" x="8" y="-526.5" font-family="Helvetica,sans-Serif" font-size="10.00">+ OneProfileProcess()</text>
<text text-anchor="start" x="8" y="-515.5" font-family="Helvetica,sans-Serif" font-size="10.00">+ ~OneProfileProcess()</text>
<text text-anchor="start" x="8" y="-504.5" font-family="Helvetica,sans-Serif" font-size="10.00">+ GetProfile()</text>
<text text-anchor="start" x="8" y="-493.5" font-family="Helvetica,sans-Serif" font-size="10.00">+ GetMeanStationaryEntropy()</text>
<text text-anchor="start" x="8" y="-482.5" font-family="Helvetica,sans-Serif" font-size="10.00">+ GetSiteStationaryEntropy()</text>
<text text-anchor="start" x="8" y="-471.5" font-family="Helvetica,sans-Serif" font-size="10.00">+ GetNOccupiedComponent()</text>
<text text-anchor="start" x="8" y="-460.5" font-family="Helvetica,sans-Serif" font-size="10.00">+ GetStatEnt()</text>
<text text-anchor="start" x="8" y="-449.5" font-family="Helvetica,sans-Serif" font-size="10.00">+ Move()</text>
<text text-anchor="start" x="8" y="-438.5" font-family="Helvetica,sans-Serif" font-size="10.00"># Create()</text>
<text text-anchor="start" x="8" y="-427.5" font-family="Helvetica,sans-Serif" font-size="10.00"># Delete()</text>
<text text-anchor="start" x="8" y="-416.5" font-family="Helvetica,sans-Serif" font-size="10.00"># UpdateProfile()</text>
<text text-anchor="start" x="8" y="-405.5" font-family="Helvetica,sans-Serif" font-size="10.00"># SampleProfile()</text>
<text text-anchor="start" x="8" y="-394.5" font-family="Helvetica,sans-Serif" font-size="10.00"># SampleStat()</text>
<text text-anchor="start" x="8" y="-383.5" font-family="Helvetica,sans-Serif" font-size="10.00"># LogProfilePrior()</text>
</a>
</g>
</g>
<!-- Node9&#45;&gt;Node14 -->
<g id="edge9" class="edge"><title>Node9&#45;&gt;Node14</title>
<path fill="none" stroke="midnightblue" d="M285.226,-633.591C279.711,-626.662 273.811,-620.096 267.5,-614 231.913,-579.623 203.539,-604.64 162.5,-577 157.909,-573.908 153.406,-570.522 149.014,-566.923"/>
<polygon fill="none" stroke="midnightblue" points="282.69,-636.038 291.526,-641.885 288.265,-631.805 282.69,-636.038"/>
</g>
<!-- Node10 -->
<g id="node5" class="node"><title>Node10</title>
<g id="a_node5"><a xlink:href="classChrono.html" target="_top" xlink:title="{Chrono\n||+ Chrono()\l+ ~Chrono()\l+ Reset()\l+ Start()\l+ Stop()\l+ ToStream()\l+ FromStream()\l+ operator++()\l+ GetTime()\l+ GetTimePerCount()\l+ GetCount()\l}">
<polygon fill="none" stroke="black" points="493.5,-1203.5 493.5,-1370.5 603.5,-1370.5 603.5,-1203.5 493.5,-1203.5"/>
<text text-anchor="middle" x="548.5" y="-1358.5" font-family="Helvetica,sans-Serif" font-size="10.00">Chrono</text>
<polyline fill="none" stroke="black" points="493.5,-1351.5 603.5,-1351.5 "/>
<text text-anchor="middle" x="548.5" y="-1339.5" font-family="Helvetica,sans-Serif" font-size="10.00"> </text>
<polyline fill="none" stroke="black" points="493.5,-1332.5 603.5,-1332.5 "/>
<text text-anchor="start" x="501.5" y="-1320.5" font-family="Helvetica,sans-Serif" font-size="10.00">+ Chrono()</text>
<text text-anchor="start" x="501.5" y="-1309.5" font-family="Helvetica,sans-Serif" font-size="10.00">+ ~Chrono()</text>
<text text-anchor="start" x="501.5" y="-1298.5" font-family="Helvetica,sans-Serif" font-size="10.00">+ Reset()</text>
<text text-anchor="start" x="501.5" y="-1287.5" font-family="Helvetica,sans-Serif" font-size="10.00">+ Start()</text>
<text text-anchor="start" x="501.5" y="-1276.5" font-family="Helvetica,sans-Serif" font-size="10.00">+ Stop()</text>
<text text-anchor="start" x="501.5" y="-1265.5" font-family="Helvetica,sans-Serif" font-size="10.00">+ ToStream()</text>
<text text-anchor="start" x="501.5" y="-1254.5" font-family="Helvetica,sans-Serif" font-size="10.00">+ FromStream()</text>
<text text-anchor="start" x="501.5" y="-1243.5" font-family="Helvetica,sans-Serif" font-size="10.00">+ operator++()</text>
<text text-anchor="start" x="501.5" y="-1232.5" font-family="Helvetica,sans-Serif" font-size="10.00">+ GetTime()</text>
<text text-anchor="start" x="501.5" y="-1221.5" font-family="Helvetica,sans-Serif" font-size="10.00">+ GetTimePerCount()</text>
<text text-anchor="start" x="501.5" y="-1210.5" font-family="Helvetica,sans-Serif" font-size="10.00">+ GetCount()</text>
</a>
</g>
</g>
<!-- Node10&#45;&gt;Node9 -->
<g id="edge4" class="edge"><title>Node10&#45;&gt;Node9</title>
<path fill="none" stroke="#404040" d="M534.718,-1203.45C528.836,-1176.06 520.881,-1145.75 510.5,-1119 495.427,-1080.16 475.299,-1040.13 454.754,-1003.45"/>
<polygon fill="none" stroke="#404040" points="454.574,-1003.13 448.137,-999.877 448.662,-992.685 455.099,-995.935 454.574,-1003.13"/>
<text text-anchor="middle" x="558" y="-1160.5" font-family="Helvetica,sans-Serif" font-size="10.00"> #chronostat</text>
<text text-anchor="middle" x="558" y="-1149.5" font-family="Helvetica,sans-Serif" font-size="10.00">#chronorr</text>
<text text-anchor="middle" x="558" y="-1138.5" font-family="Helvetica,sans-Serif" font-size="10.00">#chronodp</text>
</g>
<!-- Node11 -->
<g id="node6" class="node"><title>Node11</title>
<polygon fill="none" stroke="#bfbfbf" points="25,-1258.5 25,-1315.5 70,-1315.5 70,-1258.5 25,-1258.5"/>
<text text-anchor="middle" x="47.5" y="-1303.5" font-family="Helvetica,sans-Serif" font-size="10.00">double</text>
<polyline fill="none" stroke="#bfbfbf" points="25,-1296.5 70,-1296.5 "/>
<text text-anchor="middle" x="47.5" y="-1284.5" font-family="Helvetica,sans-Serif" font-size="10.00"> </text>
<polyline fill="none" stroke="#bfbfbf" points="25,-1277.5 70,-1277.5 "/>
<text text-anchor="middle" x="47.5" y="-1265.5" font-family="Helvetica,sans-Serif" font-size="10.00"> </text>
</g>
<!-- Node11&#45;&gt;Node9 -->
<g id="edge5" class="edge"><title>Node11&#45;&gt;Node9</title>
<path fill="none" stroke="#404040" d="M64.9118,-1258.18C77.1553,-1238.16 93.5903,-1210.33 106.5,-1185 121.049,-1156.45 109.919,-1138.29 135.5,-1119 182.773,-1083.35 220.961,-1137.6 267.5,-1101 274.586,-1095.43 281.144,-1089.25 287.214,-1082.6"/>
<polygon fill="none" stroke="#404040" points="287.404,-1082.38 288.255,-1075.22 295.192,-1073.25 294.341,-1080.41 287.404,-1082.38"/>
<text text-anchor="middle" x="167.5" y="-1149.5" font-family="Helvetica,sans-Serif" font-size="10.00"> #mintotweight</text>
</g>
<!-- Node11&#45;&gt;Node14 -->
<g id="edge10" class="edge"><title>Node11&#45;&gt;Node14</title>
<path fill="none" stroke="#404040" d="M44.001,-1258.19C41.6346,-1237.93 38.7254,-1209.81 37.5,-1185 36.0532,-1155.7 36.8905,-1148.33 37.5,-1119 42.1677,-894.41 40.7447,-837.936 58.5,-614 59.1537,-605.755 59.9238,-597.24 60.7667,-588.68"/>
<polygon fill="none" stroke="#404040" points="60.7841,-588.508 57.4138,-582.133 62.0023,-576.57 65.3725,-582.945 60.7841,-588.508"/>
<text text-anchor="middle" x="76" y="-855" font-family="Helvetica,sans-Serif" font-size="10.00"> #profile</text>
</g>
<!-- Node15 -->
<g id="node10" class="node"><title>Node15</title>
<g id="a_node10"><a xlink:href="classSubMatrix.html" target="_top" xlink:title="{SubMatrix\n||+ SubMatrix()\l+ ~SubMatrix()\l+ Create()\l+ operator()()\l+ GetRow()\l+ GetStationary()\l+ Stationary()\l+ GetNstate()\l+ GetRate()\l+ ScalarMul()\l+ isNormalised()\l+ Normalise()\l+ CorruptMatrix()\l+ UpdateMatrix()\l+ ActivatePowers()\l+ InactivatePowers()\l+ Power()\l+ GetUniformizationMu()\l+ GetEigenVal()\l+ GetEigenVect()\l+ GetInvEigenVect()\l+ GetFiniteTimeTransitionProb()\l+ DrawUniformizedTransition()\l+ DrawUniformizedSubstitution\lNumber()\l+ DrawOneStep()\l+ ToStream()\l+ CheckReversibility()\l+ GetDiagStat()\l+ GetUniSubCount()\l+ GetMeanUni()\l# ComputeExponential()\l# ComputeArray()\l# ComputeStationary()\l# UpdateRow()\l# UpdateStationary()\l# ComputePowers()\l# CreatePowers()\l# ArrayUpdated()\l# Diagonalise()\l}">
<polygon fill="none" stroke="black" points="102.5,-614.5 102.5,-1100.5 258.5,-1100.5 258.5,-614.5 102.5,-614.5"/>
<text text-anchor="middle" x="180.5" y="-1088.5" font-family="Helvetica,sans-Serif" font-size="10.00">SubMatrix</text>
<polyline fill="none" stroke="black" points="102.5,-1081.5 258.5,-1081.5 "/>
<text text-anchor="middle" x="180.5" y="-1069.5" font-family="Helvetica,sans-Serif" font-size="10.00"> </text>
<polyline fill="none" stroke="black" points="102.5,-1062.5 258.5,-1062.5 "/>
<text text-anchor="start" x="110.5" y="-1050.5" font-family="Helvetica,sans-Serif" font-size="10.00">+ SubMatrix()</text>
<text text-anchor="start" x="110.5" y="-1039.5" font-family="Helvetica,sans-Serif" font-size="10.00">+ ~SubMatrix()</text>
<text text-anchor="start" x="110.5" y="-1028.5" font-family="Helvetica,sans-Serif" font-size="10.00">+ Create()</text>
<text text-anchor="start" x="110.5" y="-1017.5" font-family="Helvetica,sans-Serif" font-size="10.00">+ operator()()</text>
<text text-anchor="start" x="110.5" y="-1006.5" font-family="Helvetica,sans-Serif" font-size="10.00">+ GetRow()</text>
<text text-anchor="start" x="110.5" y="-995.5" font-family="Helvetica,sans-Serif" font-size="10.00">+ GetStationary()</text>
<text text-anchor="start" x="110.5" y="-984.5" font-family="Helvetica,sans-Serif" font-size="10.00">+ Stationary()</text>
<text text-anchor="start" x="110.5" y="-973.5" font-family="Helvetica,sans-Serif" font-size="10.00">+ GetNstate()</text>
<text text-anchor="start" x="110.5" y="-962.5" font-family="Helvetica,sans-Serif" font-size="10.00">+ GetRate()</text>
<text text-anchor="start" x="110.5" y="-951.5" font-family="Helvetica,sans-Serif" font-size="10.00">+ ScalarMul()</text>
<text text-anchor="start" x="110.5" y="-940.5" font-family="Helvetica,sans-Serif" font-size="10.00">+ isNormalised()</text>
<text text-anchor="start" x="110.5" y="-929.5" font-family="Helvetica,sans-Serif" font-size="10.00">+ Normalise()</text>
<text text-anchor="start" x="110.5" y="-918.5" font-family="Helvetica,sans-Serif" font-size="10.00">+ CorruptMatrix()</text>
<text text-anchor="start" x="110.5" y="-907.5" font-family="Helvetica,sans-Serif" font-size="10.00">+ UpdateMatrix()</text>
<text text-anchor="start" x="110.5" y="-896.5" font-family="Helvetica,sans-Serif" font-size="10.00">+ ActivatePowers()</text>
<text text-anchor="start" x="110.5" y="-885.5" font-family="Helvetica,sans-Serif" font-size="10.00">+ InactivatePowers()</text>
<text text-anchor="start" x="110.5" y="-874.5" font-family="Helvetica,sans-Serif" font-size="10.00">+ Power()</text>
<text text-anchor="start" x="110.5" y="-863.5" font-family="Helvetica,sans-Serif" font-size="10.00">+ GetUniformizationMu()</text>
<text text-anchor="start" x="110.5" y="-852.5" font-family="Helvetica,sans-Serif" font-size="10.00">+ GetEigenVal()</text>
<text text-anchor="start" x="110.5" y="-841.5" font-family="Helvetica,sans-Serif" font-size="10.00">+ GetEigenVect()</text>
<text text-anchor="start" x="110.5" y="-830.5" font-family="Helvetica,sans-Serif" font-size="10.00">+ GetInvEigenVect()</text>
<text text-anchor="start" x="110.5" y="-819.5" font-family="Helvetica,sans-Serif" font-size="10.00">+ GetFiniteTimeTransitionProb()</text>
<text text-anchor="start" x="110.5" y="-808.5" font-family="Helvetica,sans-Serif" font-size="10.00">+ DrawUniformizedTransition()</text>
<text text-anchor="start" x="110.5" y="-797.5" font-family="Helvetica,sans-Serif" font-size="10.00">+ DrawUniformizedSubstitution</text>
<text text-anchor="start" x="110.5" y="-786.5" font-family="Helvetica,sans-Serif" font-size="10.00">Number()</text>
<text text-anchor="start" x="110.5" y="-775.5" font-family="Helvetica,sans-Serif" font-size="10.00">+ DrawOneStep()</text>
<text text-anchor="start" x="110.5" y="-764.5" font-family="Helvetica,sans-Serif" font-size="10.00">+ ToStream()</text>
<text text-anchor="start" x="110.5" y="-753.5" font-family="Helvetica,sans-Serif" font-size="10.00">+ CheckReversibility()</text>
<text text-anchor="start" x="110.5" y="-742.5" font-family="Helvetica,sans-Serif" font-size="10.00">+ GetDiagStat()</text>
<text text-anchor="start" x="110.5" y="-731.5" font-family="Helvetica,sans-Serif" font-size="10.00">+ GetUniSubCount()</text>
<text text-anchor="start" x="110.5" y="-720.5" font-family="Helvetica,sans-Serif" font-size="10.00">+ GetMeanUni()</text>
<text text-anchor="start" x="110.5" y="-709.5" font-family="Helvetica,sans-Serif" font-size="10.00"># ComputeExponential()</text>
<text text-anchor="start" x="110.5" y="-698.5" font-family="Helvetica,sans-Serif" font-size="10.00"># ComputeArray()</text>
<text text-anchor="start" x="110.5" y="-687.5" font-family="Helvetica,sans-Serif" font-size="10.00"># ComputeStationary()</text>
<text text-anchor="start" x="110.5" y="-676.5" font-family="Helvetica,sans-Serif" font-size="10.00"># UpdateRow()</text>
<text text-anchor="start" x="110.5" y="-665.5" font-family="Helvetica,sans-Serif" font-size="10.00"># UpdateStationary()</text>
<text text-anchor="start" x="110.5" y="-654.5" font-family="Helvetica,sans-Serif" font-size="10.00"># ComputePowers()</text>
<text text-anchor="start" x="110.5" y="-643.5" font-family="Helvetica,sans-Serif" font-size="10.00"># CreatePowers()</text>
<text text-anchor="start" x="110.5" y="-632.5" font-family="Helvetica,sans-Serif" font-size="10.00"># ArrayUpdated()</text>
<text text-anchor="start" x="110.5" y="-621.5" font-family="Helvetica,sans-Serif" font-size="10.00"># Diagonalise()</text>
</a>
</g>
</g>
<!-- Node11&#45;&gt;Node15 -->
<g id="edge12" class="edge"><title>Node11&#45;&gt;Node15</title>
<path fill="none" stroke="#404040" d="M43.8367,-1258.34C40.2678,-1224.83 36.9037,-1166.91 48.5,-1119 54.2027,-1095.44 74.0599,-1053.14 96.7025,-1009.38"/>
<polygon fill="none" stroke="#404040" points="96.8077,-1009.18 96.0336,-1002.01 102.354,-998.541 103.128,-1005.71 96.8077,-1009.18"/>
<text text-anchor="middle" x="77.5" y="-1166" font-family="Helvetica,sans-Serif" font-size="10.00"> #UniMu</text>
<text text-anchor="middle" x="77.5" y="-1155" font-family="Helvetica,sans-Serif" font-size="10.00">#mStationary</text>
<text text-anchor="middle" x="77.5" y="-1144" font-family="Helvetica,sans-Serif" font-size="10.00">#Q</text>
<text text-anchor="middle" x="77.5" y="-1133" font-family="Helvetica,sans-Serif" font-size="10.00">#mPow</text>
</g>
<!-- Node12 -->
<g id="node7" class="node"><title>Node12</title>
<polygon fill="none" stroke="#bfbfbf" points="246,-1258.5 246,-1315.5 275,-1315.5 275,-1258.5 246,-1258.5"/>
<text text-anchor="middle" x="260.5" y="-1303.5" font-family="Helvetica,sans-Serif" font-size="10.00">int</text>
<polyline fill="none" stroke="#bfbfbf" points="246,-1296.5 275,-1296.5 "/>
<text text-anchor="middle" x="260.5" y="-1284.5" font-family="Helvetica,sans-Serif" font-size="10.00"> </text>
<polyline fill="none" stroke="#bfbfbf" points="246,-1277.5 275,-1277.5 "/>
<text text-anchor="middle" x="260.5" y="-1265.5" font-family="Helvetica,sans-Serif" font-size="10.00"> </text>
</g>
<!-- Node12&#45;&gt;Node9 -->
<g id="edge6" class="edge"><title>Node12&#45;&gt;Node9</title>
<path fill="none" stroke="#404040" d="M267.114,-1258.28C275.794,-1221.9 291.875,-1154.5 308.392,-1085.28"/>
<polygon fill="none" stroke="#404040" points="308.477,-1084.92 305.979,-1078.16 311.262,-1073.25 313.76,-1080.01 308.477,-1084.92"/>
<text text-anchor="middle" x="328.5" y="-1166" font-family="Helvetica,sans-Serif" font-size="10.00"> #dim</text>
<text text-anchor="middle" x="328.5" y="-1155" font-family="Helvetica,sans-Serif" font-size="10.00">#statinfcount</text>
<text text-anchor="middle" x="328.5" y="-1144" font-family="Helvetica,sans-Serif" font-size="10.00">#totstatcount</text>
<text text-anchor="middle" x="328.5" y="-1133" font-family="Helvetica,sans-Serif" font-size="10.00">#nsite</text>
</g>
<!-- Node12&#45;&gt;Node15 -->
<g id="edge13" class="edge"><title>Node12&#45;&gt;Node15</title>
<path fill="none" stroke="#404040" d="M245.83,-1258.52C235.905,-1238.66 223.392,-1210.87 216.5,-1185 210.319,-1161.8 205.197,-1137.39 200.953,-1112.81"/>
<polygon fill="none" stroke="#404040" points="200.913,-1112.57 195.981,-1107.31 198.94,-1100.73 203.872,-1105.99 200.913,-1112.57"/>
<text text-anchor="middle" x="250" y="-1177" font-family="Helvetica,sans-Serif" font-size="10.00"> +nunisubcount</text>
<text text-anchor="middle" x="250" y="-1166" font-family="Helvetica,sans-Serif" font-size="10.00">#Nstate</text>
<text text-anchor="middle" x="250" y="-1155" font-family="Helvetica,sans-Serif" font-size="10.00">+UniSubNmax</text>
<text text-anchor="middle" x="250" y="-1144" font-family="Helvetica,sans-Serif" font-size="10.00">#npow</text>
<text text-anchor="middle" x="250" y="-1133" font-family="Helvetica,sans-Serif" font-size="10.00">+nuni</text>
<text text-anchor="middle" x="250" y="-1122" font-family="Helvetica,sans-Serif" font-size="10.00">+nunimax</text>
</g>
<!-- Node13 -->
<g id="node8" class="node"><title>Node13</title>
<polygon fill="none" stroke="#bfbfbf" points="404,-1258.5 404,-1315.5 439,-1315.5 439,-1258.5 404,-1258.5"/>
<text text-anchor="middle" x="421.5" y="-1303.5" font-family="Helvetica,sans-Serif" font-size="10.00">bool</text>
<polyline fill="none" stroke="#bfbfbf" points="404,-1296.5 439,-1296.5 "/>
<text text-anchor="middle" x="421.5" y="-1284.5" font-family="Helvetica,sans-Serif" font-size="10.00"> </text>
<polyline fill="none" stroke="#bfbfbf" points="404,-1277.5 439,-1277.5 "/>
<text text-anchor="middle" x="421.5" y="-1265.5" font-family="Helvetica,sans-Serif" font-size="10.00"> </text>
</g>
<!-- Node13&#45;&gt;Node9 -->
<g id="edge7" class="edge"><title>Node13&#45;&gt;Node9</title>
<path fill="none" stroke="#404040" d="M426.397,-1258.24C429.71,-1238.01 433.782,-1209.9 435.5,-1185 437.519,-1155.74 439.495,-1148.06 435.5,-1119 433.969,-1107.86 432.086,-1096.53 429.931,-1085.14"/>
<polygon fill="none" stroke="#404040" points="429.908,-1085.02 424.824,-1079.91 427.589,-1073.25 432.673,-1078.36 429.908,-1085.02"/>
<text text-anchor="middle" x="472.5" y="-1155" font-family="Helvetica,sans-Serif" font-size="10.00"> #activesuffstat</text>
<text text-anchor="middle" x="472.5" y="-1144" font-family="Helvetica,sans-Serif" font-size="10.00">#burnin</text>
</g>
<!-- Node13&#45;&gt;Node15 -->
<g id="edge14" class="edge"><title>Node13&#45;&gt;Node15</title>
<path fill="none" stroke="#404040" d="M410.73,-1258.24C402.96,-1238.01 392.329,-1209.9 383.5,-1185 373.165,-1155.86 384.764,-1139.37 361.5,-1119 329.496,-1090.98 299.82,-1128.65 267.5,-1101 267.404,-1100.92 267.309,-1100.84 267.214,-1100.75"/>
<polygon fill="none" stroke="#404040" points="267.445,-1100.97 260.325,-1099.82 258.643,-1092.81 265.763,-1093.96 267.445,-1100.97"/>
<text text-anchor="middle" x="407.5" y="-1171.5" font-family="Helvetica,sans-Serif" font-size="10.00"> #flagarray</text>
<text text-anchor="middle" x="407.5" y="-1160.5" font-family="Helvetica,sans-Serif" font-size="10.00">#diagflag</text>
<text text-anchor="middle" x="407.5" y="-1149.5" font-family="Helvetica,sans-Serif" font-size="10.00">#powflag</text>
<text text-anchor="middle" x="407.5" y="-1138.5" font-family="Helvetica,sans-Serif" font-size="10.00">#normalise</text>
<text text-anchor="middle" x="407.5" y="-1127.5" font-family="Helvetica,sans-Serif" font-size="10.00">#statflag</text>
</g>
<!-- Node14&#45;&gt;Node7 -->
<g id="edge8" class="edge"><title>Node14&#45;&gt;Node7</title>
<path fill="none" stroke="midnightblue" d="M128.794,-367.16C133.602,-357.564 138.418,-347.954 143.095,-338.623"/>
<polygon fill="none" stroke="midnightblue" points="125.541,-365.838 124.19,-376.346 131.799,-368.974 125.541,-365.838"/>
</g>
<!-- Node15&#45;&gt;Node7 -->
<g id="edge11" class="edge"><title>Node15&#45;&gt;Node7</title>
<path fill="none" stroke="#404040" d="M182.113,-614.417C182.728,-522.086 183.393,-422.123 183.865,-351.285"/>
<polygon fill="none" stroke="#404040" points="183.868,-350.847 179.908,-344.821 183.948,-338.848 187.908,-344.874 183.868,-350.847"/>
<text text-anchor="middle" x="202.5" y="-474" font-family="Helvetica,sans-Serif" font-size="10.00"> #matrix</text>
</g>
<!-- Node16&#45;&gt;Node6 -->
<g id="edge15" class="edge"><title>Node16&#45;&gt;Node6</title>
<path fill="none" stroke="midnightblue" d="M402.481,-179.35C415.319,-160.915 428.915,-141.389 441.227,-123.707"/>
<polygon fill="none" stroke="midnightblue" points="399.486,-177.527 396.644,-187.734 405.23,-181.527 399.486,-177.527"/>
</g>
<!-- Node17 -->
<g id="node12" class="node"><title>Node17</title>
<polygon fill="none" stroke="#bfbfbf" points="443.5,-226.5 443.5,-283.5 523.5,-283.5 523.5,-226.5 443.5,-226.5"/>
<text text-anchor="middle" x="483.5" y="-271.5" font-family="Helvetica,sans-Serif" font-size="10.00">map&lt; int, int &gt;</text>
<polyline fill="none" stroke="#bfbfbf" points="443.5,-264.5 523.5,-264.5 "/>
<text text-anchor="middle" x="483.5" y="-252.5" font-family="Helvetica,sans-Serif" font-size="10.00"> </text>
<polyline fill="none" stroke="#bfbfbf" points="443.5,-245.5 523.5,-245.5 "/>
<text text-anchor="middle" x="483.5" y="-233.5" font-family="Helvetica,sans-Serif" font-size="10.00"> </text>
</g>
<!-- Node17&#45;&gt;Node6 -->
<g id="edge17" class="edge"><title>Node17&#45;&gt;Node6</title>
<path fill="none" stroke="#404040" d="M483.5,-226.227C483.5,-202.57 483.5,-167.49 483.5,-135.907"/>
<polygon fill="none" stroke="#404040" points="483.5,-135.549 479.5,-129.549 483.5,-123.549 487.5,-129.549 483.5,-135.549"/>
<text text-anchor="middle" x="521.5" y="-145" font-family="Helvetica,sans-Serif" font-size="10.00"> #profilerootcount</text>
</g>
<!-- Node18 -->
<g id="node13" class="node"><title>Node18</title>
<polygon fill="none" stroke="#bfbfbf" points="541.5,-226.5 541.5,-283.5 639.5,-283.5 639.5,-226.5 541.5,-226.5"/>
<text text-anchor="middle" x="590.5" y="-271.5" font-family="Helvetica,sans-Serif" font-size="10.00">map&lt; int, double &gt;</text>
<polyline fill="none" stroke="#bfbfbf" points="541.5,-264.5 639.5,-264.5 "/>
<text text-anchor="middle" x="590.5" y="-252.5" font-family="Helvetica,sans-Serif" font-size="10.00"> </text>
<polyline fill="none" stroke="#bfbfbf" points="541.5,-245.5 639.5,-245.5 "/>
<text text-anchor="middle" x="590.5" y="-233.5" font-family="Helvetica,sans-Serif" font-size="10.00"> </text>
</g>
<!-- Node18&#45;&gt;Node6 -->
<g id="edge18" class="edge"><title>Node18&#45;&gt;Node6</title>
<path fill="none" stroke="#404040" d="M588.095,-226.203C585.077,-202.539 578.353,-168.298 563.5,-142 561.891,-139.15 560.149,-136.335 558.299,-133.562"/>
<polygon fill="none" stroke="#404040" points="558.21,-133.439 551.451,-130.926 551.172,-123.72 557.931,-126.234 558.21,-133.439"/>
<text text-anchor="middle" x="611" y="-145" font-family="Helvetica,sans-Serif" font-size="10.00"> #profilewaitingtime</text>
</g>
<!-- Node19 -->
<g id="node14" class="node"><title>Node19</title>
<polygon fill="none" stroke="#bfbfbf" points="657.5,-221 657.5,-289 753.5,-289 753.5,-221 657.5,-221"/>
<text text-anchor="start" x="665.5" y="-277" font-family="Helvetica,sans-Serif" font-size="10.00">map&lt; pair&lt; int, int</text>
<text text-anchor="middle" x="705.5" y="-266" font-family="Helvetica,sans-Serif" font-size="10.00"> &gt;, int &gt;</text>
<polyline fill="none" stroke="#bfbfbf" points="657.5,-259 753.5,-259 "/>
<text text-anchor="middle" x="705.5" y="-247" font-family="Helvetica,sans-Serif" font-size="10.00"> </text>
<polyline fill="none" stroke="#bfbfbf" points="657.5,-240 753.5,-240 "/>
<text text-anchor="middle" x="705.5" y="-228" font-family="Helvetica,sans-Serif" font-size="10.00"> </text>
</g>
<!-- Node19&#45;&gt;Node6 -->
<g id="edge19" class="edge"><title>Node19&#45;&gt;Node6</title>
<path fill="none" stroke="#404040" d="M698.213,-220.945C691.334,-196.485 678.81,-163.769 657.5,-142 633.42,-117.402 600.276,-99.7654 569.372,-87.4886"/>
<polygon fill="none" stroke="#404040" points="569.324,-87.4706 562.294,-89.0766 558.108,-83.2051 565.138,-81.5991 569.324,-87.4706"/>
<text text-anchor="middle" x="704" y="-145" font-family="Helvetica,sans-Serif" font-size="10.00"> #profilepaircount</text>
</g>
</g>
</svg>
