<?xml version="1.0" encoding="UTF-8" standalone="no"?>
<!DOCTYPE svg PUBLIC "-//W3C//DTD SVG 1.1//EN"
 "http://www.w3.org/Graphics/SVG/1.1/DTD/svg11.dtd">
<!-- Generated by graphviz version 2.38.0 (20140413.2041)
 -->
<!-- Title: CodonMutSelProfileSubMatrix Pages: 1 -->
<svg width="613pt" height="1053pt"
 viewBox="0.00 0.00 613.00 1053.00" xmlns="http://www.w3.org/2000/svg" xmlns:xlink="http://www.w3.org/1999/xlink">
<g id="graph0" class="graph" transform="scale(1 1) rotate(0) translate(4 1049)">
<title>CodonMutSelProfileSubMatrix</title>
<!-- Node3 -->
<g id="node1" class="node"><title>Node3</title>
<polygon fill="#bfbfbf" stroke="black" points="0,-0.5 0,-101.5 163,-101.5 163,-0.5 0,-0.5"/>
<text text-anchor="middle" x="81.5" y="-89.5" font-family="Helvetica,sans-Serif" font-size="10.00">CodonMutSelProfileSubMatrix</text>
<polyline fill="none" stroke="black" points="0,-82.5 163,-82.5 "/>
<text text-anchor="middle" x="81.5" y="-70.5" font-family="Helvetica,sans-Serif" font-size="10.00"> </text>
<polyline fill="none" stroke="black" points="0,-63.5 163,-63.5 "/>
<text text-anchor="start" x="8" y="-51.5" font-family="Helvetica,sans-Serif" font-size="10.00">+ CodonMutSelProfileSubMatrix()</text>
<text text-anchor="start" x="8" y="-40.5" font-family="Helvetica,sans-Serif" font-size="10.00">+ GetCodonProfile()</text>
<text text-anchor="start" x="8" y="-29.5" font-family="Helvetica,sans-Serif" font-size="10.00"># ComputeArray()</text>
<text text-anchor="start" x="8" y="-18.5" font-family="Helvetica,sans-Serif" font-size="10.00"># ComputeStationary()</text>
<text text-anchor="start" x="8" y="-7.5" font-family="Helvetica,sans-Serif" font-size="10.00"># GetRate()</text>
</g>
<!-- Node4 -->
<g id="node2" class="node"><title>Node4</title>
<g id="a_node2"><a xlink:href="classCodonSubMatrix.html" target="_top" xlink:title="{CodonSubMatrix\n||+ CodonSubMatrix()\l+ GetCodonStateSpace()\l+ GetNstate()\l+ Synonymous()\l+ GetCodonPosition()\l+ GetDifferingPosition()\l+ GetNucRRIndex()\l# ComputeArray()\l# ComputeStationary()\l}">
<polygon fill="none" stroke="black" points="212,-139.5 212,-284.5 339,-284.5 339,-139.5 212,-139.5"/>
<text text-anchor="middle" x="275.5" y="-272.5" font-family="Helvetica,sans-Serif" font-size="10.00">CodonSubMatrix</text>
<polyline fill="none" stroke="black" points="212,-265.5 339,-265.5 "/>
<text text-anchor="middle" x="275.5" y="-253.5" font-family="Helvetica,sans-Serif" font-size="10.00"> </text>
<polyline fill="none" stroke="black" points="212,-246.5 339,-246.5 "/>
<text text-anchor="start" x="220" y="-234.5" font-family="Helvetica,sans-Serif" font-size="10.00">+ CodonSubMatrix()</text>
<text text-anchor="start" x="220" y="-223.5" font-family="Helvetica,sans-Serif" font-size="10.00">+ GetCodonStateSpace()</text>
<text text-anchor="start" x="220" y="-212.5" font-family="Helvetica,sans-Serif" font-size="10.00">+ GetNstate()</text>
<text text-anchor="start" x="220" y="-201.5" font-family="Helvetica,sans-Serif" font-size="10.00">+ Synonymous()</text>
<text text-anchor="start" x="220" y="-190.5" font-family="Helvetica,sans-Serif" font-size="10.00">+ GetCodonPosition()</text>
<text text-anchor="start" x="220" y="-179.5" font-family="Helvetica,sans-Serif" font-size="10.00">+ GetDifferingPosition()</text>
<text text-anchor="start" x="220" y="-168.5" font-family="Helvetica,sans-Serif" font-size="10.00">+ GetNucRRIndex()</text>
<text text-anchor="start" x="220" y="-157.5" font-family="Helvetica,sans-Serif" font-size="10.00"># ComputeArray()</text>
<text text-anchor="start" x="220" y="-146.5" font-family="Helvetica,sans-Serif" font-size="10.00"># ComputeStationary()</text>
</a>
</g>
</g>
<!-- Node4&#45;&gt;Node3 -->
<g id="edge1" class="edge"><title>Node4&#45;&gt;Node3</title>
<path fill="none" stroke="midnightblue" d="M203.988,-152.389C183.69,-135.753 161.789,-117.804 142.197,-101.746"/>
<polygon fill="none" stroke="midnightblue" points="202.024,-155.306 211.977,-158.937 206.462,-149.892 202.024,-155.306"/>
</g>
<!-- Node5 -->
<g id="node3" class="node"><title>Node5</title>
<g id="a_node3"><a xlink:href="classSubMatrix.html" target="_top" xlink:title="{SubMatrix\n||+ SubMatrix()\l+ ~SubMatrix()\l+ Create()\l+ operator()()\l+ GetRow()\l+ GetStationary()\l+ Stationary()\l+ GetNstate()\l+ GetRate()\l+ ScalarMul()\l+ isNormalised()\l+ Normalise()\l+ CorruptMatrix()\l+ UpdateMatrix()\l+ ActivatePowers()\l+ InactivatePowers()\l+ Power()\l+ GetUniformizationMu()\l+ GetEigenVal()\l+ GetEigenVect()\l+ GetInvEigenVect()\l+ GetFiniteTimeTransitionProb()\l+ DrawUniformizedTransition()\l+ DrawUniformizedSubstitution\lNumber()\l+ DrawOneStep()\l+ ToStream()\l+ CheckReversibility()\l+ GetDiagStat()\l+ GetUniSubCount()\l+ GetMeanUni()\l# ComputeExponential()\l# ComputeArray()\l# ComputeStationary()\l# UpdateRow()\l# UpdateStationary()\l# ComputePowers()\l# CreatePowers()\l# ArrayUpdated()\l# Diagonalise()\l}">
<polygon fill="none" stroke="black" points="197.5,-365.5 197.5,-851.5 353.5,-851.5 353.5,-365.5 197.5,-365.5"/>
<text text-anchor="middle" x="275.5" y="-839.5" font-family="Helvetica,sans-Serif" font-size="10.00">SubMatrix</text>
<polyline fill="none" stroke="black" points="197.5,-832.5 353.5,-832.5 "/>
<text text-anchor="middle" x="275.5" y="-820.5" font-family="Helvetica,sans-Serif" font-size="10.00"> </text>
<polyline fill="none" stroke="black" points="197.5,-813.5 353.5,-813.5 "/>
<text text-anchor="start" x="205.5" y="-801.5" font-family="Helvetica,sans-Serif" font-size="10.00">+ SubMatrix()</text>
<text text-anchor="start" x="205.5" y="-790.5" font-family="Helvetica,sans-Serif" font-size="10.00">+ ~SubMatrix()</text>
<text text-anchor="start" x="205.5" y="-779.5" font-family="Helvetica,sans-Serif" font-size="10.00">+ Create()</text>
<text text-anchor="start" x="205.5" y="-768.5" font-family="Helvetica,sans-Serif" font-size="10.00">+ operator()()</text>
<text text-anchor="start" x="205.5" y="-757.5" font-family="Helvetica,sans-Serif" font-size="10.00">+ GetRow()</text>
<text text-anchor="start" x="205.5" y="-746.5" font-family="Helvetica,sans-Serif" font-size="10.00">+ GetStationary()</text>
<text text-anchor="start" x="205.5" y="-735.5" font-family="Helvetica,sans-Serif" font-size="10.00">+ Stationary()</text>
<text text-anchor="start" x="205.5" y="-724.5" font-family="Helvetica,sans-Serif" font-size="10.00">+ GetNstate()</text>
<text text-anchor="start" x="205.5" y="-713.5" font-family="Helvetica,sans-Serif" font-size="10.00">+ GetRate()</text>
<text text-anchor="start" x="205.5" y="-702.5" font-family="Helvetica,sans-Serif" font-size="10.00">+ ScalarMul()</text>
<text text-anchor="start" x="205.5" y="-691.5" font-family="Helvetica,sans-Serif" font-size="10.00">+ isNormalised()</text>
<text text-anchor="start" x="205.5" y="-680.5" font-family="Helvetica,sans-Serif" font-size="10.00">+ Normalise()</text>
<text text-anchor="start" x="205.5" y="-669.5" font-family="Helvetica,sans-Serif" font-size="10.00">+ CorruptMatrix()</text>
<text text-anchor="start" x="205.5" y="-658.5" font-family="Helvetica,sans-Serif" font-size="10.00">+ UpdateMatrix()</text>
<text text-anchor="start" x="205.5" y="-647.5" font-family="Helvetica,sans-Serif" font-size="10.00">+ ActivatePowers()</text>
<text text-anchor="start" x="205.5" y="-636.5" font-family="Helvetica,sans-Serif" font-size="10.00">+ InactivatePowers()</text>
<text text-anchor="start" x="205.5" y="-625.5" font-family="Helvetica,sans-Serif" font-size="10.00">+ Power()</text>
<text text-anchor="start" x="205.5" y="-614.5" font-family="Helvetica,sans-Serif" font-size="10.00">+ GetUniformizationMu()</text>
<text text-anchor="start" x="205.5" y="-603.5" font-family="Helvetica,sans-Serif" font-size="10.00">+ GetEigenVal()</text>
<text text-anchor="start" x="205.5" y="-592.5" font-family="Helvetica,sans-Serif" font-size="10.00">+ GetEigenVect()</text>
<text text-anchor="start" x="205.5" y="-581.5" font-family="Helvetica,sans-Serif" font-size="10.00">+ GetInvEigenVect()</text>
<text text-anchor="start" x="205.5" y="-570.5" font-family="Helvetica,sans-Serif" font-size="10.00">+ GetFiniteTimeTransitionProb()</text>
<text text-anchor="start" x="205.5" y="-559.5" font-family="Helvetica,sans-Serif" font-size="10.00">+ DrawUniformizedTransition()</text>
<text text-anchor="start" x="205.5" y="-548.5" font-family="Helvetica,sans-Serif" font-size="10.00">+ DrawUniformizedSubstitution</text>
<text text-anchor="start" x="205.5" y="-537.5" font-family="Helvetica,sans-Serif" font-size="10.00">Number()</text>
<text text-anchor="start" x="205.5" y="-526.5" font-family="Helvetica,sans-Serif" font-size="10.00">+ DrawOneStep()</text>
<text text-anchor="start" x="205.5" y="-515.5" font-family="Helvetica,sans-Serif" font-size="10.00">+ ToStream()</text>
<text text-anchor="start" x="205.5" y="-504.5" font-family="Helvetica,sans-Serif" font-size="10.00">+ CheckReversibility()</text>
<text text-anchor="start" x="205.5" y="-493.5" font-family="Helvetica,sans-Serif" font-size="10.00">+ GetDiagStat()</text>
<text text-anchor="start" x="205.5" y="-482.5" font-family="Helvetica,sans-Serif" font-size="10.00">+ GetUniSubCount()</text>
<text text-anchor="start" x="205.5" y="-471.5" font-family="Helvetica,sans-Serif" font-size="10.00">+ GetMeanUni()</text>
<text text-anchor="start" x="205.5" y="-460.5" font-family="Helvetica,sans-Serif" font-size="10.00"># ComputeExponential()</text>
<text text-anchor="start" x="205.5" y="-449.5" font-family="Helvetica,sans-Serif" font-size="10.00"># ComputeArray()</text>
<text text-anchor="start" x="205.5" y="-438.5" font-family="Helvetica,sans-Serif" font-size="10.00"># ComputeStationary()</text>
<text text-anchor="start" x="205.5" y="-427.5" font-family="Helvetica,sans-Serif" font-size="10.00"># UpdateRow()</text>
<text text-anchor="start" x="205.5" y="-416.5" font-family="Helvetica,sans-Serif" font-size="10.00"># UpdateStationary()</text>
<text text-anchor="start" x="205.5" y="-405.5" font-family="Helvetica,sans-Serif" font-size="10.00"># ComputePowers()</text>
<text text-anchor="start" x="205.5" y="-394.5" font-family="Helvetica,sans-Serif" font-size="10.00"># CreatePowers()</text>
<text text-anchor="start" x="205.5" y="-383.5" font-family="Helvetica,sans-Serif" font-size="10.00"># ArrayUpdated()</text>
<text text-anchor="start" x="205.5" y="-372.5" font-family="Helvetica,sans-Serif" font-size="10.00"># Diagonalise()</text>
</a>
</g>
</g>
<!-- Node5&#45;&gt;Node4 -->
<g id="edge2" class="edge"><title>Node5&#45;&gt;Node4</title>
<path fill="none" stroke="midnightblue" d="M275.5,-355.057C275.5,-329.648 275.5,-305.567 275.5,-284.696"/>
<polygon fill="none" stroke="midnightblue" points="272,-355.242 275.5,-365.242 279,-355.242 272,-355.242"/>
</g>
<!-- Node6 -->
<g id="node4" class="node"><title>Node6</title>
<polygon fill="none" stroke="#bfbfbf" points="116,-971 116,-1028 161,-1028 161,-971 116,-971"/>
<text text-anchor="middle" x="138.5" y="-1016" font-family="Helvetica,sans-Serif" font-size="10.00">double</text>
<polyline fill="none" stroke="#bfbfbf" points="116,-1009 161,-1009 "/>
<text text-anchor="middle" x="138.5" y="-997" font-family="Helvetica,sans-Serif" font-size="10.00"> </text>
<polyline fill="none" stroke="#bfbfbf" points="116,-990 161,-990 "/>
<text text-anchor="middle" x="138.5" y="-978" font-family="Helvetica,sans-Serif" font-size="10.00"> </text>
</g>
<!-- Node6&#45;&gt;Node3 -->
<g id="edge11" class="edge"><title>Node6&#45;&gt;Node3</title>
<path fill="none" stroke="#404040" d="M125.527,-970.967C120.878,-960.241 115.942,-947.728 112.5,-936 101.82,-899.611 103.073,-889.512 97.5,-852 61.4309,-609.212 16.2293,-547.529 37.5,-303 43.1669,-237.852 56.9586,-164.257 67.6034,-113.689"/>
<polygon fill="none" stroke="#404040" points="67.6641,-113.404 65.0029,-106.702 70.166,-101.668 72.8271,-108.37 67.6641,-113.404"/>
<text text-anchor="middle" x="95" y="-339" font-family="Helvetica,sans-Serif" font-size="10.00"> #TOOLARGENEGATIVE</text>
<text text-anchor="middle" x="95" y="-328" font-family="Helvetica,sans-Serif" font-size="10.00">#TOOSMALL</text>
<text text-anchor="middle" x="95" y="-317" font-family="Helvetica,sans-Serif" font-size="10.00">#TOOLARGE</text>
<text text-anchor="middle" x="95" y="-306" font-family="Helvetica,sans-Serif" font-size="10.00">#codonprofile</text>
</g>
<!-- Node6&#45;&gt;Node4 -->
<g id="edge6" class="edge"><title>Node6&#45;&gt;Node4</title>
<path fill="none" stroke="#404040" d="M132.504,-970.749C114.216,-880.05 65.2297,-585.541 147.5,-365 159.42,-333.045 181.222,-303.103 203.496,-278.384"/>
<polygon fill="none" stroke="#404040" points="203.553,-278.324 204.695,-271.204 211.707,-269.52 210.564,-276.64 203.553,-278.324"/>
<text text-anchor="middle" x="168" y="-611.5" font-family="Helvetica,sans-Serif" font-size="10.00"> #nucstat</text>
<text text-anchor="middle" x="168" y="-600.5" font-family="Helvetica,sans-Serif" font-size="10.00">#nucrr</text>
</g>
<!-- Node6&#45;&gt;Node5 -->
<g id="edge3" class="edge"><title>Node6&#45;&gt;Node5</title>
<path fill="none" stroke="#404040" d="M148.243,-970.836C158.352,-942.132 175.206,-894.277 193.393,-842.635"/>
<polygon fill="none" stroke="#404040" points="193.43,-842.531 191.65,-835.543 197.416,-831.212 199.196,-838.2 193.43,-842.531"/>
<text text-anchor="middle" x="212.5" y="-917" font-family="Helvetica,sans-Serif" font-size="10.00"> #UniMu</text>
<text text-anchor="middle" x="212.5" y="-906" font-family="Helvetica,sans-Serif" font-size="10.00">#mStationary</text>
<text text-anchor="middle" x="212.5" y="-895" font-family="Helvetica,sans-Serif" font-size="10.00">#Q</text>
<text text-anchor="middle" x="212.5" y="-884" font-family="Helvetica,sans-Serif" font-size="10.00">#mPow</text>
</g>
<!-- Node7 -->
<g id="node5" class="node"><title>Node7</title>
<polygon fill="none" stroke="#bfbfbf" points="438,-971 438,-1028 467,-1028 467,-971 438,-971"/>
<text text-anchor="middle" x="452.5" y="-1016" font-family="Helvetica,sans-Serif" font-size="10.00">int</text>
<polyline fill="none" stroke="#bfbfbf" points="438,-1009 467,-1009 "/>
<text text-anchor="middle" x="452.5" y="-997" font-family="Helvetica,sans-Serif" font-size="10.00"> </text>
<polyline fill="none" stroke="#bfbfbf" points="438,-990 467,-990 "/>
<text text-anchor="middle" x="452.5" y="-978" font-family="Helvetica,sans-Serif" font-size="10.00"> </text>
</g>
<!-- Node7&#45;&gt;Node5 -->
<g id="edge4" class="edge"><title>Node7&#45;&gt;Node5</title>
<path fill="none" stroke="#404040" d="M437.948,-971.597C423.591,-945.371 400.769,-904.511 379.5,-870 374.455,-861.815 371.9,-860.549 367.5,-852 364.612,-846.389 361.764,-840.665 358.962,-834.857"/>
<polygon fill="none" stroke="#404040" points="358.764,-834.44 352.581,-830.729 353.628,-823.595 359.811,-827.305 358.764,-834.44"/>
<text text-anchor="middle" x="450" y="-928" font-family="Helvetica,sans-Serif" font-size="10.00"> +nunisubcount</text>
<text text-anchor="middle" x="450" y="-917" font-family="Helvetica,sans-Serif" font-size="10.00">#Nstate</text>
<text text-anchor="middle" x="450" y="-906" font-family="Helvetica,sans-Serif" font-size="10.00">+UniSubNmax</text>
<text text-anchor="middle" x="450" y="-895" font-family="Helvetica,sans-Serif" font-size="10.00">#npow</text>
<text text-anchor="middle" x="450" y="-884" font-family="Helvetica,sans-Serif" font-size="10.00">+nuni</text>
<text text-anchor="middle" x="450" y="-873" font-family="Helvetica,sans-Serif" font-size="10.00">+nunimax</text>
</g>
<!-- Node9 -->
<g id="node7" class="node"><title>Node9</title>
<g id="a_node7"><a xlink:href="classCodonStateSpace.html" target="_top" xlink:title="{CodonStateSpace\n||+ CodonStateSpace()\l+ ~CodonStateSpace()\l+ GetNstate()\l+ GetState()\l+ GetState()\l+ GetDNAStateSpace()\l+ GetProteinStateSpace()\l+ GetCodonFromDNA()\l+ GetDifferingPosition()\l+ GetCodonPosition()\l+ IsNonCTNearest()\l+ Translation()\l+ Synonymous()\l+ TranslationWithStops()\l+ CheckStop()\l+ GetDegeneracy()\l+ GetNstop()\l+ GetStopPos1()\l+ GetStopPos2()\l+ GetStopPos3()\l}">
<polygon fill="none" stroke="black" points="459,-475.5 459,-741.5 588,-741.5 588,-475.5 459,-475.5"/>
<text text-anchor="middle" x="523.5" y="-729.5" font-family="Helvetica,sans-Serif" font-size="10.00">CodonStateSpace</text>
<polyline fill="none" stroke="black" points="459,-722.5 588,-722.5 "/>
<text text-anchor="middle" x="523.5" y="-710.5" font-family="Helvetica,sans-Serif" font-size="10.00"> </text>
<polyline fill="none" stroke="black" points="459,-703.5 588,-703.5 "/>
<text text-anchor="start" x="467" y="-691.5" font-family="Helvetica,sans-Serif" font-size="10.00">+ CodonStateSpace()</text>
<text text-anchor="start" x="467" y="-680.5" font-family="Helvetica,sans-Serif" font-size="10.00">+ ~CodonStateSpace()</text>
<text text-anchor="start" x="467" y="-669.5" font-family="Helvetica,sans-Serif" font-size="10.00">+ GetNstate()</text>
<text text-anchor="start" x="467" y="-658.5" font-family="Helvetica,sans-Serif" font-size="10.00">+ GetState()</text>
<text text-anchor="start" x="467" y="-647.5" font-family="Helvetica,sans-Serif" font-size="10.00">+ GetState()</text>
<text text-anchor="start" x="467" y="-636.5" font-family="Helvetica,sans-Serif" font-size="10.00">+ GetDNAStateSpace()</text>
<text text-anchor="start" x="467" y="-625.5" font-family="Helvetica,sans-Serif" font-size="10.00">+ GetProteinStateSpace()</text>
<text text-anchor="start" x="467" y="-614.5" font-family="Helvetica,sans-Serif" font-size="10.00">+ GetCodonFromDNA()</text>
<text text-anchor="start" x="467" y="-603.5" font-family="Helvetica,sans-Serif" font-size="10.00">+ GetDifferingPosition()</text>
<text text-anchor="start" x="467" y="-592.5" font-family="Helvetica,sans-Serif" font-size="10.00">+ GetCodonPosition()</text>
<text text-anchor="start" x="467" y="-581.5" font-family="Helvetica,sans-Serif" font-size="10.00">+ IsNonCTNearest()</text>
<text text-anchor="start" x="467" y="-570.5" font-family="Helvetica,sans-Serif" font-size="10.00">+ Translation()</text>
<text text-anchor="start" x="467" y="-559.5" font-family="Helvetica,sans-Serif" font-size="10.00">+ Synonymous()</text>
<text text-anchor="start" x="467" y="-548.5" font-family="Helvetica,sans-Serif" font-size="10.00">+ TranslationWithStops()</text>
<text text-anchor="start" x="467" y="-537.5" font-family="Helvetica,sans-Serif" font-size="10.00">+ CheckStop()</text>
<text text-anchor="start" x="467" y="-526.5" font-family="Helvetica,sans-Serif" font-size="10.00">+ GetDegeneracy()</text>
<text text-anchor="start" x="467" y="-515.5" font-family="Helvetica,sans-Serif" font-size="10.00">+ GetNstop()</text>
<text text-anchor="start" x="467" y="-504.5" font-family="Helvetica,sans-Serif" font-size="10.00">+ GetStopPos1()</text>
<text text-anchor="start" x="467" y="-493.5" font-family="Helvetica,sans-Serif" font-size="10.00">+ GetStopPos2()</text>
<text text-anchor="start" x="467" y="-482.5" font-family="Helvetica,sans-Serif" font-size="10.00">+ GetStopPos3()</text>
</a>
</g>
</g>
<!-- Node7&#45;&gt;Node9 -->
<g id="edge10" class="edge"><title>Node7&#45;&gt;Node9</title>
<path fill="none" stroke="#404040" d="M467.05,-979.63C475.385,-967.769 485.212,-951.773 490.5,-936 509.86,-878.257 518.806,-811.809 522.659,-753.993"/>
<polygon fill="none" stroke="#404040" points="522.673,-753.77 519.047,-747.537 523.406,-741.793 527.032,-748.026 522.673,-753.77"/>
<text text-anchor="middle" x="524" y="-900.5" font-family="Helvetica,sans-Serif" font-size="10.00"> +Npos</text>
</g>
<!-- Node8 -->
<g id="node6" class="node"><title>Node8</title>
<polygon fill="none" stroke="#bfbfbf" points="331,-971 331,-1028 366,-1028 366,-971 331,-971"/>
<text text-anchor="middle" x="348.5" y="-1016" font-family="Helvetica,sans-Serif" font-size="10.00">bool</text>
<polyline fill="none" stroke="#bfbfbf" points="331,-1009 366,-1009 "/>
<text text-anchor="middle" x="348.5" y="-997" font-family="Helvetica,sans-Serif" font-size="10.00"> </text>
<polyline fill="none" stroke="#bfbfbf" points="331,-990 366,-990 "/>
<text text-anchor="middle" x="348.5" y="-978" font-family="Helvetica,sans-Serif" font-size="10.00"> </text>
</g>
<!-- Node8&#45;&gt;Node4 -->
<g id="edge7" class="edge"><title>Node8&#45;&gt;Node4</title>
<path fill="none" stroke="#404040" d="M363.263,-970.987C368.183,-960.368 373.035,-947.922 375.5,-936 381.439,-907.274 375.877,-899.331 375.5,-870 372.611,-645.5 422.991,-581.216 362.5,-365 355.812,-341.094 344.542,-316.978 332.292,-295.215"/>
<polygon fill="none" stroke="#404040" points="332.233,-295.114 325.763,-291.929 326.215,-284.732 332.685,-287.917 332.233,-295.114"/>
<text text-anchor="middle" x="418" y="-606" font-family="Helvetica,sans-Serif" font-size="10.00"> #normalise</text>
</g>
<!-- Node8&#45;&gt;Node5 -->
<g id="edge5" class="edge"><title>Node8&#45;&gt;Node5</title>
<path fill="none" stroke="#404040" d="M338.087,-970.791C334.341,-960.043 330.342,-947.561 327.5,-936 321.76,-912.648 316.505,-888.196 311.732,-863.628"/>
<polygon fill="none" stroke="#404040" points="311.679,-863.349 306.624,-858.206 309.427,-851.562 314.482,-856.705 311.679,-863.349"/>
<text text-anchor="middle" x="351.5" y="-922.5" font-family="Helvetica,sans-Serif" font-size="10.00"> #flagarray</text>
<text text-anchor="middle" x="351.5" y="-911.5" font-family="Helvetica,sans-Serif" font-size="10.00">#diagflag</text>
<text text-anchor="middle" x="351.5" y="-900.5" font-family="Helvetica,sans-Serif" font-size="10.00">#powflag</text>
<text text-anchor="middle" x="351.5" y="-889.5" font-family="Helvetica,sans-Serif" font-size="10.00">#normalise</text>
<text text-anchor="middle" x="351.5" y="-878.5" font-family="Helvetica,sans-Serif" font-size="10.00">#statflag</text>
</g>
<!-- Node9&#45;&gt;Node4 -->
<g id="edge8" class="edge"><title>Node9&#45;&gt;Node4</title>
<path fill="none" stroke="#404040" d="M495.954,-475.165C478.008,-416.355 449.141,-349.962 403.5,-303 387.451,-286.487 367.997,-271.042 349.152,-257.768"/>
<polygon fill="none" stroke="#404040" points="348.957,-257.634 341.747,-257.525 339.074,-250.828 346.284,-250.936 348.957,-257.634"/>
<text text-anchor="middle" x="466" y="-322.5" font-family="Helvetica,sans-Serif" font-size="10.00"> #statespace</text>
</g>
<!-- Node10 -->
<g id="node8" class="node"><title>Node10</title>
<g id="a_node8"><a xlink:href="classStateSpace.html" target="_top" xlink:title="{StateSpace\n||+ ~StateSpace()\l+ GetState()\l+ GetNstate()\l+ GetState()\l}">
<polygon fill="none" stroke="black" points="516,-954.5 516,-1044.5 605,-1044.5 605,-954.5 516,-954.5"/>
<text text-anchor="middle" x="560.5" y="-1032.5" font-family="Helvetica,sans-Serif" font-size="10.00">StateSpace</text>
<polyline fill="none" stroke="black" points="516,-1025.5 605,-1025.5 "/>
<text text-anchor="middle" x="560.5" y="-1013.5" font-family="Helvetica,sans-Serif" font-size="10.00"> </text>
<polyline fill="none" stroke="black" points="516,-1006.5 605,-1006.5 "/>
<text text-anchor="start" x="524" y="-994.5" font-family="Helvetica,sans-Serif" font-size="10.00">+ ~StateSpace()</text>
<text text-anchor="start" x="524" y="-983.5" font-family="Helvetica,sans-Serif" font-size="10.00">+ GetState()</text>
<text text-anchor="start" x="524" y="-972.5" font-family="Helvetica,sans-Serif" font-size="10.00">+ GetNstate()</text>
<text text-anchor="start" x="524" y="-961.5" font-family="Helvetica,sans-Serif" font-size="10.00">+ GetState()</text>
</a>
</g>
</g>
<!-- Node10&#45;&gt;Node9 -->
<g id="edge9" class="edge"><title>Node10&#45;&gt;Node9</title>
<path fill="none" stroke="midnightblue" d="M555.337,-944.215C550.374,-892.039 542.678,-811.126 536.096,-741.925"/>
<polygon fill="none" stroke="midnightblue" points="551.86,-944.632 556.292,-954.255 558.829,-943.969 551.86,-944.632"/>
</g>
</g>
</svg>
