<?xml version="1.0" encoding="UTF-8" standalone="no"?>
<!DOCTYPE svg PUBLIC "-//W3C//DTD SVG 1.1//EN"
 "http://www.w3.org/Graphics/SVG/1.1/DTD/svg11.dtd">
<!-- Generated by graphviz version 2.38.0 (20140413.2041)
 -->
<!-- Title: AAMutSelDPSubstitutionProcess Pages: 1 -->
<svg width="723pt" height="1902pt"
 viewBox="0.00 0.00 722.50 1902.00" xmlns="http://www.w3.org/2000/svg" xmlns:xlink="http://www.w3.org/1999/xlink">
<g id="graph0" class="graph" transform="scale(1 1) rotate(0) translate(4 1898)">
<title>AAMutSelDPSubstitutionProcess</title>
<!-- Node13 -->
<g id="node1" class="node"><title>Node13</title>
<polygon fill="#bfbfbf" stroke="black" points="289,-0.5 289,-57.5 452,-57.5 452,-0.5 289,-0.5"/>
<text text-anchor="middle" x="370.5" y="-45.5" font-family="Helvetica,sans-Serif" font-size="10.00">AAMutSelDPSubstitutionProcess</text>
<polyline fill="none" stroke="black" points="289,-38.5 452,-38.5 "/>
<text text-anchor="middle" x="370.5" y="-26.5" font-family="Helvetica,sans-Serif" font-size="10.00"> </text>
<polyline fill="none" stroke="black" points="289,-19.5 452,-19.5 "/>
<text text-anchor="middle" x="370.5" y="-7.5" font-family="Helvetica,sans-Serif" font-size="10.00"> </text>
</g>
<!-- Node14 -->
<g id="node2" class="node"><title>Node14</title>
<g id="a_node2"><a xlink:href="classAAMutSelDPProfileProcess.html" target="_top" xlink:title="{AAMutSelDPProfileProcess\n||}">
<polygon fill="none" stroke="black" points="141,-95.5 141,-152.5 280,-152.5 280,-95.5 141,-95.5"/>
<text text-anchor="middle" x="210.5" y="-140.5" font-family="Helvetica,sans-Serif" font-size="10.00">AAMutSelDPProfileProcess</text>
<polyline fill="none" stroke="black" points="141,-133.5 280,-133.5 "/>
<text text-anchor="middle" x="210.5" y="-121.5" font-family="Helvetica,sans-Serif" font-size="10.00"> </text>
<polyline fill="none" stroke="black" points="141,-114.5 280,-114.5 "/>
<text text-anchor="middle" x="210.5" y="-102.5" font-family="Helvetica,sans-Serif" font-size="10.00"> </text>
</a>
</g>
</g>
<!-- Node14&#45;&gt;Node13 -->
<g id="edge1" class="edge"><title>Node14&#45;&gt;Node13</title>
<path fill="none" stroke="midnightblue" d="M266.923,-90.2043C285.289,-79.5289 305.476,-67.7954 323.111,-57.5447"/>
<polygon fill="none" stroke="midnightblue" points="264.959,-87.2974 258.072,-95.3487 268.477,-93.3494 264.959,-87.2974"/>
</g>
<!-- Node15 -->
<g id="node3" class="node"><title>Node15</title>
<g id="a_node3"><a xlink:href="classAAMutSelProfileProcess.html" target="_top" xlink:title="{AAMutSelProfileProcess\n||}">
<polygon fill="none" stroke="black" points="0,-229 0,-286 125,-286 125,-229 0,-229"/>
<text text-anchor="middle" x="62.5" y="-274" font-family="Helvetica,sans-Serif" font-size="10.00">AAMutSelProfileProcess</text>
<polyline fill="none" stroke="black" points="0,-267 125,-267 "/>
<text text-anchor="middle" x="62.5" y="-255" font-family="Helvetica,sans-Serif" font-size="10.00"> </text>
<polyline fill="none" stroke="black" points="0,-248 125,-248 "/>
<text text-anchor="middle" x="62.5" y="-236" font-family="Helvetica,sans-Serif" font-size="10.00"> </text>
</a>
</g>
</g>
<!-- Node15&#45;&gt;Node14 -->
<g id="edge2" class="edge"><title>Node15&#45;&gt;Node14</title>
<path fill="none" stroke="midnightblue" d="M99.5523,-221.776C110.706,-211.46 123.03,-200.195 134.5,-190 148.515,-177.543 164.231,-164.028 177.719,-152.565"/>
<polygon fill="none" stroke="midnightblue" points="96.9944,-219.375 92.0428,-228.742 101.755,-224.507 96.9944,-219.375"/>
</g>
<!-- Node16 -->
<g id="node4" class="node"><title>Node16</title>
<g id="a_node4"><a xlink:href="classGeneralPathSuffStatMatrixProfileProcess.html" target="_top" xlink:title="{GeneralPathSuffStatMatrix\lProfileProcess\n||+ GeneralPathSuffStatMatrix\lProfileProcess()\l+ ~GeneralPathSuffStatMatrix\lProfileProcess()\l+ GetSitePairCount()\l+ GetSiteWaitingTime()\l+ GetSiteRootState()\l}">
<polygon fill="none" stroke="black" points="125,-373.5 125,-507.5 274,-507.5 274,-373.5 125,-373.5"/>
<text text-anchor="start" x="133" y="-495.5" font-family="Helvetica,sans-Serif" font-size="10.00">GeneralPathSuffStatMatrix</text>
<text text-anchor="middle" x="199.5" y="-484.5" font-family="Helvetica,sans-Serif" font-size="10.00">ProfileProcess</text>
<polyline fill="none" stroke="black" points="125,-477.5 274,-477.5 "/>
<text text-anchor="middle" x="199.5" y="-465.5" font-family="Helvetica,sans-Serif" font-size="10.00"> </text>
<polyline fill="none" stroke="black" points="125,-458.5 274,-458.5 "/>
<text text-anchor="start" x="133" y="-446.5" font-family="Helvetica,sans-Serif" font-size="10.00">+ GeneralPathSuffStatMatrix</text>
<text text-anchor="start" x="133" y="-435.5" font-family="Helvetica,sans-Serif" font-size="10.00">ProfileProcess()</text>
<text text-anchor="start" x="133" y="-424.5" font-family="Helvetica,sans-Serif" font-size="10.00">+ ~GeneralPathSuffStatMatrix</text>
<text text-anchor="start" x="133" y="-413.5" font-family="Helvetica,sans-Serif" font-size="10.00">ProfileProcess()</text>
<text text-anchor="start" x="133" y="-402.5" font-family="Helvetica,sans-Serif" font-size="10.00">+ GetSitePairCount()</text>
<text text-anchor="start" x="133" y="-391.5" font-family="Helvetica,sans-Serif" font-size="10.00">+ GetSiteWaitingTime()</text>
<text text-anchor="start" x="133" y="-380.5" font-family="Helvetica,sans-Serif" font-size="10.00">+ GetSiteRootState()</text>
</a>
</g>
</g>
<!-- Node16&#45;&gt;Node15 -->
<g id="edge3" class="edge"><title>Node16&#45;&gt;Node15</title>
<path fill="none" stroke="midnightblue" d="M143.256,-365.192C122.124,-337.274 99.3848,-307.231 83.4372,-286.162"/>
<polygon fill="none" stroke="midnightblue" points="140.632,-367.525 149.458,-373.387 146.214,-363.301 140.632,-367.525"/>
</g>
<!-- Node26 -->
<g id="node14" class="node"><title>Node26</title>
<g id="a_node14"><a xlink:href="classGeneralPathSuffStatMatrixSubstitutionProcess.html" target="_top" xlink:title="{GeneralPathSuffStatMatrix\lSubstitutionProcess\n||+ GeneralPathSuffStatMatrix\lSubstitutionProcess()\l+ ~GeneralPathSuffStatMatrix\lSubstitutionProcess()\l# AddBranchLengthSuffStat()\l# AddSiteRateSuffStat()\l# AddSiteProfileSuffStat()\l}">
<polygon fill="none" stroke="black" points="296,-190.5 296,-324.5 445,-324.5 445,-190.5 296,-190.5"/>
<text text-anchor="start" x="304" y="-312.5" font-family="Helvetica,sans-Serif" font-size="10.00">GeneralPathSuffStatMatrix</text>
<text text-anchor="middle" x="370.5" y="-301.5" font-family="Helvetica,sans-Serif" font-size="10.00">SubstitutionProcess</text>
<polyline fill="none" stroke="black" points="296,-294.5 445,-294.5 "/>
<text text-anchor="middle" x="370.5" y="-282.5" font-family="Helvetica,sans-Serif" font-size="10.00"> </text>
<polyline fill="none" stroke="black" points="296,-275.5 445,-275.5 "/>
<text text-anchor="start" x="304" y="-263.5" font-family="Helvetica,sans-Serif" font-size="10.00">+ GeneralPathSuffStatMatrix</text>
<text text-anchor="start" x="304" y="-252.5" font-family="Helvetica,sans-Serif" font-size="10.00">SubstitutionProcess()</text>
<text text-anchor="start" x="304" y="-241.5" font-family="Helvetica,sans-Serif" font-size="10.00">+ ~GeneralPathSuffStatMatrix</text>
<text text-anchor="start" x="304" y="-230.5" font-family="Helvetica,sans-Serif" font-size="10.00">SubstitutionProcess()</text>
<text text-anchor="start" x="304" y="-219.5" font-family="Helvetica,sans-Serif" font-size="10.00"># AddBranchLengthSuffStat()</text>
<text text-anchor="start" x="304" y="-208.5" font-family="Helvetica,sans-Serif" font-size="10.00"># AddSiteRateSuffStat()</text>
<text text-anchor="start" x="304" y="-197.5" font-family="Helvetica,sans-Serif" font-size="10.00"># AddSiteProfileSuffStat()</text>
</a>
</g>
</g>
<!-- Node16&#45;&gt;Node26 -->
<g id="edge24" class="edge"><title>Node16&#45;&gt;Node26</title>
<path fill="none" stroke="midnightblue" d="M269.049,-365.884C281.914,-352.266 295.279,-338.119 307.922,-324.737"/>
<polygon fill="none" stroke="midnightblue" points="266.284,-363.714 261.961,-373.387 271.372,-368.521 266.284,-363.714"/>
</g>
<!-- Node17 -->
<g id="node5" class="node"><title>Node17</title>
<g id="a_node5"><a xlink:href="classMatrixProfileProcess.html" target="_top" xlink:title="{MatrixProfileProcess\n||+ MatrixProfileProcess()\l+ ~MatrixProfileProcess()\l+ GetMatrix()\l# CreateMatrices()\l# DeleteMatrices()\l# ProfileProposeMove()\l# UpdateMatrices()\l}">
<polygon fill="none" stroke="black" points="146.5,-894 146.5,-1017 274.5,-1017 274.5,-894 146.5,-894"/>
<text text-anchor="middle" x="210.5" y="-1005" font-family="Helvetica,sans-Serif" font-size="10.00">MatrixProfileProcess</text>
<polyline fill="none" stroke="black" points="146.5,-998 274.5,-998 "/>
<text text-anchor="middle" x="210.5" y="-986" font-family="Helvetica,sans-Serif" font-size="10.00"> </text>
<polyline fill="none" stroke="black" points="146.5,-979 274.5,-979 "/>
<text text-anchor="start" x="154.5" y="-967" font-family="Helvetica,sans-Serif" font-size="10.00">+ MatrixProfileProcess()</text>
<text text-anchor="start" x="154.5" y="-956" font-family="Helvetica,sans-Serif" font-size="10.00">+ ~MatrixProfileProcess()</text>
<text text-anchor="start" x="154.5" y="-945" font-family="Helvetica,sans-Serif" font-size="10.00">+ GetMatrix()</text>
<text text-anchor="start" x="154.5" y="-934" font-family="Helvetica,sans-Serif" font-size="10.00"># CreateMatrices()</text>
<text text-anchor="start" x="154.5" y="-923" font-family="Helvetica,sans-Serif" font-size="10.00"># DeleteMatrices()</text>
<text text-anchor="start" x="154.5" y="-912" font-family="Helvetica,sans-Serif" font-size="10.00"># ProfileProposeMove()</text>
<text text-anchor="start" x="154.5" y="-901" font-family="Helvetica,sans-Serif" font-size="10.00"># UpdateMatrices()</text>
</a>
</g>
</g>
<!-- Node17&#45;&gt;Node16 -->
<g id="edge4" class="edge"><title>Node17&#45;&gt;Node16</title>
<path fill="none" stroke="midnightblue" d="M208.981,-883.638C206.848,-784.162 202.994,-604.466 200.918,-507.617"/>
<polygon fill="none" stroke="midnightblue" points="205.487,-883.968 209.2,-893.891 212.485,-883.818 205.487,-883.968"/>
</g>
<!-- Node27 -->
<g id="node15" class="node"><title>Node27</title>
<g id="a_node15"><a xlink:href="classMatrixSubstitutionProcess.html" target="_top" xlink:title="{MatrixSubstitutionProcess\n||+ MatrixSubstitutionProcess()\l+ ~MatrixSubstitutionProcess()\l+ GetNstate()\l+ GetStationary()\l# Propagate()\l# SamplePaths()\l# SampleRootPaths()\l# ResampleAcceptReject()\l# ResampleUniformized()\l# SimuPropagate()\l}">
<polygon fill="none" stroke="black" points="292.5,-362.5 292.5,-518.5 444.5,-518.5 444.5,-362.5 292.5,-362.5"/>
<text text-anchor="middle" x="368.5" y="-506.5" font-family="Helvetica,sans-Serif" font-size="10.00">MatrixSubstitutionProcess</text>
<polyline fill="none" stroke="black" points="292.5,-499.5 444.5,-499.5 "/>
<text text-anchor="middle" x="368.5" y="-487.5" font-family="Helvetica,sans-Serif" font-size="10.00"> </text>
<polyline fill="none" stroke="black" points="292.5,-480.5 444.5,-480.5 "/>
<text text-anchor="start" x="300.5" y="-468.5" font-family="Helvetica,sans-Serif" font-size="10.00">+ MatrixSubstitutionProcess()</text>
<text text-anchor="start" x="300.5" y="-457.5" font-family="Helvetica,sans-Serif" font-size="10.00">+ ~MatrixSubstitutionProcess()</text>
<text text-anchor="start" x="300.5" y="-446.5" font-family="Helvetica,sans-Serif" font-size="10.00">+ GetNstate()</text>
<text text-anchor="start" x="300.5" y="-435.5" font-family="Helvetica,sans-Serif" font-size="10.00">+ GetStationary()</text>
<text text-anchor="start" x="300.5" y="-424.5" font-family="Helvetica,sans-Serif" font-size="10.00"># Propagate()</text>
<text text-anchor="start" x="300.5" y="-413.5" font-family="Helvetica,sans-Serif" font-size="10.00"># SamplePaths()</text>
<text text-anchor="start" x="300.5" y="-402.5" font-family="Helvetica,sans-Serif" font-size="10.00"># SampleRootPaths()</text>
<text text-anchor="start" x="300.5" y="-391.5" font-family="Helvetica,sans-Serif" font-size="10.00"># ResampleAcceptReject()</text>
<text text-anchor="start" x="300.5" y="-380.5" font-family="Helvetica,sans-Serif" font-size="10.00"># ResampleUniformized()</text>
<text text-anchor="start" x="300.5" y="-369.5" font-family="Helvetica,sans-Serif" font-size="10.00"># SimuPropagate()</text>
</a>
</g>
</g>
<!-- Node17&#45;&gt;Node27 -->
<g id="edge23" class="edge"><title>Node17&#45;&gt;Node27</title>
<path fill="none" stroke="midnightblue" d="M232.12,-884.304C261.591,-788.616 314.194,-617.822 344.74,-518.646"/>
<polygon fill="none" stroke="midnightblue" points="228.766,-883.304 229.167,-893.891 235.456,-885.364 228.766,-883.304"/>
</g>
<!-- Node18 -->
<g id="node6" class="node"><title>Node18</title>
<g id="a_node6"><a xlink:href="classProfileProcess.html" target="_top" xlink:title="{ProfileProcess\n||+ ProfileProcess()\l+ ~ProfileProcess()\l+ GetVersion()\l+ GetStatInfCount()\l+ GetDim()\l+ GetNsite()\l+ GetProfile()\l+ GetStateSpace()\l+ LogProfilePrior()\l+ SampleProfile()\l+ GetMeanStationaryEntropy()\l+ GetSiteStationaryEntropy()\l+ UpdateSiteProfileSuffStat()\l+ GlobalUpdateSiteProfileSuffStat()\l+ SlaveUpdateSiteProfileSuffStat()\l+ GlobalUpdateParameters()\l+ SlaveUpdateParameters()\l+ ProfileSuffStatLogProb()\l+ ToStream()\l+ FromStream()\l+ SetBurnin()\l+ isObserved()\l+ GetMinStat()\l+ GetMinMinStat()\l# DrawProfileFromPrior()\l# GetNormalizationFactor()\l# Create()\l# Delete()\l# GetNprocs()\l# GetMyid()\l# GetSiteMin()\l# GetSiteMax()\l# GetEmpiricalFreq()\l# GetMinTotWeight()\l# SetMinTotWeight()\l}">
<polygon fill="none" stroke="black" points="179.5,-1214.5 179.5,-1645.5 351.5,-1645.5 351.5,-1214.5 179.5,-1214.5"/>
<text text-anchor="middle" x="265.5" y="-1633.5" font-family="Helvetica,sans-Serif" font-size="10.00">ProfileProcess</text>
<polyline fill="none" stroke="black" points="179.5,-1626.5 351.5,-1626.5 "/>
<text text-anchor="middle" x="265.5" y="-1614.5" font-family="Helvetica,sans-Serif" font-size="10.00"> </text>
<polyline fill="none" stroke="black" points="179.5,-1607.5 351.5,-1607.5 "/>
<text text-anchor="start" x="187.5" y="-1595.5" font-family="Helvetica,sans-Serif" font-size="10.00">+ ProfileProcess()</text>
<text text-anchor="start" x="187.5" y="-1584.5" font-family="Helvetica,sans-Serif" font-size="10.00">+ ~ProfileProcess()</text>
<text text-anchor="start" x="187.5" y="-1573.5" font-family="Helvetica,sans-Serif" font-size="10.00">+ GetVersion()</text>
<text text-anchor="start" x="187.5" y="-1562.5" font-family="Helvetica,sans-Serif" font-size="10.00">+ GetStatInfCount()</text>
<text text-anchor="start" x="187.5" y="-1551.5" font-family="Helvetica,sans-Serif" font-size="10.00">+ GetDim()</text>
<text text-anchor="start" x="187.5" y="-1540.5" font-family="Helvetica,sans-Serif" font-size="10.00">+ GetNsite()</text>
<text text-anchor="start" x="187.5" y="-1529.5" font-family="Helvetica,sans-Serif" font-size="10.00">+ GetProfile()</text>
<text text-anchor="start" x="187.5" y="-1518.5" font-family="Helvetica,sans-Serif" font-size="10.00">+ GetStateSpace()</text>
<text text-anchor="start" x="187.5" y="-1507.5" font-family="Helvetica,sans-Serif" font-size="10.00">+ LogProfilePrior()</text>
<text text-anchor="start" x="187.5" y="-1496.5" font-family="Helvetica,sans-Serif" font-size="10.00">+ SampleProfile()</text>
<text text-anchor="start" x="187.5" y="-1485.5" font-family="Helvetica,sans-Serif" font-size="10.00">+ GetMeanStationaryEntropy()</text>
<text text-anchor="start" x="187.5" y="-1474.5" font-family="Helvetica,sans-Serif" font-size="10.00">+ GetSiteStationaryEntropy()</text>
<text text-anchor="start" x="187.5" y="-1463.5" font-family="Helvetica,sans-Serif" font-size="10.00">+ UpdateSiteProfileSuffStat()</text>
<text text-anchor="start" x="187.5" y="-1452.5" font-family="Helvetica,sans-Serif" font-size="10.00">+ GlobalUpdateSiteProfileSuffStat()</text>
<text text-anchor="start" x="187.5" y="-1441.5" font-family="Helvetica,sans-Serif" font-size="10.00">+ SlaveUpdateSiteProfileSuffStat()</text>
<text text-anchor="start" x="187.5" y="-1430.5" font-family="Helvetica,sans-Serif" font-size="10.00">+ GlobalUpdateParameters()</text>
<text text-anchor="start" x="187.5" y="-1419.5" font-family="Helvetica,sans-Serif" font-size="10.00">+ SlaveUpdateParameters()</text>
<text text-anchor="start" x="187.5" y="-1408.5" font-family="Helvetica,sans-Serif" font-size="10.00">+ ProfileSuffStatLogProb()</text>
<text text-anchor="start" x="187.5" y="-1397.5" font-family="Helvetica,sans-Serif" font-size="10.00">+ ToStream()</text>
<text text-anchor="start" x="187.5" y="-1386.5" font-family="Helvetica,sans-Serif" font-size="10.00">+ FromStream()</text>
<text text-anchor="start" x="187.5" y="-1375.5" font-family="Helvetica,sans-Serif" font-size="10.00">+ SetBurnin()</text>
<text text-anchor="start" x="187.5" y="-1364.5" font-family="Helvetica,sans-Serif" font-size="10.00">+ isObserved()</text>
<text text-anchor="start" x="187.5" y="-1353.5" font-family="Helvetica,sans-Serif" font-size="10.00">+ GetMinStat()</text>
<text text-anchor="start" x="187.5" y="-1342.5" font-family="Helvetica,sans-Serif" font-size="10.00">+ GetMinMinStat()</text>
<text text-anchor="start" x="187.5" y="-1331.5" font-family="Helvetica,sans-Serif" font-size="10.00"># DrawProfileFromPrior()</text>
<text text-anchor="start" x="187.5" y="-1320.5" font-family="Helvetica,sans-Serif" font-size="10.00"># GetNormalizationFactor()</text>
<text text-anchor="start" x="187.5" y="-1309.5" font-family="Helvetica,sans-Serif" font-size="10.00"># Create()</text>
<text text-anchor="start" x="187.5" y="-1298.5" font-family="Helvetica,sans-Serif" font-size="10.00"># Delete()</text>
<text text-anchor="start" x="187.5" y="-1287.5" font-family="Helvetica,sans-Serif" font-size="10.00"># GetNprocs()</text>
<text text-anchor="start" x="187.5" y="-1276.5" font-family="Helvetica,sans-Serif" font-size="10.00"># GetMyid()</text>
<text text-anchor="start" x="187.5" y="-1265.5" font-family="Helvetica,sans-Serif" font-size="10.00"># GetSiteMin()</text>
<text text-anchor="start" x="187.5" y="-1254.5" font-family="Helvetica,sans-Serif" font-size="10.00"># GetSiteMax()</text>
<text text-anchor="start" x="187.5" y="-1243.5" font-family="Helvetica,sans-Serif" font-size="10.00"># GetEmpiricalFreq()</text>
<text text-anchor="start" x="187.5" y="-1232.5" font-family="Helvetica,sans-Serif" font-size="10.00"># GetMinTotWeight()</text>
<text text-anchor="start" x="187.5" y="-1221.5" font-family="Helvetica,sans-Serif" font-size="10.00"># SetMinTotWeight()</text>
</a>
</g>
</g>
<!-- Node18&#45;&gt;Node17 -->
<g id="edge5" class="edge"><title>Node18&#45;&gt;Node17</title>
<path fill="none" stroke="midnightblue" d="M239.314,-1204.03C231.3,-1135.19 223.137,-1065.07 217.556,-1017.12"/>
<polygon fill="none" stroke="midnightblue" points="235.862,-1204.65 240.495,-1214.18 242.815,-1203.84 235.862,-1204.65"/>
</g>
<!-- Node28 -->
<g id="node16" class="node"><title>Node28</title>
<g id="a_node16"><a xlink:href="classSubstitutionProcess.html" target="_top" xlink:title="{SubstitutionProcess\n||+ SubstitutionProcess()\l+ ~SubstitutionProcess()\l+ GetNsite()\l+ GetDim()\l+ GetNstate()\l+ GetGlobalNstate()\l+ GetStationary()\l+ GetSiteMin()\l+ GetSiteMax()\l+ GetInfProbCount()\l# Create()\l# Delete()\l# CreateConditionalLikelihood\lVector()\l# DeleteConditionalLikelihood\lVector()\l# CreateProbVector()\l# CreateCondSiteLogL()\l# DeleteCondSiteLogL()\l# DrawAllocations()\l# DrawAllocationsFromPrior()\l# Reset()\l# Multiply()\l# MultiplyByStationaries()\l# Offset()\l# Initialize()\l# ComputeLikelihood()\l# ConditionalLikelihoodsTo\lStatePostProbs()\l# Propagate()\l# SimuPropagate()\l# ChooseStates()\l# ChooseStatesAtEquilibrium()\l# SetCondToStates()\l# SamplePaths()\l# SampleRootPaths()\l}">
<polygon fill="none" stroke="black" points="293,-734.5 293,-1176.5 444,-1176.5 444,-734.5 293,-734.5"/>
<text text-anchor="middle" x="368.5" y="-1164.5" font-family="Helvetica,sans-Serif" font-size="10.00">SubstitutionProcess</text>
<polyline fill="none" stroke="black" points="293,-1157.5 444,-1157.5 "/>
<text text-anchor="middle" x="368.5" y="-1145.5" font-family="Helvetica,sans-Serif" font-size="10.00"> </text>
<polyline fill="none" stroke="black" points="293,-1138.5 444,-1138.5 "/>
<text text-anchor="start" x="301" y="-1126.5" font-family="Helvetica,sans-Serif" font-size="10.00">+ SubstitutionProcess()</text>
<text text-anchor="start" x="301" y="-1115.5" font-family="Helvetica,sans-Serif" font-size="10.00">+ ~SubstitutionProcess()</text>
<text text-anchor="start" x="301" y="-1104.5" font-family="Helvetica,sans-Serif" font-size="10.00">+ GetNsite()</text>
<text text-anchor="start" x="301" y="-1093.5" font-family="Helvetica,sans-Serif" font-size="10.00">+ GetDim()</text>
<text text-anchor="start" x="301" y="-1082.5" font-family="Helvetica,sans-Serif" font-size="10.00">+ GetNstate()</text>
<text text-anchor="start" x="301" y="-1071.5" font-family="Helvetica,sans-Serif" font-size="10.00">+ GetGlobalNstate()</text>
<text text-anchor="start" x="301" y="-1060.5" font-family="Helvetica,sans-Serif" font-size="10.00">+ GetStationary()</text>
<text text-anchor="start" x="301" y="-1049.5" font-family="Helvetica,sans-Serif" font-size="10.00">+ GetSiteMin()</text>
<text text-anchor="start" x="301" y="-1038.5" font-family="Helvetica,sans-Serif" font-size="10.00">+ GetSiteMax()</text>
<text text-anchor="start" x="301" y="-1027.5" font-family="Helvetica,sans-Serif" font-size="10.00">+ GetInfProbCount()</text>
<text text-anchor="start" x="301" y="-1016.5" font-family="Helvetica,sans-Serif" font-size="10.00"># Create()</text>
<text text-anchor="start" x="301" y="-1005.5" font-family="Helvetica,sans-Serif" font-size="10.00"># Delete()</text>
<text text-anchor="start" x="301" y="-994.5" font-family="Helvetica,sans-Serif" font-size="10.00"># CreateConditionalLikelihood</text>
<text text-anchor="start" x="301" y="-983.5" font-family="Helvetica,sans-Serif" font-size="10.00">Vector()</text>
<text text-anchor="start" x="301" y="-972.5" font-family="Helvetica,sans-Serif" font-size="10.00"># DeleteConditionalLikelihood</text>
<text text-anchor="start" x="301" y="-961.5" font-family="Helvetica,sans-Serif" font-size="10.00">Vector()</text>
<text text-anchor="start" x="301" y="-950.5" font-family="Helvetica,sans-Serif" font-size="10.00"># CreateProbVector()</text>
<text text-anchor="start" x="301" y="-939.5" font-family="Helvetica,sans-Serif" font-size="10.00"># CreateCondSiteLogL()</text>
<text text-anchor="start" x="301" y="-928.5" font-family="Helvetica,sans-Serif" font-size="10.00"># DeleteCondSiteLogL()</text>
<text text-anchor="start" x="301" y="-917.5" font-family="Helvetica,sans-Serif" font-size="10.00"># DrawAllocations()</text>
<text text-anchor="start" x="301" y="-906.5" font-family="Helvetica,sans-Serif" font-size="10.00"># DrawAllocationsFromPrior()</text>
<text text-anchor="start" x="301" y="-895.5" font-family="Helvetica,sans-Serif" font-size="10.00"># Reset()</text>
<text text-anchor="start" x="301" y="-884.5" font-family="Helvetica,sans-Serif" font-size="10.00"># Multiply()</text>
<text text-anchor="start" x="301" y="-873.5" font-family="Helvetica,sans-Serif" font-size="10.00"># MultiplyByStationaries()</text>
<text text-anchor="start" x="301" y="-862.5" font-family="Helvetica,sans-Serif" font-size="10.00"># Offset()</text>
<text text-anchor="start" x="301" y="-851.5" font-family="Helvetica,sans-Serif" font-size="10.00"># Initialize()</text>
<text text-anchor="start" x="301" y="-840.5" font-family="Helvetica,sans-Serif" font-size="10.00"># ComputeLikelihood()</text>
<text text-anchor="start" x="301" y="-829.5" font-family="Helvetica,sans-Serif" font-size="10.00"># ConditionalLikelihoodsTo</text>
<text text-anchor="start" x="301" y="-818.5" font-family="Helvetica,sans-Serif" font-size="10.00">StatePostProbs()</text>
<text text-anchor="start" x="301" y="-807.5" font-family="Helvetica,sans-Serif" font-size="10.00"># Propagate()</text>
<text text-anchor="start" x="301" y="-796.5" font-family="Helvetica,sans-Serif" font-size="10.00"># SimuPropagate()</text>
<text text-anchor="start" x="301" y="-785.5" font-family="Helvetica,sans-Serif" font-size="10.00"># ChooseStates()</text>
<text text-anchor="start" x="301" y="-774.5" font-family="Helvetica,sans-Serif" font-size="10.00"># ChooseStatesAtEquilibrium()</text>
<text text-anchor="start" x="301" y="-763.5" font-family="Helvetica,sans-Serif" font-size="10.00"># SetCondToStates()</text>
<text text-anchor="start" x="301" y="-752.5" font-family="Helvetica,sans-Serif" font-size="10.00"># SamplePaths()</text>
<text text-anchor="start" x="301" y="-741.5" font-family="Helvetica,sans-Serif" font-size="10.00"># SampleRootPaths()</text>
</a>
</g>
</g>
<!-- Node18&#45;&gt;Node28 -->
<g id="edge20" class="edge"><title>Node18&#45;&gt;Node28</title>
<path fill="none" stroke="midnightblue" d="M314.491,-1204.26C316.487,-1195.1 318.487,-1185.93 320.481,-1176.78"/>
<polygon fill="none" stroke="midnightblue" points="311.039,-1203.66 312.328,-1214.18 317.878,-1205.16 311.039,-1203.66"/>
</g>
<!-- Node19 -->
<g id="node7" class="node"><title>Node19</title>
<g id="a_node7"><a xlink:href="classChrono.html" target="_top" xlink:title="{Chrono\n||+ Chrono()\l+ ~Chrono()\l+ Reset()\l+ Start()\l+ Stop()\l+ ToStream()\l+ FromStream()\l+ operator++()\l+ GetTime()\l+ GetTimePerCount()\l+ GetCount()\l}">
<polygon fill="none" stroke="black" points="171.5,-1726.5 171.5,-1893.5 281.5,-1893.5 281.5,-1726.5 171.5,-1726.5"/>
<text text-anchor="middle" x="226.5" y="-1881.5" font-family="Helvetica,sans-Serif" font-size="10.00">Chrono</text>
<polyline fill="none" stroke="black" points="171.5,-1874.5 281.5,-1874.5 "/>
<text text-anchor="middle" x="226.5" y="-1862.5" font-family="Helvetica,sans-Serif" font-size="10.00"> </text>
<polyline fill="none" stroke="black" points="171.5,-1855.5 281.5,-1855.5 "/>
<text text-anchor="start" x="179.5" y="-1843.5" font-family="Helvetica,sans-Serif" font-size="10.00">+ Chrono()</text>
<text text-anchor="start" x="179.5" y="-1832.5" font-family="Helvetica,sans-Serif" font-size="10.00">+ ~Chrono()</text>
<text text-anchor="start" x="179.5" y="-1821.5" font-family="Helvetica,sans-Serif" font-size="10.00">+ Reset()</text>
<text text-anchor="start" x="179.5" y="-1810.5" font-family="Helvetica,sans-Serif" font-size="10.00">+ Start()</text>
<text text-anchor="start" x="179.5" y="-1799.5" font-family="Helvetica,sans-Serif" font-size="10.00">+ Stop()</text>
<text text-anchor="start" x="179.5" y="-1788.5" font-family="Helvetica,sans-Serif" font-size="10.00">+ ToStream()</text>
<text text-anchor="start" x="179.5" y="-1777.5" font-family="Helvetica,sans-Serif" font-size="10.00">+ FromStream()</text>
<text text-anchor="start" x="179.5" y="-1766.5" font-family="Helvetica,sans-Serif" font-size="10.00">+ operator++()</text>
<text text-anchor="start" x="179.5" y="-1755.5" font-family="Helvetica,sans-Serif" font-size="10.00">+ GetTime()</text>
<text text-anchor="start" x="179.5" y="-1744.5" font-family="Helvetica,sans-Serif" font-size="10.00">+ GetTimePerCount()</text>
<text text-anchor="start" x="179.5" y="-1733.5" font-family="Helvetica,sans-Serif" font-size="10.00">+ GetCount()</text>
</a>
</g>
</g>
<!-- Node19&#45;&gt;Node18 -->
<g id="edge6" class="edge"><title>Node19&#45;&gt;Node18</title>
<path fill="none" stroke="#404040" d="M218.534,-1726.36C218.12,-1720.15 217.766,-1713.98 217.5,-1708 216.631,-1688.46 215.517,-1683.45 217.5,-1664 217.712,-1661.92 217.935,-1659.82 218.168,-1657.72"/>
<polygon fill="none" stroke="#404040" points="218.19,-1657.54 214.926,-1651.11 219.606,-1645.62 222.87,-1652.05 218.19,-1657.54"/>
<text text-anchor="middle" x="245" y="-1694.5" font-family="Helvetica,sans-Serif" font-size="10.00"> #chronostat</text>
<text text-anchor="middle" x="245" y="-1683.5" font-family="Helvetica,sans-Serif" font-size="10.00">#chronorr</text>
<text text-anchor="middle" x="245" y="-1672.5" font-family="Helvetica,sans-Serif" font-size="10.00">#chronodp</text>
</g>
<!-- Node25 -->
<g id="node13" class="node"><title>Node25</title>
<g id="a_node13"><a xlink:href="classRateProcess.html" target="_top" xlink:title="{RateProcess\n||+ RateProcess()\l+ ~RateProcess()\l+ GetVersion()\l+ GetNsite()\l+ GetNrate()\l+ GetRate()\l+ GetRateWeight()\l+ GetMeanRate()\l+ GetPriorMeanRate()\l+ GetAlpha()\l+ ActivateSumOverRateAllocations()\l+ InactivateSumOverRateAllocations()\l+ SumOverRateAllocations()\l+ LogRatePrior()\l+ SampleRate()\l+ ToStream()\l+ FromStream()\l# GlobalUpdateSiteRateSuffStat()\l# SlaveUpdateSiteRateSuffStat()\l# UpdateSiteRateSuffStat()\l# GetSiteRateSuffStatBeta()\l# GetSiteRateSuffStatCount()\l# Create()\l# Delete()\l# GetNprocs()\l# GetMyid()\l# GetSiteMin()\l# GetSiteMax()\l}">
<polygon fill="none" stroke="black" points="371,-1253 371,-1607 556,-1607 556,-1253 371,-1253"/>
<text text-anchor="middle" x="463.5" y="-1595" font-family="Helvetica,sans-Serif" font-size="10.00">RateProcess</text>
<polyline fill="none" stroke="black" points="371,-1588 556,-1588 "/>
<text text-anchor="middle" x="463.5" y="-1576" font-family="Helvetica,sans-Serif" font-size="10.00"> </text>
<polyline fill="none" stroke="black" points="371,-1569 556,-1569 "/>
<text text-anchor="start" x="379" y="-1557" font-family="Helvetica,sans-Serif" font-size="10.00">+ RateProcess()</text>
<text text-anchor="start" x="379" y="-1546" font-family="Helvetica,sans-Serif" font-size="10.00">+ ~RateProcess()</text>
<text text-anchor="start" x="379" y="-1535" font-family="Helvetica,sans-Serif" font-size="10.00">+ GetVersion()</text>
<text text-anchor="start" x="379" y="-1524" font-family="Helvetica,sans-Serif" font-size="10.00">+ GetNsite()</text>
<text text-anchor="start" x="379" y="-1513" font-family="Helvetica,sans-Serif" font-size="10.00">+ GetNrate()</text>
<text text-anchor="start" x="379" y="-1502" font-family="Helvetica,sans-Serif" font-size="10.00">+ GetRate()</text>
<text text-anchor="start" x="379" y="-1491" font-family="Helvetica,sans-Serif" font-size="10.00">+ GetRateWeight()</text>
<text text-anchor="start" x="379" y="-1480" font-family="Helvetica,sans-Serif" font-size="10.00">+ GetMeanRate()</text>
<text text-anchor="start" x="379" y="-1469" font-family="Helvetica,sans-Serif" font-size="10.00">+ GetPriorMeanRate()</text>
<text text-anchor="start" x="379" y="-1458" font-family="Helvetica,sans-Serif" font-size="10.00">+ GetAlpha()</text>
<text text-anchor="start" x="379" y="-1447" font-family="Helvetica,sans-Serif" font-size="10.00">+ ActivateSumOverRateAllocations()</text>
<text text-anchor="start" x="379" y="-1436" font-family="Helvetica,sans-Serif" font-size="10.00">+ InactivateSumOverRateAllocations()</text>
<text text-anchor="start" x="379" y="-1425" font-family="Helvetica,sans-Serif" font-size="10.00">+ SumOverRateAllocations()</text>
<text text-anchor="start" x="379" y="-1414" font-family="Helvetica,sans-Serif" font-size="10.00">+ LogRatePrior()</text>
<text text-anchor="start" x="379" y="-1403" font-family="Helvetica,sans-Serif" font-size="10.00">+ SampleRate()</text>
<text text-anchor="start" x="379" y="-1392" font-family="Helvetica,sans-Serif" font-size="10.00">+ ToStream()</text>
<text text-anchor="start" x="379" y="-1381" font-family="Helvetica,sans-Serif" font-size="10.00">+ FromStream()</text>
<text text-anchor="start" x="379" y="-1370" font-family="Helvetica,sans-Serif" font-size="10.00"># GlobalUpdateSiteRateSuffStat()</text>
<text text-anchor="start" x="379" y="-1359" font-family="Helvetica,sans-Serif" font-size="10.00"># SlaveUpdateSiteRateSuffStat()</text>
<text text-anchor="start" x="379" y="-1348" font-family="Helvetica,sans-Serif" font-size="10.00"># UpdateSiteRateSuffStat()</text>
<text text-anchor="start" x="379" y="-1337" font-family="Helvetica,sans-Serif" font-size="10.00"># GetSiteRateSuffStatBeta()</text>
<text text-anchor="start" x="379" y="-1326" font-family="Helvetica,sans-Serif" font-size="10.00"># GetSiteRateSuffStatCount()</text>
<text text-anchor="start" x="379" y="-1315" font-family="Helvetica,sans-Serif" font-size="10.00"># Create()</text>
<text text-anchor="start" x="379" y="-1304" font-family="Helvetica,sans-Serif" font-size="10.00"># Delete()</text>
<text text-anchor="start" x="379" y="-1293" font-family="Helvetica,sans-Serif" font-size="10.00"># GetNprocs()</text>
<text text-anchor="start" x="379" y="-1282" font-family="Helvetica,sans-Serif" font-size="10.00"># GetMyid()</text>
<text text-anchor="start" x="379" y="-1271" font-family="Helvetica,sans-Serif" font-size="10.00"># GetSiteMin()</text>
<text text-anchor="start" x="379" y="-1260" font-family="Helvetica,sans-Serif" font-size="10.00"># GetSiteMax()</text>
</a>
</g>
</g>
<!-- Node19&#45;&gt;Node25 -->
<g id="edge13" class="edge"><title>Node19&#45;&gt;Node25</title>
<path fill="none" stroke="#404040" d="M281.753,-1778.92C309.554,-1761.39 341.854,-1737.01 363.5,-1708 367.065,-1703.22 381.307,-1665.15 397.972,-1618.69"/>
<polygon fill="none" stroke="#404040" points="397.981,-1618.66 396.236,-1611.67 402.023,-1607.37 403.768,-1614.36 397.981,-1618.66"/>
<text text-anchor="middle" x="408" y="-1683.5" font-family="Helvetica,sans-Serif" font-size="10.00"> #chronorate</text>
</g>
<!-- Node20 -->
<g id="node8" class="node"><title>Node20</title>
<polygon fill="none" stroke="#bfbfbf" points="96,-1781.5 96,-1838.5 141,-1838.5 141,-1781.5 96,-1781.5"/>
<text text-anchor="middle" x="118.5" y="-1826.5" font-family="Helvetica,sans-Serif" font-size="10.00">double</text>
<polyline fill="none" stroke="#bfbfbf" points="96,-1819.5 141,-1819.5 "/>
<text text-anchor="middle" x="118.5" y="-1807.5" font-family="Helvetica,sans-Serif" font-size="10.00"> </text>
<polyline fill="none" stroke="#bfbfbf" points="96,-1800.5 141,-1800.5 "/>
<text text-anchor="middle" x="118.5" y="-1788.5" font-family="Helvetica,sans-Serif" font-size="10.00"> </text>
</g>
<!-- Node20&#45;&gt;Node18 -->
<g id="edge7" class="edge"><title>Node20&#45;&gt;Node18</title>
<path fill="none" stroke="#404040" d="M119.962,-1781.43C122.506,-1751.18 129.467,-1701.91 148.5,-1664 153.303,-1654.43 158.608,-1654.94 164.5,-1646 167.453,-1641.52 170.366,-1636.94 173.237,-1632.29"/>
<polygon fill="none" stroke="#404040" points="173.257,-1632.25 172.928,-1625.05 179.451,-1621.98 179.78,-1629.18 173.257,-1632.25"/>
<text text-anchor="middle" x="180.5" y="-1683.5" font-family="Helvetica,sans-Serif" font-size="10.00"> #mintotweight</text>
</g>
<!-- Node20&#45;&gt;Node28 -->
<g id="edge21" class="edge"><title>Node20&#45;&gt;Node28</title>
<path fill="none" stroke="#404040" d="M106.896,-1781.37C70.0928,-1688.9 -33.5859,-1386.4 106.5,-1214 157.182,-1151.63 222.264,-1229.05 283.5,-1177 283.705,-1176.83 283.91,-1176.65 284.114,-1176.48"/>
<polygon fill="none" stroke="#404040" points="284.194,-1176.4 285.857,-1169.38 292.973,-1168.22 291.31,-1175.24 284.194,-1176.4"/>
<text text-anchor="middle" x="138.5" y="-1444" font-family="Helvetica,sans-Serif" font-size="10.00"> #condsitelogL</text>
<text text-anchor="middle" x="138.5" y="-1433" font-family="Helvetica,sans-Serif" font-size="10.00">#meansiterate</text>
<text text-anchor="middle" x="138.5" y="-1422" font-family="Helvetica,sans-Serif" font-size="10.00">#sitelogL</text>
<text text-anchor="middle" x="138.5" y="-1411" font-family="Helvetica,sans-Serif" font-size="10.00">#logL</text>
</g>
<!-- Node21 -->
<g id="node9" class="node"><title>Node21</title>
<polygon fill="none" stroke="#bfbfbf" points="596,-1781.5 596,-1838.5 625,-1838.5 625,-1781.5 596,-1781.5"/>
<text text-anchor="middle" x="610.5" y="-1826.5" font-family="Helvetica,sans-Serif" font-size="10.00">int</text>
<polyline fill="none" stroke="#bfbfbf" points="596,-1819.5 625,-1819.5 "/>
<text text-anchor="middle" x="610.5" y="-1807.5" font-family="Helvetica,sans-Serif" font-size="10.00"> </text>
<polyline fill="none" stroke="#bfbfbf" points="596,-1800.5 625,-1800.5 "/>
<text text-anchor="middle" x="610.5" y="-1788.5" font-family="Helvetica,sans-Serif" font-size="10.00"> </text>
</g>
<!-- Node21&#45;&gt;Node18 -->
<g id="edge8" class="edge"><title>Node21&#45;&gt;Node18</title>
<path fill="none" stroke="#404040" d="M595.771,-1792.79C578.373,-1773.31 548.96,-1739.32 526.5,-1708 513.13,-1689.35 518.754,-1676.48 499.5,-1664 447.595,-1630.36 411.102,-1682.95 361.5,-1646 361.285,-1645.84 361.07,-1645.68 360.856,-1645.52"/>
<polygon fill="none" stroke="#404040" points="360.811,-1645.48 353.635,-1644.77 351.532,-1637.87 358.708,-1638.58 360.811,-1645.48"/>
<text text-anchor="middle" x="555.5" y="-1700" font-family="Helvetica,sans-Serif" font-size="10.00"> #dim</text>
<text text-anchor="middle" x="555.5" y="-1689" font-family="Helvetica,sans-Serif" font-size="10.00">#statinfcount</text>
<text text-anchor="middle" x="555.5" y="-1678" font-family="Helvetica,sans-Serif" font-size="10.00">#totstatcount</text>
<text text-anchor="middle" x="555.5" y="-1667" font-family="Helvetica,sans-Serif" font-size="10.00">#nsite</text>
</g>
<!-- Node21&#45;&gt;Node25 -->
<g id="edge14" class="edge"><title>Node21&#45;&gt;Node25</title>
<path fill="none" stroke="#404040" d="M609.111,-1781.36C606.98,-1751.69 601.654,-1703.5 588.5,-1664 581.117,-1641.83 571.728,-1619.27 561.423,-1597.34"/>
<polygon fill="none" stroke="#404040" points="561.312,-1597.11 555.112,-1593.43 556.127,-1586.29 562.327,-1589.97 561.312,-1597.11"/>
<text text-anchor="middle" x="614.5" y="-1683.5" font-family="Helvetica,sans-Serif" font-size="10.00"> #nsite</text>
</g>
<!-- Node21&#45;&gt;Node28 -->
<g id="edge22" class="edge"><title>Node21&#45;&gt;Node28</title>
<path fill="none" stroke="#404040" d="M618.539,-1781.42C623.978,-1761.28 630.667,-1733.2 633.5,-1708 635.685,-1688.57 634.986,-1683.5 633.5,-1664 618.122,-1462.25 643.551,-1400.26 564.5,-1214 537.903,-1151.33 492.573,-1090.3 452.202,-1043.39"/>
<polygon fill="none" stroke="#404040" points="452.081,-1043.26 445.124,-1041.36 444.201,-1034.21 451.157,-1036.1 452.081,-1043.26"/>
<text text-anchor="middle" x="673.5" y="-1449.5" font-family="Helvetica,sans-Serif" font-size="10.00"> #sitemin</text>
<text text-anchor="middle" x="673.5" y="-1438.5" font-family="Helvetica,sans-Serif" font-size="10.00">#suboverflowcount</text>
<text text-anchor="middle" x="673.5" y="-1427.5" font-family="Helvetica,sans-Serif" font-size="10.00">#infprobcount</text>
<text text-anchor="middle" x="673.5" y="-1416.5" font-family="Helvetica,sans-Serif" font-size="10.00">#ratealloc</text>
<text text-anchor="middle" x="673.5" y="-1405.5" font-family="Helvetica,sans-Serif" font-size="10.00">#sitemax</text>
</g>
<!-- Node22 -->
<g id="node10" class="node"><title>Node22</title>
<polygon fill="none" stroke="#bfbfbf" points="368,-1781.5 368,-1838.5 403,-1838.5 403,-1781.5 368,-1781.5"/>
<text text-anchor="middle" x="385.5" y="-1826.5" font-family="Helvetica,sans-Serif" font-size="10.00">bool</text>
<polyline fill="none" stroke="#bfbfbf" points="368,-1819.5 403,-1819.5 "/>
<text text-anchor="middle" x="385.5" y="-1807.5" font-family="Helvetica,sans-Serif" font-size="10.00"> </text>
<polyline fill="none" stroke="#bfbfbf" points="368,-1800.5 403,-1800.5 "/>
<text text-anchor="middle" x="385.5" y="-1788.5" font-family="Helvetica,sans-Serif" font-size="10.00"> </text>
</g>
<!-- Node22&#45;&gt;Node18 -->
<g id="edge9" class="edge"><title>Node22&#45;&gt;Node18</title>
<path fill="none" stroke="#404040" d="M367.713,-1795.13C346.48,-1777.44 311.798,-1744.71 295.5,-1708 288.368,-1691.94 282.657,-1674.86 278.106,-1657.37"/>
<polygon fill="none" stroke="#404040" points="278.058,-1657.17 272.747,-1652.29 275.208,-1645.52 280.519,-1650.39 278.058,-1657.17"/>
<text text-anchor="middle" x="329.5" y="-1689" font-family="Helvetica,sans-Serif" font-size="10.00"> #activesuffstat</text>
<text text-anchor="middle" x="329.5" y="-1678" font-family="Helvetica,sans-Serif" font-size="10.00">#burnin</text>
</g>
<!-- Node22&#45;&gt;Node25 -->
<g id="edge15" class="edge"><title>Node22&#45;&gt;Node25</title>
<path fill="none" stroke="#404040" d="M403.223,-1784.2C416.259,-1764.54 433.11,-1735.84 441.5,-1708 450.011,-1679.76 455.712,-1649.21 459.459,-1619.07"/>
<polygon fill="none" stroke="#404040" points="459.466,-1619.01 456.185,-1612.59 460.85,-1607.09 464.131,-1613.51 459.466,-1619.01"/>
<text text-anchor="middle" x="474" y="-1683.5" font-family="Helvetica,sans-Serif" font-size="10.00"> #sumflag</text>
</g>
<!-- Node23 -->
<g id="node11" class="node"><title>Node23</title>
<g id="a_node11"><a xlink:href="classGeneralPathSuffStatMatrixDPProfileProcess.html" target="_top" xlink:title="{GeneralPathSuffStatMatrix\lDPProfileProcess\n||}">
<polygon fill="none" stroke="black" points="143.5,-223.5 143.5,-291.5 277.5,-291.5 277.5,-223.5 143.5,-223.5"/>
<text text-anchor="start" x="151.5" y="-279.5" font-family="Helvetica,sans-Serif" font-size="10.00">GeneralPathSuffStatMatrix</text>
<text text-anchor="middle" x="210.5" y="-268.5" font-family="Helvetica,sans-Serif" font-size="10.00">DPProfileProcess</text>
<polyline fill="none" stroke="black" points="143.5,-261.5 277.5,-261.5 "/>
<text text-anchor="middle" x="210.5" y="-249.5" font-family="Helvetica,sans-Serif" font-size="10.00"> </text>
<polyline fill="none" stroke="black" points="143.5,-242.5 277.5,-242.5 "/>
<text text-anchor="middle" x="210.5" y="-230.5" font-family="Helvetica,sans-Serif" font-size="10.00"> </text>
</a>
</g>
</g>
<!-- Node23&#45;&gt;Node14 -->
<g id="edge10" class="edge"><title>Node23&#45;&gt;Node14</title>
<path fill="none" stroke="midnightblue" d="M210.5,-213.251C210.5,-193.372 210.5,-170.372 210.5,-152.838"/>
<polygon fill="none" stroke="midnightblue" points="207,-213.317 210.5,-223.317 214,-213.317 207,-213.317"/>
</g>
<!-- Node24 -->
<g id="node12" class="node"><title>Node24</title>
<g id="a_node12"><a xlink:href="classUniformRateProcess.html" target="_top" xlink:title="{UniformRateProcess\n||+ UniformRateProcess()\l+ ~UniformRateProcess()\l+ GetNrate()\l+ GetRate()\l+ GetRateWeight()\l+ GetPriorMeanRate()\l+ ActivateSumOverRateAllocations()\l+ InactivateSumOverRateAllocations()\l+ LogRatePrior()\l+ SampleRate()\l+ ToStream()\l+ FromStream()\l}">
<polygon fill="none" stroke="black" points="382,-537.5 382,-715.5 567,-715.5 567,-537.5 382,-537.5"/>
<text text-anchor="middle" x="474.5" y="-703.5" font-family="Helvetica,sans-Serif" font-size="10.00">UniformRateProcess</text>
<polyline fill="none" stroke="black" points="382,-696.5 567,-696.5 "/>
<text text-anchor="middle" x="474.5" y="-684.5" font-family="Helvetica,sans-Serif" font-size="10.00"> </text>
<polyline fill="none" stroke="black" points="382,-677.5 567,-677.5 "/>
<text text-anchor="start" x="390" y="-665.5" font-family="Helvetica,sans-Serif" font-size="10.00">+ UniformRateProcess()</text>
<text text-anchor="start" x="390" y="-654.5" font-family="Helvetica,sans-Serif" font-size="10.00">+ ~UniformRateProcess()</text>
<text text-anchor="start" x="390" y="-643.5" font-family="Helvetica,sans-Serif" font-size="10.00">+ GetNrate()</text>
<text text-anchor="start" x="390" y="-632.5" font-family="Helvetica,sans-Serif" font-size="10.00">+ GetRate()</text>
<text text-anchor="start" x="390" y="-621.5" font-family="Helvetica,sans-Serif" font-size="10.00">+ GetRateWeight()</text>
<text text-anchor="start" x="390" y="-610.5" font-family="Helvetica,sans-Serif" font-size="10.00">+ GetPriorMeanRate()</text>
<text text-anchor="start" x="390" y="-599.5" font-family="Helvetica,sans-Serif" font-size="10.00">+ ActivateSumOverRateAllocations()</text>
<text text-anchor="start" x="390" y="-588.5" font-family="Helvetica,sans-Serif" font-size="10.00">+ InactivateSumOverRateAllocations()</text>
<text text-anchor="start" x="390" y="-577.5" font-family="Helvetica,sans-Serif" font-size="10.00">+ LogRatePrior()</text>
<text text-anchor="start" x="390" y="-566.5" font-family="Helvetica,sans-Serif" font-size="10.00">+ SampleRate()</text>
<text text-anchor="start" x="390" y="-555.5" font-family="Helvetica,sans-Serif" font-size="10.00">+ ToStream()</text>
<text text-anchor="start" x="390" y="-544.5" font-family="Helvetica,sans-Serif" font-size="10.00">+ FromStream()</text>
</a>
</g>
</g>
<!-- Node24&#45;&gt;Node13 -->
<g id="edge11" class="edge"><title>Node24&#45;&gt;Node13</title>
<path fill="none" stroke="midnightblue" d="M473.979,-527.113C473.736,-473.064 473.5,-404.834 473.5,-344 473.5,-344 473.5,-344 473.5,-123 473.5,-94.8117 451.986,-72.9636 428.622,-57.5484"/>
<polygon fill="none" stroke="midnightblue" points="470.481,-527.397 474.026,-537.381 477.48,-527.365 470.481,-527.397"/>
</g>
<!-- Node25&#45;&gt;Node24 -->
<g id="edge12" class="edge"><title>Node25&#45;&gt;Node24</title>
<path fill="none" stroke="midnightblue" d="M466.062,-1242.29C468.337,-1076.57 471.56,-841.736 473.29,-715.662"/>
<polygon fill="none" stroke="midnightblue" points="462.558,-1242.56 465.921,-1252.61 469.558,-1242.66 462.558,-1242.56"/>
</g>
<!-- Node25&#45;&gt;Node28 -->
<g id="edge19" class="edge"><title>Node25&#45;&gt;Node28</title>
<path fill="none" stroke="midnightblue" d="M426.063,-1242.8C421.702,-1221.11 417.223,-1198.83 412.781,-1176.74"/>
<polygon fill="none" stroke="midnightblue" points="422.655,-1243.61 428.058,-1252.72 429.518,-1242.23 422.655,-1243.61"/>
</g>
<!-- Node26&#45;&gt;Node13 -->
<g id="edge16" class="edge"><title>Node26&#45;&gt;Node13</title>
<path fill="none" stroke="midnightblue" d="M370.5,-180.373C370.5,-138.094 370.5,-88.0522 370.5,-57.6866"/>
<polygon fill="none" stroke="midnightblue" points="367,-180.378 370.5,-190.378 374,-180.378 367,-180.378"/>
</g>
<!-- Node27&#45;&gt;Node26 -->
<g id="edge17" class="edge"><title>Node27&#45;&gt;Node26</title>
<path fill="none" stroke="midnightblue" d="M369.463,-352.376C369.566,-343.033 369.67,-333.641 369.77,-324.601"/>
<polygon fill="none" stroke="midnightblue" points="365.962,-352.439 369.351,-362.477 372.961,-352.517 365.962,-352.439"/>
</g>
<!-- Node28&#45;&gt;Node27 -->
<g id="edge18" class="edge"><title>Node28&#45;&gt;Node27</title>
<path fill="none" stroke="midnightblue" d="M368.5,-723.948C368.5,-650.169 368.5,-573.497 368.5,-518.686"/>
<polygon fill="none" stroke="midnightblue" points="365,-724.337 368.5,-734.337 372,-724.337 365,-724.337"/>
</g>
</g>
</svg>
