<?xml version="1.0" encoding="UTF-8" standalone="no"?>
<!DOCTYPE svg PUBLIC "-//W3C//DTD SVG 1.1//EN"
 "http://www.w3.org/Graphics/SVG/1.1/DTD/svg11.dtd">
<!-- Generated by graphviz version 2.38.0 (20140413.2041)
 -->
<!-- Title: MatrixOneProfileProcess Pages: 1 -->
<svg width="643pt" height="1208pt"
 viewBox="0.00 0.00 642.50 1208.00" xmlns="http://www.w3.org/2000/svg" xmlns:xlink="http://www.w3.org/1999/xlink">
<g id="graph0" class="graph" transform="scale(1 1) rotate(0) translate(4 1204)">
<title>MatrixOneProfileProcess</title>
<!-- Node5 -->
<g id="node1" class="node"><title>Node5</title>
<polygon fill="#bfbfbf" stroke="black" points="158.5,-0.5 158.5,-167.5 304.5,-167.5 304.5,-0.5 158.5,-0.5"/>
<text text-anchor="middle" x="231.5" y="-155.5" font-family="Helvetica,sans-Serif" font-size="10.00">MatrixOneProfileProcess</text>
<polyline fill="none" stroke="black" points="158.5,-148.5 304.5,-148.5 "/>
<text text-anchor="middle" x="231.5" y="-136.5" font-family="Helvetica,sans-Serif" font-size="10.00"> </text>
<polyline fill="none" stroke="black" points="158.5,-129.5 304.5,-129.5 "/>
<text text-anchor="start" x="166.5" y="-117.5" font-family="Helvetica,sans-Serif" font-size="10.00">+ MatrixOneProfileProcess()</text>
<text text-anchor="start" x="166.5" y="-106.5" font-family="Helvetica,sans-Serif" font-size="10.00">+ ~MatrixOneProfileProcess()</text>
<text text-anchor="start" x="166.5" y="-95.5" font-family="Helvetica,sans-Serif" font-size="10.00">+ GetMatrix()</text>
<text text-anchor="start" x="166.5" y="-84.5" font-family="Helvetica,sans-Serif" font-size="10.00"># Create()</text>
<text text-anchor="start" x="166.5" y="-73.5" font-family="Helvetica,sans-Serif" font-size="10.00"># Delete()</text>
<text text-anchor="start" x="166.5" y="-62.5" font-family="Helvetica,sans-Serif" font-size="10.00"># MoveProfile()</text>
<text text-anchor="start" x="166.5" y="-51.5" font-family="Helvetica,sans-Serif" font-size="10.00"># UpdateProfileSuffStat()</text>
<text text-anchor="start" x="166.5" y="-40.5" font-family="Helvetica,sans-Serif" font-size="10.00"># UpdateProfile()</text>
<text text-anchor="start" x="166.5" y="-29.5" font-family="Helvetica,sans-Serif" font-size="10.00"># CreateMatrix()</text>
<text text-anchor="start" x="166.5" y="-18.5" font-family="Helvetica,sans-Serif" font-size="10.00"># DeleteMatrix()</text>
<text text-anchor="start" x="166.5" y="-7.5" font-family="Helvetica,sans-Serif" font-size="10.00"># UpdateMatrix()</text>
</g>
<!-- Node6 -->
<g id="node2" class="node"><title>Node6</title>
<g id="a_node2"><a xlink:href="classMatrixProfileProcess.html" target="_top" xlink:title="{MatrixProfileProcess\n||+ MatrixProfileProcess()\l+ ~MatrixProfileProcess()\l+ GetMatrix()\l# CreateMatrices()\l# DeleteMatrices()\l# ProfileProposeMove()\l# UpdateMatrices()\l}">
<polygon fill="none" stroke="black" points="167.5,-244 167.5,-367 295.5,-367 295.5,-244 167.5,-244"/>
<text text-anchor="middle" x="231.5" y="-355" font-family="Helvetica,sans-Serif" font-size="10.00">MatrixProfileProcess</text>
<polyline fill="none" stroke="black" points="167.5,-348 295.5,-348 "/>
<text text-anchor="middle" x="231.5" y="-336" font-family="Helvetica,sans-Serif" font-size="10.00"> </text>
<polyline fill="none" stroke="black" points="167.5,-329 295.5,-329 "/>
<text text-anchor="start" x="175.5" y="-317" font-family="Helvetica,sans-Serif" font-size="10.00">+ MatrixProfileProcess()</text>
<text text-anchor="start" x="175.5" y="-306" font-family="Helvetica,sans-Serif" font-size="10.00">+ ~MatrixProfileProcess()</text>
<text text-anchor="start" x="175.5" y="-295" font-family="Helvetica,sans-Serif" font-size="10.00">+ GetMatrix()</text>
<text text-anchor="start" x="175.5" y="-284" font-family="Helvetica,sans-Serif" font-size="10.00"># CreateMatrices()</text>
<text text-anchor="start" x="175.5" y="-273" font-family="Helvetica,sans-Serif" font-size="10.00"># DeleteMatrices()</text>
<text text-anchor="start" x="175.5" y="-262" font-family="Helvetica,sans-Serif" font-size="10.00"># ProfileProposeMove()</text>
<text text-anchor="start" x="175.5" y="-251" font-family="Helvetica,sans-Serif" font-size="10.00"># UpdateMatrices()</text>
</a>
</g>
</g>
<!-- Node6&#45;&gt;Node5 -->
<g id="edge1" class="edge"><title>Node6&#45;&gt;Node5</title>
<path fill="none" stroke="midnightblue" d="M231.5,-233.772C231.5,-212.663 231.5,-189.341 231.5,-167.546"/>
<polygon fill="none" stroke="midnightblue" points="228,-233.94 231.5,-243.94 235,-233.94 228,-233.94"/>
</g>
<!-- Node7 -->
<g id="node3" class="node"><title>Node7</title>
<g id="a_node3"><a xlink:href="classProfileProcess.html" target="_top" xlink:title="{ProfileProcess\n||+ ProfileProcess()\l+ ~ProfileProcess()\l+ GetVersion()\l+ GetStatInfCount()\l+ GetDim()\l+ GetNsite()\l+ GetProfile()\l+ GetStateSpace()\l+ LogProfilePrior()\l+ SampleProfile()\l+ GetMeanStationaryEntropy()\l+ GetSiteStationaryEntropy()\l+ UpdateSiteProfileSuffStat()\l+ GlobalUpdateSiteProfileSuffStat()\l+ SlaveUpdateSiteProfileSuffStat()\l+ GlobalUpdateParameters()\l+ SlaveUpdateParameters()\l+ ProfileSuffStatLogProb()\l+ ToStream()\l+ FromStream()\l+ SetBurnin()\l+ isObserved()\l+ GetMinStat()\l+ GetMinMinStat()\l# DrawProfileFromPrior()\l# GetNormalizationFactor()\l# Create()\l# Delete()\l# GetNprocs()\l# GetMyid()\l# GetSiteMin()\l# GetSiteMax()\l# GetEmpiricalFreq()\l# GetMinTotWeight()\l# SetMinTotWeight()\l}">
<polygon fill="none" stroke="black" points="132.5,-471 132.5,-902 304.5,-902 304.5,-471 132.5,-471"/>
<text text-anchor="middle" x="218.5" y="-890" font-family="Helvetica,sans-Serif" font-size="10.00">ProfileProcess</text>
<polyline fill="none" stroke="black" points="132.5,-883 304.5,-883 "/>
<text text-anchor="middle" x="218.5" y="-871" font-family="Helvetica,sans-Serif" font-size="10.00"> </text>
<polyline fill="none" stroke="black" points="132.5,-864 304.5,-864 "/>
<text text-anchor="start" x="140.5" y="-852" font-family="Helvetica,sans-Serif" font-size="10.00">+ ProfileProcess()</text>
<text text-anchor="start" x="140.5" y="-841" font-family="Helvetica,sans-Serif" font-size="10.00">+ ~ProfileProcess()</text>
<text text-anchor="start" x="140.5" y="-830" font-family="Helvetica,sans-Serif" font-size="10.00">+ GetVersion()</text>
<text text-anchor="start" x="140.5" y="-819" font-family="Helvetica,sans-Serif" font-size="10.00">+ GetStatInfCount()</text>
<text text-anchor="start" x="140.5" y="-808" font-family="Helvetica,sans-Serif" font-size="10.00">+ GetDim()</text>
<text text-anchor="start" x="140.5" y="-797" font-family="Helvetica,sans-Serif" font-size="10.00">+ GetNsite()</text>
<text text-anchor="start" x="140.5" y="-786" font-family="Helvetica,sans-Serif" font-size="10.00">+ GetProfile()</text>
<text text-anchor="start" x="140.5" y="-775" font-family="Helvetica,sans-Serif" font-size="10.00">+ GetStateSpace()</text>
<text text-anchor="start" x="140.5" y="-764" font-family="Helvetica,sans-Serif" font-size="10.00">+ LogProfilePrior()</text>
<text text-anchor="start" x="140.5" y="-753" font-family="Helvetica,sans-Serif" font-size="10.00">+ SampleProfile()</text>
<text text-anchor="start" x="140.5" y="-742" font-family="Helvetica,sans-Serif" font-size="10.00">+ GetMeanStationaryEntropy()</text>
<text text-anchor="start" x="140.5" y="-731" font-family="Helvetica,sans-Serif" font-size="10.00">+ GetSiteStationaryEntropy()</text>
<text text-anchor="start" x="140.5" y="-720" font-family="Helvetica,sans-Serif" font-size="10.00">+ UpdateSiteProfileSuffStat()</text>
<text text-anchor="start" x="140.5" y="-709" font-family="Helvetica,sans-Serif" font-size="10.00">+ GlobalUpdateSiteProfileSuffStat()</text>
<text text-anchor="start" x="140.5" y="-698" font-family="Helvetica,sans-Serif" font-size="10.00">+ SlaveUpdateSiteProfileSuffStat()</text>
<text text-anchor="start" x="140.5" y="-687" font-family="Helvetica,sans-Serif" font-size="10.00">+ GlobalUpdateParameters()</text>
<text text-anchor="start" x="140.5" y="-676" font-family="Helvetica,sans-Serif" font-size="10.00">+ SlaveUpdateParameters()</text>
<text text-anchor="start" x="140.5" y="-665" font-family="Helvetica,sans-Serif" font-size="10.00">+ ProfileSuffStatLogProb()</text>
<text text-anchor="start" x="140.5" y="-654" font-family="Helvetica,sans-Serif" font-size="10.00">+ ToStream()</text>
<text text-anchor="start" x="140.5" y="-643" font-family="Helvetica,sans-Serif" font-size="10.00">+ FromStream()</text>
<text text-anchor="start" x="140.5" y="-632" font-family="Helvetica,sans-Serif" font-size="10.00">+ SetBurnin()</text>
<text text-anchor="start" x="140.5" y="-621" font-family="Helvetica,sans-Serif" font-size="10.00">+ isObserved()</text>
<text text-anchor="start" x="140.5" y="-610" font-family="Helvetica,sans-Serif" font-size="10.00">+ GetMinStat()</text>
<text text-anchor="start" x="140.5" y="-599" font-family="Helvetica,sans-Serif" font-size="10.00">+ GetMinMinStat()</text>
<text text-anchor="start" x="140.5" y="-588" font-family="Helvetica,sans-Serif" font-size="10.00"># DrawProfileFromPrior()</text>
<text text-anchor="start" x="140.5" y="-577" font-family="Helvetica,sans-Serif" font-size="10.00"># GetNormalizationFactor()</text>
<text text-anchor="start" x="140.5" y="-566" font-family="Helvetica,sans-Serif" font-size="10.00"># Create()</text>
<text text-anchor="start" x="140.5" y="-555" font-family="Helvetica,sans-Serif" font-size="10.00"># Delete()</text>
<text text-anchor="start" x="140.5" y="-544" font-family="Helvetica,sans-Serif" font-size="10.00"># GetNprocs()</text>
<text text-anchor="start" x="140.5" y="-533" font-family="Helvetica,sans-Serif" font-size="10.00"># GetMyid()</text>
<text text-anchor="start" x="140.5" y="-522" font-family="Helvetica,sans-Serif" font-size="10.00"># GetSiteMin()</text>
<text text-anchor="start" x="140.5" y="-511" font-family="Helvetica,sans-Serif" font-size="10.00"># GetSiteMax()</text>
<text text-anchor="start" x="140.5" y="-500" font-family="Helvetica,sans-Serif" font-size="10.00"># GetEmpiricalFreq()</text>
<text text-anchor="start" x="140.5" y="-489" font-family="Helvetica,sans-Serif" font-size="10.00"># GetMinTotWeight()</text>
<text text-anchor="start" x="140.5" y="-478" font-family="Helvetica,sans-Serif" font-size="10.00"># SetMinTotWeight()</text>
</a>
</g>
</g>
<!-- Node7&#45;&gt;Node6 -->
<g id="edge2" class="edge"><title>Node7&#45;&gt;Node6</title>
<path fill="none" stroke="midnightblue" d="M226.214,-460.609C227.39,-426.318 228.511,-393.631 229.416,-367.255"/>
<polygon fill="none" stroke="midnightblue" points="222.709,-460.692 225.864,-470.806 229.705,-460.932 222.709,-460.692"/>
</g>
<!-- Node12 -->
<g id="node8" class="node"><title>Node12</title>
<g id="a_node8"><a xlink:href="classOneProfileProcess.html" target="_top" xlink:title="{OneProfileProcess\n||+ OneProfileProcess()\l+ ~OneProfileProcess()\l+ GetProfile()\l+ GetMeanStationaryEntropy()\l+ GetSiteStationaryEntropy()\l+ GetNOccupiedComponent()\l+ GetStatEnt()\l+ Move()\l# Create()\l# Delete()\l# UpdateProfile()\l# SampleProfile()\l# SampleStat()\l# LogProfilePrior()\l}">
<polygon fill="none" stroke="black" points="0,-205.5 0,-405.5 149,-405.5 149,-205.5 0,-205.5"/>
<text text-anchor="middle" x="74.5" y="-393.5" font-family="Helvetica,sans-Serif" font-size="10.00">OneProfileProcess</text>
<polyline fill="none" stroke="black" points="0,-386.5 149,-386.5 "/>
<text text-anchor="middle" x="74.5" y="-374.5" font-family="Helvetica,sans-Serif" font-size="10.00"> </text>
<polyline fill="none" stroke="black" points="0,-367.5 149,-367.5 "/>
<text text-anchor="start" x="8" y="-355.5" font-family="Helvetica,sans-Serif" font-size="10.00">+ OneProfileProcess()</text>
<text text-anchor="start" x="8" y="-344.5" font-family="Helvetica,sans-Serif" font-size="10.00">+ ~OneProfileProcess()</text>
<text text-anchor="start" x="8" y="-333.5" font-family="Helvetica,sans-Serif" font-size="10.00">+ GetProfile()</text>
<text text-anchor="start" x="8" y="-322.5" font-family="Helvetica,sans-Serif" font-size="10.00">+ GetMeanStationaryEntropy()</text>
<text text-anchor="start" x="8" y="-311.5" font-family="Helvetica,sans-Serif" font-size="10.00">+ GetSiteStationaryEntropy()</text>
<text text-anchor="start" x="8" y="-300.5" font-family="Helvetica,sans-Serif" font-size="10.00">+ GetNOccupiedComponent()</text>
<text text-anchor="start" x="8" y="-289.5" font-family="Helvetica,sans-Serif" font-size="10.00">+ GetStatEnt()</text>
<text text-anchor="start" x="8" y="-278.5" font-family="Helvetica,sans-Serif" font-size="10.00">+ Move()</text>
<text text-anchor="start" x="8" y="-267.5" font-family="Helvetica,sans-Serif" font-size="10.00"># Create()</text>
<text text-anchor="start" x="8" y="-256.5" font-family="Helvetica,sans-Serif" font-size="10.00"># Delete()</text>
<text text-anchor="start" x="8" y="-245.5" font-family="Helvetica,sans-Serif" font-size="10.00"># UpdateProfile()</text>
<text text-anchor="start" x="8" y="-234.5" font-family="Helvetica,sans-Serif" font-size="10.00"># SampleProfile()</text>
<text text-anchor="start" x="8" y="-223.5" font-family="Helvetica,sans-Serif" font-size="10.00"># SampleStat()</text>
<text text-anchor="start" x="8" y="-212.5" font-family="Helvetica,sans-Serif" font-size="10.00"># LogProfilePrior()</text>
</a>
</g>
</g>
<!-- Node7&#45;&gt;Node12 -->
<g id="edge8" class="edge"><title>Node7&#45;&gt;Node12</title>
<path fill="none" stroke="midnightblue" d="M133.32,-461.311C125.999,-442.044 118.867,-423.272 112.24,-405.829"/>
<polygon fill="none" stroke="midnightblue" points="130.104,-462.701 136.928,-470.806 136.648,-460.215 130.104,-462.701"/>
</g>
<!-- Node8 -->
<g id="node4" class="node"><title>Node8</title>
<g id="a_node4"><a xlink:href="classChrono.html" target="_top" xlink:title="{Chrono\n||+ Chrono()\l+ ~Chrono()\l+ Reset()\l+ Start()\l+ Stop()\l+ ToStream()\l+ FromStream()\l+ operator++()\l+ GetTime()\l+ GetTimePerCount()\l+ GetCount()\l}">
<polygon fill="none" stroke="black" points="127.5,-1032.5 127.5,-1199.5 237.5,-1199.5 237.5,-1032.5 127.5,-1032.5"/>
<text text-anchor="middle" x="182.5" y="-1187.5" font-family="Helvetica,sans-Serif" font-size="10.00">Chrono</text>
<polyline fill="none" stroke="black" points="127.5,-1180.5 237.5,-1180.5 "/>
<text text-anchor="middle" x="182.5" y="-1168.5" font-family="Helvetica,sans-Serif" font-size="10.00"> </text>
<polyline fill="none" stroke="black" points="127.5,-1161.5 237.5,-1161.5 "/>
<text text-anchor="start" x="135.5" y="-1149.5" font-family="Helvetica,sans-Serif" font-size="10.00">+ Chrono()</text>
<text text-anchor="start" x="135.5" y="-1138.5" font-family="Helvetica,sans-Serif" font-size="10.00">+ ~Chrono()</text>
<text text-anchor="start" x="135.5" y="-1127.5" font-family="Helvetica,sans-Serif" font-size="10.00">+ Reset()</text>
<text text-anchor="start" x="135.5" y="-1116.5" font-family="Helvetica,sans-Serif" font-size="10.00">+ Start()</text>
<text text-anchor="start" x="135.5" y="-1105.5" font-family="Helvetica,sans-Serif" font-size="10.00">+ Stop()</text>
<text text-anchor="start" x="135.5" y="-1094.5" font-family="Helvetica,sans-Serif" font-size="10.00">+ ToStream()</text>
<text text-anchor="start" x="135.5" y="-1083.5" font-family="Helvetica,sans-Serif" font-size="10.00">+ FromStream()</text>
<text text-anchor="start" x="135.5" y="-1072.5" font-family="Helvetica,sans-Serif" font-size="10.00">+ operator++()</text>
<text text-anchor="start" x="135.5" y="-1061.5" font-family="Helvetica,sans-Serif" font-size="10.00">+ GetTime()</text>
<text text-anchor="start" x="135.5" y="-1050.5" font-family="Helvetica,sans-Serif" font-size="10.00">+ GetTimePerCount()</text>
<text text-anchor="start" x="135.5" y="-1039.5" font-family="Helvetica,sans-Serif" font-size="10.00">+ GetCount()</text>
</a>
</g>
</g>
<!-- Node8&#45;&gt;Node7 -->
<g id="edge3" class="edge"><title>Node8&#45;&gt;Node7</title>
<path fill="none" stroke="#404040" d="M180.911,-1032.1C180.954,-1005.24 181.59,-975.332 183.5,-948 184.265,-937.052 185.195,-925.862 186.253,-914.571"/>
<polygon fill="none" stroke="#404040" points="186.286,-914.231 182.886,-907.872 187.449,-902.288 190.849,-908.647 186.286,-914.231"/>
<text text-anchor="middle" x="211" y="-989.5" font-family="Helvetica,sans-Serif" font-size="10.00"> #chronostat</text>
<text text-anchor="middle" x="211" y="-978.5" font-family="Helvetica,sans-Serif" font-size="10.00">#chronorr</text>
<text text-anchor="middle" x="211" y="-967.5" font-family="Helvetica,sans-Serif" font-size="10.00">#chronodp</text>
</g>
<!-- Node9 -->
<g id="node5" class="node"><title>Node9</title>
<polygon fill="none" stroke="#bfbfbf" points="64,-1087.5 64,-1144.5 109,-1144.5 109,-1087.5 64,-1087.5"/>
<text text-anchor="middle" x="86.5" y="-1132.5" font-family="Helvetica,sans-Serif" font-size="10.00">double</text>
<polyline fill="none" stroke="#bfbfbf" points="64,-1125.5 109,-1125.5 "/>
<text text-anchor="middle" x="86.5" y="-1113.5" font-family="Helvetica,sans-Serif" font-size="10.00"> </text>
<polyline fill="none" stroke="#bfbfbf" points="64,-1106.5 109,-1106.5 "/>
<text text-anchor="middle" x="86.5" y="-1094.5" font-family="Helvetica,sans-Serif" font-size="10.00"> </text>
</g>
<!-- Node9&#45;&gt;Node7 -->
<g id="edge4" class="edge"><title>Node9&#45;&gt;Node7</title>
<path fill="none" stroke="#404040" d="M89.0571,-1087.41C92.5903,-1053.96 100.1,-996.096 113.5,-948 117.897,-932.219 122.948,-916.094 128.406,-899.987"/>
<polygon fill="none" stroke="#404040" points="128.535,-899.611 126.71,-892.634 132.448,-888.266 134.273,-895.243 128.535,-899.611"/>
<text text-anchor="middle" x="145.5" y="-978.5" font-family="Helvetica,sans-Serif" font-size="10.00"> #mintotweight</text>
</g>
<!-- Node9&#45;&gt;Node12 -->
<g id="edge9" class="edge"><title>Node9&#45;&gt;Node12</title>
<path fill="none" stroke="#404040" d="M86.0869,-1087.17C84.5303,-982.292 78.9646,-607.301 76.152,-417.803"/>
<polygon fill="none" stroke="#404040" points="76.149,-417.592 72.0603,-411.652 75.9708,-405.594 80.0594,-411.534 76.149,-417.592"/>
<text text-anchor="middle" x="102" y="-684" font-family="Helvetica,sans-Serif" font-size="10.00"> #profile</text>
</g>
<!-- Node13 -->
<g id="node9" class="node"><title>Node13</title>
<g id="a_node9"><a xlink:href="classSubMatrix.html" target="_top" xlink:title="{SubMatrix\n||+ SubMatrix()\l+ ~SubMatrix()\l+ Create()\l+ operator()()\l+ GetRow()\l+ GetStationary()\l+ Stationary()\l+ GetNstate()\l+ GetRate()\l+ ScalarMul()\l+ isNormalised()\l+ Normalise()\l+ CorruptMatrix()\l+ UpdateMatrix()\l+ ActivatePowers()\l+ InactivatePowers()\l+ Power()\l+ GetUniformizationMu()\l+ GetEigenVal()\l+ GetEigenVect()\l+ GetInvEigenVect()\l+ GetFiniteTimeTransitionProb()\l+ DrawUniformizedTransition()\l+ DrawUniformizedSubstitution\lNumber()\l+ DrawOneStep()\l+ ToStream()\l+ CheckReversibility()\l+ GetDiagStat()\l+ GetUniSubCount()\l+ GetMeanUni()\l# ComputeExponential()\l# ComputeArray()\l# ComputeStationary()\l# UpdateRow()\l# UpdateStationary()\l# ComputePowers()\l# CreatePowers()\l# ArrayUpdated()\l# Diagonalise()\l}">
<polygon fill="none" stroke="black" points="342.5,-443.5 342.5,-929.5 498.5,-929.5 498.5,-443.5 342.5,-443.5"/>
<text text-anchor="middle" x="420.5" y="-917.5" font-family="Helvetica,sans-Serif" font-size="10.00">SubMatrix</text>
<polyline fill="none" stroke="black" points="342.5,-910.5 498.5,-910.5 "/>
<text text-anchor="middle" x="420.5" y="-898.5" font-family="Helvetica,sans-Serif" font-size="10.00"> </text>
<polyline fill="none" stroke="black" points="342.5,-891.5 498.5,-891.5 "/>
<text text-anchor="start" x="350.5" y="-879.5" font-family="Helvetica,sans-Serif" font-size="10.00">+ SubMatrix()</text>
<text text-anchor="start" x="350.5" y="-868.5" font-family="Helvetica,sans-Serif" font-size="10.00">+ ~SubMatrix()</text>
<text text-anchor="start" x="350.5" y="-857.5" font-family="Helvetica,sans-Serif" font-size="10.00">+ Create()</text>
<text text-anchor="start" x="350.5" y="-846.5" font-family="Helvetica,sans-Serif" font-size="10.00">+ operator()()</text>
<text text-anchor="start" x="350.5" y="-835.5" font-family="Helvetica,sans-Serif" font-size="10.00">+ GetRow()</text>
<text text-anchor="start" x="350.5" y="-824.5" font-family="Helvetica,sans-Serif" font-size="10.00">+ GetStationary()</text>
<text text-anchor="start" x="350.5" y="-813.5" font-family="Helvetica,sans-Serif" font-size="10.00">+ Stationary()</text>
<text text-anchor="start" x="350.5" y="-802.5" font-family="Helvetica,sans-Serif" font-size="10.00">+ GetNstate()</text>
<text text-anchor="start" x="350.5" y="-791.5" font-family="Helvetica,sans-Serif" font-size="10.00">+ GetRate()</text>
<text text-anchor="start" x="350.5" y="-780.5" font-family="Helvetica,sans-Serif" font-size="10.00">+ ScalarMul()</text>
<text text-anchor="start" x="350.5" y="-769.5" font-family="Helvetica,sans-Serif" font-size="10.00">+ isNormalised()</text>
<text text-anchor="start" x="350.5" y="-758.5" font-family="Helvetica,sans-Serif" font-size="10.00">+ Normalise()</text>
<text text-anchor="start" x="350.5" y="-747.5" font-family="Helvetica,sans-Serif" font-size="10.00">+ CorruptMatrix()</text>
<text text-anchor="start" x="350.5" y="-736.5" font-family="Helvetica,sans-Serif" font-size="10.00">+ UpdateMatrix()</text>
<text text-anchor="start" x="350.5" y="-725.5" font-family="Helvetica,sans-Serif" font-size="10.00">+ ActivatePowers()</text>
<text text-anchor="start" x="350.5" y="-714.5" font-family="Helvetica,sans-Serif" font-size="10.00">+ InactivatePowers()</text>
<text text-anchor="start" x="350.5" y="-703.5" font-family="Helvetica,sans-Serif" font-size="10.00">+ Power()</text>
<text text-anchor="start" x="350.5" y="-692.5" font-family="Helvetica,sans-Serif" font-size="10.00">+ GetUniformizationMu()</text>
<text text-anchor="start" x="350.5" y="-681.5" font-family="Helvetica,sans-Serif" font-size="10.00">+ GetEigenVal()</text>
<text text-anchor="start" x="350.5" y="-670.5" font-family="Helvetica,sans-Serif" font-size="10.00">+ GetEigenVect()</text>
<text text-anchor="start" x="350.5" y="-659.5" font-family="Helvetica,sans-Serif" font-size="10.00">+ GetInvEigenVect()</text>
<text text-anchor="start" x="350.5" y="-648.5" font-family="Helvetica,sans-Serif" font-size="10.00">+ GetFiniteTimeTransitionProb()</text>
<text text-anchor="start" x="350.5" y="-637.5" font-family="Helvetica,sans-Serif" font-size="10.00">+ DrawUniformizedTransition()</text>
<text text-anchor="start" x="350.5" y="-626.5" font-family="Helvetica,sans-Serif" font-size="10.00">+ DrawUniformizedSubstitution</text>
<text text-anchor="start" x="350.5" y="-615.5" font-family="Helvetica,sans-Serif" font-size="10.00">Number()</text>
<text text-anchor="start" x="350.5" y="-604.5" font-family="Helvetica,sans-Serif" font-size="10.00">+ DrawOneStep()</text>
<text text-anchor="start" x="350.5" y="-593.5" font-family="Helvetica,sans-Serif" font-size="10.00">+ ToStream()</text>
<text text-anchor="start" x="350.5" y="-582.5" font-family="Helvetica,sans-Serif" font-size="10.00">+ CheckReversibility()</text>
<text text-anchor="start" x="350.5" y="-571.5" font-family="Helvetica,sans-Serif" font-size="10.00">+ GetDiagStat()</text>
<text text-anchor="start" x="350.5" y="-560.5" font-family="Helvetica,sans-Serif" font-size="10.00">+ GetUniSubCount()</text>
<text text-anchor="start" x="350.5" y="-549.5" font-family="Helvetica,sans-Serif" font-size="10.00">+ GetMeanUni()</text>
<text text-anchor="start" x="350.5" y="-538.5" font-family="Helvetica,sans-Serif" font-size="10.00"># ComputeExponential()</text>
<text text-anchor="start" x="350.5" y="-527.5" font-family="Helvetica,sans-Serif" font-size="10.00"># ComputeArray()</text>
<text text-anchor="start" x="350.5" y="-516.5" font-family="Helvetica,sans-Serif" font-size="10.00"># ComputeStationary()</text>
<text text-anchor="start" x="350.5" y="-505.5" font-family="Helvetica,sans-Serif" font-size="10.00"># UpdateRow()</text>
<text text-anchor="start" x="350.5" y="-494.5" font-family="Helvetica,sans-Serif" font-size="10.00"># UpdateStationary()</text>
<text text-anchor="start" x="350.5" y="-483.5" font-family="Helvetica,sans-Serif" font-size="10.00"># ComputePowers()</text>
<text text-anchor="start" x="350.5" y="-472.5" font-family="Helvetica,sans-Serif" font-size="10.00"># CreatePowers()</text>
<text text-anchor="start" x="350.5" y="-461.5" font-family="Helvetica,sans-Serif" font-size="10.00"># ArrayUpdated()</text>
<text text-anchor="start" x="350.5" y="-450.5" font-family="Helvetica,sans-Serif" font-size="10.00"># Diagonalise()</text>
</a>
</g>
</g>
<!-- Node9&#45;&gt;Node13 -->
<g id="edge11" class="edge"><title>Node9&#45;&gt;Node13</title>
<path fill="none" stroke="#404040" d="M89.606,-1087.31C93.2598,-1068.59 101.209,-1044.98 118.5,-1032 156.134,-1003.75 293.267,-1044.03 329.5,-1014 330.05,-1013.54 338.634,-983.34 350.33,-941.471"/>
<polygon fill="none" stroke="#404040" points="350.397,-941.233 348.157,-934.379 353.622,-929.675 355.862,-936.529 350.397,-941.233"/>
<text text-anchor="middle" x="377.5" y="-995" font-family="Helvetica,sans-Serif" font-size="10.00"> #UniMu</text>
<text text-anchor="middle" x="377.5" y="-984" font-family="Helvetica,sans-Serif" font-size="10.00">#mStationary</text>
<text text-anchor="middle" x="377.5" y="-973" font-family="Helvetica,sans-Serif" font-size="10.00">#Q</text>
<text text-anchor="middle" x="377.5" y="-962" font-family="Helvetica,sans-Serif" font-size="10.00">#mPow</text>
</g>
<!-- Node10 -->
<g id="node6" class="node"><title>Node10</title>
<polygon fill="none" stroke="#bfbfbf" points="529,-1087.5 529,-1144.5 558,-1144.5 558,-1087.5 529,-1087.5"/>
<text text-anchor="middle" x="543.5" y="-1132.5" font-family="Helvetica,sans-Serif" font-size="10.00">int</text>
<polyline fill="none" stroke="#bfbfbf" points="529,-1125.5 558,-1125.5 "/>
<text text-anchor="middle" x="543.5" y="-1113.5" font-family="Helvetica,sans-Serif" font-size="10.00"> </text>
<polyline fill="none" stroke="#bfbfbf" points="529,-1106.5 558,-1106.5 "/>
<text text-anchor="middle" x="543.5" y="-1094.5" font-family="Helvetica,sans-Serif" font-size="10.00"> </text>
</g>
<!-- Node10&#45;&gt;Node7 -->
<g id="edge5" class="edge"><title>Node10&#45;&gt;Node7</title>
<path fill="none" stroke="#404040" d="M531.432,-1087.22C522.698,-1066.98 510.688,-1038.86 500.5,-1014 488.546,-984.827 499.382,-967.361 474.5,-948 424.64,-909.204 384.641,-967.09 333.5,-930 325.676,-924.326 318.365,-917.979 311.536,-911.106"/>
<polygon fill="none" stroke="#404040" points="311.337,-910.894 304.317,-909.244 303.139,-902.13 310.159,-903.779 311.337,-910.894"/>
<text text-anchor="middle" x="529.5" y="-995" font-family="Helvetica,sans-Serif" font-size="10.00"> #dim</text>
<text text-anchor="middle" x="529.5" y="-984" font-family="Helvetica,sans-Serif" font-size="10.00">#statinfcount</text>
<text text-anchor="middle" x="529.5" y="-973" font-family="Helvetica,sans-Serif" font-size="10.00">#totstatcount</text>
<text text-anchor="middle" x="529.5" y="-962" font-family="Helvetica,sans-Serif" font-size="10.00">#nsite</text>
</g>
<!-- Node10&#45;&gt;Node13 -->
<g id="edge12" class="edge"><title>Node10&#45;&gt;Node13</title>
<path fill="none" stroke="#404040" d="M552.64,-1087.4C562.352,-1053.94 574.751,-996.07 562.5,-948 550.51,-900.951 528.097,-853.232 504.563,-811.714"/>
<polygon fill="none" stroke="#404040" points="504.552,-811.695 498.091,-808.493 498.561,-801.297 505.022,-804.499 504.552,-811.695"/>
<text text-anchor="middle" x="601" y="-1006" font-family="Helvetica,sans-Serif" font-size="10.00"> +nunisubcount</text>
<text text-anchor="middle" x="601" y="-995" font-family="Helvetica,sans-Serif" font-size="10.00">#Nstate</text>
<text text-anchor="middle" x="601" y="-984" font-family="Helvetica,sans-Serif" font-size="10.00">+UniSubNmax</text>
<text text-anchor="middle" x="601" y="-973" font-family="Helvetica,sans-Serif" font-size="10.00">#npow</text>
<text text-anchor="middle" x="601" y="-962" font-family="Helvetica,sans-Serif" font-size="10.00">+nuni</text>
<text text-anchor="middle" x="601" y="-951" font-family="Helvetica,sans-Serif" font-size="10.00">+nunimax</text>
</g>
<!-- Node11 -->
<g id="node7" class="node"><title>Node11</title>
<polygon fill="none" stroke="#bfbfbf" points="336,-1087.5 336,-1144.5 371,-1144.5 371,-1087.5 336,-1087.5"/>
<text text-anchor="middle" x="353.5" y="-1132.5" font-family="Helvetica,sans-Serif" font-size="10.00">bool</text>
<polyline fill="none" stroke="#bfbfbf" points="336,-1125.5 371,-1125.5 "/>
<text text-anchor="middle" x="353.5" y="-1113.5" font-family="Helvetica,sans-Serif" font-size="10.00"> </text>
<polyline fill="none" stroke="#bfbfbf" points="336,-1106.5 371,-1106.5 "/>
<text text-anchor="middle" x="353.5" y="-1094.5" font-family="Helvetica,sans-Serif" font-size="10.00"> </text>
</g>
<!-- Node11&#45;&gt;Node7 -->
<g id="edge6" class="edge"><title>Node11&#45;&gt;Node7</title>
<path fill="none" stroke="#404040" d="M335.836,-1101.46C314.309,-1083.87 278.687,-1051 261.5,-1014 252.253,-994.094 244.685,-956.758 238.62,-914.238"/>
<polygon fill="none" stroke="#404040" points="238.588,-914.005 233.806,-908.608 236.949,-902.118 241.731,-907.515 238.588,-914.005"/>
<text text-anchor="middle" x="295.5" y="-984" font-family="Helvetica,sans-Serif" font-size="10.00"> #activesuffstat</text>
<text text-anchor="middle" x="295.5" y="-973" font-family="Helvetica,sans-Serif" font-size="10.00">#burnin</text>
</g>
<!-- Node11&#45;&gt;Node13 -->
<g id="edge13" class="edge"><title>Node11&#45;&gt;Node13</title>
<path fill="none" stroke="#404040" d="M371.097,-1091.56C384.689,-1071.97 402.488,-1042.7 410.5,-1014 416.953,-990.881 421.546,-966.483 424.717,-941.859"/>
<polygon fill="none" stroke="#404040" points="424.739,-941.673 421.479,-935.241 426.162,-929.758 429.422,-936.19 424.739,-941.673"/>
<text text-anchor="middle" x="446.5" y="-1000.5" font-family="Helvetica,sans-Serif" font-size="10.00"> #flagarray</text>
<text text-anchor="middle" x="446.5" y="-989.5" font-family="Helvetica,sans-Serif" font-size="10.00">#diagflag</text>
<text text-anchor="middle" x="446.5" y="-978.5" font-family="Helvetica,sans-Serif" font-size="10.00">#powflag</text>
<text text-anchor="middle" x="446.5" y="-967.5" font-family="Helvetica,sans-Serif" font-size="10.00">#normalise</text>
<text text-anchor="middle" x="446.5" y="-956.5" font-family="Helvetica,sans-Serif" font-size="10.00">#statflag</text>
</g>
<!-- Node12&#45;&gt;Node5 -->
<g id="edge7" class="edge"><title>Node12&#45;&gt;Node5</title>
<path fill="none" stroke="midnightblue" d="M151.355,-197.05C158.43,-187.159 165.523,-177.242 172.403,-167.623"/>
<polygon fill="none" stroke="midnightblue" points="148.392,-195.176 145.421,-205.346 154.086,-199.248 148.392,-195.176"/>
</g>
<!-- Node13&#45;&gt;Node5 -->
<g id="edge10" class="edge"><title>Node13&#45;&gt;Node5</title>
<path fill="none" stroke="#404040" d="M377.356,-443.194C359.496,-365.497 335.542,-280.153 304.5,-205 300.827,-196.107 296.552,-187.105 291.947,-178.238"/>
<polygon fill="none" stroke="#404040" points="291.862,-178.079 285.5,-174.685 286.187,-167.506 292.549,-170.901 291.862,-178.079"/>
<text text-anchor="middle" x="386.5" y="-303" font-family="Helvetica,sans-Serif" font-size="10.00"> #matrix</text>
</g>
</g>
</svg>
