<?xml version="1.0" encoding="UTF-8" standalone="no"?>
<!DOCTYPE svg PUBLIC "-//W3C//DTD SVG 1.1//EN"
 "http://www.w3.org/Graphics/SVG/1.1/DTD/svg11.dtd">
<!-- Generated by graphviz version 2.38.0 (20140413.2041)
 -->
<!-- Title: GeneProfileProcess Pages: 1 -->
<svg width="393pt" height="936pt"
 viewBox="0.00 0.00 392.50 936.00" xmlns="http://www.w3.org/2000/svg" xmlns:xlink="http://www.w3.org/1999/xlink">
<g id="graph0" class="graph" transform="scale(1 1) rotate(0) translate(4 932)">
<title>GeneProfileProcess</title>
<!-- Node12 -->
<g id="node1" class="node"><title>Node12</title>
<polygon fill="#bfbfbf" stroke="black" points="168,-0.5 168,-200.5 317,-200.5 317,-0.5 168,-0.5"/>
<text text-anchor="middle" x="242.5" y="-188.5" font-family="Helvetica,sans-Serif" font-size="10.00">GeneProfileProcess</text>
<polyline fill="none" stroke="black" points="168,-181.5 317,-181.5 "/>
<text text-anchor="middle" x="242.5" y="-169.5" font-family="Helvetica,sans-Serif" font-size="10.00"> </text>
<polyline fill="none" stroke="black" points="168,-162.5 317,-162.5 "/>
<text text-anchor="start" x="176" y="-150.5" font-family="Helvetica,sans-Serif" font-size="10.00">+ GeneProfileProcess()</text>
<text text-anchor="start" x="176" y="-139.5" font-family="Helvetica,sans-Serif" font-size="10.00">+ ~GeneProfileProcess()</text>
<text text-anchor="start" x="176" y="-128.5" font-family="Helvetica,sans-Serif" font-size="10.00">+ GetProfile()</text>
<text text-anchor="start" x="176" y="-117.5" font-family="Helvetica,sans-Serif" font-size="10.00">+ GetStateSpace()</text>
<text text-anchor="start" x="176" y="-106.5" font-family="Helvetica,sans-Serif" font-size="10.00">+ LogProfilePrior()</text>
<text text-anchor="start" x="176" y="-95.5" font-family="Helvetica,sans-Serif" font-size="10.00">+ SampleProfile()</text>
<text text-anchor="start" x="176" y="-84.5" font-family="Helvetica,sans-Serif" font-size="10.00">+ GetMeanStationaryEntropy()</text>
<text text-anchor="start" x="176" y="-73.5" font-family="Helvetica,sans-Serif" font-size="10.00">+ GetSiteStationaryEntropy()</text>
<text text-anchor="start" x="176" y="-62.5" font-family="Helvetica,sans-Serif" font-size="10.00">+ GlobalUpdateParameters()</text>
<text text-anchor="start" x="176" y="-51.5" font-family="Helvetica,sans-Serif" font-size="10.00">+ SlaveUpdateParameters()</text>
<text text-anchor="start" x="176" y="-40.5" font-family="Helvetica,sans-Serif" font-size="10.00">+ ProfileSuffStatLogProb()</text>
<text text-anchor="start" x="176" y="-29.5" font-family="Helvetica,sans-Serif" font-size="10.00">+ SetMixtureParameters()</text>
<text text-anchor="start" x="176" y="-18.5" font-family="Helvetica,sans-Serif" font-size="10.00"># Create()</text>
<text text-anchor="start" x="176" y="-7.5" font-family="Helvetica,sans-Serif" font-size="10.00"># Delete()</text>
</g>
<!-- Node13 -->
<g id="node2" class="node"><title>Node13</title>
<g id="a_node2"><a xlink:href="classProfileProcess.html" target="_top" target="_top" xlink:title="{ProfileProcess\n||+ ProfileProcess()\l+ ~ProfileProcess()\l+ GetVersion()\l+ GetStatInfCount()\l+ GetDim()\l+ GetNsite()\l+ GetProfile()\l+ GetStateSpace()\l+ LogProfilePrior()\l+ SampleProfile()\l+ GetMeanStationaryEntropy()\l+ GetSiteStationaryEntropy()\l+ UpdateSiteProfileSuffStat()\l+ GlobalUpdateSiteProfileSuffStat()\l+ SlaveUpdateSiteProfileSuffStat()\l+ GlobalUpdateParameters()\l+ SlaveUpdateParameters()\l+ ProfileSuffStatLogProb()\l+ ToStream()\l+ FromStream()\l+ SetBurnin()\l+ isObserved()\l+ GetMinStat()\l+ GetMinMinStat()\l# DrawProfileFromPrior()\l# GetNormalizationFactor()\l# Create()\l# Delete()\l# GetNprocs()\l# GetMyid()\l# GetSiteMin()\l# GetSiteMax()\l# GetEmpiricalFreq()\l# GetMinTotWeight()\l# SetMinTotWeight()\l}">
<polygon fill="none" stroke="black" points="116.5,-248.5 116.5,-679.5 288.5,-679.5 288.5,-248.5 116.5,-248.5"/>
<text text-anchor="middle" x="202.5" y="-667.5" font-family="Helvetica,sans-Serif" font-size="10.00">ProfileProcess</text>
<polyline fill="none" stroke="black" points="116.5,-660.5 288.5,-660.5 "/>
<text text-anchor="middle" x="202.5" y="-648.5" font-family="Helvetica,sans-Serif" font-size="10.00"> </text>
<polyline fill="none" stroke="black" points="116.5,-641.5 288.5,-641.5 "/>
<text text-anchor="start" x="124.5" y="-629.5" font-family="Helvetica,sans-Serif" font-size="10.00">+ ProfileProcess()</text>
<text text-anchor="start" x="124.5" y="-618.5" font-family="Helvetica,sans-Serif" font-size="10.00">+ ~ProfileProcess()</text>
<text text-anchor="start" x="124.5" y="-607.5" font-family="Helvetica,sans-Serif" font-size="10.00">+ GetVersion()</text>
<text text-anchor="start" x="124.5" y="-596.5" font-family="Helvetica,sans-Serif" font-size="10.00">+ GetStatInfCount()</text>
<text text-anchor="start" x="124.5" y="-585.5" font-family="Helvetica,sans-Serif" font-size="10.00">+ GetDim()</text>
<text text-anchor="start" x="124.5" y="-574.5" font-family="Helvetica,sans-Serif" font-size="10.00">+ GetNsite()</text>
<text text-anchor="start" x="124.5" y="-563.5" font-family="Helvetica,sans-Serif" font-size="10.00">+ GetProfile()</text>
<text text-anchor="start" x="124.5" y="-552.5" font-family="Helvetica,sans-Serif" font-size="10.00">+ GetStateSpace()</text>
<text text-anchor="start" x="124.5" y="-541.5" font-family="Helvetica,sans-Serif" font-size="10.00">+ LogProfilePrior()</text>
<text text-anchor="start" x="124.5" y="-530.5" font-family="Helvetica,sans-Serif" font-size="10.00">+ SampleProfile()</text>
<text text-anchor="start" x="124.5" y="-519.5" font-family="Helvetica,sans-Serif" font-size="10.00">+ GetMeanStationaryEntropy()</text>
<text text-anchor="start" x="124.5" y="-508.5" font-family="Helvetica,sans-Serif" font-size="10.00">+ GetSiteStationaryEntropy()</text>
<text text-anchor="start" x="124.5" y="-497.5" font-family="Helvetica,sans-Serif" font-size="10.00">+ UpdateSiteProfileSuffStat()</text>
<text text-anchor="start" x="124.5" y="-486.5" font-family="Helvetica,sans-Serif" font-size="10.00">+ GlobalUpdateSiteProfileSuffStat()</text>
<text text-anchor="start" x="124.5" y="-475.5" font-family="Helvetica,sans-Serif" font-size="10.00">+ SlaveUpdateSiteProfileSuffStat()</text>
<text text-anchor="start" x="124.5" y="-464.5" font-family="Helvetica,sans-Serif" font-size="10.00">+ GlobalUpdateParameters()</text>
<text text-anchor="start" x="124.5" y="-453.5" font-family="Helvetica,sans-Serif" font-size="10.00">+ SlaveUpdateParameters()</text>
<text text-anchor="start" x="124.5" y="-442.5" font-family="Helvetica,sans-Serif" font-size="10.00">+ ProfileSuffStatLogProb()</text>
<text text-anchor="start" x="124.5" y="-431.5" font-family="Helvetica,sans-Serif" font-size="10.00">+ ToStream()</text>
<text text-anchor="start" x="124.5" y="-420.5" font-family="Helvetica,sans-Serif" font-size="10.00">+ FromStream()</text>
<text text-anchor="start" x="124.5" y="-409.5" font-family="Helvetica,sans-Serif" font-size="10.00">+ SetBurnin()</text>
<text text-anchor="start" x="124.5" y="-398.5" font-family="Helvetica,sans-Serif" font-size="10.00">+ isObserved()</text>
<text text-anchor="start" x="124.5" y="-387.5" font-family="Helvetica,sans-Serif" font-size="10.00">+ GetMinStat()</text>
<text text-anchor="start" x="124.5" y="-376.5" font-family="Helvetica,sans-Serif" font-size="10.00">+ GetMinMinStat()</text>
<text text-anchor="start" x="124.5" y="-365.5" font-family="Helvetica,sans-Serif" font-size="10.00"># DrawProfileFromPrior()</text>
<text text-anchor="start" x="124.5" y="-354.5" font-family="Helvetica,sans-Serif" font-size="10.00"># GetNormalizationFactor()</text>
<text text-anchor="start" x="124.5" y="-343.5" font-family="Helvetica,sans-Serif" font-size="10.00"># Create()</text>
<text text-anchor="start" x="124.5" y="-332.5" font-family="Helvetica,sans-Serif" font-size="10.00"># Delete()</text>
<text text-anchor="start" x="124.5" y="-321.5" font-family="Helvetica,sans-Serif" font-size="10.00"># GetNprocs()</text>
<text text-anchor="start" x="124.5" y="-310.5" font-family="Helvetica,sans-Serif" font-size="10.00"># GetMyid()</text>
<text text-anchor="start" x="124.5" y="-299.5" font-family="Helvetica,sans-Serif" font-size="10.00"># GetSiteMin()</text>
<text text-anchor="start" x="124.5" y="-288.5" font-family="Helvetica,sans-Serif" font-size="10.00"># GetSiteMax()</text>
<text text-anchor="start" x="124.5" y="-277.5" font-family="Helvetica,sans-Serif" font-size="10.00"># GetEmpiricalFreq()</text>
<text text-anchor="start" x="124.5" y="-266.5" font-family="Helvetica,sans-Serif" font-size="10.00"># GetMinTotWeight()</text>
<text text-anchor="start" x="124.5" y="-255.5" font-family="Helvetica,sans-Serif" font-size="10.00"># SetMinTotWeight()</text>
</a>
</g>
</g>
<!-- Node13&#45;&gt;Node12 -->
<g id="edge1" class="edge"><title>Node13&#45;&gt;Node12</title>
<path fill="none" stroke="midnightblue" d="M227.584,-238.301C227.891,-235.518 228.197,-232.75 228.5,-230 229.545,-220.52 230.629,-210.646 231.711,-200.77"/>
<polygon fill="none" stroke="midnightblue" points="224.083,-238.117 226.464,-248.441 231.041,-238.886 224.083,-238.117"/>
</g>
<!-- Node13&#45;&gt;Node12 -->
<g id="edge6" class="edge"><title>Node13&#45;&gt;Node12</title>
<path fill="none" stroke="#404040" d="M195.343,-248.398C196.429,-238.434 197.8,-228.594 199.5,-219 199.888,-216.809 200.314,-214.606 200.774,-212.394"/>
<polygon fill="none" stroke="#404040" points="200.819,-212.201 198.284,-205.45 203.54,-200.513 206.075,-207.264 200.819,-212.201"/>
<text text-anchor="middle" x="212" y="-222" font-family="Helvetica,sans-Serif" font-size="10.00"> #hub</text>
</g>
<!-- Node14 -->
<g id="node3" class="node"><title>Node14</title>
<g id="a_node3"><a xlink:href="classChrono.html" target="_top" target="_top" xlink:title="{Chrono\n||+ Chrono()\l+ ~Chrono()\l+ Reset()\l+ Start()\l+ Stop()\l+ ToStream()\l+ FromStream()\l+ operator++()\l+ GetTime()\l+ GetTimePerCount()\l+ GetCount()\l}">
<polygon fill="none" stroke="black" points="63.5,-760.5 63.5,-927.5 173.5,-927.5 173.5,-760.5 63.5,-760.5"/>
<text text-anchor="middle" x="118.5" y="-915.5" font-family="Helvetica,sans-Serif" font-size="10.00">Chrono</text>
<polyline fill="none" stroke="black" points="63.5,-908.5 173.5,-908.5 "/>
<text text-anchor="middle" x="118.5" y="-896.5" font-family="Helvetica,sans-Serif" font-size="10.00"> </text>
<polyline fill="none" stroke="black" points="63.5,-889.5 173.5,-889.5 "/>
<text text-anchor="start" x="71.5" y="-877.5" font-family="Helvetica,sans-Serif" font-size="10.00">+ Chrono()</text>
<text text-anchor="start" x="71.5" y="-866.5" font-family="Helvetica,sans-Serif" font-size="10.00">+ ~Chrono()</text>
<text text-anchor="start" x="71.5" y="-855.5" font-family="Helvetica,sans-Serif" font-size="10.00">+ Reset()</text>
<text text-anchor="start" x="71.5" y="-844.5" font-family="Helvetica,sans-Serif" font-size="10.00">+ Start()</text>
<text text-anchor="start" x="71.5" y="-833.5" font-family="Helvetica,sans-Serif" font-size="10.00">+ Stop()</text>
<text text-anchor="start" x="71.5" y="-822.5" font-family="Helvetica,sans-Serif" font-size="10.00">+ ToStream()</text>
<text text-anchor="start" x="71.5" y="-811.5" font-family="Helvetica,sans-Serif" font-size="10.00">+ FromStream()</text>
<text text-anchor="start" x="71.5" y="-800.5" font-family="Helvetica,sans-Serif" font-size="10.00">+ operator++()</text>
<text text-anchor="start" x="71.5" y="-789.5" font-family="Helvetica,sans-Serif" font-size="10.00">+ GetTime()</text>
<text text-anchor="start" x="71.5" y="-778.5" font-family="Helvetica,sans-Serif" font-size="10.00">+ GetTimePerCount()</text>
<text text-anchor="start" x="71.5" y="-767.5" font-family="Helvetica,sans-Serif" font-size="10.00">+ GetCount()</text>
</a>
</g>
</g>
<!-- Node14&#45;&gt;Node13 -->
<g id="edge2" class="edge"><title>Node14&#45;&gt;Node13</title>
<path fill="none" stroke="#404040" d="M132.333,-760.382C136.025,-739.941 140.194,-718.133 144.5,-698 144.962,-695.839 145.43,-693.668 145.903,-691.488"/>
<polygon fill="none" stroke="#404040" points="145.907,-691.47 143.287,-684.751 148.482,-679.749 151.101,-686.468 145.907,-691.47"/>
<text text-anchor="middle" x="172" y="-728.5" font-family="Helvetica,sans-Serif" font-size="10.00"> #chronostat</text>
<text text-anchor="middle" x="172" y="-717.5" font-family="Helvetica,sans-Serif" font-size="10.00">#chronorr</text>
<text text-anchor="middle" x="172" y="-706.5" font-family="Helvetica,sans-Serif" font-size="10.00">#chronodp</text>
</g>
<!-- Node15 -->
<g id="node4" class="node"><title>Node15</title>
<polygon fill="none" stroke="#bfbfbf" points="0,-815.5 0,-872.5 45,-872.5 45,-815.5 0,-815.5"/>
<text text-anchor="middle" x="22.5" y="-860.5" font-family="Helvetica,sans-Serif" font-size="10.00">double</text>
<polyline fill="none" stroke="#bfbfbf" points="0,-853.5 45,-853.5 "/>
<text text-anchor="middle" x="22.5" y="-841.5" font-family="Helvetica,sans-Serif" font-size="10.00"> </text>
<polyline fill="none" stroke="#bfbfbf" points="0,-834.5 45,-834.5 "/>
<text text-anchor="middle" x="22.5" y="-822.5" font-family="Helvetica,sans-Serif" font-size="10.00"> </text>
</g>
<!-- Node15&#45;&gt;Node13 -->
<g id="edge3" class="edge"><title>Node15&#45;&gt;Node13</title>
<path fill="none" stroke="#404040" d="M29.3648,-815.368C37.1678,-785.707 51.1076,-737.523 68.5,-698 80.6958,-670.286 95.3179,-641.652 110.353,-614.345"/>
<polygon fill="none" stroke="#404040" points="110.526,-614.034 109.946,-606.846 116.357,-603.546 116.937,-610.734 110.526,-614.034"/>
<text text-anchor="middle" x="100.5" y="-717.5" font-family="Helvetica,sans-Serif" font-size="10.00"> #mintotweight</text>
</g>
<!-- Node16 -->
<g id="node5" class="node"><title>Node16</title>
<polygon fill="none" stroke="#bfbfbf" points="315,-815.5 315,-872.5 344,-872.5 344,-815.5 315,-815.5"/>
<text text-anchor="middle" x="329.5" y="-860.5" font-family="Helvetica,sans-Serif" font-size="10.00">int</text>
<polyline fill="none" stroke="#bfbfbf" points="315,-853.5 344,-853.5 "/>
<text text-anchor="middle" x="329.5" y="-841.5" font-family="Helvetica,sans-Serif" font-size="10.00"> </text>
<polyline fill="none" stroke="#bfbfbf" points="315,-834.5 344,-834.5 "/>
<text text-anchor="middle" x="329.5" y="-822.5" font-family="Helvetica,sans-Serif" font-size="10.00"> </text>
</g>
<!-- Node16&#45;&gt;Node12 -->
<g id="edge7" class="edge"><title>Node16&#45;&gt;Node12</title>
<path fill="none" stroke="#404040" d="M337.539,-815.422C342.978,-795.278 349.667,-767.198 352.5,-742 354.685,-722.567 353.688,-717.519 352.5,-698 340.255,-496.884 345.469,-443.695 297.5,-248 294.608,-236.202 291.049,-224.057 287.143,-212.045"/>
<polygon fill="none" stroke="#404040" points="287.116,-211.964 281.417,-207.546 283.303,-200.585 289.002,-205.004 287.116,-211.964"/>
<text text-anchor="middle" x="367.5" y="-461.5" font-family="Helvetica,sans-Serif" font-size="10.00"> #offset</text>
</g>
<!-- Node16&#45;&gt;Node13 -->
<g id="edge4" class="edge"><title>Node16&#45;&gt;Node13</title>
<path fill="none" stroke="#404040" d="M319.747,-815.168C312.672,-794.902 302.908,-766.779 294.5,-742 288.944,-725.625 283.234,-708.693 277.51,-691.644"/>
<polygon fill="none" stroke="#404040" points="277.363,-691.205 271.663,-686.789 273.547,-679.828 279.248,-684.245 277.363,-691.205"/>
<text text-anchor="middle" x="323.5" y="-734" font-family="Helvetica,sans-Serif" font-size="10.00"> #dim</text>
<text text-anchor="middle" x="323.5" y="-723" font-family="Helvetica,sans-Serif" font-size="10.00">#statinfcount</text>
<text text-anchor="middle" x="323.5" y="-712" font-family="Helvetica,sans-Serif" font-size="10.00">#totstatcount</text>
<text text-anchor="middle" x="323.5" y="-701" font-family="Helvetica,sans-Serif" font-size="10.00">#nsite</text>
</g>
<!-- Node17 -->
<g id="node6" class="node"><title>Node17</title>
<polygon fill="none" stroke="#bfbfbf" points="192,-815.5 192,-872.5 227,-872.5 227,-815.5 192,-815.5"/>
<text text-anchor="middle" x="209.5" y="-860.5" font-family="Helvetica,sans-Serif" font-size="10.00">bool</text>
<polyline fill="none" stroke="#bfbfbf" points="192,-853.5 227,-853.5 "/>
<text text-anchor="middle" x="209.5" y="-841.5" font-family="Helvetica,sans-Serif" font-size="10.00"> </text>
<polyline fill="none" stroke="#bfbfbf" points="192,-834.5 227,-834.5 "/>
<text text-anchor="middle" x="209.5" y="-822.5" font-family="Helvetica,sans-Serif" font-size="10.00"> </text>
</g>
<!-- Node17&#45;&gt;Node13 -->
<g id="edge5" class="edge"><title>Node17&#45;&gt;Node13</title>
<path fill="none" stroke="#404040" d="M207.427,-815.154C206.02,-794.88 204.279,-766.755 203.5,-742 202.989,-725.755 202.595,-708.971 202.296,-692.075"/>
<polygon fill="none" stroke="#404040" points="202.291,-691.756 198.194,-685.822 202.096,-679.757 206.193,-685.691 202.291,-691.756"/>
<text text-anchor="middle" x="237.5" y="-723" font-family="Helvetica,sans-Serif" font-size="10.00"> #activesuffstat</text>
<text text-anchor="middle" x="237.5" y="-712" font-family="Helvetica,sans-Serif" font-size="10.00">#burnin</text>
</g>
</g>
</svg>
