<?xml version="1.0" encoding="UTF-8" standalone="no"?>
<!DOCTYPE svg PUBLIC "-//W3C//DTD SVG 1.1//EN"
 "http://www.w3.org/Graphics/SVG/1.1/DTD/svg11.dtd">
<!-- Generated by graphviz version 2.38.0 (20140413.2041)
 -->
<!-- Title: CodonSequenceAlignment.h Pages: 1 -->
<svg width="598pt" height="252pt"
 viewBox="0.00 0.00 597.50 252.00" xmlns="http://www.w3.org/2000/svg" xmlns:xlink="http://www.w3.org/1999/xlink">
<g id="graph0" class="graph" transform="scale(1 1) rotate(0) translate(4 248)">
<title>CodonSequenceAlignment.h</title>
<!-- Node0 -->
<g id="node1" class="node"><title>Node0</title>
<polygon fill="#bfbfbf" stroke="black" points="162.5,-224.5 162.5,-243.5 302.5,-243.5 302.5,-224.5 162.5,-224.5"/>
<text text-anchor="middle" x="232.5" y="-231.5" font-family="Helvetica,sans-Serif" font-size="10.00">CodonSequenceAlignment.h</text>
</g>
<!-- Node1 -->
<g id="node2" class="node"><title>Node1</title>
<g id="a_node2"><a xlink:href="SequenceAlignment_8h.html" target="_top" xlink:title="SequenceAlignment.h">
<polygon fill="none" stroke="black" points="176.5,-168.5 176.5,-187.5 288.5,-187.5 288.5,-168.5 176.5,-168.5"/>
<text text-anchor="middle" x="232.5" y="-175.5" font-family="Helvetica,sans-Serif" font-size="10.00">SequenceAlignment.h</text>
</a>
</g>
</g>
<!-- Node0&#45;&gt;Node1 -->
<g id="edge1" class="edge"><title>Node0&#45;&gt;Node1</title>
<path fill="none" stroke="midnightblue" d="M232.5,-224.083C232.5,-217.006 232.5,-206.861 232.5,-197.986"/>
<polygon fill="midnightblue" stroke="midnightblue" points="236,-197.751 232.5,-187.751 229,-197.751 236,-197.751"/>
</g>
<!-- Node10 -->
<g id="node11" class="node"><title>Node10</title>
<polygon fill="none" stroke="#bfbfbf" points="545.5,-56.5 545.5,-75.5 589.5,-75.5 589.5,-56.5 545.5,-56.5"/>
<text text-anchor="middle" x="567.5" y="-63.5" font-family="Helvetica,sans-Serif" font-size="10.00">cmath</text>
</g>
<!-- Node0&#45;&gt;Node10 -->
<g id="edge21" class="edge"><title>Node0&#45;&gt;Node10</title>
<path fill="none" stroke="midnightblue" d="M250.039,-224.309C305.102,-197.024 474.777,-112.947 540.813,-80.2239"/>
<polygon fill="midnightblue" stroke="midnightblue" points="542.728,-83.1813 550.134,-75.6051 539.62,-76.9091 542.728,-83.1813"/>
</g>
<!-- Node14 -->
<g id="node15" class="node"><title>Node14</title>
<g id="a_node15"><a xlink:href="CodonStateSpace_8h.html" target="_top" xlink:title="CodonStateSpace.h">
<polygon fill="none" stroke="black" points="54.5,-168.5 54.5,-187.5 158.5,-187.5 158.5,-168.5 54.5,-168.5"/>
<text text-anchor="middle" x="106.5" y="-175.5" font-family="Helvetica,sans-Serif" font-size="10.00">CodonStateSpace.h</text>
</a>
</g>
</g>
<!-- Node0&#45;&gt;Node14 -->
<g id="edge18" class="edge"><title>Node0&#45;&gt;Node14</title>
<path fill="none" stroke="midnightblue" d="M212.535,-224.444C191.891,-215.596 159.437,-201.687 135.868,-191.586"/>
<polygon fill="midnightblue" stroke="midnightblue" points="136.942,-188.239 126.372,-187.516 134.184,-194.673 136.942,-188.239"/>
</g>
<!-- Node2 -->
<g id="node3" class="node"><title>Node2</title>
<g id="a_node3"><a xlink:href="StateSpace_8h.html" target="_top" xlink:title="StateSpace.h">
<polygon fill="none" stroke="black" points="131.5,-112.5 131.5,-131.5 207.5,-131.5 207.5,-112.5 131.5,-112.5"/>
<text text-anchor="middle" x="169.5" y="-119.5" font-family="Helvetica,sans-Serif" font-size="10.00">StateSpace.h</text>
</a>
</g>
</g>
<!-- Node1&#45;&gt;Node2 -->
<g id="edge2" class="edge"><title>Node1&#45;&gt;Node2</title>
<path fill="none" stroke="midnightblue" d="M222.378,-168.324C212.974,-160.263 198.756,-148.077 187.431,-138.369"/>
<polygon fill="midnightblue" stroke="midnightblue" points="189.677,-135.684 179.806,-131.834 185.121,-140.999 189.677,-135.684"/>
</g>
<!-- Node7 -->
<g id="node8" class="node"><title>Node7</title>
<g id="a_node8"><a xlink:href="TaxonSet_8h.html" target="_top" xlink:title="TaxonSet.h">
<polygon fill="none" stroke="black" points="46,-112.5 46,-131.5 113,-131.5 113,-112.5 46,-112.5"/>
<text text-anchor="middle" x="79.5" y="-119.5" font-family="Helvetica,sans-Serif" font-size="10.00">TaxonSet.h</text>
</a>
</g>
</g>
<!-- Node1&#45;&gt;Node7 -->
<g id="edge7" class="edge"><title>Node1&#45;&gt;Node7</title>
<path fill="none" stroke="midnightblue" d="M208.257,-168.444C182.629,-159.399 142.015,-145.064 113.262,-134.916"/>
<polygon fill="midnightblue" stroke="midnightblue" points="114.225,-131.544 103.63,-131.516 111.895,-138.145 114.225,-131.544"/>
</g>
<!-- Node9 -->
<g id="node10" class="node"><title>Node9</title>
<g id="a_node10"><a xlink:href="Random_8h.html" target="_top" xlink:title="Random.h">
<polygon fill="none" stroke="black" points="350.5,-112.5 350.5,-131.5 412.5,-131.5 412.5,-112.5 350.5,-112.5"/>
<text text-anchor="middle" x="381.5" y="-119.5" font-family="Helvetica,sans-Serif" font-size="10.00">Random.h</text>
</a>
</g>
</g>
<!-- Node1&#45;&gt;Node9 -->
<g id="edge11" class="edge"><title>Node1&#45;&gt;Node9</title>
<path fill="none" stroke="midnightblue" d="M256.109,-168.444C280.958,-159.438 320.274,-145.189 348.254,-135.049"/>
<polygon fill="midnightblue" stroke="midnightblue" points="349.792,-138.214 358.001,-131.516 347.407,-131.633 349.792,-138.214"/>
</g>
<!-- Node3 -->
<g id="node4" class="node"><title>Node3</title>
<g id="a_node4"><a xlink:href="BiologicalSequences_8h.html" target="_top" xlink:title="BiologicalSequences.h">
<polygon fill="none" stroke="black" points="91.5,-56.5 91.5,-75.5 207.5,-75.5 207.5,-56.5 91.5,-56.5"/>
<text text-anchor="middle" x="149.5" y="-63.5" font-family="Helvetica,sans-Serif" font-size="10.00">BiologicalSequences.h</text>
</a>
</g>
</g>
<!-- Node2&#45;&gt;Node3 -->
<g id="edge3" class="edge"><title>Node2&#45;&gt;Node3</title>
<path fill="none" stroke="midnightblue" d="M166.197,-112.083C163.518,-104.849 159.651,-94.4087 156.314,-85.3968"/>
<polygon fill="midnightblue" stroke="midnightblue" points="159.496,-83.9129 152.741,-75.7511 152.932,-86.3442 159.496,-83.9129"/>
</g>
<!-- Node4 -->
<g id="node5" class="node"><title>Node4</title>
<polygon fill="none" stroke="#bfbfbf" points="155,-0.5 155,-19.5 200,-19.5 200,-0.5 155,-0.5"/>
<text text-anchor="middle" x="177.5" y="-7.5" font-family="Helvetica,sans-Serif" font-size="10.00">cstdlib</text>
</g>
<!-- Node3&#45;&gt;Node4 -->
<g id="edge4" class="edge"><title>Node3&#45;&gt;Node4</title>
<path fill="none" stroke="midnightblue" d="M154.124,-56.083C157.956,-48.6913 163.524,-37.9533 168.265,-28.8111"/>
<polygon fill="midnightblue" stroke="midnightblue" points="171.466,-30.2398 172.962,-19.7511 165.252,-27.0175 171.466,-30.2398"/>
</g>
<!-- Node5 -->
<g id="node6" class="node"><title>Node5</title>
<polygon fill="none" stroke="#bfbfbf" points="246.5,-0.5 246.5,-19.5 300.5,-19.5 300.5,-0.5 246.5,-0.5"/>
<text text-anchor="middle" x="273.5" y="-7.5" font-family="Helvetica,sans-Serif" font-size="10.00">iostream</text>
</g>
<!-- Node3&#45;&gt;Node5 -->
<g id="edge5" class="edge"><title>Node3&#45;&gt;Node5</title>
<path fill="none" stroke="midnightblue" d="M169.148,-56.4435C189.465,-47.5961 221.403,-33.6875 244.598,-23.5865"/>
<polygon fill="midnightblue" stroke="midnightblue" points="246.173,-26.7181 253.944,-19.5164 243.378,-20.3002 246.173,-26.7181"/>
</g>
<!-- Node6 -->
<g id="node7" class="node"><title>Node6</title>
<polygon fill="none" stroke="#bfbfbf" points="84,-0.5 84,-19.5 125,-19.5 125,-0.5 84,-0.5"/>
<text text-anchor="middle" x="104.5" y="-7.5" font-family="Helvetica,sans-Serif" font-size="10.00">string</text>
</g>
<!-- Node3&#45;&gt;Node6 -->
<g id="edge6" class="edge"><title>Node3&#45;&gt;Node6</title>
<path fill="none" stroke="midnightblue" d="M142.069,-56.083C135.647,-48.3768 126.194,-37.0333 118.378,-27.6531"/>
<polygon fill="midnightblue" stroke="midnightblue" points="120.883,-25.1927 111.793,-19.7511 115.506,-29.674 120.883,-25.1927"/>
</g>
<!-- Node7&#45;&gt;Node5 -->
<g id="edge10" class="edge"><title>Node7&#45;&gt;Node5</title>
<path fill="none" stroke="midnightblue" d="M111.965,-112.474C146.708,-102.978 199.166,-87.4589 216.5,-76 235.398,-63.5069 251.826,-43.1498 262.128,-28.545"/>
<polygon fill="midnightblue" stroke="midnightblue" points="265.262,-30.1596 267.977,-19.9186 259.468,-26.2312 265.262,-30.1596"/>
</g>
<!-- Node7&#45;&gt;Node6 -->
<g id="edge9" class="edge"><title>Node7&#45;&gt;Node6</title>
<path fill="none" stroke="midnightblue" d="M78.8039,-112.424C78.0249,-99.8318 77.461,-75.6999 82.5,-56 84.9513,-46.4167 89.5678,-36.4652 93.9413,-28.3649"/>
<polygon fill="midnightblue" stroke="midnightblue" points="97.0567,-29.9677 98.9937,-19.5515 90.9838,-26.4863 97.0567,-29.9677"/>
</g>
<!-- Node8 -->
<g id="node9" class="node"><title>Node8</title>
<polygon fill="none" stroke="#bfbfbf" points="0,-56.5 0,-75.5 35,-75.5 35,-56.5 0,-56.5"/>
<text text-anchor="middle" x="17.5" y="-63.5" font-family="Helvetica,sans-Serif" font-size="10.00">map</text>
</g>
<!-- Node7&#45;&gt;Node8 -->
<g id="edge8" class="edge"><title>Node7&#45;&gt;Node8</title>
<path fill="none" stroke="midnightblue" d="M69.5386,-112.324C60.3734,-104.341 46.5628,-92.3128 35.4718,-82.6529"/>
<polygon fill="midnightblue" stroke="midnightblue" points="37.4822,-79.7624 27.6426,-75.8339 32.8847,-85.041 37.4822,-79.7624"/>
</g>
<!-- Node9&#45;&gt;Node4 -->
<g id="edge13" class="edge"><title>Node9&#45;&gt;Node4</title>
<path fill="none" stroke="midnightblue" d="M363.982,-112.441C345.944,-103.559 317.079,-89.1508 292.5,-76 260.509,-58.8835 224.139,-38.0988 201.02,-24.7165"/>
<polygon fill="midnightblue" stroke="midnightblue" points="202.671,-21.6277 192.265,-19.6356 199.157,-27.6821 202.671,-21.6277"/>
</g>
<!-- Node9&#45;&gt;Node5 -->
<g id="edge14" class="edge"><title>Node9&#45;&gt;Node5</title>
<path fill="none" stroke="midnightblue" d="M381.118,-112.415C380.094,-98.9366 376.329,-72.6356 362.5,-56 349.052,-39.8228 328.322,-28.8649 310.251,-21.816"/>
<polygon fill="midnightblue" stroke="midnightblue" points="311.142,-18.4161 300.548,-18.2937 308.753,-24.996 311.142,-18.4161"/>
</g>
<!-- Node9&#45;&gt;Node10 -->
<g id="edge12" class="edge"><title>Node9&#45;&gt;Node10</title>
<path fill="none" stroke="midnightblue" d="M410.972,-112.444C445.002,-102.564 500.769,-86.3734 535.74,-76.2208"/>
<polygon fill="midnightblue" stroke="midnightblue" points="536.819,-79.552 545.447,-73.4026 534.867,-72.8296 536.819,-79.552"/>
</g>
<!-- Node11 -->
<g id="node12" class="node"><title>Node11</title>
<polygon fill="none" stroke="#bfbfbf" points="301.5,-56.5 301.5,-75.5 353.5,-75.5 353.5,-56.5 301.5,-56.5"/>
<text text-anchor="middle" x="327.5" y="-63.5" font-family="Helvetica,sans-Serif" font-size="10.00">sstream</text>
</g>
<!-- Node9&#45;&gt;Node11 -->
<g id="edge15" class="edge"><title>Node9&#45;&gt;Node11</title>
<path fill="none" stroke="midnightblue" d="M372.583,-112.083C364.72,-104.22 353.069,-92.5688 343.581,-83.0813"/>
<polygon fill="midnightblue" stroke="midnightblue" points="345.797,-80.3473 336.251,-75.7511 340.847,-85.2971 345.797,-80.3473"/>
</g>
<!-- Node12 -->
<g id="node13" class="node"><title>Node12</title>
<polygon fill="none" stroke="#bfbfbf" points="409.5,-56.5 409.5,-75.5 459.5,-75.5 459.5,-56.5 409.5,-56.5"/>
<text text-anchor="middle" x="434.5" y="-63.5" font-family="Helvetica,sans-Serif" font-size="10.00">iomanip</text>
</g>
<!-- Node9&#45;&gt;Node12 -->
<g id="edge16" class="edge"><title>Node9&#45;&gt;Node12</title>
<path fill="none" stroke="midnightblue" d="M390.252,-112.083C397.97,-104.22 409.405,-92.5688 418.717,-83.0813"/>
<polygon fill="midnightblue" stroke="midnightblue" points="421.404,-85.3396 425.911,-75.7511 416.408,-80.4363 421.404,-85.3396"/>
</g>
<!-- Node13 -->
<g id="node14" class="node"><title>Node13</title>
<polygon fill="none" stroke="#bfbfbf" points="477.5,-56.5 477.5,-75.5 527.5,-75.5 527.5,-56.5 477.5,-56.5"/>
<text text-anchor="middle" x="502.5" y="-63.5" font-family="Helvetica,sans-Serif" font-size="10.00">fstream</text>
</g>
<!-- Node9&#45;&gt;Node13 -->
<g id="edge17" class="edge"><title>Node9&#45;&gt;Node13</title>
<path fill="none" stroke="midnightblue" d="M400.673,-112.444C420.409,-103.636 451.385,-89.8116 473.993,-79.722"/>
<polygon fill="midnightblue" stroke="midnightblue" points="475.711,-82.788 483.417,-75.5164 472.859,-76.3957 475.711,-82.788"/>
</g>
<!-- Node14&#45;&gt;Node2 -->
<g id="edge19" class="edge"><title>Node14&#45;&gt;Node2</title>
<path fill="none" stroke="midnightblue" d="M116.622,-168.324C126.026,-160.263 140.244,-148.077 151.569,-138.369"/>
<polygon fill="midnightblue" stroke="midnightblue" points="153.879,-140.999 159.194,-131.834 149.323,-135.684 153.879,-140.999"/>
</g>
<!-- Node14&#45;&gt;Node8 -->
<g id="edge20" class="edge"><title>Node14&#45;&gt;Node8</title>
<path fill="none" stroke="midnightblue" d="M85.5059,-168.419C69.834,-160.987 49.0427,-148.779 36.5,-132 26.491,-118.611 21.7391,-100.043 19.4921,-86.1794"/>
<polygon fill="midnightblue" stroke="midnightblue" points="22.9086,-85.3153 18.1334,-75.8576 15.9685,-86.2289 22.9086,-85.3153"/>
</g>
</g>
</svg>
