<?xml version="1.0" encoding="UTF-8" standalone="no"?>
<!DOCTYPE svg PUBLIC "-//W3C//DTD SVG 1.1//EN"
 "http://www.w3.org/Graphics/SVG/1.1/DTD/svg11.dtd">
<!-- Generated by graphviz version 2.38.0 (20140413.2041)
 -->
<!-- Title: CodonSequenceAlignment.cpp Pages: 1 -->
<svg width="655pt" height="308pt"
 viewBox="0.00 0.00 655.18 308.00" xmlns="http://www.w3.org/2000/svg" xmlns:xlink="http://www.w3.org/1999/xlink">
<g id="graph0" class="graph" transform="scale(1 1) rotate(0) translate(4 304)">
<title>CodonSequenceAlignment.cpp</title>
<!-- Node0 -->
<g id="node1" class="node"><title>Node0</title>
<polygon fill="#bfbfbf" stroke="black" points="204.131,-280.5 204.131,-299.5 355.131,-299.5 355.131,-280.5 204.131,-280.5"/>
<text text-anchor="middle" x="279.631" y="-287.5" font-family="Helvetica,sans-Serif" font-size="10.00">CodonSequenceAlignment.cpp</text>
</g>
<!-- Node1 -->
<g id="node2" class="node"><title>Node1</title>
<polygon fill="none" stroke="#bfbfbf" points="160.631,-0.5 160.631,-19.5 214.631,-19.5 214.631,-0.5 160.631,-0.5"/>
<text text-anchor="middle" x="187.631" y="-7.5" font-family="Helvetica,sans-Serif" font-size="10.00">iostream</text>
</g>
<!-- Node0&#45;&gt;Node1 -->
<g id="edge1" class="edge"><title>Node0&#45;&gt;Node1</title>
<path fill="none" stroke="midnightblue" d="M232.302,-280.451C152.702,-264.711 0.630556,-228.203 0.630556,-179 0.630556,-179 0.630556,-179 0.630556,-121 0.630556,-90.9022 -1.89167,-77.0397 19.6306,-56 29.0651,-46.777 103.927,-29.1718 150.479,-18.9293"/>
<polygon fill="midnightblue" stroke="midnightblue" points="151.492,-22.2908 160.515,-16.7385 149.999,-15.4518 151.492,-22.2908"/>
</g>
<!-- Node2 -->
<g id="node3" class="node"><title>Node2</title>
<polygon fill="none" stroke="#bfbfbf" points="456.131,-0.5 456.131,-19.5 501.131,-19.5 501.131,-0.5 456.131,-0.5"/>
<text text-anchor="middle" x="478.631" y="-7.5" font-family="Helvetica,sans-Serif" font-size="10.00">cstdlib</text>
</g>
<!-- Node0&#45;&gt;Node2 -->
<g id="edge2" class="edge"><title>Node0&#45;&gt;Node2</title>
<path fill="none" stroke="midnightblue" d="M355.228,-281.76C462.663,-269.343 646.631,-239.28 646.631,-179 646.631,-179 646.631,-179 646.631,-121 646.631,-90.9022 648.818,-77.377 627.631,-56 596.735,-24.8272 545.065,-15.0959 511.418,-12.1469"/>
<polygon fill="midnightblue" stroke="midnightblue" points="511.402,-8.63672 501.176,-11.4091 510.899,-15.6186 511.402,-8.63672"/>
</g>
<!-- Node3 -->
<g id="node4" class="node"><title>Node3</title>
<g id="a_node4"><a xlink:href="CodonSequenceAlignment_8h.html" target="_top" xlink:title="CodonSequenceAlignment.h">
<polygon fill="none" stroke="black" points="209.631,-224.5 209.631,-243.5 349.631,-243.5 349.631,-224.5 209.631,-224.5"/>
<text text-anchor="middle" x="279.631" y="-231.5" font-family="Helvetica,sans-Serif" font-size="10.00">CodonSequenceAlignment.h</text>
</a>
</g>
</g>
<!-- Node0&#45;&gt;Node3 -->
<g id="edge3" class="edge"><title>Node0&#45;&gt;Node3</title>
<path fill="none" stroke="midnightblue" d="M279.631,-280.083C279.631,-273.006 279.631,-262.861 279.631,-253.986"/>
<polygon fill="midnightblue" stroke="midnightblue" points="283.131,-253.751 279.631,-243.751 276.131,-253.751 283.131,-253.751"/>
</g>
<!-- Node4 -->
<g id="node5" class="node"><title>Node4</title>
<g id="a_node5"><a xlink:href="SequenceAlignment_8h.html" target="_top" xlink:title="SequenceAlignment.h">
<polygon fill="none" stroke="black" points="223.631,-168.5 223.631,-187.5 335.631,-187.5 335.631,-168.5 223.631,-168.5"/>
<text text-anchor="middle" x="279.631" y="-175.5" font-family="Helvetica,sans-Serif" font-size="10.00">SequenceAlignment.h</text>
</a>
</g>
</g>
<!-- Node3&#45;&gt;Node4 -->
<g id="edge4" class="edge"><title>Node3&#45;&gt;Node4</title>
<path fill="none" stroke="midnightblue" d="M279.631,-224.083C279.631,-217.006 279.631,-206.861 279.631,-197.986"/>
<polygon fill="midnightblue" stroke="midnightblue" points="283.131,-197.751 279.631,-187.751 276.131,-197.751 283.131,-197.751"/>
</g>
<!-- Node11 -->
<g id="node12" class="node"><title>Node11</title>
<polygon fill="none" stroke="#bfbfbf" points="574.631,-56.5 574.631,-75.5 618.631,-75.5 618.631,-56.5 574.631,-56.5"/>
<text text-anchor="middle" x="596.631" y="-63.5" font-family="Helvetica,sans-Serif" font-size="10.00">cmath</text>
</g>
<!-- Node3&#45;&gt;Node11 -->
<g id="edge24" class="edge"><title>Node3&#45;&gt;Node11</title>
<path fill="none" stroke="midnightblue" d="M297.243,-224.482C332.372,-207.419 413.545,-167.627 480.631,-132 512.885,-114.87 549.575,-94.0888 572.9,-80.7107"/>
<polygon fill="midnightblue" stroke="midnightblue" points="574.809,-83.6505 581.733,-75.6317 571.32,-77.5822 574.809,-83.6505"/>
</g>
<!-- Node15 -->
<g id="node16" class="node"><title>Node15</title>
<g id="a_node16"><a xlink:href="CodonStateSpace_8h.html" target="_top" xlink:title="CodonStateSpace.h">
<polygon fill="none" stroke="black" points="101.631,-168.5 101.631,-187.5 205.631,-187.5 205.631,-168.5 101.631,-168.5"/>
<text text-anchor="middle" x="153.631" y="-175.5" font-family="Helvetica,sans-Serif" font-size="10.00">CodonStateSpace.h</text>
</a>
</g>
</g>
<!-- Node3&#45;&gt;Node15 -->
<g id="edge21" class="edge"><title>Node3&#45;&gt;Node15</title>
<path fill="none" stroke="midnightblue" d="M259.665,-224.444C239.021,-215.596 206.568,-201.687 182.999,-191.586"/>
<polygon fill="midnightblue" stroke="midnightblue" points="184.072,-188.239 173.502,-187.516 181.315,-194.673 184.072,-188.239"/>
</g>
<!-- Node5 -->
<g id="node6" class="node"><title>Node5</title>
<g id="a_node6"><a xlink:href="StateSpace_8h.html" target="_top" xlink:title="StateSpace.h">
<polygon fill="none" stroke="black" points="178.631,-112.5 178.631,-131.5 254.631,-131.5 254.631,-112.5 178.631,-112.5"/>
<text text-anchor="middle" x="216.631" y="-119.5" font-family="Helvetica,sans-Serif" font-size="10.00">StateSpace.h</text>
</a>
</g>
</g>
<!-- Node4&#45;&gt;Node5 -->
<g id="edge5" class="edge"><title>Node4&#45;&gt;Node5</title>
<path fill="none" stroke="midnightblue" d="M269.509,-168.324C260.104,-160.263 245.886,-148.077 234.562,-138.369"/>
<polygon fill="midnightblue" stroke="midnightblue" points="236.807,-135.684 226.937,-131.834 232.252,-140.999 236.807,-135.684"/>
</g>
<!-- Node8 -->
<g id="node9" class="node"><title>Node8</title>
<g id="a_node9"><a xlink:href="TaxonSet_8h.html" target="_top" xlink:title="TaxonSet.h">
<polygon fill="none" stroke="black" points="89.1306,-112.5 89.1306,-131.5 156.131,-131.5 156.131,-112.5 89.1306,-112.5"/>
<text text-anchor="middle" x="122.631" y="-119.5" font-family="Helvetica,sans-Serif" font-size="10.00">TaxonSet.h</text>
</a>
</g>
</g>
<!-- Node4&#45;&gt;Node8 -->
<g id="edge10" class="edge"><title>Node4&#45;&gt;Node8</title>
<path fill="none" stroke="midnightblue" d="M254.753,-168.444C228.341,-159.359 186.415,-144.939 156.889,-134.783"/>
<polygon fill="midnightblue" stroke="midnightblue" points="157.986,-131.459 147.391,-131.516 155.709,-138.079 157.986,-131.459"/>
</g>
<!-- Node10 -->
<g id="node11" class="node"><title>Node10</title>
<g id="a_node11"><a xlink:href="Random_8h.html" target="_top" xlink:title="Random.h">
<polygon fill="none" stroke="black" points="409.631,-112.5 409.631,-131.5 471.631,-131.5 471.631,-112.5 409.631,-112.5"/>
<text text-anchor="middle" x="440.631" y="-119.5" font-family="Helvetica,sans-Serif" font-size="10.00">Random.h</text>
</a>
</g>
</g>
<!-- Node4&#45;&gt;Node10 -->
<g id="edge14" class="edge"><title>Node4&#45;&gt;Node10</title>
<path fill="none" stroke="midnightblue" d="M305.141,-168.444C332.227,-159.359 375.221,-144.939 405.499,-134.783"/>
<polygon fill="midnightblue" stroke="midnightblue" points="406.871,-138.015 415.239,-131.516 404.645,-131.378 406.871,-138.015"/>
</g>
<!-- Node6 -->
<g id="node7" class="node"><title>Node6</title>
<g id="a_node7"><a xlink:href="BiologicalSequences_8h.html" target="_top" xlink:title="BiologicalSequences.h">
<polygon fill="none" stroke="black" points="158.631,-56.5 158.631,-75.5 274.631,-75.5 274.631,-56.5 158.631,-56.5"/>
<text text-anchor="middle" x="216.631" y="-63.5" font-family="Helvetica,sans-Serif" font-size="10.00">BiologicalSequences.h</text>
</a>
</g>
</g>
<!-- Node5&#45;&gt;Node6 -->
<g id="edge6" class="edge"><title>Node5&#45;&gt;Node6</title>
<path fill="none" stroke="midnightblue" d="M216.631,-112.083C216.631,-105.006 216.631,-94.8611 216.631,-85.9865"/>
<polygon fill="midnightblue" stroke="midnightblue" points="220.131,-85.751 216.631,-75.7511 213.131,-85.7511 220.131,-85.751"/>
</g>
<!-- Node6&#45;&gt;Node1 -->
<g id="edge8" class="edge"><title>Node6&#45;&gt;Node1</title>
<path fill="none" stroke="midnightblue" d="M211.842,-56.083C207.872,-48.6913 202.105,-37.9533 197.196,-28.8111"/>
<polygon fill="midnightblue" stroke="midnightblue" points="200.145,-26.9051 192.33,-19.7511 193.978,-30.217 200.145,-26.9051"/>
</g>
<!-- Node6&#45;&gt;Node2 -->
<g id="edge7" class="edge"><title>Node6&#45;&gt;Node2</title>
<path fill="none" stroke="midnightblue" d="M258.145,-56.4435C310.194,-45.716 398.343,-27.5478 445.89,-17.748"/>
<polygon fill="midnightblue" stroke="midnightblue" points="446.861,-21.1216 455.949,-15.6749 445.448,-14.2657 446.861,-21.1216"/>
</g>
<!-- Node7 -->
<g id="node8" class="node"><title>Node7</title>
<polygon fill="none" stroke="#bfbfbf" points="87.1306,-0.5 87.1306,-19.5 128.131,-19.5 128.131,-0.5 87.1306,-0.5"/>
<text text-anchor="middle" x="107.631" y="-7.5" font-family="Helvetica,sans-Serif" font-size="10.00">string</text>
</g>
<!-- Node6&#45;&gt;Node7 -->
<g id="edge9" class="edge"><title>Node6&#45;&gt;Node7</title>
<path fill="none" stroke="midnightblue" d="M199.118,-56.324C181.558,-47.6247 154.299,-34.1202 134.099,-24.113"/>
<polygon fill="midnightblue" stroke="midnightblue" points="135.614,-20.9575 125.1,-19.6545 132.507,-27.23 135.614,-20.9575"/>
</g>
<!-- Node8&#45;&gt;Node1 -->
<g id="edge13" class="edge"><title>Node8&#45;&gt;Node1</title>
<path fill="none" stroke="midnightblue" d="M125.329,-112.181C129.484,-99.2859 138.181,-74.7804 149.631,-56 155.938,-45.654 164.548,-35.244 171.978,-27.0462"/>
<polygon fill="midnightblue" stroke="midnightblue" points="174.605,-29.3617 178.885,-19.67 169.495,-24.577 174.605,-29.3617"/>
</g>
<!-- Node8&#45;&gt;Node7 -->
<g id="edge12" class="edge"><title>Node8&#45;&gt;Node7</title>
<path fill="none" stroke="midnightblue" d="M121.454,-112.368C119.033,-94.617 113.449,-53.6664 110.167,-29.5974"/>
<polygon fill="midnightblue" stroke="midnightblue" points="113.621,-29.0268 108.802,-19.5914 106.685,-29.9726 113.621,-29.0268"/>
</g>
<!-- Node9 -->
<g id="node10" class="node"><title>Node9</title>
<polygon fill="none" stroke="#bfbfbf" points="29.1306,-56.5 29.1306,-75.5 64.1306,-75.5 64.1306,-56.5 29.1306,-56.5"/>
<text text-anchor="middle" x="46.6306" y="-63.5" font-family="Helvetica,sans-Serif" font-size="10.00">map</text>
</g>
<!-- Node8&#45;&gt;Node9 -->
<g id="edge11" class="edge"><title>Node8&#45;&gt;Node9</title>
<path fill="none" stroke="midnightblue" d="M110.42,-112.324C98.8547,-104.107 81.2552,-91.6017 67.4698,-81.8069"/>
<polygon fill="midnightblue" stroke="midnightblue" points="69.2425,-78.7729 59.0634,-75.8339 65.188,-84.4791 69.2425,-78.7729"/>
</g>
<!-- Node10&#45;&gt;Node1 -->
<g id="edge17" class="edge"><title>Node10&#45;&gt;Node1</title>
<path fill="none" stroke="midnightblue" d="M440.774,-112.379C440.506,-98.361 437.806,-70.7162 421.631,-56 393.328,-30.2501 283.744,-18.2171 225.126,-13.5227"/>
<polygon fill="midnightblue" stroke="midnightblue" points="225.043,-10.0062 214.804,-12.7299 224.507,-16.9856 225.043,-10.0062"/>
</g>
<!-- Node10&#45;&gt;Node2 -->
<g id="edge16" class="edge"><title>Node10&#45;&gt;Node2</title>
<path fill="none" stroke="midnightblue" d="M443.612,-112.368C449.772,-94.5366 464.019,-53.2953 472.318,-29.2717"/>
<polygon fill="midnightblue" stroke="midnightblue" points="475.706,-30.1862 475.663,-19.5914 469.089,-27.9005 475.706,-30.1862"/>
</g>
<!-- Node10&#45;&gt;Node11 -->
<g id="edge15" class="edge"><title>Node10&#45;&gt;Node11</title>
<path fill="none" stroke="midnightblue" d="M465.349,-112.444C492.248,-103.133 535.339,-88.2163 564.762,-78.0315"/>
<polygon fill="midnightblue" stroke="midnightblue" points="566.245,-81.222 574.55,-74.6433 563.955,-74.607 566.245,-81.222"/>
</g>
<!-- Node12 -->
<g id="node13" class="node"><title>Node12</title>
<polygon fill="none" stroke="#bfbfbf" points="360.631,-56.5 360.631,-75.5 412.631,-75.5 412.631,-56.5 360.631,-56.5"/>
<text text-anchor="middle" x="386.631" y="-63.5" font-family="Helvetica,sans-Serif" font-size="10.00">sstream</text>
</g>
<!-- Node10&#45;&gt;Node12 -->
<g id="edge18" class="edge"><title>Node10&#45;&gt;Node12</title>
<path fill="none" stroke="midnightblue" d="M431.714,-112.083C423.85,-104.22 412.199,-92.5688 402.712,-83.0813"/>
<polygon fill="midnightblue" stroke="midnightblue" points="404.928,-80.3473 395.382,-75.7511 399.978,-85.2971 404.928,-80.3473"/>
</g>
<!-- Node13 -->
<g id="node14" class="node"><title>Node13</title>
<polygon fill="none" stroke="#bfbfbf" points="506.631,-56.5 506.631,-75.5 556.631,-75.5 556.631,-56.5 506.631,-56.5"/>
<text text-anchor="middle" x="531.631" y="-63.5" font-family="Helvetica,sans-Serif" font-size="10.00">iomanip</text>
</g>
<!-- Node10&#45;&gt;Node13 -->
<g id="edge19" class="edge"><title>Node10&#45;&gt;Node13</title>
<path fill="none" stroke="midnightblue" d="M455.251,-112.324C469.579,-103.822 491.643,-90.7288 508.379,-80.7975"/>
<polygon fill="midnightblue" stroke="midnightblue" points="510.232,-83.7677 517.046,-75.6545 506.66,-77.7478 510.232,-83.7677"/>
</g>
<!-- Node14 -->
<g id="node15" class="node"><title>Node14</title>
<polygon fill="none" stroke="#bfbfbf" points="292.631,-56.5 292.631,-75.5 342.631,-75.5 342.631,-56.5 292.631,-56.5"/>
<text text-anchor="middle" x="317.631" y="-63.5" font-family="Helvetica,sans-Serif" font-size="10.00">fstream</text>
</g>
<!-- Node10&#45;&gt;Node14 -->
<g id="edge20" class="edge"><title>Node10&#45;&gt;Node14</title>
<path fill="none" stroke="midnightblue" d="M421.141,-112.444C400.988,-103.596 369.308,-89.6875 346.3,-79.5865"/>
<polygon fill="midnightblue" stroke="midnightblue" points="347.593,-76.3316 337.029,-75.5164 344.779,-82.7411 347.593,-76.3316"/>
</g>
<!-- Node15&#45;&gt;Node5 -->
<g id="edge22" class="edge"><title>Node15&#45;&gt;Node5</title>
<path fill="none" stroke="midnightblue" d="M163.753,-168.324C173.157,-160.263 187.375,-148.077 198.7,-138.369"/>
<polygon fill="midnightblue" stroke="midnightblue" points="201.01,-140.999 206.324,-131.834 196.454,-135.684 201.01,-140.999"/>
</g>
<!-- Node15&#45;&gt;Node9 -->
<g id="edge23" class="edge"><title>Node15&#45;&gt;Node9</title>
<path fill="none" stroke="midnightblue" d="M133.306,-168.448C117.122,-160.816 94.7523,-148.326 79.6306,-132 67.1581,-118.534 58.2261,-99.4636 52.8262,-85.461"/>
<polygon fill="midnightblue" stroke="midnightblue" points="56.0697,-84.1377 49.3852,-75.9177 49.4847,-86.5121 56.0697,-84.1377"/>
</g>
</g>
</svg>
