<?xml version="1.0" encoding="UTF-8" standalone="no"?>
<!DOCTYPE svg PUBLIC "-//W3C//DTD SVG 1.1//EN"
 "http://www.w3.org/Graphics/SVG/1.1/DTD/svg11.dtd">
<!-- Generated by graphviz version 2.40.1 (20161225.0304)
 -->
<!-- Title: CodonStateSpace.h Pages: 1 -->
<svg width="1090pt" height="442pt"
 viewBox="0.00 0.00 1090.00 442.00" xmlns="http://www.w3.org/2000/svg" xmlns:xlink="http://www.w3.org/1999/xlink">
<g id="graph0" class="graph" transform="scale(1 1) rotate(0) translate(4 438)">
<title>CodonStateSpace.h</title>
<!-- Node7 -->
<g id="node1" class="node">
<title>Node7</title>
<polygon fill="#bfbfbf" stroke="#000000" points="778.5,-414.5 778.5,-433.5 882.5,-433.5 882.5,-414.5 778.5,-414.5"/>
<text text-anchor="middle" x="830.5" y="-421.5" font-family="Helvetica,sans-Serif" font-size="10.00" fill="#000000">CodonStateSpace.h</text>
</g>
<!-- Node8 -->
<g id="node2" class="node">
<title>Node8</title>
<g id="a_node2"><a xlink:href="CodonSequenceAlignment_8h.html" target="_top" xlink:title="CodonSequenceAlignment.h">
<polygon fill="none" stroke="#000000" points="687.5,-358.5 687.5,-377.5 827.5,-377.5 827.5,-358.5 687.5,-358.5"/>
<text text-anchor="middle" x="757.5" y="-365.5" font-family="Helvetica,sans-Serif" font-size="10.00" fill="#000000">CodonSequenceAlignment.h</text>
</a>
</g>
</g>
<!-- Node7&#45;&gt;Node8 -->
<g id="edge1" class="edge">
<title>Node7&#45;&gt;Node8</title>
<path fill="none" stroke="#191970" d="M809.549,-407.928C796.7893,-398.1397 780.9115,-385.9595 770.0699,-377.6427"/>
<polygon fill="#191970" stroke="#191970" points="807.7197,-410.9359 817.7844,-414.2455 811.9804,-405.3819 807.7197,-410.9359"/>
</g>
<!-- Node29 -->
<g id="node23" class="node">
<title>Node29</title>
<g id="a_node23"><a xlink:href="CodonStateSpace_8cpp.html" target="_top" xlink:title="CodonStateSpace.cpp">
<polygon fill="none" stroke="#000000" points="846,-358.5 846,-377.5 961,-377.5 961,-358.5 846,-358.5"/>
<text text-anchor="middle" x="903.5" y="-365.5" font-family="Helvetica,sans-Serif" font-size="10.00" fill="#000000">CodonStateSpace.cpp</text>
</a>
</g>
</g>
<!-- Node7&#45;&gt;Node29 -->
<g id="edge24" class="edge">
<title>Node7&#45;&gt;Node29</title>
<path fill="none" stroke="#191970" d="M851.451,-407.928C864.2107,-398.1397 880.0885,-385.9595 890.9301,-377.6427"/>
<polygon fill="#191970" stroke="#191970" points="849.0196,-405.3819 843.2156,-414.2455 853.2803,-410.9359 849.0196,-405.3819"/>
</g>
<!-- Node9 -->
<g id="node3" class="node">
<title>Node9</title>
<g id="a_node3"><a xlink:href="CodonSequenceAlignment_8cpp.html" target="_top" xlink:title="CodonSequenceAlignment.cpp">
<polygon fill="none" stroke="#000000" points="380,-302.5 380,-321.5 531,-321.5 531,-302.5 380,-302.5"/>
<text text-anchor="middle" x="455.5" y="-309.5" font-family="Helvetica,sans-Serif" font-size="10.00" fill="#000000">CodonSequenceAlignment.cpp</text>
</a>
</g>
</g>
<!-- Node8&#45;&gt;Node9 -->
<g id="edge2" class="edge">
<title>Node8&#45;&gt;Node9</title>
<path fill="none" stroke="#191970" d="M695.8348,-356.5654C640.1369,-346.2373 559.1184,-331.214 506.8598,-321.5237"/>
<polygon fill="#191970" stroke="#191970" points="695.4569,-360.0549 705.9275,-358.4369 696.7333,-353.1722 695.4569,-360.0549"/>
</g>
<!-- Node10 -->
<g id="node4" class="node">
<title>Node10</title>
<g id="a_node4"><a xlink:href="PhyloProcess_8h.html" target="_top" xlink:title="PhyloProcess.h">
<polygon fill="none" stroke="#000000" points="549.5,-302.5 549.5,-321.5 635.5,-321.5 635.5,-302.5 549.5,-302.5"/>
<text text-anchor="middle" x="592.5" y="-309.5" font-family="Helvetica,sans-Serif" font-size="10.00" fill="#000000">PhyloProcess.h</text>
</a>
</g>
</g>
<!-- Node8&#45;&gt;Node10 -->
<g id="edge3" class="edge">
<title>Node8&#45;&gt;Node10</title>
<path fill="none" stroke="#191970" d="M719.3644,-355.057C689.1675,-344.8084 647.6837,-330.729 620.4944,-321.5011"/>
<polygon fill="#191970" stroke="#191970" points="718.5411,-358.4736 729.1355,-358.3733 720.7909,-351.845 718.5411,-358.4736"/>
</g>
<!-- Node14 -->
<g id="node8" class="node">
<title>Node14</title>
<g id="a_node8"><a xlink:href="RASCATGTRSBDPGammaPhyloProcess_8h.html" target="_top" xlink:title="RASCATGTRSBDPGammaPhyloProcess.h">
<polygon fill="none" stroke="#000000" points="818.5,-118 818.5,-137 1028.5,-137 1028.5,-118 818.5,-118"/>
<text text-anchor="middle" x="923.5" y="-125" font-family="Helvetica,sans-Serif" font-size="10.00" fill="#000000">RASCATGTRSBDPGammaPhyloProcess.h</text>
</a>
</g>
</g>
<!-- Node8&#45;&gt;Node14 -->
<g id="edge23" class="edge">
<title>Node8&#45;&gt;Node14</title>
<path fill="none" stroke="#191970" d="M770.0531,-349.8131C803.1432,-301.8723 891.9177,-173.2562 916.8853,-137.0833"/>
<polygon fill="#191970" stroke="#191970" points="767.0131,-348.0561 764.213,-358.2742 772.774,-352.0325 767.0131,-348.0561"/>
</g>
<!-- Node15 -->
<g id="node9" class="node">
<title>Node15</title>
<g id="a_node9"><a xlink:href="Model_8h.html" target="_top" xlink:title="Model.h">
<polygon fill="none" stroke="#000000" points="1031,-56.5 1031,-75.5 1082,-75.5 1082,-56.5 1031,-56.5"/>
<text text-anchor="middle" x="1056.5" y="-63.5" font-family="Helvetica,sans-Serif" font-size="10.00" fill="#000000">Model.h</text>
</a>
</g>
</g>
<!-- Node8&#45;&gt;Node15 -->
<g id="edge22" class="edge">
<title>Node8&#45;&gt;Node15</title>
<path fill="none" stroke="#191970" d="M825.4507,-356.5811C913.6764,-339.7913 1056.5,-305.0382 1056.5,-256 1056.5,-256 1056.5,-256 1056.5,-194.5 1056.5,-150.105 1056.5,-97.0825 1056.5,-75.6719"/>
<polygon fill="#191970" stroke="#191970" points="824.6904,-353.1625 815.5047,-358.442 825.9779,-360.0431 824.6904,-353.1625"/>
</g>
<!-- Node11 -->
<g id="node5" class="node">
<title>Node11</title>
<g id="a_node5"><a xlink:href="MatrixPhyloProcess_8h.html" target="_top" xlink:title="MatrixPhyloProcess.h">
<polygon fill="none" stroke="#000000" points="486,-246.5 486,-265.5 599,-265.5 599,-246.5 486,-246.5"/>
<text text-anchor="middle" x="542.5" y="-253.5" font-family="Helvetica,sans-Serif" font-size="10.00" fill="#000000">MatrixPhyloProcess.h</text>
</a>
</g>
</g>
<!-- Node10&#45;&gt;Node11 -->
<g id="edge4" class="edge">
<title>Node10&#45;&gt;Node11</title>
<path fill="none" stroke="#191970" d="M576.8753,-294.5004C568.3727,-284.9775 558.1782,-273.5596 551.1095,-265.6427"/>
<polygon fill="#191970" stroke="#191970" points="574.5197,-297.1172 583.7907,-302.2455 579.7413,-292.4551 574.5197,-297.1172"/>
</g>
<!-- Node23 -->
<g id="node17" class="node">
<title>Node23</title>
<g id="a_node17"><a xlink:href="NNI_8cpp.html" target="_top" xlink:title="NNI.cpp">
<polygon fill="none" stroke="#000000" points="617,-246.5 617,-265.5 670,-265.5 670,-246.5 617,-246.5"/>
<text text-anchor="middle" x="643.5" y="-253.5" font-family="Helvetica,sans-Serif" font-size="10.00" fill="#000000">NNI.cpp</text>
</a>
</g>
</g>
<!-- Node10&#45;&gt;Node23 -->
<g id="edge16" class="edge">
<title>Node10&#45;&gt;Node23</title>
<path fill="none" stroke="#191970" d="M608.1749,-294.7884C616.8994,-285.2085 627.4354,-273.6396 634.7183,-265.6427"/>
<polygon fill="#191970" stroke="#191970" points="605.5291,-292.4954 601.3835,-302.2455 610.7046,-297.2088 605.5291,-292.4954"/>
</g>
<!-- Node24 -->
<g id="node18" class="node">
<title>Node24</title>
<g id="a_node18"><a xlink:href="PhyloProcess_8cpp.html" target="_top" xlink:title="PhyloProcess.cpp">
<polygon fill="none" stroke="#000000" points="143.5,-246.5 143.5,-265.5 239.5,-265.5 239.5,-246.5 143.5,-246.5"/>
<text text-anchor="middle" x="191.5" y="-253.5" font-family="Helvetica,sans-Serif" font-size="10.00" fill="#000000">PhyloProcess.cpp</text>
</a>
</g>
</g>
<!-- Node10&#45;&gt;Node24 -->
<g id="edge17" class="edge">
<title>Node10&#45;&gt;Node24</title>
<path fill="none" stroke="#191970" d="M539.5116,-301.9308C410.0883,-281.8357 375.2681,-284.6108 249.5,-266 246.2655,-265.5214 242.9333,-265.0061 239.5785,-264.4709"/>
<polygon fill="#191970" stroke="#191970" points="538.9872,-305.3912 549.4088,-303.4831 540.0719,-298.4758 538.9872,-305.3912"/>
</g>
<!-- Node25 -->
<g id="node19" class="node">
<title>Node25</title>
<g id="a_node19"><a xlink:href="PoissonPhyloProcess_8h.html" target="_top" xlink:title="PoissonPhyloProcess.h">
<polygon fill="none" stroke="#000000" points="258,-246.5 258,-265.5 379,-265.5 379,-246.5 258,-246.5"/>
<text text-anchor="middle" x="318.5" y="-253.5" font-family="Helvetica,sans-Serif" font-size="10.00" fill="#000000">PoissonPhyloProcess.h</text>
</a>
</g>
</g>
<!-- Node10&#45;&gt;Node25 -->
<g id="edge18" class="edge">
<title>Node10&#45;&gt;Node25</title>
<path fill="none" stroke="#191970" d="M539.2956,-301.1261C488.6852,-290.7824 413.3029,-275.3758 365.027,-265.5092"/>
<polygon fill="#191970" stroke="#191970" points="538.8877,-304.615 549.3861,-303.1884 540.2895,-297.7568 538.8877,-304.615"/>
</g>
<!-- Node12 -->
<g id="node6" class="node">
<title>Node12</title>
<g id="a_node6"><a xlink:href="ExpoConjugateGTRPhyloProcess_8h.html" target="_top" xlink:title="ExpoConjugateGTRPhyloProcess.h">
<polygon fill="none" stroke="#000000" points="622,-185 622,-204 795,-204 795,-185 622,-185"/>
<text text-anchor="middle" x="708.5" y="-192" font-family="Helvetica,sans-Serif" font-size="10.00" fill="#000000">ExpoConjugateGTRPhyloProcess.h</text>
</a>
</g>
</g>
<!-- Node11&#45;&gt;Node12 -->
<g id="edge5" class="edge">
<title>Node11&#45;&gt;Node12</title>
<path fill="none" stroke="#191970" d="M578.1311,-242.7993C609.5834,-231.1468 654.6778,-214.4402 682.7446,-204.0419"/>
<polygon fill="#191970" stroke="#191970" points="576.5987,-239.6345 568.4375,-246.3906 579.0306,-246.1985 576.5987,-239.6345"/>
</g>
<!-- Node20 -->
<g id="node14" class="node">
<title>Node20</title>
<g id="a_node14"><a xlink:href="GeneralPathSuffStatMatrixPhyloProcess_8h.html" target="_top" xlink:title="GeneralPathSuffStatMatrix\lPhyloProcess.h">
<polygon fill="none" stroke="#000000" points="328.5,-179.5 328.5,-209.5 462.5,-209.5 462.5,-179.5 328.5,-179.5"/>
<text text-anchor="start" x="336.5" y="-197.5" font-family="Helvetica,sans-Serif" font-size="10.00" fill="#000000">GeneralPathSuffStatMatrix</text>
<text text-anchor="middle" x="395.5" y="-186.5" font-family="Helvetica,sans-Serif" font-size="10.00" fill="#000000">PhyloProcess.h</text>
</a>
</g>
</g>
<!-- Node11&#45;&gt;Node20 -->
<g id="edge13" class="edge">
<title>Node11&#45;&gt;Node20</title>
<path fill="none" stroke="#191970" d="M510.1038,-242.4465C486.8452,-232.7159 455.493,-219.5991 431.4602,-209.5446"/>
<polygon fill="#191970" stroke="#191970" points="508.9552,-245.7599 519.5313,-246.3906 511.6569,-239.3022 508.9552,-245.7599"/>
</g>
<!-- Node22 -->
<g id="node16" class="node">
<title>Node22</title>
<g id="a_node16"><a xlink:href="MatrixPhyloProcess_8cpp.html" target="_top" xlink:title="MatrixPhyloProcess.cpp">
<polygon fill="none" stroke="#000000" points="481,-185 481,-204 604,-204 604,-185 481,-185"/>
<text text-anchor="middle" x="542.5" y="-192" font-family="Helvetica,sans-Serif" font-size="10.00" fill="#000000">MatrixPhyloProcess.cpp</text>
</a>
</g>
</g>
<!-- Node11&#45;&gt;Node22 -->
<g id="edge15" class="edge">
<title>Node11&#45;&gt;Node22</title>
<path fill="none" stroke="#191970" d="M542.5,-236.2462C542.5,-225.5519 542.5,-212.814 542.5,-204.2449"/>
<polygon fill="#191970" stroke="#191970" points="539.0001,-236.3906 542.5,-246.3906 546.0001,-236.3907 539.0001,-236.3906"/>
</g>
<!-- Node13 -->
<g id="node7" class="node">
<title>Node13</title>
<g id="a_node7"><a xlink:href="ExpoConjugateGTRPhyloProcess_8cpp.html" target="_top" xlink:title="ExpoConjugateGTRPhyloProcess.cpp">
<polygon fill="none" stroke="#000000" points="616.5,-118 616.5,-137 800.5,-137 800.5,-118 616.5,-118"/>
<text text-anchor="middle" x="708.5" y="-125" font-family="Helvetica,sans-Serif" font-size="10.00" fill="#000000">ExpoConjugateGTRPhyloProcess.cpp</text>
</a>
</g>
</g>
<!-- Node12&#45;&gt;Node13 -->
<g id="edge6" class="edge">
<title>Node12&#45;&gt;Node13</title>
<path fill="none" stroke="#191970" d="M708.5,-174.6079C708.5,-162.214 708.5,-146.8263 708.5,-137.0817"/>
<polygon fill="#191970" stroke="#191970" points="705.0001,-174.9005 708.5,-184.9005 712.0001,-174.9006 705.0001,-174.9005"/>
</g>
<!-- Node12&#45;&gt;Node14 -->
<g id="edge7" class="edge">
<title>Node12&#45;&gt;Node14</title>
<path fill="none" stroke="#191970" d="M748.8893,-181.9136C790.6537,-168.8986 854.9415,-148.8647 892.7529,-137.0817"/>
<polygon fill="#191970" stroke="#191970" points="747.8101,-178.5838 739.3043,-184.9005 749.8928,-185.2668 747.8101,-178.5838"/>
</g>
<!-- Node18 -->
<g id="node12" class="node">
<title>Node18</title>
<g id="a_node12"><a xlink:href="RASCATGTRDPGammaPhyloProcess_8h.html" target="_top" xlink:title="RASCATGTRDPGammaPhyloProcess.h">
<polygon fill="none" stroke="#000000" points="401,-118 401,-137 598,-137 598,-118 401,-118"/>
<text text-anchor="middle" x="499.5" y="-125" font-family="Helvetica,sans-Serif" font-size="10.00" fill="#000000">RASCATGTRDPGammaPhyloProcess.h</text>
</a>
</g>
</g>
<!-- Node12&#45;&gt;Node18 -->
<g id="edge11" class="edge">
<title>Node12&#45;&gt;Node18</title>
<path fill="none" stroke="#191970" d="M668.9806,-181.8311C628.3754,-168.8141 566.0677,-148.8399 529.3891,-137.0817"/>
<polygon fill="#191970" stroke="#191970" points="667.9643,-185.1807 678.5554,-184.9005 670.1012,-178.5148 667.9643,-185.1807"/>
</g>
<!-- Node14&#45;&gt;Node15 -->
<g id="edge8" class="edge">
<title>Node14&#45;&gt;Node15</title>
<path fill="none" stroke="#191970" d="M953.3666,-113.6895C978.4947,-102.0701 1013.7668,-85.7601 1035.8647,-75.5419"/>
<polygon fill="#191970" stroke="#191970" points="951.8889,-110.5167 944.2813,-117.8906 954.8269,-116.8703 951.8889,-110.5167"/>
</g>
<!-- Node17 -->
<g id="node11" class="node">
<title>Node17</title>
<g id="a_node11"><a xlink:href="RASCATGTRSBDPGammaPhyloProcess_8cpp.html" target="_top" xlink:title="RASCATGTRSBDPGammaPhyloProcess.cpp">
<polygon fill="none" stroke="#000000" points="792,-56.5 792,-75.5 1013,-75.5 1013,-56.5 792,-56.5"/>
<text text-anchor="middle" x="902.5" y="-63.5" font-family="Helvetica,sans-Serif" font-size="10.00" fill="#000000">RASCATGTRSBDPGammaPhyloProcess.cpp</text>
</a>
</g>
</g>
<!-- Node14&#45;&gt;Node17 -->
<g id="edge10" class="edge">
<title>Node14&#45;&gt;Node17</title>
<path fill="none" stroke="#191970" d="M916.9845,-108.4189C913.2869,-97.5901 908.8152,-84.4944 905.8275,-75.7449"/>
<polygon fill="#191970" stroke="#191970" points="913.675,-109.5581 920.2188,-117.8906 920.2995,-107.2961 913.675,-109.5581"/>
</g>
<!-- Node16 -->
<g id="node10" class="node">
<title>Node16</title>
<g id="a_node10"><a xlink:href="PB_8cpp.html" target="_top" xlink:title="PB.cpp">
<polygon fill="none" stroke="#000000" points="1032,-.5 1032,-19.5 1081,-19.5 1081,-.5 1032,-.5"/>
<text text-anchor="middle" x="1056.5" y="-7.5" font-family="Helvetica,sans-Serif" font-size="10.00" fill="#000000">PB.cpp</text>
</a>
</g>
</g>
<!-- Node15&#45;&gt;Node16 -->
<g id="edge9" class="edge">
<title>Node15&#45;&gt;Node16</title>
<path fill="none" stroke="#191970" d="M1056.5,-46.1575C1056.5,-37.155 1056.5,-26.9199 1056.5,-19.6427"/>
<polygon fill="#191970" stroke="#191970" points="1053.0001,-46.2455 1056.5,-56.2455 1060.0001,-46.2456 1053.0001,-46.2455"/>
</g>
<!-- Node19 -->
<g id="node13" class="node">
<title>Node19</title>
<g id="a_node13"><a xlink:href="RASCATGTRDPGammaPhyloProcess_8cpp.html" target="_top" xlink:title="RASCATGTRDPGammaPhyloProcess.cpp">
<polygon fill="none" stroke="#000000" points="396,-56.5 396,-75.5 603,-75.5 603,-56.5 396,-56.5"/>
<text text-anchor="middle" x="499.5" y="-63.5" font-family="Helvetica,sans-Serif" font-size="10.00" fill="#000000">RASCATGTRDPGammaPhyloProcess.cpp</text>
</a>
</g>
</g>
<!-- Node18&#45;&gt;Node19 -->
<g id="edge12" class="edge">
<title>Node18&#45;&gt;Node19</title>
<path fill="none" stroke="#191970" d="M499.5,-107.7462C499.5,-97.0519 499.5,-84.314 499.5,-75.7449"/>
<polygon fill="#191970" stroke="#191970" points="496.0001,-107.8906 499.5,-117.8906 503.0001,-107.8907 496.0001,-107.8906"/>
</g>
<!-- Node21 -->
<g id="node15" class="node">
<title>Node21</title>
<g id="a_node15"><a xlink:href="GeneralPathSuffStatMatrixPhyloProcess_8cpp.html" target="_top" xlink:title="GeneralPathSuffStatMatrix\lPhyloProcess.cpp">
<polygon fill="none" stroke="#000000" points="248.5,-112.5 248.5,-142.5 382.5,-142.5 382.5,-112.5 248.5,-112.5"/>
<text text-anchor="start" x="256.5" y="-130.5" font-family="Helvetica,sans-Serif" font-size="10.00" fill="#000000">GeneralPathSuffStatMatrix</text>
<text text-anchor="middle" x="315.5" y="-119.5" font-family="Helvetica,sans-Serif" font-size="10.00" fill="#000000">PhyloProcess.cpp</text>
</a>
</g>
</g>
<!-- Node20&#45;&gt;Node21 -->
<g id="edge14" class="edge">
<title>Node20&#45;&gt;Node21</title>
<path fill="none" stroke="#191970" d="M369.5667,-172.7808C357.8144,-162.9383 344.2056,-151.541 333.5814,-142.6432"/>
<polygon fill="#191970" stroke="#191970" points="367.433,-175.5592 377.3468,-179.2967 371.9275,-170.1927 367.433,-175.5592"/>
</g>
<!-- Node26 -->
<g id="node20" class="node">
<title>Node26</title>
<g id="a_node20"><a xlink:href="PoissonPhyloProcess_8cpp.html" target="_top" xlink:title="PoissonPhyloProcess.cpp">
<polygon fill="none" stroke="#000000" points="0,-185 0,-204 131,-204 131,-185 0,-185"/>
<text text-anchor="middle" x="65.5" y="-192" font-family="Helvetica,sans-Serif" font-size="10.00" fill="#000000">PoissonPhyloProcess.cpp</text>
</a>
</g>
</g>
<!-- Node25&#45;&gt;Node26 -->
<g id="edge19" class="edge">
<title>Node25&#45;&gt;Node26</title>
<path fill="none" stroke="#191970" d="M269.3858,-244.0612C221.3708,-232.3895 149.2,-214.846 104.8457,-204.0643"/>
<polygon fill="#191970" stroke="#191970" points="268.7026,-247.4969 279.2463,-246.4581 270.356,-240.695 268.7026,-247.4969"/>
</g>
<!-- Node27 -->
<g id="node21" class="node">
<title>Node27</title>
<g id="a_node21"><a xlink:href="RASCATGammaPhyloProcess_8h.html" target="_top" xlink:title="RASCATGammaPhyloProcess.h">
<polygon fill="none" stroke="#000000" points="149,-185 149,-204 310,-204 310,-185 149,-185"/>
<text text-anchor="middle" x="229.5" y="-192" font-family="Helvetica,sans-Serif" font-size="10.00" fill="#000000">RASCATGammaPhyloProcess.h</text>
</a>
</g>
</g>
<!-- Node25&#45;&gt;Node27 -->
<g id="edge20" class="edge">
<title>Node25&#45;&gt;Node27</title>
<path fill="none" stroke="#191970" d="M296.0236,-240.4685C279.4322,-229.0037 257.3794,-213.765 243.3086,-204.0419"/>
<polygon fill="#191970" stroke="#191970" points="294.3771,-243.5851 304.5938,-246.3906 298.3565,-237.8263 294.3771,-243.5851"/>
</g>
<!-- Node28 -->
<g id="node22" class="node">
<title>Node28</title>
<g id="a_node22"><a xlink:href="RASCATGammaPhyloProcess_8cpp.html" target="_top" xlink:title="RASCATGammaPhyloProcess.cpp">
<polygon fill="none" stroke="#000000" points="58.5,-118 58.5,-137 230.5,-137 230.5,-118 58.5,-118"/>
<text text-anchor="middle" x="144.5" y="-125" font-family="Helvetica,sans-Serif" font-size="10.00" fill="#000000">RASCATGammaPhyloProcess.cpp</text>
</a>
</g>
</g>
<!-- Node27&#45;&gt;Node28 -->
<g id="edge21" class="edge">
<title>Node27&#45;&gt;Node28</title>
<path fill="none" stroke="#191970" d="M209.3993,-178.6559C193.0128,-165.7395 170.4061,-147.9201 156.6558,-137.0817"/>
<polygon fill="#191970" stroke="#191970" points="207.3013,-181.4588 217.3216,-184.9005 211.6347,-175.9613 207.3013,-181.4588"/>
</g>
</g>
</svg>
