<?xml version="1.0" encoding="UTF-8" standalone="no"?>
<!DOCTYPE svg PUBLIC "-//W3C//DTD SVG 1.1//EN"
 "http://www.w3.org/Graphics/SVG/1.1/DTD/svg11.dtd">
<!-- Generated by graphviz version 2.38.0 (20140413.2041)
 -->
<!-- Title: CodonSubMatrix.cpp Pages: 1 -->
<svg width="454pt" height="308pt"
 viewBox="0.00 0.00 453.50 308.00" xmlns="http://www.w3.org/2000/svg" xmlns:xlink="http://www.w3.org/1999/xlink">
<g id="graph0" class="graph" transform="scale(1 1) rotate(0) translate(4 304)">
<title>CodonSubMatrix.cpp</title>
<!-- Node0 -->
<g id="node1" class="node"><title>Node0</title>
<polygon fill="#bfbfbf" stroke="black" points="79.5,-280.5 79.5,-299.5 187.5,-299.5 187.5,-280.5 79.5,-280.5"/>
<text text-anchor="middle" x="133.5" y="-287.5" font-family="Helvetica,sans-Serif" font-size="10.00">CodonSubMatrix.cpp</text>
</g>
<!-- Node1 -->
<g id="node2" class="node"><title>Node1</title>
<g id="a_node2"><a xlink:href="CodonSubMatrix_8h.html" target="_top" xlink:title="CodonSubMatrix.h">
<polygon fill="none" stroke="black" points="84.5,-224.5 84.5,-243.5 182.5,-243.5 182.5,-224.5 84.5,-224.5"/>
<text text-anchor="middle" x="133.5" y="-231.5" font-family="Helvetica,sans-Serif" font-size="10.00">CodonSubMatrix.h</text>
</a>
</g>
</g>
<!-- Node0&#45;&gt;Node1 -->
<g id="edge1" class="edge"><title>Node0&#45;&gt;Node1</title>
<path fill="none" stroke="midnightblue" d="M133.5,-280.083C133.5,-273.006 133.5,-262.861 133.5,-253.986"/>
<polygon fill="midnightblue" stroke="midnightblue" points="137,-253.751 133.5,-243.751 130,-253.751 137,-253.751"/>
</g>
<!-- Node2 -->
<g id="node3" class="node"><title>Node2</title>
<g id="a_node3"><a xlink:href="CodonStateSpace_8h.html" target="_top" xlink:title="CodonStateSpace.h">
<polygon fill="none" stroke="black" points="39.5,-168.5 39.5,-187.5 143.5,-187.5 143.5,-168.5 39.5,-168.5"/>
<text text-anchor="middle" x="91.5" y="-175.5" font-family="Helvetica,sans-Serif" font-size="10.00">CodonStateSpace.h</text>
</a>
</g>
</g>
<!-- Node1&#45;&gt;Node2 -->
<g id="edge2" class="edge"><title>Node1&#45;&gt;Node2</title>
<path fill="none" stroke="midnightblue" d="M126.565,-224.083C120.571,-216.377 111.748,-205.033 104.452,-195.653"/>
<polygon fill="midnightblue" stroke="midnightblue" points="107.209,-193.496 98.3064,-187.751 101.683,-197.793 107.209,-193.496"/>
</g>
<!-- Node9 -->
<g id="node10" class="node"><title>Node9</title>
<g id="a_node10"><a xlink:href="SubMatrix_8h.html" target="_top" xlink:title="SubMatrix.h">
<polygon fill="none" stroke="black" points="164,-112.5 164,-131.5 233,-131.5 233,-112.5 164,-112.5"/>
<text text-anchor="middle" x="198.5" y="-119.5" font-family="Helvetica,sans-Serif" font-size="10.00">SubMatrix.h</text>
</a>
</g>
</g>
<!-- Node1&#45;&gt;Node9 -->
<g id="edge9" class="edge"><title>Node1&#45;&gt;Node9</title>
<path fill="none" stroke="midnightblue" d="M138.6,-224.368C149.28,-206.296 174.168,-164.176 188.273,-140.307"/>
<polygon fill="midnightblue" stroke="midnightblue" points="191.349,-141.981 193.423,-131.591 185.323,-138.42 191.349,-141.981"/>
</g>
<!-- Node3 -->
<g id="node4" class="node"><title>Node3</title>
<g id="a_node4"><a xlink:href="StateSpace_8h.html" target="_top" xlink:title="StateSpace.h">
<polygon fill="none" stroke="black" points="53.5,-112.5 53.5,-131.5 129.5,-131.5 129.5,-112.5 53.5,-112.5"/>
<text text-anchor="middle" x="91.5" y="-119.5" font-family="Helvetica,sans-Serif" font-size="10.00">StateSpace.h</text>
</a>
</g>
</g>
<!-- Node2&#45;&gt;Node3 -->
<g id="edge3" class="edge"><title>Node2&#45;&gt;Node3</title>
<path fill="none" stroke="midnightblue" d="M91.5,-168.083C91.5,-161.006 91.5,-150.861 91.5,-141.986"/>
<polygon fill="midnightblue" stroke="midnightblue" points="95.0001,-141.751 91.5,-131.751 88.0001,-141.751 95.0001,-141.751"/>
</g>
<!-- Node8 -->
<g id="node9" class="node"><title>Node8</title>
<polygon fill="none" stroke="#bfbfbf" points="0,-112.5 0,-131.5 35,-131.5 35,-112.5 0,-112.5"/>
<text text-anchor="middle" x="17.5" y="-119.5" font-family="Helvetica,sans-Serif" font-size="10.00">map</text>
</g>
<!-- Node2&#45;&gt;Node8 -->
<g id="edge8" class="edge"><title>Node2&#45;&gt;Node8</title>
<path fill="none" stroke="midnightblue" d="M79.6106,-168.324C68.3498,-160.107 51.2134,-147.602 37.7909,-137.807"/>
<polygon fill="midnightblue" stroke="midnightblue" points="39.7468,-134.901 29.6057,-131.834 35.6205,-140.556 39.7468,-134.901"/>
</g>
<!-- Node4 -->
<g id="node5" class="node"><title>Node4</title>
<g id="a_node5"><a xlink:href="BiologicalSequences_8h.html" target="_top" xlink:title="BiologicalSequences.h">
<polygon fill="none" stroke="black" points="24.5,-56.5 24.5,-75.5 140.5,-75.5 140.5,-56.5 24.5,-56.5"/>
<text text-anchor="middle" x="82.5" y="-63.5" font-family="Helvetica,sans-Serif" font-size="10.00">BiologicalSequences.h</text>
</a>
</g>
</g>
<!-- Node3&#45;&gt;Node4 -->
<g id="edge4" class="edge"><title>Node3&#45;&gt;Node4</title>
<path fill="none" stroke="midnightblue" d="M90.0138,-112.083C88.8212,-104.927 87.1059,-94.6353 85.6152,-85.6911"/>
<polygon fill="midnightblue" stroke="midnightblue" points="89.055,-85.0396 83.9585,-75.7511 82.1502,-86.1904 89.055,-85.0396"/>
</g>
<!-- Node5 -->
<g id="node6" class="node"><title>Node5</title>
<polygon fill="none" stroke="#bfbfbf" points="60,-0.5 60,-19.5 105,-19.5 105,-0.5 60,-0.5"/>
<text text-anchor="middle" x="82.5" y="-7.5" font-family="Helvetica,sans-Serif" font-size="10.00">cstdlib</text>
</g>
<!-- Node4&#45;&gt;Node5 -->
<g id="edge5" class="edge"><title>Node4&#45;&gt;Node5</title>
<path fill="none" stroke="midnightblue" d="M82.5,-56.083C82.5,-49.0059 82.5,-38.8611 82.5,-29.9865"/>
<polygon fill="midnightblue" stroke="midnightblue" points="86.0001,-29.751 82.5,-19.7511 79.0001,-29.7511 86.0001,-29.751"/>
</g>
<!-- Node6 -->
<g id="node7" class="node"><title>Node6</title>
<polygon fill="none" stroke="#bfbfbf" points="123.5,-0.5 123.5,-19.5 177.5,-19.5 177.5,-0.5 123.5,-0.5"/>
<text text-anchor="middle" x="150.5" y="-7.5" font-family="Helvetica,sans-Serif" font-size="10.00">iostream</text>
</g>
<!-- Node4&#45;&gt;Node6 -->
<g id="edge6" class="edge"><title>Node4&#45;&gt;Node6</title>
<path fill="none" stroke="midnightblue" d="M93.4254,-56.324C103.675,-48.1849 119.221,-35.8395 131.501,-26.0874"/>
<polygon fill="midnightblue" stroke="midnightblue" points="133.721,-28.7937 139.376,-19.8339 129.368,-23.3119 133.721,-28.7937"/>
</g>
<!-- Node7 -->
<g id="node8" class="node"><title>Node7</title>
<polygon fill="none" stroke="#bfbfbf" points="1,-0.5 1,-19.5 42,-19.5 42,-0.5 1,-0.5"/>
<text text-anchor="middle" x="21.5" y="-7.5" font-family="Helvetica,sans-Serif" font-size="10.00">string</text>
</g>
<!-- Node4&#45;&gt;Node7 -->
<g id="edge7" class="edge"><title>Node4&#45;&gt;Node7</title>
<path fill="none" stroke="midnightblue" d="M72.6993,-56.324C63.6819,-48.3414 50.094,-36.3128 39.182,-26.6529"/>
<polygon fill="midnightblue" stroke="midnightblue" points="41.2866,-23.8416 31.479,-19.8339 36.6467,-29.083 41.2866,-23.8416"/>
</g>
<!-- Node9&#45;&gt;Node6 -->
<g id="edge10" class="edge"><title>Node9&#45;&gt;Node6</title>
<path fill="none" stroke="midnightblue" d="M194.734,-112.368C186.917,-94.4563 168.794,-52.9233 158.332,-28.9482"/>
<polygon fill="midnightblue" stroke="midnightblue" points="161.456,-27.357 154.249,-19.5914 155.041,-30.1566 161.456,-27.357"/>
</g>
<!-- Node10 -->
<g id="node11" class="node"><title>Node10</title>
<polygon fill="none" stroke="#bfbfbf" points="195.5,-0.5 195.5,-19.5 239.5,-19.5 239.5,-0.5 195.5,-0.5"/>
<text text-anchor="middle" x="217.5" y="-7.5" font-family="Helvetica,sans-Serif" font-size="10.00">cmath</text>
</g>
<!-- Node9&#45;&gt;Node10 -->
<g id="edge11" class="edge"><title>Node9&#45;&gt;Node10</title>
<path fill="none" stroke="midnightblue" d="M199.991,-112.368C203.057,-94.617 210.13,-53.6664 214.288,-29.5974"/>
<polygon fill="midnightblue" stroke="midnightblue" points="217.763,-30.0413 216.016,-19.5914 210.865,-28.8498 217.763,-30.0413"/>
</g>
<!-- Node11 -->
<g id="node12" class="node"><title>Node11</title>
<g id="a_node12"><a xlink:href="Random_8h.html" target="_top" xlink:title="Random.h">
<polygon fill="none" stroke="black" points="234.5,-56.5 234.5,-75.5 296.5,-75.5 296.5,-56.5 234.5,-56.5"/>
<text text-anchor="middle" x="265.5" y="-63.5" font-family="Helvetica,sans-Serif" font-size="10.00">Random.h</text>
</a>
</g>
</g>
<!-- Node9&#45;&gt;Node11 -->
<g id="edge12" class="edge"><title>Node9&#45;&gt;Node11</title>
<path fill="none" stroke="midnightblue" d="M209.265,-112.324C219.266,-104.263 234.387,-92.0765 246.43,-82.3695"/>
<polygon fill="midnightblue" stroke="midnightblue" points="248.95,-84.8343 254.539,-75.8339 244.557,-79.3841 248.95,-84.8343"/>
</g>
<!-- Node11&#45;&gt;Node5 -->
<g id="edge14" class="edge"><title>Node11&#45;&gt;Node5</title>
<path fill="none" stroke="midnightblue" d="M236.503,-56.4435C203.44,-46.6872 149.52,-30.7764 115.045,-20.6036"/>
<polygon fill="midnightblue" stroke="midnightblue" points="115.597,-17.1172 105.015,-17.6439 113.616,-23.831 115.597,-17.1172"/>
</g>
<!-- Node11&#45;&gt;Node6 -->
<g id="edge15" class="edge"><title>Node11&#45;&gt;Node6</title>
<path fill="none" stroke="midnightblue" d="M247.278,-56.4435C228.604,-47.6751 199.344,-33.9355 177.883,-23.8579"/>
<polygon fill="midnightblue" stroke="midnightblue" points="179.176,-20.5988 168.637,-19.5164 176.201,-26.935 179.176,-20.5988"/>
</g>
<!-- Node11&#45;&gt;Node10 -->
<g id="edge13" class="edge"><title>Node11&#45;&gt;Node10</title>
<path fill="none" stroke="midnightblue" d="M257.574,-56.083C250.654,-48.2982 240.435,-36.8015 232.048,-27.3665"/>
<polygon fill="midnightblue" stroke="midnightblue" points="234.538,-24.8999 225.279,-19.7511 229.306,-29.5505 234.538,-24.8999"/>
</g>
<!-- Node12 -->
<g id="node13" class="node"><title>Node12</title>
<polygon fill="none" stroke="#bfbfbf" points="257.5,-0.5 257.5,-19.5 309.5,-19.5 309.5,-0.5 257.5,-0.5"/>
<text text-anchor="middle" x="283.5" y="-7.5" font-family="Helvetica,sans-Serif" font-size="10.00">sstream</text>
</g>
<!-- Node11&#45;&gt;Node12 -->
<g id="edge16" class="edge"><title>Node11&#45;&gt;Node12</title>
<path fill="none" stroke="midnightblue" d="M268.472,-56.083C270.884,-48.8486 274.364,-38.4087 277.368,-29.3968"/>
<polygon fill="midnightblue" stroke="midnightblue" points="280.741,-30.3447 280.583,-19.7511 274.1,-28.1311 280.741,-30.3447"/>
</g>
<!-- Node13 -->
<g id="node14" class="node"><title>Node13</title>
<polygon fill="none" stroke="#bfbfbf" points="327.5,-0.5 327.5,-19.5 377.5,-19.5 377.5,-0.5 327.5,-0.5"/>
<text text-anchor="middle" x="352.5" y="-7.5" font-family="Helvetica,sans-Serif" font-size="10.00">iomanip</text>
</g>
<!-- Node11&#45;&gt;Node13 -->
<g id="edge17" class="edge"><title>Node11&#45;&gt;Node13</title>
<path fill="none" stroke="midnightblue" d="M279.478,-56.324C293.05,-47.9002 313.88,-34.9709 329.825,-25.0741"/>
<polygon fill="midnightblue" stroke="midnightblue" points="331.906,-27.9019 338.557,-19.6545 328.214,-21.9544 331.906,-27.9019"/>
</g>
<!-- Node14 -->
<g id="node15" class="node"><title>Node14</title>
<polygon fill="none" stroke="#bfbfbf" points="395.5,-0.5 395.5,-19.5 445.5,-19.5 445.5,-0.5 395.5,-0.5"/>
<text text-anchor="middle" x="420.5" y="-7.5" font-family="Helvetica,sans-Serif" font-size="10.00">fstream</text>
</g>
<!-- Node11&#45;&gt;Node14 -->
<g id="edge18" class="edge"><title>Node11&#45;&gt;Node14</title>
<path fill="none" stroke="midnightblue" d="M290.06,-56.4435C316.023,-47.3986 357.168,-33.064 386.297,-22.9158"/>
<polygon fill="midnightblue" stroke="midnightblue" points="387.763,-26.1116 396.055,-19.5164 385.46,-19.5013 387.763,-26.1116"/>
</g>
</g>
</svg>
