<?xml version="1.0" encoding="UTF-8" standalone="no"?>
<!DOCTYPE svg PUBLIC "-//W3C//DTD SVG 1.1//EN"
 "http://www.w3.org/Graphics/SVG/1.1/DTD/svg11.dtd">
<!-- Generated by graphviz version 2.38.0 (20140413.2041)
 -->
<!-- Title: CodonSubMatrix.h Pages: 1 -->
<svg width="1245pt" height="408pt"
 viewBox="0.00 0.00 1245.00 408.00" xmlns="http://www.w3.org/2000/svg" xmlns:xlink="http://www.w3.org/1999/xlink">
<g id="graph0" class="graph" transform="scale(1 1) rotate(0) translate(4 404)">
<title>CodonSubMatrix.h</title>
<!-- Node14 -->
<g id="node1" class="node"><title>Node14</title>
<polygon fill="#bfbfbf" stroke="black" points="912,-380.5 912,-399.5 1010,-399.5 1010,-380.5 912,-380.5"/>
<text text-anchor="middle" x="961" y="-387.5" font-family="Helvetica,sans-Serif" font-size="10.00">CodonSubMatrix.h</text>
</g>
<!-- Node15 -->
<g id="node2" class="node"><title>Node15</title>
<g id="a_node2"><a xlink:href="AACodonMutSelProfileProcess_8h.html" target="_top" xlink:title="AACodonMutSelProfileProcess.h">
<polygon fill="none" stroke="black" points="341.5,-324.5 341.5,-343.5 502.5,-343.5 502.5,-324.5 341.5,-324.5"/>
<text text-anchor="middle" x="422" y="-331.5" font-family="Helvetica,sans-Serif" font-size="10.00">AACodonMutSelProfileProcess.h</text>
</a>
</g>
</g>
<!-- Node14&#45;&gt;Node15 -->
<g id="edge1" class="edge"><title>Node14&#45;&gt;Node15</title>
<path fill="none" stroke="midnightblue" d="M901.514,-383.04C804.423,-373.313 611.788,-354.014 502.541,-343.069"/>
<polygon fill="midnightblue" stroke="midnightblue" points="901.439,-386.55 911.738,-384.065 902.137,-379.585 901.439,-386.55"/>
</g>
<!-- Node31 -->
<g id="node18" class="node"><title>Node31</title>
<g id="a_node18"><a xlink:href="CodonMutSelProfileProcess_8h.html" target="_top" xlink:title="CodonMutSelProfileProcess.h">
<polygon fill="none" stroke="black" points="814,-324.5 814,-343.5 962,-343.5 962,-324.5 814,-324.5"/>
<text text-anchor="middle" x="888" y="-331.5" font-family="Helvetica,sans-Serif" font-size="10.00">CodonMutSelProfileProcess.h</text>
</a>
</g>
</g>
<!-- Node14&#45;&gt;Node31 -->
<g id="edge18" class="edge"><title>Node14&#45;&gt;Node31</title>
<path fill="none" stroke="midnightblue" d="M940.858,-374.101C927.721,-364.382 911.018,-352.027 899.942,-343.834"/>
<polygon fill="midnightblue" stroke="midnightblue" points="939.15,-377.191 949.271,-380.324 943.313,-371.563 939.15,-377.191"/>
</g>
<!-- Node41 -->
<g id="node28" class="node"><title>Node41</title>
<g id="a_node28"><a xlink:href="CodonSubMatrix_8cpp.html" target="_top" xlink:title="CodonSubMatrix.cpp">
<polygon fill="none" stroke="black" points="980,-324.5 980,-343.5 1088,-343.5 1088,-324.5 980,-324.5"/>
<text text-anchor="middle" x="1034" y="-331.5" font-family="Helvetica,sans-Serif" font-size="10.00">CodonSubMatrix.cpp</text>
</a>
</g>
</g>
<!-- Node14&#45;&gt;Node41 -->
<g id="edge30" class="edge"><title>Node14&#45;&gt;Node41</title>
<path fill="none" stroke="midnightblue" d="M981.142,-374.101C994.279,-364.382 1010.98,-352.027 1022.06,-343.834"/>
<polygon fill="midnightblue" stroke="midnightblue" points="978.687,-371.563 972.729,-380.324 982.85,-377.191 978.687,-371.563"/>
</g>
<!-- Node42 -->
<g id="node29" class="node"><title>Node42</title>
<g id="a_node29"><a xlink:href="GeneralConjugatePath_8h.html" target="_top" xlink:title="GeneralConjugatePath.h">
<polygon fill="none" stroke="black" points="1106.5,-324.5 1106.5,-343.5 1229.5,-343.5 1229.5,-324.5 1106.5,-324.5"/>
<text text-anchor="middle" x="1168" y="-331.5" font-family="Helvetica,sans-Serif" font-size="10.00">GeneralConjugatePath.h</text>
</a>
</g>
</g>
<!-- Node14&#45;&gt;Node42 -->
<g id="edge31" class="edge"><title>Node14&#45;&gt;Node42</title>
<path fill="none" stroke="midnightblue" d="M1003.82,-377.829C1042.91,-367.633 1099.83,-352.782 1135.35,-343.516"/>
<polygon fill="midnightblue" stroke="midnightblue" points="1002.59,-374.533 993.8,-380.444 1004.36,-381.306 1002.59,-374.533"/>
</g>
<!-- Node16 -->
<g id="node3" class="node"><title>Node16</title>
<g id="a_node3"><a xlink:href="AACodonMutSelFiniteProfileProcess_8h.html" target="_top" xlink:title="AACodonMutSelFiniteProfile\lProcess.h">
<polygon fill="none" stroke="black" points="190.5,-257.5 190.5,-287.5 331.5,-287.5 331.5,-257.5 190.5,-257.5"/>
<text text-anchor="start" x="198.5" y="-275.5" font-family="Helvetica,sans-Serif" font-size="10.00">AACodonMutSelFiniteProfile</text>
<text text-anchor="middle" x="261" y="-264.5" font-family="Helvetica,sans-Serif" font-size="10.00">Process.h</text>
</a>
</g>
</g>
<!-- Node15&#45;&gt;Node16 -->
<g id="edge2" class="edge"><title>Node15&#45;&gt;Node16</title>
<path fill="none" stroke="midnightblue" d="M389.463,-320.976C363.287,-311.302 326.461,-297.692 298.945,-287.523"/>
<polygon fill="midnightblue" stroke="midnightblue" points="388.339,-324.292 398.933,-324.475 390.766,-317.726 388.339,-324.292"/>
</g>
<!-- Node23 -->
<g id="node10" class="node"><title>Node23</title>
<g id="a_node10"><a xlink:href="AACodonMutSelGeneProfileProcess_8h.html" target="_top" xlink:title="AACodonMutSelGeneProfile\lProcess.h">
<polygon fill="none" stroke="black" points="521,-257.5 521,-287.5 661,-287.5 661,-257.5 521,-257.5"/>
<text text-anchor="start" x="529" y="-275.5" font-family="Helvetica,sans-Serif" font-size="10.00">AACodonMutSelGeneProfile</text>
<text text-anchor="middle" x="591" y="-264.5" font-family="Helvetica,sans-Serif" font-size="10.00">Process.h</text>
</a>
</g>
</g>
<!-- Node15&#45;&gt;Node23 -->
<g id="edge9" class="edge"><title>Node15&#45;&gt;Node23</title>
<path fill="none" stroke="midnightblue" d="M455.791,-321.103C483.29,-311.422 522.16,-297.737 551.17,-287.523"/>
<polygon fill="midnightblue" stroke="midnightblue" points="454.484,-317.853 446.214,-324.475 456.808,-324.456 454.484,-317.853"/>
</g>
<!-- Node26 -->
<g id="node13" class="node"><title>Node26</title>
<g id="a_node13"><a xlink:href="AACodonMutSelProfileProcess_8cpp.html" target="_top" xlink:title="AACodonMutSelProfileProcess.cpp">
<polygon fill="none" stroke="black" points="0,-263 0,-282 172,-282 172,-263 0,-263"/>
<text text-anchor="middle" x="86" y="-270" font-family="Helvetica,sans-Serif" font-size="10.00">AACodonMutSelProfileProcess.cpp</text>
</a>
</g>
</g>
<!-- Node15&#45;&gt;Node26 -->
<g id="edge12" class="edge"><title>Node15&#45;&gt;Node26</title>
<path fill="none" stroke="midnightblue" d="M363.768,-322.688C298.725,-311.17 194.639,-292.738 134.051,-282.009"/>
<polygon fill="midnightblue" stroke="midnightblue" points="363.402,-326.178 373.859,-324.475 364.623,-319.285 363.402,-326.178"/>
</g>
<!-- Node27 -->
<g id="node14" class="node"><title>Node27</title>
<g id="a_node14"><a xlink:href="AACodonMutSelSBDPProfileProcess_8h.html" target="_top" xlink:title="AACodonMutSelSBDPProfile\lProcess.h">
<polygon fill="none" stroke="black" points="349.5,-257.5 349.5,-287.5 494.5,-287.5 494.5,-257.5 349.5,-257.5"/>
<text text-anchor="start" x="357.5" y="-275.5" font-family="Helvetica,sans-Serif" font-size="10.00">AACodonMutSelSBDPProfile</text>
<text text-anchor="middle" x="422" y="-264.5" font-family="Helvetica,sans-Serif" font-size="10.00">Process.h</text>
</a>
</g>
</g>
<!-- Node15&#45;&gt;Node27 -->
<g id="edge13" class="edge"><title>Node15&#45;&gt;Node27</title>
<path fill="none" stroke="midnightblue" d="M422,-314.235C422,-305.586 422,-295.497 422,-287.523"/>
<polygon fill="midnightblue" stroke="midnightblue" points="418.5,-314.475 422,-324.475 425.5,-314.475 418.5,-314.475"/>
</g>
<!-- Node17 -->
<g id="node4" class="node"><title>Node17</title>
<g id="a_node4"><a xlink:href="AACodonMutSelFiniteSubstitutionProcess_8h.html" target="_top" xlink:title="AACodonMutSelFiniteSubstitution\lProcess.h">
<polygon fill="none" stroke="black" points="145.5,-190.5 145.5,-220.5 310.5,-220.5 310.5,-190.5 145.5,-190.5"/>
<text text-anchor="start" x="153.5" y="-208.5" font-family="Helvetica,sans-Serif" font-size="10.00">AACodonMutSelFiniteSubstitution</text>
<text text-anchor="middle" x="228" y="-197.5" font-family="Helvetica,sans-Serif" font-size="10.00">Process.h</text>
</a>
</g>
</g>
<!-- Node16&#45;&gt;Node17 -->
<g id="edge3" class="edge"><title>Node16&#45;&gt;Node17</title>
<path fill="none" stroke="midnightblue" d="M249.213,-248.283C244.511,-239.022 239.252,-228.663 235.147,-220.577"/>
<polygon fill="midnightblue" stroke="midnightblue" points="246.192,-250.064 253.839,-257.396 252.433,-246.895 246.192,-250.064"/>
</g>
<!-- Node18 -->
<g id="node5" class="node"><title>Node18</title>
<g id="a_node5"><a xlink:href="AACodonMutSelFinitePhyloProcess_8h.html" target="_top" xlink:title="AACodonMutSelFinitePhylo\lProcess.h">
<polygon fill="none" stroke="black" points="158,-123.5 158,-153.5 296,-153.5 296,-123.5 158,-123.5"/>
<text text-anchor="start" x="166" y="-141.5" font-family="Helvetica,sans-Serif" font-size="10.00">AACodonMutSelFinitePhylo</text>
<text text-anchor="middle" x="227" y="-130.5" font-family="Helvetica,sans-Serif" font-size="10.00">Process.h</text>
</a>
</g>
</g>
<!-- Node17&#45;&gt;Node18 -->
<g id="edge4" class="edge"><title>Node17&#45;&gt;Node18</title>
<path fill="none" stroke="midnightblue" d="M227.625,-180.108C227.487,-171.154 227.336,-161.323 227.217,-153.577"/>
<polygon fill="midnightblue" stroke="midnightblue" points="224.13,-180.451 227.783,-190.396 231.129,-180.343 224.13,-180.451"/>
</g>
<!-- Node19 -->
<g id="node6" class="node"><title>Node19</title>
<g id="a_node6"><a xlink:href="AACodonMutSelFinitePhyloProcess_8cpp.html" target="_top" xlink:title="AACodonMutSelFinitePhylo\lProcess.cpp">
<polygon fill="none" stroke="black" points="155,-56.5 155,-86.5 293,-86.5 293,-56.5 155,-56.5"/>
<text text-anchor="start" x="163" y="-74.5" font-family="Helvetica,sans-Serif" font-size="10.00">AACodonMutSelFinitePhylo</text>
<text text-anchor="middle" x="224" y="-63.5" font-family="Helvetica,sans-Serif" font-size="10.00">Process.cpp</text>
</a>
</g>
</g>
<!-- Node18&#45;&gt;Node19 -->
<g id="edge5" class="edge"><title>Node18&#45;&gt;Node19</title>
<path fill="none" stroke="midnightblue" d="M225.888,-113.403C225.471,-104.37 225.011,-94.4078 224.65,-86.5765"/>
<polygon fill="midnightblue" stroke="midnightblue" points="222.392,-113.568 226.349,-123.396 229.384,-113.245 222.392,-113.568"/>
</g>
<!-- Node20 -->
<g id="node7" class="node"><title>Node20</title>
<g id="a_node7"><a xlink:href="Model_8h.html" target="_top" xlink:title="Model.h">
<polygon fill="none" stroke="black" points="585.5,-62 585.5,-81 636.5,-81 636.5,-62 585.5,-62"/>
<text text-anchor="middle" x="611" y="-69" font-family="Helvetica,sans-Serif" font-size="10.00">Model.h</text>
</a>
</g>
</g>
<!-- Node18&#45;&gt;Node20 -->
<g id="edge6" class="edge"><title>Node18&#45;&gt;Node20</title>
<path fill="none" stroke="midnightblue" d="M306.213,-122.806C415.872,-103.656 534.007,-84.7056 585.179,-76.5805"/>
<polygon fill="midnightblue" stroke="midnightblue" points="305.556,-119.368 296.309,-124.54 306.763,-126.263 305.556,-119.368"/>
</g>
<!-- Node21 -->
<g id="node8" class="node"><title>Node21</title>
<g id="a_node8"><a xlink:href="PB_8cpp.html" target="_top" xlink:title="PB.cpp">
<polygon fill="none" stroke="black" points="546.5,-0.5 546.5,-19.5 595.5,-19.5 595.5,-0.5 546.5,-0.5"/>
<text text-anchor="middle" x="571" y="-7.5" font-family="Helvetica,sans-Serif" font-size="10.00">PB.cpp</text>
</a>
</g>
</g>
<!-- Node20&#45;&gt;Node21 -->
<g id="edge7" class="edge"><title>Node20&#45;&gt;Node21</title>
<path fill="none" stroke="midnightblue" d="M599.575,-53.5051C592.101,-42.388 582.657,-28.3395 576.72,-19.5091"/>
<polygon fill="midnightblue" stroke="midnightblue" points="596.785,-55.6288 605.269,-61.9751 602.594,-51.7234 596.785,-55.6288"/>
</g>
<!-- Node22 -->
<g id="node9" class="node"><title>Node22</title>
<g id="a_node9"><a xlink:href="ReadPB_8cpp.html" target="_top" xlink:title="ReadPB.cpp">
<polygon fill="none" stroke="black" points="614,-0.5 614,-19.5 686,-19.5 686,-0.5 614,-0.5"/>
<text text-anchor="middle" x="650" y="-7.5" font-family="Helvetica,sans-Serif" font-size="10.00">ReadPB.cpp</text>
</a>
</g>
</g>
<!-- Node20&#45;&gt;Node22 -->
<g id="edge8" class="edge"><title>Node20&#45;&gt;Node22</title>
<path fill="none" stroke="midnightblue" d="M622.14,-53.5051C629.426,-42.388 638.635,-28.3395 644.423,-19.5091"/>
<polygon fill="midnightblue" stroke="midnightblue" points="619.143,-51.6929 616.588,-61.9751 624.997,-55.5303 619.143,-51.6929"/>
</g>
<!-- Node24 -->
<g id="node11" class="node"><title>Node24</title>
<g id="a_node11"><a xlink:href="AACodonMutSelGeneSubstitutionProcess_8h.html" target="_top" xlink:title="AACodonMutSelGeneSubstitution\lProcess.h">
<polygon fill="none" stroke="black" points="524,-190.5 524,-220.5 688,-220.5 688,-190.5 524,-190.5"/>
<text text-anchor="start" x="532" y="-208.5" font-family="Helvetica,sans-Serif" font-size="10.00">AACodonMutSelGeneSubstitution</text>
<text text-anchor="middle" x="606" y="-197.5" font-family="Helvetica,sans-Serif" font-size="10.00">Process.h</text>
</a>
</g>
</g>
<!-- Node23&#45;&gt;Node24 -->
<g id="edge10" class="edge"><title>Node23&#45;&gt;Node24</title>
<path fill="none" stroke="midnightblue" d="M596.561,-247.403C598.645,-238.37 600.944,-228.408 602.752,-220.577"/>
<polygon fill="midnightblue" stroke="midnightblue" points="593.093,-246.865 594.255,-257.396 599.914,-248.439 593.093,-246.865"/>
</g>
<!-- Node25 -->
<g id="node12" class="node"><title>Node25</title>
<g id="a_node12"><a xlink:href="AACodonMutSelGenePhyloProcess_8h.html" target="_top" xlink:title="AACodonMutSelGenePhyloProcess.h">
<polygon fill="none" stroke="black" points="518,-129 518,-148 700,-148 700,-129 518,-129"/>
<text text-anchor="middle" x="609" y="-136" font-family="Helvetica,sans-Serif" font-size="10.00">AACodonMutSelGenePhyloProcess.h</text>
</a>
</g>
</g>
<!-- Node24&#45;&gt;Node25 -->
<g id="edge11" class="edge"><title>Node24&#45;&gt;Node25</title>
<path fill="none" stroke="midnightblue" d="M607.119,-180.25C607.638,-169.017 608.221,-156.377 608.599,-148.195"/>
<polygon fill="midnightblue" stroke="midnightblue" points="603.616,-180.245 606.651,-190.396 610.608,-180.568 603.616,-180.245"/>
</g>
<!-- Node28 -->
<g id="node15" class="node"><title>Node28</title>
<g id="a_node15"><a xlink:href="AACodonMutSelSBDPSubstitutionProcess_8h.html" target="_top" xlink:title="AACodonMutSelSBDPSubstitution\lProcess.h">
<polygon fill="none" stroke="black" points="330.5,-190.5 330.5,-220.5 499.5,-220.5 499.5,-190.5 330.5,-190.5"/>
<text text-anchor="start" x="338.5" y="-208.5" font-family="Helvetica,sans-Serif" font-size="10.00">AACodonMutSelSBDPSubstitution</text>
<text text-anchor="middle" x="415" y="-197.5" font-family="Helvetica,sans-Serif" font-size="10.00">Process.h</text>
</a>
</g>
</g>
<!-- Node27&#45;&gt;Node28 -->
<g id="edge14" class="edge"><title>Node27&#45;&gt;Node28</title>
<path fill="none" stroke="midnightblue" d="M419.405,-247.403C418.432,-238.37 417.359,-228.408 416.516,-220.577"/>
<polygon fill="midnightblue" stroke="midnightblue" points="415.93,-247.828 420.481,-257.396 422.89,-247.079 415.93,-247.828"/>
</g>
<!-- Node29 -->
<g id="node16" class="node"><title>Node29</title>
<g id="a_node16"><a xlink:href="AACodonMutSelSBDPPhyloProcess_8h.html" target="_top" xlink:title="AACodonMutSelSBDPPhyloProcess.h">
<polygon fill="none" stroke="black" points="314,-129 314,-148 500,-148 500,-129 314,-129"/>
<text text-anchor="middle" x="407" y="-136" font-family="Helvetica,sans-Serif" font-size="10.00">AACodonMutSelSBDPPhyloProcess.h</text>
</a>
</g>
</g>
<!-- Node28&#45;&gt;Node29 -->
<g id="edge15" class="edge"><title>Node28&#45;&gt;Node29</title>
<path fill="none" stroke="midnightblue" d="M412.015,-180.25C410.633,-169.017 409.077,-156.377 408.07,-148.195"/>
<polygon fill="midnightblue" stroke="midnightblue" points="408.569,-180.898 413.264,-190.396 415.516,-180.043 408.569,-180.898"/>
</g>
<!-- Node29&#45;&gt;Node20 -->
<g id="edge17" class="edge"><title>Node29&#45;&gt;Node20</title>
<path fill="none" stroke="midnightblue" d="M443.683,-125.812C484.581,-112.781 549.661,-92.0443 585.408,-80.6544"/>
<polygon fill="midnightblue" stroke="midnightblue" points="442.555,-122.498 434.09,-128.869 444.68,-129.167 442.555,-122.498"/>
</g>
<!-- Node30 -->
<g id="node17" class="node"><title>Node30</title>
<g id="a_node17"><a xlink:href="AACodonMutSelSBDPPhyloProcess_8cpp.html" target="_top" xlink:title="AACodonMutSelSBDPPhyloProcess.cpp">
<polygon fill="none" stroke="black" points="311.5,-62 311.5,-81 508.5,-81 508.5,-62 311.5,-62"/>
<text text-anchor="middle" x="410" y="-69" font-family="Helvetica,sans-Serif" font-size="10.00">AACodonMutSelSBDPPhyloProcess.cpp</text>
</a>
</g>
</g>
<!-- Node29&#45;&gt;Node30 -->
<g id="edge16" class="edge"><title>Node29&#45;&gt;Node30</title>
<path fill="none" stroke="midnightblue" d="M407.875,-118.537C408.446,-106.17 409.164,-90.6198 409.602,-81.1273"/>
<polygon fill="midnightblue" stroke="midnightblue" points="404.369,-118.583 407.405,-128.734 411.362,-118.906 404.369,-118.583"/>
</g>
<!-- Node32 -->
<g id="node19" class="node"><title>Node32</title>
<g id="a_node19"><a xlink:href="CodonMutSelFiniteProfileProcess_8h.html" target="_top" xlink:title="CodonMutSelFiniteProfile\lProcess.h">
<polygon fill="none" stroke="black" points="739,-257.5 739,-287.5 867,-287.5 867,-257.5 739,-257.5"/>
<text text-anchor="start" x="747" y="-275.5" font-family="Helvetica,sans-Serif" font-size="10.00">CodonMutSelFiniteProfile</text>
<text text-anchor="middle" x="803" y="-264.5" font-family="Helvetica,sans-Serif" font-size="10.00">Process.h</text>
</a>
</g>
</g>
<!-- Node31&#45;&gt;Node32 -->
<g id="edge19" class="edge"><title>Node31&#45;&gt;Node32</title>
<path fill="none" stroke="midnightblue" d="M867.627,-318.739C854.118,-309.282 836.472,-296.93 823.033,-287.523"/>
<polygon fill="midnightblue" stroke="midnightblue" points="865.622,-321.608 875.822,-324.475 869.636,-315.873 865.622,-321.608"/>
</g>
<!-- Node36 -->
<g id="node23" class="node"><title>Node36</title>
<g id="a_node23"><a xlink:href="CodonMutSelProfileProcess_8cpp.html" target="_top" xlink:title="CodonMutSelProfileProcess.cpp">
<polygon fill="none" stroke="black" points="1079,-263 1079,-282 1237,-282 1237,-263 1079,-263"/>
<text text-anchor="middle" x="1158" y="-270" font-family="Helvetica,sans-Serif" font-size="10.00">CodonMutSelProfileProcess.cpp</text>
</a>
</g>
</g>
<!-- Node31&#45;&gt;Node36 -->
<g id="edge24" class="edge"><title>Node31&#45;&gt;Node36</title>
<path fill="none" stroke="midnightblue" d="M936.743,-322.258C989.12,-310.716 1071.3,-292.606 1119.39,-282.009"/>
<polygon fill="midnightblue" stroke="midnightblue" points="935.697,-318.905 926.684,-324.475 937.203,-325.741 935.697,-318.905"/>
</g>
<!-- Node37 -->
<g id="node24" class="node"><title>Node37</title>
<g id="a_node24"><a xlink:href="CodonMutSelSBDPProfileProcess_8h.html" target="_top" xlink:title="CodonMutSelSBDPProfileProcess.h">
<polygon fill="none" stroke="black" points="885,-263 885,-282 1061,-282 1061,-263 885,-263"/>
<text text-anchor="middle" x="973" y="-270" font-family="Helvetica,sans-Serif" font-size="10.00">CodonMutSelSBDPProfileProcess.h</text>
</a>
</g>
</g>
<!-- Node31&#45;&gt;Node37 -->
<g id="edge25" class="edge"><title>Node31&#45;&gt;Node37</title>
<path fill="none" stroke="midnightblue" d="M908.553,-318.613C924.901,-307.169 947.22,-291.546 960.844,-282.009"/>
<polygon fill="midnightblue" stroke="midnightblue" points="906.364,-315.873 900.178,-324.475 910.378,-321.608 906.364,-315.873"/>
</g>
<!-- Node33 -->
<g id="node20" class="node"><title>Node33</title>
<g id="a_node20"><a xlink:href="CodonMutSelFiniteSubstitutionProcess_8h.html" target="_top" xlink:title="CodonMutSelFiniteSubstitution\lProcess.h">
<polygon fill="none" stroke="black" points="727,-190.5 727,-220.5 879,-220.5 879,-190.5 727,-190.5"/>
<text text-anchor="start" x="735" y="-208.5" font-family="Helvetica,sans-Serif" font-size="10.00">CodonMutSelFiniteSubstitution</text>
<text text-anchor="middle" x="803" y="-197.5" font-family="Helvetica,sans-Serif" font-size="10.00">Process.h</text>
</a>
</g>
</g>
<!-- Node32&#45;&gt;Node33 -->
<g id="edge20" class="edge"><title>Node32&#45;&gt;Node33</title>
<path fill="none" stroke="midnightblue" d="M803,-247.108C803,-238.154 803,-228.323 803,-220.577"/>
<polygon fill="midnightblue" stroke="midnightblue" points="799.5,-247.396 803,-257.396 806.5,-247.396 799.5,-247.396"/>
</g>
<!-- Node34 -->
<g id="node21" class="node"><title>Node34</title>
<g id="a_node21"><a xlink:href="CodonMutSelFinitePhyloProcess_8h.html" target="_top" xlink:title="CodonMutSelFinitePhyloProcess.h">
<polygon fill="none" stroke="black" points="718.5,-129 718.5,-148 887.5,-148 887.5,-129 718.5,-129"/>
<text text-anchor="middle" x="803" y="-136" font-family="Helvetica,sans-Serif" font-size="10.00">CodonMutSelFinitePhyloProcess.h</text>
</a>
</g>
</g>
<!-- Node33&#45;&gt;Node34 -->
<g id="edge21" class="edge"><title>Node33&#45;&gt;Node34</title>
<path fill="none" stroke="midnightblue" d="M803,-180.25C803,-169.017 803,-156.377 803,-148.195"/>
<polygon fill="midnightblue" stroke="midnightblue" points="799.5,-180.396 803,-190.396 806.5,-180.396 799.5,-180.396"/>
</g>
<!-- Node34&#45;&gt;Node20 -->
<g id="edge23" class="edge"><title>Node34&#45;&gt;Node20</title>
<path fill="none" stroke="midnightblue" d="M767.853,-125.601C729.785,-112.714 669.997,-92.4728 636.296,-81.0637"/>
<polygon fill="midnightblue" stroke="midnightblue" points="766.91,-128.977 777.504,-128.869 769.154,-122.347 766.91,-128.977"/>
</g>
<!-- Node35 -->
<g id="node22" class="node"><title>Node35</title>
<g id="a_node22"><a xlink:href="CodonMutSelFinitePhyloProcess_8cpp.html" target="_top" xlink:title="CodonMutSelFinitePhyloProcess.cpp">
<polygon fill="none" stroke="black" points="708.5,-62 708.5,-81 887.5,-81 887.5,-62 708.5,-62"/>
<text text-anchor="middle" x="798" y="-69" font-family="Helvetica,sans-Serif" font-size="10.00">CodonMutSelFinitePhyloProcess.cpp</text>
</a>
</g>
</g>
<!-- Node34&#45;&gt;Node35 -->
<g id="edge22" class="edge"><title>Node34&#45;&gt;Node35</title>
<path fill="none" stroke="midnightblue" d="M801.541,-118.537C800.59,-106.17 799.394,-90.6198 798.664,-81.1273"/>
<polygon fill="midnightblue" stroke="midnightblue" points="798.069,-119.032 802.326,-128.734 805.048,-118.495 798.069,-119.032"/>
</g>
<!-- Node38 -->
<g id="node25" class="node"><title>Node38</title>
<g id="a_node25"><a xlink:href="CodonMutSelSBDPSubstitutionProcess_8h.html" target="_top" xlink:title="CodonMutSelSBDPSubstitution\lProcess.h">
<polygon fill="none" stroke="black" points="905.5,-190.5 905.5,-220.5 1060.5,-220.5 1060.5,-190.5 905.5,-190.5"/>
<text text-anchor="start" x="913.5" y="-208.5" font-family="Helvetica,sans-Serif" font-size="10.00">CodonMutSelSBDPSubstitution</text>
<text text-anchor="middle" x="983" y="-197.5" font-family="Helvetica,sans-Serif" font-size="10.00">Process.h</text>
</a>
</g>
</g>
<!-- Node37&#45;&gt;Node38 -->
<g id="edge26" class="edge"><title>Node37&#45;&gt;Node38</title>
<path fill="none" stroke="midnightblue" d="M975.886,-252.739C977.463,-242.487 979.384,-230.001 980.832,-220.589"/>
<polygon fill="midnightblue" stroke="midnightblue" points="972.41,-252.318 974.349,-262.734 979.329,-253.382 972.41,-252.318"/>
</g>
<!-- Node39 -->
<g id="node26" class="node"><title>Node39</title>
<g id="a_node26"><a xlink:href="CodonMutSelSBDPPhyloProcess_8h.html" target="_top" xlink:title="CodonMutSelSBDPPhyloProcess.h">
<polygon fill="none" stroke="black" points="905.5,-129 905.5,-148 1078.5,-148 1078.5,-129 905.5,-129"/>
<text text-anchor="middle" x="992" y="-136" font-family="Helvetica,sans-Serif" font-size="10.00">CodonMutSelSBDPPhyloProcess.h</text>
</a>
</g>
</g>
<!-- Node38&#45;&gt;Node39 -->
<g id="edge27" class="edge"><title>Node38&#45;&gt;Node39</title>
<path fill="none" stroke="midnightblue" d="M986.358,-180.25C987.913,-169.017 989.663,-156.377 990.796,-148.195"/>
<polygon fill="midnightblue" stroke="midnightblue" points="982.858,-180.01 984.953,-190.396 989.791,-180.971 982.858,-180.01"/>
</g>
<!-- Node39&#45;&gt;Node20 -->
<g id="edge29" class="edge"><title>Node39&#45;&gt;Node20</title>
<path fill="none" stroke="midnightblue" d="M931.814,-127.232C847.167,-112.791 696.598,-87.1034 636.655,-76.8768"/>
<polygon fill="midnightblue" stroke="midnightblue" points="931.353,-130.704 941.799,-128.936 932.53,-123.804 931.353,-130.704"/>
</g>
<!-- Node40 -->
<g id="node27" class="node"><title>Node40</title>
<g id="a_node27"><a xlink:href="CodonMutSelSBDPPhyloProcess_8cpp.html" target="_top" xlink:title="CodonMutSelSBDPPhyloProcess.cpp">
<polygon fill="none" stroke="black" points="905.5,-62 905.5,-81 1088.5,-81 1088.5,-62 905.5,-62"/>
<text text-anchor="middle" x="997" y="-69" font-family="Helvetica,sans-Serif" font-size="10.00">CodonMutSelSBDPPhyloProcess.cpp</text>
</a>
</g>
</g>
<!-- Node39&#45;&gt;Node40 -->
<g id="edge28" class="edge"><title>Node39&#45;&gt;Node40</title>
<path fill="none" stroke="midnightblue" d="M993.459,-118.537C994.41,-106.17 995.606,-90.6198 996.336,-81.1273"/>
<polygon fill="midnightblue" stroke="midnightblue" points="989.952,-118.495 992.674,-128.734 996.931,-119.032 989.952,-118.495"/>
</g>
</g>
</svg>
