<?xml version="1.0" encoding="UTF-8" standalone="no"?>
<!DOCTYPE svg PUBLIC "-//W3C//DTD SVG 1.1//EN"
 "http://www.w3.org/Graphics/SVG/1.1/DTD/svg11.dtd">
<!-- Generated by graphviz version 2.38.0 (20140413.2041)
 -->
<!-- Title: CodonMutSelSBDPSubstitutionProcess.h Pages: 1 -->
<svg width="310pt" height="207pt"
 viewBox="0.00 0.00 309.50 207.00" xmlns="http://www.w3.org/2000/svg" xmlns:xlink="http://www.w3.org/1999/xlink">
<g id="graph0" class="graph" transform="scale(1 1) rotate(0) translate(4 203)">
<title>CodonMutSelSBDPSubstitutionProcess.h</title>
<!-- Node40 -->
<g id="node1" class="node"><title>Node40</title>
<polygon fill="#bfbfbf" stroke="black" points="81,-168.5 81,-198.5 236,-198.5 236,-168.5 81,-168.5"/>
<text text-anchor="start" x="89" y="-186.5" font-family="Helvetica,sans-Serif" font-size="10.00">CodonMutSelSBDPSubstitution</text>
<text text-anchor="middle" x="158.5" y="-175.5" font-family="Helvetica,sans-Serif" font-size="10.00">Process.h</text>
</g>
<!-- Node41 -->
<g id="node2" class="node"><title>Node41</title>
<g id="a_node2"><a xlink:href="CodonMutSelSBDPPhyloProcess_8h.html" target="_top" xlink:title="CodonMutSelSBDPPhyloProcess.h">
<polygon fill="none" stroke="black" points="72,-112.5 72,-131.5 245,-131.5 245,-112.5 72,-112.5"/>
<text text-anchor="middle" x="158.5" y="-119.5" font-family="Helvetica,sans-Serif" font-size="10.00">CodonMutSelSBDPPhyloProcess.h</text>
</a>
</g>
</g>
<!-- Node40&#45;&gt;Node41 -->
<g id="edge1" class="edge"><title>Node40&#45;&gt;Node41</title>
<path fill="none" stroke="midnightblue" d="M158.5,-158.289C158.5,-148.857 158.5,-138.655 158.5,-131.658"/>
<polygon fill="midnightblue" stroke="midnightblue" points="155,-158.399 158.5,-168.399 162,-158.399 155,-158.399"/>
</g>
<!-- Node42 -->
<g id="node3" class="node"><title>Node42</title>
<g id="a_node3"><a xlink:href="CodonMutSelSBDPPhyloProcess_8cpp.html" target="_top" xlink:title="CodonMutSelSBDPPhyloProcess.cpp">
<polygon fill="none" stroke="black" points="0,-56.5 0,-75.5 183,-75.5 183,-56.5 0,-56.5"/>
<text text-anchor="middle" x="91.5" y="-63.5" font-family="Helvetica,sans-Serif" font-size="10.00">CodonMutSelSBDPPhyloProcess.cpp</text>
</a>
</g>
</g>
<!-- Node41&#45;&gt;Node42 -->
<g id="edge2" class="edge"><title>Node41&#45;&gt;Node42</title>
<path fill="none" stroke="midnightblue" d="M139.665,-105.82C127.662,-96.1452 112.528,-83.9481 102.461,-75.8339"/>
<polygon fill="midnightblue" stroke="midnightblue" points="137.753,-108.774 147.735,-112.324 142.146,-103.324 137.753,-108.774"/>
</g>
<!-- Node43 -->
<g id="node4" class="node"><title>Node43</title>
<g id="a_node4"><a xlink:href="Model_8h.html" target="_top" xlink:title="Model.h">
<polygon fill="none" stroke="black" points="201,-56.5 201,-75.5 252,-75.5 252,-56.5 201,-56.5"/>
<text text-anchor="middle" x="226.5" y="-63.5" font-family="Helvetica,sans-Serif" font-size="10.00">Model.h</text>
</a>
</g>
</g>
<!-- Node41&#45;&gt;Node43 -->
<g id="edge3" class="edge"><title>Node41&#45;&gt;Node43</title>
<path fill="none" stroke="midnightblue" d="M177.262,-106.101C189.5,-96.3824 205.059,-84.0269 215.376,-75.8339"/>
<polygon fill="midnightblue" stroke="midnightblue" points="175.08,-103.364 169.425,-112.324 179.433,-108.846 175.08,-103.364"/>
</g>
<!-- Node44 -->
<g id="node5" class="node"><title>Node44</title>
<g id="a_node5"><a xlink:href="PB_8cpp.html" target="_top" xlink:title="PB.cpp">
<polygon fill="none" stroke="black" points="162,-0.5 162,-19.5 211,-19.5 211,-0.5 162,-0.5"/>
<text text-anchor="middle" x="186.5" y="-7.5" font-family="Helvetica,sans-Serif" font-size="10.00">PB.cpp</text>
</a>
</g>
</g>
<!-- Node43&#45;&gt;Node44 -->
<g id="edge4" class="edge"><title>Node43&#45;&gt;Node44</title>
<path fill="none" stroke="midnightblue" d="M213.8,-47.8554C206.874,-38.5048 198.594,-27.3265 192.982,-19.7511"/>
<polygon fill="midnightblue" stroke="midnightblue" points="211.13,-50.1307 219.895,-56.083 216.755,-45.9641 211.13,-50.1307"/>
</g>
<!-- Node45 -->
<g id="node6" class="node"><title>Node45</title>
<g id="a_node6"><a xlink:href="ReadPB_8cpp.html" target="_top" xlink:title="ReadPB.cpp">
<polygon fill="none" stroke="black" points="229.5,-0.5 229.5,-19.5 301.5,-19.5 301.5,-0.5 229.5,-0.5"/>
<text text-anchor="middle" x="265.5" y="-7.5" font-family="Helvetica,sans-Serif" font-size="10.00">ReadPB.cpp</text>
</a>
</g>
</g>
<!-- Node43&#45;&gt;Node45 -->
<g id="edge5" class="edge"><title>Node43&#45;&gt;Node45</title>
<path fill="none" stroke="midnightblue" d="M238.882,-47.8554C245.635,-38.5048 253.709,-27.3265 259.18,-19.7511"/>
<polygon fill="midnightblue" stroke="midnightblue" points="235.958,-45.927 232.94,-56.083 241.632,-50.0254 235.958,-45.927"/>
</g>
</g>
</svg>
