<?xml version="1.0" encoding="UTF-8" standalone="no"?>
<!DOCTYPE svg PUBLIC "-//W3C//DTD SVG 1.1//EN"
 "http://www.w3.org/Graphics/SVG/1.1/DTD/svg11.dtd">
<!-- Generated by graphviz version 2.38.0 (20140413.2041)
 -->
<!-- Title: CodonMutSelSBDPSubstitutionProcess.h Pages: 1 -->
<svg width="1159pt" height="565pt"
 viewBox="0.00 0.00 1159.30 565.00" xmlns="http://www.w3.org/2000/svg" xmlns:xlink="http://www.w3.org/1999/xlink">
<g id="graph0" class="graph" transform="scale(1 1) rotate(0) translate(4 561)">
<title>CodonMutSelSBDPSubstitutionProcess.h</title>
<!-- Node0 -->
<g id="node1" class="node"><title>Node0</title>
<polygon fill="#bfbfbf" stroke="black" points="396.5,-526.5 396.5,-556.5 551.5,-556.5 551.5,-526.5 396.5,-526.5"/>
<text text-anchor="start" x="404.5" y="-544.5" font-family="Helvetica,sans-Serif" font-size="10.00">CodonMutSelSBDPSubstitution</text>
<text text-anchor="middle" x="474" y="-533.5" font-family="Helvetica,sans-Serif" font-size="10.00">Process.h</text>
</g>
<!-- Node1 -->
<g id="node2" class="node"><title>Node1</title>
<g id="a_node2"><a xlink:href="CodonMutSelSBDPProfileProcess_8h.html" target="_top" xlink:title="CodonMutSelSBDPProfileProcess.h">
<polygon fill="none" stroke="black" points="253,-470.5 253,-489.5 429,-489.5 429,-470.5 253,-470.5"/>
<text text-anchor="middle" x="341" y="-477.5" font-family="Helvetica,sans-Serif" font-size="10.00">CodonMutSelSBDPProfileProcess.h</text>
</a>
</g>
</g>
<!-- Node0&#45;&gt;Node1 -->
<g id="edge1" class="edge"><title>Node0&#45;&gt;Node1</title>
<path fill="none" stroke="midnightblue" d="M442.481,-526.399C420.365,-516.505 391.033,-503.383 369.594,-493.792"/>
<polygon fill="midnightblue" stroke="midnightblue" points="370.91,-490.547 360.353,-489.658 368.052,-496.936 370.91,-490.547"/>
</g>
<!-- Node32 -->
<g id="node33" class="node"><title>Node32</title>
<g id="a_node33"><a xlink:href="UniformRateProcess_8h.html" target="_top" xlink:title="UniformRateProcess.h">
<polygon fill="none" stroke="black" points="638,-414.5 638,-433.5 754,-433.5 754,-414.5 638,-414.5"/>
<text text-anchor="middle" x="696" y="-421.5" font-family="Helvetica,sans-Serif" font-size="10.00">UniformRateProcess.h</text>
</a>
</g>
</g>
<!-- Node0&#45;&gt;Node32 -->
<g id="edge57" class="edge"><title>Node0&#45;&gt;Node32</title>
<path fill="none" stroke="midnightblue" d="M501.222,-526.337C544.51,-503.816 628.44,-460.15 670.573,-438.229"/>
<polygon fill="midnightblue" stroke="midnightblue" points="672.364,-441.243 679.619,-433.522 669.133,-435.033 672.364,-441.243"/>
</g>
<!-- Node34 -->
<g id="node35" class="node"><title>Node34</title>
<g id="a_node35"><a xlink:href="GeneralPathSuffStatMatrixSubstitutionProcess_8h.html" target="_top" xlink:title="GeneralPathSuffStatMatrix\lSubstitutionProcess.h">
<polygon fill="none" stroke="black" points="407,-347.5 407,-377.5 541,-377.5 541,-347.5 407,-347.5"/>
<text text-anchor="start" x="415" y="-365.5" font-family="Helvetica,sans-Serif" font-size="10.00">GeneralPathSuffStatMatrix</text>
<text text-anchor="middle" x="474" y="-354.5" font-family="Helvetica,sans-Serif" font-size="10.00">SubstitutionProcess.h</text>
</a>
</g>
</g>
<!-- Node0&#45;&gt;Node34 -->
<g id="edge61" class="edge"><title>Node0&#45;&gt;Node34</title>
<path fill="none" stroke="midnightblue" d="M474,-526.315C474,-496.15 474,-425.338 474,-387.819"/>
<polygon fill="midnightblue" stroke="midnightblue" points="477.5,-387.753 474,-377.753 470.5,-387.753 477.5,-387.753"/>
</g>
<!-- Node2 -->
<g id="node3" class="node"><title>Node2</title>
<g id="a_node3"><a xlink:href="MatrixSBDPProfileProcess_8h.html" target="_top" xlink:title="MatrixSBDPProfileProcess.h">
<polygon fill="none" stroke="black" points="152.5,-414.5 152.5,-433.5 295.5,-433.5 295.5,-414.5 152.5,-414.5"/>
<text text-anchor="middle" x="224" y="-421.5" font-family="Helvetica,sans-Serif" font-size="10.00">MatrixSBDPProfileProcess.h</text>
</a>
</g>
</g>
<!-- Node1&#45;&gt;Node2 -->
<g id="edge2" class="edge"><title>Node1&#45;&gt;Node2</title>
<path fill="none" stroke="midnightblue" d="M322.461,-470.444C303.377,-461.636 273.425,-447.812 251.564,-437.722"/>
<polygon fill="midnightblue" stroke="midnightblue" points="252.999,-434.529 242.452,-433.516 250.065,-440.885 252.999,-434.529"/>
</g>
<!-- Node24 -->
<g id="node25" class="node"><title>Node24</title>
<g id="a_node25"><a xlink:href="CodonMutSelProfileProcess_8h.html" target="_top" xlink:title="CodonMutSelProfileProcess.h">
<polygon fill="none" stroke="black" points="559,-353 559,-372 707,-372 707,-353 559,-353"/>
<text text-anchor="middle" x="633" y="-360" font-family="Helvetica,sans-Serif" font-size="10.00">CodonMutSelProfileProcess.h</text>
</a>
</g>
</g>
<!-- Node1&#45;&gt;Node24 -->
<g id="edge36" class="edge"><title>Node1&#45;&gt;Node24</title>
<path fill="none" stroke="midnightblue" d="M362.947,-470.319C414.228,-450.035 542.055,-399.473 601.579,-375.928"/>
<polygon fill="midnightblue" stroke="midnightblue" points="603.185,-379.057 611.196,-372.124 600.61,-372.548 603.185,-379.057"/>
</g>
<!-- Node31 -->
<g id="node32" class="node"><title>Node31</title>
<g id="a_node32"><a xlink:href="GeneralPathSuffStatMatrixMixtureProfileProcess_8h.html" target="_top" xlink:title="GeneralPathSuffStatMatrix\lMixtureProfileProcess.h">
<polygon fill="none" stroke="black" points="255,-347.5 255,-377.5 389,-377.5 389,-347.5 255,-347.5"/>
<text text-anchor="start" x="263" y="-365.5" font-family="Helvetica,sans-Serif" font-size="10.00">GeneralPathSuffStatMatrix</text>
<text text-anchor="middle" x="322" y="-354.5" font-family="Helvetica,sans-Serif" font-size="10.00">MixtureProfileProcess.h</text>
</a>
</g>
</g>
<!-- Node1&#45;&gt;Node31 -->
<g id="edge54" class="edge"><title>Node1&#45;&gt;Node31</title>
<path fill="none" stroke="midnightblue" d="M339.572,-470.319C336.717,-452.967 330.218,-413.457 325.974,-387.658"/>
<polygon fill="midnightblue" stroke="midnightblue" points="329.387,-386.845 324.31,-377.545 322.48,-387.981 329.387,-386.845"/>
</g>
<!-- Node3 -->
<g id="node4" class="node"><title>Node3</title>
<g id="a_node4"><a xlink:href="MatrixMixtureProfileProcess_8h.html" target="_top" xlink:title="MatrixMixtureProfileProcess.h">
<polygon fill="none" stroke="black" points="150,-286 150,-305 298,-305 298,-286 150,-286"/>
<text text-anchor="middle" x="224" y="-293" font-family="Helvetica,sans-Serif" font-size="10.00">MatrixMixtureProfileProcess.h</text>
</a>
</g>
</g>
<!-- Node2&#45;&gt;Node3 -->
<g id="edge3" class="edge"><title>Node2&#45;&gt;Node3</title>
<path fill="none" stroke="midnightblue" d="M224,-414.305C224,-393.994 224,-343.053 224,-315.277"/>
<polygon fill="midnightblue" stroke="midnightblue" points="227.5,-315.256 224,-305.256 220.5,-315.256 227.5,-315.256"/>
</g>
<!-- Node22 -->
<g id="node23" class="node"><title>Node22</title>
<g id="a_node23"><a xlink:href="SBDPProfileProcess_8h.html" target="_top" xlink:title="SBDPProfileProcess.h">
<polygon fill="none" stroke="black" points="22,-353 22,-372 138,-372 138,-353 22,-353"/>
<text text-anchor="middle" x="80" y="-360" font-family="Helvetica,sans-Serif" font-size="10.00">SBDPProfileProcess.h</text>
</a>
</g>
</g>
<!-- Node2&#45;&gt;Node22 -->
<g id="edge31" class="edge"><title>Node2&#45;&gt;Node22</title>
<path fill="none" stroke="midnightblue" d="M203.368,-414.475C178.881,-404.357 137.853,-387.405 109.891,-375.851"/>
<polygon fill="midnightblue" stroke="midnightblue" points="111.172,-372.593 100.593,-372.009 108.499,-379.063 111.172,-372.593"/>
</g>
<!-- Node4 -->
<g id="node5" class="node"><title>Node4</title>
<g id="a_node5"><a xlink:href="MatrixProfileProcess_8h.html" target="_top" xlink:title="MatrixProfileProcess.h">
<polygon fill="none" stroke="black" points="312,-224.5 312,-243.5 428,-243.5 428,-224.5 312,-224.5"/>
<text text-anchor="middle" x="370" y="-231.5" font-family="Helvetica,sans-Serif" font-size="10.00">MatrixProfileProcess.h</text>
</a>
</g>
</g>
<!-- Node3&#45;&gt;Node4 -->
<g id="edge4" class="edge"><title>Node3&#45;&gt;Node4</title>
<path fill="none" stroke="midnightblue" d="M244.918,-285.975C269.746,-275.857 311.343,-258.905 339.694,-247.351"/>
<polygon fill="midnightblue" stroke="midnightblue" points="341.181,-250.524 349.121,-243.509 338.539,-244.042 341.181,-250.524"/>
</g>
<!-- Node21 -->
<g id="node22" class="node"><title>Node21</title>
<g id="a_node22"><a xlink:href="MixtureProfileProcess_8h.html" target="_top" xlink:title="MixtureProfileProcess.h">
<polygon fill="none" stroke="black" points="145.5,-224.5 145.5,-243.5 266.5,-243.5 266.5,-224.5 145.5,-224.5"/>
<text text-anchor="middle" x="206" y="-231.5" font-family="Helvetica,sans-Serif" font-size="10.00">MixtureProfileProcess.h</text>
</a>
</g>
</g>
<!-- Node3&#45;&gt;Node21 -->
<g id="edge28" class="edge"><title>Node3&#45;&gt;Node21</title>
<path fill="none" stroke="midnightblue" d="M221.421,-285.975C218.855,-277.492 214.835,-264.204 211.543,-253.322"/>
<polygon fill="midnightblue" stroke="midnightblue" points="214.82,-252.067 208.574,-243.509 208.12,-254.094 214.82,-252.067"/>
</g>
<!-- Node5 -->
<g id="node6" class="node"><title>Node5</title>
<g id="a_node6"><a xlink:href="SubMatrix_8h.html" target="_top" xlink:title="SubMatrix.h">
<polygon fill="none" stroke="black" points="287.5,-112.5 287.5,-131.5 356.5,-131.5 356.5,-112.5 287.5,-112.5"/>
<text text-anchor="middle" x="322" y="-119.5" font-family="Helvetica,sans-Serif" font-size="10.00">SubMatrix.h</text>
</a>
</g>
</g>
<!-- Node4&#45;&gt;Node5 -->
<g id="edge5" class="edge"><title>Node4&#45;&gt;Node5</title>
<path fill="none" stroke="midnightblue" d="M349.777,-224.495C335.229,-217.168 316.699,-205.063 308,-188 300.479,-173.249 305.782,-154.622 311.898,-141.093"/>
<polygon fill="midnightblue" stroke="midnightblue" points="315.161,-142.396 316.536,-131.89 308.91,-139.246 315.161,-142.396"/>
</g>
<!-- Node13 -->
<g id="node14" class="node"><title>Node13</title>
<g id="a_node14"><a xlink:href="ProfileProcess_8h.html" target="_top" xlink:title="ProfileProcess.h">
<polygon fill="none" stroke="black" points="480.5,-168.5 480.5,-187.5 569.5,-187.5 569.5,-168.5 480.5,-168.5"/>
<text text-anchor="middle" x="525" y="-175.5" font-family="Helvetica,sans-Serif" font-size="10.00">ProfileProcess.h</text>
</a>
</g>
</g>
<!-- Node4&#45;&gt;Node13 -->
<g id="edge15" class="edge"><title>Node4&#45;&gt;Node13</title>
<path fill="none" stroke="midnightblue" d="M394.56,-224.444C420.523,-215.399 461.668,-201.064 490.797,-190.916"/>
<polygon fill="midnightblue" stroke="midnightblue" points="492.263,-194.112 500.555,-187.516 489.96,-187.501 492.263,-194.112"/>
</g>
<!-- Node6 -->
<g id="node7" class="node"><title>Node6</title>
<polygon fill="none" stroke="#bfbfbf" points="455,-0.5 455,-19.5 509,-19.5 509,-0.5 455,-0.5"/>
<text text-anchor="middle" x="482" y="-7.5" font-family="Helvetica,sans-Serif" font-size="10.00">iostream</text>
</g>
<!-- Node5&#45;&gt;Node6 -->
<g id="edge6" class="edge"><title>Node5&#45;&gt;Node6</title>
<path fill="none" stroke="midnightblue" d="M332.759,-112.472C348.973,-99.7346 380.778,-75.1856 409,-56 425.16,-45.0143 443.938,-33.4647 458.402,-24.8171"/>
<polygon fill="midnightblue" stroke="midnightblue" points="460.4,-27.7018 467.213,-19.5885 456.827,-21.6819 460.4,-27.7018"/>
</g>
<!-- Node7 -->
<g id="node8" class="node"><title>Node7</title>
<polygon fill="none" stroke="#bfbfbf" points="170,-0.5 170,-19.5 214,-19.5 214,-0.5 170,-0.5"/>
<text text-anchor="middle" x="192" y="-7.5" font-family="Helvetica,sans-Serif" font-size="10.00">cmath</text>
</g>
<!-- Node5&#45;&gt;Node7 -->
<g id="edge7" class="edge"><title>Node5&#45;&gt;Node7</title>
<path fill="none" stroke="midnightblue" d="M311.799,-112.368C289.776,-93.7334 237.538,-49.5324 209.885,-26.1338"/>
<polygon fill="midnightblue" stroke="midnightblue" points="212.048,-23.379 202.153,-19.5914 207.527,-28.7227 212.048,-23.379"/>
</g>
<!-- Node8 -->
<g id="node9" class="node"><title>Node8</title>
<g id="a_node9"><a xlink:href="Random_8h.html" target="_top" xlink:title="Random.h">
<polygon fill="none" stroke="black" points="295,-56.5 295,-75.5 357,-75.5 357,-56.5 295,-56.5"/>
<text text-anchor="middle" x="326" y="-63.5" font-family="Helvetica,sans-Serif" font-size="10.00">Random.h</text>
</a>
</g>
</g>
<!-- Node5&#45;&gt;Node8 -->
<g id="edge8" class="edge"><title>Node5&#45;&gt;Node8</title>
<path fill="none" stroke="midnightblue" d="M322.661,-112.083C323.185,-105.006 323.936,-94.8611 324.594,-85.9865"/>
<polygon fill="midnightblue" stroke="midnightblue" points="328.103,-85.9823 325.352,-75.7511 321.123,-85.4652 328.103,-85.9823"/>
</g>
<!-- Node8&#45;&gt;Node6 -->
<g id="edge11" class="edge"><title>Node8&#45;&gt;Node6</title>
<path fill="none" stroke="midnightblue" d="M350.719,-56.4435C376.848,-47.3986 418.259,-33.064 447.576,-22.9158"/>
<polygon fill="midnightblue" stroke="midnightblue" points="449.092,-26.0951 457.397,-19.5164 446.802,-19.4801 449.092,-26.0951"/>
</g>
<!-- Node8&#45;&gt;Node7 -->
<g id="edge9" class="edge"><title>Node8&#45;&gt;Node7</title>
<path fill="none" stroke="midnightblue" d="M304.767,-56.4435C282.616,-47.5171 247.681,-33.4387 222.564,-23.3168"/>
<polygon fill="midnightblue" stroke="midnightblue" points="223.717,-20.0079 213.133,-19.5164 221.1,-26.5006 223.717,-20.0079"/>
</g>
<!-- Node9 -->
<g id="node10" class="node"><title>Node9</title>
<polygon fill="none" stroke="#bfbfbf" points="713.5,-0.5 713.5,-19.5 758.5,-19.5 758.5,-0.5 713.5,-0.5"/>
<text text-anchor="middle" x="736" y="-7.5" font-family="Helvetica,sans-Serif" font-size="10.00">cstdlib</text>
</g>
<!-- Node8&#45;&gt;Node9 -->
<g id="edge10" class="edge"><title>Node8&#45;&gt;Node9</title>
<path fill="none" stroke="midnightblue" d="M357.153,-60.8969C432.828,-50.9299 625.789,-25.5156 703.167,-15.3243"/>
<polygon fill="midnightblue" stroke="midnightblue" points="703.837,-18.7664 713.295,-13.9905 702.923,-11.8263 703.837,-18.7664"/>
</g>
<!-- Node10 -->
<g id="node11" class="node"><title>Node10</title>
<polygon fill="none" stroke="#bfbfbf" points="300,-0.5 300,-19.5 352,-19.5 352,-0.5 300,-0.5"/>
<text text-anchor="middle" x="326" y="-7.5" font-family="Helvetica,sans-Serif" font-size="10.00">sstream</text>
</g>
<!-- Node8&#45;&gt;Node10 -->
<g id="edge12" class="edge"><title>Node8&#45;&gt;Node10</title>
<path fill="none" stroke="midnightblue" d="M326,-56.083C326,-49.0059 326,-38.8611 326,-29.9865"/>
<polygon fill="midnightblue" stroke="midnightblue" points="329.5,-29.751 326,-19.7511 322.5,-29.7511 329.5,-29.751"/>
</g>
<!-- Node11 -->
<g id="node12" class="node"><title>Node11</title>
<polygon fill="none" stroke="#bfbfbf" points="370,-0.5 370,-19.5 420,-19.5 420,-0.5 370,-0.5"/>
<text text-anchor="middle" x="395" y="-7.5" font-family="Helvetica,sans-Serif" font-size="10.00">iomanip</text>
</g>
<!-- Node8&#45;&gt;Node11 -->
<g id="edge13" class="edge"><title>Node8&#45;&gt;Node11</title>
<path fill="none" stroke="midnightblue" d="M337.086,-56.324C347.486,-48.1849 363.261,-35.8395 375.722,-26.0874"/>
<polygon fill="midnightblue" stroke="midnightblue" points="377.994,-28.7533 383.712,-19.8339 373.68,-23.2407 377.994,-28.7533"/>
</g>
<!-- Node12 -->
<g id="node13" class="node"><title>Node12</title>
<polygon fill="none" stroke="#bfbfbf" points="232,-0.5 232,-19.5 282,-19.5 282,-0.5 232,-0.5"/>
<text text-anchor="middle" x="257" y="-7.5" font-family="Helvetica,sans-Serif" font-size="10.00">fstream</text>
</g>
<!-- Node8&#45;&gt;Node12 -->
<g id="edge14" class="edge"><title>Node8&#45;&gt;Node12</title>
<path fill="none" stroke="midnightblue" d="M314.914,-56.324C304.514,-48.1849 288.739,-35.8395 276.278,-26.0874"/>
<polygon fill="midnightblue" stroke="midnightblue" points="278.32,-23.2407 268.288,-19.8339 274.006,-28.7533 278.32,-23.2407"/>
</g>
<!-- Node13&#45;&gt;Node6 -->
<g id="edge26" class="edge"><title>Node13&#45;&gt;Node6</title>
<path fill="none" stroke="midnightblue" d="M492.815,-168.488C474.461,-161.801 452.984,-150.45 442,-132 435.203,-120.583 435.35,-85.5933 447,-56 451.198,-45.3372 458.758,-35.1147 465.78,-27.1152"/>
<polygon fill="midnightblue" stroke="midnightblue" points="468.475,-29.3571 472.74,-19.6584 463.358,-24.5808 468.475,-29.3571"/>
</g>
<!-- Node14 -->
<g id="node15" class="node"><title>Node14</title>
<g id="a_node15"><a xlink:href="Chrono_8h.html" target="_top" xlink:title="Chrono.h">
<polygon fill="none" stroke="black" points="723,-112.5 723,-131.5 779,-131.5 779,-112.5 723,-112.5"/>
<text text-anchor="middle" x="751" y="-119.5" font-family="Helvetica,sans-Serif" font-size="10.00">Chrono.h</text>
</a>
</g>
</g>
<!-- Node13&#45;&gt;Node14 -->
<g id="edge16" class="edge"><title>Node13&#45;&gt;Node14</title>
<path fill="none" stroke="midnightblue" d="M560.81,-168.444C602.32,-158.525 670.447,-142.247 712.905,-132.102"/>
<polygon fill="midnightblue" stroke="midnightblue" points="713.942,-135.453 722.854,-129.725 712.315,-128.645 713.942,-135.453"/>
</g>
<!-- Node17 -->
<g id="node18" class="node"><title>Node17</title>
<g id="a_node18"><a xlink:href="StateSpace_8h.html" target="_top" xlink:title="StateSpace.h">
<polygon fill="none" stroke="black" points="451,-112.5 451,-131.5 527,-131.5 527,-112.5 451,-112.5"/>
<text text-anchor="middle" x="489" y="-119.5" font-family="Helvetica,sans-Serif" font-size="10.00">StateSpace.h</text>
</a>
</g>
</g>
<!-- Node13&#45;&gt;Node17 -->
<g id="edge21" class="edge"><title>Node13&#45;&gt;Node17</title>
<path fill="none" stroke="midnightblue" d="M519.055,-168.083C514.023,-160.534 506.663,-149.495 500.487,-140.23"/>
<polygon fill="midnightblue" stroke="midnightblue" points="503.293,-138.13 494.834,-131.751 497.469,-142.013 503.293,-138.13"/>
</g>
<!-- Node20 -->
<g id="node21" class="node"><title>Node20</title>
<polygon fill="none" stroke="#bfbfbf" points="1088.5,-0.5 1088.5,-19.5 1123.5,-19.5 1123.5,-0.5 1088.5,-0.5"/>
<text text-anchor="middle" x="1106" y="-7.5" font-family="Helvetica,sans-Serif" font-size="10.00">map</text>
</g>
<!-- Node13&#45;&gt;Node20 -->
<g id="edge27" class="edge"><title>Node13&#45;&gt;Node20</title>
<path fill="none" stroke="midnightblue" d="M569.751,-169.275C572.877,-168.818 575.983,-168.387 579,-168 667.303,-156.674 896.843,-168.597 978,-132 1029.84,-108.621 1073.91,-55.3516 1094.15,-27.9591"/>
<polygon fill="midnightblue" stroke="midnightblue" points="1097.06,-29.9007 1100.07,-19.742 1091.38,-25.8072 1097.06,-29.9007"/>
</g>
<!-- Node14&#45;&gt;Node6 -->
<g id="edge19" class="edge"><title>Node14&#45;&gt;Node6</title>
<path fill="none" stroke="midnightblue" d="M722.621,-118.213C668.977,-112.495 555.185,-98.0883 523,-76 506.535,-64.7004 495.308,-44.3951 488.822,-29.477"/>
<polygon fill="midnightblue" stroke="midnightblue" points="491.901,-27.751 484.93,-19.7723 485.404,-30.3565 491.901,-27.751"/>
</g>
<!-- Node14&#45;&gt;Node9 -->
<g id="edge20" class="edge"><title>Node14&#45;&gt;Node9</title>
<path fill="none" stroke="midnightblue" d="M777.459,-112.476C806.211,-101.709 846.046,-81.472 830,-56 816.596,-34.7227 790.039,-23.2849 768.562,-17.2741"/>
<polygon fill="midnightblue" stroke="midnightblue" points="769.365,-13.8672 758.812,-14.8092 767.649,-20.6536 769.365,-13.8672"/>
</g>
<!-- Node15 -->
<g id="node16" class="node"><title>Node15</title>
<polygon fill="none" stroke="#bfbfbf" points="699.5,-56.5 699.5,-75.5 740.5,-75.5 740.5,-56.5 699.5,-56.5"/>
<text text-anchor="middle" x="720" y="-63.5" font-family="Helvetica,sans-Serif" font-size="10.00">ctime</text>
</g>
<!-- Node14&#45;&gt;Node15 -->
<g id="edge17" class="edge"><title>Node14&#45;&gt;Node15</title>
<path fill="none" stroke="midnightblue" d="M745.881,-112.083C741.592,-104.613 735.342,-93.7244 730.058,-84.5199"/>
<polygon fill="midnightblue" stroke="midnightblue" points="733.038,-82.6811 725.024,-75.7511 726.967,-86.1662 733.038,-82.6811"/>
</g>
<!-- Node16 -->
<g id="node17" class="node"><title>Node16</title>
<polygon fill="none" stroke="#bfbfbf" points="759,-56.5 759,-75.5 821,-75.5 821,-56.5 759,-56.5"/>
<text text-anchor="middle" x="790" y="-63.5" font-family="Helvetica,sans-Serif" font-size="10.00">sys/time.h</text>
</g>
<!-- Node14&#45;&gt;Node16 -->
<g id="edge18" class="edge"><title>Node14&#45;&gt;Node16</title>
<path fill="none" stroke="midnightblue" d="M757.44,-112.083C762.949,-104.455 771.031,-93.2645 777.765,-83.9408"/>
<polygon fill="midnightblue" stroke="midnightblue" points="780.662,-85.9071 783.68,-75.7511 774.987,-81.8087 780.662,-85.9071"/>
</g>
<!-- Node18 -->
<g id="node19" class="node"><title>Node18</title>
<g id="a_node19"><a xlink:href="BiologicalSequences_8h.html" target="_top" xlink:title="BiologicalSequences.h">
<polygon fill="none" stroke="black" points="565,-56.5 565,-75.5 681,-75.5 681,-56.5 565,-56.5"/>
<text text-anchor="middle" x="623" y="-63.5" font-family="Helvetica,sans-Serif" font-size="10.00">BiologicalSequences.h</text>
</a>
</g>
</g>
<!-- Node17&#45;&gt;Node18 -->
<g id="edge22" class="edge"><title>Node17&#45;&gt;Node18</title>
<path fill="none" stroke="midnightblue" d="M510.233,-112.444C532.384,-103.517 567.319,-89.4387 592.436,-79.3168"/>
<polygon fill="midnightblue" stroke="midnightblue" points="593.9,-82.5006 601.867,-75.5164 591.283,-76.0079 593.9,-82.5006"/>
</g>
<!-- Node18&#45;&gt;Node6 -->
<g id="edge24" class="edge"><title>Node18&#45;&gt;Node6</title>
<path fill="none" stroke="midnightblue" d="M600.658,-56.4435C577.247,-47.4776 540.264,-33.314 513.81,-23.1827"/>
<polygon fill="midnightblue" stroke="midnightblue" points="514.828,-19.8245 504.237,-19.5164 512.324,-26.3615 514.828,-19.8245"/>
</g>
<!-- Node18&#45;&gt;Node9 -->
<g id="edge23" class="edge"><title>Node18&#45;&gt;Node9</title>
<path fill="none" stroke="midnightblue" d="M640.905,-56.4435C659.254,-47.6751 688.005,-33.9355 709.094,-23.8579"/>
<polygon fill="midnightblue" stroke="midnightblue" points="710.665,-26.9862 718.179,-19.5164 707.647,-20.6703 710.665,-26.9862"/>
</g>
<!-- Node19 -->
<g id="node20" class="node"><title>Node19</title>
<polygon fill="none" stroke="#bfbfbf" points="935.5,-0.5 935.5,-19.5 976.5,-19.5 976.5,-0.5 935.5,-0.5"/>
<text text-anchor="middle" x="956" y="-7.5" font-family="Helvetica,sans-Serif" font-size="10.00">string</text>
</g>
<!-- Node18&#45;&gt;Node19 -->
<g id="edge25" class="edge"><title>Node18&#45;&gt;Node19</title>
<path fill="none" stroke="midnightblue" d="M675.765,-56.4435C746.059,-45.0445 868.16,-25.2443 925.105,-16.01"/>
<polygon fill="midnightblue" stroke="midnightblue" points="925.961,-19.417 935.272,-14.3614 924.84,-12.5073 925.961,-19.417"/>
</g>
<!-- Node21&#45;&gt;Node7 -->
<g id="edge29" class="edge"><title>Node21&#45;&gt;Node7</title>
<path fill="none" stroke="midnightblue" d="M205.451,-224.297C203.391,-191.633 196.091,-75.8661 193.196,-29.9573"/>
<polygon fill="midnightblue" stroke="midnightblue" points="196.683,-29.6436 192.56,-19.8837 189.697,-30.0842 196.683,-29.6436"/>
</g>
<!-- Node21&#45;&gt;Node13 -->
<g id="edge30" class="edge"><title>Node21&#45;&gt;Node13</title>
<path fill="none" stroke="midnightblue" d="M256.546,-224.444C314.839,-214.576 410.322,-198.413 470.311,-188.258"/>
<polygon fill="midnightblue" stroke="midnightblue" points="471.076,-191.678 480.352,-186.558 469.908,-184.776 471.076,-191.678"/>
</g>
<!-- Node22&#45;&gt;Node7 -->
<g id="edge32" class="edge"><title>Node22&#45;&gt;Node7</title>
<path fill="none" stroke="midnightblue" d="M64.8495,-352.878C50.8411,-344.119 30.5047,-329.264 19,-311 0.442568,-281.54 0,-269.817 0,-235 0,-235 0,-235 0,-121 0,-48.2491 105.067,-22.9379 159.755,-14.6908"/>
<polygon fill="midnightblue" stroke="midnightblue" points="160.557,-18.1128 169.975,-13.2599 159.586,-11.1804 160.557,-18.1128"/>
</g>
<!-- Node23 -->
<g id="node24" class="node"><title>Node23</title>
<g id="a_node24"><a xlink:href="DPProfileProcess_8h.html" target="_top" xlink:title="DPProfileProcess.h">
<polygon fill="none" stroke="black" points="28.5,-286 28.5,-305 131.5,-305 131.5,-286 28.5,-286"/>
<text text-anchor="middle" x="80" y="-293" font-family="Helvetica,sans-Serif" font-size="10.00">DPProfileProcess.h</text>
</a>
</g>
</g>
<!-- Node22&#45;&gt;Node23 -->
<g id="edge33" class="edge"><title>Node22&#45;&gt;Node23</title>
<path fill="none" stroke="midnightblue" d="M80,-352.734C80,-343.183 80,-327.618 80,-315.283"/>
<polygon fill="midnightblue" stroke="midnightblue" points="83.5001,-315.127 80,-305.127 76.5001,-315.127 83.5001,-315.127"/>
</g>
<!-- Node23&#45;&gt;Node7 -->
<g id="edge34" class="edge"><title>Node23&#45;&gt;Node7</title>
<path fill="none" stroke="midnightblue" d="M82.2797,-285.878C87.1233,-266.776 98,-219.385 98,-179 98,-179 98,-179 98,-121 98,-77.9325 140.16,-43.2143 168.01,-24.9784"/>
<polygon fill="midnightblue" stroke="midnightblue" points="169.88,-27.9369 176.478,-19.6471 166.151,-22.0132 169.88,-27.9369"/>
</g>
<!-- Node23&#45;&gt;Node21 -->
<g id="edge35" class="edge"><title>Node23&#45;&gt;Node21</title>
<path fill="none" stroke="midnightblue" d="M98.0527,-285.975C119.198,-275.99 154.44,-259.348 178.878,-247.807"/>
<polygon fill="midnightblue" stroke="midnightblue" points="180.433,-250.944 187.981,-243.509 177.444,-244.614 180.433,-250.944"/>
</g>
<!-- Node25 -->
<g id="node26" class="node"><title>Node25</title>
<g id="a_node26"><a xlink:href="CodonSubMatrix_8h.html" target="_top" xlink:title="CodonSubMatrix.h">
<polygon fill="none" stroke="black" points="604,-224.5 604,-243.5 702,-243.5 702,-224.5 604,-224.5"/>
<text text-anchor="middle" x="653" y="-231.5" font-family="Helvetica,sans-Serif" font-size="10.00">CodonSubMatrix.h</text>
</a>
</g>
</g>
<!-- Node24&#45;&gt;Node25 -->
<g id="edge37" class="edge"><title>Node24&#45;&gt;Node25</title>
<path fill="none" stroke="midnightblue" d="M636.795,-352.764C640.897,-342.853 647.219,-326.102 650,-311 653.544,-291.752 653.99,-269.316 653.737,-253.835"/>
<polygon fill="midnightblue" stroke="midnightblue" points="657.227,-253.419 653.447,-243.522 650.23,-253.616 657.227,-253.419"/>
</g>
<!-- Node27 -->
<g id="node28" class="node"><title>Node27</title>
<g id="a_node28"><a xlink:href="CodonSequenceAlignment_8h.html" target="_top" xlink:title="CodonSequenceAlignment.h">
<polygon fill="none" stroke="black" points="446,-224.5 446,-243.5 586,-243.5 586,-224.5 446,-224.5"/>
<text text-anchor="middle" x="516" y="-231.5" font-family="Helvetica,sans-Serif" font-size="10.00">CodonSequenceAlignment.h</text>
</a>
</g>
</g>
<!-- Node24&#45;&gt;Node27 -->
<g id="edge42" class="edge"><title>Node24&#45;&gt;Node27</title>
<path fill="none" stroke="midnightblue" d="M633.735,-352.826C634.626,-336.67 634.252,-301.653 617,-280 604.267,-264.019 584.661,-253.547 566.099,-246.767"/>
<polygon fill="midnightblue" stroke="midnightblue" points="567.123,-243.419 556.529,-243.548 564.891,-250.054 567.123,-243.419"/>
</g>
<!-- Node30 -->
<g id="node31" class="node"><title>Node30</title>
<g id="a_node31"><a xlink:href="GeneralPathSuffStatMatrixProfileProcess_8h.html" target="_top" xlink:title="GeneralPathSuffStatMatrix\lProfileProcess.h">
<polygon fill="none" stroke="black" points="316,-280.5 316,-310.5 450,-310.5 450,-280.5 316,-280.5"/>
<text text-anchor="start" x="324" y="-298.5" font-family="Helvetica,sans-Serif" font-size="10.00">GeneralPathSuffStatMatrix</text>
<text text-anchor="middle" x="383" y="-287.5" font-family="Helvetica,sans-Serif" font-size="10.00">ProfileProcess.h</text>
</a>
</g>
</g>
<!-- Node24&#45;&gt;Node30 -->
<g id="edge52" class="edge"><title>Node24&#45;&gt;Node30</title>
<path fill="none" stroke="midnightblue" d="M600.06,-352.936C561.234,-342.841 495.819,-325.833 446.929,-313.122"/>
<polygon fill="midnightblue" stroke="midnightblue" points="447.633,-309.688 437.074,-310.559 445.871,-316.463 447.633,-309.688"/>
</g>
<!-- Node25&#45;&gt;Node5 -->
<g id="edge41" class="edge"><title>Node25&#45;&gt;Node5</title>
<path fill="none" stroke="midnightblue" d="M603.959,-225.344C600.928,-224.885 597.923,-224.434 595,-224 538.609,-215.629 384.099,-225.316 341,-188 327.826,-176.594 323.538,-156.606 322.262,-141.798"/>
<polygon fill="midnightblue" stroke="midnightblue" points="325.753,-141.531 321.777,-131.711 318.762,-141.868 325.753,-141.531"/>
</g>
<!-- Node26 -->
<g id="node27" class="node"><title>Node26</title>
<g id="a_node27"><a xlink:href="CodonStateSpace_8h.html" target="_top" xlink:title="CodonStateSpace.h">
<polygon fill="none" stroke="black" points="588,-168.5 588,-187.5 692,-187.5 692,-168.5 588,-168.5"/>
<text text-anchor="middle" x="640" y="-175.5" font-family="Helvetica,sans-Serif" font-size="10.00">CodonStateSpace.h</text>
</a>
</g>
</g>
<!-- Node25&#45;&gt;Node26 -->
<g id="edge38" class="edge"><title>Node25&#45;&gt;Node26</title>
<path fill="none" stroke="midnightblue" d="M650.853,-224.083C649.131,-216.927 646.653,-206.635 644.5,-197.691"/>
<polygon fill="midnightblue" stroke="midnightblue" points="647.85,-196.654 642.107,-187.751 641.045,-198.293 647.85,-196.654"/>
</g>
<!-- Node26&#45;&gt;Node17 -->
<g id="edge39" class="edge"><title>Node26&#45;&gt;Node17</title>
<path fill="none" stroke="midnightblue" d="M616.074,-168.444C590.781,-159.399 550.698,-145.064 522.32,-134.916"/>
<polygon fill="midnightblue" stroke="midnightblue" points="523.409,-131.588 512.814,-131.516 521.052,-138.179 523.409,-131.588"/>
</g>
<!-- Node26&#45;&gt;Node20 -->
<g id="edge40" class="edge"><title>Node26&#45;&gt;Node20</title>
<path fill="none" stroke="midnightblue" d="M692.217,-169.097C695.187,-168.709 698.13,-168.341 701,-168 745.313,-162.741 1070.22,-164.309 1101,-132 1127.01,-104.694 1119.03,-56.2481 1111.92,-29.6929"/>
<polygon fill="midnightblue" stroke="midnightblue" points="1115.18,-28.3975 1109.02,-19.7778 1108.46,-30.3579 1115.18,-28.3975"/>
</g>
<!-- Node27&#45;&gt;Node7 -->
<g id="edge51" class="edge"><title>Node27&#45;&gt;Node7</title>
<path fill="none" stroke="midnightblue" d="M463.534,-224.47C415.301,-215.946 347.917,-202.112 325,-188 260.954,-148.559 217.11,-65.9953 200.004,-29.2787"/>
<polygon fill="midnightblue" stroke="midnightblue" points="203.04,-27.4975 195.727,-19.8314 196.663,-30.3848 203.04,-27.4975"/>
</g>
<!-- Node27&#45;&gt;Node26 -->
<g id="edge50" class="edge"><title>Node27&#45;&gt;Node26</title>
<path fill="none" stroke="midnightblue" d="M535.648,-224.444C555.965,-215.596 587.903,-201.687 611.098,-191.586"/>
<polygon fill="midnightblue" stroke="midnightblue" points="612.673,-194.718 620.444,-187.516 609.878,-188.3 612.673,-194.718"/>
</g>
<!-- Node28 -->
<g id="node29" class="node"><title>Node28</title>
<g id="a_node29"><a xlink:href="SequenceAlignment_8h.html" target="_top" xlink:title="SequenceAlignment.h">
<polygon fill="none" stroke="black" points="350,-168.5 350,-187.5 462,-187.5 462,-168.5 350,-168.5"/>
<text text-anchor="middle" x="406" y="-175.5" font-family="Helvetica,sans-Serif" font-size="10.00">SequenceAlignment.h</text>
</a>
</g>
</g>
<!-- Node27&#45;&gt;Node28 -->
<g id="edge43" class="edge"><title>Node27&#45;&gt;Node28</title>
<path fill="none" stroke="midnightblue" d="M498.327,-224.324C480.606,-215.625 453.097,-202.12 432.712,-192.113"/>
<polygon fill="midnightblue" stroke="midnightblue" points="434.149,-188.919 423.63,-187.655 431.064,-195.203 434.149,-188.919"/>
</g>
<!-- Node28&#45;&gt;Node8 -->
<g id="edge49" class="edge"><title>Node28&#45;&gt;Node8</title>
<path fill="none" stroke="midnightblue" d="M401.089,-168.314C393.767,-155.586 379.312,-131.286 365,-112 357.607,-102.038 348.576,-91.5272 341.066,-83.1716"/>
<polygon fill="midnightblue" stroke="midnightblue" points="343.51,-80.6572 334.181,-75.6344 338.342,-85.3783 343.51,-80.6572"/>
</g>
<!-- Node28&#45;&gt;Node17 -->
<g id="edge44" class="edge"><title>Node28&#45;&gt;Node17</title>
<path fill="none" stroke="midnightblue" d="M419.335,-168.324C432.162,-159.979 451.785,-147.212 466.94,-137.352"/>
<polygon fill="midnightblue" stroke="midnightblue" points="469.224,-140.042 475.698,-131.655 465.407,-134.174 469.224,-140.042"/>
</g>
<!-- Node29 -->
<g id="node30" class="node"><title>Node29</title>
<g id="a_node30"><a xlink:href="TaxonSet_8h.html" target="_top" xlink:title="TaxonSet.h">
<polygon fill="none" stroke="black" points="953.5,-56.5 953.5,-75.5 1020.5,-75.5 1020.5,-56.5 953.5,-56.5"/>
<text text-anchor="middle" x="987" y="-63.5" font-family="Helvetica,sans-Serif" font-size="10.00">TaxonSet.h</text>
</a>
</g>
</g>
<!-- Node28&#45;&gt;Node29 -->
<g id="edge45" class="edge"><title>Node28&#45;&gt;Node29</title>
<path fill="none" stroke="midnightblue" d="M462.343,-168.976C465.269,-168.629 468.168,-168.301 471,-168 524.735,-162.291 911.399,-162.509 956,-132 971.611,-121.321 979.597,-100.565 983.519,-85.3704"/>
<polygon fill="midnightblue" stroke="midnightblue" points="986.956,-86.034 985.707,-75.5132 980.123,-84.5171 986.956,-86.034"/>
</g>
<!-- Node29&#45;&gt;Node6 -->
<g id="edge48" class="edge"><title>Node29&#45;&gt;Node6</title>
<path fill="none" stroke="midnightblue" d="M953.474,-61.4151C862.915,-51.7315 613.835,-25.0973 519.171,-14.9747"/>
<polygon fill="midnightblue" stroke="midnightblue" points="519.507,-11.4908 509.192,-13.9076 518.763,-18.4511 519.507,-11.4908"/>
</g>
<!-- Node29&#45;&gt;Node19 -->
<g id="edge47" class="edge"><title>Node29&#45;&gt;Node19</title>
<path fill="none" stroke="midnightblue" d="M981.881,-56.083C977.592,-48.6127 971.342,-37.7244 966.058,-28.5199"/>
<polygon fill="midnightblue" stroke="midnightblue" points="969.038,-26.6811 961.024,-19.7511 962.967,-30.1662 969.038,-26.6811"/>
</g>
<!-- Node29&#45;&gt;Node20 -->
<g id="edge46" class="edge"><title>Node29&#45;&gt;Node20</title>
<path fill="none" stroke="midnightblue" d="M1005.86,-56.4435C1025.61,-47.4802 1056.81,-33.3221 1079.13,-23.1914"/>
<polygon fill="midnightblue" stroke="midnightblue" points="1080.74,-26.3078 1088.4,-18.9883 1077.84,-19.9334 1080.74,-26.3078"/>
</g>
<!-- Node30&#45;&gt;Node4 -->
<g id="edge53" class="edge"><title>Node30&#45;&gt;Node4</title>
<path fill="none" stroke="midnightblue" d="M379.919,-280.399C378.166,-272.377 375.95,-262.233 374.057,-253.569"/>
<polygon fill="midnightblue" stroke="midnightblue" points="377.446,-252.68 371.892,-243.658 370.607,-254.174 377.446,-252.68"/>
</g>
<!-- Node31&#45;&gt;Node3 -->
<g id="edge56" class="edge"><title>Node31&#45;&gt;Node3</title>
<path fill="none" stroke="midnightblue" d="M300.735,-347.396C284.301,-336.496 261.66,-321.479 245.234,-310.584"/>
<polygon fill="midnightblue" stroke="midnightblue" points="247.094,-307.618 236.826,-305.007 243.225,-313.451 247.094,-307.618"/>
</g>
<!-- Node31&#45;&gt;Node30 -->
<g id="edge55" class="edge"><title>Node31&#45;&gt;Node30</title>
<path fill="none" stroke="midnightblue" d="M335.236,-347.396C343.31,-338.793 353.789,-327.626 362.875,-317.945"/>
<polygon fill="midnightblue" stroke="midnightblue" points="365.499,-320.264 369.79,-310.577 360.394,-315.473 365.499,-320.264"/>
</g>
<!-- Node33 -->
<g id="node34" class="node"><title>Node33</title>
<g id="a_node34"><a xlink:href="RateProcess_8h.html" target="_top" xlink:title="RateProcess.h">
<polygon fill="none" stroke="black" points="710,-168.5 710,-187.5 792,-187.5 792,-168.5 710,-168.5"/>
<text text-anchor="middle" x="751" y="-175.5" font-family="Helvetica,sans-Serif" font-size="10.00">RateProcess.h</text>
</a>
</g>
</g>
<!-- Node32&#45;&gt;Node33 -->
<g id="edge58" class="edge"><title>Node32&#45;&gt;Node33</title>
<path fill="none" stroke="midnightblue" d="M700.644,-414.281C705.193,-405.391 712.008,-391.083 716,-378 735.684,-313.492 745.543,-233.632 749.232,-197.867"/>
<polygon fill="midnightblue" stroke="midnightblue" points="752.755,-197.809 750.252,-187.514 745.788,-197.122 752.755,-197.809"/>
</g>
<!-- Node33&#45;&gt;Node6 -->
<g id="edge59" class="edge"><title>Node33&#45;&gt;Node6</title>
<path fill="none" stroke="midnightblue" d="M720.856,-168.428C661.312,-150.938 531.705,-109.926 501,-76 489.546,-63.3443 484.972,-44.1367 483.159,-29.8795"/>
<polygon fill="midnightblue" stroke="midnightblue" points="486.626,-29.3609 482.219,-19.7265 479.656,-30.0069 486.626,-29.3609"/>
</g>
<!-- Node33&#45;&gt;Node14 -->
<g id="edge60" class="edge"><title>Node33&#45;&gt;Node14</title>
<path fill="none" stroke="midnightblue" d="M751,-168.083C751,-161.006 751,-150.861 751,-141.986"/>
<polygon fill="midnightblue" stroke="midnightblue" points="754.5,-141.751 751,-131.751 747.5,-141.751 754.5,-141.751"/>
</g>
<!-- Node34&#45;&gt;Node30 -->
<g id="edge78" class="edge"><title>Node34&#45;&gt;Node30</title>
<path fill="none" stroke="midnightblue" d="M454.254,-347.396C441.614,-338.367 425.02,-326.514 411.026,-316.518"/>
<polygon fill="midnightblue" stroke="midnightblue" points="412.879,-313.541 402.707,-310.577 408.81,-319.237 412.879,-313.541"/>
</g>
<!-- Node35 -->
<g id="node36" class="node"><title>Node35</title>
<g id="a_node36"><a xlink:href="MatrixSubstitutionProcess_8h.html" target="_top" xlink:title="MatrixSubstitutionProcess.h">
<polygon fill="none" stroke="black" points="468,-286 468,-305 608,-305 608,-286 468,-286"/>
<text text-anchor="middle" x="538" y="-293" font-family="Helvetica,sans-Serif" font-size="10.00">MatrixSubstitutionProcess.h</text>
</a>
</g>
</g>
<!-- Node34&#45;&gt;Node35 -->
<g id="edge62" class="edge"><title>Node34&#45;&gt;Node35</title>
<path fill="none" stroke="midnightblue" d="M487.887,-347.396C497.965,-337.161 511.616,-323.296 522.126,-312.622"/>
<polygon fill="midnightblue" stroke="midnightblue" points="524.917,-314.776 529.439,-305.195 519.929,-309.865 524.917,-314.776"/>
</g>
<!-- Node35&#45;&gt;Node4 -->
<g id="edge77" class="edge"><title>Node35&#45;&gt;Node4</title>
<path fill="none" stroke="midnightblue" d="M513.93,-285.975C484.987,-275.725 436.238,-258.459 403.598,-246.899"/>
<polygon fill="midnightblue" stroke="midnightblue" points="404.62,-243.548 394.026,-243.509 402.283,-250.147 404.62,-243.548"/>
</g>
<!-- Node36 -->
<g id="node37" class="node"><title>Node36</title>
<g id="a_node37"><a xlink:href="SubstitutionProcess_8h.html" target="_top" xlink:title="SubstitutionProcess.h">
<polygon fill="none" stroke="black" points="763.5,-224.5 763.5,-243.5 876.5,-243.5 876.5,-224.5 763.5,-224.5"/>
<text text-anchor="middle" x="820" y="-231.5" font-family="Helvetica,sans-Serif" font-size="10.00">SubstitutionProcess.h</text>
</a>
</g>
</g>
<!-- Node35&#45;&gt;Node36 -->
<g id="edge63" class="edge"><title>Node35&#45;&gt;Node36</title>
<path fill="none" stroke="midnightblue" d="M578.404,-285.975C628.871,-275.327 715.214,-257.109 769.854,-245.581"/>
<polygon fill="midnightblue" stroke="midnightblue" points="770.609,-248.998 779.671,-243.509 769.164,-242.149 770.609,-248.998"/>
</g>
<!-- Node36&#45;&gt;Node13 -->
<g id="edge65" class="edge"><title>Node36&#45;&gt;Node13</title>
<path fill="none" stroke="midnightblue" d="M773.256,-224.444C720.643,-214.813 635.268,-199.185 579.623,-188.999"/>
<polygon fill="midnightblue" stroke="midnightblue" points="580.061,-185.521 569.594,-187.163 578.8,-192.406 580.061,-185.521"/>
</g>
<!-- Node36&#45;&gt;Node14 -->
<g id="edge75" class="edge"><title>Node36&#45;&gt;Node14</title>
<path fill="none" stroke="midnightblue" d="M819.01,-224.387C817.187,-211.326 812.388,-186.116 801,-168 793.693,-156.376 782.553,-145.938 772.641,-138.048"/>
<polygon fill="midnightblue" stroke="midnightblue" points="774.463,-135.039 764.374,-131.805 770.245,-140.625 774.463,-135.039"/>
</g>
<!-- Node36&#45;&gt;Node33 -->
<g id="edge64" class="edge"><title>Node36&#45;&gt;Node33</title>
<path fill="none" stroke="midnightblue" d="M808.914,-224.324C798.514,-216.185 782.739,-203.839 770.278,-194.087"/>
<polygon fill="midnightblue" stroke="midnightblue" points="772.32,-191.241 762.288,-187.834 768.006,-196.753 772.32,-191.241"/>
</g>
<!-- Node37 -->
<g id="node38" class="node"><title>Node37</title>
<g id="a_node38"><a xlink:href="BranchSitePath_8h.html" target="_top" xlink:title="BranchSitePath.h">
<polygon fill="none" stroke="black" points="922.5,-168.5 922.5,-187.5 1015.5,-187.5 1015.5,-168.5 922.5,-168.5"/>
<text text-anchor="middle" x="969" y="-175.5" font-family="Helvetica,sans-Serif" font-size="10.00">BranchSitePath.h</text>
</a>
</g>
</g>
<!-- Node36&#45;&gt;Node37 -->
<g id="edge66" class="edge"><title>Node36&#45;&gt;Node37</title>
<path fill="none" stroke="midnightblue" d="M843.609,-224.444C868.458,-215.438 907.774,-201.189 935.754,-191.049"/>
<polygon fill="midnightblue" stroke="midnightblue" points="937.292,-194.214 945.501,-187.516 934.907,-187.633 937.292,-194.214"/>
</g>
<!-- Node39 -->
<g id="node40" class="node"><title>Node39</title>
<polygon fill="none" stroke="#bfbfbf" points="848,-168.5 848,-187.5 904,-187.5 904,-168.5 848,-168.5"/>
<text text-anchor="middle" x="876" y="-175.5" font-family="Helvetica,sans-Serif" font-size="10.00">algorithm</text>
</g>
<!-- Node36&#45;&gt;Node39 -->
<g id="edge76" class="edge"><title>Node36&#45;&gt;Node39</title>
<path fill="none" stroke="midnightblue" d="M828.997,-224.324C837.194,-216.42 849.506,-204.548 859.472,-194.938"/>
<polygon fill="midnightblue" stroke="midnightblue" points="862.07,-197.295 866.839,-187.834 857.211,-192.256 862.07,-197.295"/>
</g>
<!-- Node37&#45;&gt;Node5 -->
<g id="edge74" class="edge"><title>Node37&#45;&gt;Node5</title>
<path fill="none" stroke="midnightblue" d="M922.29,-169.194C919.15,-168.762 916.031,-168.358 913,-168 899.446,-166.398 502.215,-136.527 366.75,-126.357"/>
<polygon fill="midnightblue" stroke="midnightblue" points="366.941,-122.862 356.707,-125.603 366.417,-129.842 366.941,-122.862"/>
</g>
<!-- Node37&#45;&gt;Node19 -->
<g id="edge67" class="edge"><title>Node37&#45;&gt;Node19</title>
<path fill="none" stroke="midnightblue" d="M979.446,-168.352C1002.35,-148.304 1053.18,-97.2174 1030,-56 1020.66,-39.3938 1002.44,-28.2023 986.417,-21.1336"/>
<polygon fill="midnightblue" stroke="midnightblue" points="987.405,-17.758 976.822,-17.2535 984.781,-24.2474 987.405,-17.758"/>
</g>
<!-- Node37&#45;&gt;Node20 -->
<g id="edge68" class="edge"><title>Node37&#45;&gt;Node20</title>
<path fill="none" stroke="midnightblue" d="M1015.66,-171.054C1060.63,-164.253 1124.01,-151.476 1139,-132 1159.6,-105.233 1149.51,-88.1014 1139,-56 1135.51,-45.3397 1128.43,-35.1174 1121.71,-27.1175"/>
<polygon fill="midnightblue" stroke="midnightblue" points="1124.3,-24.7633 1115.02,-19.66 1119.1,-29.4395 1124.3,-24.7633"/>
</g>
<!-- Node38 -->
<g id="node39" class="node"><title>Node38</title>
<g id="a_node39"><a xlink:href="Tree_8h.html" target="_top" xlink:title="Tree.h">
<polygon fill="none" stroke="black" points="903,-112.5 903,-131.5 947,-131.5 947,-112.5 903,-112.5"/>
<text text-anchor="middle" x="925" y="-119.5" font-family="Helvetica,sans-Serif" font-size="10.00">Tree.h</text>
</a>
</g>
</g>
<!-- Node37&#45;&gt;Node38 -->
<g id="edge69" class="edge"><title>Node37&#45;&gt;Node38</title>
<path fill="none" stroke="midnightblue" d="M961.734,-168.083C955.455,-160.377 946.212,-149.033 938.569,-139.653"/>
<polygon fill="midnightblue" stroke="midnightblue" points="941.161,-137.293 932.131,-131.751 935.734,-141.714 941.161,-137.293"/>
</g>
<!-- Node38&#45;&gt;Node6 -->
<g id="edge72" class="edge"><title>Node38&#45;&gt;Node6</title>
<path fill="none" stroke="midnightblue" d="M902.859,-119.068C828.079,-112.436 587.769,-90.2273 556,-76 531.245,-64.9139 508.756,-42.6102 495.23,-27.2469"/>
<polygon fill="midnightblue" stroke="midnightblue" points="497.823,-24.8935 488.68,-19.541 492.489,-29.4272 497.823,-24.8935"/>
</g>
<!-- Node38&#45;&gt;Node9 -->
<g id="edge70" class="edge"><title>Node38&#45;&gt;Node9</title>
<path fill="none" stroke="midnightblue" d="M916.29,-112.464C902.244,-99.0529 873.294,-72.8423 845,-56 820.591,-41.4704 790.622,-29.4717 768.29,-21.5285"/>
<polygon fill="midnightblue" stroke="midnightblue" points="769.208,-18.1427 758.614,-18.1698 766.913,-24.7556 769.208,-18.1427"/>
</g>
<!-- Node38&#45;&gt;Node19 -->
<g id="edge71" class="edge"><title>Node38&#45;&gt;Node19</title>
<path fill="none" stroke="midnightblue" d="M927.433,-112.368C932.458,-94.5366 944.08,-53.2953 950.851,-29.2717"/>
<polygon fill="midnightblue" stroke="midnightblue" points="954.235,-30.1659 953.579,-19.5914 947.497,-28.2671 954.235,-30.1659"/>
</g>
<!-- Node38&#45;&gt;Node29 -->
<g id="edge73" class="edge"><title>Node38&#45;&gt;Node29</title>
<path fill="none" stroke="midnightblue" d="M934.961,-112.324C944.127,-104.341 957.937,-92.3128 969.028,-82.6529"/>
<polygon fill="midnightblue" stroke="midnightblue" points="971.615,-85.041 976.857,-75.8339 967.018,-79.7624 971.615,-85.041"/>
</g>
</g>
</svg>
