<?xml version="1.0" encoding="UTF-8" standalone="no"?>
<!DOCTYPE svg PUBLIC "-//W3C//DTD SVG 1.1//EN"
 "http://www.w3.org/Graphics/SVG/1.1/DTD/svg11.dtd">
<!-- Generated by graphviz version 2.38.0 (20140413.2041)
 -->
<!-- Title: ConvertPhy2Ali.cpp Pages: 1 -->
<svg width="507pt" height="252pt"
 viewBox="0.00 0.00 506.50 252.00" xmlns="http://www.w3.org/2000/svg" xmlns:xlink="http://www.w3.org/1999/xlink">
<g id="graph0" class="graph" transform="scale(1 1) rotate(0) translate(4 248)">
<title>ConvertPhy2Ali.cpp</title>
<!-- Node0 -->
<g id="node1" class="node"><title>Node0</title>
<polygon fill="#bfbfbf" stroke="black" points="121.5,-224.5 121.5,-243.5 225.5,-243.5 225.5,-224.5 121.5,-224.5"/>
<text text-anchor="middle" x="173.5" y="-231.5" font-family="Helvetica,sans-Serif" font-size="10.00">ConvertPhy2Ali.cpp</text>
</g>
<!-- Node1 -->
<g id="node2" class="node"><title>Node1</title>
<g id="a_node2"><a xlink:href="SequenceAlignment_8h.html" target="_top" xlink:title="SequenceAlignment.h">
<polygon fill="none" stroke="black" points="117.5,-168.5 117.5,-187.5 229.5,-187.5 229.5,-168.5 117.5,-168.5"/>
<text text-anchor="middle" x="173.5" y="-175.5" font-family="Helvetica,sans-Serif" font-size="10.00">SequenceAlignment.h</text>
</a>
</g>
</g>
<!-- Node0&#45;&gt;Node1 -->
<g id="edge1" class="edge"><title>Node0&#45;&gt;Node1</title>
<path fill="none" stroke="midnightblue" d="M173.5,-224.083C173.5,-217.006 173.5,-206.861 173.5,-197.986"/>
<polygon fill="midnightblue" stroke="midnightblue" points="177,-197.751 173.5,-187.751 170,-197.751 177,-197.751"/>
</g>
<!-- Node2 -->
<g id="node3" class="node"><title>Node2</title>
<g id="a_node3"><a xlink:href="StateSpace_8h.html" target="_top" xlink:title="StateSpace.h">
<polygon fill="none" stroke="black" points="135.5,-112.5 135.5,-131.5 211.5,-131.5 211.5,-112.5 135.5,-112.5"/>
<text text-anchor="middle" x="173.5" y="-119.5" font-family="Helvetica,sans-Serif" font-size="10.00">StateSpace.h</text>
</a>
</g>
</g>
<!-- Node1&#45;&gt;Node2 -->
<g id="edge2" class="edge"><title>Node1&#45;&gt;Node2</title>
<path fill="none" stroke="midnightblue" d="M173.5,-168.083C173.5,-161.006 173.5,-150.861 173.5,-141.986"/>
<polygon fill="midnightblue" stroke="midnightblue" points="177,-141.751 173.5,-131.751 170,-141.751 177,-141.751"/>
</g>
<!-- Node7 -->
<g id="node8" class="node"><title>Node7</title>
<g id="a_node8"><a xlink:href="TaxonSet_8h.html" target="_top" xlink:title="TaxonSet.h">
<polygon fill="none" stroke="black" points="30,-56.5 30,-75.5 97,-75.5 97,-56.5 30,-56.5"/>
<text text-anchor="middle" x="63.5" y="-63.5" font-family="Helvetica,sans-Serif" font-size="10.00">TaxonSet.h</text>
</a>
</g>
</g>
<!-- Node1&#45;&gt;Node7 -->
<g id="edge7" class="edge"><title>Node1&#45;&gt;Node7</title>
<path fill="none" stroke="midnightblue" d="M164.393,-168.472C154.853,-159.494 139.48,-144.901 126.5,-132 109.885,-115.486 91.2591,-96.1656 78.5975,-82.9059"/>
<polygon fill="midnightblue" stroke="midnightblue" points="80.9869,-80.3398 71.5558,-75.5123 75.918,-85.1674 80.9869,-80.3398"/>
</g>
<!-- Node9 -->
<g id="node10" class="node"><title>Node9</title>
<g id="a_node10"><a xlink:href="Random_8h.html" target="_top" xlink:title="Random.h">
<polygon fill="none" stroke="black" points="249.5,-56.5 249.5,-75.5 311.5,-75.5 311.5,-56.5 249.5,-56.5"/>
<text text-anchor="middle" x="280.5" y="-63.5" font-family="Helvetica,sans-Serif" font-size="10.00">Random.h</text>
</a>
</g>
</g>
<!-- Node1&#45;&gt;Node9 -->
<g id="edge11" class="edge"><title>Node1&#45;&gt;Node9</title>
<path fill="none" stroke="midnightblue" d="M183.029,-168.203C192.643,-159.251 207.836,-144.897 220.5,-132 236.388,-115.82 253.909,-96.6805 265.893,-83.3784"/>
<polygon fill="midnightblue" stroke="midnightblue" points="268.825,-85.3511 272.896,-75.5696 263.614,-80.6773 268.825,-85.3511"/>
</g>
<!-- Node3 -->
<g id="node4" class="node"><title>Node3</title>
<g id="a_node4"><a xlink:href="BiologicalSequences_8h.html" target="_top" xlink:title="BiologicalSequences.h">
<polygon fill="none" stroke="black" points="115.5,-56.5 115.5,-75.5 231.5,-75.5 231.5,-56.5 115.5,-56.5"/>
<text text-anchor="middle" x="173.5" y="-63.5" font-family="Helvetica,sans-Serif" font-size="10.00">BiologicalSequences.h</text>
</a>
</g>
</g>
<!-- Node2&#45;&gt;Node3 -->
<g id="edge3" class="edge"><title>Node2&#45;&gt;Node3</title>
<path fill="none" stroke="midnightblue" d="M173.5,-112.083C173.5,-105.006 173.5,-94.8611 173.5,-85.9865"/>
<polygon fill="midnightblue" stroke="midnightblue" points="177,-85.751 173.5,-75.7511 170,-85.7511 177,-85.751"/>
</g>
<!-- Node4 -->
<g id="node5" class="node"><title>Node4</title>
<polygon fill="none" stroke="#bfbfbf" points="185,-0.5 185,-19.5 230,-19.5 230,-0.5 185,-0.5"/>
<text text-anchor="middle" x="207.5" y="-7.5" font-family="Helvetica,sans-Serif" font-size="10.00">cstdlib</text>
</g>
<!-- Node3&#45;&gt;Node4 -->
<g id="edge4" class="edge"><title>Node3&#45;&gt;Node4</title>
<path fill="none" stroke="midnightblue" d="M179.114,-56.083C183.867,-48.5341 190.818,-37.4948 196.652,-28.2298"/>
<polygon fill="midnightblue" stroke="midnightblue" points="199.624,-30.0783 201.99,-19.7511 193.7,-26.3486 199.624,-30.0783"/>
</g>
<!-- Node5 -->
<g id="node6" class="node"><title>Node5</title>
<polygon fill="none" stroke="#bfbfbf" points="112.5,-0.5 112.5,-19.5 166.5,-19.5 166.5,-0.5 112.5,-0.5"/>
<text text-anchor="middle" x="139.5" y="-7.5" font-family="Helvetica,sans-Serif" font-size="10.00">iostream</text>
</g>
<!-- Node3&#45;&gt;Node5 -->
<g id="edge5" class="edge"><title>Node3&#45;&gt;Node5</title>
<path fill="none" stroke="midnightblue" d="M167.886,-56.083C163.133,-48.5341 156.182,-37.4948 150.348,-28.2298"/>
<polygon fill="midnightblue" stroke="midnightblue" points="153.3,-26.3486 145.01,-19.7511 147.376,-30.0783 153.3,-26.3486"/>
</g>
<!-- Node6 -->
<g id="node7" class="node"><title>Node6</title>
<polygon fill="none" stroke="#bfbfbf" points="53,-0.5 53,-19.5 94,-19.5 94,-0.5 53,-0.5"/>
<text text-anchor="middle" x="73.5" y="-7.5" font-family="Helvetica,sans-Serif" font-size="10.00">string</text>
</g>
<!-- Node3&#45;&gt;Node6 -->
<g id="edge6" class="edge"><title>Node3&#45;&gt;Node6</title>
<path fill="none" stroke="midnightblue" d="M157.433,-56.324C141.542,-47.7428 116.993,-34.486 98.5415,-24.5224"/>
<polygon fill="midnightblue" stroke="midnightblue" points="99.989,-21.3264 89.5269,-19.6545 96.6629,-27.4857 99.989,-21.3264"/>
</g>
<!-- Node7&#45;&gt;Node5 -->
<g id="edge10" class="edge"><title>Node7&#45;&gt;Node5</title>
<path fill="none" stroke="midnightblue" d="M75.7107,-56.324C87.2759,-48.1066 104.875,-35.6017 118.661,-25.8069"/>
<polygon fill="midnightblue" stroke="midnightblue" points="120.943,-28.4791 127.067,-19.8339 116.888,-22.7729 120.943,-28.4791"/>
</g>
<!-- Node7&#45;&gt;Node6 -->
<g id="edge9" class="edge"><title>Node7&#45;&gt;Node6</title>
<path fill="none" stroke="midnightblue" d="M65.1513,-56.083C66.4764,-48.9272 68.3824,-38.6353 70.0387,-29.6911"/>
<polygon fill="midnightblue" stroke="midnightblue" points="73.4999,-30.2212 71.8794,-19.7511 66.617,-28.9466 73.4999,-30.2212"/>
</g>
<!-- Node8 -->
<g id="node9" class="node"><title>Node8</title>
<polygon fill="none" stroke="#bfbfbf" points="0,-0.5 0,-19.5 35,-19.5 35,-0.5 0,-0.5"/>
<text text-anchor="middle" x="17.5" y="-7.5" font-family="Helvetica,sans-Serif" font-size="10.00">map</text>
</g>
<!-- Node7&#45;&gt;Node8 -->
<g id="edge8" class="edge"><title>Node7&#45;&gt;Node8</title>
<path fill="none" stroke="midnightblue" d="M55.904,-56.083C49.2725,-48.2982 39.479,-36.8015 31.4419,-27.3665"/>
<polygon fill="midnightblue" stroke="midnightblue" points="34.1037,-25.0939 24.9546,-19.7511 28.775,-29.6332 34.1037,-25.0939"/>
</g>
<!-- Node9&#45;&gt;Node4 -->
<g id="edge13" class="edge"><title>Node9&#45;&gt;Node4</title>
<path fill="none" stroke="midnightblue" d="M268.771,-56.324C257.663,-48.1066 240.758,-35.6017 227.517,-25.8069"/>
<polygon fill="midnightblue" stroke="midnightblue" points="229.563,-22.9671 219.442,-19.8339 225.4,-28.5948 229.563,-22.9671"/>
</g>
<!-- Node9&#45;&gt;Node5 -->
<g id="edge14" class="edge"><title>Node9&#45;&gt;Node5</title>
<path fill="none" stroke="midnightblue" d="M258.158,-56.4435C234.747,-47.4776 197.764,-33.314 171.31,-23.1827"/>
<polygon fill="midnightblue" stroke="midnightblue" points="172.328,-19.8245 161.737,-19.5164 169.824,-26.3615 172.328,-19.8245"/>
</g>
<!-- Node10 -->
<g id="node11" class="node"><title>Node10</title>
<polygon fill="none" stroke="#bfbfbf" points="248.5,-0.5 248.5,-19.5 292.5,-19.5 292.5,-0.5 248.5,-0.5"/>
<text text-anchor="middle" x="270.5" y="-7.5" font-family="Helvetica,sans-Serif" font-size="10.00">cmath</text>
</g>
<!-- Node9&#45;&gt;Node10 -->
<g id="edge12" class="edge"><title>Node9&#45;&gt;Node10</title>
<path fill="none" stroke="midnightblue" d="M278.849,-56.083C277.524,-48.9272 275.618,-38.6353 273.961,-29.6911"/>
<polygon fill="midnightblue" stroke="midnightblue" points="277.383,-28.9466 272.121,-19.7511 270.5,-30.2212 277.383,-28.9466"/>
</g>
<!-- Node11 -->
<g id="node12" class="node"><title>Node11</title>
<polygon fill="none" stroke="#bfbfbf" points="310.5,-0.5 310.5,-19.5 362.5,-19.5 362.5,-0.5 310.5,-0.5"/>
<text text-anchor="middle" x="336.5" y="-7.5" font-family="Helvetica,sans-Serif" font-size="10.00">sstream</text>
</g>
<!-- Node9&#45;&gt;Node11 -->
<g id="edge15" class="edge"><title>Node9&#45;&gt;Node11</title>
<path fill="none" stroke="midnightblue" d="M289.497,-56.324C297.694,-48.4196 310.006,-36.5482 319.972,-26.9377"/>
<polygon fill="midnightblue" stroke="midnightblue" points="322.57,-29.2947 327.339,-19.8339 317.711,-24.2558 322.57,-29.2947"/>
</g>
<!-- Node12 -->
<g id="node13" class="node"><title>Node12</title>
<polygon fill="none" stroke="#bfbfbf" points="380.5,-0.5 380.5,-19.5 430.5,-19.5 430.5,-0.5 380.5,-0.5"/>
<text text-anchor="middle" x="405.5" y="-7.5" font-family="Helvetica,sans-Serif" font-size="10.00">iomanip</text>
</g>
<!-- Node9&#45;&gt;Node12 -->
<g id="edge16" class="edge"><title>Node9&#45;&gt;Node12</title>
<path fill="none" stroke="midnightblue" d="M300.307,-56.4435C320.787,-47.5961 352.983,-33.6875 376.365,-23.5865"/>
<polygon fill="midnightblue" stroke="midnightblue" points="377.994,-26.6953 385.786,-19.5164 375.218,-20.2692 377.994,-26.6953"/>
</g>
<!-- Node13 -->
<g id="node14" class="node"><title>Node13</title>
<polygon fill="none" stroke="#bfbfbf" points="448.5,-0.5 448.5,-19.5 498.5,-19.5 498.5,-0.5 448.5,-0.5"/>
<text text-anchor="middle" x="473.5" y="-7.5" font-family="Helvetica,sans-Serif" font-size="10.00">fstream</text>
</g>
<!-- Node9&#45;&gt;Node13 -->
<g id="edge17" class="edge"><title>Node9&#45;&gt;Node13</title>
<path fill="none" stroke="midnightblue" d="M311.081,-56.4435C345.766,-46.739 402.214,-30.9452 438.595,-20.7661"/>
<polygon fill="midnightblue" stroke="midnightblue" points="439.602,-24.1188 448.29,-18.0537 437.716,-17.3777 439.602,-24.1188"/>
</g>
</g>
</svg>
