<?xml version="1.0" encoding="UTF-8" standalone="no"?>
<!DOCTYPE svg PUBLIC "-//W3C//DTD SVG 1.1//EN"
 "http://www.w3.org/Graphics/SVG/1.1/DTD/svg11.dtd">
<!-- Generated by graphviz version 2.38.0 (20140413.2041)
 -->
<!-- Title: correl.cpp Pages: 1 -->
<svg width="489pt" height="140pt"
 viewBox="0.00 0.00 489.00 140.00" xmlns="http://www.w3.org/2000/svg" xmlns:xlink="http://www.w3.org/1999/xlink">
<g id="graph0" class="graph" transform="scale(1 1) rotate(0) translate(4 136)">
<title>correl.cpp</title>
<!-- Node0 -->
<g id="node1" class="node"><title>Node0</title>
<polygon fill="#bfbfbf" stroke="black" points="127.5,-112.5 127.5,-131.5 186.5,-131.5 186.5,-112.5 127.5,-112.5"/>
<text text-anchor="middle" x="157" y="-119.5" font-family="Helvetica,sans-Serif" font-size="10.00">correl.cpp</text>
</g>
<!-- Node1 -->
<g id="node2" class="node"><title>Node1</title>
<polygon fill="none" stroke="#bfbfbf" points="0,-56.5 0,-75.5 48,-75.5 48,-56.5 0,-56.5"/>
<text text-anchor="middle" x="24" y="-63.5" font-family="Helvetica,sans-Serif" font-size="10.00">stdlib.h</text>
</g>
<!-- Node0&#45;&gt;Node1 -->
<g id="edge1" class="edge"><title>Node0&#45;&gt;Node1</title>
<path fill="none" stroke="midnightblue" d="M135.926,-112.444C113.94,-103.517 79.2657,-89.4387 54.3359,-79.3168"/>
<polygon fill="midnightblue" stroke="midnightblue" points="55.5578,-76.0355 44.9756,-75.5164 52.9244,-82.5213 55.5578,-76.0355"/>
</g>
<!-- Node2 -->
<g id="node3" class="node"><title>Node2</title>
<polygon fill="none" stroke="#bfbfbf" points="66,-56.5 66,-75.5 118,-75.5 118,-56.5 66,-56.5"/>
<text text-anchor="middle" x="92" y="-63.5" font-family="Helvetica,sans-Serif" font-size="10.00">getopt.h</text>
</g>
<!-- Node0&#45;&gt;Node2 -->
<g id="edge2" class="edge"><title>Node0&#45;&gt;Node2</title>
<path fill="none" stroke="midnightblue" d="M146.557,-112.324C136.854,-104.263 122.185,-92.0765 110.5,-82.3695"/>
<polygon fill="midnightblue" stroke="midnightblue" points="112.562,-79.532 102.633,-75.8339 108.089,-84.9163 112.562,-79.532"/>
</g>
<!-- Node3 -->
<g id="node4" class="node"><title>Node3</title>
<polygon fill="none" stroke="#bfbfbf" points="136.5,-56.5 136.5,-75.5 177.5,-75.5 177.5,-56.5 136.5,-56.5"/>
<text text-anchor="middle" x="157" y="-63.5" font-family="Helvetica,sans-Serif" font-size="10.00">string</text>
</g>
<!-- Node0&#45;&gt;Node3 -->
<g id="edge3" class="edge"><title>Node0&#45;&gt;Node3</title>
<path fill="none" stroke="midnightblue" d="M157,-112.083C157,-105.006 157,-94.8611 157,-85.9865"/>
<polygon fill="midnightblue" stroke="midnightblue" points="160.5,-85.751 157,-75.7511 153.5,-85.7511 160.5,-85.751"/>
</g>
<!-- Node4 -->
<g id="node5" class="node"><title>Node4</title>
<polygon fill="none" stroke="#bfbfbf" points="196,-56.5 196,-75.5 242,-75.5 242,-56.5 196,-56.5"/>
<text text-anchor="middle" x="219" y="-63.5" font-family="Helvetica,sans-Serif" font-size="10.00">stdio.h</text>
</g>
<!-- Node0&#45;&gt;Node4 -->
<g id="edge4" class="edge"><title>Node0&#45;&gt;Node4</title>
<path fill="none" stroke="midnightblue" d="M166.961,-112.324C176.127,-104.341 189.937,-92.3128 201.028,-82.6529"/>
<polygon fill="midnightblue" stroke="midnightblue" points="203.615,-85.041 208.857,-75.8339 199.018,-79.7624 203.615,-85.041"/>
</g>
<!-- Node5 -->
<g id="node6" class="node"><title>Node5</title>
<g id="a_node6"><a xlink:href="correlation_8h.html" target="_top" xlink:title="correlation.h">
<polygon fill="none" stroke="black" points="260,-56.5 260,-75.5 330,-75.5 330,-56.5 260,-56.5"/>
<text text-anchor="middle" x="295" y="-63.5" font-family="Helvetica,sans-Serif" font-size="10.00">correlation.h</text>
</a>
</g>
</g>
<!-- Node0&#45;&gt;Node5 -->
<g id="edge5" class="edge"><title>Node0&#45;&gt;Node5</title>
<path fill="none" stroke="midnightblue" d="M178.867,-112.444C201.779,-103.478 237.975,-89.314 263.866,-79.1827"/>
<polygon fill="midnightblue" stroke="midnightblue" points="265.199,-82.4198 273.236,-75.5164 262.648,-75.9011 265.199,-82.4198"/>
</g>
<!-- Node6 -->
<g id="node7" class="node"><title>Node6</title>
<polygon fill="none" stroke="#bfbfbf" points="95,-0.5 95,-19.5 145,-19.5 145,-0.5 95,-0.5"/>
<text text-anchor="middle" x="120" y="-7.5" font-family="Helvetica,sans-Serif" font-size="10.00">iomanip</text>
</g>
<!-- Node5&#45;&gt;Node6 -->
<g id="edge6" class="edge"><title>Node5&#45;&gt;Node6</title>
<path fill="none" stroke="midnightblue" d="M267.271,-56.4435C236.788,-47.0375 187.768,-31.9112 154.745,-21.7212"/>
<polygon fill="midnightblue" stroke="midnightblue" points="155.635,-18.3332 145.048,-18.729 153.571,-25.022 155.635,-18.3332"/>
</g>
<!-- Node7 -->
<g id="node8" class="node"><title>Node7</title>
<polygon fill="none" stroke="#bfbfbf" points="163,-0.5 163,-19.5 217,-19.5 217,-0.5 163,-0.5"/>
<text text-anchor="middle" x="190" y="-7.5" font-family="Helvetica,sans-Serif" font-size="10.00">iostream</text>
</g>
<!-- Node5&#45;&gt;Node7 -->
<g id="edge7" class="edge"><title>Node5&#45;&gt;Node7</title>
<path fill="none" stroke="midnightblue" d="M278.13,-56.324C261.291,-47.6641 235.193,-34.2424 215.762,-24.249"/>
<polygon fill="midnightblue" stroke="midnightblue" points="217.322,-21.1155 206.828,-19.6545 214.12,-27.3405 217.322,-21.1155"/>
</g>
<!-- Node8 -->
<g id="node9" class="node"><title>Node8</title>
<polygon fill="none" stroke="#bfbfbf" points="235,-0.5 235,-19.5 285,-19.5 285,-0.5 235,-0.5"/>
<text text-anchor="middle" x="260" y="-7.5" font-family="Helvetica,sans-Serif" font-size="10.00">fstream</text>
</g>
<!-- Node5&#45;&gt;Node8 -->
<g id="edge8" class="edge"><title>Node5&#45;&gt;Node8</title>
<path fill="none" stroke="midnightblue" d="M289.22,-56.083C284.328,-48.5341 277.173,-37.4948 271.167,-28.2298"/>
<polygon fill="midnightblue" stroke="midnightblue" points="274.048,-26.239 265.672,-19.7511 268.174,-30.0463 274.048,-26.239"/>
</g>
<!-- Node9 -->
<g id="node10" class="node"><title>Node9</title>
<polygon fill="none" stroke="#bfbfbf" points="303,-0.5 303,-19.5 355,-19.5 355,-0.5 303,-0.5"/>
<text text-anchor="middle" x="329" y="-7.5" font-family="Helvetica,sans-Serif" font-size="10.00">sstream</text>
</g>
<!-- Node5&#45;&gt;Node9 -->
<g id="edge9" class="edge"><title>Node5&#45;&gt;Node9</title>
<path fill="none" stroke="midnightblue" d="M300.614,-56.083C305.367,-48.5341 312.318,-37.4948 318.152,-28.2298"/>
<polygon fill="midnightblue" stroke="midnightblue" points="321.124,-30.0783 323.49,-19.7511 315.2,-26.3486 321.124,-30.0783"/>
</g>
<!-- Node10 -->
<g id="node11" class="node"><title>Node10</title>
<polygon fill="none" stroke="#bfbfbf" points="373.5,-0.5 373.5,-19.5 418.5,-19.5 418.5,-0.5 373.5,-0.5"/>
<text text-anchor="middle" x="396" y="-7.5" font-family="Helvetica,sans-Serif" font-size="10.00">cstdlib</text>
</g>
<!-- Node5&#45;&gt;Node10 -->
<g id="edge10" class="edge"><title>Node5&#45;&gt;Node10</title>
<path fill="none" stroke="midnightblue" d="M311.227,-56.324C327.351,-47.7034 352.3,-34.3643 370.964,-24.3855"/>
<polygon fill="midnightblue" stroke="midnightblue" points="372.644,-27.456 379.813,-19.6545 369.344,-21.283 372.644,-27.456"/>
</g>
<!-- Node11 -->
<g id="node12" class="node"><title>Node11</title>
<polygon fill="none" stroke="#bfbfbf" points="437,-0.5 437,-19.5 481,-19.5 481,-0.5 437,-0.5"/>
<text text-anchor="middle" x="459" y="-7.5" font-family="Helvetica,sans-Serif" font-size="10.00">cmath</text>
</g>
<!-- Node5&#45;&gt;Node11 -->
<g id="edge11" class="edge"><title>Node5&#45;&gt;Node11</title>
<path fill="none" stroke="midnightblue" d="M320.986,-56.4435C349.712,-46.985 396.005,-31.7421 426.956,-21.551"/>
<polygon fill="midnightblue" stroke="midnightblue" points="428.413,-24.7562 436.817,-18.3042 426.224,-18.1073 428.413,-24.7562"/>
</g>
</g>
</svg>
