<?xml version="1.0" encoding="UTF-8" standalone="no"?>
<!DOCTYPE svg PUBLIC "-//W3C//DTD SVG 1.1//EN"
 "http://www.w3.org/Graphics/SVG/1.1/DTD/svg11.dtd">
<!-- Generated by graphviz version 2.38.0 (20140413.2041)
 -->
<!-- Title: CVrep.cpp Pages: 1 -->
<svg width="566pt" height="252pt"
 viewBox="0.00 0.00 566.45 252.00" xmlns="http://www.w3.org/2000/svg" xmlns:xlink="http://www.w3.org/1999/xlink">
<g id="graph0" class="graph" transform="scale(1 1) rotate(0) translate(4 248)">
<title>CVrep.cpp</title>
<!-- Node0 -->
<g id="node1" class="node"><title>Node0</title>
<polygon fill="#bfbfbf" stroke="black" points="288.952,-224.5 288.952,-243.5 351.952,-243.5 351.952,-224.5 288.952,-224.5"/>
<text text-anchor="middle" x="320.452" y="-231.5" font-family="Helvetica,sans-Serif" font-size="10.00">CVrep.cpp</text>
</g>
<!-- Node1 -->
<g id="node2" class="node"><title>Node1</title>
<g id="a_node2"><a xlink:href="Random_8h.html" target="_top" xlink:title="Random.h">
<polygon fill="none" stroke="black" points="289.452,-112.5 289.452,-131.5 351.452,-131.5 351.452,-112.5 289.452,-112.5"/>
<text text-anchor="middle" x="320.452" y="-119.5" font-family="Helvetica,sans-Serif" font-size="10.00">Random.h</text>
</a>
</g>
</g>
<!-- Node0&#45;&gt;Node1 -->
<g id="edge1" class="edge"><title>Node0&#45;&gt;Node1</title>
<path fill="none" stroke="midnightblue" d="M320.452,-224.368C320.452,-206.617 320.452,-165.666 320.452,-141.597"/>
<polygon fill="midnightblue" stroke="midnightblue" points="323.952,-141.591 320.452,-131.591 316.952,-141.591 323.952,-141.591"/>
</g>
<!-- Node4 -->
<g id="node5" class="node"><title>Node4</title>
<polygon fill="none" stroke="#bfbfbf" points="81.4519,-0.5 81.4519,-19.5 135.452,-19.5 135.452,-0.5 81.4519,-0.5"/>
<text text-anchor="middle" x="108.452" y="-7.5" font-family="Helvetica,sans-Serif" font-size="10.00">iostream</text>
</g>
<!-- Node0&#45;&gt;Node4 -->
<g id="edge21" class="edge"><title>Node0&#45;&gt;Node4</title>
<path fill="none" stroke="midnightblue" d="M288.786,-229.363C220.029,-219.492 58.8109,-185.131 3.45195,-76 -0.56934,-68.0727 -1.4413,-63.4208 3.45195,-56 11.4496,-43.8712 44.6831,-30.8864 71.6483,-21.9978"/>
<polygon fill="midnightblue" stroke="midnightblue" points="72.7898,-25.3074 81.2409,-18.9176 70.6496,-18.6426 72.7898,-25.3074"/>
</g>
<!-- Node7 -->
<g id="node8" class="node"><title>Node7</title>
<polygon fill="none" stroke="#bfbfbf" points="508.452,-56.5 508.452,-75.5 558.452,-75.5 558.452,-56.5 508.452,-56.5"/>
<text text-anchor="middle" x="533.452" y="-63.5" font-family="Helvetica,sans-Serif" font-size="10.00">fstream</text>
</g>
<!-- Node0&#45;&gt;Node7 -->
<g id="edge22" class="edge"><title>Node0&#45;&gt;Node7</title>
<path fill="none" stroke="midnightblue" d="M324.311,-224.297C334.504,-202.276 364.287,-143.836 406.452,-112 421.192,-100.871 466.069,-86.3498 498.296,-76.8555"/>
<polygon fill="midnightblue" stroke="midnightblue" points="499.634,-80.1115 508.261,-73.9602 497.681,-73.3895 499.634,-80.1115"/>
</g>
<!-- Node8 -->
<g id="node9" class="node"><title>Node8</title>
<g id="a_node9"><a xlink:href="SequenceAlignment_8h.html" target="_top" xlink:title="SequenceAlignment.h">
<polygon fill="none" stroke="black" points="165.452,-168.5 165.452,-187.5 277.452,-187.5 277.452,-168.5 165.452,-168.5"/>
<text text-anchor="middle" x="221.452" y="-175.5" font-family="Helvetica,sans-Serif" font-size="10.00">SequenceAlignment.h</text>
</a>
</g>
</g>
<!-- Node0&#45;&gt;Node8 -->
<g id="edge8" class="edge"><title>Node0&#45;&gt;Node8</title>
<path fill="none" stroke="midnightblue" d="M304.546,-224.324C288.814,-215.743 264.51,-202.486 246.243,-192.522"/>
<polygon fill="midnightblue" stroke="midnightblue" points="247.774,-189.37 237.319,-187.655 244.422,-195.516 247.774,-189.37"/>
</g>
<!-- Node14 -->
<g id="node15" class="node"><title>Node14</title>
<g id="a_node15"><a xlink:href="Parallel_8h.html" target="_top" xlink:title="Parallel.h">
<polygon fill="none" stroke="black" points="407.952,-168.5 407.952,-187.5 464.952,-187.5 464.952,-168.5 407.952,-168.5"/>
<text text-anchor="middle" x="436.452" y="-175.5" font-family="Helvetica,sans-Serif" font-size="10.00">Parallel.h</text>
</a>
</g>
</g>
<!-- Node0&#45;&gt;Node14 -->
<g id="edge19" class="edge"><title>Node0&#45;&gt;Node14</title>
<path fill="none" stroke="midnightblue" d="M338.832,-224.444C357.668,-215.675 387.183,-201.935 408.831,-191.858"/>
<polygon fill="midnightblue" stroke="midnightblue" points="410.569,-194.91 418.157,-187.516 407.614,-188.564 410.569,-194.91"/>
</g>
<!-- Node2 -->
<g id="node3" class="node"><title>Node2</title>
<polygon fill="none" stroke="#bfbfbf" points="446.452,-56.5 446.452,-75.5 490.452,-75.5 490.452,-56.5 446.452,-56.5"/>
<text text-anchor="middle" x="468.452" y="-63.5" font-family="Helvetica,sans-Serif" font-size="10.00">cmath</text>
</g>
<!-- Node1&#45;&gt;Node2 -->
<g id="edge2" class="edge"><title>Node1&#45;&gt;Node2</title>
<path fill="none" stroke="midnightblue" d="M343.903,-112.444C368.875,-103.332 408.558,-88.8531 436.405,-78.6929"/>
<polygon fill="midnightblue" stroke="midnightblue" points="437.885,-81.8786 446.079,-75.1629 435.486,-75.3027 437.885,-81.8786"/>
</g>
<!-- Node3 -->
<g id="node4" class="node"><title>Node3</title>
<polygon fill="none" stroke="#bfbfbf" points="239.952,-0.5 239.952,-19.5 284.952,-19.5 284.952,-0.5 239.952,-0.5"/>
<text text-anchor="middle" x="262.452" y="-7.5" font-family="Helvetica,sans-Serif" font-size="10.00">cstdlib</text>
</g>
<!-- Node1&#45;&gt;Node3 -->
<g id="edge3" class="edge"><title>Node1&#45;&gt;Node3</title>
<path fill="none" stroke="midnightblue" d="M315.901,-112.368C306.414,-94.376 284.36,-52.5503 271.746,-28.6267"/>
<polygon fill="midnightblue" stroke="midnightblue" points="274.742,-26.8047 266.982,-19.5914 268.55,-30.0696 274.742,-26.8047"/>
</g>
<!-- Node1&#45;&gt;Node4 -->
<g id="edge4" class="edge"><title>Node1&#45;&gt;Node4</title>
<path fill="none" stroke="midnightblue" d="M289.32,-115.514C237.778,-106.173 139.198,-87.1138 127.452,-76 114.918,-64.1409 110.511,-44.5155 109.032,-29.9266"/>
<polygon fill="midnightblue" stroke="midnightblue" points="112.5,-29.3094 108.374,-19.5508 105.514,-29.7523 112.5,-29.3094"/>
</g>
<!-- Node5 -->
<g id="node6" class="node"><title>Node5</title>
<polygon fill="none" stroke="#bfbfbf" points="308.452,-56.5 308.452,-75.5 360.452,-75.5 360.452,-56.5 308.452,-56.5"/>
<text text-anchor="middle" x="334.452" y="-63.5" font-family="Helvetica,sans-Serif" font-size="10.00">sstream</text>
</g>
<!-- Node1&#45;&gt;Node5 -->
<g id="edge5" class="edge"><title>Node1&#45;&gt;Node5</title>
<path fill="none" stroke="midnightblue" d="M322.764,-112.083C324.619,-104.927 327.287,-94.6353 329.606,-85.6911"/>
<polygon fill="midnightblue" stroke="midnightblue" points="333.061,-86.3094 332.183,-75.7511 326.285,-84.5527 333.061,-86.3094"/>
</g>
<!-- Node6 -->
<g id="node7" class="node"><title>Node6</title>
<polygon fill="none" stroke="#bfbfbf" points="378.452,-56.5 378.452,-75.5 428.452,-75.5 428.452,-56.5 378.452,-56.5"/>
<text text-anchor="middle" x="403.452" y="-63.5" font-family="Helvetica,sans-Serif" font-size="10.00">iomanip</text>
</g>
<!-- Node1&#45;&gt;Node6 -->
<g id="edge6" class="edge"><title>Node1&#45;&gt;Node6</title>
<path fill="none" stroke="midnightblue" d="M333.787,-112.324C346.614,-103.979 366.237,-91.2122 381.392,-81.3524"/>
<polygon fill="midnightblue" stroke="midnightblue" points="383.676,-84.0417 390.15,-75.6545 379.859,-78.1742 383.676,-84.0417"/>
</g>
<!-- Node1&#45;&gt;Node7 -->
<g id="edge7" class="edge"><title>Node1&#45;&gt;Node7</title>
<path fill="none" stroke="midnightblue" d="M351.526,-113.313C385.297,-104.931 441.106,-91.0008 498.278,-76.2808"/>
<polygon fill="midnightblue" stroke="midnightblue" points="499.401,-79.6058 508.21,-73.7191 497.653,-72.8276 499.401,-79.6058"/>
</g>
<!-- Node8&#45;&gt;Node1 -->
<g id="edge18" class="edge"><title>Node8&#45;&gt;Node1</title>
<path fill="none" stroke="midnightblue" d="M237.358,-168.324C253.09,-159.743 277.394,-146.486 295.661,-136.522"/>
<polygon fill="midnightblue" stroke="midnightblue" points="297.482,-139.516 304.585,-131.655 294.13,-133.37 297.482,-139.516"/>
</g>
<!-- Node9 -->
<g id="node10" class="node"><title>Node9</title>
<g id="a_node10"><a xlink:href="StateSpace_8h.html" target="_top" xlink:title="StateSpace.h">
<polygon fill="none" stroke="black" points="169.452,-112.5 169.452,-131.5 245.452,-131.5 245.452,-112.5 169.452,-112.5"/>
<text text-anchor="middle" x="207.452" y="-119.5" font-family="Helvetica,sans-Serif" font-size="10.00">StateSpace.h</text>
</a>
</g>
</g>
<!-- Node8&#45;&gt;Node9 -->
<g id="edge9" class="edge"><title>Node8&#45;&gt;Node9</title>
<path fill="none" stroke="midnightblue" d="M219.14,-168.083C217.285,-160.927 214.617,-150.635 212.298,-141.691"/>
<polygon fill="midnightblue" stroke="midnightblue" points="215.618,-140.553 209.721,-131.751 208.842,-142.309 215.618,-140.553"/>
</g>
<!-- Node12 -->
<g id="node13" class="node"><title>Node12</title>
<g id="a_node13"><a xlink:href="TaxonSet_8h.html" target="_top" xlink:title="TaxonSet.h">
<polygon fill="none" stroke="black" points="12.9519,-56.5 12.9519,-75.5 79.9519,-75.5 79.9519,-56.5 12.9519,-56.5"/>
<text text-anchor="middle" x="46.4519" y="-63.5" font-family="Helvetica,sans-Serif" font-size="10.00">TaxonSet.h</text>
</a>
</g>
</g>
<!-- Node8&#45;&gt;Node12 -->
<g id="edge14" class="edge"><title>Node8&#45;&gt;Node12</title>
<path fill="none" stroke="midnightblue" d="M207.72,-168.368C177.562,-149.412 105.317,-104.001 68.633,-80.9424"/>
<polygon fill="midnightblue" stroke="midnightblue" points="70.4491,-77.9499 60.1201,-75.5914 66.7239,-83.8764 70.4491,-77.9499"/>
</g>
<!-- Node10 -->
<g id="node11" class="node"><title>Node10</title>
<g id="a_node11"><a xlink:href="BiologicalSequences_8h.html" target="_top" xlink:title="BiologicalSequences.h">
<polygon fill="none" stroke="black" points="136.452,-56.5 136.452,-75.5 252.452,-75.5 252.452,-56.5 136.452,-56.5"/>
<text text-anchor="middle" x="194.452" y="-63.5" font-family="Helvetica,sans-Serif" font-size="10.00">BiologicalSequences.h</text>
</a>
</g>
</g>
<!-- Node9&#45;&gt;Node10 -->
<g id="edge10" class="edge"><title>Node9&#45;&gt;Node10</title>
<path fill="none" stroke="midnightblue" d="M205.305,-112.083C203.583,-104.927 201.105,-94.6353 198.952,-85.6911"/>
<polygon fill="midnightblue" stroke="midnightblue" points="202.302,-84.6541 196.559,-75.7511 195.497,-86.2925 202.302,-84.6541"/>
</g>
<!-- Node10&#45;&gt;Node3 -->
<g id="edge11" class="edge"><title>Node10&#45;&gt;Node3</title>
<path fill="none" stroke="midnightblue" d="M205.377,-56.324C215.627,-48.1849 231.173,-35.8395 243.453,-26.0874"/>
<polygon fill="midnightblue" stroke="midnightblue" points="245.673,-28.7937 251.328,-19.8339 241.32,-23.3119 245.673,-28.7937"/>
</g>
<!-- Node10&#45;&gt;Node4 -->
<g id="edge12" class="edge"><title>Node10&#45;&gt;Node4</title>
<path fill="none" stroke="midnightblue" d="M180.635,-56.324C167.219,-47.9002 146.628,-34.9709 130.866,-25.0741"/>
<polygon fill="midnightblue" stroke="midnightblue" points="132.565,-22.0081 122.235,-19.6545 128.843,-27.9364 132.565,-22.0081"/>
</g>
<!-- Node11 -->
<g id="node12" class="node"><title>Node11</title>
<polygon fill="none" stroke="#bfbfbf" points="163.952,-0.5 163.952,-19.5 204.952,-19.5 204.952,-0.5 163.952,-0.5"/>
<text text-anchor="middle" x="184.452" y="-7.5" font-family="Helvetica,sans-Serif" font-size="10.00">string</text>
</g>
<!-- Node10&#45;&gt;Node11 -->
<g id="edge13" class="edge"><title>Node10&#45;&gt;Node11</title>
<path fill="none" stroke="midnightblue" d="M192.801,-56.083C191.476,-48.9272 189.57,-38.6353 187.913,-29.6911"/>
<polygon fill="midnightblue" stroke="midnightblue" points="191.335,-28.9466 186.073,-19.7511 184.452,-30.2212 191.335,-28.9466"/>
</g>
<!-- Node12&#45;&gt;Node4 -->
<g id="edge17" class="edge"><title>Node12&#45;&gt;Node4</title>
<path fill="none" stroke="midnightblue" d="M56.4133,-56.324C65.5785,-48.3414 79.3892,-36.3128 90.4801,-26.6529"/>
<polygon fill="midnightblue" stroke="midnightblue" points="93.0672,-29.041 98.3093,-19.8339 88.4697,-23.7624 93.0672,-29.041"/>
</g>
<!-- Node12&#45;&gt;Node11 -->
<g id="edge16" class="edge"><title>Node12&#45;&gt;Node11</title>
<path fill="none" stroke="midnightblue" d="M68.3185,-56.4435C91.501,-47.3721 128.281,-32.98 154.228,-22.8268"/>
<polygon fill="midnightblue" stroke="midnightblue" points="155.554,-26.0664 163.591,-19.1629 153.003,-19.5477 155.554,-26.0664"/>
</g>
<!-- Node13 -->
<g id="node14" class="node"><title>Node13</title>
<polygon fill="none" stroke="#bfbfbf" points="27.9519,-0.5 27.9519,-19.5 62.9519,-19.5 62.9519,-0.5 27.9519,-0.5"/>
<text text-anchor="middle" x="45.4519" y="-7.5" font-family="Helvetica,sans-Serif" font-size="10.00">map</text>
</g>
<!-- Node12&#45;&gt;Node13 -->
<g id="edge15" class="edge"><title>Node12&#45;&gt;Node13</title>
<path fill="none" stroke="midnightblue" d="M46.2868,-56.083C46.1558,-49.0059 45.9679,-38.8611 45.8036,-29.9865"/>
<polygon fill="midnightblue" stroke="midnightblue" points="49.2987,-29.6845 45.614,-19.7511 42.2999,-29.8142 49.2987,-29.6845"/>
</g>
<!-- Node15 -->
<g id="node16" class="node"><title>Node15</title>
<polygon fill="none" stroke="#bfbfbf" points="415.952,-112.5 415.952,-131.5 456.952,-131.5 456.952,-112.5 415.952,-112.5"/>
<text text-anchor="middle" x="436.452" y="-119.5" font-family="Helvetica,sans-Serif" font-size="10.00">mpi.h</text>
</g>
<!-- Node14&#45;&gt;Node15 -->
<g id="edge20" class="edge"><title>Node14&#45;&gt;Node15</title>
<path fill="none" stroke="midnightblue" d="M436.452,-168.083C436.452,-161.006 436.452,-150.861 436.452,-141.986"/>
<polygon fill="midnightblue" stroke="midnightblue" points="439.952,-141.751 436.452,-131.751 432.952,-141.751 439.952,-141.751"/>
</g>
</g>
</svg>
