<?xml version="1.0" encoding="UTF-8" standalone="no"?>
<!DOCTYPE svg PUBLIC "-//W3C//DTD SVG 1.1//EN"
 "http://www.w3.org/Graphics/SVG/1.1/DTD/svg11.dtd">
<!-- Generated by graphviz version 2.38.0 (20140413.2041)
 -->
<!-- Title: DGamRateProcess.h Pages: 1 -->
<svg width="1599pt" height="274pt"
 viewBox="0.00 0.00 1599.00 274.00" xmlns="http://www.w3.org/2000/svg" xmlns:xlink="http://www.w3.org/1999/xlink">
<g id="graph0" class="graph" transform="scale(1 1) rotate(0) translate(4 270)">
<title>DGamRateProcess.h</title>
<!-- Node7 -->
<g id="node1" class="node"><title>Node7</title>
<polygon fill="#bfbfbf" stroke="black" points="657.5,-246.5 657.5,-265.5 767.5,-265.5 767.5,-246.5 657.5,-246.5"/>
<text text-anchor="middle" x="712.5" y="-253.5" font-family="Helvetica,sans-Serif" font-size="10.00">DGamRateProcess.h</text>
</g>
<!-- Node8 -->
<g id="node2" class="node"><title>Node8</title>
<g id="a_node2"><a xlink:href="DGamRateProcess_8cpp.html" target="_top" xlink:title="DGamRateProcess.cpp">
<polygon fill="none" stroke="black" points="0,-185 0,-204 121,-204 121,-185 0,-185"/>
<text text-anchor="middle" x="60.5" y="-192" font-family="Helvetica,sans-Serif" font-size="10.00">DGamRateProcess.cpp</text>
</a>
</g>
</g>
<!-- Node7&#45;&gt;Node8 -->
<g id="edge1" class="edge"><title>Node7&#45;&gt;Node8</title>
<path fill="none" stroke="midnightblue" d="M647.194,-252.659C539.22,-248.182 316.892,-236.402 130.5,-210 119.686,-208.468 108.036,-206.276 97.4012,-204.059"/>
<polygon fill="midnightblue" stroke="midnightblue" points="647.146,-256.159 657.281,-253.069 647.431,-249.165 647.146,-256.159"/>
</g>
<!-- Node9 -->
<g id="node3" class="node"><title>Node9</title>
<g id="a_node3"><a xlink:href="ExpoConjugateGTRGeneGammaPhyloProcess_8h.html" target="_top" xlink:title="ExpoConjugateGTRGeneGamma\lPhyloProcess.h">
<polygon fill="none" stroke="black" points="139.5,-179.5 139.5,-209.5 301.5,-209.5 301.5,-179.5 139.5,-179.5"/>
<text text-anchor="start" x="147.5" y="-197.5" font-family="Helvetica,sans-Serif" font-size="10.00">ExpoConjugateGTRGeneGamma</text>
<text text-anchor="middle" x="220.5" y="-186.5" font-family="Helvetica,sans-Serif" font-size="10.00">PhyloProcess.h</text>
</a>
</g>
</g>
<!-- Node7&#45;&gt;Node9 -->
<g id="edge2" class="edge"><title>Node7&#45;&gt;Node9</title>
<path fill="none" stroke="midnightblue" d="M647.086,-248.657C567.433,-240.707 428.869,-226.151 310.5,-210 307.677,-209.615 304.807,-209.212 301.909,-208.796"/>
<polygon fill="midnightblue" stroke="midnightblue" points="647.154,-252.181 657.451,-249.687 647.846,-245.215 647.154,-252.181"/>
</g>
<!-- Node10 -->
<g id="node4" class="node"><title>Node10</title>
<g id="a_node4"><a xlink:href="RASCATGTRFiniteGammaPhyloProcess_8h.html" target="_top" xlink:title="RASCATGTRFiniteGammaPhylo\lProcess.h">
<polygon fill="none" stroke="black" points="319.5,-179.5 319.5,-209.5 481.5,-209.5 481.5,-179.5 319.5,-179.5"/>
<text text-anchor="start" x="327.5" y="-197.5" font-family="Helvetica,sans-Serif" font-size="10.00">RASCATGTRFiniteGammaPhylo</text>
<text text-anchor="middle" x="400.5" y="-186.5" font-family="Helvetica,sans-Serif" font-size="10.00">Process.h</text>
</a>
</g>
</g>
<!-- Node7&#45;&gt;Node10 -->
<g id="edge3" class="edge"><title>Node7&#45;&gt;Node10</title>
<path fill="none" stroke="midnightblue" d="M657.952,-244.597C606.953,-234.872 530.409,-220.274 474.032,-209.523"/>
<polygon fill="midnightblue" stroke="midnightblue" points="657.319,-248.04 667.798,-246.475 658.631,-241.164 657.319,-248.04"/>
</g>
<!-- Node15 -->
<g id="node9" class="node"><title>Node15</title>
<g id="a_node9"><a xlink:href="RASCATGTRSBDPGammaPhyloProcess_8h.html" target="_top" xlink:title="RASCATGTRSBDPGammaPhyloProcess.h">
<polygon fill="none" stroke="black" points="499.5,-185 499.5,-204 709.5,-204 709.5,-185 499.5,-185"/>
<text text-anchor="middle" x="604.5" y="-192" font-family="Helvetica,sans-Serif" font-size="10.00">RASCATGTRSBDPGammaPhyloProcess.h</text>
</a>
</g>
</g>
<!-- Node7&#45;&gt;Node15 -->
<g id="edge8" class="edge"><title>Node7&#45;&gt;Node15</title>
<path fill="none" stroke="midnightblue" d="M688.098,-241.556C667.198,-230.042 637.737,-213.811 619.945,-204.009"/>
<polygon fill="midnightblue" stroke="midnightblue" points="686.579,-244.715 697.026,-246.475 689.956,-238.584 686.579,-244.715"/>
</g>
<!-- Node17 -->
<g id="node11" class="node"><title>Node17</title>
<g id="a_node11"><a xlink:href="RASCATFiniteGammaPhyloProcess_8h.html" target="_top" xlink:title="RASCATFiniteGammaPhyloProcess.h">
<polygon fill="none" stroke="black" points="728,-185 728,-204 913,-204 913,-185 728,-185"/>
<text text-anchor="middle" x="820.5" y="-192" font-family="Helvetica,sans-Serif" font-size="10.00">RASCATFiniteGammaPhyloProcess.h</text>
</a>
</g>
</g>
<!-- Node7&#45;&gt;Node17 -->
<g id="edge11" class="edge"><title>Node7&#45;&gt;Node17</title>
<path fill="none" stroke="midnightblue" d="M736.902,-241.556C757.802,-230.042 787.263,-213.811 805.055,-204.009"/>
<polygon fill="midnightblue" stroke="midnightblue" points="735.044,-238.584 727.974,-246.475 738.421,-244.715 735.044,-238.584"/>
</g>
<!-- Node19 -->
<g id="node13" class="node"><title>Node19</title>
<g id="a_node13"><a xlink:href="RASCATGammaPhyloProcess_8h.html" target="_top" xlink:title="RASCATGammaPhyloProcess.h">
<polygon fill="none" stroke="black" points="951,-185 951,-204 1112,-204 1112,-185 951,-185"/>
<text text-anchor="middle" x="1031.5" y="-192" font-family="Helvetica,sans-Serif" font-size="10.00">RASCATGammaPhyloProcess.h</text>
</a>
</g>
</g>
<!-- Node7&#45;&gt;Node19 -->
<g id="edge14" class="edge"><title>Node7&#45;&gt;Node19</title>
<path fill="none" stroke="midnightblue" d="M768.167,-244.617C829.945,-233.094 928.476,-214.716 985.88,-204.009"/>
<polygon fill="midnightblue" stroke="midnightblue" points="767.394,-241.201 758.205,-246.475 768.677,-248.082 767.394,-241.201"/>
</g>
<!-- Node23 -->
<g id="node17" class="node"><title>Node23</title>
<g id="a_node17"><a xlink:href="PoissonGeneGammaPhyloProcess_8h.html" target="_top" xlink:title="PoissonGeneGammaPhyloProcess.h">
<polygon fill="none" stroke="black" points="1130,-185 1130,-204 1309,-204 1309,-185 1130,-185"/>
<text text-anchor="middle" x="1219.5" y="-192" font-family="Helvetica,sans-Serif" font-size="10.00">PoissonGeneGammaPhyloProcess.h</text>
</a>
</g>
</g>
<!-- Node7&#45;&gt;Node23 -->
<g id="edge19" class="edge"><title>Node7&#45;&gt;Node23</title>
<path fill="none" stroke="midnightblue" d="M777.845,-248.569C858.66,-240.442 1000.39,-225.616 1121.5,-210 1135.4,-208.207 1150.39,-206.087 1164.35,-204.028"/>
<polygon fill="midnightblue" stroke="midnightblue" points="777.417,-245.095 767.817,-249.575 778.116,-252.06 777.417,-245.095"/>
</g>
<!-- Node24 -->
<g id="node18" class="node"><title>Node24</title>
<g id="a_node18"><a xlink:href="RASCATGTRDPGammaPhyloProcess_8h.html" target="_top" xlink:title="RASCATGTRDPGammaPhyloProcess.h">
<polygon fill="none" stroke="black" points="1368,-185 1368,-204 1565,-204 1565,-185 1368,-185"/>
<text text-anchor="middle" x="1466.5" y="-192" font-family="Helvetica,sans-Serif" font-size="10.00">RASCATGTRDPGammaPhyloProcess.h</text>
</a>
</g>
</g>
<!-- Node7&#45;&gt;Node24 -->
<g id="edge20" class="edge"><title>Node7&#45;&gt;Node24</title>
<path fill="none" stroke="midnightblue" d="M777.723,-250.662C888.801,-243.162 1121.78,-226.938 1318.5,-210 1339.46,-208.195 1362.08,-206.07 1383.17,-204.011"/>
<polygon fill="midnightblue" stroke="midnightblue" points="777.423,-247.174 767.681,-251.339 777.894,-254.159 777.423,-247.174"/>
</g>
<!-- Node11 -->
<g id="node5" class="node"><title>Node11</title>
<g id="a_node5"><a xlink:href="Model_8h.html" target="_top" xlink:title="Model.h">
<polygon fill="none" stroke="black" points="579,-56.5 579,-75.5 630,-75.5 630,-56.5 579,-56.5"/>
<text text-anchor="middle" x="604.5" y="-63.5" font-family="Helvetica,sans-Serif" font-size="10.00">Model.h</text>
</a>
</g>
</g>
<!-- Node10&#45;&gt;Node11 -->
<g id="edge4" class="edge"><title>Node10&#45;&gt;Node11</title>
<path fill="none" stroke="midnightblue" d="M328.929,-176.6C284.801,-162.862 241.098,-141.008 266.5,-112 287.072,-88.5072 503.348,-73.1707 578.747,-68.5048"/>
<polygon fill="midnightblue" stroke="midnightblue" points="328.04,-179.987 338.623,-179.493 330.041,-173.28 328.04,-179.987"/>
</g>
<!-- Node14 -->
<g id="node8" class="node"><title>Node14</title>
<g id="a_node8"><a xlink:href="RASCATGTRFiniteGammaPhyloProcess_8cpp.html" target="_top" xlink:title="RASCATGTRFiniteGammaPhylo\lProcess.cpp">
<polygon fill="none" stroke="black" points="275.5,-112.5 275.5,-142.5 437.5,-142.5 437.5,-112.5 275.5,-112.5"/>
<text text-anchor="start" x="283.5" y="-130.5" font-family="Helvetica,sans-Serif" font-size="10.00">RASCATGTRFiniteGammaPhylo</text>
<text text-anchor="middle" x="356.5" y="-119.5" font-family="Helvetica,sans-Serif" font-size="10.00">Process.cpp</text>
</a>
</g>
</g>
<!-- Node10&#45;&gt;Node14 -->
<g id="edge7" class="edge"><title>Node10&#45;&gt;Node14</title>
<path fill="none" stroke="midnightblue" d="M385.179,-170.867C378.811,-161.459 371.618,-150.833 366.029,-142.577"/>
<polygon fill="midnightblue" stroke="midnightblue" points="382.449,-173.077 390.953,-179.396 388.245,-169.153 382.449,-173.077"/>
</g>
<!-- Node12 -->
<g id="node6" class="node"><title>Node12</title>
<g id="a_node6"><a xlink:href="PB_8cpp.html" target="_top" xlink:title="PB.cpp">
<polygon fill="none" stroke="black" points="541,-0.5 541,-19.5 590,-19.5 590,-0.5 541,-0.5"/>
<text text-anchor="middle" x="565.5" y="-7.5" font-family="Helvetica,sans-Serif" font-size="10.00">PB.cpp</text>
</a>
</g>
</g>
<!-- Node11&#45;&gt;Node12 -->
<g id="edge5" class="edge"><title>Node11&#45;&gt;Node12</title>
<path fill="none" stroke="midnightblue" d="M592.118,-47.8554C585.365,-38.5048 577.291,-27.3265 571.82,-19.7511"/>
<polygon fill="midnightblue" stroke="midnightblue" points="589.368,-50.0254 598.06,-56.083 595.042,-45.927 589.368,-50.0254"/>
</g>
<!-- Node13 -->
<g id="node7" class="node"><title>Node13</title>
<g id="a_node7"><a xlink:href="ReadPB_8cpp.html" target="_top" xlink:title="ReadPB.cpp">
<polygon fill="none" stroke="black" points="608.5,-0.5 608.5,-19.5 680.5,-19.5 680.5,-0.5 608.5,-0.5"/>
<text text-anchor="middle" x="644.5" y="-7.5" font-family="Helvetica,sans-Serif" font-size="10.00">ReadPB.cpp</text>
</a>
</g>
</g>
<!-- Node11&#45;&gt;Node13 -->
<g id="edge6" class="edge"><title>Node11&#45;&gt;Node13</title>
<path fill="none" stroke="midnightblue" d="M617.2,-47.8554C624.126,-38.5048 632.406,-27.3265 638.018,-19.7511"/>
<polygon fill="midnightblue" stroke="midnightblue" points="614.245,-45.9641 611.105,-56.083 619.87,-50.1307 614.245,-45.9641"/>
</g>
<!-- Node15&#45;&gt;Node11 -->
<g id="edge9" class="edge"><title>Node15&#45;&gt;Node11</title>
<path fill="none" stroke="midnightblue" d="M558.735,-182.077C516.146,-169.113 462.456,-145.351 485.5,-112 506.468,-81.6533 550.72,-71.7497 578.955,-68.5315"/>
<polygon fill="midnightblue" stroke="midnightblue" points="557.864,-185.469 568.444,-184.909 559.824,-178.749 557.864,-185.469"/>
</g>
<!-- Node16 -->
<g id="node10" class="node"><title>Node16</title>
<g id="a_node10"><a xlink:href="RASCATGTRSBDPGammaPhyloProcess_8cpp.html" target="_top" xlink:title="RASCATGTRSBDPGammaPhyloProcess.cpp">
<polygon fill="none" stroke="black" points="494,-118 494,-137 715,-137 715,-118 494,-118"/>
<text text-anchor="middle" x="604.5" y="-125" font-family="Helvetica,sans-Serif" font-size="10.00">RASCATGTRSBDPGammaPhyloProcess.cpp</text>
</a>
</g>
</g>
<!-- Node15&#45;&gt;Node16 -->
<g id="edge10" class="edge"><title>Node15&#45;&gt;Node16</title>
<path fill="none" stroke="midnightblue" d="M604.5,-174.537C604.5,-162.17 604.5,-146.62 604.5,-137.127"/>
<polygon fill="midnightblue" stroke="midnightblue" points="601,-174.734 604.5,-184.734 608,-174.734 601,-174.734"/>
</g>
<!-- Node17&#45;&gt;Node11 -->
<g id="edge12" class="edge"><title>Node17&#45;&gt;Node11</title>
<path fill="none" stroke="midnightblue" d="M802.662,-178.082C776.106,-155.17 728.816,-114.536 724.5,-112 694.192,-94.1876 655.585,-81.221 630.468,-73.9037"/>
<polygon fill="midnightblue" stroke="midnightblue" points="800.618,-180.942 810.475,-184.828 805.193,-175.644 800.618,-180.942"/>
</g>
<!-- Node18 -->
<g id="node12" class="node"><title>Node18</title>
<g id="a_node12"><a xlink:href="RASCATFiniteGammaPhyloProcess_8cpp.html" target="_top" xlink:title="RASCATFiniteGammaPhyloProcess.cpp">
<polygon fill="none" stroke="black" points="771.5,-118 771.5,-137 967.5,-137 967.5,-118 771.5,-118"/>
<text text-anchor="middle" x="869.5" y="-125" font-family="Helvetica,sans-Serif" font-size="10.00">RASCATFiniteGammaPhyloProcess.cpp</text>
</a>
</g>
</g>
<!-- Node17&#45;&gt;Node18 -->
<g id="edge13" class="edge"><title>Node17&#45;&gt;Node18</title>
<path fill="none" stroke="midnightblue" d="M833.388,-176.404C842.91,-163.773 855.475,-147.104 862.996,-137.127"/>
<polygon fill="midnightblue" stroke="midnightblue" points="830.333,-174.642 827.108,-184.734 835.923,-178.855 830.333,-174.642"/>
</g>
<!-- Node20 -->
<g id="node14" class="node"><title>Node20</title>
<g id="a_node14"><a xlink:href="RASCATSBDPGammaPhyloProcess_8h.html" target="_top" xlink:title="RASCATSBDPGammaPhyloProcess.h">
<polygon fill="none" stroke="black" points="986,-118 986,-137 1175,-137 1175,-118 986,-118"/>
<text text-anchor="middle" x="1080.5" y="-125" font-family="Helvetica,sans-Serif" font-size="10.00">RASCATSBDPGammaPhyloProcess.h</text>
</a>
</g>
</g>
<!-- Node19&#45;&gt;Node20 -->
<g id="edge15" class="edge"><title>Node19&#45;&gt;Node20</title>
<path fill="none" stroke="midnightblue" d="M1044.39,-176.404C1053.91,-163.773 1066.48,-147.104 1074,-137.127"/>
<polygon fill="midnightblue" stroke="midnightblue" points="1041.33,-174.642 1038.11,-184.734 1046.92,-178.855 1041.33,-174.642"/>
</g>
<!-- Node22 -->
<g id="node16" class="node"><title>Node22</title>
<g id="a_node16"><a xlink:href="RASCATGammaPhyloProcess_8cpp.html" target="_top" xlink:title="RASCATGammaPhyloProcess.cpp">
<polygon fill="none" stroke="black" points="1193.5,-118 1193.5,-137 1365.5,-137 1365.5,-118 1193.5,-118"/>
<text text-anchor="middle" x="1279.5" y="-125" font-family="Helvetica,sans-Serif" font-size="10.00">RASCATGammaPhyloProcess.cpp</text>
</a>
</g>
</g>
<!-- Node19&#45;&gt;Node22 -->
<g id="edge18" class="edge"><title>Node19&#45;&gt;Node22</title>
<path fill="none" stroke="midnightblue" d="M1074.14,-182.323C1123.11,-169.489 1202.38,-148.712 1246.75,-137.083"/>
<polygon fill="midnightblue" stroke="midnightblue" points="1072.96,-179.014 1064.18,-184.936 1074.74,-185.786 1072.96,-179.014"/>
</g>
<!-- Node20&#45;&gt;Node11 -->
<g id="edge16" class="edge"><title>Node20&#45;&gt;Node11</title>
<path fill="none" stroke="midnightblue" d="M1010.87,-116.614C999.391,-115.036 987.616,-113.447 976.5,-112 846.513,-95.0777 690.685,-76.9154 630.227,-69.9493"/>
<polygon fill="midnightblue" stroke="midnightblue" points="1010.47,-120.092 1020.85,-117.995 1011.43,-113.158 1010.47,-120.092"/>
</g>
<!-- Node21 -->
<g id="node15" class="node"><title>Node21</title>
<g id="a_node15"><a xlink:href="RASCATSBDPGammaPhyloProcess_8cpp.html" target="_top" xlink:title="RASCATSBDPGammaPhyloProcess.cpp">
<polygon fill="none" stroke="black" points="980.5,-56.5 980.5,-75.5 1180.5,-75.5 1180.5,-56.5 980.5,-56.5"/>
<text text-anchor="middle" x="1080.5" y="-63.5" font-family="Helvetica,sans-Serif" font-size="10.00">RASCATSBDPGammaPhyloProcess.cpp</text>
</a>
</g>
</g>
<!-- Node20&#45;&gt;Node21 -->
<g id="edge17" class="edge"><title>Node20&#45;&gt;Node21</title>
<path fill="none" stroke="midnightblue" d="M1080.5,-107.817C1080.5,-96.9962 1080.5,-83.898 1080.5,-75.5091"/>
<polygon fill="midnightblue" stroke="midnightblue" points="1077,-107.975 1080.5,-117.975 1084,-107.975 1077,-107.975"/>
</g>
<!-- Node25 -->
<g id="node19" class="node"><title>Node25</title>
<g id="a_node19"><a xlink:href="RASCATGTRDPGammaPhyloProcess_8cpp.html" target="_top" xlink:title="RASCATGTRDPGammaPhyloProcess.cpp">
<polygon fill="none" stroke="black" points="1384,-118 1384,-137 1591,-137 1591,-118 1384,-118"/>
<text text-anchor="middle" x="1487.5" y="-125" font-family="Helvetica,sans-Serif" font-size="10.00">RASCATGTRDPGammaPhyloProcess.cpp</text>
</a>
</g>
</g>
<!-- Node24&#45;&gt;Node25 -->
<g id="edge21" class="edge"><title>Node24&#45;&gt;Node25</title>
<path fill="none" stroke="midnightblue" d="M1472.5,-174.915C1476.52,-162.488 1481.61,-146.717 1484.71,-137.127"/>
<polygon fill="midnightblue" stroke="midnightblue" points="1469.08,-174.142 1469.33,-184.734 1475.74,-176.294 1469.08,-174.142"/>
</g>
</g>
</svg>
