<?xml version="1.0" encoding="UTF-8" standalone="no"?>
<!DOCTYPE svg PUBLIC "-//W3C//DTD SVG 1.1//EN"
 "http://www.w3.org/Graphics/SVG/1.1/DTD/svg11.dtd">
<!-- Generated by graphviz version 2.40.1 (20161225.0304)
 -->
<!-- Title: DGamRateProcess.h Pages: 1 -->
<svg width="440pt" height="196pt"
 viewBox="0.00 0.00 440.00 196.00" xmlns="http://www.w3.org/2000/svg" xmlns:xlink="http://www.w3.org/1999/xlink">
<g id="graph0" class="graph" transform="scale(1 1) rotate(0) translate(4 192)">
<title>DGamRateProcess.h</title>
<!-- Node7 -->
<g id="node1" class="node">
<title>Node7</title>
<polygon fill="#bfbfbf" stroke="#000000" points="97.5,-168.5 97.5,-187.5 207.5,-187.5 207.5,-168.5 97.5,-168.5"/>
<text text-anchor="middle" x="152.5" y="-175.5" font-family="Helvetica,sans-Serif" font-size="10.00" fill="#000000">DGamRateProcess.h</text>
</g>
<!-- Node8 -->
<g id="node2" class="node">
<title>Node8</title>
<g id="a_node2"><a xlink:href="DGamRateProcess_8cpp.html" target="_top" xlink:title="DGamRateProcess.cpp">
<polygon fill="none" stroke="#000000" points="0,-112.5 0,-131.5 121,-131.5 121,-112.5 0,-112.5"/>
<text text-anchor="middle" x="60.5" y="-119.5" font-family="Helvetica,sans-Serif" font-size="10.00" fill="#000000">DGamRateProcess.cpp</text>
</a>
</g>
</g>
<!-- Node7&#45;&gt;Node8 -->
<g id="edge1" class="edge">
<title>Node7&#45;&gt;Node8</title>
<path fill="none" stroke="#191970" d="M127.4776,-162.769C111.175,-152.8456 90.399,-140.1994 76.3415,-131.6427"/>
<polygon fill="#191970" stroke="#191970" points="126.113,-166.0357 136.4748,-168.2455 129.7527,-160.0563 126.113,-166.0357"/>
</g>
<!-- Node9 -->
<g id="node3" class="node">
<title>Node9</title>
<g id="a_node3"><a xlink:href="RASCATGTRSBDPGammaPhyloProcess_8h.html" target="_top" xlink:title="RASCATGTRSBDPGammaPhyloProcess.h">
<polygon fill="none" stroke="#000000" points="139.5,-112.5 139.5,-131.5 349.5,-131.5 349.5,-112.5 139.5,-112.5"/>
<text text-anchor="middle" x="244.5" y="-119.5" font-family="Helvetica,sans-Serif" font-size="10.00" fill="#000000">RASCATGTRSBDPGammaPhyloProcess.h</text>
</a>
</g>
</g>
<!-- Node7&#45;&gt;Node9 -->
<g id="edge2" class="edge">
<title>Node7&#45;&gt;Node9</title>
<path fill="none" stroke="#191970" d="M177.5224,-162.769C193.825,-152.8456 214.601,-140.1994 228.6585,-131.6427"/>
<polygon fill="#191970" stroke="#191970" points="175.2473,-160.0563 168.5252,-168.2455 178.887,-166.0357 175.2473,-160.0563"/>
</g>
<!-- Node10 -->
<g id="node4" class="node">
<title>Node10</title>
<g id="a_node4"><a xlink:href="Model_8h.html" target="_top" xlink:title="Model.h">
<polygon fill="none" stroke="#000000" points="142,-56.5 142,-75.5 193,-75.5 193,-56.5 142,-56.5"/>
<text text-anchor="middle" x="167.5" y="-63.5" font-family="Helvetica,sans-Serif" font-size="10.00" fill="#000000">Model.h</text>
</a>
</g>
</g>
<!-- Node9&#45;&gt;Node10 -->
<g id="edge3" class="edge">
<title>Node9&#45;&gt;Node10</title>
<path fill="none" stroke="#191970" d="M222.7884,-106.2097C209.2647,-96.3743 192.3042,-84.0394 180.7587,-75.6427"/>
<polygon fill="#191970" stroke="#191970" points="220.9416,-109.1944 231.0876,-112.2455 225.0589,-103.5332 220.9416,-109.1944"/>
</g>
<!-- Node12 -->
<g id="node6" class="node">
<title>Node12</title>
<g id="a_node6"><a xlink:href="RASCATGTRSBDPGammaPhyloProcess_8cpp.html" target="_top" xlink:title="RASCATGTRSBDPGammaPhyloProcess.cpp">
<polygon fill="none" stroke="#000000" points="211,-56.5 211,-75.5 432,-75.5 432,-56.5 211,-56.5"/>
<text text-anchor="middle" x="321.5" y="-63.5" font-family="Helvetica,sans-Serif" font-size="10.00" fill="#000000">RASCATGTRSBDPGammaPhyloProcess.cpp</text>
</a>
</g>
</g>
<!-- Node9&#45;&gt;Node12 -->
<g id="edge5" class="edge">
<title>Node9&#45;&gt;Node12</title>
<path fill="none" stroke="#191970" d="M266.2116,-106.2097C279.7353,-96.3743 296.6958,-84.0394 308.2413,-75.6427"/>
<polygon fill="#191970" stroke="#191970" points="263.9411,-103.5332 257.9124,-112.2455 268.0584,-109.1944 263.9411,-103.5332"/>
</g>
<!-- Node11 -->
<g id="node5" class="node">
<title>Node11</title>
<g id="a_node5"><a xlink:href="PB_8cpp.html" target="_top" xlink:title="PB.cpp">
<polygon fill="none" stroke="#000000" points="143,-.5 143,-19.5 192,-19.5 192,-.5 143,-.5"/>
<text text-anchor="middle" x="167.5" y="-7.5" font-family="Helvetica,sans-Serif" font-size="10.00" fill="#000000">PB.cpp</text>
</a>
</g>
</g>
<!-- Node10&#45;&gt;Node11 -->
<g id="edge4" class="edge">
<title>Node10&#45;&gt;Node11</title>
<path fill="none" stroke="#191970" d="M167.5,-46.1575C167.5,-37.155 167.5,-26.9199 167.5,-19.6427"/>
<polygon fill="#191970" stroke="#191970" points="164.0001,-46.2455 167.5,-56.2455 171.0001,-46.2456 164.0001,-46.2455"/>
</g>
</g>
</svg>
