<?xml version="1.0" encoding="UTF-8" standalone="no"?>
<!DOCTYPE svg PUBLIC "-//W3C//DTD SVG 1.1//EN"
 "http://www.w3.org/Graphics/SVG/1.1/DTD/svg11.dtd">
<!-- Generated by graphviz version 2.38.0 (20140413.2041)
 -->
<!-- Title: DGamRateProcess.cpp Pages: 1 -->
<svg width="659pt" height="252pt"
 viewBox="0.00 0.00 659.00 252.00" xmlns="http://www.w3.org/2000/svg" xmlns:xlink="http://www.w3.org/1999/xlink">
<g id="graph0" class="graph" transform="scale(1 1) rotate(0) translate(4 248)">
<title>DGamRateProcess.cpp</title>
<!-- Node0 -->
<g id="node1" class="node"><title>Node0</title>
<polygon fill="#bfbfbf" stroke="black" points="304.5,-224.5 304.5,-243.5 425.5,-243.5 425.5,-224.5 304.5,-224.5"/>
<text text-anchor="middle" x="365" y="-231.5" font-family="Helvetica,sans-Serif" font-size="10.00">DGamRateProcess.cpp</text>
</g>
<!-- Node1 -->
<g id="node2" class="node"><title>Node1</title>
<g id="a_node2"><a xlink:href="DGamRateProcess_8h.html" target="_top" xlink:title="DGamRateProcess.h">
<polygon fill="none" stroke="black" points="141,-168.5 141,-187.5 251,-187.5 251,-168.5 141,-168.5"/>
<text text-anchor="middle" x="196" y="-175.5" font-family="Helvetica,sans-Serif" font-size="10.00">DGamRateProcess.h</text>
</a>
</g>
</g>
<!-- Node0&#45;&gt;Node1 -->
<g id="edge1" class="edge"><title>Node0&#45;&gt;Node1</title>
<path fill="none" stroke="midnightblue" d="M338.221,-224.444C309.667,-215.32 264.267,-200.813 232.463,-190.651"/>
<polygon fill="midnightblue" stroke="midnightblue" points="233.244,-187.226 222.653,-187.516 231.114,-193.894 233.244,-187.226"/>
</g>
<!-- Node8 -->
<g id="node9" class="node"><title>Node8</title>
<g id="a_node9"><a xlink:href="Random_8h.html" target="_top" xlink:title="Random.h">
<polygon fill="none" stroke="black" points="270,-56.5 270,-75.5 332,-75.5 332,-56.5 270,-56.5"/>
<text text-anchor="middle" x="301" y="-63.5" font-family="Helvetica,sans-Serif" font-size="10.00">Random.h</text>
</a>
</g>
</g>
<!-- Node0&#45;&gt;Node8 -->
<g id="edge9" class="edge"><title>Node0&#45;&gt;Node8</title>
<path fill="none" stroke="midnightblue" d="M361.559,-224.075C351.441,-197.832 321.644,-120.545 307.985,-85.1165"/>
<polygon fill="midnightblue" stroke="midnightblue" points="311.166,-83.6396 304.303,-75.5681 304.635,-86.1578 311.166,-83.6396"/>
</g>
<!-- Node13 -->
<g id="node14" class="node"><title>Node13</title>
<g id="a_node14"><a xlink:href="IncompleteGamma_8h.html" target="_top" xlink:title="IncompleteGamma.h">
<polygon fill="none" stroke="black" points="350.5,-56.5 350.5,-75.5 457.5,-75.5 457.5,-56.5 350.5,-56.5"/>
<text text-anchor="middle" x="404" y="-63.5" font-family="Helvetica,sans-Serif" font-size="10.00">IncompleteGamma.h</text>
</a>
</g>
</g>
<!-- Node0&#45;&gt;Node13 -->
<g id="edge16" class="edge"><title>Node0&#45;&gt;Node13</title>
<path fill="none" stroke="midnightblue" d="M362.37,-224.494C358.888,-211.989 353.668,-187.965 358,-168 364.746,-136.912 381.924,-103.913 393.272,-84.3987"/>
<polygon fill="midnightblue" stroke="midnightblue" points="396.323,-86.1169 398.446,-75.7371 390.313,-82.5271 396.323,-86.1169"/>
</g>
<!-- Node16 -->
<g id="node17" class="node"><title>Node16</title>
<polygon fill="none" stroke="#bfbfbf" points="367.5,-168.5 367.5,-187.5 416.5,-187.5 416.5,-168.5 367.5,-168.5"/>
<text text-anchor="middle" x="392" y="-175.5" font-family="Helvetica,sans-Serif" font-size="10.00">cassert</text>
</g>
<!-- Node0&#45;&gt;Node16 -->
<g id="edge25" class="edge"><title>Node0&#45;&gt;Node16</title>
<path fill="none" stroke="midnightblue" d="M369.459,-224.083C373.154,-216.691 378.523,-205.953 383.094,-196.811"/>
<polygon fill="midnightblue" stroke="midnightblue" points="386.283,-198.261 387.624,-187.751 380.022,-195.13 386.283,-198.261"/>
</g>
<!-- Node17 -->
<g id="node18" class="node"><title>Node17</title>
<g id="a_node18"><a xlink:href="Parallel_8h.html" target="_top" xlink:title="Parallel.h">
<polygon fill="none" stroke="black" points="434.5,-168.5 434.5,-187.5 491.5,-187.5 491.5,-168.5 434.5,-168.5"/>
<text text-anchor="middle" x="463" y="-175.5" font-family="Helvetica,sans-Serif" font-size="10.00">Parallel.h</text>
</a>
</g>
</g>
<!-- Node0&#45;&gt;Node17 -->
<g id="edge26" class="edge"><title>Node0&#45;&gt;Node17</title>
<path fill="none" stroke="midnightblue" d="M380.745,-224.324C396.319,-215.743 420.377,-202.486 438.459,-192.522"/>
<polygon fill="midnightblue" stroke="midnightblue" points="440.224,-195.546 447.294,-187.655 436.846,-189.415 440.224,-195.546"/>
</g>
<!-- Node19 -->
<g id="node20" class="node"><title>Node19</title>
<polygon fill="none" stroke="#bfbfbf" points="509.5,-168.5 509.5,-187.5 558.5,-187.5 558.5,-168.5 509.5,-168.5"/>
<text text-anchor="middle" x="534" y="-175.5" font-family="Helvetica,sans-Serif" font-size="10.00">string.h</text>
</g>
<!-- Node0&#45;&gt;Node19 -->
<g id="edge28" class="edge"><title>Node0&#45;&gt;Node19</title>
<path fill="none" stroke="midnightblue" d="M391.779,-224.444C420.921,-215.132 467.609,-200.214 499.484,-190.029"/>
<polygon fill="midnightblue" stroke="midnightblue" points="500.811,-193.279 509.271,-186.902 498.68,-186.611 500.811,-193.279"/>
</g>
<!-- Node2 -->
<g id="node3" class="node"><title>Node2</title>
<g id="a_node3"><a xlink:href="RateProcess_8h.html" target="_top" xlink:title="RateProcess.h">
<polygon fill="none" stroke="black" points="130,-112.5 130,-131.5 212,-131.5 212,-112.5 130,-112.5"/>
<text text-anchor="middle" x="171" y="-119.5" font-family="Helvetica,sans-Serif" font-size="10.00">RateProcess.h</text>
</a>
</g>
</g>
<!-- Node1&#45;&gt;Node2 -->
<g id="edge2" class="edge"><title>Node1&#45;&gt;Node2</title>
<path fill="none" stroke="midnightblue" d="M191.872,-168.083C188.486,-160.77 183.584,-150.181 179.381,-141.103"/>
<polygon fill="midnightblue" stroke="midnightblue" points="182.429,-139.355 175.051,-131.751 176.077,-142.296 182.429,-139.355"/>
</g>
<!-- Node3 -->
<g id="node4" class="node"><title>Node3</title>
<polygon fill="none" stroke="#bfbfbf" points="80,-0.5 80,-19.5 134,-19.5 134,-0.5 80,-0.5"/>
<text text-anchor="middle" x="107" y="-7.5" font-family="Helvetica,sans-Serif" font-size="10.00">iostream</text>
</g>
<!-- Node2&#45;&gt;Node3 -->
<g id="edge3" class="edge"><title>Node2&#45;&gt;Node3</title>
<path fill="none" stroke="midnightblue" d="M162.502,-112.288C154.394,-103.63 142.229,-89.699 134,-76 125.063,-61.1222 117.732,-42.7452 112.975,-29.3314"/>
<polygon fill="midnightblue" stroke="midnightblue" points="116.267,-28.1386 109.731,-19.7995 109.64,-30.3939 116.267,-28.1386"/>
</g>
<!-- Node4 -->
<g id="node5" class="node"><title>Node4</title>
<g id="a_node5"><a xlink:href="Chrono_8h.html" target="_top" xlink:title="Chrono.h">
<polygon fill="none" stroke="black" points="143,-56.5 143,-75.5 199,-75.5 199,-56.5 143,-56.5"/>
<text text-anchor="middle" x="171" y="-63.5" font-family="Helvetica,sans-Serif" font-size="10.00">Chrono.h</text>
</a>
</g>
</g>
<!-- Node2&#45;&gt;Node4 -->
<g id="edge4" class="edge"><title>Node2&#45;&gt;Node4</title>
<path fill="none" stroke="midnightblue" d="M171,-112.083C171,-105.006 171,-94.8611 171,-85.9865"/>
<polygon fill="midnightblue" stroke="midnightblue" points="174.5,-85.751 171,-75.7511 167.5,-85.7511 174.5,-85.751"/>
</g>
<!-- Node4&#45;&gt;Node3 -->
<g id="edge7" class="edge"><title>Node4&#45;&gt;Node3</title>
<path fill="none" stroke="midnightblue" d="M160.717,-56.324C151.164,-48.2631 136.72,-36.0765 125.216,-26.3695"/>
<polygon fill="midnightblue" stroke="midnightblue" points="127.37,-23.6076 117.47,-19.8339 122.856,-28.9577 127.37,-23.6076"/>
</g>
<!-- Node5 -->
<g id="node6" class="node"><title>Node5</title>
<polygon fill="none" stroke="#bfbfbf" points="152.5,-0.5 152.5,-19.5 193.5,-19.5 193.5,-0.5 152.5,-0.5"/>
<text text-anchor="middle" x="173" y="-7.5" font-family="Helvetica,sans-Serif" font-size="10.00">ctime</text>
</g>
<!-- Node4&#45;&gt;Node5 -->
<g id="edge5" class="edge"><title>Node4&#45;&gt;Node5</title>
<path fill="none" stroke="midnightblue" d="M171.33,-56.083C171.592,-49.0059 171.968,-38.8611 172.297,-29.9865"/>
<polygon fill="midnightblue" stroke="midnightblue" points="175.803,-29.8738 172.676,-19.7511 168.808,-29.6147 175.803,-29.8738"/>
</g>
<!-- Node6 -->
<g id="node7" class="node"><title>Node6</title>
<polygon fill="none" stroke="#bfbfbf" points="0,-0.5 0,-19.5 62,-19.5 62,-0.5 0,-0.5"/>
<text text-anchor="middle" x="31" y="-7.5" font-family="Helvetica,sans-Serif" font-size="10.00">sys/time.h</text>
</g>
<!-- Node4&#45;&gt;Node6 -->
<g id="edge6" class="edge"><title>Node4&#45;&gt;Node6</title>
<path fill="none" stroke="midnightblue" d="M148.817,-56.4435C125.572,-47.4776 88.8512,-33.314 62.5848,-23.1827"/>
<polygon fill="midnightblue" stroke="midnightblue" points="63.6692,-19.8497 53.0796,-19.5164 61.1501,-26.3807 63.6692,-19.8497"/>
</g>
<!-- Node7 -->
<g id="node8" class="node"><title>Node7</title>
<polygon fill="none" stroke="#bfbfbf" points="211.5,-0.5 211.5,-19.5 256.5,-19.5 256.5,-0.5 211.5,-0.5"/>
<text text-anchor="middle" x="234" y="-7.5" font-family="Helvetica,sans-Serif" font-size="10.00">cstdlib</text>
</g>
<!-- Node4&#45;&gt;Node7 -->
<g id="edge8" class="edge"><title>Node4&#45;&gt;Node7</title>
<path fill="none" stroke="midnightblue" d="M181.122,-56.324C190.526,-48.2631 204.744,-36.0765 216.069,-26.3695"/>
<polygon fill="midnightblue" stroke="midnightblue" points="218.379,-28.9993 223.694,-19.8339 213.823,-23.6844 218.379,-28.9993"/>
</g>
<!-- Node8&#45;&gt;Node3 -->
<g id="edge12" class="edge"><title>Node8&#45;&gt;Node3</title>
<path fill="none" stroke="midnightblue" d="M270.26,-56.4435C235.982,-46.9021 180.556,-31.4744 143.946,-21.2841"/>
<polygon fill="midnightblue" stroke="midnightblue" points="144.725,-17.8678 134.153,-18.558 142.848,-24.6114 144.725,-17.8678"/>
</g>
<!-- Node8&#45;&gt;Node7 -->
<g id="edge11" class="edge"><title>Node8&#45;&gt;Node7</title>
<path fill="none" stroke="midnightblue" d="M290.235,-56.324C280.234,-48.2631 265.113,-36.0765 253.07,-26.3695"/>
<polygon fill="midnightblue" stroke="midnightblue" points="254.943,-23.3841 244.961,-19.8339 250.55,-28.8343 254.943,-23.3841"/>
</g>
<!-- Node9 -->
<g id="node10" class="node"><title>Node9</title>
<polygon fill="none" stroke="#bfbfbf" points="345,-0.5 345,-19.5 389,-19.5 389,-0.5 345,-0.5"/>
<text text-anchor="middle" x="367" y="-7.5" font-family="Helvetica,sans-Serif" font-size="10.00">cmath</text>
</g>
<!-- Node8&#45;&gt;Node9 -->
<g id="edge10" class="edge"><title>Node8&#45;&gt;Node9</title>
<path fill="none" stroke="midnightblue" d="M311.604,-56.324C321.456,-48.2631 336.351,-36.0765 348.215,-26.3695"/>
<polygon fill="midnightblue" stroke="midnightblue" points="350.68,-28.8752 356.203,-19.8339 346.247,-23.4575 350.68,-28.8752"/>
</g>
<!-- Node10 -->
<g id="node11" class="node"><title>Node10</title>
<polygon fill="none" stroke="#bfbfbf" points="275,-0.5 275,-19.5 327,-19.5 327,-0.5 275,-0.5"/>
<text text-anchor="middle" x="301" y="-7.5" font-family="Helvetica,sans-Serif" font-size="10.00">sstream</text>
</g>
<!-- Node8&#45;&gt;Node10 -->
<g id="edge13" class="edge"><title>Node8&#45;&gt;Node10</title>
<path fill="none" stroke="midnightblue" d="M301,-56.083C301,-49.0059 301,-38.8611 301,-29.9865"/>
<polygon fill="midnightblue" stroke="midnightblue" points="304.5,-29.751 301,-19.7511 297.5,-29.7511 304.5,-29.751"/>
</g>
<!-- Node11 -->
<g id="node12" class="node"><title>Node11</title>
<polygon fill="none" stroke="#bfbfbf" points="407,-0.5 407,-19.5 457,-19.5 457,-0.5 407,-0.5"/>
<text text-anchor="middle" x="432" y="-7.5" font-family="Helvetica,sans-Serif" font-size="10.00">iomanip</text>
</g>
<!-- Node8&#45;&gt;Node11 -->
<g id="edge14" class="edge"><title>Node8&#45;&gt;Node11</title>
<path fill="none" stroke="midnightblue" d="M321.757,-56.4435C343.316,-47.5566 377.263,-33.5632 401.794,-23.4514"/>
<polygon fill="midnightblue" stroke="midnightblue" points="403.428,-26.5634 411.34,-19.5164 400.761,-20.0917 403.428,-26.5634"/>
</g>
<!-- Node12 -->
<g id="node13" class="node"><title>Node12</title>
<polygon fill="none" stroke="#bfbfbf" points="475,-0.5 475,-19.5 525,-19.5 525,-0.5 475,-0.5"/>
<text text-anchor="middle" x="500" y="-7.5" font-family="Helvetica,sans-Serif" font-size="10.00">fstream</text>
</g>
<!-- Node8&#45;&gt;Node12 -->
<g id="edge15" class="edge"><title>Node8&#45;&gt;Node12</title>
<path fill="none" stroke="midnightblue" d="M332.094,-56.5625C368.065,-46.8015 427.155,-30.7671 464.788,-20.555"/>
<polygon fill="midnightblue" stroke="midnightblue" points="466.062,-23.8359 474.797,-17.8391 464.229,-17.0802 466.062,-23.8359"/>
</g>
<!-- Node13&#45;&gt;Node3 -->
<g id="edge20" class="edge"><title>Node13&#45;&gt;Node3</title>
<path fill="none" stroke="midnightblue" d="M350.293,-56.9345C299.54,-49.0436 221.074,-36.1517 143.961,-20.0778"/>
<polygon fill="midnightblue" stroke="midnightblue" points="144.583,-16.6321 134.077,-17.9981 143.142,-23.4821 144.583,-16.6321"/>
</g>
<!-- Node13&#45;&gt;Node5 -->
<g id="edge23" class="edge"><title>Node13&#45;&gt;Node5</title>
<path fill="none" stroke="midnightblue" d="M360.801,-56.443C321.897,-48.4989 262.962,-35.8782 203.472,-20.2399"/>
<polygon fill="midnightblue" stroke="midnightblue" points="204.098,-16.7849 193.535,-17.6004 202.301,-23.5503 204.098,-16.7849"/>
</g>
<!-- Node13&#45;&gt;Node7 -->
<g id="edge17" class="edge"><title>Node13&#45;&gt;Node7</title>
<path fill="none" stroke="midnightblue" d="M377.063,-56.4435C347.072,-46.9171 298.609,-31.5228 266.527,-21.3321"/>
<polygon fill="midnightblue" stroke="midnightblue" points="267.321,-17.912 256.731,-18.2203 265.202,-24.5835 267.321,-17.912"/>
</g>
<!-- Node13&#45;&gt;Node9 -->
<g id="edge19" class="edge"><title>Node13&#45;&gt;Node9</title>
<path fill="none" stroke="midnightblue" d="M397.89,-56.083C392.718,-48.5341 385.154,-37.4948 378.806,-28.2298"/>
<polygon fill="midnightblue" stroke="midnightblue" points="381.536,-26.0221 372.996,-19.7511 375.761,-29.9787 381.536,-26.0221"/>
</g>
<!-- Node13&#45;&gt;Node11 -->
<g id="edge22" class="edge"><title>Node13&#45;&gt;Node11</title>
<path fill="none" stroke="midnightblue" d="M408.624,-56.083C412.456,-48.6913 418.024,-37.9533 422.765,-28.8111"/>
<polygon fill="midnightblue" stroke="midnightblue" points="425.966,-30.2398 427.462,-19.7511 419.752,-27.0175 425.966,-30.2398"/>
</g>
<!-- Node13&#45;&gt;Node12 -->
<g id="edge21" class="edge"><title>Node13&#45;&gt;Node12</title>
<path fill="none" stroke="midnightblue" d="M419.424,-56.324C434.54,-47.8215 457.815,-34.7288 475.471,-24.7975"/>
<polygon fill="midnightblue" stroke="midnightblue" points="477.614,-27.6077 484.614,-19.6545 474.183,-21.5066 477.614,-27.6077"/>
</g>
<!-- Node14 -->
<g id="node15" class="node"><title>Node14</title>
<polygon fill="none" stroke="#bfbfbf" points="543.5,-0.5 543.5,-19.5 586.5,-19.5 586.5,-0.5 543.5,-0.5"/>
<text text-anchor="middle" x="565" y="-7.5" font-family="Helvetica,sans-Serif" font-size="10.00">cstdio</text>
</g>
<!-- Node13&#45;&gt;Node14 -->
<g id="edge18" class="edge"><title>Node13&#45;&gt;Node14</title>
<path fill="none" stroke="midnightblue" d="M429.511,-56.4435C457.711,-46.985 503.158,-31.7421 533.542,-21.551"/>
<polygon fill="midnightblue" stroke="midnightblue" points="534.855,-24.8025 543.223,-18.3042 532.629,-18.1659 534.855,-24.8025"/>
</g>
<!-- Node15 -->
<g id="node16" class="node"><title>Node15</title>
<polygon fill="none" stroke="#bfbfbf" points="605,-0.5 605,-19.5 651,-19.5 651,-0.5 605,-0.5"/>
<text text-anchor="middle" x="628" y="-7.5" font-family="Helvetica,sans-Serif" font-size="10.00">cstring</text>
</g>
<!-- Node13&#45;&gt;Node15 -->
<g id="edge24" class="edge"><title>Node13&#45;&gt;Node15</title>
<path fill="none" stroke="midnightblue" d="M442.736,-56.4465C479.552,-48.2003 536.695,-35.0998 595.183,-20.1277"/>
<polygon fill="midnightblue" stroke="midnightblue" points="596.149,-23.4932 604.961,-17.6103 594.404,-16.7143 596.149,-23.4932"/>
</g>
<!-- Node18 -->
<g id="node19" class="node"><title>Node18</title>
<polygon fill="none" stroke="#bfbfbf" points="442.5,-112.5 442.5,-131.5 483.5,-131.5 483.5,-112.5 442.5,-112.5"/>
<text text-anchor="middle" x="463" y="-119.5" font-family="Helvetica,sans-Serif" font-size="10.00">mpi.h</text>
</g>
<!-- Node17&#45;&gt;Node18 -->
<g id="edge27" class="edge"><title>Node17&#45;&gt;Node18</title>
<path fill="none" stroke="midnightblue" d="M463,-168.083C463,-161.006 463,-150.861 463,-141.986"/>
<polygon fill="midnightblue" stroke="midnightblue" points="466.5,-141.751 463,-131.751 459.5,-141.751 466.5,-141.751"/>
</g>
</g>
</svg>
