<?xml version="1.0" encoding="UTF-8" standalone="no"?>
<!DOCTYPE svg PUBLIC "-//W3C//DTD SVG 1.1//EN"
 "http://www.w3.org/Graphics/SVG/1.1/DTD/svg11.dtd">
<!-- Generated by graphviz version 2.40.1 (20161225.0304)
 -->
<!-- Title: DGamRateProcess.h Pages: 1 -->
<svg width="588pt" height="196pt"
 viewBox="0.00 0.00 588.00 196.00" xmlns="http://www.w3.org/2000/svg" xmlns:xlink="http://www.w3.org/1999/xlink">
<g id="graph0" class="graph" transform="scale(1 1) rotate(0) translate(4 192)">
<title>DGamRateProcess.h</title>
<!-- Node7 -->
<g id="node1" class="node">
<title>Node7</title>
<polygon fill="#bfbfbf" stroke="#000000" points="189.5,-168.5 189.5,-187.5 299.5,-187.5 299.5,-168.5 189.5,-168.5"/>
<text text-anchor="middle" x="244.5" y="-175.5" font-family="Helvetica,sans-Serif" font-size="10.00" fill="#000000">DGamRateProcess.h</text>
</g>
<!-- Node8 -->
<g id="node2" class="node">
<title>Node8</title>
<g id="a_node2"><a xlink:href="DGamRateProcess_8cpp.html" target="_top" xlink:title="DGamRateProcess.cpp">
<polygon fill="none" stroke="#000000" points="0,-112.5 0,-131.5 121,-131.5 121,-112.5 0,-112.5"/>
<text text-anchor="middle" x="60.5" y="-119.5" font-family="Helvetica,sans-Serif" font-size="10.00" fill="#000000">DGamRateProcess.cpp</text>
</a>
</g>
</g>
<!-- Node7&#45;&gt;Node8 -->
<g id="edge1" class="edge">
<title>Node7&#45;&gt;Node8</title>
<path fill="none" stroke="#191970" d="M203.2843,-165.4561C169.5084,-155.1765 122.4337,-140.8494 91.718,-131.5011"/>
<polygon fill="#191970" stroke="#191970" points="202.2834,-168.8099 212.8693,-168.3733 204.3216,-162.1132 202.2834,-168.8099"/>
</g>
<!-- Node9 -->
<g id="node3" class="node">
<title>Node9</title>
<g id="a_node3"><a xlink:href="RASCATGTRSBDPGammaPhyloProcess_8h.html" target="_top" xlink:title="RASCATGTRSBDPGammaPhyloProcess.h">
<polygon fill="none" stroke="#000000" points="139.5,-112.5 139.5,-131.5 349.5,-131.5 349.5,-112.5 139.5,-112.5"/>
<text text-anchor="middle" x="244.5" y="-119.5" font-family="Helvetica,sans-Serif" font-size="10.00" fill="#000000">RASCATGTRSBDPGammaPhyloProcess.h</text>
</a>
</g>
</g>
<!-- Node7&#45;&gt;Node9 -->
<g id="edge2" class="edge">
<title>Node7&#45;&gt;Node9</title>
<path fill="none" stroke="#191970" d="M244.5,-158.1575C244.5,-149.155 244.5,-138.9199 244.5,-131.6427"/>
<polygon fill="#191970" stroke="#191970" points="241.0001,-158.2455 244.5,-168.2455 248.0001,-158.2456 241.0001,-158.2455"/>
</g>
<!-- Node13 -->
<g id="node7" class="node">
<title>Node13</title>
<g id="a_node7"><a xlink:href="RASCATGTRDPGammaPhyloProcess_8h.html" target="_top" xlink:title="RASCATGTRDPGammaPhyloProcess.h">
<polygon fill="none" stroke="#000000" points="373,-112.5 373,-131.5 570,-131.5 570,-112.5 373,-112.5"/>
<text text-anchor="middle" x="471.5" y="-119.5" font-family="Helvetica,sans-Serif" font-size="10.00" fill="#000000">RASCATGTRDPGammaPhyloProcess.h</text>
</a>
</g>
</g>
<!-- Node7&#45;&gt;Node13 -->
<g id="edge6" class="edge">
<title>Node7&#45;&gt;Node13</title>
<path fill="none" stroke="#191970" d="M293.2158,-165.982C334.9833,-155.6781 394.3481,-141.0331 432.8951,-131.5237"/>
<polygon fill="#191970" stroke="#191970" points="292.1354,-162.6435 283.2648,-168.4369 293.812,-169.4398 292.1354,-162.6435"/>
</g>
<!-- Node10 -->
<g id="node4" class="node">
<title>Node10</title>
<g id="a_node4"><a xlink:href="Model_8h.html" target="_top" xlink:title="Model.h">
<polygon fill="none" stroke="#000000" points="65,-56.5 65,-75.5 116,-75.5 116,-56.5 65,-56.5"/>
<text text-anchor="middle" x="90.5" y="-63.5" font-family="Helvetica,sans-Serif" font-size="10.00" fill="#000000">Model.h</text>
</a>
</g>
</g>
<!-- Node9&#45;&gt;Node10 -->
<g id="edge3" class="edge">
<title>Node9&#45;&gt;Node10</title>
<path fill="none" stroke="#191970" d="M208.4782,-108.9012C180.1407,-98.5966 141.3545,-84.4925 116.1164,-75.315"/>
<polygon fill="#191970" stroke="#191970" points="207.4324,-112.245 218.0265,-112.3733 209.8246,-105.6665 207.4324,-112.245"/>
</g>
<!-- Node12 -->
<g id="node6" class="node">
<title>Node12</title>
<g id="a_node6"><a xlink:href="RASCATGTRSBDPGammaPhyloProcess_8cpp.html" target="_top" xlink:title="RASCATGTRSBDPGammaPhyloProcess.cpp">
<polygon fill="none" stroke="#000000" points="134,-56.5 134,-75.5 355,-75.5 355,-56.5 134,-56.5"/>
<text text-anchor="middle" x="244.5" y="-63.5" font-family="Helvetica,sans-Serif" font-size="10.00" fill="#000000">RASCATGTRSBDPGammaPhyloProcess.cpp</text>
</a>
</g>
</g>
<!-- Node9&#45;&gt;Node12 -->
<g id="edge5" class="edge">
<title>Node9&#45;&gt;Node12</title>
<path fill="none" stroke="#191970" d="M244.5,-102.1575C244.5,-93.155 244.5,-82.9199 244.5,-75.6427"/>
<polygon fill="#191970" stroke="#191970" points="241.0001,-102.2455 244.5,-112.2455 248.0001,-102.2456 241.0001,-102.2455"/>
</g>
<!-- Node11 -->
<g id="node5" class="node">
<title>Node11</title>
<g id="a_node5"><a xlink:href="PB_8cpp.html" target="_top" xlink:title="PB.cpp">
<polygon fill="none" stroke="#000000" points="66,-.5 66,-19.5 115,-19.5 115,-.5 66,-.5"/>
<text text-anchor="middle" x="90.5" y="-7.5" font-family="Helvetica,sans-Serif" font-size="10.00" fill="#000000">PB.cpp</text>
</a>
</g>
</g>
<!-- Node10&#45;&gt;Node11 -->
<g id="edge4" class="edge">
<title>Node10&#45;&gt;Node11</title>
<path fill="none" stroke="#191970" d="M90.5,-46.1575C90.5,-37.155 90.5,-26.9199 90.5,-19.6427"/>
<polygon fill="#191970" stroke="#191970" points="87.0001,-46.2455 90.5,-56.2455 94.0001,-46.2456 87.0001,-46.2455"/>
</g>
<!-- Node14 -->
<g id="node8" class="node">
<title>Node14</title>
<g id="a_node8"><a xlink:href="RASCATGTRDPGammaPhyloProcess_8cpp.html" target="_top" xlink:title="RASCATGTRDPGammaPhyloProcess.cpp">
<polygon fill="none" stroke="#000000" points="373,-56.5 373,-75.5 580,-75.5 580,-56.5 373,-56.5"/>
<text text-anchor="middle" x="476.5" y="-63.5" font-family="Helvetica,sans-Serif" font-size="10.00" fill="#000000">RASCATGTRDPGammaPhyloProcess.cpp</text>
</a>
</g>
</g>
<!-- Node13&#45;&gt;Node14 -->
<g id="edge7" class="edge">
<title>Node13&#45;&gt;Node14</title>
<path fill="none" stroke="#191970" d="M473.2717,-102.1575C474.0754,-93.155 474.9893,-82.9199 475.639,-75.6427"/>
<polygon fill="#191970" stroke="#191970" points="469.7742,-101.9739 472.3709,-112.2455 476.7465,-102.5965 469.7742,-101.9739"/>
</g>
</g>
</svg>
