<?xml version="1.0" encoding="UTF-8" standalone="no"?>
<!DOCTYPE svg PUBLIC "-//W3C//DTD SVG 1.1//EN"
 "http://www.w3.org/Graphics/SVG/1.1/DTD/svg11.dtd">
<!-- Generated by graphviz version 2.40.1 (20161225.0304)
 -->
<!-- Title: DPProfileProcess.h Pages: 1 -->
<svg width="923pt" height="397pt"
 viewBox="0.00 0.00 922.50 397.00" xmlns="http://www.w3.org/2000/svg" xmlns:xlink="http://www.w3.org/1999/xlink">
<g id="graph0" class="graph" transform="scale(1 1) rotate(0) translate(4 393)">
<title>DPProfileProcess.h</title>
<!-- Node13 -->
<g id="node1" class="node">
<title>Node13</title>
<polygon fill="#bfbfbf" stroke="#000000" points="342.5,-369.5 342.5,-388.5 445.5,-388.5 445.5,-369.5 342.5,-369.5"/>
<text text-anchor="middle" x="394" y="-376.5" font-family="Helvetica,sans-Serif" font-size="10.00" fill="#000000">DPProfileProcess.h</text>
</g>
<!-- Node14 -->
<g id="node2" class="node">
<title>Node14</title>
<g id="a_node2"><a xlink:href="DPProfileProcess_8cpp.html" target="_top" xlink:title="DPProfileProcess.cpp">
<polygon fill="none" stroke="#000000" points="197.5,-313.5 197.5,-332.5 310.5,-332.5 310.5,-313.5 197.5,-313.5"/>
<text text-anchor="middle" x="254" y="-320.5" font-family="Helvetica,sans-Serif" font-size="10.00" fill="#000000">DPProfileProcess.cpp</text>
</a>
</g>
</g>
<!-- Node13&#45;&gt;Node14 -->
<g id="edge1" class="edge">
<title>Node13&#45;&gt;Node14</title>
<path fill="none" stroke="#191970" d="M360.6351,-365.6541C335.1048,-355.4419 300.5216,-341.6086 277.7528,-332.5011"/>
<polygon fill="#191970" stroke="#191970" points="359.3485,-368.909 369.9331,-369.3733 361.9483,-362.4096 359.3485,-368.909"/>
</g>
<!-- Node15 -->
<g id="node3" class="node">
<title>Node15</title>
<g id="a_node3"><a xlink:href="MatrixDPProfileProcess_8h.html" target="_top" xlink:title="MatrixDPProfileProcess.h">
<polygon fill="none" stroke="#000000" points="329,-313.5 329,-332.5 459,-332.5 459,-313.5 329,-313.5"/>
<text text-anchor="middle" x="394" y="-320.5" font-family="Helvetica,sans-Serif" font-size="10.00" fill="#000000">MatrixDPProfileProcess.h</text>
</a>
</g>
</g>
<!-- Node13&#45;&gt;Node15 -->
<g id="edge2" class="edge">
<title>Node13&#45;&gt;Node15</title>
<path fill="none" stroke="#191970" d="M394,-359.1575C394,-350.155 394,-339.9199 394,-332.6427"/>
<polygon fill="#191970" stroke="#191970" points="390.5001,-359.2455 394,-369.2455 397.5001,-359.2456 390.5001,-359.2455"/>
</g>
<!-- Node21 -->
<g id="node9" class="node">
<title>Node21</title>
<g id="a_node9"><a xlink:href="SBDPProfileProcess_8h.html" target="_top" xlink:title="SBDPProfileProcess.h">
<polygon fill="none" stroke="#000000" points="496,-313.5 496,-332.5 612,-332.5 612,-313.5 496,-313.5"/>
<text text-anchor="middle" x="554" y="-320.5" font-family="Helvetica,sans-Serif" font-size="10.00" fill="#000000">SBDPProfileProcess.h</text>
</a>
</g>
</g>
<!-- Node13&#45;&gt;Node21 -->
<g id="edge8" class="edge">
<title>Node13&#45;&gt;Node21</title>
<path fill="none" stroke="#191970" d="M430.9799,-366.057C460.2618,-355.8084 500.4885,-341.729 526.8539,-332.5011"/>
<polygon fill="#191970" stroke="#191970" points="429.7873,-362.7662 421.505,-369.3733 432.0998,-369.3732 429.7873,-362.7662"/>
</g>
<!-- Node16 -->
<g id="node4" class="node">
<title>Node16</title>
<g id="a_node4"><a xlink:href="ExpoConjugateGTRDPProfileProcess_8h.html" target="_top" xlink:title="ExpoConjugateGTRDPProfile\lProcess.h">
<polygon fill="none" stroke="#000000" points="160,-246.5 160,-276.5 306,-276.5 306,-246.5 160,-246.5"/>
<text text-anchor="start" x="168" y="-264.5" font-family="Helvetica,sans-Serif" font-size="10.00" fill="#000000">ExpoConjugateGTRDPProfile</text>
<text text-anchor="middle" x="233" y="-253.5" font-family="Helvetica,sans-Serif" font-size="10.00" fill="#000000">Process.h</text>
</a>
</g>
</g>
<!-- Node15&#45;&gt;Node16 -->
<g id="edge3" class="edge">
<title>Node15&#45;&gt;Node16</title>
<path fill="none" stroke="#191970" d="M359.1986,-309.7063C333.6586,-299.9503 298.9416,-286.6889 272.385,-276.5446"/>
<polygon fill="#191970" stroke="#191970" points="358.2531,-313.0917 368.8438,-313.3906 360.751,-306.5526 358.2531,-313.0917"/>
</g>
<!-- Node20 -->
<g id="node8" class="node">
<title>Node20</title>
<g id="a_node8"><a xlink:href="MatrixDPProfileProcess_8cpp.html" target="_top" xlink:title="MatrixDPProfileProcess.cpp">
<polygon fill="none" stroke="#000000" points="324,-252 324,-271 464,-271 464,-252 324,-252"/>
<text text-anchor="middle" x="394" y="-259" font-family="Helvetica,sans-Serif" font-size="10.00" fill="#000000">MatrixDPProfileProcess.cpp</text>
</a>
</g>
</g>
<!-- Node15&#45;&gt;Node20 -->
<g id="edge7" class="edge">
<title>Node15&#45;&gt;Node20</title>
<path fill="none" stroke="#191970" d="M394,-303.2462C394,-292.5519 394,-279.814 394,-271.2449"/>
<polygon fill="#191970" stroke="#191970" points="390.5001,-303.3906 394,-313.3906 397.5001,-303.3907 390.5001,-303.3906"/>
</g>
<!-- Node17 -->
<g id="node5" class="node">
<title>Node17</title>
<g id="a_node5"><a xlink:href="ExpoConjugateGTRDPProfileProcess_8cpp.html" target="_top" xlink:title="ExpoConjugateGTRDPProfile\lProcess.cpp">
<polygon fill="none" stroke="#000000" points="0,-179.5 0,-209.5 146,-209.5 146,-179.5 0,-179.5"/>
<text text-anchor="start" x="8" y="-197.5" font-family="Helvetica,sans-Serif" font-size="10.00" fill="#000000">ExpoConjugateGTRDPProfile</text>
<text text-anchor="middle" x="73" y="-186.5" font-family="Helvetica,sans-Serif" font-size="10.00" fill="#000000">Process.cpp</text>
</a>
</g>
</g>
<!-- Node16&#45;&gt;Node17 -->
<g id="edge4" class="edge">
<title>Node16&#45;&gt;Node17</title>
<path fill="none" stroke="#191970" d="M187.841,-242.5897C162.9147,-232.1518 132.3801,-219.3654 109.0637,-209.6017"/>
<polygon fill="#191970" stroke="#191970" points="186.517,-245.8297 197.0929,-246.4639 189.2208,-239.3729 186.517,-245.8297"/>
</g>
<!-- Node18 -->
<g id="node6" class="node">
<title>Node18</title>
<g id="a_node6"><a xlink:href="RASCATGTRDPGammaPhyloProcess_8h.html" target="_top" xlink:title="RASCATGTRDPGammaPhyloProcess.h">
<polygon fill="none" stroke="#000000" points="164.5,-185 164.5,-204 361.5,-204 361.5,-185 164.5,-185"/>
<text text-anchor="middle" x="263" y="-192" font-family="Helvetica,sans-Serif" font-size="10.00" fill="#000000">RASCATGTRDPGammaPhyloProcess.h</text>
</a>
</g>
</g>
<!-- Node16&#45;&gt;Node18 -->
<g id="edge5" class="edge">
<title>Node16&#45;&gt;Node18</title>
<path fill="none" stroke="#191970" d="M243.9001,-237.1564C249.0367,-225.6846 254.8681,-212.6613 258.7217,-204.055"/>
<polygon fill="#191970" stroke="#191970" points="240.6998,-235.7395 239.8075,-246.2967 247.0886,-238.6002 240.6998,-235.7395"/>
</g>
<!-- Node19 -->
<g id="node7" class="node">
<title>Node19</title>
<g id="a_node7"><a xlink:href="RASCATGTRDPGammaPhyloProcess_8cpp.html" target="_top" xlink:title="RASCATGTRDPGammaPhyloProcess.cpp">
<polygon fill="none" stroke="#000000" points="159.5,-118 159.5,-137 366.5,-137 366.5,-118 159.5,-118"/>
<text text-anchor="middle" x="263" y="-125" font-family="Helvetica,sans-Serif" font-size="10.00" fill="#000000">RASCATGTRDPGammaPhyloProcess.cpp</text>
</a>
</g>
</g>
<!-- Node18&#45;&gt;Node19 -->
<g id="edge6" class="edge">
<title>Node18&#45;&gt;Node19</title>
<path fill="none" stroke="#191970" d="M263,-174.6079C263,-162.214 263,-146.8263 263,-137.0817"/>
<polygon fill="#191970" stroke="#191970" points="259.5001,-174.9005 263,-184.9005 266.5001,-174.9006 259.5001,-174.9005"/>
</g>
<!-- Node22 -->
<g id="node10" class="node">
<title>Node22</title>
<g id="a_node10"><a xlink:href="MatrixSBDPProfileProcess_8h.html" target="_top" xlink:title="MatrixSBDPProfileProcess.h">
<polygon fill="none" stroke="#000000" points="482.5,-252 482.5,-271 625.5,-271 625.5,-252 482.5,-252"/>
<text text-anchor="middle" x="554" y="-259" font-family="Helvetica,sans-Serif" font-size="10.00" fill="#000000">MatrixSBDPProfileProcess.h</text>
</a>
</g>
</g>
<!-- Node21&#45;&gt;Node22 -->
<g id="edge9" class="edge">
<title>Node21&#45;&gt;Node22</title>
<path fill="none" stroke="#191970" d="M554,-303.2462C554,-292.5519 554,-279.814 554,-271.2449"/>
<polygon fill="#191970" stroke="#191970" points="550.5001,-303.3906 554,-313.3906 557.5001,-303.3907 550.5001,-303.3906"/>
</g>
<!-- Node30 -->
<g id="node18" class="node">
<title>Node30</title>
<g id="a_node18"><a xlink:href="SBDPProfileProcess_8cpp.html" target="_top" xlink:title="SBDPProfileProcess.cpp">
<polygon fill="none" stroke="#000000" points="643.5,-252 643.5,-271 770.5,-271 770.5,-252 643.5,-252"/>
<text text-anchor="middle" x="707" y="-259" font-family="Helvetica,sans-Serif" font-size="10.00" fill="#000000">SBDPProfileProcess.cpp</text>
</a>
</g>
</g>
<!-- Node21&#45;&gt;Node30 -->
<g id="edge17" class="edge">
<title>Node21&#45;&gt;Node30</title>
<path fill="none" stroke="#191970" d="M587.2179,-309.6477C616.1894,-298.0023 657.5047,-281.3952 683.2616,-271.0419"/>
<polygon fill="#191970" stroke="#191970" points="585.8794,-306.4135 577.9063,-313.3906 588.4901,-312.9084 585.8794,-306.4135"/>
</g>
<!-- Node23 -->
<g id="node11" class="node">
<title>Node23</title>
<g id="a_node11"><a xlink:href="ExpoConjugateGTRSBDPProfileProcess_8h.html" target="_top" xlink:title="ExpoConjugateGTRSBDPProfile\lProcess.h">
<polygon fill="none" stroke="#000000" points="459,-179.5 459,-209.5 619,-209.5 619,-179.5 459,-179.5"/>
<text text-anchor="start" x="467" y="-197.5" font-family="Helvetica,sans-Serif" font-size="10.00" fill="#000000">ExpoConjugateGTRSBDPProfile</text>
<text text-anchor="middle" x="539" y="-186.5" font-family="Helvetica,sans-Serif" font-size="10.00" fill="#000000">Process.h</text>
</a>
</g>
</g>
<!-- Node22&#45;&gt;Node23 -->
<g id="edge10" class="edge">
<title>Node22&#45;&gt;Node23</title>
<path fill="none" stroke="#191970" d="M549.6577,-242.1042C547.3348,-231.7287 544.5175,-219.145 542.3631,-209.5218"/>
<polygon fill="#191970" stroke="#191970" points="546.2506,-242.9068 551.8509,-251.9005 553.0815,-241.3774 546.2506,-242.9068"/>
</g>
<!-- Node29 -->
<g id="node17" class="node">
<title>Node29</title>
<g id="a_node17"><a xlink:href="MatrixSBDPProfileProcess_8cpp.html" target="_top" xlink:title="MatrixSBDPProfileProcess.cpp">
<polygon fill="none" stroke="#000000" points="637,-185 637,-204 791,-204 791,-185 637,-185"/>
<text text-anchor="middle" x="714" y="-192" font-family="Helvetica,sans-Serif" font-size="10.00" fill="#000000">MatrixSBDPProfileProcess.cpp</text>
</a>
</g>
</g>
<!-- Node22&#45;&gt;Node29 -->
<g id="edge16" class="edge">
<title>Node22&#45;&gt;Node29</title>
<path fill="none" stroke="#191970" d="M586.4493,-247.9118C617.5474,-234.8895 663.6921,-215.5664 691.1184,-204.0817"/>
<polygon fill="#191970" stroke="#191970" points="584.7961,-244.8096 576.9241,-251.9005 587.4999,-251.2663 584.7961,-244.8096"/>
</g>
<!-- Node24 -->
<g id="node12" class="node">
<title>Node24</title>
<g id="a_node12"><a xlink:href="ExpoConjugateGTRSBDPProfileProcess_8cpp.html" target="_top" xlink:title="ExpoConjugateGTRSBDPProfile\lProcess.cpp">
<polygon fill="none" stroke="#000000" points="444,-112.5 444,-142.5 604,-142.5 604,-112.5 444,-112.5"/>
<text text-anchor="start" x="452" y="-130.5" font-family="Helvetica,sans-Serif" font-size="10.00" fill="#000000">ExpoConjugateGTRSBDPProfile</text>
<text text-anchor="middle" x="524" y="-119.5" font-family="Helvetica,sans-Serif" font-size="10.00" fill="#000000">Process.cpp</text>
</a>
</g>
</g>
<!-- Node23&#45;&gt;Node24 -->
<g id="edge11" class="edge">
<title>Node23&#45;&gt;Node24</title>
<path fill="none" stroke="#191970" d="M533.3622,-169.3179C531.3526,-160.3414 529.1525,-150.5143 527.3903,-142.6432"/>
<polygon fill="#191970" stroke="#191970" points="529.996,-170.3029 535.5963,-179.2967 536.8269,-168.7735 529.996,-170.3029"/>
</g>
<!-- Node25 -->
<g id="node13" class="node">
<title>Node25</title>
<g id="a_node13"><a xlink:href="RASCATGTRSBDPGammaPhyloProcess_8h.html" target="_top" xlink:title="RASCATGTRSBDPGammaPhyloProcess.h">
<polygon fill="none" stroke="#000000" points="622,-118 622,-137 832,-137 832,-118 622,-118"/>
<text text-anchor="middle" x="727" y="-125" font-family="Helvetica,sans-Serif" font-size="10.00" fill="#000000">RASCATGTRSBDPGammaPhyloProcess.h</text>
</a>
</g>
</g>
<!-- Node23&#45;&gt;Node25 -->
<g id="edge12" class="edge">
<title>Node23&#45;&gt;Node25</title>
<path fill="none" stroke="#191970" d="M590.9095,-176.0003C626.3952,-163.3538 671.9663,-147.1131 700.3284,-137.0053"/>
<polygon fill="#191970" stroke="#191970" points="589.4356,-172.8099 581.1909,-179.4639 591.7855,-179.4037 589.4356,-172.8099"/>
</g>
<!-- Node26 -->
<g id="node14" class="node">
<title>Node26</title>
<g id="a_node14"><a xlink:href="Model_8h.html" target="_top" xlink:title="Model.h">
<polygon fill="none" stroke="#000000" points="624.5,-56.5 624.5,-75.5 675.5,-75.5 675.5,-56.5 624.5,-56.5"/>
<text text-anchor="middle" x="650" y="-63.5" font-family="Helvetica,sans-Serif" font-size="10.00" fill="#000000">Model.h</text>
</a>
</g>
</g>
<!-- Node25&#45;&gt;Node26 -->
<g id="edge13" class="edge">
<title>Node25&#45;&gt;Node26</title>
<path fill="none" stroke="#191970" d="M707.1542,-111.6491C692.847,-100.222 674.0076,-85.1749 661.9468,-75.5419"/>
<polygon fill="#191970" stroke="#191970" points="704.9708,-114.3846 714.9688,-117.8906 709.3394,-108.915 704.9708,-114.3846"/>
</g>
<!-- Node28 -->
<g id="node16" class="node">
<title>Node28</title>
<g id="a_node16"><a xlink:href="RASCATGTRSBDPGammaPhyloProcess_8cpp.html" target="_top" xlink:title="RASCATGTRSBDPGammaPhyloProcess.cpp">
<polygon fill="none" stroke="#000000" points="693.5,-56.5 693.5,-75.5 914.5,-75.5 914.5,-56.5 693.5,-56.5"/>
<text text-anchor="middle" x="804" y="-63.5" font-family="Helvetica,sans-Serif" font-size="10.00" fill="#000000">RASCATGTRSBDPGammaPhyloProcess.cpp</text>
</a>
</g>
</g>
<!-- Node25&#45;&gt;Node28 -->
<g id="edge15" class="edge">
<title>Node25&#45;&gt;Node28</title>
<path fill="none" stroke="#191970" d="M746.8458,-111.6491C761.153,-100.222 779.9924,-85.1749 792.0532,-75.5419"/>
<polygon fill="#191970" stroke="#191970" points="744.6606,-108.915 739.0313,-117.8906 749.0292,-114.3846 744.6606,-108.915"/>
</g>
<!-- Node27 -->
<g id="node15" class="node">
<title>Node27</title>
<g id="a_node15"><a xlink:href="PB_8cpp.html" target="_top" xlink:title="PB.cpp">
<polygon fill="none" stroke="#000000" points="625.5,-.5 625.5,-19.5 674.5,-19.5 674.5,-.5 625.5,-.5"/>
<text text-anchor="middle" x="650" y="-7.5" font-family="Helvetica,sans-Serif" font-size="10.00" fill="#000000">PB.cpp</text>
</a>
</g>
</g>
<!-- Node26&#45;&gt;Node27 -->
<g id="edge14" class="edge">
<title>Node26&#45;&gt;Node27</title>
<path fill="none" stroke="#191970" d="M650,-46.1575C650,-37.155 650,-26.9199 650,-19.6427"/>
<polygon fill="#191970" stroke="#191970" points="646.5001,-46.2455 650,-56.2455 653.5001,-46.2456 646.5001,-46.2455"/>
</g>
</g>
</svg>
