<?xml version="1.0" encoding="UTF-8" standalone="no"?>
<!DOCTYPE svg PUBLIC "-//W3C//DTD SVG 1.1//EN"
 "http://www.w3.org/Graphics/SVG/1.1/DTD/svg11.dtd">
<!-- Generated by graphviz version 2.38.0 (20140413.2041)
 -->
<!-- Title: ExpoConjugateGTRSubstitutionProcess.h Pages: 1 -->
<svg width="1011pt" height="296pt"
 viewBox="0.00 0.00 1010.50 296.00" xmlns="http://www.w3.org/2000/svg" xmlns:xlink="http://www.w3.org/1999/xlink">
<g id="graph0" class="graph" transform="scale(1 1) rotate(0) translate(4 292)">
<title>ExpoConjugateGTRSubstitutionProcess.h</title>
<!-- Node29 -->
<g id="node1" class="node"><title>Node29</title>
<polygon fill="#bfbfbf" stroke="black" points="476,-257.5 476,-287.5 632,-287.5 632,-257.5 476,-257.5"/>
<text text-anchor="start" x="484" y="-275.5" font-family="Helvetica,sans-Serif" font-size="10.00">ExpoConjugateGTRSubstitution</text>
<text text-anchor="middle" x="554" y="-264.5" font-family="Helvetica,sans-Serif" font-size="10.00">Process.h</text>
</g>
<!-- Node30 -->
<g id="node2" class="node"><title>Node30</title>
<g id="a_node2"><a xlink:href="ExpoConjugateGTRPhyloProcess_8h.html" target="_top" xlink:title="ExpoConjugateGTRPhyloProcess.h">
<polygon fill="none" stroke="black" points="376.5,-196 376.5,-215 549.5,-215 549.5,-196 376.5,-196"/>
<text text-anchor="middle" x="463" y="-203" font-family="Helvetica,sans-Serif" font-size="10.00">ExpoConjugateGTRPhyloProcess.h</text>
</a>
</g>
</g>
<!-- Node29&#45;&gt;Node30 -->
<g id="edge1" class="edge"><title>Node29&#45;&gt;Node30</title>
<path fill="none" stroke="midnightblue" d="M525.728,-251.306C508.64,-239.1 487.748,-224.177 474.91,-215.007"/>
<polygon fill="midnightblue" stroke="midnightblue" points="524.083,-254.432 534.254,-257.396 528.151,-248.735 524.083,-254.432"/>
</g>
<!-- Node42 -->
<g id="node14" class="node"><title>Node42</title>
<g id="a_node14"><a xlink:href="ExpoConjugateGTRSubstitutionProcess_8cpp.html" target="_top" xlink:title="ExpoConjugateGTRSubstitution\lProcess.cpp">
<polygon fill="none" stroke="black" points="568,-190.5 568,-220.5 724,-220.5 724,-190.5 568,-190.5"/>
<text text-anchor="start" x="576" y="-208.5" font-family="Helvetica,sans-Serif" font-size="10.00">ExpoConjugateGTRSubstitution</text>
<text text-anchor="middle" x="646" y="-197.5" font-family="Helvetica,sans-Serif" font-size="10.00">Process.cpp</text>
</a>
</g>
</g>
<!-- Node29&#45;&gt;Node42 -->
<g id="edge14" class="edge"><title>Node29&#45;&gt;Node42</title>
<path fill="none" stroke="midnightblue" d="M582.377,-251.451C596.53,-241.452 613.305,-229.6 626.076,-220.577"/>
<polygon fill="midnightblue" stroke="midnightblue" points="580.11,-248.767 573.963,-257.396 584.149,-254.484 580.11,-248.767"/>
</g>
<!-- Node31 -->
<g id="node3" class="node"><title>Node31</title>
<g id="a_node3"><a xlink:href="ExpoConjugateGTRGeneGammaPhyloProcess_8h.html" target="_top" xlink:title="ExpoConjugateGTRGeneGamma\lPhyloProcess.h">
<polygon fill="none" stroke="black" points="0,-123.5 0,-153.5 162,-153.5 162,-123.5 0,-123.5"/>
<text text-anchor="start" x="8" y="-141.5" font-family="Helvetica,sans-Serif" font-size="10.00">ExpoConjugateGTRGeneGamma</text>
<text text-anchor="middle" x="81" y="-130.5" font-family="Helvetica,sans-Serif" font-size="10.00">PhyloProcess.h</text>
</a>
</g>
</g>
<!-- Node30&#45;&gt;Node31 -->
<g id="edge2" class="edge"><title>Node30&#45;&gt;Node31</title>
<path fill="none" stroke="midnightblue" d="M402.592,-194.221C337.683,-183.176 234.166,-165.562 162.176,-153.313"/>
<polygon fill="midnightblue" stroke="midnightblue" points="402.222,-197.708 412.667,-195.936 403.396,-190.808 402.222,-197.708"/>
</g>
<!-- Node32 -->
<g id="node4" class="node"><title>Node32</title>
<g id="a_node4"><a xlink:href="ExpoConjugateGTRPhyloProcess_8cpp.html" target="_top" xlink:title="ExpoConjugateGTRPhyloProcess.cpp">
<polygon fill="none" stroke="black" points="180,-129 180,-148 364,-148 364,-129 180,-129"/>
<text text-anchor="middle" x="272" y="-136" font-family="Helvetica,sans-Serif" font-size="10.00">ExpoConjugateGTRPhyloProcess.cpp</text>
</a>
</g>
</g>
<!-- Node30&#45;&gt;Node32 -->
<g id="edge3" class="edge"><title>Node30&#45;&gt;Node32</title>
<path fill="none" stroke="midnightblue" d="M428.036,-192.601C390.167,-179.714 330.689,-159.473 297.164,-148.064"/>
<polygon fill="midnightblue" stroke="midnightblue" points="427.042,-195.96 437.637,-195.869 429.297,-189.333 427.042,-195.96"/>
</g>
<!-- Node33 -->
<g id="node5" class="node"><title>Node33</title>
<g id="a_node5"><a xlink:href="RASCATGTRFiniteGammaPhyloProcess_8h.html" target="_top" xlink:title="RASCATGTRFiniteGammaPhylo\lProcess.h">
<polygon fill="none" stroke="black" points="382,-123.5 382,-153.5 544,-153.5 544,-123.5 382,-123.5"/>
<text text-anchor="start" x="390" y="-141.5" font-family="Helvetica,sans-Serif" font-size="10.00">RASCATGTRFiniteGammaPhylo</text>
<text text-anchor="middle" x="463" y="-130.5" font-family="Helvetica,sans-Serif" font-size="10.00">Process.h</text>
</a>
</g>
</g>
<!-- Node30&#45;&gt;Node33 -->
<g id="edge4" class="edge"><title>Node30&#45;&gt;Node33</title>
<path fill="none" stroke="midnightblue" d="M463,-185.411C463,-175.222 463,-162.901 463,-153.589"/>
<polygon fill="midnightblue" stroke="midnightblue" points="459.5,-185.734 463,-195.734 466.5,-185.734 459.5,-185.734"/>
</g>
<!-- Node38 -->
<g id="node10" class="node"><title>Node38</title>
<g id="a_node10"><a xlink:href="RASCATGTRSBDPGammaPhyloProcess_8h.html" target="_top" xlink:title="RASCATGTRSBDPGammaPhyloProcess.h">
<polygon fill="none" stroke="black" points="562,-129 562,-148 772,-148 772,-129 562,-129"/>
<text text-anchor="middle" x="667" y="-136" font-family="Helvetica,sans-Serif" font-size="10.00">RASCATGTRSBDPGammaPhyloProcess.h</text>
</a>
</g>
</g>
<!-- Node30&#45;&gt;Node38 -->
<g id="edge9" class="edge"><title>Node30&#45;&gt;Node38</title>
<path fill="none" stroke="midnightblue" d="M499.829,-192.765C540.25,-179.886 604.164,-159.521 640.123,-148.064"/>
<polygon fill="midnightblue" stroke="midnightblue" points="498.555,-189.498 490.09,-195.869 500.68,-196.167 498.555,-189.498"/>
</g>
<!-- Node40 -->
<g id="node12" class="node"><title>Node40</title>
<g id="a_node12"><a xlink:href="RASCATGTRDPGammaPhyloProcess_8h.html" target="_top" xlink:title="RASCATGTRDPGammaPhyloProcess.h">
<polygon fill="none" stroke="black" points="795.5,-129 795.5,-148 992.5,-148 992.5,-129 795.5,-129"/>
<text text-anchor="middle" x="894" y="-136" font-family="Helvetica,sans-Serif" font-size="10.00">RASCATGTRDPGammaPhyloProcess.h</text>
</a>
</g>
</g>
<!-- Node30&#45;&gt;Node40 -->
<g id="edge12" class="edge"><title>Node30&#45;&gt;Node40</title>
<path fill="none" stroke="midnightblue" d="M529.543,-194.447C539.419,-192.955 549.475,-191.437 559,-190 656.852,-175.235 770.784,-158.064 837.393,-148.028"/>
<polygon fill="midnightblue" stroke="midnightblue" points="528.711,-191.033 519.346,-195.987 529.757,-197.954 528.711,-191.033"/>
</g>
<!-- Node34 -->
<g id="node6" class="node"><title>Node34</title>
<g id="a_node6"><a xlink:href="Model_8h.html" target="_top" xlink:title="Model.h">
<polygon fill="none" stroke="black" points="487.5,-62 487.5,-81 538.5,-81 538.5,-62 487.5,-62"/>
<text text-anchor="middle" x="513" y="-69" font-family="Helvetica,sans-Serif" font-size="10.00">Model.h</text>
</a>
</g>
</g>
<!-- Node33&#45;&gt;Node34 -->
<g id="edge5" class="edge"><title>Node33&#45;&gt;Node34</title>
<path fill="none" stroke="midnightblue" d="M480.064,-115.316C489.079,-103.598 499.629,-89.8829 506.312,-81.1945"/>
<polygon fill="midnightblue" stroke="midnightblue" points="477.172,-113.336 473.849,-123.396 482.721,-117.604 477.172,-113.336"/>
</g>
<!-- Node37 -->
<g id="node9" class="node"><title>Node37</title>
<g id="a_node9"><a xlink:href="RASCATGTRFiniteGammaPhyloProcess_8cpp.html" target="_top" xlink:title="RASCATGTRFiniteGammaPhylo\lProcess.cpp">
<polygon fill="none" stroke="black" points="307,-56.5 307,-86.5 469,-86.5 469,-56.5 307,-56.5"/>
<text text-anchor="start" x="315" y="-74.5" font-family="Helvetica,sans-Serif" font-size="10.00">RASCATGTRFiniteGammaPhylo</text>
<text text-anchor="middle" x="388" y="-63.5" font-family="Helvetica,sans-Serif" font-size="10.00">Process.cpp</text>
</a>
</g>
</g>
<!-- Node33&#45;&gt;Node37 -->
<g id="edge8" class="edge"><title>Node33&#45;&gt;Node37</title>
<path fill="none" stroke="midnightblue" d="M438.882,-116.598C427.557,-106.783 414.359,-95.3442 404.242,-86.5765"/>
<polygon fill="midnightblue" stroke="midnightblue" points="436.877,-119.492 446.726,-123.396 441.461,-114.202 436.877,-119.492"/>
</g>
<!-- Node35 -->
<g id="node7" class="node"><title>Node35</title>
<g id="a_node7"><a xlink:href="PB_8cpp.html" target="_top" xlink:title="PB.cpp">
<polygon fill="none" stroke="black" points="448.5,-0.5 448.5,-19.5 497.5,-19.5 497.5,-0.5 448.5,-0.5"/>
<text text-anchor="middle" x="473" y="-7.5" font-family="Helvetica,sans-Serif" font-size="10.00">PB.cpp</text>
</a>
</g>
</g>
<!-- Node34&#45;&gt;Node35 -->
<g id="edge6" class="edge"><title>Node34&#45;&gt;Node35</title>
<path fill="none" stroke="midnightblue" d="M501.575,-53.5051C494.101,-42.388 484.657,-28.3395 478.72,-19.5091"/>
<polygon fill="midnightblue" stroke="midnightblue" points="498.785,-55.6288 507.269,-61.9751 504.594,-51.7234 498.785,-55.6288"/>
</g>
<!-- Node36 -->
<g id="node8" class="node"><title>Node36</title>
<g id="a_node8"><a xlink:href="ReadPB_8cpp.html" target="_top" xlink:title="ReadPB.cpp">
<polygon fill="none" stroke="black" points="516,-0.5 516,-19.5 588,-19.5 588,-0.5 516,-0.5"/>
<text text-anchor="middle" x="552" y="-7.5" font-family="Helvetica,sans-Serif" font-size="10.00">ReadPB.cpp</text>
</a>
</g>
</g>
<!-- Node34&#45;&gt;Node36 -->
<g id="edge7" class="edge"><title>Node34&#45;&gt;Node36</title>
<path fill="none" stroke="midnightblue" d="M524.14,-53.5051C531.426,-42.388 540.635,-28.3395 546.423,-19.5091"/>
<polygon fill="midnightblue" stroke="midnightblue" points="521.143,-51.6929 518.588,-61.9751 526.997,-55.5303 521.143,-51.6929"/>
</g>
<!-- Node38&#45;&gt;Node34 -->
<g id="edge10" class="edge"><title>Node38&#45;&gt;Node34</title>
<path fill="none" stroke="midnightblue" d="M637.263,-124.948C606.771,-112.079 560.155,-92.4032 533.535,-81.1672"/>
<polygon fill="midnightblue" stroke="midnightblue" points="635.976,-128.204 646.55,-128.869 638.698,-121.755 635.976,-128.204"/>
</g>
<!-- Node39 -->
<g id="node11" class="node"><title>Node39</title>
<g id="a_node11"><a xlink:href="RASCATGTRSBDPGammaPhyloProcess_8cpp.html" target="_top" xlink:title="RASCATGTRSBDPGammaPhyloProcess.cpp">
<polygon fill="none" stroke="black" points="556.5,-62 556.5,-81 777.5,-81 777.5,-62 556.5,-62"/>
<text text-anchor="middle" x="667" y="-69" font-family="Helvetica,sans-Serif" font-size="10.00">RASCATGTRSBDPGammaPhyloProcess.cpp</text>
</a>
</g>
</g>
<!-- Node38&#45;&gt;Node39 -->
<g id="edge11" class="edge"><title>Node38&#45;&gt;Node39</title>
<path fill="none" stroke="midnightblue" d="M667,-118.537C667,-106.17 667,-90.6198 667,-81.1273"/>
<polygon fill="midnightblue" stroke="midnightblue" points="663.5,-118.734 667,-128.734 670.5,-118.734 663.5,-118.734"/>
</g>
<!-- Node41 -->
<g id="node13" class="node"><title>Node41</title>
<g id="a_node13"><a xlink:href="RASCATGTRDPGammaPhyloProcess_8cpp.html" target="_top" xlink:title="RASCATGTRDPGammaPhyloProcess.cpp">
<polygon fill="none" stroke="black" points="795.5,-62 795.5,-81 1002.5,-81 1002.5,-62 795.5,-62"/>
<text text-anchor="middle" x="899" y="-69" font-family="Helvetica,sans-Serif" font-size="10.00">RASCATGTRDPGammaPhyloProcess.cpp</text>
</a>
</g>
</g>
<!-- Node40&#45;&gt;Node41 -->
<g id="edge13" class="edge"><title>Node40&#45;&gt;Node41</title>
<path fill="none" stroke="midnightblue" d="M895.459,-118.537C896.41,-106.17 897.606,-90.6198 898.336,-81.1273"/>
<polygon fill="midnightblue" stroke="midnightblue" points="891.952,-118.495 894.674,-128.734 898.931,-119.032 891.952,-118.495"/>
</g>
</g>
</svg>
