<?xml version="1.0" encoding="UTF-8" standalone="no"?>
<!DOCTYPE svg PUBLIC "-//W3C//DTD SVG 1.1//EN"
 "http://www.w3.org/Graphics/SVG/1.1/DTD/svg11.dtd">
<!-- Generated by graphviz version 2.38.0 (20140413.2041)
 -->
<!-- Title: ExpoConjugateGTRFiniteProfileProcess.h Pages: 1 -->
<svg width="685pt" height="498pt"
 viewBox="0.00 0.00 685.00 498.00" xmlns="http://www.w3.org/2000/svg" xmlns:xlink="http://www.w3.org/1999/xlink">
<g id="graph0" class="graph" transform="scale(1 1) rotate(0) translate(4 494)">
<title>ExpoConjugateGTRFiniteProfileProcess.h</title>
<!-- Node0 -->
<g id="node1" class="node"><title>Node0</title>
<polygon fill="#bfbfbf" stroke="black" points="84,-459.5 84,-489.5 240,-489.5 240,-459.5 84,-459.5"/>
<text text-anchor="start" x="92" y="-477.5" font-family="Helvetica,sans-Serif" font-size="10.00">ExpoConjugateGTRFiniteProfile</text>
<text text-anchor="middle" x="162" y="-466.5" font-family="Helvetica,sans-Serif" font-size="10.00">Process.h</text>
</g>
<!-- Node1 -->
<g id="node2" class="node"><title>Node1</title>
<g id="a_node2"><a xlink:href="MatrixFiniteProfileProcess_8h.html" target="_top" xlink:title="MatrixFiniteProfileProcess.h">
<polygon fill="none" stroke="black" points="0,-336.5 0,-355.5 140,-355.5 140,-336.5 0,-336.5"/>
<text text-anchor="middle" x="70" y="-343.5" font-family="Helvetica,sans-Serif" font-size="10.00">MatrixFiniteProfileProcess.h</text>
</a>
</g>
</g>
<!-- Node0&#45;&gt;Node1 -->
<g id="edge1" class="edge"><title>Node0&#45;&gt;Node1</title>
<path fill="none" stroke="midnightblue" d="M151.803,-459.479C134.803,-436.104 100.729,-389.253 82.3798,-364.022"/>
<polygon fill="midnightblue" stroke="midnightblue" points="85.104,-361.817 76.3917,-355.789 79.4428,-365.935 85.104,-361.817"/>
</g>
<!-- Node22 -->
<g id="node23" class="node"><title>Node22</title>
<g id="a_node23"><a xlink:href="ExpoConjugateGTRMixtureProfileProcess_8h.html" target="_top" xlink:title="ExpoConjugateGTRMixtureProfile\lProcess.h">
<polygon fill="none" stroke="black" points="147,-392.5 147,-422.5 311,-422.5 311,-392.5 147,-392.5"/>
<text text-anchor="start" x="155" y="-410.5" font-family="Helvetica,sans-Serif" font-size="10.00">ExpoConjugateGTRMixtureProfile</text>
<text text-anchor="middle" x="229" y="-399.5" font-family="Helvetica,sans-Serif" font-size="10.00">Process.h</text>
</a>
</g>
</g>
<!-- Node0&#45;&gt;Node22 -->
<g id="edge33" class="edge"><title>Node0&#45;&gt;Node22</title>
<path fill="none" stroke="midnightblue" d="M176.538,-459.396C185.493,-450.708 197.144,-439.405 207.191,-429.658"/>
<polygon fill="midnightblue" stroke="midnightblue" points="209.75,-432.052 214.49,-422.577 204.876,-427.028 209.75,-432.052"/>
</g>
<!-- Node2 -->
<g id="node3" class="node"><title>Node2</title>
<g id="a_node3"><a xlink:href="MatrixMixtureProfileProcess_8h.html" target="_top" xlink:title="MatrixMixtureProfileProcess.h">
<polygon fill="none" stroke="black" points="150,-280.5 150,-299.5 298,-299.5 298,-280.5 150,-280.5"/>
<text text-anchor="middle" x="224" y="-287.5" font-family="Helvetica,sans-Serif" font-size="10.00">MatrixMixtureProfileProcess.h</text>
</a>
</g>
</g>
<!-- Node1&#45;&gt;Node2 -->
<g id="edge2" class="edge"><title>Node1&#45;&gt;Node2</title>
<path fill="none" stroke="midnightblue" d="M94.4018,-336.444C120.197,-327.399 161.077,-313.064 190.018,-302.916"/>
<polygon fill="midnightblue" stroke="midnightblue" points="191.434,-306.128 199.712,-299.516 189.118,-299.523 191.434,-306.128"/>
</g>
<!-- Node21 -->
<g id="node22" class="node"><title>Node21</title>
<g id="a_node22"><a xlink:href="FiniteProfileProcess_8h.html" target="_top" xlink:title="FiniteProfileProcess.h">
<polygon fill="none" stroke="black" points="13.5,-280.5 13.5,-299.5 126.5,-299.5 126.5,-280.5 13.5,-280.5"/>
<text text-anchor="middle" x="70" y="-287.5" font-family="Helvetica,sans-Serif" font-size="10.00">FiniteProfileProcess.h</text>
</a>
</g>
</g>
<!-- Node1&#45;&gt;Node21 -->
<g id="edge30" class="edge"><title>Node1&#45;&gt;Node21</title>
<path fill="none" stroke="midnightblue" d="M70,-336.083C70,-329.006 70,-318.861 70,-309.986"/>
<polygon fill="midnightblue" stroke="midnightblue" points="73.5001,-309.751 70,-299.751 66.5001,-309.751 73.5001,-309.751"/>
</g>
<!-- Node3 -->
<g id="node4" class="node"><title>Node3</title>
<g id="a_node4"><a xlink:href="MatrixProfileProcess_8h.html" target="_top" xlink:title="MatrixProfileProcess.h">
<polygon fill="none" stroke="black" points="213,-224.5 213,-243.5 329,-243.5 329,-224.5 213,-224.5"/>
<text text-anchor="middle" x="271" y="-231.5" font-family="Helvetica,sans-Serif" font-size="10.00">MatrixProfileProcess.h</text>
</a>
</g>
</g>
<!-- Node2&#45;&gt;Node3 -->
<g id="edge3" class="edge"><title>Node2&#45;&gt;Node3</title>
<path fill="none" stroke="midnightblue" d="M231.761,-280.083C238.537,-272.298 248.543,-260.801 256.755,-251.367"/>
<polygon fill="midnightblue" stroke="midnightblue" points="259.458,-253.592 263.383,-243.751 254.178,-248.996 259.458,-253.592"/>
</g>
<!-- Node20 -->
<g id="node21" class="node"><title>Node20</title>
<g id="a_node21"><a xlink:href="MixtureProfileProcess_8h.html" target="_top" xlink:title="MixtureProfileProcess.h">
<polygon fill="none" stroke="black" points="73.5,-224.5 73.5,-243.5 194.5,-243.5 194.5,-224.5 73.5,-224.5"/>
<text text-anchor="middle" x="134" y="-231.5" font-family="Helvetica,sans-Serif" font-size="10.00">MixtureProfileProcess.h</text>
</a>
</g>
</g>
<!-- Node2&#45;&gt;Node20 -->
<g id="edge27" class="edge"><title>Node2&#45;&gt;Node20</title>
<path fill="none" stroke="midnightblue" d="M209.54,-280.324C195.5,-271.9 173.952,-258.971 157.457,-249.074"/>
<polygon fill="midnightblue" stroke="midnightblue" points="158.8,-245.798 148.424,-243.655 155.198,-251.801 158.8,-245.798"/>
</g>
<!-- Node4 -->
<g id="node5" class="node"><title>Node4</title>
<g id="a_node5"><a xlink:href="SubMatrix_8h.html" target="_top" xlink:title="SubMatrix.h">
<polygon fill="none" stroke="black" points="322.5,-168.5 322.5,-187.5 391.5,-187.5 391.5,-168.5 322.5,-168.5"/>
<text text-anchor="middle" x="357" y="-175.5" font-family="Helvetica,sans-Serif" font-size="10.00">SubMatrix.h</text>
</a>
</g>
</g>
<!-- Node3&#45;&gt;Node4 -->
<g id="edge4" class="edge"><title>Node3&#45;&gt;Node4</title>
<path fill="none" stroke="midnightblue" d="M284.817,-224.324C298.233,-215.9 318.824,-202.971 334.586,-193.074"/>
<polygon fill="midnightblue" stroke="midnightblue" points="336.609,-195.936 343.217,-187.655 332.887,-190.008 336.609,-195.936"/>
</g>
<!-- Node12 -->
<g id="node13" class="node"><title>Node12</title>
<g id="a_node13"><a xlink:href="ProfileProcess_8h.html" target="_top" xlink:title="ProfileProcess.h">
<polygon fill="none" stroke="black" points="149.5,-168.5 149.5,-187.5 238.5,-187.5 238.5,-168.5 149.5,-168.5"/>
<text text-anchor="middle" x="194" y="-175.5" font-family="Helvetica,sans-Serif" font-size="10.00">ProfileProcess.h</text>
</a>
</g>
</g>
<!-- Node3&#45;&gt;Node12 -->
<g id="edge14" class="edge"><title>Node3&#45;&gt;Node12</title>
<path fill="none" stroke="midnightblue" d="M258.629,-224.324C246.842,-216.058 228.868,-203.453 214.864,-193.632"/>
<polygon fill="midnightblue" stroke="midnightblue" points="216.538,-190.531 206.341,-187.655 212.518,-196.262 216.538,-190.531"/>
</g>
<!-- Node5 -->
<g id="node6" class="node"><title>Node5</title>
<polygon fill="none" stroke="#bfbfbf" points="224,-0.5 224,-19.5 278,-19.5 278,-0.5 224,-0.5"/>
<text text-anchor="middle" x="251" y="-7.5" font-family="Helvetica,sans-Serif" font-size="10.00">iostream</text>
</g>
<!-- Node4&#45;&gt;Node5 -->
<g id="edge5" class="edge"><title>Node4&#45;&gt;Node5</title>
<path fill="none" stroke="midnightblue" d="M377.6,-168.419C420.646,-149.308 513.173,-101.343 476,-56 452.7,-27.5782 346.1,-16.7497 288.383,-12.9184"/>
<polygon fill="midnightblue" stroke="midnightblue" points="288.406,-9.41302 278.207,-12.2818 287.968,-16.3994 288.406,-9.41302"/>
</g>
<!-- Node6 -->
<g id="node7" class="node"><title>Node6</title>
<polygon fill="none" stroke="#bfbfbf" points="141,-56.5 141,-75.5 185,-75.5 185,-56.5 141,-56.5"/>
<text text-anchor="middle" x="163" y="-63.5" font-family="Helvetica,sans-Serif" font-size="10.00">cmath</text>
</g>
<!-- Node4&#45;&gt;Node6 -->
<g id="edge6" class="edge"><title>Node4&#45;&gt;Node6</title>
<path fill="none" stroke="midnightblue" d="M341.777,-168.368C308.203,-149.332 227.576,-103.615 187.074,-80.6505"/>
<polygon fill="midnightblue" stroke="midnightblue" points="188.577,-77.4792 178.152,-75.5914 185.125,-83.5685 188.577,-77.4792"/>
</g>
<!-- Node7 -->
<g id="node8" class="node"><title>Node7</title>
<g id="a_node8"><a xlink:href="Random_8h.html" target="_top" xlink:title="Random.h">
<polygon fill="none" stroke="black" points="326,-112.5 326,-131.5 388,-131.5 388,-112.5 326,-112.5"/>
<text text-anchor="middle" x="357" y="-119.5" font-family="Helvetica,sans-Serif" font-size="10.00">Random.h</text>
</a>
</g>
</g>
<!-- Node4&#45;&gt;Node7 -->
<g id="edge7" class="edge"><title>Node4&#45;&gt;Node7</title>
<path fill="none" stroke="midnightblue" d="M357,-168.083C357,-161.006 357,-150.861 357,-141.986"/>
<polygon fill="midnightblue" stroke="midnightblue" points="360.5,-141.751 357,-131.751 353.5,-141.751 360.5,-141.751"/>
</g>
<!-- Node7&#45;&gt;Node5 -->
<g id="edge10" class="edge"><title>Node7&#45;&gt;Node5</title>
<path fill="none" stroke="midnightblue" d="M327.264,-112.375C308.337,-105.437 284.702,-93.8524 270,-76 259.149,-62.8234 254.495,-43.6857 252.499,-29.5867"/>
<polygon fill="midnightblue" stroke="midnightblue" points="255.969,-29.1287 251.4,-19.5699 249.011,-29.8919 255.969,-29.1287"/>
</g>
<!-- Node7&#45;&gt;Node6 -->
<g id="edge8" class="edge"><title>Node7&#45;&gt;Node6</title>
<path fill="none" stroke="midnightblue" d="M326.26,-112.444C290.475,-102.483 231.643,-86.1068 195.232,-75.9717"/>
<polygon fill="midnightblue" stroke="midnightblue" points="195.72,-72.4747 185.148,-73.1649 193.843,-79.2183 195.72,-72.4747"/>
</g>
<!-- Node8 -->
<g id="node9" class="node"><title>Node8</title>
<polygon fill="none" stroke="#bfbfbf" points="510.5,-0.5 510.5,-19.5 555.5,-19.5 555.5,-0.5 510.5,-0.5"/>
<text text-anchor="middle" x="533" y="-7.5" font-family="Helvetica,sans-Serif" font-size="10.00">cstdlib</text>
</g>
<!-- Node7&#45;&gt;Node8 -->
<g id="edge9" class="edge"><title>Node7&#45;&gt;Node8</title>
<path fill="none" stroke="midnightblue" d="M388.069,-113.745C413.319,-106.837 449.044,-94.6879 476,-76 494.618,-63.0926 511.096,-42.8098 521.486,-28.3357"/>
<polygon fill="midnightblue" stroke="midnightblue" points="524.582,-30.013 527.396,-19.7987 518.826,-26.0288 524.582,-30.013"/>
</g>
<!-- Node9 -->
<g id="node10" class="node"><title>Node9</title>
<polygon fill="none" stroke="#bfbfbf" points="347,-56.5 347,-75.5 399,-75.5 399,-56.5 347,-56.5"/>
<text text-anchor="middle" x="373" y="-63.5" font-family="Helvetica,sans-Serif" font-size="10.00">sstream</text>
</g>
<!-- Node7&#45;&gt;Node9 -->
<g id="edge11" class="edge"><title>Node7&#45;&gt;Node9</title>
<path fill="none" stroke="midnightblue" d="M359.642,-112.083C361.786,-104.849 364.879,-94.4087 367.549,-85.3968"/>
<polygon fill="midnightblue" stroke="midnightblue" points="370.922,-86.3334 370.407,-75.7511 364.21,-84.3447 370.922,-86.3334"/>
</g>
<!-- Node10 -->
<g id="node11" class="node"><title>Node10</title>
<polygon fill="none" stroke="#bfbfbf" points="417,-56.5 417,-75.5 467,-75.5 467,-56.5 417,-56.5"/>
<text text-anchor="middle" x="442" y="-63.5" font-family="Helvetica,sans-Serif" font-size="10.00">iomanip</text>
</g>
<!-- Node7&#45;&gt;Node10 -->
<g id="edge12" class="edge"><title>Node7&#45;&gt;Node10</title>
<path fill="none" stroke="midnightblue" d="M370.657,-112.324C383.916,-103.9 404.268,-90.9709 419.846,-81.0741"/>
<polygon fill="midnightblue" stroke="midnightblue" points="421.813,-83.9711 428.377,-75.6545 418.06,-78.0626 421.813,-83.9711"/>
</g>
<!-- Node11 -->
<g id="node12" class="node"><title>Node11</title>
<polygon fill="none" stroke="#bfbfbf" points="279,-56.5 279,-75.5 329,-75.5 329,-56.5 279,-56.5"/>
<text text-anchor="middle" x="304" y="-63.5" font-family="Helvetica,sans-Serif" font-size="10.00">fstream</text>
</g>
<!-- Node7&#45;&gt;Node11 -->
<g id="edge13" class="edge"><title>Node7&#45;&gt;Node11</title>
<path fill="none" stroke="midnightblue" d="M348.248,-112.083C340.53,-104.22 329.095,-92.5688 319.783,-83.0813"/>
<polygon fill="midnightblue" stroke="midnightblue" points="322.092,-80.4363 312.589,-75.7511 317.096,-85.3396 322.092,-80.4363"/>
</g>
<!-- Node12&#45;&gt;Node5 -->
<g id="edge25" class="edge"><title>Node12&#45;&gt;Node5</title>
<path fill="none" stroke="midnightblue" d="M197.065,-168.075C206.076,-141.832 232.614,-64.5453 244.779,-29.1165"/>
<polygon fill="midnightblue" stroke="midnightblue" points="248.121,-30.1628 248.058,-19.5681 241.5,-27.8894 248.121,-30.1628"/>
</g>
<!-- Node13 -->
<g id="node14" class="node"><title>Node13</title>
<g id="a_node14"><a xlink:href="Chrono_8h.html" target="_top" xlink:title="Chrono.h">
<polygon fill="none" stroke="black" points="67,-56.5 67,-75.5 123,-75.5 123,-56.5 67,-56.5"/>
<text text-anchor="middle" x="95" y="-63.5" font-family="Helvetica,sans-Serif" font-size="10.00">Chrono.h</text>
</a>
</g>
</g>
<!-- Node12&#45;&gt;Node13 -->
<g id="edge15" class="edge"><title>Node12&#45;&gt;Node13</title>
<path fill="none" stroke="midnightblue" d="M190.129,-168.305C183.986,-155.136 171.041,-129.786 155,-112 144.298,-100.134 130.069,-89.3037 118.153,-81.2427"/>
<polygon fill="midnightblue" stroke="midnightblue" points="119.875,-78.1868 109.589,-75.6471 116.046,-84.0469 119.875,-78.1868"/>
</g>
<!-- Node16 -->
<g id="node17" class="node"><title>Node16</title>
<g id="a_node17"><a xlink:href="StateSpace_8h.html" target="_top" xlink:title="StateSpace.h">
<polygon fill="none" stroke="black" points="523,-112.5 523,-131.5 599,-131.5 599,-112.5 523,-112.5"/>
<text text-anchor="middle" x="561" y="-119.5" font-family="Helvetica,sans-Serif" font-size="10.00">StateSpace.h</text>
</a>
</g>
</g>
<!-- Node12&#45;&gt;Node16 -->
<g id="edge20" class="edge"><title>Node12&#45;&gt;Node16</title>
<path fill="none" stroke="midnightblue" d="M238.634,-170.433C308.004,-160.226 441.137,-140.636 512.688,-130.109"/>
<polygon fill="midnightblue" stroke="midnightblue" points="513.399,-133.542 522.783,-128.623 512.38,-126.616 513.399,-133.542"/>
</g>
<!-- Node19 -->
<g id="node20" class="node"><title>Node19</title>
<polygon fill="none" stroke="#bfbfbf" points="111.5,-112.5 111.5,-131.5 146.5,-131.5 146.5,-112.5 111.5,-112.5"/>
<text text-anchor="middle" x="129" y="-119.5" font-family="Helvetica,sans-Serif" font-size="10.00">map</text>
</g>
<!-- Node12&#45;&gt;Node19 -->
<g id="edge26" class="edge"><title>Node12&#45;&gt;Node19</title>
<path fill="none" stroke="midnightblue" d="M183.557,-168.324C173.854,-160.263 159.185,-148.077 147.5,-138.369"/>
<polygon fill="midnightblue" stroke="midnightblue" points="149.562,-135.532 139.633,-131.834 145.089,-140.916 149.562,-135.532"/>
</g>
<!-- Node13&#45;&gt;Node5 -->
<g id="edge18" class="edge"><title>Node13&#45;&gt;Node5</title>
<path fill="none" stroke="midnightblue" d="M119.719,-56.4435C145.848,-47.3986 187.259,-33.064 216.576,-22.9158"/>
<polygon fill="midnightblue" stroke="midnightblue" points="218.092,-26.0951 226.397,-19.5164 215.802,-19.4801 218.092,-26.0951"/>
</g>
<!-- Node13&#45;&gt;Node8 -->
<g id="edge19" class="edge"><title>Node13&#45;&gt;Node8</title>
<path fill="none" stroke="midnightblue" d="M123.204,-57.7492C126.163,-57.1055 129.136,-56.507 132,-56 267.543,-32.0095 431.25,-18.3362 500.039,-13.2755"/>
<polygon fill="midnightblue" stroke="midnightblue" points="500.524,-16.7496 510.245,-12.537 500.018,-9.76789 500.524,-16.7496"/>
</g>
<!-- Node14 -->
<g id="node15" class="node"><title>Node14</title>
<polygon fill="none" stroke="#bfbfbf" points="109.5,-0.5 109.5,-19.5 150.5,-19.5 150.5,-0.5 109.5,-0.5"/>
<text text-anchor="middle" x="130" y="-7.5" font-family="Helvetica,sans-Serif" font-size="10.00">ctime</text>
</g>
<!-- Node13&#45;&gt;Node14 -->
<g id="edge16" class="edge"><title>Node13&#45;&gt;Node14</title>
<path fill="none" stroke="midnightblue" d="M100.78,-56.083C105.672,-48.5341 112.827,-37.4948 118.833,-28.2298"/>
<polygon fill="midnightblue" stroke="midnightblue" points="121.826,-30.0463 124.328,-19.7511 115.952,-26.239 121.826,-30.0463"/>
</g>
<!-- Node15 -->
<g id="node16" class="node"><title>Node15</title>
<polygon fill="none" stroke="#bfbfbf" points="29,-0.5 29,-19.5 91,-19.5 91,-0.5 29,-0.5"/>
<text text-anchor="middle" x="60" y="-7.5" font-family="Helvetica,sans-Serif" font-size="10.00">sys/time.h</text>
</g>
<!-- Node13&#45;&gt;Node15 -->
<g id="edge17" class="edge"><title>Node13&#45;&gt;Node15</title>
<path fill="none" stroke="midnightblue" d="M89.2205,-56.083C84.3276,-48.5341 77.1726,-37.4948 71.1674,-28.2298"/>
<polygon fill="midnightblue" stroke="midnightblue" points="74.048,-26.239 65.672,-19.7511 68.174,-30.0463 74.048,-26.239"/>
</g>
<!-- Node17 -->
<g id="node18" class="node"><title>Node17</title>
<g id="a_node18"><a xlink:href="BiologicalSequences_8h.html" target="_top" xlink:title="BiologicalSequences.h">
<polygon fill="none" stroke="black" points="561,-56.5 561,-75.5 677,-75.5 677,-56.5 561,-56.5"/>
<text text-anchor="middle" x="619" y="-63.5" font-family="Helvetica,sans-Serif" font-size="10.00">BiologicalSequences.h</text>
</a>
</g>
</g>
<!-- Node16&#45;&gt;Node17 -->
<g id="edge21" class="edge"><title>Node16&#45;&gt;Node17</title>
<path fill="none" stroke="midnightblue" d="M570.319,-112.324C578.893,-104.341 591.812,-92.3128 602.188,-82.6529"/>
<polygon fill="midnightblue" stroke="midnightblue" points="604.578,-85.2098 609.512,-75.8339 599.808,-80.0865 604.578,-85.2098"/>
</g>
<!-- Node17&#45;&gt;Node5 -->
<g id="edge23" class="edge"><title>Node17&#45;&gt;Node5</title>
<path fill="none" stroke="midnightblue" d="M560.689,-56.4435C484.281,-45.2315 352.482,-25.8914 288.296,-16.4727"/>
<polygon fill="midnightblue" stroke="midnightblue" points="288.628,-12.9841 278.226,-14.9951 287.612,-19.9099 288.628,-12.9841"/>
</g>
<!-- Node17&#45;&gt;Node8 -->
<g id="edge22" class="edge"><title>Node17&#45;&gt;Node8</title>
<path fill="none" stroke="midnightblue" d="M605.183,-56.324C591.767,-47.9002 571.176,-34.9709 555.414,-25.0741"/>
<polygon fill="midnightblue" stroke="midnightblue" points="557.113,-22.0081 546.783,-19.6545 553.391,-27.9364 557.113,-22.0081"/>
</g>
<!-- Node18 -->
<g id="node19" class="node"><title>Node18</title>
<polygon fill="none" stroke="#bfbfbf" points="598.5,-0.5 598.5,-19.5 639.5,-19.5 639.5,-0.5 598.5,-0.5"/>
<text text-anchor="middle" x="619" y="-7.5" font-family="Helvetica,sans-Serif" font-size="10.00">string</text>
</g>
<!-- Node17&#45;&gt;Node18 -->
<g id="edge24" class="edge"><title>Node17&#45;&gt;Node18</title>
<path fill="none" stroke="midnightblue" d="M619,-56.083C619,-49.0059 619,-38.8611 619,-29.9865"/>
<polygon fill="midnightblue" stroke="midnightblue" points="622.5,-29.751 619,-19.7511 615.5,-29.7511 622.5,-29.751"/>
</g>
<!-- Node20&#45;&gt;Node6 -->
<g id="edge28" class="edge"><title>Node20&#45;&gt;Node6</title>
<path fill="none" stroke="midnightblue" d="M127.688,-224.35C113.577,-203.866 82.2153,-151.181 102,-112 108.807,-98.5199 121.768,-88.083 133.998,-80.6696"/>
<polygon fill="midnightblue" stroke="midnightblue" points="136.07,-83.5214 143.094,-75.5896 132.657,-77.4099 136.07,-83.5214"/>
</g>
<!-- Node20&#45;&gt;Node12 -->
<g id="edge29" class="edge"><title>Node20&#45;&gt;Node12</title>
<path fill="none" stroke="midnightblue" d="M143.64,-224.324C152.51,-216.341 165.875,-204.313 176.608,-194.653"/>
<polygon fill="midnightblue" stroke="midnightblue" points="179.093,-197.125 184.185,-187.834 174.41,-191.922 179.093,-197.125"/>
</g>
<!-- Node21&#45;&gt;Node6 -->
<g id="edge31" class="edge"><title>Node21&#45;&gt;Node6</title>
<path fill="none" stroke="midnightblue" d="M68.5092,-280.407C67.0237,-271.376 64.8456,-256.74 64,-244 60.022,-184.066 57.7869,-160.661 93,-112 102.909,-98.306 118.382,-87.7296 132.264,-80.2816"/>
<polygon fill="midnightblue" stroke="midnightblue" points="134.167,-83.2422 141.532,-75.6252 131.025,-76.9873 134.167,-83.2422"/>
</g>
<!-- Node21&#45;&gt;Node20 -->
<g id="edge32" class="edge"><title>Node21&#45;&gt;Node20</title>
<path fill="none" stroke="midnightblue" d="M80.2827,-280.324C89.8363,-272.263 104.28,-260.077 115.784,-250.369"/>
<polygon fill="midnightblue" stroke="midnightblue" points="118.144,-252.958 123.53,-243.834 113.63,-247.608 118.144,-252.958"/>
</g>
<!-- Node23 -->
<g id="node24" class="node"><title>Node23</title>
<g id="a_node24"><a xlink:href="GTRMixtureProfileProcess_8h.html" target="_top" xlink:title="GTRMixtureProfileProcess.h">
<polygon fill="none" stroke="black" points="158,-336.5 158,-355.5 300,-355.5 300,-336.5 158,-336.5"/>
<text text-anchor="middle" x="229" y="-343.5" font-family="Helvetica,sans-Serif" font-size="10.00">GTRMixtureProfileProcess.h</text>
</a>
</g>
</g>
<!-- Node22&#45;&gt;Node23 -->
<g id="edge34" class="edge"><title>Node22&#45;&gt;Node23</title>
<path fill="none" stroke="midnightblue" d="M229,-392.399C229,-384.466 229,-374.458 229,-365.858"/>
<polygon fill="midnightblue" stroke="midnightblue" points="232.5,-365.658 229,-355.658 225.5,-365.658 232.5,-365.658"/>
</g>
<!-- Node26 -->
<g id="node27" class="node"><title>Node26</title>
<g id="a_node27"><a xlink:href="ExpoConjugateGTRProfileProcess_8h.html" target="_top" xlink:title="ExpoConjugateGTRProfileProcess.h">
<polygon fill="none" stroke="black" points="318,-336.5 318,-355.5 494,-355.5 494,-336.5 318,-336.5"/>
<text text-anchor="middle" x="406" y="-343.5" font-family="Helvetica,sans-Serif" font-size="10.00">ExpoConjugateGTRProfileProcess.h</text>
</a>
</g>
</g>
<!-- Node22&#45;&gt;Node26 -->
<g id="edge41" class="edge"><title>Node22&#45;&gt;Node26</title>
<path fill="none" stroke="midnightblue" d="M270.947,-392.399C301.398,-382.163 342.13,-368.47 370.873,-358.808"/>
<polygon fill="midnightblue" stroke="midnightblue" points="372.14,-362.075 380.503,-355.571 369.909,-355.44 372.14,-362.075"/>
</g>
<!-- Node23&#45;&gt;Node2 -->
<g id="edge40" class="edge"><title>Node23&#45;&gt;Node2</title>
<path fill="none" stroke="midnightblue" d="M228.174,-336.083C227.519,-329.006 226.58,-318.861 225.758,-309.986"/>
<polygon fill="midnightblue" stroke="midnightblue" points="229.217,-309.386 224.81,-299.751 222.247,-310.031 229.217,-309.386"/>
</g>
<!-- Node24 -->
<g id="node25" class="node"><title>Node24</title>
<g id="a_node25"><a xlink:href="GTRProfileProcess_8h.html" target="_top" xlink:title="GTRProfileProcess.h">
<polygon fill="none" stroke="black" points="326,-280.5 326,-299.5 436,-299.5 436,-280.5 326,-280.5"/>
<text text-anchor="middle" x="381" y="-287.5" font-family="Helvetica,sans-Serif" font-size="10.00">GTRProfileProcess.h</text>
</a>
</g>
</g>
<!-- Node23&#45;&gt;Node24 -->
<g id="edge35" class="edge"><title>Node23&#45;&gt;Node24</title>
<path fill="none" stroke="midnightblue" d="M253.085,-336.444C278.545,-327.399 318.894,-313.064 347.459,-302.916"/>
<polygon fill="midnightblue" stroke="midnightblue" points="348.777,-306.162 357.028,-299.516 346.433,-299.566 348.777,-306.162"/>
</g>
<!-- Node24&#45;&gt;Node3 -->
<g id="edge39" class="edge"><title>Node24&#45;&gt;Node3</title>
<path fill="none" stroke="midnightblue" d="M363.327,-280.324C345.606,-271.625 318.097,-258.12 297.712,-248.113"/>
<polygon fill="midnightblue" stroke="midnightblue" points="299.149,-244.919 288.63,-243.655 296.064,-251.203 299.149,-244.919"/>
</g>
<!-- Node25 -->
<g id="node26" class="node"><title>Node25</title>
<g id="a_node26"><a xlink:href="GTRSubMatrix_8h.html" target="_top" xlink:title="GTRSubMatrix.h">
<polygon fill="none" stroke="black" points="347,-224.5 347,-243.5 437,-243.5 437,-224.5 347,-224.5"/>
<text text-anchor="middle" x="392" y="-231.5" font-family="Helvetica,sans-Serif" font-size="10.00">GTRSubMatrix.h</text>
</a>
</g>
</g>
<!-- Node24&#45;&gt;Node25 -->
<g id="edge36" class="edge"><title>Node24&#45;&gt;Node25</title>
<path fill="none" stroke="midnightblue" d="M382.816,-280.083C384.274,-272.927 386.371,-262.635 388.193,-253.691"/>
<polygon fill="midnightblue" stroke="midnightblue" points="391.651,-254.248 390.217,-243.751 384.792,-252.851 391.651,-254.248"/>
</g>
<!-- Node25&#45;&gt;Node4 -->
<g id="edge38" class="edge"><title>Node25&#45;&gt;Node4</title>
<path fill="none" stroke="midnightblue" d="M386.22,-224.083C381.328,-216.534 374.173,-205.495 368.167,-196.23"/>
<polygon fill="midnightblue" stroke="midnightblue" points="371.048,-194.239 362.672,-187.751 365.174,-198.046 371.048,-194.239"/>
</g>
<!-- Node25&#45;&gt;Node17 -->
<g id="edge37" class="edge"><title>Node25&#45;&gt;Node17</title>
<path fill="none" stroke="midnightblue" d="M437.437,-224.709C487.444,-213.075 566.258,-186.849 608,-132 618.063,-118.777 620.25,-99.6454 620.258,-85.5605"/>
<polygon fill="midnightblue" stroke="midnightblue" points="623.755,-85.4265 619.906,-75.5559 616.76,-85.6729 623.755,-85.4265"/>
</g>
<!-- Node26&#45;&gt;Node24 -->
<g id="edge42" class="edge"><title>Node26&#45;&gt;Node24</title>
<path fill="none" stroke="midnightblue" d="M401.872,-336.083C398.486,-328.77 393.584,-318.181 389.381,-309.103"/>
<polygon fill="midnightblue" stroke="midnightblue" points="392.429,-307.355 385.051,-299.751 386.077,-310.296 392.429,-307.355"/>
</g>
</g>
</svg>
