<?xml version="1.0" encoding="UTF-8" standalone="no"?>
<!DOCTYPE svg PUBLIC "-//W3C//DTD SVG 1.1//EN"
 "http://www.w3.org/Graphics/SVG/1.1/DTD/svg11.dtd">
<!-- Generated by graphviz version 2.40.1 (20161225.0304)
 -->
<!-- Title: ExpoConjugateGTRProfileProcess.h Pages: 1 -->
<svg width="1100pt" height="341pt"
 viewBox="0.00 0.00 1100.00 341.00" xmlns="http://www.w3.org/2000/svg" xmlns:xlink="http://www.w3.org/1999/xlink">
<g id="graph0" class="graph" transform="scale(1 1) rotate(0) translate(4 337)">
<title>ExpoConjugateGTRProfileProcess.h</title>
<!-- Node20 -->
<g id="node1" class="node">
<title>Node20</title>
<polygon fill="#bfbfbf" stroke="#000000" points="514,-313.5 514,-332.5 690,-332.5 690,-313.5 514,-313.5"/>
<text text-anchor="middle" x="602" y="-320.5" font-family="Helvetica,sans-Serif" font-size="10.00" fill="#000000">ExpoConjugateGTRProfileProcess.h</text>
</g>
<!-- Node21 -->
<g id="node2" class="node">
<title>Node21</title>
<g id="a_node2"><a xlink:href="ExpoConjugateGTRMixtureProfileProcess_8h.html" target="_top" xlink:title="ExpoConjugateGTRMixtureProfile\lProcess.h">
<polygon fill="none" stroke="#000000" points="258,-246.5 258,-276.5 422,-276.5 422,-246.5 258,-246.5"/>
<text text-anchor="start" x="266" y="-264.5" font-family="Helvetica,sans-Serif" font-size="10.00" fill="#000000">ExpoConjugateGTRMixtureProfile</text>
<text text-anchor="middle" x="340" y="-253.5" font-family="Helvetica,sans-Serif" font-size="10.00" fill="#000000">Process.h</text>
</a>
</g>
</g>
<!-- Node20&#45;&gt;Node21 -->
<g id="edge1" class="edge">
<title>Node20&#45;&gt;Node21</title>
<path fill="none" stroke="#191970" d="M551.606,-311.1709C509.5692,-301.3035 449.4179,-287.184 403.9847,-276.5193"/>
<polygon fill="#191970" stroke="#191970" points="550.8147,-314.5802 561.35,-313.4581 552.4144,-307.7654 550.8147,-314.5802"/>
</g>
<!-- Node33 -->
<g id="node14" class="node">
<title>Node33</title>
<g id="a_node14"><a xlink:href="ExpoConjugateGTRSubstitutionProcess_8h.html" target="_top" xlink:title="ExpoConjugateGTRSubstitution\lProcess.h">
<polygon fill="none" stroke="#000000" points="524,-246.5 524,-276.5 680,-276.5 680,-246.5 524,-246.5"/>
<text text-anchor="start" x="532" y="-264.5" font-family="Helvetica,sans-Serif" font-size="10.00" fill="#000000">ExpoConjugateGTRSubstitution</text>
<text text-anchor="middle" x="602" y="-253.5" font-family="Helvetica,sans-Serif" font-size="10.00" fill="#000000">Process.h</text>
</a>
</g>
</g>
<!-- Node20&#45;&gt;Node33 -->
<g id="edge13" class="edge">
<title>Node20&#45;&gt;Node33</title>
<path fill="none" stroke="#191970" d="M602,-303.3693C602,-294.681 602,-284.6241 602,-276.5446"/>
<polygon fill="#191970" stroke="#191970" points="598.5001,-303.3906 602,-313.3906 605.5001,-303.3907 598.5001,-303.3906"/>
</g>
<!-- Node37 -->
<g id="node18" class="node">
<title>Node37</title>
<g id="a_node18"><a xlink:href="ExpoConjugateGTRProfileProcess_8cpp.html" target="_top" xlink:title="ExpoConjugateGTRProfileProcess.cpp">
<polygon fill="none" stroke="#000000" points="698.5,-252 698.5,-271 885.5,-271 885.5,-252 698.5,-252"/>
<text text-anchor="middle" x="792" y="-259" font-family="Helvetica,sans-Serif" font-size="10.00" fill="#000000">ExpoConjugateGTRProfileProcess.cpp</text>
</a>
</g>
</g>
<!-- Node20&#45;&gt;Node37 -->
<g id="edge19" class="edge">
<title>Node20&#45;&gt;Node37</title>
<path fill="none" stroke="#191970" d="M641.3879,-310.2507C677.4383,-298.5818 729.979,-281.5752 762.521,-271.0419"/>
<polygon fill="#191970" stroke="#191970" points="640.1237,-306.9811 631.6875,-313.3906 642.2794,-313.6409 640.1237,-306.9811"/>
</g>
<!-- Node22 -->
<g id="node3" class="node">
<title>Node22</title>
<g id="a_node3"><a xlink:href="ExpoConjugateGTRDPProfileProcess_8h.html" target="_top" xlink:title="ExpoConjugateGTRDPProfile\lProcess.h">
<polygon fill="none" stroke="#000000" points="182,-179.5 182,-209.5 328,-209.5 328,-179.5 182,-179.5"/>
<text text-anchor="start" x="190" y="-197.5" font-family="Helvetica,sans-Serif" font-size="10.00" fill="#000000">ExpoConjugateGTRDPProfile</text>
<text text-anchor="middle" x="255" y="-186.5" font-family="Helvetica,sans-Serif" font-size="10.00" fill="#000000">Process.h</text>
</a>
</g>
</g>
<!-- Node21&#45;&gt;Node22 -->
<g id="edge2" class="edge">
<title>Node21&#45;&gt;Node22</title>
<path fill="none" stroke="#191970" d="M312.8055,-240.0643C300.2374,-230.1577 285.6083,-218.6265 274.2115,-209.6432"/>
<polygon fill="#191970" stroke="#191970" points="310.6919,-242.8549 320.7122,-246.2967 315.0253,-237.3574 310.6919,-242.8549"/>
</g>
<!-- Node26 -->
<g id="node7" class="node">
<title>Node26</title>
<g id="a_node7"><a xlink:href="ExpoConjugateGTRMixtureProfileProcess_8cpp.html" target="_top" xlink:title="ExpoConjugateGTRMixtureProfile\lProcess.cpp">
<polygon fill="none" stroke="#000000" points="0,-179.5 0,-209.5 164,-209.5 164,-179.5 0,-179.5"/>
<text text-anchor="start" x="8" y="-197.5" font-family="Helvetica,sans-Serif" font-size="10.00" fill="#000000">ExpoConjugateGTRMixtureProfile</text>
<text text-anchor="middle" x="82" y="-186.5" font-family="Helvetica,sans-Serif" font-size="10.00" fill="#000000">Process.cpp</text>
</a>
</g>
</g>
<!-- Node21&#45;&gt;Node26 -->
<g id="edge6" class="edge">
<title>Node21&#45;&gt;Node26</title>
<path fill="none" stroke="#191970" d="M272.1784,-243.8874C231.129,-233.2273 179.3239,-219.774 140.1528,-209.6017"/>
<polygon fill="#191970" stroke="#191970" points="271.541,-247.3379 282.0998,-246.4639 273.3006,-240.5627 271.541,-247.3379"/>
</g>
<!-- Node27 -->
<g id="node8" class="node">
<title>Node27</title>
<g id="a_node8"><a xlink:href="ExpoConjugateGTRSBDPProfileProcess_8h.html" target="_top" xlink:title="ExpoConjugateGTRSBDPProfile\lProcess.h">
<polygon fill="none" stroke="#000000" points="346,-179.5 346,-209.5 506,-209.5 506,-179.5 346,-179.5"/>
<text text-anchor="start" x="354" y="-197.5" font-family="Helvetica,sans-Serif" font-size="10.00" fill="#000000">ExpoConjugateGTRSBDPProfile</text>
<text text-anchor="middle" x="426" y="-186.5" font-family="Helvetica,sans-Serif" font-size="10.00" fill="#000000">Process.h</text>
</a>
</g>
</g>
<!-- Node21&#45;&gt;Node27 -->
<g id="edge7" class="edge">
<title>Node21&#45;&gt;Node27</title>
<path fill="none" stroke="#191970" d="M367.5145,-240.0643C380.2304,-230.1577 395.0316,-218.6265 406.5625,-209.6432"/>
<polygon fill="#191970" stroke="#191970" points="365.2523,-237.3899 359.5147,-246.2967 369.5544,-242.9119 365.2523,-237.3899"/>
</g>
<!-- Node23 -->
<g id="node4" class="node">
<title>Node23</title>
<g id="a_node4"><a xlink:href="ExpoConjugateGTRDPProfileProcess_8cpp.html" target="_top" xlink:title="ExpoConjugateGTRDPProfile\lProcess.cpp">
<polygon fill="none" stroke="#000000" points="122,-112.5 122,-142.5 268,-142.5 268,-112.5 122,-112.5"/>
<text text-anchor="start" x="130" y="-130.5" font-family="Helvetica,sans-Serif" font-size="10.00" fill="#000000">ExpoConjugateGTRDPProfile</text>
<text text-anchor="middle" x="195" y="-119.5" font-family="Helvetica,sans-Serif" font-size="10.00" fill="#000000">Process.cpp</text>
</a>
</g>
</g>
<!-- Node22&#45;&gt;Node23 -->
<g id="edge3" class="edge">
<title>Node22&#45;&gt;Node23</title>
<path fill="none" stroke="#191970" d="M234.527,-171.6385C225.954,-162.0653 216.2227,-151.1987 208.561,-142.6432"/>
<polygon fill="#191970" stroke="#191970" points="232.1065,-174.1821 241.3851,-179.2967 237.3212,-169.5122 232.1065,-174.1821"/>
</g>
<!-- Node24 -->
<g id="node5" class="node">
<title>Node24</title>
<g id="a_node5"><a xlink:href="RASCATGTRDPGammaPhyloProcess_8h.html" target="_top" xlink:title="RASCATGTRDPGammaPhyloProcess.h">
<polygon fill="none" stroke="#000000" points="464.5,-118 464.5,-137 661.5,-137 661.5,-118 464.5,-118"/>
<text text-anchor="middle" x="563" y="-125" font-family="Helvetica,sans-Serif" font-size="10.00" fill="#000000">RASCATGTRDPGammaPhyloProcess.h</text>
</a>
</g>
</g>
<!-- Node22&#45;&gt;Node24 -->
<g id="edge4" class="edge">
<title>Node22&#45;&gt;Node24</title>
<path fill="none" stroke="#191970" d="M334.1403,-177.2844C393.0415,-164.4715 471.2498,-147.4587 519.3041,-137.0053"/>
<polygon fill="#191970" stroke="#191970" points="333.1487,-173.9182 324.1212,-179.4639 334.6367,-180.7582 333.1487,-173.9182"/>
</g>
<!-- Node25 -->
<g id="node6" class="node">
<title>Node25</title>
<g id="a_node6"><a xlink:href="RASCATGTRDPGammaPhyloProcess_8cpp.html" target="_top" xlink:title="RASCATGTRDPGammaPhyloProcess.cpp">
<polygon fill="none" stroke="#000000" points="459.5,-56.5 459.5,-75.5 666.5,-75.5 666.5,-56.5 459.5,-56.5"/>
<text text-anchor="middle" x="563" y="-63.5" font-family="Helvetica,sans-Serif" font-size="10.00" fill="#000000">RASCATGTRDPGammaPhyloProcess.cpp</text>
</a>
</g>
</g>
<!-- Node24&#45;&gt;Node25 -->
<g id="edge5" class="edge">
<title>Node24&#45;&gt;Node25</title>
<path fill="none" stroke="#191970" d="M563,-107.7462C563,-97.0519 563,-84.314 563,-75.7449"/>
<polygon fill="#191970" stroke="#191970" points="559.5001,-107.8906 563,-117.8906 566.5001,-107.8907 559.5001,-107.8906"/>
</g>
<!-- Node28 -->
<g id="node9" class="node">
<title>Node28</title>
<g id="a_node9"><a xlink:href="ExpoConjugateGTRSBDPProfileProcess_8cpp.html" target="_top" xlink:title="ExpoConjugateGTRSBDPProfile\lProcess.cpp">
<polygon fill="none" stroke="#000000" points="286,-112.5 286,-142.5 446,-142.5 446,-112.5 286,-112.5"/>
<text text-anchor="start" x="294" y="-130.5" font-family="Helvetica,sans-Serif" font-size="10.00" fill="#000000">ExpoConjugateGTRSBDPProfile</text>
<text text-anchor="middle" x="366" y="-119.5" font-family="Helvetica,sans-Serif" font-size="10.00" fill="#000000">Process.cpp</text>
</a>
</g>
</g>
<!-- Node27&#45;&gt;Node28 -->
<g id="edge8" class="edge">
<title>Node27&#45;&gt;Node28</title>
<path fill="none" stroke="#191970" d="M405.527,-171.6385C396.954,-162.0653 387.2227,-151.1987 379.561,-142.6432"/>
<polygon fill="#191970" stroke="#191970" points="403.1065,-174.1821 412.3851,-179.2967 408.3212,-169.5122 403.1065,-174.1821"/>
</g>
<!-- Node29 -->
<g id="node10" class="node">
<title>Node29</title>
<g id="a_node10"><a xlink:href="RASCATGTRSBDPGammaPhyloProcess_8h.html" target="_top" xlink:title="RASCATGTRSBDPGammaPhyloProcess.h">
<polygon fill="none" stroke="#000000" points="680,-118 680,-137 890,-137 890,-118 680,-118"/>
<text text-anchor="middle" x="785" y="-125" font-family="Helvetica,sans-Serif" font-size="10.00" fill="#000000">RASCATGTRSBDPGammaPhyloProcess.h</text>
</a>
</g>
</g>
<!-- Node27&#45;&gt;Node29 -->
<g id="edge9" class="edge">
<title>Node27&#45;&gt;Node29</title>
<path fill="none" stroke="#191970" d="M516.0982,-177.685C584.9358,-164.8379 677.33,-147.5944 733.9386,-137.0296"/>
<polygon fill="#191970" stroke="#191970" points="515.3079,-174.272 506.1198,-179.5473 516.5922,-181.1532 515.3079,-174.272"/>
</g>
<!-- Node30 -->
<g id="node11" class="node">
<title>Node30</title>
<g id="a_node11"><a xlink:href="Model_8h.html" target="_top" xlink:title="Model.h">
<polygon fill="none" stroke="#000000" points="721.5,-56.5 721.5,-75.5 772.5,-75.5 772.5,-56.5 721.5,-56.5"/>
<text text-anchor="middle" x="747" y="-63.5" font-family="Helvetica,sans-Serif" font-size="10.00" fill="#000000">Model.h</text>
</a>
</g>
</g>
<!-- Node29&#45;&gt;Node30 -->
<g id="edge10" class="edge">
<title>Node29&#45;&gt;Node30</title>
<path fill="none" stroke="#191970" d="M773.6221,-109.0857C766.8539,-98.132 758.5389,-84.6748 753.0212,-75.7449"/>
<polygon fill="#191970" stroke="#191970" points="770.8286,-111.2233 779.0625,-117.8906 776.7835,-107.5438 770.8286,-111.2233"/>
</g>
<!-- Node32 -->
<g id="node13" class="node">
<title>Node32</title>
<g id="a_node13"><a xlink:href="RASCATGTRSBDPGammaPhyloProcess_8cpp.html" target="_top" xlink:title="RASCATGTRSBDPGammaPhyloProcess.cpp">
<polygon fill="none" stroke="#000000" points="790.5,-56.5 790.5,-75.5 1011.5,-75.5 1011.5,-56.5 790.5,-56.5"/>
<text text-anchor="middle" x="901" y="-63.5" font-family="Helvetica,sans-Serif" font-size="10.00" fill="#000000">RASCATGTRSBDPGammaPhyloProcess.cpp</text>
</a>
</g>
</g>
<!-- Node29&#45;&gt;Node32 -->
<g id="edge12" class="edge">
<title>Node29&#45;&gt;Node32</title>
<path fill="none" stroke="#191970" d="M812.2157,-113.071C834.0459,-101.4972 864.0685,-85.5801 883.0023,-75.5419"/>
<polygon fill="#191970" stroke="#191970" points="810.3206,-110.1142 803.125,-117.8906 813.5996,-116.2987 810.3206,-110.1142"/>
</g>
<!-- Node31 -->
<g id="node12" class="node">
<title>Node31</title>
<g id="a_node12"><a xlink:href="PB_8cpp.html" target="_top" xlink:title="PB.cpp">
<polygon fill="none" stroke="#000000" points="722.5,-.5 722.5,-19.5 771.5,-19.5 771.5,-.5 722.5,-.5"/>
<text text-anchor="middle" x="747" y="-7.5" font-family="Helvetica,sans-Serif" font-size="10.00" fill="#000000">PB.cpp</text>
</a>
</g>
</g>
<!-- Node30&#45;&gt;Node31 -->
<g id="edge11" class="edge">
<title>Node30&#45;&gt;Node31</title>
<path fill="none" stroke="#191970" d="M747,-46.1575C747,-37.155 747,-26.9199 747,-19.6427"/>
<polygon fill="#191970" stroke="#191970" points="743.5001,-46.2455 747,-56.2455 750.5001,-46.2456 743.5001,-46.2455"/>
</g>
<!-- Node34 -->
<g id="node15" class="node">
<title>Node34</title>
<g id="a_node15"><a xlink:href="ExpoConjugateGTRPhyloProcess_8h.html" target="_top" xlink:title="ExpoConjugateGTRPhyloProcess.h">
<polygon fill="none" stroke="#000000" points="698.5,-185 698.5,-204 871.5,-204 871.5,-185 698.5,-185"/>
<text text-anchor="middle" x="785" y="-192" font-family="Helvetica,sans-Serif" font-size="10.00" fill="#000000">ExpoConjugateGTRPhyloProcess.h</text>
</a>
</g>
</g>
<!-- Node33&#45;&gt;Node34 -->
<g id="edge14" class="edge">
<title>Node33&#45;&gt;Node34</title>
<path fill="none" stroke="#191970" d="M652.529,-243.0003C687.0709,-230.3538 731.4299,-214.1131 759.0378,-204.0053"/>
<polygon fill="#191970" stroke="#191970" points="651.2559,-239.7392 643.0688,-246.4639 653.6625,-246.3125 651.2559,-239.7392"/>
</g>
<!-- Node36 -->
<g id="node17" class="node">
<title>Node36</title>
<g id="a_node17"><a xlink:href="ExpoConjugateGTRSubstitutionProcess_8cpp.html" target="_top" xlink:title="ExpoConjugateGTRSubstitution\lProcess.cpp">
<polygon fill="none" stroke="#000000" points="524,-179.5 524,-209.5 680,-209.5 680,-179.5 524,-179.5"/>
<text text-anchor="start" x="532" y="-197.5" font-family="Helvetica,sans-Serif" font-size="10.00" fill="#000000">ExpoConjugateGTRSubstitution</text>
<text text-anchor="middle" x="602" y="-186.5" font-family="Helvetica,sans-Serif" font-size="10.00" fill="#000000">Process.cpp</text>
</a>
</g>
</g>
<!-- Node33&#45;&gt;Node36 -->
<g id="edge18" class="edge">
<title>Node33&#45;&gt;Node36</title>
<path fill="none" stroke="#191970" d="M602,-236.0249C602,-227.128 602,-217.4287 602,-209.6432"/>
<polygon fill="#191970" stroke="#191970" points="598.5001,-236.2966 602,-246.2967 605.5001,-236.2967 598.5001,-236.2966"/>
</g>
<!-- Node34&#45;&gt;Node24 -->
<g id="edge17" class="edge">
<title>Node34&#45;&gt;Node24</title>
<path fill="none" stroke="#191970" d="M743.5683,-181.9958C700.4518,-168.9832 633.873,-148.8896 594.7482,-137.0817"/>
<polygon fill="#191970" stroke="#191970" points="742.608,-185.3619 753.1928,-184.9005 744.6306,-178.6604 742.608,-185.3619"/>
</g>
<!-- Node34&#45;&gt;Node29 -->
<g id="edge16" class="edge">
<title>Node34&#45;&gt;Node29</title>
<path fill="none" stroke="#191970" d="M785,-174.6079C785,-162.214 785,-146.8263 785,-137.0817"/>
<polygon fill="#191970" stroke="#191970" points="781.5001,-174.9005 785,-184.9005 788.5001,-174.9006 781.5001,-174.9005"/>
</g>
<!-- Node35 -->
<g id="node16" class="node">
<title>Node35</title>
<g id="a_node16"><a xlink:href="ExpoConjugateGTRPhyloProcess_8cpp.html" target="_top" xlink:title="ExpoConjugateGTRPhyloProcess.cpp">
<polygon fill="none" stroke="#000000" points="908,-118 908,-137 1092,-137 1092,-118 908,-118"/>
<text text-anchor="middle" x="1000" y="-125" font-family="Helvetica,sans-Serif" font-size="10.00" fill="#000000">ExpoConjugateGTRPhyloProcess.cpp</text>
</a>
</g>
</g>
<!-- Node34&#45;&gt;Node35 -->
<g id="edge15" class="edge">
<title>Node34&#45;&gt;Node35</title>
<path fill="none" stroke="#191970" d="M825.3893,-181.9136C867.1537,-168.8986 931.4415,-148.8647 969.2529,-137.0817"/>
<polygon fill="#191970" stroke="#191970" points="824.3101,-178.5838 815.8043,-184.9005 826.3928,-185.2668 824.3101,-178.5838"/>
</g>
</g>
</svg>
