<?xml version="1.0" encoding="UTF-8" standalone="no"?>
<!DOCTYPE svg PUBLIC "-//W3C//DTD SVG 1.1//EN"
 "http://www.w3.org/Graphics/SVG/1.1/DTD/svg11.dtd">
<!-- Generated by graphviz version 2.38.0 (20140413.2041)
 -->
<!-- Title: ExpoConjugateGTRMixtureProfileProcess.h Pages: 1 -->
<svg width="1136pt" height="296pt"
 viewBox="0.00 0.00 1135.50 296.00" xmlns="http://www.w3.org/2000/svg" xmlns:xlink="http://www.w3.org/1999/xlink">
<g id="graph0" class="graph" transform="scale(1 1) rotate(0) translate(4 292)">
<title>ExpoConjugateGTRMixtureProfileProcess.h</title>
<!-- Node24 -->
<g id="node1" class="node"><title>Node24</title>
<polygon fill="#bfbfbf" stroke="black" points="465,-257.5 465,-287.5 629,-287.5 629,-257.5 465,-257.5"/>
<text text-anchor="start" x="473" y="-275.5" font-family="Helvetica,sans-Serif" font-size="10.00">ExpoConjugateGTRMixtureProfile</text>
<text text-anchor="middle" x="547" y="-264.5" font-family="Helvetica,sans-Serif" font-size="10.00">Process.h</text>
</g>
<!-- Node25 -->
<g id="node2" class="node"><title>Node25</title>
<g id="a_node2"><a xlink:href="ExpoConjugateGTRDPProfileProcess_8h.html" target="_top" xlink:title="ExpoConjugateGTRDPProfile\lProcess.h">
<polygon fill="none" stroke="black" points="190,-190.5 190,-220.5 336,-220.5 336,-190.5 190,-190.5"/>
<text text-anchor="start" x="198" y="-208.5" font-family="Helvetica,sans-Serif" font-size="10.00">ExpoConjugateGTRDPProfile</text>
<text text-anchor="middle" x="263" y="-197.5" font-family="Helvetica,sans-Serif" font-size="10.00">Process.h</text>
</a>
</g>
</g>
<!-- Node24&#45;&gt;Node25 -->
<g id="edge1" class="edge"><title>Node24&#45;&gt;Node25</title>
<path fill="none" stroke="midnightblue" d="M475.719,-255.186C429.207,-244.54 369.103,-230.784 324.654,-220.611"/>
<polygon fill="midnightblue" stroke="midnightblue" points="475.197,-258.657 485.726,-257.476 476.759,-251.833 475.197,-258.657"/>
</g>
<!-- Node29 -->
<g id="node6" class="node"><title>Node29</title>
<g id="a_node6"><a xlink:href="ExpoConjugateGTRFiniteProfileProcess_8h.html" target="_top" xlink:title="ExpoConjugateGTRFiniteProfile\lProcess.h">
<polygon fill="none" stroke="black" points="380,-190.5 380,-220.5 536,-220.5 536,-190.5 380,-190.5"/>
<text text-anchor="start" x="388" y="-208.5" font-family="Helvetica,sans-Serif" font-size="10.00">ExpoConjugateGTRFiniteProfile</text>
<text text-anchor="middle" x="458" y="-197.5" font-family="Helvetica,sans-Serif" font-size="10.00">Process.h</text>
</a>
</g>
</g>
<!-- Node24&#45;&gt;Node29 -->
<g id="edge5" class="edge"><title>Node24&#45;&gt;Node29</title>
<path fill="none" stroke="midnightblue" d="M519.548,-251.451C505.857,-241.452 489.629,-229.6 477.274,-220.577"/>
<polygon fill="midnightblue" stroke="midnightblue" points="517.548,-254.324 527.688,-257.396 521.677,-248.672 517.548,-254.324"/>
</g>
<!-- Node36 -->
<g id="node13" class="node"><title>Node36</title>
<g id="a_node13"><a xlink:href="ExpoConjugateGTRMixtureProfileProcess_8cpp.html" target="_top" xlink:title="ExpoConjugateGTRMixtureProfile\lProcess.cpp">
<polygon fill="none" stroke="black" points="554,-190.5 554,-220.5 718,-220.5 718,-190.5 554,-190.5"/>
<text text-anchor="start" x="562" y="-208.5" font-family="Helvetica,sans-Serif" font-size="10.00">ExpoConjugateGTRMixtureProfile</text>
<text text-anchor="middle" x="636" y="-197.5" font-family="Helvetica,sans-Serif" font-size="10.00">Process.cpp</text>
</a>
</g>
</g>
<!-- Node24&#45;&gt;Node36 -->
<g id="edge12" class="edge"><title>Node24&#45;&gt;Node36</title>
<path fill="none" stroke="midnightblue" d="M574.452,-251.451C588.143,-241.452 604.371,-229.6 616.726,-220.577"/>
<polygon fill="midnightblue" stroke="midnightblue" points="572.323,-248.672 566.312,-257.396 576.452,-254.324 572.323,-248.672"/>
</g>
<!-- Node37 -->
<g id="node14" class="node"><title>Node37</title>
<g id="a_node14"><a xlink:href="ExpoConjugateGTRSBDPProfileProcess_8h.html" target="_top" xlink:title="ExpoConjugateGTRSBDPProfile\lProcess.h">
<polygon fill="none" stroke="black" points="736,-190.5 736,-220.5 896,-220.5 896,-190.5 736,-190.5"/>
<text text-anchor="start" x="744" y="-208.5" font-family="Helvetica,sans-Serif" font-size="10.00">ExpoConjugateGTRSBDPProfile</text>
<text text-anchor="middle" x="816" y="-197.5" font-family="Helvetica,sans-Serif" font-size="10.00">Process.h</text>
</a>
</g>
</g>
<!-- Node24&#45;&gt;Node37 -->
<g id="edge13" class="edge"><title>Node24&#45;&gt;Node37</title>
<path fill="none" stroke="midnightblue" d="M614.794,-255.119C658.81,-244.483 715.589,-230.763 757.603,-220.611"/>
<polygon fill="midnightblue" stroke="midnightblue" points="613.936,-251.725 605.038,-257.476 615.58,-258.529 613.936,-251.725"/>
</g>
<!-- Node26 -->
<g id="node3" class="node"><title>Node26</title>
<g id="a_node3"><a xlink:href="ExpoConjugateGTRDPProfileProcess_8cpp.html" target="_top" xlink:title="ExpoConjugateGTRDPProfile\lProcess.cpp">
<polygon fill="none" stroke="black" points="0,-123.5 0,-153.5 146,-153.5 146,-123.5 0,-123.5"/>
<text text-anchor="start" x="8" y="-141.5" font-family="Helvetica,sans-Serif" font-size="10.00">ExpoConjugateGTRDPProfile</text>
<text text-anchor="middle" x="73" y="-130.5" font-family="Helvetica,sans-Serif" font-size="10.00">Process.cpp</text>
</a>
</g>
</g>
<!-- Node25&#45;&gt;Node26 -->
<g id="edge2" class="edge"><title>Node25&#45;&gt;Node26</title>
<path fill="none" stroke="midnightblue" d="M212.114,-187.092C181.443,-176.599 142.886,-163.408 114.147,-153.577"/>
<polygon fill="midnightblue" stroke="midnightblue" points="211.178,-190.471 221.773,-190.396 213.444,-183.847 211.178,-190.471"/>
</g>
<!-- Node27 -->
<g id="node4" class="node"><title>Node27</title>
<g id="a_node4"><a xlink:href="RASCATGTRDPGammaPhyloProcess_8h.html" target="_top" xlink:title="RASCATGTRDPGammaPhyloProcess.h">
<polygon fill="none" stroke="black" points="164.5,-129 164.5,-148 361.5,-148 361.5,-129 164.5,-129"/>
<text text-anchor="middle" x="263" y="-136" font-family="Helvetica,sans-Serif" font-size="10.00">RASCATGTRDPGammaPhyloProcess.h</text>
</a>
</g>
</g>
<!-- Node25&#45;&gt;Node27 -->
<g id="edge3" class="edge"><title>Node25&#45;&gt;Node27</title>
<path fill="none" stroke="midnightblue" d="M263,-180.25C263,-169.017 263,-156.377 263,-148.195"/>
<polygon fill="midnightblue" stroke="midnightblue" points="259.5,-180.396 263,-190.396 266.5,-180.396 259.5,-180.396"/>
</g>
<!-- Node28 -->
<g id="node5" class="node"><title>Node28</title>
<g id="a_node5"><a xlink:href="RASCATGTRDPGammaPhyloProcess_8cpp.html" target="_top" xlink:title="RASCATGTRDPGammaPhyloProcess.cpp">
<polygon fill="none" stroke="black" points="159.5,-62 159.5,-81 366.5,-81 366.5,-62 159.5,-62"/>
<text text-anchor="middle" x="263" y="-69" font-family="Helvetica,sans-Serif" font-size="10.00">RASCATGTRDPGammaPhyloProcess.cpp</text>
</a>
</g>
</g>
<!-- Node27&#45;&gt;Node28 -->
<g id="edge4" class="edge"><title>Node27&#45;&gt;Node28</title>
<path fill="none" stroke="midnightblue" d="M263,-118.537C263,-106.17 263,-90.6198 263,-81.1273"/>
<polygon fill="midnightblue" stroke="midnightblue" points="259.5,-118.734 263,-128.734 266.5,-118.734 259.5,-118.734"/>
</g>
<!-- Node30 -->
<g id="node7" class="node"><title>Node30</title>
<g id="a_node7"><a xlink:href="ExpoConjugateGTRFiniteProfileProcess_8cpp.html" target="_top" xlink:title="ExpoConjugateGTRFiniteProfile\lProcess.cpp">
<polygon fill="none" stroke="black" points="380,-123.5 380,-153.5 536,-153.5 536,-123.5 380,-123.5"/>
<text text-anchor="start" x="388" y="-141.5" font-family="Helvetica,sans-Serif" font-size="10.00">ExpoConjugateGTRFiniteProfile</text>
<text text-anchor="middle" x="458" y="-130.5" font-family="Helvetica,sans-Serif" font-size="10.00">Process.cpp</text>
</a>
</g>
</g>
<!-- Node29&#45;&gt;Node30 -->
<g id="edge6" class="edge"><title>Node29&#45;&gt;Node30</title>
<path fill="none" stroke="midnightblue" d="M458,-180.108C458,-171.154 458,-161.323 458,-153.577"/>
<polygon fill="midnightblue" stroke="midnightblue" points="454.5,-180.396 458,-190.396 461.5,-180.396 454.5,-180.396"/>
</g>
<!-- Node31 -->
<g id="node8" class="node"><title>Node31</title>
<g id="a_node8"><a xlink:href="RASCATGTRFiniteGammaPhyloProcess_8h.html" target="_top" xlink:title="RASCATGTRFiniteGammaPhylo\lProcess.h">
<polygon fill="none" stroke="black" points="554,-123.5 554,-153.5 716,-153.5 716,-123.5 554,-123.5"/>
<text text-anchor="start" x="562" y="-141.5" font-family="Helvetica,sans-Serif" font-size="10.00">RASCATGTRFiniteGammaPhylo</text>
<text text-anchor="middle" x="635" y="-130.5" font-family="Helvetica,sans-Serif" font-size="10.00">Process.h</text>
</a>
</g>
</g>
<!-- Node29&#45;&gt;Node31 -->
<g id="edge7" class="edge"><title>Node29&#45;&gt;Node31</title>
<path fill="none" stroke="midnightblue" d="M506.148,-186.819C534.598,-176.371 570.128,-163.323 596.669,-153.577"/>
<polygon fill="midnightblue" stroke="midnightblue" points="504.587,-183.663 496.406,-190.396 507,-190.234 504.587,-183.663"/>
</g>
<!-- Node32 -->
<g id="node9" class="node"><title>Node32</title>
<g id="a_node9"><a xlink:href="Model_8h.html" target="_top" xlink:title="Model.h">
<polygon fill="none" stroke="black" points="786.5,-62 786.5,-81 837.5,-81 837.5,-62 786.5,-62"/>
<text text-anchor="middle" x="812" y="-69" font-family="Helvetica,sans-Serif" font-size="10.00">Model.h</text>
</a>
</g>
</g>
<!-- Node31&#45;&gt;Node32 -->
<g id="edge8" class="edge"><title>Node31&#45;&gt;Node32</title>
<path fill="none" stroke="midnightblue" d="M682.801,-119.946C717.179,-107.321 762.031,-90.8502 788.835,-81.007"/>
<polygon fill="midnightblue" stroke="midnightblue" points="681.587,-116.663 673.406,-123.396 684,-123.234 681.587,-116.663"/>
</g>
<!-- Node35 -->
<g id="node12" class="node"><title>Node35</title>
<g id="a_node12"><a xlink:href="RASCATGTRFiniteGammaPhyloProcess_8cpp.html" target="_top" xlink:title="RASCATGTRFiniteGammaPhylo\lProcess.cpp">
<polygon fill="none" stroke="black" points="554,-56.5 554,-86.5 716,-86.5 716,-56.5 554,-56.5"/>
<text text-anchor="start" x="562" y="-74.5" font-family="Helvetica,sans-Serif" font-size="10.00">RASCATGTRFiniteGammaPhylo</text>
<text text-anchor="middle" x="635" y="-63.5" font-family="Helvetica,sans-Serif" font-size="10.00">Process.cpp</text>
</a>
</g>
</g>
<!-- Node31&#45;&gt;Node35 -->
<g id="edge11" class="edge"><title>Node31&#45;&gt;Node35</title>
<path fill="none" stroke="midnightblue" d="M635,-113.108C635,-104.154 635,-94.3227 635,-86.5765"/>
<polygon fill="midnightblue" stroke="midnightblue" points="631.5,-113.396 635,-123.396 638.5,-113.396 631.5,-113.396"/>
</g>
<!-- Node33 -->
<g id="node10" class="node"><title>Node33</title>
<g id="a_node10"><a xlink:href="PB_8cpp.html" target="_top" xlink:title="PB.cpp">
<polygon fill="none" stroke="black" points="747.5,-0.5 747.5,-19.5 796.5,-19.5 796.5,-0.5 747.5,-0.5"/>
<text text-anchor="middle" x="772" y="-7.5" font-family="Helvetica,sans-Serif" font-size="10.00">PB.cpp</text>
</a>
</g>
</g>
<!-- Node32&#45;&gt;Node33 -->
<g id="edge9" class="edge"><title>Node32&#45;&gt;Node33</title>
<path fill="none" stroke="midnightblue" d="M800.575,-53.5051C793.101,-42.388 783.657,-28.3395 777.72,-19.5091"/>
<polygon fill="midnightblue" stroke="midnightblue" points="797.785,-55.6288 806.269,-61.9751 803.594,-51.7234 797.785,-55.6288"/>
</g>
<!-- Node34 -->
<g id="node11" class="node"><title>Node34</title>
<g id="a_node11"><a xlink:href="ReadPB_8cpp.html" target="_top" xlink:title="ReadPB.cpp">
<polygon fill="none" stroke="black" points="815,-0.5 815,-19.5 887,-19.5 887,-0.5 815,-0.5"/>
<text text-anchor="middle" x="851" y="-7.5" font-family="Helvetica,sans-Serif" font-size="10.00">ReadPB.cpp</text>
</a>
</g>
</g>
<!-- Node32&#45;&gt;Node34 -->
<g id="edge10" class="edge"><title>Node32&#45;&gt;Node34</title>
<path fill="none" stroke="midnightblue" d="M823.14,-53.5051C830.426,-42.388 839.635,-28.3395 845.423,-19.5091"/>
<polygon fill="midnightblue" stroke="midnightblue" points="820.143,-51.6929 817.588,-61.9751 825.997,-55.5303 820.143,-51.6929"/>
</g>
<!-- Node38 -->
<g id="node15" class="node"><title>Node38</title>
<g id="a_node15"><a xlink:href="ExpoConjugateGTRSBDPProfileProcess_8cpp.html" target="_top" xlink:title="ExpoConjugateGTRSBDPProfile\lProcess.cpp">
<polygon fill="none" stroke="black" points="734,-123.5 734,-153.5 894,-153.5 894,-123.5 734,-123.5"/>
<text text-anchor="start" x="742" y="-141.5" font-family="Helvetica,sans-Serif" font-size="10.00">ExpoConjugateGTRSBDPProfile</text>
<text text-anchor="middle" x="814" y="-130.5" font-family="Helvetica,sans-Serif" font-size="10.00">Process.cpp</text>
</a>
</g>
</g>
<!-- Node37&#45;&gt;Node38 -->
<g id="edge14" class="edge"><title>Node37&#45;&gt;Node38</title>
<path fill="none" stroke="midnightblue" d="M815.249,-180.108C814.974,-171.154 814.671,-161.323 814.433,-153.577"/>
<polygon fill="midnightblue" stroke="midnightblue" points="811.76,-180.508 815.566,-190.396 818.757,-180.293 811.76,-180.508"/>
</g>
<!-- Node39 -->
<g id="node16" class="node"><title>Node39</title>
<g id="a_node16"><a xlink:href="RASCATGTRSBDPGammaPhyloProcess_8h.html" target="_top" xlink:title="RASCATGTRSBDPGammaPhyloProcess.h">
<polygon fill="none" stroke="black" points="912,-129 912,-148 1122,-148 1122,-129 912,-129"/>
<text text-anchor="middle" x="1017" y="-136" font-family="Helvetica,sans-Serif" font-size="10.00">RASCATGTRSBDPGammaPhyloProcess.h</text>
</a>
</g>
</g>
<!-- Node37&#45;&gt;Node39 -->
<g id="edge15" class="edge"><title>Node37&#45;&gt;Node39</title>
<path fill="none" stroke="midnightblue" d="M869.284,-187.269C908.45,-174.603 959.995,-157.934 990.694,-148.007"/>
<polygon fill="midnightblue" stroke="midnightblue" points="868.052,-183.989 859.614,-190.396 870.206,-190.649 868.052,-183.989"/>
</g>
<!-- Node39&#45;&gt;Node32 -->
<g id="edge16" class="edge"><title>Node39&#45;&gt;Node32</title>
<path fill="none" stroke="midnightblue" d="M980.137,-125.812C939.039,-112.781 873.64,-92.0443 837.718,-80.6544"/>
<polygon fill="midnightblue" stroke="midnightblue" points="979.187,-129.182 989.778,-128.869 981.303,-122.51 979.187,-129.182"/>
</g>
<!-- Node40 -->
<g id="node17" class="node"><title>Node40</title>
<g id="a_node17"><a xlink:href="RASCATGTRSBDPGammaPhyloProcess_8cpp.html" target="_top" xlink:title="RASCATGTRSBDPGammaPhyloProcess.cpp">
<polygon fill="none" stroke="black" points="906.5,-62 906.5,-81 1127.5,-81 1127.5,-62 906.5,-62"/>
<text text-anchor="middle" x="1017" y="-69" font-family="Helvetica,sans-Serif" font-size="10.00">RASCATGTRSBDPGammaPhyloProcess.cpp</text>
</a>
</g>
</g>
<!-- Node39&#45;&gt;Node40 -->
<g id="edge17" class="edge"><title>Node39&#45;&gt;Node40</title>
<path fill="none" stroke="midnightblue" d="M1017,-118.537C1017,-106.17 1017,-90.6198 1017,-81.1273"/>
<polygon fill="midnightblue" stroke="midnightblue" points="1013.5,-118.734 1017,-128.734 1020.5,-118.734 1013.5,-118.734"/>
</g>
</g>
</svg>
