<?xml version="1.0" encoding="UTF-8" standalone="no"?>
<!DOCTYPE svg PUBLIC "-//W3C//DTD SVG 1.1//EN"
 "http://www.w3.org/Graphics/SVG/1.1/DTD/svg11.dtd">
<!-- Generated by graphviz version 2.38.0 (20140413.2041)
 -->
<!-- Title: ExpoConjugateGTRProfileProcess.cpp Pages: 1 -->
<svg width="594pt" height="420pt"
 viewBox="0.00 0.00 593.50 420.00" xmlns="http://www.w3.org/2000/svg" xmlns:xlink="http://www.w3.org/1999/xlink">
<g id="graph0" class="graph" transform="scale(1 1) rotate(0) translate(4 416)">
<title>ExpoConjugateGTRProfileProcess.cpp</title>
<!-- Node0 -->
<g id="node1" class="node"><title>Node0</title>
<polygon fill="#bfbfbf" stroke="black" points="267,-392.5 267,-411.5 454,-411.5 454,-392.5 267,-392.5"/>
<text text-anchor="middle" x="360.5" y="-399.5" font-family="Helvetica,sans-Serif" font-size="10.00">ExpoConjugateGTRProfileProcess.cpp</text>
</g>
<!-- Node1 -->
<g id="node2" class="node"><title>Node1</title>
<g id="a_node2"><a xlink:href="ExpoConjugateGTRProfileProcess_8h.html" target="_top" xlink:title="ExpoConjugateGTRProfileProcess.h">
<polygon fill="none" stroke="black" points="209.5,-336.5 209.5,-355.5 385.5,-355.5 385.5,-336.5 209.5,-336.5"/>
<text text-anchor="middle" x="297.5" y="-343.5" font-family="Helvetica,sans-Serif" font-size="10.00">ExpoConjugateGTRProfileProcess.h</text>
</a>
</g>
</g>
<!-- Node0&#45;&gt;Node1 -->
<g id="edge1" class="edge"><title>Node0&#45;&gt;Node1</title>
<path fill="none" stroke="midnightblue" d="M350.378,-392.324C340.974,-384.263 326.756,-372.077 315.431,-362.369"/>
<polygon fill="midnightblue" stroke="midnightblue" points="317.677,-359.684 307.806,-355.834 313.121,-364.999 317.677,-359.684"/>
</g>
<!-- Node10 -->
<g id="node11" class="node"><title>Node10</title>
<g id="a_node11"><a xlink:href="Random_8h.html" target="_top" xlink:title="Random.h">
<polygon fill="none" stroke="black" points="392.5,-56.5 392.5,-75.5 454.5,-75.5 454.5,-56.5 392.5,-56.5"/>
<text text-anchor="middle" x="423.5" y="-63.5" font-family="Helvetica,sans-Serif" font-size="10.00">Random.h</text>
</a>
</g>
</g>
<!-- Node0&#45;&gt;Node10 -->
<g id="edge30" class="edge"><title>Node0&#45;&gt;Node10</title>
<path fill="none" stroke="midnightblue" d="M369.796,-392.282C387.32,-374.851 423.5,-333.695 423.5,-291 423.5,-291 423.5,-291 423.5,-177 423.5,-144.948 423.5,-107.643 423.5,-85.7489"/>
<polygon fill="midnightblue" stroke="midnightblue" points="427,-85.5577 423.5,-75.5578 420,-85.5578 427,-85.5577"/>
</g>
<!-- Node2 -->
<g id="node3" class="node"><title>Node2</title>
<g id="a_node3"><a xlink:href="GTRProfileProcess_8h.html" target="_top" xlink:title="GTRProfileProcess.h">
<polygon fill="none" stroke="black" points="239.5,-280.5 239.5,-299.5 349.5,-299.5 349.5,-280.5 239.5,-280.5"/>
<text text-anchor="middle" x="294.5" y="-287.5" font-family="Helvetica,sans-Serif" font-size="10.00">GTRProfileProcess.h</text>
</a>
</g>
</g>
<!-- Node1&#45;&gt;Node2 -->
<g id="edge2" class="edge"><title>Node1&#45;&gt;Node2</title>
<path fill="none" stroke="midnightblue" d="M297.005,-336.083C296.611,-329.006 296.048,-318.861 295.555,-309.986"/>
<polygon fill="midnightblue" stroke="midnightblue" points="299.036,-309.542 294.986,-299.751 292.046,-309.93 299.036,-309.542"/>
</g>
<!-- Node3 -->
<g id="node4" class="node"><title>Node3</title>
<g id="a_node4"><a xlink:href="GTRSubMatrix_8h.html" target="_top" xlink:title="GTRSubMatrix.h">
<polygon fill="none" stroke="black" points="244.5,-168.5 244.5,-187.5 334.5,-187.5 334.5,-168.5 244.5,-168.5"/>
<text text-anchor="middle" x="289.5" y="-175.5" font-family="Helvetica,sans-Serif" font-size="10.00">GTRSubMatrix.h</text>
</a>
</g>
</g>
<!-- Node2&#45;&gt;Node3 -->
<g id="edge3" class="edge"><title>Node2&#45;&gt;Node3</title>
<path fill="none" stroke="midnightblue" d="M294.108,-280.368C293.301,-262.617 291.439,-221.666 290.345,-197.597"/>
<polygon fill="midnightblue" stroke="midnightblue" points="293.841,-197.422 289.891,-187.591 286.848,-197.74 293.841,-197.422"/>
</g>
<!-- Node14 -->
<g id="node15" class="node"><title>Node14</title>
<g id="a_node15"><a xlink:href="MatrixProfileProcess_8h.html" target="_top" xlink:title="MatrixProfileProcess.h">
<polygon fill="none" stroke="black" points="150.5,-224.5 150.5,-243.5 266.5,-243.5 266.5,-224.5 150.5,-224.5"/>
<text text-anchor="middle" x="208.5" y="-231.5" font-family="Helvetica,sans-Serif" font-size="10.00">MatrixProfileProcess.h</text>
</a>
</g>
</g>
<!-- Node2&#45;&gt;Node14 -->
<g id="edge18" class="edge"><title>Node2&#45;&gt;Node14</title>
<path fill="none" stroke="midnightblue" d="M280.683,-280.324C267.267,-271.9 246.676,-258.971 230.914,-249.074"/>
<polygon fill="midnightblue" stroke="midnightblue" points="232.613,-246.008 222.283,-243.655 228.891,-251.936 232.613,-246.008"/>
</g>
<!-- Node4 -->
<g id="node5" class="node"><title>Node4</title>
<g id="a_node5"><a xlink:href="BiologicalSequences_8h.html" target="_top" xlink:title="BiologicalSequences.h">
<polygon fill="none" stroke="black" points="144.5,-56.5 144.5,-75.5 260.5,-75.5 260.5,-56.5 144.5,-56.5"/>
<text text-anchor="middle" x="202.5" y="-63.5" font-family="Helvetica,sans-Serif" font-size="10.00">BiologicalSequences.h</text>
</a>
</g>
</g>
<!-- Node3&#45;&gt;Node4 -->
<g id="edge4" class="edge"><title>Node3&#45;&gt;Node4</title>
<path fill="none" stroke="midnightblue" d="M282.673,-168.368C268.252,-150.135 234.473,-107.426 215.689,-83.6752"/>
<polygon fill="midnightblue" stroke="midnightblue" points="218.244,-81.2636 209.295,-75.5914 212.753,-85.606 218.244,-81.2636"/>
</g>
<!-- Node8 -->
<g id="node9" class="node"><title>Node8</title>
<g id="a_node9"><a xlink:href="SubMatrix_8h.html" target="_top" xlink:title="SubMatrix.h">
<polygon fill="none" stroke="black" points="326,-112.5 326,-131.5 395,-131.5 395,-112.5 326,-112.5"/>
<text text-anchor="middle" x="360.5" y="-119.5" font-family="Helvetica,sans-Serif" font-size="10.00">SubMatrix.h</text>
</a>
</g>
</g>
<!-- Node3&#45;&gt;Node8 -->
<g id="edge8" class="edge"><title>Node3&#45;&gt;Node8</title>
<path fill="none" stroke="midnightblue" d="M300.907,-168.324C311.609,-160.185 327.841,-147.839 340.663,-138.087"/>
<polygon fill="midnightblue" stroke="midnightblue" points="343.044,-140.673 348.885,-131.834 338.807,-135.102 343.044,-140.673"/>
</g>
<!-- Node5 -->
<g id="node6" class="node"><title>Node5</title>
<polygon fill="none" stroke="#bfbfbf" points="140,-0.5 140,-19.5 185,-19.5 185,-0.5 140,-0.5"/>
<text text-anchor="middle" x="162.5" y="-7.5" font-family="Helvetica,sans-Serif" font-size="10.00">cstdlib</text>
</g>
<!-- Node4&#45;&gt;Node5 -->
<g id="edge5" class="edge"><title>Node4&#45;&gt;Node5</title>
<path fill="none" stroke="midnightblue" d="M195.895,-56.083C190.245,-48.4554 181.955,-37.2645 175.049,-27.9408"/>
<polygon fill="midnightblue" stroke="midnightblue" points="177.747,-25.7034 168.982,-19.7511 172.122,-29.87 177.747,-25.7034"/>
</g>
<!-- Node6 -->
<g id="node7" class="node"><title>Node6</title>
<polygon fill="none" stroke="#bfbfbf" points="262.5,-0.5 262.5,-19.5 316.5,-19.5 316.5,-0.5 262.5,-0.5"/>
<text text-anchor="middle" x="289.5" y="-7.5" font-family="Helvetica,sans-Serif" font-size="10.00">iostream</text>
</g>
<!-- Node4&#45;&gt;Node6 -->
<g id="edge6" class="edge"><title>Node4&#45;&gt;Node6</title>
<path fill="none" stroke="midnightblue" d="M216.478,-56.324C230.05,-47.9002 250.88,-34.9709 266.825,-25.0741"/>
<polygon fill="midnightblue" stroke="midnightblue" points="268.906,-27.9019 275.557,-19.6545 265.214,-21.9544 268.906,-27.9019"/>
</g>
<!-- Node7 -->
<g id="node8" class="node"><title>Node7</title>
<polygon fill="none" stroke="#bfbfbf" points="203,-0.5 203,-19.5 244,-19.5 244,-0.5 203,-0.5"/>
<text text-anchor="middle" x="223.5" y="-7.5" font-family="Helvetica,sans-Serif" font-size="10.00">string</text>
</g>
<!-- Node4&#45;&gt;Node7 -->
<g id="edge7" class="edge"><title>Node4&#45;&gt;Node7</title>
<path fill="none" stroke="midnightblue" d="M205.968,-56.083C208.812,-48.77 212.929,-38.1814 216.46,-29.1034"/>
<polygon fill="midnightblue" stroke="midnightblue" points="219.734,-30.3397 220.097,-19.7511 213.21,-27.8025 219.734,-30.3397"/>
</g>
<!-- Node8&#45;&gt;Node6 -->
<g id="edge9" class="edge"><title>Node8&#45;&gt;Node6</title>
<path fill="none" stroke="midnightblue" d="M354.929,-112.368C343.264,-94.2957 316.077,-52.1764 300.671,-28.3074"/>
<polygon fill="midnightblue" stroke="midnightblue" points="303.409,-26.0952 295.045,-19.5914 297.528,-29.8913 303.409,-26.0952"/>
</g>
<!-- Node9 -->
<g id="node10" class="node"><title>Node9</title>
<polygon fill="none" stroke="#bfbfbf" points="335.5,-0.5 335.5,-19.5 379.5,-19.5 379.5,-0.5 335.5,-0.5"/>
<text text-anchor="middle" x="357.5" y="-7.5" font-family="Helvetica,sans-Serif" font-size="10.00">cmath</text>
</g>
<!-- Node8&#45;&gt;Node9 -->
<g id="edge10" class="edge"><title>Node8&#45;&gt;Node9</title>
<path fill="none" stroke="midnightblue" d="M360.265,-112.368C359.78,-94.617 358.664,-53.6664 358.007,-29.5974"/>
<polygon fill="midnightblue" stroke="midnightblue" points="361.506,-29.4922 357.734,-19.5914 354.508,-29.6832 361.506,-29.4922"/>
</g>
<!-- Node8&#45;&gt;Node10 -->
<g id="edge11" class="edge"><title>Node8&#45;&gt;Node10</title>
<path fill="none" stroke="midnightblue" d="M370.622,-112.324C380.026,-104.263 394.244,-92.0765 405.569,-82.3695"/>
<polygon fill="midnightblue" stroke="midnightblue" points="407.879,-84.9993 413.194,-75.8339 403.323,-79.6844 407.879,-84.9993"/>
</g>
<!-- Node10&#45;&gt;Node5 -->
<g id="edge13" class="edge"><title>Node10&#45;&gt;Node5</title>
<path fill="none" stroke="midnightblue" d="M392.432,-59.8301C349.877,-52.5516 270.904,-38.3425 194.862,-20.1741"/>
<polygon fill="midnightblue" stroke="midnightblue" points="195.667,-16.7679 185.124,-17.8215 194.023,-23.5721 195.667,-16.7679"/>
</g>
<!-- Node10&#45;&gt;Node6 -->
<g id="edge14" class="edge"><title>Node10&#45;&gt;Node6</title>
<path fill="none" stroke="midnightblue" d="M402.267,-56.4435C380.116,-47.5171 345.181,-33.4387 320.064,-23.3168"/>
<polygon fill="midnightblue" stroke="midnightblue" points="321.217,-20.0079 310.633,-19.5164 318.6,-26.5006 321.217,-20.0079"/>
</g>
<!-- Node10&#45;&gt;Node9 -->
<g id="edge12" class="edge"><title>Node10&#45;&gt;Node9</title>
<path fill="none" stroke="midnightblue" d="M412.896,-56.324C403.044,-48.2631 388.149,-36.0765 376.285,-26.3695"/>
<polygon fill="midnightblue" stroke="midnightblue" points="378.253,-23.4575 368.297,-19.8339 373.82,-28.8752 378.253,-23.4575"/>
</g>
<!-- Node11 -->
<g id="node12" class="node"><title>Node11</title>
<polygon fill="none" stroke="#bfbfbf" points="397.5,-0.5 397.5,-19.5 449.5,-19.5 449.5,-0.5 397.5,-0.5"/>
<text text-anchor="middle" x="423.5" y="-7.5" font-family="Helvetica,sans-Serif" font-size="10.00">sstream</text>
</g>
<!-- Node10&#45;&gt;Node11 -->
<g id="edge15" class="edge"><title>Node10&#45;&gt;Node11</title>
<path fill="none" stroke="midnightblue" d="M423.5,-56.083C423.5,-49.0059 423.5,-38.8611 423.5,-29.9865"/>
<polygon fill="midnightblue" stroke="midnightblue" points="427,-29.751 423.5,-19.7511 420,-29.7511 427,-29.751"/>
</g>
<!-- Node12 -->
<g id="node13" class="node"><title>Node12</title>
<polygon fill="none" stroke="#bfbfbf" points="467.5,-0.5 467.5,-19.5 517.5,-19.5 517.5,-0.5 467.5,-0.5"/>
<text text-anchor="middle" x="492.5" y="-7.5" font-family="Helvetica,sans-Serif" font-size="10.00">iomanip</text>
</g>
<!-- Node10&#45;&gt;Node12 -->
<g id="edge16" class="edge"><title>Node10&#45;&gt;Node12</title>
<path fill="none" stroke="midnightblue" d="M434.586,-56.324C444.986,-48.1849 460.761,-35.8395 473.222,-26.0874"/>
<polygon fill="midnightblue" stroke="midnightblue" points="475.494,-28.7533 481.212,-19.8339 471.18,-23.2407 475.494,-28.7533"/>
</g>
<!-- Node13 -->
<g id="node14" class="node"><title>Node13</title>
<polygon fill="none" stroke="#bfbfbf" points="535.5,-0.5 535.5,-19.5 585.5,-19.5 585.5,-0.5 535.5,-0.5"/>
<text text-anchor="middle" x="560.5" y="-7.5" font-family="Helvetica,sans-Serif" font-size="10.00">fstream</text>
</g>
<!-- Node10&#45;&gt;Node13 -->
<g id="edge17" class="edge"><title>Node10&#45;&gt;Node13</title>
<path fill="none" stroke="midnightblue" d="M445.208,-56.4435C467.855,-47.5171 503.572,-33.4387 529.252,-23.3168"/>
<polygon fill="midnightblue" stroke="midnightblue" points="530.874,-26.4397 538.894,-19.5164 528.307,-19.9273 530.874,-26.4397"/>
</g>
<!-- Node14&#45;&gt;Node8 -->
<g id="edge19" class="edge"><title>Node14&#45;&gt;Node8</title>
<path fill="none" stroke="midnightblue" d="M266.526,-226.422C293.338,-220.506 323.577,-209.282 343.5,-188 355.074,-175.637 358.988,-156.39 360.207,-142.044"/>
<polygon fill="midnightblue" stroke="midnightblue" points="363.715,-141.972 360.703,-131.815 356.723,-141.633 363.715,-141.972"/>
</g>
<!-- Node15 -->
<g id="node16" class="node"><title>Node15</title>
<g id="a_node16"><a xlink:href="ProfileProcess_8h.html" target="_top" xlink:title="ProfileProcess.h">
<polygon fill="none" stroke="black" points="137,-168.5 137,-187.5 226,-187.5 226,-168.5 137,-168.5"/>
<text text-anchor="middle" x="181.5" y="-175.5" font-family="Helvetica,sans-Serif" font-size="10.00">ProfileProcess.h</text>
</a>
</g>
</g>
<!-- Node14&#45;&gt;Node15 -->
<g id="edge20" class="edge"><title>Node14&#45;&gt;Node15</title>
<path fill="none" stroke="midnightblue" d="M204.041,-224.083C200.346,-216.691 194.977,-205.953 190.406,-196.811"/>
<polygon fill="midnightblue" stroke="midnightblue" points="193.478,-195.13 185.876,-187.751 187.217,-198.261 193.478,-195.13"/>
</g>
<!-- Node15&#45;&gt;Node6 -->
<g id="edge28" class="edge"><title>Node15&#45;&gt;Node6</title>
<path fill="none" stroke="midnightblue" d="M192.266,-168.307C202.642,-159.663 218.493,-145.742 230.5,-132 250.456,-109.16 256.214,-103.265 269.5,-76 276.773,-61.0743 282.09,-42.9328 285.406,-29.6123"/>
<polygon fill="midnightblue" stroke="midnightblue" points="288.847,-30.2681 287.72,-19.7334 282.032,-28.6719 288.847,-30.2681"/>
</g>
<!-- Node16 -->
<g id="node17" class="node"><title>Node16</title>
<g id="a_node17"><a xlink:href="Chrono_8h.html" target="_top" xlink:title="Chrono.h">
<polygon fill="none" stroke="black" points="62.5,-56.5 62.5,-75.5 118.5,-75.5 118.5,-56.5 62.5,-56.5"/>
<text text-anchor="middle" x="90.5" y="-63.5" font-family="Helvetica,sans-Serif" font-size="10.00">Chrono.h</text>
</a>
</g>
</g>
<!-- Node15&#45;&gt;Node16 -->
<g id="edge21" class="edge"><title>Node15&#45;&gt;Node16</title>
<path fill="none" stroke="midnightblue" d="M138.433,-168.486C118.104,-162.074 95.6772,-150.991 83.5,-132 74.6148,-118.143 78.0437,-99.1247 82.6859,-85.2406"/>
<polygon fill="midnightblue" stroke="midnightblue" points="85.9951,-86.3855 86.2885,-75.7947 79.4547,-83.891 85.9951,-86.3855"/>
</g>
<!-- Node19 -->
<g id="node20" class="node"><title>Node19</title>
<g id="a_node20"><a xlink:href="StateSpace_8h.html" target="_top" xlink:title="StateSpace.h">
<polygon fill="none" stroke="black" points="92.5,-112.5 92.5,-131.5 168.5,-131.5 168.5,-112.5 92.5,-112.5"/>
<text text-anchor="middle" x="130.5" y="-119.5" font-family="Helvetica,sans-Serif" font-size="10.00">StateSpace.h</text>
</a>
</g>
</g>
<!-- Node15&#45;&gt;Node19 -->
<g id="edge26" class="edge"><title>Node15&#45;&gt;Node19</title>
<path fill="none" stroke="midnightblue" d="M173.078,-168.083C165.652,-160.22 154.648,-148.569 145.688,-139.081"/>
<polygon fill="midnightblue" stroke="midnightblue" points="148.176,-136.618 138.765,-131.751 143.087,-141.424 148.176,-136.618"/>
</g>
<!-- Node20 -->
<g id="node21" class="node"><title>Node20</title>
<polygon fill="none" stroke="#bfbfbf" points="187,-112.5 187,-131.5 222,-131.5 222,-112.5 187,-112.5"/>
<text text-anchor="middle" x="204.5" y="-119.5" font-family="Helvetica,sans-Serif" font-size="10.00">map</text>
</g>
<!-- Node15&#45;&gt;Node20 -->
<g id="edge29" class="edge"><title>Node15&#45;&gt;Node20</title>
<path fill="none" stroke="midnightblue" d="M185.298,-168.083C188.413,-160.77 192.923,-150.181 196.789,-141.103"/>
<polygon fill="midnightblue" stroke="midnightblue" points="200.074,-142.323 200.773,-131.751 193.634,-139.58 200.074,-142.323"/>
</g>
<!-- Node16&#45;&gt;Node5 -->
<g id="edge25" class="edge"><title>Node16&#45;&gt;Node5</title>
<path fill="none" stroke="midnightblue" d="M102.068,-56.324C112.92,-48.1849 129.381,-35.8395 142.383,-26.0874"/>
<polygon fill="midnightblue" stroke="midnightblue" points="144.821,-28.6339 150.721,-19.8339 140.621,-23.0339 144.821,-28.6339"/>
</g>
<!-- Node16&#45;&gt;Node6 -->
<g id="edge24" class="edge"><title>Node16&#45;&gt;Node6</title>
<path fill="none" stroke="midnightblue" d="M118.59,-57.3776C153.602,-47.8768 213.547,-31.6103 252.334,-21.0853"/>
<polygon fill="midnightblue" stroke="midnightblue" points="253.458,-24.407 262.192,-18.4102 251.624,-17.6513 253.458,-24.407"/>
</g>
<!-- Node17 -->
<g id="node18" class="node"><title>Node17</title>
<polygon fill="none" stroke="#bfbfbf" points="0,-0.5 0,-19.5 41,-19.5 41,-0.5 0,-0.5"/>
<text text-anchor="middle" x="20.5" y="-7.5" font-family="Helvetica,sans-Serif" font-size="10.00">ctime</text>
</g>
<!-- Node16&#45;&gt;Node17 -->
<g id="edge22" class="edge"><title>Node16&#45;&gt;Node17</title>
<path fill="none" stroke="midnightblue" d="M79.2533,-56.324C68.7026,-48.1849 52.6993,-35.8395 40.0578,-26.0874"/>
<polygon fill="midnightblue" stroke="midnightblue" points="42.007,-23.1707 31.9513,-19.8339 37.7314,-28.7132 42.007,-23.1707"/>
</g>
<!-- Node18 -->
<g id="node19" class="node"><title>Node18</title>
<polygon fill="none" stroke="#bfbfbf" points="59.5,-0.5 59.5,-19.5 121.5,-19.5 121.5,-0.5 59.5,-0.5"/>
<text text-anchor="middle" x="90.5" y="-7.5" font-family="Helvetica,sans-Serif" font-size="10.00">sys/time.h</text>
</g>
<!-- Node16&#45;&gt;Node18 -->
<g id="edge23" class="edge"><title>Node16&#45;&gt;Node18</title>
<path fill="none" stroke="midnightblue" d="M90.5,-56.083C90.5,-49.0059 90.5,-38.8611 90.5,-29.9865"/>
<polygon fill="midnightblue" stroke="midnightblue" points="94.0001,-29.751 90.5,-19.7511 87.0001,-29.7511 94.0001,-29.751"/>
</g>
<!-- Node19&#45;&gt;Node4 -->
<g id="edge27" class="edge"><title>Node19&#45;&gt;Node4</title>
<path fill="none" stroke="midnightblue" d="M142.068,-112.324C152.92,-104.185 169.381,-91.8395 182.383,-82.0874"/>
<polygon fill="midnightblue" stroke="midnightblue" points="184.821,-84.6339 190.721,-75.8339 180.621,-79.0339 184.821,-84.6339"/>
</g>
</g>
</svg>
