<?xml version="1.0" encoding="UTF-8" standalone="no"?>
<!DOCTYPE svg PUBLIC "-//W3C//DTD SVG 1.1//EN"
 "http://www.w3.org/Graphics/SVG/1.1/DTD/svg11.dtd">
<!-- Generated by graphviz version 2.38.0 (20140413.2041)
 -->
<!-- Title: ExpoConjugateGTRFiniteProfileProcess.h Pages: 1 -->
<svg width="406pt" height="229pt"
 viewBox="0.00 0.00 406.00 229.00" xmlns="http://www.w3.org/2000/svg" xmlns:xlink="http://www.w3.org/1999/xlink">
<g id="graph0" class="graph" transform="scale(1 1) rotate(0) translate(4 225)">
<title>ExpoConjugateGTRFiniteProfileProcess.h</title>
<!-- Node27 -->
<g id="node1" class="node"><title>Node27</title>
<polygon fill="#bfbfbf" stroke="black" points="88,-190.5 88,-220.5 244,-220.5 244,-190.5 88,-190.5"/>
<text text-anchor="start" x="96" y="-208.5" font-family="Helvetica,sans-Serif" font-size="10.00">ExpoConjugateGTRFiniteProfile</text>
<text text-anchor="middle" x="166" y="-197.5" font-family="Helvetica,sans-Serif" font-size="10.00">Process.h</text>
</g>
<!-- Node28 -->
<g id="node2" class="node"><title>Node28</title>
<g id="a_node2"><a xlink:href="ExpoConjugateGTRFiniteProfileProcess_8cpp.html" target="_top" xlink:title="ExpoConjugateGTRFiniteProfile\lProcess.cpp">
<polygon fill="none" stroke="black" points="0,-123.5 0,-153.5 156,-153.5 156,-123.5 0,-123.5"/>
<text text-anchor="start" x="8" y="-141.5" font-family="Helvetica,sans-Serif" font-size="10.00">ExpoConjugateGTRFiniteProfile</text>
<text text-anchor="middle" x="78" y="-130.5" font-family="Helvetica,sans-Serif" font-size="10.00">Process.cpp</text>
</a>
</g>
</g>
<!-- Node27&#45;&gt;Node28 -->
<g id="edge1" class="edge"><title>Node27&#45;&gt;Node28</title>
<path fill="none" stroke="midnightblue" d="M138.857,-184.451C125.319,-174.452 109.273,-162.6 97.0574,-153.577"/>
<polygon fill="midnightblue" stroke="midnightblue" points="136.782,-187.27 146.905,-190.396 140.941,-181.639 136.782,-187.27"/>
</g>
<!-- Node29 -->
<g id="node3" class="node"><title>Node29</title>
<g id="a_node3"><a xlink:href="RASCATGTRFiniteGammaPhyloProcess_8h.html" target="_top" xlink:title="RASCATGTRFiniteGammaPhylo\lProcess.h">
<polygon fill="none" stroke="black" points="174,-123.5 174,-153.5 336,-153.5 336,-123.5 174,-123.5"/>
<text text-anchor="start" x="182" y="-141.5" font-family="Helvetica,sans-Serif" font-size="10.00">RASCATGTRFiniteGammaPhylo</text>
<text text-anchor="middle" x="255" y="-130.5" font-family="Helvetica,sans-Serif" font-size="10.00">Process.h</text>
</a>
</g>
</g>
<!-- Node27&#45;&gt;Node29 -->
<g id="edge2" class="edge"><title>Node27&#45;&gt;Node29</title>
<path fill="none" stroke="midnightblue" d="M193.452,-184.451C207.143,-174.452 223.371,-162.6 235.726,-153.577"/>
<polygon fill="midnightblue" stroke="midnightblue" points="191.323,-181.672 185.312,-190.396 195.452,-187.324 191.323,-181.672"/>
</g>
<!-- Node30 -->
<g id="node4" class="node"><title>Node30</title>
<g id="a_node4"><a xlink:href="Model_8h.html" target="_top" xlink:title="Model.h">
<polygon fill="none" stroke="black" points="166.5,-62 166.5,-81 217.5,-81 217.5,-62 166.5,-62"/>
<text text-anchor="middle" x="192" y="-69" font-family="Helvetica,sans-Serif" font-size="10.00">Model.h</text>
</a>
</g>
</g>
<!-- Node29&#45;&gt;Node30 -->
<g id="edge3" class="edge"><title>Node29&#45;&gt;Node30</title>
<path fill="none" stroke="midnightblue" d="M234.158,-115.997C222.659,-104.132 209.012,-90.0516 200.427,-81.1945"/>
<polygon fill="midnightblue" stroke="midnightblue" points="231.857,-118.651 241.33,-123.396 236.883,-113.779 231.857,-118.651"/>
</g>
<!-- Node33 -->
<g id="node7" class="node"><title>Node33</title>
<g id="a_node7"><a xlink:href="RASCATGTRFiniteGammaPhyloProcess_8cpp.html" target="_top" xlink:title="RASCATGTRFiniteGammaPhylo\lProcess.cpp">
<polygon fill="none" stroke="black" points="236,-56.5 236,-86.5 398,-86.5 398,-56.5 236,-56.5"/>
<text text-anchor="start" x="244" y="-74.5" font-family="Helvetica,sans-Serif" font-size="10.00">RASCATGTRFiniteGammaPhylo</text>
<text text-anchor="middle" x="317" y="-63.5" font-family="Helvetica,sans-Serif" font-size="10.00">Process.cpp</text>
</a>
</g>
</g>
<!-- Node29&#45;&gt;Node33 -->
<g id="edge6" class="edge"><title>Node29&#45;&gt;Node33</title>
<path fill="none" stroke="midnightblue" d="M275.485,-116.024C284.722,-106.34 295.373,-95.1739 303.573,-86.5765"/>
<polygon fill="midnightblue" stroke="midnightblue" points="272.823,-113.744 268.453,-123.396 277.888,-118.576 272.823,-113.744"/>
</g>
<!-- Node31 -->
<g id="node5" class="node"><title>Node31</title>
<g id="a_node5"><a xlink:href="PB_8cpp.html" target="_top" xlink:title="PB.cpp">
<polygon fill="none" stroke="black" points="128.5,-0.5 128.5,-19.5 177.5,-19.5 177.5,-0.5 128.5,-0.5"/>
<text text-anchor="middle" x="153" y="-7.5" font-family="Helvetica,sans-Serif" font-size="10.00">PB.cpp</text>
</a>
</g>
</g>
<!-- Node30&#45;&gt;Node31 -->
<g id="edge4" class="edge"><title>Node30&#45;&gt;Node31</title>
<path fill="none" stroke="midnightblue" d="M180.86,-53.5051C173.574,-42.388 164.365,-28.3395 158.577,-19.5091"/>
<polygon fill="midnightblue" stroke="midnightblue" points="178.003,-55.5303 186.412,-61.9751 183.857,-51.6929 178.003,-55.5303"/>
</g>
<!-- Node32 -->
<g id="node6" class="node"><title>Node32</title>
<g id="a_node6"><a xlink:href="ReadPB_8cpp.html" target="_top" xlink:title="ReadPB.cpp">
<polygon fill="none" stroke="black" points="196,-0.5 196,-19.5 268,-19.5 268,-0.5 196,-0.5"/>
<text text-anchor="middle" x="232" y="-7.5" font-family="Helvetica,sans-Serif" font-size="10.00">ReadPB.cpp</text>
</a>
</g>
</g>
<!-- Node30&#45;&gt;Node32 -->
<g id="edge5" class="edge"><title>Node30&#45;&gt;Node32</title>
<path fill="none" stroke="midnightblue" d="M203.425,-53.5051C210.899,-42.388 220.343,-28.3395 226.28,-19.5091"/>
<polygon fill="midnightblue" stroke="midnightblue" points="200.406,-51.7234 197.731,-61.9751 206.215,-55.6288 200.406,-51.7234"/>
</g>
</g>
</svg>
