<?xml version="1.0" encoding="UTF-8" standalone="no"?>
<!DOCTYPE svg PUBLIC "-//W3C//DTD SVG 1.1//EN"
 "http://www.w3.org/Graphics/SVG/1.1/DTD/svg11.dtd">
<!-- Generated by graphviz version 2.38.0 (20140413.2041)
 -->
<!-- Title: ExpoConjugateGTRSBDPProfileProcess.h Pages: 1 -->
<svg width="665pt" height="498pt"
 viewBox="0.00 0.00 664.76 498.00" xmlns="http://www.w3.org/2000/svg" xmlns:xlink="http://www.w3.org/1999/xlink">
<g id="graph0" class="graph" transform="scale(1 1) rotate(0) translate(4 494)">
<title>ExpoConjugateGTRSBDPProfileProcess.h</title>
<!-- Node0 -->
<g id="node1" class="node"><title>Node0</title>
<polygon fill="#bfbfbf" stroke="black" points="118,-459.5 118,-489.5 278,-489.5 278,-459.5 118,-459.5"/>
<text text-anchor="start" x="126" y="-477.5" font-family="Helvetica,sans-Serif" font-size="10.00">ExpoConjugateGTRSBDPProfile</text>
<text text-anchor="middle" x="198" y="-466.5" font-family="Helvetica,sans-Serif" font-size="10.00">Process.h</text>
</g>
<!-- Node1 -->
<g id="node2" class="node"><title>Node1</title>
<g id="a_node2"><a xlink:href="MatrixSBDPProfileProcess_8h.html" target="_top" xlink:title="MatrixSBDPProfileProcess.h">
<polygon fill="none" stroke="black" points="40.5,-398 40.5,-417 183.5,-417 183.5,-398 40.5,-398"/>
<text text-anchor="middle" x="112" y="-405" font-family="Helvetica,sans-Serif" font-size="10.00">MatrixSBDPProfileProcess.h</text>
</a>
</g>
</g>
<!-- Node0&#45;&gt;Node1 -->
<g id="edge1" class="edge"><title>Node0&#45;&gt;Node1</title>
<path fill="none" stroke="midnightblue" d="M179.339,-459.396C165.266,-448.759 146.007,-434.203 131.689,-423.381"/>
<polygon fill="midnightblue" stroke="midnightblue" points="133.592,-420.432 123.504,-417.195 129.371,-426.016 133.592,-420.432"/>
</g>
<!-- Node23 -->
<g id="node24" class="node"><title>Node23</title>
<g id="a_node24"><a xlink:href="ExpoConjugateGTRMixtureProfileProcess_8h.html" target="_top" xlink:title="ExpoConjugateGTRMixtureProfile\lProcess.h">
<polygon fill="none" stroke="black" points="202,-392.5 202,-422.5 366,-422.5 366,-392.5 202,-392.5"/>
<text text-anchor="start" x="210" y="-410.5" font-family="Helvetica,sans-Serif" font-size="10.00">ExpoConjugateGTRMixtureProfile</text>
<text text-anchor="middle" x="284" y="-399.5" font-family="Helvetica,sans-Serif" font-size="10.00">Process.h</text>
</a>
</g>
</g>
<!-- Node0&#45;&gt;Node23 -->
<g id="edge35" class="edge"><title>Node0&#45;&gt;Node23</title>
<path fill="none" stroke="midnightblue" d="M216.661,-459.396C228.494,-450.452 243.994,-438.737 257.139,-428.802"/>
<polygon fill="midnightblue" stroke="midnightblue" points="259.508,-431.398 265.376,-422.577 255.288,-425.814 259.508,-431.398"/>
</g>
<!-- Node2 -->
<g id="node3" class="node"><title>Node2</title>
<g id="a_node3"><a xlink:href="MatrixMixtureProfileProcess_8h.html" target="_top" xlink:title="MatrixMixtureProfileProcess.h">
<polygon fill="none" stroke="black" points="157,-280.5 157,-299.5 305,-299.5 305,-280.5 157,-280.5"/>
<text text-anchor="middle" x="231" y="-287.5" font-family="Helvetica,sans-Serif" font-size="10.00">MatrixMixtureProfileProcess.h</text>
</a>
</g>
</g>
<!-- Node1&#45;&gt;Node2 -->
<g id="edge2" class="edge"><title>Node1&#45;&gt;Node2</title>
<path fill="none" stroke="midnightblue" d="M117.85,-397.608C127.343,-383.565 147.151,-355.812 168,-336 180.231,-324.377 195.616,-313.333 208.12,-305.094"/>
<polygon fill="midnightblue" stroke="midnightblue" points="210.111,-307.975 216.629,-299.623 206.325,-302.087 210.111,-307.975"/>
</g>
<!-- Node21 -->
<g id="node22" class="node"><title>Node21</title>
<g id="a_node22"><a xlink:href="SBDPProfileProcess_8h.html" target="_top" xlink:title="SBDPProfileProcess.h">
<polygon fill="none" stroke="black" points="5,-336.5 5,-355.5 121,-355.5 121,-336.5 5,-336.5"/>
<text text-anchor="middle" x="63" y="-343.5" font-family="Helvetica,sans-Serif" font-size="10.00">SBDPProfileProcess.h</text>
</a>
</g>
</g>
<!-- Node1&#45;&gt;Node21 -->
<g id="edge30" class="edge"><title>Node1&#45;&gt;Node21</title>
<path fill="none" stroke="midnightblue" d="M104.979,-397.975C97.5567,-388.962 85.6673,-374.525 76.4333,-363.312"/>
<polygon fill="midnightblue" stroke="midnightblue" points="79.0664,-361.003 70.0075,-355.509 73.6628,-365.453 79.0664,-361.003"/>
</g>
<!-- Node3 -->
<g id="node4" class="node"><title>Node3</title>
<g id="a_node4"><a xlink:href="MatrixProfileProcess_8h.html" target="_top" xlink:title="MatrixProfileProcess.h">
<polygon fill="none" stroke="black" points="206,-224.5 206,-243.5 322,-243.5 322,-224.5 206,-224.5"/>
<text text-anchor="middle" x="264" y="-231.5" font-family="Helvetica,sans-Serif" font-size="10.00">MatrixProfileProcess.h</text>
</a>
</g>
</g>
<!-- Node2&#45;&gt;Node3 -->
<g id="edge3" class="edge"><title>Node2&#45;&gt;Node3</title>
<path fill="none" stroke="midnightblue" d="M236.449,-280.083C241.014,-272.613 247.668,-261.724 253.293,-252.52"/>
<polygon fill="midnightblue" stroke="midnightblue" points="256.424,-254.109 258.652,-243.751 250.451,-250.459 256.424,-254.109"/>
</g>
<!-- Node20 -->
<g id="node21" class="node"><title>Node20</title>
<g id="a_node21"><a xlink:href="MixtureProfileProcess_8h.html" target="_top" xlink:title="MixtureProfileProcess.h">
<polygon fill="none" stroke="black" points="66.5,-224.5 66.5,-243.5 187.5,-243.5 187.5,-224.5 66.5,-224.5"/>
<text text-anchor="middle" x="127" y="-231.5" font-family="Helvetica,sans-Serif" font-size="10.00">MixtureProfileProcess.h</text>
</a>
</g>
</g>
<!-- Node2&#45;&gt;Node20 -->
<g id="edge27" class="edge"><title>Node2&#45;&gt;Node20</title>
<path fill="none" stroke="midnightblue" d="M214.291,-280.324C197.688,-271.703 171.998,-258.364 152.78,-248.386"/>
<polygon fill="midnightblue" stroke="midnightblue" points="154.156,-245.156 143.668,-243.655 150.93,-251.369 154.156,-245.156"/>
</g>
<!-- Node4 -->
<g id="node5" class="node"><title>Node4</title>
<g id="a_node5"><a xlink:href="SubMatrix_8h.html" target="_top" xlink:title="SubMatrix.h">
<polygon fill="none" stroke="black" points="284.5,-168.5 284.5,-187.5 353.5,-187.5 353.5,-168.5 284.5,-168.5"/>
<text text-anchor="middle" x="319" y="-175.5" font-family="Helvetica,sans-Serif" font-size="10.00">SubMatrix.h</text>
</a>
</g>
</g>
<!-- Node3&#45;&gt;Node4 -->
<g id="edge4" class="edge"><title>Node3&#45;&gt;Node4</title>
<path fill="none" stroke="midnightblue" d="M273.082,-224.083C281.171,-216.141 293.195,-204.335 302.91,-194.797"/>
<polygon fill="midnightblue" stroke="midnightblue" points="305.403,-197.254 310.087,-187.751 300.499,-192.26 305.403,-197.254"/>
</g>
<!-- Node12 -->
<g id="node13" class="node"><title>Node12</title>
<g id="a_node13"><a xlink:href="ProfileProcess_8h.html" target="_top" xlink:title="ProfileProcess.h">
<polygon fill="none" stroke="black" points="158.5,-168.5 158.5,-187.5 247.5,-187.5 247.5,-168.5 158.5,-168.5"/>
<text text-anchor="middle" x="203" y="-175.5" font-family="Helvetica,sans-Serif" font-size="10.00">ProfileProcess.h</text>
</a>
</g>
</g>
<!-- Node3&#45;&gt;Node12 -->
<g id="edge14" class="edge"><title>Node3&#45;&gt;Node12</title>
<path fill="none" stroke="midnightblue" d="M254.199,-224.324C245.182,-216.341 231.594,-204.313 220.682,-194.653"/>
<polygon fill="midnightblue" stroke="midnightblue" points="222.787,-191.842 212.979,-187.834 218.147,-197.083 222.787,-191.842"/>
</g>
<!-- Node5 -->
<g id="node6" class="node"><title>Node5</title>
<polygon fill="none" stroke="#bfbfbf" points="259,-0.5 259,-19.5 313,-19.5 313,-0.5 259,-0.5"/>
<text text-anchor="middle" x="286" y="-7.5" font-family="Helvetica,sans-Serif" font-size="10.00">iostream</text>
</g>
<!-- Node4&#45;&gt;Node5 -->
<g id="edge5" class="edge"><title>Node4&#45;&gt;Node5</title>
<path fill="none" stroke="midnightblue" d="M353.776,-175.83C452.833,-171.336 724.113,-150.314 641,-56 620.201,-32.3979 410.076,-17.9735 323.242,-12.9791"/>
<polygon fill="midnightblue" stroke="midnightblue" points="323.224,-9.47265 313.043,-12.4034 322.83,-16.4615 323.224,-9.47265"/>
</g>
<!-- Node6 -->
<g id="node7" class="node"><title>Node6</title>
<polygon fill="none" stroke="#bfbfbf" points="54,-56.5 54,-75.5 98,-75.5 98,-56.5 54,-56.5"/>
<text text-anchor="middle" x="76" y="-63.5" font-family="Helvetica,sans-Serif" font-size="10.00">cmath</text>
</g>
<!-- Node4&#45;&gt;Node6 -->
<g id="edge6" class="edge"><title>Node4&#45;&gt;Node6</title>
<path fill="none" stroke="midnightblue" d="M299.932,-168.368C257.346,-149.091 154.32,-102.454 104.253,-79.7894"/>
<polygon fill="midnightblue" stroke="midnightblue" points="105.533,-76.5268 94.9792,-75.5914 102.646,-82.9039 105.533,-76.5268"/>
</g>
<!-- Node7 -->
<g id="node8" class="node"><title>Node7</title>
<g id="a_node8"><a xlink:href="Random_8h.html" target="_top" xlink:title="Random.h">
<polygon fill="none" stroke="black" points="288,-112.5 288,-131.5 350,-131.5 350,-112.5 288,-112.5"/>
<text text-anchor="middle" x="319" y="-119.5" font-family="Helvetica,sans-Serif" font-size="10.00">Random.h</text>
</a>
</g>
</g>
<!-- Node4&#45;&gt;Node7 -->
<g id="edge7" class="edge"><title>Node4&#45;&gt;Node7</title>
<path fill="none" stroke="midnightblue" d="M319,-168.083C319,-161.006 319,-150.861 319,-141.986"/>
<polygon fill="midnightblue" stroke="midnightblue" points="322.5,-141.751 319,-131.751 315.5,-141.751 322.5,-141.751"/>
</g>
<!-- Node7&#45;&gt;Node5 -->
<g id="edge10" class="edge"><title>Node7&#45;&gt;Node5</title>
<path fill="none" stroke="midnightblue" d="M315.003,-112.182C311.05,-103.213 305.026,-88.847 301,-76 296.179,-60.6143 292.165,-42.7394 289.507,-29.633"/>
<polygon fill="midnightblue" stroke="midnightblue" points="292.885,-28.669 287.533,-19.5251 286.014,-30.0106 292.885,-28.669"/>
</g>
<!-- Node7&#45;&gt;Node6 -->
<g id="edge8" class="edge"><title>Node7&#45;&gt;Node6</title>
<path fill="none" stroke="midnightblue" d="M287.888,-114.442C247.509,-105.876 174.887,-90.2841 113,-76 111.51,-75.6562 109.988,-75.301 108.451,-74.9394"/>
<polygon fill="midnightblue" stroke="midnightblue" points="108.824,-71.4302 98.2847,-72.5105 107.198,-78.2386 108.824,-71.4302"/>
</g>
<!-- Node8 -->
<g id="node9" class="node"><title>Node8</title>
<polygon fill="none" stroke="#bfbfbf" points="195.5,-0.5 195.5,-19.5 240.5,-19.5 240.5,-0.5 195.5,-0.5"/>
<text text-anchor="middle" x="218" y="-7.5" font-family="Helvetica,sans-Serif" font-size="10.00">cstdlib</text>
</g>
<!-- Node7&#45;&gt;Node8 -->
<g id="edge9" class="edge"><title>Node7&#45;&gt;Node8</title>
<path fill="none" stroke="midnightblue" d="M311.075,-112.368C294.186,-93.9744 254.425,-50.6712 232.739,-27.0519"/>
<polygon fill="midnightblue" stroke="midnightblue" points="235.23,-24.5903 225.888,-19.5914 230.074,-29.3246 235.23,-24.5903"/>
</g>
<!-- Node9 -->
<g id="node10" class="node"><title>Node9</title>
<polygon fill="none" stroke="#bfbfbf" points="378,-56.5 378,-75.5 430,-75.5 430,-56.5 378,-56.5"/>
<text text-anchor="middle" x="404" y="-63.5" font-family="Helvetica,sans-Serif" font-size="10.00">sstream</text>
</g>
<!-- Node7&#45;&gt;Node9 -->
<g id="edge11" class="edge"><title>Node7&#45;&gt;Node9</title>
<path fill="none" stroke="midnightblue" d="M332.657,-112.324C345.916,-103.9 366.268,-90.9709 381.846,-81.0741"/>
<polygon fill="midnightblue" stroke="midnightblue" points="383.813,-83.9711 390.377,-75.6545 380.06,-78.0626 383.813,-83.9711"/>
</g>
<!-- Node10 -->
<g id="node11" class="node"><title>Node10</title>
<polygon fill="none" stroke="#bfbfbf" points="448,-56.5 448,-75.5 498,-75.5 498,-56.5 448,-56.5"/>
<text text-anchor="middle" x="473" y="-63.5" font-family="Helvetica,sans-Serif" font-size="10.00">iomanip</text>
</g>
<!-- Node7&#45;&gt;Node10 -->
<g id="edge12" class="edge"><title>Node7&#45;&gt;Node10</title>
<path fill="none" stroke="midnightblue" d="M343.402,-112.444C369.197,-103.399 410.077,-89.064 439.018,-78.9158"/>
<polygon fill="midnightblue" stroke="midnightblue" points="440.434,-82.1283 448.712,-75.5164 438.118,-75.5226 440.434,-82.1283"/>
</g>
<!-- Node11 -->
<g id="node12" class="node"><title>Node11</title>
<polygon fill="none" stroke="#bfbfbf" points="310,-56.5 310,-75.5 360,-75.5 360,-56.5 310,-56.5"/>
<text text-anchor="middle" x="335" y="-63.5" font-family="Helvetica,sans-Serif" font-size="10.00">fstream</text>
</g>
<!-- Node7&#45;&gt;Node11 -->
<g id="edge13" class="edge"><title>Node7&#45;&gt;Node11</title>
<path fill="none" stroke="midnightblue" d="M321.642,-112.083C323.786,-104.849 326.879,-94.4087 329.549,-85.3968"/>
<polygon fill="midnightblue" stroke="midnightblue" points="332.922,-86.3334 332.407,-75.7511 326.21,-84.3447 332.922,-86.3334"/>
</g>
<!-- Node12&#45;&gt;Node5 -->
<g id="edge25" class="edge"><title>Node12&#45;&gt;Node5</title>
<path fill="none" stroke="midnightblue" d="M207.462,-168.075C220.64,-141.719 259.561,-63.878 277.17,-28.6608"/>
<polygon fill="midnightblue" stroke="midnightblue" points="280.374,-30.0777 281.716,-19.5681 274.113,-26.9471 280.374,-30.0777"/>
</g>
<!-- Node13 -->
<g id="node14" class="node"><title>Node13</title>
<g id="a_node14"><a xlink:href="Chrono_8h.html" target="_top" xlink:title="Chrono.h">
<polygon fill="none" stroke="black" points="122,-56.5 122,-75.5 178,-75.5 178,-56.5 122,-56.5"/>
<text text-anchor="middle" x="150" y="-63.5" font-family="Helvetica,sans-Serif" font-size="10.00">Chrono.h</text>
</a>
</g>
</g>
<!-- Node12&#45;&gt;Node13 -->
<g id="edge15" class="edge"><title>Node12&#45;&gt;Node13</title>
<path fill="none" stroke="midnightblue" d="M198.841,-168.368C190.172,-150.376 170.02,-108.55 158.493,-84.6267"/>
<polygon fill="midnightblue" stroke="midnightblue" points="161.633,-83.081 154.14,-75.5914 155.327,-86.1195 161.633,-83.081"/>
</g>
<!-- Node16 -->
<g id="node17" class="node"><title>Node16</title>
<g id="a_node17"><a xlink:href="StateSpace_8h.html" target="_top" xlink:title="StateSpace.h">
<polygon fill="none" stroke="black" points="411,-112.5 411,-131.5 487,-131.5 487,-112.5 411,-112.5"/>
<text text-anchor="middle" x="449" y="-119.5" font-family="Helvetica,sans-Serif" font-size="10.00">StateSpace.h</text>
</a>
</g>
</g>
<!-- Node12&#45;&gt;Node16 -->
<g id="edge20" class="edge"><title>Node12&#45;&gt;Node16</title>
<path fill="none" stroke="midnightblue" d="M241.979,-168.444C285.02,-158.996 354.352,-143.776 400.778,-133.585"/>
<polygon fill="midnightblue" stroke="midnightblue" points="401.591,-136.99 410.608,-131.428 400.09,-130.153 401.591,-136.99"/>
</g>
<!-- Node19 -->
<g id="node20" class="node"><title>Node19</title>
<polygon fill="none" stroke="#bfbfbf" points="104.5,-112.5 104.5,-131.5 139.5,-131.5 139.5,-112.5 104.5,-112.5"/>
<text text-anchor="middle" x="122" y="-119.5" font-family="Helvetica,sans-Serif" font-size="10.00">map</text>
</g>
<!-- Node12&#45;&gt;Node19 -->
<g id="edge26" class="edge"><title>Node12&#45;&gt;Node19</title>
<path fill="none" stroke="midnightblue" d="M189.986,-168.324C177.468,-159.979 158.318,-147.212 143.529,-137.352"/>
<polygon fill="midnightblue" stroke="midnightblue" points="145.244,-134.289 134.982,-131.655 141.361,-140.114 145.244,-134.289"/>
</g>
<!-- Node13&#45;&gt;Node5 -->
<g id="edge18" class="edge"><title>Node13&#45;&gt;Node5</title>
<path fill="none" stroke="midnightblue" d="M171.55,-56.4435C194.031,-47.5171 229.488,-33.4387 254.98,-23.3168"/>
<polygon fill="midnightblue" stroke="midnightblue" points="256.549,-26.4598 264.551,-19.5164 253.965,-19.9539 256.549,-26.4598"/>
</g>
<!-- Node13&#45;&gt;Node8 -->
<g id="edge19" class="edge"><title>Node13&#45;&gt;Node8</title>
<path fill="none" stroke="midnightblue" d="M160.925,-56.324C171.175,-48.1849 186.721,-35.8395 199.001,-26.0874"/>
<polygon fill="midnightblue" stroke="midnightblue" points="201.221,-28.7937 206.876,-19.8339 196.868,-23.3119 201.221,-28.7937"/>
</g>
<!-- Node14 -->
<g id="node15" class="node"><title>Node14</title>
<polygon fill="none" stroke="#bfbfbf" points="55.5,-0.5 55.5,-19.5 96.5,-19.5 96.5,-0.5 55.5,-0.5"/>
<text text-anchor="middle" x="76" y="-7.5" font-family="Helvetica,sans-Serif" font-size="10.00">ctime</text>
</g>
<!-- Node13&#45;&gt;Node14 -->
<g id="edge16" class="edge"><title>Node13&#45;&gt;Node14</title>
<path fill="none" stroke="midnightblue" d="M138.111,-56.324C126.85,-48.1066 109.713,-35.6017 96.2909,-25.8069"/>
<polygon fill="midnightblue" stroke="midnightblue" points="98.2468,-22.9014 88.1057,-19.8339 94.1205,-28.5559 98.2468,-22.9014"/>
</g>
<!-- Node15 -->
<g id="node16" class="node"><title>Node15</title>
<polygon fill="none" stroke="#bfbfbf" points="115,-0.5 115,-19.5 177,-19.5 177,-0.5 115,-0.5"/>
<text text-anchor="middle" x="146" y="-7.5" font-family="Helvetica,sans-Serif" font-size="10.00">sys/time.h</text>
</g>
<!-- Node13&#45;&gt;Node15 -->
<g id="edge17" class="edge"><title>Node13&#45;&gt;Node15</title>
<path fill="none" stroke="midnightblue" d="M149.339,-56.083C148.815,-49.0059 148.064,-38.8611 147.406,-29.9865"/>
<polygon fill="midnightblue" stroke="midnightblue" points="150.877,-29.4652 146.648,-19.7511 143.897,-29.9823 150.877,-29.4652"/>
</g>
<!-- Node17 -->
<g id="node18" class="node"><title>Node17</title>
<g id="a_node18"><a xlink:href="BiologicalSequences_8h.html" target="_top" xlink:title="BiologicalSequences.h">
<polygon fill="none" stroke="black" points="516,-56.5 516,-75.5 632,-75.5 632,-56.5 516,-56.5"/>
<text text-anchor="middle" x="574" y="-63.5" font-family="Helvetica,sans-Serif" font-size="10.00">BiologicalSequences.h</text>
</a>
</g>
</g>
<!-- Node16&#45;&gt;Node17 -->
<g id="edge21" class="edge"><title>Node16&#45;&gt;Node17</title>
<path fill="none" stroke="midnightblue" d="M468.807,-112.444C489.287,-103.596 521.483,-89.6875 544.865,-79.5865"/>
<polygon fill="midnightblue" stroke="midnightblue" points="546.494,-82.6953 554.286,-75.5164 543.718,-76.2692 546.494,-82.6953"/>
</g>
<!-- Node17&#45;&gt;Node5 -->
<g id="edge23" class="edge"><title>Node17&#45;&gt;Node5</title>
<path fill="none" stroke="midnightblue" d="M528.366,-56.4435C471.563,-45.7931 375.646,-27.8087 323.124,-17.9607"/>
<polygon fill="midnightblue" stroke="midnightblue" points="323.696,-14.507 313.222,-16.1041 322.406,-21.3871 323.696,-14.507"/>
</g>
<!-- Node17&#45;&gt;Node8 -->
<g id="edge22" class="edge"><title>Node17&#45;&gt;Node8</title>
<path fill="none" stroke="midnightblue" d="M515.66,-57.1066C434.483,-46.0961 293.376,-26.8497 250.689,-19.6378"/>
<polygon fill="midnightblue" stroke="midnightblue" points="251.101,-16.1547 240.631,-17.7764 249.827,-23.0378 251.101,-16.1547"/>
</g>
<!-- Node18 -->
<g id="node19" class="node"><title>Node18</title>
<polygon fill="none" stroke="#bfbfbf" points="553.5,-0.5 553.5,-19.5 594.5,-19.5 594.5,-0.5 553.5,-0.5"/>
<text text-anchor="middle" x="574" y="-7.5" font-family="Helvetica,sans-Serif" font-size="10.00">string</text>
</g>
<!-- Node17&#45;&gt;Node18 -->
<g id="edge24" class="edge"><title>Node17&#45;&gt;Node18</title>
<path fill="none" stroke="midnightblue" d="M574,-56.083C574,-49.0059 574,-38.8611 574,-29.9865"/>
<polygon fill="midnightblue" stroke="midnightblue" points="577.5,-29.751 574,-19.7511 570.5,-29.7511 577.5,-29.751"/>
</g>
<!-- Node20&#45;&gt;Node6 -->
<g id="edge28" class="edge"><title>Node20&#45;&gt;Node6</title>
<path fill="none" stroke="midnightblue" d="M124.195,-224.374C118.546,-206.954 105.449,-166.312 95,-132 90.2371,-116.36 85.0422,-98.5312 81.2901,-85.5069"/>
<polygon fill="midnightblue" stroke="midnightblue" points="84.6415,-84.4966 78.5188,-75.8501 77.9131,-86.4276 84.6415,-84.4966"/>
</g>
<!-- Node20&#45;&gt;Node12 -->
<g id="edge29" class="edge"><title>Node20&#45;&gt;Node12</title>
<path fill="none" stroke="midnightblue" d="M139.211,-224.324C150.776,-216.107 168.375,-203.602 182.161,-193.807"/>
<polygon fill="midnightblue" stroke="midnightblue" points="184.443,-196.479 190.567,-187.834 180.388,-190.773 184.443,-196.479"/>
</g>
<!-- Node21&#45;&gt;Node6 -->
<g id="edge31" class="edge"><title>Node21&#45;&gt;Node6</title>
<path fill="none" stroke="midnightblue" d="M51.6572,-336.179C41.6928,-327.859 27.4959,-314.524 19,-300 3.80343,-274.02 0,-265.098 0,-235 0,-235 0,-235 0,-177 0,-137.276 33.9641,-101.504 56.4821,-82.1536"/>
<polygon fill="midnightblue" stroke="midnightblue" points="58.9755,-84.6337 64.4572,-75.5672 54.518,-79.2364 58.9755,-84.6337"/>
</g>
<!-- Node22 -->
<g id="node23" class="node"><title>Node22</title>
<g id="a_node23"><a xlink:href="DPProfileProcess_8h.html" target="_top" xlink:title="DPProfileProcess.h">
<polygon fill="none" stroke="black" points="28.5,-280.5 28.5,-299.5 131.5,-299.5 131.5,-280.5 28.5,-280.5"/>
<text text-anchor="middle" x="80" y="-287.5" font-family="Helvetica,sans-Serif" font-size="10.00">DPProfileProcess.h</text>
</a>
</g>
</g>
<!-- Node21&#45;&gt;Node22 -->
<g id="edge32" class="edge"><title>Node21&#45;&gt;Node22</title>
<path fill="none" stroke="midnightblue" d="M65.8072,-336.083C68.0847,-328.849 71.3713,-318.409 74.2084,-309.397"/>
<polygon fill="midnightblue" stroke="midnightblue" points="77.5806,-310.341 77.245,-299.751 70.9036,-308.239 77.5806,-310.341"/>
</g>
<!-- Node22&#45;&gt;Node6 -->
<g id="edge33" class="edge"><title>Node22&#45;&gt;Node6</title>
<path fill="none" stroke="midnightblue" d="M73.8954,-280.191C68.2453,-271.46 60.2446,-257.478 57,-244 43.3467,-187.287 60.1546,-117.985 69.9281,-85.487"/>
<polygon fill="midnightblue" stroke="midnightblue" points="73.3736,-86.197 73.0303,-75.6077 66.6951,-84.0998 73.3736,-86.197"/>
</g>
<!-- Node22&#45;&gt;Node20 -->
<g id="edge34" class="edge"><title>Node22&#45;&gt;Node20</title>
<path fill="none" stroke="midnightblue" d="M87.7611,-280.083C94.5368,-272.298 104.543,-260.801 112.755,-251.367"/>
<polygon fill="midnightblue" stroke="midnightblue" points="115.458,-253.592 119.383,-243.751 110.178,-248.996 115.458,-253.592"/>
</g>
<!-- Node24 -->
<g id="node25" class="node"><title>Node24</title>
<g id="a_node25"><a xlink:href="GTRMixtureProfileProcess_8h.html" target="_top" xlink:title="GTRMixtureProfileProcess.h">
<polygon fill="none" stroke="black" points="177,-336.5 177,-355.5 319,-355.5 319,-336.5 177,-336.5"/>
<text text-anchor="middle" x="248" y="-343.5" font-family="Helvetica,sans-Serif" font-size="10.00">GTRMixtureProfileProcess.h</text>
</a>
</g>
</g>
<!-- Node23&#45;&gt;Node24 -->
<g id="edge36" class="edge"><title>Node23&#45;&gt;Node24</title>
<path fill="none" stroke="midnightblue" d="M275.469,-392.399C270.399,-384.021 263.929,-373.327 258.542,-364.423"/>
<polygon fill="midnightblue" stroke="midnightblue" points="261.41,-362.402 253.238,-355.658 255.42,-366.025 261.41,-362.402"/>
</g>
<!-- Node27 -->
<g id="node28" class="node"><title>Node27</title>
<g id="a_node28"><a xlink:href="ExpoConjugateGTRProfileProcess_8h.html" target="_top" xlink:title="ExpoConjugateGTRProfileProcess.h">
<polygon fill="none" stroke="black" points="337,-336.5 337,-355.5 513,-355.5 513,-336.5 337,-336.5"/>
<text text-anchor="middle" x="425" y="-343.5" font-family="Helvetica,sans-Serif" font-size="10.00">ExpoConjugateGTRProfileProcess.h</text>
</a>
</g>
</g>
<!-- Node23&#45;&gt;Node27 -->
<g id="edge43" class="edge"><title>Node23&#45;&gt;Node27</title>
<path fill="none" stroke="midnightblue" d="M317.415,-392.399C340.967,-382.461 372.238,-369.265 394.993,-359.662"/>
<polygon fill="midnightblue" stroke="midnightblue" points="396.631,-362.77 404.483,-355.658 393.909,-356.321 396.631,-362.77"/>
</g>
<!-- Node24&#45;&gt;Node2 -->
<g id="edge42" class="edge"><title>Node24&#45;&gt;Node2</title>
<path fill="none" stroke="midnightblue" d="M245.193,-336.083C242.915,-328.849 239.629,-318.409 236.792,-309.397"/>
<polygon fill="midnightblue" stroke="midnightblue" points="240.096,-308.239 233.755,-299.751 233.419,-310.341 240.096,-308.239"/>
</g>
<!-- Node25 -->
<g id="node26" class="node"><title>Node25</title>
<g id="a_node26"><a xlink:href="GTRProfileProcess_8h.html" target="_top" xlink:title="GTRProfileProcess.h">
<polygon fill="none" stroke="black" points="327,-280.5 327,-299.5 437,-299.5 437,-280.5 327,-280.5"/>
<text text-anchor="middle" x="382" y="-287.5" font-family="Helvetica,sans-Serif" font-size="10.00">GTRProfileProcess.h</text>
</a>
</g>
</g>
<!-- Node24&#45;&gt;Node25 -->
<g id="edge37" class="edge"><title>Node24&#45;&gt;Node25</title>
<path fill="none" stroke="midnightblue" d="M269.233,-336.444C291.384,-327.517 326.319,-313.439 351.436,-303.317"/>
<polygon fill="midnightblue" stroke="midnightblue" points="352.9,-306.501 360.867,-299.516 350.283,-300.008 352.9,-306.501"/>
</g>
<!-- Node25&#45;&gt;Node3 -->
<g id="edge41" class="edge"><title>Node25&#45;&gt;Node3</title>
<path fill="none" stroke="midnightblue" d="M363.303,-280.444C344.056,-271.636 313.848,-257.812 291.8,-247.722"/>
<polygon fill="midnightblue" stroke="midnightblue" points="293.16,-244.495 282.61,-243.516 290.247,-250.86 293.16,-244.495"/>
</g>
<!-- Node26 -->
<g id="node27" class="node"><title>Node26</title>
<g id="a_node27"><a xlink:href="GTRSubMatrix_8h.html" target="_top" xlink:title="GTRSubMatrix.h">
<polygon fill="none" stroke="black" points="340,-224.5 340,-243.5 430,-243.5 430,-224.5 340,-224.5"/>
<text text-anchor="middle" x="385" y="-231.5" font-family="Helvetica,sans-Serif" font-size="10.00">GTRSubMatrix.h</text>
</a>
</g>
</g>
<!-- Node25&#45;&gt;Node26 -->
<g id="edge38" class="edge"><title>Node25&#45;&gt;Node26</title>
<path fill="none" stroke="midnightblue" d="M382.495,-280.083C382.889,-273.006 383.452,-262.861 383.945,-253.986"/>
<polygon fill="midnightblue" stroke="midnightblue" points="387.454,-253.93 384.514,-243.751 380.464,-253.542 387.454,-253.93"/>
</g>
<!-- Node26&#45;&gt;Node4 -->
<g id="edge40" class="edge"><title>Node26&#45;&gt;Node4</title>
<path fill="none" stroke="midnightblue" d="M374.396,-224.324C364.544,-216.263 349.649,-204.077 337.785,-194.369"/>
<polygon fill="midnightblue" stroke="midnightblue" points="339.753,-191.457 329.797,-187.834 335.32,-196.875 339.753,-191.457"/>
</g>
<!-- Node26&#45;&gt;Node17 -->
<g id="edge39" class="edge"><title>Node26&#45;&gt;Node17</title>
<path fill="none" stroke="midnightblue" d="M394.895,-224.309C425.259,-197.64 517.396,-116.716 556.331,-82.5186"/>
<polygon fill="midnightblue" stroke="midnightblue" points="558.999,-84.834 564.203,-75.6051 554.379,-79.5745 558.999,-84.834"/>
</g>
<!-- Node27&#45;&gt;Node25 -->
<g id="edge44" class="edge"><title>Node27&#45;&gt;Node25</title>
<path fill="none" stroke="midnightblue" d="M417.899,-336.083C411.763,-328.377 402.73,-317.033 395.261,-307.653"/>
<polygon fill="midnightblue" stroke="midnightblue" points="397.936,-305.394 388.968,-299.751 392.46,-309.754 397.936,-305.394"/>
</g>
</g>
</svg>
