<?xml version="1.0" encoding="UTF-8" standalone="no"?>
<!DOCTYPE svg PUBLIC "-//W3C//DTD SVG 1.1//EN"
 "http://www.w3.org/Graphics/SVG/1.1/DTD/svg11.dtd">
<!-- Generated by graphviz version 2.38.0 (20140413.2041)
 -->
<!-- Title: ExpoConjugateGTRDPProfileProcess.h Pages: 1 -->
<svg width="375pt" height="162pt"
 viewBox="0.00 0.00 374.50 162.00" xmlns="http://www.w3.org/2000/svg" xmlns:xlink="http://www.w3.org/1999/xlink">
<g id="graph0" class="graph" transform="scale(1 1) rotate(0) translate(4 158)">
<title>ExpoConjugateGTRDPProfileProcess.h</title>
<!-- Node27 -->
<g id="node1" class="node"><title>Node27</title>
<polygon fill="#bfbfbf" stroke="black" points="95,-123.5 95,-153.5 241,-153.5 241,-123.5 95,-123.5"/>
<text text-anchor="start" x="103" y="-141.5" font-family="Helvetica,sans-Serif" font-size="10.00">ExpoConjugateGTRDPProfile</text>
<text text-anchor="middle" x="168" y="-130.5" font-family="Helvetica,sans-Serif" font-size="10.00">Process.h</text>
</g>
<!-- Node28 -->
<g id="node2" class="node"><title>Node28</title>
<g id="a_node2"><a xlink:href="ExpoConjugateGTRDPProfileProcess_8cpp.html" target="_top" xlink:title="ExpoConjugateGTRDPProfile\lProcess.cpp">
<polygon fill="none" stroke="black" points="0,-56.5 0,-86.5 146,-86.5 146,-56.5 0,-56.5"/>
<text text-anchor="start" x="8" y="-74.5" font-family="Helvetica,sans-Serif" font-size="10.00">ExpoConjugateGTRDPProfile</text>
<text text-anchor="middle" x="73" y="-63.5" font-family="Helvetica,sans-Serif" font-size="10.00">Process.cpp</text>
</a>
</g>
</g>
<!-- Node27&#45;&gt;Node28 -->
<g id="edge1" class="edge"><title>Node27&#45;&gt;Node28</title>
<path fill="none" stroke="midnightblue" d="M139.111,-117.734C124.41,-107.676 106.885,-95.6847 93.5734,-86.5765"/>
<polygon fill="midnightblue" stroke="midnightblue" points="137.157,-120.638 147.386,-123.396 141.11,-114.861 137.157,-120.638"/>
</g>
<!-- Node29 -->
<g id="node3" class="node"><title>Node29</title>
<g id="a_node3"><a xlink:href="RASCATGTRDPGammaPhyloProcess_8h.html" target="_top" xlink:title="RASCATGTRDPGammaPhyloProcess.h">
<polygon fill="none" stroke="black" points="164.5,-62 164.5,-81 361.5,-81 361.5,-62 164.5,-62"/>
<text text-anchor="middle" x="263" y="-69" font-family="Helvetica,sans-Serif" font-size="10.00">RASCATGTRDPGammaPhyloProcess.h</text>
</a>
</g>
</g>
<!-- Node27&#45;&gt;Node29 -->
<g id="edge2" class="edge"><title>Node27&#45;&gt;Node29</title>
<path fill="none" stroke="midnightblue" d="M197.025,-117.641C214.953,-105.374 237.041,-90.2613 250.567,-81.007"/>
<polygon fill="midnightblue" stroke="midnightblue" points="194.89,-114.861 188.614,-123.396 198.843,-120.638 194.89,-114.861"/>
</g>
<!-- Node30 -->
<g id="node4" class="node"><title>Node30</title>
<g id="a_node4"><a xlink:href="RASCATGTRDPGammaPhyloProcess_8cpp.html" target="_top" xlink:title="RASCATGTRDPGammaPhyloProcess.cpp">
<polygon fill="none" stroke="black" points="159.5,-0.5 159.5,-19.5 366.5,-19.5 366.5,-0.5 159.5,-0.5"/>
<text text-anchor="middle" x="263" y="-7.5" font-family="Helvetica,sans-Serif" font-size="10.00">RASCATGTRDPGammaPhyloProcess.cpp</text>
</a>
</g>
</g>
<!-- Node29&#45;&gt;Node30 -->
<g id="edge3" class="edge"><title>Node29&#45;&gt;Node30</title>
<path fill="none" stroke="midnightblue" d="M263,-51.8165C263,-40.9962 263,-27.898 263,-19.5091"/>
<polygon fill="midnightblue" stroke="midnightblue" points="259.5,-51.9751 263,-61.9751 266.5,-51.9751 259.5,-51.9751"/>
</g>
</g>
</svg>
