<?xml version="1.0" encoding="UTF-8" standalone="no"?>
<!DOCTYPE svg PUBLIC "-//W3C//DTD SVG 1.1//EN"
 "http://www.w3.org/Graphics/SVG/1.1/DTD/svg11.dtd">
<!-- Generated by graphviz version 2.38.0 (20140413.2041)
 -->
<!-- Title: ExpoConjugateGTRMixtureProfileProcess.h Pages: 1 -->
<svg width="629pt" height="431pt"
 viewBox="0.00 0.00 628.50 431.00" xmlns="http://www.w3.org/2000/svg" xmlns:xlink="http://www.w3.org/1999/xlink">
<g id="graph0" class="graph" transform="scale(1 1) rotate(0) translate(4 427)">
<title>ExpoConjugateGTRMixtureProfileProcess.h</title>
<!-- Node0 -->
<g id="node1" class="node"><title>Node0</title>
<polygon fill="#bfbfbf" stroke="black" points="358,-392.5 358,-422.5 522,-422.5 522,-392.5 358,-392.5"/>
<text text-anchor="start" x="366" y="-410.5" font-family="Helvetica,sans-Serif" font-size="10.00">ExpoConjugateGTRMixtureProfile</text>
<text text-anchor="middle" x="440" y="-399.5" font-family="Helvetica,sans-Serif" font-size="10.00">Process.h</text>
</g>
<!-- Node1 -->
<g id="node2" class="node"><title>Node1</title>
<g id="a_node2"><a xlink:href="GTRMixtureProfileProcess_8h.html" target="_top" xlink:title="GTRMixtureProfileProcess.h">
<polygon fill="none" stroke="black" points="458,-336.5 458,-355.5 600,-355.5 600,-336.5 458,-336.5"/>
<text text-anchor="middle" x="529" y="-343.5" font-family="Helvetica,sans-Serif" font-size="10.00">GTRMixtureProfileProcess.h</text>
</a>
</g>
</g>
<!-- Node0&#45;&gt;Node1 -->
<g id="edge1" class="edge"><title>Node0&#45;&gt;Node1</title>
<path fill="none" stroke="midnightblue" d="M461.092,-392.399C475.091,-383.04 493.411,-370.792 507.495,-361.377"/>
<polygon fill="midnightblue" stroke="midnightblue" points="509.682,-364.125 516.05,-355.658 505.791,-358.306 509.682,-364.125"/>
</g>
<!-- Node23 -->
<g id="node24" class="node"><title>Node23</title>
<g id="a_node24"><a xlink:href="ExpoConjugateGTRProfileProcess_8h.html" target="_top" xlink:title="ExpoConjugateGTRProfileProcess.h">
<polygon fill="none" stroke="black" points="264,-336.5 264,-355.5 440,-355.5 440,-336.5 264,-336.5"/>
<text text-anchor="middle" x="352" y="-343.5" font-family="Helvetica,sans-Serif" font-size="10.00">ExpoConjugateGTRProfileProcess.h</text>
</a>
</g>
</g>
<!-- Node0&#45;&gt;Node23 -->
<g id="edge35" class="edge"><title>Node0&#45;&gt;Node23</title>
<path fill="none" stroke="midnightblue" d="M419.145,-392.399C405.303,-383.04 387.189,-370.792 373.264,-361.377"/>
<polygon fill="midnightblue" stroke="midnightblue" points="375.049,-358.36 364.805,-355.658 371.128,-364.158 375.049,-358.36"/>
</g>
<!-- Node2 -->
<g id="node3" class="node"><title>Node2</title>
<g id="a_node3"><a xlink:href="GTRProfileProcess_8h.html" target="_top" xlink:title="GTRProfileProcess.h">
<polygon fill="none" stroke="black" points="312,-280.5 312,-299.5 422,-299.5 422,-280.5 312,-280.5"/>
<text text-anchor="middle" x="367" y="-287.5" font-family="Helvetica,sans-Serif" font-size="10.00">GTRProfileProcess.h</text>
</a>
</g>
</g>
<!-- Node1&#45;&gt;Node2 -->
<g id="edge2" class="edge"><title>Node1&#45;&gt;Node2</title>
<path fill="none" stroke="midnightblue" d="M503.331,-336.444C476.077,-327.359 432.816,-312.939 402.349,-302.783"/>
<polygon fill="midnightblue" stroke="midnightblue" points="403.143,-299.358 392.549,-299.516 400.929,-305.999 403.143,-299.358"/>
</g>
<!-- Node21 -->
<g id="node22" class="node"><title>Node21</title>
<g id="a_node22"><a xlink:href="MatrixMixtureProfileProcess_8h.html" target="_top" xlink:title="MatrixMixtureProfileProcess.h">
<polygon fill="none" stroke="black" points="455,-280.5 455,-299.5 603,-299.5 603,-280.5 455,-280.5"/>
<text text-anchor="middle" x="529" y="-287.5" font-family="Helvetica,sans-Serif" font-size="10.00">MatrixMixtureProfileProcess.h</text>
</a>
</g>
</g>
<!-- Node1&#45;&gt;Node21 -->
<g id="edge30" class="edge"><title>Node1&#45;&gt;Node21</title>
<path fill="none" stroke="midnightblue" d="M529,-336.083C529,-329.006 529,-318.861 529,-309.986"/>
<polygon fill="midnightblue" stroke="midnightblue" points="532.5,-309.751 529,-299.751 525.5,-309.751 532.5,-309.751"/>
</g>
<!-- Node3 -->
<g id="node4" class="node"><title>Node3</title>
<g id="a_node4"><a xlink:href="GTRSubMatrix_8h.html" target="_top" xlink:title="GTRSubMatrix.h">
<polygon fill="none" stroke="black" points="305,-168.5 305,-187.5 395,-187.5 395,-168.5 305,-168.5"/>
<text text-anchor="middle" x="350" y="-175.5" font-family="Helvetica,sans-Serif" font-size="10.00">GTRSubMatrix.h</text>
</a>
</g>
</g>
<!-- Node2&#45;&gt;Node3 -->
<g id="edge3" class="edge"><title>Node2&#45;&gt;Node3</title>
<path fill="none" stroke="midnightblue" d="M364.51,-280.452C361.985,-271.457 358.152,-256.85 356,-244 353.424,-228.612 351.883,-210.976 351.009,-197.961"/>
<polygon fill="midnightblue" stroke="midnightblue" points="354.497,-197.657 350.404,-187.885 347.51,-198.077 354.497,-197.657"/>
</g>
<!-- Node14 -->
<g id="node15" class="node"><title>Node14</title>
<g id="a_node15"><a xlink:href="MatrixProfileProcess_8h.html" target="_top" xlink:title="MatrixProfileProcess.h">
<polygon fill="none" stroke="black" points="365,-224.5 365,-243.5 481,-243.5 481,-224.5 365,-224.5"/>
<text text-anchor="middle" x="423" y="-231.5" font-family="Helvetica,sans-Serif" font-size="10.00">MatrixProfileProcess.h</text>
</a>
</g>
</g>
<!-- Node2&#45;&gt;Node14 -->
<g id="edge18" class="edge"><title>Node2&#45;&gt;Node14</title>
<path fill="none" stroke="midnightblue" d="M375.997,-280.324C384.194,-272.42 396.506,-260.548 406.472,-250.938"/>
<polygon fill="midnightblue" stroke="midnightblue" points="409.07,-253.295 413.839,-243.834 404.211,-248.256 409.07,-253.295"/>
</g>
<!-- Node4 -->
<g id="node5" class="node"><title>Node4</title>
<g id="a_node5"><a xlink:href="BiologicalSequences_8h.html" target="_top" xlink:title="BiologicalSequences.h">
<polygon fill="none" stroke="black" points="163,-56.5 163,-75.5 279,-75.5 279,-56.5 163,-56.5"/>
<text text-anchor="middle" x="221" y="-63.5" font-family="Helvetica,sans-Serif" font-size="10.00">BiologicalSequences.h</text>
</a>
</g>
</g>
<!-- Node3&#45;&gt;Node4 -->
<g id="edge4" class="edge"><title>Node3&#45;&gt;Node4</title>
<path fill="none" stroke="midnightblue" d="M339.878,-168.368C318.024,-149.733 266.188,-105.532 238.748,-82.1338"/>
<polygon fill="midnightblue" stroke="midnightblue" points="240.956,-79.4167 231.075,-75.5914 236.414,-84.7431 240.956,-79.4167"/>
</g>
<!-- Node8 -->
<g id="node9" class="node"><title>Node8</title>
<g id="a_node9"><a xlink:href="SubMatrix_8h.html" target="_top" xlink:title="SubMatrix.h">
<polygon fill="none" stroke="black" points="388.5,-112.5 388.5,-131.5 457.5,-131.5 457.5,-112.5 388.5,-112.5"/>
<text text-anchor="middle" x="423" y="-119.5" font-family="Helvetica,sans-Serif" font-size="10.00">SubMatrix.h</text>
</a>
</g>
</g>
<!-- Node3&#45;&gt;Node8 -->
<g id="edge8" class="edge"><title>Node3&#45;&gt;Node8</title>
<path fill="none" stroke="midnightblue" d="M361.729,-168.324C372.837,-160.107 389.742,-147.602 402.983,-137.807"/>
<polygon fill="midnightblue" stroke="midnightblue" points="405.1,-140.595 411.058,-131.834 400.937,-134.967 405.1,-140.595"/>
</g>
<!-- Node5 -->
<g id="node6" class="node"><title>Node5</title>
<polygon fill="none" stroke="#bfbfbf" points="198.5,-0.5 198.5,-19.5 243.5,-19.5 243.5,-0.5 198.5,-0.5"/>
<text text-anchor="middle" x="221" y="-7.5" font-family="Helvetica,sans-Serif" font-size="10.00">cstdlib</text>
</g>
<!-- Node4&#45;&gt;Node5 -->
<g id="edge5" class="edge"><title>Node4&#45;&gt;Node5</title>
<path fill="none" stroke="midnightblue" d="M221,-56.083C221,-49.0059 221,-38.8611 221,-29.9865"/>
<polygon fill="midnightblue" stroke="midnightblue" points="224.5,-29.751 221,-19.7511 217.5,-29.7511 224.5,-29.751"/>
</g>
<!-- Node6 -->
<g id="node7" class="node"><title>Node6</title>
<polygon fill="none" stroke="#bfbfbf" points="262,-0.5 262,-19.5 316,-19.5 316,-0.5 262,-0.5"/>
<text text-anchor="middle" x="289" y="-7.5" font-family="Helvetica,sans-Serif" font-size="10.00">iostream</text>
</g>
<!-- Node4&#45;&gt;Node6 -->
<g id="edge6" class="edge"><title>Node4&#45;&gt;Node6</title>
<path fill="none" stroke="midnightblue" d="M231.925,-56.324C242.175,-48.1849 257.721,-35.8395 270.001,-26.0874"/>
<polygon fill="midnightblue" stroke="midnightblue" points="272.221,-28.7937 277.876,-19.8339 267.868,-23.3119 272.221,-28.7937"/>
</g>
<!-- Node7 -->
<g id="node8" class="node"><title>Node7</title>
<polygon fill="none" stroke="#bfbfbf" points="139.5,-0.5 139.5,-19.5 180.5,-19.5 180.5,-0.5 139.5,-0.5"/>
<text text-anchor="middle" x="160" y="-7.5" font-family="Helvetica,sans-Serif" font-size="10.00">string</text>
</g>
<!-- Node4&#45;&gt;Node7 -->
<g id="edge7" class="edge"><title>Node4&#45;&gt;Node7</title>
<path fill="none" stroke="midnightblue" d="M211.199,-56.324C202.182,-48.3414 188.594,-36.3128 177.682,-26.6529"/>
<polygon fill="midnightblue" stroke="midnightblue" points="179.787,-23.8416 169.979,-19.8339 175.147,-29.083 179.787,-23.8416"/>
</g>
<!-- Node8&#45;&gt;Node6 -->
<g id="edge9" class="edge"><title>Node8&#45;&gt;Node6</title>
<path fill="none" stroke="midnightblue" d="M412.485,-112.368C389.784,-93.7334 335.939,-49.5324 307.436,-26.1338"/>
<polygon fill="midnightblue" stroke="midnightblue" points="309.416,-23.2311 299.466,-19.5914 304.974,-28.6416 309.416,-23.2311"/>
</g>
<!-- Node9 -->
<g id="node10" class="node"><title>Node9</title>
<polygon fill="none" stroke="#bfbfbf" points="540,-0.5 540,-19.5 584,-19.5 584,-0.5 540,-0.5"/>
<text text-anchor="middle" x="562" y="-7.5" font-family="Helvetica,sans-Serif" font-size="10.00">cmath</text>
</g>
<!-- Node8&#45;&gt;Node9 -->
<g id="edge10" class="edge"><title>Node8&#45;&gt;Node9</title>
<path fill="none" stroke="midnightblue" d="M433.907,-112.368C457.557,-93.6531 513.791,-49.1509 543.257,-25.8324"/>
<polygon fill="midnightblue" stroke="midnightblue" points="545.474,-28.5416 551.144,-19.5914 541.13,-23.0525 545.474,-28.5416"/>
</g>
<!-- Node10 -->
<g id="node11" class="node"><title>Node10</title>
<g id="a_node11"><a xlink:href="Random_8h.html" target="_top" xlink:title="Random.h">
<polygon fill="none" stroke="black" points="392,-56.5 392,-75.5 454,-75.5 454,-56.5 392,-56.5"/>
<text text-anchor="middle" x="423" y="-63.5" font-family="Helvetica,sans-Serif" font-size="10.00">Random.h</text>
</a>
</g>
</g>
<!-- Node8&#45;&gt;Node10 -->
<g id="edge11" class="edge"><title>Node8&#45;&gt;Node10</title>
<path fill="none" stroke="midnightblue" d="M423,-112.083C423,-105.006 423,-94.8611 423,-85.9865"/>
<polygon fill="midnightblue" stroke="midnightblue" points="426.5,-85.751 423,-75.7511 419.5,-85.7511 426.5,-85.751"/>
</g>
<!-- Node10&#45;&gt;Node5 -->
<g id="edge13" class="edge"><title>Node10&#45;&gt;Node5</title>
<path fill="none" stroke="midnightblue" d="M391.94,-56.9316C359.76,-48.5385 307.765,-34.8836 253.507,-20.1075"/>
<polygon fill="midnightblue" stroke="midnightblue" points="254.282,-16.6911 243.714,-17.4348 252.439,-23.4441 254.282,-16.6911"/>
</g>
<!-- Node10&#45;&gt;Node6 -->
<g id="edge14" class="edge"><title>Node10&#45;&gt;Node6</title>
<path fill="none" stroke="midnightblue" d="M401.767,-56.4435C379.616,-47.5171 344.681,-33.4387 319.564,-23.3168"/>
<polygon fill="midnightblue" stroke="midnightblue" points="320.717,-20.0079 310.133,-19.5164 318.1,-26.5006 320.717,-20.0079"/>
</g>
<!-- Node10&#45;&gt;Node9 -->
<g id="edge12" class="edge"><title>Node10&#45;&gt;Node9</title>
<path fill="none" stroke="midnightblue" d="M445.025,-56.4435C468.104,-47.4776 504.562,-33.314 530.641,-23.1827"/>
<polygon fill="midnightblue" stroke="midnightblue" points="532.024,-26.4002 540.078,-19.5164 529.489,-19.8753 532.024,-26.4002"/>
</g>
<!-- Node11 -->
<g id="node12" class="node"><title>Node11</title>
<polygon fill="none" stroke="#bfbfbf" points="470,-0.5 470,-19.5 522,-19.5 522,-0.5 470,-0.5"/>
<text text-anchor="middle" x="496" y="-7.5" font-family="Helvetica,sans-Serif" font-size="10.00">sstream</text>
</g>
<!-- Node10&#45;&gt;Node11 -->
<g id="edge15" class="edge"><title>Node10&#45;&gt;Node11</title>
<path fill="none" stroke="midnightblue" d="M434.729,-56.324C445.837,-48.1066 462.742,-35.6017 475.983,-25.8069"/>
<polygon fill="midnightblue" stroke="midnightblue" points="478.1,-28.5948 484.058,-19.8339 473.937,-22.9671 478.1,-28.5948"/>
</g>
<!-- Node12 -->
<g id="node13" class="node"><title>Node12</title>
<polygon fill="none" stroke="#bfbfbf" points="334,-0.5 334,-19.5 384,-19.5 384,-0.5 334,-0.5"/>
<text text-anchor="middle" x="359" y="-7.5" font-family="Helvetica,sans-Serif" font-size="10.00">iomanip</text>
</g>
<!-- Node10&#45;&gt;Node12 -->
<g id="edge16" class="edge"><title>Node10&#45;&gt;Node12</title>
<path fill="none" stroke="midnightblue" d="M412.717,-56.324C403.164,-48.2631 388.72,-36.0765 377.216,-26.3695"/>
<polygon fill="midnightblue" stroke="midnightblue" points="379.37,-23.6076 369.47,-19.8339 374.856,-28.9577 379.37,-23.6076"/>
</g>
<!-- Node13 -->
<g id="node14" class="node"><title>Node13</title>
<polygon fill="none" stroke="#bfbfbf" points="402,-0.5 402,-19.5 452,-19.5 452,-0.5 402,-0.5"/>
<text text-anchor="middle" x="427" y="-7.5" font-family="Helvetica,sans-Serif" font-size="10.00">fstream</text>
</g>
<!-- Node10&#45;&gt;Node13 -->
<g id="edge17" class="edge"><title>Node10&#45;&gt;Node13</title>
<path fill="none" stroke="midnightblue" d="M423.661,-56.083C424.185,-49.0059 424.936,-38.8611 425.594,-29.9865"/>
<polygon fill="midnightblue" stroke="midnightblue" points="429.103,-29.9823 426.352,-19.7511 422.123,-29.4652 429.103,-29.9823"/>
</g>
<!-- Node14&#45;&gt;Node8 -->
<g id="edge19" class="edge"><title>Node14&#45;&gt;Node8</title>
<path fill="none" stroke="midnightblue" d="M423,-224.368C423,-206.617 423,-165.666 423,-141.597"/>
<polygon fill="midnightblue" stroke="midnightblue" points="426.5,-141.591 423,-131.591 419.5,-141.591 426.5,-141.591"/>
</g>
<!-- Node15 -->
<g id="node16" class="node"><title>Node15</title>
<g id="a_node16"><a xlink:href="ProfileProcess_8h.html" target="_top" xlink:title="ProfileProcess.h">
<polygon fill="none" stroke="black" points="197.5,-168.5 197.5,-187.5 286.5,-187.5 286.5,-168.5 197.5,-168.5"/>
<text text-anchor="middle" x="242" y="-175.5" font-family="Helvetica,sans-Serif" font-size="10.00">ProfileProcess.h</text>
</a>
</g>
</g>
<!-- Node14&#45;&gt;Node15 -->
<g id="edge20" class="edge"><title>Node14&#45;&gt;Node15</title>
<path fill="none" stroke="midnightblue" d="M394.32,-224.444C363.473,-215.241 314.272,-200.562 280.171,-190.388"/>
<polygon fill="midnightblue" stroke="midnightblue" points="281.129,-187.021 270.546,-187.516 279.128,-193.729 281.129,-187.021"/>
</g>
<!-- Node15&#45;&gt;Node6 -->
<g id="edge28" class="edge"><title>Node15&#45;&gt;Node6</title>
<path fill="none" stroke="midnightblue" d="M247.782,-168.308C258.592,-151.416 281.372,-112.591 288,-76 290.77,-60.7111 290.849,-43.0678 290.332,-30.0241"/>
<polygon fill="midnightblue" stroke="midnightblue" points="293.82,-29.7127 289.775,-19.9203 286.831,-30.0976 293.82,-29.7127"/>
</g>
<!-- Node16 -->
<g id="node17" class="node"><title>Node16</title>
<g id="a_node17"><a xlink:href="Chrono_8h.html" target="_top" xlink:title="Chrono.h">
<polygon fill="none" stroke="black" points="74,-56.5 74,-75.5 130,-75.5 130,-56.5 74,-56.5"/>
<text text-anchor="middle" x="102" y="-63.5" font-family="Helvetica,sans-Serif" font-size="10.00">Chrono.h</text>
</a>
</g>
</g>
<!-- Node15&#45;&gt;Node16 -->
<g id="edge21" class="edge"><title>Node15&#45;&gt;Node16</title>
<path fill="none" stroke="midnightblue" d="M197.345,-170.527C171.744,-164.599 140.851,-153.327 121,-132 109.37,-119.505 104.82,-100.276 103.061,-85.97"/>
<polygon fill="midnightblue" stroke="midnightblue" points="106.527,-85.4305 102.166,-75.775 99.5538,-86.0428 106.527,-85.4305"/>
</g>
<!-- Node19 -->
<g id="node20" class="node"><title>Node19</title>
<g id="a_node20"><a xlink:href="StateSpace_8h.html" target="_top" xlink:title="StateSpace.h">
<polygon fill="none" stroke="black" points="130,-112.5 130,-131.5 206,-131.5 206,-112.5 130,-112.5"/>
<text text-anchor="middle" x="168" y="-119.5" font-family="Helvetica,sans-Serif" font-size="10.00">StateSpace.h</text>
</a>
</g>
</g>
<!-- Node15&#45;&gt;Node19 -->
<g id="edge26" class="edge"><title>Node15&#45;&gt;Node19</title>
<path fill="none" stroke="midnightblue" d="M230.111,-168.324C218.85,-160.107 201.713,-147.602 188.291,-137.807"/>
<polygon fill="midnightblue" stroke="midnightblue" points="190.247,-134.901 180.106,-131.834 186.12,-140.556 190.247,-134.901"/>
</g>
<!-- Node20 -->
<g id="node21" class="node"><title>Node20</title>
<polygon fill="none" stroke="#bfbfbf" points="224.5,-112.5 224.5,-131.5 259.5,-131.5 259.5,-112.5 224.5,-112.5"/>
<text text-anchor="middle" x="242" y="-119.5" font-family="Helvetica,sans-Serif" font-size="10.00">map</text>
</g>
<!-- Node15&#45;&gt;Node20 -->
<g id="edge29" class="edge"><title>Node15&#45;&gt;Node20</title>
<path fill="none" stroke="midnightblue" d="M242,-168.083C242,-161.006 242,-150.861 242,-141.986"/>
<polygon fill="midnightblue" stroke="midnightblue" points="245.5,-141.751 242,-131.751 238.5,-141.751 245.5,-141.751"/>
</g>
<!-- Node16&#45;&gt;Node5 -->
<g id="edge25" class="edge"><title>Node16&#45;&gt;Node5</title>
<path fill="none" stroke="midnightblue" d="M120.856,-56.4435C140.266,-47.6356 170.73,-33.8116 192.965,-23.722"/>
<polygon fill="midnightblue" stroke="midnightblue" points="194.572,-26.836 202.232,-19.5164 191.68,-20.4615 194.572,-26.836"/>
</g>
<!-- Node16&#45;&gt;Node6 -->
<g id="edge24" class="edge"><title>Node16&#45;&gt;Node6</title>
<path fill="none" stroke="midnightblue" d="M130.401,-56.7986C162.856,-47.4266 216.085,-32.0557 251.82,-21.7366"/>
<polygon fill="midnightblue" stroke="midnightblue" points="253.217,-24.976 261.854,-18.839 251.275,-18.2508 253.217,-24.976"/>
</g>
<!-- Node17 -->
<g id="node18" class="node"><title>Node17</title>
<polygon fill="none" stroke="#bfbfbf" points="80.5,-0.5 80.5,-19.5 121.5,-19.5 121.5,-0.5 80.5,-0.5"/>
<text text-anchor="middle" x="101" y="-7.5" font-family="Helvetica,sans-Serif" font-size="10.00">ctime</text>
</g>
<!-- Node16&#45;&gt;Node17 -->
<g id="edge22" class="edge"><title>Node16&#45;&gt;Node17</title>
<path fill="none" stroke="midnightblue" d="M101.835,-56.083C101.704,-49.0059 101.516,-38.8611 101.352,-29.9865"/>
<polygon fill="midnightblue" stroke="midnightblue" points="104.847,-29.6845 101.162,-19.7511 97.8479,-29.8142 104.847,-29.6845"/>
</g>
<!-- Node18 -->
<g id="node19" class="node"><title>Node18</title>
<polygon fill="none" stroke="#bfbfbf" points="0,-0.5 0,-19.5 62,-19.5 62,-0.5 0,-0.5"/>
<text text-anchor="middle" x="31" y="-7.5" font-family="Helvetica,sans-Serif" font-size="10.00">sys/time.h</text>
</g>
<!-- Node16&#45;&gt;Node18 -->
<g id="edge23" class="edge"><title>Node16&#45;&gt;Node18</title>
<path fill="none" stroke="midnightblue" d="M90.5926,-56.324C79.8912,-48.1849 63.6593,-35.8395 50.8372,-26.0874"/>
<polygon fill="midnightblue" stroke="midnightblue" points="52.6932,-23.1018 42.6149,-19.8339 48.4556,-28.6734 52.6932,-23.1018"/>
</g>
<!-- Node19&#45;&gt;Node4 -->
<g id="edge27" class="edge"><title>Node19&#45;&gt;Node4</title>
<path fill="none" stroke="midnightblue" d="M176.752,-112.083C184.47,-104.22 195.905,-92.5688 205.217,-83.0813"/>
<polygon fill="midnightblue" stroke="midnightblue" points="207.904,-85.3396 212.411,-75.7511 202.908,-80.4363 207.904,-85.3396"/>
</g>
<!-- Node21&#45;&gt;Node14 -->
<g id="edge31" class="edge"><title>Node21&#45;&gt;Node14</title>
<path fill="none" stroke="midnightblue" d="M511.969,-280.324C494.97,-271.664 468.624,-258.242 449.007,-248.249"/>
<polygon fill="midnightblue" stroke="midnightblue" points="450.488,-245.075 439.988,-243.655 447.31,-251.312 450.488,-245.075"/>
</g>
<!-- Node22 -->
<g id="node23" class="node"><title>Node22</title>
<g id="a_node23"><a xlink:href="MixtureProfileProcess_8h.html" target="_top" xlink:title="MixtureProfileProcess.h">
<polygon fill="none" stroke="black" points="499.5,-224.5 499.5,-243.5 620.5,-243.5 620.5,-224.5 499.5,-224.5"/>
<text text-anchor="middle" x="560" y="-231.5" font-family="Helvetica,sans-Serif" font-size="10.00">MixtureProfileProcess.h</text>
</a>
</g>
</g>
<!-- Node21&#45;&gt;Node22 -->
<g id="edge32" class="edge"><title>Node21&#45;&gt;Node22</title>
<path fill="none" stroke="midnightblue" d="M534.119,-280.083C538.408,-272.613 544.658,-261.724 549.942,-252.52"/>
<polygon fill="midnightblue" stroke="midnightblue" points="553.033,-254.166 554.976,-243.751 546.962,-250.681 553.033,-254.166"/>
</g>
<!-- Node22&#45;&gt;Node9 -->
<g id="edge33" class="edge"><title>Node22&#45;&gt;Node9</title>
<path fill="none" stroke="midnightblue" d="M560.078,-224.297C560.373,-191.633 561.416,-75.8661 561.829,-29.9573"/>
<polygon fill="midnightblue" stroke="midnightblue" points="565.33,-29.9149 561.92,-19.8837 558.33,-29.8518 565.33,-29.9149"/>
</g>
<!-- Node22&#45;&gt;Node15 -->
<g id="edge34" class="edge"><title>Node22&#45;&gt;Node15</title>
<path fill="none" stroke="midnightblue" d="M509.612,-224.444C451.502,-214.576 356.319,-198.413 296.518,-188.258"/>
<polygon fill="midnightblue" stroke="midnightblue" points="296.953,-184.782 286.508,-186.558 295.781,-191.683 296.953,-184.782"/>
</g>
<!-- Node23&#45;&gt;Node2 -->
<g id="edge36" class="edge"><title>Node23&#45;&gt;Node2</title>
<path fill="none" stroke="midnightblue" d="M354.477,-336.083C356.486,-328.849 359.386,-318.409 361.89,-309.397"/>
<polygon fill="midnightblue" stroke="midnightblue" points="365.265,-310.323 364.569,-299.751 358.52,-308.449 365.265,-310.323"/>
</g>
</g>
</svg>
