<?xml version="1.0" encoding="UTF-8" standalone="no"?>
<!DOCTYPE svg PUBLIC "-//W3C//DTD SVG 1.1//EN"
 "http://www.w3.org/Graphics/SVG/1.1/DTD/svg11.dtd">
<!-- Generated by graphviz version 2.38.0 (20140413.2041)
 -->
<!-- Title: ExpoConjugateGTRDPProfileProcess.h Pages: 1 -->
<svg width="677pt" height="498pt"
 viewBox="0.00 0.00 677.00 498.00" xmlns="http://www.w3.org/2000/svg" xmlns:xlink="http://www.w3.org/1999/xlink">
<g id="graph0" class="graph" transform="scale(1 1) rotate(0) translate(4 494)">
<title>ExpoConjugateGTRDPProfileProcess.h</title>
<!-- Node0 -->
<g id="node1" class="node"><title>Node0</title>
<polygon fill="#bfbfbf" stroke="black" points="80,-459.5 80,-489.5 226,-489.5 226,-459.5 80,-459.5"/>
<text text-anchor="start" x="88" y="-477.5" font-family="Helvetica,sans-Serif" font-size="10.00">ExpoConjugateGTRDPProfile</text>
<text text-anchor="middle" x="153" y="-466.5" font-family="Helvetica,sans-Serif" font-size="10.00">Process.h</text>
</g>
<!-- Node1 -->
<g id="node2" class="node"><title>Node1</title>
<g id="a_node2"><a xlink:href="MatrixDPProfileProcess_8h.html" target="_top" xlink:title="MatrixDPProfileProcess.h">
<polygon fill="none" stroke="black" points="0,-336.5 0,-355.5 130,-355.5 130,-336.5 0,-336.5"/>
<text text-anchor="middle" x="65" y="-343.5" font-family="Helvetica,sans-Serif" font-size="10.00">MatrixDPProfileProcess.h</text>
</a>
</g>
</g>
<!-- Node0&#45;&gt;Node1 -->
<g id="edge1" class="edge"><title>Node0&#45;&gt;Node1</title>
<path fill="none" stroke="midnightblue" d="M143.246,-459.479C126.985,-436.104 94.3932,-389.253 76.8416,-364.022"/>
<polygon fill="midnightblue" stroke="midnightblue" points="79.6976,-361.999 71.1138,-355.789 73.9513,-365.996 79.6976,-361.999"/>
</g>
<!-- Node22 -->
<g id="node23" class="node"><title>Node22</title>
<g id="a_node23"><a xlink:href="ExpoConjugateGTRMixtureProfileProcess_8h.html" target="_top" xlink:title="ExpoConjugateGTRMixtureProfile\lProcess.h">
<polygon fill="none" stroke="black" points="137,-392.5 137,-422.5 301,-422.5 301,-392.5 137,-392.5"/>
<text text-anchor="start" x="145" y="-410.5" font-family="Helvetica,sans-Serif" font-size="10.00">ExpoConjugateGTRMixtureProfile</text>
<text text-anchor="middle" x="219" y="-399.5" font-family="Helvetica,sans-Serif" font-size="10.00">Process.h</text>
</a>
</g>
</g>
<!-- Node0&#45;&gt;Node22 -->
<g id="edge33" class="edge"><title>Node0&#45;&gt;Node22</title>
<path fill="none" stroke="midnightblue" d="M167.321,-459.396C176.143,-450.708 187.62,-439.405 197.517,-429.658"/>
<polygon fill="midnightblue" stroke="midnightblue" points="200.038,-432.087 204.707,-422.577 195.126,-427.1 200.038,-432.087"/>
</g>
<!-- Node2 -->
<g id="node3" class="node"><title>Node2</title>
<g id="a_node3"><a xlink:href="MatrixMixtureProfileProcess_8h.html" target="_top" xlink:title="MatrixMixtureProfileProcess.h">
<polygon fill="none" stroke="black" points="140,-280.5 140,-299.5 288,-299.5 288,-280.5 140,-280.5"/>
<text text-anchor="middle" x="214" y="-287.5" font-family="Helvetica,sans-Serif" font-size="10.00">MatrixMixtureProfileProcess.h</text>
</a>
</g>
</g>
<!-- Node1&#45;&gt;Node2 -->
<g id="edge2" class="edge"><title>Node1&#45;&gt;Node2</title>
<path fill="none" stroke="midnightblue" d="M88.6095,-336.444C113.458,-327.438 152.774,-313.189 180.754,-303.049"/>
<polygon fill="midnightblue" stroke="midnightblue" points="182.292,-306.214 190.501,-299.516 179.907,-299.633 182.292,-306.214"/>
</g>
<!-- Node21 -->
<g id="node22" class="node"><title>Node21</title>
<g id="a_node22"><a xlink:href="DPProfileProcess_8h.html" target="_top" xlink:title="DPProfileProcess.h">
<polygon fill="none" stroke="black" points="13.5,-280.5 13.5,-299.5 116.5,-299.5 116.5,-280.5 13.5,-280.5"/>
<text text-anchor="middle" x="65" y="-287.5" font-family="Helvetica,sans-Serif" font-size="10.00">DPProfileProcess.h</text>
</a>
</g>
</g>
<!-- Node1&#45;&gt;Node21 -->
<g id="edge30" class="edge"><title>Node1&#45;&gt;Node21</title>
<path fill="none" stroke="midnightblue" d="M65,-336.083C65,-329.006 65,-318.861 65,-309.986"/>
<polygon fill="midnightblue" stroke="midnightblue" points="68.5001,-309.751 65,-299.751 61.5001,-309.751 68.5001,-309.751"/>
</g>
<!-- Node3 -->
<g id="node4" class="node"><title>Node3</title>
<g id="a_node4"><a xlink:href="MatrixProfileProcess_8h.html" target="_top" xlink:title="MatrixProfileProcess.h">
<polygon fill="none" stroke="black" points="205,-224.5 205,-243.5 321,-243.5 321,-224.5 205,-224.5"/>
<text text-anchor="middle" x="263" y="-231.5" font-family="Helvetica,sans-Serif" font-size="10.00">MatrixProfileProcess.h</text>
</a>
</g>
</g>
<!-- Node2&#45;&gt;Node3 -->
<g id="edge3" class="edge"><title>Node2&#45;&gt;Node3</title>
<path fill="none" stroke="midnightblue" d="M222.091,-280.083C229.155,-272.298 239.588,-260.801 248.149,-251.367"/>
<polygon fill="midnightblue" stroke="midnightblue" points="250.931,-253.509 255.059,-243.751 245.747,-248.805 250.931,-253.509"/>
</g>
<!-- Node20 -->
<g id="node21" class="node"><title>Node20</title>
<g id="a_node21"><a xlink:href="MixtureProfileProcess_8h.html" target="_top" xlink:title="MixtureProfileProcess.h">
<polygon fill="none" stroke="black" points="65.5,-224.5 65.5,-243.5 186.5,-243.5 186.5,-224.5 65.5,-224.5"/>
<text text-anchor="middle" x="126" y="-231.5" font-family="Helvetica,sans-Serif" font-size="10.00">MixtureProfileProcess.h</text>
</a>
</g>
</g>
<!-- Node2&#45;&gt;Node20 -->
<g id="edge27" class="edge"><title>Node2&#45;&gt;Node20</title>
<path fill="none" stroke="midnightblue" d="M199.861,-280.324C186.134,-271.9 165.064,-258.971 148.936,-249.074"/>
<polygon fill="midnightblue" stroke="midnightblue" points="150.457,-245.902 140.104,-243.655 146.796,-251.868 150.457,-245.902"/>
</g>
<!-- Node4 -->
<g id="node5" class="node"><title>Node4</title>
<g id="a_node5"><a xlink:href="SubMatrix_8h.html" target="_top" xlink:title="SubMatrix.h">
<polygon fill="none" stroke="black" points="314.5,-168.5 314.5,-187.5 383.5,-187.5 383.5,-168.5 314.5,-168.5"/>
<text text-anchor="middle" x="349" y="-175.5" font-family="Helvetica,sans-Serif" font-size="10.00">SubMatrix.h</text>
</a>
</g>
</g>
<!-- Node3&#45;&gt;Node4 -->
<g id="edge4" class="edge"><title>Node3&#45;&gt;Node4</title>
<path fill="none" stroke="midnightblue" d="M276.817,-224.324C290.233,-215.9 310.824,-202.971 326.586,-193.074"/>
<polygon fill="midnightblue" stroke="midnightblue" points="328.609,-195.936 335.217,-187.655 324.887,-190.008 328.609,-195.936"/>
</g>
<!-- Node12 -->
<g id="node13" class="node"><title>Node12</title>
<g id="a_node13"><a xlink:href="ProfileProcess_8h.html" target="_top" xlink:title="ProfileProcess.h">
<polygon fill="none" stroke="black" points="141.5,-168.5 141.5,-187.5 230.5,-187.5 230.5,-168.5 141.5,-168.5"/>
<text text-anchor="middle" x="186" y="-175.5" font-family="Helvetica,sans-Serif" font-size="10.00">ProfileProcess.h</text>
</a>
</g>
</g>
<!-- Node3&#45;&gt;Node12 -->
<g id="edge14" class="edge"><title>Node3&#45;&gt;Node12</title>
<path fill="none" stroke="midnightblue" d="M250.629,-224.324C238.842,-216.058 220.868,-203.453 206.864,-193.632"/>
<polygon fill="midnightblue" stroke="midnightblue" points="208.538,-190.531 198.341,-187.655 204.518,-196.262 208.538,-190.531"/>
</g>
<!-- Node5 -->
<g id="node6" class="node"><title>Node5</title>
<polygon fill="none" stroke="#bfbfbf" points="216,-0.5 216,-19.5 270,-19.5 270,-0.5 216,-0.5"/>
<text text-anchor="middle" x="243" y="-7.5" font-family="Helvetica,sans-Serif" font-size="10.00">iostream</text>
</g>
<!-- Node4&#45;&gt;Node5 -->
<g id="edge5" class="edge"><title>Node4&#45;&gt;Node5</title>
<path fill="none" stroke="midnightblue" d="M369.6,-168.419C412.646,-149.308 505.173,-101.343 468,-56 444.7,-27.5782 338.1,-16.7497 280.383,-12.9184"/>
<polygon fill="midnightblue" stroke="midnightblue" points="280.406,-9.41302 270.207,-12.2818 279.968,-16.3994 280.406,-9.41302"/>
</g>
<!-- Node6 -->
<g id="node7" class="node"><title>Node6</title>
<polygon fill="none" stroke="#bfbfbf" points="133,-56.5 133,-75.5 177,-75.5 177,-56.5 133,-56.5"/>
<text text-anchor="middle" x="155" y="-63.5" font-family="Helvetica,sans-Serif" font-size="10.00">cmath</text>
</g>
<!-- Node4&#45;&gt;Node6 -->
<g id="edge6" class="edge"><title>Node4&#45;&gt;Node6</title>
<path fill="none" stroke="midnightblue" d="M333.777,-168.368C300.203,-149.332 219.576,-103.615 179.074,-80.6505"/>
<polygon fill="midnightblue" stroke="midnightblue" points="180.577,-77.4792 170.152,-75.5914 177.125,-83.5685 180.577,-77.4792"/>
</g>
<!-- Node7 -->
<g id="node8" class="node"><title>Node7</title>
<g id="a_node8"><a xlink:href="Random_8h.html" target="_top" xlink:title="Random.h">
<polygon fill="none" stroke="black" points="318,-112.5 318,-131.5 380,-131.5 380,-112.5 318,-112.5"/>
<text text-anchor="middle" x="349" y="-119.5" font-family="Helvetica,sans-Serif" font-size="10.00">Random.h</text>
</a>
</g>
</g>
<!-- Node4&#45;&gt;Node7 -->
<g id="edge7" class="edge"><title>Node4&#45;&gt;Node7</title>
<path fill="none" stroke="midnightblue" d="M349,-168.083C349,-161.006 349,-150.861 349,-141.986"/>
<polygon fill="midnightblue" stroke="midnightblue" points="352.5,-141.751 349,-131.751 345.5,-141.751 352.5,-141.751"/>
</g>
<!-- Node7&#45;&gt;Node5 -->
<g id="edge10" class="edge"><title>Node7&#45;&gt;Node5</title>
<path fill="none" stroke="midnightblue" d="M319.264,-112.375C300.337,-105.437 276.702,-93.8524 262,-76 251.149,-62.8234 246.495,-43.6857 244.499,-29.5867"/>
<polygon fill="midnightblue" stroke="midnightblue" points="247.969,-29.1287 243.4,-19.5699 241.011,-29.8919 247.969,-29.1287"/>
</g>
<!-- Node7&#45;&gt;Node6 -->
<g id="edge8" class="edge"><title>Node7&#45;&gt;Node6</title>
<path fill="none" stroke="midnightblue" d="M318.26,-112.444C282.475,-102.483 223.643,-86.1068 187.232,-75.9717"/>
<polygon fill="midnightblue" stroke="midnightblue" points="187.72,-72.4747 177.148,-73.1649 185.843,-79.2183 187.72,-72.4747"/>
</g>
<!-- Node8 -->
<g id="node9" class="node"><title>Node8</title>
<polygon fill="none" stroke="#bfbfbf" points="502.5,-0.5 502.5,-19.5 547.5,-19.5 547.5,-0.5 502.5,-0.5"/>
<text text-anchor="middle" x="525" y="-7.5" font-family="Helvetica,sans-Serif" font-size="10.00">cstdlib</text>
</g>
<!-- Node7&#45;&gt;Node8 -->
<g id="edge9" class="edge"><title>Node7&#45;&gt;Node8</title>
<path fill="none" stroke="midnightblue" d="M380.069,-113.745C405.319,-106.837 441.044,-94.6879 468,-76 486.618,-63.0926 503.096,-42.8098 513.486,-28.3357"/>
<polygon fill="midnightblue" stroke="midnightblue" points="516.582,-30.013 519.396,-19.7987 510.826,-26.0288 516.582,-30.013"/>
</g>
<!-- Node9 -->
<g id="node10" class="node"><title>Node9</title>
<polygon fill="none" stroke="#bfbfbf" points="339,-56.5 339,-75.5 391,-75.5 391,-56.5 339,-56.5"/>
<text text-anchor="middle" x="365" y="-63.5" font-family="Helvetica,sans-Serif" font-size="10.00">sstream</text>
</g>
<!-- Node7&#45;&gt;Node9 -->
<g id="edge11" class="edge"><title>Node7&#45;&gt;Node9</title>
<path fill="none" stroke="midnightblue" d="M351.642,-112.083C353.786,-104.849 356.879,-94.4087 359.549,-85.3968"/>
<polygon fill="midnightblue" stroke="midnightblue" points="362.922,-86.3334 362.407,-75.7511 356.21,-84.3447 362.922,-86.3334"/>
</g>
<!-- Node10 -->
<g id="node11" class="node"><title>Node10</title>
<polygon fill="none" stroke="#bfbfbf" points="409,-56.5 409,-75.5 459,-75.5 459,-56.5 409,-56.5"/>
<text text-anchor="middle" x="434" y="-63.5" font-family="Helvetica,sans-Serif" font-size="10.00">iomanip</text>
</g>
<!-- Node7&#45;&gt;Node10 -->
<g id="edge12" class="edge"><title>Node7&#45;&gt;Node10</title>
<path fill="none" stroke="midnightblue" d="M362.657,-112.324C375.916,-103.9 396.268,-90.9709 411.846,-81.0741"/>
<polygon fill="midnightblue" stroke="midnightblue" points="413.813,-83.9711 420.377,-75.6545 410.06,-78.0626 413.813,-83.9711"/>
</g>
<!-- Node11 -->
<g id="node12" class="node"><title>Node11</title>
<polygon fill="none" stroke="#bfbfbf" points="271,-56.5 271,-75.5 321,-75.5 321,-56.5 271,-56.5"/>
<text text-anchor="middle" x="296" y="-63.5" font-family="Helvetica,sans-Serif" font-size="10.00">fstream</text>
</g>
<!-- Node7&#45;&gt;Node11 -->
<g id="edge13" class="edge"><title>Node7&#45;&gt;Node11</title>
<path fill="none" stroke="midnightblue" d="M340.248,-112.083C332.53,-104.22 321.095,-92.5688 311.783,-83.0813"/>
<polygon fill="midnightblue" stroke="midnightblue" points="314.092,-80.4363 304.589,-75.7511 309.096,-85.3396 314.092,-80.4363"/>
</g>
<!-- Node12&#45;&gt;Node5 -->
<g id="edge25" class="edge"><title>Node12&#45;&gt;Node5</title>
<path fill="none" stroke="midnightblue" d="M189.065,-168.075C198.076,-141.832 224.614,-64.5453 236.779,-29.1165"/>
<polygon fill="midnightblue" stroke="midnightblue" points="240.121,-30.1628 240.058,-19.5681 233.5,-27.8894 240.121,-30.1628"/>
</g>
<!-- Node13 -->
<g id="node14" class="node"><title>Node13</title>
<g id="a_node14"><a xlink:href="Chrono_8h.html" target="_top" xlink:title="Chrono.h">
<polygon fill="none" stroke="black" points="59,-56.5 59,-75.5 115,-75.5 115,-56.5 59,-56.5"/>
<text text-anchor="middle" x="87" y="-63.5" font-family="Helvetica,sans-Serif" font-size="10.00">Chrono.h</text>
</a>
</g>
</g>
<!-- Node12&#45;&gt;Node13 -->
<g id="edge15" class="edge"><title>Node12&#45;&gt;Node13</title>
<path fill="none" stroke="midnightblue" d="M182.129,-168.305C175.986,-155.136 163.041,-129.786 147,-112 136.298,-100.134 122.069,-89.3037 110.153,-81.2427"/>
<polygon fill="midnightblue" stroke="midnightblue" points="111.875,-78.1868 101.589,-75.6471 108.046,-84.0469 111.875,-78.1868"/>
</g>
<!-- Node16 -->
<g id="node17" class="node"><title>Node16</title>
<g id="a_node17"><a xlink:href="StateSpace_8h.html" target="_top" xlink:title="StateSpace.h">
<polygon fill="none" stroke="black" points="515,-112.5 515,-131.5 591,-131.5 591,-112.5 515,-112.5"/>
<text text-anchor="middle" x="553" y="-119.5" font-family="Helvetica,sans-Serif" font-size="10.00">StateSpace.h</text>
</a>
</g>
</g>
<!-- Node12&#45;&gt;Node16 -->
<g id="edge20" class="edge"><title>Node12&#45;&gt;Node16</title>
<path fill="none" stroke="midnightblue" d="M230.634,-170.433C300.004,-160.226 433.137,-140.636 504.688,-130.109"/>
<polygon fill="midnightblue" stroke="midnightblue" points="505.399,-133.542 514.783,-128.623 504.38,-126.616 505.399,-133.542"/>
</g>
<!-- Node19 -->
<g id="node20" class="node"><title>Node19</title>
<polygon fill="none" stroke="#bfbfbf" points="103.5,-112.5 103.5,-131.5 138.5,-131.5 138.5,-112.5 103.5,-112.5"/>
<text text-anchor="middle" x="121" y="-119.5" font-family="Helvetica,sans-Serif" font-size="10.00">map</text>
</g>
<!-- Node12&#45;&gt;Node19 -->
<g id="edge26" class="edge"><title>Node12&#45;&gt;Node19</title>
<path fill="none" stroke="midnightblue" d="M175.557,-168.324C165.854,-160.263 151.185,-148.077 139.5,-138.369"/>
<polygon fill="midnightblue" stroke="midnightblue" points="141.562,-135.532 131.633,-131.834 137.089,-140.916 141.562,-135.532"/>
</g>
<!-- Node13&#45;&gt;Node5 -->
<g id="edge18" class="edge"><title>Node13&#45;&gt;Node5</title>
<path fill="none" stroke="midnightblue" d="M111.719,-56.4435C137.848,-47.3986 179.259,-33.064 208.576,-22.9158"/>
<polygon fill="midnightblue" stroke="midnightblue" points="210.092,-26.0951 218.397,-19.5164 207.802,-19.4801 210.092,-26.0951"/>
</g>
<!-- Node13&#45;&gt;Node8 -->
<g id="edge19" class="edge"><title>Node13&#45;&gt;Node8</title>
<path fill="none" stroke="midnightblue" d="M115.204,-57.7492C118.163,-57.1055 121.136,-56.507 124,-56 259.543,-32.0095 423.25,-18.3362 492.039,-13.2755"/>
<polygon fill="midnightblue" stroke="midnightblue" points="492.524,-16.7496 502.245,-12.537 492.018,-9.76789 492.524,-16.7496"/>
</g>
<!-- Node14 -->
<g id="node15" class="node"><title>Node14</title>
<polygon fill="none" stroke="#bfbfbf" points="101.5,-0.5 101.5,-19.5 142.5,-19.5 142.5,-0.5 101.5,-0.5"/>
<text text-anchor="middle" x="122" y="-7.5" font-family="Helvetica,sans-Serif" font-size="10.00">ctime</text>
</g>
<!-- Node13&#45;&gt;Node14 -->
<g id="edge16" class="edge"><title>Node13&#45;&gt;Node14</title>
<path fill="none" stroke="midnightblue" d="M92.7795,-56.083C97.6724,-48.5341 104.827,-37.4948 110.833,-28.2298"/>
<polygon fill="midnightblue" stroke="midnightblue" points="113.826,-30.0463 116.328,-19.7511 107.952,-26.239 113.826,-30.0463"/>
</g>
<!-- Node15 -->
<g id="node16" class="node"><title>Node15</title>
<polygon fill="none" stroke="#bfbfbf" points="21,-0.5 21,-19.5 83,-19.5 83,-0.5 21,-0.5"/>
<text text-anchor="middle" x="52" y="-7.5" font-family="Helvetica,sans-Serif" font-size="10.00">sys/time.h</text>
</g>
<!-- Node13&#45;&gt;Node15 -->
<g id="edge17" class="edge"><title>Node13&#45;&gt;Node15</title>
<path fill="none" stroke="midnightblue" d="M81.2205,-56.083C76.3276,-48.5341 69.1726,-37.4948 63.1674,-28.2298"/>
<polygon fill="midnightblue" stroke="midnightblue" points="66.048,-26.239 57.672,-19.7511 60.174,-30.0463 66.048,-26.239"/>
</g>
<!-- Node17 -->
<g id="node18" class="node"><title>Node17</title>
<g id="a_node18"><a xlink:href="BiologicalSequences_8h.html" target="_top" xlink:title="BiologicalSequences.h">
<polygon fill="none" stroke="black" points="553,-56.5 553,-75.5 669,-75.5 669,-56.5 553,-56.5"/>
<text text-anchor="middle" x="611" y="-63.5" font-family="Helvetica,sans-Serif" font-size="10.00">BiologicalSequences.h</text>
</a>
</g>
</g>
<!-- Node16&#45;&gt;Node17 -->
<g id="edge21" class="edge"><title>Node16&#45;&gt;Node17</title>
<path fill="none" stroke="midnightblue" d="M562.319,-112.324C570.893,-104.341 583.812,-92.3128 594.188,-82.6529"/>
<polygon fill="midnightblue" stroke="midnightblue" points="596.578,-85.2098 601.512,-75.8339 591.808,-80.0865 596.578,-85.2098"/>
</g>
<!-- Node17&#45;&gt;Node5 -->
<g id="edge23" class="edge"><title>Node17&#45;&gt;Node5</title>
<path fill="none" stroke="midnightblue" d="M552.689,-56.4435C476.281,-45.2315 344.482,-25.8914 280.296,-16.4727"/>
<polygon fill="midnightblue" stroke="midnightblue" points="280.628,-12.9841 270.226,-14.9951 279.612,-19.9099 280.628,-12.9841"/>
</g>
<!-- Node17&#45;&gt;Node8 -->
<g id="edge22" class="edge"><title>Node17&#45;&gt;Node8</title>
<path fill="none" stroke="midnightblue" d="M597.183,-56.324C583.767,-47.9002 563.176,-34.9709 547.414,-25.0741"/>
<polygon fill="midnightblue" stroke="midnightblue" points="549.113,-22.0081 538.783,-19.6545 545.391,-27.9364 549.113,-22.0081"/>
</g>
<!-- Node18 -->
<g id="node19" class="node"><title>Node18</title>
<polygon fill="none" stroke="#bfbfbf" points="590.5,-0.5 590.5,-19.5 631.5,-19.5 631.5,-0.5 590.5,-0.5"/>
<text text-anchor="middle" x="611" y="-7.5" font-family="Helvetica,sans-Serif" font-size="10.00">string</text>
</g>
<!-- Node17&#45;&gt;Node18 -->
<g id="edge24" class="edge"><title>Node17&#45;&gt;Node18</title>
<path fill="none" stroke="midnightblue" d="M611,-56.083C611,-49.0059 611,-38.8611 611,-29.9865"/>
<polygon fill="midnightblue" stroke="midnightblue" points="614.5,-29.751 611,-19.7511 607.5,-29.7511 614.5,-29.751"/>
</g>
<!-- Node20&#45;&gt;Node6 -->
<g id="edge28" class="edge"><title>Node20&#45;&gt;Node6</title>
<path fill="none" stroke="midnightblue" d="M119.688,-224.35C105.577,-203.866 74.2153,-151.181 94,-112 100.807,-98.5199 113.768,-88.083 125.998,-80.6696"/>
<polygon fill="midnightblue" stroke="midnightblue" points="128.07,-83.5214 135.094,-75.5896 124.657,-77.4099 128.07,-83.5214"/>
</g>
<!-- Node20&#45;&gt;Node12 -->
<g id="edge29" class="edge"><title>Node20&#45;&gt;Node12</title>
<path fill="none" stroke="midnightblue" d="M135.64,-224.324C144.51,-216.341 157.875,-204.313 168.608,-194.653"/>
<polygon fill="midnightblue" stroke="midnightblue" points="171.093,-197.125 176.185,-187.834 166.41,-191.922 171.093,-197.125"/>
</g>
<!-- Node21&#45;&gt;Node6 -->
<g id="edge31" class="edge"><title>Node21&#45;&gt;Node6</title>
<path fill="none" stroke="midnightblue" d="M62.7652,-280.449C60.5381,-271.453 57.2718,-256.844 56,-244 50.0813,-184.227 49.7869,-160.661 85,-112 94.9095,-98.306 110.382,-87.7296 124.264,-80.2816"/>
<polygon fill="midnightblue" stroke="midnightblue" points="126.167,-83.2422 133.532,-75.6252 123.025,-76.9873 126.167,-83.2422"/>
</g>
<!-- Node21&#45;&gt;Node20 -->
<g id="edge32" class="edge"><title>Node21&#45;&gt;Node20</title>
<path fill="none" stroke="midnightblue" d="M74.8007,-280.324C83.8181,-272.341 97.406,-260.313 108.318,-250.653"/>
<polygon fill="midnightblue" stroke="midnightblue" points="110.853,-253.083 116.021,-243.834 106.213,-247.842 110.853,-253.083"/>
</g>
<!-- Node23 -->
<g id="node24" class="node"><title>Node23</title>
<g id="a_node24"><a xlink:href="GTRMixtureProfileProcess_8h.html" target="_top" xlink:title="GTRMixtureProfileProcess.h">
<polygon fill="none" stroke="black" points="148,-336.5 148,-355.5 290,-355.5 290,-336.5 148,-336.5"/>
<text text-anchor="middle" x="219" y="-343.5" font-family="Helvetica,sans-Serif" font-size="10.00">GTRMixtureProfileProcess.h</text>
</a>
</g>
</g>
<!-- Node22&#45;&gt;Node23 -->
<g id="edge34" class="edge"><title>Node22&#45;&gt;Node23</title>
<path fill="none" stroke="midnightblue" d="M219,-392.399C219,-384.466 219,-374.458 219,-365.858"/>
<polygon fill="midnightblue" stroke="midnightblue" points="222.5,-365.658 219,-355.658 215.5,-365.658 222.5,-365.658"/>
</g>
<!-- Node26 -->
<g id="node27" class="node"><title>Node26</title>
<g id="a_node27"><a xlink:href="ExpoConjugateGTRProfileProcess_8h.html" target="_top" xlink:title="ExpoConjugateGTRProfileProcess.h">
<polygon fill="none" stroke="black" points="308,-336.5 308,-355.5 484,-355.5 484,-336.5 308,-336.5"/>
<text text-anchor="middle" x="396" y="-343.5" font-family="Helvetica,sans-Serif" font-size="10.00">ExpoConjugateGTRProfileProcess.h</text>
</a>
</g>
</g>
<!-- Node22&#45;&gt;Node26 -->
<g id="edge41" class="edge"><title>Node22&#45;&gt;Node26</title>
<path fill="none" stroke="midnightblue" d="M260.947,-392.399C291.398,-382.163 332.13,-368.47 360.873,-358.808"/>
<polygon fill="midnightblue" stroke="midnightblue" points="362.14,-362.075 370.503,-355.571 359.909,-355.44 362.14,-362.075"/>
</g>
<!-- Node23&#45;&gt;Node2 -->
<g id="edge40" class="edge"><title>Node23&#45;&gt;Node2</title>
<path fill="none" stroke="midnightblue" d="M218.174,-336.083C217.519,-329.006 216.58,-318.861 215.758,-309.986"/>
<polygon fill="midnightblue" stroke="midnightblue" points="219.217,-309.386 214.81,-299.751 212.247,-310.031 219.217,-309.386"/>
</g>
<!-- Node24 -->
<g id="node25" class="node"><title>Node24</title>
<g id="a_node25"><a xlink:href="GTRProfileProcess_8h.html" target="_top" xlink:title="GTRProfileProcess.h">
<polygon fill="none" stroke="black" points="317,-280.5 317,-299.5 427,-299.5 427,-280.5 317,-280.5"/>
<text text-anchor="middle" x="372" y="-287.5" font-family="Helvetica,sans-Serif" font-size="10.00">GTRProfileProcess.h</text>
</a>
</g>
</g>
<!-- Node23&#45;&gt;Node24 -->
<g id="edge35" class="edge"><title>Node23&#45;&gt;Node24</title>
<path fill="none" stroke="midnightblue" d="M243.243,-336.444C268.871,-327.399 309.485,-313.064 338.238,-302.916"/>
<polygon fill="midnightblue" stroke="midnightblue" points="339.605,-306.145 347.87,-299.516 337.275,-299.544 339.605,-306.145"/>
</g>
<!-- Node24&#45;&gt;Node3 -->
<g id="edge39" class="edge"><title>Node24&#45;&gt;Node3</title>
<path fill="none" stroke="midnightblue" d="M354.487,-280.324C336.928,-271.625 309.669,-258.12 289.469,-248.113"/>
<polygon fill="midnightblue" stroke="midnightblue" points="290.984,-244.958 280.469,-243.655 287.876,-251.23 290.984,-244.958"/>
</g>
<!-- Node25 -->
<g id="node26" class="node"><title>Node25</title>
<g id="a_node26"><a xlink:href="GTRSubMatrix_8h.html" target="_top" xlink:title="GTRSubMatrix.h">
<polygon fill="none" stroke="black" points="339,-224.5 339,-243.5 429,-243.5 429,-224.5 339,-224.5"/>
<text text-anchor="middle" x="384" y="-231.5" font-family="Helvetica,sans-Serif" font-size="10.00">GTRSubMatrix.h</text>
</a>
</g>
</g>
<!-- Node24&#45;&gt;Node25 -->
<g id="edge36" class="edge"><title>Node24&#45;&gt;Node25</title>
<path fill="none" stroke="midnightblue" d="M373.982,-280.083C375.572,-272.927 377.859,-262.635 379.846,-253.691"/>
<polygon fill="midnightblue" stroke="midnightblue" points="383.303,-254.272 382.055,-243.751 376.469,-252.754 383.303,-254.272"/>
</g>
<!-- Node25&#45;&gt;Node4 -->
<g id="edge38" class="edge"><title>Node25&#45;&gt;Node4</title>
<path fill="none" stroke="midnightblue" d="M378.22,-224.083C373.328,-216.534 366.173,-205.495 360.167,-196.23"/>
<polygon fill="midnightblue" stroke="midnightblue" points="363.048,-194.239 354.672,-187.751 357.174,-198.046 363.048,-194.239"/>
</g>
<!-- Node25&#45;&gt;Node17 -->
<g id="edge37" class="edge"><title>Node25&#45;&gt;Node17</title>
<path fill="none" stroke="midnightblue" d="M429.437,-224.709C479.444,-213.075 558.258,-186.849 600,-132 610.063,-118.777 612.25,-99.6454 612.258,-85.5605"/>
<polygon fill="midnightblue" stroke="midnightblue" points="615.755,-85.4265 611.906,-75.5559 608.76,-85.6729 615.755,-85.4265"/>
</g>
<!-- Node26&#45;&gt;Node24 -->
<g id="edge42" class="edge"><title>Node26&#45;&gt;Node24</title>
<path fill="none" stroke="midnightblue" d="M392.037,-336.083C388.787,-328.77 384.081,-318.181 380.046,-309.103"/>
<polygon fill="midnightblue" stroke="midnightblue" points="383.149,-307.468 375.889,-299.751 376.752,-310.311 383.149,-307.468"/>
</g>
</g>
</svg>
