<?xml version="1.0" encoding="UTF-8" standalone="no"?>
<!DOCTYPE svg PUBLIC "-//W3C//DTD SVG 1.1//EN"
 "http://www.w3.org/Graphics/SVG/1.1/DTD/svg11.dtd">
<!-- Generated by graphviz version 2.38.0 (20140413.2041)
 -->
<!-- Title: FiniteProfileProcess.h Pages: 1 -->
<svg width="349pt" height="308pt"
 viewBox="0.00 0.00 348.50 308.00" xmlns="http://www.w3.org/2000/svg" xmlns:xlink="http://www.w3.org/1999/xlink">
<g id="graph0" class="graph" transform="scale(1 1) rotate(0) translate(4 304)">
<title>FiniteProfileProcess.h</title>
<!-- Node0 -->
<g id="node1" class="node"><title>Node0</title>
<polygon fill="#bfbfbf" stroke="black" points="114.5,-280.5 114.5,-299.5 227.5,-299.5 227.5,-280.5 114.5,-280.5"/>
<text text-anchor="middle" x="171" y="-287.5" font-family="Helvetica,sans-Serif" font-size="10.00">FiniteProfileProcess.h</text>
</g>
<!-- Node1 -->
<g id="node2" class="node"><title>Node1</title>
<polygon fill="none" stroke="#bfbfbf" points="107,-168.5 107,-187.5 151,-187.5 151,-168.5 107,-168.5"/>
<text text-anchor="middle" x="129" y="-175.5" font-family="Helvetica,sans-Serif" font-size="10.00">cmath</text>
</g>
<!-- Node0&#45;&gt;Node1 -->
<g id="edge1" class="edge"><title>Node0&#45;&gt;Node1</title>
<path fill="none" stroke="midnightblue" d="M165.336,-280.361C159.758,-271.532 151.323,-257.272 146,-244 139.955,-228.928 135.457,-211.026 132.611,-197.829"/>
<polygon fill="midnightblue" stroke="midnightblue" points="135.961,-196.735 130.539,-187.632 129.101,-198.129 135.961,-196.735"/>
</g>
<!-- Node2 -->
<g id="node3" class="node"><title>Node2</title>
<g id="a_node3"><a xlink:href="MixtureProfileProcess_8h.html" target="_top" xlink:title="MixtureProfileProcess.h">
<polygon fill="none" stroke="black" points="155.5,-224.5 155.5,-243.5 276.5,-243.5 276.5,-224.5 155.5,-224.5"/>
<text text-anchor="middle" x="216" y="-231.5" font-family="Helvetica,sans-Serif" font-size="10.00">MixtureProfileProcess.h</text>
</a>
</g>
</g>
<!-- Node0&#45;&gt;Node2 -->
<g id="edge2" class="edge"><title>Node0&#45;&gt;Node2</title>
<path fill="none" stroke="midnightblue" d="M178.431,-280.083C184.853,-272.377 194.306,-261.033 202.122,-251.653"/>
<polygon fill="midnightblue" stroke="midnightblue" points="204.994,-253.674 208.707,-243.751 199.617,-249.193 204.994,-253.674"/>
</g>
<!-- Node2&#45;&gt;Node1 -->
<g id="edge3" class="edge"><title>Node2&#45;&gt;Node1</title>
<path fill="none" stroke="midnightblue" d="M202.022,-224.324C188.45,-215.9 167.62,-202.971 151.675,-193.074"/>
<polygon fill="midnightblue" stroke="midnightblue" points="153.286,-189.954 142.943,-187.655 149.594,-195.902 153.286,-189.954"/>
</g>
<!-- Node3 -->
<g id="node4" class="node"><title>Node3</title>
<g id="a_node4"><a xlink:href="ProfileProcess_8h.html" target="_top" xlink:title="ProfileProcess.h">
<polygon fill="none" stroke="black" points="171.5,-168.5 171.5,-187.5 260.5,-187.5 260.5,-168.5 171.5,-168.5"/>
<text text-anchor="middle" x="216" y="-175.5" font-family="Helvetica,sans-Serif" font-size="10.00">ProfileProcess.h</text>
</a>
</g>
</g>
<!-- Node2&#45;&gt;Node3 -->
<g id="edge4" class="edge"><title>Node2&#45;&gt;Node3</title>
<path fill="none" stroke="midnightblue" d="M216,-224.083C216,-217.006 216,-206.861 216,-197.986"/>
<polygon fill="midnightblue" stroke="midnightblue" points="219.5,-197.751 216,-187.751 212.5,-197.751 219.5,-197.751"/>
</g>
<!-- Node4 -->
<g id="node5" class="node"><title>Node4</title>
<g id="a_node5"><a xlink:href="Chrono_8h.html" target="_top" xlink:title="Chrono.h">
<polygon fill="none" stroke="black" points="99,-56.5 99,-75.5 155,-75.5 155,-56.5 99,-56.5"/>
<text text-anchor="middle" x="127" y="-63.5" font-family="Helvetica,sans-Serif" font-size="10.00">Chrono.h</text>
</a>
</g>
</g>
<!-- Node3&#45;&gt;Node4 -->
<g id="edge5" class="edge"><title>Node3&#45;&gt;Node4</title>
<path fill="none" stroke="midnightblue" d="M205.608,-168.315C195.606,-159.677 180.367,-145.761 169,-132 156.607,-116.996 144.792,-98.1624 136.869,-84.6357"/>
<polygon fill="midnightblue" stroke="midnightblue" points="139.845,-82.7894 131.835,-75.8548 133.772,-86.2711 139.845,-82.7894"/>
</g>
<!-- Node7 -->
<g id="node8" class="node"><title>Node7</title>
<polygon fill="none" stroke="#bfbfbf" points="203,-0.5 203,-19.5 257,-19.5 257,-0.5 203,-0.5"/>
<text text-anchor="middle" x="230" y="-7.5" font-family="Helvetica,sans-Serif" font-size="10.00">iostream</text>
</g>
<!-- Node3&#45;&gt;Node7 -->
<g id="edge15" class="edge"><title>Node3&#45;&gt;Node7</title>
<path fill="none" stroke="midnightblue" d="M212.4,-168.222C208.944,-159.285 203.967,-144.942 202,-132 196.925,-98.6056 192.721,-88.4781 202,-56 204.902,-45.8435 210.832,-35.747 216.49,-27.6991"/>
<polygon fill="midnightblue" stroke="midnightblue" points="219.376,-29.6853 222.588,-19.5891 213.781,-25.4786 219.376,-29.6853"/>
</g>
<!-- Node9 -->
<g id="node10" class="node"><title>Node9</title>
<g id="a_node10"><a xlink:href="StateSpace_8h.html" target="_top" xlink:title="StateSpace.h">
<polygon fill="none" stroke="black" points="211,-112.5 211,-131.5 287,-131.5 287,-112.5 211,-112.5"/>
<text text-anchor="middle" x="249" y="-119.5" font-family="Helvetica,sans-Serif" font-size="10.00">StateSpace.h</text>
</a>
</g>
</g>
<!-- Node3&#45;&gt;Node9 -->
<g id="edge10" class="edge"><title>Node3&#45;&gt;Node9</title>
<path fill="none" stroke="midnightblue" d="M221.449,-168.083C226.014,-160.613 232.668,-149.724 238.293,-140.52"/>
<polygon fill="midnightblue" stroke="midnightblue" points="241.424,-142.109 243.652,-131.751 235.451,-138.459 241.424,-142.109"/>
</g>
<!-- Node12 -->
<g id="node13" class="node"><title>Node12</title>
<polygon fill="none" stroke="#bfbfbf" points="305.5,-112.5 305.5,-131.5 340.5,-131.5 340.5,-112.5 305.5,-112.5"/>
<text text-anchor="middle" x="323" y="-119.5" font-family="Helvetica,sans-Serif" font-size="10.00">map</text>
</g>
<!-- Node3&#45;&gt;Node12 -->
<g id="edge16" class="edge"><title>Node3&#45;&gt;Node12</title>
<path fill="none" stroke="midnightblue" d="M233.191,-168.324C250.351,-159.664 276.946,-146.242 296.747,-136.249"/>
<polygon fill="midnightblue" stroke="midnightblue" points="298.501,-139.285 305.851,-131.655 295.347,-133.035 298.501,-139.285"/>
</g>
<!-- Node5 -->
<g id="node6" class="node"><title>Node5</title>
<polygon fill="none" stroke="#bfbfbf" points="80.5,-0.5 80.5,-19.5 121.5,-19.5 121.5,-0.5 80.5,-0.5"/>
<text text-anchor="middle" x="101" y="-7.5" font-family="Helvetica,sans-Serif" font-size="10.00">ctime</text>
</g>
<!-- Node4&#45;&gt;Node5 -->
<g id="edge6" class="edge"><title>Node4&#45;&gt;Node5</title>
<path fill="none" stroke="midnightblue" d="M122.707,-56.083C119.148,-48.6913 113.978,-37.9533 109.576,-28.8111"/>
<polygon fill="midnightblue" stroke="midnightblue" points="112.705,-27.2427 105.213,-19.7511 106.398,-30.2795 112.705,-27.2427"/>
</g>
<!-- Node6 -->
<g id="node7" class="node"><title>Node6</title>
<polygon fill="none" stroke="#bfbfbf" points="0,-0.5 0,-19.5 62,-19.5 62,-0.5 0,-0.5"/>
<text text-anchor="middle" x="31" y="-7.5" font-family="Helvetica,sans-Serif" font-size="10.00">sys/time.h</text>
</g>
<!-- Node4&#45;&gt;Node6 -->
<g id="edge7" class="edge"><title>Node4&#45;&gt;Node6</title>
<path fill="none" stroke="midnightblue" d="M111.576,-56.324C96.4605,-47.8215 73.1846,-34.7288 55.5288,-24.7975"/>
<polygon fill="midnightblue" stroke="midnightblue" points="56.8175,-21.5066 46.3858,-19.6545 53.3856,-27.6077 56.8175,-21.5066"/>
</g>
<!-- Node4&#45;&gt;Node7 -->
<g id="edge8" class="edge"><title>Node4&#45;&gt;Node7</title>
<path fill="none" stroke="midnightblue" d="M143.549,-56.324C159.992,-47.7034 185.435,-34.3643 204.468,-24.3855"/>
<polygon fill="midnightblue" stroke="midnightblue" points="206.261,-27.3977 213.492,-19.6545 203.011,-21.198 206.261,-27.3977"/>
</g>
<!-- Node8 -->
<g id="node9" class="node"><title>Node8</title>
<polygon fill="none" stroke="#bfbfbf" points="139.5,-0.5 139.5,-19.5 184.5,-19.5 184.5,-0.5 139.5,-0.5"/>
<text text-anchor="middle" x="162" y="-7.5" font-family="Helvetica,sans-Serif" font-size="10.00">cstdlib</text>
</g>
<!-- Node4&#45;&gt;Node8 -->
<g id="edge9" class="edge"><title>Node4&#45;&gt;Node8</title>
<path fill="none" stroke="midnightblue" d="M132.78,-56.083C137.672,-48.5341 144.827,-37.4948 150.833,-28.2298"/>
<polygon fill="midnightblue" stroke="midnightblue" points="153.826,-30.0463 156.328,-19.7511 147.952,-26.239 153.826,-30.0463"/>
</g>
<!-- Node10 -->
<g id="node11" class="node"><title>Node10</title>
<g id="a_node11"><a xlink:href="BiologicalSequences_8h.html" target="_top" xlink:title="BiologicalSequences.h">
<polygon fill="none" stroke="black" points="211,-56.5 211,-75.5 327,-75.5 327,-56.5 211,-56.5"/>
<text text-anchor="middle" x="269" y="-63.5" font-family="Helvetica,sans-Serif" font-size="10.00">BiologicalSequences.h</text>
</a>
</g>
</g>
<!-- Node9&#45;&gt;Node10 -->
<g id="edge11" class="edge"><title>Node9&#45;&gt;Node10</title>
<path fill="none" stroke="midnightblue" d="M252.303,-112.083C254.982,-104.849 258.849,-94.4087 262.186,-85.3968"/>
<polygon fill="midnightblue" stroke="midnightblue" points="265.568,-86.3442 265.759,-75.7511 259.004,-83.9129 265.568,-86.3442"/>
</g>
<!-- Node10&#45;&gt;Node7 -->
<g id="edge13" class="edge"><title>Node10&#45;&gt;Node7</title>
<path fill="none" stroke="midnightblue" d="M262.56,-56.083C257.051,-48.4554 248.969,-37.2645 242.235,-27.9408"/>
<polygon fill="midnightblue" stroke="midnightblue" points="245.013,-25.8087 236.32,-19.7511 239.338,-29.9071 245.013,-25.8087"/>
</g>
<!-- Node10&#45;&gt;Node8 -->
<g id="edge12" class="edge"><title>Node10&#45;&gt;Node8</title>
<path fill="none" stroke="midnightblue" d="M251.809,-56.324C234.649,-47.6641 208.054,-34.2424 188.253,-24.249"/>
<polygon fill="midnightblue" stroke="midnightblue" points="189.653,-21.0354 179.149,-19.6545 186.499,-27.2847 189.653,-21.0354"/>
</g>
<!-- Node11 -->
<g id="node12" class="node"><title>Node11</title>
<polygon fill="none" stroke="#bfbfbf" points="275.5,-0.5 275.5,-19.5 316.5,-19.5 316.5,-0.5 275.5,-0.5"/>
<text text-anchor="middle" x="296" y="-7.5" font-family="Helvetica,sans-Serif" font-size="10.00">string</text>
</g>
<!-- Node10&#45;&gt;Node11 -->
<g id="edge14" class="edge"><title>Node10&#45;&gt;Node11</title>
<path fill="none" stroke="midnightblue" d="M273.459,-56.083C277.154,-48.6913 282.523,-37.9533 287.094,-28.8111"/>
<polygon fill="midnightblue" stroke="midnightblue" points="290.283,-30.2606 291.624,-19.7511 284.022,-27.1301 290.283,-30.2606"/>
</g>
</g>
</svg>
