<?xml version="1.0" encoding="UTF-8" standalone="no"?>
<!DOCTYPE svg PUBLIC "-//W3C//DTD SVG 1.1//EN"
 "http://www.w3.org/Graphics/SVG/1.1/DTD/svg11.dtd">
<!-- Generated by graphviz version 2.38.0 (20140413.2041)
 -->
<!-- Title: FiniteProfileProcess.cpp Pages: 1 -->
<svg width="498pt" height="364pt"
 viewBox="0.00 0.00 498.00 364.00" xmlns="http://www.w3.org/2000/svg" xmlns:xlink="http://www.w3.org/1999/xlink">
<g id="graph0" class="graph" transform="scale(1 1) rotate(0) translate(4 360)">
<title>FiniteProfileProcess.cpp</title>
<!-- Node0 -->
<g id="node1" class="node"><title>Node0</title>
<polygon fill="#bfbfbf" stroke="black" points="65.5,-336.5 65.5,-355.5 188.5,-355.5 188.5,-336.5 65.5,-336.5"/>
<text text-anchor="middle" x="127" y="-343.5" font-family="Helvetica,sans-Serif" font-size="10.00">FiniteProfileProcess.cpp</text>
</g>
<!-- Node1 -->
<g id="node2" class="node"><title>Node1</title>
<g id="a_node2"><a xlink:href="BiologicalSequences_8h.html" target="_top" xlink:title="BiologicalSequences.h">
<polygon fill="none" stroke="black" points="0,-56.5 0,-75.5 116,-75.5 116,-56.5 0,-56.5"/>
<text text-anchor="middle" x="58" y="-63.5" font-family="Helvetica,sans-Serif" font-size="10.00">BiologicalSequences.h</text>
</a>
</g>
</g>
<!-- Node0&#45;&gt;Node1 -->
<g id="edge1" class="edge"><title>Node0&#45;&gt;Node1</title>
<path fill="none" stroke="midnightblue" d="M106.174,-336.473C73.0345,-321.358 12,-286.527 12,-235 12,-235 12,-235 12,-177 12,-141.817 32.2776,-104.863 45.9065,-83.9988"/>
<polygon fill="midnightblue" stroke="midnightblue" points="48.8814,-85.8481 51.6039,-75.609 43.0905,-81.9156 48.8814,-85.8481"/>
</g>
<!-- Node5 -->
<g id="node6" class="node"><title>Node5</title>
<g id="a_node6"><a xlink:href="FiniteProfileProcess_8h.html" target="_top" xlink:title="FiniteProfileProcess.h">
<polygon fill="none" stroke="black" points="70.5,-280.5 70.5,-299.5 183.5,-299.5 183.5,-280.5 70.5,-280.5"/>
<text text-anchor="middle" x="127" y="-287.5" font-family="Helvetica,sans-Serif" font-size="10.00">FiniteProfileProcess.h</text>
</a>
</g>
</g>
<!-- Node0&#45;&gt;Node5 -->
<g id="edge5" class="edge"><title>Node0&#45;&gt;Node5</title>
<path fill="none" stroke="midnightblue" d="M127,-336.083C127,-329.006 127,-318.861 127,-309.986"/>
<polygon fill="midnightblue" stroke="midnightblue" points="130.5,-309.751 127,-299.751 123.5,-309.751 130.5,-309.751"/>
</g>
<!-- Node14 -->
<g id="node15" class="node"><title>Node14</title>
<g id="a_node15"><a xlink:href="Random_8h.html" target="_top" xlink:title="Random.h">
<polygon fill="none" stroke="black" points="258,-224.5 258,-243.5 320,-243.5 320,-224.5 258,-224.5"/>
<text text-anchor="middle" x="289" y="-231.5" font-family="Helvetica,sans-Serif" font-size="10.00">Random.h</text>
</a>
</g>
</g>
<!-- Node0&#45;&gt;Node14 -->
<g id="edge19" class="edge"><title>Node0&#45;&gt;Node14</title>
<path fill="none" stroke="midnightblue" d="M139.712,-336.368C167.511,-317.492 233.942,-272.385 268.033,-249.237"/>
<polygon fill="midnightblue" stroke="midnightblue" points="270.04,-252.105 276.347,-243.591 266.108,-246.313 270.04,-252.105"/>
</g>
<!-- Node2 -->
<g id="node3" class="node"><title>Node2</title>
<polygon fill="none" stroke="#bfbfbf" points="324.5,-0.5 324.5,-19.5 369.5,-19.5 369.5,-0.5 324.5,-0.5"/>
<text text-anchor="middle" x="347" y="-7.5" font-family="Helvetica,sans-Serif" font-size="10.00">cstdlib</text>
</g>
<!-- Node1&#45;&gt;Node2 -->
<g id="edge2" class="edge"><title>Node1&#45;&gt;Node2</title>
<path fill="none" stroke="midnightblue" d="M116.002,-56.5547C166.062,-48.8782 240.472,-36.5451 314.395,-19.9386"/>
<polygon fill="midnightblue" stroke="midnightblue" points="315.372,-23.3059 324.347,-17.676 313.82,-16.4801 315.372,-23.3059"/>
</g>
<!-- Node3 -->
<g id="node4" class="node"><title>Node3</title>
<polygon fill="none" stroke="#bfbfbf" points="113,-0.5 113,-19.5 167,-19.5 167,-0.5 113,-0.5"/>
<text text-anchor="middle" x="140" y="-7.5" font-family="Helvetica,sans-Serif" font-size="10.00">iostream</text>
</g>
<!-- Node1&#45;&gt;Node3 -->
<g id="edge3" class="edge"><title>Node1&#45;&gt;Node3</title>
<path fill="none" stroke="midnightblue" d="M71.1747,-56.324C83.8468,-47.979 103.233,-35.2122 118.206,-25.3524"/>
<polygon fill="midnightblue" stroke="midnightblue" points="120.431,-28.0776 126.858,-19.6545 116.581,-22.2313 120.431,-28.0776"/>
</g>
<!-- Node4 -->
<g id="node5" class="node"><title>Node4</title>
<polygon fill="none" stroke="#bfbfbf" points="37.5,-0.5 37.5,-19.5 78.5,-19.5 78.5,-0.5 37.5,-0.5"/>
<text text-anchor="middle" x="58" y="-7.5" font-family="Helvetica,sans-Serif" font-size="10.00">string</text>
</g>
<!-- Node1&#45;&gt;Node4 -->
<g id="edge4" class="edge"><title>Node1&#45;&gt;Node4</title>
<path fill="none" stroke="midnightblue" d="M58,-56.083C58,-49.0059 58,-38.8611 58,-29.9865"/>
<polygon fill="midnightblue" stroke="midnightblue" points="61.5001,-29.751 58,-19.7511 54.5001,-29.7511 61.5001,-29.751"/>
</g>
<!-- Node6 -->
<g id="node7" class="node"><title>Node6</title>
<polygon fill="none" stroke="#bfbfbf" points="164,-168.5 164,-187.5 208,-187.5 208,-168.5 164,-168.5"/>
<text text-anchor="middle" x="186" y="-175.5" font-family="Helvetica,sans-Serif" font-size="10.00">cmath</text>
</g>
<!-- Node5&#45;&gt;Node6 -->
<g id="edge6" class="edge"><title>Node5&#45;&gt;Node6</title>
<path fill="none" stroke="midnightblue" d="M138.544,-280.292C148.643,-272.049 162.926,-258.763 171,-244 178.902,-229.552 182.653,-211.102 184.427,-197.552"/>
<polygon fill="midnightblue" stroke="midnightblue" points="187.917,-197.834 185.5,-187.518 180.957,-197.089 187.917,-197.834"/>
</g>
<!-- Node7 -->
<g id="node8" class="node"><title>Node7</title>
<g id="a_node8"><a xlink:href="MixtureProfileProcess_8h.html" target="_top" xlink:title="MixtureProfileProcess.h">
<polygon fill="none" stroke="black" points="41.5,-224.5 41.5,-243.5 162.5,-243.5 162.5,-224.5 41.5,-224.5"/>
<text text-anchor="middle" x="102" y="-231.5" font-family="Helvetica,sans-Serif" font-size="10.00">MixtureProfileProcess.h</text>
</a>
</g>
</g>
<!-- Node5&#45;&gt;Node7 -->
<g id="edge7" class="edge"><title>Node5&#45;&gt;Node7</title>
<path fill="none" stroke="midnightblue" d="M122.872,-280.083C119.486,-272.77 114.584,-262.181 110.381,-253.103"/>
<polygon fill="midnightblue" stroke="midnightblue" points="113.429,-251.355 106.051,-243.751 107.077,-254.296 113.429,-251.355"/>
</g>
<!-- Node7&#45;&gt;Node6 -->
<g id="edge8" class="edge"><title>Node7&#45;&gt;Node6</title>
<path fill="none" stroke="midnightblue" d="M115.496,-224.324C128.6,-215.9 148.712,-202.971 164.107,-193.074"/>
<polygon fill="midnightblue" stroke="midnightblue" points="166.018,-196.006 172.537,-187.655 162.233,-190.118 166.018,-196.006"/>
</g>
<!-- Node8 -->
<g id="node9" class="node"><title>Node8</title>
<g id="a_node9"><a xlink:href="ProfileProcess_8h.html" target="_top" xlink:title="ProfileProcess.h">
<polygon fill="none" stroke="black" points="57.5,-168.5 57.5,-187.5 146.5,-187.5 146.5,-168.5 57.5,-168.5"/>
<text text-anchor="middle" x="102" y="-175.5" font-family="Helvetica,sans-Serif" font-size="10.00">ProfileProcess.h</text>
</a>
</g>
</g>
<!-- Node7&#45;&gt;Node8 -->
<g id="edge9" class="edge"><title>Node7&#45;&gt;Node8</title>
<path fill="none" stroke="midnightblue" d="M102,-224.083C102,-217.006 102,-206.861 102,-197.986"/>
<polygon fill="midnightblue" stroke="midnightblue" points="105.5,-197.751 102,-187.751 98.5001,-197.751 105.5,-197.751"/>
</g>
<!-- Node8&#45;&gt;Node3 -->
<g id="edge17" class="edge"><title>Node8&#45;&gt;Node3</title>
<path fill="none" stroke="midnightblue" d="M107.539,-168.423C112.925,-159.643 120.879,-145.42 125,-132 135.733,-97.0467 138.811,-54.1737 139.678,-29.982"/>
<polygon fill="midnightblue" stroke="midnightblue" points="143.184,-29.8126 139.95,-19.7233 136.186,-29.6271 143.184,-29.8126"/>
</g>
<!-- Node9 -->
<g id="node10" class="node"><title>Node9</title>
<g id="a_node10"><a xlink:href="Chrono_8h.html" target="_top" xlink:title="Chrono.h">
<polygon fill="none" stroke="black" points="258,-56.5 258,-75.5 314,-75.5 314,-56.5 258,-56.5"/>
<text text-anchor="middle" x="286" y="-63.5" font-family="Helvetica,sans-Serif" font-size="10.00">Chrono.h</text>
</a>
</g>
</g>
<!-- Node8&#45;&gt;Node9 -->
<g id="edge10" class="edge"><title>Node8&#45;&gt;Node9</title>
<path fill="none" stroke="midnightblue" d="M132.497,-168.387C156.332,-160.867 189.715,-148.559 216,-132 237.583,-118.403 258.5,-97.6805 271.76,-83.303"/>
<polygon fill="midnightblue" stroke="midnightblue" points="274.54,-85.4464 278.63,-75.6729 269.338,-80.7627 274.54,-85.4464"/>
</g>
<!-- Node12 -->
<g id="node13" class="node"><title>Node12</title>
<g id="a_node13"><a xlink:href="StateSpace_8h.html" target="_top" xlink:title="StateSpace.h">
<polygon fill="none" stroke="black" points="40,-112.5 40,-131.5 116,-131.5 116,-112.5 40,-112.5"/>
<text text-anchor="middle" x="78" y="-119.5" font-family="Helvetica,sans-Serif" font-size="10.00">StateSpace.h</text>
</a>
</g>
</g>
<!-- Node8&#45;&gt;Node12 -->
<g id="edge15" class="edge"><title>Node8&#45;&gt;Node12</title>
<path fill="none" stroke="midnightblue" d="M98.0369,-168.083C94.7867,-160.77 90.0806,-150.181 86.046,-141.103"/>
<polygon fill="midnightblue" stroke="midnightblue" points="89.1492,-139.468 81.8894,-131.751 82.7525,-142.311 89.1492,-139.468"/>
</g>
<!-- Node13 -->
<g id="node14" class="node"><title>Node13</title>
<polygon fill="none" stroke="#bfbfbf" points="172.5,-112.5 172.5,-131.5 207.5,-131.5 207.5,-112.5 172.5,-112.5"/>
<text text-anchor="middle" x="190" y="-119.5" font-family="Helvetica,sans-Serif" font-size="10.00">map</text>
</g>
<!-- Node8&#45;&gt;Node13 -->
<g id="edge18" class="edge"><title>Node8&#45;&gt;Node13</title>
<path fill="none" stroke="midnightblue" d="M116.139,-168.324C129.866,-159.9 150.936,-146.971 167.064,-137.074"/>
<polygon fill="midnightblue" stroke="midnightblue" points="169.204,-139.868 175.896,-131.655 165.543,-133.902 169.204,-139.868"/>
</g>
<!-- Node9&#45;&gt;Node2 -->
<g id="edge14" class="edge"><title>Node9&#45;&gt;Node2</title>
<path fill="none" stroke="midnightblue" d="M295.801,-56.324C304.818,-48.3414 318.406,-36.3128 329.318,-26.6529"/>
<polygon fill="midnightblue" stroke="midnightblue" points="331.853,-29.083 337.021,-19.8339 327.213,-23.8416 331.853,-29.083"/>
</g>
<!-- Node9&#45;&gt;Node3 -->
<g id="edge13" class="edge"><title>Node9&#45;&gt;Node3</title>
<path fill="none" stroke="midnightblue" d="M262.866,-56.4435C238.518,-47.4381 199.993,-33.1891 172.577,-23.049"/>
<polygon fill="midnightblue" stroke="midnightblue" points="173.619,-19.7028 163.026,-19.5164 171.191,-26.2681 173.619,-19.7028"/>
</g>
<!-- Node10 -->
<g id="node11" class="node"><title>Node10</title>
<polygon fill="none" stroke="#bfbfbf" points="265.5,-0.5 265.5,-19.5 306.5,-19.5 306.5,-0.5 265.5,-0.5"/>
<text text-anchor="middle" x="286" y="-7.5" font-family="Helvetica,sans-Serif" font-size="10.00">ctime</text>
</g>
<!-- Node9&#45;&gt;Node10 -->
<g id="edge11" class="edge"><title>Node9&#45;&gt;Node10</title>
<path fill="none" stroke="midnightblue" d="M286,-56.083C286,-49.0059 286,-38.8611 286,-29.9865"/>
<polygon fill="midnightblue" stroke="midnightblue" points="289.5,-29.751 286,-19.7511 282.5,-29.7511 289.5,-29.751"/>
</g>
<!-- Node11 -->
<g id="node12" class="node"><title>Node11</title>
<polygon fill="none" stroke="#bfbfbf" points="185,-0.5 185,-19.5 247,-19.5 247,-0.5 185,-0.5"/>
<text text-anchor="middle" x="216" y="-7.5" font-family="Helvetica,sans-Serif" font-size="10.00">sys/time.h</text>
</g>
<!-- Node9&#45;&gt;Node11 -->
<g id="edge12" class="edge"><title>Node9&#45;&gt;Node11</title>
<path fill="none" stroke="midnightblue" d="M274.753,-56.324C264.203,-48.1849 248.199,-35.8395 235.558,-26.0874"/>
<polygon fill="midnightblue" stroke="midnightblue" points="237.507,-23.1707 227.451,-19.8339 233.231,-28.7132 237.507,-23.1707"/>
</g>
<!-- Node12&#45;&gt;Node1 -->
<g id="edge16" class="edge"><title>Node12&#45;&gt;Node1</title>
<path fill="none" stroke="midnightblue" d="M74.6974,-112.083C72.018,-104.849 68.1514,-94.4087 64.8136,-85.3968"/>
<polygon fill="midnightblue" stroke="midnightblue" points="67.9965,-83.9129 61.2411,-75.7511 61.4322,-86.3442 67.9965,-83.9129"/>
</g>
<!-- Node14&#45;&gt;Node2 -->
<g id="edge21" class="edge"><title>Node14&#45;&gt;Node2</title>
<path fill="none" stroke="midnightblue" d="M297.847,-224.23C305.827,-215.744 317.18,-202.123 323,-188 345.408,-133.628 347.787,-62.6812 347.515,-29.5535"/>
<polygon fill="midnightblue" stroke="midnightblue" points="351.014,-29.4385 347.337,-19.5022 344.015,-29.5627 351.014,-29.4385"/>
</g>
<!-- Node14&#45;&gt;Node3 -->
<g id="edge22" class="edge"><title>Node14&#45;&gt;Node3</title>
<path fill="none" stroke="midnightblue" d="M281.756,-224.36C274.529,-215.53 263.33,-201.269 255,-188 234.814,-155.845 236.154,-144.175 216,-112 196.402,-80.7131 169.74,-46.929 153.763,-27.4417"/>
<polygon fill="midnightblue" stroke="midnightblue" points="156.309,-25.0281 147.237,-19.5544 150.915,-29.4903 156.309,-25.0281"/>
</g>
<!-- Node14&#45;&gt;Node6 -->
<g id="edge20" class="edge"><title>Node14&#45;&gt;Node6</title>
<path fill="none" stroke="midnightblue" d="M272.451,-224.324C256.008,-215.703 230.565,-202.364 211.532,-192.386"/>
<polygon fill="midnightblue" stroke="midnightblue" points="212.989,-189.198 202.508,-187.655 209.739,-195.398 212.989,-189.198"/>
</g>
<!-- Node15 -->
<g id="node16" class="node"><title>Node15</title>
<polygon fill="none" stroke="#bfbfbf" points="370,-168.5 370,-187.5 422,-187.5 422,-168.5 370,-168.5"/>
<text text-anchor="middle" x="396" y="-175.5" font-family="Helvetica,sans-Serif" font-size="10.00">sstream</text>
</g>
<!-- Node14&#45;&gt;Node15 -->
<g id="edge23" class="edge"><title>Node14&#45;&gt;Node15</title>
<path fill="none" stroke="midnightblue" d="M306.191,-224.324C323.351,-215.664 349.946,-202.242 369.747,-192.249"/>
<polygon fill="midnightblue" stroke="midnightblue" points="371.501,-195.285 378.851,-187.655 368.347,-189.035 371.501,-195.285"/>
</g>
<!-- Node16 -->
<g id="node17" class="node"><title>Node16</title>
<polygon fill="none" stroke="#bfbfbf" points="440,-168.5 440,-187.5 490,-187.5 490,-168.5 440,-168.5"/>
<text text-anchor="middle" x="465" y="-175.5" font-family="Helvetica,sans-Serif" font-size="10.00">iomanip</text>
</g>
<!-- Node14&#45;&gt;Node16 -->
<g id="edge24" class="edge"><title>Node14&#45;&gt;Node16</title>
<path fill="none" stroke="midnightblue" d="M316.888,-224.444C347.544,-215.038 396.845,-199.911 430.057,-189.721"/>
<polygon fill="midnightblue" stroke="midnightblue" points="431.276,-193.008 439.809,-186.729 429.222,-186.316 431.276,-193.008"/>
</g>
<!-- Node17 -->
<g id="node18" class="node"><title>Node17</title>
<polygon fill="none" stroke="#bfbfbf" points="264,-168.5 264,-187.5 314,-187.5 314,-168.5 264,-168.5"/>
<text text-anchor="middle" x="289" y="-175.5" font-family="Helvetica,sans-Serif" font-size="10.00">fstream</text>
</g>
<!-- Node14&#45;&gt;Node17 -->
<g id="edge25" class="edge"><title>Node14&#45;&gt;Node17</title>
<path fill="none" stroke="midnightblue" d="M289,-224.083C289,-217.006 289,-206.861 289,-197.986"/>
<polygon fill="midnightblue" stroke="midnightblue" points="292.5,-197.751 289,-187.751 285.5,-197.751 292.5,-197.751"/>
</g>
</g>
</svg>
