<?xml version="1.0" encoding="UTF-8" standalone="no"?>
<!DOCTYPE svg PUBLIC "-//W3C//DTD SVG 1.1//EN"
 "http://www.w3.org/Graphics/SVG/1.1/DTD/svg11.dtd">
<!-- Generated by graphviz version 2.38.0 (20140413.2041)
 -->
<!-- Title: GammaBranchProcess.h Pages: 1 -->
<svg width="370pt" height="252pt"
 viewBox="0.00 0.00 370.20 252.00" xmlns="http://www.w3.org/2000/svg" xmlns:xlink="http://www.w3.org/1999/xlink">
<g id="graph0" class="graph" transform="scale(1 1) rotate(0) translate(4 248)">
<title>GammaBranchProcess.h</title>
<!-- Node0 -->
<g id="node1" class="node"><title>Node0</title>
<polygon fill="#bfbfbf" stroke="black" points="214.697,-224.5 214.697,-243.5 340.697,-243.5 340.697,-224.5 214.697,-224.5"/>
<text text-anchor="middle" x="277.697" y="-231.5" font-family="Helvetica,sans-Serif" font-size="10.00">GammaBranchProcess.h</text>
</g>
<!-- Node1 -->
<g id="node2" class="node"><title>Node1</title>
<g id="a_node2"><a xlink:href="TaxonSet_8h.html" target="_top" xlink:title="TaxonSet.h">
<polygon fill="none" stroke="black" points="295.197,-56.5 295.197,-75.5 362.197,-75.5 362.197,-56.5 295.197,-56.5"/>
<text text-anchor="middle" x="328.697" y="-63.5" font-family="Helvetica,sans-Serif" font-size="10.00">TaxonSet.h</text>
</a>
</g>
</g>
<!-- Node0&#45;&gt;Node1 -->
<g id="edge1" class="edge"><title>Node0&#45;&gt;Node1</title>
<path fill="none" stroke="midnightblue" d="M280.439,-224.075C288.467,-197.945 312.042,-121.211 322.99,-85.577"/>
<polygon fill="midnightblue" stroke="midnightblue" points="326.473,-86.1551 326.065,-75.5681 319.782,-84.0992 326.473,-86.1551"/>
</g>
<!-- Node5 -->
<g id="node6" class="node"><title>Node5</title>
<g id="a_node6"><a xlink:href="BranchProcess_8h.html" target="_top" xlink:title="BranchProcess.h">
<polygon fill="none" stroke="black" points="188.697,-168.5 188.697,-187.5 280.697,-187.5 280.697,-168.5 188.697,-168.5"/>
<text text-anchor="middle" x="234.697" y="-175.5" font-family="Helvetica,sans-Serif" font-size="10.00">BranchProcess.h</text>
</a>
</g>
</g>
<!-- Node0&#45;&gt;Node5 -->
<g id="edge5" class="edge"><title>Node0&#45;&gt;Node5</title>
<path fill="none" stroke="midnightblue" d="M270.596,-224.083C264.46,-216.377 255.427,-205.033 247.958,-195.653"/>
<polygon fill="midnightblue" stroke="midnightblue" points="250.633,-193.394 241.665,-187.751 245.157,-197.754 250.633,-193.394"/>
</g>
<!-- Node2 -->
<g id="node3" class="node"><title>Node2</title>
<polygon fill="none" stroke="#bfbfbf" points="322.197,-0.5 322.197,-19.5 357.197,-19.5 357.197,-0.5 322.197,-0.5"/>
<text text-anchor="middle" x="339.697" y="-7.5" font-family="Helvetica,sans-Serif" font-size="10.00">map</text>
</g>
<!-- Node1&#45;&gt;Node2 -->
<g id="edge2" class="edge"><title>Node1&#45;&gt;Node2</title>
<path fill="none" stroke="midnightblue" d="M330.513,-56.083C331.971,-48.9272 334.068,-38.6353 335.89,-29.6911"/>
<polygon fill="midnightblue" stroke="midnightblue" points="339.348,-30.2485 337.914,-19.7511 332.489,-28.8512 339.348,-30.2485"/>
</g>
<!-- Node3 -->
<g id="node4" class="node"><title>Node3</title>
<polygon fill="none" stroke="#bfbfbf" points="263.197,-0.5 263.197,-19.5 304.197,-19.5 304.197,-0.5 263.197,-0.5"/>
<text text-anchor="middle" x="283.697" y="-7.5" font-family="Helvetica,sans-Serif" font-size="10.00">string</text>
</g>
<!-- Node1&#45;&gt;Node3 -->
<g id="edge3" class="edge"><title>Node1&#45;&gt;Node3</title>
<path fill="none" stroke="midnightblue" d="M321.266,-56.083C314.844,-48.3768 305.391,-37.0333 297.575,-27.6531"/>
<polygon fill="midnightblue" stroke="midnightblue" points="300.08,-25.1927 290.99,-19.7511 294.703,-29.674 300.08,-25.1927"/>
</g>
<!-- Node4 -->
<g id="node5" class="node"><title>Node4</title>
<polygon fill="none" stroke="#bfbfbf" points="190.697,-0.5 190.697,-19.5 244.697,-19.5 244.697,-0.5 190.697,-0.5"/>
<text text-anchor="middle" x="217.697" y="-7.5" font-family="Helvetica,sans-Serif" font-size="10.00">iostream</text>
</g>
<!-- Node1&#45;&gt;Node4 -->
<g id="edge4" class="edge"><title>Node1&#45;&gt;Node4</title>
<path fill="none" stroke="midnightblue" d="M310.863,-56.324C292.981,-47.6247 265.222,-34.1202 244.651,-24.113"/>
<polygon fill="midnightblue" stroke="midnightblue" points="246.01,-20.8819 235.487,-19.6545 242.948,-27.1765 246.01,-20.8819"/>
</g>
<!-- Node6 -->
<g id="node7" class="node"><title>Node6</title>
<g id="a_node7"><a xlink:href="Tree_8h.html" target="_top" xlink:title="Tree.h">
<polygon fill="none" stroke="black" points="212.697,-112.5 212.697,-131.5 256.697,-131.5 256.697,-112.5 212.697,-112.5"/>
<text text-anchor="middle" x="234.697" y="-119.5" font-family="Helvetica,sans-Serif" font-size="10.00">Tree.h</text>
</a>
</g>
</g>
<!-- Node5&#45;&gt;Node6 -->
<g id="edge6" class="edge"><title>Node5&#45;&gt;Node6</title>
<path fill="none" stroke="midnightblue" d="M234.697,-168.083C234.697,-161.006 234.697,-150.861 234.697,-141.986"/>
<polygon fill="midnightblue" stroke="midnightblue" points="238.197,-141.751 234.697,-131.751 231.197,-141.751 238.197,-141.751"/>
</g>
<!-- Node8 -->
<g id="node9" class="node"><title>Node8</title>
<g id="a_node9"><a xlink:href="Chrono_8h.html" target="_top" xlink:title="Chrono.h">
<polygon fill="none" stroke="black" points="77.697,-112.5 77.697,-131.5 133.697,-131.5 133.697,-112.5 77.697,-112.5"/>
<text text-anchor="middle" x="105.697" y="-119.5" font-family="Helvetica,sans-Serif" font-size="10.00">Chrono.h</text>
</a>
</g>
</g>
<!-- Node5&#45;&gt;Node8 -->
<g id="edge11" class="edge"><title>Node5&#45;&gt;Node8</title>
<path fill="none" stroke="midnightblue" d="M214.257,-168.444C193.027,-159.557 159.598,-145.563 135.442,-135.451"/>
<polygon fill="midnightblue" stroke="midnightblue" points="136.618,-132.149 126.042,-131.516 133.915,-138.606 136.618,-132.149"/>
</g>
<!-- Node6&#45;&gt;Node1 -->
<g id="edge10" class="edge"><title>Node6&#45;&gt;Node1</title>
<path fill="none" stroke="midnightblue" d="M249.8,-112.324C264.6,-103.822 287.391,-90.7288 304.679,-80.7975"/>
<polygon fill="midnightblue" stroke="midnightblue" points="306.704,-83.6707 313.632,-75.6545 303.217,-77.6009 306.704,-83.6707"/>
</g>
<!-- Node6&#45;&gt;Node3 -->
<g id="edge8" class="edge"><title>Node6&#45;&gt;Node3</title>
<path fill="none" stroke="midnightblue" d="M238.542,-112.368C246.521,-94.4563 265.022,-52.9233 275.702,-28.9482"/>
<polygon fill="midnightblue" stroke="midnightblue" points="278.998,-30.1503 279.87,-19.5914 272.604,-27.3019 278.998,-30.1503"/>
</g>
<!-- Node6&#45;&gt;Node4 -->
<g id="edge9" class="edge"><title>Node6&#45;&gt;Node4</title>
<path fill="none" stroke="midnightblue" d="M233.363,-112.368C230.62,-94.617 224.291,-53.6664 220.571,-29.5974"/>
<polygon fill="midnightblue" stroke="midnightblue" points="224.011,-28.9395 219.025,-19.5914 217.093,-30.0087 224.011,-28.9395"/>
</g>
<!-- Node7 -->
<g id="node8" class="node"><title>Node7</title>
<polygon fill="none" stroke="#bfbfbf" points="155.197,-56.5 155.197,-75.5 200.197,-75.5 200.197,-56.5 155.197,-56.5"/>
<text text-anchor="middle" x="177.697" y="-63.5" font-family="Helvetica,sans-Serif" font-size="10.00">cstdlib</text>
</g>
<!-- Node6&#45;&gt;Node7 -->
<g id="edge7" class="edge"><title>Node6&#45;&gt;Node7</title>
<path fill="none" stroke="midnightblue" d="M225.539,-112.324C217.196,-104.42 204.665,-92.5482 194.52,-82.9377"/>
<polygon fill="midnightblue" stroke="midnightblue" points="196.688,-80.1705 187.022,-75.8339 191.874,-85.2522 196.688,-80.1705"/>
</g>
<!-- Node8&#45;&gt;Node4 -->
<g id="edge14" class="edge"><title>Node8&#45;&gt;Node4</title>
<path fill="none" stroke="midnightblue" d="M77.6667,-114.713C40.5536,-105.105 -17.6324,-84.8012 5.69704,-56 27.2783,-29.357 125.582,-17.8419 180.427,-13.4186"/>
<polygon fill="midnightblue" stroke="midnightblue" points="180.755,-16.9038 190.458,-12.6495 180.22,-9.9243 180.755,-16.9038"/>
</g>
<!-- Node8&#45;&gt;Node7 -->
<g id="edge15" class="edge"><title>Node8&#45;&gt;Node7</title>
<path fill="none" stroke="midnightblue" d="M117.265,-112.324C128.117,-104.185 144.578,-91.8395 157.58,-82.0874"/>
<polygon fill="midnightblue" stroke="midnightblue" points="160.019,-84.6339 165.919,-75.8339 155.818,-79.0339 160.019,-84.6339"/>
</g>
<!-- Node9 -->
<g id="node10" class="node"><title>Node9</title>
<polygon fill="none" stroke="#bfbfbf" points="15.197,-56.5 15.197,-75.5 56.197,-75.5 56.197,-56.5 15.197,-56.5"/>
<text text-anchor="middle" x="35.697" y="-63.5" font-family="Helvetica,sans-Serif" font-size="10.00">ctime</text>
</g>
<!-- Node8&#45;&gt;Node9 -->
<g id="edge12" class="edge"><title>Node8&#45;&gt;Node9</title>
<path fill="none" stroke="midnightblue" d="M94.4503,-112.324C83.8996,-104.185 67.8964,-91.8395 55.2548,-82.0874"/>
<polygon fill="midnightblue" stroke="midnightblue" points="57.2041,-79.1707 47.1484,-75.8339 52.9284,-84.7132 57.2041,-79.1707"/>
</g>
<!-- Node10 -->
<g id="node11" class="node"><title>Node10</title>
<polygon fill="none" stroke="#bfbfbf" points="74.697,-56.5 74.697,-75.5 136.697,-75.5 136.697,-56.5 74.697,-56.5"/>
<text text-anchor="middle" x="105.697" y="-63.5" font-family="Helvetica,sans-Serif" font-size="10.00">sys/time.h</text>
</g>
<!-- Node8&#45;&gt;Node10 -->
<g id="edge13" class="edge"><title>Node8&#45;&gt;Node10</title>
<path fill="none" stroke="midnightblue" d="M105.697,-112.083C105.697,-105.006 105.697,-94.8611 105.697,-85.9865"/>
<polygon fill="midnightblue" stroke="midnightblue" points="109.197,-85.751 105.697,-75.7511 102.197,-85.7511 109.197,-85.751"/>
</g>
</g>
</svg>
