<?xml version="1.0" encoding="UTF-8" standalone="no"?>
<!DOCTYPE svg PUBLIC "-//W3C//DTD SVG 1.1//EN"
 "http://www.w3.org/Graphics/SVG/1.1/DTD/svg11.dtd">
<!-- Generated by graphviz version 2.38.0 (20140413.2041)
 -->
<!-- Title: GammaBranchProcess.cpp Pages: 1 -->
<svg width="700pt" height="308pt"
 viewBox="0.00 0.00 699.50 308.00" xmlns="http://www.w3.org/2000/svg" xmlns:xlink="http://www.w3.org/1999/xlink">
<g id="graph0" class="graph" transform="scale(1 1) rotate(0) translate(4 304)">
<title>GammaBranchProcess.cpp</title>
<!-- Node0 -->
<g id="node1" class="node"><title>Node0</title>
<polygon fill="#bfbfbf" stroke="black" points="188,-280.5 188,-299.5 325,-299.5 325,-280.5 188,-280.5"/>
<text text-anchor="middle" x="256.5" y="-287.5" font-family="Helvetica,sans-Serif" font-size="10.00">GammaBranchProcess.cpp</text>
</g>
<!-- Node1 -->
<g id="node2" class="node"><title>Node1</title>
<g id="a_node2"><a xlink:href="GammaBranchProcess_8h.html" target="_top" xlink:title="GammaBranchProcess.h">
<polygon fill="none" stroke="black" points="88.5,-224.5 88.5,-243.5 214.5,-243.5 214.5,-224.5 88.5,-224.5"/>
<text text-anchor="middle" x="151.5" y="-231.5" font-family="Helvetica,sans-Serif" font-size="10.00">GammaBranchProcess.h</text>
</a>
</g>
</g>
<!-- Node0&#45;&gt;Node1 -->
<g id="edge1" class="edge"><title>Node0&#45;&gt;Node1</title>
<path fill="none" stroke="midnightblue" d="M239.63,-280.324C222.791,-271.664 196.693,-258.242 177.262,-248.249"/>
<polygon fill="midnightblue" stroke="midnightblue" points="178.822,-245.116 168.328,-243.655 175.62,-251.341 178.822,-245.116"/>
</g>
<!-- Node12 -->
<g id="node13" class="node"><title>Node12</title>
<g id="a_node13"><a xlink:href="Random_8h.html" target="_top" xlink:title="Random.h">
<polygon fill="none" stroke="black" points="432.5,-112.5 432.5,-131.5 494.5,-131.5 494.5,-112.5 432.5,-112.5"/>
<text text-anchor="middle" x="463.5" y="-119.5" font-family="Helvetica,sans-Serif" font-size="10.00">Random.h</text>
</a>
</g>
</g>
<!-- Node0&#45;&gt;Node12 -->
<g id="edge17" class="edge"><title>Node0&#45;&gt;Node12</title>
<path fill="none" stroke="midnightblue" d="M267.338,-280.309C300.803,-253.472 402.78,-171.694 444.948,-137.878"/>
<polygon fill="midnightblue" stroke="midnightblue" points="447.158,-140.592 452.77,-131.605 442.779,-135.131 447.158,-140.592"/>
</g>
<!-- Node2 -->
<g id="node3" class="node"><title>Node2</title>
<g id="a_node3"><a xlink:href="TaxonSet_8h.html" target="_top" xlink:title="TaxonSet.h">
<polygon fill="none" stroke="black" points="0,-56.5 0,-75.5 67,-75.5 67,-56.5 0,-56.5"/>
<text text-anchor="middle" x="33.5" y="-63.5" font-family="Helvetica,sans-Serif" font-size="10.00">TaxonSet.h</text>
</a>
</g>
</g>
<!-- Node1&#45;&gt;Node2 -->
<g id="edge2" class="edge"><title>Node1&#45;&gt;Node2</title>
<path fill="none" stroke="midnightblue" d="M137.971,-224.283C125.953,-216.033 108.484,-202.743 96.5,-188 70.0828,-155.502 50.1014,-110.167 40.2694,-85.2346"/>
<polygon fill="midnightblue" stroke="midnightblue" points="43.4295,-83.7 36.5833,-75.6143 36.8929,-86.2046 43.4295,-83.7"/>
</g>
<!-- Node6 -->
<g id="node7" class="node"><title>Node6</title>
<g id="a_node7"><a xlink:href="BranchProcess_8h.html" target="_top" xlink:title="BranchProcess.h">
<polygon fill="none" stroke="black" points="105.5,-168.5 105.5,-187.5 197.5,-187.5 197.5,-168.5 105.5,-168.5"/>
<text text-anchor="middle" x="151.5" y="-175.5" font-family="Helvetica,sans-Serif" font-size="10.00">BranchProcess.h</text>
</a>
</g>
</g>
<!-- Node1&#45;&gt;Node6 -->
<g id="edge6" class="edge"><title>Node1&#45;&gt;Node6</title>
<path fill="none" stroke="midnightblue" d="M151.5,-224.083C151.5,-217.006 151.5,-206.861 151.5,-197.986"/>
<polygon fill="midnightblue" stroke="midnightblue" points="155,-197.751 151.5,-187.751 148,-197.751 155,-197.751"/>
</g>
<!-- Node3 -->
<g id="node4" class="node"><title>Node3</title>
<polygon fill="none" stroke="#bfbfbf" points="16,-0.5 16,-19.5 51,-19.5 51,-0.5 16,-0.5"/>
<text text-anchor="middle" x="33.5" y="-7.5" font-family="Helvetica,sans-Serif" font-size="10.00">map</text>
</g>
<!-- Node2&#45;&gt;Node3 -->
<g id="edge3" class="edge"><title>Node2&#45;&gt;Node3</title>
<path fill="none" stroke="midnightblue" d="M33.5,-56.083C33.5,-49.0059 33.5,-38.8611 33.5,-29.9865"/>
<polygon fill="midnightblue" stroke="midnightblue" points="37.0001,-29.751 33.5,-19.7511 30.0001,-29.7511 37.0001,-29.751"/>
</g>
<!-- Node4 -->
<g id="node5" class="node"><title>Node4</title>
<polygon fill="none" stroke="#bfbfbf" points="72,-0.5 72,-19.5 113,-19.5 113,-0.5 72,-0.5"/>
<text text-anchor="middle" x="92.5" y="-7.5" font-family="Helvetica,sans-Serif" font-size="10.00">string</text>
</g>
<!-- Node2&#45;&gt;Node4 -->
<g id="edge4" class="edge"><title>Node2&#45;&gt;Node4</title>
<path fill="none" stroke="midnightblue" d="M42.9794,-56.324C51.7011,-48.3414 64.8435,-36.3128 75.3978,-26.6529"/>
<polygon fill="midnightblue" stroke="midnightblue" points="77.8345,-29.1674 82.8481,-19.8339 73.1083,-24.0036 77.8345,-29.1674"/>
</g>
<!-- Node5 -->
<g id="node6" class="node"><title>Node5</title>
<polygon fill="none" stroke="#bfbfbf" points="169.5,-0.5 169.5,-19.5 223.5,-19.5 223.5,-0.5 169.5,-0.5"/>
<text text-anchor="middle" x="196.5" y="-7.5" font-family="Helvetica,sans-Serif" font-size="10.00">iostream</text>
</g>
<!-- Node2&#45;&gt;Node5 -->
<g id="edge5" class="edge"><title>Node2&#45;&gt;Node5</title>
<path fill="none" stroke="midnightblue" d="M59.3278,-56.4435C86.7494,-47.3591 130.277,-32.9388 160.932,-22.7831"/>
<polygon fill="midnightblue" stroke="midnightblue" points="162.401,-25.9837 170.793,-19.5164 160.2,-19.3389 162.401,-25.9837"/>
</g>
<!-- Node7 -->
<g id="node8" class="node"><title>Node7</title>
<g id="a_node8"><a xlink:href="Tree_8h.html" target="_top" xlink:title="Tree.h">
<polygon fill="none" stroke="black" points="111.5,-112.5 111.5,-131.5 155.5,-131.5 155.5,-112.5 111.5,-112.5"/>
<text text-anchor="middle" x="133.5" y="-119.5" font-family="Helvetica,sans-Serif" font-size="10.00">Tree.h</text>
</a>
</g>
</g>
<!-- Node6&#45;&gt;Node7 -->
<g id="edge7" class="edge"><title>Node6&#45;&gt;Node7</title>
<path fill="none" stroke="midnightblue" d="M148.528,-168.083C146.116,-160.849 142.636,-150.409 139.632,-141.397"/>
<polygon fill="midnightblue" stroke="midnightblue" points="142.9,-140.131 136.417,-131.751 136.259,-142.345 142.9,-140.131"/>
</g>
<!-- Node9 -->
<g id="node10" class="node"><title>Node9</title>
<g id="a_node10"><a xlink:href="Chrono_8h.html" target="_top" xlink:title="Chrono.h">
<polygon fill="none" stroke="black" points="207.5,-112.5 207.5,-131.5 263.5,-131.5 263.5,-112.5 207.5,-112.5"/>
<text text-anchor="middle" x="235.5" y="-119.5" font-family="Helvetica,sans-Serif" font-size="10.00">Chrono.h</text>
</a>
</g>
</g>
<!-- Node6&#45;&gt;Node9 -->
<g id="edge12" class="edge"><title>Node6&#45;&gt;Node9</title>
<path fill="none" stroke="midnightblue" d="M164.996,-168.324C178.1,-159.9 198.212,-146.971 213.607,-137.074"/>
<polygon fill="midnightblue" stroke="midnightblue" points="215.518,-140.006 222.037,-131.655 211.733,-134.118 215.518,-140.006"/>
</g>
<!-- Node7&#45;&gt;Node2 -->
<g id="edge11" class="edge"><title>Node7&#45;&gt;Node2</title>
<path fill="none" stroke="midnightblue" d="M117.433,-112.324C101.542,-103.743 76.9926,-90.486 58.5415,-80.5224"/>
<polygon fill="midnightblue" stroke="midnightblue" points="59.989,-77.3264 49.5269,-75.6545 56.6629,-83.4857 59.989,-77.3264"/>
</g>
<!-- Node7&#45;&gt;Node4 -->
<g id="edge9" class="edge"><title>Node7&#45;&gt;Node4</title>
<path fill="none" stroke="midnightblue" d="M130.283,-112.368C123.636,-94.5366 108.265,-53.2953 99.3104,-29.2717"/>
<polygon fill="midnightblue" stroke="midnightblue" points="102.474,-27.7393 95.7023,-19.5914 95.9153,-30.1841 102.474,-27.7393"/>
</g>
<!-- Node7&#45;&gt;Node5 -->
<g id="edge10" class="edge"><title>Node7&#45;&gt;Node5</title>
<path fill="none" stroke="midnightblue" d="M134.637,-112.476C136.651,-99.531 141.696,-74.4699 152.5,-56 159.005,-44.8797 168.851,-34.4572 177.581,-26.4485"/>
<polygon fill="midnightblue" stroke="midnightblue" points="179.935,-29.0399 185.157,-19.8215 175.326,-23.7712 179.935,-29.0399"/>
</g>
<!-- Node8 -->
<g id="node9" class="node"><title>Node8</title>
<polygon fill="none" stroke="#bfbfbf" points="162,-56.5 162,-75.5 207,-75.5 207,-56.5 162,-56.5"/>
<text text-anchor="middle" x="184.5" y="-63.5" font-family="Helvetica,sans-Serif" font-size="10.00">cstdlib</text>
</g>
<!-- Node7&#45;&gt;Node8 -->
<g id="edge8" class="edge"><title>Node7&#45;&gt;Node8</title>
<path fill="none" stroke="midnightblue" d="M141.922,-112.083C149.348,-104.22 160.352,-92.5688 169.312,-83.0813"/>
<polygon fill="midnightblue" stroke="midnightblue" points="171.913,-85.4244 176.235,-75.7511 166.824,-80.618 171.913,-85.4244"/>
</g>
<!-- Node9&#45;&gt;Node5 -->
<g id="edge15" class="edge"><title>Node9&#45;&gt;Node5</title>
<path fill="none" stroke="midnightblue" d="M233.18,-112.496C229.703,-99.9928 222.768,-75.9711 215.5,-56 212.197,-46.9227 208.071,-37.0143 204.51,-28.8114"/>
<polygon fill="midnightblue" stroke="midnightblue" points="207.648,-27.2549 200.404,-19.5242 201.246,-30.0855 207.648,-27.2549"/>
</g>
<!-- Node9&#45;&gt;Node8 -->
<g id="edge16" class="edge"><title>Node9&#45;&gt;Node8</title>
<path fill="none" stroke="midnightblue" d="M227.078,-112.083C219.652,-104.22 208.648,-92.5688 199.688,-83.0813"/>
<polygon fill="midnightblue" stroke="midnightblue" points="202.176,-80.618 192.765,-75.7511 197.087,-85.4244 202.176,-80.618"/>
</g>
<!-- Node10 -->
<g id="node11" class="node"><title>Node10</title>
<polygon fill="none" stroke="#bfbfbf" points="264,-56.5 264,-75.5 305,-75.5 305,-56.5 264,-56.5"/>
<text text-anchor="middle" x="284.5" y="-63.5" font-family="Helvetica,sans-Serif" font-size="10.00">ctime</text>
</g>
<!-- Node9&#45;&gt;Node10 -->
<g id="edge13" class="edge"><title>Node9&#45;&gt;Node10</title>
<path fill="none" stroke="midnightblue" d="M243.591,-112.083C250.655,-104.298 261.088,-92.8015 269.649,-83.3665"/>
<polygon fill="midnightblue" stroke="midnightblue" points="272.431,-85.5087 276.559,-75.7511 267.247,-80.8047 272.431,-85.5087"/>
</g>
<!-- Node11 -->
<g id="node12" class="node"><title>Node11</title>
<polygon fill="none" stroke="#bfbfbf" points="323.5,-56.5 323.5,-75.5 385.5,-75.5 385.5,-56.5 323.5,-56.5"/>
<text text-anchor="middle" x="354.5" y="-63.5" font-family="Helvetica,sans-Serif" font-size="10.00">sys/time.h</text>
</g>
<!-- Node9&#45;&gt;Node11 -->
<g id="edge14" class="edge"><title>Node9&#45;&gt;Node11</title>
<path fill="none" stroke="midnightblue" d="M254.356,-112.444C273.766,-103.636 304.23,-89.8116 326.465,-79.722"/>
<polygon fill="midnightblue" stroke="midnightblue" points="328.072,-82.836 335.732,-75.5164 325.18,-76.4615 328.072,-82.836"/>
</g>
<!-- Node12&#45;&gt;Node5 -->
<g id="edge20" class="edge"><title>Node12&#45;&gt;Node5</title>
<path fill="none" stroke="midnightblue" d="M456.904,-112.306C445.699,-98.1843 421.516,-70.3931 394.5,-56 342.983,-28.5537 275.272,-17.7861 233.87,-13.6038"/>
<polygon fill="midnightblue" stroke="midnightblue" points="233.965,-10.0977 223.684,-12.6547 233.316,-17.0675 233.965,-10.0977"/>
</g>
<!-- Node12&#45;&gt;Node8 -->
<g id="edge19" class="edge"><title>Node12&#45;&gt;Node8</title>
<path fill="none" stroke="midnightblue" d="M432.307,-114.963C379.117,-104.668 271.377,-83.8149 217.185,-73.3262"/>
<polygon fill="midnightblue" stroke="midnightblue" points="217.576,-69.8369 207.093,-71.3729 216.246,-76.7094 217.576,-69.8369"/>
</g>
<!-- Node13 -->
<g id="node14" class="node"><title>Node13</title>
<polygon fill="none" stroke="#bfbfbf" points="441.5,-56.5 441.5,-75.5 485.5,-75.5 485.5,-56.5 441.5,-56.5"/>
<text text-anchor="middle" x="463.5" y="-63.5" font-family="Helvetica,sans-Serif" font-size="10.00">cmath</text>
</g>
<!-- Node12&#45;&gt;Node13 -->
<g id="edge18" class="edge"><title>Node12&#45;&gt;Node13</title>
<path fill="none" stroke="midnightblue" d="M463.5,-112.083C463.5,-105.006 463.5,-94.8611 463.5,-85.9865"/>
<polygon fill="midnightblue" stroke="midnightblue" points="467,-85.751 463.5,-75.7511 460,-85.7511 467,-85.751"/>
</g>
<!-- Node14 -->
<g id="node15" class="node"><title>Node14</title>
<polygon fill="none" stroke="#bfbfbf" points="503.5,-56.5 503.5,-75.5 555.5,-75.5 555.5,-56.5 503.5,-56.5"/>
<text text-anchor="middle" x="529.5" y="-63.5" font-family="Helvetica,sans-Serif" font-size="10.00">sstream</text>
</g>
<!-- Node12&#45;&gt;Node14 -->
<g id="edge21" class="edge"><title>Node12&#45;&gt;Node14</title>
<path fill="none" stroke="midnightblue" d="M474.104,-112.324C483.956,-104.263 498.851,-92.0765 510.715,-82.3695"/>
<polygon fill="midnightblue" stroke="midnightblue" points="513.18,-84.8752 518.703,-75.8339 508.747,-79.4575 513.18,-84.8752"/>
</g>
<!-- Node15 -->
<g id="node16" class="node"><title>Node15</title>
<polygon fill="none" stroke="#bfbfbf" points="573.5,-56.5 573.5,-75.5 623.5,-75.5 623.5,-56.5 573.5,-56.5"/>
<text text-anchor="middle" x="598.5" y="-63.5" font-family="Helvetica,sans-Serif" font-size="10.00">iomanip</text>
</g>
<!-- Node12&#45;&gt;Node15 -->
<g id="edge22" class="edge"><title>Node12&#45;&gt;Node15</title>
<path fill="none" stroke="midnightblue" d="M484.891,-112.444C507.207,-103.517 542.403,-89.4387 567.708,-79.3168"/>
<polygon fill="midnightblue" stroke="midnightblue" points="569.224,-82.4801 577.209,-75.5164 566.624,-75.9807 569.224,-82.4801"/>
</g>
<!-- Node16 -->
<g id="node17" class="node"><title>Node16</title>
<polygon fill="none" stroke="#bfbfbf" points="641.5,-56.5 641.5,-75.5 691.5,-75.5 691.5,-56.5 641.5,-56.5"/>
<text text-anchor="middle" x="666.5" y="-63.5" font-family="Helvetica,sans-Serif" font-size="10.00">fstream</text>
</g>
<!-- Node12&#45;&gt;Node16 -->
<g id="edge23" class="edge"><title>Node12&#45;&gt;Node16</title>
<path fill="none" stroke="midnightblue" d="M494.774,-112.681C531.732,-102.85 593.054,-86.5372 631.546,-76.298"/>
<polygon fill="midnightblue" stroke="midnightblue" points="632.521,-79.6606 641.285,-73.7074 630.721,-72.8958 632.521,-79.6606"/>
</g>
</g>
</svg>
