<?xml version="1.0" encoding="UTF-8" standalone="no"?>
<!DOCTYPE svg PUBLIC "-//W3C//DTD SVG 1.1//EN"
 "http://www.w3.org/Graphics/SVG/1.1/DTD/svg11.dtd">
<!-- Generated by graphviz version 2.40.1 (20161225.0304)
 -->
<!-- Title: GammaBranchProcess.h Pages: 1 -->
<svg width="456pt" height="196pt"
 viewBox="0.00 0.00 456.00 196.00" xmlns="http://www.w3.org/2000/svg" xmlns:xlink="http://www.w3.org/1999/xlink">
<g id="graph0" class="graph" transform="scale(1 1) rotate(0) translate(4 192)">
<title>GammaBranchProcess.h</title>
<!-- Node11 -->
<g id="node1" class="node">
<title>Node11</title>
<polygon fill="#bfbfbf" stroke="#000000" points="101.5,-168.5 101.5,-187.5 227.5,-187.5 227.5,-168.5 101.5,-168.5"/>
<text text-anchor="middle" x="164.5" y="-175.5" font-family="Helvetica,sans-Serif" font-size="10.00" fill="#000000">GammaBranchProcess.h</text>
</g>
<!-- Node12 -->
<g id="node2" class="node">
<title>Node12</title>
<g id="a_node2"><a xlink:href="GammaBranchProcess_8cpp.html" target="_top" xlink:title="GammaBranchProcess.cpp">
<polygon fill="none" stroke="#000000" points="0,-112.5 0,-131.5 137,-131.5 137,-112.5 0,-112.5"/>
<text text-anchor="middle" x="68.5" y="-119.5" font-family="Helvetica,sans-Serif" font-size="10.00" fill="#000000">GammaBranchProcess.cpp</text>
</a>
</g>
</g>
<!-- Node11&#45;&gt;Node12 -->
<g id="edge1" class="edge">
<title>Node11&#45;&gt;Node12</title>
<path fill="none" stroke="#191970" d="M138.8654,-163.0465C121.7841,-153.0824 99.836,-140.2794 85.0303,-131.6427"/>
<polygon fill="#191970" stroke="#191970" points="137.3767,-166.23 147.7781,-168.2455 140.9038,-160.1836 137.3767,-166.23"/>
</g>
<!-- Node13 -->
<g id="node3" class="node">
<title>Node13</title>
<g id="a_node3"><a xlink:href="RASCATGTRSBDPGammaPhyloProcess_8h.html" target="_top" xlink:title="RASCATGTRSBDPGammaPhyloProcess.h">
<polygon fill="none" stroke="#000000" points="155.5,-112.5 155.5,-131.5 365.5,-131.5 365.5,-112.5 155.5,-112.5"/>
<text text-anchor="middle" x="260.5" y="-119.5" font-family="Helvetica,sans-Serif" font-size="10.00" fill="#000000">RASCATGTRSBDPGammaPhyloProcess.h</text>
</a>
</g>
</g>
<!-- Node11&#45;&gt;Node13 -->
<g id="edge2" class="edge">
<title>Node11&#45;&gt;Node13</title>
<path fill="none" stroke="#191970" d="M190.1346,-163.0465C207.2159,-153.0824 229.164,-140.2794 243.9697,-131.6427"/>
<polygon fill="#191970" stroke="#191970" points="188.0962,-160.1836 181.2219,-168.2455 191.6233,-166.23 188.0962,-160.1836"/>
</g>
<!-- Node14 -->
<g id="node4" class="node">
<title>Node14</title>
<g id="a_node4"><a xlink:href="Model_8h.html" target="_top" xlink:title="Model.h">
<polygon fill="none" stroke="#000000" points="158,-56.5 158,-75.5 209,-75.5 209,-56.5 158,-56.5"/>
<text text-anchor="middle" x="183.5" y="-63.5" font-family="Helvetica,sans-Serif" font-size="10.00" fill="#000000">Model.h</text>
</a>
</g>
</g>
<!-- Node13&#45;&gt;Node14 -->
<g id="edge3" class="edge">
<title>Node13&#45;&gt;Node14</title>
<path fill="none" stroke="#191970" d="M238.7884,-106.2097C225.2647,-96.3743 208.3042,-84.0394 196.7587,-75.6427"/>
<polygon fill="#191970" stroke="#191970" points="236.9416,-109.1944 247.0876,-112.2455 241.0589,-103.5332 236.9416,-109.1944"/>
</g>
<!-- Node16 -->
<g id="node6" class="node">
<title>Node16</title>
<g id="a_node6"><a xlink:href="RASCATGTRSBDPGammaPhyloProcess_8cpp.html" target="_top" xlink:title="RASCATGTRSBDPGammaPhyloProcess.cpp">
<polygon fill="none" stroke="#000000" points="227,-56.5 227,-75.5 448,-75.5 448,-56.5 227,-56.5"/>
<text text-anchor="middle" x="337.5" y="-63.5" font-family="Helvetica,sans-Serif" font-size="10.00" fill="#000000">RASCATGTRSBDPGammaPhyloProcess.cpp</text>
</a>
</g>
</g>
<!-- Node13&#45;&gt;Node16 -->
<g id="edge5" class="edge">
<title>Node13&#45;&gt;Node16</title>
<path fill="none" stroke="#191970" d="M282.2116,-106.2097C295.7353,-96.3743 312.6958,-84.0394 324.2413,-75.6427"/>
<polygon fill="#191970" stroke="#191970" points="279.9411,-103.5332 273.9124,-112.2455 284.0584,-109.1944 279.9411,-103.5332"/>
</g>
<!-- Node15 -->
<g id="node5" class="node">
<title>Node15</title>
<g id="a_node5"><a xlink:href="PB_8cpp.html" target="_top" xlink:title="PB.cpp">
<polygon fill="none" stroke="#000000" points="159,-.5 159,-19.5 208,-19.5 208,-.5 159,-.5"/>
<text text-anchor="middle" x="183.5" y="-7.5" font-family="Helvetica,sans-Serif" font-size="10.00" fill="#000000">PB.cpp</text>
</a>
</g>
</g>
<!-- Node14&#45;&gt;Node15 -->
<g id="edge4" class="edge">
<title>Node14&#45;&gt;Node15</title>
<path fill="none" stroke="#191970" d="M183.5,-46.1575C183.5,-37.155 183.5,-26.9199 183.5,-19.6427"/>
<polygon fill="#191970" stroke="#191970" points="180.0001,-46.2455 183.5,-56.2455 187.0001,-46.2456 180.0001,-46.2455"/>
</g>
</g>
</svg>
