<?xml version="1.0" encoding="UTF-8" standalone="no"?>
<!DOCTYPE svg PUBLIC "-//W3C//DTD SVG 1.1//EN"
 "http://www.w3.org/Graphics/SVG/1.1/DTD/svg11.dtd">
<!-- Generated by graphviz version 2.40.1 (20161225.0304)
 -->
<!-- Title: GammaBranchProcess.h Pages: 1 -->
<svg width="604pt" height="196pt"
 viewBox="0.00 0.00 604.00 196.00" xmlns="http://www.w3.org/2000/svg" xmlns:xlink="http://www.w3.org/1999/xlink">
<g id="graph0" class="graph" transform="scale(1 1) rotate(0) translate(4 192)">
<title>GammaBranchProcess.h</title>
<!-- Node11 -->
<g id="node1" class="node">
<title>Node11</title>
<polygon fill="#bfbfbf" stroke="#000000" points="197.5,-168.5 197.5,-187.5 323.5,-187.5 323.5,-168.5 197.5,-168.5"/>
<text text-anchor="middle" x="260.5" y="-175.5" font-family="Helvetica,sans-Serif" font-size="10.00" fill="#000000">GammaBranchProcess.h</text>
</g>
<!-- Node12 -->
<g id="node2" class="node">
<title>Node12</title>
<g id="a_node2"><a xlink:href="GammaBranchProcess_8cpp.html" target="_top" xlink:title="GammaBranchProcess.cpp">
<polygon fill="none" stroke="#000000" points="0,-112.5 0,-131.5 137,-131.5 137,-112.5 0,-112.5"/>
<text text-anchor="middle" x="68.5" y="-119.5" font-family="Helvetica,sans-Serif" font-size="10.00" fill="#000000">GammaBranchProcess.cpp</text>
</a>
</g>
</g>
<!-- Node11&#45;&gt;Node12 -->
<g id="edge1" class="edge">
<title>Node11&#45;&gt;Node12</title>
<path fill="none" stroke="#191970" d="M217.4923,-165.4561C182.2479,-155.1765 133.1264,-140.8494 101.0753,-131.5011"/>
<polygon fill="#191970" stroke="#191970" points="216.914,-168.9332 227.494,-168.3733 218.874,-162.2132 216.914,-168.9332"/>
</g>
<!-- Node13 -->
<g id="node3" class="node">
<title>Node13</title>
<g id="a_node3"><a xlink:href="RASCATGTRSBDPGammaPhyloProcess_8h.html" target="_top" xlink:title="RASCATGTRSBDPGammaPhyloProcess.h">
<polygon fill="none" stroke="#000000" points="155.5,-112.5 155.5,-131.5 365.5,-131.5 365.5,-112.5 155.5,-112.5"/>
<text text-anchor="middle" x="260.5" y="-119.5" font-family="Helvetica,sans-Serif" font-size="10.00" fill="#000000">RASCATGTRSBDPGammaPhyloProcess.h</text>
</a>
</g>
</g>
<!-- Node11&#45;&gt;Node13 -->
<g id="edge2" class="edge">
<title>Node11&#45;&gt;Node13</title>
<path fill="none" stroke="#191970" d="M260.5,-158.1575C260.5,-149.155 260.5,-138.9199 260.5,-131.6427"/>
<polygon fill="#191970" stroke="#191970" points="257.0001,-158.2455 260.5,-168.2455 264.0001,-158.2456 257.0001,-158.2455"/>
</g>
<!-- Node17 -->
<g id="node7" class="node">
<title>Node17</title>
<g id="a_node7"><a xlink:href="RASCATGTRDPGammaPhyloProcess_8h.html" target="_top" xlink:title="RASCATGTRDPGammaPhyloProcess.h">
<polygon fill="none" stroke="#000000" points="389,-112.5 389,-131.5 586,-131.5 586,-112.5 389,-112.5"/>
<text text-anchor="middle" x="487.5" y="-119.5" font-family="Helvetica,sans-Serif" font-size="10.00" fill="#000000">RASCATGTRDPGammaPhyloProcess.h</text>
</a>
</g>
</g>
<!-- Node11&#45;&gt;Node17 -->
<g id="edge6" class="edge">
<title>Node11&#45;&gt;Node17</title>
<path fill="none" stroke="#191970" d="M309.2158,-165.982C350.9833,-155.6781 410.3481,-141.0331 448.8951,-131.5237"/>
<polygon fill="#191970" stroke="#191970" points="308.1354,-162.6435 299.2648,-168.4369 309.812,-169.4398 308.1354,-162.6435"/>
</g>
<!-- Node14 -->
<g id="node4" class="node">
<title>Node14</title>
<g id="a_node4"><a xlink:href="Model_8h.html" target="_top" xlink:title="Model.h">
<polygon fill="none" stroke="#000000" points="81,-56.5 81,-75.5 132,-75.5 132,-56.5 81,-56.5"/>
<text text-anchor="middle" x="106.5" y="-63.5" font-family="Helvetica,sans-Serif" font-size="10.00" fill="#000000">Model.h</text>
</a>
</g>
</g>
<!-- Node13&#45;&gt;Node14 -->
<g id="edge3" class="edge">
<title>Node13&#45;&gt;Node14</title>
<path fill="none" stroke="#191970" d="M224.4782,-108.9012C196.1407,-98.5966 157.3545,-84.4925 132.1164,-75.315"/>
<polygon fill="#191970" stroke="#191970" points="223.4324,-112.245 234.0265,-112.3733 225.8246,-105.6665 223.4324,-112.245"/>
</g>
<!-- Node16 -->
<g id="node6" class="node">
<title>Node16</title>
<g id="a_node6"><a xlink:href="RASCATGTRSBDPGammaPhyloProcess_8cpp.html" target="_top" xlink:title="RASCATGTRSBDPGammaPhyloProcess.cpp">
<polygon fill="none" stroke="#000000" points="150,-56.5 150,-75.5 371,-75.5 371,-56.5 150,-56.5"/>
<text text-anchor="middle" x="260.5" y="-63.5" font-family="Helvetica,sans-Serif" font-size="10.00" fill="#000000">RASCATGTRSBDPGammaPhyloProcess.cpp</text>
</a>
</g>
</g>
<!-- Node13&#45;&gt;Node16 -->
<g id="edge5" class="edge">
<title>Node13&#45;&gt;Node16</title>
<path fill="none" stroke="#191970" d="M260.5,-102.1575C260.5,-93.155 260.5,-82.9199 260.5,-75.6427"/>
<polygon fill="#191970" stroke="#191970" points="257.0001,-102.2455 260.5,-112.2455 264.0001,-102.2456 257.0001,-102.2455"/>
</g>
<!-- Node15 -->
<g id="node5" class="node">
<title>Node15</title>
<g id="a_node5"><a xlink:href="PB_8cpp.html" target="_top" xlink:title="PB.cpp">
<polygon fill="none" stroke="#000000" points="82,-.5 82,-19.5 131,-19.5 131,-.5 82,-.5"/>
<text text-anchor="middle" x="106.5" y="-7.5" font-family="Helvetica,sans-Serif" font-size="10.00" fill="#000000">PB.cpp</text>
</a>
</g>
</g>
<!-- Node14&#45;&gt;Node15 -->
<g id="edge4" class="edge">
<title>Node14&#45;&gt;Node15</title>
<path fill="none" stroke="#191970" d="M106.5,-46.1575C106.5,-37.155 106.5,-26.9199 106.5,-19.6427"/>
<polygon fill="#191970" stroke="#191970" points="103.0001,-46.2455 106.5,-56.2455 110.0001,-46.2456 103.0001,-46.2455"/>
</g>
<!-- Node18 -->
<g id="node8" class="node">
<title>Node18</title>
<g id="a_node8"><a xlink:href="RASCATGTRDPGammaPhyloProcess_8cpp.html" target="_top" xlink:title="RASCATGTRDPGammaPhyloProcess.cpp">
<polygon fill="none" stroke="#000000" points="389,-56.5 389,-75.5 596,-75.5 596,-56.5 389,-56.5"/>
<text text-anchor="middle" x="492.5" y="-63.5" font-family="Helvetica,sans-Serif" font-size="10.00" fill="#000000">RASCATGTRDPGammaPhyloProcess.cpp</text>
</a>
</g>
</g>
<!-- Node17&#45;&gt;Node18 -->
<g id="edge7" class="edge">
<title>Node17&#45;&gt;Node18</title>
<path fill="none" stroke="#191970" d="M489.2717,-102.1575C490.0754,-93.155 490.9893,-82.9199 491.639,-75.6427"/>
<polygon fill="#191970" stroke="#191970" points="485.7742,-101.9739 488.3709,-112.2455 492.7465,-102.5965 485.7742,-101.9739"/>
</g>
</g>
</svg>
