<?xml version="1.0" encoding="UTF-8" standalone="no"?>
<!DOCTYPE svg PUBLIC "-//W3C//DTD SVG 1.1//EN"
 "http://www.w3.org/Graphics/SVG/1.1/DTD/svg11.dtd">
<!-- Generated by graphviz version 2.38.0 (20140413.2041)
 -->
<!-- Title: GeneralPathSuffStatGTRProfileProcess.h Pages: 1 -->
<svg width="360pt" height="106pt"
 viewBox="0.00 0.00 360.00 106.00" xmlns="http://www.w3.org/2000/svg" xmlns:xlink="http://www.w3.org/1999/xlink">
<g id="graph0" class="graph" transform="scale(1 1) rotate(0) translate(4 102)">
<title>GeneralPathSuffStatGTRProfileProcess.h</title>
<!-- Node21 -->
<g id="node1" class="node"><title>Node21</title>
<polygon fill="#bfbfbf" stroke="black" points="92,-67.5 92,-97.5 247,-97.5 247,-67.5 92,-67.5"/>
<text text-anchor="start" x="100" y="-85.5" font-family="Helvetica,sans-Serif" font-size="10.00">GeneralPathSuffStatGTRProfile</text>
<text text-anchor="middle" x="169.5" y="-74.5" font-family="Helvetica,sans-Serif" font-size="10.00">Process.h</text>
</g>
<!-- Node22 -->
<g id="node2" class="node"><title>Node22</title>
<g id="a_node2"><a xlink:href="GeneralPathSuffStatGTRProfileProcess_8cpp.html" target="_top" xlink:title="GeneralPathSuffStatGTRProfile\lProcess.cpp">
<polygon fill="none" stroke="black" points="0,-0.5 0,-30.5 155,-30.5 155,-0.5 0,-0.5"/>
<text text-anchor="start" x="8" y="-18.5" font-family="Helvetica,sans-Serif" font-size="10.00">GeneralPathSuffStatGTRProfile</text>
<text text-anchor="middle" x="77.5" y="-7.5" font-family="Helvetica,sans-Serif" font-size="10.00">Process.cpp</text>
</a>
</g>
</g>
<!-- Node21&#45;&gt;Node22 -->
<g id="edge1" class="edge"><title>Node21&#45;&gt;Node22</title>
<path fill="none" stroke="midnightblue" d="M141.123,-61.4511C126.97,-51.4517 110.195,-39.5995 97.4237,-30.5765"/>
<polygon fill="midnightblue" stroke="midnightblue" points="139.351,-64.4841 149.537,-67.396 143.39,-58.7671 139.351,-64.4841"/>
</g>
<!-- Node23 -->
<g id="node3" class="node"><title>Node23</title>
<g id="a_node3"><a xlink:href="GeneralPathSuffStatGTRSubstitutionProcess_8h.html" target="_top" xlink:title="GeneralPathSuffStatGTRSubstitution\lProcess.h">
<polygon fill="none" stroke="black" points="173,-0.5 173,-30.5 352,-30.5 352,-0.5 173,-0.5"/>
<text text-anchor="start" x="181" y="-18.5" font-family="Helvetica,sans-Serif" font-size="10.00">GeneralPathSuffStatGTRSubstitution</text>
<text text-anchor="middle" x="262.5" y="-7.5" font-family="Helvetica,sans-Serif" font-size="10.00">Process.h</text>
</a>
</g>
</g>
<!-- Node21&#45;&gt;Node23 -->
<g id="edge2" class="edge"><title>Node21&#45;&gt;Node23</title>
<path fill="none" stroke="midnightblue" d="M198.185,-61.4511C212.492,-51.4517 229.45,-39.5995 242.36,-30.5765"/>
<polygon fill="midnightblue" stroke="midnightblue" points="195.871,-58.7985 189.68,-67.396 199.881,-64.536 195.871,-58.7985"/>
</g>
</g>
</svg>
