<?xml version="1.0" encoding="UTF-8" standalone="no"?>
<!DOCTYPE svg PUBLIC "-//W3C//DTD SVG 1.1//EN"
 "http://www.w3.org/Graphics/SVG/1.1/DTD/svg11.dtd">
<!-- Generated by graphviz version 2.38.0 (20140413.2041)
 -->
<!-- Title: GeneralPathSuffStatGTRSubstitutionProcess.h Pages: 1 -->
<svg width="987pt" height="453pt"
 viewBox="0.00 0.00 987.31 453.00" xmlns="http://www.w3.org/2000/svg" xmlns:xlink="http://www.w3.org/1999/xlink">
<g id="graph0" class="graph" transform="scale(1 1) rotate(0) translate(4 449)">
<title>GeneralPathSuffStatGTRSubstitutionProcess.h</title>
<!-- Node0 -->
<g id="node1" class="node"><title>Node0</title>
<polygon fill="#bfbfbf" stroke="black" points="429.5,-414.5 429.5,-444.5 608.5,-444.5 608.5,-414.5 429.5,-414.5"/>
<text text-anchor="start" x="437.5" y="-432.5" font-family="Helvetica,sans-Serif" font-size="10.00">GeneralPathSuffStatGTRSubstitution</text>
<text text-anchor="middle" x="519" y="-421.5" font-family="Helvetica,sans-Serif" font-size="10.00">Process.h</text>
</g>
<!-- Node1 -->
<g id="node2" class="node"><title>Node1</title>
<g id="a_node2"><a xlink:href="GeneralPathSuffStatMatrixSubstitutionProcess_8h.html" target="_top" xlink:title="GeneralPathSuffStatMatrix\lSubstitutionProcess.h">
<polygon fill="none" stroke="black" points="376,-347.5 376,-377.5 510,-377.5 510,-347.5 376,-347.5"/>
<text text-anchor="start" x="384" y="-365.5" font-family="Helvetica,sans-Serif" font-size="10.00">GeneralPathSuffStatMatrix</text>
<text text-anchor="middle" x="443" y="-354.5" font-family="Helvetica,sans-Serif" font-size="10.00">SubstitutionProcess.h</text>
</a>
</g>
</g>
<!-- Node0&#45;&gt;Node1 -->
<g id="edge1" class="edge"><title>Node0&#45;&gt;Node1</title>
<path fill="none" stroke="midnightblue" d="M502.509,-414.396C492.152,-405.538 478.615,-393.96 467.07,-384.086"/>
<polygon fill="midnightblue" stroke="midnightblue" points="469.333,-381.416 459.459,-377.577 464.783,-386.736 469.333,-381.416"/>
</g>
<!-- Node4 -->
<g id="node5" class="node"><title>Node4</title>
<g id="a_node5"><a xlink:href="RateProcess_8h.html" target="_top" xlink:title="RateProcess.h">
<polygon fill="none" stroke="black" points="629,-168.5 629,-187.5 711,-187.5 711,-168.5 629,-168.5"/>
<text text-anchor="middle" x="670" y="-175.5" font-family="Helvetica,sans-Serif" font-size="10.00">RateProcess.h</text>
</a>
</g>
</g>
<!-- Node0&#45;&gt;Node4 -->
<g id="edge59" class="edge"><title>Node0&#45;&gt;Node4</title>
<path fill="none" stroke="midnightblue" d="M608.81,-417.517C632.639,-410.131 655.906,-397.963 671,-378 711.964,-323.822 689.422,-235.497 676.754,-197.422"/>
<polygon fill="midnightblue" stroke="midnightblue" points="679.96,-195.987 673.362,-187.697 673.351,-198.292 679.96,-195.987"/>
</g>
<!-- Node27 -->
<g id="node28" class="node"><title>Node27</title>
<g id="a_node28"><a xlink:href="GTRSubstitutionProcess_8h.html" target="_top" xlink:title="GTRSubstitutionProcess.h">
<polygon fill="none" stroke="black" points="528,-353 528,-372 662,-372 662,-353 528,-353"/>
<text text-anchor="middle" x="595" y="-360" font-family="Helvetica,sans-Serif" font-size="10.00">GTRSubstitutionProcess.h</text>
</a>
</g>
</g>
<!-- Node0&#45;&gt;Node27 -->
<g id="edge48" class="edge"><title>Node0&#45;&gt;Node27</title>
<path fill="none" stroke="midnightblue" d="M535.491,-414.396C547.693,-403.96 564.307,-389.751 576.879,-378.998"/>
<polygon fill="midnightblue" stroke="midnightblue" points="579.509,-381.354 584.834,-372.195 574.96,-376.034 579.509,-381.354"/>
</g>
<!-- Node30 -->
<g id="node31" class="node"><title>Node30</title>
<g id="a_node31"><a xlink:href="GeneralPathSuffStatGTRProfileProcess_8h.html" target="_top" xlink:title="GeneralPathSuffStatGTRProfile\lProcess.h">
<polygon fill="none" stroke="black" points="202.5,-347.5 202.5,-377.5 357.5,-377.5 357.5,-347.5 202.5,-347.5"/>
<text text-anchor="start" x="210.5" y="-365.5" font-family="Helvetica,sans-Serif" font-size="10.00">GeneralPathSuffStatGTRProfile</text>
<text text-anchor="middle" x="280" y="-354.5" font-family="Helvetica,sans-Serif" font-size="10.00">Process.h</text>
</a>
</g>
</g>
<!-- Node0&#45;&gt;Node30 -->
<g id="edge56" class="edge"><title>Node0&#45;&gt;Node30</title>
<path fill="none" stroke="midnightblue" d="M467.435,-414.476C430.495,-404.43 380.588,-390.856 341.558,-380.242"/>
<polygon fill="midnightblue" stroke="midnightblue" points="342.453,-376.858 331.885,-377.611 340.616,-383.613 342.453,-376.858"/>
</g>
<!-- Node2 -->
<g id="node3" class="node"><title>Node2</title>
<g id="a_node3"><a xlink:href="MatrixSubstitutionProcess_8h.html" target="_top" xlink:title="MatrixSubstitutionProcess.h">
<polygon fill="none" stroke="black" points="489,-286 489,-305 629,-305 629,-286 489,-286"/>
<text text-anchor="middle" x="559" y="-293" font-family="Helvetica,sans-Serif" font-size="10.00">MatrixSubstitutionProcess.h</text>
</a>
</g>
</g>
<!-- Node1&#45;&gt;Node2 -->
<g id="edge2" class="edge"><title>Node1&#45;&gt;Node2</title>
<path fill="none" stroke="midnightblue" d="M468.17,-347.396C487.983,-336.294 515.418,-320.921 534.939,-309.983"/>
<polygon fill="midnightblue" stroke="midnightblue" points="536.805,-312.949 543.818,-305.007 533.384,-306.842 536.805,-312.949"/>
</g>
<!-- Node26 -->
<g id="node27" class="node"><title>Node26</title>
<g id="a_node27"><a xlink:href="GeneralPathSuffStatMatrixProfileProcess_8h.html" target="_top" xlink:title="GeneralPathSuffStatMatrix\lProfileProcess.h">
<polygon fill="none" stroke="black" points="209,-280.5 209,-310.5 343,-310.5 343,-280.5 209,-280.5"/>
<text text-anchor="start" x="217" y="-298.5" font-family="Helvetica,sans-Serif" font-size="10.00">GeneralPathSuffStatMatrix</text>
<text text-anchor="middle" x="276" y="-287.5" font-family="Helvetica,sans-Serif" font-size="10.00">ProfileProcess.h</text>
</a>
</g>
</g>
<!-- Node1&#45;&gt;Node26 -->
<g id="edge46" class="edge"><title>Node1&#45;&gt;Node26</title>
<path fill="none" stroke="midnightblue" d="M406.763,-347.396C381.816,-337.686 348.475,-324.709 321.704,-314.289"/>
<polygon fill="midnightblue" stroke="midnightblue" points="322.754,-310.942 312.166,-310.577 320.215,-317.465 322.754,-310.942"/>
</g>
<!-- Node3 -->
<g id="node4" class="node"><title>Node3</title>
<g id="a_node4"><a xlink:href="SubstitutionProcess_8h.html" target="_top" xlink:title="SubstitutionProcess.h">
<polygon fill="none" stroke="black" points="508.5,-224.5 508.5,-243.5 621.5,-243.5 621.5,-224.5 508.5,-224.5"/>
<text text-anchor="middle" x="565" y="-231.5" font-family="Helvetica,sans-Serif" font-size="10.00">SubstitutionProcess.h</text>
</a>
</g>
</g>
<!-- Node2&#45;&gt;Node3 -->
<g id="edge3" class="edge"><title>Node2&#45;&gt;Node3</title>
<path fill="none" stroke="midnightblue" d="M559.86,-285.975C560.706,-277.58 562.027,-264.481 563.118,-253.663"/>
<polygon fill="midnightblue" stroke="midnightblue" points="566.621,-253.81 564.142,-243.509 559.656,-253.107 566.621,-253.81"/>
</g>
<!-- Node25 -->
<g id="node26" class="node"><title>Node25</title>
<g id="a_node26"><a xlink:href="MatrixProfileProcess_8h.html" target="_top" xlink:title="MatrixProfileProcess.h">
<polygon fill="none" stroke="black" points="358,-224.5 358,-243.5 474,-243.5 474,-224.5 358,-224.5"/>
<text text-anchor="middle" x="416" y="-231.5" font-family="Helvetica,sans-Serif" font-size="10.00">MatrixProfileProcess.h</text>
</a>
</g>
</g>
<!-- Node2&#45;&gt;Node25 -->
<g id="edge43" class="edge"><title>Node2&#45;&gt;Node25</title>
<path fill="none" stroke="midnightblue" d="M538.512,-285.975C514.194,-275.857 473.451,-258.905 445.683,-247.351"/>
<polygon fill="midnightblue" stroke="midnightblue" points="447.028,-244.119 436.45,-243.509 444.339,-250.582 447.028,-244.119"/>
</g>
<!-- Node3&#45;&gt;Node4 -->
<g id="edge4" class="edge"><title>Node3&#45;&gt;Node4</title>
<path fill="none" stroke="midnightblue" d="M581.87,-224.324C598.709,-215.664 624.807,-202.242 644.238,-192.249"/>
<polygon fill="midnightblue" stroke="midnightblue" points="645.88,-195.341 653.172,-187.655 642.678,-189.116 645.88,-195.341"/>
</g>
<!-- Node6 -->
<g id="node7" class="node"><title>Node6</title>
<g id="a_node7"><a xlink:href="Chrono_8h.html" target="_top" xlink:title="Chrono.h">
<polygon fill="none" stroke="black" points="500,-112.5 500,-131.5 556,-131.5 556,-112.5 500,-112.5"/>
<text text-anchor="middle" x="528" y="-119.5" font-family="Helvetica,sans-Serif" font-size="10.00">Chrono.h</text>
</a>
</g>
</g>
<!-- Node3&#45;&gt;Node6 -->
<g id="edge41" class="edge"><title>Node3&#45;&gt;Node6</title>
<path fill="none" stroke="midnightblue" d="M560.869,-224.168C556.766,-215.189 550.459,-200.815 546,-188 540.643,-172.604 535.789,-154.73 532.476,-141.626"/>
<polygon fill="midnightblue" stroke="midnightblue" points="535.777,-140.394 529.986,-131.521 528.98,-142.068 535.777,-140.394"/>
</g>
<!-- Node10 -->
<g id="node11" class="node"><title>Node10</title>
<g id="a_node11"><a xlink:href="ProfileProcess_8h.html" target="_top" xlink:title="ProfileProcess.h">
<polygon fill="none" stroke="black" points="404.5,-168.5 404.5,-187.5 493.5,-187.5 493.5,-168.5 404.5,-168.5"/>
<text text-anchor="middle" x="449" y="-175.5" font-family="Helvetica,sans-Serif" font-size="10.00">ProfileProcess.h</text>
</a>
</g>
</g>
<!-- Node3&#45;&gt;Node10 -->
<g id="edge11" class="edge"><title>Node3&#45;&gt;Node10</title>
<path fill="none" stroke="midnightblue" d="M546.619,-224.444C527.784,-215.675 498.269,-201.935 476.621,-191.858"/>
<polygon fill="midnightblue" stroke="midnightblue" points="477.838,-188.564 467.295,-187.516 474.883,-194.91 477.838,-188.564"/>
</g>
<!-- Node15 -->
<g id="node16" class="node"><title>Node15</title>
<g id="a_node16"><a xlink:href="BranchSitePath_8h.html" target="_top" xlink:title="BranchSitePath.h">
<polygon fill="none" stroke="black" points="740.5,-168.5 740.5,-187.5 833.5,-187.5 833.5,-168.5 740.5,-168.5"/>
<text text-anchor="middle" x="787" y="-175.5" font-family="Helvetica,sans-Serif" font-size="10.00">BranchSitePath.h</text>
</a>
</g>
</g>
<!-- Node3&#45;&gt;Node15 -->
<g id="edge20" class="edge"><title>Node3&#45;&gt;Node15</title>
<path fill="none" stroke="midnightblue" d="M600.177,-224.444C638.579,-215.102 700.176,-200.119 742.055,-189.933"/>
<polygon fill="midnightblue" stroke="midnightblue" points="743.099,-193.281 751.988,-187.516 741.444,-186.479 743.099,-193.281"/>
</g>
<!-- Node24 -->
<g id="node25" class="node"><title>Node24</title>
<polygon fill="none" stroke="#bfbfbf" points="555,-168.5 555,-187.5 611,-187.5 611,-168.5 555,-168.5"/>
<text text-anchor="middle" x="583" y="-175.5" font-family="Helvetica,sans-Serif" font-size="10.00">algorithm</text>
</g>
<!-- Node3&#45;&gt;Node24 -->
<g id="edge42" class="edge"><title>Node3&#45;&gt;Node24</title>
<path fill="none" stroke="midnightblue" d="M567.972,-224.083C570.384,-216.849 573.864,-206.409 576.868,-197.397"/>
<polygon fill="midnightblue" stroke="midnightblue" points="580.241,-198.345 580.083,-187.751 573.6,-196.131 580.241,-198.345"/>
</g>
<!-- Node5 -->
<g id="node6" class="node"><title>Node5</title>
<polygon fill="none" stroke="#bfbfbf" points="553,-0.5 553,-19.5 607,-19.5 607,-0.5 553,-0.5"/>
<text text-anchor="middle" x="580" y="-7.5" font-family="Helvetica,sans-Serif" font-size="10.00">iostream</text>
</g>
<!-- Node4&#45;&gt;Node5 -->
<g id="edge5" class="edge"><title>Node4&#45;&gt;Node5</title>
<path fill="none" stroke="midnightblue" d="M670.11,-168.272C669.968,-147.167 667.129,-92.4262 643,-56 634.22,-42.7449 620.103,-32.1315 607.456,-24.5486"/>
<polygon fill="midnightblue" stroke="midnightblue" points="609.035,-21.4213 598.603,-19.5682 605.603,-27.5221 609.035,-21.4213"/>
</g>
<!-- Node4&#45;&gt;Node6 -->
<g id="edge6" class="edge"><title>Node4&#45;&gt;Node6</title>
<path fill="none" stroke="midnightblue" d="M647.5,-168.444C623.923,-159.478 586.678,-145.314 560.036,-135.183"/>
<polygon fill="midnightblue" stroke="midnightblue" points="560.986,-131.8 550.395,-131.516 558.498,-138.342 560.986,-131.8"/>
</g>
<!-- Node6&#45;&gt;Node5 -->
<g id="edge9" class="edge"><title>Node6&#45;&gt;Node5</title>
<path fill="none" stroke="midnightblue" d="M556.049,-116.7C579.475,-111.468 611.464,-100.128 627,-76 638.428,-58.2526 619.845,-38.7338 602.784,-25.7632"/>
<polygon fill="midnightblue" stroke="midnightblue" points="604.343,-22.5759 594.168,-19.6213 600.28,-28.276 604.343,-22.5759"/>
</g>
<!-- Node7 -->
<g id="node8" class="node"><title>Node7</title>
<polygon fill="none" stroke="#bfbfbf" points="577.5,-56.5 577.5,-75.5 618.5,-75.5 618.5,-56.5 577.5,-56.5"/>
<text text-anchor="middle" x="598" y="-63.5" font-family="Helvetica,sans-Serif" font-size="10.00">ctime</text>
</g>
<!-- Node6&#45;&gt;Node7 -->
<g id="edge7" class="edge"><title>Node6&#45;&gt;Node7</title>
<path fill="none" stroke="midnightblue" d="M539.247,-112.324C549.797,-104.185 565.801,-91.8395 578.442,-82.0874"/>
<polygon fill="midnightblue" stroke="midnightblue" points="580.769,-84.7132 586.549,-75.8339 576.493,-79.1707 580.769,-84.7132"/>
</g>
<!-- Node8 -->
<g id="node9" class="node"><title>Node8</title>
<polygon fill="none" stroke="#bfbfbf" points="497,-56.5 497,-75.5 559,-75.5 559,-56.5 497,-56.5"/>
<text text-anchor="middle" x="528" y="-63.5" font-family="Helvetica,sans-Serif" font-size="10.00">sys/time.h</text>
</g>
<!-- Node6&#45;&gt;Node8 -->
<g id="edge8" class="edge"><title>Node6&#45;&gt;Node8</title>
<path fill="none" stroke="midnightblue" d="M528,-112.083C528,-105.006 528,-94.8611 528,-85.9865"/>
<polygon fill="midnightblue" stroke="midnightblue" points="531.5,-85.751 528,-75.7511 524.5,-85.7511 531.5,-85.751"/>
</g>
<!-- Node9 -->
<g id="node10" class="node"><title>Node9</title>
<polygon fill="none" stroke="#bfbfbf" points="384.5,-0.5 384.5,-19.5 429.5,-19.5 429.5,-0.5 384.5,-0.5"/>
<text text-anchor="middle" x="407" y="-7.5" font-family="Helvetica,sans-Serif" font-size="10.00">cstdlib</text>
</g>
<!-- Node6&#45;&gt;Node9 -->
<g id="edge10" class="edge"><title>Node6&#45;&gt;Node9</title>
<path fill="none" stroke="midnightblue" d="M518.505,-112.368C498.095,-93.8137 449.804,-49.9129 423.981,-26.4376"/>
<polygon fill="midnightblue" stroke="midnightblue" points="426.204,-23.7284 416.451,-19.5914 421.496,-28.908 426.204,-23.7284"/>
</g>
<!-- Node10&#45;&gt;Node5 -->
<g id="edge18" class="edge"><title>Node10&#45;&gt;Node5</title>
<path fill="none" stroke="midnightblue" d="M449.525,-168.263C451.258,-146.662 458.52,-90.0324 488,-56 502.375,-39.4054 524.286,-28.3501 543.119,-21.3511"/>
<polygon fill="midnightblue" stroke="midnightblue" points="544.329,-24.6359 552.631,-18.0529 542.036,-18.0222 544.329,-24.6359"/>
</g>
<!-- Node10&#45;&gt;Node6 -->
<g id="edge12" class="edge"><title>Node10&#45;&gt;Node6</title>
<path fill="none" stroke="midnightblue" d="M461.693,-168.324C473.901,-159.979 492.578,-147.212 507.003,-137.352"/>
<polygon fill="midnightblue" stroke="midnightblue" points="509.058,-140.187 515.339,-131.655 505.108,-134.408 509.058,-140.187"/>
</g>
<!-- Node11 -->
<g id="node12" class="node"><title>Node11</title>
<g id="a_node12"><a xlink:href="StateSpace_8h.html" target="_top" xlink:title="StateSpace.h">
<polygon fill="none" stroke="black" points="328,-112.5 328,-131.5 404,-131.5 404,-112.5 328,-112.5"/>
<text text-anchor="middle" x="366" y="-119.5" font-family="Helvetica,sans-Serif" font-size="10.00">StateSpace.h</text>
</a>
</g>
</g>
<!-- Node10&#45;&gt;Node11 -->
<g id="edge13" class="edge"><title>Node10&#45;&gt;Node11</title>
<path fill="none" stroke="midnightblue" d="M435.665,-168.324C422.838,-159.979 403.215,-147.212 388.06,-137.352"/>
<polygon fill="midnightblue" stroke="midnightblue" points="389.593,-134.174 379.302,-131.655 385.776,-140.042 389.593,-134.174"/>
</g>
<!-- Node14 -->
<g id="node15" class="node"><title>Node14</title>
<polygon fill="none" stroke="#bfbfbf" points="943.5,-0.5 943.5,-19.5 978.5,-19.5 978.5,-0.5 943.5,-0.5"/>
<text text-anchor="middle" x="961" y="-7.5" font-family="Helvetica,sans-Serif" font-size="10.00">map</text>
</g>
<!-- Node10&#45;&gt;Node14 -->
<g id="edge19" class="edge"><title>Node10&#45;&gt;Node14</title>
<path fill="none" stroke="midnightblue" d="M493.657,-172.699C585.206,-163.714 788.097,-142.891 818,-132 860.857,-116.391 869.53,-105.87 904,-76 920.934,-61.3252 937.503,-41.6596 948.373,-27.8154"/>
<polygon fill="midnightblue" stroke="midnightblue" points="951.317,-29.7295 954.64,-19.6694 945.768,-25.4612 951.317,-29.7295"/>
</g>
<!-- Node12 -->
<g id="node13" class="node"><title>Node12</title>
<g id="a_node13"><a xlink:href="BiologicalSequences_8h.html" target="_top" xlink:title="BiologicalSequences.h">
<polygon fill="none" stroke="black" points="287,-56.5 287,-75.5 403,-75.5 403,-56.5 287,-56.5"/>
<text text-anchor="middle" x="345" y="-63.5" font-family="Helvetica,sans-Serif" font-size="10.00">BiologicalSequences.h</text>
</a>
</g>
</g>
<!-- Node11&#45;&gt;Node12 -->
<g id="edge14" class="edge"><title>Node11&#45;&gt;Node12</title>
<path fill="none" stroke="midnightblue" d="M362.532,-112.083C359.688,-104.77 355.571,-94.1814 352.04,-85.1034"/>
<polygon fill="midnightblue" stroke="midnightblue" points="355.29,-83.8025 348.403,-75.7511 348.766,-86.3397 355.29,-83.8025"/>
</g>
<!-- Node12&#45;&gt;Node5 -->
<g id="edge16" class="edge"><title>Node12&#45;&gt;Node5</title>
<path fill="none" stroke="midnightblue" d="M382.236,-56.4435C426.209,-46.3393 498.909,-29.6337 542.845,-19.5377"/>
<polygon fill="midnightblue" stroke="midnightblue" points="543.866,-22.8944 552.828,-17.2437 542.298,-16.0722 543.866,-22.8944"/>
</g>
<!-- Node12&#45;&gt;Node9 -->
<g id="edge15" class="edge"><title>Node12&#45;&gt;Node9</title>
<path fill="none" stroke="midnightblue" d="M354.961,-56.324C364.127,-48.3414 377.937,-36.3128 389.028,-26.6529"/>
<polygon fill="midnightblue" stroke="midnightblue" points="391.615,-29.041 396.857,-19.8339 387.018,-23.7624 391.615,-29.041"/>
</g>
<!-- Node13 -->
<g id="node14" class="node"><title>Node13</title>
<polygon fill="none" stroke="#bfbfbf" points="809.5,-0.5 809.5,-19.5 850.5,-19.5 850.5,-0.5 809.5,-0.5"/>
<text text-anchor="middle" x="830" y="-7.5" font-family="Helvetica,sans-Serif" font-size="10.00">string</text>
</g>
<!-- Node12&#45;&gt;Node13 -->
<g id="edge17" class="edge"><title>Node12&#45;&gt;Node13</title>
<path fill="none" stroke="midnightblue" d="M403.021,-58.54C506.521,-47.0162 719.59,-23.293 799.144,-14.4355"/>
<polygon fill="midnightblue" stroke="midnightblue" points="799.907,-17.8723 809.458,-13.2871 799.133,-10.9152 799.907,-17.8723"/>
</g>
<!-- Node15&#45;&gt;Node13 -->
<g id="edge21" class="edge"><title>Node15&#45;&gt;Node13</title>
<path fill="none" stroke="midnightblue" d="M804.238,-168.419C831.437,-153.783 883.336,-121.138 904,-76 915.108,-51.7359 885.172,-32.8992 860.106,-21.89"/>
<polygon fill="midnightblue" stroke="midnightblue" points="861.412,-18.6427 850.833,-18.0589 858.739,-25.1123 861.412,-18.6427"/>
</g>
<!-- Node15&#45;&gt;Node14 -->
<g id="edge22" class="edge"><title>Node15&#45;&gt;Node14</title>
<path fill="none" stroke="midnightblue" d="M828.377,-168.424C873.918,-156.486 944.686,-129.94 975,-76 983.283,-61.2621 977.507,-42.1137 971.047,-28.4245"/>
<polygon fill="midnightblue" stroke="midnightblue" points="974.148,-26.8027 966.413,-19.5627 967.945,-30.0462 974.148,-26.8027"/>
</g>
<!-- Node16 -->
<g id="node17" class="node"><title>Node16</title>
<g id="a_node17"><a xlink:href="Tree_8h.html" target="_top" xlink:title="Tree.h">
<polygon fill="none" stroke="black" points="765,-112.5 765,-131.5 809,-131.5 809,-112.5 765,-112.5"/>
<text text-anchor="middle" x="787" y="-119.5" font-family="Helvetica,sans-Serif" font-size="10.00">Tree.h</text>
</a>
</g>
</g>
<!-- Node15&#45;&gt;Node16 -->
<g id="edge23" class="edge"><title>Node15&#45;&gt;Node16</title>
<path fill="none" stroke="midnightblue" d="M787,-168.083C787,-161.006 787,-150.861 787,-141.986"/>
<polygon fill="midnightblue" stroke="midnightblue" points="790.5,-141.751 787,-131.751 783.5,-141.751 790.5,-141.751"/>
</g>
<!-- Node18 -->
<g id="node19" class="node"><title>Node18</title>
<g id="a_node19"><a xlink:href="SubMatrix_8h.html" target="_top" xlink:title="SubMatrix.h">
<polygon fill="none" stroke="black" points="202.5,-112.5 202.5,-131.5 271.5,-131.5 271.5,-112.5 202.5,-112.5"/>
<text text-anchor="middle" x="237" y="-119.5" font-family="Helvetica,sans-Serif" font-size="10.00">SubMatrix.h</text>
</a>
</g>
</g>
<!-- Node15&#45;&gt;Node18 -->
<g id="edge31" class="edge"><title>Node15&#45;&gt;Node18</title>
<path fill="none" stroke="midnightblue" d="M740.175,-170.443C733.412,-169.574 726.532,-168.732 720,-168 542.173,-148.084 497.055,-149.762 319,-132 306.986,-130.802 293.992,-129.416 281.966,-128.097"/>
<polygon fill="midnightblue" stroke="midnightblue" points="282.021,-124.582 271.696,-126.962 281.251,-131.54 282.021,-124.582"/>
</g>
<!-- Node16&#45;&gt;Node5 -->
<g id="edge26" class="edge"><title>Node16&#45;&gt;Node5</title>
<path fill="none" stroke="midnightblue" d="M782.741,-112.418C775.371,-98.4557 758.899,-70.8894 737,-56 700.663,-31.2938 650.787,-20.0092 617.079,-14.9503"/>
<polygon fill="midnightblue" stroke="midnightblue" points="617.557,-11.4831 607.17,-13.5721 616.593,-18.4164 617.557,-11.4831"/>
</g>
<!-- Node16&#45;&gt;Node9 -->
<g id="edge24" class="edge"><title>Node16&#45;&gt;Node9</title>
<path fill="none" stroke="midnightblue" d="M769.156,-112.481C740.006,-98.8557 680.09,-72.0641 627,-56 561.675,-36.234 482.812,-22.4577 439.476,-15.7225"/>
<polygon fill="midnightblue" stroke="midnightblue" points="439.922,-12.2502 429.509,-14.2007 438.866,-19.17 439.922,-12.2502"/>
</g>
<!-- Node16&#45;&gt;Node13 -->
<g id="edge25" class="edge"><title>Node16&#45;&gt;Node13</title>
<path fill="none" stroke="midnightblue" d="M790.374,-112.368C797.376,-94.4563 813.612,-52.9233 822.984,-28.9482"/>
<polygon fill="midnightblue" stroke="midnightblue" points="826.26,-30.1794 826.642,-19.5914 819.741,-27.6308 826.26,-30.1794"/>
</g>
<!-- Node17 -->
<g id="node18" class="node"><title>Node17</title>
<g id="a_node18"><a xlink:href="TaxonSet_8h.html" target="_top" xlink:title="TaxonSet.h">
<polygon fill="none" stroke="black" points="827.5,-56.5 827.5,-75.5 894.5,-75.5 894.5,-56.5 827.5,-56.5"/>
<text text-anchor="middle" x="861" y="-63.5" font-family="Helvetica,sans-Serif" font-size="10.00">TaxonSet.h</text>
</a>
</g>
</g>
<!-- Node16&#45;&gt;Node17 -->
<g id="edge27" class="edge"><title>Node16&#45;&gt;Node17</title>
<path fill="none" stroke="midnightblue" d="M798.889,-112.324C810.15,-104.107 827.287,-91.6017 840.709,-81.8069"/>
<polygon fill="midnightblue" stroke="midnightblue" points="842.88,-84.5559 848.894,-75.8339 838.753,-78.9014 842.88,-84.5559"/>
</g>
<!-- Node17&#45;&gt;Node5 -->
<g id="edge30" class="edge"><title>Node17&#45;&gt;Node5</title>
<path fill="none" stroke="midnightblue" d="M827.384,-58.54C774.557,-48.3883 672.465,-28.7691 617.392,-18.1857"/>
<polygon fill="midnightblue" stroke="midnightblue" points="617.837,-14.7071 607.356,-16.257 616.516,-21.5814 617.837,-14.7071"/>
</g>
<!-- Node17&#45;&gt;Node13 -->
<g id="edge29" class="edge"><title>Node17&#45;&gt;Node13</title>
<path fill="none" stroke="midnightblue" d="M855.881,-56.083C851.592,-48.6127 845.342,-37.7244 840.058,-28.5199"/>
<polygon fill="midnightblue" stroke="midnightblue" points="843.038,-26.6811 835.024,-19.7511 836.967,-30.1662 843.038,-26.6811"/>
</g>
<!-- Node17&#45;&gt;Node14 -->
<g id="edge28" class="edge"><title>Node17&#45;&gt;Node14</title>
<path fill="none" stroke="midnightblue" d="M877.067,-56.324C892.958,-47.7428 917.507,-34.486 935.958,-24.5224"/>
<polygon fill="midnightblue" stroke="midnightblue" points="937.837,-27.4857 944.973,-19.6545 934.511,-21.3264 937.837,-27.4857"/>
</g>
<!-- Node18&#45;&gt;Node5 -->
<g id="edge32" class="edge"><title>Node18&#45;&gt;Node5</title>
<path fill="none" stroke="midnightblue" d="M239.858,-112.119C244.989,-97.7277 257.215,-69.5582 278,-56 320.97,-27.9709 471.613,-16.6014 542.538,-12.7228"/>
<polygon fill="midnightblue" stroke="midnightblue" points="543.003,-16.2033 552.806,-12.1834 542.636,-9.21293 543.003,-16.2033"/>
</g>
<!-- Node19 -->
<g id="node20" class="node"><title>Node19</title>
<polygon fill="none" stroke="#bfbfbf" points="206,-0.5 206,-19.5 250,-19.5 250,-0.5 206,-0.5"/>
<text text-anchor="middle" x="228" y="-7.5" font-family="Helvetica,sans-Serif" font-size="10.00">cmath</text>
</g>
<!-- Node18&#45;&gt;Node19 -->
<g id="edge33" class="edge"><title>Node18&#45;&gt;Node19</title>
<path fill="none" stroke="midnightblue" d="M236.294,-112.368C234.841,-94.617 231.491,-53.6664 229.522,-29.5974"/>
<polygon fill="midnightblue" stroke="midnightblue" points="233.007,-29.2727 228.703,-19.5914 226.03,-29.8436 233.007,-29.2727"/>
</g>
<!-- Node20 -->
<g id="node21" class="node"><title>Node20</title>
<g id="a_node21"><a xlink:href="Random_8h.html" target="_top" xlink:title="Random.h">
<polygon fill="none" stroke="black" points="131,-56.5 131,-75.5 193,-75.5 193,-56.5 131,-56.5"/>
<text text-anchor="middle" x="162" y="-63.5" font-family="Helvetica,sans-Serif" font-size="10.00">Random.h</text>
</a>
</g>
</g>
<!-- Node18&#45;&gt;Node20 -->
<g id="edge34" class="edge"><title>Node18&#45;&gt;Node20</title>
<path fill="none" stroke="midnightblue" d="M224.95,-112.324C213.537,-104.107 196.169,-91.6017 182.565,-81.8069"/>
<polygon fill="midnightblue" stroke="midnightblue" points="184.43,-78.8366 174.269,-75.8339 180.34,-84.5174 184.43,-78.8366"/>
</g>
<!-- Node20&#45;&gt;Node5 -->
<g id="edge37" class="edge"><title>Node20&#45;&gt;Node5</title>
<path fill="none" stroke="midnightblue" d="M193.076,-60.9853C268.494,-51.2424 460.996,-26.3737 542.567,-15.8359"/>
<polygon fill="midnightblue" stroke="midnightblue" points="543.393,-19.2583 552.862,-14.5058 542.496,-12.316 543.393,-19.2583"/>
</g>
<!-- Node20&#45;&gt;Node9 -->
<g id="edge36" class="edge"><title>Node20&#45;&gt;Node9</title>
<path fill="none" stroke="midnightblue" d="M193.029,-58.1609C239.476,-47.9236 326.683,-28.7024 374.163,-18.2376"/>
<polygon fill="midnightblue" stroke="midnightblue" points="375.207,-21.5916 384.219,-16.0211 373.7,-14.7556 375.207,-21.5916"/>
</g>
<!-- Node20&#45;&gt;Node19 -->
<g id="edge35" class="edge"><title>Node20&#45;&gt;Node19</title>
<path fill="none" stroke="midnightblue" d="M172.604,-56.324C182.456,-48.2631 197.351,-36.0765 209.215,-26.3695"/>
<polygon fill="midnightblue" stroke="midnightblue" points="211.68,-28.8752 217.203,-19.8339 207.247,-23.4575 211.68,-28.8752"/>
</g>
<!-- Node21 -->
<g id="node22" class="node"><title>Node21</title>
<polygon fill="none" stroke="#bfbfbf" points="136,-0.5 136,-19.5 188,-19.5 188,-0.5 136,-0.5"/>
<text text-anchor="middle" x="162" y="-7.5" font-family="Helvetica,sans-Serif" font-size="10.00">sstream</text>
</g>
<!-- Node20&#45;&gt;Node21 -->
<g id="edge38" class="edge"><title>Node20&#45;&gt;Node21</title>
<path fill="none" stroke="midnightblue" d="M162,-56.083C162,-49.0059 162,-38.8611 162,-29.9865"/>
<polygon fill="midnightblue" stroke="midnightblue" points="165.5,-29.751 162,-19.7511 158.5,-29.7511 165.5,-29.751"/>
</g>
<!-- Node22 -->
<g id="node23" class="node"><title>Node22</title>
<polygon fill="none" stroke="#bfbfbf" points="0,-0.5 0,-19.5 50,-19.5 50,-0.5 0,-0.5"/>
<text text-anchor="middle" x="25" y="-7.5" font-family="Helvetica,sans-Serif" font-size="10.00">iomanip</text>
</g>
<!-- Node20&#45;&gt;Node22 -->
<g id="edge39" class="edge"><title>Node20&#45;&gt;Node22</title>
<path fill="none" stroke="midnightblue" d="M140.292,-56.4435C117.645,-47.5171 81.9279,-33.4387 56.2482,-23.3168"/>
<polygon fill="midnightblue" stroke="midnightblue" points="57.1934,-19.9273 46.6065,-19.5164 54.6264,-26.4397 57.1934,-19.9273"/>
</g>
<!-- Node23 -->
<g id="node24" class="node"><title>Node23</title>
<polygon fill="none" stroke="#bfbfbf" points="68,-0.5 68,-19.5 118,-19.5 118,-0.5 68,-0.5"/>
<text text-anchor="middle" x="93" y="-7.5" font-family="Helvetica,sans-Serif" font-size="10.00">fstream</text>
</g>
<!-- Node20&#45;&gt;Node23 -->
<g id="edge40" class="edge"><title>Node20&#45;&gt;Node23</title>
<path fill="none" stroke="midnightblue" d="M150.914,-56.324C140.514,-48.1849 124.739,-35.8395 112.278,-26.0874"/>
<polygon fill="midnightblue" stroke="midnightblue" points="114.32,-23.2407 104.288,-19.8339 110.006,-28.7533 114.32,-23.2407"/>
</g>
<!-- Node25&#45;&gt;Node10 -->
<g id="edge45" class="edge"><title>Node25&#45;&gt;Node10</title>
<path fill="none" stroke="midnightblue" d="M421.449,-224.083C426.014,-216.613 432.668,-205.724 438.293,-196.52"/>
<polygon fill="midnightblue" stroke="midnightblue" points="441.424,-198.109 443.652,-187.751 435.451,-194.459 441.424,-198.109"/>
</g>
<!-- Node25&#45;&gt;Node18 -->
<g id="edge44" class="edge"><title>Node25&#45;&gt;Node18</title>
<path fill="none" stroke="midnightblue" d="M409.711,-224.245C399.459,-210.534 377.874,-183.919 354,-168 331.423,-152.946 303.083,-141.881 279.95,-134.491"/>
<polygon fill="midnightblue" stroke="midnightblue" points="280.974,-131.144 270.386,-131.547 278.915,-137.834 280.974,-131.144"/>
</g>
<!-- Node26&#45;&gt;Node25 -->
<g id="edge47" class="edge"><title>Node26&#45;&gt;Node25</title>
<path fill="none" stroke="midnightblue" d="M309.178,-280.399C332.563,-270.461 363.612,-257.265 386.206,-247.662"/>
<polygon fill="midnightblue" stroke="midnightblue" points="387.794,-250.79 395.629,-243.658 385.056,-244.348 387.794,-250.79"/>
</g>
<!-- Node27&#45;&gt;Node2 -->
<g id="edge49" class="edge"><title>Node27&#45;&gt;Node2</title>
<path fill="none" stroke="midnightblue" d="M590.145,-352.734C584.693,-342.89 575.704,-326.66 568.781,-314.159"/>
<polygon fill="midnightblue" stroke="midnightblue" points="571.685,-312.179 563.778,-305.127 565.561,-315.571 571.685,-312.179"/>
</g>
<!-- Node27&#45;&gt;Node4 -->
<g id="edge55" class="edge"><title>Node27&#45;&gt;Node4</title>
<path fill="none" stroke="midnightblue" d="M604.707,-352.796C614.557,-343.427 629.525,-327.618 638,-311 657.13,-273.488 665.142,-224.08 668.239,-197.625"/>
<polygon fill="midnightblue" stroke="midnightblue" points="671.738,-197.815 669.311,-187.502 664.777,-197.078 671.738,-197.815"/>
</g>
<!-- Node28 -->
<g id="node29" class="node"><title>Node28</title>
<g id="a_node29"><a xlink:href="GTRProfileProcess_8h.html" target="_top" xlink:title="GTRProfileProcess.h">
<polygon fill="none" stroke="black" points="361,-286 361,-305 471,-305 471,-286 361,-286"/>
<text text-anchor="middle" x="416" y="-293" font-family="Helvetica,sans-Serif" font-size="10.00">GTRProfileProcess.h</text>
</a>
</g>
</g>
<!-- Node27&#45;&gt;Node28 -->
<g id="edge50" class="edge"><title>Node27&#45;&gt;Node28</title>
<path fill="none" stroke="midnightblue" d="M571.23,-352.869C539.849,-341.473 484.441,-321.353 449.01,-308.487"/>
<polygon fill="midnightblue" stroke="midnightblue" points="450.177,-305.187 439.583,-305.064 447.788,-311.767 450.177,-305.187"/>
</g>
<!-- Node28&#45;&gt;Node25 -->
<g id="edge54" class="edge"><title>Node28&#45;&gt;Node25</title>
<path fill="none" stroke="midnightblue" d="M416,-285.975C416,-277.58 416,-264.481 416,-253.663"/>
<polygon fill="midnightblue" stroke="midnightblue" points="419.5,-253.509 416,-243.509 412.5,-253.509 419.5,-253.509"/>
</g>
<!-- Node29 -->
<g id="node30" class="node"><title>Node29</title>
<g id="a_node30"><a xlink:href="GTRSubMatrix_8h.html" target="_top" xlink:title="GTRSubMatrix.h">
<polygon fill="none" stroke="black" points="255,-168.5 255,-187.5 345,-187.5 345,-168.5 255,-168.5"/>
<text text-anchor="middle" x="300" y="-175.5" font-family="Helvetica,sans-Serif" font-size="10.00">GTRSubMatrix.h</text>
</a>
</g>
</g>
<!-- Node28&#45;&gt;Node29 -->
<g id="edge51" class="edge"><title>Node28&#45;&gt;Node29</title>
<path fill="none" stroke="midnightblue" d="M402.545,-285.995C388.361,-276.671 365.789,-260.788 349,-244 334.223,-229.224 320.168,-209.83 310.931,-196.083"/>
<polygon fill="midnightblue" stroke="midnightblue" points="313.772,-194.032 305.357,-187.595 307.92,-197.875 313.772,-194.032"/>
</g>
<!-- Node29&#45;&gt;Node12 -->
<g id="edge52" class="edge"><title>Node29&#45;&gt;Node12</title>
<path fill="none" stroke="midnightblue" d="M301.829,-168.36C304.666,-155.688 310.678,-131.458 319,-112 323.08,-102.46 328.741,-92.4099 333.74,-84.2336"/>
<polygon fill="midnightblue" stroke="midnightblue" points="336.787,-85.9624 339.168,-75.6386 330.869,-82.2243 336.787,-85.9624"/>
</g>
<!-- Node29&#45;&gt;Node18 -->
<g id="edge53" class="edge"><title>Node29&#45;&gt;Node18</title>
<path fill="none" stroke="midnightblue" d="M289.878,-168.324C280.474,-160.263 266.256,-148.077 254.931,-138.369"/>
<polygon fill="midnightblue" stroke="midnightblue" points="257.177,-135.684 247.306,-131.834 252.621,-140.999 257.177,-135.684"/>
</g>
<!-- Node30&#45;&gt;Node26 -->
<g id="edge58" class="edge"><title>Node30&#45;&gt;Node26</title>
<path fill="none" stroke="midnightblue" d="M279.132,-347.396C278.65,-339.56 278.037,-329.596 277.481,-320.565"/>
<polygon fill="midnightblue" stroke="midnightblue" points="280.974,-320.343 276.866,-310.577 273.987,-320.773 280.974,-320.343"/>
</g>
<!-- Node30&#45;&gt;Node28 -->
<g id="edge57" class="edge"><title>Node30&#45;&gt;Node28</title>
<path fill="none" stroke="midnightblue" d="M309.51,-347.396C333.162,-336.092 366.076,-320.361 389.03,-309.39"/>
<polygon fill="midnightblue" stroke="midnightblue" points="390.688,-312.477 398.201,-305.007 387.669,-306.161 390.688,-312.477"/>
</g>
</g>
</svg>
