<?xml version="1.0" encoding="UTF-8" standalone="no"?>
<!DOCTYPE svg PUBLIC "-//W3C//DTD SVG 1.1//EN"
 "http://www.w3.org/Graphics/SVG/1.1/DTD/svg11.dtd">
<!-- Generated by graphviz version 2.38.0 (20140413.2041)
 -->
<!-- Title: GeneralPathSuffStatMatrixOneProfileProcess.cpp Pages: 1 -->
<svg width="681pt" height="453pt"
 viewBox="0.00 0.00 680.50 453.00" xmlns="http://www.w3.org/2000/svg" xmlns:xlink="http://www.w3.org/1999/xlink">
<g id="graph0" class="graph" transform="scale(1 1) rotate(0) translate(4 449)">
<title>GeneralPathSuffStatMatrixOneProfileProcess.cpp</title>
<!-- Node0 -->
<g id="node1" class="node"><title>Node0</title>
<polygon fill="#bfbfbf" stroke="black" points="343.5,-414.5 343.5,-444.5 477.5,-444.5 477.5,-414.5 343.5,-414.5"/>
<text text-anchor="start" x="351.5" y="-432.5" font-family="Helvetica,sans-Serif" font-size="10.00">GeneralPathSuffStatMatrix</text>
<text text-anchor="middle" x="410.5" y="-421.5" font-family="Helvetica,sans-Serif" font-size="10.00">OneProfileProcess.cpp</text>
</g>
<!-- Node1 -->
<g id="node2" class="node"><title>Node1</title>
<g id="a_node2"><a xlink:href="GeneralPathSuffStatMatrixOneProfileProcess_8h.html" target="_top" xlink:title="GeneralPathSuffStatMatrix\lOneProfileProcess.h">
<polygon fill="none" stroke="black" points="296.5,-347.5 296.5,-377.5 430.5,-377.5 430.5,-347.5 296.5,-347.5"/>
<text text-anchor="start" x="304.5" y="-365.5" font-family="Helvetica,sans-Serif" font-size="10.00">GeneralPathSuffStatMatrix</text>
<text text-anchor="middle" x="363.5" y="-354.5" font-family="Helvetica,sans-Serif" font-size="10.00">OneProfileProcess.h</text>
</a>
</g>
</g>
<!-- Node0&#45;&gt;Node1 -->
<g id="edge1" class="edge"><title>Node0&#45;&gt;Node1</title>
<path fill="none" stroke="midnightblue" d="M400.302,-414.396C394.266,-406.049 386.485,-395.287 379.633,-385.811"/>
<polygon fill="midnightblue" stroke="midnightblue" points="382.374,-383.629 373.678,-377.577 376.702,-387.731 382.374,-383.629"/>
</g>
<!-- Node7 -->
<g id="node8" class="node"><title>Node7</title>
<g id="a_node8"><a xlink:href="Random_8h.html" target="_top" xlink:title="Random.h">
<polygon fill="none" stroke="black" points="426.5,-112.5 426.5,-131.5 488.5,-131.5 488.5,-112.5 426.5,-112.5"/>
<text text-anchor="middle" x="457.5" y="-119.5" font-family="Helvetica,sans-Serif" font-size="10.00">Random.h</text>
</a>
</g>
</g>
<!-- Node0&#45;&gt;Node7 -->
<g id="edge32" class="edge"><title>Node0&#45;&gt;Node7</title>
<path fill="none" stroke="midnightblue" d="M420.046,-414.477C426.36,-404.642 434.388,-390.982 439.5,-378 453.128,-343.393 458.5,-333.694 458.5,-296.5 458.5,-296.5 458.5,-296.5 458.5,-233 458.5,-200.947 458.07,-163.642 457.774,-141.748"/>
<polygon fill="midnightblue" stroke="midnightblue" points="461.271,-141.507 457.631,-131.558 454.272,-141.606 461.271,-141.507"/>
</g>
<!-- Node2 -->
<g id="node3" class="node"><title>Node2</title>
<g id="a_node3"><a xlink:href="GeneralPathSuffStatMatrixProfileProcess_8h.html" target="_top" xlink:title="GeneralPathSuffStatMatrix\lProfileProcess.h">
<polygon fill="none" stroke="black" points="144.5,-280.5 144.5,-310.5 278.5,-310.5 278.5,-280.5 144.5,-280.5"/>
<text text-anchor="start" x="152.5" y="-298.5" font-family="Helvetica,sans-Serif" font-size="10.00">GeneralPathSuffStatMatrix</text>
<text text-anchor="middle" x="211.5" y="-287.5" font-family="Helvetica,sans-Serif" font-size="10.00">ProfileProcess.h</text>
</a>
</g>
</g>
<!-- Node1&#45;&gt;Node2 -->
<g id="edge2" class="edge"><title>Node1&#45;&gt;Node2</title>
<path fill="none" stroke="midnightblue" d="M330.518,-347.396C308.011,-337.771 277.997,-324.936 253.741,-314.564"/>
<polygon fill="midnightblue" stroke="midnightblue" points="254.988,-311.29 244.417,-310.577 252.236,-317.727 254.988,-311.29"/>
</g>
<!-- Node20 -->
<g id="node21" class="node"><title>Node20</title>
<g id="a_node21"><a xlink:href="MatrixOneProfileProcess_8h.html" target="_top" xlink:title="MatrixOneProfileProcess.h">
<polygon fill="none" stroke="black" points="296.5,-286 296.5,-305 430.5,-305 430.5,-286 296.5,-286"/>
<text text-anchor="middle" x="363.5" y="-293" font-family="Helvetica,sans-Serif" font-size="10.00">MatrixOneProfileProcess.h</text>
</a>
</g>
</g>
<!-- Node1&#45;&gt;Node20 -->
<g id="edge27" class="edge"><title>Node1&#45;&gt;Node20</title>
<path fill="none" stroke="midnightblue" d="M363.5,-347.396C363.5,-338.064 363.5,-325.714 363.5,-315.517"/>
<polygon fill="midnightblue" stroke="midnightblue" points="367,-315.195 363.5,-305.195 360,-315.195 367,-315.195"/>
</g>
<!-- Node3 -->
<g id="node4" class="node"><title>Node3</title>
<g id="a_node4"><a xlink:href="MatrixProfileProcess_8h.html" target="_top" xlink:title="MatrixProfileProcess.h">
<polygon fill="none" stroke="black" points="176.5,-224.5 176.5,-243.5 292.5,-243.5 292.5,-224.5 176.5,-224.5"/>
<text text-anchor="middle" x="234.5" y="-231.5" font-family="Helvetica,sans-Serif" font-size="10.00">MatrixProfileProcess.h</text>
</a>
</g>
</g>
<!-- Node2&#45;&gt;Node3 -->
<g id="edge3" class="edge"><title>Node2&#45;&gt;Node3</title>
<path fill="none" stroke="midnightblue" d="M216.951,-280.399C220.121,-272.199 224.148,-261.781 227.544,-252.994"/>
<polygon fill="midnightblue" stroke="midnightblue" points="230.812,-254.247 231.153,-243.658 224.283,-251.723 230.812,-254.247"/>
</g>
<!-- Node4 -->
<g id="node5" class="node"><title>Node4</title>
<g id="a_node5"><a xlink:href="SubMatrix_8h.html" target="_top" xlink:title="SubMatrix.h">
<polygon fill="none" stroke="black" points="297,-168.5 297,-187.5 366,-187.5 366,-168.5 297,-168.5"/>
<text text-anchor="middle" x="331.5" y="-175.5" font-family="Helvetica,sans-Serif" font-size="10.00">SubMatrix.h</text>
</a>
</g>
</g>
<!-- Node3&#45;&gt;Node4 -->
<g id="edge4" class="edge"><title>Node3&#45;&gt;Node4</title>
<path fill="none" stroke="midnightblue" d="M250.085,-224.324C265.499,-215.743 289.312,-202.486 307.21,-192.522"/>
<polygon fill="midnightblue" stroke="midnightblue" points="308.919,-195.577 315.954,-187.655 305.514,-189.461 308.919,-195.577"/>
</g>
<!-- Node12 -->
<g id="node13" class="node"><title>Node12</title>
<g id="a_node13"><a xlink:href="ProfileProcess_8h.html" target="_top" xlink:title="ProfileProcess.h">
<polygon fill="none" stroke="black" points="190,-168.5 190,-187.5 279,-187.5 279,-168.5 190,-168.5"/>
<text text-anchor="middle" x="234.5" y="-175.5" font-family="Helvetica,sans-Serif" font-size="10.00">ProfileProcess.h</text>
</a>
</g>
</g>
<!-- Node3&#45;&gt;Node12 -->
<g id="edge14" class="edge"><title>Node3&#45;&gt;Node12</title>
<path fill="none" stroke="midnightblue" d="M234.5,-224.083C234.5,-217.006 234.5,-206.861 234.5,-197.986"/>
<polygon fill="midnightblue" stroke="midnightblue" points="238,-197.751 234.5,-187.751 231,-197.751 238,-197.751"/>
</g>
<!-- Node5 -->
<g id="node6" class="node"><title>Node5</title>
<polygon fill="none" stroke="#bfbfbf" points="262.5,-0.5 262.5,-19.5 316.5,-19.5 316.5,-0.5 262.5,-0.5"/>
<text text-anchor="middle" x="289.5" y="-7.5" font-family="Helvetica,sans-Serif" font-size="10.00">iostream</text>
</g>
<!-- Node4&#45;&gt;Node5 -->
<g id="edge5" class="edge"><title>Node4&#45;&gt;Node5</title>
<path fill="none" stroke="midnightblue" d="M329.242,-168.075C322.631,-141.945 303.216,-65.2106 294.2,-29.577"/>
<polygon fill="midnightblue" stroke="midnightblue" points="297.514,-28.4041 291.668,-19.5681 290.728,-30.1211 297.514,-28.4041"/>
</g>
<!-- Node6 -->
<g id="node7" class="node"><title>Node6</title>
<polygon fill="none" stroke="#bfbfbf" points="346.5,-56.5 346.5,-75.5 390.5,-75.5 390.5,-56.5 346.5,-56.5"/>
<text text-anchor="middle" x="368.5" y="-63.5" font-family="Helvetica,sans-Serif" font-size="10.00">cmath</text>
</g>
<!-- Node4&#45;&gt;Node6 -->
<g id="edge6" class="edge"><title>Node4&#45;&gt;Node6</title>
<path fill="none" stroke="midnightblue" d="M334.403,-168.368C340.401,-150.537 354.273,-109.295 362.354,-85.2717"/>
<polygon fill="midnightblue" stroke="midnightblue" points="365.739,-86.1855 365.61,-75.5914 359.105,-83.9537 365.739,-86.1855"/>
</g>
<!-- Node4&#45;&gt;Node7 -->
<g id="edge7" class="edge"><title>Node4&#45;&gt;Node7</title>
<path fill="none" stroke="midnightblue" d="M351.465,-168.444C372.109,-159.596 404.563,-145.687 428.132,-135.586"/>
<polygon fill="midnightblue" stroke="midnightblue" points="429.816,-138.673 437.628,-131.516 427.058,-132.239 429.816,-138.673"/>
</g>
<!-- Node7&#45;&gt;Node5 -->
<g id="edge10" class="edge"><title>Node7&#45;&gt;Node5</title>
<path fill="none" stroke="midnightblue" d="M456.527,-112.082C454.535,-98.1478 448.713,-71.2333 432.5,-56 403.7,-28.9406 358.759,-18.1495 326.955,-13.8479"/>
<polygon fill="midnightblue" stroke="midnightblue" points="327.059,-10.3356 316.715,-12.6237 326.229,-17.2861 327.059,-10.3356"/>
</g>
<!-- Node7&#45;&gt;Node6 -->
<g id="edge8" class="edge"><title>Node7&#45;&gt;Node6</title>
<path fill="none" stroke="midnightblue" d="M443.201,-112.324C429.317,-103.9 408.008,-90.9709 391.696,-81.0741"/>
<polygon fill="midnightblue" stroke="midnightblue" points="393.129,-77.8495 382.764,-75.6545 389.498,-83.8341 393.129,-77.8495"/>
</g>
<!-- Node8 -->
<g id="node9" class="node"><title>Node8</title>
<polygon fill="none" stroke="#bfbfbf" points="140,-0.5 140,-19.5 185,-19.5 185,-0.5 140,-0.5"/>
<text text-anchor="middle" x="162.5" y="-7.5" font-family="Helvetica,sans-Serif" font-size="10.00">cstdlib</text>
</g>
<!-- Node7&#45;&gt;Node8 -->
<g id="edge9" class="edge"><title>Node7&#45;&gt;Node8</title>
<path fill="none" stroke="midnightblue" d="M452.376,-112.145C443.562,-97.7913 424.084,-69.6746 399.5,-56 321.053,-12.364 286.437,-39.0139 195.034,-20.0634"/>
<polygon fill="midnightblue" stroke="midnightblue" points="195.631,-16.611 185.112,-17.875 194.123,-23.4467 195.631,-16.611"/>
</g>
<!-- Node9 -->
<g id="node10" class="node"><title>Node9</title>
<polygon fill="none" stroke="#bfbfbf" points="484.5,-56.5 484.5,-75.5 536.5,-75.5 536.5,-56.5 484.5,-56.5"/>
<text text-anchor="middle" x="510.5" y="-63.5" font-family="Helvetica,sans-Serif" font-size="10.00">sstream</text>
</g>
<!-- Node7&#45;&gt;Node9 -->
<g id="edge11" class="edge"><title>Node7&#45;&gt;Node9</title>
<path fill="none" stroke="midnightblue" d="M466.252,-112.083C473.97,-104.22 485.405,-92.5688 494.717,-83.0813"/>
<polygon fill="midnightblue" stroke="midnightblue" points="497.404,-85.3396 501.911,-75.7511 492.408,-80.4363 497.404,-85.3396"/>
</g>
<!-- Node10 -->
<g id="node11" class="node"><title>Node10</title>
<polygon fill="none" stroke="#bfbfbf" points="554.5,-56.5 554.5,-75.5 604.5,-75.5 604.5,-56.5 554.5,-56.5"/>
<text text-anchor="middle" x="579.5" y="-63.5" font-family="Helvetica,sans-Serif" font-size="10.00">iomanip</text>
</g>
<!-- Node7&#45;&gt;Node10 -->
<g id="edge12" class="edge"><title>Node7&#45;&gt;Node10</title>
<path fill="none" stroke="midnightblue" d="M476.831,-112.444C496.82,-103.596 528.243,-89.6875 551.064,-79.5865"/>
<polygon fill="midnightblue" stroke="midnightblue" points="552.532,-82.7645 560.259,-75.5164 549.698,-76.3635 552.532,-82.7645"/>
</g>
<!-- Node11 -->
<g id="node12" class="node"><title>Node11</title>
<polygon fill="none" stroke="#bfbfbf" points="622.5,-56.5 622.5,-75.5 672.5,-75.5 672.5,-56.5 622.5,-56.5"/>
<text text-anchor="middle" x="647.5" y="-63.5" font-family="Helvetica,sans-Serif" font-size="10.00">fstream</text>
</g>
<!-- Node7&#45;&gt;Node11 -->
<g id="edge13" class="edge"><title>Node7&#45;&gt;Node11</title>
<path fill="none" stroke="midnightblue" d="M487.606,-112.444C521.511,-102.808 576.539,-87.168 612.376,-76.9826"/>
<polygon fill="midnightblue" stroke="midnightblue" points="613.727,-80.2374 622.389,-74.1368 611.813,-73.5041 613.727,-80.2374"/>
</g>
<!-- Node12&#45;&gt;Node5 -->
<g id="edge25" class="edge"><title>Node12&#45;&gt;Node5</title>
<path fill="none" stroke="midnightblue" d="M240.47,-168.419C246.332,-159.635 255.151,-145.409 260.5,-132 274.389,-97.1846 282.773,-53.975 286.734,-29.7457"/>
<polygon fill="midnightblue" stroke="midnightblue" points="290.207,-30.1904 288.287,-19.7709 283.29,-29.1132 290.207,-30.1904"/>
</g>
<!-- Node13 -->
<g id="node14" class="node"><title>Node13</title>
<g id="a_node14"><a xlink:href="Chrono_8h.html" target="_top" xlink:title="Chrono.h">
<polygon fill="none" stroke="black" points="62.5,-56.5 62.5,-75.5 118.5,-75.5 118.5,-56.5 62.5,-56.5"/>
<text text-anchor="middle" x="90.5" y="-63.5" font-family="Helvetica,sans-Serif" font-size="10.00">Chrono.h</text>
</a>
</g>
</g>
<!-- Node12&#45;&gt;Node13 -->
<g id="edge15" class="edge"><title>Node12&#45;&gt;Node13</title>
<path fill="none" stroke="midnightblue" d="M189.977,-170.049C164.584,-163.959 133.859,-152.686 113.5,-132 101.309,-119.613 95.5484,-100.369 92.8452,-86.0306"/>
<polygon fill="midnightblue" stroke="midnightblue" points="96.2519,-85.157 91.2684,-75.8074 89.3337,-86.2241 96.2519,-85.157"/>
</g>
<!-- Node16 -->
<g id="node17" class="node"><title>Node16</title>
<g id="a_node17"><a xlink:href="StateSpace_8h.html" target="_top" xlink:title="StateSpace.h">
<polygon fill="none" stroke="black" points="122.5,-112.5 122.5,-131.5 198.5,-131.5 198.5,-112.5 122.5,-112.5"/>
<text text-anchor="middle" x="160.5" y="-119.5" font-family="Helvetica,sans-Serif" font-size="10.00">StateSpace.h</text>
</a>
</g>
</g>
<!-- Node12&#45;&gt;Node16 -->
<g id="edge20" class="edge"><title>Node12&#45;&gt;Node16</title>
<path fill="none" stroke="midnightblue" d="M222.611,-168.324C211.35,-160.107 194.213,-147.602 180.791,-137.807"/>
<polygon fill="midnightblue" stroke="midnightblue" points="182.747,-134.901 172.606,-131.834 178.62,-140.556 182.747,-134.901"/>
</g>
<!-- Node19 -->
<g id="node20" class="node"><title>Node19</title>
<polygon fill="none" stroke="#bfbfbf" points="217,-112.5 217,-131.5 252,-131.5 252,-112.5 217,-112.5"/>
<text text-anchor="middle" x="234.5" y="-119.5" font-family="Helvetica,sans-Serif" font-size="10.00">map</text>
</g>
<!-- Node12&#45;&gt;Node19 -->
<g id="edge26" class="edge"><title>Node12&#45;&gt;Node19</title>
<path fill="none" stroke="midnightblue" d="M234.5,-168.083C234.5,-161.006 234.5,-150.861 234.5,-141.986"/>
<polygon fill="midnightblue" stroke="midnightblue" points="238,-141.751 234.5,-131.751 231,-141.751 238,-141.751"/>
</g>
<!-- Node13&#45;&gt;Node5 -->
<g id="edge18" class="edge"><title>Node13&#45;&gt;Node5</title>
<path fill="none" stroke="midnightblue" d="M118.59,-57.3776C153.602,-47.8768 213.547,-31.6103 252.334,-21.0853"/>
<polygon fill="midnightblue" stroke="midnightblue" points="253.458,-24.407 262.192,-18.4102 251.624,-17.6513 253.458,-24.407"/>
</g>
<!-- Node13&#45;&gt;Node8 -->
<g id="edge19" class="edge"><title>Node13&#45;&gt;Node8</title>
<path fill="none" stroke="midnightblue" d="M102.068,-56.324C112.92,-48.1849 129.381,-35.8395 142.383,-26.0874"/>
<polygon fill="midnightblue" stroke="midnightblue" points="144.821,-28.6339 150.721,-19.8339 140.621,-23.0339 144.821,-28.6339"/>
</g>
<!-- Node14 -->
<g id="node15" class="node"><title>Node14</title>
<polygon fill="none" stroke="#bfbfbf" points="0,-0.5 0,-19.5 41,-19.5 41,-0.5 0,-0.5"/>
<text text-anchor="middle" x="20.5" y="-7.5" font-family="Helvetica,sans-Serif" font-size="10.00">ctime</text>
</g>
<!-- Node13&#45;&gt;Node14 -->
<g id="edge16" class="edge"><title>Node13&#45;&gt;Node14</title>
<path fill="none" stroke="midnightblue" d="M79.2533,-56.324C68.7026,-48.1849 52.6993,-35.8395 40.0578,-26.0874"/>
<polygon fill="midnightblue" stroke="midnightblue" points="42.007,-23.1707 31.9513,-19.8339 37.7314,-28.7132 42.007,-23.1707"/>
</g>
<!-- Node15 -->
<g id="node16" class="node"><title>Node15</title>
<polygon fill="none" stroke="#bfbfbf" points="59.5,-0.5 59.5,-19.5 121.5,-19.5 121.5,-0.5 59.5,-0.5"/>
<text text-anchor="middle" x="90.5" y="-7.5" font-family="Helvetica,sans-Serif" font-size="10.00">sys/time.h</text>
</g>
<!-- Node13&#45;&gt;Node15 -->
<g id="edge17" class="edge"><title>Node13&#45;&gt;Node15</title>
<path fill="none" stroke="midnightblue" d="M90.5,-56.083C90.5,-49.0059 90.5,-38.8611 90.5,-29.9865"/>
<polygon fill="midnightblue" stroke="midnightblue" points="94.0001,-29.751 90.5,-19.7511 87.0001,-29.7511 94.0001,-29.751"/>
</g>
<!-- Node17 -->
<g id="node18" class="node"><title>Node17</title>
<g id="a_node18"><a xlink:href="BiologicalSequences_8h.html" target="_top" xlink:title="BiologicalSequences.h">
<polygon fill="none" stroke="black" points="136.5,-56.5 136.5,-75.5 252.5,-75.5 252.5,-56.5 136.5,-56.5"/>
<text text-anchor="middle" x="194.5" y="-63.5" font-family="Helvetica,sans-Serif" font-size="10.00">BiologicalSequences.h</text>
</a>
</g>
</g>
<!-- Node16&#45;&gt;Node17 -->
<g id="edge21" class="edge"><title>Node16&#45;&gt;Node17</title>
<path fill="none" stroke="midnightblue" d="M166.114,-112.083C170.867,-104.534 177.818,-93.4948 183.652,-84.2298"/>
<polygon fill="midnightblue" stroke="midnightblue" points="186.624,-86.0783 188.99,-75.7511 180.7,-82.3486 186.624,-86.0783"/>
</g>
<!-- Node17&#45;&gt;Node5 -->
<g id="edge23" class="edge"><title>Node17&#45;&gt;Node5</title>
<path fill="none" stroke="midnightblue" d="M209.763,-56.324C224.721,-47.8215 247.755,-34.7288 265.227,-24.7975"/>
<polygon fill="midnightblue" stroke="midnightblue" points="267.31,-27.639 274.274,-19.6545 263.851,-21.5534 267.31,-27.639"/>
</g>
<!-- Node17&#45;&gt;Node8 -->
<g id="edge22" class="edge"><title>Node17&#45;&gt;Node8</title>
<path fill="none" stroke="midnightblue" d="M189.216,-56.083C184.789,-48.6127 178.337,-37.7244 172.882,-28.5199"/>
<polygon fill="midnightblue" stroke="midnightblue" points="175.795,-26.5697 167.686,-19.7511 169.773,-30.1383 175.795,-26.5697"/>
</g>
<!-- Node18 -->
<g id="node19" class="node"><title>Node18</title>
<polygon fill="none" stroke="#bfbfbf" points="203,-0.5 203,-19.5 244,-19.5 244,-0.5 203,-0.5"/>
<text text-anchor="middle" x="223.5" y="-7.5" font-family="Helvetica,sans-Serif" font-size="10.00">string</text>
</g>
<!-- Node17&#45;&gt;Node18 -->
<g id="edge24" class="edge"><title>Node17&#45;&gt;Node18</title>
<path fill="none" stroke="midnightblue" d="M199.289,-56.083C203.258,-48.6913 209.025,-37.9533 213.935,-28.8111"/>
<polygon fill="midnightblue" stroke="midnightblue" points="217.153,-30.217 218.8,-19.7511 210.986,-26.9051 217.153,-30.217"/>
</g>
<!-- Node20&#45;&gt;Node3 -->
<g id="edge28" class="edge"><title>Node20&#45;&gt;Node3</title>
<path fill="none" stroke="midnightblue" d="M345.017,-285.975C323.368,-275.99 287.287,-259.348 262.268,-247.807"/>
<polygon fill="midnightblue" stroke="midnightblue" points="263.495,-244.519 252.948,-243.509 260.563,-250.876 263.495,-244.519"/>
</g>
<!-- Node21 -->
<g id="node22" class="node"><title>Node21</title>
<g id="a_node22"><a xlink:href="OneProfileProcess_8h.html" target="_top" xlink:title="OneProfileProcess.h">
<polygon fill="none" stroke="black" points="311,-224.5 311,-243.5 418,-243.5 418,-224.5 311,-224.5"/>
<text text-anchor="middle" x="364.5" y="-231.5" font-family="Helvetica,sans-Serif" font-size="10.00">OneProfileProcess.h</text>
</a>
</g>
</g>
<!-- Node20&#45;&gt;Node21 -->
<g id="edge29" class="edge"><title>Node20&#45;&gt;Node21</title>
<path fill="none" stroke="midnightblue" d="M363.643,-285.975C363.784,-277.58 364.005,-264.481 364.186,-253.663"/>
<polygon fill="midnightblue" stroke="midnightblue" points="367.688,-253.567 364.357,-243.509 360.689,-253.449 367.688,-253.567"/>
</g>
<!-- Node21&#45;&gt;Node6 -->
<g id="edge30" class="edge"><title>Node21&#45;&gt;Node6</title>
<path fill="none" stroke="midnightblue" d="M366.982,-224.467C369.457,-215.485 373.085,-200.888 374.5,-188 378.464,-151.886 374.347,-109.419 371.25,-85.6137"/>
<polygon fill="midnightblue" stroke="midnightblue" points="374.692,-84.9601 369.851,-75.5363 367.759,-85.9226 374.692,-84.9601"/>
</g>
<!-- Node21&#45;&gt;Node12 -->
<g id="edge31" class="edge"><title>Node21&#45;&gt;Node12</title>
<path fill="none" stroke="midnightblue" d="M343.901,-224.444C322.507,-215.557 288.819,-201.563 264.476,-191.451"/>
<polygon fill="midnightblue" stroke="midnightblue" points="265.58,-188.12 255.003,-187.516 262.895,-194.585 265.58,-188.12"/>
</g>
</g>
</svg>
