<?xml version="1.0" encoding="UTF-8" standalone="no"?>
<!DOCTYPE svg PUBLIC "-//W3C//DTD SVG 1.1//EN"
 "http://www.w3.org/Graphics/SVG/1.1/DTD/svg11.dtd">
<!-- Generated by graphviz version 2.38.0 (20140413.2041)
 -->
<!-- Title: GeneralPathSuffStatMatrixProfileProcess.h Pages: 1 -->
<svg width="2368pt" height="430pt"
 viewBox="0.00 0.00 2368.00 430.00" xmlns="http://www.w3.org/2000/svg" xmlns:xlink="http://www.w3.org/1999/xlink">
<g id="graph0" class="graph" transform="scale(1 1) rotate(0) translate(4 426)">
<title>GeneralPathSuffStatMatrixProfileProcess.h</title>
<!-- Node18 -->
<g id="node1" class="node"><title>Node18</title>
<polygon fill="#bfbfbf" stroke="black" points="1481,-391.5 1481,-421.5 1615,-421.5 1615,-391.5 1481,-391.5"/>
<text text-anchor="start" x="1489" y="-409.5" font-family="Helvetica,sans-Serif" font-size="10.00">GeneralPathSuffStatMatrix</text>
<text text-anchor="middle" x="1548" y="-398.5" font-family="Helvetica,sans-Serif" font-size="10.00">ProfileProcess.h</text>
</g>
<!-- Node19 -->
<g id="node2" class="node"><title>Node19</title>
<g id="a_node2"><a xlink:href="AACodonMutSelProfileProcess_8h.html" target="_top" xlink:title="AACodonMutSelProfileProcess.h">
<polygon fill="none" stroke="black" points="340.5,-330 340.5,-349 501.5,-349 501.5,-330 340.5,-330"/>
<text text-anchor="middle" x="421" y="-337" font-family="Helvetica,sans-Serif" font-size="10.00">AACodonMutSelProfileProcess.h</text>
</a>
</g>
</g>
<!-- Node18&#45;&gt;Node19 -->
<g id="edge1" class="edge"><title>Node18&#45;&gt;Node19</title>
<path fill="none" stroke="midnightblue" d="M1470.81,-401.048C1266.08,-389.24 710.658,-357.206 501.832,-345.162"/>
<polygon fill="midnightblue" stroke="midnightblue" points="1470.69,-404.547 1480.88,-401.629 1471.09,-397.559 1470.69,-404.547"/>
</g>
<!-- Node35 -->
<g id="node18" class="node"><title>Node35</title>
<g id="a_node18"><a xlink:href="GeneralPathSuffStatMatrixMixtureProfileProcess_8h.html" target="_top" xlink:title="GeneralPathSuffStatMatrix\lMixtureProfileProcess.h">
<polygon fill="none" stroke="black" points="1019,-324.5 1019,-354.5 1153,-354.5 1153,-324.5 1019,-324.5"/>
<text text-anchor="start" x="1027" y="-342.5" font-family="Helvetica,sans-Serif" font-size="10.00">GeneralPathSuffStatMatrix</text>
<text text-anchor="middle" x="1086" y="-331.5" font-family="Helvetica,sans-Serif" font-size="10.00">MixtureProfileProcess.h</text>
</a>
</g>
</g>
<!-- Node18&#45;&gt;Node35 -->
<g id="edge18" class="edge"><title>Node18&#45;&gt;Node35</title>
<path fill="none" stroke="midnightblue" d="M1470.81,-394.64C1382.01,-382.147 1237.64,-361.835 1153.26,-349.963"/>
<polygon fill="midnightblue" stroke="midnightblue" points="1470.43,-398.121 1480.82,-396.048 1471.41,-391.189 1470.43,-398.121"/>
</g>
<!-- Node51 -->
<g id="node34" class="node"><title>Node51</title>
<g id="a_node34"><a xlink:href="GeneralPathSuffStatMatrixSubstitutionProcess_8h.html" target="_top" xlink:title="GeneralPathSuffStatMatrix\lSubstitutionProcess.h">
<polygon fill="none" stroke="black" points="1384,-257.5 1384,-287.5 1518,-287.5 1518,-257.5 1384,-257.5"/>
<text text-anchor="start" x="1392" y="-275.5" font-family="Helvetica,sans-Serif" font-size="10.00">GeneralPathSuffStatMatrix</text>
<text text-anchor="middle" x="1451" y="-264.5" font-family="Helvetica,sans-Serif" font-size="10.00">SubstitutionProcess.h</text>
</a>
</g>
</g>
<!-- Node18&#45;&gt;Node51 -->
<g id="edge38" class="edge"><title>Node18&#45;&gt;Node51</title>
<path fill="none" stroke="midnightblue" d="M1531.61,-383.189C1511.52,-355.859 1478.1,-310.383 1461.31,-287.525"/>
<polygon fill="midnightblue" stroke="midnightblue" points="1528.88,-385.388 1537.62,-391.374 1534.52,-381.243 1528.88,-385.388"/>
</g>
<!-- Node56 -->
<g id="node39" class="node"><title>Node56</title>
<g id="a_node39"><a xlink:href="CodonMutSelProfileProcess_8h.html" target="_top" xlink:title="CodonMutSelProfileProcess.h">
<polygon fill="none" stroke="black" points="1588,-330 1588,-349 1736,-349 1736,-330 1588,-330"/>
<text text-anchor="middle" x="1662" y="-337" font-family="Helvetica,sans-Serif" font-size="10.00">CodonMutSelProfileProcess.h</text>
</a>
</g>
</g>
<!-- Node18&#45;&gt;Node56 -->
<g id="edge53" class="edge"><title>Node18&#45;&gt;Node56</title>
<path fill="none" stroke="midnightblue" d="M1581.66,-386.307C1603.38,-373.926 1630.55,-358.43 1647.08,-349.007"/>
<polygon fill="midnightblue" stroke="midnightblue" points="1579.69,-383.402 1572.74,-391.396 1583.16,-389.483 1579.69,-383.402"/>
</g>
<!-- Node58 -->
<g id="node41" class="node"><title>Node58</title>
<g id="a_node41"><a xlink:href="GeneralPathSuffStatGTRProfileProcess_8h.html" target="_top" xlink:title="GeneralPathSuffStatGTRProfile\lProcess.h">
<polygon fill="none" stroke="black" points="2052.5,-257.5 2052.5,-287.5 2207.5,-287.5 2207.5,-257.5 2052.5,-257.5"/>
<text text-anchor="start" x="2060.5" y="-275.5" font-family="Helvetica,sans-Serif" font-size="10.00">GeneralPathSuffStatGTRProfile</text>
<text text-anchor="middle" x="2130" y="-264.5" font-family="Helvetica,sans-Serif" font-size="10.00">Process.h</text>
</a>
</g>
</g>
<!-- Node18&#45;&gt;Node58 -->
<g id="edge57" class="edge"><title>Node18&#45;&gt;Node58</title>
<path fill="none" stroke="midnightblue" d="M1619.52,-389.279C1734.68,-363.161 1959.26,-312.224 2068.02,-287.556"/>
<polygon fill="midnightblue" stroke="midnightblue" points="1618.71,-385.873 1609.73,-391.499 1620.26,-392.7 1618.71,-385.873"/>
</g>
<!-- Node60 -->
<g id="node43" class="node"><title>Node60</title>
<g id="a_node43"><a xlink:href="GeneralPathSuffStatMatrixOneProfileProcess_8h.html" target="_top" xlink:title="GeneralPathSuffStatMatrix\lOneProfileProcess.h">
<polygon fill="none" stroke="black" points="2164,-324.5 2164,-354.5 2298,-354.5 2298,-324.5 2164,-324.5"/>
<text text-anchor="start" x="2172" y="-342.5" font-family="Helvetica,sans-Serif" font-size="10.00">GeneralPathSuffStatMatrix</text>
<text text-anchor="middle" x="2231" y="-331.5" font-family="Helvetica,sans-Serif" font-size="10.00">OneProfileProcess.h</text>
</a>
</g>
</g>
<!-- Node18&#45;&gt;Node60 -->
<g id="edge60" class="edge"><title>Node18&#45;&gt;Node60</title>
<path fill="none" stroke="midnightblue" d="M1625.3,-398.144C1760.2,-385.306 2036.37,-359.023 2163.82,-346.893"/>
<polygon fill="midnightblue" stroke="midnightblue" points="1624.67,-394.688 1615.04,-399.119 1625.33,-401.656 1624.67,-394.688"/>
</g>
<!-- Node20 -->
<g id="node3" class="node"><title>Node20</title>
<g id="a_node3"><a xlink:href="AACodonMutSelFiniteProfileProcess_8h.html" target="_top" xlink:title="AACodonMutSelFiniteProfile\lProcess.h">
<polygon fill="none" stroke="black" points="682.5,-257.5 682.5,-287.5 823.5,-287.5 823.5,-257.5 682.5,-257.5"/>
<text text-anchor="start" x="690.5" y="-275.5" font-family="Helvetica,sans-Serif" font-size="10.00">AACodonMutSelFiniteProfile</text>
<text text-anchor="middle" x="753" y="-264.5" font-family="Helvetica,sans-Serif" font-size="10.00">Process.h</text>
</a>
</g>
</g>
<!-- Node19&#45;&gt;Node20 -->
<g id="edge2" class="edge"><title>Node19&#45;&gt;Node20</title>
<path fill="none" stroke="midnightblue" d="M474.901,-327.947C531.393,-316.887 620.397,-299.461 682.449,-287.313"/>
<polygon fill="midnightblue" stroke="midnightblue" points="473.886,-324.579 464.745,-329.936 475.231,-331.449 473.886,-324.579"/>
</g>
<!-- Node27 -->
<g id="node10" class="node"><title>Node27</title>
<g id="a_node10"><a xlink:href="AACodonMutSelGeneProfileProcess_8h.html" target="_top" xlink:title="AACodonMutSelGeneProfile\lProcess.h">
<polygon fill="none" stroke="black" points="190,-257.5 190,-287.5 330,-287.5 330,-257.5 190,-257.5"/>
<text text-anchor="start" x="198" y="-275.5" font-family="Helvetica,sans-Serif" font-size="10.00">AACodonMutSelGeneProfile</text>
<text text-anchor="middle" x="260" y="-264.5" font-family="Helvetica,sans-Serif" font-size="10.00">Process.h</text>
</a>
</g>
</g>
<!-- Node19&#45;&gt;Node27 -->
<g id="edge9" class="edge"><title>Node19&#45;&gt;Node27</title>
<path fill="none" stroke="midnightblue" d="M390.182,-326.058C362.909,-315.047 323.142,-298.992 294.746,-287.528"/>
<polygon fill="midnightblue" stroke="midnightblue" points="389.037,-329.37 399.62,-329.869 391.658,-322.879 389.037,-329.37"/>
</g>
<!-- Node30 -->
<g id="node13" class="node"><title>Node30</title>
<g id="a_node13"><a xlink:href="AACodonMutSelProfileProcess_8cpp.html" target="_top" xlink:title="AACodonMutSelProfileProcess.cpp">
<polygon fill="none" stroke="black" points="0,-263 0,-282 172,-282 172,-263 0,-263"/>
<text text-anchor="middle" x="86" y="-270" font-family="Helvetica,sans-Serif" font-size="10.00">AACodonMutSelProfileProcess.cpp</text>
</a>
</g>
</g>
<!-- Node19&#45;&gt;Node30 -->
<g id="edge12" class="edge"><title>Node19&#45;&gt;Node30</title>
<path fill="none" stroke="midnightblue" d="M366.67,-327.958C300.735,-315.165 190.847,-293.843 129.971,-282.032"/>
<polygon fill="midnightblue" stroke="midnightblue" points="366.376,-331.467 376.86,-329.936 367.71,-324.595 366.376,-331.467"/>
</g>
<!-- Node31 -->
<g id="node14" class="node"><title>Node31</title>
<g id="a_node14"><a xlink:href="AACodonMutSelSBDPProfileProcess_8h.html" target="_top" xlink:title="AACodonMutSelSBDPProfile\lProcess.h">
<polygon fill="none" stroke="black" points="348.5,-257.5 348.5,-287.5 493.5,-287.5 493.5,-257.5 348.5,-257.5"/>
<text text-anchor="start" x="356.5" y="-275.5" font-family="Helvetica,sans-Serif" font-size="10.00">AACodonMutSelSBDPProfile</text>
<text text-anchor="middle" x="421" y="-264.5" font-family="Helvetica,sans-Serif" font-size="10.00">Process.h</text>
</a>
</g>
</g>
<!-- Node19&#45;&gt;Node31 -->
<g id="edge13" class="edge"><title>Node19&#45;&gt;Node31</title>
<path fill="none" stroke="midnightblue" d="M421,-319.411C421,-309.222 421,-296.901 421,-287.589"/>
<polygon fill="midnightblue" stroke="midnightblue" points="417.5,-319.734 421,-329.734 424.5,-319.734 417.5,-319.734"/>
</g>
<!-- Node21 -->
<g id="node4" class="node"><title>Node21</title>
<g id="a_node4"><a xlink:href="AACodonMutSelFiniteSubstitutionProcess_8h.html" target="_top" xlink:title="AACodonMutSelFiniteSubstitution\lProcess.h">
<polygon fill="none" stroke="black" points="1078.5,-190.5 1078.5,-220.5 1243.5,-220.5 1243.5,-190.5 1078.5,-190.5"/>
<text text-anchor="start" x="1086.5" y="-208.5" font-family="Helvetica,sans-Serif" font-size="10.00">AACodonMutSelFiniteSubstitution</text>
<text text-anchor="middle" x="1161" y="-197.5" font-family="Helvetica,sans-Serif" font-size="10.00">Process.h</text>
</a>
</g>
</g>
<!-- Node20&#45;&gt;Node21 -->
<g id="edge3" class="edge"><title>Node20&#45;&gt;Node21</title>
<path fill="none" stroke="midnightblue" d="M833.769,-256.899C939.331,-239.386 967.325,-236.767 1069,-221 1072.04,-220.529 1075.13,-220.048 1078.25,-219.562"/>
<polygon fill="midnightblue" stroke="midnightblue" points="832.941,-253.489 823.652,-258.584 834.091,-260.394 832.941,-253.489"/>
</g>
<!-- Node22 -->
<g id="node5" class="node"><title>Node22</title>
<g id="a_node5"><a xlink:href="AACodonMutSelFinitePhyloProcess_8h.html" target="_top" xlink:title="AACodonMutSelFinitePhylo\lProcess.h">
<polygon fill="none" stroke="black" points="1106,-123.5 1106,-153.5 1244,-153.5 1244,-123.5 1106,-123.5"/>
<text text-anchor="start" x="1114" y="-141.5" font-family="Helvetica,sans-Serif" font-size="10.00">AACodonMutSelFinitePhylo</text>
<text text-anchor="middle" x="1175" y="-130.5" font-family="Helvetica,sans-Serif" font-size="10.00">Process.h</text>
</a>
</g>
</g>
<!-- Node21&#45;&gt;Node22 -->
<g id="edge4" class="edge"><title>Node21&#45;&gt;Node22</title>
<path fill="none" stroke="midnightblue" d="M1166.19,-180.403C1168.14,-171.37 1170.28,-161.408 1171.97,-153.577"/>
<polygon fill="midnightblue" stroke="midnightblue" points="1162.72,-179.883 1164.04,-190.396 1169.56,-181.357 1162.72,-179.883"/>
</g>
<!-- Node23 -->
<g id="node6" class="node"><title>Node23</title>
<g id="a_node6"><a xlink:href="AACodonMutSelFinitePhyloProcess_8cpp.html" target="_top" xlink:title="AACodonMutSelFinitePhylo\lProcess.cpp">
<polygon fill="none" stroke="black" points="1108,-56.5 1108,-86.5 1246,-86.5 1246,-56.5 1108,-56.5"/>
<text text-anchor="start" x="1116" y="-74.5" font-family="Helvetica,sans-Serif" font-size="10.00">AACodonMutSelFinitePhylo</text>
<text text-anchor="middle" x="1177" y="-63.5" font-family="Helvetica,sans-Serif" font-size="10.00">Process.cpp</text>
</a>
</g>
</g>
<!-- Node22&#45;&gt;Node23 -->
<g id="edge5" class="edge"><title>Node22&#45;&gt;Node23</title>
<path fill="none" stroke="midnightblue" d="M1175.75,-113.108C1176.03,-104.154 1176.33,-94.3227 1176.57,-86.5765"/>
<polygon fill="midnightblue" stroke="midnightblue" points="1172.24,-113.293 1175.43,-123.396 1179.24,-113.508 1172.24,-113.293"/>
</g>
<!-- Node24 -->
<g id="node7" class="node"><title>Node24</title>
<g id="a_node7"><a xlink:href="Model_8h.html" target="_top" xlink:title="Model.h">
<polygon fill="none" stroke="black" points="1302.5,-62 1302.5,-81 1353.5,-81 1353.5,-62 1302.5,-62"/>
<text text-anchor="middle" x="1328" y="-69" font-family="Helvetica,sans-Serif" font-size="10.00">Model.h</text>
</a>
</g>
</g>
<!-- Node22&#45;&gt;Node24 -->
<g id="edge6" class="edge"><title>Node22&#45;&gt;Node24</title>
<path fill="none" stroke="midnightblue" d="M1217.47,-119.458C1247.03,-106.9 1285.1,-90.724 1307.98,-81.007"/>
<polygon fill="midnightblue" stroke="midnightblue" points="1216.03,-116.264 1208.2,-123.396 1218.77,-122.707 1216.03,-116.264"/>
</g>
<!-- Node25 -->
<g id="node8" class="node"><title>Node25</title>
<g id="a_node8"><a xlink:href="PB_8cpp.html" target="_top" xlink:title="PB.cpp">
<polygon fill="none" stroke="black" points="1264.5,-0.5 1264.5,-19.5 1313.5,-19.5 1313.5,-0.5 1264.5,-0.5"/>
<text text-anchor="middle" x="1289" y="-7.5" font-family="Helvetica,sans-Serif" font-size="10.00">PB.cpp</text>
</a>
</g>
</g>
<!-- Node24&#45;&gt;Node25 -->
<g id="edge7" class="edge"><title>Node24&#45;&gt;Node25</title>
<path fill="none" stroke="midnightblue" d="M1316.86,-53.5051C1309.57,-42.388 1300.37,-28.3395 1294.58,-19.5091"/>
<polygon fill="midnightblue" stroke="midnightblue" points="1314,-55.5303 1322.41,-61.9751 1319.86,-51.6929 1314,-55.5303"/>
</g>
<!-- Node26 -->
<g id="node9" class="node"><title>Node26</title>
<g id="a_node9"><a xlink:href="ReadPB_8cpp.html" target="_top" xlink:title="ReadPB.cpp">
<polygon fill="none" stroke="black" points="1332,-0.5 1332,-19.5 1404,-19.5 1404,-0.5 1332,-0.5"/>
<text text-anchor="middle" x="1368" y="-7.5" font-family="Helvetica,sans-Serif" font-size="10.00">ReadPB.cpp</text>
</a>
</g>
</g>
<!-- Node24&#45;&gt;Node26 -->
<g id="edge8" class="edge"><title>Node24&#45;&gt;Node26</title>
<path fill="none" stroke="midnightblue" d="M1339.43,-53.5051C1346.9,-42.388 1356.34,-28.3395 1362.28,-19.5091"/>
<polygon fill="midnightblue" stroke="midnightblue" points="1336.41,-51.7234 1333.73,-61.9751 1342.21,-55.6288 1336.41,-51.7234"/>
</g>
<!-- Node28 -->
<g id="node11" class="node"><title>Node28</title>
<g id="a_node11"><a xlink:href="AACodonMutSelGeneSubstitutionProcess_8h.html" target="_top" xlink:title="AACodonMutSelGeneSubstitution\lProcess.h">
<polygon fill="none" stroke="black" points="148,-190.5 148,-220.5 312,-220.5 312,-190.5 148,-190.5"/>
<text text-anchor="start" x="156" y="-208.5" font-family="Helvetica,sans-Serif" font-size="10.00">AACodonMutSelGeneSubstitution</text>
<text text-anchor="middle" x="230" y="-197.5" font-family="Helvetica,sans-Serif" font-size="10.00">Process.h</text>
</a>
</g>
</g>
<!-- Node27&#45;&gt;Node28 -->
<g id="edge10" class="edge"><title>Node27&#45;&gt;Node28</title>
<path fill="none" stroke="midnightblue" d="M249.285,-248.283C245.01,-239.022 240.229,-228.663 236.497,-220.577"/>
<polygon fill="midnightblue" stroke="midnightblue" points="246.122,-249.783 253.49,-257.396 252.478,-246.85 246.122,-249.783"/>
</g>
<!-- Node29 -->
<g id="node12" class="node"><title>Node29</title>
<g id="a_node12"><a xlink:href="AACodonMutSelGenePhyloProcess_8h.html" target="_top" xlink:title="AACodonMutSelGenePhyloProcess.h">
<polygon fill="none" stroke="black" points="418,-129 418,-148 600,-148 600,-129 418,-129"/>
<text text-anchor="middle" x="509" y="-136" font-family="Helvetica,sans-Serif" font-size="10.00">AACodonMutSelGenePhyloProcess.h</text>
</a>
</g>
</g>
<!-- Node28&#45;&gt;Node29 -->
<g id="edge11" class="edge"><title>Node28&#45;&gt;Node29</title>
<path fill="none" stroke="midnightblue" d="M300.184,-188.149C354.931,-175.394 428.775,-158.191 472.392,-148.029"/>
<polygon fill="midnightblue" stroke="midnightblue" points="299.14,-184.798 290.195,-190.476 300.729,-191.616 299.14,-184.798"/>
</g>
<!-- Node32 -->
<g id="node15" class="node"><title>Node32</title>
<g id="a_node15"><a xlink:href="AACodonMutSelSBDPSubstitutionProcess_8h.html" target="_top" xlink:title="AACodonMutSelSBDPSubstitution\lProcess.h">
<polygon fill="none" stroke="black" points="330.5,-190.5 330.5,-220.5 499.5,-220.5 499.5,-190.5 330.5,-190.5"/>
<text text-anchor="start" x="338.5" y="-208.5" font-family="Helvetica,sans-Serif" font-size="10.00">AACodonMutSelSBDPSubstitution</text>
<text text-anchor="middle" x="415" y="-197.5" font-family="Helvetica,sans-Serif" font-size="10.00">Process.h</text>
</a>
</g>
</g>
<!-- Node31&#45;&gt;Node32 -->
<g id="edge14" class="edge"><title>Node31&#45;&gt;Node32</title>
<path fill="none" stroke="midnightblue" d="M418.776,-247.403C417.942,-238.37 417.022,-228.408 416.299,-220.577"/>
<polygon fill="midnightblue" stroke="midnightblue" points="415.294,-247.76 419.698,-257.396 422.264,-247.117 415.294,-247.76"/>
</g>
<!-- Node33 -->
<g id="node16" class="node"><title>Node33</title>
<g id="a_node16"><a xlink:href="AACodonMutSelSBDPPhyloProcess_8h.html" target="_top" xlink:title="AACodonMutSelSBDPPhyloProcess.h">
<polygon fill="none" stroke="black" points="899,-129 899,-148 1085,-148 1085,-129 899,-129"/>
<text text-anchor="middle" x="992" y="-136" font-family="Helvetica,sans-Serif" font-size="10.00">AACodonMutSelSBDPPhyloProcess.h</text>
</a>
</g>
</g>
<!-- Node32&#45;&gt;Node33 -->
<g id="edge15" class="edge"><title>Node32&#45;&gt;Node33</title>
<path fill="none" stroke="midnightblue" d="M509.719,-189.949C651.581,-171.784 803.69,-156.748 898.798,-147.882"/>
<polygon fill="midnightblue" stroke="midnightblue" points="508.994,-186.513 499.523,-191.262 509.889,-193.456 508.994,-186.513"/>
</g>
<!-- Node33&#45;&gt;Node24 -->
<g id="edge17" class="edge"><title>Node33&#45;&gt;Node24</title>
<path fill="none" stroke="midnightblue" d="M1047.07,-127.032C1100.29,-116.889 1183.19,-101.025 1255,-87 1270.73,-83.9286 1288.34,-80.4306 1302.33,-77.6399"/>
<polygon fill="midnightblue" stroke="midnightblue" points="1046.33,-123.61 1037.16,-128.919 1047.64,-130.486 1046.33,-123.61"/>
</g>
<!-- Node34 -->
<g id="node17" class="node"><title>Node34</title>
<g id="a_node17"><a xlink:href="AACodonMutSelSBDPPhyloProcess_8cpp.html" target="_top" xlink:title="AACodonMutSelSBDPPhyloProcess.cpp">
<polygon fill="none" stroke="black" points="892.5,-62 892.5,-81 1089.5,-81 1089.5,-62 892.5,-62"/>
<text text-anchor="middle" x="991" y="-69" font-family="Helvetica,sans-Serif" font-size="10.00">AACodonMutSelSBDPPhyloProcess.cpp</text>
</a>
</g>
</g>
<!-- Node33&#45;&gt;Node34 -->
<g id="edge16" class="edge"><title>Node33&#45;&gt;Node34</title>
<path fill="none" stroke="midnightblue" d="M991.708,-118.537C991.518,-106.17 991.279,-90.6198 991.133,-81.1273"/>
<polygon fill="midnightblue" stroke="midnightblue" points="988.212,-118.789 991.865,-128.734 995.211,-118.681 988.212,-118.789"/>
</g>
<!-- Node35&#45;&gt;Node20 -->
<g id="edge19" class="edge"><title>Node35&#45;&gt;Node20</title>
<path fill="none" stroke="midnightblue" d="M1008.77,-323.424C952.913,-312.522 878.031,-297.905 823.735,-287.307"/>
<polygon fill="midnightblue" stroke="midnightblue" points="1008.13,-326.866 1018.61,-325.346 1009.47,-319.995 1008.13,-326.866"/>
</g>
<!-- Node35&#45;&gt;Node31 -->
<g id="edge20" class="edge"><title>Node35&#45;&gt;Node31</title>
<path fill="none" stroke="midnightblue" d="M1008.73,-333.994C896.87,-326.975 683.461,-311.724 503,-288 499.99,-287.604 496.922,-287.176 493.826,-286.723"/>
<polygon fill="midnightblue" stroke="midnightblue" points="1008.7,-337.499 1018.9,-334.627 1009.14,-330.513 1008.7,-337.499"/>
</g>
<!-- Node36 -->
<g id="node19" class="node"><title>Node36</title>
<g id="a_node19"><a xlink:href="CodonMutSelFiniteProfileProcess_8h.html" target="_top" xlink:title="CodonMutSelFiniteProfile\lProcess.h">
<polygon fill="none" stroke="black" points="1536,-257.5 1536,-287.5 1664,-287.5 1664,-257.5 1536,-257.5"/>
<text text-anchor="start" x="1544" y="-275.5" font-family="Helvetica,sans-Serif" font-size="10.00">CodonMutSelFiniteProfile</text>
<text text-anchor="middle" x="1600" y="-264.5" font-family="Helvetica,sans-Serif" font-size="10.00">Process.h</text>
</a>
</g>
</g>
<!-- Node35&#45;&gt;Node36 -->
<g id="edge21" class="edge"><title>Node35&#45;&gt;Node36</title>
<path fill="none" stroke="midnightblue" d="M1163.29,-331.587C1251.54,-323.245 1400.11,-307.832 1527,-288 1529.94,-287.541 1532.93,-287.048 1535.96,-286.529"/>
<polygon fill="midnightblue" stroke="midnightblue" points="1162.73,-328.124 1153.1,-332.544 1163.38,-335.094 1162.73,-328.124"/>
</g>
<!-- Node40 -->
<g id="node23" class="node"><title>Node40</title>
<g id="a_node23"><a xlink:href="CodonMutSelSBDPProfileProcess_8h.html" target="_top" xlink:title="CodonMutSelSBDPProfileProcess.h">
<polygon fill="none" stroke="black" points="1682,-263 1682,-282 1858,-282 1858,-263 1682,-263"/>
<text text-anchor="middle" x="1770" y="-270" font-family="Helvetica,sans-Serif" font-size="10.00">CodonMutSelSBDPProfileProcess.h</text>
</a>
</g>
</g>
<!-- Node35&#45;&gt;Node40 -->
<g id="edge26" class="edge"><title>Node35&#45;&gt;Node40</title>
<path fill="none" stroke="midnightblue" d="M1163.27,-333.4C1275.67,-325.63 1490.76,-309.439 1673,-288 1687.37,-286.309 1702.9,-284.142 1717.22,-282.002"/>
<polygon fill="midnightblue" stroke="midnightblue" points="1162.78,-329.925 1153.04,-334.103 1163.26,-336.909 1162.78,-329.925"/>
</g>
<!-- Node44 -->
<g id="node27" class="node"><title>Node44</title>
<g id="a_node27"><a xlink:href="GeneralPathSuffStatGTRDPProfileProcess_8h.html" target="_top" xlink:title="GeneralPathSuffStatGTRDPProfile\lProcess.h">
<polygon fill="none" stroke="black" points="1196,-257.5 1196,-287.5 1366,-287.5 1366,-257.5 1196,-257.5"/>
<text text-anchor="start" x="1204" y="-275.5" font-family="Helvetica,sans-Serif" font-size="10.00">GeneralPathSuffStatGTRDPProfile</text>
<text text-anchor="middle" x="1281" y="-264.5" font-family="Helvetica,sans-Serif" font-size="10.00">Process.h</text>
</a>
</g>
</g>
<!-- Node35&#45;&gt;Node44 -->
<g id="edge31" class="edge"><title>Node35&#45;&gt;Node44</title>
<path fill="none" stroke="midnightblue" d="M1137.82,-321.228C1169.36,-310.713 1209.15,-297.451 1238.77,-287.577"/>
<polygon fill="midnightblue" stroke="midnightblue" points="1136.69,-317.913 1128.31,-324.396 1138.91,-324.554 1136.69,-317.913"/>
</g>
<!-- Node46 -->
<g id="node29" class="node"><title>Node46</title>
<g id="a_node29"><a xlink:href="GeneralPathSuffStatGTRFiniteProfileProcess_8h.html" target="_top" xlink:title="GeneralPathSuffStatGTRFinite\lProfileProcess.h">
<polygon fill="none" stroke="black" points="512,-257.5 512,-287.5 664,-287.5 664,-257.5 512,-257.5"/>
<text text-anchor="start" x="520" y="-275.5" font-family="Helvetica,sans-Serif" font-size="10.00">GeneralPathSuffStatGTRFinite</text>
<text text-anchor="middle" x="588" y="-264.5" font-family="Helvetica,sans-Serif" font-size="10.00">ProfileProcess.h</text>
</a>
</g>
</g>
<!-- Node35&#45;&gt;Node46 -->
<g id="edge33" class="edge"><title>Node35&#45;&gt;Node46</title>
<path fill="none" stroke="midnightblue" d="M1008.87,-330.172C925.802,-320.945 789.812,-305.095 673,-288 670.186,-287.588 667.321,-287.158 664.429,-286.713"/>
<polygon fill="midnightblue" stroke="midnightblue" points="1008.66,-333.67 1018.99,-331.292 1009.43,-326.713 1008.66,-333.67"/>
</g>
<!-- Node48 -->
<g id="node31" class="node"><title>Node48</title>
<g id="a_node31"><a xlink:href="GeneralPathSuffStatGTRSBDPProfileProcess_8h.html" target="_top" xlink:title="GeneralPathSuffStatGTRSBDPProfile\lProcess.h">
<polygon fill="none" stroke="black" points="994.5,-257.5 994.5,-287.5 1177.5,-287.5 1177.5,-257.5 994.5,-257.5"/>
<text text-anchor="start" x="1002.5" y="-275.5" font-family="Helvetica,sans-Serif" font-size="10.00">GeneralPathSuffStatGTRSBDPProfile</text>
<text text-anchor="middle" x="1086" y="-264.5" font-family="Helvetica,sans-Serif" font-size="10.00">Process.h</text>
</a>
</g>
</g>
<!-- Node35&#45;&gt;Node48 -->
<g id="edge35" class="edge"><title>Node35&#45;&gt;Node48</title>
<path fill="none" stroke="midnightblue" d="M1086,-314.108C1086,-305.154 1086,-295.323 1086,-287.577"/>
<polygon fill="midnightblue" stroke="midnightblue" points="1082.5,-314.396 1086,-324.396 1089.5,-314.396 1082.5,-314.396"/>
</g>
<!-- Node50 -->
<g id="node33" class="node"><title>Node50</title>
<g id="a_node33"><a xlink:href="GeneralPathSuffStatMatrixMixtureProfileProcess_8cpp.html" target="_top" xlink:title="GeneralPathSuffStatMatrix\lMixtureProfileProcess.cpp">
<polygon fill="none" stroke="black" points="842,-257.5 842,-287.5 976,-287.5 976,-257.5 842,-257.5"/>
<text text-anchor="start" x="850" y="-275.5" font-family="Helvetica,sans-Serif" font-size="10.00">GeneralPathSuffStatMatrix</text>
<text text-anchor="middle" x="909" y="-264.5" font-family="Helvetica,sans-Serif" font-size="10.00">MixtureProfileProcess.cpp</text>
</a>
</g>
</g>
<!-- Node35&#45;&gt;Node50 -->
<g id="edge37" class="edge"><title>Node35&#45;&gt;Node50</title>
<path fill="none" stroke="midnightblue" d="M1037.85,-320.819C1009.4,-310.371 973.872,-297.323 947.331,-287.577"/>
<polygon fill="midnightblue" stroke="midnightblue" points="1037,-324.234 1047.59,-324.396 1039.41,-317.663 1037,-324.234"/>
</g>
<!-- Node37 -->
<g id="node20" class="node"><title>Node37</title>
<g id="a_node20"><a xlink:href="CodonMutSelFiniteSubstitutionProcess_8h.html" target="_top" xlink:title="CodonMutSelFiniteSubstitution\lProcess.h">
<polygon fill="none" stroke="black" points="1566,-190.5 1566,-220.5 1718,-220.5 1718,-190.5 1566,-190.5"/>
<text text-anchor="start" x="1574" y="-208.5" font-family="Helvetica,sans-Serif" font-size="10.00">CodonMutSelFiniteSubstitution</text>
<text text-anchor="middle" x="1642" y="-197.5" font-family="Helvetica,sans-Serif" font-size="10.00">Process.h</text>
</a>
</g>
</g>
<!-- Node36&#45;&gt;Node37 -->
<g id="edge22" class="edge"><title>Node36&#45;&gt;Node37</title>
<path fill="none" stroke="midnightblue" d="M1614.62,-248.867C1620.7,-239.459 1627.57,-228.833 1632.9,-220.577"/>
<polygon fill="midnightblue" stroke="midnightblue" points="1611.6,-247.097 1609.11,-257.396 1617.48,-250.896 1611.6,-247.097"/>
</g>
<!-- Node38 -->
<g id="node21" class="node"><title>Node38</title>
<g id="a_node21"><a xlink:href="CodonMutSelFinitePhyloProcess_8h.html" target="_top" xlink:title="CodonMutSelFinitePhyloProcess.h">
<polygon fill="none" stroke="black" points="1414.5,-129 1414.5,-148 1583.5,-148 1583.5,-129 1414.5,-129"/>
<text text-anchor="middle" x="1499" y="-136" font-family="Helvetica,sans-Serif" font-size="10.00">CodonMutSelFinitePhyloProcess.h</text>
</a>
</g>
</g>
<!-- Node37&#45;&gt;Node38 -->
<g id="edge23" class="edge"><title>Node37&#45;&gt;Node38</title>
<path fill="none" stroke="midnightblue" d="M1601.59,-186.131C1574.07,-173.62 1538.91,-157.64 1517.72,-148.007"/>
<polygon fill="midnightblue" stroke="midnightblue" points="1600.42,-189.444 1610.97,-190.396 1603.32,-183.072 1600.42,-189.444"/>
</g>
<!-- Node38&#45;&gt;Node24 -->
<g id="edge25" class="edge"><title>Node38&#45;&gt;Node24</title>
<path fill="none" stroke="midnightblue" d="M1466.83,-125.271C1432.89,-112.37 1380.29,-92.3757 1350.53,-81.0637"/>
<polygon fill="midnightblue" stroke="midnightblue" points="1465.7,-128.587 1476.29,-128.869 1468.19,-122.044 1465.7,-128.587"/>
</g>
<!-- Node39 -->
<g id="node22" class="node"><title>Node39</title>
<g id="a_node22"><a xlink:href="CodonMutSelFinitePhyloProcess_8cpp.html" target="_top" xlink:title="CodonMutSelFinitePhyloProcess.cpp">
<polygon fill="none" stroke="black" points="1406.5,-62 1406.5,-81 1585.5,-81 1585.5,-62 1406.5,-62"/>
<text text-anchor="middle" x="1496" y="-69" font-family="Helvetica,sans-Serif" font-size="10.00">CodonMutSelFinitePhyloProcess.cpp</text>
</a>
</g>
</g>
<!-- Node38&#45;&gt;Node39 -->
<g id="edge24" class="edge"><title>Node38&#45;&gt;Node39</title>
<path fill="none" stroke="midnightblue" d="M1498.12,-118.537C1497.55,-106.17 1496.84,-90.6198 1496.4,-81.1273"/>
<polygon fill="midnightblue" stroke="midnightblue" points="1494.64,-118.906 1498.6,-128.734 1501.63,-118.583 1494.64,-118.906"/>
</g>
<!-- Node41 -->
<g id="node24" class="node"><title>Node41</title>
<g id="a_node24"><a xlink:href="CodonMutSelSBDPSubstitutionProcess_8h.html" target="_top" xlink:title="CodonMutSelSBDPSubstitution\lProcess.h">
<polygon fill="none" stroke="black" points="1736.5,-190.5 1736.5,-220.5 1891.5,-220.5 1891.5,-190.5 1736.5,-190.5"/>
<text text-anchor="start" x="1744.5" y="-208.5" font-family="Helvetica,sans-Serif" font-size="10.00">CodonMutSelSBDPSubstitution</text>
<text text-anchor="middle" x="1814" y="-197.5" font-family="Helvetica,sans-Serif" font-size="10.00">Process.h</text>
</a>
</g>
</g>
<!-- Node40&#45;&gt;Node41 -->
<g id="edge27" class="edge"><title>Node40&#45;&gt;Node41</title>
<path fill="none" stroke="midnightblue" d="M1781.61,-254.355C1788.73,-243.824 1797.75,-230.502 1804.46,-220.589"/>
<polygon fill="midnightblue" stroke="midnightblue" points="1778.64,-252.491 1775.93,-262.734 1784.44,-256.415 1778.64,-252.491"/>
</g>
<!-- Node42 -->
<g id="node25" class="node"><title>Node42</title>
<g id="a_node25"><a xlink:href="CodonMutSelSBDPPhyloProcess_8h.html" target="_top" xlink:title="CodonMutSelSBDPPhyloProcess.h">
<polygon fill="none" stroke="black" points="1606.5,-129 1606.5,-148 1779.5,-148 1779.5,-129 1606.5,-129"/>
<text text-anchor="middle" x="1693" y="-136" font-family="Helvetica,sans-Serif" font-size="10.00">CodonMutSelSBDPPhyloProcess.h</text>
</a>
</g>
</g>
<!-- Node41&#45;&gt;Node42 -->
<g id="edge28" class="edge"><title>Node41&#45;&gt;Node42</title>
<path fill="none" stroke="midnightblue" d="M1778.89,-185.638C1755.74,-173.203 1726.53,-157.514 1708.84,-148.007"/>
<polygon fill="midnightblue" stroke="midnightblue" points="1777.28,-188.747 1787.74,-190.396 1780.59,-182.58 1777.28,-188.747"/>
</g>
<!-- Node42&#45;&gt;Node24 -->
<g id="edge30" class="edge"><title>Node42&#45;&gt;Node24</title>
<path fill="none" stroke="midnightblue" d="M1629.33,-127.358C1569.3,-117.626 1476.88,-102.201 1397,-87 1382.57,-84.2539 1366.51,-80.8962 1353.51,-78.1037"/>
<polygon fill="midnightblue" stroke="midnightblue" points="1628.99,-130.848 1639.42,-128.989 1630.1,-123.937 1628.99,-130.848"/>
</g>
<!-- Node43 -->
<g id="node26" class="node"><title>Node43</title>
<g id="a_node26"><a xlink:href="CodonMutSelSBDPPhyloProcess_8cpp.html" target="_top" xlink:title="CodonMutSelSBDPPhyloProcess.cpp">
<polygon fill="none" stroke="black" points="1603.5,-62 1603.5,-81 1786.5,-81 1786.5,-62 1603.5,-62"/>
<text text-anchor="middle" x="1695" y="-69" font-family="Helvetica,sans-Serif" font-size="10.00">CodonMutSelSBDPPhyloProcess.cpp</text>
</a>
</g>
</g>
<!-- Node42&#45;&gt;Node43 -->
<g id="edge29" class="edge"><title>Node42&#45;&gt;Node43</title>
<path fill="none" stroke="midnightblue" d="M1693.58,-118.537C1693.96,-106.17 1694.44,-90.6198 1694.73,-81.1273"/>
<polygon fill="midnightblue" stroke="midnightblue" points="1690.08,-118.631 1693.27,-128.734 1697.08,-118.846 1690.08,-118.631"/>
</g>
<!-- Node45 -->
<g id="node28" class="node"><title>Node45</title>
<g id="a_node28"><a xlink:href="GeneralPathSuffStatGTRDPProfileProcess_8cpp.html" target="_top" xlink:title="GeneralPathSuffStatGTRDPProfile\lProcess.cpp">
<polygon fill="none" stroke="black" points="890,-190.5 890,-220.5 1060,-220.5 1060,-190.5 890,-190.5"/>
<text text-anchor="start" x="898" y="-208.5" font-family="Helvetica,sans-Serif" font-size="10.00">GeneralPathSuffStatGTRDPProfile</text>
<text text-anchor="middle" x="975" y="-197.5" font-family="Helvetica,sans-Serif" font-size="10.00">Process.cpp</text>
</a>
</g>
</g>
<!-- Node44&#45;&gt;Node45 -->
<g id="edge32" class="edge"><title>Node44&#45;&gt;Node45</title>
<path fill="none" stroke="midnightblue" d="M1205.12,-255.382C1154.79,-244.691 1089.38,-230.796 1041.17,-220.555"/>
<polygon fill="midnightblue" stroke="midnightblue" points="1204.47,-258.822 1214.98,-257.476 1205.92,-251.974 1204.47,-258.822"/>
</g>
<!-- Node47 -->
<g id="node30" class="node"><title>Node47</title>
<g id="a_node30"><a xlink:href="GeneralPathSuffStatGTRFiniteProfileProcess_8cpp.html" target="_top" xlink:title="GeneralPathSuffStatGTRFinite\lProfileProcess.cpp">
<polygon fill="none" stroke="black" points="518,-190.5 518,-220.5 670,-220.5 670,-190.5 518,-190.5"/>
<text text-anchor="start" x="526" y="-208.5" font-family="Helvetica,sans-Serif" font-size="10.00">GeneralPathSuffStatGTRFinite</text>
<text text-anchor="middle" x="594" y="-197.5" font-family="Helvetica,sans-Serif" font-size="10.00">ProfileProcess.cpp</text>
</a>
</g>
</g>
<!-- Node46&#45;&gt;Node47 -->
<g id="edge34" class="edge"><title>Node46&#45;&gt;Node47</title>
<path fill="none" stroke="midnightblue" d="M590.224,-247.403C591.058,-238.37 591.978,-228.408 592.701,-220.577"/>
<polygon fill="midnightblue" stroke="midnightblue" points="586.736,-247.117 589.302,-257.396 593.706,-247.76 586.736,-247.117"/>
</g>
<!-- Node49 -->
<g id="node32" class="node"><title>Node49</title>
<g id="a_node32"><a xlink:href="GeneralPathSuffStatGTRSBDPProfileProcess_8cpp.html" target="_top" xlink:title="GeneralPathSuffStatGTRSBDPProfile\lProcess.cpp">
<polygon fill="none" stroke="black" points="688.5,-190.5 688.5,-220.5 871.5,-220.5 871.5,-190.5 688.5,-190.5"/>
<text text-anchor="start" x="696.5" y="-208.5" font-family="Helvetica,sans-Serif" font-size="10.00">GeneralPathSuffStatGTRSBDPProfile</text>
<text text-anchor="middle" x="780" y="-197.5" font-family="Helvetica,sans-Serif" font-size="10.00">Process.cpp</text>
</a>
</g>
</g>
<!-- Node48&#45;&gt;Node49 -->
<g id="edge36" class="edge"><title>Node48&#45;&gt;Node49</title>
<path fill="none" stroke="midnightblue" d="M1010.12,-255.382C959.791,-244.691 894.379,-230.796 846.166,-220.555"/>
<polygon fill="midnightblue" stroke="midnightblue" points="1009.47,-258.822 1019.98,-257.476 1010.92,-251.974 1009.47,-258.822"/>
</g>
<!-- Node51&#45;&gt;Node21 -->
<g id="edge39" class="edge"><title>Node51&#45;&gt;Node21</title>
<path fill="none" stroke="midnightblue" d="M1378.51,-255.252C1330.98,-244.598 1269.44,-230.805 1223.96,-220.611"/>
<polygon fill="midnightblue" stroke="midnightblue" points="1377.91,-258.704 1388.43,-257.476 1379.44,-251.874 1377.91,-258.704"/>
</g>
<!-- Node51&#45;&gt;Node28 -->
<g id="edge47" class="edge"><title>Node51&#45;&gt;Node28</title>
<path fill="none" stroke="midnightblue" d="M1373.92,-257.013C907.445,-205.783 784.253,-265.646 321,-221 318.134,-220.724 315.221,-220.415 312.281,-220.079"/>
<polygon fill="midnightblue" stroke="midnightblue" points="1373.62,-260.502 1383.95,-258.126 1374.4,-253.544 1373.62,-260.502"/>
</g>
<!-- Node51&#45;&gt;Node32 -->
<g id="edge48" class="edge"><title>Node51&#45;&gt;Node32</title>
<path fill="none" stroke="midnightblue" d="M1373.97,-257.01C990.596,-213.558 889.123,-258.102 509,-221 505.96,-220.703 502.868,-220.374 499.748,-220.018"/>
<polygon fill="midnightblue" stroke="midnightblue" points="1373.61,-260.492 1383.95,-258.153 1374.41,-253.537 1373.61,-260.492"/>
</g>
<!-- Node51&#45;&gt;Node37 -->
<g id="edge49" class="edge"><title>Node51&#45;&gt;Node37</title>
<path fill="none" stroke="midnightblue" d="M1502.15,-254.092C1532.99,-243.599 1571.75,-230.408 1600.64,-220.577"/>
<polygon fill="midnightblue" stroke="midnightblue" points="1500.78,-250.861 1492.44,-257.396 1503.04,-257.488 1500.78,-250.861"/>
</g>
<!-- Node51&#45;&gt;Node41 -->
<g id="edge50" class="edge"><title>Node51&#45;&gt;Node41</title>
<path fill="none" stroke="midnightblue" d="M1528.4,-256.757C1604.68,-242.812 1681,-229.443 1736.29,-219.863"/>
<polygon fill="midnightblue" stroke="midnightblue" points="1527.33,-253.394 1518.13,-258.639 1528.59,-260.28 1527.33,-253.394"/>
</g>
<!-- Node52 -->
<g id="node35" class="node"><title>Node52</title>
<g id="a_node35"><a xlink:href="GeneralPathSuffStatMatrixPhyloProcess_8h.html" target="_top" xlink:title="GeneralPathSuffStatMatrix\lPhyloProcess.h">
<polygon fill="none" stroke="black" points="1262,-190.5 1262,-220.5 1396,-220.5 1396,-190.5 1262,-190.5"/>
<text text-anchor="start" x="1270" y="-208.5" font-family="Helvetica,sans-Serif" font-size="10.00">GeneralPathSuffStatMatrix</text>
<text text-anchor="middle" x="1329" y="-197.5" font-family="Helvetica,sans-Serif" font-size="10.00">PhyloProcess.h</text>
</a>
</g>
</g>
<!-- Node51&#45;&gt;Node52 -->
<g id="edge40" class="edge"><title>Node51&#45;&gt;Node52</title>
<path fill="none" stroke="midnightblue" d="M1415.48,-252.575C1396.29,-242.35 1373,-229.94 1355.42,-220.577"/>
<polygon fill="midnightblue" stroke="midnightblue" points="1414.06,-255.783 1424.53,-257.396 1417.35,-249.605 1414.06,-255.783"/>
</g>
<!-- Node54 -->
<g id="node37" class="node"><title>Node54</title>
<g id="a_node37"><a xlink:href="GeneralPathSuffStatGTRSubstitutionProcess_8h.html" target="_top" xlink:title="GeneralPathSuffStatGTRSubstitution\lProcess.h">
<polygon fill="none" stroke="black" points="1909.5,-190.5 1909.5,-220.5 2088.5,-220.5 2088.5,-190.5 1909.5,-190.5"/>
<text text-anchor="start" x="1917.5" y="-208.5" font-family="Helvetica,sans-Serif" font-size="10.00">GeneralPathSuffStatGTRSubstitution</text>
<text text-anchor="middle" x="1999" y="-197.5" font-family="Helvetica,sans-Serif" font-size="10.00">Process.h</text>
</a>
</g>
</g>
<!-- Node51&#45;&gt;Node54 -->
<g id="edge51" class="edge"><title>Node51&#45;&gt;Node54</title>
<path fill="none" stroke="midnightblue" d="M1528.12,-256.927C1693.58,-233.659 1737.9,-240.682 1900,-221 1903.1,-220.623 1906.26,-220.228 1909.45,-219.818"/>
<polygon fill="midnightblue" stroke="midnightblue" points="1527.49,-253.481 1518.08,-258.354 1528.47,-260.411 1527.49,-253.481"/>
</g>
<!-- Node55 -->
<g id="node38" class="node"><title>Node55</title>
<g id="a_node38"><a xlink:href="GeneralPathSuffStatMatrixSubstitutionProcess_8cpp.html" target="_top" xlink:title="GeneralPathSuffStatMatrix\lSubstitutionProcess.cpp">
<polygon fill="none" stroke="black" points="1414,-190.5 1414,-220.5 1548,-220.5 1548,-190.5 1414,-190.5"/>
<text text-anchor="start" x="1422" y="-208.5" font-family="Helvetica,sans-Serif" font-size="10.00">GeneralPathSuffStatMatrix</text>
<text text-anchor="middle" x="1481" y="-197.5" font-family="Helvetica,sans-Serif" font-size="10.00">SubstitutionProcess.cpp</text>
</a>
</g>
</g>
<!-- Node51&#45;&gt;Node55 -->
<g id="edge52" class="edge"><title>Node51&#45;&gt;Node55</title>
<path fill="none" stroke="midnightblue" d="M1461.72,-248.283C1465.99,-239.022 1470.77,-228.663 1474.5,-220.577"/>
<polygon fill="midnightblue" stroke="midnightblue" points="1458.52,-246.85 1457.51,-257.396 1464.88,-249.783 1458.52,-246.85"/>
</g>
<!-- Node52&#45;&gt;Node22 -->
<g id="edge41" class="edge"><title>Node52&#45;&gt;Node22</title>
<path fill="none" stroke="midnightblue" d="M1286.13,-186.407C1261.55,-176.029 1231.14,-163.195 1208.35,-153.577"/>
<polygon fill="midnightblue" stroke="midnightblue" points="1285.01,-189.732 1295.58,-190.396 1287.73,-183.283 1285.01,-189.732"/>
</g>
<!-- Node52&#45;&gt;Node29 -->
<g id="edge42" class="edge"><title>Node52&#45;&gt;Node29</title>
<path fill="none" stroke="midnightblue" d="M1251.87,-190.107C1010.7,-159.803 738.839,-147.142 600.268,-142.228"/>
<polygon fill="midnightblue" stroke="midnightblue" points="1251.52,-193.59 1261.88,-191.377 1252.4,-186.646 1251.52,-193.59"/>
</g>
<!-- Node52&#45;&gt;Node33 -->
<g id="edge43" class="edge"><title>Node52&#45;&gt;Node33</title>
<path fill="none" stroke="midnightblue" d="M1251.56,-189.563C1184.83,-176.692 1090.85,-158.567 1036.2,-148.024"/>
<polygon fill="midnightblue" stroke="midnightblue" points="1251.13,-193.045 1261.61,-191.503 1252.46,-186.172 1251.13,-193.045"/>
</g>
<!-- Node52&#45;&gt;Node38 -->
<g id="edge44" class="edge"><title>Node52&#45;&gt;Node38</title>
<path fill="none" stroke="midnightblue" d="M1375.33,-186.784C1408.3,-174.181 1451.12,-157.808 1476.75,-148.007"/>
<polygon fill="midnightblue" stroke="midnightblue" points="1373.98,-183.555 1365.89,-190.396 1376.48,-190.094 1373.98,-183.555"/>
</g>
<!-- Node52&#45;&gt;Node42 -->
<g id="edge45" class="edge"><title>Node52&#45;&gt;Node42</title>
<path fill="none" stroke="midnightblue" d="M1406.14,-189.805C1495.36,-173.527 1587.62,-157.539 1643.01,-148.032"/>
<polygon fill="midnightblue" stroke="midnightblue" points="1405.33,-186.395 1396.13,-191.637 1406.59,-193.281 1405.33,-186.395"/>
</g>
<!-- Node53 -->
<g id="node36" class="node"><title>Node53</title>
<g id="a_node36"><a xlink:href="GeneralPathSuffStatMatrixPhyloProcess_8cpp.html" target="_top" xlink:title="GeneralPathSuffStatMatrix\lPhyloProcess.cpp">
<polygon fill="none" stroke="black" points="1262,-123.5 1262,-153.5 1396,-153.5 1396,-123.5 1262,-123.5"/>
<text text-anchor="start" x="1270" y="-141.5" font-family="Helvetica,sans-Serif" font-size="10.00">GeneralPathSuffStatMatrix</text>
<text text-anchor="middle" x="1329" y="-130.5" font-family="Helvetica,sans-Serif" font-size="10.00">PhyloProcess.cpp</text>
</a>
</g>
</g>
<!-- Node52&#45;&gt;Node53 -->
<g id="edge46" class="edge"><title>Node52&#45;&gt;Node53</title>
<path fill="none" stroke="midnightblue" d="M1329,-180.108C1329,-171.154 1329,-161.323 1329,-153.577"/>
<polygon fill="midnightblue" stroke="midnightblue" points="1325.5,-180.396 1329,-190.396 1332.5,-180.396 1325.5,-180.396"/>
</g>
<!-- Node56&#45;&gt;Node36 -->
<g id="edge54" class="edge"><title>Node56&#45;&gt;Node36</title>
<path fill="none" stroke="midnightblue" d="M1646.55,-322.304C1636.37,-311.635 1623.18,-297.802 1613.44,-287.589"/>
<polygon fill="midnightblue" stroke="midnightblue" points="1644.2,-324.913 1653.64,-329.734 1649.27,-320.082 1644.2,-324.913"/>
</g>
<!-- Node56&#45;&gt;Node40 -->
<g id="edge56" class="edge"><title>Node56&#45;&gt;Node40</title>
<path fill="none" stroke="midnightblue" d="M1685.36,-324.442C1706.75,-311.57 1737.72,-292.927 1755.67,-282.127"/>
<polygon fill="midnightblue" stroke="midnightblue" points="1683.33,-321.578 1676.57,-329.734 1686.94,-327.576 1683.33,-321.578"/>
</g>
<!-- Node57 -->
<g id="node40" class="node"><title>Node57</title>
<g id="a_node40"><a xlink:href="CodonMutSelProfileProcess_8cpp.html" target="_top" xlink:title="CodonMutSelProfileProcess.cpp">
<polygon fill="none" stroke="black" points="1876,-263 1876,-282 2034,-282 2034,-263 1876,-263"/>
<text text-anchor="middle" x="1955" y="-270" font-family="Helvetica,sans-Serif" font-size="10.00">CodonMutSelProfileProcess.cpp</text>
</a>
</g>
</g>
<!-- Node56&#45;&gt;Node57 -->
<g id="edge55" class="edge"><title>Node56&#45;&gt;Node57</title>
<path fill="none" stroke="midnightblue" d="M1710.58,-327.724C1768.27,-314.924 1863.34,-293.833 1916.31,-282.083"/>
<polygon fill="midnightblue" stroke="midnightblue" points="1709.61,-324.353 1700.61,-329.936 1711.13,-331.187 1709.61,-324.353"/>
</g>
<!-- Node58&#45;&gt;Node54 -->
<g id="edge59" class="edge"><title>Node58&#45;&gt;Node54</title>
<path fill="none" stroke="midnightblue" d="M2092.42,-252.853C2071.71,-242.576 2046.41,-230.025 2027.37,-220.577"/>
<polygon fill="midnightblue" stroke="midnightblue" points="2091.06,-256.086 2101.57,-257.396 2094.17,-249.816 2091.06,-256.086"/>
</g>
<!-- Node59 -->
<g id="node42" class="node"><title>Node59</title>
<g id="a_node42"><a xlink:href="GeneralPathSuffStatGTRProfileProcess_8cpp.html" target="_top" xlink:title="GeneralPathSuffStatGTRProfile\lProcess.cpp">
<polygon fill="none" stroke="black" points="2106.5,-190.5 2106.5,-220.5 2261.5,-220.5 2261.5,-190.5 2106.5,-190.5"/>
<text text-anchor="start" x="2114.5" y="-208.5" font-family="Helvetica,sans-Serif" font-size="10.00">GeneralPathSuffStatGTRProfile</text>
<text text-anchor="middle" x="2184" y="-197.5" font-family="Helvetica,sans-Serif" font-size="10.00">Process.cpp</text>
</a>
</g>
</g>
<!-- Node58&#45;&gt;Node59 -->
<g id="edge58" class="edge"><title>Node58&#45;&gt;Node59</title>
<path fill="none" stroke="midnightblue" d="M2148.32,-249.447C2156.25,-239.899 2165.3,-229.004 2172.31,-220.577"/>
<polygon fill="midnightblue" stroke="midnightblue" points="2145.42,-247.467 2141.72,-257.396 2150.8,-251.941 2145.42,-247.467"/>
</g>
<!-- Node61 -->
<g id="node44" class="node"><title>Node61</title>
<g id="a_node44"><a xlink:href="GeneralPathSuffStatMatrixOneProfileProcess_8cpp.html" target="_top" xlink:title="GeneralPathSuffStatMatrix\lOneProfileProcess.cpp">
<polygon fill="none" stroke="black" points="2226,-257.5 2226,-287.5 2360,-287.5 2360,-257.5 2226,-257.5"/>
<text text-anchor="start" x="2234" y="-275.5" font-family="Helvetica,sans-Serif" font-size="10.00">GeneralPathSuffStatMatrix</text>
<text text-anchor="middle" x="2293" y="-264.5" font-family="Helvetica,sans-Serif" font-size="10.00">OneProfileProcess.cpp</text>
</a>
</g>
</g>
<!-- Node60&#45;&gt;Node61 -->
<g id="edge61" class="edge"><title>Node60&#45;&gt;Node61</title>
<path fill="none" stroke="midnightblue" d="M2251.48,-317.024C2260.72,-307.34 2271.37,-296.174 2279.57,-287.577"/>
<polygon fill="midnightblue" stroke="midnightblue" points="2248.82,-314.744 2244.45,-324.396 2253.89,-319.576 2248.82,-314.744"/>
</g>
</g>
</svg>
