<?xml version="1.0" encoding="UTF-8" standalone="no"?>
<!DOCTYPE svg PUBLIC "-//W3C//DTD SVG 1.1//EN"
 "http://www.w3.org/Graphics/SVG/1.1/DTD/svg11.dtd">
<!-- Generated by graphviz version 2.38.0 (20140413.2041)
 -->
<!-- Title: GeneralPathSuffStatGTRDPProfileProcess.cpp Pages: 1 -->
<svg width="692pt" height="520pt"
 viewBox="0.00 0.00 691.50 520.00" xmlns="http://www.w3.org/2000/svg" xmlns:xlink="http://www.w3.org/1999/xlink">
<g id="graph0" class="graph" transform="scale(1 1) rotate(0) translate(4 516)">
<title>GeneralPathSuffStatGTRDPProfileProcess.cpp</title>
<!-- Node0 -->
<g id="node1" class="node"><title>Node0</title>
<polygon fill="#bfbfbf" stroke="black" points="184.5,-481.5 184.5,-511.5 354.5,-511.5 354.5,-481.5 184.5,-481.5"/>
<text text-anchor="start" x="192.5" y="-499.5" font-family="Helvetica,sans-Serif" font-size="10.00">GeneralPathSuffStatGTRDPProfile</text>
<text text-anchor="middle" x="269.5" y="-488.5" font-family="Helvetica,sans-Serif" font-size="10.00">Process.cpp</text>
</g>
<!-- Node1 -->
<g id="node2" class="node"><title>Node1</title>
<g id="a_node2"><a xlink:href="GeneralPathSuffStatGTRDPProfileProcess_8h.html" target="_top" xlink:title="GeneralPathSuffStatGTRDPProfile\lProcess.h">
<polygon fill="none" stroke="black" points="184.5,-414.5 184.5,-444.5 354.5,-444.5 354.5,-414.5 184.5,-414.5"/>
<text text-anchor="start" x="192.5" y="-432.5" font-family="Helvetica,sans-Serif" font-size="10.00">GeneralPathSuffStatGTRDPProfile</text>
<text text-anchor="middle" x="269.5" y="-421.5" font-family="Helvetica,sans-Serif" font-size="10.00">Process.h</text>
</a>
</g>
</g>
<!-- Node0&#45;&gt;Node1 -->
<g id="edge1" class="edge"><title>Node0&#45;&gt;Node1</title>
<path fill="none" stroke="midnightblue" d="M269.5,-481.396C269.5,-473.645 269.5,-463.812 269.5,-454.86"/>
<polygon fill="midnightblue" stroke="midnightblue" points="273,-454.576 269.5,-444.577 266,-454.577 273,-454.576"/>
</g>
<!-- Node2 -->
<g id="node3" class="node"><title>Node2</title>
<g id="a_node3"><a xlink:href="MatrixDPProfileProcess_8h.html" target="_top" xlink:title="MatrixDPProfileProcess.h">
<polygon fill="none" stroke="black" points="54.5,-353 54.5,-372 184.5,-372 184.5,-353 54.5,-353"/>
<text text-anchor="middle" x="119.5" y="-360" font-family="Helvetica,sans-Serif" font-size="10.00">MatrixDPProfileProcess.h</text>
</a>
</g>
</g>
<!-- Node1&#45;&gt;Node2 -->
<g id="edge2" class="edge"><title>Node1&#45;&gt;Node2</title>
<path fill="none" stroke="midnightblue" d="M236.952,-414.396C210.633,-402.991 173.914,-387.079 148.571,-376.098"/>
<polygon fill="midnightblue" stroke="midnightblue" points="149.699,-372.772 139.132,-372.007 146.915,-379.195 149.699,-372.772"/>
</g>
<!-- Node23 -->
<g id="node24" class="node"><title>Node23</title>
<g id="a_node24"><a xlink:href="GTRMixtureProfileProcess_8h.html" target="_top" xlink:title="GTRMixtureProfileProcess.h">
<polygon fill="none" stroke="black" points="354.5,-353 354.5,-372 496.5,-372 496.5,-353 354.5,-353"/>
<text text-anchor="middle" x="425.5" y="-360" font-family="Helvetica,sans-Serif" font-size="10.00">GTRMixtureProfileProcess.h</text>
</a>
</g>
</g>
<!-- Node1&#45;&gt;Node23 -->
<g id="edge34" class="edge"><title>Node1&#45;&gt;Node23</title>
<path fill="none" stroke="midnightblue" d="M303.35,-414.396C330.843,-402.941 369.248,-386.938 395.615,-375.952"/>
<polygon fill="midnightblue" stroke="midnightblue" points="397.199,-379.084 405.083,-372.007 394.506,-372.622 397.199,-379.084"/>
</g>
<!-- Node26 -->
<g id="node27" class="node"><title>Node26</title>
<g id="a_node27"><a xlink:href="GeneralPathSuffStatMatrixMixtureProfileProcess_8h.html" target="_top" xlink:title="GeneralPathSuffStatMatrix\lMixtureProfileProcess.h">
<polygon fill="none" stroke="black" points="202.5,-347.5 202.5,-377.5 336.5,-377.5 336.5,-347.5 202.5,-347.5"/>
<text text-anchor="start" x="210.5" y="-365.5" font-family="Helvetica,sans-Serif" font-size="10.00">GeneralPathSuffStatMatrix</text>
<text text-anchor="middle" x="269.5" y="-354.5" font-family="Helvetica,sans-Serif" font-size="10.00">MixtureProfileProcess.h</text>
</a>
</g>
</g>
<!-- Node1&#45;&gt;Node26 -->
<g id="edge41" class="edge"><title>Node1&#45;&gt;Node26</title>
<path fill="none" stroke="midnightblue" d="M269.5,-414.396C269.5,-406.645 269.5,-396.812 269.5,-387.86"/>
<polygon fill="midnightblue" stroke="midnightblue" points="273,-387.576 269.5,-377.577 266,-387.577 273,-387.576"/>
</g>
<!-- Node3 -->
<g id="node4" class="node"><title>Node3</title>
<g id="a_node4"><a xlink:href="MatrixMixtureProfileProcess_8h.html" target="_top" xlink:title="MatrixMixtureProfileProcess.h">
<polygon fill="none" stroke="black" points="121.5,-286 121.5,-305 269.5,-305 269.5,-286 121.5,-286"/>
<text text-anchor="middle" x="195.5" y="-293" font-family="Helvetica,sans-Serif" font-size="10.00">MatrixMixtureProfileProcess.h</text>
</a>
</g>
</g>
<!-- Node2&#45;&gt;Node3 -->
<g id="edge3" class="edge"><title>Node2&#45;&gt;Node3</title>
<path fill="none" stroke="midnightblue" d="M129.75,-352.734C141.943,-342.305 162.517,-324.709 177.408,-311.973"/>
<polygon fill="midnightblue" stroke="midnightblue" points="180.088,-314.287 185.413,-305.127 175.538,-308.967 180.088,-314.287"/>
</g>
<!-- Node22 -->
<g id="node23" class="node"><title>Node22</title>
<g id="a_node23"><a xlink:href="DPProfileProcess_8h.html" target="_top" xlink:title="DPProfileProcess.h">
<polygon fill="none" stroke="black" points="0,-286 0,-305 103,-305 103,-286 0,-286"/>
<text text-anchor="middle" x="51.5" y="-293" font-family="Helvetica,sans-Serif" font-size="10.00">DPProfileProcess.h</text>
</a>
</g>
</g>
<!-- Node2&#45;&gt;Node22 -->
<g id="edge31" class="edge"><title>Node2&#45;&gt;Node22</title>
<path fill="none" stroke="midnightblue" d="M110.329,-352.734C99.5216,-342.403 81.3542,-325.037 68.0622,-312.332"/>
<polygon fill="midnightblue" stroke="midnightblue" points="70.1727,-309.507 60.5255,-305.127 65.3358,-314.567 70.1727,-309.507"/>
</g>
<!-- Node4 -->
<g id="node5" class="node"><title>Node4</title>
<g id="a_node5"><a xlink:href="MatrixProfileProcess_8h.html" target="_top" xlink:title="MatrixProfileProcess.h">
<polygon fill="none" stroke="black" points="296.5,-224.5 296.5,-243.5 412.5,-243.5 412.5,-224.5 296.5,-224.5"/>
<text text-anchor="middle" x="354.5" y="-231.5" font-family="Helvetica,sans-Serif" font-size="10.00">MatrixProfileProcess.h</text>
</a>
</g>
</g>
<!-- Node3&#45;&gt;Node4 -->
<g id="edge4" class="edge"><title>Node3&#45;&gt;Node4</title>
<path fill="none" stroke="midnightblue" d="M218.281,-285.975C245.555,-275.769 291.413,-258.608 322.301,-247.049"/>
<polygon fill="midnightblue" stroke="midnightblue" points="323.622,-250.292 331.761,-243.509 321.169,-243.736 323.622,-250.292"/>
</g>
<!-- Node21 -->
<g id="node22" class="node"><title>Node21</title>
<g id="a_node22"><a xlink:href="MixtureProfileProcess_8h.html" target="_top" xlink:title="MixtureProfileProcess.h">
<polygon fill="none" stroke="black" points="104,-224.5 104,-243.5 225,-243.5 225,-224.5 104,-224.5"/>
<text text-anchor="middle" x="164.5" y="-231.5" font-family="Helvetica,sans-Serif" font-size="10.00">MixtureProfileProcess.h</text>
</a>
</g>
</g>
<!-- Node3&#45;&gt;Node21 -->
<g id="edge28" class="edge"><title>Node3&#45;&gt;Node21</title>
<path fill="none" stroke="midnightblue" d="M191.058,-285.975C186.547,-277.315 179.426,-263.649 173.693,-252.645"/>
<polygon fill="midnightblue" stroke="midnightblue" points="176.658,-250.76 168.933,-243.509 170.45,-253.995 176.658,-250.76"/>
</g>
<!-- Node5 -->
<g id="node6" class="node"><title>Node5</title>
<g id="a_node6"><a xlink:href="SubMatrix_8h.html" target="_top" xlink:title="SubMatrix.h">
<polygon fill="none" stroke="black" points="333,-168.5 333,-187.5 402,-187.5 402,-168.5 333,-168.5"/>
<text text-anchor="middle" x="367.5" y="-175.5" font-family="Helvetica,sans-Serif" font-size="10.00">SubMatrix.h</text>
</a>
</g>
</g>
<!-- Node4&#45;&gt;Node5 -->
<g id="edge5" class="edge"><title>Node4&#45;&gt;Node5</title>
<path fill="none" stroke="midnightblue" d="M356.647,-224.083C358.369,-216.927 360.847,-206.635 363,-197.691"/>
<polygon fill="midnightblue" stroke="midnightblue" points="366.455,-198.293 365.393,-187.751 359.65,-196.654 366.455,-198.293"/>
</g>
<!-- Node13 -->
<g id="node14" class="node"><title>Node13</title>
<g id="a_node14"><a xlink:href="ProfileProcess_8h.html" target="_top" xlink:title="ProfileProcess.h">
<polygon fill="none" stroke="black" points="144,-168.5 144,-187.5 233,-187.5 233,-168.5 144,-168.5"/>
<text text-anchor="middle" x="188.5" y="-175.5" font-family="Helvetica,sans-Serif" font-size="10.00">ProfileProcess.h</text>
</a>
</g>
</g>
<!-- Node4&#45;&gt;Node13 -->
<g id="edge15" class="edge"><title>Node4&#45;&gt;Node13</title>
<path fill="none" stroke="midnightblue" d="M328.197,-224.444C300.149,-215.32 255.556,-200.813 224.316,-190.651"/>
<polygon fill="midnightblue" stroke="midnightblue" points="225.272,-187.282 214.68,-187.516 223.107,-193.938 225.272,-187.282"/>
</g>
<!-- Node6 -->
<g id="node7" class="node"><title>Node6</title>
<polygon fill="none" stroke="#bfbfbf" points="230.5,-0.5 230.5,-19.5 284.5,-19.5 284.5,-0.5 230.5,-0.5"/>
<text text-anchor="middle" x="257.5" y="-7.5" font-family="Helvetica,sans-Serif" font-size="10.00">iostream</text>
</g>
<!-- Node5&#45;&gt;Node6 -->
<g id="edge6" class="edge"><title>Node5&#45;&gt;Node6</title>
<path fill="none" stroke="midnightblue" d="M387.189,-168.454C428.84,-149.22 519.156,-100.713 482.5,-56 459.2,-27.5782 352.6,-16.7497 294.883,-12.9184"/>
<polygon fill="midnightblue" stroke="midnightblue" points="294.906,-9.41302 284.707,-12.2818 294.468,-16.3994 294.906,-9.41302"/>
</g>
<!-- Node7 -->
<g id="node8" class="node"><title>Node7</title>
<polygon fill="none" stroke="#bfbfbf" points="147.5,-56.5 147.5,-75.5 191.5,-75.5 191.5,-56.5 147.5,-56.5"/>
<text text-anchor="middle" x="169.5" y="-63.5" font-family="Helvetica,sans-Serif" font-size="10.00">cmath</text>
</g>
<!-- Node5&#45;&gt;Node7 -->
<g id="edge7" class="edge"><title>Node5&#45;&gt;Node7</title>
<path fill="none" stroke="midnightblue" d="M351.963,-168.368C317.625,-149.292 235.06,-103.422 193.81,-80.5054"/>
<polygon fill="midnightblue" stroke="midnightblue" points="195.406,-77.3883 184.965,-75.5914 192.006,-83.5075 195.406,-77.3883"/>
</g>
<!-- Node8 -->
<g id="node9" class="node"><title>Node8</title>
<g id="a_node9"><a xlink:href="Random_8h.html" target="_top" xlink:title="Random.h">
<polygon fill="none" stroke="black" points="336.5,-112.5 336.5,-131.5 398.5,-131.5 398.5,-112.5 336.5,-112.5"/>
<text text-anchor="middle" x="367.5" y="-119.5" font-family="Helvetica,sans-Serif" font-size="10.00">Random.h</text>
</a>
</g>
</g>
<!-- Node5&#45;&gt;Node8 -->
<g id="edge8" class="edge"><title>Node5&#45;&gt;Node8</title>
<path fill="none" stroke="midnightblue" d="M367.5,-168.083C367.5,-161.006 367.5,-150.861 367.5,-141.986"/>
<polygon fill="midnightblue" stroke="midnightblue" points="371,-141.751 367.5,-131.751 364,-141.751 371,-141.751"/>
</g>
<!-- Node8&#45;&gt;Node6 -->
<g id="edge11" class="edge"><title>Node8&#45;&gt;Node6</title>
<path fill="none" stroke="midnightblue" d="M336.414,-112.712C316.624,-105.917 291.904,-94.3643 276.5,-76 265.53,-62.9221 260.892,-43.7712 258.932,-29.6422"/>
<polygon fill="midnightblue" stroke="midnightblue" points="262.402,-29.1736 257.864,-19.5996 255.441,-29.9135 262.402,-29.1736"/>
</g>
<!-- Node8&#45;&gt;Node7 -->
<g id="edge9" class="edge"><title>Node8&#45;&gt;Node7</title>
<path fill="none" stroke="midnightblue" d="M336.126,-112.444C299.247,-102.386 238.385,-85.7869 201.316,-75.677"/>
<polygon fill="midnightblue" stroke="midnightblue" points="202.099,-72.263 191.531,-73.0084 200.258,-79.0163 202.099,-72.263"/>
</g>
<!-- Node9 -->
<g id="node10" class="node"><title>Node9</title>
<polygon fill="none" stroke="#bfbfbf" points="517,-0.5 517,-19.5 562,-19.5 562,-0.5 517,-0.5"/>
<text text-anchor="middle" x="539.5" y="-7.5" font-family="Helvetica,sans-Serif" font-size="10.00">cstdlib</text>
</g>
<!-- Node8&#45;&gt;Node9 -->
<g id="edge10" class="edge"><title>Node8&#45;&gt;Node9</title>
<path fill="none" stroke="midnightblue" d="M398.759,-113.174C423.077,-106.089 456.878,-93.9812 482.5,-76 501.043,-62.9862 517.535,-42.7225 527.949,-28.2819"/>
<polygon fill="midnightblue" stroke="midnightblue" points="531.034,-29.9751 533.874,-19.7679 525.289,-25.9763 531.034,-29.9751"/>
</g>
<!-- Node10 -->
<g id="node11" class="node"><title>Node10</title>
<polygon fill="none" stroke="#bfbfbf" points="353.5,-56.5 353.5,-75.5 405.5,-75.5 405.5,-56.5 353.5,-56.5"/>
<text text-anchor="middle" x="379.5" y="-63.5" font-family="Helvetica,sans-Serif" font-size="10.00">sstream</text>
</g>
<!-- Node8&#45;&gt;Node10 -->
<g id="edge12" class="edge"><title>Node8&#45;&gt;Node10</title>
<path fill="none" stroke="midnightblue" d="M369.482,-112.083C371.072,-104.927 373.359,-94.6353 375.346,-85.6911"/>
<polygon fill="midnightblue" stroke="midnightblue" points="378.803,-86.2722 377.555,-75.7511 371.969,-84.7537 378.803,-86.2722"/>
</g>
<!-- Node11 -->
<g id="node12" class="node"><title>Node11</title>
<polygon fill="none" stroke="#bfbfbf" points="423.5,-56.5 423.5,-75.5 473.5,-75.5 473.5,-56.5 423.5,-56.5"/>
<text text-anchor="middle" x="448.5" y="-63.5" font-family="Helvetica,sans-Serif" font-size="10.00">iomanip</text>
</g>
<!-- Node8&#45;&gt;Node11 -->
<g id="edge13" class="edge"><title>Node8&#45;&gt;Node11</title>
<path fill="none" stroke="midnightblue" d="M380.514,-112.324C393.032,-103.979 412.182,-91.2122 426.971,-81.3524"/>
<polygon fill="midnightblue" stroke="midnightblue" points="429.139,-84.1137 435.518,-75.6545 425.256,-78.2894 429.139,-84.1137"/>
</g>
<!-- Node12 -->
<g id="node13" class="node"><title>Node12</title>
<polygon fill="none" stroke="#bfbfbf" points="285.5,-56.5 285.5,-75.5 335.5,-75.5 335.5,-56.5 285.5,-56.5"/>
<text text-anchor="middle" x="310.5" y="-63.5" font-family="Helvetica,sans-Serif" font-size="10.00">fstream</text>
</g>
<!-- Node8&#45;&gt;Node12 -->
<g id="edge14" class="edge"><title>Node8&#45;&gt;Node12</title>
<path fill="none" stroke="midnightblue" d="M358.342,-112.324C349.999,-104.42 337.468,-92.5482 327.323,-82.9377"/>
<polygon fill="midnightblue" stroke="midnightblue" points="329.491,-80.1705 319.825,-75.8339 324.677,-85.2522 329.491,-80.1705"/>
</g>
<!-- Node13&#45;&gt;Node6 -->
<g id="edge26" class="edge"><title>Node13&#45;&gt;Node6</title>
<path fill="none" stroke="midnightblue" d="M192.21,-168.075C203.118,-141.832 235.243,-64.5453 249.97,-29.1165"/>
<polygon fill="midnightblue" stroke="midnightblue" points="253.332,-30.1456 253.939,-19.5681 246.868,-27.4588 253.332,-30.1456"/>
</g>
<!-- Node14 -->
<g id="node15" class="node"><title>Node14</title>
<g id="a_node15"><a xlink:href="Chrono_8h.html" target="_top" xlink:title="Chrono.h">
<polygon fill="none" stroke="black" points="73.5,-56.5 73.5,-75.5 129.5,-75.5 129.5,-56.5 73.5,-56.5"/>
<text text-anchor="middle" x="101.5" y="-63.5" font-family="Helvetica,sans-Serif" font-size="10.00">Chrono.h</text>
</a>
</g>
</g>
<!-- Node13&#45;&gt;Node14 -->
<g id="edge16" class="edge"><title>Node13&#45;&gt;Node14</title>
<path fill="none" stroke="midnightblue" d="M186.456,-168.249C183.035,-155.006 175.144,-129.562 161.5,-112 151.824,-99.5455 137.872,-88.8026 125.857,-80.9397"/>
<polygon fill="midnightblue" stroke="midnightblue" points="127.486,-77.8309 117.149,-75.5077 123.782,-83.7701 127.486,-77.8309"/>
</g>
<!-- Node17 -->
<g id="node18" class="node"><title>Node17</title>
<g id="a_node18"><a xlink:href="StateSpace_8h.html" target="_top" xlink:title="StateSpace.h">
<polygon fill="none" stroke="black" points="529.5,-112.5 529.5,-131.5 605.5,-131.5 605.5,-112.5 529.5,-112.5"/>
<text text-anchor="middle" x="567.5" y="-119.5" font-family="Helvetica,sans-Serif" font-size="10.00">StateSpace.h</text>
</a>
</g>
</g>
<!-- Node13&#45;&gt;Node17 -->
<g id="edge21" class="edge"><title>Node13&#45;&gt;Node17</title>
<path fill="none" stroke="midnightblue" d="M233.091,-170.647C304.854,-160.422 445.393,-140.398 519.356,-129.859"/>
<polygon fill="midnightblue" stroke="midnightblue" points="519.931,-133.313 529.337,-128.437 518.943,-126.383 519.931,-133.313"/>
</g>
<!-- Node20 -->
<g id="node21" class="node"><title>Node20</title>
<polygon fill="none" stroke="#bfbfbf" points="118,-112.5 118,-131.5 153,-131.5 153,-112.5 118,-112.5"/>
<text text-anchor="middle" x="135.5" y="-119.5" font-family="Helvetica,sans-Serif" font-size="10.00">map</text>
</g>
<!-- Node13&#45;&gt;Node20 -->
<g id="edge27" class="edge"><title>Node13&#45;&gt;Node20</title>
<path fill="none" stroke="midnightblue" d="M179.748,-168.083C172.03,-160.22 160.595,-148.569 151.283,-139.081"/>
<polygon fill="midnightblue" stroke="midnightblue" points="153.592,-136.436 144.089,-131.751 148.596,-141.34 153.592,-136.436"/>
</g>
<!-- Node14&#45;&gt;Node6 -->
<g id="edge19" class="edge"><title>Node14&#45;&gt;Node6</title>
<path fill="none" stroke="midnightblue" d="M126.219,-56.4435C152.348,-47.3986 193.759,-33.064 223.076,-22.9158"/>
<polygon fill="midnightblue" stroke="midnightblue" points="224.592,-26.0951 232.897,-19.5164 222.302,-19.4801 224.592,-26.0951"/>
</g>
<!-- Node14&#45;&gt;Node9 -->
<g id="edge20" class="edge"><title>Node14&#45;&gt;Node9</title>
<path fill="none" stroke="midnightblue" d="M129.704,-57.7492C132.663,-57.1055 135.636,-56.507 138.5,-56 274.043,-32.0095 437.75,-18.3362 506.539,-13.2755"/>
<polygon fill="midnightblue" stroke="midnightblue" points="507.024,-16.7496 516.745,-12.537 506.518,-9.76789 507.024,-16.7496"/>
</g>
<!-- Node15 -->
<g id="node16" class="node"><title>Node15</title>
<polygon fill="none" stroke="#bfbfbf" points="116,-0.5 116,-19.5 157,-19.5 157,-0.5 116,-0.5"/>
<text text-anchor="middle" x="136.5" y="-7.5" font-family="Helvetica,sans-Serif" font-size="10.00">ctime</text>
</g>
<!-- Node14&#45;&gt;Node15 -->
<g id="edge17" class="edge"><title>Node14&#45;&gt;Node15</title>
<path fill="none" stroke="midnightblue" d="M107.28,-56.083C112.172,-48.5341 119.327,-37.4948 125.333,-28.2298"/>
<polygon fill="midnightblue" stroke="midnightblue" points="128.326,-30.0463 130.828,-19.7511 122.452,-26.239 128.326,-30.0463"/>
</g>
<!-- Node16 -->
<g id="node17" class="node"><title>Node16</title>
<polygon fill="none" stroke="#bfbfbf" points="35.5,-0.5 35.5,-19.5 97.5,-19.5 97.5,-0.5 35.5,-0.5"/>
<text text-anchor="middle" x="66.5" y="-7.5" font-family="Helvetica,sans-Serif" font-size="10.00">sys/time.h</text>
</g>
<!-- Node14&#45;&gt;Node16 -->
<g id="edge18" class="edge"><title>Node14&#45;&gt;Node16</title>
<path fill="none" stroke="midnightblue" d="M95.7205,-56.083C90.8276,-48.5341 83.6726,-37.4948 77.6674,-28.2298"/>
<polygon fill="midnightblue" stroke="midnightblue" points="80.548,-26.239 72.172,-19.7511 74.674,-30.0463 80.548,-26.239"/>
</g>
<!-- Node18 -->
<g id="node19" class="node"><title>Node18</title>
<g id="a_node19"><a xlink:href="BiologicalSequences_8h.html" target="_top" xlink:title="BiologicalSequences.h">
<polygon fill="none" stroke="black" points="567.5,-56.5 567.5,-75.5 683.5,-75.5 683.5,-56.5 567.5,-56.5"/>
<text text-anchor="middle" x="625.5" y="-63.5" font-family="Helvetica,sans-Serif" font-size="10.00">BiologicalSequences.h</text>
</a>
</g>
</g>
<!-- Node17&#45;&gt;Node18 -->
<g id="edge22" class="edge"><title>Node17&#45;&gt;Node18</title>
<path fill="none" stroke="midnightblue" d="M576.819,-112.324C585.393,-104.341 598.312,-92.3128 608.688,-82.6529"/>
<polygon fill="midnightblue" stroke="midnightblue" points="611.078,-85.2098 616.012,-75.8339 606.308,-80.0865 611.078,-85.2098"/>
</g>
<!-- Node18&#45;&gt;Node6 -->
<g id="edge24" class="edge"><title>Node18&#45;&gt;Node6</title>
<path fill="none" stroke="midnightblue" d="M567.189,-56.4435C490.781,-45.2315 358.982,-25.8914 294.796,-16.4727"/>
<polygon fill="midnightblue" stroke="midnightblue" points="295.128,-12.9841 284.726,-14.9951 294.112,-19.9099 295.128,-12.9841"/>
</g>
<!-- Node18&#45;&gt;Node9 -->
<g id="edge23" class="edge"><title>Node18&#45;&gt;Node9</title>
<path fill="none" stroke="midnightblue" d="M611.683,-56.324C598.267,-47.9002 577.676,-34.9709 561.914,-25.0741"/>
<polygon fill="midnightblue" stroke="midnightblue" points="563.613,-22.0081 553.283,-19.6545 559.891,-27.9364 563.613,-22.0081"/>
</g>
<!-- Node19 -->
<g id="node20" class="node"><title>Node19</title>
<polygon fill="none" stroke="#bfbfbf" points="605,-0.5 605,-19.5 646,-19.5 646,-0.5 605,-0.5"/>
<text text-anchor="middle" x="625.5" y="-7.5" font-family="Helvetica,sans-Serif" font-size="10.00">string</text>
</g>
<!-- Node18&#45;&gt;Node19 -->
<g id="edge25" class="edge"><title>Node18&#45;&gt;Node19</title>
<path fill="none" stroke="midnightblue" d="M625.5,-56.083C625.5,-49.0059 625.5,-38.8611 625.5,-29.9865"/>
<polygon fill="midnightblue" stroke="midnightblue" points="629,-29.751 625.5,-19.7511 622,-29.7511 629,-29.751"/>
</g>
<!-- Node21&#45;&gt;Node7 -->
<g id="edge29" class="edge"><title>Node21&#45;&gt;Node7</title>
<path fill="none" stroke="midnightblue" d="M154.952,-224.396C134.011,-204.439 87.5281,-153.532 108.5,-112 115.307,-98.5199 128.268,-88.083 140.498,-80.6696"/>
<polygon fill="midnightblue" stroke="midnightblue" points="142.57,-83.5214 149.594,-75.5896 139.157,-77.4099 142.57,-83.5214"/>
</g>
<!-- Node21&#45;&gt;Node13 -->
<g id="edge30" class="edge"><title>Node21&#45;&gt;Node13</title>
<path fill="none" stroke="midnightblue" d="M168.463,-224.083C171.713,-216.77 176.419,-206.181 180.454,-197.103"/>
<polygon fill="midnightblue" stroke="midnightblue" points="183.748,-198.311 184.611,-187.751 177.351,-195.468 183.748,-198.311"/>
</g>
<!-- Node22&#45;&gt;Node7 -->
<g id="edge32" class="edge"><title>Node22&#45;&gt;Node7</title>
<path fill="none" stroke="midnightblue" d="M51.6244,-285.955C52.436,-258.141 58.2902,-168.72 99.5,-112 109.436,-98.3249 124.911,-87.7502 138.787,-80.2984"/>
<polygon fill="midnightblue" stroke="midnightblue" points="140.69,-83.2592 148.05,-75.6386 137.544,-77.0058 140.69,-83.2592"/>
</g>
<!-- Node22&#45;&gt;Node21 -->
<g id="edge33" class="edge"><title>Node22&#45;&gt;Node21</title>
<path fill="none" stroke="midnightblue" d="M67.6901,-285.975C86.4024,-276.122 117.423,-259.788 139.299,-248.27"/>
<polygon fill="midnightblue" stroke="midnightblue" points="141.122,-251.265 148.34,-243.509 137.861,-245.071 141.122,-251.265"/>
</g>
<!-- Node23&#45;&gt;Node3 -->
<g id="edge40" class="edge"><title>Node23&#45;&gt;Node3</title>
<path fill="none" stroke="midnightblue" d="M394.958,-352.869C353.947,-341.278 280.998,-320.662 235.603,-307.834"/>
<polygon fill="midnightblue" stroke="midnightblue" points="236.377,-304.415 225.802,-305.064 234.473,-311.151 236.377,-304.415"/>
</g>
<!-- Node24 -->
<g id="node25" class="node"><title>Node24</title>
<g id="a_node25"><a xlink:href="GTRProfileProcess_8h.html" target="_top" xlink:title="GTRProfileProcess.h">
<polygon fill="none" stroke="black" points="439.5,-286 439.5,-305 549.5,-305 549.5,-286 439.5,-286"/>
<text text-anchor="middle" x="494.5" y="-293" font-family="Helvetica,sans-Serif" font-size="10.00">GTRProfileProcess.h</text>
</a>
</g>
</g>
<!-- Node23&#45;&gt;Node24 -->
<g id="edge35" class="edge"><title>Node23&#45;&gt;Node24</title>
<path fill="none" stroke="midnightblue" d="M434.806,-352.734C445.772,-342.403 464.207,-325.037 477.694,-312.332"/>
<polygon fill="midnightblue" stroke="midnightblue" points="480.463,-314.532 485.342,-305.127 475.663,-309.437 480.463,-314.532"/>
</g>
<!-- Node24&#45;&gt;Node4 -->
<g id="edge39" class="edge"><title>Node24&#45;&gt;Node4</title>
<path fill="none" stroke="midnightblue" d="M474.441,-285.975C450.738,-275.901 411.094,-259.053 383.917,-247.502"/>
<polygon fill="midnightblue" stroke="midnightblue" points="385.094,-244.199 374.521,-243.509 382.356,-250.642 385.094,-244.199"/>
</g>
<!-- Node25 -->
<g id="node26" class="node"><title>Node25</title>
<g id="a_node26"><a xlink:href="GTRSubMatrix_8h.html" target="_top" xlink:title="GTRSubMatrix.h">
<polygon fill="none" stroke="black" points="449.5,-224.5 449.5,-243.5 539.5,-243.5 539.5,-224.5 449.5,-224.5"/>
<text text-anchor="middle" x="494.5" y="-231.5" font-family="Helvetica,sans-Serif" font-size="10.00">GTRSubMatrix.h</text>
</a>
</g>
</g>
<!-- Node24&#45;&gt;Node25 -->
<g id="edge36" class="edge"><title>Node24&#45;&gt;Node25</title>
<path fill="none" stroke="midnightblue" d="M494.5,-285.975C494.5,-277.58 494.5,-264.481 494.5,-253.663"/>
<polygon fill="midnightblue" stroke="midnightblue" points="498,-253.509 494.5,-243.509 491,-253.509 498,-253.509"/>
</g>
<!-- Node25&#45;&gt;Node5 -->
<g id="edge38" class="edge"><title>Node25&#45;&gt;Node5</title>
<path fill="none" stroke="midnightblue" d="M474.376,-224.444C453.476,-215.557 420.565,-201.563 396.784,-191.451"/>
<polygon fill="midnightblue" stroke="midnightblue" points="398.102,-188.208 387.529,-187.516 395.362,-194.65 398.102,-188.208"/>
</g>
<!-- Node25&#45;&gt;Node18 -->
<g id="edge37" class="edge"><title>Node25&#45;&gt;Node18</title>
<path fill="none" stroke="midnightblue" d="M510.871,-224.337C537.404,-209.363 589.36,-175.969 614.5,-132 622.578,-117.873 625.076,-99.3866 625.7,-85.7418"/>
<polygon fill="midnightblue" stroke="midnightblue" points="629.202,-85.6767 625.866,-75.6208 622.203,-85.5622 629.202,-85.6767"/>
</g>
<!-- Node26&#45;&gt;Node3 -->
<g id="edge44" class="edge"><title>Node26&#45;&gt;Node3</title>
<path fill="none" stroke="midnightblue" d="M253.443,-347.396C241.562,-336.96 225.385,-322.751 213.144,-311.998"/>
<polygon fill="midnightblue" stroke="midnightblue" points="215.221,-309.164 205.398,-305.195 210.602,-314.424 215.221,-309.164"/>
</g>
<!-- Node27 -->
<g id="node28" class="node"><title>Node27</title>
<g id="a_node28"><a xlink:href="GeneralPathSuffStatMatrixProfileProcess_8h.html" target="_top" xlink:title="GeneralPathSuffStatMatrix\lProfileProcess.h">
<polygon fill="none" stroke="black" points="287.5,-280.5 287.5,-310.5 421.5,-310.5 421.5,-280.5 287.5,-280.5"/>
<text text-anchor="start" x="295.5" y="-298.5" font-family="Helvetica,sans-Serif" font-size="10.00">GeneralPathSuffStatMatrix</text>
<text text-anchor="middle" x="354.5" y="-287.5" font-family="Helvetica,sans-Serif" font-size="10.00">ProfileProcess.h</text>
</a>
</g>
</g>
<!-- Node26&#45;&gt;Node27 -->
<g id="edge42" class="edge"><title>Node26&#45;&gt;Node27</title>
<path fill="none" stroke="midnightblue" d="M287.944,-347.396C299.639,-338.452 314.959,-326.737 327.952,-316.802"/>
<polygon fill="midnightblue" stroke="midnightblue" points="330.275,-319.431 336.092,-310.577 326.023,-313.871 330.275,-319.431"/>
</g>
<!-- Node27&#45;&gt;Node4 -->
<g id="edge43" class="edge"><title>Node27&#45;&gt;Node4</title>
<path fill="none" stroke="midnightblue" d="M354.5,-280.399C354.5,-272.466 354.5,-262.458 354.5,-253.858"/>
<polygon fill="midnightblue" stroke="midnightblue" points="358,-253.658 354.5,-243.658 351,-253.658 358,-253.658"/>
</g>
</g>
</svg>
