<?xml version="1.0" encoding="UTF-8" standalone="no"?>
<!DOCTYPE svg PUBLIC "-//W3C//DTD SVG 1.1//EN"
 "http://www.w3.org/Graphics/SVG/1.1/DTD/svg11.dtd">
<!-- Generated by graphviz version 2.38.0 (20140413.2041)
 -->
<!-- Title: GeneralPathSuffStatMatrixSubstitutionProcess.h Pages: 1 -->
<svg width="1397pt" height="296pt"
 viewBox="0.00 0.00 1396.50 296.00" xmlns="http://www.w3.org/2000/svg" xmlns:xlink="http://www.w3.org/1999/xlink">
<g id="graph0" class="graph" transform="scale(1 1) rotate(0) translate(4 292)">
<title>GeneralPathSuffStatMatrixSubstitutionProcess.h</title>
<!-- Node26 -->
<g id="node1" class="node"><title>Node26</title>
<polygon fill="#bfbfbf" stroke="black" points="629.5,-257.5 629.5,-287.5 763.5,-287.5 763.5,-257.5 629.5,-257.5"/>
<text text-anchor="start" x="637.5" y="-275.5" font-family="Helvetica,sans-Serif" font-size="10.00">GeneralPathSuffStatMatrix</text>
<text text-anchor="middle" x="696.5" y="-264.5" font-family="Helvetica,sans-Serif" font-size="10.00">SubstitutionProcess.h</text>
</g>
<!-- Node27 -->
<g id="node2" class="node"><title>Node27</title>
<g id="a_node2"><a xlink:href="AACodonMutSelFiniteSubstitutionProcess_8h.html" target="_top" xlink:title="AACodonMutSelFiniteSubstitution\lProcess.h">
<polygon fill="none" stroke="black" points="0,-190.5 0,-220.5 165,-220.5 165,-190.5 0,-190.5"/>
<text text-anchor="start" x="8" y="-208.5" font-family="Helvetica,sans-Serif" font-size="10.00">AACodonMutSelFiniteSubstitution</text>
<text text-anchor="middle" x="82.5" y="-197.5" font-family="Helvetica,sans-Serif" font-size="10.00">Process.h</text>
</a>
</g>
</g>
<!-- Node26&#45;&gt;Node27 -->
<g id="edge1" class="edge"><title>Node26&#45;&gt;Node27</title>
<path fill="none" stroke="midnightblue" d="M619.171,-265.242C517.804,-256.746 334.544,-240.377 178.5,-221 174.151,-220.46 169.695,-219.88 165.199,-219.274"/>
<polygon fill="midnightblue" stroke="midnightblue" points="619.065,-268.745 629.321,-266.09 619.647,-261.77 619.065,-268.745"/>
</g>
<!-- Node33 -->
<g id="node8" class="node"><title>Node33</title>
<g id="a_node8"><a xlink:href="GeneralPathSuffStatMatrixPhyloProcess_8h.html" target="_top" xlink:title="GeneralPathSuffStatMatrix\lPhyloProcess.h">
<polygon fill="none" stroke="black" points="548.5,-190.5 548.5,-220.5 682.5,-220.5 682.5,-190.5 548.5,-190.5"/>
<text text-anchor="start" x="556.5" y="-208.5" font-family="Helvetica,sans-Serif" font-size="10.00">GeneralPathSuffStatMatrix</text>
<text text-anchor="middle" x="615.5" y="-197.5" font-family="Helvetica,sans-Serif" font-size="10.00">PhyloProcess.h</text>
</a>
</g>
</g>
<!-- Node26&#45;&gt;Node33 -->
<g id="edge7" class="edge"><title>Node26&#45;&gt;Node33</title>
<path fill="none" stroke="midnightblue" d="M670.808,-250.883C658.499,-241.005 644.073,-229.429 633.041,-220.577"/>
<polygon fill="midnightblue" stroke="midnightblue" points="668.934,-253.867 678.924,-257.396 673.315,-248.407 668.934,-253.867"/>
</g>
<!-- Node42 -->
<g id="node17" class="node"><title>Node42</title>
<g id="a_node17"><a xlink:href="AACodonMutSelGeneSubstitutionProcess_8h.html" target="_top" xlink:title="AACodonMutSelGeneSubstitution\lProcess.h">
<polygon fill="none" stroke="black" points="874.5,-190.5 874.5,-220.5 1038.5,-220.5 1038.5,-190.5 874.5,-190.5"/>
<text text-anchor="start" x="882.5" y="-208.5" font-family="Helvetica,sans-Serif" font-size="10.00">AACodonMutSelGeneSubstitution</text>
<text text-anchor="middle" x="956.5" y="-197.5" font-family="Helvetica,sans-Serif" font-size="10.00">Process.h</text>
</a>
</g>
</g>
<!-- Node26&#45;&gt;Node42 -->
<g id="edge20" class="edge"><title>Node26&#45;&gt;Node42</title>
<path fill="none" stroke="midnightblue" d="M762.563,-254.984C805.03,-244.367 859.62,-230.72 900.056,-220.611"/>
<polygon fill="midnightblue" stroke="midnightblue" points="761.449,-251.655 752.596,-257.476 763.146,-258.446 761.449,-251.655"/>
</g>
<!-- Node43 -->
<g id="node18" class="node"><title>Node43</title>
<g id="a_node18"><a xlink:href="AACodonMutSelSBDPSubstitutionProcess_8h.html" target="_top" xlink:title="AACodonMutSelSBDPSubstitution\lProcess.h">
<polygon fill="none" stroke="black" points="188,-190.5 188,-220.5 357,-220.5 357,-190.5 188,-190.5"/>
<text text-anchor="start" x="196" y="-208.5" font-family="Helvetica,sans-Serif" font-size="10.00">AACodonMutSelSBDPSubstitution</text>
<text text-anchor="middle" x="272.5" y="-197.5" font-family="Helvetica,sans-Serif" font-size="10.00">Process.h</text>
</a>
</g>
</g>
<!-- Node26&#45;&gt;Node43 -->
<g id="edge22" class="edge"><title>Node26&#45;&gt;Node43</title>
<path fill="none" stroke="midnightblue" d="M619.124,-259.638C545.087,-248.288 433.684,-231.21 357.275,-219.496"/>
<polygon fill="midnightblue" stroke="midnightblue" points="618.901,-263.145 629.316,-261.201 619.962,-256.226 618.901,-263.145"/>
</g>
<!-- Node44 -->
<g id="node19" class="node"><title>Node44</title>
<g id="a_node19"><a xlink:href="CodonMutSelFiniteSubstitutionProcess_8h.html" target="_top" xlink:title="CodonMutSelFiniteSubstitution\lProcess.h">
<polygon fill="none" stroke="black" points="378.5,-190.5 378.5,-220.5 530.5,-220.5 530.5,-190.5 378.5,-190.5"/>
<text text-anchor="start" x="386.5" y="-208.5" font-family="Helvetica,sans-Serif" font-size="10.00">CodonMutSelFiniteSubstitution</text>
<text text-anchor="middle" x="454.5" y="-197.5" font-family="Helvetica,sans-Serif" font-size="10.00">Process.h</text>
</a>
</g>
</g>
<!-- Node26&#45;&gt;Node44 -->
<g id="edge24" class="edge"><title>Node26&#45;&gt;Node44</title>
<path fill="none" stroke="midnightblue" d="M634.51,-254.85C595.055,-244.252 544.515,-230.677 507.036,-220.611"/>
<polygon fill="midnightblue" stroke="midnightblue" points="633.722,-258.262 644.288,-257.476 635.538,-251.502 633.722,-258.262"/>
</g>
<!-- Node45 -->
<g id="node20" class="node"><title>Node45</title>
<g id="a_node20"><a xlink:href="CodonMutSelSBDPSubstitutionProcess_8h.html" target="_top" xlink:title="CodonMutSelSBDPSubstitution\lProcess.h">
<polygon fill="none" stroke="black" points="701,-190.5 701,-220.5 856,-220.5 856,-190.5 701,-190.5"/>
<text text-anchor="start" x="709" y="-208.5" font-family="Helvetica,sans-Serif" font-size="10.00">CodonMutSelSBDPSubstitution</text>
<text text-anchor="middle" x="778.5" y="-197.5" font-family="Helvetica,sans-Serif" font-size="10.00">Process.h</text>
</a>
</g>
</g>
<!-- Node26&#45;&gt;Node45 -->
<g id="edge26" class="edge"><title>Node26&#45;&gt;Node45</title>
<path fill="none" stroke="midnightblue" d="M722.15,-251.168C734.689,-241.228 749.466,-229.514 760.742,-220.577"/>
<polygon fill="midnightblue" stroke="midnightblue" points="719.955,-248.441 714.293,-257.396 724.304,-253.927 719.955,-248.441"/>
</g>
<!-- Node46 -->
<g id="node21" class="node"><title>Node46</title>
<g id="a_node21"><a xlink:href="GeneralPathSuffStatGTRSubstitutionProcess_8h.html" target="_top" xlink:title="GeneralPathSuffStatGTRSubstitution\lProcess.h">
<polygon fill="none" stroke="black" points="1057,-190.5 1057,-220.5 1236,-220.5 1236,-190.5 1057,-190.5"/>
<text text-anchor="start" x="1065" y="-208.5" font-family="Helvetica,sans-Serif" font-size="10.00">GeneralPathSuffStatGTRSubstitution</text>
<text text-anchor="middle" x="1146.5" y="-197.5" font-family="Helvetica,sans-Serif" font-size="10.00">Process.h</text>
</a>
</g>
</g>
<!-- Node26&#45;&gt;Node46 -->
<g id="edge28" class="edge"><title>Node26&#45;&gt;Node46</title>
<path fill="none" stroke="midnightblue" d="M774.015,-260.405C845.143,-250.211 953.426,-234.657 1047.5,-221 1050.59,-220.551 1053.74,-220.093 1056.92,-219.63"/>
<polygon fill="midnightblue" stroke="midnightblue" points="773.199,-256.986 763.796,-261.869 774.192,-263.915 773.199,-256.986"/>
</g>
<!-- Node47 -->
<g id="node22" class="node"><title>Node47</title>
<g id="a_node22"><a xlink:href="GeneralPathSuffStatMatrixSubstitutionProcess_8cpp.html" target="_top" xlink:title="GeneralPathSuffStatMatrix\lSubstitutionProcess.cpp">
<polygon fill="none" stroke="black" points="1254.5,-190.5 1254.5,-220.5 1388.5,-220.5 1388.5,-190.5 1254.5,-190.5"/>
<text text-anchor="start" x="1262.5" y="-208.5" font-family="Helvetica,sans-Serif" font-size="10.00">GeneralPathSuffStatMatrix</text>
<text text-anchor="middle" x="1321.5" y="-197.5" font-family="Helvetica,sans-Serif" font-size="10.00">SubstitutionProcess.cpp</text>
</a>
</g>
</g>
<!-- Node26&#45;&gt;Node47 -->
<g id="edge29" class="edge"><title>Node26&#45;&gt;Node47</title>
<path fill="none" stroke="midnightblue" d="M773.517,-266.776C879.973,-259.71 1077.94,-244.635 1245.5,-221 1248.43,-220.587 1251.41,-220.138 1254.42,-219.663"/>
<polygon fill="midnightblue" stroke="midnightblue" points="773.253,-263.286 763.505,-267.435 773.713,-270.271 773.253,-263.286"/>
</g>
<!-- Node28 -->
<g id="node3" class="node"><title>Node28</title>
<g id="a_node3"><a xlink:href="AACodonMutSelFinitePhyloProcess_8h.html" target="_top" xlink:title="AACodonMutSelFinitePhylo\lProcess.h">
<polygon fill="none" stroke="black" points="10.5,-123.5 10.5,-153.5 148.5,-153.5 148.5,-123.5 10.5,-123.5"/>
<text text-anchor="start" x="18.5" y="-141.5" font-family="Helvetica,sans-Serif" font-size="10.00">AACodonMutSelFinitePhylo</text>
<text text-anchor="middle" x="79.5" y="-130.5" font-family="Helvetica,sans-Serif" font-size="10.00">Process.h</text>
</a>
</g>
</g>
<!-- Node27&#45;&gt;Node28 -->
<g id="edge2" class="edge"><title>Node27&#45;&gt;Node28</title>
<path fill="none" stroke="midnightblue" d="M81.3878,-180.403C80.9709,-171.37 80.5111,-161.408 80.1497,-153.577"/>
<polygon fill="midnightblue" stroke="midnightblue" points="77.8916,-180.568 81.849,-190.396 84.8842,-180.245 77.8916,-180.568"/>
</g>
<!-- Node29 -->
<g id="node4" class="node"><title>Node29</title>
<g id="a_node4"><a xlink:href="AACodonMutSelFinitePhyloProcess_8cpp.html" target="_top" xlink:title="AACodonMutSelFinitePhylo\lProcess.cpp">
<polygon fill="none" stroke="black" points="4.5,-56.5 4.5,-86.5 142.5,-86.5 142.5,-56.5 4.5,-56.5"/>
<text text-anchor="start" x="12.5" y="-74.5" font-family="Helvetica,sans-Serif" font-size="10.00">AACodonMutSelFinitePhylo</text>
<text text-anchor="middle" x="73.5" y="-63.5" font-family="Helvetica,sans-Serif" font-size="10.00">Process.cpp</text>
</a>
</g>
</g>
<!-- Node28&#45;&gt;Node29 -->
<g id="edge3" class="edge"><title>Node28&#45;&gt;Node29</title>
<path fill="none" stroke="midnightblue" d="M77.2757,-113.403C76.4419,-104.37 75.5223,-94.4078 74.7994,-86.5765"/>
<polygon fill="midnightblue" stroke="midnightblue" points="73.7936,-113.76 78.1981,-123.396 80.764,-113.117 73.7936,-113.76"/>
</g>
<!-- Node30 -->
<g id="node5" class="node"><title>Node30</title>
<g id="a_node5"><a xlink:href="Model_8h.html" target="_top" xlink:title="Model.h">
<polygon fill="none" stroke="black" points="376,-62 376,-81 427,-81 427,-62 376,-62"/>
<text text-anchor="middle" x="401.5" y="-69" font-family="Helvetica,sans-Serif" font-size="10.00">Model.h</text>
</a>
</g>
</g>
<!-- Node28&#45;&gt;Node30 -->
<g id="edge4" class="edge"><title>Node28&#45;&gt;Node30</title>
<path fill="none" stroke="midnightblue" d="M158.675,-122.835C252.058,-106.802 278.964,-112.33 366.5,-87 371.933,-85.4278 377.666,-83.2755 382.884,-81.1103"/>
<polygon fill="midnightblue" stroke="midnightblue" points="158.058,-119.39 148.814,-124.566 159.268,-126.285 158.058,-119.39"/>
</g>
<!-- Node31 -->
<g id="node6" class="node"><title>Node31</title>
<g id="a_node6"><a xlink:href="PB_8cpp.html" target="_top" xlink:title="PB.cpp">
<polygon fill="none" stroke="black" points="338,-0.5 338,-19.5 387,-19.5 387,-0.5 338,-0.5"/>
<text text-anchor="middle" x="362.5" y="-7.5" font-family="Helvetica,sans-Serif" font-size="10.00">PB.cpp</text>
</a>
</g>
</g>
<!-- Node30&#45;&gt;Node31 -->
<g id="edge5" class="edge"><title>Node30&#45;&gt;Node31</title>
<path fill="none" stroke="midnightblue" d="M390.36,-53.5051C383.074,-42.388 373.865,-28.3395 368.077,-19.5091"/>
<polygon fill="midnightblue" stroke="midnightblue" points="387.503,-55.5303 395.912,-61.9751 393.357,-51.6929 387.503,-55.5303"/>
</g>
<!-- Node32 -->
<g id="node7" class="node"><title>Node32</title>
<g id="a_node7"><a xlink:href="ReadPB_8cpp.html" target="_top" xlink:title="ReadPB.cpp">
<polygon fill="none" stroke="black" points="405.5,-0.5 405.5,-19.5 477.5,-19.5 477.5,-0.5 405.5,-0.5"/>
<text text-anchor="middle" x="441.5" y="-7.5" font-family="Helvetica,sans-Serif" font-size="10.00">ReadPB.cpp</text>
</a>
</g>
</g>
<!-- Node30&#45;&gt;Node32 -->
<g id="edge6" class="edge"><title>Node30&#45;&gt;Node32</title>
<path fill="none" stroke="midnightblue" d="M412.925,-53.5051C420.399,-42.388 429.843,-28.3395 435.78,-19.5091"/>
<polygon fill="midnightblue" stroke="midnightblue" points="409.906,-51.7234 407.231,-61.9751 415.715,-55.6288 409.906,-51.7234"/>
</g>
<!-- Node33&#45;&gt;Node28 -->
<g id="edge8" class="edge"><title>Node33&#45;&gt;Node28</title>
<path fill="none" stroke="midnightblue" d="M538.409,-189.937C368.937,-166.423 323.172,-177.158 157.5,-154 154.635,-153.6 151.716,-153.167 148.77,-152.711"/>
<polygon fill="midnightblue" stroke="midnightblue" points="538.031,-193.418 548.421,-191.346 539.006,-186.486 538.031,-193.418"/>
</g>
<!-- Node34 -->
<g id="node9" class="node"><title>Node34</title>
<g id="a_node9"><a xlink:href="AACodonMutSelGenePhyloProcess_8h.html" target="_top" xlink:title="AACodonMutSelGenePhyloProcess.h">
<polygon fill="none" stroke="black" points="901.5,-129 901.5,-148 1083.5,-148 1083.5,-129 901.5,-129"/>
<text text-anchor="middle" x="992.5" y="-136" font-family="Helvetica,sans-Serif" font-size="10.00">AACodonMutSelGenePhyloProcess.h</text>
</a>
</g>
</g>
<!-- Node33&#45;&gt;Node34 -->
<g id="edge9" class="edge"><title>Node33&#45;&gt;Node34</title>
<path fill="none" stroke="midnightblue" d="M692.721,-189.803C785.263,-173.294 881.357,-157.46 939.425,-148.037"/>
<polygon fill="midnightblue" stroke="midnightblue" points="691.849,-186.403 682.622,-191.61 693.082,-193.294 691.849,-186.403"/>
</g>
<!-- Node35 -->
<g id="node10" class="node"><title>Node35</title>
<g id="a_node10"><a xlink:href="AACodonMutSelSBDPPhyloProcess_8h.html" target="_top" xlink:title="AACodonMutSelSBDPPhyloProcess.h">
<polygon fill="none" stroke="black" points="166.5,-129 166.5,-148 352.5,-148 352.5,-129 166.5,-129"/>
<text text-anchor="middle" x="259.5" y="-136" font-family="Helvetica,sans-Serif" font-size="10.00">AACodonMutSelSBDPPhyloProcess.h</text>
</a>
</g>
</g>
<!-- Node33&#45;&gt;Node35 -->
<g id="edge10" class="edge"><title>Node33&#45;&gt;Node35</title>
<path fill="none" stroke="midnightblue" d="M538.31,-189.789C451.172,-173.655 361.315,-157.575 307.586,-148.021"/>
<polygon fill="midnightblue" stroke="midnightblue" points="537.9,-193.273 548.37,-191.654 539.176,-186.39 537.9,-193.273"/>
</g>
<!-- Node37 -->
<g id="node12" class="node"><title>Node37</title>
<g id="a_node12"><a xlink:href="CodonMutSelFinitePhyloProcess_8h.html" target="_top" xlink:title="CodonMutSelFinitePhyloProcess.h">
<polygon fill="none" stroke="black" points="370,-129 370,-148 539,-148 539,-129 370,-129"/>
<text text-anchor="middle" x="454.5" y="-136" font-family="Helvetica,sans-Serif" font-size="10.00">CodonMutSelFinitePhyloProcess.h</text>
</a>
</g>
</g>
<!-- Node33&#45;&gt;Node37 -->
<g id="edge13" class="edge"><title>Node33&#45;&gt;Node37</title>
<path fill="none" stroke="midnightblue" d="M571.216,-186.621C540.054,-174.04 499.744,-157.766 475.571,-148.007"/>
<polygon fill="midnightblue" stroke="midnightblue" points="569.982,-189.898 580.565,-190.396 572.603,-183.407 569.982,-189.898"/>
</g>
<!-- Node39 -->
<g id="node14" class="node"><title>Node39</title>
<g id="a_node14"><a xlink:href="CodonMutSelSBDPPhyloProcess_8h.html" target="_top" xlink:title="CodonMutSelSBDPPhyloProcess.h">
<polygon fill="none" stroke="black" points="710,-129 710,-148 883,-148 883,-129 710,-129"/>
<text text-anchor="middle" x="796.5" y="-136" font-family="Helvetica,sans-Serif" font-size="10.00">CodonMutSelSBDPPhyloProcess.h</text>
</a>
</g>
</g>
<!-- Node33&#45;&gt;Node39 -->
<g id="edge16" class="edge"><title>Node33&#45;&gt;Node39</title>
<path fill="none" stroke="midnightblue" d="M664.381,-186.946C699.536,-174.321 745.402,-157.85 772.811,-148.007"/>
<polygon fill="midnightblue" stroke="midnightblue" points="663.003,-183.722 654.774,-190.396 665.369,-190.31 663.003,-183.722"/>
</g>
<!-- Node41 -->
<g id="node16" class="node"><title>Node41</title>
<g id="a_node16"><a xlink:href="GeneralPathSuffStatMatrixPhyloProcess_8cpp.html" target="_top" xlink:title="GeneralPathSuffStatMatrix\lPhyloProcess.cpp">
<polygon fill="none" stroke="black" points="557.5,-123.5 557.5,-153.5 691.5,-153.5 691.5,-123.5 557.5,-123.5"/>
<text text-anchor="start" x="565.5" y="-141.5" font-family="Helvetica,sans-Serif" font-size="10.00">GeneralPathSuffStatMatrix</text>
<text text-anchor="middle" x="624.5" y="-130.5" font-family="Helvetica,sans-Serif" font-size="10.00">PhyloProcess.cpp</text>
</a>
</g>
</g>
<!-- Node33&#45;&gt;Node41 -->
<g id="edge19" class="edge"><title>Node33&#45;&gt;Node41</title>
<path fill="none" stroke="midnightblue" d="M618.837,-180.403C620.087,-171.37 621.467,-161.408 622.551,-153.577"/>
<polygon fill="midnightblue" stroke="midnightblue" points="615.358,-180.01 617.453,-190.396 622.291,-180.971 615.358,-180.01"/>
</g>
<!-- Node35&#45;&gt;Node30 -->
<g id="edge12" class="edge"><title>Node35&#45;&gt;Node30</title>
<path fill="none" stroke="midnightblue" d="M287.654,-124.613C315.779,-111.739 358.232,-92.3059 382.566,-81.1672"/>
<polygon fill="midnightblue" stroke="midnightblue" points="285.992,-121.524 278.357,-128.869 288.906,-127.889 285.992,-121.524"/>
</g>
<!-- Node36 -->
<g id="node11" class="node"><title>Node36</title>
<g id="a_node11"><a xlink:href="AACodonMutSelSBDPPhyloProcess_8cpp.html" target="_top" xlink:title="AACodonMutSelSBDPPhyloProcess.cpp">
<polygon fill="none" stroke="black" points="161,-62 161,-81 358,-81 358,-62 161,-62"/>
<text text-anchor="middle" x="259.5" y="-69" font-family="Helvetica,sans-Serif" font-size="10.00">AACodonMutSelSBDPPhyloProcess.cpp</text>
</a>
</g>
</g>
<!-- Node35&#45;&gt;Node36 -->
<g id="edge11" class="edge"><title>Node35&#45;&gt;Node36</title>
<path fill="none" stroke="midnightblue" d="M259.5,-118.537C259.5,-106.17 259.5,-90.6198 259.5,-81.1273"/>
<polygon fill="midnightblue" stroke="midnightblue" points="256,-118.734 259.5,-128.734 263,-118.734 256,-118.734"/>
</g>
<!-- Node37&#45;&gt;Node30 -->
<g id="edge15" class="edge"><title>Node37&#45;&gt;Node30</title>
<path fill="none" stroke="midnightblue" d="M440.859,-120.77C430.525,-108.097 416.748,-91.201 408.535,-81.1273"/>
<polygon fill="midnightblue" stroke="midnightblue" points="438.32,-123.195 447.352,-128.734 443.745,-118.772 438.32,-123.195"/>
</g>
<!-- Node38 -->
<g id="node13" class="node"><title>Node38</title>
<g id="a_node13"><a xlink:href="CodonMutSelFinitePhyloProcess_8cpp.html" target="_top" xlink:title="CodonMutSelFinitePhyloProcess.cpp">
<polygon fill="none" stroke="black" points="445,-62 445,-81 624,-81 624,-62 445,-62"/>
<text text-anchor="middle" x="534.5" y="-69" font-family="Helvetica,sans-Serif" font-size="10.00">CodonMutSelFinitePhyloProcess.cpp</text>
</a>
</g>
</g>
<!-- Node37&#45;&gt;Node38 -->
<g id="edge14" class="edge"><title>Node37&#45;&gt;Node38</title>
<path fill="none" stroke="midnightblue" d="M473.314,-122.213C489.076,-109.407 511.007,-91.5884 523.882,-81.1273"/>
<polygon fill="midnightblue" stroke="midnightblue" points="470.843,-119.711 465.289,-128.734 475.257,-125.144 470.843,-119.711"/>
</g>
<!-- Node39&#45;&gt;Node30 -->
<g id="edge18" class="edge"><title>Node39&#45;&gt;Node30</title>
<path fill="none" stroke="midnightblue" d="M730.871,-127.454C720.706,-125.937 710.323,-124.409 700.5,-123 582.845,-106.124 550.083,-118.597 435.5,-87 430.056,-85.4988 424.337,-83.3163 419.176,-81.0983"/>
<polygon fill="midnightblue" stroke="midnightblue" points="730.526,-130.942 740.934,-128.964 731.564,-124.019 730.526,-130.942"/>
</g>
<!-- Node40 -->
<g id="node15" class="node"><title>Node40</title>
<g id="a_node15"><a xlink:href="CodonMutSelSBDPPhyloProcess_8cpp.html" target="_top" xlink:title="CodonMutSelSBDPPhyloProcess.cpp">
<polygon fill="none" stroke="black" points="705,-62 705,-81 888,-81 888,-62 705,-62"/>
<text text-anchor="middle" x="796.5" y="-69" font-family="Helvetica,sans-Serif" font-size="10.00">CodonMutSelSBDPPhyloProcess.cpp</text>
</a>
</g>
</g>
<!-- Node39&#45;&gt;Node40 -->
<g id="edge17" class="edge"><title>Node39&#45;&gt;Node40</title>
<path fill="none" stroke="midnightblue" d="M796.5,-118.537C796.5,-106.17 796.5,-90.6198 796.5,-81.1273"/>
<polygon fill="midnightblue" stroke="midnightblue" points="793,-118.734 796.5,-128.734 800,-118.734 793,-118.734"/>
</g>
<!-- Node42&#45;&gt;Node34 -->
<g id="edge21" class="edge"><title>Node42&#45;&gt;Node34</title>
<path fill="none" stroke="midnightblue" d="M969.166,-181.632C975.571,-170.067 982.966,-156.714 987.685,-148.195"/>
<polygon fill="midnightblue" stroke="midnightblue" points="966.095,-179.952 964.311,-190.396 972.218,-183.344 966.095,-179.952"/>
</g>
<!-- Node43&#45;&gt;Node35 -->
<g id="edge23" class="edge"><title>Node43&#45;&gt;Node35</title>
<path fill="none" stroke="midnightblue" d="M267.65,-180.25C265.403,-169.017 262.875,-156.377 261.239,-148.195"/>
<polygon fill="midnightblue" stroke="midnightblue" points="264.286,-181.277 269.679,-190.396 271.15,-179.904 264.286,-181.277"/>
</g>
<!-- Node44&#45;&gt;Node37 -->
<g id="edge25" class="edge"><title>Node44&#45;&gt;Node37</title>
<path fill="none" stroke="midnightblue" d="M454.5,-180.25C454.5,-169.017 454.5,-156.377 454.5,-148.195"/>
<polygon fill="midnightblue" stroke="midnightblue" points="451,-180.396 454.5,-190.396 458,-180.396 451,-180.396"/>
</g>
<!-- Node45&#45;&gt;Node39 -->
<g id="edge27" class="edge"><title>Node45&#45;&gt;Node39</title>
<path fill="none" stroke="midnightblue" d="M785.119,-180.596C788.254,-169.278 791.803,-156.461 794.092,-148.195"/>
<polygon fill="midnightblue" stroke="midnightblue" points="781.702,-179.825 782.406,-190.396 788.448,-181.693 781.702,-179.825"/>
</g>
</g>
</svg>
