<?xml version="1.0" encoding="UTF-8" standalone="no"?>
<!DOCTYPE svg PUBLIC "-//W3C//DTD SVG 1.1//EN"
 "http://www.w3.org/Graphics/SVG/1.1/DTD/svg11.dtd">
<!-- Generated by graphviz version 2.38.0 (20140413.2041)
 -->
<!-- Title: GeneralPathSuffStatMatrixProfileProcess.h Pages: 1 -->
<svg width="593pt" height="319pt"
 viewBox="0.00 0.00 592.50 319.00" xmlns="http://www.w3.org/2000/svg" xmlns:xlink="http://www.w3.org/1999/xlink">
<g id="graph0" class="graph" transform="scale(1 1) rotate(0) translate(4 315)">
<title>GeneralPathSuffStatMatrixProfileProcess.h</title>
<!-- Node0 -->
<g id="node1" class="node"><title>Node0</title>
<polygon fill="#bfbfbf" stroke="black" points="255,-280.5 255,-310.5 389,-310.5 389,-280.5 255,-280.5"/>
<text text-anchor="start" x="263" y="-298.5" font-family="Helvetica,sans-Serif" font-size="10.00">GeneralPathSuffStatMatrix</text>
<text text-anchor="middle" x="322" y="-287.5" font-family="Helvetica,sans-Serif" font-size="10.00">ProfileProcess.h</text>
</g>
<!-- Node1 -->
<g id="node2" class="node"><title>Node1</title>
<g id="a_node2"><a xlink:href="MatrixProfileProcess_8h.html" target="_top" xlink:title="MatrixProfileProcess.h">
<polygon fill="none" stroke="black" points="264,-224.5 264,-243.5 380,-243.5 380,-224.5 264,-224.5"/>
<text text-anchor="middle" x="322" y="-231.5" font-family="Helvetica,sans-Serif" font-size="10.00">MatrixProfileProcess.h</text>
</a>
</g>
</g>
<!-- Node0&#45;&gt;Node1 -->
<g id="edge1" class="edge"><title>Node0&#45;&gt;Node1</title>
<path fill="none" stroke="midnightblue" d="M322,-280.399C322,-272.466 322,-262.458 322,-253.858"/>
<polygon fill="midnightblue" stroke="midnightblue" points="325.5,-253.658 322,-243.658 318.5,-253.658 325.5,-253.658"/>
</g>
<!-- Node2 -->
<g id="node3" class="node"><title>Node2</title>
<g id="a_node3"><a xlink:href="SubMatrix_8h.html" target="_top" xlink:title="SubMatrix.h">
<polygon fill="none" stroke="black" points="197.5,-112.5 197.5,-131.5 266.5,-131.5 266.5,-112.5 197.5,-112.5"/>
<text text-anchor="middle" x="232" y="-119.5" font-family="Helvetica,sans-Serif" font-size="10.00">SubMatrix.h</text>
</a>
</g>
</g>
<!-- Node1&#45;&gt;Node2 -->
<g id="edge2" class="edge"><title>Node1&#45;&gt;Node2</title>
<path fill="none" stroke="midnightblue" d="M314.938,-224.368C299.954,-206.055 264.767,-163.049 245.387,-139.362"/>
<polygon fill="midnightblue" stroke="midnightblue" points="248.071,-137.115 239.029,-131.591 242.653,-141.547 248.071,-137.115"/>
</g>
<!-- Node10 -->
<g id="node11" class="node"><title>Node10</title>
<g id="a_node11"><a xlink:href="ProfileProcess_8h.html" target="_top" xlink:title="ProfileProcess.h">
<polygon fill="none" stroke="black" points="332.5,-168.5 332.5,-187.5 421.5,-187.5 421.5,-168.5 332.5,-168.5"/>
<text text-anchor="middle" x="377" y="-175.5" font-family="Helvetica,sans-Serif" font-size="10.00">ProfileProcess.h</text>
</a>
</g>
</g>
<!-- Node1&#45;&gt;Node10 -->
<g id="edge12" class="edge"><title>Node1&#45;&gt;Node10</title>
<path fill="none" stroke="midnightblue" d="M331.082,-224.083C339.171,-216.141 351.195,-204.335 360.91,-194.797"/>
<polygon fill="midnightblue" stroke="midnightblue" points="363.403,-197.254 368.087,-187.751 358.499,-192.26 363.403,-197.254"/>
</g>
<!-- Node3 -->
<g id="node4" class="node"><title>Node3</title>
<polygon fill="none" stroke="#bfbfbf" points="268,-0.5 268,-19.5 322,-19.5 322,-0.5 268,-0.5"/>
<text text-anchor="middle" x="295" y="-7.5" font-family="Helvetica,sans-Serif" font-size="10.00">iostream</text>
</g>
<!-- Node2&#45;&gt;Node3 -->
<g id="edge3" class="edge"><title>Node2&#45;&gt;Node3</title>
<path fill="none" stroke="midnightblue" d="M236.944,-112.368C247.294,-94.2957 271.417,-52.1764 285.088,-28.3074"/>
<polygon fill="midnightblue" stroke="midnightblue" points="288.147,-30.0085 290.079,-19.5914 282.072,-26.5295 288.147,-30.0085"/>
</g>
<!-- Node4 -->
<g id="node5" class="node"><title>Node4</title>
<polygon fill="none" stroke="#bfbfbf" points="206,-0.5 206,-19.5 250,-19.5 250,-0.5 206,-0.5"/>
<text text-anchor="middle" x="228" y="-7.5" font-family="Helvetica,sans-Serif" font-size="10.00">cmath</text>
</g>
<!-- Node2&#45;&gt;Node4 -->
<g id="edge4" class="edge"><title>Node2&#45;&gt;Node4</title>
<path fill="none" stroke="midnightblue" d="M231.686,-112.368C231.041,-94.617 229.552,-53.6664 228.676,-29.5974"/>
<polygon fill="midnightblue" stroke="midnightblue" points="232.174,-29.4576 228.312,-19.5914 225.178,-29.712 232.174,-29.4576"/>
</g>
<!-- Node5 -->
<g id="node6" class="node"><title>Node5</title>
<g id="a_node6"><a xlink:href="Random_8h.html" target="_top" xlink:title="Random.h">
<polygon fill="none" stroke="black" points="135,-56.5 135,-75.5 197,-75.5 197,-56.5 135,-56.5"/>
<text text-anchor="middle" x="166" y="-63.5" font-family="Helvetica,sans-Serif" font-size="10.00">Random.h</text>
</a>
</g>
</g>
<!-- Node2&#45;&gt;Node5 -->
<g id="edge5" class="edge"><title>Node2&#45;&gt;Node5</title>
<path fill="none" stroke="midnightblue" d="M221.396,-112.324C211.544,-104.263 196.649,-92.0765 184.785,-82.3695"/>
<polygon fill="midnightblue" stroke="midnightblue" points="186.753,-79.4575 176.797,-75.8339 182.32,-84.8752 186.753,-79.4575"/>
</g>
<!-- Node5&#45;&gt;Node3 -->
<g id="edge8" class="edge"><title>Node5&#45;&gt;Node3</title>
<path fill="none" stroke="midnightblue" d="M186.44,-56.4435C207.67,-47.5566 241.099,-33.5632 265.255,-23.4514"/>
<polygon fill="midnightblue" stroke="midnightblue" points="266.782,-26.6064 274.655,-19.5164 264.079,-20.1493 266.782,-26.6064"/>
</g>
<!-- Node5&#45;&gt;Node4 -->
<g id="edge6" class="edge"><title>Node5&#45;&gt;Node4</title>
<path fill="none" stroke="midnightblue" d="M175.961,-56.324C185.127,-48.3414 198.937,-36.3128 210.028,-26.6529"/>
<polygon fill="midnightblue" stroke="midnightblue" points="212.615,-29.041 217.857,-19.8339 208.018,-23.7624 212.615,-29.041"/>
</g>
<!-- Node6 -->
<g id="node7" class="node"><title>Node6</title>
<polygon fill="none" stroke="#bfbfbf" points="340.5,-0.5 340.5,-19.5 385.5,-19.5 385.5,-0.5 340.5,-0.5"/>
<text text-anchor="middle" x="363" y="-7.5" font-family="Helvetica,sans-Serif" font-size="10.00">cstdlib</text>
</g>
<!-- Node5&#45;&gt;Node6 -->
<g id="edge7" class="edge"><title>Node5&#45;&gt;Node6</title>
<path fill="none" stroke="midnightblue" d="M197.039,-56.6134C228.275,-48.1564 278.086,-34.6233 330.473,-20.1301"/>
<polygon fill="midnightblue" stroke="midnightblue" points="331.578,-23.456 340.281,-17.4138 329.709,-16.7099 331.578,-23.456"/>
</g>
<!-- Node7 -->
<g id="node8" class="node"><title>Node7</title>
<polygon fill="none" stroke="#bfbfbf" points="0,-0.5 0,-19.5 52,-19.5 52,-0.5 0,-0.5"/>
<text text-anchor="middle" x="26" y="-7.5" font-family="Helvetica,sans-Serif" font-size="10.00">sstream</text>
</g>
<!-- Node5&#45;&gt;Node7 -->
<g id="edge9" class="edge"><title>Node5&#45;&gt;Node7</title>
<path fill="none" stroke="midnightblue" d="M143.817,-56.4435C120.572,-47.4776 83.8512,-33.314 57.5848,-23.1827"/>
<polygon fill="midnightblue" stroke="midnightblue" points="58.6692,-19.8497 48.0796,-19.5164 56.1501,-26.3807 58.6692,-19.8497"/>
</g>
<!-- Node8 -->
<g id="node9" class="node"><title>Node8</title>
<polygon fill="none" stroke="#bfbfbf" points="70,-0.5 70,-19.5 120,-19.5 120,-0.5 70,-0.5"/>
<text text-anchor="middle" x="95" y="-7.5" font-family="Helvetica,sans-Serif" font-size="10.00">iomanip</text>
</g>
<!-- Node5&#45;&gt;Node8 -->
<g id="edge10" class="edge"><title>Node5&#45;&gt;Node8</title>
<path fill="none" stroke="midnightblue" d="M154.593,-56.324C143.891,-48.1849 127.659,-35.8395 114.837,-26.0874"/>
<polygon fill="midnightblue" stroke="midnightblue" points="116.693,-23.1018 106.615,-19.8339 112.456,-28.6734 116.693,-23.1018"/>
</g>
<!-- Node9 -->
<g id="node10" class="node"><title>Node9</title>
<polygon fill="none" stroke="#bfbfbf" points="138,-0.5 138,-19.5 188,-19.5 188,-0.5 138,-0.5"/>
<text text-anchor="middle" x="163" y="-7.5" font-family="Helvetica,sans-Serif" font-size="10.00">fstream</text>
</g>
<!-- Node5&#45;&gt;Node9 -->
<g id="edge11" class="edge"><title>Node5&#45;&gt;Node9</title>
<path fill="none" stroke="midnightblue" d="M165.505,-56.083C165.111,-49.0059 164.548,-38.8611 164.055,-29.9865"/>
<polygon fill="midnightblue" stroke="midnightblue" points="167.536,-29.5415 163.486,-19.7511 160.546,-29.9299 167.536,-29.5415"/>
</g>
<!-- Node10&#45;&gt;Node3 -->
<g id="edge23" class="edge"><title>Node10&#45;&gt;Node3</title>
<path fill="none" stroke="midnightblue" d="M364.852,-168.349C354.188,-160.144 339.009,-146.882 330,-132 310.154,-99.2161 301.078,-54.6145 297.326,-29.7379"/>
<polygon fill="midnightblue" stroke="midnightblue" points="300.752,-28.9585 295.923,-19.5283 293.818,-29.9117 300.752,-28.9585"/>
</g>
<!-- Node11 -->
<g id="node12" class="node"><title>Node11</title>
<g id="a_node12"><a xlink:href="Chrono_8h.html" target="_top" xlink:title="Chrono.h">
<polygon fill="none" stroke="black" points="463,-56.5 463,-75.5 519,-75.5 519,-56.5 463,-56.5"/>
<text text-anchor="middle" x="491" y="-63.5" font-family="Helvetica,sans-Serif" font-size="10.00">Chrono.h</text>
</a>
</g>
</g>
<!-- Node10&#45;&gt;Node11 -->
<g id="edge13" class="edge"><title>Node10&#45;&gt;Node11</title>
<path fill="none" stroke="midnightblue" d="M386.027,-168.391C395.502,-159.347 410.823,-144.7 424,-132 441.363,-115.266 461.177,-96.0252 474.727,-82.8454"/>
<polygon fill="midnightblue" stroke="midnightblue" points="477.189,-85.3329 481.915,-75.8504 472.308,-80.3161 477.189,-85.3329"/>
</g>
<!-- Node14 -->
<g id="node15" class="node"><title>Node14</title>
<g id="a_node15"><a xlink:href="StateSpace_8h.html" target="_top" xlink:title="StateSpace.h">
<polygon fill="none" stroke="black" points="339,-112.5 339,-131.5 415,-131.5 415,-112.5 339,-112.5"/>
<text text-anchor="middle" x="377" y="-119.5" font-family="Helvetica,sans-Serif" font-size="10.00">StateSpace.h</text>
</a>
</g>
</g>
<!-- Node10&#45;&gt;Node14 -->
<g id="edge18" class="edge"><title>Node10&#45;&gt;Node14</title>
<path fill="none" stroke="midnightblue" d="M377,-168.083C377,-161.006 377,-150.861 377,-141.986"/>
<polygon fill="midnightblue" stroke="midnightblue" points="380.5,-141.751 377,-131.751 373.5,-141.751 380.5,-141.751"/>
</g>
<!-- Node17 -->
<g id="node18" class="node"><title>Node17</title>
<polygon fill="none" stroke="#bfbfbf" points="471.5,-112.5 471.5,-131.5 506.5,-131.5 506.5,-112.5 471.5,-112.5"/>
<text text-anchor="middle" x="489" y="-119.5" font-family="Helvetica,sans-Serif" font-size="10.00">map</text>
</g>
<!-- Node10&#45;&gt;Node17 -->
<g id="edge24" class="edge"><title>Node10&#45;&gt;Node17</title>
<path fill="none" stroke="midnightblue" d="M394.995,-168.324C413.144,-159.573 441.379,-145.96 462.17,-135.936"/>
<polygon fill="midnightblue" stroke="midnightblue" points="463.932,-138.972 471.419,-131.476 460.891,-132.667 463.932,-138.972"/>
</g>
<!-- Node11&#45;&gt;Node3 -->
<g id="edge16" class="edge"><title>Node11&#45;&gt;Node3</title>
<path fill="none" stroke="midnightblue" d="M462.918,-57.2631C428.423,-47.7595 369.814,-31.612 331.761,-21.1281"/>
<polygon fill="midnightblue" stroke="midnightblue" points="332.655,-17.7439 322.084,-18.4619 330.795,-24.4924 332.655,-17.7439"/>
</g>
<!-- Node11&#45;&gt;Node6 -->
<g id="edge17" class="edge"><title>Node11&#45;&gt;Node6</title>
<path fill="none" stroke="midnightblue" d="M470.718,-56.4435C449.653,-47.5566 416.483,-33.5632 392.514,-23.4514"/>
<polygon fill="midnightblue" stroke="midnightblue" points="393.761,-20.1787 383.187,-19.5164 391.04,-26.6283 393.761,-20.1787"/>
</g>
<!-- Node12 -->
<g id="node13" class="node"><title>Node12</title>
<polygon fill="none" stroke="#bfbfbf" points="543.5,-0.5 543.5,-19.5 584.5,-19.5 584.5,-0.5 543.5,-0.5"/>
<text text-anchor="middle" x="564" y="-7.5" font-family="Helvetica,sans-Serif" font-size="10.00">ctime</text>
</g>
<!-- Node11&#45;&gt;Node12 -->
<g id="edge14" class="edge"><title>Node11&#45;&gt;Node12</title>
<path fill="none" stroke="midnightblue" d="M502.729,-56.324C513.837,-48.1066 530.742,-35.6017 543.983,-25.8069"/>
<polygon fill="midnightblue" stroke="midnightblue" points="546.1,-28.5948 552.058,-19.8339 541.937,-22.9671 546.1,-28.5948"/>
</g>
<!-- Node13 -->
<g id="node14" class="node"><title>Node13</title>
<polygon fill="none" stroke="#bfbfbf" points="463,-0.5 463,-19.5 525,-19.5 525,-0.5 463,-0.5"/>
<text text-anchor="middle" x="494" y="-7.5" font-family="Helvetica,sans-Serif" font-size="10.00">sys/time.h</text>
</g>
<!-- Node11&#45;&gt;Node13 -->
<g id="edge15" class="edge"><title>Node11&#45;&gt;Node13</title>
<path fill="none" stroke="midnightblue" d="M491.495,-56.083C491.889,-49.0059 492.452,-38.8611 492.945,-29.9865"/>
<polygon fill="midnightblue" stroke="midnightblue" points="496.454,-29.9299 493.514,-19.7511 489.464,-29.5415 496.454,-29.9299"/>
</g>
<!-- Node15 -->
<g id="node16" class="node"><title>Node15</title>
<g id="a_node16"><a xlink:href="BiologicalSequences_8h.html" target="_top" xlink:title="BiologicalSequences.h">
<polygon fill="none" stroke="black" points="329,-56.5 329,-75.5 445,-75.5 445,-56.5 329,-56.5"/>
<text text-anchor="middle" x="387" y="-63.5" font-family="Helvetica,sans-Serif" font-size="10.00">BiologicalSequences.h</text>
</a>
</g>
</g>
<!-- Node14&#45;&gt;Node15 -->
<g id="edge19" class="edge"><title>Node14&#45;&gt;Node15</title>
<path fill="none" stroke="midnightblue" d="M378.651,-112.083C379.976,-104.927 381.882,-94.6353 383.539,-85.6911"/>
<polygon fill="midnightblue" stroke="midnightblue" points="387,-86.2212 385.379,-75.7511 380.117,-84.9466 387,-86.2212"/>
</g>
<!-- Node15&#45;&gt;Node3 -->
<g id="edge21" class="edge"><title>Node15&#45;&gt;Node3</title>
<path fill="none" stroke="midnightblue" d="M372.219,-56.324C357.733,-47.8215 335.427,-34.7288 318.507,-24.7975"/>
<polygon fill="midnightblue" stroke="midnightblue" points="320.141,-21.6981 309.745,-19.6545 316.597,-27.735 320.141,-21.6981"/>
</g>
<!-- Node15&#45;&gt;Node6 -->
<g id="edge20" class="edge"><title>Node15&#45;&gt;Node6</title>
<path fill="none" stroke="midnightblue" d="M383.037,-56.083C379.787,-48.77 375.081,-38.1814 371.046,-29.1034"/>
<polygon fill="midnightblue" stroke="midnightblue" points="374.149,-27.4677 366.889,-19.7511 367.752,-30.3107 374.149,-27.4677"/>
</g>
<!-- Node16 -->
<g id="node17" class="node"><title>Node16</title>
<polygon fill="none" stroke="#bfbfbf" points="403.5,-0.5 403.5,-19.5 444.5,-19.5 444.5,-0.5 403.5,-0.5"/>
<text text-anchor="middle" x="424" y="-7.5" font-family="Helvetica,sans-Serif" font-size="10.00">string</text>
</g>
<!-- Node15&#45;&gt;Node16 -->
<g id="edge22" class="edge"><title>Node15&#45;&gt;Node16</title>
<path fill="none" stroke="midnightblue" d="M393.11,-56.083C398.282,-48.5341 405.846,-37.4948 412.194,-28.2298"/>
<polygon fill="midnightblue" stroke="midnightblue" points="415.239,-29.9787 418.004,-19.7511 409.464,-26.0221 415.239,-29.9787"/>
</g>
</g>
</svg>
