<?xml version="1.0" encoding="UTF-8" standalone="no"?>
<!DOCTYPE svg PUBLIC "-//W3C//DTD SVG 1.1//EN"
 "http://www.w3.org/Graphics/SVG/1.1/DTD/svg11.dtd">
<!-- Generated by graphviz version 2.38.0 (20140413.2041)
 -->
<!-- Title: GeneProfileProcess.h Pages: 1 -->
<svg width="1181pt" height="364pt"
 viewBox="0.00 0.00 1181.00 364.00" xmlns="http://www.w3.org/2000/svg" xmlns:xlink="http://www.w3.org/1999/xlink">
<g id="graph0" class="graph" transform="scale(1 1) rotate(0) translate(4 360)">
<title>GeneProfileProcess.h</title>
<!-- Node0 -->
<g id="node1" class="node"><title>Node0</title>
<polygon fill="#bfbfbf" stroke="black" points="720,-336.5 720,-355.5 832,-355.5 832,-336.5 720,-336.5"/>
<text text-anchor="middle" x="776" y="-343.5" font-family="Helvetica,sans-Serif" font-size="10.00">GeneProfileProcess.h</text>
</g>
<!-- Node1 -->
<g id="node2" class="node"><title>Node1</title>
<g id="a_node2"><a xlink:href="PhyloProcess_8h.html" target="_top" xlink:title="PhyloProcess.h">
<polygon fill="none" stroke="black" points="733,-280.5 733,-299.5 819,-299.5 819,-280.5 733,-280.5"/>
<text text-anchor="middle" x="776" y="-287.5" font-family="Helvetica,sans-Serif" font-size="10.00">PhyloProcess.h</text>
</a>
</g>
</g>
<!-- Node0&#45;&gt;Node1 -->
<g id="edge1" class="edge"><title>Node0&#45;&gt;Node1</title>
<path fill="none" stroke="midnightblue" d="M776,-336.083C776,-329.006 776,-318.861 776,-309.986"/>
<polygon fill="midnightblue" stroke="midnightblue" points="779.5,-309.751 776,-299.751 772.5,-309.751 779.5,-309.751"/>
</g>
<!-- Node2 -->
<g id="node3" class="node"><title>Node2</title>
<g id="a_node3"><a xlink:href="SequenceAlignment_8h.html" target="_top" xlink:title="SequenceAlignment.h">
<polygon fill="none" stroke="black" points="215,-168.5 215,-187.5 327,-187.5 327,-168.5 215,-168.5"/>
<text text-anchor="middle" x="271" y="-175.5" font-family="Helvetica,sans-Serif" font-size="10.00">SequenceAlignment.h</text>
</a>
</g>
</g>
<!-- Node1&#45;&gt;Node2 -->
<g id="edge2" class="edge"><title>Node1&#45;&gt;Node2</title>
<path fill="none" stroke="midnightblue" d="M747.405,-280.441C702.19,-267.113 611.278,-241.154 533,-224 466.824,-209.498 390.397,-196.831 337.232,-188.664"/>
<polygon fill="midnightblue" stroke="midnightblue" points="337.665,-185.189 327.252,-187.141 336.609,-192.109 337.665,-185.189"/>
</g>
<!-- Node9 -->
<g id="node10" class="node"><title>Node9</title>
<polygon fill="none" stroke="#bfbfbf" points="931.5,-0.5 931.5,-19.5 966.5,-19.5 966.5,-0.5 931.5,-0.5"/>
<text text-anchor="middle" x="949" y="-7.5" font-family="Helvetica,sans-Serif" font-size="10.00">map</text>
</g>
<!-- Node1&#45;&gt;Node9 -->
<g id="edge59" class="edge"><title>Node1&#45;&gt;Node9</title>
<path fill="none" stroke="midnightblue" d="M819.088,-288.658C890.355,-285.571 1025,-267.966 1025,-179 1025,-179 1025,-179 1025,-121 1025,-81.2757 991.036,-45.5045 968.518,-26.1536"/>
<polygon fill="midnightblue" stroke="midnightblue" points="970.482,-23.2364 960.543,-19.5672 966.024,-28.6337 970.482,-23.2364"/>
</g>
<!-- Node15 -->
<g id="node16" class="node"><title>Node15</title>
<g id="a_node16"><a xlink:href="CodonSequenceAlignment_8h.html" target="_top" xlink:title="CodonSequenceAlignment.h">
<polygon fill="none" stroke="black" points="217,-224.5 217,-243.5 357,-243.5 357,-224.5 217,-224.5"/>
<text text-anchor="middle" x="287" y="-231.5" font-family="Helvetica,sans-Serif" font-size="10.00">CodonSequenceAlignment.h</text>
</a>
</g>
</g>
<!-- Node1&#45;&gt;Node15 -->
<g id="edge19" class="edge"><title>Node1&#45;&gt;Node15</title>
<path fill="none" stroke="midnightblue" d="M732.605,-284.208C650.603,-275.152 471.77,-255.404 367.299,-243.867"/>
<polygon fill="midnightblue" stroke="midnightblue" points="367.44,-240.362 357.117,-242.743 366.672,-247.32 367.44,-240.362"/>
</g>
<!-- Node17 -->
<g id="node18" class="node"><title>Node17</title>
<g id="a_node18"><a xlink:href="ZippedSequenceAlignment_8h.html" target="_top" xlink:title="ZippedSequenceAlignment.h">
<polygon fill="none" stroke="black" points="383.5,-224.5 383.5,-243.5 524.5,-243.5 524.5,-224.5 383.5,-224.5"/>
<text text-anchor="middle" x="454" y="-231.5" font-family="Helvetica,sans-Serif" font-size="10.00">ZippedSequenceAlignment.h</text>
</a>
</g>
</g>
<!-- Node1&#45;&gt;Node17 -->
<g id="edge25" class="edge"><title>Node1&#45;&gt;Node17</title>
<path fill="none" stroke="midnightblue" d="M732.908,-281.773C676.787,-272.362 578.356,-255.855 514.697,-245.179"/>
<polygon fill="midnightblue" stroke="midnightblue" points="515.232,-241.72 504.791,-243.518 514.074,-248.624 515.232,-241.72"/>
</g>
<!-- Node18 -->
<g id="node19" class="node"><title>Node18</title>
<g id="a_node19"><a xlink:href="SubstitutionProcess_8h.html" target="_top" xlink:title="SubstitutionProcess.h">
<polygon fill="none" stroke="black" points="675.5,-224.5 675.5,-243.5 788.5,-243.5 788.5,-224.5 675.5,-224.5"/>
<text text-anchor="middle" x="732" y="-231.5" font-family="Helvetica,sans-Serif" font-size="10.00">SubstitutionProcess.h</text>
</a>
</g>
</g>
<!-- Node1&#45;&gt;Node18 -->
<g id="edge27" class="edge"><title>Node1&#45;&gt;Node18</title>
<path fill="none" stroke="midnightblue" d="M768.734,-280.083C762.455,-272.377 753.212,-261.033 745.569,-251.653"/>
<polygon fill="midnightblue" stroke="midnightblue" points="748.161,-249.293 739.131,-243.751 742.734,-253.714 748.161,-249.293"/>
</g>
<!-- Node28 -->
<g id="node29" class="node"><title>Node28</title>
<g id="a_node29"><a xlink:href="BranchProcess_8h.html" target="_top" xlink:title="BranchProcess.h">
<polygon fill="none" stroke="black" points="786,-168.5 786,-187.5 878,-187.5 878,-168.5 786,-168.5"/>
<text text-anchor="middle" x="832" y="-175.5" font-family="Helvetica,sans-Serif" font-size="10.00">BranchProcess.h</text>
</a>
</g>
</g>
<!-- Node1&#45;&gt;Node28 -->
<g id="edge54" class="edge"><title>Node1&#45;&gt;Node28</title>
<path fill="none" stroke="midnightblue" d="M780.394,-280.368C789.554,-262.376 810.847,-220.55 823.026,-196.627"/>
<polygon fill="midnightblue" stroke="midnightblue" points="826.208,-198.091 827.626,-187.591 819.97,-194.915 826.208,-198.091"/>
</g>
<!-- Node29 -->
<g id="node30" class="node"><title>Node29</title>
<g id="a_node30"><a xlink:href="Parallel_8h.html" target="_top" xlink:title="Parallel.h">
<polygon fill="none" stroke="black" points="1053.5,-224.5 1053.5,-243.5 1110.5,-243.5 1110.5,-224.5 1053.5,-224.5"/>
<text text-anchor="middle" x="1082" y="-231.5" font-family="Helvetica,sans-Serif" font-size="10.00">Parallel.h</text>
</a>
</g>
</g>
<!-- Node1&#45;&gt;Node29 -->
<g id="edge57" class="edge"><title>Node1&#45;&gt;Node29</title>
<path fill="none" stroke="midnightblue" d="M819.369,-282.082C871.577,-273.639 961.864,-258.666 1039,-244 1040.45,-243.724 1041.93,-243.438 1043.42,-243.146"/>
<polygon fill="midnightblue" stroke="midnightblue" points="1044.23,-246.553 1053.35,-241.15 1042.85,-239.69 1044.23,-246.553"/>
</g>
<!-- Node31 -->
<g id="node32" class="node"><title>Node31</title>
<polygon fill="none" stroke="#bfbfbf" points="1129,-224.5 1129,-243.5 1173,-243.5 1173,-224.5 1129,-224.5"/>
<text text-anchor="middle" x="1151" y="-231.5" font-family="Helvetica,sans-Serif" font-size="10.00">vector</text>
</g>
<!-- Node1&#45;&gt;Node31 -->
<g id="edge60" class="edge"><title>Node1&#45;&gt;Node31</title>
<path fill="none" stroke="midnightblue" d="M819.108,-285.35C882.586,-279.537 1005.03,-266.66 1118.8,-243.737"/>
<polygon fill="midnightblue" stroke="midnightblue" points="1119.63,-247.14 1128.72,-241.707 1118.22,-240.282 1119.63,-247.14"/>
</g>
<!-- Node3 -->
<g id="node4" class="node"><title>Node3</title>
<g id="a_node4"><a xlink:href="StateSpace_8h.html" target="_top" xlink:title="StateSpace.h">
<polygon fill="none" stroke="black" points="292,-112.5 292,-131.5 368,-131.5 368,-112.5 292,-112.5"/>
<text text-anchor="middle" x="330" y="-119.5" font-family="Helvetica,sans-Serif" font-size="10.00">StateSpace.h</text>
</a>
</g>
</g>
<!-- Node2&#45;&gt;Node3 -->
<g id="edge3" class="edge"><title>Node2&#45;&gt;Node3</title>
<path fill="none" stroke="midnightblue" d="M280.479,-168.324C289.201,-160.341 302.343,-148.313 312.898,-138.653"/>
<polygon fill="midnightblue" stroke="midnightblue" points="315.334,-141.167 320.348,-131.834 310.608,-136.004 315.334,-141.167"/>
</g>
<!-- Node8 -->
<g id="node9" class="node"><title>Node8</title>
<g id="a_node9"><a xlink:href="TaxonSet_8h.html" target="_top" xlink:title="TaxonSet.h">
<polygon fill="none" stroke="black" points="739.5,-56.5 739.5,-75.5 806.5,-75.5 806.5,-56.5 739.5,-56.5"/>
<text text-anchor="middle" x="773" y="-63.5" font-family="Helvetica,sans-Serif" font-size="10.00">TaxonSet.h</text>
</a>
</g>
</g>
<!-- Node2&#45;&gt;Node8 -->
<g id="edge8" class="edge"><title>Node2&#45;&gt;Node8</title>
<path fill="none" stroke="midnightblue" d="M327.31,-168.947C412.112,-156.783 564.037,-134.834 576,-132 635.676,-117.864 703.125,-93.7744 741.603,-79.2273"/>
<polygon fill="midnightblue" stroke="midnightblue" points="743.101,-82.4023 751.198,-75.57 740.607,-75.8613 743.101,-82.4023"/>
</g>
<!-- Node10 -->
<g id="node11" class="node"><title>Node10</title>
<g id="a_node11"><a xlink:href="Random_8h.html" target="_top" xlink:title="Random.h">
<polygon fill="none" stroke="black" points="119,-56.5 119,-75.5 181,-75.5 181,-56.5 119,-56.5"/>
<text text-anchor="middle" x="150" y="-63.5" font-family="Helvetica,sans-Serif" font-size="10.00">Random.h</text>
</a>
</g>
</g>
<!-- Node2&#45;&gt;Node10 -->
<g id="edge12" class="edge"><title>Node2&#45;&gt;Node10</title>
<path fill="none" stroke="midnightblue" d="M261.505,-168.368C241.095,-149.814 192.804,-105.913 166.981,-82.4376"/>
<polygon fill="midnightblue" stroke="midnightblue" points="169.204,-79.7284 159.451,-75.5914 164.496,-84.908 169.204,-79.7284"/>
</g>
<!-- Node4 -->
<g id="node5" class="node"><title>Node4</title>
<g id="a_node5"><a xlink:href="BiologicalSequences_8h.html" target="_top" xlink:title="BiologicalSequences.h">
<polygon fill="none" stroke="black" points="275,-56.5 275,-75.5 391,-75.5 391,-56.5 275,-56.5"/>
<text text-anchor="middle" x="333" y="-63.5" font-family="Helvetica,sans-Serif" font-size="10.00">BiologicalSequences.h</text>
</a>
</g>
</g>
<!-- Node3&#45;&gt;Node4 -->
<g id="edge4" class="edge"><title>Node3&#45;&gt;Node4</title>
<path fill="none" stroke="midnightblue" d="M330.495,-112.083C330.889,-105.006 331.452,-94.8611 331.945,-85.9865"/>
<polygon fill="midnightblue" stroke="midnightblue" points="335.454,-85.9299 332.514,-75.7511 328.464,-85.5415 335.454,-85.9299"/>
</g>
<!-- Node5 -->
<g id="node6" class="node"><title>Node5</title>
<polygon fill="none" stroke="#bfbfbf" points="268.5,-0.5 268.5,-19.5 313.5,-19.5 313.5,-0.5 268.5,-0.5"/>
<text text-anchor="middle" x="291" y="-7.5" font-family="Helvetica,sans-Serif" font-size="10.00">cstdlib</text>
</g>
<!-- Node4&#45;&gt;Node5 -->
<g id="edge5" class="edge"><title>Node4&#45;&gt;Node5</title>
<path fill="none" stroke="midnightblue" d="M326.065,-56.083C320.071,-48.3768 311.248,-37.0333 303.952,-27.6531"/>
<polygon fill="midnightblue" stroke="midnightblue" points="306.709,-25.4958 297.806,-19.7511 301.183,-29.7934 306.709,-25.4958"/>
</g>
<!-- Node6 -->
<g id="node7" class="node"><title>Node6</title>
<polygon fill="none" stroke="#bfbfbf" points="589,-0.5 589,-19.5 643,-19.5 643,-0.5 589,-0.5"/>
<text text-anchor="middle" x="616" y="-7.5" font-family="Helvetica,sans-Serif" font-size="10.00">iostream</text>
</g>
<!-- Node4&#45;&gt;Node6 -->
<g id="edge6" class="edge"><title>Node4&#45;&gt;Node6</title>
<path fill="none" stroke="midnightblue" d="M377.842,-56.4435C433.396,-45.8432 527.026,-27.9774 578.791,-18.0999"/>
<polygon fill="midnightblue" stroke="midnightblue" points="579.701,-21.4895 588.868,-16.1772 578.389,-14.6136 579.701,-21.4895"/>
</g>
<!-- Node7 -->
<g id="node8" class="node"><title>Node7</title>
<polygon fill="none" stroke="#bfbfbf" points="783.5,-0.5 783.5,-19.5 824.5,-19.5 824.5,-0.5 783.5,-0.5"/>
<text text-anchor="middle" x="804" y="-7.5" font-family="Helvetica,sans-Serif" font-size="10.00">string</text>
</g>
<!-- Node4&#45;&gt;Node7 -->
<g id="edge7" class="edge"><title>Node4&#45;&gt;Node7</title>
<path fill="none" stroke="midnightblue" d="M391.226,-58.3244C492.071,-46.7626 695.855,-23.3988 773.242,-14.5264"/>
<polygon fill="midnightblue" stroke="midnightblue" points="773.763,-17.9897 783.299,-13.3734 772.965,-11.0353 773.763,-17.9897"/>
</g>
<!-- Node8&#45;&gt;Node6 -->
<g id="edge11" class="edge"><title>Node8&#45;&gt;Node6</title>
<path fill="none" stroke="midnightblue" d="M748.123,-56.4435C721.711,-47.3591 679.785,-32.9388 650.258,-22.7831"/>
<polygon fill="midnightblue" stroke="midnightblue" points="651.355,-19.4593 640.761,-19.5164 649.079,-26.0787 651.355,-19.4593"/>
</g>
<!-- Node8&#45;&gt;Node7 -->
<g id="edge10" class="edge"><title>Node8&#45;&gt;Node7</title>
<path fill="none" stroke="midnightblue" d="M778.119,-56.083C782.408,-48.6127 788.658,-37.7244 793.942,-28.5199"/>
<polygon fill="midnightblue" stroke="midnightblue" points="797.033,-30.1662 798.976,-19.7511 790.962,-26.6811 797.033,-30.1662"/>
</g>
<!-- Node8&#45;&gt;Node9 -->
<g id="edge9" class="edge"><title>Node8&#45;&gt;Node9</title>
<path fill="none" stroke="midnightblue" d="M800.888,-56.4435C833.949,-46.2999 888.693,-29.5034 921.557,-19.4199"/>
<polygon fill="midnightblue" stroke="midnightblue" points="922.87,-22.6782 931.404,-16.3989 920.817,-15.9861 922.87,-22.6782"/>
</g>
<!-- Node10&#45;&gt;Node5 -->
<g id="edge14" class="edge"><title>Node10&#45;&gt;Node5</title>
<path fill="none" stroke="midnightblue" d="M172.342,-56.4435C195.753,-47.4776 232.736,-33.314 259.19,-23.1827"/>
<polygon fill="midnightblue" stroke="midnightblue" points="260.676,-26.3615 268.763,-19.5164 258.172,-19.8245 260.676,-26.3615"/>
</g>
<!-- Node10&#45;&gt;Node6 -->
<g id="edge15" class="edge"><title>Node10&#45;&gt;Node6</title>
<path fill="none" stroke="midnightblue" d="M181.299,-61.3731C264.248,-51.7609 489.473,-25.662 578.787,-15.3123"/>
<polygon fill="midnightblue" stroke="midnightblue" points="579.456,-18.7583 588.986,-14.1303 578.65,-11.8048 579.456,-18.7583"/>
</g>
<!-- Node11 -->
<g id="node12" class="node"><title>Node11</title>
<polygon fill="none" stroke="#bfbfbf" points="0,-0.5 0,-19.5 44,-19.5 44,-0.5 0,-0.5"/>
<text text-anchor="middle" x="22" y="-7.5" font-family="Helvetica,sans-Serif" font-size="10.00">cmath</text>
</g>
<!-- Node10&#45;&gt;Node11 -->
<g id="edge13" class="edge"><title>Node10&#45;&gt;Node11</title>
<path fill="none" stroke="midnightblue" d="M129.718,-56.4435C108.653,-47.5566 75.4832,-33.5632 51.5145,-23.4514"/>
<polygon fill="midnightblue" stroke="midnightblue" points="52.7612,-20.1787 42.1871,-19.5164 50.0403,-26.6283 52.7612,-20.1787"/>
</g>
<!-- Node12 -->
<g id="node13" class="node"><title>Node12</title>
<polygon fill="none" stroke="#bfbfbf" points="198,-0.5 198,-19.5 250,-19.5 250,-0.5 198,-0.5"/>
<text text-anchor="middle" x="224" y="-7.5" font-family="Helvetica,sans-Serif" font-size="10.00">sstream</text>
</g>
<!-- Node10&#45;&gt;Node12 -->
<g id="edge16" class="edge"><title>Node10&#45;&gt;Node12</title>
<path fill="none" stroke="midnightblue" d="M161.889,-56.324C173.15,-48.1066 190.287,-35.6017 203.709,-25.8069"/>
<polygon fill="midnightblue" stroke="midnightblue" points="205.88,-28.5559 211.894,-19.8339 201.753,-22.9014 205.88,-28.5559"/>
</g>
<!-- Node13 -->
<g id="node14" class="node"><title>Node13</title>
<polygon fill="none" stroke="#bfbfbf" points="62,-0.5 62,-19.5 112,-19.5 112,-0.5 62,-0.5"/>
<text text-anchor="middle" x="87" y="-7.5" font-family="Helvetica,sans-Serif" font-size="10.00">iomanip</text>
</g>
<!-- Node10&#45;&gt;Node13 -->
<g id="edge17" class="edge"><title>Node10&#45;&gt;Node13</title>
<path fill="none" stroke="midnightblue" d="M139.878,-56.324C130.474,-48.2631 116.256,-36.0765 104.931,-26.3695"/>
<polygon fill="midnightblue" stroke="midnightblue" points="107.177,-23.6844 97.3062,-19.8339 102.621,-28.9993 107.177,-23.6844"/>
</g>
<!-- Node14 -->
<g id="node15" class="node"><title>Node14</title>
<polygon fill="none" stroke="#bfbfbf" points="130,-0.5 130,-19.5 180,-19.5 180,-0.5 130,-0.5"/>
<text text-anchor="middle" x="155" y="-7.5" font-family="Helvetica,sans-Serif" font-size="10.00">fstream</text>
</g>
<!-- Node10&#45;&gt;Node14 -->
<g id="edge18" class="edge"><title>Node10&#45;&gt;Node14</title>
<path fill="none" stroke="midnightblue" d="M150.826,-56.083C151.481,-49.0059 152.42,-38.8611 153.242,-29.9865"/>
<polygon fill="midnightblue" stroke="midnightblue" points="156.753,-30.0312 154.19,-19.7511 149.783,-29.3858 156.753,-30.0312"/>
</g>
<!-- Node15&#45;&gt;Node2 -->
<g id="edge20" class="edge"><title>Node15&#45;&gt;Node2</title>
<path fill="none" stroke="midnightblue" d="M284.358,-224.083C282.214,-216.849 279.121,-206.409 276.451,-197.397"/>
<polygon fill="midnightblue" stroke="midnightblue" points="279.79,-196.345 273.593,-187.751 273.078,-198.333 279.79,-196.345"/>
</g>
<!-- Node15&#45;&gt;Node11 -->
<g id="edge24" class="edge"><title>Node15&#45;&gt;Node11</title>
<path fill="none" stroke="midnightblue" d="M269.37,-224.429C252.569,-215.982 226.821,-202.295 206,-188 142.011,-144.067 125.762,-131.985 72,-76 57.5779,-60.9815 43.3156,-41.9087 33.7375,-28.3156"/>
<polygon fill="midnightblue" stroke="midnightblue" points="36.4799,-26.1278 27.9105,-19.8975 30.7243,-30.1119 36.4799,-26.1278"/>
</g>
<!-- Node16 -->
<g id="node17" class="node"><title>Node16</title>
<g id="a_node17"><a xlink:href="CodonStateSpace_8h.html" target="_top" xlink:title="CodonStateSpace.h">
<polygon fill="none" stroke="black" points="345,-168.5 345,-187.5 449,-187.5 449,-168.5 345,-168.5"/>
<text text-anchor="middle" x="397" y="-175.5" font-family="Helvetica,sans-Serif" font-size="10.00">CodonStateSpace.h</text>
</a>
</g>
</g>
<!-- Node15&#45;&gt;Node16 -->
<g id="edge21" class="edge"><title>Node15&#45;&gt;Node16</title>
<path fill="none" stroke="midnightblue" d="M304.673,-224.324C322.394,-215.625 349.903,-202.12 370.288,-192.113"/>
<polygon fill="midnightblue" stroke="midnightblue" points="371.936,-195.203 379.37,-187.655 368.851,-188.919 371.936,-195.203"/>
</g>
<!-- Node16&#45;&gt;Node3 -->
<g id="edge22" class="edge"><title>Node16&#45;&gt;Node3</title>
<path fill="none" stroke="midnightblue" d="M386.235,-168.324C376.234,-160.263 361.113,-148.077 349.07,-138.369"/>
<polygon fill="midnightblue" stroke="midnightblue" points="350.943,-135.384 340.961,-131.834 346.55,-140.834 350.943,-135.384"/>
</g>
<!-- Node16&#45;&gt;Node9 -->
<g id="edge23" class="edge"><title>Node16&#45;&gt;Node9</title>
<path fill="none" stroke="midnightblue" d="M449.175,-172.026C562.256,-161.184 820.51,-136.066 829,-132 878.409,-108.336 919.123,-55.5998 937.871,-28.2288"/>
<polygon fill="midnightblue" stroke="midnightblue" points="940.927,-29.9555 943.565,-19.6944 935.103,-26.0708 940.927,-29.9555"/>
</g>
<!-- Node17&#45;&gt;Node2 -->
<g id="edge26" class="edge"><title>Node17&#45;&gt;Node2</title>
<path fill="none" stroke="midnightblue" d="M425.003,-224.444C393.815,-215.241 344.07,-200.562 309.592,-190.388"/>
<polygon fill="midnightblue" stroke="midnightblue" points="310.443,-186.99 299.861,-187.516 308.462,-193.704 310.443,-186.99"/>
</g>
<!-- Node19 -->
<g id="node20" class="node"><title>Node19</title>
<g id="a_node20"><a xlink:href="RateProcess_8h.html" target="_top" xlink:title="RateProcess.h">
<polygon fill="none" stroke="black" points="505,-168.5 505,-187.5 587,-187.5 587,-168.5 505,-168.5"/>
<text text-anchor="middle" x="546" y="-175.5" font-family="Helvetica,sans-Serif" font-size="10.00">RateProcess.h</text>
</a>
</g>
</g>
<!-- Node18&#45;&gt;Node19 -->
<g id="edge28" class="edge"><title>Node18&#45;&gt;Node19</title>
<path fill="none" stroke="midnightblue" d="M702.528,-224.444C670.829,-215.241 620.268,-200.562 585.225,-190.388"/>
<polygon fill="midnightblue" stroke="midnightblue" points="585.914,-186.943 575.334,-187.516 583.962,-193.666 585.914,-186.943"/>
</g>
<!-- Node20 -->
<g id="node21" class="node"><title>Node20</title>
<g id="a_node21"><a xlink:href="Chrono_8h.html" target="_top" xlink:title="Chrono.h">
<polygon fill="none" stroke="black" points="511,-112.5 511,-131.5 567,-131.5 567,-112.5 511,-112.5"/>
<text text-anchor="middle" x="539" y="-119.5" font-family="Helvetica,sans-Serif" font-size="10.00">Chrono.h</text>
</a>
</g>
</g>
<!-- Node18&#45;&gt;Node20 -->
<g id="edge52" class="edge"><title>Node18&#45;&gt;Node20</title>
<path fill="none" stroke="midnightblue" d="M675.429,-230.273C612.992,-225.939 518.334,-214.995 496,-188 482.706,-171.931 501.008,-151.649 517.678,-138.053"/>
<polygon fill="midnightblue" stroke="midnightblue" points="520.27,-140.475 526.071,-131.609 516.007,-134.923 520.27,-140.475"/>
</g>
<!-- Node23 -->
<g id="node24" class="node"><title>Node23</title>
<g id="a_node24"><a xlink:href="ProfileProcess_8h.html" target="_top" xlink:title="ProfileProcess.h">
<polygon fill="none" stroke="black" points="605.5,-168.5 605.5,-187.5 694.5,-187.5 694.5,-168.5 605.5,-168.5"/>
<text text-anchor="middle" x="650" y="-175.5" font-family="Helvetica,sans-Serif" font-size="10.00">ProfileProcess.h</text>
</a>
</g>
</g>
<!-- Node18&#45;&gt;Node23 -->
<g id="edge35" class="edge"><title>Node18&#45;&gt;Node23</title>
<path fill="none" stroke="midnightblue" d="M718.825,-224.324C706.153,-215.979 686.767,-203.212 671.794,-193.352"/>
<polygon fill="midnightblue" stroke="midnightblue" points="673.419,-190.231 663.142,-187.655 669.569,-196.078 673.419,-190.231"/>
</g>
<!-- Node24 -->
<g id="node25" class="node"><title>Node24</title>
<g id="a_node25"><a xlink:href="BranchSitePath_8h.html" target="_top" xlink:title="BranchSitePath.h">
<polygon fill="none" stroke="black" points="896.5,-168.5 896.5,-187.5 989.5,-187.5 989.5,-168.5 896.5,-168.5"/>
<text text-anchor="middle" x="943" y="-175.5" font-family="Helvetica,sans-Serif" font-size="10.00">BranchSitePath.h</text>
</a>
</g>
</g>
<!-- Node18&#45;&gt;Node24 -->
<g id="edge40" class="edge"><title>Node18&#45;&gt;Node24</title>
<path fill="none" stroke="midnightblue" d="M765.434,-224.444C801.856,-215.122 860.23,-200.183 900.029,-189.997"/>
<polygon fill="midnightblue" stroke="midnightblue" points="900.903,-193.387 909.723,-187.516 899.167,-186.605 900.903,-193.387"/>
</g>
<!-- Node27 -->
<g id="node28" class="node"><title>Node27</title>
<polygon fill="none" stroke="#bfbfbf" points="712,-168.5 712,-187.5 768,-187.5 768,-168.5 712,-168.5"/>
<text text-anchor="middle" x="740" y="-175.5" font-family="Helvetica,sans-Serif" font-size="10.00">algorithm</text>
</g>
<!-- Node18&#45;&gt;Node27 -->
<g id="edge53" class="edge"><title>Node18&#45;&gt;Node27</title>
<path fill="none" stroke="midnightblue" d="M733.321,-224.083C734.381,-216.927 735.906,-206.635 737.231,-197.691"/>
<polygon fill="midnightblue" stroke="midnightblue" points="740.7,-198.156 738.704,-187.751 733.776,-197.13 740.7,-198.156"/>
</g>
<!-- Node19&#45;&gt;Node6 -->
<g id="edge29" class="edge"><title>Node19&#45;&gt;Node6</title>
<path fill="none" stroke="midnightblue" d="M552.516,-168.357C558.99,-159.526 568.945,-145.263 576,-132 588.636,-108.245 590.466,-101.517 599,-76 604.151,-60.5996 608.727,-42.7261 611.83,-29.6239"/>
<polygon fill="midnightblue" stroke="midnightblue" points="615.323,-30.0504 614.156,-19.5201 608.502,-28.4803 615.323,-30.0504"/>
</g>
<!-- Node19&#45;&gt;Node20 -->
<g id="edge30" class="edge"><title>Node19&#45;&gt;Node20</title>
<path fill="none" stroke="midnightblue" d="M544.844,-168.083C543.916,-160.927 542.582,-150.635 541.423,-141.691"/>
<polygon fill="midnightblue" stroke="midnightblue" points="544.891,-141.218 540.134,-131.751 537.949,-142.118 544.891,-141.218"/>
</g>
<!-- Node20&#45;&gt;Node5 -->
<g id="edge34" class="edge"><title>Node20&#45;&gt;Node5</title>
<path fill="none" stroke="midnightblue" d="M510.973,-117.369C436.24,-107.625 237.557,-81.2765 233,-76 217.447,-57.9928 242.915,-37.5697 264.859,-24.5008"/>
<polygon fill="midnightblue" stroke="midnightblue" points="266.636,-27.517 273.612,-19.5434 263.186,-21.4261 266.636,-27.517"/>
</g>
<!-- Node20&#45;&gt;Node6 -->
<g id="edge33" class="edge"><title>Node20&#45;&gt;Node6</title>
<path fill="none" stroke="midnightblue" d="M547.276,-112.435C555.542,-103.664 568.368,-89.4475 578,-76 588.918,-60.7571 599.531,-42.1894 606.753,-28.8081"/>
<polygon fill="midnightblue" stroke="midnightblue" points="609.975,-30.2023 611.564,-19.7272 603.79,-26.9253 609.975,-30.2023"/>
</g>
<!-- Node21 -->
<g id="node22" class="node"><title>Node21</title>
<polygon fill="none" stroke="#bfbfbf" points="447.5,-56.5 447.5,-75.5 488.5,-75.5 488.5,-56.5 447.5,-56.5"/>
<text text-anchor="middle" x="468" y="-63.5" font-family="Helvetica,sans-Serif" font-size="10.00">ctime</text>
</g>
<!-- Node20&#45;&gt;Node21 -->
<g id="edge31" class="edge"><title>Node20&#45;&gt;Node21</title>
<path fill="none" stroke="midnightblue" d="M527.593,-112.324C516.891,-104.185 500.659,-91.8395 487.837,-82.0874"/>
<polygon fill="midnightblue" stroke="midnightblue" points="489.693,-79.1018 479.615,-75.8339 485.456,-84.6734 489.693,-79.1018"/>
</g>
<!-- Node22 -->
<g id="node23" class="node"><title>Node22</title>
<polygon fill="none" stroke="#bfbfbf" points="507,-56.5 507,-75.5 569,-75.5 569,-56.5 507,-56.5"/>
<text text-anchor="middle" x="538" y="-63.5" font-family="Helvetica,sans-Serif" font-size="10.00">sys/time.h</text>
</g>
<!-- Node20&#45;&gt;Node22 -->
<g id="edge32" class="edge"><title>Node20&#45;&gt;Node22</title>
<path fill="none" stroke="midnightblue" d="M538.835,-112.083C538.704,-105.006 538.516,-94.8611 538.352,-85.9865"/>
<polygon fill="midnightblue" stroke="midnightblue" points="541.847,-85.6845 538.162,-75.7511 534.848,-85.8142 541.847,-85.6845"/>
</g>
<!-- Node23&#45;&gt;Node3 -->
<g id="edge37" class="edge"><title>Node23&#45;&gt;Node3</title>
<path fill="none" stroke="midnightblue" d="M605.212,-169.527C602.095,-169.01 599.001,-168.497 596,-168 501.821,-152.411 475.774,-149.46 378.195,-132.178"/>
<polygon fill="midnightblue" stroke="midnightblue" points="378.662,-128.706 368.204,-130.403 377.438,-135.598 378.662,-128.706"/>
</g>
<!-- Node23&#45;&gt;Node6 -->
<g id="edge38" class="edge"><title>Node23&#45;&gt;Node6</title>
<path fill="none" stroke="midnightblue" d="M651.67,-168.496C655.263,-148.328 662.369,-96.2745 649,-56 645.466,-45.3543 638.379,-35.1333 631.675,-27.1305"/>
<polygon fill="midnightblue" stroke="midnightblue" points="634.271,-24.7834 624.993,-19.6689 629.057,-29.4533 634.271,-24.7834"/>
</g>
<!-- Node23&#45;&gt;Node9 -->
<g id="edge39" class="edge"><title>Node23&#45;&gt;Node9</title>
<path fill="none" stroke="midnightblue" d="M694.506,-169.058C762.068,-156.93 883.139,-134.89 887,-132 921.216,-106.394 938.046,-56.4837 944.967,-29.4554"/>
<polygon fill="midnightblue" stroke="midnightblue" points="948.376,-30.2485 947.284,-19.7102 941.566,-28.6298 948.376,-30.2485"/>
</g>
<!-- Node23&#45;&gt;Node20 -->
<g id="edge36" class="edge"><title>Node23&#45;&gt;Node20</title>
<path fill="none" stroke="midnightblue" d="M632.166,-168.324C614.284,-159.625 586.525,-146.12 565.954,-136.113"/>
<polygon fill="midnightblue" stroke="midnightblue" points="567.313,-132.882 556.79,-131.655 564.251,-139.177 567.313,-132.882"/>
</g>
<!-- Node24&#45;&gt;Node7 -->
<g id="edge41" class="edge"><title>Node24&#45;&gt;Node7</title>
<path fill="none" stroke="midnightblue" d="M935.527,-168.075C913.173,-141.38 846.592,-61.865 817.667,-27.3218"/>
<polygon fill="midnightblue" stroke="midnightblue" points="820.278,-24.9882 811.175,-19.5681 814.911,-29.4822 820.278,-24.9882"/>
</g>
<!-- Node24&#45;&gt;Node9 -->
<g id="edge42" class="edge"><title>Node24&#45;&gt;Node9</title>
<path fill="none" stroke="midnightblue" d="M948.13,-168.407C953.058,-159.614 960.16,-145.381 963,-132 970.012,-98.9581 968.075,-89.3944 963,-56 961.632,-47.001 958.81,-37.3251 956.055,-29.2601"/>
<polygon fill="midnightblue" stroke="midnightblue" points="959.312,-27.9759 952.6,-19.7782 952.735,-30.3722 959.312,-27.9759"/>
</g>
<!-- Node25 -->
<g id="node26" class="node"><title>Node25</title>
<g id="a_node26"><a xlink:href="Tree_8h.html" target="_top" xlink:title="Tree.h">
<polygon fill="none" stroke="black" points="776,-112.5 776,-131.5 820,-131.5 820,-112.5 776,-112.5"/>
<text text-anchor="middle" x="798" y="-119.5" font-family="Helvetica,sans-Serif" font-size="10.00">Tree.h</text>
</a>
</g>
</g>
<!-- Node24&#45;&gt;Node25 -->
<g id="edge43" class="edge"><title>Node24&#45;&gt;Node25</title>
<path fill="none" stroke="midnightblue" d="M920.024,-168.444C895.701,-159.385 857.131,-145.021 829.875,-134.871"/>
<polygon fill="midnightblue" stroke="midnightblue" points="830.984,-131.549 820.392,-131.339 828.541,-138.109 830.984,-131.549"/>
</g>
<!-- Node26 -->
<g id="node27" class="node"><title>Node26</title>
<g id="a_node27"><a xlink:href="SubMatrix_8h.html" target="_top" xlink:title="SubMatrix.h">
<polygon fill="none" stroke="black" points="386.5,-112.5 386.5,-131.5 455.5,-131.5 455.5,-112.5 386.5,-112.5"/>
<text text-anchor="middle" x="421" y="-119.5" font-family="Helvetica,sans-Serif" font-size="10.00">SubMatrix.h</text>
</a>
</g>
</g>
<!-- Node24&#45;&gt;Node26 -->
<g id="edge48" class="edge"><title>Node24&#45;&gt;Node26</title>
<path fill="none" stroke="midnightblue" d="M896.282,-169.255C893.144,-168.808 890.028,-168.384 887,-168 716.511,-146.353 672.965,-149.49 502,-132 490.242,-130.797 477.534,-129.421 465.747,-128.113"/>
<polygon fill="midnightblue" stroke="midnightblue" points="465.999,-124.619 455.672,-126.987 465.222,-131.576 465.999,-124.619"/>
</g>
<!-- Node25&#45;&gt;Node5 -->
<g id="edge44" class="edge"><title>Node25&#45;&gt;Node5</title>
<path fill="none" stroke="midnightblue" d="M775.964,-119.962C677.703,-115.231 283.561,-95.1096 266,-76 253.534,-62.435 264.765,-41.99 275.9,-27.6609"/>
<polygon fill="midnightblue" stroke="midnightblue" points="278.874,-29.5606 282.608,-19.6455 273.506,-25.0681 278.874,-29.5606"/>
</g>
<!-- Node25&#45;&gt;Node6 -->
<g id="edge46" class="edge"><title>Node25&#45;&gt;Node6</title>
<path fill="none" stroke="midnightblue" d="M783.719,-112.368C752.355,-93.4121 677.219,-48.0006 639.068,-24.9424"/>
<polygon fill="midnightblue" stroke="midnightblue" points="640.584,-21.7687 630.215,-19.5914 636.963,-27.7595 640.584,-21.7687"/>
</g>
<!-- Node25&#45;&gt;Node7 -->
<g id="edge45" class="edge"><title>Node25&#45;&gt;Node7</title>
<path fill="none" stroke="midnightblue" d="M802.366,-112.307C806.559,-103.437 812.6,-89.1449 815,-76 817.859,-60.3429 814.366,-42.5159 810.578,-29.4965"/>
<polygon fill="midnightblue" stroke="midnightblue" points="813.865,-28.2841 807.46,-19.8441 807.204,-30.4358 813.865,-28.2841"/>
</g>
<!-- Node25&#45;&gt;Node8 -->
<g id="edge47" class="edge"><title>Node25&#45;&gt;Node8</title>
<path fill="none" stroke="midnightblue" d="M793.872,-112.083C790.486,-104.77 785.584,-94.1814 781.381,-85.1034"/>
<polygon fill="midnightblue" stroke="midnightblue" points="784.429,-83.3553 777.051,-75.7511 778.077,-86.2962 784.429,-83.3553"/>
</g>
<!-- Node26&#45;&gt;Node6 -->
<g id="edge49" class="edge"><title>Node26&#45;&gt;Node6</title>
<path fill="none" stroke="midnightblue" d="M420.662,-112.054C420.646,-98.0807 422.762,-71.1139 438,-56 457.672,-36.4881 532.717,-22.7242 578.853,-15.8998"/>
<polygon fill="midnightblue" stroke="midnightblue" points="579.389,-19.3589 588.789,-14.471 578.392,-12.4302 579.389,-19.3589"/>
</g>
<!-- Node26&#45;&gt;Node10 -->
<g id="edge51" class="edge"><title>Node26&#45;&gt;Node10</title>
<path fill="none" stroke="midnightblue" d="M386.417,-113.904C383.234,-113.258 380.058,-112.615 377,-112 296.163,-95.738 275.872,-92.0855 195,-76 193.906,-75.7824 192.797,-75.5617 191.678,-75.3389"/>
<polygon fill="midnightblue" stroke="midnightblue" points="191.961,-71.8264 181.47,-73.3027 190.592,-78.6912 191.961,-71.8264"/>
</g>
<!-- Node26&#45;&gt;Node11 -->
<g id="edge50" class="edge"><title>Node26&#45;&gt;Node11</title>
<path fill="none" stroke="midnightblue" d="M386.454,-113.704C383.263,-113.099 380.075,-112.521 377,-112 258.943,-91.9908 220.971,-120.981 110,-76 82.1194,-64.6987 55.052,-42.4995 38.4645,-27.214"/>
<polygon fill="midnightblue" stroke="midnightblue" points="40.462,-24.2849 30.7967,-19.9452 35.6462,-29.3651 40.462,-24.2849"/>
</g>
<!-- Node28&#45;&gt;Node20 -->
<g id="edge56" class="edge"><title>Node28&#45;&gt;Node20</title>
<path fill="none" stroke="midnightblue" d="M785.896,-168.503C728.333,-157.894 630.924,-139.942 577.279,-130.055"/>
<polygon fill="midnightblue" stroke="midnightblue" points="577.628,-126.56 567.159,-128.19 576.359,-133.444 577.628,-126.56"/>
</g>
<!-- Node28&#45;&gt;Node25 -->
<g id="edge55" class="edge"><title>Node28&#45;&gt;Node25</title>
<path fill="none" stroke="midnightblue" d="M826.386,-168.083C821.633,-160.534 814.682,-149.495 808.848,-140.23"/>
<polygon fill="midnightblue" stroke="midnightblue" points="811.8,-138.349 803.51,-131.751 805.876,-142.078 811.8,-138.349"/>
</g>
<!-- Node30 -->
<g id="node31" class="node"><title>Node30</title>
<polygon fill="none" stroke="#bfbfbf" points="1061.5,-168.5 1061.5,-187.5 1102.5,-187.5 1102.5,-168.5 1061.5,-168.5"/>
<text text-anchor="middle" x="1082" y="-175.5" font-family="Helvetica,sans-Serif" font-size="10.00">mpi.h</text>
</g>
<!-- Node29&#45;&gt;Node30 -->
<g id="edge58" class="edge"><title>Node29&#45;&gt;Node30</title>
<path fill="none" stroke="midnightblue" d="M1082,-224.083C1082,-217.006 1082,-206.861 1082,-197.986"/>
<polygon fill="midnightblue" stroke="midnightblue" points="1085.5,-197.751 1082,-187.751 1078.5,-197.751 1085.5,-197.751"/>
</g>
</g>
</svg>
