<?xml version="1.0" encoding="UTF-8" standalone="no"?>
<!DOCTYPE svg PUBLIC "-//W3C//DTD SVG 1.1//EN"
 "http://www.w3.org/Graphics/SVG/1.1/DTD/svg11.dtd">
<!-- Generated by graphviz version 2.38.0 (20140413.2041)
 -->
<!-- Title: GeneralPathSuffStatGTRProfileProcess.h Pages: 1 -->
<svg width="592pt" height="386pt"
 viewBox="0.00 0.00 592.00 386.00" xmlns="http://www.w3.org/2000/svg" xmlns:xlink="http://www.w3.org/1999/xlink">
<g id="graph0" class="graph" transform="scale(1 1) rotate(0) translate(4 382)">
<title>GeneralPathSuffStatGTRProfileProcess.h</title>
<!-- Node0 -->
<g id="node1" class="node"><title>Node0</title>
<polygon fill="#bfbfbf" stroke="black" points="239.5,-347.5 239.5,-377.5 394.5,-377.5 394.5,-347.5 239.5,-347.5"/>
<text text-anchor="start" x="247.5" y="-365.5" font-family="Helvetica,sans-Serif" font-size="10.00">GeneralPathSuffStatGTRProfile</text>
<text text-anchor="middle" x="317" y="-354.5" font-family="Helvetica,sans-Serif" font-size="10.00">Process.h</text>
</g>
<!-- Node1 -->
<g id="node2" class="node"><title>Node1</title>
<g id="a_node2"><a xlink:href="GTRProfileProcess_8h.html" target="_top" xlink:title="GTRProfileProcess.h">
<polygon fill="none" stroke="black" points="192,-286 192,-305 302,-305 302,-286 192,-286"/>
<text text-anchor="middle" x="247" y="-293" font-family="Helvetica,sans-Serif" font-size="10.00">GTRProfileProcess.h</text>
</a>
</g>
</g>
<!-- Node0&#45;&gt;Node1 -->
<g id="edge1" class="edge"><title>Node0&#45;&gt;Node1</title>
<path fill="none" stroke="midnightblue" d="M301.811,-347.396C290.68,-337.06 275.564,-323.024 264.025,-312.309"/>
<polygon fill="midnightblue" stroke="midnightblue" points="266.073,-309.434 256.363,-305.195 261.31,-314.564 266.073,-309.434"/>
</g>
<!-- Node20 -->
<g id="node21" class="node"><title>Node20</title>
<g id="a_node21"><a xlink:href="GeneralPathSuffStatMatrixProfileProcess_8h.html" target="_top" xlink:title="GeneralPathSuffStatMatrix\lProfileProcess.h">
<polygon fill="none" stroke="black" points="320,-280.5 320,-310.5 454,-310.5 454,-280.5 320,-280.5"/>
<text text-anchor="start" x="328" y="-298.5" font-family="Helvetica,sans-Serif" font-size="10.00">GeneralPathSuffStatMatrix</text>
<text text-anchor="middle" x="387" y="-287.5" font-family="Helvetica,sans-Serif" font-size="10.00">ProfileProcess.h</text>
</a>
</g>
</g>
<!-- Node0&#45;&gt;Node20 -->
<g id="edge29" class="edge"><title>Node0&#45;&gt;Node20</title>
<path fill="none" stroke="midnightblue" d="M332.189,-347.396C341.545,-338.708 353.718,-327.405 364.215,-317.658"/>
<polygon fill="midnightblue" stroke="midnightblue" points="366.894,-319.946 371.841,-310.577 362.131,-314.816 366.894,-319.946"/>
</g>
<!-- Node2 -->
<g id="node3" class="node"><title>Node2</title>
<g id="a_node3"><a xlink:href="GTRSubMatrix_8h.html" target="_top" xlink:title="GTRSubMatrix.h">
<polygon fill="none" stroke="black" points="202,-168.5 202,-187.5 292,-187.5 292,-168.5 202,-168.5"/>
<text text-anchor="middle" x="247" y="-175.5" font-family="Helvetica,sans-Serif" font-size="10.00">GTRSubMatrix.h</text>
</a>
</g>
</g>
<!-- Node1&#45;&gt;Node2 -->
<g id="edge2" class="edge"><title>Node1&#45;&gt;Node2</title>
<path fill="none" stroke="midnightblue" d="M247,-285.819C247,-267.257 247,-223.339 247,-197.973"/>
<polygon fill="midnightblue" stroke="midnightblue" points="250.5,-197.782 247,-187.782 243.5,-197.782 250.5,-197.782"/>
</g>
<!-- Node13 -->
<g id="node14" class="node"><title>Node13</title>
<g id="a_node14"><a xlink:href="MatrixProfileProcess_8h.html" target="_top" xlink:title="MatrixProfileProcess.h">
<polygon fill="none" stroke="black" points="286,-224.5 286,-243.5 402,-243.5 402,-224.5 286,-224.5"/>
<text text-anchor="middle" x="344" y="-231.5" font-family="Helvetica,sans-Serif" font-size="10.00">MatrixProfileProcess.h</text>
</a>
</g>
</g>
<!-- Node1&#45;&gt;Node13 -->
<g id="edge17" class="edge"><title>Node1&#45;&gt;Node13</title>
<path fill="none" stroke="midnightblue" d="M260.898,-285.975C276.672,-276.299 302.637,-260.372 321.349,-248.894"/>
<polygon fill="midnightblue" stroke="midnightblue" points="323.434,-251.721 330.128,-243.509 319.774,-245.754 323.434,-251.721"/>
</g>
<!-- Node3 -->
<g id="node4" class="node"><title>Node3</title>
<g id="a_node4"><a xlink:href="BiologicalSequences_8h.html" target="_top" xlink:title="BiologicalSequences.h">
<polygon fill="none" stroke="black" points="313,-56.5 313,-75.5 429,-75.5 429,-56.5 313,-56.5"/>
<text text-anchor="middle" x="371" y="-63.5" font-family="Helvetica,sans-Serif" font-size="10.00">BiologicalSequences.h</text>
</a>
</g>
</g>
<!-- Node2&#45;&gt;Node3 -->
<g id="edge3" class="edge"><title>Node2&#45;&gt;Node3</title>
<path fill="none" stroke="midnightblue" d="M253.392,-168.367C263.33,-155.28 283.484,-130.036 304,-112 317.339,-100.274 333.893,-89.1278 347.21,-80.8622"/>
<polygon fill="midnightblue" stroke="midnightblue" points="349.1,-83.8093 355.832,-75.6283 345.467,-77.8255 349.1,-83.8093"/>
</g>
<!-- Node7 -->
<g id="node8" class="node"><title>Node7</title>
<g id="a_node8"><a xlink:href="SubMatrix_8h.html" target="_top" xlink:title="SubMatrix.h">
<polygon fill="none" stroke="black" points="144.5,-112.5 144.5,-131.5 213.5,-131.5 213.5,-112.5 144.5,-112.5"/>
<text text-anchor="middle" x="179" y="-119.5" font-family="Helvetica,sans-Serif" font-size="10.00">SubMatrix.h</text>
</a>
</g>
</g>
<!-- Node2&#45;&gt;Node7 -->
<g id="edge7" class="edge"><title>Node2&#45;&gt;Node7</title>
<path fill="none" stroke="midnightblue" d="M236.075,-168.324C225.825,-160.185 210.279,-147.839 197.999,-138.087"/>
<polygon fill="midnightblue" stroke="midnightblue" points="200.132,-135.312 190.124,-131.834 195.779,-140.794 200.132,-135.312"/>
</g>
<!-- Node4 -->
<g id="node5" class="node"><title>Node4</title>
<polygon fill="none" stroke="#bfbfbf" points="340.5,-0.5 340.5,-19.5 385.5,-19.5 385.5,-0.5 340.5,-0.5"/>
<text text-anchor="middle" x="363" y="-7.5" font-family="Helvetica,sans-Serif" font-size="10.00">cstdlib</text>
</g>
<!-- Node3&#45;&gt;Node4 -->
<g id="edge4" class="edge"><title>Node3&#45;&gt;Node4</title>
<path fill="none" stroke="midnightblue" d="M369.679,-56.083C368.619,-48.9272 367.094,-38.6353 365.769,-29.6911"/>
<polygon fill="midnightblue" stroke="midnightblue" points="369.224,-29.1302 364.296,-19.7511 362.3,-30.1561 369.224,-29.1302"/>
</g>
<!-- Node5 -->
<g id="node6" class="node"><title>Node5</title>
<polygon fill="none" stroke="#bfbfbf" points="268,-0.5 268,-19.5 322,-19.5 322,-0.5 268,-0.5"/>
<text text-anchor="middle" x="295" y="-7.5" font-family="Helvetica,sans-Serif" font-size="10.00">iostream</text>
</g>
<!-- Node3&#45;&gt;Node5 -->
<g id="edge5" class="edge"><title>Node3&#45;&gt;Node5</title>
<path fill="none" stroke="midnightblue" d="M358.789,-56.324C347.224,-48.1066 329.625,-35.6017 315.839,-25.8069"/>
<polygon fill="midnightblue" stroke="midnightblue" points="317.612,-22.7729 307.433,-19.8339 313.557,-28.4791 317.612,-22.7729"/>
</g>
<!-- Node6 -->
<g id="node7" class="node"><title>Node6</title>
<polygon fill="none" stroke="#bfbfbf" points="403.5,-0.5 403.5,-19.5 444.5,-19.5 444.5,-0.5 403.5,-0.5"/>
<text text-anchor="middle" x="424" y="-7.5" font-family="Helvetica,sans-Serif" font-size="10.00">string</text>
</g>
<!-- Node3&#45;&gt;Node6 -->
<g id="edge6" class="edge"><title>Node3&#45;&gt;Node6</title>
<path fill="none" stroke="midnightblue" d="M379.752,-56.083C387.47,-48.2195 398.905,-36.5688 408.217,-27.0813"/>
<polygon fill="midnightblue" stroke="midnightblue" points="410.904,-29.3396 415.411,-19.7511 405.908,-24.4363 410.904,-29.3396"/>
</g>
<!-- Node7&#45;&gt;Node5 -->
<g id="edge8" class="edge"><title>Node7&#45;&gt;Node5</title>
<path fill="none" stroke="midnightblue" d="M188.102,-112.368C207.584,-93.8941 253.564,-50.2926 278.398,-26.7436"/>
<polygon fill="midnightblue" stroke="midnightblue" points="281.092,-29.0121 285.94,-19.5914 276.275,-23.9327 281.092,-29.0121"/>
</g>
<!-- Node8 -->
<g id="node9" class="node"><title>Node8</title>
<polygon fill="none" stroke="#bfbfbf" points="0,-0.5 0,-19.5 44,-19.5 44,-0.5 0,-0.5"/>
<text text-anchor="middle" x="22" y="-7.5" font-family="Helvetica,sans-Serif" font-size="10.00">cmath</text>
</g>
<!-- Node7&#45;&gt;Node8 -->
<g id="edge9" class="edge"><title>Node7&#45;&gt;Node8</title>
<path fill="none" stroke="midnightblue" d="M166.68,-112.368C139.854,-93.5728 75.9058,-48.7684 42.7431,-25.5334"/>
<polygon fill="midnightblue" stroke="midnightblue" points="44.4605,-22.4631 34.2623,-19.5914 40.4438,-28.196 44.4605,-22.4631"/>
</g>
<!-- Node9 -->
<g id="node10" class="node"><title>Node9</title>
<g id="a_node10"><a xlink:href="Random_8h.html" target="_top" xlink:title="Random.h">
<polygon fill="none" stroke="black" points="148,-56.5 148,-75.5 210,-75.5 210,-56.5 148,-56.5"/>
<text text-anchor="middle" x="179" y="-63.5" font-family="Helvetica,sans-Serif" font-size="10.00">Random.h</text>
</a>
</g>
</g>
<!-- Node7&#45;&gt;Node9 -->
<g id="edge10" class="edge"><title>Node7&#45;&gt;Node9</title>
<path fill="none" stroke="midnightblue" d="M179,-112.083C179,-105.006 179,-94.8611 179,-85.9865"/>
<polygon fill="midnightblue" stroke="midnightblue" points="182.5,-85.751 179,-75.7511 175.5,-85.7511 182.5,-85.751"/>
</g>
<!-- Node9&#45;&gt;Node4 -->
<g id="edge12" class="edge"><title>Node9&#45;&gt;Node4</title>
<path fill="none" stroke="midnightblue" d="M208.155,-56.4435C241.543,-46.6451 296.082,-30.6391 330.724,-20.4723"/>
<polygon fill="midnightblue" stroke="midnightblue" points="331.752,-23.8183 340.362,-17.6439 329.781,-17.1016 331.752,-23.8183"/>
</g>
<!-- Node9&#45;&gt;Node5 -->
<g id="edge13" class="edge"><title>Node9&#45;&gt;Node5</title>
<path fill="none" stroke="midnightblue" d="M197.381,-56.4435C216.216,-47.6751 245.731,-33.9355 267.379,-23.8579"/>
<polygon fill="midnightblue" stroke="midnightblue" points="269.117,-26.9098 276.705,-19.5164 266.162,-20.5637 269.117,-26.9098"/>
</g>
<!-- Node9&#45;&gt;Node8 -->
<g id="edge11" class="edge"><title>Node9&#45;&gt;Node8</title>
<path fill="none" stroke="midnightblue" d="M154.123,-56.4435C126.934,-47.0919 83.3053,-32.0859 53.686,-21.8984"/>
<polygon fill="midnightblue" stroke="midnightblue" points="54.817,-18.5862 44.2223,-18.6433 52.5402,-25.2056 54.817,-18.5862"/>
</g>
<!-- Node10 -->
<g id="node11" class="node"><title>Node10</title>
<polygon fill="none" stroke="#bfbfbf" points="130,-0.5 130,-19.5 182,-19.5 182,-0.5 130,-0.5"/>
<text text-anchor="middle" x="156" y="-7.5" font-family="Helvetica,sans-Serif" font-size="10.00">sstream</text>
</g>
<!-- Node9&#45;&gt;Node10 -->
<g id="edge14" class="edge"><title>Node9&#45;&gt;Node10</title>
<path fill="none" stroke="midnightblue" d="M175.202,-56.083C172.087,-48.77 167.577,-38.1814 163.711,-29.1034"/>
<polygon fill="midnightblue" stroke="midnightblue" points="166.866,-27.5798 159.727,-19.7511 160.426,-30.3229 166.866,-27.5798"/>
</g>
<!-- Node11 -->
<g id="node12" class="node"><title>Node11</title>
<polygon fill="none" stroke="#bfbfbf" points="200,-0.5 200,-19.5 250,-19.5 250,-0.5 200,-0.5"/>
<text text-anchor="middle" x="225" y="-7.5" font-family="Helvetica,sans-Serif" font-size="10.00">iomanip</text>
</g>
<!-- Node9&#45;&gt;Node11 -->
<g id="edge15" class="edge"><title>Node9&#45;&gt;Node11</title>
<path fill="none" stroke="midnightblue" d="M186.596,-56.083C193.227,-48.2982 203.021,-36.8015 211.058,-27.3665"/>
<polygon fill="midnightblue" stroke="midnightblue" points="213.725,-29.6332 217.545,-19.7511 208.396,-25.0939 213.725,-29.6332"/>
</g>
<!-- Node12 -->
<g id="node13" class="node"><title>Node12</title>
<polygon fill="none" stroke="#bfbfbf" points="62,-0.5 62,-19.5 112,-19.5 112,-0.5 62,-0.5"/>
<text text-anchor="middle" x="87" y="-7.5" font-family="Helvetica,sans-Serif" font-size="10.00">fstream</text>
</g>
<!-- Node9&#45;&gt;Node12 -->
<g id="edge16" class="edge"><title>Node9&#45;&gt;Node12</title>
<path fill="none" stroke="midnightblue" d="M164.219,-56.324C149.733,-47.8215 127.427,-34.7288 110.507,-24.7975"/>
<polygon fill="midnightblue" stroke="midnightblue" points="112.141,-21.6981 101.745,-19.6545 108.597,-27.735 112.141,-21.6981"/>
</g>
<!-- Node13&#45;&gt;Node7 -->
<g id="edge18" class="edge"><title>Node13&#45;&gt;Node7</title>
<path fill="none" stroke="midnightblue" d="M285.963,-229.717C254.236,-224.861 216.688,-213.599 193,-188 181.617,-175.699 178.642,-156.444 178.2,-142.079"/>
<polygon fill="midnightblue" stroke="midnightblue" points="181.702,-141.859 178.276,-131.833 174.702,-141.807 181.702,-141.859"/>
</g>
<!-- Node14 -->
<g id="node15" class="node"><title>Node14</title>
<g id="a_node15"><a xlink:href="ProfileProcess_8h.html" target="_top" xlink:title="ProfileProcess.h">
<polygon fill="none" stroke="black" points="310.5,-168.5 310.5,-187.5 399.5,-187.5 399.5,-168.5 310.5,-168.5"/>
<text text-anchor="middle" x="355" y="-175.5" font-family="Helvetica,sans-Serif" font-size="10.00">ProfileProcess.h</text>
</a>
</g>
</g>
<!-- Node13&#45;&gt;Node14 -->
<g id="edge19" class="edge"><title>Node13&#45;&gt;Node14</title>
<path fill="none" stroke="midnightblue" d="M345.816,-224.083C347.274,-216.927 349.371,-206.635 351.193,-197.691"/>
<polygon fill="midnightblue" stroke="midnightblue" points="354.651,-198.248 353.217,-187.751 347.792,-196.851 354.651,-198.248"/>
</g>
<!-- Node14&#45;&gt;Node5 -->
<g id="edge27" class="edge"><title>Node14&#45;&gt;Node5</title>
<path fill="none" stroke="midnightblue" d="M340.062,-168.403C328.035,-160.586 311.88,-147.863 304,-132 287.658,-99.1015 289.404,-54.8776 292.178,-30.0228"/>
<polygon fill="midnightblue" stroke="midnightblue" points="295.689,-30.1607 293.506,-19.7933 288.748,-29.2597 295.689,-30.1607"/>
</g>
<!-- Node15 -->
<g id="node16" class="node"><title>Node15</title>
<g id="a_node16"><a xlink:href="Chrono_8h.html" target="_top" xlink:title="Chrono.h">
<polygon fill="none" stroke="black" points="447,-56.5 447,-75.5 503,-75.5 503,-56.5 447,-56.5"/>
<text text-anchor="middle" x="475" y="-63.5" font-family="Helvetica,sans-Serif" font-size="10.00">Chrono.h</text>
</a>
</g>
</g>
<!-- Node14&#45;&gt;Node15 -->
<g id="edge20" class="edge"><title>Node14&#45;&gt;Node15</title>
<path fill="none" stroke="midnightblue" d="M389.152,-168.465C409.851,-161.695 435.383,-150.262 452,-132 463.696,-119.145 469.524,-99.9645 472.377,-85.7677"/>
<polygon fill="midnightblue" stroke="midnightblue" points="475.869,-86.11 474.083,-75.6668 468.966,-84.9442 475.869,-86.11"/>
</g>
<!-- Node18 -->
<g id="node19" class="node"><title>Node18</title>
<g id="a_node19"><a xlink:href="StateSpace_8h.html" target="_top" xlink:title="StateSpace.h">
<polygon fill="none" stroke="black" points="367,-112.5 367,-131.5 443,-131.5 443,-112.5 367,-112.5"/>
<text text-anchor="middle" x="405" y="-119.5" font-family="Helvetica,sans-Serif" font-size="10.00">StateSpace.h</text>
</a>
</g>
</g>
<!-- Node14&#45;&gt;Node18 -->
<g id="edge25" class="edge"><title>Node14&#45;&gt;Node18</title>
<path fill="none" stroke="midnightblue" d="M363.256,-168.083C370.465,-160.298 381.11,-148.801 389.846,-139.367"/>
<polygon fill="midnightblue" stroke="midnightblue" points="392.671,-141.467 396.897,-131.751 387.535,-136.711 392.671,-141.467"/>
</g>
<!-- Node19 -->
<g id="node20" class="node"><title>Node19</title>
<polygon fill="none" stroke="#bfbfbf" points="313.5,-112.5 313.5,-131.5 348.5,-131.5 348.5,-112.5 313.5,-112.5"/>
<text text-anchor="middle" x="331" y="-119.5" font-family="Helvetica,sans-Serif" font-size="10.00">map</text>
</g>
<!-- Node14&#45;&gt;Node19 -->
<g id="edge28" class="edge"><title>Node14&#45;&gt;Node19</title>
<path fill="none" stroke="midnightblue" d="M351.037,-168.083C347.787,-160.77 343.081,-150.181 339.046,-141.103"/>
<polygon fill="midnightblue" stroke="midnightblue" points="342.149,-139.468 334.889,-131.751 335.752,-142.311 342.149,-139.468"/>
</g>
<!-- Node15&#45;&gt;Node4 -->
<g id="edge24" class="edge"><title>Node15&#45;&gt;Node4</title>
<path fill="none" stroke="midnightblue" d="M457.005,-56.324C438.962,-47.6247 410.953,-34.1202 390.197,-24.113"/>
<polygon fill="midnightblue" stroke="midnightblue" points="391.478,-20.8449 380.95,-19.6545 388.438,-27.1502 391.478,-20.8449"/>
</g>
<!-- Node15&#45;&gt;Node5 -->
<g id="edge23" class="edge"><title>Node15&#45;&gt;Node5</title>
<path fill="none" stroke="midnightblue" d="M446.875,-56.5625C415.827,-47.2482 365.738,-32.2215 331.641,-21.9924"/>
<polygon fill="midnightblue" stroke="midnightblue" points="332.629,-18.6347 322.045,-19.1136 330.618,-25.3395 332.629,-18.6347"/>
</g>
<!-- Node16 -->
<g id="node17" class="node"><title>Node16</title>
<polygon fill="none" stroke="#bfbfbf" points="462.5,-0.5 462.5,-19.5 503.5,-19.5 503.5,-0.5 462.5,-0.5"/>
<text text-anchor="middle" x="483" y="-7.5" font-family="Helvetica,sans-Serif" font-size="10.00">ctime</text>
</g>
<!-- Node15&#45;&gt;Node16 -->
<g id="edge21" class="edge"><title>Node15&#45;&gt;Node16</title>
<path fill="none" stroke="midnightblue" d="M476.321,-56.083C477.381,-48.9272 478.906,-38.6353 480.231,-29.6911"/>
<polygon fill="midnightblue" stroke="midnightblue" points="483.7,-30.1561 481.704,-19.7511 476.776,-29.1302 483.7,-30.1561"/>
</g>
<!-- Node17 -->
<g id="node18" class="node"><title>Node17</title>
<polygon fill="none" stroke="#bfbfbf" points="522,-0.5 522,-19.5 584,-19.5 584,-0.5 522,-0.5"/>
<text text-anchor="middle" x="553" y="-7.5" font-family="Helvetica,sans-Serif" font-size="10.00">sys/time.h</text>
</g>
<!-- Node15&#45;&gt;Node17 -->
<g id="edge22" class="edge"><title>Node15&#45;&gt;Node17</title>
<path fill="none" stroke="midnightblue" d="M487.532,-56.324C499.586,-47.979 518.027,-35.2122 532.269,-25.3524"/>
<polygon fill="midnightblue" stroke="midnightblue" points="534.269,-28.2243 540.499,-19.6545 530.285,-22.469 534.269,-28.2243"/>
</g>
<!-- Node18&#45;&gt;Node3 -->
<g id="edge26" class="edge"><title>Node18&#45;&gt;Node3</title>
<path fill="none" stroke="midnightblue" d="M399.386,-112.083C394.633,-104.534 387.682,-93.4948 381.848,-84.2298"/>
<polygon fill="midnightblue" stroke="midnightblue" points="384.8,-82.3486 376.51,-75.7511 378.876,-86.0783 384.8,-82.3486"/>
</g>
<!-- Node20&#45;&gt;Node13 -->
<g id="edge30" class="edge"><title>Node20&#45;&gt;Node13</title>
<path fill="none" stroke="midnightblue" d="M376.81,-280.399C370.626,-271.842 362.697,-260.871 356.182,-251.857"/>
<polygon fill="midnightblue" stroke="midnightblue" points="358.951,-249.713 350.257,-243.658 353.278,-253.813 358.951,-249.713"/>
</g>
</g>
</svg>
