<?xml version="1.0" encoding="UTF-8" standalone="no"?>
<!DOCTYPE svg PUBLIC "-//W3C//DTD SVG 1.1//EN"
 "http://www.w3.org/Graphics/SVG/1.1/DTD/svg11.dtd">
<!-- Generated by graphviz version 2.38.0 (20140413.2041)
 -->
<!-- Title: GeneralPathSuffStatMatrixMixtureProfileProcess.h Pages: 1 -->
<svg width="1464pt" height="363pt"
 viewBox="0.00 0.00 1464.00 363.00" xmlns="http://www.w3.org/2000/svg" xmlns:xlink="http://www.w3.org/1999/xlink">
<g id="graph0" class="graph" transform="scale(1 1) rotate(0) translate(4 359)">
<title>GeneralPathSuffStatMatrixMixtureProfileProcess.h</title>
<!-- Node21 -->
<g id="node1" class="node"><title>Node21</title>
<polygon fill="#bfbfbf" stroke="black" points="684,-324.5 684,-354.5 818,-354.5 818,-324.5 684,-324.5"/>
<text text-anchor="start" x="692" y="-342.5" font-family="Helvetica,sans-Serif" font-size="10.00">GeneralPathSuffStatMatrix</text>
<text text-anchor="middle" x="751" y="-331.5" font-family="Helvetica,sans-Serif" font-size="10.00">MixtureProfileProcess.h</text>
</g>
<!-- Node22 -->
<g id="node2" class="node"><title>Node22</title>
<g id="a_node2"><a xlink:href="AACodonMutSelFiniteProfileProcess_8h.html" target="_top" xlink:title="AACodonMutSelFiniteProfile\lProcess.h">
<polygon fill="none" stroke="black" points="57.5,-257.5 57.5,-287.5 198.5,-287.5 198.5,-257.5 57.5,-257.5"/>
<text text-anchor="start" x="65.5" y="-275.5" font-family="Helvetica,sans-Serif" font-size="10.00">AACodonMutSelFiniteProfile</text>
<text text-anchor="middle" x="128" y="-264.5" font-family="Helvetica,sans-Serif" font-size="10.00">Process.h</text>
</a>
</g>
</g>
<!-- Node21&#45;&gt;Node22 -->
<g id="edge1" class="edge"><title>Node21&#45;&gt;Node22</title>
<path fill="none" stroke="midnightblue" d="M673.747,-331.792C572.934,-322.838 391.081,-306.008 236,-288 223.879,-286.593 211.01,-284.974 198.54,-283.34"/>
<polygon fill="midnightblue" stroke="midnightblue" points="673.573,-335.29 683.843,-332.686 674.191,-328.317 673.573,-335.29"/>
</g>
<!-- Node29 -->
<g id="node9" class="node"><title>Node29</title>
<g id="a_node9"><a xlink:href="AACodonMutSelSBDPProfileProcess_8h.html" target="_top" xlink:title="AACodonMutSelSBDPProfile\lProcess.h">
<polygon fill="none" stroke="black" points="245.5,-257.5 245.5,-287.5 390.5,-287.5 390.5,-257.5 245.5,-257.5"/>
<text text-anchor="start" x="253.5" y="-275.5" font-family="Helvetica,sans-Serif" font-size="10.00">AACodonMutSelSBDPProfile</text>
<text text-anchor="middle" x="318" y="-264.5" font-family="Helvetica,sans-Serif" font-size="10.00">Process.h</text>
</a>
</g>
</g>
<!-- Node21&#45;&gt;Node29 -->
<g id="edge8" class="edge"><title>Node21&#45;&gt;Node29</title>
<path fill="none" stroke="midnightblue" d="M673.7,-327.021C605.185,-316.831 502.423,-301.505 413,-288 405.741,-286.904 398.171,-285.756 390.612,-284.607"/>
<polygon fill="midnightblue" stroke="midnightblue" points="673.568,-330.54 683.974,-328.549 674.598,-323.616 673.568,-330.54"/>
</g>
<!-- Node33 -->
<g id="node13" class="node"><title>Node33</title>
<g id="a_node13"><a xlink:href="CodonMutSelFiniteProfileProcess_8h.html" target="_top" xlink:title="CodonMutSelFiniteProfile\lProcess.h">
<polygon fill="none" stroke="black" points="422,-257.5 422,-287.5 550,-287.5 550,-257.5 422,-257.5"/>
<text text-anchor="start" x="430" y="-275.5" font-family="Helvetica,sans-Serif" font-size="10.00">CodonMutSelFiniteProfile</text>
<text text-anchor="middle" x="486" y="-264.5" font-family="Helvetica,sans-Serif" font-size="10.00">Process.h</text>
</a>
</g>
</g>
<!-- Node21&#45;&gt;Node33 -->
<g id="edge13" class="edge"><title>Node21&#45;&gt;Node33</title>
<path fill="none" stroke="midnightblue" d="M683.941,-322.052C640.617,-311.425 584.83,-297.741 543.529,-287.611"/>
<polygon fill="midnightblue" stroke="midnightblue" points="683.279,-325.493 693.825,-324.476 684.947,-318.694 683.279,-325.493"/>
</g>
<!-- Node37 -->
<g id="node17" class="node"><title>Node37</title>
<g id="a_node17"><a xlink:href="CodonMutSelSBDPProfileProcess_8h.html" target="_top" xlink:title="CodonMutSelSBDPProfileProcess.h">
<polygon fill="none" stroke="black" points="568,-263 568,-282 744,-282 744,-263 568,-263"/>
<text text-anchor="middle" x="656" y="-270" font-family="Helvetica,sans-Serif" font-size="10.00">CodonMutSelSBDPProfileProcess.h</text>
</a>
</g>
</g>
<!-- Node21&#45;&gt;Node37 -->
<g id="edge18" class="edge"><title>Node21&#45;&gt;Node37</title>
<path fill="none" stroke="midnightblue" d="M721.975,-318.641C704.047,-306.374 681.959,-291.261 668.433,-282.007"/>
<polygon fill="midnightblue" stroke="midnightblue" points="720.157,-321.638 730.386,-324.396 724.11,-315.861 720.157,-321.638"/>
</g>
<!-- Node41 -->
<g id="node21" class="node"><title>Node41</title>
<g id="a_node21"><a xlink:href="GeneralPathSuffStatGTRDPProfileProcess_8h.html" target="_top" xlink:title="GeneralPathSuffStatGTRDPProfile\lProcess.h">
<polygon fill="none" stroke="black" points="762,-257.5 762,-287.5 932,-287.5 932,-257.5 762,-257.5"/>
<text text-anchor="start" x="770" y="-275.5" font-family="Helvetica,sans-Serif" font-size="10.00">GeneralPathSuffStatGTRDPProfile</text>
<text text-anchor="middle" x="847" y="-264.5" font-family="Helvetica,sans-Serif" font-size="10.00">Process.h</text>
</a>
</g>
</g>
<!-- Node21&#45;&gt;Node41 -->
<g id="edge23" class="edge"><title>Node21&#45;&gt;Node41</title>
<path fill="none" stroke="midnightblue" d="M780.193,-318.734C795.048,-308.676 812.758,-296.685 826.21,-287.577"/>
<polygon fill="midnightblue" stroke="midnightblue" points="778.149,-315.891 771.831,-324.396 782.073,-321.688 778.149,-315.891"/>
</g>
<!-- Node43 -->
<g id="node23" class="node"><title>Node43</title>
<g id="a_node23"><a xlink:href="GeneralPathSuffStatGTRFiniteProfileProcess_8h.html" target="_top" xlink:title="GeneralPathSuffStatGTRFinite\lProfileProcess.h">
<polygon fill="none" stroke="black" points="950,-257.5 950,-287.5 1102,-287.5 1102,-257.5 950,-257.5"/>
<text text-anchor="start" x="958" y="-275.5" font-family="Helvetica,sans-Serif" font-size="10.00">GeneralPathSuffStatGTRFinite</text>
<text text-anchor="middle" x="1026" y="-264.5" font-family="Helvetica,sans-Serif" font-size="10.00">ProfileProcess.h</text>
</a>
</g>
</g>
<!-- Node21&#45;&gt;Node43 -->
<g id="edge25" class="edge"><title>Node21&#45;&gt;Node43</title>
<path fill="none" stroke="midnightblue" d="M820.306,-322.119C865.304,-311.483 923.35,-297.763 966.3,-287.611"/>
<polygon fill="midnightblue" stroke="midnightblue" points="819.259,-318.77 810.332,-324.476 820.869,-325.582 819.259,-318.77"/>
</g>
<!-- Node45 -->
<g id="node25" class="node"><title>Node45</title>
<g id="a_node25"><a xlink:href="GeneralPathSuffStatGTRSBDPProfileProcess_8h.html" target="_top" xlink:title="GeneralPathSuffStatGTRSBDPProfile\lProcess.h">
<polygon fill="none" stroke="black" points="1120.5,-257.5 1120.5,-287.5 1303.5,-287.5 1303.5,-257.5 1120.5,-257.5"/>
<text text-anchor="start" x="1128.5" y="-275.5" font-family="Helvetica,sans-Serif" font-size="10.00">GeneralPathSuffStatGTRSBDPProfile</text>
<text text-anchor="middle" x="1212" y="-264.5" font-family="Helvetica,sans-Serif" font-size="10.00">Process.h</text>
</a>
</g>
</g>
<!-- Node21&#45;&gt;Node45 -->
<g id="edge27" class="edge"><title>Node21&#45;&gt;Node45</title>
<path fill="none" stroke="midnightblue" d="M828.04,-327.766C900.94,-317.592 1013.43,-301.848 1111,-288 1114.07,-287.564 1117.19,-287.121 1120.34,-286.672"/>
<polygon fill="midnightblue" stroke="midnightblue" points="827.442,-324.316 818.022,-329.164 828.41,-331.248 827.442,-324.316"/>
</g>
<!-- Node47 -->
<g id="node27" class="node"><title>Node47</title>
<g id="a_node27"><a xlink:href="GeneralPathSuffStatMatrixMixtureProfileProcess_8cpp.html" target="_top" xlink:title="GeneralPathSuffStatMatrix\lMixtureProfileProcess.cpp">
<polygon fill="none" stroke="black" points="1322,-257.5 1322,-287.5 1456,-287.5 1456,-257.5 1322,-257.5"/>
<text text-anchor="start" x="1330" y="-275.5" font-family="Helvetica,sans-Serif" font-size="10.00">GeneralPathSuffStatMatrix</text>
<text text-anchor="middle" x="1389" y="-264.5" font-family="Helvetica,sans-Serif" font-size="10.00">MixtureProfileProcess.cpp</text>
</a>
</g>
</g>
<!-- Node21&#45;&gt;Node47 -->
<g id="edge29" class="edge"><title>Node21&#45;&gt;Node47</title>
<path fill="none" stroke="midnightblue" d="M828.504,-333.969C937.156,-327.064 1140.77,-312.107 1313,-288 1315.93,-287.59 1318.91,-287.144 1321.92,-286.67"/>
<polygon fill="midnightblue" stroke="midnightblue" points="828.051,-330.491 818.29,-334.612 828.49,-337.477 828.051,-330.491"/>
</g>
<!-- Node23 -->
<g id="node3" class="node"><title>Node23</title>
<g id="a_node3"><a xlink:href="AACodonMutSelFiniteSubstitutionProcess_8h.html" target="_top" xlink:title="AACodonMutSelFiniteSubstitution\lProcess.h">
<polygon fill="none" stroke="black" points="33.5,-190.5 33.5,-220.5 198.5,-220.5 198.5,-190.5 33.5,-190.5"/>
<text text-anchor="start" x="41.5" y="-208.5" font-family="Helvetica,sans-Serif" font-size="10.00">AACodonMutSelFiniteSubstitution</text>
<text text-anchor="middle" x="116" y="-197.5" font-family="Helvetica,sans-Serif" font-size="10.00">Process.h</text>
</a>
</g>
</g>
<!-- Node22&#45;&gt;Node23 -->
<g id="edge2" class="edge"><title>Node22&#45;&gt;Node23</title>
<path fill="none" stroke="midnightblue" d="M123.551,-247.403C121.884,-238.37 120.045,-228.408 118.599,-220.577"/>
<polygon fill="midnightblue" stroke="midnightblue" points="120.139,-248.198 125.396,-257.396 127.022,-246.927 120.139,-248.198"/>
</g>
<!-- Node24 -->
<g id="node4" class="node"><title>Node24</title>
<g id="a_node4"><a xlink:href="AACodonMutSelFinitePhyloProcess_8h.html" target="_top" xlink:title="AACodonMutSelFinitePhylo\lProcess.h">
<polygon fill="none" stroke="black" points="46,-123.5 46,-153.5 184,-153.5 184,-123.5 46,-123.5"/>
<text text-anchor="start" x="54" y="-141.5" font-family="Helvetica,sans-Serif" font-size="10.00">AACodonMutSelFinitePhylo</text>
<text text-anchor="middle" x="115" y="-130.5" font-family="Helvetica,sans-Serif" font-size="10.00">Process.h</text>
</a>
</g>
</g>
<!-- Node23&#45;&gt;Node24 -->
<g id="edge3" class="edge"><title>Node23&#45;&gt;Node24</title>
<path fill="none" stroke="midnightblue" d="M115.625,-180.108C115.487,-171.154 115.336,-161.323 115.217,-153.577"/>
<polygon fill="midnightblue" stroke="midnightblue" points="112.13,-180.451 115.783,-190.396 119.129,-180.343 112.13,-180.451"/>
</g>
<!-- Node25 -->
<g id="node5" class="node"><title>Node25</title>
<g id="a_node5"><a xlink:href="AACodonMutSelFinitePhyloProcess_8cpp.html" target="_top" xlink:title="AACodonMutSelFinitePhylo\lProcess.cpp">
<polygon fill="none" stroke="black" points="0,-56.5 0,-86.5 138,-86.5 138,-56.5 0,-56.5"/>
<text text-anchor="start" x="8" y="-74.5" font-family="Helvetica,sans-Serif" font-size="10.00">AACodonMutSelFinitePhylo</text>
<text text-anchor="middle" x="69" y="-63.5" font-family="Helvetica,sans-Serif" font-size="10.00">Process.cpp</text>
</a>
</g>
</g>
<!-- Node24&#45;&gt;Node25 -->
<g id="edge4" class="edge"><title>Node24&#45;&gt;Node25</title>
<path fill="none" stroke="midnightblue" d="M99.1884,-115.157C92.4804,-105.679 84.8654,-94.9186 78.9618,-86.5765"/>
<polygon fill="midnightblue" stroke="midnightblue" points="96.385,-117.255 105.019,-123.396 102.099,-113.211 96.385,-117.255"/>
</g>
<!-- Node26 -->
<g id="node6" class="node"><title>Node26</title>
<g id="a_node6"><a xlink:href="Model_8h.html" target="_top" xlink:title="Model.h">
<polygon fill="none" stroke="black" points="371.5,-62 371.5,-81 422.5,-81 422.5,-62 371.5,-62"/>
<text text-anchor="middle" x="397" y="-69" font-family="Helvetica,sans-Serif" font-size="10.00">Model.h</text>
</a>
</g>
</g>
<!-- Node24&#45;&gt;Node26 -->
<g id="edge5" class="edge"><title>Node24&#45;&gt;Node26</title>
<path fill="none" stroke="midnightblue" d="M194.212,-122.09C260.208,-109.121 345.928,-91.9227 362,-87 367.283,-85.382 372.867,-83.2646 377.986,-81.1498"/>
<polygon fill="midnightblue" stroke="midnightblue" points="193.355,-118.692 184.216,-124.052 194.703,-125.561 193.355,-118.692"/>
</g>
<!-- Node27 -->
<g id="node7" class="node"><title>Node27</title>
<g id="a_node7"><a xlink:href="PB_8cpp.html" target="_top" xlink:title="PB.cpp">
<polygon fill="none" stroke="black" points="332.5,-0.5 332.5,-19.5 381.5,-19.5 381.5,-0.5 332.5,-0.5"/>
<text text-anchor="middle" x="357" y="-7.5" font-family="Helvetica,sans-Serif" font-size="10.00">PB.cpp</text>
</a>
</g>
</g>
<!-- Node26&#45;&gt;Node27 -->
<g id="edge6" class="edge"><title>Node26&#45;&gt;Node27</title>
<path fill="none" stroke="midnightblue" d="M385.575,-53.5051C378.101,-42.388 368.657,-28.3395 362.72,-19.5091"/>
<polygon fill="midnightblue" stroke="midnightblue" points="382.785,-55.6288 391.269,-61.9751 388.594,-51.7234 382.785,-55.6288"/>
</g>
<!-- Node28 -->
<g id="node8" class="node"><title>Node28</title>
<g id="a_node8"><a xlink:href="ReadPB_8cpp.html" target="_top" xlink:title="ReadPB.cpp">
<polygon fill="none" stroke="black" points="400,-0.5 400,-19.5 472,-19.5 472,-0.5 400,-0.5"/>
<text text-anchor="middle" x="436" y="-7.5" font-family="Helvetica,sans-Serif" font-size="10.00">ReadPB.cpp</text>
</a>
</g>
</g>
<!-- Node26&#45;&gt;Node28 -->
<g id="edge7" class="edge"><title>Node26&#45;&gt;Node28</title>
<path fill="none" stroke="midnightblue" d="M408.14,-53.5051C415.426,-42.388 424.635,-28.3395 430.423,-19.5091"/>
<polygon fill="midnightblue" stroke="midnightblue" points="405.143,-51.6929 402.588,-61.9751 410.997,-55.5303 405.143,-51.6929"/>
</g>
<!-- Node30 -->
<g id="node10" class="node"><title>Node30</title>
<g id="a_node10"><a xlink:href="AACodonMutSelSBDPSubstitutionProcess_8h.html" target="_top" xlink:title="AACodonMutSelSBDPSubstitution\lProcess.h">
<polygon fill="none" stroke="black" points="221.5,-190.5 221.5,-220.5 390.5,-220.5 390.5,-190.5 221.5,-190.5"/>
<text text-anchor="start" x="229.5" y="-208.5" font-family="Helvetica,sans-Serif" font-size="10.00">AACodonMutSelSBDPSubstitution</text>
<text text-anchor="middle" x="306" y="-197.5" font-family="Helvetica,sans-Serif" font-size="10.00">Process.h</text>
</a>
</g>
</g>
<!-- Node29&#45;&gt;Node30 -->
<g id="edge9" class="edge"><title>Node29&#45;&gt;Node30</title>
<path fill="none" stroke="midnightblue" d="M313.551,-247.403C311.884,-238.37 310.045,-228.408 308.599,-220.577"/>
<polygon fill="midnightblue" stroke="midnightblue" points="310.139,-248.198 315.396,-257.396 317.022,-246.927 310.139,-248.198"/>
</g>
<!-- Node31 -->
<g id="node11" class="node"><title>Node31</title>
<g id="a_node11"><a xlink:href="AACodonMutSelSBDPPhyloProcess_8h.html" target="_top" xlink:title="AACodonMutSelSBDPPhyloProcess.h">
<polygon fill="none" stroke="black" points="202,-129 202,-148 388,-148 388,-129 202,-129"/>
<text text-anchor="middle" x="295" y="-136" font-family="Helvetica,sans-Serif" font-size="10.00">AACodonMutSelSBDPPhyloProcess.h</text>
</a>
</g>
</g>
<!-- Node30&#45;&gt;Node31 -->
<g id="edge10" class="edge"><title>Node30&#45;&gt;Node31</title>
<path fill="none" stroke="midnightblue" d="M301.896,-180.25C299.995,-169.017 297.856,-156.377 296.471,-148.195"/>
<polygon fill="midnightblue" stroke="midnightblue" points="298.494,-181.12 303.613,-190.396 305.395,-179.952 298.494,-181.12"/>
</g>
<!-- Node31&#45;&gt;Node26 -->
<g id="edge12" class="edge"><title>Node31&#45;&gt;Node26</title>
<path fill="none" stroke="midnightblue" d="M317.332,-123.269C337.522,-110.403 366.59,-91.879 383.462,-81.1273"/>
<polygon fill="midnightblue" stroke="midnightblue" points="315.308,-120.408 308.756,-128.734 319.07,-126.311 315.308,-120.408"/>
</g>
<!-- Node32 -->
<g id="node12" class="node"><title>Node32</title>
<g id="a_node12"><a xlink:href="AACodonMutSelSBDPPhyloProcess_8cpp.html" target="_top" xlink:title="AACodonMutSelSBDPPhyloProcess.cpp">
<polygon fill="none" stroke="black" points="156.5,-62 156.5,-81 353.5,-81 353.5,-62 156.5,-62"/>
<text text-anchor="middle" x="255" y="-69" font-family="Helvetica,sans-Serif" font-size="10.00">AACodonMutSelSBDPPhyloProcess.cpp</text>
</a>
</g>
</g>
<!-- Node31&#45;&gt;Node32 -->
<g id="edge11" class="edge"><title>Node31&#45;&gt;Node32</title>
<path fill="none" stroke="midnightblue" d="M284.252,-120.035C276.508,-107.45 266.389,-91.0072 260.309,-81.1273"/>
<polygon fill="midnightblue" stroke="midnightblue" points="281.384,-122.052 289.605,-128.734 287.345,-118.383 281.384,-122.052"/>
</g>
<!-- Node34 -->
<g id="node14" class="node"><title>Node34</title>
<g id="a_node14"><a xlink:href="CodonMutSelFiniteSubstitutionProcess_8h.html" target="_top" xlink:title="CodonMutSelFiniteSubstitution\lProcess.h">
<polygon fill="none" stroke="black" points="412,-190.5 412,-220.5 564,-220.5 564,-190.5 412,-190.5"/>
<text text-anchor="start" x="420" y="-208.5" font-family="Helvetica,sans-Serif" font-size="10.00">CodonMutSelFiniteSubstitution</text>
<text text-anchor="middle" x="488" y="-197.5" font-family="Helvetica,sans-Serif" font-size="10.00">Process.h</text>
</a>
</g>
</g>
<!-- Node33&#45;&gt;Node34 -->
<g id="edge14" class="edge"><title>Node33&#45;&gt;Node34</title>
<path fill="none" stroke="midnightblue" d="M486.751,-247.108C487.026,-238.154 487.329,-228.323 487.567,-220.577"/>
<polygon fill="midnightblue" stroke="midnightblue" points="483.243,-247.293 486.434,-257.396 490.24,-247.508 483.243,-247.293"/>
</g>
<!-- Node35 -->
<g id="node15" class="node"><title>Node35</title>
<g id="a_node15"><a xlink:href="CodonMutSelFinitePhyloProcess_8h.html" target="_top" xlink:title="CodonMutSelFinitePhyloProcess.h">
<polygon fill="none" stroke="black" points="405.5,-129 405.5,-148 574.5,-148 574.5,-129 405.5,-129"/>
<text text-anchor="middle" x="490" y="-136" font-family="Helvetica,sans-Serif" font-size="10.00">CodonMutSelFinitePhyloProcess.h</text>
</a>
</g>
</g>
<!-- Node34&#45;&gt;Node35 -->
<g id="edge15" class="edge"><title>Node34&#45;&gt;Node35</title>
<path fill="none" stroke="midnightblue" d="M488.746,-180.25C489.092,-169.017 489.481,-156.377 489.732,-148.195"/>
<polygon fill="midnightblue" stroke="midnightblue" points="485.243,-180.293 488.434,-190.396 492.24,-180.508 485.243,-180.293"/>
</g>
<!-- Node35&#45;&gt;Node26 -->
<g id="edge17" class="edge"><title>Node35&#45;&gt;Node26</title>
<path fill="none" stroke="midnightblue" d="M469.139,-122.92C450.753,-110.069 424.588,-91.7821 409.344,-81.1273"/>
<polygon fill="midnightblue" stroke="midnightblue" points="467.256,-125.874 477.458,-128.734 471.266,-120.136 467.256,-125.874"/>
</g>
<!-- Node36 -->
<g id="node16" class="node"><title>Node36</title>
<g id="a_node16"><a xlink:href="CodonMutSelFinitePhyloProcess_8cpp.html" target="_top" xlink:title="CodonMutSelFinitePhyloProcess.cpp">
<polygon fill="none" stroke="black" points="440.5,-62 440.5,-81 619.5,-81 619.5,-62 440.5,-62"/>
<text text-anchor="middle" x="530" y="-69" font-family="Helvetica,sans-Serif" font-size="10.00">CodonMutSelFinitePhyloProcess.cpp</text>
</a>
</g>
</g>
<!-- Node35&#45;&gt;Node36 -->
<g id="edge16" class="edge"><title>Node35&#45;&gt;Node36</title>
<path fill="none" stroke="midnightblue" d="M500.748,-120.035C508.492,-107.45 518.611,-91.0072 524.691,-81.1273"/>
<polygon fill="midnightblue" stroke="midnightblue" points="497.655,-118.383 495.395,-128.734 503.616,-122.052 497.655,-118.383"/>
</g>
<!-- Node38 -->
<g id="node18" class="node"><title>Node38</title>
<g id="a_node18"><a xlink:href="CodonMutSelSBDPSubstitutionProcess_8h.html" target="_top" xlink:title="CodonMutSelSBDPSubstitution\lProcess.h">
<polygon fill="none" stroke="black" points="586.5,-190.5 586.5,-220.5 741.5,-220.5 741.5,-190.5 586.5,-190.5"/>
<text text-anchor="start" x="594.5" y="-208.5" font-family="Helvetica,sans-Serif" font-size="10.00">CodonMutSelSBDPSubstitution</text>
<text text-anchor="middle" x="664" y="-197.5" font-family="Helvetica,sans-Serif" font-size="10.00">Process.h</text>
</a>
</g>
</g>
<!-- Node37&#45;&gt;Node38 -->
<g id="edge19" class="edge"><title>Node37&#45;&gt;Node38</title>
<path fill="none" stroke="midnightblue" d="M658.309,-252.739C659.571,-242.487 661.108,-230.001 662.266,-220.589"/>
<polygon fill="midnightblue" stroke="midnightblue" points="654.827,-252.381 657.079,-262.734 661.774,-253.236 654.827,-252.381"/>
</g>
<!-- Node39 -->
<g id="node19" class="node"><title>Node39</title>
<g id="a_node19"><a xlink:href="CodonMutSelSBDPPhyloProcess_8h.html" target="_top" xlink:title="CodonMutSelSBDPPhyloProcess.h">
<polygon fill="none" stroke="black" points="592.5,-129 592.5,-148 765.5,-148 765.5,-129 592.5,-129"/>
<text text-anchor="middle" x="679" y="-136" font-family="Helvetica,sans-Serif" font-size="10.00">CodonMutSelSBDPPhyloProcess.h</text>
</a>
</g>
</g>
<!-- Node38&#45;&gt;Node39 -->
<g id="edge20" class="edge"><title>Node38&#45;&gt;Node39</title>
<path fill="none" stroke="midnightblue" d="M669.516,-180.596C672.128,-169.278 675.086,-156.461 676.994,-148.195"/>
<polygon fill="midnightblue" stroke="midnightblue" points="666.093,-179.865 667.255,-190.396 672.914,-181.439 666.093,-179.865"/>
</g>
<!-- Node39&#45;&gt;Node26 -->
<g id="edge22" class="edge"><title>Node39&#45;&gt;Node26</title>
<path fill="none" stroke="midnightblue" d="M610.17,-127.328C559.869,-118.971 490.361,-105.493 431,-87 425.731,-85.3586 420.165,-83.1836 415.096,-81.0188"/>
<polygon fill="midnightblue" stroke="midnightblue" points="609.85,-130.822 620.284,-128.982 610.98,-123.914 609.85,-130.822"/>
</g>
<!-- Node40 -->
<g id="node20" class="node"><title>Node40</title>
<g id="a_node20"><a xlink:href="CodonMutSelSBDPPhyloProcess_8cpp.html" target="_top" xlink:title="CodonMutSelSBDPPhyloProcess.cpp">
<polygon fill="none" stroke="black" points="637.5,-62 637.5,-81 820.5,-81 820.5,-62 637.5,-62"/>
<text text-anchor="middle" x="729" y="-69" font-family="Helvetica,sans-Serif" font-size="10.00">CodonMutSelSBDPPhyloProcess.cpp</text>
</a>
</g>
</g>
<!-- Node39&#45;&gt;Node40 -->
<g id="edge21" class="edge"><title>Node39&#45;&gt;Node40</title>
<path fill="none" stroke="midnightblue" d="M691.869,-120.77C701.618,-108.097 714.615,-91.201 722.364,-81.1273"/>
<polygon fill="midnightblue" stroke="midnightblue" points="689.066,-118.674 685.743,-128.734 694.615,-122.942 689.066,-118.674"/>
</g>
<!-- Node42 -->
<g id="node22" class="node"><title>Node42</title>
<g id="a_node22"><a xlink:href="GeneralPathSuffStatGTRDPProfileProcess_8cpp.html" target="_top" xlink:title="GeneralPathSuffStatGTRDPProfile\lProcess.cpp">
<polygon fill="none" stroke="black" points="762,-190.5 762,-220.5 932,-220.5 932,-190.5 762,-190.5"/>
<text text-anchor="start" x="770" y="-208.5" font-family="Helvetica,sans-Serif" font-size="10.00">GeneralPathSuffStatGTRDPProfile</text>
<text text-anchor="middle" x="847" y="-197.5" font-family="Helvetica,sans-Serif" font-size="10.00">Process.cpp</text>
</a>
</g>
</g>
<!-- Node41&#45;&gt;Node42 -->
<g id="edge24" class="edge"><title>Node41&#45;&gt;Node42</title>
<path fill="none" stroke="midnightblue" d="M847,-247.108C847,-238.154 847,-228.323 847,-220.577"/>
<polygon fill="midnightblue" stroke="midnightblue" points="843.5,-247.396 847,-257.396 850.5,-247.396 843.5,-247.396"/>
</g>
<!-- Node44 -->
<g id="node24" class="node"><title>Node44</title>
<g id="a_node24"><a xlink:href="GeneralPathSuffStatGTRFiniteProfileProcess_8cpp.html" target="_top" xlink:title="GeneralPathSuffStatGTRFinite\lProfileProcess.cpp">
<polygon fill="none" stroke="black" points="950,-190.5 950,-220.5 1102,-220.5 1102,-190.5 950,-190.5"/>
<text text-anchor="start" x="958" y="-208.5" font-family="Helvetica,sans-Serif" font-size="10.00">GeneralPathSuffStatGTRFinite</text>
<text text-anchor="middle" x="1026" y="-197.5" font-family="Helvetica,sans-Serif" font-size="10.00">ProfileProcess.cpp</text>
</a>
</g>
</g>
<!-- Node43&#45;&gt;Node44 -->
<g id="edge26" class="edge"><title>Node43&#45;&gt;Node44</title>
<path fill="none" stroke="midnightblue" d="M1026,-247.108C1026,-238.154 1026,-228.323 1026,-220.577"/>
<polygon fill="midnightblue" stroke="midnightblue" points="1022.5,-247.396 1026,-257.396 1029.5,-247.396 1022.5,-247.396"/>
</g>
<!-- Node46 -->
<g id="node26" class="node"><title>Node46</title>
<g id="a_node26"><a xlink:href="GeneralPathSuffStatGTRSBDPProfileProcess_8cpp.html" target="_top" xlink:title="GeneralPathSuffStatGTRSBDPProfile\lProcess.cpp">
<polygon fill="none" stroke="black" points="1120.5,-190.5 1120.5,-220.5 1303.5,-220.5 1303.5,-190.5 1120.5,-190.5"/>
<text text-anchor="start" x="1128.5" y="-208.5" font-family="Helvetica,sans-Serif" font-size="10.00">GeneralPathSuffStatGTRSBDPProfile</text>
<text text-anchor="middle" x="1212" y="-197.5" font-family="Helvetica,sans-Serif" font-size="10.00">Process.cpp</text>
</a>
</g>
</g>
<!-- Node45&#45;&gt;Node46 -->
<g id="edge28" class="edge"><title>Node45&#45;&gt;Node46</title>
<path fill="none" stroke="midnightblue" d="M1212,-247.108C1212,-238.154 1212,-228.323 1212,-220.577"/>
<polygon fill="midnightblue" stroke="midnightblue" points="1208.5,-247.396 1212,-257.396 1215.5,-247.396 1208.5,-247.396"/>
</g>
</g>
</svg>
