<?xml version="1.0" encoding="UTF-8" standalone="no"?>
<!DOCTYPE svg PUBLIC "-//W3C//DTD SVG 1.1//EN"
 "http://www.w3.org/Graphics/SVG/1.1/DTD/svg11.dtd">
<!-- Generated by graphviz version 2.40.1 (20161225.0304)
 -->
<!-- Title: GeneralPathSuffStatMatrixProfileProcess.h Pages: 1 -->
<svg width="446pt" height="240pt"
 viewBox="0.00 0.00 446.00 240.00" xmlns="http://www.w3.org/2000/svg" xmlns:xlink="http://www.w3.org/1999/xlink">
<g id="graph0" class="graph" transform="scale(1 1) rotate(0) translate(4 236)">
<title>GeneralPathSuffStatMatrixProfileProcess.h</title>
<!-- Node18 -->
<g id="node1" class="node">
<title>Node18</title>
<polygon fill="#bfbfbf" stroke="#000000" points="76,-201.5 76,-231.5 210,-231.5 210,-201.5 76,-201.5"/>
<text text-anchor="start" x="84" y="-219.5" font-family="Helvetica,sans-Serif" font-size="10.00" fill="#000000">GeneralPathSuffStatMatrix</text>
<text text-anchor="middle" x="143" y="-208.5" font-family="Helvetica,sans-Serif" font-size="10.00" fill="#000000">ProfileProcess.h</text>
</g>
<!-- Node19 -->
<g id="node2" class="node">
<title>Node19</title>
<g id="a_node2"><a xlink:href="GeneralPathSuffStatMatrixMixtureProfileProcess_8h.html" target="_top" xlink:title="GeneralPathSuffStatMatrix\lMixtureProfileProcess.h">
<polygon fill="none" stroke="#000000" points="0,-134.5 0,-164.5 134,-164.5 134,-134.5 0,-134.5"/>
<text text-anchor="start" x="8" y="-152.5" font-family="Helvetica,sans-Serif" font-size="10.00" fill="#000000">GeneralPathSuffStatMatrix</text>
<text text-anchor="middle" x="67" y="-141.5" font-family="Helvetica,sans-Serif" font-size="10.00" fill="#000000">MixtureProfileProcess.h</text>
</a>
</g>
</g>
<!-- Node18&#45;&gt;Node19 -->
<g id="edge1" class="edge">
<title>Node18&#45;&gt;Node19</title>
<path fill="none" stroke="#191970" d="M118.0408,-194.4965C106.9503,-184.7193 94.1733,-173.4554 84.1773,-164.6432"/>
<polygon fill="#191970" stroke="#191970" points="115.9386,-197.3091 125.7544,-201.2967 120.5677,-192.0582 115.9386,-197.3091"/>
</g>
<!-- Node21 -->
<g id="node4" class="node">
<title>Node21</title>
<g id="a_node4"><a xlink:href="GeneralPathSuffStatMatrixSubstitutionProcess_8h.html" target="_top" xlink:title="GeneralPathSuffStatMatrix\lSubstitutionProcess.h">
<polygon fill="none" stroke="#000000" points="152,-134.5 152,-164.5 286,-164.5 286,-134.5 152,-134.5"/>
<text text-anchor="start" x="160" y="-152.5" font-family="Helvetica,sans-Serif" font-size="10.00" fill="#000000">GeneralPathSuffStatMatrix</text>
<text text-anchor="middle" x="219" y="-141.5" font-family="Helvetica,sans-Serif" font-size="10.00" fill="#000000">SubstitutionProcess.h</text>
</a>
</g>
</g>
<!-- Node18&#45;&gt;Node21 -->
<g id="edge3" class="edge">
<title>Node18&#45;&gt;Node21</title>
<path fill="none" stroke="#191970" d="M167.9592,-194.4965C179.0497,-184.7193 191.8267,-173.4554 201.8227,-164.6432"/>
<polygon fill="#191970" stroke="#191970" points="165.4323,-192.0582 160.2456,-201.2967 170.0614,-197.3091 165.4323,-192.0582"/>
</g>
<!-- Node20 -->
<g id="node3" class="node">
<title>Node20</title>
<g id="a_node3"><a xlink:href="GeneralPathSuffStatMatrixMixtureProfileProcess_8cpp.html" target="_top" xlink:title="GeneralPathSuffStatMatrix\lMixtureProfileProcess.cpp">
<polygon fill="none" stroke="#000000" points="0,-67.5 0,-97.5 134,-97.5 134,-67.5 0,-67.5"/>
<text text-anchor="start" x="8" y="-85.5" font-family="Helvetica,sans-Serif" font-size="10.00" fill="#000000">GeneralPathSuffStatMatrix</text>
<text text-anchor="middle" x="67" y="-74.5" font-family="Helvetica,sans-Serif" font-size="10.00" fill="#000000">MixtureProfileProcess.cpp</text>
</a>
</g>
</g>
<!-- Node19&#45;&gt;Node20 -->
<g id="edge2" class="edge">
<title>Node19&#45;&gt;Node20</title>
<path fill="none" stroke="#191970" d="M67,-124.0249C67,-115.128 67,-105.4287 67,-97.6432"/>
<polygon fill="#191970" stroke="#191970" points="63.5001,-124.2966 67,-134.2967 70.5001,-124.2967 63.5001,-124.2966"/>
</g>
<!-- Node22 -->
<g id="node5" class="node">
<title>Node22</title>
<g id="a_node5"><a xlink:href="GeneralPathSuffStatMatrixPhyloProcess_8h.html" target="_top" xlink:title="GeneralPathSuffStatMatrix\lPhyloProcess.h">
<polygon fill="none" stroke="#000000" points="152,-67.5 152,-97.5 286,-97.5 286,-67.5 152,-67.5"/>
<text text-anchor="start" x="160" y="-85.5" font-family="Helvetica,sans-Serif" font-size="10.00" fill="#000000">GeneralPathSuffStatMatrix</text>
<text text-anchor="middle" x="219" y="-74.5" font-family="Helvetica,sans-Serif" font-size="10.00" fill="#000000">PhyloProcess.h</text>
</a>
</g>
</g>
<!-- Node21&#45;&gt;Node22 -->
<g id="edge4" class="edge">
<title>Node21&#45;&gt;Node22</title>
<path fill="none" stroke="#191970" d="M219,-124.0249C219,-115.128 219,-105.4287 219,-97.6432"/>
<polygon fill="#191970" stroke="#191970" points="215.5001,-124.2966 219,-134.2967 222.5001,-124.2967 215.5001,-124.2966"/>
</g>
<!-- Node24 -->
<g id="node7" class="node">
<title>Node24</title>
<g id="a_node7"><a xlink:href="GeneralPathSuffStatMatrixSubstitutionProcess_8cpp.html" target="_top" xlink:title="GeneralPathSuffStatMatrix\lSubstitutionProcess.cpp">
<polygon fill="none" stroke="#000000" points="304,-67.5 304,-97.5 438,-97.5 438,-67.5 304,-67.5"/>
<text text-anchor="start" x="312" y="-85.5" font-family="Helvetica,sans-Serif" font-size="10.00" fill="#000000">GeneralPathSuffStatMatrix</text>
<text text-anchor="middle" x="371" y="-74.5" font-family="Helvetica,sans-Serif" font-size="10.00" fill="#000000">SubstitutionProcess.cpp</text>
</a>
</g>
</g>
<!-- Node21&#45;&gt;Node24 -->
<g id="edge6" class="edge">
<title>Node21&#45;&gt;Node24</title>
<path fill="none" stroke="#191970" d="M262.5282,-130.3132C286.0917,-119.9267 314.784,-107.2794 336.7395,-97.6017"/>
<polygon fill="#191970" stroke="#191970" points="260.8505,-127.2277 253.1118,-134.4639 263.674,-133.6331 260.8505,-127.2277"/>
</g>
<!-- Node23 -->
<g id="node6" class="node">
<title>Node23</title>
<g id="a_node6"><a xlink:href="GeneralPathSuffStatMatrixPhyloProcess_8cpp.html" target="_top" xlink:title="GeneralPathSuffStatMatrix\lPhyloProcess.cpp">
<polygon fill="none" stroke="#000000" points="152,-.5 152,-30.5 286,-30.5 286,-.5 152,-.5"/>
<text text-anchor="start" x="160" y="-18.5" font-family="Helvetica,sans-Serif" font-size="10.00" fill="#000000">GeneralPathSuffStatMatrix</text>
<text text-anchor="middle" x="219" y="-7.5" font-family="Helvetica,sans-Serif" font-size="10.00" fill="#000000">PhyloProcess.cpp</text>
</a>
</g>
</g>
<!-- Node22&#45;&gt;Node23 -->
<g id="edge5" class="edge">
<title>Node22&#45;&gt;Node23</title>
<path fill="none" stroke="#191970" d="M219,-57.0249C219,-48.128 219,-38.4287 219,-30.6432"/>
<polygon fill="#191970" stroke="#191970" points="215.5001,-57.2966 219,-67.2967 222.5001,-57.2967 215.5001,-57.2966"/>
</g>
</g>
</svg>
