<?xml version="1.0" encoding="UTF-8" standalone="no"?>
<!DOCTYPE svg PUBLIC "-//W3C//DTD SVG 1.1//EN"
 "http://www.w3.org/Graphics/SVG/1.1/DTD/svg11.dtd">
<!-- Generated by graphviz version 2.38.0 (20140413.2041)
 -->
<!-- Title: GeneralConjugatePath.h Pages: 1 -->
<svg width="1139pt" height="364pt"
 viewBox="0.00 0.00 1139.00 364.00" xmlns="http://www.w3.org/2000/svg" xmlns:xlink="http://www.w3.org/1999/xlink">
<g id="graph0" class="graph" transform="scale(1 1) rotate(0) translate(4 360)">
<title>GeneralConjugatePath.h</title>
<!-- Node0 -->
<g id="node1" class="node"><title>Node0</title>
<polygon fill="#bfbfbf" stroke="black" points="645.5,-336.5 645.5,-355.5 768.5,-355.5 768.5,-336.5 645.5,-336.5"/>
<text text-anchor="middle" x="707" y="-343.5" font-family="Helvetica,sans-Serif" font-size="10.00">GeneralConjugatePath.h</text>
</g>
<!-- Node1 -->
<g id="node2" class="node"><title>Node1</title>
<polygon fill="none" stroke="#bfbfbf" points="337,-280.5 337,-299.5 467,-299.5 467,-280.5 337,-280.5"/>
<text text-anchor="middle" x="402" y="-287.5" font-family="Helvetica,sans-Serif" font-size="10.00">RandomBranchSitePath.h</text>
</g>
<!-- Node0&#45;&gt;Node1 -->
<g id="edge1" class="edge"><title>Node0&#45;&gt;Node1</title>
<path fill="none" stroke="midnightblue" d="M658.672,-336.444C604.796,-326.905 517.693,-311.483 460.136,-301.293"/>
<polygon fill="midnightblue" stroke="midnightblue" points="460.559,-297.813 450.102,-299.516 459.339,-304.706 460.559,-297.813"/>
</g>
<!-- Node2 -->
<g id="node3" class="node"><title>Node2</title>
<polygon fill="none" stroke="#bfbfbf" points="485.5,-280.5 485.5,-299.5 554.5,-299.5 554.5,-280.5 485.5,-280.5"/>
<text text-anchor="middle" x="520" y="-287.5" font-family="Helvetica,sans-Serif" font-size="10.00">Conjugate.h</text>
</g>
<!-- Node0&#45;&gt;Node2 -->
<g id="edge2" class="edge"><title>Node0&#45;&gt;Node2</title>
<path fill="none" stroke="midnightblue" d="M677.369,-336.444C645.5,-327.241 594.667,-312.562 559.436,-302.388"/>
<polygon fill="midnightblue" stroke="midnightblue" points="560.071,-298.928 549.492,-299.516 558.128,-305.653 560.071,-298.928"/>
</g>
<!-- Node3 -->
<g id="node4" class="node"><title>Node3</title>
<polygon fill="none" stroke="#bfbfbf" points="573,-280.5 573,-299.5 679,-299.5 679,-280.5 573,-280.5"/>
<text text-anchor="middle" x="626" y="-287.5" font-family="Helvetica,sans-Serif" font-size="10.00">RandomSubMatrix.h</text>
</g>
<!-- Node0&#45;&gt;Node3 -->
<g id="edge3" class="edge"><title>Node0&#45;&gt;Node3</title>
<path fill="none" stroke="midnightblue" d="M693.986,-336.324C681.468,-327.979 662.318,-315.212 647.529,-305.352"/>
<polygon fill="midnightblue" stroke="midnightblue" points="649.244,-302.289 638.982,-299.655 645.361,-308.114 649.244,-302.289"/>
</g>
<!-- Node4 -->
<g id="node5" class="node"><title>Node4</title>
<g id="a_node5"><a xlink:href="PhyloProcess_8h.html" target="_top" xlink:title="PhyloProcess.h">
<polygon fill="none" stroke="black" points="735,-280.5 735,-299.5 821,-299.5 821,-280.5 735,-280.5"/>
<text text-anchor="middle" x="778" y="-287.5" font-family="Helvetica,sans-Serif" font-size="10.00">PhyloProcess.h</text>
</a>
</g>
</g>
<!-- Node0&#45;&gt;Node4 -->
<g id="edge4" class="edge"><title>Node0&#45;&gt;Node4</title>
<path fill="none" stroke="midnightblue" d="M718.407,-336.324C729.109,-328.185 745.341,-315.839 758.163,-306.087"/>
<polygon fill="midnightblue" stroke="midnightblue" points="760.544,-308.673 766.385,-299.834 756.307,-303.102 760.544,-308.673"/>
</g>
<!-- Node12 -->
<g id="node13" class="node"><title>Node12</title>
<polygon fill="none" stroke="#bfbfbf" points="950.5,-0.5 950.5,-19.5 985.5,-19.5 985.5,-0.5 950.5,-0.5"/>
<text text-anchor="middle" x="968" y="-7.5" font-family="Helvetica,sans-Serif" font-size="10.00">map</text>
</g>
<!-- Node0&#45;&gt;Node12 -->
<g id="edge65" class="edge"><title>Node0&#45;&gt;Node12</title>
<path fill="none" stroke="midnightblue" d="M768.604,-338.759C870.496,-326.71 1063,-295.888 1063,-235 1063,-235 1063,-235 1063,-121 1063,-77.7385 1020.39,-43.0862 992.245,-24.9149"/>
<polygon fill="midnightblue" stroke="midnightblue" points="994.03,-21.9032 983.687,-19.6042 990.339,-27.851 994.03,-21.9032"/>
</g>
<!-- Node35 -->
<g id="node36" class="node"><title>Node35</title>
<polygon fill="none" stroke="#bfbfbf" points="1091,-280.5 1091,-299.5 1131,-299.5 1131,-280.5 1091,-280.5"/>
<text text-anchor="middle" x="1111" y="-287.5" font-family="Helvetica,sans-Serif" font-size="10.00">utility</text>
</g>
<!-- Node0&#45;&gt;Node35 -->
<g id="edge64" class="edge"><title>Node0&#45;&gt;Node35</title>
<path fill="none" stroke="midnightblue" d="M768.616,-340.122C842.383,-333.68 969.448,-320.673 1077,-300 1078.28,-299.754 1079.59,-299.486 1080.9,-299.201"/>
<polygon fill="midnightblue" stroke="midnightblue" points="1082.06,-302.523 1090.97,-296.792 1080.43,-295.716 1082.06,-302.523"/>
</g>
<!-- Node36 -->
<g id="node37" class="node"><title>Node36</title>
<g id="a_node37"><a xlink:href="CodonSubMatrix_8h.html" target="_top" xlink:title="CodonSubMatrix.h">
<polygon fill="none" stroke="black" points="153,-224.5 153,-243.5 251,-243.5 251,-224.5 153,-224.5"/>
<text text-anchor="middle" x="202" y="-231.5" font-family="Helvetica,sans-Serif" font-size="10.00">CodonSubMatrix.h</text>
</a>
</g>
</g>
<!-- Node0&#45;&gt;Node36 -->
<g id="edge66" class="edge"><title>Node0&#45;&gt;Node36</title>
<path fill="none" stroke="midnightblue" d="M707.313,-336.182C707.29,-321.881 704.933,-293.838 688,-280 652.851,-251.275 340.216,-249.748 261.258,-243.807"/>
<polygon fill="midnightblue" stroke="midnightblue" points="261.296,-240.295 251.014,-242.853 260.647,-247.265 261.296,-240.295"/>
</g>
<!-- Node5 -->
<g id="node6" class="node"><title>Node5</title>
<g id="a_node6"><a xlink:href="SequenceAlignment_8h.html" target="_top" xlink:title="SequenceAlignment.h">
<polygon fill="none" stroke="black" points="283,-168.5 283,-187.5 395,-187.5 395,-168.5 283,-168.5"/>
<text text-anchor="middle" x="339" y="-175.5" font-family="Helvetica,sans-Serif" font-size="10.00">SequenceAlignment.h</text>
</a>
</g>
</g>
<!-- Node4&#45;&gt;Node5 -->
<g id="edge5" class="edge"><title>Node4&#45;&gt;Node5</title>
<path fill="none" stroke="midnightblue" d="M744.814,-280.437C713.58,-272.097 665.659,-258.575 625,-244 603.63,-236.34 599.726,-230.583 578,-224 545.77,-214.234 460.906,-199.166 401.517,-189.196"/>
<polygon fill="midnightblue" stroke="midnightblue" points="401.921,-185.715 391.481,-187.518 400.767,-192.619 401.921,-185.715"/>
</g>
<!-- Node4&#45;&gt;Node12 -->
<g id="edge62" class="edge"><title>Node4&#45;&gt;Node12</title>
<path fill="none" stroke="midnightblue" d="M798.228,-280.453C831.775,-265.531 899.709,-232.067 945,-188 983.449,-150.59 985.73,-129.475 990,-76 990.707,-67.1393 992.004,-64.6601 990,-56 987.77,-46.3627 983.179,-36.4052 978.764,-28.3149"/>
<polygon fill="midnightblue" stroke="midnightblue" points="981.697,-26.3968 973.638,-19.5194 975.649,-29.9216 981.697,-26.3968"/>
</g>
<!-- Node18 -->
<g id="node19" class="node"><title>Node18</title>
<g id="a_node19"><a xlink:href="CodonSequenceAlignment_8h.html" target="_top" xlink:title="CodonSequenceAlignment.h">
<polygon fill="none" stroke="black" points="269,-224.5 269,-243.5 409,-243.5 409,-224.5 269,-224.5"/>
<text text-anchor="middle" x="339" y="-231.5" font-family="Helvetica,sans-Serif" font-size="10.00">CodonSequenceAlignment.h</text>
</a>
</g>
</g>
<!-- Node4&#45;&gt;Node18 -->
<g id="edge22" class="edge"><title>Node4&#45;&gt;Node18</title>
<path fill="none" stroke="midnightblue" d="M734.766,-281.991C730.123,-281.293 725.466,-280.615 721,-280 664.593,-272.227 513.819,-254.841 419.437,-244.098"/>
<polygon fill="midnightblue" stroke="midnightblue" points="419.683,-240.604 409.352,-242.951 418.892,-247.559 419.683,-240.604"/>
</g>
<!-- Node20 -->
<g id="node21" class="node"><title>Node20</title>
<g id="a_node21"><a xlink:href="ZippedSequenceAlignment_8h.html" target="_top" xlink:title="ZippedSequenceAlignment.h">
<polygon fill="none" stroke="black" points="428.5,-224.5 428.5,-243.5 569.5,-243.5 569.5,-224.5 428.5,-224.5"/>
<text text-anchor="middle" x="499" y="-231.5" font-family="Helvetica,sans-Serif" font-size="10.00">ZippedSequenceAlignment.h</text>
</a>
</g>
</g>
<!-- Node4&#45;&gt;Node20 -->
<g id="edge28" class="edge"><title>Node4&#45;&gt;Node20</title>
<path fill="none" stroke="midnightblue" d="M734.712,-280.622C685.823,-271.159 606.195,-255.748 553.209,-245.492"/>
<polygon fill="midnightblue" stroke="midnightblue" points="553.795,-242.041 543.312,-243.577 552.465,-248.913 553.795,-242.041"/>
</g>
<!-- Node21 -->
<g id="node22" class="node"><title>Node21</title>
<g id="a_node22"><a xlink:href="SubstitutionProcess_8h.html" target="_top" xlink:title="SubstitutionProcess.h">
<polygon fill="none" stroke="black" points="634.5,-224.5 634.5,-243.5 747.5,-243.5 747.5,-224.5 634.5,-224.5"/>
<text text-anchor="middle" x="691" y="-231.5" font-family="Helvetica,sans-Serif" font-size="10.00">SubstitutionProcess.h</text>
</a>
</g>
</g>
<!-- Node4&#45;&gt;Node21 -->
<g id="edge30" class="edge"><title>Node4&#45;&gt;Node21</title>
<path fill="none" stroke="midnightblue" d="M764.022,-280.324C750.45,-271.9 729.62,-258.971 713.675,-249.074"/>
<polygon fill="midnightblue" stroke="midnightblue" points="715.286,-245.954 704.943,-243.655 711.594,-251.902 715.286,-245.954"/>
</g>
<!-- Node31 -->
<g id="node32" class="node"><title>Node31</title>
<g id="a_node32"><a xlink:href="BranchProcess_8h.html" target="_top" xlink:title="BranchProcess.h">
<polygon fill="none" stroke="black" points="732,-168.5 732,-187.5 824,-187.5 824,-168.5 732,-168.5"/>
<text text-anchor="middle" x="778" y="-175.5" font-family="Helvetica,sans-Serif" font-size="10.00">BranchProcess.h</text>
</a>
</g>
</g>
<!-- Node4&#45;&gt;Node31 -->
<g id="edge57" class="edge"><title>Node4&#45;&gt;Node31</title>
<path fill="none" stroke="midnightblue" d="M778,-280.368C778,-262.617 778,-221.666 778,-197.597"/>
<polygon fill="midnightblue" stroke="midnightblue" points="781.5,-197.591 778,-187.591 774.5,-197.591 781.5,-197.591"/>
</g>
<!-- Node32 -->
<g id="node33" class="node"><title>Node32</title>
<g id="a_node33"><a xlink:href="Parallel_8h.html" target="_top" xlink:title="Parallel.h">
<polygon fill="none" stroke="black" points="977.5,-224.5 977.5,-243.5 1034.5,-243.5 1034.5,-224.5 977.5,-224.5"/>
<text text-anchor="middle" x="1006" y="-231.5" font-family="Helvetica,sans-Serif" font-size="10.00">Parallel.h</text>
</a>
</g>
</g>
<!-- Node4&#45;&gt;Node32 -->
<g id="edge60" class="edge"><title>Node4&#45;&gt;Node32</title>
<path fill="none" stroke="midnightblue" d="M814.127,-280.444C855.976,-270.532 924.644,-254.269 967.483,-244.122"/>
<polygon fill="midnightblue" stroke="midnightblue" points="968.337,-247.517 977.261,-241.807 966.723,-240.706 968.337,-247.517"/>
</g>
<!-- Node34 -->
<g id="node35" class="node"><title>Node34</title>
<polygon fill="none" stroke="#bfbfbf" points="915,-224.5 915,-243.5 959,-243.5 959,-224.5 915,-224.5"/>
<text text-anchor="middle" x="937" y="-231.5" font-family="Helvetica,sans-Serif" font-size="10.00">vector</text>
</g>
<!-- Node4&#45;&gt;Node34 -->
<g id="edge63" class="edge"><title>Node4&#45;&gt;Node34</title>
<path fill="none" stroke="midnightblue" d="M803.194,-280.444C830.887,-271.038 875.419,-255.914 905.423,-245.724"/>
<polygon fill="midnightblue" stroke="midnightblue" points="906.653,-249.003 914.996,-242.473 904.402,-242.375 906.653,-249.003"/>
</g>
<!-- Node6 -->
<g id="node7" class="node"><title>Node6</title>
<g id="a_node7"><a xlink:href="StateSpace_8h.html" target="_top" xlink:title="StateSpace.h">
<polygon fill="none" stroke="black" points="317,-112.5 317,-131.5 393,-131.5 393,-112.5 317,-112.5"/>
<text text-anchor="middle" x="355" y="-119.5" font-family="Helvetica,sans-Serif" font-size="10.00">StateSpace.h</text>
</a>
</g>
</g>
<!-- Node5&#45;&gt;Node6 -->
<g id="edge6" class="edge"><title>Node5&#45;&gt;Node6</title>
<path fill="none" stroke="midnightblue" d="M341.642,-168.083C343.786,-160.849 346.879,-150.409 349.549,-141.397"/>
<polygon fill="midnightblue" stroke="midnightblue" points="352.922,-142.333 352.407,-131.751 346.21,-140.345 352.922,-142.333"/>
</g>
<!-- Node11 -->
<g id="node12" class="node"><title>Node11</title>
<g id="a_node12"><a xlink:href="TaxonSet_8h.html" target="_top" xlink:title="TaxonSet.h">
<polygon fill="none" stroke="black" points="739.5,-56.5 739.5,-75.5 806.5,-75.5 806.5,-56.5 739.5,-56.5"/>
<text text-anchor="middle" x="773" y="-63.5" font-family="Helvetica,sans-Serif" font-size="10.00">TaxonSet.h</text>
</a>
</g>
</g>
<!-- Node5&#45;&gt;Node11 -->
<g id="edge11" class="edge"><title>Node5&#45;&gt;Node11</title>
<path fill="none" stroke="midnightblue" d="M395.153,-169.089C479.259,-157.174 629.394,-135.625 641,-132 681.431,-119.372 724.865,-95.8324 750.45,-80.8148"/>
<polygon fill="midnightblue" stroke="midnightblue" points="752.54,-83.6434 759.338,-75.5169 748.956,-77.6305 752.54,-83.6434"/>
</g>
<!-- Node13 -->
<g id="node14" class="node"><title>Node13</title>
<g id="a_node14"><a xlink:href="Random_8h.html" target="_top" xlink:title="Random.h">
<polygon fill="none" stroke="black" points="119,-56.5 119,-75.5 181,-75.5 181,-56.5 119,-56.5"/>
<text text-anchor="middle" x="150" y="-63.5" font-family="Helvetica,sans-Serif" font-size="10.00">Random.h</text>
</a>
</g>
</g>
<!-- Node5&#45;&gt;Node13 -->
<g id="edge15" class="edge"><title>Node5&#45;&gt;Node13</title>
<path fill="none" stroke="midnightblue" d="M284.132,-168.464C240.944,-160.685 185.397,-147.983 169,-132 156.776,-120.086 152.306,-100.778 150.727,-86.2961"/>
<polygon fill="midnightblue" stroke="midnightblue" points="154.192,-85.6743 149.987,-75.9495 147.209,-86.1737 154.192,-85.6743"/>
</g>
<!-- Node7 -->
<g id="node8" class="node"><title>Node7</title>
<g id="a_node8"><a xlink:href="BiologicalSequences_8h.html" target="_top" xlink:title="BiologicalSequences.h">
<polygon fill="none" stroke="black" points="313,-56.5 313,-75.5 429,-75.5 429,-56.5 313,-56.5"/>
<text text-anchor="middle" x="371" y="-63.5" font-family="Helvetica,sans-Serif" font-size="10.00">BiologicalSequences.h</text>
</a>
</g>
</g>
<!-- Node6&#45;&gt;Node7 -->
<g id="edge7" class="edge"><title>Node6&#45;&gt;Node7</title>
<path fill="none" stroke="midnightblue" d="M357.642,-112.083C359.786,-104.849 362.879,-94.4087 365.549,-85.3968"/>
<polygon fill="midnightblue" stroke="midnightblue" points="368.922,-86.3334 368.407,-75.7511 362.21,-84.3447 368.922,-86.3334"/>
</g>
<!-- Node8 -->
<g id="node9" class="node"><title>Node8</title>
<polygon fill="none" stroke="#bfbfbf" points="268.5,-0.5 268.5,-19.5 313.5,-19.5 313.5,-0.5 268.5,-0.5"/>
<text text-anchor="middle" x="291" y="-7.5" font-family="Helvetica,sans-Serif" font-size="10.00">cstdlib</text>
</g>
<!-- Node7&#45;&gt;Node8 -->
<g id="edge8" class="edge"><title>Node7&#45;&gt;Node8</title>
<path fill="none" stroke="midnightblue" d="M358.147,-56.324C345.784,-47.979 326.87,-35.2122 312.263,-25.3524"/>
<polygon fill="midnightblue" stroke="midnightblue" points="314.068,-22.3483 303.821,-19.6545 310.152,-28.1503 314.068,-22.3483"/>
</g>
<!-- Node9 -->
<g id="node10" class="node"><title>Node9</title>
<polygon fill="none" stroke="#bfbfbf" points="449,-0.5 449,-19.5 503,-19.5 503,-0.5 449,-0.5"/>
<text text-anchor="middle" x="476" y="-7.5" font-family="Helvetica,sans-Serif" font-size="10.00">iostream</text>
</g>
<!-- Node7&#45;&gt;Node9 -->
<g id="edge9" class="edge"><title>Node7&#45;&gt;Node9</title>
<path fill="none" stroke="midnightblue" d="M387.87,-56.324C404.709,-47.6641 430.807,-34.2424 450.238,-24.249"/>
<polygon fill="midnightblue" stroke="midnightblue" points="451.88,-27.3405 459.172,-19.6545 448.678,-21.1155 451.88,-27.3405"/>
</g>
<!-- Node10 -->
<g id="node11" class="node"><title>Node10</title>
<polygon fill="none" stroke="#bfbfbf" points="783.5,-0.5 783.5,-19.5 824.5,-19.5 824.5,-0.5 783.5,-0.5"/>
<text text-anchor="middle" x="804" y="-7.5" font-family="Helvetica,sans-Serif" font-size="10.00">string</text>
</g>
<!-- Node7&#45;&gt;Node10 -->
<g id="edge10" class="edge"><title>Node7&#45;&gt;Node10</title>
<path fill="none" stroke="midnightblue" d="M429.396,-57.7173C522.494,-46.107 701.352,-23.8014 773.103,-14.8533"/>
<polygon fill="midnightblue" stroke="midnightblue" points="773.79,-18.2948 783.28,-13.5841 772.923,-11.3486 773.79,-18.2948"/>
</g>
<!-- Node11&#45;&gt;Node9 -->
<g id="edge14" class="edge"><title>Node11&#45;&gt;Node9</title>
<path fill="none" stroke="midnightblue" d="M739.436,-58.6777C734.593,-57.7739 729.67,-56.8597 725,-56 649.934,-42.1796 562.062,-26.39 513.347,-17.6707"/>
<polygon fill="midnightblue" stroke="midnightblue" points="513.736,-14.1849 503.276,-15.8691 512.503,-21.0755 513.736,-14.1849"/>
</g>
<!-- Node11&#45;&gt;Node10 -->
<g id="edge13" class="edge"><title>Node11&#45;&gt;Node10</title>
<path fill="none" stroke="midnightblue" d="M778.119,-56.083C782.408,-48.6127 788.658,-37.7244 793.942,-28.5199"/>
<polygon fill="midnightblue" stroke="midnightblue" points="797.033,-30.1662 798.976,-19.7511 790.962,-26.6811 797.033,-30.1662"/>
</g>
<!-- Node11&#45;&gt;Node12 -->
<g id="edge12" class="edge"><title>Node11&#45;&gt;Node12</title>
<path fill="none" stroke="midnightblue" d="M803.898,-56.4435C841.53,-46.0226 904.516,-28.5801 940.526,-18.6083"/>
<polygon fill="midnightblue" stroke="midnightblue" points="941.647,-21.9295 950.35,-15.8876 939.779,-15.1834 941.647,-21.9295"/>
</g>
<!-- Node13&#45;&gt;Node8 -->
<g id="edge17" class="edge"><title>Node13&#45;&gt;Node8</title>
<path fill="none" stroke="midnightblue" d="M172.342,-56.4435C195.753,-47.4776 232.736,-33.314 259.19,-23.1827"/>
<polygon fill="midnightblue" stroke="midnightblue" points="260.676,-26.3615 268.763,-19.5164 258.172,-19.8245 260.676,-26.3615"/>
</g>
<!-- Node13&#45;&gt;Node9 -->
<g id="edge18" class="edge"><title>Node13&#45;&gt;Node9</title>
<path fill="none" stroke="midnightblue" d="M181.258,-59.8223C241.492,-49.8449 373.413,-27.9929 438.359,-17.2351"/>
<polygon fill="midnightblue" stroke="midnightblue" points="439.265,-20.6327 448.559,-15.5455 438.121,-13.7268 439.265,-20.6327"/>
</g>
<!-- Node14 -->
<g id="node15" class="node"><title>Node14</title>
<polygon fill="none" stroke="#bfbfbf" points="0,-0.5 0,-19.5 44,-19.5 44,-0.5 0,-0.5"/>
<text text-anchor="middle" x="22" y="-7.5" font-family="Helvetica,sans-Serif" font-size="10.00">cmath</text>
</g>
<!-- Node13&#45;&gt;Node14 -->
<g id="edge16" class="edge"><title>Node13&#45;&gt;Node14</title>
<path fill="none" stroke="midnightblue" d="M129.718,-56.4435C108.653,-47.5566 75.4832,-33.5632 51.5145,-23.4514"/>
<polygon fill="midnightblue" stroke="midnightblue" points="52.7612,-20.1787 42.1871,-19.5164 50.0403,-26.6283 52.7612,-20.1787"/>
</g>
<!-- Node15 -->
<g id="node16" class="node"><title>Node15</title>
<polygon fill="none" stroke="#bfbfbf" points="198,-0.5 198,-19.5 250,-19.5 250,-0.5 198,-0.5"/>
<text text-anchor="middle" x="224" y="-7.5" font-family="Helvetica,sans-Serif" font-size="10.00">sstream</text>
</g>
<!-- Node13&#45;&gt;Node15 -->
<g id="edge19" class="edge"><title>Node13&#45;&gt;Node15</title>
<path fill="none" stroke="midnightblue" d="M161.889,-56.324C173.15,-48.1066 190.287,-35.6017 203.709,-25.8069"/>
<polygon fill="midnightblue" stroke="midnightblue" points="205.88,-28.5559 211.894,-19.8339 201.753,-22.9014 205.88,-28.5559"/>
</g>
<!-- Node16 -->
<g id="node17" class="node"><title>Node16</title>
<polygon fill="none" stroke="#bfbfbf" points="62,-0.5 62,-19.5 112,-19.5 112,-0.5 62,-0.5"/>
<text text-anchor="middle" x="87" y="-7.5" font-family="Helvetica,sans-Serif" font-size="10.00">iomanip</text>
</g>
<!-- Node13&#45;&gt;Node16 -->
<g id="edge20" class="edge"><title>Node13&#45;&gt;Node16</title>
<path fill="none" stroke="midnightblue" d="M139.878,-56.324C130.474,-48.2631 116.256,-36.0765 104.931,-26.3695"/>
<polygon fill="midnightblue" stroke="midnightblue" points="107.177,-23.6844 97.3062,-19.8339 102.621,-28.9993 107.177,-23.6844"/>
</g>
<!-- Node17 -->
<g id="node18" class="node"><title>Node17</title>
<polygon fill="none" stroke="#bfbfbf" points="130,-0.5 130,-19.5 180,-19.5 180,-0.5 130,-0.5"/>
<text text-anchor="middle" x="155" y="-7.5" font-family="Helvetica,sans-Serif" font-size="10.00">fstream</text>
</g>
<!-- Node13&#45;&gt;Node17 -->
<g id="edge21" class="edge"><title>Node13&#45;&gt;Node17</title>
<path fill="none" stroke="midnightblue" d="M150.826,-56.083C151.481,-49.0059 152.42,-38.8611 153.242,-29.9865"/>
<polygon fill="midnightblue" stroke="midnightblue" points="156.753,-30.0312 154.19,-19.7511 149.783,-29.3858 156.753,-30.0312"/>
</g>
<!-- Node18&#45;&gt;Node5 -->
<g id="edge23" class="edge"><title>Node18&#45;&gt;Node5</title>
<path fill="none" stroke="midnightblue" d="M339,-224.083C339,-217.006 339,-206.861 339,-197.986"/>
<polygon fill="midnightblue" stroke="midnightblue" points="342.5,-197.751 339,-187.751 335.5,-197.751 342.5,-197.751"/>
</g>
<!-- Node18&#45;&gt;Node14 -->
<g id="edge27" class="edge"><title>Node18&#45;&gt;Node14</title>
<path fill="none" stroke="midnightblue" d="M286.073,-224.447C238.8,-216.063 173.759,-202.466 152,-188 89.8698,-146.694 46.7651,-65.1162 29.9022,-28.968"/>
<polygon fill="midnightblue" stroke="midnightblue" points="33.0035,-27.3323 25.6826,-19.6736 26.6296,-30.2261 33.0035,-27.3323"/>
</g>
<!-- Node19 -->
<g id="node20" class="node"><title>Node19</title>
<g id="a_node20"><a xlink:href="CodonStateSpace_8h.html" target="_top" xlink:title="CodonStateSpace.h">
<polygon fill="none" stroke="black" points="161,-168.5 161,-187.5 265,-187.5 265,-168.5 161,-168.5"/>
<text text-anchor="middle" x="213" y="-175.5" font-family="Helvetica,sans-Serif" font-size="10.00">CodonStateSpace.h</text>
</a>
</g>
</g>
<!-- Node18&#45;&gt;Node19 -->
<g id="edge24" class="edge"><title>Node18&#45;&gt;Node19</title>
<path fill="none" stroke="midnightblue" d="M319.035,-224.444C298.391,-215.596 265.937,-201.687 242.368,-191.586"/>
<polygon fill="midnightblue" stroke="midnightblue" points="243.442,-188.239 232.872,-187.516 240.684,-194.673 243.442,-188.239"/>
</g>
<!-- Node19&#45;&gt;Node6 -->
<g id="edge25" class="edge"><title>Node19&#45;&gt;Node6</title>
<path fill="none" stroke="midnightblue" d="M235.5,-168.444C259.077,-159.478 296.322,-145.314 322.964,-135.183"/>
<polygon fill="midnightblue" stroke="midnightblue" points="324.502,-138.342 332.605,-131.516 322.014,-131.8 324.502,-138.342"/>
</g>
<!-- Node19&#45;&gt;Node12 -->
<g id="edge26" class="edge"><title>Node19&#45;&gt;Node12</title>
<path fill="none" stroke="midnightblue" d="M265.209,-169.02C268.18,-168.652 271.126,-168.309 274,-168 391.815,-155.343 694.877,-173.136 806,-132 867.758,-109.138 925.995,-54.8077 952.709,-27.4046"/>
<polygon fill="midnightblue" stroke="midnightblue" points="955.573,-29.4746 959.957,-19.8293 950.515,-24.6355 955.573,-29.4746"/>
</g>
<!-- Node20&#45;&gt;Node5 -->
<g id="edge29" class="edge"><title>Node20&#45;&gt;Node5</title>
<path fill="none" stroke="midnightblue" d="M473.648,-224.444C446.731,-215.359 404.004,-200.939 373.913,-190.783"/>
<polygon fill="midnightblue" stroke="midnightblue" points="374.828,-187.398 364.234,-187.516 372.59,-194.031 374.828,-187.398"/>
</g>
<!-- Node22 -->
<g id="node23" class="node"><title>Node22</title>
<g id="a_node23"><a xlink:href="RateProcess_8h.html" target="_top" xlink:title="RateProcess.h">
<polygon fill="none" stroke="black" points="594,-168.5 594,-187.5 676,-187.5 676,-168.5 594,-168.5"/>
<text text-anchor="middle" x="635" y="-175.5" font-family="Helvetica,sans-Serif" font-size="10.00">RateProcess.h</text>
</a>
</g>
</g>
<!-- Node21&#45;&gt;Node22 -->
<g id="edge31" class="edge"><title>Node21&#45;&gt;Node22</title>
<path fill="none" stroke="midnightblue" d="M682.003,-224.324C673.806,-216.42 661.494,-204.548 651.528,-194.938"/>
<polygon fill="midnightblue" stroke="midnightblue" points="653.789,-192.256 644.161,-187.834 648.93,-197.295 653.789,-192.256"/>
</g>
<!-- Node23 -->
<g id="node24" class="node"><title>Node23</title>
<g id="a_node24"><a xlink:href="Chrono_8h.html" target="_top" xlink:title="Chrono.h">
<polygon fill="none" stroke="black" points="576,-112.5 576,-131.5 632,-131.5 632,-112.5 576,-112.5"/>
<text text-anchor="middle" x="604" y="-119.5" font-family="Helvetica,sans-Serif" font-size="10.00">Chrono.h</text>
</a>
</g>
</g>
<!-- Node21&#45;&gt;Node23 -->
<g id="edge55" class="edge"><title>Node21&#45;&gt;Node23</title>
<path fill="none" stroke="midnightblue" d="M692.61,-224.177C694.546,-210.841 696.267,-185.276 685,-168 674.958,-152.601 657.739,-141.983 641.753,-134.946"/>
<polygon fill="midnightblue" stroke="midnightblue" points="642.617,-131.52 632.034,-131.016 639.993,-138.009 642.617,-131.52"/>
</g>
<!-- Node26 -->
<g id="node27" class="node"><title>Node26</title>
<g id="a_node27"><a xlink:href="ProfileProcess_8h.html" target="_top" xlink:title="ProfileProcess.h">
<polygon fill="none" stroke="black" points="413.5,-168.5 413.5,-187.5 502.5,-187.5 502.5,-168.5 413.5,-168.5"/>
<text text-anchor="middle" x="458" y="-175.5" font-family="Helvetica,sans-Serif" font-size="10.00">ProfileProcess.h</text>
</a>
</g>
</g>
<!-- Node21&#45;&gt;Node26 -->
<g id="edge38" class="edge"><title>Node21&#45;&gt;Node26</title>
<path fill="none" stroke="midnightblue" d="M654.08,-224.444C613.605,-215.063 548.579,-199.993 504.616,-189.804"/>
<polygon fill="midnightblue" stroke="midnightblue" points="505.279,-186.365 494.747,-187.516 503.698,-193.184 505.279,-186.365"/>
</g>
<!-- Node27 -->
<g id="node28" class="node"><title>Node27</title>
<g id="a_node28"><a xlink:href="BranchSitePath_8h.html" target="_top" xlink:title="BranchSitePath.h">
<polygon fill="none" stroke="black" points="842.5,-168.5 842.5,-187.5 935.5,-187.5 935.5,-168.5 842.5,-168.5"/>
<text text-anchor="middle" x="889" y="-175.5" font-family="Helvetica,sans-Serif" font-size="10.00">BranchSitePath.h</text>
</a>
</g>
</g>
<!-- Node21&#45;&gt;Node27 -->
<g id="edge43" class="edge"><title>Node21&#45;&gt;Node27</title>
<path fill="none" stroke="midnightblue" d="M722.374,-224.444C756.263,-215.201 810.403,-200.436 847.724,-190.257"/>
<polygon fill="midnightblue" stroke="midnightblue" points="849.046,-193.524 857.773,-187.516 847.205,-186.771 849.046,-193.524"/>
</g>
<!-- Node30 -->
<g id="node31" class="node"><title>Node30</title>
<polygon fill="none" stroke="#bfbfbf" points="520,-168.5 520,-187.5 576,-187.5 576,-168.5 520,-168.5"/>
<text text-anchor="middle" x="548" y="-175.5" font-family="Helvetica,sans-Serif" font-size="10.00">algorithm</text>
</g>
<!-- Node21&#45;&gt;Node30 -->
<g id="edge56" class="edge"><title>Node21&#45;&gt;Node30</title>
<path fill="none" stroke="midnightblue" d="M668.341,-224.444C644.598,-215.478 607.091,-201.314 580.262,-191.183"/>
<polygon fill="midnightblue" stroke="midnightblue" points="581.144,-187.775 570.553,-187.516 578.671,-194.324 581.144,-187.775"/>
</g>
<!-- Node22&#45;&gt;Node9 -->
<g id="edge32" class="edge"><title>Node22&#45;&gt;Node9</title>
<path fill="none" stroke="midnightblue" d="M618.776,-168.379C604.256,-160.193 582.873,-146.945 567,-132 532.704,-99.7095 501.83,-53.3312 486.394,-28.4135"/>
<polygon fill="midnightblue" stroke="midnightblue" points="489.282,-26.4276 481.091,-19.7082 483.304,-30.0693 489.282,-26.4276"/>
</g>
<!-- Node22&#45;&gt;Node23 -->
<g id="edge33" class="edge"><title>Node22&#45;&gt;Node23</title>
<path fill="none" stroke="midnightblue" d="M629.881,-168.083C625.592,-160.613 619.342,-149.724 614.058,-140.52"/>
<polygon fill="midnightblue" stroke="midnightblue" points="617.038,-138.681 609.024,-131.751 610.967,-142.166 617.038,-138.681"/>
</g>
<!-- Node23&#45;&gt;Node8 -->
<g id="edge37" class="edge"><title>Node23&#45;&gt;Node8</title>
<path fill="none" stroke="midnightblue" d="M575.743,-119.692C493.013,-115.576 255.697,-101.616 233,-76 217.221,-58.191 242.74,-37.7225 264.758,-24.5892"/>
<polygon fill="midnightblue" stroke="midnightblue" points="266.572,-27.584 273.542,-19.6046 263.117,-21.4959 266.572,-27.584"/>
</g>
<!-- Node23&#45;&gt;Node9 -->
<g id="edge36" class="edge"><title>Node23&#45;&gt;Node9</title>
<path fill="none" stroke="midnightblue" d="M593.956,-112.368C572.272,-93.7334 520.838,-49.5324 493.61,-26.1338"/>
<polygon fill="midnightblue" stroke="midnightblue" points="495.863,-23.4546 485.997,-19.5914 491.3,-28.7636 495.863,-23.4546"/>
</g>
<!-- Node24 -->
<g id="node25" class="node"><title>Node24</title>
<polygon fill="none" stroke="#bfbfbf" points="561.5,-56.5 561.5,-75.5 602.5,-75.5 602.5,-56.5 561.5,-56.5"/>
<text text-anchor="middle" x="582" y="-63.5" font-family="Helvetica,sans-Serif" font-size="10.00">ctime</text>
</g>
<!-- Node23&#45;&gt;Node24 -->
<g id="edge34" class="edge"><title>Node23&#45;&gt;Node24</title>
<path fill="none" stroke="midnightblue" d="M600.367,-112.083C597.388,-104.77 593.074,-94.1814 589.375,-85.1034"/>
<polygon fill="midnightblue" stroke="midnightblue" points="592.58,-83.6914 585.565,-75.7511 586.097,-86.3326 592.58,-83.6914"/>
</g>
<!-- Node25 -->
<g id="node26" class="node"><title>Node25</title>
<polygon fill="none" stroke="#bfbfbf" points="621,-56.5 621,-75.5 683,-75.5 683,-56.5 621,-56.5"/>
<text text-anchor="middle" x="652" y="-63.5" font-family="Helvetica,sans-Serif" font-size="10.00">sys/time.h</text>
</g>
<!-- Node23&#45;&gt;Node25 -->
<g id="edge35" class="edge"><title>Node23&#45;&gt;Node25</title>
<path fill="none" stroke="midnightblue" d="M611.926,-112.083C618.846,-104.298 629.065,-92.8015 637.452,-83.3665"/>
<polygon fill="midnightblue" stroke="midnightblue" points="640.194,-85.5505 644.221,-75.7511 634.962,-80.8999 640.194,-85.5505"/>
</g>
<!-- Node26&#45;&gt;Node6 -->
<g id="edge40" class="edge"><title>Node26&#45;&gt;Node6</title>
<path fill="none" stroke="midnightblue" d="M441.451,-168.324C425.008,-159.703 399.565,-146.364 380.532,-136.386"/>
<polygon fill="midnightblue" stroke="midnightblue" points="381.989,-133.198 371.508,-131.655 378.739,-139.398 381.989,-133.198"/>
</g>
<!-- Node26&#45;&gt;Node9 -->
<g id="edge41" class="edge"><title>Node26&#45;&gt;Node9</title>
<path fill="none" stroke="midnightblue" d="M458.968,-168.075C461.801,-141.945 470.122,-65.2106 473.986,-29.577"/>
<polygon fill="midnightblue" stroke="midnightblue" points="477.472,-29.8872 475.071,-19.5681 470.513,-29.1325 477.472,-29.8872"/>
</g>
<!-- Node26&#45;&gt;Node12 -->
<g id="edge42" class="edge"><title>Node26&#45;&gt;Node12</title>
<path fill="none" stroke="midnightblue" d="M502.781,-169.132C505.559,-168.726 508.315,-168.344 511,-168 602.598,-156.26 851.936,-188.477 925,-132 956.948,-107.305 965.214,-56.9837 967.315,-29.6603"/>
<polygon fill="midnightblue" stroke="midnightblue" points="970.82,-29.6817 967.89,-19.5 963.831,-29.2864 970.82,-29.6817"/>
</g>
<!-- Node26&#45;&gt;Node23 -->
<g id="edge39" class="edge"><title>Node26&#45;&gt;Node23</title>
<path fill="none" stroke="midnightblue" d="M481.134,-168.444C505.482,-159.438 544.007,-145.189 571.423,-135.049"/>
<polygon fill="midnightblue" stroke="midnightblue" points="572.809,-138.268 580.974,-131.516 570.381,-131.703 572.809,-138.268"/>
</g>
<!-- Node27&#45;&gt;Node10 -->
<g id="edge44" class="edge"><title>Node27&#45;&gt;Node10</title>
<path fill="none" stroke="midnightblue" d="M885.192,-168.354C876.29,-148.31 853.189,-97.2327 831,-56 826.035,-46.7737 820.082,-36.7557 815.031,-28.5193"/>
<polygon fill="midnightblue" stroke="midnightblue" points="817.879,-26.4704 809.629,-19.8228 811.932,-30.1642 817.879,-26.4704"/>
</g>
<!-- Node27&#45;&gt;Node12 -->
<g id="edge45" class="edge"><title>Node27&#45;&gt;Node12</title>
<path fill="none" stroke="midnightblue" d="M915.32,-168.371C932.078,-161.384 952.535,-149.743 963,-132 981.802,-100.12 977.11,-54.8677 972.344,-29.7093"/>
<polygon fill="midnightblue" stroke="midnightblue" points="975.719,-28.7486 970.234,-19.6842 968.869,-30.1908 975.719,-28.7486"/>
</g>
<!-- Node28 -->
<g id="node29" class="node"><title>Node28</title>
<g id="a_node29"><a xlink:href="Tree_8h.html" target="_top" xlink:title="Tree.h">
<polygon fill="none" stroke="black" points="753,-112.5 753,-131.5 797,-131.5 797,-112.5 753,-112.5"/>
<text text-anchor="middle" x="775" y="-119.5" font-family="Helvetica,sans-Serif" font-size="10.00">Tree.h</text>
</a>
</g>
</g>
<!-- Node27&#45;&gt;Node28 -->
<g id="edge46" class="edge"><title>Node27&#45;&gt;Node28</title>
<path fill="none" stroke="midnightblue" d="M870.936,-168.444C852.425,-159.675 823.419,-145.935 802.145,-135.858"/>
<polygon fill="midnightblue" stroke="midnightblue" points="803.515,-132.634 792.979,-131.516 800.518,-138.96 803.515,-132.634"/>
</g>
<!-- Node29 -->
<g id="node30" class="node"><title>Node29</title>
<g id="a_node30"><a xlink:href="SubMatrix_8h.html" target="_top" xlink:title="SubMatrix.h">
<polygon fill="none" stroke="black" points="178.5,-112.5 178.5,-131.5 247.5,-131.5 247.5,-112.5 178.5,-112.5"/>
<text text-anchor="middle" x="213" y="-119.5" font-family="Helvetica,sans-Serif" font-size="10.00">SubMatrix.h</text>
</a>
</g>
</g>
<!-- Node27&#45;&gt;Node29 -->
<g id="edge51" class="edge"><title>Node27&#45;&gt;Node29</title>
<path fill="none" stroke="midnightblue" d="M842.293,-169.168C839.152,-168.742 836.033,-168.347 833,-168 600.634,-141.417 541.106,-151.031 308,-132 291.611,-130.662 273.649,-129.009 257.798,-127.485"/>
<polygon fill="midnightblue" stroke="midnightblue" points="258.016,-123.99 247.724,-126.508 257.339,-130.957 258.016,-123.99"/>
</g>
<!-- Node28&#45;&gt;Node8 -->
<g id="edge47" class="edge"><title>Node28&#45;&gt;Node8</title>
<path fill="none" stroke="midnightblue" d="M752.73,-119.234C660.446,-111.869 312.46,-83.6372 304,-76 291.339,-64.5701 288.981,-44.5864 289.24,-29.7854"/>
<polygon fill="midnightblue" stroke="midnightblue" points="292.739,-29.8895 289.82,-19.7047 285.751,-29.4868 292.739,-29.8895"/>
</g>
<!-- Node28&#45;&gt;Node9 -->
<g id="edge49" class="edge"><title>Node28&#45;&gt;Node9</title>
<path fill="none" stroke="midnightblue" d="M766.702,-112.295C752.699,-98.1565 722.874,-70.3424 692,-56 633.145,-28.6591 557.589,-17.7976 513.213,-13.5781"/>
<polygon fill="midnightblue" stroke="midnightblue" points="513.437,-10.0843 503.166,-12.6863 512.818,-17.0568 513.437,-10.0843"/>
</g>
<!-- Node28&#45;&gt;Node10 -->
<g id="edge48" class="edge"><title>Node28&#45;&gt;Node10</title>
<path fill="none" stroke="midnightblue" d="M786.541,-112.49C796.479,-104.379 810.122,-91.1778 816,-76 821.886,-60.8011 817.547,-42.4593 812.517,-29.1405"/>
<polygon fill="midnightblue" stroke="midnightblue" points="815.639,-27.5363 808.517,-19.6919 809.192,-30.2652 815.639,-27.5363"/>
</g>
<!-- Node28&#45;&gt;Node11 -->
<g id="edge50" class="edge"><title>Node28&#45;&gt;Node11</title>
<path fill="none" stroke="midnightblue" d="M774.67,-112.083C774.408,-105.006 774.032,-94.8611 773.703,-85.9865"/>
<polygon fill="midnightblue" stroke="midnightblue" points="777.192,-85.6147 773.324,-75.7511 770.197,-85.8738 777.192,-85.6147"/>
</g>
<!-- Node29&#45;&gt;Node9 -->
<g id="edge52" class="edge"><title>Node29&#45;&gt;Node9</title>
<path fill="none" stroke="midnightblue" d="M222.611,-112.29C238.435,-98.3963 271.474,-71.236 304,-56 348.012,-35.3838 402.952,-23.1045 438.727,-16.7058"/>
<polygon fill="midnightblue" stroke="midnightblue" points="439.473,-20.129 448.732,-14.9804 438.283,-13.2308 439.473,-20.129"/>
</g>
<!-- Node29&#45;&gt;Node13 -->
<g id="edge54" class="edge"><title>Node29&#45;&gt;Node13</title>
<path fill="none" stroke="midnightblue" d="M202.878,-112.324C193.474,-104.263 179.256,-92.0765 167.931,-82.3695"/>
<polygon fill="midnightblue" stroke="midnightblue" points="170.177,-79.6844 160.306,-75.8339 165.621,-84.9993 170.177,-79.6844"/>
</g>
<!-- Node29&#45;&gt;Node14 -->
<g id="edge53" class="edge"><title>Node29&#45;&gt;Node14</title>
<path fill="none" stroke="midnightblue" d="M189.367,-112.423C168.007,-104.267 136.019,-91.0374 110,-76 84.3733,-61.1892 57.3373,-40.3238 40.1039,-26.2634"/>
<polygon fill="midnightblue" stroke="midnightblue" points="41.9817,-23.2746 32.0448,-19.5991 37.5208,-28.6691 41.9817,-23.2746"/>
</g>
<!-- Node31&#45;&gt;Node23 -->
<g id="edge59" class="edge"><title>Node31&#45;&gt;Node23</title>
<path fill="none" stroke="midnightblue" d="M750.429,-168.444C720.903,-159.28 673.882,-144.688 641.117,-134.519"/>
<polygon fill="midnightblue" stroke="midnightblue" points="642.03,-131.138 631.442,-131.516 639.955,-137.823 642.03,-131.138"/>
</g>
<!-- Node31&#45;&gt;Node28 -->
<g id="edge58" class="edge"><title>Node31&#45;&gt;Node28</title>
<path fill="none" stroke="midnightblue" d="M777.505,-168.083C777.111,-161.006 776.548,-150.861 776.055,-141.986"/>
<polygon fill="midnightblue" stroke="midnightblue" points="779.536,-141.542 775.486,-131.751 772.546,-141.93 779.536,-141.542"/>
</g>
<!-- Node33 -->
<g id="node34" class="node"><title>Node33</title>
<polygon fill="none" stroke="#bfbfbf" points="992.5,-168.5 992.5,-187.5 1033.5,-187.5 1033.5,-168.5 992.5,-168.5"/>
<text text-anchor="middle" x="1013" y="-175.5" font-family="Helvetica,sans-Serif" font-size="10.00">mpi.h</text>
</g>
<!-- Node32&#45;&gt;Node33 -->
<g id="edge61" class="edge"><title>Node32&#45;&gt;Node33</title>
<path fill="none" stroke="midnightblue" d="M1007.16,-224.083C1008.08,-216.927 1009.42,-206.635 1010.58,-197.691"/>
<polygon fill="midnightblue" stroke="midnightblue" points="1014.05,-198.118 1011.87,-187.751 1007.11,-197.218 1014.05,-198.118"/>
</g>
<!-- Node36&#45;&gt;Node19 -->
<g id="edge67" class="edge"><title>Node36&#45;&gt;Node19</title>
<path fill="none" stroke="midnightblue" d="M203.816,-224.083C205.274,-216.927 207.371,-206.635 209.193,-197.691"/>
<polygon fill="midnightblue" stroke="midnightblue" points="212.651,-198.248 211.217,-187.751 205.792,-196.851 212.651,-198.248"/>
</g>
<!-- Node36&#45;&gt;Node29 -->
<g id="edge68" class="edge"><title>Node36&#45;&gt;Node29</title>
<path fill="none" stroke="midnightblue" d="M187.094,-224.477C168.574,-212.702 140.705,-190.368 152,-168 158.807,-154.52 171.768,-144.083 183.998,-136.67"/>
<polygon fill="midnightblue" stroke="midnightblue" points="186.07,-139.521 193.094,-131.59 182.657,-133.41 186.07,-139.521"/>
</g>
</g>
</svg>
