<?xml version="1.0" encoding="UTF-8" standalone="no"?>
<!DOCTYPE svg PUBLIC "-//W3C//DTD SVG 1.1//EN"
 "http://www.w3.org/Graphics/SVG/1.1/DTD/svg11.dtd">
<!-- Generated by graphviz version 2.38.0 (20140413.2041)
 -->
<!-- Title: GeneralPathSuffStatGTRSBDPProfileProcess.cpp Pages: 1 -->
<svg width="655pt" height="576pt"
 viewBox="0.00 0.00 654.53 576.00" xmlns="http://www.w3.org/2000/svg" xmlns:xlink="http://www.w3.org/1999/xlink">
<g id="graph0" class="graph" transform="scale(1 1) rotate(0) translate(4 572)">
<title>GeneralPathSuffStatGTRSBDPProfileProcess.cpp</title>
<!-- Node0 -->
<g id="node1" class="node"><title>Node0</title>
<polygon fill="#bfbfbf" stroke="black" points="272.034,-537.5 272.034,-567.5 455.034,-567.5 455.034,-537.5 272.034,-537.5"/>
<text text-anchor="start" x="280.034" y="-555.5" font-family="Helvetica,sans-Serif" font-size="10.00">GeneralPathSuffStatGTRSBDPProfile</text>
<text text-anchor="middle" x="363.534" y="-544.5" font-family="Helvetica,sans-Serif" font-size="10.00">Process.cpp</text>
</g>
<!-- Node1 -->
<g id="node2" class="node"><title>Node1</title>
<g id="a_node2"><a xlink:href="GeneralPathSuffStatGTRSBDPProfileProcess_8h.html" target="_top" xlink:title="GeneralPathSuffStatGTRSBDPProfile\lProcess.h">
<polygon fill="none" stroke="black" points="272.034,-470.5 272.034,-500.5 455.034,-500.5 455.034,-470.5 272.034,-470.5"/>
<text text-anchor="start" x="280.034" y="-488.5" font-family="Helvetica,sans-Serif" font-size="10.00">GeneralPathSuffStatGTRSBDPProfile</text>
<text text-anchor="middle" x="363.534" y="-477.5" font-family="Helvetica,sans-Serif" font-size="10.00">Process.h</text>
</a>
</g>
</g>
<!-- Node0&#45;&gt;Node1 -->
<g id="edge1" class="edge"><title>Node0&#45;&gt;Node1</title>
<path fill="none" stroke="midnightblue" d="M363.534,-537.396C363.534,-529.645 363.534,-519.812 363.534,-510.86"/>
<polygon fill="midnightblue" stroke="midnightblue" points="367.034,-510.576 363.534,-500.577 360.034,-510.577 367.034,-510.576"/>
</g>
<!-- Node2 -->
<g id="node3" class="node"><title>Node2</title>
<g id="a_node3"><a xlink:href="MatrixSBDPProfileProcess_8h.html" target="_top" xlink:title="MatrixSBDPProfileProcess.h">
<polygon fill="none" stroke="black" points="449.034,-409 449.034,-428 592.034,-428 592.034,-409 449.034,-409"/>
<text text-anchor="middle" x="520.534" y="-416" font-family="Helvetica,sans-Serif" font-size="10.00">MatrixSBDPProfileProcess.h</text>
</a>
</g>
</g>
<!-- Node1&#45;&gt;Node2 -->
<g id="edge2" class="edge"><title>Node1&#45;&gt;Node2</title>
<path fill="none" stroke="midnightblue" d="M397.601,-470.396C425.27,-458.941 463.921,-442.938 490.457,-431.952"/>
<polygon fill="midnightblue" stroke="midnightblue" points="492.086,-435.066 499.986,-428.007 489.408,-428.599 492.086,-435.066"/>
</g>
<!-- Node24 -->
<g id="node25" class="node"><title>Node24</title>
<g id="a_node25"><a xlink:href="GTRMixtureProfileProcess_8h.html" target="_top" xlink:title="GTRMixtureProfileProcess.h">
<polygon fill="none" stroke="black" points="136.534,-409 136.534,-428 278.534,-428 278.534,-409 136.534,-409"/>
<text text-anchor="middle" x="207.534" y="-416" font-family="Helvetica,sans-Serif" font-size="10.00">GTRMixtureProfileProcess.h</text>
</a>
</g>
</g>
<!-- Node1&#45;&gt;Node24 -->
<g id="edge36" class="edge"><title>Node1&#45;&gt;Node24</title>
<path fill="none" stroke="midnightblue" d="M329.684,-470.396C302.191,-458.941 263.786,-442.938 237.419,-431.952"/>
<polygon fill="midnightblue" stroke="midnightblue" points="238.528,-428.622 227.951,-428.007 235.835,-435.084 238.528,-428.622"/>
</g>
<!-- Node27 -->
<g id="node28" class="node"><title>Node27</title>
<g id="a_node28"><a xlink:href="GeneralPathSuffStatMatrixMixtureProfileProcess_8h.html" target="_top" xlink:title="GeneralPathSuffStatMatrix\lMixtureProfileProcess.h">
<polygon fill="none" stroke="black" points="296.534,-403.5 296.534,-433.5 430.534,-433.5 430.534,-403.5 296.534,-403.5"/>
<text text-anchor="start" x="304.534" y="-421.5" font-family="Helvetica,sans-Serif" font-size="10.00">GeneralPathSuffStatMatrix</text>
<text text-anchor="middle" x="363.534" y="-410.5" font-family="Helvetica,sans-Serif" font-size="10.00">MixtureProfileProcess.h</text>
</a>
</g>
</g>
<!-- Node1&#45;&gt;Node27 -->
<g id="edge43" class="edge"><title>Node1&#45;&gt;Node27</title>
<path fill="none" stroke="midnightblue" d="M363.534,-470.396C363.534,-462.645 363.534,-452.812 363.534,-443.86"/>
<polygon fill="midnightblue" stroke="midnightblue" points="367.034,-443.576 363.534,-433.577 360.034,-443.577 367.034,-443.576"/>
</g>
<!-- Node3 -->
<g id="node4" class="node"><title>Node3</title>
<g id="a_node4"><a xlink:href="MatrixMixtureProfileProcess_8h.html" target="_top" xlink:title="MatrixMixtureProfileProcess.h">
<polygon fill="none" stroke="black" points="364.534,-342 364.534,-361 512.534,-361 512.534,-342 364.534,-342"/>
<text text-anchor="middle" x="438.534" y="-349" font-family="Helvetica,sans-Serif" font-size="10.00">MatrixMixtureProfileProcess.h</text>
</a>
</g>
</g>
<!-- Node2&#45;&gt;Node3 -->
<g id="edge3" class="edge"><title>Node2&#45;&gt;Node3</title>
<path fill="none" stroke="midnightblue" d="M509.475,-408.734C496.196,-398.208 473.705,-380.379 457.605,-367.617"/>
<polygon fill="midnightblue" stroke="midnightblue" points="459.429,-364.596 449.418,-361.127 455.08,-370.082 459.429,-364.596"/>
</g>
<!-- Node22 -->
<g id="node23" class="node"><title>Node22</title>
<g id="a_node23"><a xlink:href="SBDPProfileProcess_8h.html" target="_top" xlink:title="SBDPProfileProcess.h">
<polygon fill="none" stroke="black" points="530.534,-342 530.534,-361 646.534,-361 646.534,-342 530.534,-342"/>
<text text-anchor="middle" x="588.534" y="-349" font-family="Helvetica,sans-Serif" font-size="10.00">SBDPProfileProcess.h</text>
</a>
</g>
</g>
<!-- Node2&#45;&gt;Node22 -->
<g id="edge31" class="edge"><title>Node2&#45;&gt;Node22</title>
<path fill="none" stroke="midnightblue" d="M529.705,-408.734C540.512,-398.403 558.68,-381.037 571.972,-368.332"/>
<polygon fill="midnightblue" stroke="midnightblue" points="574.698,-370.567 579.509,-361.127 569.861,-365.507 574.698,-370.567"/>
</g>
<!-- Node4 -->
<g id="node5" class="node"><title>Node4</title>
<g id="a_node5"><a xlink:href="MatrixProfileProcess_8h.html" target="_top" xlink:title="MatrixProfileProcess.h">
<polygon fill="none" stroke="black" points="221.534,-280.5 221.534,-299.5 337.534,-299.5 337.534,-280.5 221.534,-280.5"/>
<text text-anchor="middle" x="279.534" y="-287.5" font-family="Helvetica,sans-Serif" font-size="10.00">MatrixProfileProcess.h</text>
</a>
</g>
</g>
<!-- Node3&#45;&gt;Node4 -->
<g id="edge4" class="edge"><title>Node3&#45;&gt;Node4</title>
<path fill="none" stroke="midnightblue" d="M415.753,-341.975C388.479,-331.769 342.621,-314.608 311.733,-303.049"/>
<polygon fill="midnightblue" stroke="midnightblue" points="312.865,-299.736 302.273,-299.509 310.412,-306.292 312.865,-299.736"/>
</g>
<!-- Node21 -->
<g id="node22" class="node"><title>Node21</title>
<g id="a_node22"><a xlink:href="MixtureProfileProcess_8h.html" target="_top" xlink:title="MixtureProfileProcess.h">
<polygon fill="none" stroke="black" points="387.034,-224.5 387.034,-243.5 508.034,-243.5 508.034,-224.5 387.034,-224.5"/>
<text text-anchor="middle" x="447.534" y="-231.5" font-family="Helvetica,sans-Serif" font-size="10.00">MixtureProfileProcess.h</text>
</a>
</g>
</g>
<!-- Node3&#45;&gt;Node21 -->
<g id="edge28" class="edge"><title>Node3&#45;&gt;Node21</title>
<path fill="none" stroke="midnightblue" d="M439.211,-341.819C440.657,-323.257 444.079,-279.339 446.056,-253.973"/>
<polygon fill="midnightblue" stroke="midnightblue" points="449.562,-254.024 446.85,-243.782 442.583,-253.48 449.562,-254.024"/>
</g>
<!-- Node5 -->
<g id="node6" class="node"><title>Node5</title>
<g id="a_node6"><a xlink:href="SubMatrix_8h.html" target="_top" xlink:title="SubMatrix.h">
<polygon fill="none" stroke="black" points="179.034,-224.5 179.034,-243.5 248.034,-243.5 248.034,-224.5 179.034,-224.5"/>
<text text-anchor="middle" x="213.534" y="-231.5" font-family="Helvetica,sans-Serif" font-size="10.00">SubMatrix.h</text>
</a>
</g>
</g>
<!-- Node4&#45;&gt;Node5 -->
<g id="edge5" class="edge"><title>Node4&#45;&gt;Node5</title>
<path fill="none" stroke="midnightblue" d="M268.93,-280.324C259.078,-272.263 244.183,-260.077 232.319,-250.369"/>
<polygon fill="midnightblue" stroke="midnightblue" points="234.287,-247.457 224.331,-243.834 229.854,-252.875 234.287,-247.457"/>
</g>
<!-- Node13 -->
<g id="node14" class="node"><title>Node13</title>
<g id="a_node14"><a xlink:href="ProfileProcess_8h.html" target="_top" xlink:title="ProfileProcess.h">
<polygon fill="none" stroke="black" points="359.034,-168.5 359.034,-187.5 448.034,-187.5 448.034,-168.5 359.034,-168.5"/>
<text text-anchor="middle" x="403.534" y="-175.5" font-family="Helvetica,sans-Serif" font-size="10.00">ProfileProcess.h</text>
</a>
</g>
</g>
<!-- Node4&#45;&gt;Node13 -->
<g id="edge15" class="edge"><title>Node4&#45;&gt;Node13</title>
<path fill="none" stroke="midnightblue" d="M289.264,-280.368C310.18,-261.814 359.669,-217.913 386.132,-194.438"/>
<polygon fill="midnightblue" stroke="midnightblue" points="388.691,-196.846 393.849,-187.591 384.046,-191.609 388.691,-196.846"/>
</g>
<!-- Node6 -->
<g id="node7" class="node"><title>Node6</title>
<polygon fill="none" stroke="#bfbfbf" points="300.534,-0.5 300.534,-19.5 354.534,-19.5 354.534,-0.5 300.534,-0.5"/>
<text text-anchor="middle" x="327.534" y="-7.5" font-family="Helvetica,sans-Serif" font-size="10.00">iostream</text>
</g>
<!-- Node5&#45;&gt;Node6 -->
<g id="edge6" class="edge"><title>Node5&#45;&gt;Node6</title>
<path fill="none" stroke="midnightblue" d="M178.969,-227.067C109.99,-213.697 -34.2655,-177.179 12.5341,-112 45.5248,-66.0532 214.252,-31.0151 290.292,-17.3024"/>
<polygon fill="midnightblue" stroke="midnightblue" points="291.148,-20.7051 300.382,-15.5101 289.924,-13.813 291.148,-20.7051"/>
</g>
<!-- Node7 -->
<g id="node8" class="node"><title>Node7</title>
<polygon fill="none" stroke="#bfbfbf" points="527.534,-112.5 527.534,-131.5 571.534,-131.5 571.534,-112.5 527.534,-112.5"/>
<text text-anchor="middle" x="549.534" y="-119.5" font-family="Helvetica,sans-Serif" font-size="10.00">cmath</text>
</g>
<!-- Node5&#45;&gt;Node7 -->
<g id="edge7" class="edge"><title>Node5&#45;&gt;Node7</title>
<path fill="none" stroke="midnightblue" d="M248.253,-231.199C296.632,-227.673 386.288,-217.415 456.534,-188 472.013,-181.518 508.084,-154.872 530.479,-137.773"/>
<polygon fill="midnightblue" stroke="midnightblue" points="532.797,-140.406 538.595,-131.538 528.533,-134.855 532.797,-140.406"/>
</g>
<!-- Node8 -->
<g id="node9" class="node"><title>Node8</title>
<g id="a_node9"><a xlink:href="Random_8h.html" target="_top" xlink:title="Random.h">
<polygon fill="none" stroke="black" points="182.534,-168.5 182.534,-187.5 244.534,-187.5 244.534,-168.5 182.534,-168.5"/>
<text text-anchor="middle" x="213.534" y="-175.5" font-family="Helvetica,sans-Serif" font-size="10.00">Random.h</text>
</a>
</g>
</g>
<!-- Node5&#45;&gt;Node8 -->
<g id="edge8" class="edge"><title>Node5&#45;&gt;Node8</title>
<path fill="none" stroke="midnightblue" d="M213.534,-224.083C213.534,-217.006 213.534,-206.861 213.534,-197.986"/>
<polygon fill="midnightblue" stroke="midnightblue" points="217.034,-197.751 213.534,-187.751 210.034,-197.751 217.034,-197.751"/>
</g>
<!-- Node8&#45;&gt;Node6 -->
<g id="edge11" class="edge"><title>Node8&#45;&gt;Node6</title>
<path fill="none" stroke="midnightblue" d="M244.557,-171.276C267.123,-165.407 296.435,-153.907 312.534,-132 334.709,-101.825 333.4,-55.5722 330.474,-29.8723"/>
<polygon fill="midnightblue" stroke="midnightblue" points="333.899,-29.0845 329.094,-19.642 326.962,-30.0201 333.899,-29.0845"/>
</g>
<!-- Node8&#45;&gt;Node7 -->
<g id="edge9" class="edge"><title>Node8&#45;&gt;Node7</title>
<path fill="none" stroke="midnightblue" d="M244.962,-173.792C298.87,-167.981 412.536,-154.391 517.475,-131.98"/>
<polygon fill="midnightblue" stroke="midnightblue" points="518.245,-135.394 527.276,-129.855 516.761,-128.553 518.245,-135.394"/>
</g>
<!-- Node9 -->
<g id="node10" class="node"><title>Node9</title>
<polygon fill="none" stroke="#bfbfbf" points="373.034,-0.5 373.034,-19.5 418.034,-19.5 418.034,-0.5 373.034,-0.5"/>
<text text-anchor="middle" x="395.534" y="-7.5" font-family="Helvetica,sans-Serif" font-size="10.00">cstdlib</text>
</g>
<!-- Node8&#45;&gt;Node9 -->
<g id="edge10" class="edge"><title>Node8&#45;&gt;Node9</title>
<path fill="none" stroke="midnightblue" d="M244.583,-171.676C270.674,-165.822 307.595,-154.146 332.534,-132 364.3,-103.792 382.481,-55.7078 390.518,-29.4503"/>
<polygon fill="midnightblue" stroke="midnightblue" points="393.935,-30.2338 393.352,-19.655 387.211,-28.2885 393.935,-30.2338"/>
</g>
<!-- Node10 -->
<g id="node11" class="node"><title>Node10</title>
<polygon fill="none" stroke="#bfbfbf" points="157.534,-112.5 157.534,-131.5 209.534,-131.5 209.534,-112.5 157.534,-112.5"/>
<text text-anchor="middle" x="183.534" y="-119.5" font-family="Helvetica,sans-Serif" font-size="10.00">sstream</text>
</g>
<!-- Node8&#45;&gt;Node10 -->
<g id="edge12" class="edge"><title>Node8&#45;&gt;Node10</title>
<path fill="none" stroke="midnightblue" d="M208.58,-168.083C204.43,-160.613 198.381,-149.724 193.267,-140.52"/>
<polygon fill="midnightblue" stroke="midnightblue" points="196.312,-138.793 188.396,-131.751 190.193,-142.192 196.312,-138.793"/>
</g>
<!-- Node11 -->
<g id="node12" class="node"><title>Node11</title>
<polygon fill="none" stroke="#bfbfbf" points="21.5341,-112.5 21.5341,-131.5 71.5341,-131.5 71.5341,-112.5 21.5341,-112.5"/>
<text text-anchor="middle" x="46.5341" y="-119.5" font-family="Helvetica,sans-Serif" font-size="10.00">iomanip</text>
</g>
<!-- Node8&#45;&gt;Node11 -->
<g id="edge13" class="edge"><title>Node8&#45;&gt;Node11</title>
<path fill="none" stroke="midnightblue" d="M187.072,-168.444C158.524,-159.212 112.936,-144.471 81.462,-134.294"/>
<polygon fill="midnightblue" stroke="midnightblue" points="82.3705,-130.909 71.7787,-131.163 80.2168,-137.57 82.3705,-130.909"/>
</g>
<!-- Node12 -->
<g id="node13" class="node"><title>Node12</title>
<polygon fill="none" stroke="#bfbfbf" points="89.5341,-112.5 89.5341,-131.5 139.534,-131.5 139.534,-112.5 89.5341,-112.5"/>
<text text-anchor="middle" x="114.534" y="-119.5" font-family="Helvetica,sans-Serif" font-size="10.00">fstream</text>
</g>
<!-- Node8&#45;&gt;Node12 -->
<g id="edge14" class="edge"><title>Node8&#45;&gt;Node12</title>
<path fill="none" stroke="midnightblue" d="M197.628,-168.324C181.896,-159.743 157.592,-146.486 139.325,-136.522"/>
<polygon fill="midnightblue" stroke="midnightblue" points="140.856,-133.37 130.401,-131.655 137.504,-139.516 140.856,-133.37"/>
</g>
<!-- Node13&#45;&gt;Node6 -->
<g id="edge26" class="edge"><title>Node13&#45;&gt;Node6</title>
<path fill="none" stroke="midnightblue" d="M399.448,-168.075C387.381,-141.719 351.743,-63.878 335.62,-28.6608"/>
<polygon fill="midnightblue" stroke="midnightblue" points="338.802,-27.2035 331.457,-19.5681 332.437,-30.1175 338.802,-27.2035"/>
</g>
<!-- Node14 -->
<g id="node15" class="node"><title>Node14</title>
<g id="a_node15"><a xlink:href="Chrono_8h.html" target="_top" xlink:title="Chrono.h">
<polygon fill="none" stroke="black" points="435.534,-56.5 435.534,-75.5 491.534,-75.5 491.534,-56.5 435.534,-56.5"/>
<text text-anchor="middle" x="463.534" y="-63.5" font-family="Helvetica,sans-Serif" font-size="10.00">Chrono.h</text>
</a>
</g>
</g>
<!-- Node13&#45;&gt;Node14 -->
<g id="edge16" class="edge"><title>Node13&#45;&gt;Node14</title>
<path fill="none" stroke="midnightblue" d="M408.242,-168.368C418.056,-150.376 440.87,-108.55 453.919,-84.6267"/>
<polygon fill="midnightblue" stroke="midnightblue" points="457.132,-86.0464 458.848,-75.5914 450.987,-82.6944 457.132,-86.0464"/>
</g>
<!-- Node17 -->
<g id="node18" class="node"><title>Node17</title>
<g id="a_node18"><a xlink:href="StateSpace_8h.html" target="_top" xlink:title="StateSpace.h">
<polygon fill="none" stroke="black" points="227.534,-112.5 227.534,-131.5 303.534,-131.5 303.534,-112.5 227.534,-112.5"/>
<text text-anchor="middle" x="265.534" y="-119.5" font-family="Helvetica,sans-Serif" font-size="10.00">StateSpace.h</text>
</a>
</g>
</g>
<!-- Node13&#45;&gt;Node17 -->
<g id="edge21" class="edge"><title>Node13&#45;&gt;Node17</title>
<path fill="none" stroke="midnightblue" d="M381.668,-168.444C358.755,-159.478 322.559,-145.314 296.668,-135.183"/>
<polygon fill="midnightblue" stroke="midnightblue" points="297.886,-131.901 287.298,-131.516 295.335,-138.42 297.886,-131.901"/>
</g>
<!-- Node20 -->
<g id="node21" class="node"><title>Node20</title>
<polygon fill="none" stroke="#bfbfbf" points="474.034,-112.5 474.034,-131.5 509.034,-131.5 509.034,-112.5 474.034,-112.5"/>
<text text-anchor="middle" x="491.534" y="-119.5" font-family="Helvetica,sans-Serif" font-size="10.00">map</text>
</g>
<!-- Node13&#45;&gt;Node20 -->
<g id="edge27" class="edge"><title>Node13&#45;&gt;Node20</title>
<path fill="none" stroke="midnightblue" d="M417.673,-168.324C431.4,-159.9 452.47,-146.971 468.598,-137.074"/>
<polygon fill="midnightblue" stroke="midnightblue" points="470.738,-139.868 477.43,-131.655 467.077,-133.902 470.738,-139.868"/>
</g>
<!-- Node14&#45;&gt;Node6 -->
<g id="edge19" class="edge"><title>Node14&#45;&gt;Node6</title>
<path fill="none" stroke="midnightblue" d="M441.984,-56.4435C419.503,-47.5171 384.046,-33.4387 358.554,-23.3168"/>
<polygon fill="midnightblue" stroke="midnightblue" points="359.569,-19.9539 348.983,-19.5164 356.985,-26.4598 359.569,-19.9539"/>
</g>
<!-- Node14&#45;&gt;Node9 -->
<g id="edge20" class="edge"><title>Node14&#45;&gt;Node9</title>
<path fill="none" stroke="midnightblue" d="M452.609,-56.324C442.359,-48.1849 426.813,-35.8395 414.533,-26.0874"/>
<polygon fill="midnightblue" stroke="midnightblue" points="416.666,-23.3119 406.658,-19.8339 412.313,-28.7937 416.666,-23.3119"/>
</g>
<!-- Node15 -->
<g id="node16" class="node"><title>Node15</title>
<polygon fill="none" stroke="#bfbfbf" points="517.034,-0.5 517.034,-19.5 558.034,-19.5 558.034,-0.5 517.034,-0.5"/>
<text text-anchor="middle" x="537.534" y="-7.5" font-family="Helvetica,sans-Serif" font-size="10.00">ctime</text>
</g>
<!-- Node14&#45;&gt;Node15 -->
<g id="edge17" class="edge"><title>Node14&#45;&gt;Node15</title>
<path fill="none" stroke="midnightblue" d="M475.423,-56.324C486.684,-48.1066 503.821,-35.6017 517.243,-25.8069"/>
<polygon fill="midnightblue" stroke="midnightblue" points="519.414,-28.5559 525.428,-19.8339 515.287,-22.9014 519.414,-28.5559"/>
</g>
<!-- Node16 -->
<g id="node17" class="node"><title>Node16</title>
<polygon fill="none" stroke="#bfbfbf" points="436.534,-0.5 436.534,-19.5 498.534,-19.5 498.534,-0.5 436.534,-0.5"/>
<text text-anchor="middle" x="467.534" y="-7.5" font-family="Helvetica,sans-Serif" font-size="10.00">sys/time.h</text>
</g>
<!-- Node14&#45;&gt;Node16 -->
<g id="edge18" class="edge"><title>Node14&#45;&gt;Node16</title>
<path fill="none" stroke="midnightblue" d="M464.195,-56.083C464.719,-49.0059 465.47,-38.8611 466.128,-29.9865"/>
<polygon fill="midnightblue" stroke="midnightblue" points="469.637,-29.9823 466.886,-19.7511 462.657,-29.4652 469.637,-29.9823"/>
</g>
<!-- Node18 -->
<g id="node19" class="node"><title>Node18</title>
<g id="a_node19"><a xlink:href="BiologicalSequences_8h.html" target="_top" xlink:title="BiologicalSequences.h">
<polygon fill="none" stroke="black" points="187.534,-56.5 187.534,-75.5 303.534,-75.5 303.534,-56.5 187.534,-56.5"/>
<text text-anchor="middle" x="245.534" y="-63.5" font-family="Helvetica,sans-Serif" font-size="10.00">BiologicalSequences.h</text>
</a>
</g>
</g>
<!-- Node17&#45;&gt;Node18 -->
<g id="edge22" class="edge"><title>Node17&#45;&gt;Node18</title>
<path fill="none" stroke="midnightblue" d="M262.231,-112.083C259.552,-104.849 255.685,-94.4087 252.348,-85.3968"/>
<polygon fill="midnightblue" stroke="midnightblue" points="255.531,-83.9129 248.775,-75.7511 248.966,-86.3442 255.531,-83.9129"/>
</g>
<!-- Node18&#45;&gt;Node6 -->
<g id="edge24" class="edge"><title>Node18&#45;&gt;Node6</title>
<path fill="none" stroke="midnightblue" d="M258.709,-56.324C271.381,-47.979 290.767,-35.2122 305.74,-25.3524"/>
<polygon fill="midnightblue" stroke="midnightblue" points="307.965,-28.0776 314.392,-19.6545 304.115,-22.2313 307.965,-28.0776"/>
</g>
<!-- Node18&#45;&gt;Node9 -->
<g id="edge23" class="edge"><title>Node18&#45;&gt;Node9</title>
<path fill="none" stroke="midnightblue" d="M269.302,-56.4435C294.722,-47.2922 335.184,-32.726 363.425,-22.5594"/>
<polygon fill="midnightblue" stroke="midnightblue" points="364.636,-25.8433 372.859,-19.1629 362.265,-19.2571 364.636,-25.8433"/>
</g>
<!-- Node19 -->
<g id="node20" class="node"><title>Node19</title>
<polygon fill="none" stroke="#bfbfbf" points="225.034,-0.5 225.034,-19.5 266.034,-19.5 266.034,-0.5 225.034,-0.5"/>
<text text-anchor="middle" x="245.534" y="-7.5" font-family="Helvetica,sans-Serif" font-size="10.00">string</text>
</g>
<!-- Node18&#45;&gt;Node19 -->
<g id="edge25" class="edge"><title>Node18&#45;&gt;Node19</title>
<path fill="none" stroke="midnightblue" d="M245.534,-56.083C245.534,-49.0059 245.534,-38.8611 245.534,-29.9865"/>
<polygon fill="midnightblue" stroke="midnightblue" points="249.034,-29.751 245.534,-19.7511 242.034,-29.7511 249.034,-29.751"/>
</g>
<!-- Node21&#45;&gt;Node7 -->
<g id="edge29" class="edge"><title>Node21&#45;&gt;Node7</title>
<path fill="none" stroke="midnightblue" d="M455.843,-224.435C464.553,-215.428 478.603,-200.81 490.534,-188 505.7,-171.716 522.76,-152.861 534.619,-139.667"/>
<polygon fill="midnightblue" stroke="midnightblue" points="537.517,-141.678 541.589,-131.897 532.306,-137.003 537.517,-141.678"/>
</g>
<!-- Node21&#45;&gt;Node13 -->
<g id="edge30" class="edge"><title>Node21&#45;&gt;Node13</title>
<path fill="none" stroke="midnightblue" d="M440.268,-224.083C433.989,-216.377 424.746,-205.033 417.103,-195.653"/>
<polygon fill="midnightblue" stroke="midnightblue" points="419.695,-193.293 410.665,-187.751 414.268,-197.714 419.695,-193.293"/>
</g>
<!-- Node22&#45;&gt;Node7 -->
<g id="edge32" class="edge"><title>Node22&#45;&gt;Node7</title>
<path fill="none" stroke="midnightblue" d="M587.598,-341.793C586.124,-328.454 583.065,-302.177 579.534,-280 571.561,-229.92 559.684,-171.336 553.539,-141.909"/>
<polygon fill="midnightblue" stroke="midnightblue" points="556.901,-140.885 551.418,-131.819 550.05,-142.325 556.901,-140.885"/>
</g>
<!-- Node23 -->
<g id="node24" class="node"><title>Node23</title>
<g id="a_node24"><a xlink:href="DPProfileProcess_8h.html" target="_top" xlink:title="DPProfileProcess.h">
<polygon fill="none" stroke="black" points="467.034,-280.5 467.034,-299.5 570.034,-299.5 570.034,-280.5 467.034,-280.5"/>
<text text-anchor="middle" x="518.534" y="-287.5" font-family="Helvetica,sans-Serif" font-size="10.00">DPProfileProcess.h</text>
</a>
</g>
</g>
<!-- Node22&#45;&gt;Node23 -->
<g id="edge33" class="edge"><title>Node22&#45;&gt;Node23</title>
<path fill="none" stroke="midnightblue" d="M578.505,-341.975C567.485,-332.608 549.574,-317.384 536.191,-306.008"/>
<polygon fill="midnightblue" stroke="midnightblue" points="538.431,-303.319 528.545,-299.509 533.897,-308.652 538.431,-303.319"/>
</g>
<!-- Node23&#45;&gt;Node7 -->
<g id="edge34" class="edge"><title>Node23&#45;&gt;Node7</title>
<path fill="none" stroke="midnightblue" d="M520.201,-280.075C525.08,-253.945 539.41,-177.211 546.065,-141.577"/>
<polygon fill="midnightblue" stroke="midnightblue" points="549.539,-142.041 547.934,-131.568 542.658,-140.756 549.539,-142.041"/>
</g>
<!-- Node23&#45;&gt;Node21 -->
<g id="edge35" class="edge"><title>Node23&#45;&gt;Node21</title>
<path fill="none" stroke="midnightblue" d="M507.127,-280.324C496.425,-272.185 480.193,-259.839 467.371,-250.087"/>
<polygon fill="midnightblue" stroke="midnightblue" points="469.227,-247.102 459.149,-243.834 464.99,-252.673 469.227,-247.102"/>
</g>
<!-- Node24&#45;&gt;Node3 -->
<g id="edge42" class="edge"><title>Node24&#45;&gt;Node3</title>
<path fill="none" stroke="midnightblue" d="M238.209,-408.869C279.399,-397.278 352.665,-376.662 398.256,-363.834"/>
<polygon fill="midnightblue" stroke="midnightblue" points="399.422,-367.142 408.1,-361.064 397.526,-360.403 399.422,-367.142"/>
</g>
<!-- Node25 -->
<g id="node26" class="node"><title>Node25</title>
<g id="a_node26"><a xlink:href="GTRProfileProcess_8h.html" target="_top" xlink:title="GTRProfileProcess.h">
<polygon fill="none" stroke="black" points="84.5341,-342 84.5341,-361 194.534,-361 194.534,-342 84.5341,-342"/>
<text text-anchor="middle" x="139.534" y="-349" font-family="Helvetica,sans-Serif" font-size="10.00">GTRProfileProcess.h</text>
</a>
</g>
</g>
<!-- Node24&#45;&gt;Node25 -->
<g id="edge37" class="edge"><title>Node24&#45;&gt;Node25</title>
<path fill="none" stroke="midnightblue" d="M198.363,-408.734C187.556,-398.403 169.388,-381.037 156.096,-368.332"/>
<polygon fill="midnightblue" stroke="midnightblue" points="158.207,-365.507 148.56,-361.127 153.37,-370.567 158.207,-365.507"/>
</g>
<!-- Node25&#45;&gt;Node4 -->
<g id="edge41" class="edge"><title>Node25&#45;&gt;Node4</title>
<path fill="none" stroke="midnightblue" d="M159.593,-341.975C183.296,-331.901 222.94,-315.053 250.117,-303.502"/>
<polygon fill="midnightblue" stroke="midnightblue" points="251.678,-306.642 259.513,-299.509 248.94,-300.199 251.678,-306.642"/>
</g>
<!-- Node26 -->
<g id="node27" class="node"><title>Node26</title>
<g id="a_node27"><a xlink:href="GTRSubMatrix_8h.html" target="_top" xlink:title="GTRSubMatrix.h">
<polygon fill="none" stroke="black" points="94.5341,-280.5 94.5341,-299.5 184.534,-299.5 184.534,-280.5 94.5341,-280.5"/>
<text text-anchor="middle" x="139.534" y="-287.5" font-family="Helvetica,sans-Serif" font-size="10.00">GTRSubMatrix.h</text>
</a>
</g>
</g>
<!-- Node25&#45;&gt;Node26 -->
<g id="edge38" class="edge"><title>Node25&#45;&gt;Node26</title>
<path fill="none" stroke="midnightblue" d="M139.534,-341.975C139.534,-333.58 139.534,-320.481 139.534,-309.663"/>
<polygon fill="midnightblue" stroke="midnightblue" points="143.034,-309.509 139.534,-299.509 136.034,-309.509 143.034,-309.509"/>
</g>
<!-- Node26&#45;&gt;Node5 -->
<g id="edge40" class="edge"><title>Node26&#45;&gt;Node5</title>
<path fill="none" stroke="midnightblue" d="M151.423,-280.324C162.684,-272.107 179.821,-259.602 193.243,-249.807"/>
<polygon fill="midnightblue" stroke="midnightblue" points="195.414,-252.556 201.428,-243.834 191.287,-246.901 195.414,-252.556"/>
</g>
<!-- Node26&#45;&gt;Node18 -->
<g id="edge39" class="edge"><title>Node26&#45;&gt;Node18</title>
<path fill="none" stroke="midnightblue" d="M124.74,-280.407C81.5173,-254.261 -38.3837,-173.693 12.5341,-112 33.1528,-87.0181 116.351,-75.7478 177.472,-70.7702"/>
<polygon fill="midnightblue" stroke="midnightblue" points="177.76,-74.2585 187.46,-69.9961 177.219,-67.2794 177.76,-74.2585"/>
</g>
<!-- Node27&#45;&gt;Node3 -->
<g id="edge46" class="edge"><title>Node27&#45;&gt;Node3</title>
<path fill="none" stroke="midnightblue" d="M379.808,-403.396C391.849,-392.96 408.245,-378.751 420.652,-367.998"/>
<polygon fill="midnightblue" stroke="midnightblue" points="423.237,-370.389 428.502,-361.195 418.653,-365.099 423.237,-370.389"/>
</g>
<!-- Node28 -->
<g id="node29" class="node"><title>Node28</title>
<g id="a_node29"><a xlink:href="GeneralPathSuffStatMatrixProfileProcess_8h.html" target="_top" xlink:title="GeneralPathSuffStatMatrix\lProfileProcess.h">
<polygon fill="none" stroke="black" points="212.534,-336.5 212.534,-366.5 346.534,-366.5 346.534,-336.5 212.534,-336.5"/>
<text text-anchor="start" x="220.534" y="-354.5" font-family="Helvetica,sans-Serif" font-size="10.00">GeneralPathSuffStatMatrix</text>
<text text-anchor="middle" x="279.534" y="-343.5" font-family="Helvetica,sans-Serif" font-size="10.00">ProfileProcess.h</text>
</a>
</g>
</g>
<!-- Node27&#45;&gt;Node28 -->
<g id="edge44" class="edge"><title>Node27&#45;&gt;Node28</title>
<path fill="none" stroke="midnightblue" d="M345.307,-403.396C333.749,-394.452 318.61,-382.737 305.77,-372.802"/>
<polygon fill="midnightblue" stroke="midnightblue" points="307.776,-369.928 297.725,-366.577 303.492,-375.464 307.776,-369.928"/>
</g>
<!-- Node28&#45;&gt;Node4 -->
<g id="edge45" class="edge"><title>Node28&#45;&gt;Node4</title>
<path fill="none" stroke="midnightblue" d="M279.534,-336.399C279.534,-328.466 279.534,-318.458 279.534,-309.858"/>
<polygon fill="midnightblue" stroke="midnightblue" points="283.034,-309.658 279.534,-299.658 276.034,-309.658 283.034,-309.658"/>
</g>
</g>
</svg>
