<?xml version="1.0" encoding="UTF-8" standalone="no"?>
<!DOCTYPE svg PUBLIC "-//W3C//DTD SVG 1.1//EN"
 "http://www.w3.org/Graphics/SVG/1.1/DTD/svg11.dtd">
<!-- Generated by graphviz version 2.38.0 (20140413.2041)
 -->
<!-- Title: GeneProfileProcess.h Pages: 1 -->
<svg width="547pt" height="218pt"
 viewBox="0.00 0.00 546.50 218.00" xmlns="http://www.w3.org/2000/svg" xmlns:xlink="http://www.w3.org/1999/xlink">
<g id="graph0" class="graph" transform="scale(1 1) rotate(0) translate(4 214)">
<title>GeneProfileProcess.h</title>
<!-- Node32 -->
<g id="node1" class="node"><title>Node32</title>
<polygon fill="#bfbfbf" stroke="black" points="204,-190.5 204,-209.5 316,-209.5 316,-190.5 204,-190.5"/>
<text text-anchor="middle" x="260" y="-197.5" font-family="Helvetica,sans-Serif" font-size="10.00">GeneProfileProcess.h</text>
</g>
<!-- Node33 -->
<g id="node2" class="node"><title>Node33</title>
<g id="a_node2"><a xlink:href="AACodonMutSelGeneProfileProcess_8h.html" target="_top" xlink:title="AACodonMutSelGeneProfile\lProcess.h">
<polygon fill="none" stroke="black" points="21,-123.5 21,-153.5 161,-153.5 161,-123.5 21,-123.5"/>
<text text-anchor="start" x="29" y="-141.5" font-family="Helvetica,sans-Serif" font-size="10.00">AACodonMutSelGeneProfile</text>
<text text-anchor="middle" x="91" y="-130.5" font-family="Helvetica,sans-Serif" font-size="10.00">Process.h</text>
</a>
</g>
</g>
<!-- Node32&#45;&gt;Node33 -->
<g id="edge1" class="edge"><title>Node32&#45;&gt;Node33</title>
<path fill="none" stroke="midnightblue" d="M226.209,-187.103C198.71,-177.422 159.84,-163.737 130.83,-153.523"/>
<polygon fill="midnightblue" stroke="midnightblue" points="225.192,-190.456 235.786,-190.475 227.516,-183.853 225.192,-190.456"/>
</g>
<!-- Node36 -->
<g id="node5" class="node"><title>Node36</title>
<g id="a_node5"><a xlink:href="ExpoConjugateGTRGeneGammaPhyloProcess_8h.html" target="_top" xlink:title="ExpoConjugateGTRGeneGamma\lPhyloProcess.h">
<polygon fill="none" stroke="black" points="179,-123.5 179,-153.5 341,-153.5 341,-123.5 179,-123.5"/>
<text text-anchor="start" x="187" y="-141.5" font-family="Helvetica,sans-Serif" font-size="10.00">ExpoConjugateGTRGeneGamma</text>
<text text-anchor="middle" x="260" y="-130.5" font-family="Helvetica,sans-Serif" font-size="10.00">PhyloProcess.h</text>
</a>
</g>
</g>
<!-- Node32&#45;&gt;Node36 -->
<g id="edge4" class="edge"><title>Node32&#45;&gt;Node36</title>
<path fill="none" stroke="midnightblue" d="M260,-180.235C260,-171.586 260,-161.497 260,-153.523"/>
<polygon fill="midnightblue" stroke="midnightblue" points="256.5,-180.475 260,-190.475 263.5,-180.475 256.5,-180.475"/>
</g>
<!-- Node37 -->
<g id="node6" class="node"><title>Node37</title>
<g id="a_node6"><a xlink:href="PoissonGeneGammaPhyloProcess_8h.html" target="_top" xlink:title="PoissonGeneGammaPhyloProcess.h">
<polygon fill="none" stroke="black" points="359.5,-129 359.5,-148 538.5,-148 538.5,-129 359.5,-129"/>
<text text-anchor="middle" x="449" y="-136" font-family="Helvetica,sans-Serif" font-size="10.00">PoissonGeneGammaPhyloProcess.h</text>
</a>
</g>
</g>
<!-- Node32&#45;&gt;Node37 -->
<g id="edge5" class="edge"><title>Node32&#45;&gt;Node37</title>
<path fill="none" stroke="midnightblue" d="M296.909,-187.381C333.646,-175.815 389.153,-158.341 421.971,-148.009"/>
<polygon fill="midnightblue" stroke="midnightblue" points="295.567,-184.134 287.079,-190.475 297.669,-190.811 295.567,-184.134"/>
</g>
<!-- Node34 -->
<g id="node3" class="node"><title>Node34</title>
<g id="a_node3"><a xlink:href="AACodonMutSelGeneSubstitutionProcess_8h.html" target="_top" xlink:title="AACodonMutSelGeneSubstitution\lProcess.h">
<polygon fill="none" stroke="black" points="9,-56.5 9,-86.5 173,-86.5 173,-56.5 9,-56.5"/>
<text text-anchor="start" x="17" y="-74.5" font-family="Helvetica,sans-Serif" font-size="10.00">AACodonMutSelGeneSubstitution</text>
<text text-anchor="middle" x="91" y="-63.5" font-family="Helvetica,sans-Serif" font-size="10.00">Process.h</text>
</a>
</g>
</g>
<!-- Node33&#45;&gt;Node34 -->
<g id="edge2" class="edge"><title>Node33&#45;&gt;Node34</title>
<path fill="none" stroke="midnightblue" d="M91,-113.108C91,-104.154 91,-94.3227 91,-86.5765"/>
<polygon fill="midnightblue" stroke="midnightblue" points="87.5001,-113.396 91,-123.396 94.5001,-113.396 87.5001,-113.396"/>
</g>
<!-- Node35 -->
<g id="node4" class="node"><title>Node35</title>
<g id="a_node4"><a xlink:href="AACodonMutSelGenePhyloProcess_8h.html" target="_top" xlink:title="AACodonMutSelGenePhyloProcess.h">
<polygon fill="none" stroke="black" points="0,-0.5 0,-19.5 182,-19.5 182,-0.5 0,-0.5"/>
<text text-anchor="middle" x="91" y="-7.5" font-family="Helvetica,sans-Serif" font-size="10.00">AACodonMutSelGenePhyloProcess.h</text>
</a>
</g>
</g>
<!-- Node34&#45;&gt;Node35 -->
<g id="edge3" class="edge"><title>Node34&#45;&gt;Node35</title>
<path fill="none" stroke="midnightblue" d="M91,-46.2892C91,-36.857 91,-26.6548 91,-19.6578"/>
<polygon fill="midnightblue" stroke="midnightblue" points="87.5001,-46.3993 91,-56.3993 94.5001,-46.3994 87.5001,-46.3993"/>
</g>
</g>
</svg>
