<?xml version="1.0" encoding="UTF-8" standalone="no"?>
<!DOCTYPE svg PUBLIC "-//W3C//DTD SVG 1.1//EN"
 "http://www.w3.org/Graphics/SVG/1.1/DTD/svg11.dtd">
<!-- Generated by graphviz version 2.38.0 (20140413.2041)
 -->
<!-- Title: GTRMixtureProfileProcess.cpp Pages: 1 -->
<svg width="748pt" height="420pt"
 viewBox="0.00 0.00 748.00 420.00" xmlns="http://www.w3.org/2000/svg" xmlns:xlink="http://www.w3.org/1999/xlink">
<g id="graph0" class="graph" transform="scale(1 1) rotate(0) translate(4 416)">
<title>GTRMixtureProfileProcess.cpp</title>
<!-- Node0 -->
<g id="node1" class="node"><title>Node0</title>
<polygon fill="#bfbfbf" stroke="black" points="398,-392.5 398,-411.5 550,-411.5 550,-392.5 398,-392.5"/>
<text text-anchor="middle" x="474" y="-399.5" font-family="Helvetica,sans-Serif" font-size="10.00">GTRMixtureProfileProcess.cpp</text>
</g>
<!-- Node1 -->
<g id="node2" class="node"><title>Node1</title>
<g id="a_node2"><a xlink:href="GTRMixtureProfileProcess_8h.html" target="_top" xlink:title="GTRMixtureProfileProcess.h">
<polygon fill="none" stroke="black" points="354,-336.5 354,-355.5 496,-355.5 496,-336.5 354,-336.5"/>
<text text-anchor="middle" x="425" y="-343.5" font-family="Helvetica,sans-Serif" font-size="10.00">GTRMixtureProfileProcess.h</text>
</a>
</g>
</g>
<!-- Node0&#45;&gt;Node1 -->
<g id="edge1" class="edge"><title>Node0&#45;&gt;Node1</title>
<path fill="none" stroke="midnightblue" d="M465.909,-392.083C458.845,-384.298 448.412,-372.801 439.851,-363.367"/>
<polygon fill="midnightblue" stroke="midnightblue" points="442.253,-360.805 432.941,-355.751 437.069,-365.509 442.253,-360.805"/>
</g>
<!-- Node10 -->
<g id="node11" class="node"><title>Node10</title>
<g id="a_node11"><a xlink:href="Random_8h.html" target="_top" xlink:title="Random.h">
<polygon fill="none" stroke="black" points="493,-112.5 493,-131.5 555,-131.5 555,-112.5 493,-112.5"/>
<text text-anchor="middle" x="524" y="-119.5" font-family="Helvetica,sans-Serif" font-size="10.00">Random.h</text>
</a>
</g>
</g>
<!-- Node0&#45;&gt;Node10 -->
<g id="edge35" class="edge"><title>Node0&#45;&gt;Node10</title>
<path fill="none" stroke="midnightblue" d="M481.321,-392.217C488.264,-383.506 498.564,-369.537 505,-356 517.923,-328.818 524,-321.098 524,-291 524,-291 524,-291 524,-233 524,-200.948 524,-163.643 524,-141.749"/>
<polygon fill="midnightblue" stroke="midnightblue" points="527.5,-141.558 524,-131.558 520.5,-141.558 527.5,-141.558"/>
</g>
<!-- Node2 -->
<g id="node3" class="node"><title>Node2</title>
<g id="a_node3"><a xlink:href="GTRProfileProcess_8h.html" target="_top" xlink:title="GTRProfileProcess.h">
<polygon fill="none" stroke="black" points="371,-280.5 371,-299.5 481,-299.5 481,-280.5 371,-280.5"/>
<text text-anchor="middle" x="426" y="-287.5" font-family="Helvetica,sans-Serif" font-size="10.00">GTRProfileProcess.h</text>
</a>
</g>
</g>
<!-- Node1&#45;&gt;Node2 -->
<g id="edge2" class="edge"><title>Node1&#45;&gt;Node2</title>
<path fill="none" stroke="midnightblue" d="M425.165,-336.083C425.296,-329.006 425.484,-318.861 425.648,-309.986"/>
<polygon fill="midnightblue" stroke="midnightblue" points="429.152,-309.814 425.838,-299.751 422.153,-309.685 429.152,-309.814"/>
</g>
<!-- Node21 -->
<g id="node22" class="node"><title>Node21</title>
<g id="a_node22"><a xlink:href="MatrixMixtureProfileProcess_8h.html" target="_top" xlink:title="MatrixMixtureProfileProcess.h">
<polygon fill="none" stroke="black" points="205,-280.5 205,-299.5 353,-299.5 353,-280.5 205,-280.5"/>
<text text-anchor="middle" x="279" y="-287.5" font-family="Helvetica,sans-Serif" font-size="10.00">MatrixMixtureProfileProcess.h</text>
</a>
</g>
</g>
<!-- Node1&#45;&gt;Node21 -->
<g id="edge30" class="edge"><title>Node1&#45;&gt;Node21</title>
<path fill="none" stroke="midnightblue" d="M401.866,-336.444C377.518,-327.438 338.993,-313.189 311.577,-303.049"/>
<polygon fill="midnightblue" stroke="midnightblue" points="312.619,-299.703 302.026,-299.516 310.191,-306.268 312.619,-299.703"/>
</g>
<!-- Node3 -->
<g id="node4" class="node"><title>Node3</title>
<g id="a_node4"><a xlink:href="GTRSubMatrix_8h.html" target="_top" xlink:title="GTRSubMatrix.h">
<polygon fill="none" stroke="black" points="382,-224.5 382,-243.5 472,-243.5 472,-224.5 382,-224.5"/>
<text text-anchor="middle" x="427" y="-231.5" font-family="Helvetica,sans-Serif" font-size="10.00">GTRSubMatrix.h</text>
</a>
</g>
</g>
<!-- Node2&#45;&gt;Node3 -->
<g id="edge3" class="edge"><title>Node2&#45;&gt;Node3</title>
<path fill="none" stroke="midnightblue" d="M426.165,-280.083C426.296,-273.006 426.484,-262.861 426.648,-253.986"/>
<polygon fill="midnightblue" stroke="midnightblue" points="430.152,-253.814 426.838,-243.751 423.153,-253.685 430.152,-253.814"/>
</g>
<!-- Node14 -->
<g id="node15" class="node"><title>Node14</title>
<g id="a_node15"><a xlink:href="MatrixProfileProcess_8h.html" target="_top" xlink:title="MatrixProfileProcess.h">
<polygon fill="none" stroke="black" points="248,-224.5 248,-243.5 364,-243.5 364,-224.5 248,-224.5"/>
<text text-anchor="middle" x="306" y="-231.5" font-family="Helvetica,sans-Serif" font-size="10.00">MatrixProfileProcess.h</text>
</a>
</g>
</g>
<!-- Node2&#45;&gt;Node14 -->
<g id="edge18" class="edge"><title>Node2&#45;&gt;Node14</title>
<path fill="none" stroke="midnightblue" d="M406.986,-280.444C387.412,-271.636 356.692,-257.812 334.271,-247.722"/>
<polygon fill="midnightblue" stroke="midnightblue" points="335.481,-244.428 324.925,-243.516 332.608,-250.812 335.481,-244.428"/>
</g>
<!-- Node4 -->
<g id="node5" class="node"><title>Node4</title>
<g id="a_node5"><a xlink:href="BiologicalSequences_8h.html" target="_top" xlink:title="BiologicalSequences.h">
<polygon fill="none" stroke="black" points="280,-56.5 280,-75.5 396,-75.5 396,-56.5 280,-56.5"/>
<text text-anchor="middle" x="338" y="-63.5" font-family="Helvetica,sans-Serif" font-size="10.00">BiologicalSequences.h</text>
</a>
</g>
</g>
<!-- Node3&#45;&gt;Node4 -->
<g id="edge4" class="edge"><title>Node3&#45;&gt;Node4</title>
<path fill="none" stroke="midnightblue" d="M425.197,-224.278C422.364,-211.503 416.223,-187.147 407,-168 391.575,-135.98 366.827,-102.658 351.539,-83.4224"/>
<polygon fill="midnightblue" stroke="midnightblue" points="354.253,-81.2127 345.248,-75.6311 348.807,-85.6102 354.253,-81.2127"/>
</g>
<!-- Node8 -->
<g id="node9" class="node"><title>Node8</title>
<g id="a_node9"><a xlink:href="SubMatrix_8h.html" target="_top" xlink:title="SubMatrix.h">
<polygon fill="none" stroke="black" points="329.5,-168.5 329.5,-187.5 398.5,-187.5 398.5,-168.5 329.5,-168.5"/>
<text text-anchor="middle" x="364" y="-175.5" font-family="Helvetica,sans-Serif" font-size="10.00">SubMatrix.h</text>
</a>
</g>
</g>
<!-- Node3&#45;&gt;Node8 -->
<g id="edge8" class="edge"><title>Node3&#45;&gt;Node8</title>
<path fill="none" stroke="midnightblue" d="M416.878,-224.324C407.474,-216.263 393.256,-204.077 381.931,-194.369"/>
<polygon fill="midnightblue" stroke="midnightblue" points="384.177,-191.684 374.306,-187.834 379.621,-196.999 384.177,-191.684"/>
</g>
<!-- Node5 -->
<g id="node6" class="node"><title>Node5</title>
<polygon fill="none" stroke="#bfbfbf" points="306.5,-0.5 306.5,-19.5 351.5,-19.5 351.5,-0.5 306.5,-0.5"/>
<text text-anchor="middle" x="329" y="-7.5" font-family="Helvetica,sans-Serif" font-size="10.00">cstdlib</text>
</g>
<!-- Node4&#45;&gt;Node5 -->
<g id="edge5" class="edge"><title>Node4&#45;&gt;Node5</title>
<path fill="none" stroke="midnightblue" d="M336.514,-56.083C335.321,-48.9272 333.606,-38.6353 332.115,-29.6911"/>
<polygon fill="midnightblue" stroke="midnightblue" points="335.555,-29.0396 330.459,-19.7511 328.65,-30.1904 335.555,-29.0396"/>
</g>
<!-- Node6 -->
<g id="node7" class="node"><title>Node6</title>
<polygon fill="none" stroke="#bfbfbf" points="225,-0.5 225,-19.5 279,-19.5 279,-0.5 225,-0.5"/>
<text text-anchor="middle" x="252" y="-7.5" font-family="Helvetica,sans-Serif" font-size="10.00">iostream</text>
</g>
<!-- Node4&#45;&gt;Node6 -->
<g id="edge6" class="edge"><title>Node4&#45;&gt;Node6</title>
<path fill="none" stroke="midnightblue" d="M324.183,-56.324C310.767,-47.9002 290.176,-34.9709 274.414,-25.0741"/>
<polygon fill="midnightblue" stroke="midnightblue" points="276.113,-22.0081 265.783,-19.6545 272.391,-27.9364 276.113,-22.0081"/>
</g>
<!-- Node7 -->
<g id="node8" class="node"><title>Node7</title>
<polygon fill="none" stroke="#bfbfbf" points="369.5,-0.5 369.5,-19.5 410.5,-19.5 410.5,-0.5 369.5,-0.5"/>
<text text-anchor="middle" x="390" y="-7.5" font-family="Helvetica,sans-Serif" font-size="10.00">string</text>
</g>
<!-- Node4&#45;&gt;Node7 -->
<g id="edge7" class="edge"><title>Node4&#45;&gt;Node7</title>
<path fill="none" stroke="midnightblue" d="M346.587,-56.083C354.159,-48.2195 365.378,-36.5688 374.514,-27.0813"/>
<polygon fill="midnightblue" stroke="midnightblue" points="377.158,-29.3821 381.573,-19.7511 372.115,-24.5266 377.158,-29.3821"/>
</g>
<!-- Node8&#45;&gt;Node6 -->
<g id="edge9" class="edge"><title>Node8&#45;&gt;Node6</title>
<path fill="none" stroke="midnightblue" d="M353.389,-168.439C334.142,-152.351 293.395,-115.638 271,-76 262.867,-61.6054 257.936,-43.4116 255.143,-29.936"/>
<polygon fill="midnightblue" stroke="midnightblue" points="258.549,-29.1034 253.277,-19.9132 251.667,-30.3849 258.549,-29.1034"/>
</g>
<!-- Node9 -->
<g id="node10" class="node"><title>Node9</title>
<polygon fill="none" stroke="#bfbfbf" points="414,-56.5 414,-75.5 458,-75.5 458,-56.5 414,-56.5"/>
<text text-anchor="middle" x="436" y="-63.5" font-family="Helvetica,sans-Serif" font-size="10.00">cmath</text>
</g>
<!-- Node8&#45;&gt;Node9 -->
<g id="edge10" class="edge"><title>Node8&#45;&gt;Node9</title>
<path fill="none" stroke="midnightblue" d="M369.65,-168.368C381.532,-150.215 409.294,-107.802 424.879,-83.9902"/>
<polygon fill="midnightblue" stroke="midnightblue" points="427.828,-85.8753 430.377,-75.5914 421.971,-82.0416 427.828,-85.8753"/>
</g>
<!-- Node8&#45;&gt;Node10 -->
<g id="edge11" class="edge"><title>Node8&#45;&gt;Node10</title>
<path fill="none" stroke="midnightblue" d="M389.352,-168.444C416.269,-159.359 458.996,-144.939 489.087,-134.783"/>
<polygon fill="midnightblue" stroke="midnightblue" points="490.41,-138.031 498.766,-131.516 488.172,-131.398 490.41,-138.031"/>
</g>
<!-- Node10&#45;&gt;Node5 -->
<g id="edge13" class="edge"><title>Node10&#45;&gt;Node5</title>
<path fill="none" stroke="midnightblue" d="M523.323,-112.441C521.752,-98.5129 516.607,-70.9941 500,-56 454.642,-15.0484 424.973,-34.7733 361.683,-20.1963"/>
<polygon fill="midnightblue" stroke="midnightblue" points="362.217,-16.7212 351.664,-17.6674 360.503,-23.5083 362.217,-16.7212"/>
</g>
<!-- Node10&#45;&gt;Node6 -->
<g id="edge14" class="edge"><title>Node10&#45;&gt;Node6</title>
<path fill="none" stroke="midnightblue" d="M518.953,-112.236C510.273,-98.0126 491.107,-70.0792 467,-56 463.138,-53.7444 349.425,-30.6184 288.974,-18.4292"/>
<polygon fill="midnightblue" stroke="midnightblue" points="289.543,-14.9736 279.049,-16.4297 288.161,-21.8358 289.543,-14.9736"/>
</g>
<!-- Node10&#45;&gt;Node9 -->
<g id="edge12" class="edge"><title>Node10&#45;&gt;Node9</title>
<path fill="none" stroke="midnightblue" d="M509.861,-112.324C496.134,-103.9 475.064,-90.9709 458.936,-81.0741"/>
<polygon fill="midnightblue" stroke="midnightblue" points="460.457,-77.9016 450.104,-75.6545 456.796,-83.8678 460.457,-77.9016"/>
</g>
<!-- Node11 -->
<g id="node12" class="node"><title>Node11</title>
<polygon fill="none" stroke="#bfbfbf" points="688,-56.5 688,-75.5 740,-75.5 740,-56.5 688,-56.5"/>
<text text-anchor="middle" x="714" y="-63.5" font-family="Helvetica,sans-Serif" font-size="10.00">sstream</text>
</g>
<!-- Node10&#45;&gt;Node11 -->
<g id="edge15" class="edge"><title>Node10&#45;&gt;Node11</title>
<path fill="none" stroke="midnightblue" d="M554.106,-112.444C587.63,-102.916 641.805,-87.5187 677.661,-77.328"/>
<polygon fill="midnightblue" stroke="midnightblue" points="679.044,-80.5736 687.706,-74.473 677.13,-73.8403 679.044,-80.5736"/>
</g>
<!-- Node12 -->
<g id="node13" class="node"><title>Node12</title>
<polygon fill="none" stroke="#bfbfbf" points="552,-56.5 552,-75.5 602,-75.5 602,-56.5 552,-56.5"/>
<text text-anchor="middle" x="577" y="-63.5" font-family="Helvetica,sans-Serif" font-size="10.00">iomanip</text>
</g>
<!-- Node10&#45;&gt;Node12 -->
<g id="edge16" class="edge"><title>Node10&#45;&gt;Node12</title>
<path fill="none" stroke="midnightblue" d="M532.752,-112.083C540.47,-104.22 551.905,-92.5688 561.217,-83.0813"/>
<polygon fill="midnightblue" stroke="midnightblue" points="563.904,-85.3396 568.411,-75.7511 558.908,-80.4363 563.904,-85.3396"/>
</g>
<!-- Node13 -->
<g id="node14" class="node"><title>Node13</title>
<polygon fill="none" stroke="#bfbfbf" points="620,-56.5 620,-75.5 670,-75.5 670,-56.5 620,-56.5"/>
<text text-anchor="middle" x="645" y="-63.5" font-family="Helvetica,sans-Serif" font-size="10.00">fstream</text>
</g>
<!-- Node10&#45;&gt;Node13 -->
<g id="edge17" class="edge"><title>Node10&#45;&gt;Node13</title>
<path fill="none" stroke="midnightblue" d="M543.173,-112.444C562.909,-103.636 593.885,-89.8116 616.493,-79.722"/>
<polygon fill="midnightblue" stroke="midnightblue" points="618.211,-82.788 625.917,-75.5164 615.359,-76.3957 618.211,-82.788"/>
</g>
<!-- Node14&#45;&gt;Node8 -->
<g id="edge19" class="edge"><title>Node14&#45;&gt;Node8</title>
<path fill="none" stroke="midnightblue" d="M315.319,-224.324C323.893,-216.341 336.812,-204.313 347.188,-194.653"/>
<polygon fill="midnightblue" stroke="midnightblue" points="349.578,-197.21 354.512,-187.834 344.808,-192.086 349.578,-197.21"/>
</g>
<!-- Node15 -->
<g id="node16" class="node"><title>Node15</title>
<g id="a_node16"><a xlink:href="ProfileProcess_8h.html" target="_top" xlink:title="ProfileProcess.h">
<polygon fill="none" stroke="black" points="120.5,-168.5 120.5,-187.5 209.5,-187.5 209.5,-168.5 120.5,-168.5"/>
<text text-anchor="middle" x="165" y="-175.5" font-family="Helvetica,sans-Serif" font-size="10.00">ProfileProcess.h</text>
</a>
</g>
</g>
<!-- Node14&#45;&gt;Node15 -->
<g id="edge20" class="edge"><title>Node14&#45;&gt;Node15</title>
<path fill="none" stroke="midnightblue" d="M283.658,-224.444C260.247,-215.478 223.264,-201.314 196.81,-191.183"/>
<polygon fill="midnightblue" stroke="midnightblue" points="197.828,-187.824 187.237,-187.516 195.324,-194.361 197.828,-187.824"/>
</g>
<!-- Node15&#45;&gt;Node6 -->
<g id="edge28" class="edge"><title>Node15&#45;&gt;Node6</title>
<path fill="none" stroke="midnightblue" d="M156.026,-168.15C144.467,-155.624 126.887,-132.019 136,-112 154.389,-71.6058 197.798,-41.0888 225.987,-24.651"/>
<polygon fill="midnightblue" stroke="midnightblue" points="227.913,-27.5829 234.904,-19.6223 224.475,-21.4855 227.913,-27.5829"/>
</g>
<!-- Node16 -->
<g id="node17" class="node"><title>Node16</title>
<g id="a_node17"><a xlink:href="Chrono_8h.html" target="_top" xlink:title="Chrono.h">
<polygon fill="none" stroke="black" points="38,-56.5 38,-75.5 94,-75.5 94,-56.5 38,-56.5"/>
<text text-anchor="middle" x="66" y="-63.5" font-family="Helvetica,sans-Serif" font-size="10.00">Chrono.h</text>
</a>
</g>
</g>
<!-- Node15&#45;&gt;Node16 -->
<g id="edge21" class="edge"><title>Node15&#45;&gt;Node16</title>
<path fill="none" stroke="midnightblue" d="M149.559,-168.371C136.069,-160.273 116.574,-147.161 103,-132 90.4383,-117.97 80.2344,-98.9744 73.7485,-85.1429"/>
<polygon fill="midnightblue" stroke="midnightblue" points="76.8187,-83.4352 69.536,-75.7402 70.4305,-86.2972 76.8187,-83.4352"/>
</g>
<!-- Node19 -->
<g id="node20" class="node"><title>Node19</title>
<g id="a_node20"><a xlink:href="StateSpace_8h.html" target="_top" xlink:title="StateSpace.h">
<polygon fill="none" stroke="black" points="199,-112.5 199,-131.5 275,-131.5 275,-112.5 199,-112.5"/>
<text text-anchor="middle" x="237" y="-119.5" font-family="Helvetica,sans-Serif" font-size="10.00">StateSpace.h</text>
</a>
</g>
</g>
<!-- Node15&#45;&gt;Node19 -->
<g id="edge26" class="edge"><title>Node15&#45;&gt;Node19</title>
<path fill="none" stroke="midnightblue" d="M176.568,-168.324C187.42,-160.185 203.881,-147.839 216.883,-138.087"/>
<polygon fill="midnightblue" stroke="midnightblue" points="219.321,-140.634 225.221,-131.834 215.121,-135.034 219.321,-140.634"/>
</g>
<!-- Node20 -->
<g id="node21" class="node"><title>Node20</title>
<polygon fill="none" stroke="#bfbfbf" points="145.5,-112.5 145.5,-131.5 180.5,-131.5 180.5,-112.5 145.5,-112.5"/>
<text text-anchor="middle" x="163" y="-119.5" font-family="Helvetica,sans-Serif" font-size="10.00">map</text>
</g>
<!-- Node15&#45;&gt;Node20 -->
<g id="edge29" class="edge"><title>Node15&#45;&gt;Node20</title>
<path fill="none" stroke="midnightblue" d="M164.67,-168.083C164.408,-161.006 164.032,-150.861 163.703,-141.986"/>
<polygon fill="midnightblue" stroke="midnightblue" points="167.192,-141.615 163.324,-131.751 160.197,-141.874 167.192,-141.615"/>
</g>
<!-- Node16&#45;&gt;Node5 -->
<g id="edge25" class="edge"><title>Node16&#45;&gt;Node5</title>
<path fill="none" stroke="midnightblue" d="M94.0657,-59.4615C136.216,-51.1093 218.356,-34.7015 288,-20 290.808,-19.4073 293.721,-18.7841 296.642,-18.1536"/>
<polygon fill="midnightblue" stroke="midnightblue" points="297.431,-21.5641 306.457,-16.0167 295.942,-14.7243 297.431,-21.5641"/>
</g>
<!-- Node16&#45;&gt;Node6 -->
<g id="edge24" class="edge"><title>Node16&#45;&gt;Node6</title>
<path fill="none" stroke="midnightblue" d="M94.2494,-56.7986C126.531,-47.4266 179.475,-32.0557 215.019,-21.7366"/>
<polygon fill="midnightblue" stroke="midnightblue" points="216.371,-24.9884 224.999,-18.839 214.42,-18.2659 216.371,-24.9884"/>
</g>
<!-- Node17 -->
<g id="node18" class="node"><title>Node17</title>
<polygon fill="none" stroke="#bfbfbf" points="80.5,-0.5 80.5,-19.5 121.5,-19.5 121.5,-0.5 80.5,-0.5"/>
<text text-anchor="middle" x="101" y="-7.5" font-family="Helvetica,sans-Serif" font-size="10.00">ctime</text>
</g>
<!-- Node16&#45;&gt;Node17 -->
<g id="edge22" class="edge"><title>Node16&#45;&gt;Node17</title>
<path fill="none" stroke="midnightblue" d="M71.7795,-56.083C76.6724,-48.5341 83.8274,-37.4948 89.8326,-28.2298"/>
<polygon fill="midnightblue" stroke="midnightblue" points="92.826,-30.0463 95.328,-19.7511 86.952,-26.239 92.826,-30.0463"/>
</g>
<!-- Node18 -->
<g id="node19" class="node"><title>Node18</title>
<polygon fill="none" stroke="#bfbfbf" points="0,-0.5 0,-19.5 62,-19.5 62,-0.5 0,-0.5"/>
<text text-anchor="middle" x="31" y="-7.5" font-family="Helvetica,sans-Serif" font-size="10.00">sys/time.h</text>
</g>
<!-- Node16&#45;&gt;Node18 -->
<g id="edge23" class="edge"><title>Node16&#45;&gt;Node18</title>
<path fill="none" stroke="midnightblue" d="M60.2205,-56.083C55.3276,-48.5341 48.1726,-37.4948 42.1674,-28.2298"/>
<polygon fill="midnightblue" stroke="midnightblue" points="45.048,-26.239 36.672,-19.7511 39.174,-30.0463 45.048,-26.239"/>
</g>
<!-- Node19&#45;&gt;Node4 -->
<g id="edge27" class="edge"><title>Node19&#45;&gt;Node4</title>
<path fill="none" stroke="midnightblue" d="M253.227,-112.324C269.351,-103.703 294.3,-90.3643 312.964,-80.3855"/>
<polygon fill="midnightblue" stroke="midnightblue" points="314.644,-83.456 321.813,-75.6545 311.344,-77.283 314.644,-83.456"/>
</g>
<!-- Node21&#45;&gt;Node14 -->
<g id="edge31" class="edge"><title>Node21&#45;&gt;Node14</title>
<path fill="none" stroke="midnightblue" d="M283.459,-280.083C287.154,-272.691 292.523,-261.953 297.094,-252.811"/>
<polygon fill="midnightblue" stroke="midnightblue" points="300.283,-254.261 301.624,-243.751 294.022,-251.13 300.283,-254.261"/>
</g>
<!-- Node22 -->
<g id="node23" class="node"><title>Node22</title>
<g id="a_node23"><a xlink:href="MixtureProfileProcess_8h.html" target="_top" xlink:title="MixtureProfileProcess.h">
<polygon fill="none" stroke="black" points="108.5,-224.5 108.5,-243.5 229.5,-243.5 229.5,-224.5 108.5,-224.5"/>
<text text-anchor="middle" x="169" y="-231.5" font-family="Helvetica,sans-Serif" font-size="10.00">MixtureProfileProcess.h</text>
</a>
</g>
</g>
<!-- Node21&#45;&gt;Node22 -->
<g id="edge32" class="edge"><title>Node21&#45;&gt;Node22</title>
<path fill="none" stroke="midnightblue" d="M261.327,-280.324C243.606,-271.625 216.097,-258.12 195.712,-248.113"/>
<polygon fill="midnightblue" stroke="midnightblue" points="197.149,-244.919 186.63,-243.655 194.064,-251.203 197.149,-244.919"/>
</g>
<!-- Node22&#45;&gt;Node9 -->
<g id="edge33" class="edge"><title>Node22&#45;&gt;Node9</title>
<path fill="none" stroke="midnightblue" d="M182.979,-224.309C226.505,-197.248 359.883,-114.324 413.417,-81.0406"/>
<polygon fill="midnightblue" stroke="midnightblue" points="415.515,-83.8575 422.159,-75.6051 411.819,-77.9128 415.515,-83.8575"/>
</g>
<!-- Node22&#45;&gt;Node15 -->
<g id="edge34" class="edge"><title>Node22&#45;&gt;Node15</title>
<path fill="none" stroke="midnightblue" d="M168.339,-224.083C167.815,-217.006 167.064,-206.861 166.406,-197.986"/>
<polygon fill="midnightblue" stroke="midnightblue" points="169.877,-197.465 165.648,-187.751 162.897,-197.982 169.877,-197.465"/>
</g>
</g>
</svg>
