<?xml version="1.0" encoding="UTF-8" standalone="no"?>
<!DOCTYPE svg PUBLIC "-//W3C//DTD SVG 1.1//EN"
 "http://www.w3.org/Graphics/SVG/1.1/DTD/svg11.dtd">
<!-- Generated by graphviz version 2.38.0 (20140413.2041)
 -->
<!-- Title: GTRMixtureProfileProcess.h Pages: 1 -->
<svg width="1634pt" height="352pt"
 viewBox="0.00 0.00 1634.00 352.00" xmlns="http://www.w3.org/2000/svg" xmlns:xlink="http://www.w3.org/1999/xlink">
<g id="graph0" class="graph" transform="scale(1 1) rotate(0) translate(4 348)">
<title>GTRMixtureProfileProcess.h</title>
<!-- Node22 -->
<g id="node1" class="node"><title>Node22</title>
<polygon fill="#bfbfbf" stroke="black" points="1107,-324.5 1107,-343.5 1249,-343.5 1249,-324.5 1107,-324.5"/>
<text text-anchor="middle" x="1178" y="-331.5" font-family="Helvetica,sans-Serif" font-size="10.00">GTRMixtureProfileProcess.h</text>
</g>
<!-- Node23 -->
<g id="node2" class="node"><title>Node23</title>
<g id="a_node2"><a xlink:href="ExpoConjugateGTRMixtureProfileProcess_8h.html" target="_top" xlink:title="ExpoConjugateGTRMixtureProfile\lProcess.h">
<polygon fill="none" stroke="black" points="554,-257.5 554,-287.5 718,-287.5 718,-257.5 554,-257.5"/>
<text text-anchor="start" x="562" y="-275.5" font-family="Helvetica,sans-Serif" font-size="10.00">ExpoConjugateGTRMixtureProfile</text>
<text text-anchor="middle" x="636" y="-264.5" font-family="Helvetica,sans-Serif" font-size="10.00">Process.h</text>
</a>
</g>
</g>
<!-- Node22&#45;&gt;Node23 -->
<g id="edge1" class="edge"><title>Node22&#45;&gt;Node23</title>
<path fill="none" stroke="midnightblue" d="M1096.92,-324.1C994.957,-312.906 820.85,-293.793 718.307,-282.536"/>
<polygon fill="midnightblue" stroke="midnightblue" points="1096.54,-327.579 1106.86,-325.191 1097.31,-320.62 1096.54,-327.579"/>
</g>
<!-- Node40 -->
<g id="node19" class="node"><title>Node40</title>
<g id="a_node19"><a xlink:href="GeneralPathSuffStatGTRDPProfileProcess_8h.html" target="_top" xlink:title="GeneralPathSuffStatGTRDPProfile\lProcess.h">
<polygon fill="none" stroke="black" points="914,-257.5 914,-287.5 1084,-287.5 1084,-257.5 914,-257.5"/>
<text text-anchor="start" x="922" y="-275.5" font-family="Helvetica,sans-Serif" font-size="10.00">GeneralPathSuffStatGTRDPProfile</text>
<text text-anchor="middle" x="999" y="-264.5" font-family="Helvetica,sans-Serif" font-size="10.00">Process.h</text>
</a>
</g>
</g>
<!-- Node22&#45;&gt;Node40 -->
<g id="edge19" class="edge"><title>Node22&#45;&gt;Node40</title>
<path fill="none" stroke="midnightblue" d="M1142.59,-321.23C1113.44,-311.542 1072.05,-297.782 1041.19,-287.523"/>
<polygon fill="midnightblue" stroke="midnightblue" points="1141.76,-324.642 1152.35,-324.475 1143.97,-317.999 1141.76,-324.642"/>
</g>
<!-- Node42 -->
<g id="node21" class="node"><title>Node42</title>
<g id="a_node21"><a xlink:href="GeneralPathSuffStatGTRFiniteProfileProcess_8h.html" target="_top" xlink:title="GeneralPathSuffStatGTRFinite\lProfileProcess.h">
<polygon fill="none" stroke="black" points="1102,-257.5 1102,-287.5 1254,-287.5 1254,-257.5 1102,-257.5"/>
<text text-anchor="start" x="1110" y="-275.5" font-family="Helvetica,sans-Serif" font-size="10.00">GeneralPathSuffStatGTRFinite</text>
<text text-anchor="middle" x="1178" y="-264.5" font-family="Helvetica,sans-Serif" font-size="10.00">ProfileProcess.h</text>
</a>
</g>
</g>
<!-- Node22&#45;&gt;Node42 -->
<g id="edge21" class="edge"><title>Node22&#45;&gt;Node42</title>
<path fill="none" stroke="midnightblue" d="M1178,-314.235C1178,-305.586 1178,-295.497 1178,-287.523"/>
<polygon fill="midnightblue" stroke="midnightblue" points="1174.5,-314.475 1178,-324.475 1181.5,-314.475 1174.5,-314.475"/>
</g>
<!-- Node44 -->
<g id="node23" class="node"><title>Node44</title>
<g id="a_node23"><a xlink:href="GeneralPathSuffStatGTRSBDPProfileProcess_8h.html" target="_top" xlink:title="GeneralPathSuffStatGTRSBDPProfile\lProcess.h">
<polygon fill="none" stroke="black" points="1272.5,-257.5 1272.5,-287.5 1455.5,-287.5 1455.5,-257.5 1272.5,-257.5"/>
<text text-anchor="start" x="1280.5" y="-275.5" font-family="Helvetica,sans-Serif" font-size="10.00">GeneralPathSuffStatGTRSBDPProfile</text>
<text text-anchor="middle" x="1364" y="-264.5" font-family="Helvetica,sans-Serif" font-size="10.00">Process.h</text>
</a>
</g>
</g>
<!-- Node22&#45;&gt;Node44 -->
<g id="edge23" class="edge"><title>Node22&#45;&gt;Node44</title>
<path fill="none" stroke="midnightblue" d="M1214.4,-321.357C1244.7,-311.662 1287.95,-297.826 1320.16,-287.523"/>
<polygon fill="midnightblue" stroke="midnightblue" points="1213.11,-318.095 1204.65,-324.475 1215.24,-324.762 1213.11,-318.095"/>
</g>
<!-- Node46 -->
<g id="node25" class="node"><title>Node46</title>
<g id="a_node25"><a xlink:href="GTRMixtureProfileProcess_8cpp.html" target="_top" xlink:title="GTRMixtureProfileProcess.cpp">
<polygon fill="none" stroke="black" points="1474,-263 1474,-282 1626,-282 1626,-263 1474,-263"/>
<text text-anchor="middle" x="1550" y="-270" font-family="Helvetica,sans-Serif" font-size="10.00">GTRMixtureProfileProcess.cpp</text>
</a>
</g>
</g>
<!-- Node22&#45;&gt;Node46 -->
<g id="edge25" class="edge"><title>Node22&#45;&gt;Node46</title>
<path fill="none" stroke="midnightblue" d="M1243.51,-322.901C1301.5,-313.912 1388.42,-300.317 1464,-288 1475.66,-286.1 1488.19,-284.012 1499.99,-282.027"/>
<polygon fill="midnightblue" stroke="midnightblue" points="1242.74,-319.479 1233.39,-324.469 1243.81,-326.397 1242.74,-319.479"/>
</g>
<!-- Node24 -->
<g id="node3" class="node"><title>Node24</title>
<g id="a_node3"><a xlink:href="ExpoConjugateGTRDPProfileProcess_8h.html" target="_top" xlink:title="ExpoConjugateGTRDPProfile\lProcess.h">
<polygon fill="none" stroke="black" points="190,-190.5 190,-220.5 336,-220.5 336,-190.5 190,-190.5"/>
<text text-anchor="start" x="198" y="-208.5" font-family="Helvetica,sans-Serif" font-size="10.00">ExpoConjugateGTRDPProfile</text>
<text text-anchor="middle" x="263" y="-197.5" font-family="Helvetica,sans-Serif" font-size="10.00">Process.h</text>
</a>
</g>
</g>
<!-- Node23&#45;&gt;Node24 -->
<g id="edge2" class="edge"><title>Node23&#45;&gt;Node24</title>
<path fill="none" stroke="midnightblue" d="M545.396,-255.711C481.13,-244.512 395.994,-229.676 336.062,-219.232"/>
<polygon fill="midnightblue" stroke="midnightblue" points="545.071,-259.207 555.524,-257.476 546.273,-252.311 545.071,-259.207"/>
</g>
<!-- Node28 -->
<g id="node7" class="node"><title>Node28</title>
<g id="a_node7"><a xlink:href="ExpoConjugateGTRFiniteProfileProcess_8h.html" target="_top" xlink:title="ExpoConjugateGTRFiniteProfile\lProcess.h">
<polygon fill="none" stroke="black" points="380,-190.5 380,-220.5 536,-220.5 536,-190.5 380,-190.5"/>
<text text-anchor="start" x="388" y="-208.5" font-family="Helvetica,sans-Serif" font-size="10.00">ExpoConjugateGTRFiniteProfile</text>
<text text-anchor="middle" x="458" y="-197.5" font-family="Helvetica,sans-Serif" font-size="10.00">Process.h</text>
</a>
</g>
</g>
<!-- Node23&#45;&gt;Node28 -->
<g id="edge6" class="edge"><title>Node23&#45;&gt;Node28</title>
<path fill="none" stroke="midnightblue" d="M587.954,-253.955C559.281,-243.485 523.355,-230.366 496.548,-220.577"/>
<polygon fill="midnightblue" stroke="midnightblue" points="586.783,-257.253 597.377,-257.396 589.184,-250.678 586.783,-257.253"/>
</g>
<!-- Node35 -->
<g id="node14" class="node"><title>Node35</title>
<g id="a_node14"><a xlink:href="ExpoConjugateGTRMixtureProfileProcess_8cpp.html" target="_top" xlink:title="ExpoConjugateGTRMixtureProfile\lProcess.cpp">
<polygon fill="none" stroke="black" points="554,-190.5 554,-220.5 718,-220.5 718,-190.5 554,-190.5"/>
<text text-anchor="start" x="562" y="-208.5" font-family="Helvetica,sans-Serif" font-size="10.00">ExpoConjugateGTRMixtureProfile</text>
<text text-anchor="middle" x="636" y="-197.5" font-family="Helvetica,sans-Serif" font-size="10.00">Process.cpp</text>
</a>
</g>
</g>
<!-- Node23&#45;&gt;Node35 -->
<g id="edge13" class="edge"><title>Node23&#45;&gt;Node35</title>
<path fill="none" stroke="midnightblue" d="M636,-247.108C636,-238.154 636,-228.323 636,-220.577"/>
<polygon fill="midnightblue" stroke="midnightblue" points="632.5,-247.396 636,-257.396 639.5,-247.396 632.5,-247.396"/>
</g>
<!-- Node36 -->
<g id="node15" class="node"><title>Node36</title>
<g id="a_node15"><a xlink:href="ExpoConjugateGTRSBDPProfileProcess_8h.html" target="_top" xlink:title="ExpoConjugateGTRSBDPProfile\lProcess.h">
<polygon fill="none" stroke="black" points="736,-190.5 736,-220.5 896,-220.5 896,-190.5 736,-190.5"/>
<text text-anchor="start" x="744" y="-208.5" font-family="Helvetica,sans-Serif" font-size="10.00">ExpoConjugateGTRSBDPProfile</text>
<text text-anchor="middle" x="816" y="-197.5" font-family="Helvetica,sans-Serif" font-size="10.00">Process.h</text>
</a>
</g>
</g>
<!-- Node23&#45;&gt;Node36 -->
<g id="edge14" class="edge"><title>Node23&#45;&gt;Node36</title>
<path fill="none" stroke="midnightblue" d="M684.585,-253.955C713.581,-243.485 749.911,-230.366 777.019,-220.577"/>
<polygon fill="midnightblue" stroke="midnightblue" points="683.274,-250.708 675.057,-257.396 685.652,-257.291 683.274,-250.708"/>
</g>
<!-- Node25 -->
<g id="node4" class="node"><title>Node25</title>
<g id="a_node4"><a xlink:href="ExpoConjugateGTRDPProfileProcess_8cpp.html" target="_top" xlink:title="ExpoConjugateGTRDPProfile\lProcess.cpp">
<polygon fill="none" stroke="black" points="0,-123.5 0,-153.5 146,-153.5 146,-123.5 0,-123.5"/>
<text text-anchor="start" x="8" y="-141.5" font-family="Helvetica,sans-Serif" font-size="10.00">ExpoConjugateGTRDPProfile</text>
<text text-anchor="middle" x="73" y="-130.5" font-family="Helvetica,sans-Serif" font-size="10.00">Process.cpp</text>
</a>
</g>
</g>
<!-- Node24&#45;&gt;Node25 -->
<g id="edge3" class="edge"><title>Node24&#45;&gt;Node25</title>
<path fill="none" stroke="midnightblue" d="M212.114,-187.092C181.443,-176.599 142.886,-163.408 114.147,-153.577"/>
<polygon fill="midnightblue" stroke="midnightblue" points="211.178,-190.471 221.773,-190.396 213.444,-183.847 211.178,-190.471"/>
</g>
<!-- Node26 -->
<g id="node5" class="node"><title>Node26</title>
<g id="a_node5"><a xlink:href="RASCATGTRDPGammaPhyloProcess_8h.html" target="_top" xlink:title="RASCATGTRDPGammaPhyloProcess.h">
<polygon fill="none" stroke="black" points="164.5,-129 164.5,-148 361.5,-148 361.5,-129 164.5,-129"/>
<text text-anchor="middle" x="263" y="-136" font-family="Helvetica,sans-Serif" font-size="10.00">RASCATGTRDPGammaPhyloProcess.h</text>
</a>
</g>
</g>
<!-- Node24&#45;&gt;Node26 -->
<g id="edge4" class="edge"><title>Node24&#45;&gt;Node26</title>
<path fill="none" stroke="midnightblue" d="M263,-180.25C263,-169.017 263,-156.377 263,-148.195"/>
<polygon fill="midnightblue" stroke="midnightblue" points="259.5,-180.396 263,-190.396 266.5,-180.396 259.5,-180.396"/>
</g>
<!-- Node27 -->
<g id="node6" class="node"><title>Node27</title>
<g id="a_node6"><a xlink:href="RASCATGTRDPGammaPhyloProcess_8cpp.html" target="_top" xlink:title="RASCATGTRDPGammaPhyloProcess.cpp">
<polygon fill="none" stroke="black" points="159.5,-62 159.5,-81 366.5,-81 366.5,-62 159.5,-62"/>
<text text-anchor="middle" x="263" y="-69" font-family="Helvetica,sans-Serif" font-size="10.00">RASCATGTRDPGammaPhyloProcess.cpp</text>
</a>
</g>
</g>
<!-- Node26&#45;&gt;Node27 -->
<g id="edge5" class="edge"><title>Node26&#45;&gt;Node27</title>
<path fill="none" stroke="midnightblue" d="M263,-118.537C263,-106.17 263,-90.6198 263,-81.1273"/>
<polygon fill="midnightblue" stroke="midnightblue" points="259.5,-118.734 263,-128.734 266.5,-118.734 259.5,-118.734"/>
</g>
<!-- Node29 -->
<g id="node8" class="node"><title>Node29</title>
<g id="a_node8"><a xlink:href="ExpoConjugateGTRFiniteProfileProcess_8cpp.html" target="_top" xlink:title="ExpoConjugateGTRFiniteProfile\lProcess.cpp">
<polygon fill="none" stroke="black" points="380,-123.5 380,-153.5 536,-153.5 536,-123.5 380,-123.5"/>
<text text-anchor="start" x="388" y="-141.5" font-family="Helvetica,sans-Serif" font-size="10.00">ExpoConjugateGTRFiniteProfile</text>
<text text-anchor="middle" x="458" y="-130.5" font-family="Helvetica,sans-Serif" font-size="10.00">Process.cpp</text>
</a>
</g>
</g>
<!-- Node28&#45;&gt;Node29 -->
<g id="edge7" class="edge"><title>Node28&#45;&gt;Node29</title>
<path fill="none" stroke="midnightblue" d="M458,-180.108C458,-171.154 458,-161.323 458,-153.577"/>
<polygon fill="midnightblue" stroke="midnightblue" points="454.5,-180.396 458,-190.396 461.5,-180.396 454.5,-180.396"/>
</g>
<!-- Node30 -->
<g id="node9" class="node"><title>Node30</title>
<g id="a_node9"><a xlink:href="RASCATGTRFiniteGammaPhyloProcess_8h.html" target="_top" xlink:title="RASCATGTRFiniteGammaPhylo\lProcess.h">
<polygon fill="none" stroke="black" points="554,-123.5 554,-153.5 716,-153.5 716,-123.5 554,-123.5"/>
<text text-anchor="start" x="562" y="-141.5" font-family="Helvetica,sans-Serif" font-size="10.00">RASCATGTRFiniteGammaPhylo</text>
<text text-anchor="middle" x="635" y="-130.5" font-family="Helvetica,sans-Serif" font-size="10.00">Process.h</text>
</a>
</g>
</g>
<!-- Node28&#45;&gt;Node30 -->
<g id="edge8" class="edge"><title>Node28&#45;&gt;Node30</title>
<path fill="none" stroke="midnightblue" d="M506.148,-186.819C534.598,-176.371 570.128,-163.323 596.669,-153.577"/>
<polygon fill="midnightblue" stroke="midnightblue" points="504.587,-183.663 496.406,-190.396 507,-190.234 504.587,-183.663"/>
</g>
<!-- Node31 -->
<g id="node10" class="node"><title>Node31</title>
<g id="a_node10"><a xlink:href="Model_8h.html" target="_top" xlink:title="Model.h">
<polygon fill="none" stroke="black" points="786.5,-62 786.5,-81 837.5,-81 837.5,-62 786.5,-62"/>
<text text-anchor="middle" x="812" y="-69" font-family="Helvetica,sans-Serif" font-size="10.00">Model.h</text>
</a>
</g>
</g>
<!-- Node30&#45;&gt;Node31 -->
<g id="edge9" class="edge"><title>Node30&#45;&gt;Node31</title>
<path fill="none" stroke="midnightblue" d="M682.801,-119.946C717.179,-107.321 762.031,-90.8502 788.835,-81.007"/>
<polygon fill="midnightblue" stroke="midnightblue" points="681.587,-116.663 673.406,-123.396 684,-123.234 681.587,-116.663"/>
</g>
<!-- Node34 -->
<g id="node13" class="node"><title>Node34</title>
<g id="a_node13"><a xlink:href="RASCATGTRFiniteGammaPhyloProcess_8cpp.html" target="_top" xlink:title="RASCATGTRFiniteGammaPhylo\lProcess.cpp">
<polygon fill="none" stroke="black" points="554,-56.5 554,-86.5 716,-86.5 716,-56.5 554,-56.5"/>
<text text-anchor="start" x="562" y="-74.5" font-family="Helvetica,sans-Serif" font-size="10.00">RASCATGTRFiniteGammaPhylo</text>
<text text-anchor="middle" x="635" y="-63.5" font-family="Helvetica,sans-Serif" font-size="10.00">Process.cpp</text>
</a>
</g>
</g>
<!-- Node30&#45;&gt;Node34 -->
<g id="edge12" class="edge"><title>Node30&#45;&gt;Node34</title>
<path fill="none" stroke="midnightblue" d="M635,-113.108C635,-104.154 635,-94.3227 635,-86.5765"/>
<polygon fill="midnightblue" stroke="midnightblue" points="631.5,-113.396 635,-123.396 638.5,-113.396 631.5,-113.396"/>
</g>
<!-- Node32 -->
<g id="node11" class="node"><title>Node32</title>
<g id="a_node11"><a xlink:href="PB_8cpp.html" target="_top" xlink:title="PB.cpp">
<polygon fill="none" stroke="black" points="747.5,-0.5 747.5,-19.5 796.5,-19.5 796.5,-0.5 747.5,-0.5"/>
<text text-anchor="middle" x="772" y="-7.5" font-family="Helvetica,sans-Serif" font-size="10.00">PB.cpp</text>
</a>
</g>
</g>
<!-- Node31&#45;&gt;Node32 -->
<g id="edge10" class="edge"><title>Node31&#45;&gt;Node32</title>
<path fill="none" stroke="midnightblue" d="M800.575,-53.5051C793.101,-42.388 783.657,-28.3395 777.72,-19.5091"/>
<polygon fill="midnightblue" stroke="midnightblue" points="797.785,-55.6288 806.269,-61.9751 803.594,-51.7234 797.785,-55.6288"/>
</g>
<!-- Node33 -->
<g id="node12" class="node"><title>Node33</title>
<g id="a_node12"><a xlink:href="ReadPB_8cpp.html" target="_top" xlink:title="ReadPB.cpp">
<polygon fill="none" stroke="black" points="815,-0.5 815,-19.5 887,-19.5 887,-0.5 815,-0.5"/>
<text text-anchor="middle" x="851" y="-7.5" font-family="Helvetica,sans-Serif" font-size="10.00">ReadPB.cpp</text>
</a>
</g>
</g>
<!-- Node31&#45;&gt;Node33 -->
<g id="edge11" class="edge"><title>Node31&#45;&gt;Node33</title>
<path fill="none" stroke="midnightblue" d="M823.14,-53.5051C830.426,-42.388 839.635,-28.3395 845.423,-19.5091"/>
<polygon fill="midnightblue" stroke="midnightblue" points="820.143,-51.6929 817.588,-61.9751 825.997,-55.5303 820.143,-51.6929"/>
</g>
<!-- Node37 -->
<g id="node16" class="node"><title>Node37</title>
<g id="a_node16"><a xlink:href="ExpoConjugateGTRSBDPProfileProcess_8cpp.html" target="_top" xlink:title="ExpoConjugateGTRSBDPProfile\lProcess.cpp">
<polygon fill="none" stroke="black" points="734,-123.5 734,-153.5 894,-153.5 894,-123.5 734,-123.5"/>
<text text-anchor="start" x="742" y="-141.5" font-family="Helvetica,sans-Serif" font-size="10.00">ExpoConjugateGTRSBDPProfile</text>
<text text-anchor="middle" x="814" y="-130.5" font-family="Helvetica,sans-Serif" font-size="10.00">Process.cpp</text>
</a>
</g>
</g>
<!-- Node36&#45;&gt;Node37 -->
<g id="edge15" class="edge"><title>Node36&#45;&gt;Node37</title>
<path fill="none" stroke="midnightblue" d="M815.249,-180.108C814.974,-171.154 814.671,-161.323 814.433,-153.577"/>
<polygon fill="midnightblue" stroke="midnightblue" points="811.76,-180.508 815.566,-190.396 818.757,-180.293 811.76,-180.508"/>
</g>
<!-- Node38 -->
<g id="node17" class="node"><title>Node38</title>
<g id="a_node17"><a xlink:href="RASCATGTRSBDPGammaPhyloProcess_8h.html" target="_top" xlink:title="RASCATGTRSBDPGammaPhyloProcess.h">
<polygon fill="none" stroke="black" points="912,-129 912,-148 1122,-148 1122,-129 912,-129"/>
<text text-anchor="middle" x="1017" y="-136" font-family="Helvetica,sans-Serif" font-size="10.00">RASCATGTRSBDPGammaPhyloProcess.h</text>
</a>
</g>
</g>
<!-- Node36&#45;&gt;Node38 -->
<g id="edge16" class="edge"><title>Node36&#45;&gt;Node38</title>
<path fill="none" stroke="midnightblue" d="M869.284,-187.269C908.45,-174.603 959.995,-157.934 990.694,-148.007"/>
<polygon fill="midnightblue" stroke="midnightblue" points="868.052,-183.989 859.614,-190.396 870.206,-190.649 868.052,-183.989"/>
</g>
<!-- Node38&#45;&gt;Node31 -->
<g id="edge17" class="edge"><title>Node38&#45;&gt;Node31</title>
<path fill="none" stroke="midnightblue" d="M980.137,-125.812C939.039,-112.781 873.64,-92.0443 837.718,-80.6544"/>
<polygon fill="midnightblue" stroke="midnightblue" points="979.187,-129.182 989.778,-128.869 981.303,-122.51 979.187,-129.182"/>
</g>
<!-- Node39 -->
<g id="node18" class="node"><title>Node39</title>
<g id="a_node18"><a xlink:href="RASCATGTRSBDPGammaPhyloProcess_8cpp.html" target="_top" xlink:title="RASCATGTRSBDPGammaPhyloProcess.cpp">
<polygon fill="none" stroke="black" points="906.5,-62 906.5,-81 1127.5,-81 1127.5,-62 906.5,-62"/>
<text text-anchor="middle" x="1017" y="-69" font-family="Helvetica,sans-Serif" font-size="10.00">RASCATGTRSBDPGammaPhyloProcess.cpp</text>
</a>
</g>
</g>
<!-- Node38&#45;&gt;Node39 -->
<g id="edge18" class="edge"><title>Node38&#45;&gt;Node39</title>
<path fill="none" stroke="midnightblue" d="M1017,-118.537C1017,-106.17 1017,-90.6198 1017,-81.1273"/>
<polygon fill="midnightblue" stroke="midnightblue" points="1013.5,-118.734 1017,-128.734 1020.5,-118.734 1013.5,-118.734"/>
</g>
<!-- Node41 -->
<g id="node20" class="node"><title>Node41</title>
<g id="a_node20"><a xlink:href="GeneralPathSuffStatGTRDPProfileProcess_8cpp.html" target="_top" xlink:title="GeneralPathSuffStatGTRDPProfile\lProcess.cpp">
<polygon fill="none" stroke="black" points="914,-190.5 914,-220.5 1084,-220.5 1084,-190.5 914,-190.5"/>
<text text-anchor="start" x="922" y="-208.5" font-family="Helvetica,sans-Serif" font-size="10.00">GeneralPathSuffStatGTRDPProfile</text>
<text text-anchor="middle" x="999" y="-197.5" font-family="Helvetica,sans-Serif" font-size="10.00">Process.cpp</text>
</a>
</g>
</g>
<!-- Node40&#45;&gt;Node41 -->
<g id="edge20" class="edge"><title>Node40&#45;&gt;Node41</title>
<path fill="none" stroke="midnightblue" d="M999,-247.108C999,-238.154 999,-228.323 999,-220.577"/>
<polygon fill="midnightblue" stroke="midnightblue" points="995.5,-247.396 999,-257.396 1002.5,-247.396 995.5,-247.396"/>
</g>
<!-- Node43 -->
<g id="node22" class="node"><title>Node43</title>
<g id="a_node22"><a xlink:href="GeneralPathSuffStatGTRFiniteProfileProcess_8cpp.html" target="_top" xlink:title="GeneralPathSuffStatGTRFinite\lProfileProcess.cpp">
<polygon fill="none" stroke="black" points="1102,-190.5 1102,-220.5 1254,-220.5 1254,-190.5 1102,-190.5"/>
<text text-anchor="start" x="1110" y="-208.5" font-family="Helvetica,sans-Serif" font-size="10.00">GeneralPathSuffStatGTRFinite</text>
<text text-anchor="middle" x="1178" y="-197.5" font-family="Helvetica,sans-Serif" font-size="10.00">ProfileProcess.cpp</text>
</a>
</g>
</g>
<!-- Node42&#45;&gt;Node43 -->
<g id="edge22" class="edge"><title>Node42&#45;&gt;Node43</title>
<path fill="none" stroke="midnightblue" d="M1178,-247.108C1178,-238.154 1178,-228.323 1178,-220.577"/>
<polygon fill="midnightblue" stroke="midnightblue" points="1174.5,-247.396 1178,-257.396 1181.5,-247.396 1174.5,-247.396"/>
</g>
<!-- Node45 -->
<g id="node24" class="node"><title>Node45</title>
<g id="a_node24"><a xlink:href="GeneralPathSuffStatGTRSBDPProfileProcess_8cpp.html" target="_top" xlink:title="GeneralPathSuffStatGTRSBDPProfile\lProcess.cpp">
<polygon fill="none" stroke="black" points="1272.5,-190.5 1272.5,-220.5 1455.5,-220.5 1455.5,-190.5 1272.5,-190.5"/>
<text text-anchor="start" x="1280.5" y="-208.5" font-family="Helvetica,sans-Serif" font-size="10.00">GeneralPathSuffStatGTRSBDPProfile</text>
<text text-anchor="middle" x="1364" y="-197.5" font-family="Helvetica,sans-Serif" font-size="10.00">Process.cpp</text>
</a>
</g>
</g>
<!-- Node44&#45;&gt;Node45 -->
<g id="edge24" class="edge"><title>Node44&#45;&gt;Node45</title>
<path fill="none" stroke="midnightblue" d="M1364,-247.108C1364,-238.154 1364,-228.323 1364,-220.577"/>
<polygon fill="midnightblue" stroke="midnightblue" points="1360.5,-247.396 1364,-257.396 1367.5,-247.396 1360.5,-247.396"/>
</g>
</g>
</svg>
