<?xml version="1.0" encoding="UTF-8" standalone="no"?>
<!DOCTYPE svg PUBLIC "-//W3C//DTD SVG 1.1//EN"
 "http://www.w3.org/Graphics/SVG/1.1/DTD/svg11.dtd">
<!-- Generated by graphviz version 2.38.0 (20140413.2041)
 -->
<!-- Title: GTRProfileProcess.cpp Pages: 1 -->
<svg width="593pt" height="364pt"
 viewBox="0.00 0.00 592.50 364.00" xmlns="http://www.w3.org/2000/svg" xmlns:xlink="http://www.w3.org/1999/xlink">
<g id="graph0" class="graph" transform="scale(1 1) rotate(0) translate(4 360)">
<title>GTRProfileProcess.cpp</title>
<!-- Node0 -->
<g id="node1" class="node"><title>Node0</title>
<polygon fill="#bfbfbf" stroke="black" points="304.5,-336.5 304.5,-355.5 424.5,-355.5 424.5,-336.5 304.5,-336.5"/>
<text text-anchor="middle" x="364.5" y="-343.5" font-family="Helvetica,sans-Serif" font-size="10.00">GTRProfileProcess.cpp</text>
</g>
<!-- Node1 -->
<g id="node2" class="node"><title>Node1</title>
<g id="a_node2"><a xlink:href="Parallel_8h.html" target="_top" xlink:title="Parallel.h">
<polygon fill="none" stroke="black" points="218,-280.5 218,-299.5 275,-299.5 275,-280.5 218,-280.5"/>
<text text-anchor="middle" x="246.5" y="-287.5" font-family="Helvetica,sans-Serif" font-size="10.00">Parallel.h</text>
</a>
</g>
</g>
<!-- Node0&#45;&gt;Node1 -->
<g id="edge1" class="edge"><title>Node0&#45;&gt;Node1</title>
<path fill="none" stroke="midnightblue" d="M345.803,-336.444C326.556,-327.636 296.348,-313.812 274.3,-303.722"/>
<polygon fill="midnightblue" stroke="midnightblue" points="275.66,-300.495 265.11,-299.516 272.747,-306.86 275.66,-300.495"/>
</g>
<!-- Node3 -->
<g id="node4" class="node"><title>Node3</title>
<g id="a_node4"><a xlink:href="GTRProfileProcess_8h.html" target="_top" xlink:title="GTRProfileProcess.h">
<polygon fill="none" stroke="black" points="309.5,-280.5 309.5,-299.5 419.5,-299.5 419.5,-280.5 309.5,-280.5"/>
<text text-anchor="middle" x="364.5" y="-287.5" font-family="Helvetica,sans-Serif" font-size="10.00">GTRProfileProcess.h</text>
</a>
</g>
</g>
<!-- Node0&#45;&gt;Node3 -->
<g id="edge3" class="edge"><title>Node0&#45;&gt;Node3</title>
<path fill="none" stroke="midnightblue" d="M364.5,-336.083C364.5,-329.006 364.5,-318.861 364.5,-309.986"/>
<polygon fill="midnightblue" stroke="midnightblue" points="368,-309.751 364.5,-299.751 361,-309.751 368,-309.751"/>
</g>
<!-- Node11 -->
<g id="node12" class="node"><title>Node11</title>
<g id="a_node12"><a xlink:href="Random_8h.html" target="_top" xlink:title="Random.h">
<polygon fill="none" stroke="black" points="389.5,-56.5 389.5,-75.5 451.5,-75.5 451.5,-56.5 389.5,-56.5"/>
<text text-anchor="middle" x="420.5" y="-63.5" font-family="Helvetica,sans-Serif" font-size="10.00">Random.h</text>
</a>
</g>
</g>
<!-- Node0&#45;&gt;Node11 -->
<g id="edge31" class="edge"><title>Node0&#45;&gt;Node11</title>
<path fill="none" stroke="midnightblue" d="M381.288,-336.406C395.375,-328.508 415.264,-315.667 428.5,-300 449.156,-275.551 459.5,-267.006 459.5,-235 459.5,-235 459.5,-235 459.5,-177 459.5,-142.716 442.463,-105.698 430.91,-84.5372"/>
<polygon fill="midnightblue" stroke="midnightblue" points="433.903,-82.7198 425.923,-75.7504 427.815,-86.175 433.903,-82.7198"/>
</g>
<!-- Node2 -->
<g id="node3" class="node"><title>Node2</title>
<polygon fill="none" stroke="#bfbfbf" points="218,-224.5 218,-243.5 259,-243.5 259,-224.5 218,-224.5"/>
<text text-anchor="middle" x="238.5" y="-231.5" font-family="Helvetica,sans-Serif" font-size="10.00">mpi.h</text>
</g>
<!-- Node1&#45;&gt;Node2 -->
<g id="edge2" class="edge"><title>Node1&#45;&gt;Node2</title>
<path fill="none" stroke="midnightblue" d="M245.179,-280.083C244.119,-272.927 242.594,-262.635 241.269,-253.691"/>
<polygon fill="midnightblue" stroke="midnightblue" points="244.724,-253.13 239.796,-243.751 237.8,-254.156 244.724,-253.13"/>
</g>
<!-- Node4 -->
<g id="node5" class="node"><title>Node4</title>
<g id="a_node5"><a xlink:href="GTRSubMatrix_8h.html" target="_top" xlink:title="GTRSubMatrix.h">
<polygon fill="none" stroke="black" points="269.5,-168.5 269.5,-187.5 359.5,-187.5 359.5,-168.5 269.5,-168.5"/>
<text text-anchor="middle" x="314.5" y="-175.5" font-family="Helvetica,sans-Serif" font-size="10.00">GTRSubMatrix.h</text>
</a>
</g>
</g>
<!-- Node3&#45;&gt;Node4 -->
<g id="edge4" class="edge"><title>Node3&#45;&gt;Node4</title>
<path fill="none" stroke="midnightblue" d="M346.111,-280.471C332.399,-272.997 314.685,-260.71 306.5,-244 299.396,-229.498 302.638,-211.079 306.931,-197.555"/>
<polygon fill="midnightblue" stroke="midnightblue" points="310.304,-198.519 310.423,-187.925 303.724,-196.133 310.304,-198.519"/>
</g>
<!-- Node15 -->
<g id="node16" class="node"><title>Node15</title>
<g id="a_node16"><a xlink:href="MatrixProfileProcess_8h.html" target="_top" xlink:title="MatrixProfileProcess.h">
<polygon fill="none" stroke="black" points="315.5,-224.5 315.5,-243.5 431.5,-243.5 431.5,-224.5 315.5,-224.5"/>
<text text-anchor="middle" x="373.5" y="-231.5" font-family="Helvetica,sans-Serif" font-size="10.00">MatrixProfileProcess.h</text>
</a>
</g>
</g>
<!-- Node3&#45;&gt;Node15 -->
<g id="edge19" class="edge"><title>Node3&#45;&gt;Node15</title>
<path fill="none" stroke="midnightblue" d="M365.986,-280.083C367.179,-272.927 368.894,-262.635 370.385,-253.691"/>
<polygon fill="midnightblue" stroke="midnightblue" points="373.85,-254.19 372.041,-243.751 366.945,-253.04 373.85,-254.19"/>
</g>
<!-- Node5 -->
<g id="node6" class="node"><title>Node5</title>
<g id="a_node6"><a xlink:href="BiologicalSequences_8h.html" target="_top" xlink:title="BiologicalSequences.h">
<polygon fill="none" stroke="black" points="137.5,-56.5 137.5,-75.5 253.5,-75.5 253.5,-56.5 137.5,-56.5"/>
<text text-anchor="middle" x="195.5" y="-63.5" font-family="Helvetica,sans-Serif" font-size="10.00">BiologicalSequences.h</text>
</a>
</g>
</g>
<!-- Node4&#45;&gt;Node5 -->
<g id="edge5" class="edge"><title>Node4&#45;&gt;Node5</title>
<path fill="none" stroke="midnightblue" d="M308.669,-168.338C299.575,-155.213 281.023,-129.919 261.5,-112 248.674,-100.228 232.557,-89.1809 219.461,-80.9781"/>
<polygon fill="midnightblue" stroke="midnightblue" points="220.908,-77.7608 210.548,-75.5383 217.261,-83.7357 220.908,-77.7608"/>
</g>
<!-- Node9 -->
<g id="node10" class="node"><title>Node9</title>
<g id="a_node10"><a xlink:href="SubMatrix_8h.html" target="_top" xlink:title="SubMatrix.h">
<polygon fill="none" stroke="black" points="348,-112.5 348,-131.5 417,-131.5 417,-112.5 348,-112.5"/>
<text text-anchor="middle" x="382.5" y="-119.5" font-family="Helvetica,sans-Serif" font-size="10.00">SubMatrix.h</text>
</a>
</g>
</g>
<!-- Node4&#45;&gt;Node9 -->
<g id="edge9" class="edge"><title>Node4&#45;&gt;Node9</title>
<path fill="none" stroke="midnightblue" d="M325.425,-168.324C335.675,-160.185 351.221,-147.839 363.501,-138.087"/>
<polygon fill="midnightblue" stroke="midnightblue" points="365.721,-140.794 371.376,-131.834 361.368,-135.312 365.721,-140.794"/>
</g>
<!-- Node6 -->
<g id="node7" class="node"><title>Node6</title>
<polygon fill="none" stroke="#bfbfbf" points="140,-0.5 140,-19.5 185,-19.5 185,-0.5 140,-0.5"/>
<text text-anchor="middle" x="162.5" y="-7.5" font-family="Helvetica,sans-Serif" font-size="10.00">cstdlib</text>
</g>
<!-- Node5&#45;&gt;Node6 -->
<g id="edge6" class="edge"><title>Node5&#45;&gt;Node6</title>
<path fill="none" stroke="midnightblue" d="M190.051,-56.083C185.486,-48.6127 178.832,-37.7244 173.207,-28.5199"/>
<polygon fill="midnightblue" stroke="midnightblue" points="176.049,-26.4588 167.848,-19.7511 170.076,-30.109 176.049,-26.4588"/>
</g>
<!-- Node7 -->
<g id="node8" class="node"><title>Node7</title>
<polygon fill="none" stroke="#bfbfbf" points="262.5,-0.5 262.5,-19.5 316.5,-19.5 316.5,-0.5 262.5,-0.5"/>
<text text-anchor="middle" x="289.5" y="-7.5" font-family="Helvetica,sans-Serif" font-size="10.00">iostream</text>
</g>
<!-- Node5&#45;&gt;Node7 -->
<g id="edge7" class="edge"><title>Node5&#45;&gt;Node7</title>
<path fill="none" stroke="midnightblue" d="M210.603,-56.324C225.403,-47.8215 248.194,-34.7288 265.482,-24.7975"/>
<polygon fill="midnightblue" stroke="midnightblue" points="267.507,-27.6707 274.435,-19.6545 264.02,-21.6009 267.507,-27.6707"/>
</g>
<!-- Node8 -->
<g id="node9" class="node"><title>Node8</title>
<polygon fill="none" stroke="#bfbfbf" points="203,-0.5 203,-19.5 244,-19.5 244,-0.5 203,-0.5"/>
<text text-anchor="middle" x="223.5" y="-7.5" font-family="Helvetica,sans-Serif" font-size="10.00">string</text>
</g>
<!-- Node5&#45;&gt;Node8 -->
<g id="edge8" class="edge"><title>Node5&#45;&gt;Node8</title>
<path fill="none" stroke="midnightblue" d="M200.124,-56.083C203.956,-48.6913 209.524,-37.9533 214.265,-28.8111"/>
<polygon fill="midnightblue" stroke="midnightblue" points="217.466,-30.2398 218.962,-19.7511 211.252,-27.0175 217.466,-30.2398"/>
</g>
<!-- Node9&#45;&gt;Node7 -->
<g id="edge10" class="edge"><title>Node9&#45;&gt;Node7</title>
<path fill="none" stroke="midnightblue" d="M375.202,-112.368C359.719,-94.0547 323.36,-51.0489 303.334,-27.3624"/>
<polygon fill="midnightblue" stroke="midnightblue" points="305.893,-24.9682 296.764,-19.5914 300.547,-29.4877 305.893,-24.9682"/>
</g>
<!-- Node10 -->
<g id="node11" class="node"><title>Node10</title>
<polygon fill="none" stroke="#bfbfbf" points="334.5,-0.5 334.5,-19.5 378.5,-19.5 378.5,-0.5 334.5,-0.5"/>
<text text-anchor="middle" x="356.5" y="-7.5" font-family="Helvetica,sans-Serif" font-size="10.00">cmath</text>
</g>
<!-- Node9&#45;&gt;Node10 -->
<g id="edge11" class="edge"><title>Node9&#45;&gt;Node10</title>
<path fill="none" stroke="midnightblue" d="M380.46,-112.368C376.264,-94.617 366.585,-53.6664 360.896,-29.5974"/>
<polygon fill="midnightblue" stroke="midnightblue" points="364.237,-28.5182 358.531,-19.5914 357.425,-30.1284 364.237,-28.5182"/>
</g>
<!-- Node9&#45;&gt;Node11 -->
<g id="edge12" class="edge"><title>Node9&#45;&gt;Node11</title>
<path fill="none" stroke="midnightblue" d="M388.775,-112.083C394.142,-104.455 402.018,-93.2645 408.579,-83.9408"/>
<polygon fill="midnightblue" stroke="midnightblue" points="411.449,-85.9434 414.342,-75.7511 405.725,-81.9149 411.449,-85.9434"/>
</g>
<!-- Node11&#45;&gt;Node6 -->
<g id="edge14" class="edge"><title>Node11&#45;&gt;Node6</title>
<path fill="none" stroke="midnightblue" d="M389.472,-59.7305C347.47,-52.4064 270.007,-38.2258 195.185,-20.2577"/>
<polygon fill="midnightblue" stroke="midnightblue" points="195.669,-16.7738 185.126,-17.8149 194.017,-23.5761 195.669,-16.7738"/>
</g>
<!-- Node11&#45;&gt;Node7 -->
<g id="edge15" class="edge"><title>Node11&#45;&gt;Node7</title>
<path fill="none" stroke="midnightblue" d="M399.743,-56.4435C378.184,-47.5566 344.237,-33.5632 319.706,-23.4514"/>
<polygon fill="midnightblue" stroke="midnightblue" points="320.739,-20.0917 310.16,-19.5164 318.072,-26.5634 320.739,-20.0917"/>
</g>
<!-- Node11&#45;&gt;Node10 -->
<g id="edge13" class="edge"><title>Node11&#45;&gt;Node10</title>
<path fill="none" stroke="midnightblue" d="M410.217,-56.324C400.664,-48.2631 386.22,-36.0765 374.716,-26.3695"/>
<polygon fill="midnightblue" stroke="midnightblue" points="376.87,-23.6076 366.97,-19.8339 372.356,-28.9577 376.87,-23.6076"/>
</g>
<!-- Node12 -->
<g id="node13" class="node"><title>Node12</title>
<polygon fill="none" stroke="#bfbfbf" points="396.5,-0.5 396.5,-19.5 448.5,-19.5 448.5,-0.5 396.5,-0.5"/>
<text text-anchor="middle" x="422.5" y="-7.5" font-family="Helvetica,sans-Serif" font-size="10.00">sstream</text>
</g>
<!-- Node11&#45;&gt;Node12 -->
<g id="edge16" class="edge"><title>Node11&#45;&gt;Node12</title>
<path fill="none" stroke="midnightblue" d="M420.83,-56.083C421.092,-49.0059 421.468,-38.8611 421.797,-29.9865"/>
<polygon fill="midnightblue" stroke="midnightblue" points="425.303,-29.8738 422.176,-19.7511 418.308,-29.6147 425.303,-29.8738"/>
</g>
<!-- Node13 -->
<g id="node14" class="node"><title>Node13</title>
<polygon fill="none" stroke="#bfbfbf" points="466.5,-0.5 466.5,-19.5 516.5,-19.5 516.5,-0.5 466.5,-0.5"/>
<text text-anchor="middle" x="491.5" y="-7.5" font-family="Helvetica,sans-Serif" font-size="10.00">iomanip</text>
</g>
<!-- Node11&#45;&gt;Node13 -->
<g id="edge17" class="edge"><title>Node11&#45;&gt;Node13</title>
<path fill="none" stroke="midnightblue" d="M431.907,-56.324C442.609,-48.1849 458.841,-35.8395 471.663,-26.0874"/>
<polygon fill="midnightblue" stroke="midnightblue" points="474.044,-28.6734 479.885,-19.8339 469.807,-23.1018 474.044,-28.6734"/>
</g>
<!-- Node14 -->
<g id="node15" class="node"><title>Node14</title>
<polygon fill="none" stroke="#bfbfbf" points="534.5,-0.5 534.5,-19.5 584.5,-19.5 584.5,-0.5 534.5,-0.5"/>
<text text-anchor="middle" x="559.5" y="-7.5" font-family="Helvetica,sans-Serif" font-size="10.00">fstream</text>
</g>
<!-- Node11&#45;&gt;Node14 -->
<g id="edge18" class="edge"><title>Node11&#45;&gt;Node14</title>
<path fill="none" stroke="midnightblue" d="M442.525,-56.4435C465.604,-47.4776 502.062,-33.314 528.141,-23.1827"/>
<polygon fill="midnightblue" stroke="midnightblue" points="529.524,-26.4002 537.578,-19.5164 526.989,-19.8753 529.524,-26.4002"/>
</g>
<!-- Node15&#45;&gt;Node9 -->
<g id="edge20" class="edge"><title>Node15&#45;&gt;Node9</title>
<path fill="none" stroke="midnightblue" d="M374.206,-224.368C375.659,-206.617 379.009,-165.666 380.978,-141.597"/>
<polygon fill="midnightblue" stroke="midnightblue" points="384.47,-141.844 381.797,-131.591 377.493,-141.273 384.47,-141.844"/>
</g>
<!-- Node16 -->
<g id="node17" class="node"><title>Node16</title>
<g id="a_node17"><a xlink:href="ProfileProcess_8h.html" target="_top" xlink:title="ProfileProcess.h">
<polygon fill="none" stroke="black" points="162,-168.5 162,-187.5 251,-187.5 251,-168.5 162,-168.5"/>
<text text-anchor="middle" x="206.5" y="-175.5" font-family="Helvetica,sans-Serif" font-size="10.00">ProfileProcess.h</text>
</a>
</g>
</g>
<!-- Node15&#45;&gt;Node16 -->
<g id="edge21" class="edge"><title>Node15&#45;&gt;Node16</title>
<path fill="none" stroke="midnightblue" d="M347.038,-224.444C318.822,-215.32 273.96,-200.813 242.532,-190.651"/>
<polygon fill="midnightblue" stroke="midnightblue" points="243.43,-187.263 232.838,-187.516 241.276,-193.923 243.43,-187.263"/>
</g>
<!-- Node16&#45;&gt;Node7 -->
<g id="edge29" class="edge"><title>Node16&#45;&gt;Node7</title>
<path fill="none" stroke="midnightblue" d="M221.703,-168.484C234.296,-160.634 251.664,-147.821 261.5,-132 281.451,-99.9097 287.208,-55.0521 288.855,-29.945"/>
<polygon fill="midnightblue" stroke="midnightblue" points="292.367,-29.7932 289.368,-19.6316 285.375,-29.4452 292.367,-29.7932"/>
</g>
<!-- Node17 -->
<g id="node18" class="node"><title>Node17</title>
<g id="a_node18"><a xlink:href="Chrono_8h.html" target="_top" xlink:title="Chrono.h">
<polygon fill="none" stroke="black" points="63.5,-56.5 63.5,-75.5 119.5,-75.5 119.5,-56.5 63.5,-56.5"/>
<text text-anchor="middle" x="91.5" y="-63.5" font-family="Helvetica,sans-Serif" font-size="10.00">Chrono.h</text>
</a>
</g>
</g>
<!-- Node16&#45;&gt;Node17 -->
<g id="edge22" class="edge"><title>Node16&#45;&gt;Node17</title>
<path fill="none" stroke="midnightblue" d="M174.974,-168.353C155.182,-161.453 130.471,-149.919 114.5,-132 102.936,-119.026 97.0911,-99.8611 94.1976,-85.7005"/>
<polygon fill="midnightblue" stroke="midnightblue" points="97.6092,-84.8885 92.4569,-75.6308 90.7115,-86.0809 97.6092,-84.8885"/>
</g>
<!-- Node20 -->
<g id="node21" class="node"><title>Node20</title>
<g id="a_node21"><a xlink:href="StateSpace_8h.html" target="_top" xlink:title="StateSpace.h">
<polygon fill="none" stroke="black" points="123.5,-112.5 123.5,-131.5 199.5,-131.5 199.5,-112.5 123.5,-112.5"/>
<text text-anchor="middle" x="161.5" y="-119.5" font-family="Helvetica,sans-Serif" font-size="10.00">StateSpace.h</text>
</a>
</g>
</g>
<!-- Node16&#45;&gt;Node20 -->
<g id="edge27" class="edge"><title>Node16&#45;&gt;Node20</title>
<path fill="none" stroke="midnightblue" d="M199.069,-168.083C192.647,-160.377 183.194,-149.033 175.378,-139.653"/>
<polygon fill="midnightblue" stroke="midnightblue" points="177.883,-137.193 168.793,-131.751 172.506,-141.674 177.883,-137.193"/>
</g>
<!-- Node21 -->
<g id="node22" class="node"><title>Node21</title>
<polygon fill="none" stroke="#bfbfbf" points="218,-112.5 218,-131.5 253,-131.5 253,-112.5 218,-112.5"/>
<text text-anchor="middle" x="235.5" y="-119.5" font-family="Helvetica,sans-Serif" font-size="10.00">map</text>
</g>
<!-- Node16&#45;&gt;Node21 -->
<g id="edge30" class="edge"><title>Node16&#45;&gt;Node21</title>
<path fill="none" stroke="midnightblue" d="M211.289,-168.083C215.258,-160.691 221.025,-149.953 225.935,-140.811"/>
<polygon fill="midnightblue" stroke="midnightblue" points="229.153,-142.217 230.8,-131.751 222.986,-138.905 229.153,-142.217"/>
</g>
<!-- Node17&#45;&gt;Node6 -->
<g id="edge26" class="edge"><title>Node17&#45;&gt;Node6</title>
<path fill="none" stroke="midnightblue" d="M102.907,-56.324C113.609,-48.1849 129.841,-35.8395 142.663,-26.0874"/>
<polygon fill="midnightblue" stroke="midnightblue" points="145.044,-28.6734 150.885,-19.8339 140.807,-23.1018 145.044,-28.6734"/>
</g>
<!-- Node17&#45;&gt;Node7 -->
<g id="edge25" class="edge"><title>Node17&#45;&gt;Node7</title>
<path fill="none" stroke="midnightblue" d="M119.869,-57.2631C154.813,-47.7327 214.256,-31.521 252.688,-21.0396"/>
<polygon fill="midnightblue" stroke="midnightblue" points="253.729,-24.3838 262.455,-18.3758 251.887,-17.6304 253.729,-24.3838"/>
</g>
<!-- Node18 -->
<g id="node19" class="node"><title>Node18</title>
<polygon fill="none" stroke="#bfbfbf" points="0,-0.5 0,-19.5 41,-19.5 41,-0.5 0,-0.5"/>
<text text-anchor="middle" x="20.5" y="-7.5" font-family="Helvetica,sans-Serif" font-size="10.00">ctime</text>
</g>
<!-- Node17&#45;&gt;Node18 -->
<g id="edge23" class="edge"><title>Node17&#45;&gt;Node18</title>
<path fill="none" stroke="midnightblue" d="M80.0926,-56.324C69.3912,-48.1849 53.1593,-35.8395 40.3372,-26.0874"/>
<polygon fill="midnightblue" stroke="midnightblue" points="42.1932,-23.1018 32.1149,-19.8339 37.9556,-28.6734 42.1932,-23.1018"/>
</g>
<!-- Node19 -->
<g id="node20" class="node"><title>Node19</title>
<polygon fill="none" stroke="#bfbfbf" points="59.5,-0.5 59.5,-19.5 121.5,-19.5 121.5,-0.5 59.5,-0.5"/>
<text text-anchor="middle" x="90.5" y="-7.5" font-family="Helvetica,sans-Serif" font-size="10.00">sys/time.h</text>
</g>
<!-- Node17&#45;&gt;Node19 -->
<g id="edge24" class="edge"><title>Node17&#45;&gt;Node19</title>
<path fill="none" stroke="midnightblue" d="M91.3349,-56.083C91.2038,-49.0059 91.0159,-38.8611 90.8516,-29.9865"/>
<polygon fill="midnightblue" stroke="midnightblue" points="94.3467,-29.6845 90.6621,-19.7511 87.3479,-29.8142 94.3467,-29.6845"/>
</g>
<!-- Node20&#45;&gt;Node5 -->
<g id="edge28" class="edge"><title>Node20&#45;&gt;Node5</title>
<path fill="none" stroke="midnightblue" d="M167.114,-112.083C171.867,-104.534 178.818,-93.4948 184.652,-84.2298"/>
<polygon fill="midnightblue" stroke="midnightblue" points="187.624,-86.0783 189.99,-75.7511 181.7,-82.3486 187.624,-86.0783"/>
</g>
</g>
</svg>
