<?xml version="1.0" encoding="UTF-8" standalone="no"?>
<!DOCTYPE svg PUBLIC "-//W3C//DTD SVG 1.1//EN"
 "http://www.w3.org/Graphics/SVG/1.1/DTD/svg11.dtd">
<!-- Generated by graphviz version 2.38.0 (20140413.2041)
 -->
<!-- Title: GTRProfileProcess.h Pages: 1 -->
<svg width="2939pt" height="419pt"
 viewBox="0.00 0.00 2938.50 419.00" xmlns="http://www.w3.org/2000/svg" xmlns:xlink="http://www.w3.org/1999/xlink">
<g id="graph0" class="graph" transform="scale(1 1) rotate(0) translate(4 415)">
<title>GTRProfileProcess.h</title>
<!-- Node19 -->
<g id="node1" class="node"><title>Node19</title>
<polygon fill="#bfbfbf" stroke="black" points="1789.5,-391.5 1789.5,-410.5 1899.5,-410.5 1899.5,-391.5 1789.5,-391.5"/>
<text text-anchor="middle" x="1844.5" y="-398.5" font-family="Helvetica,sans-Serif" font-size="10.00">GTRProfileProcess.h</text>
</g>
<!-- Node20 -->
<g id="node2" class="node"><title>Node20</title>
<g id="a_node2"><a xlink:href="GTRSubstitutionProcess_8h.html" target="_top" xlink:title="GTRSubstitutionProcess.h">
<polygon fill="none" stroke="black" points="1239.5,-330 1239.5,-349 1373.5,-349 1373.5,-330 1239.5,-330"/>
<text text-anchor="middle" x="1306.5" y="-337" font-family="Helvetica,sans-Serif" font-size="10.00">GTRSubstitutionProcess.h</text>
</a>
</g>
</g>
<!-- Node19&#45;&gt;Node20 -->
<g id="edge1" class="edge"><title>Node19&#45;&gt;Node20</title>
<path fill="none" stroke="midnightblue" d="M1779.08,-394.83C1691.2,-387.574 1530.24,-373.197 1393.5,-355 1380.75,-353.303 1367,-351.159 1354.28,-349.043"/>
<polygon fill="midnightblue" stroke="midnightblue" points="1778.92,-398.328 1789.17,-395.658 1779.49,-391.351 1778.92,-398.328"/>
</g>
<!-- Node49 -->
<g id="node31" class="node"><title>Node49</title>
<g id="a_node31"><a xlink:href="GTRMixtureProfileProcess_8h.html" target="_top" xlink:title="GTRMixtureProfileProcess.h">
<polygon fill="none" stroke="black" points="2232.5,-330 2232.5,-349 2374.5,-349 2374.5,-330 2232.5,-330"/>
<text text-anchor="middle" x="2303.5" y="-337" font-family="Helvetica,sans-Serif" font-size="10.00">GTRMixtureProfileProcess.h</text>
</a>
</g>
</g>
<!-- Node19&#45;&gt;Node49 -->
<g id="edge36" class="edge"><title>Node19&#45;&gt;Node49</title>
<path fill="none" stroke="midnightblue" d="M1909.89,-391.523C1996.99,-380.233 2150.19,-360.373 2237.56,-349.048"/>
<polygon fill="midnightblue" stroke="midnightblue" points="1909.33,-388.066 1899.87,-392.823 1910.23,-395.008 1909.33,-388.066"/>
</g>
<!-- Node65 -->
<g id="node47" class="node"><title>Node65</title>
<g id="a_node47"><a xlink:href="ExpoConjugateGTRProfileProcess_8h.html" target="_top" xlink:title="ExpoConjugateGTRProfileProcess.h">
<polygon fill="none" stroke="black" points="1756.5,-330 1756.5,-349 1932.5,-349 1932.5,-330 1756.5,-330"/>
<text text-anchor="middle" x="1844.5" y="-337" font-family="Helvetica,sans-Serif" font-size="10.00">ExpoConjugateGTRProfileProcess.h</text>
</a>
</g>
</g>
<!-- Node19&#45;&gt;Node65 -->
<g id="edge55" class="edge"><title>Node19&#45;&gt;Node65</title>
<path fill="none" stroke="midnightblue" d="M1844.5,-381.317C1844.5,-370.496 1844.5,-357.398 1844.5,-349.009"/>
<polygon fill="midnightblue" stroke="midnightblue" points="1841,-381.475 1844.5,-391.475 1848,-381.475 1841,-381.475"/>
</g>
<!-- Node67 -->
<g id="node49" class="node"><title>Node67</title>
<g id="a_node49"><a xlink:href="GeneralPathSuffStatGTRProfileProcess_8h.html" target="_top" xlink:title="GeneralPathSuffStatGTRProfile\lProcess.h">
<polygon fill="none" stroke="black" points="1403,-324.5 1403,-354.5 1558,-354.5 1558,-324.5 1403,-324.5"/>
<text text-anchor="start" x="1411" y="-342.5" font-family="Helvetica,sans-Serif" font-size="10.00">GeneralPathSuffStatGTRProfile</text>
<text text-anchor="middle" x="1480.5" y="-331.5" font-family="Helvetica,sans-Serif" font-size="10.00">Process.h</text>
</a>
</g>
</g>
<!-- Node19&#45;&gt;Node67 -->
<g id="edge59" class="edge"><title>Node19&#45;&gt;Node67</title>
<path fill="none" stroke="midnightblue" d="M1782.31,-389.835C1720.3,-379.699 1624.91,-364.105 1558,-353.168"/>
<polygon fill="midnightblue" stroke="midnightblue" points="1781.91,-393.316 1792.35,-391.475 1783.04,-386.408 1781.91,-393.316"/>
</g>
<!-- Node69 -->
<g id="node51" class="node"><title>Node69</title>
<g id="a_node51"><a xlink:href="GTRProfileProcess_8cpp.html" target="_top" xlink:title="GTRProfileProcess.cpp">
<polygon fill="none" stroke="black" points="2392.5,-330 2392.5,-349 2512.5,-349 2512.5,-330 2392.5,-330"/>
<text text-anchor="middle" x="2452.5" y="-337" font-family="Helvetica,sans-Serif" font-size="10.00">GTRProfileProcess.cpp</text>
</a>
</g>
</g>
<!-- Node19&#45;&gt;Node69 -->
<g id="edge62" class="edge"><title>Node19&#45;&gt;Node69</title>
<path fill="none" stroke="midnightblue" d="M1909.97,-397.153C2011.71,-392.139 2213.72,-379.828 2383.5,-355 2394.16,-353.441 2405.64,-351.241 2416.13,-349.024"/>
<polygon fill="midnightblue" stroke="midnightblue" points="1909.67,-393.663 1899.85,-397.644 1910.01,-400.655 1909.67,-393.663"/>
</g>
<!-- Node21 -->
<g id="node3" class="node"><title>Node21</title>
<g id="a_node3"><a xlink:href="MatrixPhyloProcess_8h.html" target="_top" xlink:title="MatrixPhyloProcess.h">
<polygon fill="none" stroke="black" points="1075,-263 1075,-282 1188,-282 1188,-263 1075,-263"/>
<text text-anchor="middle" x="1131.5" y="-270" font-family="Helvetica,sans-Serif" font-size="10.00">MatrixPhyloProcess.h</text>
</a>
</g>
</g>
<!-- Node20&#45;&gt;Node21 -->
<g id="edge2" class="edge"><title>Node20&#45;&gt;Node21</title>
<path fill="none" stroke="midnightblue" d="M1273.57,-326.271C1238.84,-313.37 1185.01,-293.376 1154.56,-282.064"/>
<polygon fill="midnightblue" stroke="midnightblue" points="1272.67,-329.668 1283.26,-329.869 1275.11,-323.106 1272.67,-329.668"/>
</g>
<!-- Node46 -->
<g id="node28" class="node"><title>Node46</title>
<g id="a_node28"><a xlink:href="ExpoConjugateGTRSubstitutionProcess_8h.html" target="_top" xlink:title="ExpoConjugateGTRSubstitution\lProcess.h">
<polygon fill="none" stroke="black" points="1576.5,-257.5 1576.5,-287.5 1732.5,-287.5 1732.5,-257.5 1576.5,-257.5"/>
<text text-anchor="start" x="1584.5" y="-275.5" font-family="Helvetica,sans-Serif" font-size="10.00">ExpoConjugateGTRSubstitution</text>
<text text-anchor="middle" x="1654.5" y="-264.5" font-family="Helvetica,sans-Serif" font-size="10.00">Process.h</text>
</a>
</g>
</g>
<!-- Node20&#45;&gt;Node46 -->
<g id="edge32" class="edge"><title>Node20&#45;&gt;Node46</title>
<path fill="none" stroke="midnightblue" d="M1362.2,-328.097C1420.97,-317.119 1513.95,-299.751 1579.23,-287.559"/>
<polygon fill="midnightblue" stroke="midnightblue" points="1361.54,-324.659 1352.35,-329.936 1362.83,-331.54 1361.54,-324.659"/>
</g>
<!-- Node48 -->
<g id="node30" class="node"><title>Node48</title>
<g id="a_node30"><a xlink:href="GeneralPathSuffStatGTRSubstitutionProcess_8h.html" target="_top" xlink:title="GeneralPathSuffStatGTRSubstitution\lProcess.h">
<polygon fill="none" stroke="black" points="1206,-257.5 1206,-287.5 1385,-287.5 1385,-257.5 1206,-257.5"/>
<text text-anchor="start" x="1214" y="-275.5" font-family="Helvetica,sans-Serif" font-size="10.00">GeneralPathSuffStatGTRSubstitution</text>
<text text-anchor="middle" x="1295.5" y="-264.5" font-family="Helvetica,sans-Serif" font-size="10.00">Process.h</text>
</a>
</g>
</g>
<!-- Node20&#45;&gt;Node48 -->
<g id="edge35" class="edge"><title>Node20&#45;&gt;Node48</title>
<path fill="none" stroke="midnightblue" d="M1303.32,-319.739C1301.59,-309.487 1299.48,-297.001 1297.88,-287.589"/>
<polygon fill="midnightblue" stroke="midnightblue" points="1299.9,-320.458 1305.02,-329.734 1306.8,-319.29 1299.9,-320.458"/>
</g>
<!-- Node22 -->
<g id="node4" class="node"><title>Node22</title>
<g id="a_node4"><a xlink:href="GeneralPathSuffStatMatrixPhyloProcess_8h.html" target="_top" xlink:title="GeneralPathSuffStatMatrix\lPhyloProcess.h">
<polygon fill="none" stroke="black" points="528.5,-190.5 528.5,-220.5 662.5,-220.5 662.5,-190.5 528.5,-190.5"/>
<text text-anchor="start" x="536.5" y="-208.5" font-family="Helvetica,sans-Serif" font-size="10.00">GeneralPathSuffStatMatrix</text>
<text text-anchor="middle" x="595.5" y="-197.5" font-family="Helvetica,sans-Serif" font-size="10.00">PhyloProcess.h</text>
</a>
</g>
</g>
<!-- Node21&#45;&gt;Node22 -->
<g id="edge3" class="edge"><title>Node21&#45;&gt;Node22</title>
<path fill="none" stroke="midnightblue" d="M1064.95,-263.429C962.155,-250.964 765.876,-227.161 662.695,-214.649"/>
<polygon fill="midnightblue" stroke="midnightblue" points="1064.55,-266.907 1074.9,-264.636 1065.39,-259.958 1064.55,-266.907"/>
</g>
<!-- Node36 -->
<g id="node18" class="node"><title>Node36</title>
<g id="a_node18"><a xlink:href="ExpoConjugateGTRPhyloProcess_8h.html" target="_top" xlink:title="ExpoConjugateGTRPhyloProcess.h">
<polygon fill="none" stroke="black" points="1235,-196 1235,-215 1408,-215 1408,-196 1235,-196"/>
<text text-anchor="middle" x="1321.5" y="-203" font-family="Helvetica,sans-Serif" font-size="10.00">ExpoConjugateGTRPhyloProcess.h</text>
</a>
</g>
</g>
<!-- Node21&#45;&gt;Node36 -->
<g id="edge20" class="edge"><title>Node21&#45;&gt;Node36</title>
<path fill="none" stroke="midnightblue" d="M1166.28,-259.601C1203.95,-246.714 1263.12,-226.473 1296.47,-215.064"/>
<polygon fill="midnightblue" stroke="midnightblue" points="1165.06,-256.32 1156.73,-262.869 1167.33,-262.943 1165.06,-256.32"/>
</g>
<!-- Node45 -->
<g id="node27" class="node"><title>Node45</title>
<g id="a_node27"><a xlink:href="MatrixPhyloProcess_8cpp.html" target="_top" xlink:title="MatrixPhyloProcess.cpp">
<polygon fill="none" stroke="black" points="1070,-196 1070,-215 1193,-215 1193,-196 1070,-196"/>
<text text-anchor="middle" x="1131.5" y="-203" font-family="Helvetica,sans-Serif" font-size="10.00">MatrixPhyloProcess.cpp</text>
</a>
</g>
</g>
<!-- Node21&#45;&gt;Node45 -->
<g id="edge31" class="edge"><title>Node21&#45;&gt;Node45</title>
<path fill="none" stroke="midnightblue" d="M1131.5,-252.537C1131.5,-240.17 1131.5,-224.62 1131.5,-215.127"/>
<polygon fill="midnightblue" stroke="midnightblue" points="1128,-252.734 1131.5,-262.734 1135,-252.734 1128,-252.734"/>
</g>
<!-- Node23 -->
<g id="node5" class="node"><title>Node23</title>
<g id="a_node5"><a xlink:href="AACodonMutSelFinitePhyloProcess_8h.html" target="_top" xlink:title="AACodonMutSelFinitePhylo\lProcess.h">
<polygon fill="none" stroke="black" points="348.5,-123.5 348.5,-153.5 486.5,-153.5 486.5,-123.5 348.5,-123.5"/>
<text text-anchor="start" x="356.5" y="-141.5" font-family="Helvetica,sans-Serif" font-size="10.00">AACodonMutSelFinitePhylo</text>
<text text-anchor="middle" x="417.5" y="-130.5" font-family="Helvetica,sans-Serif" font-size="10.00">Process.h</text>
</a>
</g>
</g>
<!-- Node22&#45;&gt;Node23 -->
<g id="edge4" class="edge"><title>Node22&#45;&gt;Node23</title>
<path fill="none" stroke="midnightblue" d="M547.454,-186.955C518.781,-176.485 482.855,-163.366 456.048,-153.577"/>
<polygon fill="midnightblue" stroke="midnightblue" points="546.283,-190.253 556.877,-190.396 548.684,-183.678 546.283,-190.253"/>
</g>
<!-- Node28 -->
<g id="node10" class="node"><title>Node28</title>
<g id="a_node10"><a xlink:href="AACodonMutSelGenePhyloProcess_8h.html" target="_top" xlink:title="AACodonMutSelGenePhyloProcess.h">
<polygon fill="none" stroke="black" points="504.5,-129 504.5,-148 686.5,-148 686.5,-129 504.5,-129"/>
<text text-anchor="middle" x="595.5" y="-136" font-family="Helvetica,sans-Serif" font-size="10.00">AACodonMutSelGenePhyloProcess.h</text>
</a>
</g>
</g>
<!-- Node22&#45;&gt;Node28 -->
<g id="edge9" class="edge"><title>Node22&#45;&gt;Node28</title>
<path fill="none" stroke="midnightblue" d="M595.5,-180.25C595.5,-169.017 595.5,-156.377 595.5,-148.195"/>
<polygon fill="midnightblue" stroke="midnightblue" points="592,-180.396 595.5,-190.396 599,-180.396 592,-180.396"/>
</g>
<!-- Node29 -->
<g id="node11" class="node"><title>Node29</title>
<g id="a_node11"><a xlink:href="AACodonMutSelSBDPPhyloProcess_8h.html" target="_top" xlink:title="AACodonMutSelSBDPPhyloProcess.h">
<polygon fill="none" stroke="black" points="704.5,-129 704.5,-148 890.5,-148 890.5,-129 704.5,-129"/>
<text text-anchor="middle" x="797.5" y="-136" font-family="Helvetica,sans-Serif" font-size="10.00">AACodonMutSelSBDPPhyloProcess.h</text>
</a>
</g>
</g>
<!-- Node22&#45;&gt;Node29 -->
<g id="edge10" class="edge"><title>Node22&#45;&gt;Node29</title>
<path fill="none" stroke="midnightblue" d="M649.049,-187.269C688.41,-174.603 740.212,-157.934 771.063,-148.007"/>
<polygon fill="midnightblue" stroke="midnightblue" points="647.778,-184.001 639.331,-190.396 649.922,-190.665 647.778,-184.001"/>
</g>
<!-- Node31 -->
<g id="node13" class="node"><title>Node31</title>
<g id="a_node13"><a xlink:href="CodonMutSelFinitePhyloProcess_8h.html" target="_top" xlink:title="CodonMutSelFinitePhyloProcess.h">
<polygon fill="none" stroke="black" points="908,-129 908,-148 1077,-148 1077,-129 908,-129"/>
<text text-anchor="middle" x="992.5" y="-136" font-family="Helvetica,sans-Serif" font-size="10.00">CodonMutSelFinitePhyloProcess.h</text>
</a>
</g>
</g>
<!-- Node22&#45;&gt;Node31 -->
<g id="edge13" class="edge"><title>Node22&#45;&gt;Node31</title>
<path fill="none" stroke="midnightblue" d="M672.738,-191.854C751.662,-178.932 872.051,-159.221 940.371,-148.035"/>
<polygon fill="midnightblue" stroke="midnightblue" points="672.149,-188.404 662.846,-193.474 673.28,-195.312 672.149,-188.404"/>
</g>
<!-- Node33 -->
<g id="node15" class="node"><title>Node33</title>
<g id="a_node15"><a xlink:href="CodonMutSelSBDPPhyloProcess_8h.html" target="_top" xlink:title="CodonMutSelSBDPPhyloProcess.h">
<polygon fill="none" stroke="black" points="5,-129 5,-148 178,-148 178,-129 5,-129"/>
<text text-anchor="middle" x="91.5" y="-136" font-family="Helvetica,sans-Serif" font-size="10.00">CodonMutSelSBDPPhyloProcess.h</text>
</a>
</g>
</g>
<!-- Node22&#45;&gt;Node33 -->
<g id="edge16" class="edge"><title>Node22&#45;&gt;Node33</title>
<path fill="none" stroke="midnightblue" d="M518.286,-195.567C436.178,-185.921 302.554,-169.806 187.5,-154 174.141,-152.165 159.756,-150.06 146.292,-148.035"/>
<polygon fill="midnightblue" stroke="midnightblue" points="517.946,-199.051 528.286,-196.739 518.761,-192.098 517.946,-199.051"/>
</g>
<!-- Node35 -->
<g id="node17" class="node"><title>Node35</title>
<g id="a_node17"><a xlink:href="GeneralPathSuffStatMatrixPhyloProcess_8cpp.html" target="_top" xlink:title="GeneralPathSuffStatMatrix\lPhyloProcess.cpp">
<polygon fill="none" stroke="black" points="196.5,-123.5 196.5,-153.5 330.5,-153.5 330.5,-123.5 196.5,-123.5"/>
<text text-anchor="start" x="204.5" y="-141.5" font-family="Helvetica,sans-Serif" font-size="10.00">GeneralPathSuffStatMatrix</text>
<text text-anchor="middle" x="263.5" y="-130.5" font-family="Helvetica,sans-Serif" font-size="10.00">PhyloProcess.cpp</text>
</a>
</g>
</g>
<!-- Node22&#45;&gt;Node35 -->
<g id="edge19" class="edge"><title>Node22&#45;&gt;Node35</title>
<path fill="none" stroke="midnightblue" d="M518.296,-189.385C461.442,-178.254 384.896,-163.267 330.585,-152.634"/>
<polygon fill="midnightblue" stroke="midnightblue" points="517.829,-192.86 528.315,-191.346 519.174,-185.99 517.829,-192.86"/>
</g>
<!-- Node24 -->
<g id="node6" class="node"><title>Node24</title>
<g id="a_node6"><a xlink:href="AACodonMutSelFinitePhyloProcess_8cpp.html" target="_top" xlink:title="AACodonMutSelFinitePhylo\lProcess.cpp">
<polygon fill="none" stroke="black" points="348.5,-56.5 348.5,-86.5 486.5,-86.5 486.5,-56.5 348.5,-56.5"/>
<text text-anchor="start" x="356.5" y="-74.5" font-family="Helvetica,sans-Serif" font-size="10.00">AACodonMutSelFinitePhylo</text>
<text text-anchor="middle" x="417.5" y="-63.5" font-family="Helvetica,sans-Serif" font-size="10.00">Process.cpp</text>
</a>
</g>
</g>
<!-- Node23&#45;&gt;Node24 -->
<g id="edge5" class="edge"><title>Node23&#45;&gt;Node24</title>
<path fill="none" stroke="midnightblue" d="M417.5,-113.108C417.5,-104.154 417.5,-94.3227 417.5,-86.5765"/>
<polygon fill="midnightblue" stroke="midnightblue" points="414,-113.396 417.5,-123.396 421,-113.396 414,-113.396"/>
</g>
<!-- Node25 -->
<g id="node7" class="node"><title>Node25</title>
<g id="a_node7"><a xlink:href="Model_8h.html" target="_top" xlink:title="Model.h">
<polygon fill="none" stroke="black" points="874,-62 874,-81 925,-81 925,-62 874,-62"/>
<text text-anchor="middle" x="899.5" y="-69" font-family="Helvetica,sans-Serif" font-size="10.00">Model.h</text>
</a>
</g>
</g>
<!-- Node23&#45;&gt;Node25 -->
<g id="edge6" class="edge"><title>Node23&#45;&gt;Node25</title>
<path fill="none" stroke="midnightblue" d="M496.7,-122.93C660.494,-100.951 707.765,-126.189 864.5,-87 870.243,-85.5642 876.273,-83.3457 881.68,-81.0725"/>
<polygon fill="midnightblue" stroke="midnightblue" points="496.199,-119.466 486.771,-124.301 497.156,-126.401 496.199,-119.466"/>
</g>
<!-- Node26 -->
<g id="node8" class="node"><title>Node26</title>
<g id="a_node8"><a xlink:href="PB_8cpp.html" target="_top" xlink:title="PB.cpp">
<polygon fill="none" stroke="black" points="836,-0.5 836,-19.5 885,-19.5 885,-0.5 836,-0.5"/>
<text text-anchor="middle" x="860.5" y="-7.5" font-family="Helvetica,sans-Serif" font-size="10.00">PB.cpp</text>
</a>
</g>
</g>
<!-- Node25&#45;&gt;Node26 -->
<g id="edge7" class="edge"><title>Node25&#45;&gt;Node26</title>
<path fill="none" stroke="midnightblue" d="M888.36,-53.5051C881.074,-42.388 871.865,-28.3395 866.077,-19.5091"/>
<polygon fill="midnightblue" stroke="midnightblue" points="885.503,-55.5303 893.912,-61.9751 891.357,-51.6929 885.503,-55.5303"/>
</g>
<!-- Node27 -->
<g id="node9" class="node"><title>Node27</title>
<g id="a_node9"><a xlink:href="ReadPB_8cpp.html" target="_top" xlink:title="ReadPB.cpp">
<polygon fill="none" stroke="black" points="903.5,-0.5 903.5,-19.5 975.5,-19.5 975.5,-0.5 903.5,-0.5"/>
<text text-anchor="middle" x="939.5" y="-7.5" font-family="Helvetica,sans-Serif" font-size="10.00">ReadPB.cpp</text>
</a>
</g>
</g>
<!-- Node25&#45;&gt;Node27 -->
<g id="edge8" class="edge"><title>Node25&#45;&gt;Node27</title>
<path fill="none" stroke="midnightblue" d="M910.925,-53.5051C918.399,-42.388 927.843,-28.3395 933.78,-19.5091"/>
<polygon fill="midnightblue" stroke="midnightblue" points="907.906,-51.7234 905.231,-61.9751 913.715,-55.6288 907.906,-51.7234"/>
</g>
<!-- Node29&#45;&gt;Node25 -->
<g id="edge12" class="edge"><title>Node29&#45;&gt;Node25</title>
<path fill="none" stroke="midnightblue" d="M819.832,-123.269C840.022,-110.403 869.09,-91.879 885.962,-81.1273"/>
<polygon fill="midnightblue" stroke="midnightblue" points="817.808,-120.408 811.256,-128.734 821.57,-126.311 817.808,-120.408"/>
</g>
<!-- Node30 -->
<g id="node12" class="node"><title>Node30</title>
<g id="a_node12"><a xlink:href="AACodonMutSelSBDPPhyloProcess_8cpp.html" target="_top" xlink:title="AACodonMutSelSBDPPhyloProcess.cpp">
<polygon fill="none" stroke="black" points="659,-62 659,-81 856,-81 856,-62 659,-62"/>
<text text-anchor="middle" x="757.5" y="-69" font-family="Helvetica,sans-Serif" font-size="10.00">AACodonMutSelSBDPPhyloProcess.cpp</text>
</a>
</g>
</g>
<!-- Node29&#45;&gt;Node30 -->
<g id="edge11" class="edge"><title>Node29&#45;&gt;Node30</title>
<path fill="none" stroke="midnightblue" d="M786.752,-120.035C779.008,-107.45 768.889,-91.0072 762.809,-81.1273"/>
<polygon fill="midnightblue" stroke="midnightblue" points="783.884,-122.052 792.105,-128.734 789.845,-118.383 783.884,-122.052"/>
</g>
<!-- Node31&#45;&gt;Node25 -->
<g id="edge15" class="edge"><title>Node31&#45;&gt;Node25</title>
<path fill="none" stroke="midnightblue" d="M971.639,-122.92C953.253,-110.069 927.088,-91.7821 911.844,-81.1273"/>
<polygon fill="midnightblue" stroke="midnightblue" points="969.756,-125.874 979.958,-128.734 973.766,-120.136 969.756,-125.874"/>
</g>
<!-- Node32 -->
<g id="node14" class="node"><title>Node32</title>
<g id="a_node14"><a xlink:href="CodonMutSelFinitePhyloProcess_8cpp.html" target="_top" xlink:title="CodonMutSelFinitePhyloProcess.cpp">
<polygon fill="none" stroke="black" points="943,-62 943,-81 1122,-81 1122,-62 943,-62"/>
<text text-anchor="middle" x="1032.5" y="-69" font-family="Helvetica,sans-Serif" font-size="10.00">CodonMutSelFinitePhyloProcess.cpp</text>
</a>
</g>
</g>
<!-- Node31&#45;&gt;Node32 -->
<g id="edge14" class="edge"><title>Node31&#45;&gt;Node32</title>
<path fill="none" stroke="midnightblue" d="M1003.25,-120.035C1010.99,-107.45 1021.11,-91.0072 1027.19,-81.1273"/>
<polygon fill="midnightblue" stroke="midnightblue" points="1000.15,-118.383 997.895,-128.734 1006.12,-122.052 1000.15,-118.383"/>
</g>
<!-- Node33&#45;&gt;Node25 -->
<g id="edge18" class="edge"><title>Node33&#45;&gt;Node25</title>
<path fill="none" stroke="midnightblue" d="M151.9,-127.467C163.681,-125.768 175.957,-124.176 187.5,-123 487.263,-92.464 570.643,-153.621 864.5,-87 870.401,-85.6621 876.581,-83.4132 882.078,-81.0807"/>
<polygon fill="midnightblue" stroke="midnightblue" points="151.083,-124.05 141.705,-128.98 152.111,-130.974 151.083,-124.05"/>
</g>
<!-- Node34 -->
<g id="node16" class="node"><title>Node34</title>
<g id="a_node16"><a xlink:href="CodonMutSelSBDPPhyloProcess_8cpp.html" target="_top" xlink:title="CodonMutSelSBDPPhyloProcess.cpp">
<polygon fill="none" stroke="black" points="0,-62 0,-81 183,-81 183,-62 0,-62"/>
<text text-anchor="middle" x="91.5" y="-69" font-family="Helvetica,sans-Serif" font-size="10.00">CodonMutSelSBDPPhyloProcess.cpp</text>
</a>
</g>
</g>
<!-- Node33&#45;&gt;Node34 -->
<g id="edge17" class="edge"><title>Node33&#45;&gt;Node34</title>
<path fill="none" stroke="midnightblue" d="M91.5,-118.537C91.5,-106.17 91.5,-90.6198 91.5,-81.1273"/>
<polygon fill="midnightblue" stroke="midnightblue" points="88.0001,-118.734 91.5,-128.734 95.0001,-118.734 88.0001,-118.734"/>
</g>
<!-- Node37 -->
<g id="node19" class="node"><title>Node37</title>
<g id="a_node19"><a xlink:href="ExpoConjugateGTRGeneGammaPhyloProcess_8h.html" target="_top" xlink:title="ExpoConjugateGTRGeneGamma\lPhyloProcess.h">
<polygon fill="none" stroke="black" points="1095.5,-123.5 1095.5,-153.5 1257.5,-153.5 1257.5,-123.5 1095.5,-123.5"/>
<text text-anchor="start" x="1103.5" y="-141.5" font-family="Helvetica,sans-Serif" font-size="10.00">ExpoConjugateGTRGeneGamma</text>
<text text-anchor="middle" x="1176.5" y="-130.5" font-family="Helvetica,sans-Serif" font-size="10.00">PhyloProcess.h</text>
</a>
</g>
</g>
<!-- Node36&#45;&gt;Node37 -->
<g id="edge21" class="edge"><title>Node36&#45;&gt;Node37</title>
<path fill="none" stroke="midnightblue" d="M1293.1,-191.767C1268.55,-180.766 1233.14,-164.892 1207.79,-153.528"/>
<polygon fill="midnightblue" stroke="midnightblue" points="1291.69,-194.972 1302.25,-195.869 1294.55,-188.584 1291.69,-194.972"/>
</g>
<!-- Node38 -->
<g id="node20" class="node"><title>Node38</title>
<g id="a_node20"><a xlink:href="ExpoConjugateGTRPhyloProcess_8cpp.html" target="_top" xlink:title="ExpoConjugateGTRPhyloProcess.cpp">
<polygon fill="none" stroke="black" points="1275.5,-129 1275.5,-148 1459.5,-148 1459.5,-129 1275.5,-129"/>
<text text-anchor="middle" x="1367.5" y="-136" font-family="Helvetica,sans-Serif" font-size="10.00">ExpoConjugateGTRPhyloProcess.cpp</text>
</a>
</g>
</g>
<!-- Node36&#45;&gt;Node38 -->
<g id="edge22" class="edge"><title>Node36&#45;&gt;Node38</title>
<path fill="none" stroke="midnightblue" d="M1333.6,-187.404C1342.54,-174.773 1354.33,-158.104 1361.39,-148.127"/>
<polygon fill="midnightblue" stroke="midnightblue" points="1330.62,-185.549 1327.7,-195.734 1336.34,-189.593 1330.62,-185.549"/>
</g>
<!-- Node39 -->
<g id="node21" class="node"><title>Node39</title>
<g id="a_node21"><a xlink:href="RASCATGTRFiniteGammaPhyloProcess_8h.html" target="_top" xlink:title="RASCATGTRFiniteGammaPhylo\lProcess.h">
<polygon fill="none" stroke="black" points="1883.5,-123.5 1883.5,-153.5 2045.5,-153.5 2045.5,-123.5 1883.5,-123.5"/>
<text text-anchor="start" x="1891.5" y="-141.5" font-family="Helvetica,sans-Serif" font-size="10.00">RASCATGTRFiniteGammaPhylo</text>
<text text-anchor="middle" x="1964.5" y="-130.5" font-family="Helvetica,sans-Serif" font-size="10.00">Process.h</text>
</a>
</g>
</g>
<!-- Node36&#45;&gt;Node39 -->
<g id="edge23" class="edge"><title>Node36&#45;&gt;Node39</title>
<path fill="none" stroke="midnightblue" d="M1383.12,-194.529C1394.53,-192.871 1406.36,-191.278 1417.5,-190 1619.91,-166.771 1672.2,-178.223 1874.5,-154 1877.33,-153.661 1880.2,-153.299 1883.11,-152.917"/>
<polygon fill="midnightblue" stroke="midnightblue" points="1382.6,-191.067 1373.23,-195.996 1383.63,-197.991 1382.6,-191.067"/>
</g>
<!-- Node41 -->
<g id="node23" class="node"><title>Node41</title>
<g id="a_node23"><a xlink:href="RASCATGTRSBDPGammaPhyloProcess_8h.html" target="_top" xlink:title="RASCATGTRSBDPGammaPhyloProcess.h">
<polygon fill="none" stroke="black" points="1477.5,-129 1477.5,-148 1687.5,-148 1687.5,-129 1477.5,-129"/>
<text text-anchor="middle" x="1582.5" y="-136" font-family="Helvetica,sans-Serif" font-size="10.00">RASCATGTRSBDPGammaPhyloProcess.h</text>
</a>
</g>
</g>
<!-- Node36&#45;&gt;Node41 -->
<g id="edge26" class="edge"><title>Node36&#45;&gt;Node41</title>
<path fill="none" stroke="midnightblue" d="M1365.73,-193.484C1417.22,-180.663 1501.15,-159.76 1548.03,-148.083"/>
<polygon fill="midnightblue" stroke="midnightblue" points="1364.75,-190.123 1355.89,-195.936 1366.44,-196.915 1364.75,-190.123"/>
</g>
<!-- Node43 -->
<g id="node25" class="node"><title>Node43</title>
<g id="a_node25"><a xlink:href="RASCATGTRDPGammaPhyloProcess_8h.html" target="_top" xlink:title="RASCATGTRDPGammaPhyloProcess.h">
<polygon fill="none" stroke="black" points="2064,-129 2064,-148 2261,-148 2261,-129 2064,-129"/>
<text text-anchor="middle" x="2162.5" y="-136" font-family="Helvetica,sans-Serif" font-size="10.00">RASCATGTRDPGammaPhyloProcess.h</text>
</a>
</g>
</g>
<!-- Node36&#45;&gt;Node43 -->
<g id="edge29" class="edge"><title>Node36&#45;&gt;Node43</title>
<path fill="none" stroke="midnightblue" d="M1382.3,-194.44C1393.96,-192.76 1406.09,-191.182 1417.5,-190 1699.55,-160.793 1772.21,-180.886 2054.5,-154 2070.98,-152.43 2088.81,-150.24 2105.14,-148.036"/>
<polygon fill="midnightblue" stroke="midnightblue" points="1381.58,-191.008 1372.21,-195.936 1382.61,-197.933 1381.58,-191.008"/>
</g>
<!-- Node39&#45;&gt;Node25 -->
<g id="edge24" class="edge"><title>Node39&#45;&gt;Node25</title>
<path fill="none" stroke="midnightblue" d="M1873.06,-122.989C1650.33,-103.225 1134.6,-132.113 933.5,-87 927.739,-85.7077 921.728,-83.4716 916.39,-81.1369"/>
<polygon fill="midnightblue" stroke="midnightblue" points="1872.84,-126.483 1883.12,-123.935 1873.49,-119.514 1872.84,-126.483"/>
</g>
<!-- Node40 -->
<g id="node22" class="node"><title>Node40</title>
<g id="a_node22"><a xlink:href="RASCATGTRFiniteGammaPhyloProcess_8cpp.html" target="_top" xlink:title="RASCATGTRFiniteGammaPhylo\lProcess.cpp">
<polygon fill="none" stroke="black" points="1880.5,-56.5 1880.5,-86.5 2042.5,-86.5 2042.5,-56.5 1880.5,-56.5"/>
<text text-anchor="start" x="1888.5" y="-74.5" font-family="Helvetica,sans-Serif" font-size="10.00">RASCATGTRFiniteGammaPhylo</text>
<text text-anchor="middle" x="1961.5" y="-63.5" font-family="Helvetica,sans-Serif" font-size="10.00">Process.cpp</text>
</a>
</g>
</g>
<!-- Node39&#45;&gt;Node40 -->
<g id="edge25" class="edge"><title>Node39&#45;&gt;Node40</title>
<path fill="none" stroke="midnightblue" d="M1963.39,-113.403C1962.97,-104.37 1962.51,-94.4078 1962.15,-86.5765"/>
<polygon fill="midnightblue" stroke="midnightblue" points="1959.89,-113.568 1963.85,-123.396 1966.88,-113.245 1959.89,-113.568"/>
</g>
<!-- Node41&#45;&gt;Node25 -->
<g id="edge27" class="edge"><title>Node41&#45;&gt;Node25</title>
<path fill="none" stroke="midnightblue" d="M1510.69,-127.708C1496.71,-125.989 1482.16,-124.327 1468.5,-123 1231.3,-99.955 1165.26,-142.525 933.5,-87 927.759,-85.6245 921.753,-83.3649 916.414,-81.0344"/>
<polygon fill="midnightblue" stroke="midnightblue" points="1510.39,-131.198 1520.75,-128.967 1511.26,-124.252 1510.39,-131.198"/>
</g>
<!-- Node42 -->
<g id="node24" class="node"><title>Node42</title>
<g id="a_node24"><a xlink:href="RASCATGTRSBDPGammaPhyloProcess_8cpp.html" target="_top" xlink:title="RASCATGTRSBDPGammaPhyloProcess.cpp">
<polygon fill="none" stroke="black" points="1472,-62 1472,-81 1693,-81 1693,-62 1472,-62"/>
<text text-anchor="middle" x="1582.5" y="-69" font-family="Helvetica,sans-Serif" font-size="10.00">RASCATGTRSBDPGammaPhyloProcess.cpp</text>
</a>
</g>
</g>
<!-- Node41&#45;&gt;Node42 -->
<g id="edge28" class="edge"><title>Node41&#45;&gt;Node42</title>
<path fill="none" stroke="midnightblue" d="M1582.5,-118.537C1582.5,-106.17 1582.5,-90.6198 1582.5,-81.1273"/>
<polygon fill="midnightblue" stroke="midnightblue" points="1579,-118.734 1582.5,-128.734 1586,-118.734 1579,-118.734"/>
</g>
<!-- Node44 -->
<g id="node26" class="node"><title>Node44</title>
<g id="a_node26"><a xlink:href="RASCATGTRDPGammaPhyloProcess_8cpp.html" target="_top" xlink:title="RASCATGTRDPGammaPhyloProcess.cpp">
<polygon fill="none" stroke="black" points="2061,-62 2061,-81 2268,-81 2268,-62 2061,-62"/>
<text text-anchor="middle" x="2164.5" y="-69" font-family="Helvetica,sans-Serif" font-size="10.00">RASCATGTRDPGammaPhyloProcess.cpp</text>
</a>
</g>
</g>
<!-- Node43&#45;&gt;Node44 -->
<g id="edge30" class="edge"><title>Node43&#45;&gt;Node44</title>
<path fill="none" stroke="midnightblue" d="M2163.08,-118.537C2163.46,-106.17 2163.94,-90.6198 2164.23,-81.1273"/>
<polygon fill="midnightblue" stroke="midnightblue" points="2159.58,-118.631 2162.77,-128.734 2166.58,-118.846 2159.58,-118.631"/>
</g>
<!-- Node46&#45;&gt;Node36 -->
<g id="edge33" class="edge"><title>Node46&#45;&gt;Node36</title>
<path fill="none" stroke="midnightblue" d="M1572.76,-255.544C1507.22,-242.752 1417.79,-225.296 1365.19,-215.029"/>
<polygon fill="midnightblue" stroke="midnightblue" points="1572.17,-258.995 1582.65,-257.476 1573.51,-252.125 1572.17,-258.995"/>
</g>
<!-- Node47 -->
<g id="node29" class="node"><title>Node47</title>
<g id="a_node29"><a xlink:href="ExpoConjugateGTRSubstitutionProcess_8cpp.html" target="_top" xlink:title="ExpoConjugateGTRSubstitution\lProcess.cpp">
<polygon fill="none" stroke="black" points="1426.5,-190.5 1426.5,-220.5 1582.5,-220.5 1582.5,-190.5 1426.5,-190.5"/>
<text text-anchor="start" x="1434.5" y="-208.5" font-family="Helvetica,sans-Serif" font-size="10.00">ExpoConjugateGTRSubstitution</text>
<text text-anchor="middle" x="1504.5" y="-197.5" font-family="Helvetica,sans-Serif" font-size="10.00">Process.cpp</text>
</a>
</g>
</g>
<!-- Node46&#45;&gt;Node47 -->
<g id="edge34" class="edge"><title>Node46&#45;&gt;Node47</title>
<path fill="none" stroke="midnightblue" d="M1612.75,-253.407C1588.8,-243.029 1559.18,-230.195 1536.98,-220.577"/>
<polygon fill="midnightblue" stroke="midnightblue" points="1611.39,-256.631 1621.95,-257.396 1614.17,-250.208 1611.39,-256.631"/>
</g>
<!-- Node50 -->
<g id="node32" class="node"><title>Node50</title>
<g id="a_node32"><a xlink:href="ExpoConjugateGTRMixtureProfileProcess_8h.html" target="_top" xlink:title="ExpoConjugateGTRMixtureProfile\lProcess.h">
<polygon fill="none" stroke="black" points="1956.5,-257.5 1956.5,-287.5 2120.5,-287.5 2120.5,-257.5 1956.5,-257.5"/>
<text text-anchor="start" x="1964.5" y="-275.5" font-family="Helvetica,sans-Serif" font-size="10.00">ExpoConjugateGTRMixtureProfile</text>
<text text-anchor="middle" x="2038.5" y="-264.5" font-family="Helvetica,sans-Serif" font-size="10.00">Process.h</text>
</a>
</g>
</g>
<!-- Node49&#45;&gt;Node50 -->
<g id="edge37" class="edge"><title>Node49&#45;&gt;Node50</title>
<path fill="none" stroke="midnightblue" d="M2258.85,-327.547C2213.99,-316.546 2144.7,-299.55 2095.82,-287.559"/>
<polygon fill="midnightblue" stroke="midnightblue" points="2258.04,-330.952 2268.58,-329.936 2259.71,-324.154 2258.04,-330.952"/>
</g>
<!-- Node58 -->
<g id="node40" class="node"><title>Node58</title>
<g id="a_node40"><a xlink:href="GeneralPathSuffStatGTRDPProfileProcess_8h.html" target="_top" xlink:title="GeneralPathSuffStatGTRDPProfile\lProcess.h">
<polygon fill="none" stroke="black" points="2218.5,-257.5 2218.5,-287.5 2388.5,-287.5 2388.5,-257.5 2218.5,-257.5"/>
<text text-anchor="start" x="2226.5" y="-275.5" font-family="Helvetica,sans-Serif" font-size="10.00">GeneralPathSuffStatGTRDPProfile</text>
<text text-anchor="middle" x="2303.5" y="-264.5" font-family="Helvetica,sans-Serif" font-size="10.00">Process.h</text>
</a>
</g>
</g>
<!-- Node49&#45;&gt;Node58 -->
<g id="edge48" class="edge"><title>Node49&#45;&gt;Node58</title>
<path fill="none" stroke="midnightblue" d="M2303.5,-319.411C2303.5,-309.222 2303.5,-296.901 2303.5,-287.589"/>
<polygon fill="midnightblue" stroke="midnightblue" points="2300,-319.734 2303.5,-329.734 2307,-319.734 2300,-319.734"/>
</g>
<!-- Node60 -->
<g id="node42" class="node"><title>Node60</title>
<g id="a_node42"><a xlink:href="GeneralPathSuffStatGTRFiniteProfileProcess_8h.html" target="_top" xlink:title="GeneralPathSuffStatGTRFinite\lProfileProcess.h">
<polygon fill="none" stroke="black" points="2406.5,-257.5 2406.5,-287.5 2558.5,-287.5 2558.5,-257.5 2406.5,-257.5"/>
<text text-anchor="start" x="2414.5" y="-275.5" font-family="Helvetica,sans-Serif" font-size="10.00">GeneralPathSuffStatGTRFinite</text>
<text text-anchor="middle" x="2482.5" y="-264.5" font-family="Helvetica,sans-Serif" font-size="10.00">ProfileProcess.h</text>
</a>
</g>
</g>
<!-- Node49&#45;&gt;Node60 -->
<g id="edge50" class="edge"><title>Node49&#45;&gt;Node60</title>
<path fill="none" stroke="midnightblue" d="M2336.97,-326.346C2367.31,-315.329 2412.02,-299.093 2443.87,-287.528"/>
<polygon fill="midnightblue" stroke="midnightblue" points="2335.47,-323.165 2327.27,-329.869 2337.86,-329.745 2335.47,-323.165"/>
</g>
<!-- Node62 -->
<g id="node44" class="node"><title>Node62</title>
<g id="a_node44"><a xlink:href="GeneralPathSuffStatGTRSBDPProfileProcess_8h.html" target="_top" xlink:title="GeneralPathSuffStatGTRSBDPProfile\lProcess.h">
<polygon fill="none" stroke="black" points="2577,-257.5 2577,-287.5 2760,-287.5 2760,-257.5 2577,-257.5"/>
<text text-anchor="start" x="2585" y="-275.5" font-family="Helvetica,sans-Serif" font-size="10.00">GeneralPathSuffStatGTRSBDPProfile</text>
<text text-anchor="middle" x="2668.5" y="-264.5" font-family="Helvetica,sans-Serif" font-size="10.00">Process.h</text>
</a>
</g>
</g>
<!-- Node49&#45;&gt;Node62 -->
<g id="edge52" class="edge"><title>Node49&#45;&gt;Node62</title>
<path fill="none" stroke="midnightblue" d="M2360.51,-328.139C2368.24,-326.743 2376.06,-325.333 2383.5,-324 2452.87,-311.567 2531.77,-297.6 2588.94,-287.511"/>
<polygon fill="midnightblue" stroke="midnightblue" points="2359.67,-324.734 2350.45,-329.958 2360.91,-331.622 2359.67,-324.734"/>
</g>
<!-- Node64 -->
<g id="node46" class="node"><title>Node64</title>
<g id="a_node46"><a xlink:href="GTRMixtureProfileProcess_8cpp.html" target="_top" xlink:title="GTRMixtureProfileProcess.cpp">
<polygon fill="none" stroke="black" points="2778.5,-263 2778.5,-282 2930.5,-282 2930.5,-263 2778.5,-263"/>
<text text-anchor="middle" x="2854.5" y="-270" font-family="Helvetica,sans-Serif" font-size="10.00">GTRMixtureProfileProcess.cpp</text>
</a>
</g>
</g>
<!-- Node49&#45;&gt;Node64 -->
<g id="edge54" class="edge"><title>Node49&#45;&gt;Node64</title>
<path fill="none" stroke="midnightblue" d="M2356.55,-328.224C2365.52,-326.675 2374.76,-325.198 2383.5,-324 2553.76,-300.653 2598.1,-310.302 2768.5,-288 2781.26,-286.33 2795.03,-284.17 2807.73,-282.03"/>
<polygon fill="midnightblue" stroke="midnightblue" points="2355.81,-324.801 2346.57,-329.991 2357.03,-331.693 2355.81,-324.801"/>
</g>
<!-- Node51 -->
<g id="node33" class="node"><title>Node51</title>
<g id="a_node33"><a xlink:href="ExpoConjugateGTRDPProfileProcess_8h.html" target="_top" xlink:title="ExpoConjugateGTRDPProfile\lProcess.h">
<polygon fill="none" stroke="black" points="2134.5,-190.5 2134.5,-220.5 2280.5,-220.5 2280.5,-190.5 2134.5,-190.5"/>
<text text-anchor="start" x="2142.5" y="-208.5" font-family="Helvetica,sans-Serif" font-size="10.00">ExpoConjugateGTRDPProfile</text>
<text text-anchor="middle" x="2207.5" y="-197.5" font-family="Helvetica,sans-Serif" font-size="10.00">Process.h</text>
</a>
</g>
</g>
<!-- Node50&#45;&gt;Node51 -->
<g id="edge38" class="edge"><title>Node50&#45;&gt;Node51</title>
<path fill="none" stroke="midnightblue" d="M2084.83,-253.682C2111.93,-243.257 2145.67,-230.281 2170.9,-220.577"/>
<polygon fill="midnightblue" stroke="midnightblue" points="2083.25,-250.539 2075.17,-257.396 2085.76,-257.073 2083.25,-250.539"/>
</g>
<!-- Node53 -->
<g id="node35" class="node"><title>Node53</title>
<g id="a_node35"><a xlink:href="ExpoConjugateGTRFiniteProfileProcess_8h.html" target="_top" xlink:title="ExpoConjugateGTRFiniteProfile\lProcess.h">
<polygon fill="none" stroke="black" points="1960.5,-190.5 1960.5,-220.5 2116.5,-220.5 2116.5,-190.5 1960.5,-190.5"/>
<text text-anchor="start" x="1968.5" y="-208.5" font-family="Helvetica,sans-Serif" font-size="10.00">ExpoConjugateGTRFiniteProfile</text>
<text text-anchor="middle" x="2038.5" y="-197.5" font-family="Helvetica,sans-Serif" font-size="10.00">Process.h</text>
</a>
</g>
</g>
<!-- Node50&#45;&gt;Node53 -->
<g id="edge41" class="edge"><title>Node50&#45;&gt;Node53</title>
<path fill="none" stroke="midnightblue" d="M2038.5,-247.108C2038.5,-238.154 2038.5,-228.323 2038.5,-220.577"/>
<polygon fill="midnightblue" stroke="midnightblue" points="2035,-247.396 2038.5,-257.396 2042,-247.396 2035,-247.396"/>
</g>
<!-- Node55 -->
<g id="node37" class="node"><title>Node55</title>
<g id="a_node37"><a xlink:href="ExpoConjugateGTRMixtureProfileProcess_8cpp.html" target="_top" xlink:title="ExpoConjugateGTRMixtureProfile\lProcess.cpp">
<polygon fill="none" stroke="black" points="1600.5,-190.5 1600.5,-220.5 1764.5,-220.5 1764.5,-190.5 1600.5,-190.5"/>
<text text-anchor="start" x="1608.5" y="-208.5" font-family="Helvetica,sans-Serif" font-size="10.00">ExpoConjugateGTRMixtureProfile</text>
<text text-anchor="middle" x="1682.5" y="-197.5" font-family="Helvetica,sans-Serif" font-size="10.00">Process.cpp</text>
</a>
</g>
</g>
<!-- Node50&#45;&gt;Node55 -->
<g id="edge44" class="edge"><title>Node50&#45;&gt;Node55</title>
<path fill="none" stroke="midnightblue" d="M1951.69,-255.649C1892.94,-244.923 1816.04,-230.882 1759.48,-220.555"/>
<polygon fill="midnightblue" stroke="midnightblue" points="1951.23,-259.123 1961.69,-257.476 1952.48,-252.237 1951.23,-259.123"/>
</g>
<!-- Node56 -->
<g id="node38" class="node"><title>Node56</title>
<g id="a_node38"><a xlink:href="ExpoConjugateGTRSBDPProfileProcess_8h.html" target="_top" xlink:title="ExpoConjugateGTRSBDPProfile\lProcess.h">
<polygon fill="none" stroke="black" points="1782.5,-190.5 1782.5,-220.5 1942.5,-220.5 1942.5,-190.5 1782.5,-190.5"/>
<text text-anchor="start" x="1790.5" y="-208.5" font-family="Helvetica,sans-Serif" font-size="10.00">ExpoConjugateGTRSBDPProfile</text>
<text text-anchor="middle" x="1862.5" y="-197.5" font-family="Helvetica,sans-Serif" font-size="10.00">Process.h</text>
</a>
</g>
</g>
<!-- Node50&#45;&gt;Node56 -->
<g id="edge45" class="edge"><title>Node50&#45;&gt;Node56</title>
<path fill="none" stroke="midnightblue" d="M1990.62,-253.819C1962.33,-243.371 1927.01,-230.323 1900.61,-220.577"/>
<polygon fill="midnightblue" stroke="midnightblue" points="1989.72,-257.215 2000.31,-257.396 1992.14,-250.648 1989.72,-257.215"/>
</g>
<!-- Node51&#45;&gt;Node43 -->
<g id="edge40" class="edge"><title>Node51&#45;&gt;Node43</title>
<path fill="none" stroke="midnightblue" d="M2191.91,-181.974C2183.85,-170.332 2174.48,-156.799 2168.52,-148.195"/>
<polygon fill="midnightblue" stroke="midnightblue" points="2189.17,-184.166 2197.74,-190.396 2194.92,-180.182 2189.17,-184.166"/>
</g>
<!-- Node52 -->
<g id="node34" class="node"><title>Node52</title>
<g id="a_node34"><a xlink:href="ExpoConjugateGTRDPProfileProcess_8cpp.html" target="_top" xlink:title="ExpoConjugateGTRDPProfile\lProcess.cpp">
<polygon fill="none" stroke="black" points="2453.5,-123.5 2453.5,-153.5 2599.5,-153.5 2599.5,-123.5 2453.5,-123.5"/>
<text text-anchor="start" x="2461.5" y="-141.5" font-family="Helvetica,sans-Serif" font-size="10.00">ExpoConjugateGTRDPProfile</text>
<text text-anchor="middle" x="2526.5" y="-130.5" font-family="Helvetica,sans-Serif" font-size="10.00">Process.cpp</text>
</a>
</g>
</g>
<!-- Node51&#45;&gt;Node52 -->
<g id="edge39" class="edge"><title>Node51&#45;&gt;Node52</title>
<path fill="none" stroke="midnightblue" d="M2286.27,-188.449C2338.79,-177.749 2407.16,-163.818 2457.52,-153.555"/>
<polygon fill="midnightblue" stroke="midnightblue" points="2285.43,-185.05 2276.33,-190.476 2286.82,-191.909 2285.43,-185.05"/>
</g>
<!-- Node53&#45;&gt;Node39 -->
<g id="edge43" class="edge"><title>Node53&#45;&gt;Node39</title>
<path fill="none" stroke="midnightblue" d="M2014.7,-183.598C2003.53,-173.783 1990.51,-162.344 1980.53,-153.577"/>
<polygon fill="midnightblue" stroke="midnightblue" points="2012.62,-186.426 2022.44,-190.396 2017.24,-181.167 2012.62,-186.426"/>
</g>
<!-- Node54 -->
<g id="node36" class="node"><title>Node54</title>
<g id="a_node36"><a xlink:href="ExpoConjugateGTRFiniteProfileProcess_8cpp.html" target="_top" xlink:title="ExpoConjugateGTRFiniteProfile\lProcess.cpp">
<polygon fill="none" stroke="black" points="2279.5,-123.5 2279.5,-153.5 2435.5,-153.5 2435.5,-123.5 2279.5,-123.5"/>
<text text-anchor="start" x="2287.5" y="-141.5" font-family="Helvetica,sans-Serif" font-size="10.00">ExpoConjugateGTRFiniteProfile</text>
<text text-anchor="middle" x="2357.5" y="-130.5" font-family="Helvetica,sans-Serif" font-size="10.00">Process.cpp</text>
</a>
</g>
</g>
<!-- Node53&#45;&gt;Node54 -->
<g id="edge42" class="edge"><title>Node53&#45;&gt;Node54</title>
<path fill="none" stroke="midnightblue" d="M2117.27,-188.449C2169.79,-177.749 2238.16,-163.818 2288.52,-153.555"/>
<polygon fill="midnightblue" stroke="midnightblue" points="2116.43,-185.05 2107.33,-190.476 2117.82,-191.909 2116.43,-185.05"/>
</g>
<!-- Node56&#45;&gt;Node41 -->
<g id="edge47" class="edge"><title>Node56&#45;&gt;Node41</title>
<path fill="none" stroke="midnightblue" d="M1792.06,-188.149C1737.12,-175.394 1663.01,-158.191 1619.24,-148.029"/>
<polygon fill="midnightblue" stroke="midnightblue" points="1791.56,-191.624 1802.09,-190.476 1793.14,-184.805 1791.56,-191.624"/>
</g>
<!-- Node57 -->
<g id="node39" class="node"><title>Node57</title>
<g id="a_node39"><a xlink:href="ExpoConjugateGTRSBDPProfileProcess_8cpp.html" target="_top" xlink:title="ExpoConjugateGTRSBDPProfile\lProcess.cpp">
<polygon fill="none" stroke="black" points="1705.5,-123.5 1705.5,-153.5 1865.5,-153.5 1865.5,-123.5 1705.5,-123.5"/>
<text text-anchor="start" x="1713.5" y="-141.5" font-family="Helvetica,sans-Serif" font-size="10.00">ExpoConjugateGTRSBDPProfile</text>
<text text-anchor="middle" x="1785.5" y="-130.5" font-family="Helvetica,sans-Serif" font-size="10.00">Process.cpp</text>
</a>
</g>
</g>
<!-- Node56&#45;&gt;Node57 -->
<g id="edge46" class="edge"><title>Node56&#45;&gt;Node57</title>
<path fill="none" stroke="midnightblue" d="M1838.08,-183.883C1826.38,-174.005 1812.66,-162.429 1802.18,-153.577"/>
<polygon fill="midnightblue" stroke="midnightblue" points="1835.89,-186.62 1845.79,-190.396 1840.41,-181.271 1835.89,-186.62"/>
</g>
<!-- Node59 -->
<g id="node41" class="node"><title>Node59</title>
<g id="a_node41"><a xlink:href="GeneralPathSuffStatGTRDPProfileProcess_8cpp.html" target="_top" xlink:title="GeneralPathSuffStatGTRDPProfile\lProcess.cpp">
<polygon fill="none" stroke="black" points="2298.5,-190.5 2298.5,-220.5 2468.5,-220.5 2468.5,-190.5 2298.5,-190.5"/>
<text text-anchor="start" x="2306.5" y="-208.5" font-family="Helvetica,sans-Serif" font-size="10.00">GeneralPathSuffStatGTRDPProfile</text>
<text text-anchor="middle" x="2383.5" y="-197.5" font-family="Helvetica,sans-Serif" font-size="10.00">Process.cpp</text>
</a>
</g>
</g>
<!-- Node58&#45;&gt;Node59 -->
<g id="edge49" class="edge"><title>Node58&#45;&gt;Node59</title>
<path fill="none" stroke="midnightblue" d="M2328.87,-250.883C2341.03,-241.005 2355.28,-229.429 2366.18,-220.577"/>
<polygon fill="midnightblue" stroke="midnightblue" points="2326.41,-248.374 2320.86,-257.396 2330.83,-253.806 2326.41,-248.374"/>
</g>
<!-- Node61 -->
<g id="node43" class="node"><title>Node61</title>
<g id="a_node43"><a xlink:href="GeneralPathSuffStatGTRFiniteProfileProcess_8cpp.html" target="_top" xlink:title="GeneralPathSuffStatGTRFinite\lProfileProcess.cpp">
<polygon fill="none" stroke="black" points="2486.5,-190.5 2486.5,-220.5 2638.5,-220.5 2638.5,-190.5 2486.5,-190.5"/>
<text text-anchor="start" x="2494.5" y="-208.5" font-family="Helvetica,sans-Serif" font-size="10.00">GeneralPathSuffStatGTRFinite</text>
<text text-anchor="middle" x="2562.5" y="-197.5" font-family="Helvetica,sans-Serif" font-size="10.00">ProfileProcess.cpp</text>
</a>
</g>
</g>
<!-- Node60&#45;&gt;Node61 -->
<g id="edge51" class="edge"><title>Node60&#45;&gt;Node61</title>
<path fill="none" stroke="midnightblue" d="M2507.87,-250.883C2520.03,-241.005 2534.28,-229.429 2545.18,-220.577"/>
<polygon fill="midnightblue" stroke="midnightblue" points="2505.41,-248.374 2499.86,-257.396 2509.83,-253.806 2505.41,-248.374"/>
</g>
<!-- Node63 -->
<g id="node45" class="node"><title>Node63</title>
<g id="a_node45"><a xlink:href="GeneralPathSuffStatGTRSBDPProfileProcess_8cpp.html" target="_top" xlink:title="GeneralPathSuffStatGTRSBDPProfile\lProcess.cpp">
<polygon fill="none" stroke="black" points="2657,-190.5 2657,-220.5 2840,-220.5 2840,-190.5 2657,-190.5"/>
<text text-anchor="start" x="2665" y="-208.5" font-family="Helvetica,sans-Serif" font-size="10.00">GeneralPathSuffStatGTRSBDPProfile</text>
<text text-anchor="middle" x="2748.5" y="-197.5" font-family="Helvetica,sans-Serif" font-size="10.00">Process.cpp</text>
</a>
</g>
</g>
<!-- Node62&#45;&gt;Node63 -->
<g id="edge53" class="edge"><title>Node62&#45;&gt;Node63</title>
<path fill="none" stroke="midnightblue" d="M2693.87,-250.883C2706.03,-241.005 2720.28,-229.429 2731.18,-220.577"/>
<polygon fill="midnightblue" stroke="midnightblue" points="2691.41,-248.374 2685.86,-257.396 2695.83,-253.806 2691.41,-248.374"/>
</g>
<!-- Node65&#45;&gt;Node46 -->
<g id="edge57" class="edge"><title>Node65&#45;&gt;Node46</title>
<path fill="none" stroke="midnightblue" d="M1809.39,-326.49C1777.18,-315.47 1729.46,-299.143 1695.51,-287.528"/>
<polygon fill="midnightblue" stroke="midnightblue" points="1808.67,-329.943 1819.27,-329.869 1810.94,-323.32 1808.67,-329.943"/>
</g>
<!-- Node65&#45;&gt;Node50 -->
<g id="edge56" class="edge"><title>Node65&#45;&gt;Node50</title>
<path fill="none" stroke="midnightblue" d="M1879.92,-326.633C1912.81,-315.612 1961.82,-299.193 1996.63,-287.528"/>
<polygon fill="midnightblue" stroke="midnightblue" points="1878.63,-323.373 1870.26,-329.869 1880.86,-330.01 1878.63,-323.373"/>
</g>
<!-- Node66 -->
<g id="node48" class="node"><title>Node66</title>
<g id="a_node48"><a xlink:href="ExpoConjugateGTRProfileProcess_8cpp.html" target="_top" xlink:title="ExpoConjugateGTRProfileProcess.cpp">
<polygon fill="none" stroke="black" points="1751,-263 1751,-282 1938,-282 1938,-263 1751,-263"/>
<text text-anchor="middle" x="1844.5" y="-270" font-family="Helvetica,sans-Serif" font-size="10.00">ExpoConjugateGTRProfileProcess.cpp</text>
</a>
</g>
</g>
<!-- Node65&#45;&gt;Node66 -->
<g id="edge58" class="edge"><title>Node65&#45;&gt;Node66</title>
<path fill="none" stroke="midnightblue" d="M1844.5,-319.537C1844.5,-307.17 1844.5,-291.62 1844.5,-282.127"/>
<polygon fill="midnightblue" stroke="midnightblue" points="1841,-319.734 1844.5,-329.734 1848,-319.734 1841,-319.734"/>
</g>
<!-- Node67&#45;&gt;Node48 -->
<g id="edge61" class="edge"><title>Node67&#45;&gt;Node48</title>
<path fill="none" stroke="midnightblue" d="M1430.56,-320.955C1400.76,-310.485 1363.43,-297.366 1335.56,-287.577"/>
<polygon fill="midnightblue" stroke="midnightblue" points="1429.76,-324.383 1440.36,-324.396 1432.08,-317.779 1429.76,-324.383"/>
</g>
<!-- Node68 -->
<g id="node50" class="node"><title>Node68</title>
<g id="a_node50"><a xlink:href="GeneralPathSuffStatGTRProfileProcess_8cpp.html" target="_top" xlink:title="GeneralPathSuffStatGTRProfile\lProcess.cpp">
<polygon fill="none" stroke="black" points="1403,-257.5 1403,-287.5 1558,-287.5 1558,-257.5 1403,-257.5"/>
<text text-anchor="start" x="1411" y="-275.5" font-family="Helvetica,sans-Serif" font-size="10.00">GeneralPathSuffStatGTRProfile</text>
<text text-anchor="middle" x="1480.5" y="-264.5" font-family="Helvetica,sans-Serif" font-size="10.00">Process.cpp</text>
</a>
</g>
</g>
<!-- Node67&#45;&gt;Node68 -->
<g id="edge60" class="edge"><title>Node67&#45;&gt;Node68</title>
<path fill="none" stroke="midnightblue" d="M1480.5,-314.108C1480.5,-305.154 1480.5,-295.323 1480.5,-287.577"/>
<polygon fill="midnightblue" stroke="midnightblue" points="1477,-314.396 1480.5,-324.396 1484,-314.396 1477,-314.396"/>
</g>
</g>
</svg>
