<?xml version="1.0" encoding="UTF-8" standalone="no"?>
<!DOCTYPE svg PUBLIC "-//W3C//DTD SVG 1.1//EN"
 "http://www.w3.org/Graphics/SVG/1.1/DTD/svg11.dtd">
<!-- Generated by graphviz version 2.38.0 (20140413.2041)
 -->
<!-- Title: GTRProfileProcess.h Pages: 1 -->
<svg width="592pt" height="308pt"
 viewBox="0.00 0.00 592.00 308.00" xmlns="http://www.w3.org/2000/svg" xmlns:xlink="http://www.w3.org/1999/xlink">
<g id="graph0" class="graph" transform="scale(1 1) rotate(0) translate(4 304)">
<title>GTRProfileProcess.h</title>
<!-- Node0 -->
<g id="node1" class="node"><title>Node0</title>
<polygon fill="#bfbfbf" stroke="black" points="170,-280.5 170,-299.5 280,-299.5 280,-280.5 170,-280.5"/>
<text text-anchor="middle" x="225" y="-287.5" font-family="Helvetica,sans-Serif" font-size="10.00">GTRProfileProcess.h</text>
</g>
<!-- Node1 -->
<g id="node2" class="node"><title>Node1</title>
<g id="a_node2"><a xlink:href="GTRSubMatrix_8h.html" target="_top" xlink:title="GTRSubMatrix.h">
<polygon fill="none" stroke="black" points="216,-168.5 216,-187.5 306,-187.5 306,-168.5 216,-168.5"/>
<text text-anchor="middle" x="261" y="-175.5" font-family="Helvetica,sans-Serif" font-size="10.00">GTRSubMatrix.h</text>
</a>
</g>
</g>
<!-- Node0&#45;&gt;Node1 -->
<g id="edge1" class="edge"><title>Node0&#45;&gt;Node1</title>
<path fill="none" stroke="midnightblue" d="M230.622,-280.404C236.119,-271.608 244.326,-257.373 249,-244 254.271,-228.919 257.358,-211.017 259.078,-197.823"/>
<polygon fill="midnightblue" stroke="midnightblue" points="262.584,-197.965 260.257,-187.629 255.631,-197.161 262.584,-197.965"/>
</g>
<!-- Node12 -->
<g id="node13" class="node"><title>Node12</title>
<g id="a_node13"><a xlink:href="MatrixProfileProcess_8h.html" target="_top" xlink:title="MatrixProfileProcess.h">
<polygon fill="none" stroke="black" points="124,-224.5 124,-243.5 240,-243.5 240,-224.5 124,-224.5"/>
<text text-anchor="middle" x="182" y="-231.5" font-family="Helvetica,sans-Serif" font-size="10.00">MatrixProfileProcess.h</text>
</a>
</g>
</g>
<!-- Node0&#45;&gt;Node12 -->
<g id="edge16" class="edge"><title>Node0&#45;&gt;Node12</title>
<path fill="none" stroke="midnightblue" d="M217.899,-280.083C211.763,-272.377 202.73,-261.033 195.261,-251.653"/>
<polygon fill="midnightblue" stroke="midnightblue" points="197.936,-249.394 188.968,-243.751 192.46,-253.754 197.936,-249.394"/>
</g>
<!-- Node2 -->
<g id="node3" class="node"><title>Node2</title>
<g id="a_node3"><a xlink:href="BiologicalSequences_8h.html" target="_top" xlink:title="BiologicalSequences.h">
<polygon fill="none" stroke="black" points="305,-56.5 305,-75.5 421,-75.5 421,-56.5 305,-56.5"/>
<text text-anchor="middle" x="363" y="-63.5" font-family="Helvetica,sans-Serif" font-size="10.00">BiologicalSequences.h</text>
</a>
</g>
</g>
<!-- Node1&#45;&gt;Node2 -->
<g id="edge2" class="edge"><title>Node1&#45;&gt;Node2</title>
<path fill="none" stroke="midnightblue" d="M269.004,-168.368C286.06,-149.974 326.214,-106.671 348.116,-83.0519"/>
<polygon fill="midnightblue" stroke="midnightblue" points="350.8,-85.3039 355.033,-75.5914 345.668,-80.5443 350.8,-85.3039"/>
</g>
<!-- Node6 -->
<g id="node7" class="node"><title>Node6</title>
<g id="a_node7"><a xlink:href="SubMatrix_8h.html" target="_top" xlink:title="SubMatrix.h">
<polygon fill="none" stroke="black" points="147.5,-112.5 147.5,-131.5 216.5,-131.5 216.5,-112.5 147.5,-112.5"/>
<text text-anchor="middle" x="182" y="-119.5" font-family="Helvetica,sans-Serif" font-size="10.00">SubMatrix.h</text>
</a>
</g>
</g>
<!-- Node1&#45;&gt;Node6 -->
<g id="edge6" class="edge"><title>Node1&#45;&gt;Node6</title>
<path fill="none" stroke="midnightblue" d="M248.307,-168.324C236.099,-159.979 217.422,-147.212 202.997,-137.352"/>
<polygon fill="midnightblue" stroke="midnightblue" points="204.892,-134.408 194.661,-131.655 200.942,-140.187 204.892,-134.408"/>
</g>
<!-- Node3 -->
<g id="node4" class="node"><title>Node3</title>
<polygon fill="none" stroke="#bfbfbf" points="340.5,-0.5 340.5,-19.5 385.5,-19.5 385.5,-0.5 340.5,-0.5"/>
<text text-anchor="middle" x="363" y="-7.5" font-family="Helvetica,sans-Serif" font-size="10.00">cstdlib</text>
</g>
<!-- Node2&#45;&gt;Node3 -->
<g id="edge3" class="edge"><title>Node2&#45;&gt;Node3</title>
<path fill="none" stroke="midnightblue" d="M363,-56.083C363,-49.0059 363,-38.8611 363,-29.9865"/>
<polygon fill="midnightblue" stroke="midnightblue" points="366.5,-29.751 363,-19.7511 359.5,-29.7511 366.5,-29.751"/>
</g>
<!-- Node4 -->
<g id="node5" class="node"><title>Node4</title>
<polygon fill="none" stroke="#bfbfbf" points="268,-0.5 268,-19.5 322,-19.5 322,-0.5 268,-0.5"/>
<text text-anchor="middle" x="295" y="-7.5" font-family="Helvetica,sans-Serif" font-size="10.00">iostream</text>
</g>
<!-- Node2&#45;&gt;Node4 -->
<g id="edge4" class="edge"><title>Node2&#45;&gt;Node4</title>
<path fill="none" stroke="midnightblue" d="M352.075,-56.324C341.825,-48.1849 326.279,-35.8395 313.999,-26.0874"/>
<polygon fill="midnightblue" stroke="midnightblue" points="316.132,-23.3119 306.124,-19.8339 311.779,-28.7937 316.132,-23.3119"/>
</g>
<!-- Node5 -->
<g id="node6" class="node"><title>Node5</title>
<polygon fill="none" stroke="#bfbfbf" points="403.5,-0.5 403.5,-19.5 444.5,-19.5 444.5,-0.5 403.5,-0.5"/>
<text text-anchor="middle" x="424" y="-7.5" font-family="Helvetica,sans-Serif" font-size="10.00">string</text>
</g>
<!-- Node2&#45;&gt;Node5 -->
<g id="edge5" class="edge"><title>Node2&#45;&gt;Node5</title>
<path fill="none" stroke="midnightblue" d="M372.801,-56.324C381.818,-48.3414 395.406,-36.3128 406.318,-26.6529"/>
<polygon fill="midnightblue" stroke="midnightblue" points="408.853,-29.083 414.021,-19.8339 404.213,-23.8416 408.853,-29.083"/>
</g>
<!-- Node6&#45;&gt;Node4 -->
<g id="edge7" class="edge"><title>Node6&#45;&gt;Node4</title>
<path fill="none" stroke="midnightblue" d="M190.867,-112.368C209.845,-93.8941 254.636,-50.2926 278.827,-26.7436"/>
<polygon fill="midnightblue" stroke="midnightblue" points="281.45,-29.0747 286.174,-19.5914 276.567,-24.0588 281.45,-29.0747"/>
</g>
<!-- Node7 -->
<g id="node8" class="node"><title>Node7</title>
<polygon fill="none" stroke="#bfbfbf" points="0,-0.5 0,-19.5 44,-19.5 44,-0.5 0,-0.5"/>
<text text-anchor="middle" x="22" y="-7.5" font-family="Helvetica,sans-Serif" font-size="10.00">cmath</text>
</g>
<!-- Node6&#45;&gt;Node7 -->
<g id="edge8" class="edge"><title>Node6&#45;&gt;Node7</title>
<path fill="none" stroke="midnightblue" d="M169.445,-112.368C142.106,-93.5728 76.9358,-48.7684 43.1395,-25.5334"/>
<polygon fill="midnightblue" stroke="midnightblue" points="44.7199,-22.3726 34.4966,-19.5914 40.7542,-28.1409 44.7199,-22.3726"/>
</g>
<!-- Node8 -->
<g id="node9" class="node"><title>Node8</title>
<g id="a_node9"><a xlink:href="Random_8h.html" target="_top" xlink:title="Random.h">
<polygon fill="none" stroke="black" points="140,-56.5 140,-75.5 202,-75.5 202,-56.5 140,-56.5"/>
<text text-anchor="middle" x="171" y="-63.5" font-family="Helvetica,sans-Serif" font-size="10.00">Random.h</text>
</a>
</g>
</g>
<!-- Node6&#45;&gt;Node8 -->
<g id="edge9" class="edge"><title>Node6&#45;&gt;Node8</title>
<path fill="none" stroke="midnightblue" d="M180.184,-112.083C178.726,-104.927 176.629,-94.6353 174.807,-85.6911"/>
<polygon fill="midnightblue" stroke="midnightblue" points="178.208,-84.8512 172.783,-75.7511 171.349,-86.2485 178.208,-84.8512"/>
</g>
<!-- Node8&#45;&gt;Node3 -->
<g id="edge11" class="edge"><title>Node8&#45;&gt;Node3</title>
<path fill="none" stroke="midnightblue" d="M201.423,-56.4435C236.55,-46.5639 294.117,-30.3734 330.215,-20.2208"/>
<polygon fill="midnightblue" stroke="midnightblue" points="331.556,-23.4794 340.235,-17.4026 329.661,-16.7408 331.556,-23.4794"/>
</g>
<!-- Node8&#45;&gt;Node4 -->
<g id="edge12" class="edge"><title>Node8&#45;&gt;Node4</title>
<path fill="none" stroke="midnightblue" d="M190.648,-56.4435C210.965,-47.5961 242.903,-33.6875 266.098,-23.5865"/>
<polygon fill="midnightblue" stroke="midnightblue" points="267.673,-26.7181 275.444,-19.5164 264.878,-20.3002 267.673,-26.7181"/>
</g>
<!-- Node8&#45;&gt;Node7 -->
<g id="edge10" class="edge"><title>Node8&#45;&gt;Node7</title>
<path fill="none" stroke="midnightblue" d="M147.391,-56.4435C122.104,-47.2792 81.8334,-32.6846 53.7759,-22.5161"/>
<polygon fill="midnightblue" stroke="midnightblue" points="54.636,-19.1051 44.0418,-18.9883 52.2509,-25.6862 54.636,-19.1051"/>
</g>
<!-- Node9 -->
<g id="node10" class="node"><title>Node9</title>
<polygon fill="none" stroke="#bfbfbf" points="198,-0.5 198,-19.5 250,-19.5 250,-0.5 198,-0.5"/>
<text text-anchor="middle" x="224" y="-7.5" font-family="Helvetica,sans-Serif" font-size="10.00">sstream</text>
</g>
<!-- Node8&#45;&gt;Node9 -->
<g id="edge13" class="edge"><title>Node8&#45;&gt;Node9</title>
<path fill="none" stroke="midnightblue" d="M179.752,-56.083C187.47,-48.2195 198.905,-36.5688 208.217,-27.0813"/>
<polygon fill="midnightblue" stroke="midnightblue" points="210.904,-29.3396 215.411,-19.7511 205.908,-24.4363 210.904,-29.3396"/>
</g>
<!-- Node10 -->
<g id="node11" class="node"><title>Node10</title>
<polygon fill="none" stroke="#bfbfbf" points="62,-0.5 62,-19.5 112,-19.5 112,-0.5 62,-0.5"/>
<text text-anchor="middle" x="87" y="-7.5" font-family="Helvetica,sans-Serif" font-size="10.00">iomanip</text>
</g>
<!-- Node8&#45;&gt;Node10 -->
<g id="edge14" class="edge"><title>Node8&#45;&gt;Node10</title>
<path fill="none" stroke="midnightblue" d="M157.504,-56.324C144.4,-47.9002 124.288,-34.9709 108.893,-25.0741"/>
<polygon fill="midnightblue" stroke="midnightblue" points="110.767,-22.118 100.463,-19.6545 106.982,-28.0063 110.767,-22.118"/>
</g>
<!-- Node11 -->
<g id="node12" class="node"><title>Node11</title>
<polygon fill="none" stroke="#bfbfbf" points="130,-0.5 130,-19.5 180,-19.5 180,-0.5 130,-0.5"/>
<text text-anchor="middle" x="155" y="-7.5" font-family="Helvetica,sans-Serif" font-size="10.00">fstream</text>
</g>
<!-- Node8&#45;&gt;Node11 -->
<g id="edge15" class="edge"><title>Node8&#45;&gt;Node11</title>
<path fill="none" stroke="midnightblue" d="M168.358,-56.083C166.214,-48.8486 163.121,-38.4087 160.451,-29.3968"/>
<polygon fill="midnightblue" stroke="midnightblue" points="163.79,-28.3447 157.593,-19.7511 157.078,-30.3334 163.79,-28.3447"/>
</g>
<!-- Node12&#45;&gt;Node6 -->
<g id="edge17" class="edge"><title>Node12&#45;&gt;Node6</title>
<path fill="none" stroke="midnightblue" d="M182,-224.368C182,-206.617 182,-165.666 182,-141.597"/>
<polygon fill="midnightblue" stroke="midnightblue" points="185.5,-141.591 182,-131.591 178.5,-141.591 185.5,-141.591"/>
</g>
<!-- Node13 -->
<g id="node14" class="node"><title>Node13</title>
<g id="a_node14"><a xlink:href="ProfileProcess_8h.html" target="_top" xlink:title="ProfileProcess.h">
<polygon fill="none" stroke="black" points="324.5,-168.5 324.5,-187.5 413.5,-187.5 413.5,-168.5 324.5,-168.5"/>
<text text-anchor="middle" x="369" y="-175.5" font-family="Helvetica,sans-Serif" font-size="10.00">ProfileProcess.h</text>
</a>
</g>
</g>
<!-- Node12&#45;&gt;Node13 -->
<g id="edge18" class="edge"><title>Node12&#45;&gt;Node13</title>
<path fill="none" stroke="midnightblue" d="M211.631,-224.444C243.5,-215.241 294.333,-200.562 329.564,-190.388"/>
<polygon fill="midnightblue" stroke="midnightblue" points="330.872,-193.653 339.508,-187.516 328.929,-186.928 330.872,-193.653"/>
</g>
<!-- Node13&#45;&gt;Node4 -->
<g id="edge26" class="edge"><title>Node13&#45;&gt;Node4</title>
<path fill="none" stroke="midnightblue" d="M359.04,-168.416C349.505,-159.853 335.115,-145.99 325,-132 308.578,-109.287 302.842,-103.18 296,-76 292.164,-60.763 292.205,-42.8752 293.04,-29.7259"/>
<polygon fill="midnightblue" stroke="midnightblue" points="296.543,-29.8361 293.901,-19.576 289.568,-29.2443 296.543,-29.8361"/>
</g>
<!-- Node14 -->
<g id="node15" class="node"><title>Node14</title>
<g id="a_node15"><a xlink:href="Chrono_8h.html" target="_top" xlink:title="Chrono.h">
<polygon fill="none" stroke="black" points="455,-56.5 455,-75.5 511,-75.5 511,-56.5 455,-56.5"/>
<text text-anchor="middle" x="483" y="-63.5" font-family="Helvetica,sans-Serif" font-size="10.00">Chrono.h</text>
</a>
</g>
</g>
<!-- Node13&#45;&gt;Node14 -->
<g id="edge19" class="edge"><title>Node13&#45;&gt;Node14</title>
<path fill="none" stroke="midnightblue" d="M412.86,-168.455C434.223,-162.016 458.391,-150.919 473,-132 483.131,-118.88 484.987,-99.7343 484.696,-85.6182"/>
<polygon fill="midnightblue" stroke="midnightblue" points="488.187,-85.3692 484.119,-75.5868 481.199,-85.7713 488.187,-85.3692"/>
</g>
<!-- Node17 -->
<g id="node18" class="node"><title>Node17</title>
<g id="a_node18"><a xlink:href="StateSpace_8h.html" target="_top" xlink:title="StateSpace.h">
<polygon fill="none" stroke="black" points="388,-112.5 388,-131.5 464,-131.5 464,-112.5 388,-112.5"/>
<text text-anchor="middle" x="426" y="-119.5" font-family="Helvetica,sans-Serif" font-size="10.00">StateSpace.h</text>
</a>
</g>
</g>
<!-- Node13&#45;&gt;Node17 -->
<g id="edge24" class="edge"><title>Node13&#45;&gt;Node17</title>
<path fill="none" stroke="midnightblue" d="M378.158,-168.324C386.501,-160.42 399.032,-148.548 409.177,-138.938"/>
<polygon fill="midnightblue" stroke="midnightblue" points="411.823,-141.252 416.675,-131.834 407.009,-136.171 411.823,-141.252"/>
</g>
<!-- Node18 -->
<g id="node19" class="node"><title>Node18</title>
<polygon fill="none" stroke="#bfbfbf" points="334.5,-112.5 334.5,-131.5 369.5,-131.5 369.5,-112.5 334.5,-112.5"/>
<text text-anchor="middle" x="352" y="-119.5" font-family="Helvetica,sans-Serif" font-size="10.00">map</text>
</g>
<!-- Node13&#45;&gt;Node18 -->
<g id="edge27" class="edge"><title>Node13&#45;&gt;Node18</title>
<path fill="none" stroke="midnightblue" d="M366.193,-168.083C363.915,-160.849 360.629,-150.409 357.792,-141.397"/>
<polygon fill="midnightblue" stroke="midnightblue" points="361.096,-140.239 354.755,-131.751 354.419,-142.341 361.096,-140.239"/>
</g>
<!-- Node14&#45;&gt;Node3 -->
<g id="edge23" class="edge"><title>Node14&#45;&gt;Node3</title>
<path fill="none" stroke="midnightblue" d="M463.986,-56.4435C444.412,-47.6356 413.692,-33.8116 391.271,-23.722"/>
<polygon fill="midnightblue" stroke="midnightblue" points="392.481,-20.4284 381.925,-19.5164 389.608,-26.8119 392.481,-20.4284"/>
</g>
<!-- Node14&#45;&gt;Node4 -->
<g id="edge22" class="edge"><title>Node14&#45;&gt;Node4</title>
<path fill="none" stroke="midnightblue" d="M454.855,-56.9157C422.084,-47.5028 367.854,-31.9261 331.777,-21.5636"/>
<polygon fill="midnightblue" stroke="midnightblue" points="332.693,-18.1853 322.116,-18.7885 330.761,-24.9133 332.693,-18.1853"/>
</g>
<!-- Node15 -->
<g id="node16" class="node"><title>Node15</title>
<polygon fill="none" stroke="#bfbfbf" points="462.5,-0.5 462.5,-19.5 503.5,-19.5 503.5,-0.5 462.5,-0.5"/>
<text text-anchor="middle" x="483" y="-7.5" font-family="Helvetica,sans-Serif" font-size="10.00">ctime</text>
</g>
<!-- Node14&#45;&gt;Node15 -->
<g id="edge20" class="edge"><title>Node14&#45;&gt;Node15</title>
<path fill="none" stroke="midnightblue" d="M483,-56.083C483,-49.0059 483,-38.8611 483,-29.9865"/>
<polygon fill="midnightblue" stroke="midnightblue" points="486.5,-29.751 483,-19.7511 479.5,-29.7511 486.5,-29.751"/>
</g>
<!-- Node16 -->
<g id="node17" class="node"><title>Node16</title>
<polygon fill="none" stroke="#bfbfbf" points="522,-0.5 522,-19.5 584,-19.5 584,-0.5 522,-0.5"/>
<text text-anchor="middle" x="553" y="-7.5" font-family="Helvetica,sans-Serif" font-size="10.00">sys/time.h</text>
</g>
<!-- Node14&#45;&gt;Node16 -->
<g id="edge21" class="edge"><title>Node14&#45;&gt;Node16</title>
<path fill="none" stroke="midnightblue" d="M494.247,-56.324C504.797,-48.1849 520.801,-35.8395 533.442,-26.0874"/>
<polygon fill="midnightblue" stroke="midnightblue" points="535.769,-28.7132 541.549,-19.8339 531.493,-23.1707 535.769,-28.7132"/>
</g>
<!-- Node17&#45;&gt;Node2 -->
<g id="edge25" class="edge"><title>Node17&#45;&gt;Node2</title>
<path fill="none" stroke="midnightblue" d="M415.878,-112.324C406.474,-104.263 392.256,-92.0765 380.931,-82.3695"/>
<polygon fill="midnightblue" stroke="midnightblue" points="383.177,-79.6844 373.306,-75.8339 378.621,-84.9993 383.177,-79.6844"/>
</g>
</g>
</svg>
