<?xml version="1.0" encoding="UTF-8" standalone="no"?>
<!DOCTYPE svg PUBLIC "-//W3C//DTD SVG 1.1//EN"
 "http://www.w3.org/Graphics/SVG/1.1/DTD/svg11.dtd">
<!-- Generated by graphviz version 2.40.1 (20161225.0304)
 -->
<!-- Title: GTRSubMatrix.h Pages: 1 -->
<svg width="1025pt" height="453pt"
 viewBox="0.00 0.00 1024.50 453.00" xmlns="http://www.w3.org/2000/svg" xmlns:xlink="http://www.w3.org/1999/xlink">
<g id="graph0" class="graph" transform="scale(1 1) rotate(0) translate(4 449)">
<title>GTRSubMatrix.h</title>
<!-- Node11 -->
<g id="node1" class="node">
<title>Node11</title>
<polygon fill="#bfbfbf" stroke="#000000" points="553,-425.5 553,-444.5 643,-444.5 643,-425.5 553,-425.5"/>
<text text-anchor="middle" x="598" y="-432.5" font-family="Helvetica,sans-Serif" font-size="10.00" fill="#000000">GTRSubMatrix.h</text>
</g>
<!-- Node12 -->
<g id="node2" class="node">
<title>Node12</title>
<g id="a_node2"><a xlink:href="GTRProfileProcess_8h.html" target="_top" xlink:title="GTRProfileProcess.h">
<polygon fill="none" stroke="#000000" points="481,-369.5 481,-388.5 591,-388.5 591,-369.5 481,-369.5"/>
<text text-anchor="middle" x="536" y="-376.5" font-family="Helvetica,sans-Serif" font-size="10.00" fill="#000000">GTRProfileProcess.h</text>
</a>
</g>
</g>
<!-- Node11&#45;&gt;Node12 -->
<g id="edge1" class="edge">
<title>Node11&#45;&gt;Node12</title>
<path fill="none" stroke="#191970" d="M579.5779,-418.3607C568.8519,-408.6727 555.7066,-396.7995 546.6758,-388.6427"/>
<polygon fill="#191970" stroke="#191970" points="577.4334,-421.14 587.2004,-425.2455 582.1254,-415.9453 577.4334,-421.14"/>
</g>
<!-- Node35 -->
<g id="node25" class="node">
<title>Node35</title>
<g id="a_node25"><a xlink:href="GTRSubMatrix_8cpp.html" target="_top" xlink:title="GTRSubMatrix.cpp">
<polygon fill="none" stroke="#000000" points="609.5,-369.5 609.5,-388.5 710.5,-388.5 710.5,-369.5 609.5,-369.5"/>
<text text-anchor="middle" x="660" y="-376.5" font-family="Helvetica,sans-Serif" font-size="10.00" fill="#000000">GTRSubMatrix.cpp</text>
</a>
</g>
</g>
<!-- Node11&#45;&gt;Node35 -->
<g id="edge28" class="edge">
<title>Node11&#45;&gt;Node35</title>
<path fill="none" stroke="#191970" d="M616.4221,-418.3607C627.1481,-408.6727 640.2934,-396.7995 649.3242,-388.6427"/>
<polygon fill="#191970" stroke="#191970" points="613.8746,-415.9453 608.7996,-425.2455 618.5666,-421.14 613.8746,-415.9453"/>
</g>
<!-- Node13 -->
<g id="node3" class="node">
<title>Node13</title>
<g id="a_node3"><a xlink:href="GTRMixtureProfileProcess_8h.html" target="_top" xlink:title="GTRMixtureProfileProcess.h">
<polygon fill="none" stroke="#000000" points="181,-313.5 181,-332.5 323,-332.5 323,-313.5 181,-313.5"/>
<text text-anchor="middle" x="252" y="-320.5" font-family="Helvetica,sans-Serif" font-size="10.00" fill="#000000">GTRMixtureProfileProcess.h</text>
</a>
</g>
</g>
<!-- Node12&#45;&gt;Node13 -->
<g id="edge2" class="edge">
<title>Node12&#45;&gt;Node13</title>
<path fill="none" stroke="#191970" d="M477.6839,-367.501C425.316,-357.175 349.3405,-342.1939 300.2986,-332.5237"/>
<polygon fill="#191970" stroke="#191970" points="477.0131,-370.9361 487.5014,-369.4369 478.3674,-364.0683 477.0131,-370.9361"/>
</g>
<!-- Node23 -->
<g id="node13" class="node">
<title>Node23</title>
<g id="a_node13"><a xlink:href="ExpoConjugateGTRProfileProcess_8h.html" target="_top" xlink:title="ExpoConjugateGTRProfileProcess.h">
<polygon fill="none" stroke="#000000" points="362,-313.5 362,-332.5 538,-332.5 538,-313.5 362,-313.5"/>
<text text-anchor="middle" x="450" y="-320.5" font-family="Helvetica,sans-Serif" font-size="10.00" fill="#000000">ExpoConjugateGTRProfileProcess.h</text>
</a>
</g>
</g>
<!-- Node12&#45;&gt;Node23 -->
<g id="edge12" class="edge">
<title>Node12&#45;&gt;Node23</title>
<path fill="none" stroke="#191970" d="M512.6095,-363.769C497.3701,-353.8456 477.9491,-341.1994 464.8084,-332.6427"/>
<polygon fill="#191970" stroke="#191970" points="510.7301,-366.7218 521.0199,-369.2455 514.5498,-360.8558 510.7301,-366.7218"/>
</g>
<!-- Node29 -->
<g id="node19" class="node">
<title>Node29</title>
<g id="a_node19"><a xlink:href="GTRSubstitutionProcess_8h.html" target="_top" xlink:title="GTRSubstitutionProcess.h">
<polygon fill="none" stroke="#000000" points="564,-313.5 564,-332.5 698,-332.5 698,-313.5 564,-313.5"/>
<text text-anchor="middle" x="631" y="-320.5" font-family="Helvetica,sans-Serif" font-size="10.00" fill="#000000">GTRSubstitutionProcess.h</text>
</a>
</g>
</g>
<!-- Node12&#45;&gt;Node29 -->
<g id="edge20" class="edge">
<title>Node12&#45;&gt;Node29</title>
<path fill="none" stroke="#191970" d="M561.3676,-364.0465C578.271,-354.0824 599.9904,-341.2794 614.6419,-332.6427"/>
<polygon fill="#191970" stroke="#191970" points="559.3851,-361.1522 552.5477,-369.2455 562.9398,-367.1825 559.3851,-361.1522"/>
</g>
<!-- Node34 -->
<g id="node24" class="node">
<title>Node34</title>
<g id="a_node24"><a xlink:href="GTRProfileProcess_8cpp.html" target="_top" xlink:title="GTRProfileProcess.cpp">
<polygon fill="none" stroke="#000000" points="716,-313.5 716,-332.5 836,-332.5 836,-313.5 716,-313.5"/>
<text text-anchor="middle" x="776" y="-320.5" font-family="Helvetica,sans-Serif" font-size="10.00" fill="#000000">GTRProfileProcess.cpp</text>
</a>
</g>
</g>
<!-- Node12&#45;&gt;Node34 -->
<g id="edge27" class="edge">
<title>Node12&#45;&gt;Node34</title>
<path fill="none" stroke="#191970" d="M586.9466,-367.1125C631.134,-356.8021 694.2574,-342.0733 735.1843,-332.5237"/>
<polygon fill="#191970" stroke="#191970" points="585.9279,-363.7561 576.9848,-369.4369 587.5185,-370.573 585.9279,-363.7561"/>
</g>
<!-- Node14 -->
<g id="node4" class="node">
<title>Node14</title>
<g id="a_node4"><a xlink:href="ExpoConjugateGTRMixtureProfileProcess_8h.html" target="_top" xlink:title="ExpoConjugateGTRMixtureProfile\lProcess.h">
<polygon fill="none" stroke="#000000" points="170,-246.5 170,-276.5 334,-276.5 334,-246.5 170,-246.5"/>
<text text-anchor="start" x="178" y="-264.5" font-family="Helvetica,sans-Serif" font-size="10.00" fill="#000000">ExpoConjugateGTRMixtureProfile</text>
<text text-anchor="middle" x="252" y="-253.5" font-family="Helvetica,sans-Serif" font-size="10.00" fill="#000000">Process.h</text>
</a>
</g>
</g>
<!-- Node13&#45;&gt;Node14 -->
<g id="edge3" class="edge">
<title>Node13&#45;&gt;Node14</title>
<path fill="none" stroke="#191970" d="M252,-303.3693C252,-294.681 252,-284.6241 252,-276.5446"/>
<polygon fill="#191970" stroke="#191970" points="248.5001,-303.3906 252,-313.3906 255.5001,-303.3907 248.5001,-303.3906"/>
</g>
<!-- Node22 -->
<g id="node12" class="node">
<title>Node22</title>
<g id="a_node12"><a xlink:href="GTRMixtureProfileProcess_8cpp.html" target="_top" xlink:title="GTRMixtureProfileProcess.cpp">
<polygon fill="none" stroke="#000000" points="0,-252 0,-271 152,-271 152,-252 0,-252"/>
<text text-anchor="middle" x="76" y="-259" font-family="Helvetica,sans-Serif" font-size="10.00" fill="#000000">GTRMixtureProfileProcess.cpp</text>
</a>
</g>
</g>
<!-- Node13&#45;&gt;Node22 -->
<g id="edge11" class="edge">
<title>Node13&#45;&gt;Node22</title>
<path fill="none" stroke="#191970" d="M214.6547,-309.9504C181.2897,-298.2916 133.1934,-281.4852 103.3069,-271.0419"/>
<polygon fill="#191970" stroke="#191970" points="213.9052,-313.3959 224.5,-313.3906 216.2143,-306.7877 213.9052,-313.3959"/>
</g>
<!-- Node15 -->
<g id="node5" class="node">
<title>Node15</title>
<g id="a_node5"><a xlink:href="ExpoConjugateGTRMixtureProfileProcess_8cpp.html" target="_top" xlink:title="ExpoConjugateGTRMixtureProfile\lProcess.cpp">
<polygon fill="none" stroke="#000000" points="3,-179.5 3,-209.5 167,-209.5 167,-179.5 3,-179.5"/>
<text text-anchor="start" x="11" y="-197.5" font-family="Helvetica,sans-Serif" font-size="10.00" fill="#000000">ExpoConjugateGTRMixtureProfile</text>
<text text-anchor="middle" x="85" y="-186.5" font-family="Helvetica,sans-Serif" font-size="10.00" fill="#000000">Process.cpp</text>
</a>
</g>
</g>
<!-- Node14&#45;&gt;Node15 -->
<g id="edge4" class="edge">
<title>Node14&#45;&gt;Node15</title>
<path fill="none" stroke="#191970" d="M205.2088,-242.7275C179.1294,-232.2645 147.0852,-219.4084 122.6415,-209.6017"/>
<polygon fill="#191970" stroke="#191970" points="203.9378,-245.9887 214.5219,-246.4639 206.5442,-239.492 203.9378,-245.9887"/>
</g>
<!-- Node16 -->
<g id="node6" class="node">
<title>Node16</title>
<g id="a_node6"><a xlink:href="ExpoConjugateGTRSBDPProfileProcess_8h.html" target="_top" xlink:title="ExpoConjugateGTRSBDPProfile\lProcess.h">
<polygon fill="none" stroke="#000000" points="185,-179.5 185,-209.5 345,-209.5 345,-179.5 185,-179.5"/>
<text text-anchor="start" x="193" y="-197.5" font-family="Helvetica,sans-Serif" font-size="10.00" fill="#000000">ExpoConjugateGTRSBDPProfile</text>
<text text-anchor="middle" x="265" y="-186.5" font-family="Helvetica,sans-Serif" font-size="10.00" fill="#000000">Process.h</text>
</a>
</g>
</g>
<!-- Node14&#45;&gt;Node16 -->
<g id="edge5" class="edge">
<title>Node14&#45;&gt;Node16</title>
<path fill="none" stroke="#191970" d="M256.8861,-236.3179C258.6278,-227.3414 260.5345,-217.5143 262.0618,-209.6432"/>
<polygon fill="#191970" stroke="#191970" points="253.4188,-235.813 254.9499,-246.2967 260.2907,-237.1464 253.4188,-235.813"/>
</g>
<!-- Node17 -->
<g id="node7" class="node">
<title>Node17</title>
<g id="a_node7"><a xlink:href="ExpoConjugateGTRSBDPProfileProcess_8cpp.html" target="_top" xlink:title="ExpoConjugateGTRSBDPProfile\lProcess.cpp">
<polygon fill="none" stroke="#000000" points="138,-112.5 138,-142.5 298,-142.5 298,-112.5 138,-112.5"/>
<text text-anchor="start" x="146" y="-130.5" font-family="Helvetica,sans-Serif" font-size="10.00" fill="#000000">ExpoConjugateGTRSBDPProfile</text>
<text text-anchor="middle" x="218" y="-119.5" font-family="Helvetica,sans-Serif" font-size="10.00" fill="#000000">Process.cpp</text>
</a>
</g>
</g>
<!-- Node16&#45;&gt;Node17 -->
<g id="edge6" class="edge">
<title>Node16&#45;&gt;Node17</title>
<path fill="none" stroke="#191970" d="M248.5588,-171.0626C241.943,-161.6315 234.5045,-151.0276 228.6228,-142.6432"/>
<polygon fill="#191970" stroke="#191970" points="245.7268,-173.1201 254.335,-179.2967 251.4574,-169.1001 245.7268,-173.1201"/>
</g>
<!-- Node18 -->
<g id="node8" class="node">
<title>Node18</title>
<g id="a_node8"><a xlink:href="RASCATGTRSBDPGammaPhyloProcess_8h.html" target="_top" xlink:title="RASCATGTRSBDPGammaPhyloProcess.h">
<polygon fill="none" stroke="#000000" points="316,-118 316,-137 526,-137 526,-118 316,-118"/>
<text text-anchor="middle" x="421" y="-125" font-family="Helvetica,sans-Serif" font-size="10.00" fill="#000000">RASCATGTRSBDPGammaPhyloProcess.h</text>
</a>
</g>
</g>
<!-- Node16&#45;&gt;Node18 -->
<g id="edge7" class="edge">
<title>Node16&#45;&gt;Node18</title>
<path fill="none" stroke="#191970" d="M309.5617,-175.3613C338.6868,-162.8525 375.4844,-147.0484 398.6386,-137.1039"/>
<polygon fill="#191970" stroke="#191970" points="307.8166,-172.3016 300.0094,-179.4639 310.5791,-178.7335 307.8166,-172.3016"/>
</g>
<!-- Node19 -->
<g id="node9" class="node">
<title>Node19</title>
<g id="a_node9"><a xlink:href="Model_8h.html" target="_top" xlink:title="Model.h">
<polygon fill="none" stroke="#000000" points="318.5,-56.5 318.5,-75.5 369.5,-75.5 369.5,-56.5 318.5,-56.5"/>
<text text-anchor="middle" x="344" y="-63.5" font-family="Helvetica,sans-Serif" font-size="10.00" fill="#000000">Model.h</text>
</a>
</g>
</g>
<!-- Node18&#45;&gt;Node19 -->
<g id="edge8" class="edge">
<title>Node18&#45;&gt;Node19</title>
<path fill="none" stroke="#191970" d="M401.1542,-111.6491C386.847,-100.222 368.0076,-85.1749 355.9468,-75.5419"/>
<polygon fill="#191970" stroke="#191970" points="398.9708,-114.3846 408.9688,-117.8906 403.3394,-108.915 398.9708,-114.3846"/>
</g>
<!-- Node21 -->
<g id="node11" class="node">
<title>Node21</title>
<g id="a_node11"><a xlink:href="RASCATGTRSBDPGammaPhyloProcess_8cpp.html" target="_top" xlink:title="RASCATGTRSBDPGammaPhyloProcess.cpp">
<polygon fill="none" stroke="#000000" points="387.5,-56.5 387.5,-75.5 608.5,-75.5 608.5,-56.5 387.5,-56.5"/>
<text text-anchor="middle" x="498" y="-63.5" font-family="Helvetica,sans-Serif" font-size="10.00" fill="#000000">RASCATGTRSBDPGammaPhyloProcess.cpp</text>
</a>
</g>
</g>
<!-- Node18&#45;&gt;Node21 -->
<g id="edge10" class="edge">
<title>Node18&#45;&gt;Node21</title>
<path fill="none" stroke="#191970" d="M440.8458,-111.6491C455.153,-100.222 473.9924,-85.1749 486.0532,-75.5419"/>
<polygon fill="#191970" stroke="#191970" points="438.6606,-108.915 433.0313,-117.8906 443.0292,-114.3846 438.6606,-108.915"/>
</g>
<!-- Node20 -->
<g id="node10" class="node">
<title>Node20</title>
<g id="a_node10"><a xlink:href="PB_8cpp.html" target="_top" xlink:title="PB.cpp">
<polygon fill="none" stroke="#000000" points="319.5,-.5 319.5,-19.5 368.5,-19.5 368.5,-.5 319.5,-.5"/>
<text text-anchor="middle" x="344" y="-7.5" font-family="Helvetica,sans-Serif" font-size="10.00" fill="#000000">PB.cpp</text>
</a>
</g>
</g>
<!-- Node19&#45;&gt;Node20 -->
<g id="edge9" class="edge">
<title>Node19&#45;&gt;Node20</title>
<path fill="none" stroke="#191970" d="M344,-46.1575C344,-37.155 344,-26.9199 344,-19.6427"/>
<polygon fill="#191970" stroke="#191970" points="340.5001,-46.2455 344,-56.2455 347.5001,-46.2456 340.5001,-46.2455"/>
</g>
<!-- Node23&#45;&gt;Node14 -->
<g id="edge13" class="edge">
<title>Node23&#45;&gt;Node14</title>
<path fill="none" stroke="#191970" d="M409.2687,-310.3486C377.6854,-300.5386 333.8184,-286.9133 300.4362,-276.5446"/>
<polygon fill="#191970" stroke="#191970" points="408.4743,-313.7668 419.0625,-313.3906 410.5508,-307.0818 408.4743,-313.7668"/>
</g>
<!-- Node24 -->
<g id="node14" class="node">
<title>Node24</title>
<g id="a_node14"><a xlink:href="ExpoConjugateGTRSubstitutionProcess_8h.html" target="_top" xlink:title="ExpoConjugateGTRSubstitution\lProcess.h">
<polygon fill="none" stroke="#000000" points="558,-246.5 558,-276.5 714,-276.5 714,-246.5 558,-246.5"/>
<text text-anchor="start" x="566" y="-264.5" font-family="Helvetica,sans-Serif" font-size="10.00" fill="#000000">ExpoConjugateGTRSubstitution</text>
<text text-anchor="middle" x="636" y="-253.5" font-family="Helvetica,sans-Serif" font-size="10.00" fill="#000000">Process.h</text>
</a>
</g>
</g>
<!-- Node23&#45;&gt;Node24 -->
<g id="edge14" class="edge">
<title>Node23&#45;&gt;Node24</title>
<path fill="none" stroke="#191970" d="M488.6487,-310.221C518.2885,-300.4207 559.276,-286.8684 590.4993,-276.5446"/>
<polygon fill="#191970" stroke="#191970" points="487.4582,-306.9282 479.0625,-313.3906 489.6557,-313.5743 487.4582,-306.9282"/>
</g>
<!-- Node28 -->
<g id="node18" class="node">
<title>Node28</title>
<g id="a_node18"><a xlink:href="ExpoConjugateGTRProfileProcess_8cpp.html" target="_top" xlink:title="ExpoConjugateGTRProfileProcess.cpp">
<polygon fill="none" stroke="#000000" points="352.5,-252 352.5,-271 539.5,-271 539.5,-252 352.5,-252"/>
<text text-anchor="middle" x="446" y="-259" font-family="Helvetica,sans-Serif" font-size="10.00" fill="#000000">ExpoConjugateGTRProfileProcess.cpp</text>
</a>
</g>
</g>
<!-- Node23&#45;&gt;Node28 -->
<g id="edge19" class="edge">
<title>Node23&#45;&gt;Node28</title>
<path fill="none" stroke="#191970" d="M448.7152,-303.2462C448.0196,-292.5519 447.1912,-279.814 446.6338,-271.2449"/>
<polygon fill="#191970" stroke="#191970" points="445.2333,-303.6389 449.375,-313.3906 452.2185,-303.1845 445.2333,-303.6389"/>
</g>
<!-- Node25 -->
<g id="node15" class="node">
<title>Node25</title>
<g id="a_node15"><a xlink:href="ExpoConjugateGTRPhyloProcess_8h.html" target="_top" xlink:title="ExpoConjugateGTRPhyloProcess.h">
<polygon fill="none" stroke="#000000" points="549.5,-185 549.5,-204 722.5,-204 722.5,-185 549.5,-185"/>
<text text-anchor="middle" x="636" y="-192" font-family="Helvetica,sans-Serif" font-size="10.00" fill="#000000">ExpoConjugateGTRPhyloProcess.h</text>
</a>
</g>
</g>
<!-- Node24&#45;&gt;Node25 -->
<g id="edge15" class="edge">
<title>Node24&#45;&gt;Node25</title>
<path fill="none" stroke="#191970" d="M636,-236.1199C636,-224.9072 636,-212.4031 636,-204.055"/>
<polygon fill="#191970" stroke="#191970" points="632.5001,-236.2966 636,-246.2967 639.5001,-236.2967 632.5001,-236.2966"/>
</g>
<!-- Node27 -->
<g id="node17" class="node">
<title>Node27</title>
<g id="a_node17"><a xlink:href="ExpoConjugateGTRSubstitutionProcess_8cpp.html" target="_top" xlink:title="ExpoConjugateGTRSubstitution\lProcess.cpp">
<polygon fill="none" stroke="#000000" points="375,-179.5 375,-209.5 531,-209.5 531,-179.5 375,-179.5"/>
<text text-anchor="start" x="383" y="-197.5" font-family="Helvetica,sans-Serif" font-size="10.00" fill="#000000">ExpoConjugateGTRSubstitution</text>
<text text-anchor="middle" x="453" y="-186.5" font-family="Helvetica,sans-Serif" font-size="10.00" fill="#000000">Process.cpp</text>
</a>
</g>
</g>
<!-- Node24&#45;&gt;Node27 -->
<g id="edge18" class="edge">
<title>Node24&#45;&gt;Node27</title>
<path fill="none" stroke="#191970" d="M585.4763,-243.0023C556.7645,-232.4903 521.2685,-219.4945 494.2479,-209.6017"/>
<polygon fill="#191970" stroke="#191970" points="584.3375,-246.3125 594.9312,-246.4639 586.7441,-239.7392 584.3375,-246.3125"/>
</g>
<!-- Node25&#45;&gt;Node18 -->
<g id="edge17" class="edge">
<title>Node25&#45;&gt;Node18</title>
<path fill="none" stroke="#191970" d="M595.6107,-181.9136C553.8463,-168.8986 489.5585,-148.8647 451.7471,-137.0817"/>
<polygon fill="#191970" stroke="#191970" points="594.6072,-185.2668 605.1957,-184.9005 596.6899,-178.5838 594.6072,-185.2668"/>
</g>
<!-- Node26 -->
<g id="node16" class="node">
<title>Node26</title>
<g id="a_node16"><a xlink:href="ExpoConjugateGTRPhyloProcess_8cpp.html" target="_top" xlink:title="ExpoConjugateGTRPhyloProcess.cpp">
<polygon fill="none" stroke="#000000" points="544,-118 544,-137 728,-137 728,-118 544,-118"/>
<text text-anchor="middle" x="636" y="-125" font-family="Helvetica,sans-Serif" font-size="10.00" fill="#000000">ExpoConjugateGTRPhyloProcess.cpp</text>
</a>
</g>
</g>
<!-- Node25&#45;&gt;Node26 -->
<g id="edge16" class="edge">
<title>Node25&#45;&gt;Node26</title>
<path fill="none" stroke="#191970" d="M636,-174.6079C636,-162.214 636,-146.8263 636,-137.0817"/>
<polygon fill="#191970" stroke="#191970" points="632.5001,-174.9005 636,-184.9005 639.5001,-174.9006 632.5001,-174.9005"/>
</g>
<!-- Node29&#45;&gt;Node24 -->
<g id="edge26" class="edge">
<title>Node29&#45;&gt;Node24</title>
<path fill="none" stroke="#191970" d="M632.596,-303.3693C633.3024,-294.681 634.12,-284.6241 634.7769,-276.5446"/>
<polygon fill="#191970" stroke="#191970" points="629.1032,-303.1399 631.7813,-313.3906 636.0802,-303.7072 629.1032,-303.1399"/>
</g>
<!-- Node30 -->
<g id="node20" class="node">
<title>Node30</title>
<g id="a_node20"><a xlink:href="MatrixPhyloProcess_8h.html" target="_top" xlink:title="MatrixPhyloProcess.h">
<polygon fill="none" stroke="#000000" points="741.5,-252 741.5,-271 854.5,-271 854.5,-252 741.5,-252"/>
<text text-anchor="middle" x="798" y="-259" font-family="Helvetica,sans-Serif" font-size="10.00" fill="#000000">MatrixPhyloProcess.h</text>
</a>
</g>
</g>
<!-- Node29&#45;&gt;Node30 -->
<g id="edge21" class="edge">
<title>Node29&#45;&gt;Node30</title>
<path fill="none" stroke="#191970" d="M666.8457,-309.7993C698.4875,-298.1468 743.8535,-281.4402 772.0895,-271.0419"/>
<polygon fill="#191970" stroke="#191970" points="665.2681,-306.6504 657.0938,-313.3906 667.6872,-313.2192 665.2681,-306.6504"/>
</g>
<!-- Node30&#45;&gt;Node25 -->
<g id="edge22" class="edge">
<title>Node30&#45;&gt;Node25</title>
<path fill="none" stroke="#191970" d="M765.145,-247.9118C733.6583,-234.8895 686.9368,-215.5664 659.1676,-204.0817"/>
<polygon fill="#191970" stroke="#191970" points="764.2108,-251.3129 774.7893,-251.9005 766.8861,-244.8443 764.2108,-251.3129"/>
</g>
<!-- Node31 -->
<g id="node21" class="node">
<title>Node31</title>
<g id="a_node21"><a xlink:href="GeneralPathSuffStatMatrixPhyloProcess_8h.html" target="_top" xlink:title="GeneralPathSuffStatMatrix\lPhyloProcess.h">
<polygon fill="none" stroke="#000000" points="741,-179.5 741,-209.5 875,-209.5 875,-179.5 741,-179.5"/>
<text text-anchor="start" x="749" y="-197.5" font-family="Helvetica,sans-Serif" font-size="10.00" fill="#000000">GeneralPathSuffStatMatrix</text>
<text text-anchor="middle" x="808" y="-186.5" font-family="Helvetica,sans-Serif" font-size="10.00" fill="#000000">PhyloProcess.h</text>
</a>
</g>
</g>
<!-- Node30&#45;&gt;Node31 -->
<g id="edge23" class="edge">
<title>Node30&#45;&gt;Node31</title>
<path fill="none" stroke="#191970" d="M800.9439,-241.7758C802.483,-231.4641 804.3368,-219.0437 805.7579,-209.5218"/>
<polygon fill="#191970" stroke="#191970" points="797.4474,-241.4934 799.4328,-251.9005 804.3707,-242.5268 797.4474,-241.4934"/>
</g>
<!-- Node33 -->
<g id="node23" class="node">
<title>Node33</title>
<g id="a_node23"><a xlink:href="MatrixPhyloProcess_8cpp.html" target="_top" xlink:title="MatrixPhyloProcess.cpp">
<polygon fill="none" stroke="#000000" points="893.5,-185 893.5,-204 1016.5,-204 1016.5,-185 893.5,-185"/>
<text text-anchor="middle" x="955" y="-192" font-family="Helvetica,sans-Serif" font-size="10.00" fill="#000000">MatrixPhyloProcess.cpp</text>
</a>
</g>
</g>
<!-- Node30&#45;&gt;Node33 -->
<g id="edge25" class="edge">
<title>Node30&#45;&gt;Node33</title>
<path fill="none" stroke="#191970" d="M829.8409,-247.9118C860.3558,-234.8895 905.6354,-215.5664 932.5475,-204.0817"/>
<polygon fill="#191970" stroke="#191970" points="828.318,-244.7563 820.4943,-251.9005 831.0656,-251.1946 828.318,-244.7563"/>
</g>
<!-- Node32 -->
<g id="node22" class="node">
<title>Node32</title>
<g id="a_node22"><a xlink:href="GeneralPathSuffStatMatrixPhyloProcess_8cpp.html" target="_top" xlink:title="GeneralPathSuffStatMatrix\lPhyloProcess.cpp">
<polygon fill="none" stroke="#000000" points="746,-112.5 746,-142.5 880,-142.5 880,-112.5 746,-112.5"/>
<text text-anchor="start" x="754" y="-130.5" font-family="Helvetica,sans-Serif" font-size="10.00" fill="#000000">GeneralPathSuffStatMatrix</text>
<text text-anchor="middle" x="813" y="-119.5" font-family="Helvetica,sans-Serif" font-size="10.00" fill="#000000">PhyloProcess.cpp</text>
</a>
</g>
</g>
<!-- Node31&#45;&gt;Node32 -->
<g id="edge24" class="edge">
<title>Node31&#45;&gt;Node32</title>
<path fill="none" stroke="#191970" d="M809.8793,-169.3179C810.5491,-160.3414 811.2825,-150.5143 811.8699,-142.6432"/>
<polygon fill="#191970" stroke="#191970" points="806.3886,-169.0639 809.1346,-179.2967 813.3692,-169.5849 806.3886,-169.0639"/>
</g>
</g>
</svg>
