<?xml version="1.0" encoding="UTF-8" standalone="no"?>
<!DOCTYPE svg PUBLIC "-//W3C//DTD SVG 1.1//EN"
 "http://www.w3.org/Graphics/SVG/1.1/DTD/svg11.dtd">
<!-- Generated by graphviz version 2.40.1 (20161225.0304)
 -->
<!-- Title: GTRSubMatrix.h Pages: 1 -->
<svg width="1207pt" height="453pt"
 viewBox="0.00 0.00 1207.00 453.00" xmlns="http://www.w3.org/2000/svg" xmlns:xlink="http://www.w3.org/1999/xlink">
<g id="graph0" class="graph" transform="scale(1 1) rotate(0) translate(4 449)">
<title>GTRSubMatrix.h</title>
<!-- Node11 -->
<g id="node1" class="node">
<title>Node11</title>
<polygon fill="#bfbfbf" stroke="#000000" points="582,-425.5 582,-444.5 672,-444.5 672,-425.5 582,-425.5"/>
<text text-anchor="middle" x="627" y="-432.5" font-family="Helvetica,sans-Serif" font-size="10.00" fill="#000000">GTRSubMatrix.h</text>
</g>
<!-- Node12 -->
<g id="node2" class="node">
<title>Node12</title>
<g id="a_node2"><a xlink:href="GTRProfileProcess_8h.html" target="_top" xlink:title="GTRProfileProcess.h">
<polygon fill="none" stroke="#000000" points="510,-369.5 510,-388.5 620,-388.5 620,-369.5 510,-369.5"/>
<text text-anchor="middle" x="565" y="-376.5" font-family="Helvetica,sans-Serif" font-size="10.00" fill="#000000">GTRProfileProcess.h</text>
</a>
</g>
</g>
<!-- Node11&#45;&gt;Node12 -->
<g id="edge1" class="edge">
<title>Node11&#45;&gt;Node12</title>
<path fill="none" stroke="#191970" d="M608.5779,-418.3607C597.8519,-408.6727 584.7066,-396.7995 575.6758,-388.6427"/>
<polygon fill="#191970" stroke="#191970" points="606.4334,-421.14 616.2004,-425.2455 611.1254,-415.9453 606.4334,-421.14"/>
</g>
<!-- Node39 -->
<g id="node29" class="node">
<title>Node39</title>
<g id="a_node29"><a xlink:href="GTRSubMatrix_8cpp.html" target="_top" xlink:title="GTRSubMatrix.cpp">
<polygon fill="none" stroke="#000000" points="638.5,-369.5 638.5,-388.5 739.5,-388.5 739.5,-369.5 638.5,-369.5"/>
<text text-anchor="middle" x="689" y="-376.5" font-family="Helvetica,sans-Serif" font-size="10.00" fill="#000000">GTRSubMatrix.cpp</text>
</a>
</g>
</g>
<!-- Node11&#45;&gt;Node39 -->
<g id="edge33" class="edge">
<title>Node11&#45;&gt;Node39</title>
<path fill="none" stroke="#191970" d="M645.4221,-418.3607C656.1481,-408.6727 669.2934,-396.7995 678.3242,-388.6427"/>
<polygon fill="#191970" stroke="#191970" points="642.8746,-415.9453 637.7996,-425.2455 647.5666,-421.14 642.8746,-415.9453"/>
</g>
<!-- Node13 -->
<g id="node3" class="node">
<title>Node13</title>
<g id="a_node3"><a xlink:href="GTRMixtureProfileProcess_8h.html" target="_top" xlink:title="GTRMixtureProfileProcess.h">
<polygon fill="none" stroke="#000000" points="210,-313.5 210,-332.5 352,-332.5 352,-313.5 210,-313.5"/>
<text text-anchor="middle" x="281" y="-320.5" font-family="Helvetica,sans-Serif" font-size="10.00" fill="#000000">GTRMixtureProfileProcess.h</text>
</a>
</g>
</g>
<!-- Node12&#45;&gt;Node13 -->
<g id="edge2" class="edge">
<title>Node12&#45;&gt;Node13</title>
<path fill="none" stroke="#191970" d="M506.6839,-367.501C454.316,-357.175 378.3405,-342.1939 329.2986,-332.5237"/>
<polygon fill="#191970" stroke="#191970" points="506.0131,-370.9361 516.5014,-369.4369 507.3674,-364.0683 506.0131,-370.9361"/>
</g>
<!-- Node27 -->
<g id="node17" class="node">
<title>Node27</title>
<g id="a_node17"><a xlink:href="ExpoConjugateGTRProfileProcess_8h.html" target="_top" xlink:title="ExpoConjugateGTRProfileProcess.h">
<polygon fill="none" stroke="#000000" points="391,-313.5 391,-332.5 567,-332.5 567,-313.5 391,-313.5"/>
<text text-anchor="middle" x="479" y="-320.5" font-family="Helvetica,sans-Serif" font-size="10.00" fill="#000000">ExpoConjugateGTRProfileProcess.h</text>
</a>
</g>
</g>
<!-- Node12&#45;&gt;Node27 -->
<g id="edge16" class="edge">
<title>Node12&#45;&gt;Node27</title>
<path fill="none" stroke="#191970" d="M541.6095,-363.769C526.3701,-353.8456 506.9491,-341.1994 493.8084,-332.6427"/>
<polygon fill="#191970" stroke="#191970" points="539.7301,-366.7218 550.0199,-369.2455 543.5498,-360.8558 539.7301,-366.7218"/>
</g>
<!-- Node33 -->
<g id="node23" class="node">
<title>Node33</title>
<g id="a_node23"><a xlink:href="GTRSubstitutionProcess_8h.html" target="_top" xlink:title="GTRSubstitutionProcess.h">
<polygon fill="none" stroke="#000000" points="593,-313.5 593,-332.5 727,-332.5 727,-313.5 593,-313.5"/>
<text text-anchor="middle" x="660" y="-320.5" font-family="Helvetica,sans-Serif" font-size="10.00" fill="#000000">GTRSubstitutionProcess.h</text>
</a>
</g>
</g>
<!-- Node12&#45;&gt;Node33 -->
<g id="edge25" class="edge">
<title>Node12&#45;&gt;Node33</title>
<path fill="none" stroke="#191970" d="M590.3676,-364.0465C607.271,-354.0824 628.9904,-341.2794 643.6419,-332.6427"/>
<polygon fill="#191970" stroke="#191970" points="588.3851,-361.1522 581.5477,-369.2455 591.9398,-367.1825 588.3851,-361.1522"/>
</g>
<!-- Node38 -->
<g id="node28" class="node">
<title>Node38</title>
<g id="a_node28"><a xlink:href="GTRProfileProcess_8cpp.html" target="_top" xlink:title="GTRProfileProcess.cpp">
<polygon fill="none" stroke="#000000" points="745,-313.5 745,-332.5 865,-332.5 865,-313.5 745,-313.5"/>
<text text-anchor="middle" x="805" y="-320.5" font-family="Helvetica,sans-Serif" font-size="10.00" fill="#000000">GTRProfileProcess.cpp</text>
</a>
</g>
</g>
<!-- Node12&#45;&gt;Node38 -->
<g id="edge32" class="edge">
<title>Node12&#45;&gt;Node38</title>
<path fill="none" stroke="#191970" d="M615.9466,-367.1125C660.134,-356.8021 723.2574,-342.0733 764.1843,-332.5237"/>
<polygon fill="#191970" stroke="#191970" points="614.9279,-363.7561 605.9848,-369.4369 616.5185,-370.573 614.9279,-363.7561"/>
</g>
<!-- Node14 -->
<g id="node4" class="node">
<title>Node14</title>
<g id="a_node4"><a xlink:href="ExpoConjugateGTRMixtureProfileProcess_8h.html" target="_top" xlink:title="ExpoConjugateGTRMixtureProfile\lProcess.h">
<polygon fill="none" stroke="#000000" points="199,-246.5 199,-276.5 363,-276.5 363,-246.5 199,-246.5"/>
<text text-anchor="start" x="207" y="-264.5" font-family="Helvetica,sans-Serif" font-size="10.00" fill="#000000">ExpoConjugateGTRMixtureProfile</text>
<text text-anchor="middle" x="281" y="-253.5" font-family="Helvetica,sans-Serif" font-size="10.00" fill="#000000">Process.h</text>
</a>
</g>
</g>
<!-- Node13&#45;&gt;Node14 -->
<g id="edge3" class="edge">
<title>Node13&#45;&gt;Node14</title>
<path fill="none" stroke="#191970" d="M281,-303.3693C281,-294.681 281,-284.6241 281,-276.5446"/>
<polygon fill="#191970" stroke="#191970" points="277.5001,-303.3906 281,-313.3906 284.5001,-303.3907 277.5001,-303.3906"/>
</g>
<!-- Node26 -->
<g id="node16" class="node">
<title>Node26</title>
<g id="a_node16"><a xlink:href="GTRMixtureProfileProcess_8cpp.html" target="_top" xlink:title="GTRMixtureProfileProcess.cpp">
<polygon fill="none" stroke="#000000" points="29,-252 29,-271 181,-271 181,-252 29,-252"/>
<text text-anchor="middle" x="105" y="-259" font-family="Helvetica,sans-Serif" font-size="10.00" fill="#000000">GTRMixtureProfileProcess.cpp</text>
</a>
</g>
</g>
<!-- Node13&#45;&gt;Node26 -->
<g id="edge15" class="edge">
<title>Node13&#45;&gt;Node26</title>
<path fill="none" stroke="#191970" d="M243.6547,-309.9504C210.2897,-298.2916 162.1934,-281.4852 132.3069,-271.0419"/>
<polygon fill="#191970" stroke="#191970" points="242.9052,-313.3959 253.5,-313.3906 245.2143,-306.7877 242.9052,-313.3959"/>
</g>
<!-- Node15 -->
<g id="node5" class="node">
<title>Node15</title>
<g id="a_node5"><a xlink:href="ExpoConjugateGTRDPProfileProcess_8h.html" target="_top" xlink:title="ExpoConjugateGTRDPProfile\lProcess.h">
<polygon fill="none" stroke="#000000" points="34,-179.5 34,-209.5 180,-209.5 180,-179.5 34,-179.5"/>
<text text-anchor="start" x="42" y="-197.5" font-family="Helvetica,sans-Serif" font-size="10.00" fill="#000000">ExpoConjugateGTRDPProfile</text>
<text text-anchor="middle" x="107" y="-186.5" font-family="Helvetica,sans-Serif" font-size="10.00" fill="#000000">Process.h</text>
</a>
</g>
</g>
<!-- Node14&#45;&gt;Node15 -->
<g id="edge4" class="edge">
<title>Node14&#45;&gt;Node15</title>
<path fill="none" stroke="#191970" d="M232.6046,-242.865C205.368,-232.3773 171.7993,-219.4515 146.2193,-209.6017"/>
<polygon fill="#191970" stroke="#191970" points="231.3612,-246.1367 241.951,-246.4639 233.8766,-239.6042 231.3612,-246.1367"/>
</g>
<!-- Node19 -->
<g id="node9" class="node">
<title>Node19</title>
<g id="a_node9"><a xlink:href="ExpoConjugateGTRMixtureProfileProcess_8cpp.html" target="_top" xlink:title="ExpoConjugateGTRMixtureProfile\lProcess.cpp">
<polygon fill="none" stroke="#000000" points="198,-179.5 198,-209.5 362,-209.5 362,-179.5 198,-179.5"/>
<text text-anchor="start" x="206" y="-197.5" font-family="Helvetica,sans-Serif" font-size="10.00" fill="#000000">ExpoConjugateGTRMixtureProfile</text>
<text text-anchor="middle" x="280" y="-186.5" font-family="Helvetica,sans-Serif" font-size="10.00" fill="#000000">Process.cpp</text>
</a>
</g>
</g>
<!-- Node14&#45;&gt;Node19 -->
<g id="edge8" class="edge">
<title>Node14&#45;&gt;Node19</title>
<path fill="none" stroke="#191970" d="M280.6198,-236.0249C280.487,-227.128 280.3422,-217.4287 280.226,-209.6432"/>
<polygon fill="#191970" stroke="#191970" points="277.1241,-236.35 280.7731,-246.2967 284.1234,-236.2455 277.1241,-236.35"/>
</g>
<!-- Node20 -->
<g id="node10" class="node">
<title>Node20</title>
<g id="a_node10"><a xlink:href="ExpoConjugateGTRSBDPProfileProcess_8h.html" target="_top" xlink:title="ExpoConjugateGTRSBDPProfile\lProcess.h">
<polygon fill="none" stroke="#000000" points="380,-179.5 380,-209.5 540,-209.5 540,-179.5 380,-179.5"/>
<text text-anchor="start" x="388" y="-197.5" font-family="Helvetica,sans-Serif" font-size="10.00" fill="#000000">ExpoConjugateGTRSBDPProfile</text>
<text text-anchor="middle" x="460" y="-186.5" font-family="Helvetica,sans-Serif" font-size="10.00" fill="#000000">Process.h</text>
</a>
</g>
</g>
<!-- Node14&#45;&gt;Node20 -->
<g id="edge9" class="edge">
<title>Node14&#45;&gt;Node20</title>
<path fill="none" stroke="#191970" d="M330.786,-242.865C358.8054,-232.3773 393.3387,-219.4515 419.6537,-209.6017"/>
<polygon fill="#191970" stroke="#191970" points="329.3096,-239.6804 321.1711,-246.4639 331.7635,-246.2362 329.3096,-239.6804"/>
</g>
<!-- Node16 -->
<g id="node6" class="node">
<title>Node16</title>
<g id="a_node6"><a xlink:href="ExpoConjugateGTRDPProfileProcess_8cpp.html" target="_top" xlink:title="ExpoConjugateGTRDPProfile\lProcess.cpp">
<polygon fill="none" stroke="#000000" points="0,-112.5 0,-142.5 146,-142.5 146,-112.5 0,-112.5"/>
<text text-anchor="start" x="8" y="-130.5" font-family="Helvetica,sans-Serif" font-size="10.00" fill="#000000">ExpoConjugateGTRDPProfile</text>
<text text-anchor="middle" x="73" y="-119.5" font-family="Helvetica,sans-Serif" font-size="10.00" fill="#000000">Process.cpp</text>
</a>
</g>
</g>
<!-- Node15&#45;&gt;Node16 -->
<g id="edge5" class="edge">
<title>Node15&#45;&gt;Node16</title>
<path fill="none" stroke="#191970" d="M94.6652,-170.1932C89.9921,-160.9844 84.8091,-150.771 80.6846,-142.6432"/>
<polygon fill="#191970" stroke="#191970" points="91.6384,-171.963 99.2849,-179.2967 97.8807,-168.7953 91.6384,-171.963"/>
</g>
<!-- Node17 -->
<g id="node7" class="node">
<title>Node17</title>
<g id="a_node7"><a xlink:href="RASCATGTRDPGammaPhyloProcess_8h.html" target="_top" xlink:title="RASCATGTRDPGammaPhyloProcess.h">
<polygon fill="none" stroke="#000000" points="164.5,-118 164.5,-137 361.5,-137 361.5,-118 164.5,-118"/>
<text text-anchor="middle" x="263" y="-125" font-family="Helvetica,sans-Serif" font-size="10.00" fill="#000000">RASCATGTRDPGammaPhyloProcess.h</text>
</a>
</g>
</g>
<!-- Node15&#45;&gt;Node17 -->
<g id="edge6" class="edge">
<title>Node15&#45;&gt;Node17</title>
<path fill="none" stroke="#191970" d="M151.5617,-175.3613C180.6868,-162.8525 217.4844,-147.0484 240.6386,-137.1039"/>
<polygon fill="#191970" stroke="#191970" points="149.8166,-172.3016 142.0094,-179.4639 152.5791,-178.7335 149.8166,-172.3016"/>
</g>
<!-- Node18 -->
<g id="node8" class="node">
<title>Node18</title>
<g id="a_node8"><a xlink:href="RASCATGTRDPGammaPhyloProcess_8cpp.html" target="_top" xlink:title="RASCATGTRDPGammaPhyloProcess.cpp">
<polygon fill="none" stroke="#000000" points="159.5,-56.5 159.5,-75.5 366.5,-75.5 366.5,-56.5 159.5,-56.5"/>
<text text-anchor="middle" x="263" y="-63.5" font-family="Helvetica,sans-Serif" font-size="10.00" fill="#000000">RASCATGTRDPGammaPhyloProcess.cpp</text>
</a>
</g>
</g>
<!-- Node17&#45;&gt;Node18 -->
<g id="edge7" class="edge">
<title>Node17&#45;&gt;Node18</title>
<path fill="none" stroke="#191970" d="M263,-107.7462C263,-97.0519 263,-84.314 263,-75.7449"/>
<polygon fill="#191970" stroke="#191970" points="259.5001,-107.8906 263,-117.8906 266.5001,-107.8907 259.5001,-107.8906"/>
</g>
<!-- Node21 -->
<g id="node11" class="node">
<title>Node21</title>
<g id="a_node11"><a xlink:href="ExpoConjugateGTRSBDPProfileProcess_8cpp.html" target="_top" xlink:title="ExpoConjugateGTRSBDPProfile\lProcess.cpp">
<polygon fill="none" stroke="#000000" points="380,-112.5 380,-142.5 540,-142.5 540,-112.5 380,-112.5"/>
<text text-anchor="start" x="388" y="-130.5" font-family="Helvetica,sans-Serif" font-size="10.00" fill="#000000">ExpoConjugateGTRSBDPProfile</text>
<text text-anchor="middle" x="460" y="-119.5" font-family="Helvetica,sans-Serif" font-size="10.00" fill="#000000">Process.cpp</text>
</a>
</g>
</g>
<!-- Node20&#45;&gt;Node21 -->
<g id="edge10" class="edge">
<title>Node20&#45;&gt;Node21</title>
<path fill="none" stroke="#191970" d="M460,-169.0249C460,-160.128 460,-150.4287 460,-142.6432"/>
<polygon fill="#191970" stroke="#191970" points="456.5001,-169.2966 460,-179.2967 463.5001,-169.2967 456.5001,-169.2966"/>
</g>
<!-- Node22 -->
<g id="node12" class="node">
<title>Node22</title>
<g id="a_node12"><a xlink:href="RASCATGTRSBDPGammaPhyloProcess_8h.html" target="_top" xlink:title="RASCATGTRSBDPGammaPhyloProcess.h">
<polygon fill="none" stroke="#000000" points="558,-118 558,-137 768,-137 768,-118 558,-118"/>
<text text-anchor="middle" x="663" y="-125" font-family="Helvetica,sans-Serif" font-size="10.00" fill="#000000">RASCATGTRSBDPGammaPhyloProcess.h</text>
</a>
</g>
</g>
<!-- Node20&#45;&gt;Node22 -->
<g id="edge11" class="edge">
<title>Node20&#45;&gt;Node22</title>
<path fill="none" stroke="#191970" d="M515.0712,-176.3238C553.5257,-163.6319 603.3135,-147.1995 634.2004,-137.0053"/>
<polygon fill="#191970" stroke="#191970" points="513.9563,-173.006 505.5572,-179.4639 516.1503,-179.6533 513.9563,-173.006"/>
</g>
<!-- Node23 -->
<g id="node13" class="node">
<title>Node23</title>
<g id="a_node13"><a xlink:href="Model_8h.html" target="_top" xlink:title="Model.h">
<polygon fill="none" stroke="#000000" points="560.5,-56.5 560.5,-75.5 611.5,-75.5 611.5,-56.5 560.5,-56.5"/>
<text text-anchor="middle" x="586" y="-63.5" font-family="Helvetica,sans-Serif" font-size="10.00" fill="#000000">Model.h</text>
</a>
</g>
</g>
<!-- Node22&#45;&gt;Node23 -->
<g id="edge12" class="edge">
<title>Node22&#45;&gt;Node23</title>
<path fill="none" stroke="#191970" d="M643.1542,-111.6491C628.847,-100.222 610.0076,-85.1749 597.9468,-75.5419"/>
<polygon fill="#191970" stroke="#191970" points="640.9708,-114.3846 650.9688,-117.8906 645.3394,-108.915 640.9708,-114.3846"/>
</g>
<!-- Node25 -->
<g id="node15" class="node">
<title>Node25</title>
<g id="a_node15"><a xlink:href="RASCATGTRSBDPGammaPhyloProcess_8cpp.html" target="_top" xlink:title="RASCATGTRSBDPGammaPhyloProcess.cpp">
<polygon fill="none" stroke="#000000" points="629.5,-56.5 629.5,-75.5 850.5,-75.5 850.5,-56.5 629.5,-56.5"/>
<text text-anchor="middle" x="740" y="-63.5" font-family="Helvetica,sans-Serif" font-size="10.00" fill="#000000">RASCATGTRSBDPGammaPhyloProcess.cpp</text>
</a>
</g>
</g>
<!-- Node22&#45;&gt;Node25 -->
<g id="edge14" class="edge">
<title>Node22&#45;&gt;Node25</title>
<path fill="none" stroke="#191970" d="M682.8458,-111.6491C697.153,-100.222 715.9924,-85.1749 728.0532,-75.5419"/>
<polygon fill="#191970" stroke="#191970" points="680.6606,-108.915 675.0313,-117.8906 685.0292,-114.3846 680.6606,-108.915"/>
</g>
<!-- Node24 -->
<g id="node14" class="node">
<title>Node24</title>
<g id="a_node14"><a xlink:href="PB_8cpp.html" target="_top" xlink:title="PB.cpp">
<polygon fill="none" stroke="#000000" points="561.5,-.5 561.5,-19.5 610.5,-19.5 610.5,-.5 561.5,-.5"/>
<text text-anchor="middle" x="586" y="-7.5" font-family="Helvetica,sans-Serif" font-size="10.00" fill="#000000">PB.cpp</text>
</a>
</g>
</g>
<!-- Node23&#45;&gt;Node24 -->
<g id="edge13" class="edge">
<title>Node23&#45;&gt;Node24</title>
<path fill="none" stroke="#191970" d="M586,-46.1575C586,-37.155 586,-26.9199 586,-19.6427"/>
<polygon fill="#191970" stroke="#191970" points="582.5001,-46.2455 586,-56.2455 589.5001,-46.2456 582.5001,-46.2455"/>
</g>
<!-- Node27&#45;&gt;Node14 -->
<g id="edge17" class="edge">
<title>Node27&#45;&gt;Node14</title>
<path fill="none" stroke="#191970" d="M438.2687,-310.3486C406.6854,-300.5386 362.8184,-286.9133 329.4362,-276.5446"/>
<polygon fill="#191970" stroke="#191970" points="437.4743,-313.7668 448.0625,-313.3906 439.5508,-307.0818 437.4743,-313.7668"/>
</g>
<!-- Node28 -->
<g id="node18" class="node">
<title>Node28</title>
<g id="a_node18"><a xlink:href="ExpoConjugateGTRSubstitutionProcess_8h.html" target="_top" xlink:title="ExpoConjugateGTRSubstitution\lProcess.h">
<polygon fill="none" stroke="#000000" points="587,-246.5 587,-276.5 743,-276.5 743,-246.5 587,-246.5"/>
<text text-anchor="start" x="595" y="-264.5" font-family="Helvetica,sans-Serif" font-size="10.00" fill="#000000">ExpoConjugateGTRSubstitution</text>
<text text-anchor="middle" x="665" y="-253.5" font-family="Helvetica,sans-Serif" font-size="10.00" fill="#000000">Process.h</text>
</a>
</g>
</g>
<!-- Node27&#45;&gt;Node28 -->
<g id="edge18" class="edge">
<title>Node27&#45;&gt;Node28</title>
<path fill="none" stroke="#191970" d="M517.6487,-310.221C547.2885,-300.4207 588.276,-286.8684 619.4993,-276.5446"/>
<polygon fill="#191970" stroke="#191970" points="516.4582,-306.9282 508.0625,-313.3906 518.6557,-313.5743 516.4582,-306.9282"/>
</g>
<!-- Node32 -->
<g id="node22" class="node">
<title>Node32</title>
<g id="a_node22"><a xlink:href="ExpoConjugateGTRProfileProcess_8cpp.html" target="_top" xlink:title="ExpoConjugateGTRProfileProcess.cpp">
<polygon fill="none" stroke="#000000" points="381.5,-252 381.5,-271 568.5,-271 568.5,-252 381.5,-252"/>
<text text-anchor="middle" x="475" y="-259" font-family="Helvetica,sans-Serif" font-size="10.00" fill="#000000">ExpoConjugateGTRProfileProcess.cpp</text>
</a>
</g>
</g>
<!-- Node27&#45;&gt;Node32 -->
<g id="edge24" class="edge">
<title>Node27&#45;&gt;Node32</title>
<path fill="none" stroke="#191970" d="M477.7152,-303.2462C477.0196,-292.5519 476.1912,-279.814 475.6338,-271.2449"/>
<polygon fill="#191970" stroke="#191970" points="474.2333,-303.6389 478.375,-313.3906 481.2185,-303.1845 474.2333,-303.6389"/>
</g>
<!-- Node29 -->
<g id="node19" class="node">
<title>Node29</title>
<g id="a_node19"><a xlink:href="ExpoConjugateGTRPhyloProcess_8h.html" target="_top" xlink:title="ExpoConjugateGTRPhyloProcess.h">
<polygon fill="none" stroke="#000000" points="732.5,-185 732.5,-204 905.5,-204 905.5,-185 732.5,-185"/>
<text text-anchor="middle" x="819" y="-192" font-family="Helvetica,sans-Serif" font-size="10.00" fill="#000000">ExpoConjugateGTRPhyloProcess.h</text>
</a>
</g>
</g>
<!-- Node28&#45;&gt;Node29 -->
<g id="edge19" class="edge">
<title>Node28&#45;&gt;Node29</title>
<path fill="none" stroke="#191970" d="M708.9904,-242.3613C737.7421,-229.8525 774.0679,-214.0484 796.9253,-204.1039"/>
<polygon fill="#191970" stroke="#191970" points="707.334,-239.265 699.5606,-246.4639 710.1267,-245.6838 707.334,-239.265"/>
</g>
<!-- Node31 -->
<g id="node21" class="node">
<title>Node31</title>
<g id="a_node21"><a xlink:href="ExpoConjugateGTRSubstitutionProcess_8cpp.html" target="_top" xlink:title="ExpoConjugateGTRSubstitution\lProcess.cpp">
<polygon fill="none" stroke="#000000" points="558,-179.5 558,-209.5 714,-209.5 714,-179.5 558,-179.5"/>
<text text-anchor="start" x="566" y="-197.5" font-family="Helvetica,sans-Serif" font-size="10.00" fill="#000000">ExpoConjugateGTRSubstitution</text>
<text text-anchor="middle" x="636" y="-186.5" font-family="Helvetica,sans-Serif" font-size="10.00" fill="#000000">Process.cpp</text>
</a>
</g>
</g>
<!-- Node28&#45;&gt;Node31 -->
<g id="edge23" class="edge">
<title>Node28&#45;&gt;Node31</title>
<path fill="none" stroke="#191970" d="M654.3532,-236.9021C650.4003,-227.7696 646.0355,-217.6854 642.5545,-209.6432"/>
<polygon fill="#191970" stroke="#191970" points="651.2351,-238.5097 658.4195,-246.2967 657.6592,-235.7291 651.2351,-238.5097"/>
</g>
<!-- Node29&#45;&gt;Node17 -->
<g id="edge22" class="edge">
<title>Node29&#45;&gt;Node17</title>
<path fill="none" stroke="#191970" d="M753.4261,-183.3918C743.2537,-181.8193 732.8544,-180.2983 723,-179 567.0869,-158.4581 527.0872,-162.1744 371,-143 356.5234,-141.2216 340.9847,-139.1108 326.3325,-137.0284"/>
<polygon fill="#191970" stroke="#191970" points="753.0718,-186.8791 763.4942,-184.9752 754.1594,-179.964 753.0718,-186.8791"/>
</g>
<!-- Node29&#45;&gt;Node22 -->
<g id="edge21" class="edge">
<title>Node29&#45;&gt;Node22</title>
<path fill="none" stroke="#191970" d="M787.3619,-180.9118C757.0413,-167.8895 712.0502,-148.5664 685.3095,-137.0817"/>
<polygon fill="#191970" stroke="#191970" points="786.0794,-184.1701 796.649,-184.9005 788.8418,-177.7382 786.0794,-184.1701"/>
</g>
<!-- Node30 -->
<g id="node20" class="node">
<title>Node30</title>
<g id="a_node20"><a xlink:href="ExpoConjugateGTRPhyloProcess_8cpp.html" target="_top" xlink:title="ExpoConjugateGTRPhyloProcess.cpp">
<polygon fill="none" stroke="#000000" points="786,-118 786,-137 970,-137 970,-118 786,-118"/>
<text text-anchor="middle" x="878" y="-125" font-family="Helvetica,sans-Serif" font-size="10.00" fill="#000000">ExpoConjugateGTRPhyloProcess.cpp</text>
</a>
</g>
</g>
<!-- Node29&#45;&gt;Node30 -->
<g id="edge20" class="edge">
<title>Node29&#45;&gt;Node30</title>
<path fill="none" stroke="#191970" d="M834.2214,-177.2147C845.4698,-164.441 860.3684,-147.5224 869.5624,-137.0817"/>
<polygon fill="#191970" stroke="#191970" points="831.4354,-175.0825 827.4533,-184.9005 836.6888,-179.7087 831.4354,-175.0825"/>
</g>
<!-- Node33&#45;&gt;Node28 -->
<g id="edge31" class="edge">
<title>Node33&#45;&gt;Node28</title>
<path fill="none" stroke="#191970" d="M661.596,-303.3693C662.3024,-294.681 663.12,-284.6241 663.7769,-276.5446"/>
<polygon fill="#191970" stroke="#191970" points="658.1032,-303.1399 660.7813,-313.3906 665.0802,-303.7072 658.1032,-303.1399"/>
</g>
<!-- Node34 -->
<g id="node24" class="node">
<title>Node34</title>
<g id="a_node24"><a xlink:href="MatrixPhyloProcess_8h.html" target="_top" xlink:title="MatrixPhyloProcess.h">
<polygon fill="none" stroke="#000000" points="845.5,-252 845.5,-271 958.5,-271 958.5,-252 845.5,-252"/>
<text text-anchor="middle" x="902" y="-259" font-family="Helvetica,sans-Serif" font-size="10.00" fill="#000000">MatrixPhyloProcess.h</text>
</a>
</g>
</g>
<!-- Node33&#45;&gt;Node34 -->
<g id="edge26" class="edge">
<title>Node33&#45;&gt;Node34</title>
<path fill="none" stroke="#191970" d="M707.2673,-310.9878C753.1949,-299.3162 822.0279,-281.8235 864.3649,-271.0643"/>
<polygon fill="#191970" stroke="#191970" points="706.3768,-307.6028 697.547,-313.4581 708.101,-314.3872 706.3768,-307.6028"/>
</g>
<!-- Node34&#45;&gt;Node29 -->
<g id="edge27" class="edge">
<title>Node34&#45;&gt;Node29</title>
<path fill="none" stroke="#191970" d="M881.9303,-245.2992C865.967,-232.4131 844.1734,-214.8207 830.8698,-204.0817"/>
<polygon fill="#191970" stroke="#191970" points="880.1285,-248.3427 890.1081,-251.9005 884.5254,-242.8959 880.1285,-248.3427"/>
</g>
<!-- Node35 -->
<g id="node25" class="node">
<title>Node35</title>
<g id="a_node25"><a xlink:href="GeneralPathSuffStatMatrixPhyloProcess_8h.html" target="_top" xlink:title="GeneralPathSuffStatMatrix\lPhyloProcess.h">
<polygon fill="none" stroke="#000000" points="1065,-179.5 1065,-209.5 1199,-209.5 1199,-179.5 1065,-179.5"/>
<text text-anchor="start" x="1073" y="-197.5" font-family="Helvetica,sans-Serif" font-size="10.00" fill="#000000">GeneralPathSuffStatMatrix</text>
<text text-anchor="middle" x="1132" y="-186.5" font-family="Helvetica,sans-Serif" font-size="10.00" fill="#000000">PhyloProcess.h</text>
</a>
</g>
</g>
<!-- Node34&#45;&gt;Node35 -->
<g id="edge28" class="edge">
<title>Node34&#45;&gt;Node35</title>
<path fill="none" stroke="#191970" d="M944.7869,-249.036C983.1678,-237.8555 1039.5738,-221.4242 1080.4328,-209.5218"/>
<polygon fill="#191970" stroke="#191970" points="943.5754,-245.7433 934.9534,-251.9005 945.5332,-252.464 943.5754,-245.7433"/>
</g>
<!-- Node37 -->
<g id="node27" class="node">
<title>Node37</title>
<g id="a_node27"><a xlink:href="MatrixPhyloProcess_8cpp.html" target="_top" xlink:title="MatrixPhyloProcess.cpp">
<polygon fill="none" stroke="#000000" points="923.5,-185 923.5,-204 1046.5,-204 1046.5,-185 923.5,-185"/>
<text text-anchor="middle" x="985" y="-192" font-family="Helvetica,sans-Serif" font-size="10.00" fill="#000000">MatrixPhyloProcess.cpp</text>
</a>
</g>
</g>
<!-- Node34&#45;&gt;Node37 -->
<g id="edge30" class="edge">
<title>Node34&#45;&gt;Node37</title>
<path fill="none" stroke="#191970" d="M922.0697,-245.2992C938.033,-232.4131 959.8266,-214.8207 973.1302,-204.0817"/>
<polygon fill="#191970" stroke="#191970" points="919.4746,-242.8959 913.8919,-251.9005 923.8715,-248.3427 919.4746,-242.8959"/>
</g>
<!-- Node36 -->
<g id="node26" class="node">
<title>Node36</title>
<g id="a_node26"><a xlink:href="GeneralPathSuffStatMatrixPhyloProcess_8cpp.html" target="_top" xlink:title="GeneralPathSuffStatMatrix\lPhyloProcess.cpp">
<polygon fill="none" stroke="#000000" points="1065,-112.5 1065,-142.5 1199,-142.5 1199,-112.5 1065,-112.5"/>
<text text-anchor="start" x="1073" y="-130.5" font-family="Helvetica,sans-Serif" font-size="10.00" fill="#000000">GeneralPathSuffStatMatrix</text>
<text text-anchor="middle" x="1132" y="-119.5" font-family="Helvetica,sans-Serif" font-size="10.00" fill="#000000">PhyloProcess.cpp</text>
</a>
</g>
</g>
<!-- Node35&#45;&gt;Node36 -->
<g id="edge29" class="edge">
<title>Node35&#45;&gt;Node36</title>
<path fill="none" stroke="#191970" d="M1132,-169.0249C1132,-160.128 1132,-150.4287 1132,-142.6432"/>
<polygon fill="#191970" stroke="#191970" points="1128.5001,-169.2966 1132,-179.2967 1135.5001,-169.2967 1128.5001,-169.2966"/>
</g>
</g>
</svg>
