<?xml version="1.0" encoding="UTF-8" standalone="no"?>
<!DOCTYPE svg PUBLIC "-//W3C//DTD SVG 1.1//EN"
 "http://www.w3.org/Graphics/SVG/1.1/DTD/svg11.dtd">
<!-- Generated by graphviz version 2.38.0 (20140413.2041)
 -->
<!-- Title: GTRSubstitutionProcess.h Pages: 1 -->
<svg width="905pt" height="364pt"
 viewBox="0.00 0.00 904.50 364.00" xmlns="http://www.w3.org/2000/svg" xmlns:xlink="http://www.w3.org/1999/xlink">
<g id="graph0" class="graph" transform="scale(1 1) rotate(0) translate(4 360)">
<title>GTRSubstitutionProcess.h</title>
<!-- Node0 -->
<g id="node1" class="node"><title>Node0</title>
<polygon fill="#bfbfbf" stroke="black" points="383.5,-336.5 383.5,-355.5 517.5,-355.5 517.5,-336.5 383.5,-336.5"/>
<text text-anchor="middle" x="450.5" y="-343.5" font-family="Helvetica,sans-Serif" font-size="10.00">GTRSubstitutionProcess.h</text>
</g>
<!-- Node1 -->
<g id="node2" class="node"><title>Node1</title>
<g id="a_node2"><a xlink:href="MatrixSubstitutionProcess_8h.html" target="_top" xlink:title="MatrixSubstitutionProcess.h">
<polygon fill="none" stroke="black" points="380.5,-280.5 380.5,-299.5 520.5,-299.5 520.5,-280.5 380.5,-280.5"/>
<text text-anchor="middle" x="450.5" y="-287.5" font-family="Helvetica,sans-Serif" font-size="10.00">MatrixSubstitutionProcess.h</text>
</a>
</g>
</g>
<!-- Node0&#45;&gt;Node1 -->
<g id="edge1" class="edge"><title>Node0&#45;&gt;Node1</title>
<path fill="none" stroke="midnightblue" d="M450.5,-336.083C450.5,-329.006 450.5,-318.861 450.5,-309.986"/>
<polygon fill="midnightblue" stroke="midnightblue" points="454,-309.751 450.5,-299.751 447,-309.751 454,-309.751"/>
</g>
<!-- Node3 -->
<g id="node4" class="node"><title>Node3</title>
<g id="a_node4"><a xlink:href="RateProcess_8h.html" target="_top" xlink:title="RateProcess.h">
<polygon fill="none" stroke="black" points="297.5,-168.5 297.5,-187.5 379.5,-187.5 379.5,-168.5 297.5,-168.5"/>
<text text-anchor="middle" x="338.5" y="-175.5" font-family="Helvetica,sans-Serif" font-size="10.00">RateProcess.h</text>
</a>
</g>
</g>
<!-- Node0&#45;&gt;Node3 -->
<g id="edge50" class="edge"><title>Node0&#45;&gt;Node3</title>
<path fill="none" stroke="midnightblue" d="M424.88,-336.411C407.399,-329.283 385.042,-317.462 371.5,-300 347.894,-269.561 341.155,-223.409 339.244,-197.797"/>
<polygon fill="midnightblue" stroke="midnightblue" points="342.726,-197.389 338.662,-187.604 335.738,-197.788 342.726,-197.389"/>
</g>
<!-- Node25 -->
<g id="node26" class="node"><title>Node25</title>
<g id="a_node26"><a xlink:href="GTRProfileProcess_8h.html" target="_top" xlink:title="GTRProfileProcess.h">
<polygon fill="none" stroke="black" points="538.5,-280.5 538.5,-299.5 648.5,-299.5 648.5,-280.5 538.5,-280.5"/>
<text text-anchor="middle" x="593.5" y="-287.5" font-family="Helvetica,sans-Serif" font-size="10.00">GTRProfileProcess.h</text>
</a>
</g>
</g>
<!-- Node0&#45;&gt;Node25 -->
<g id="edge45" class="edge"><title>Node0&#45;&gt;Node25</title>
<path fill="none" stroke="midnightblue" d="M473.159,-336.444C496.902,-327.478 534.409,-313.314 561.238,-303.183"/>
<polygon fill="midnightblue" stroke="midnightblue" points="562.829,-306.324 570.947,-299.516 560.356,-299.775 562.829,-306.324"/>
</g>
<!-- Node2 -->
<g id="node3" class="node"><title>Node2</title>
<g id="a_node3"><a xlink:href="SubstitutionProcess_8h.html" target="_top" xlink:title="SubstitutionProcess.h">
<polygon fill="none" stroke="black" points="211,-224.5 211,-243.5 324,-243.5 324,-224.5 211,-224.5"/>
<text text-anchor="middle" x="267.5" y="-231.5" font-family="Helvetica,sans-Serif" font-size="10.00">SubstitutionProcess.h</text>
</a>
</g>
</g>
<!-- Node1&#45;&gt;Node2 -->
<g id="edge2" class="edge"><title>Node1&#45;&gt;Node2</title>
<path fill="none" stroke="midnightblue" d="M421.503,-280.444C390.315,-271.241 340.57,-256.562 306.092,-246.388"/>
<polygon fill="midnightblue" stroke="midnightblue" points="306.943,-242.99 296.361,-243.516 304.962,-249.704 306.943,-242.99"/>
</g>
<!-- Node24 -->
<g id="node25" class="node"><title>Node24</title>
<g id="a_node25"><a xlink:href="MatrixProfileProcess_8h.html" target="_top" xlink:title="MatrixProfileProcess.h">
<polygon fill="none" stroke="black" points="420.5,-224.5 420.5,-243.5 536.5,-243.5 536.5,-224.5 420.5,-224.5"/>
<text text-anchor="middle" x="478.5" y="-231.5" font-family="Helvetica,sans-Serif" font-size="10.00">MatrixProfileProcess.h</text>
</a>
</g>
</g>
<!-- Node1&#45;&gt;Node24 -->
<g id="edge42" class="edge"><title>Node1&#45;&gt;Node24</title>
<path fill="none" stroke="midnightblue" d="M455.124,-280.083C458.956,-272.691 464.524,-261.953 469.265,-252.811"/>
<polygon fill="midnightblue" stroke="midnightblue" points="472.466,-254.24 473.962,-243.751 466.252,-251.018 472.466,-254.24"/>
</g>
<!-- Node2&#45;&gt;Node3 -->
<g id="edge3" class="edge"><title>Node2&#45;&gt;Node3</title>
<path fill="none" stroke="midnightblue" d="M278.907,-224.324C289.609,-216.185 305.841,-203.839 318.663,-194.087"/>
<polygon fill="midnightblue" stroke="midnightblue" points="321.044,-196.673 326.885,-187.834 316.807,-191.102 321.044,-196.673"/>
</g>
<!-- Node5 -->
<g id="node6" class="node"><title>Node5</title>
<g id="a_node6"><a xlink:href="Chrono_8h.html" target="_top" xlink:title="Chrono.h">
<polygon fill="none" stroke="black" points="310.5,-112.5 310.5,-131.5 366.5,-131.5 366.5,-112.5 310.5,-112.5"/>
<text text-anchor="middle" x="338.5" y="-119.5" font-family="Helvetica,sans-Serif" font-size="10.00">Chrono.h</text>
</a>
</g>
</g>
<!-- Node2&#45;&gt;Node5 -->
<g id="edge40" class="edge"><title>Node2&#45;&gt;Node5</title>
<path fill="none" stroke="midnightblue" d="M268.806,-224.386C271.098,-211.323 276.758,-186.11 288.5,-168 296.144,-156.211 307.647,-145.563 317.693,-137.588"/>
<polygon fill="midnightblue" stroke="midnightblue" points="319.809,-140.376 325.672,-131.552 315.586,-134.794 319.809,-140.376"/>
</g>
<!-- Node9 -->
<g id="node10" class="node"><title>Node9</title>
<g id="a_node10"><a xlink:href="ProfileProcess_8h.html" target="_top" xlink:title="ProfileProcess.h">
<polygon fill="none" stroke="black" points="398,-168.5 398,-187.5 487,-187.5 487,-168.5 398,-168.5"/>
<text text-anchor="middle" x="442.5" y="-175.5" font-family="Helvetica,sans-Serif" font-size="10.00">ProfileProcess.h</text>
</a>
</g>
</g>
<!-- Node2&#45;&gt;Node9 -->
<g id="edge10" class="edge"><title>Node2&#45;&gt;Node9</title>
<path fill="none" stroke="midnightblue" d="M295.229,-224.444C324.926,-215.28 372.216,-200.688 405.169,-190.519"/>
<polygon fill="midnightblue" stroke="midnightblue" points="406.377,-193.809 414.9,-187.516 404.313,-187.121 406.377,-193.809"/>
</g>
<!-- Node14 -->
<g id="node15" class="node"><title>Node14</title>
<g id="a_node15"><a xlink:href="BranchSitePath_8h.html" target="_top" xlink:title="BranchSitePath.h">
<polygon fill="none" stroke="black" points="72,-168.5 72,-187.5 165,-187.5 165,-168.5 72,-168.5"/>
<text text-anchor="middle" x="118.5" y="-175.5" font-family="Helvetica,sans-Serif" font-size="10.00">BranchSitePath.h</text>
</a>
</g>
</g>
<!-- Node2&#45;&gt;Node14 -->
<g id="edge19" class="edge"><title>Node2&#45;&gt;Node14</title>
<path fill="none" stroke="midnightblue" d="M243.891,-224.444C219.042,-215.438 179.726,-201.189 151.746,-191.049"/>
<polygon fill="midnightblue" stroke="midnightblue" points="152.593,-187.633 141.999,-187.516 150.208,-194.214 152.593,-187.633"/>
</g>
<!-- Node23 -->
<g id="node24" class="node"><title>Node23</title>
<polygon fill="none" stroke="#bfbfbf" points="185.5,-168.5 185.5,-187.5 241.5,-187.5 241.5,-168.5 185.5,-168.5"/>
<text text-anchor="middle" x="213.5" y="-175.5" font-family="Helvetica,sans-Serif" font-size="10.00">algorithm</text>
</g>
<!-- Node2&#45;&gt;Node23 -->
<g id="edge41" class="edge"><title>Node2&#45;&gt;Node23</title>
<path fill="none" stroke="midnightblue" d="M258.583,-224.083C250.72,-216.22 239.069,-204.569 229.581,-195.081"/>
<polygon fill="midnightblue" stroke="midnightblue" points="231.797,-192.347 222.251,-187.751 226.847,-197.297 231.797,-192.347"/>
</g>
<!-- Node4 -->
<g id="node5" class="node"><title>Node4</title>
<polygon fill="none" stroke="#bfbfbf" points="387.5,-0.5 387.5,-19.5 441.5,-19.5 441.5,-0.5 387.5,-0.5"/>
<text text-anchor="middle" x="414.5" y="-7.5" font-family="Helvetica,sans-Serif" font-size="10.00">iostream</text>
</g>
<!-- Node3&#45;&gt;Node4 -->
<g id="edge4" class="edge"><title>Node3&#45;&gt;Node4</title>
<path fill="none" stroke="midnightblue" d="M347.247,-168.431C355.54,-159.879 367.839,-146.024 375.5,-132 393.951,-98.2228 405.362,-54.3173 410.762,-29.7549"/>
<polygon fill="midnightblue" stroke="midnightblue" points="414.252,-30.163 412.879,-19.6575 407.401,-28.7262 414.252,-30.163"/>
</g>
<!-- Node3&#45;&gt;Node5 -->
<g id="edge5" class="edge"><title>Node3&#45;&gt;Node5</title>
<path fill="none" stroke="midnightblue" d="M338.5,-168.083C338.5,-161.006 338.5,-150.861 338.5,-141.986"/>
<polygon fill="midnightblue" stroke="midnightblue" points="342,-141.751 338.5,-131.751 335,-141.751 342,-141.751"/>
</g>
<!-- Node5&#45;&gt;Node4 -->
<g id="edge8" class="edge"><title>Node5&#45;&gt;Node4</title>
<path fill="none" stroke="midnightblue" d="M343.938,-112.499C351.974,-99.9994 367.576,-75.9821 381.5,-56 388.089,-46.5437 395.681,-36.158 401.921,-27.749"/>
<polygon fill="midnightblue" stroke="midnightblue" points="404.873,-29.6452 408.049,-19.5376 399.263,-25.4584 404.873,-29.6452"/>
</g>
<!-- Node6 -->
<g id="node7" class="node"><title>Node6</title>
<polygon fill="none" stroke="#bfbfbf" points="208,-56.5 208,-75.5 249,-75.5 249,-56.5 208,-56.5"/>
<text text-anchor="middle" x="228.5" y="-63.5" font-family="Helvetica,sans-Serif" font-size="10.00">ctime</text>
</g>
<!-- Node5&#45;&gt;Node6 -->
<g id="edge6" class="edge"><title>Node5&#45;&gt;Node6</title>
<path fill="none" stroke="midnightblue" d="M320.827,-112.324C303.106,-103.625 275.597,-90.1202 255.212,-80.113"/>
<polygon fill="midnightblue" stroke="midnightblue" points="256.649,-76.9195 246.13,-75.6545 253.564,-83.2031 256.649,-76.9195"/>
</g>
<!-- Node7 -->
<g id="node8" class="node"><title>Node7</title>
<polygon fill="none" stroke="#bfbfbf" points="267.5,-56.5 267.5,-75.5 329.5,-75.5 329.5,-56.5 267.5,-56.5"/>
<text text-anchor="middle" x="298.5" y="-63.5" font-family="Helvetica,sans-Serif" font-size="10.00">sys/time.h</text>
</g>
<!-- Node5&#45;&gt;Node7 -->
<g id="edge7" class="edge"><title>Node5&#45;&gt;Node7</title>
<path fill="none" stroke="midnightblue" d="M331.895,-112.083C326.245,-104.455 317.955,-93.2645 311.049,-83.9408"/>
<polygon fill="midnightblue" stroke="midnightblue" points="313.747,-81.7034 304.982,-75.7511 308.122,-85.87 313.747,-81.7034"/>
</g>
<!-- Node8 -->
<g id="node9" class="node"><title>Node8</title>
<polygon fill="none" stroke="#bfbfbf" points="583,-0.5 583,-19.5 628,-19.5 628,-0.5 583,-0.5"/>
<text text-anchor="middle" x="605.5" y="-7.5" font-family="Helvetica,sans-Serif" font-size="10.00">cstdlib</text>
</g>
<!-- Node5&#45;&gt;Node8 -->
<g id="edge9" class="edge"><title>Node5&#45;&gt;Node8</title>
<path fill="none" stroke="midnightblue" d="M366.548,-118.558C434.421,-112.365 603.152,-95.1741 619.5,-76 630.697,-62.8677 624.041,-42.906 616.566,-28.5701"/>
<polygon fill="midnightblue" stroke="midnightblue" points="619.485,-26.6251 611.47,-19.6971 613.416,-30.1117 619.485,-26.6251"/>
</g>
<!-- Node9&#45;&gt;Node4 -->
<g id="edge17" class="edge"><title>Node9&#45;&gt;Node4</title>
<path fill="none" stroke="midnightblue" d="M440.995,-168.075C436.587,-141.945 423.644,-65.2106 417.633,-29.577"/>
<polygon fill="midnightblue" stroke="midnightblue" points="421.06,-28.8467 415.945,-19.5681 414.157,-30.011 421.06,-28.8467"/>
</g>
<!-- Node9&#45;&gt;Node5 -->
<g id="edge11" class="edge"><title>Node9&#45;&gt;Node5</title>
<path fill="none" stroke="midnightblue" d="M425.791,-168.324C409.188,-159.703 383.498,-146.364 364.28,-136.386"/>
<polygon fill="midnightblue" stroke="midnightblue" points="365.656,-133.156 355.168,-131.655 362.43,-139.369 365.656,-133.156"/>
</g>
<!-- Node10 -->
<g id="node11" class="node"><title>Node10</title>
<g id="a_node11"><a xlink:href="StateSpace_8h.html" target="_top" xlink:title="StateSpace.h">
<polygon fill="none" stroke="black" points="471.5,-112.5 471.5,-131.5 547.5,-131.5 547.5,-112.5 471.5,-112.5"/>
<text text-anchor="middle" x="509.5" y="-119.5" font-family="Helvetica,sans-Serif" font-size="10.00">StateSpace.h</text>
</a>
</g>
</g>
<!-- Node9&#45;&gt;Node10 -->
<g id="edge12" class="edge"><title>Node9&#45;&gt;Node10</title>
<path fill="none" stroke="midnightblue" d="M453.265,-168.324C463.266,-160.263 478.387,-148.077 490.43,-138.369"/>
<polygon fill="midnightblue" stroke="midnightblue" points="492.95,-140.834 498.539,-131.834 488.557,-135.384 492.95,-140.834"/>
</g>
<!-- Node13 -->
<g id="node14" class="node"><title>Node13</title>
<polygon fill="none" stroke="#bfbfbf" points="0,-0.5 0,-19.5 35,-19.5 35,-0.5 0,-0.5"/>
<text text-anchor="middle" x="17.5" y="-7.5" font-family="Helvetica,sans-Serif" font-size="10.00">map</text>
</g>
<!-- Node9&#45;&gt;Node13 -->
<g id="edge18" class="edge"><title>Node9&#45;&gt;Node13</title>
<path fill="none" stroke="midnightblue" d="M397.736,-169.376C394.613,-168.894 391.511,-168.431 388.5,-168 321.813,-158.46 143.75,-169.069 87.5,-132 50.6324,-107.704 30.8123,-56.8286 22.4297,-29.4236"/>
<polygon fill="midnightblue" stroke="midnightblue" points="25.7231,-28.2111 19.6015,-19.5637 18.9944,-30.1411 25.7231,-28.2111"/>
</g>
<!-- Node11 -->
<g id="node12" class="node"><title>Node11</title>
<g id="a_node12"><a xlink:href="BiologicalSequences_8h.html" target="_top" xlink:title="BiologicalSequences.h">
<polygon fill="none" stroke="black" points="461.5,-56.5 461.5,-75.5 577.5,-75.5 577.5,-56.5 461.5,-56.5"/>
<text text-anchor="middle" x="519.5" y="-63.5" font-family="Helvetica,sans-Serif" font-size="10.00">BiologicalSequences.h</text>
</a>
</g>
</g>
<!-- Node10&#45;&gt;Node11 -->
<g id="edge13" class="edge"><title>Node10&#45;&gt;Node11</title>
<path fill="none" stroke="midnightblue" d="M511.151,-112.083C512.476,-104.927 514.382,-94.6353 516.039,-85.6911"/>
<polygon fill="midnightblue" stroke="midnightblue" points="519.5,-86.2212 517.879,-75.7511 512.617,-84.9466 519.5,-86.2212"/>
</g>
<!-- Node11&#45;&gt;Node4 -->
<g id="edge15" class="edge"><title>Node11&#45;&gt;Node4</title>
<path fill="none" stroke="midnightblue" d="M502.63,-56.324C485.791,-47.6641 459.693,-34.2424 440.262,-24.249"/>
<polygon fill="midnightblue" stroke="midnightblue" points="441.822,-21.1155 431.328,-19.6545 438.62,-27.3405 441.822,-21.1155"/>
</g>
<!-- Node11&#45;&gt;Node8 -->
<g id="edge14" class="edge"><title>Node11&#45;&gt;Node8</title>
<path fill="none" stroke="midnightblue" d="M533.317,-56.324C546.733,-47.9002 567.324,-34.9709 583.086,-25.0741"/>
<polygon fill="midnightblue" stroke="midnightblue" points="585.109,-27.9364 591.717,-19.6545 581.387,-22.0081 585.109,-27.9364"/>
</g>
<!-- Node12 -->
<g id="node13" class="node"><title>Node12</title>
<polygon fill="none" stroke="#bfbfbf" points="75,-0.5 75,-19.5 116,-19.5 116,-0.5 75,-0.5"/>
<text text-anchor="middle" x="95.5" y="-7.5" font-family="Helvetica,sans-Serif" font-size="10.00">string</text>
</g>
<!-- Node11&#45;&gt;Node12 -->
<g id="edge16" class="edge"><title>Node11&#45;&gt;Node12</title>
<path fill="none" stroke="midnightblue" d="M461.434,-57.6048C370.181,-45.9829 196.371,-23.8468 126.108,-14.8982"/>
<polygon fill="midnightblue" stroke="midnightblue" points="126.493,-11.419 116.131,-13.6275 125.608,-18.3629 126.493,-11.419"/>
</g>
<!-- Node14&#45;&gt;Node12 -->
<g id="edge20" class="edge"><title>Node14&#45;&gt;Node12</title>
<path fill="none" stroke="midnightblue" d="M111.564,-168.485C104.716,-159.753 94.3088,-145.566 87.5,-132 75.7105,-108.51 72.7793,-101.932 68.5,-76 67.0527,-67.2297 66.1273,-64.5664 68.5,-56 71.2919,-45.9205 77.0091,-35.832 82.4668,-27.7694"/>
<polygon fill="midnightblue" stroke="midnightblue" points="85.3249,-29.7899 88.3485,-19.6357 79.6526,-25.6881 85.3249,-29.7899"/>
</g>
<!-- Node14&#45;&gt;Node13 -->
<g id="edge21" class="edge"><title>Node14&#45;&gt;Node13</title>
<path fill="none" stroke="midnightblue" d="M108.423,-168.498C98.8021,-159.996 84.3502,-146.178 74.5,-132 51.1864,-98.4438 32.9924,-53.8511 23.8946,-29.2472"/>
<polygon fill="midnightblue" stroke="midnightblue" points="27.1505,-27.9583 20.4661,-19.7382 20.5654,-30.3326 27.1505,-27.9583"/>
</g>
<!-- Node15 -->
<g id="node16" class="node"><title>Node15</title>
<g id="a_node16"><a xlink:href="Tree_8h.html" target="_top" xlink:title="Tree.h">
<polygon fill="none" stroke="black" points="96.5,-112.5 96.5,-131.5 140.5,-131.5 140.5,-112.5 96.5,-112.5"/>
<text text-anchor="middle" x="118.5" y="-119.5" font-family="Helvetica,sans-Serif" font-size="10.00">Tree.h</text>
</a>
</g>
</g>
<!-- Node14&#45;&gt;Node15 -->
<g id="edge22" class="edge"><title>Node14&#45;&gt;Node15</title>
<path fill="none" stroke="midnightblue" d="M118.5,-168.083C118.5,-161.006 118.5,-150.861 118.5,-141.986"/>
<polygon fill="midnightblue" stroke="midnightblue" points="122,-141.751 118.5,-131.751 115,-141.751 122,-141.751"/>
</g>
<!-- Node17 -->
<g id="node18" class="node"><title>Node17</title>
<g id="a_node18"><a xlink:href="SubMatrix_8h.html" target="_top" xlink:title="SubMatrix.h">
<polygon fill="none" stroke="black" points="629,-112.5 629,-131.5 698,-131.5 698,-112.5 629,-112.5"/>
<text text-anchor="middle" x="663.5" y="-119.5" font-family="Helvetica,sans-Serif" font-size="10.00">SubMatrix.h</text>
</a>
</g>
</g>
<!-- Node14&#45;&gt;Node17 -->
<g id="edge30" class="edge"><title>Node14&#45;&gt;Node17</title>
<path fill="none" stroke="midnightblue" d="M165,-169.526C168.886,-168.98 172.758,-168.463 176.5,-168 261.533,-157.484 515.166,-135.581 618.717,-126.781"/>
<polygon fill="midnightblue" stroke="midnightblue" points="619.174,-130.255 628.842,-125.921 618.582,-123.28 619.174,-130.255"/>
</g>
<!-- Node15&#45;&gt;Node4 -->
<g id="edge25" class="edge"><title>Node15&#45;&gt;Node4</title>
<path fill="none" stroke="midnightblue" d="M126.431,-112.284C139.829,-98.1299 168.44,-70.2936 198.5,-56 257.108,-28.1321 332.744,-17.4411 377.202,-13.3972"/>
<polygon fill="midnightblue" stroke="midnightblue" points="377.598,-16.8763 387.268,-12.5474 377.009,-9.90113 377.598,-16.8763"/>
</g>
<!-- Node15&#45;&gt;Node8 -->
<g id="edge23" class="edge"><title>Node15&#45;&gt;Node8</title>
<path fill="none" stroke="midnightblue" d="M140.759,-119.553C231.447,-113.571 569.086,-90.4054 586.5,-76 599.927,-64.8925 604.175,-44.8579 605.372,-29.9568"/>
<polygon fill="midnightblue" stroke="midnightblue" points="608.876,-29.9322 605.795,-19.7955 601.882,-29.6415 608.876,-29.9322"/>
</g>
<!-- Node15&#45;&gt;Node12 -->
<g id="edge24" class="edge"><title>Node15&#45;&gt;Node12</title>
<path fill="none" stroke="midnightblue" d="M105.719,-112.369C95.1056,-104.36 80.7694,-91.3795 74.5,-76 68.0159,-60.0938 75.5917,-41.3788 83.3932,-28.1254"/>
<polygon fill="midnightblue" stroke="midnightblue" points="86.4394,-29.8597 88.9159,-19.5584 80.5559,-26.0669 86.4394,-29.8597"/>
</g>
<!-- Node16 -->
<g id="node17" class="node"><title>Node16</title>
<g id="a_node17"><a xlink:href="TaxonSet_8h.html" target="_top" xlink:title="TaxonSet.h">
<polygon fill="none" stroke="black" points="84,-56.5 84,-75.5 151,-75.5 151,-56.5 84,-56.5"/>
<text text-anchor="middle" x="117.5" y="-63.5" font-family="Helvetica,sans-Serif" font-size="10.00">TaxonSet.h</text>
</a>
</g>
</g>
<!-- Node15&#45;&gt;Node16 -->
<g id="edge26" class="edge"><title>Node15&#45;&gt;Node16</title>
<path fill="none" stroke="midnightblue" d="M118.335,-112.083C118.204,-105.006 118.016,-94.8611 117.852,-85.9865"/>
<polygon fill="midnightblue" stroke="midnightblue" points="121.347,-85.6845 117.662,-75.7511 114.348,-85.8142 121.347,-85.6845"/>
</g>
<!-- Node16&#45;&gt;Node4 -->
<g id="edge29" class="edge"><title>Node16&#45;&gt;Node4</title>
<path fill="none" stroke="midnightblue" d="M151.064,-58.6777C155.907,-57.7739 160.83,-56.8597 165.5,-56 240.566,-42.1796 328.438,-26.39 377.153,-17.6707"/>
<polygon fill="midnightblue" stroke="midnightblue" points="377.997,-21.0755 387.224,-15.8691 376.764,-14.1849 377.997,-21.0755"/>
</g>
<!-- Node16&#45;&gt;Node12 -->
<g id="edge28" class="edge"><title>Node16&#45;&gt;Node12</title>
<path fill="none" stroke="midnightblue" d="M113.867,-56.083C110.888,-48.77 106.574,-38.1814 102.875,-29.1034"/>
<polygon fill="midnightblue" stroke="midnightblue" points="106.08,-27.6914 99.0653,-19.7511 99.597,-30.3326 106.08,-27.6914"/>
</g>
<!-- Node16&#45;&gt;Node13 -->
<g id="edge27" class="edge"><title>Node16&#45;&gt;Node13</title>
<path fill="none" stroke="midnightblue" d="M101.433,-56.324C85.5422,-47.7428 60.9926,-34.486 42.5415,-24.5224"/>
<polygon fill="midnightblue" stroke="midnightblue" points="43.989,-21.3264 33.5269,-19.6545 40.6629,-27.4857 43.989,-21.3264"/>
</g>
<!-- Node17&#45;&gt;Node4 -->
<g id="edge31" class="edge"><title>Node17&#45;&gt;Node4</title>
<path fill="none" stroke="midnightblue" d="M655.856,-112.439C642.944,-98.5066 615.385,-70.9825 586.5,-56 543.233,-33.5574 487.898,-21.6797 451.847,-15.8723"/>
<polygon fill="midnightblue" stroke="midnightblue" points="452.18,-12.3825 441.765,-14.3257 451.118,-19.3016 452.18,-12.3825"/>
</g>
<!-- Node18 -->
<g id="node19" class="node"><title>Node18</title>
<polygon fill="none" stroke="#bfbfbf" points="852.5,-0.5 852.5,-19.5 896.5,-19.5 896.5,-0.5 852.5,-0.5"/>
<text text-anchor="middle" x="874.5" y="-7.5" font-family="Helvetica,sans-Serif" font-size="10.00">cmath</text>
</g>
<!-- Node17&#45;&gt;Node18 -->
<g id="edge32" class="edge"><title>Node17&#45;&gt;Node18</title>
<path fill="none" stroke="midnightblue" d="M691.258,-112.405C715.489,-104.42 751.252,-91.4538 780.5,-76 808.089,-61.4229 837.256,-40.2256 855.65,-26.0431"/>
<polygon fill="midnightblue" stroke="midnightblue" points="858.036,-28.6199 863.76,-19.7041 853.726,-23.1046 858.036,-28.6199"/>
</g>
<!-- Node19 -->
<g id="node20" class="node"><title>Node19</title>
<g id="a_node20"><a xlink:href="Random_8h.html" target="_top" xlink:title="Random.h">
<polygon fill="none" stroke="black" points="709.5,-56.5 709.5,-75.5 771.5,-75.5 771.5,-56.5 709.5,-56.5"/>
<text text-anchor="middle" x="740.5" y="-63.5" font-family="Helvetica,sans-Serif" font-size="10.00">Random.h</text>
</a>
</g>
</g>
<!-- Node17&#45;&gt;Node19 -->
<g id="edge33" class="edge"><title>Node17&#45;&gt;Node19</title>
<path fill="none" stroke="midnightblue" d="M675.871,-112.324C687.658,-104.058 705.632,-91.4527 719.636,-81.6322"/>
<polygon fill="midnightblue" stroke="midnightblue" points="721.982,-84.2619 728.159,-75.6545 717.962,-78.5307 721.982,-84.2619"/>
</g>
<!-- Node19&#45;&gt;Node4 -->
<g id="edge36" class="edge"><title>Node19&#45;&gt;Node4</title>
<path fill="none" stroke="midnightblue" d="M709.058,-58.5508C704.514,-57.6657 699.891,-56.7904 695.5,-56 608.431,-40.3274 505.686,-24.5634 451.793,-16.5037"/>
<polygon fill="midnightblue" stroke="midnightblue" points="452.092,-13.0096 441.685,-14.9968 451.06,-19.9331 452.092,-13.0096"/>
</g>
<!-- Node19&#45;&gt;Node8 -->
<g id="edge35" class="edge"><title>Node19&#45;&gt;Node8</title>
<path fill="none" stroke="midnightblue" d="M719.109,-56.4435C696.793,-47.5171 661.597,-33.4387 636.292,-23.3168"/>
<polygon fill="midnightblue" stroke="midnightblue" points="637.376,-19.9807 626.791,-19.5164 634.776,-26.4801 637.376,-19.9807"/>
</g>
<!-- Node19&#45;&gt;Node18 -->
<g id="edge34" class="edge"><title>Node19&#45;&gt;Node18</title>
<path fill="none" stroke="midnightblue" d="M761.733,-56.4435C783.884,-47.5171 818.819,-33.4387 843.936,-23.3168"/>
<polygon fill="midnightblue" stroke="midnightblue" points="845.4,-26.5006 853.367,-19.5164 842.783,-20.0079 845.4,-26.5006"/>
</g>
<!-- Node20 -->
<g id="node21" class="node"><title>Node20</title>
<polygon fill="none" stroke="#bfbfbf" points="782.5,-0.5 782.5,-19.5 834.5,-19.5 834.5,-0.5 782.5,-0.5"/>
<text text-anchor="middle" x="808.5" y="-7.5" font-family="Helvetica,sans-Serif" font-size="10.00">sstream</text>
</g>
<!-- Node19&#45;&gt;Node20 -->
<g id="edge37" class="edge"><title>Node19&#45;&gt;Node20</title>
<path fill="none" stroke="midnightblue" d="M751.425,-56.324C761.675,-48.1849 777.221,-35.8395 789.501,-26.0874"/>
<polygon fill="midnightblue" stroke="midnightblue" points="791.721,-28.7937 797.376,-19.8339 787.368,-23.3119 791.721,-28.7937"/>
</g>
<!-- Node21 -->
<g id="node22" class="node"><title>Node21</title>
<polygon fill="none" stroke="#bfbfbf" points="646.5,-0.5 646.5,-19.5 696.5,-19.5 696.5,-0.5 646.5,-0.5"/>
<text text-anchor="middle" x="671.5" y="-7.5" font-family="Helvetica,sans-Serif" font-size="10.00">iomanip</text>
</g>
<!-- Node19&#45;&gt;Node21 -->
<g id="edge38" class="edge"><title>Node19&#45;&gt;Node21</title>
<path fill="none" stroke="midnightblue" d="M729.414,-56.324C719.014,-48.1849 703.239,-35.8395 690.778,-26.0874"/>
<polygon fill="midnightblue" stroke="midnightblue" points="692.82,-23.2407 682.788,-19.8339 688.506,-28.7533 692.82,-23.2407"/>
</g>
<!-- Node22 -->
<g id="node23" class="node"><title>Node22</title>
<polygon fill="none" stroke="#bfbfbf" points="714.5,-0.5 714.5,-19.5 764.5,-19.5 764.5,-0.5 714.5,-0.5"/>
<text text-anchor="middle" x="739.5" y="-7.5" font-family="Helvetica,sans-Serif" font-size="10.00">fstream</text>
</g>
<!-- Node19&#45;&gt;Node22 -->
<g id="edge39" class="edge"><title>Node19&#45;&gt;Node22</title>
<path fill="none" stroke="midnightblue" d="M740.335,-56.083C740.204,-49.0059 740.016,-38.8611 739.852,-29.9865"/>
<polygon fill="midnightblue" stroke="midnightblue" points="743.347,-29.6845 739.662,-19.7511 736.348,-29.8142 743.347,-29.6845"/>
</g>
<!-- Node24&#45;&gt;Node9 -->
<g id="edge44" class="edge"><title>Node24&#45;&gt;Node9</title>
<path fill="none" stroke="midnightblue" d="M472.555,-224.083C467.523,-216.534 460.163,-205.495 453.987,-196.23"/>
<polygon fill="midnightblue" stroke="midnightblue" points="456.793,-194.13 448.334,-187.751 450.969,-198.013 456.793,-194.13"/>
</g>
<!-- Node24&#45;&gt;Node17 -->
<g id="edge43" class="edge"><title>Node24&#45;&gt;Node17</title>
<path fill="none" stroke="midnightblue" d="M484.619,-224.185C494.612,-210.392 515.723,-183.668 539.5,-168 563.703,-152.052 594.282,-140.874 619.018,-133.648"/>
<polygon fill="midnightblue" stroke="midnightblue" points="620.193,-136.953 628.877,-130.884 618.303,-130.213 620.193,-136.953"/>
</g>
<!-- Node25&#45;&gt;Node24 -->
<g id="edge49" class="edge"><title>Node25&#45;&gt;Node24</title>
<path fill="none" stroke="midnightblue" d="M575.278,-280.444C556.604,-271.675 527.344,-257.935 505.883,-247.858"/>
<polygon fill="midnightblue" stroke="midnightblue" points="507.176,-244.599 496.637,-243.516 504.201,-250.935 507.176,-244.599"/>
</g>
<!-- Node26 -->
<g id="node27" class="node"><title>Node26</title>
<g id="a_node27"><a xlink:href="GTRSubMatrix_8h.html" target="_top" xlink:title="GTRSubMatrix.h">
<polygon fill="none" stroke="black" points="548.5,-168.5 548.5,-187.5 638.5,-187.5 638.5,-168.5 548.5,-168.5"/>
<text text-anchor="middle" x="593.5" y="-175.5" font-family="Helvetica,sans-Serif" font-size="10.00">GTRSubMatrix.h</text>
</a>
</g>
</g>
<!-- Node25&#45;&gt;Node26 -->
<g id="edge46" class="edge"><title>Node25&#45;&gt;Node26</title>
<path fill="none" stroke="midnightblue" d="M593.5,-280.368C593.5,-262.617 593.5,-221.666 593.5,-197.597"/>
<polygon fill="midnightblue" stroke="midnightblue" points="597,-197.591 593.5,-187.591 590,-197.591 597,-197.591"/>
</g>
<!-- Node26&#45;&gt;Node11 -->
<g id="edge47" class="edge"><title>Node26&#45;&gt;Node11</title>
<path fill="none" stroke="midnightblue" d="M589.157,-168.306C582.66,-155.567 569.752,-131.253 556.5,-112 549.69,-102.106 541.237,-91.7086 534.13,-83.4032"/>
<polygon fill="midnightblue" stroke="midnightblue" points="536.547,-80.85 527.336,-75.6145 531.272,-85.4513 536.547,-80.85"/>
</g>
<!-- Node26&#45;&gt;Node17 -->
<g id="edge48" class="edge"><title>Node26&#45;&gt;Node17</title>
<path fill="none" stroke="midnightblue" d="M604.747,-168.324C615.297,-160.185 631.301,-147.839 643.942,-138.087"/>
<polygon fill="midnightblue" stroke="midnightblue" points="646.269,-140.713 652.049,-131.834 641.993,-135.171 646.269,-140.713"/>
</g>
</g>
</svg>
