<?xml version="1.0" encoding="UTF-8" standalone="no"?>
<!DOCTYPE svg PUBLIC "-//W3C//DTD SVG 1.1//EN"
 "http://www.w3.org/Graphics/SVG/1.1/DTD/svg11.dtd">
<!-- Generated by graphviz version 2.38.0 (20140413.2041)
 -->
<!-- Title: GTRSubMatrix.h Pages: 1 -->
<svg width="453pt" height="196pt"
 viewBox="0.00 0.00 452.50 196.00" xmlns="http://www.w3.org/2000/svg" xmlns:xlink="http://www.w3.org/1999/xlink">
<g id="graph0" class="graph" transform="scale(1 1) rotate(0) translate(4 192)">
<title>GTRSubMatrix.h</title>
<!-- Node0 -->
<g id="node1" class="node"><title>Node0</title>
<polygon fill="#bfbfbf" stroke="black" points="104.5,-168.5 104.5,-187.5 194.5,-187.5 194.5,-168.5 104.5,-168.5"/>
<text text-anchor="middle" x="149.5" y="-175.5" font-family="Helvetica,sans-Serif" font-size="10.00">GTRSubMatrix.h</text>
</g>
<!-- Node1 -->
<g id="node2" class="node"><title>Node1</title>
<g id="a_node2"><a xlink:href="BiologicalSequences_8h.html" target="_top" xlink:title="BiologicalSequences.h">
<polygon fill="none" stroke="black" points="23.5,-56.5 23.5,-75.5 139.5,-75.5 139.5,-56.5 23.5,-56.5"/>
<text text-anchor="middle" x="81.5" y="-63.5" font-family="Helvetica,sans-Serif" font-size="10.00">BiologicalSequences.h</text>
</a>
</g>
</g>
<!-- Node0&#45;&gt;Node1 -->
<g id="edge1" class="edge"><title>Node0&#45;&gt;Node1</title>
<path fill="none" stroke="midnightblue" d="M144.164,-168.368C132.992,-150.296 106.955,-108.176 92.1991,-84.3074"/>
<polygon fill="midnightblue" stroke="midnightblue" points="95.0464,-82.257 86.8111,-75.5914 89.0922,-85.9378 95.0464,-82.257"/>
</g>
<!-- Node5 -->
<g id="node6" class="node"><title>Node5</title>
<g id="a_node6"><a xlink:href="SubMatrix_8h.html" target="_top" xlink:title="SubMatrix.h">
<polygon fill="none" stroke="black" points="152,-112.5 152,-131.5 221,-131.5 221,-112.5 152,-112.5"/>
<text text-anchor="middle" x="186.5" y="-119.5" font-family="Helvetica,sans-Serif" font-size="10.00">SubMatrix.h</text>
</a>
</g>
</g>
<!-- Node0&#45;&gt;Node5 -->
<g id="edge5" class="edge"><title>Node0&#45;&gt;Node5</title>
<path fill="none" stroke="midnightblue" d="M155.61,-168.083C160.782,-160.534 168.346,-149.495 174.694,-140.23"/>
<polygon fill="midnightblue" stroke="midnightblue" points="177.739,-141.979 180.504,-131.751 171.964,-138.022 177.739,-141.979"/>
</g>
<!-- Node2 -->
<g id="node3" class="node"><title>Node2</title>
<polygon fill="none" stroke="#bfbfbf" points="59,-0.5 59,-19.5 104,-19.5 104,-0.5 59,-0.5"/>
<text text-anchor="middle" x="81.5" y="-7.5" font-family="Helvetica,sans-Serif" font-size="10.00">cstdlib</text>
</g>
<!-- Node1&#45;&gt;Node2 -->
<g id="edge2" class="edge"><title>Node1&#45;&gt;Node2</title>
<path fill="none" stroke="midnightblue" d="M81.5,-56.083C81.5,-49.0059 81.5,-38.8611 81.5,-29.9865"/>
<polygon fill="midnightblue" stroke="midnightblue" points="85.0001,-29.751 81.5,-19.7511 78.0001,-29.7511 85.0001,-29.751"/>
</g>
<!-- Node3 -->
<g id="node4" class="node"><title>Node3</title>
<polygon fill="none" stroke="#bfbfbf" points="122.5,-0.5 122.5,-19.5 176.5,-19.5 176.5,-0.5 122.5,-0.5"/>
<text text-anchor="middle" x="149.5" y="-7.5" font-family="Helvetica,sans-Serif" font-size="10.00">iostream</text>
</g>
<!-- Node1&#45;&gt;Node3 -->
<g id="edge3" class="edge"><title>Node1&#45;&gt;Node3</title>
<path fill="none" stroke="midnightblue" d="M92.4254,-56.324C102.675,-48.1849 118.221,-35.8395 130.501,-26.0874"/>
<polygon fill="midnightblue" stroke="midnightblue" points="132.721,-28.7937 138.376,-19.8339 128.368,-23.3119 132.721,-28.7937"/>
</g>
<!-- Node4 -->
<g id="node5" class="node"><title>Node4</title>
<polygon fill="none" stroke="#bfbfbf" points="0,-0.5 0,-19.5 41,-19.5 41,-0.5 0,-0.5"/>
<text text-anchor="middle" x="20.5" y="-7.5" font-family="Helvetica,sans-Serif" font-size="10.00">string</text>
</g>
<!-- Node1&#45;&gt;Node4 -->
<g id="edge4" class="edge"><title>Node1&#45;&gt;Node4</title>
<path fill="none" stroke="midnightblue" d="M71.6993,-56.324C62.6819,-48.3414 49.094,-36.3128 38.182,-26.6529"/>
<polygon fill="midnightblue" stroke="midnightblue" points="40.2866,-23.8416 30.479,-19.8339 35.6467,-29.083 40.2866,-23.8416"/>
</g>
<!-- Node5&#45;&gt;Node3 -->
<g id="edge6" class="edge"><title>Node5&#45;&gt;Node3</title>
<path fill="none" stroke="midnightblue" d="M183.597,-112.368C177.599,-94.5366 163.727,-53.2953 155.646,-29.2717"/>
<polygon fill="midnightblue" stroke="midnightblue" points="158.895,-27.9537 152.39,-19.5914 152.261,-30.1855 158.895,-27.9537"/>
</g>
<!-- Node6 -->
<g id="node7" class="node"><title>Node6</title>
<polygon fill="none" stroke="#bfbfbf" points="194.5,-0.5 194.5,-19.5 238.5,-19.5 238.5,-0.5 194.5,-0.5"/>
<text text-anchor="middle" x="216.5" y="-7.5" font-family="Helvetica,sans-Serif" font-size="10.00">cmath</text>
</g>
<!-- Node5&#45;&gt;Node6 -->
<g id="edge7" class="edge"><title>Node5&#45;&gt;Node6</title>
<path fill="none" stroke="midnightblue" d="M188.854,-112.368C193.717,-94.5366 204.965,-53.2953 211.517,-29.2717"/>
<polygon fill="midnightblue" stroke="midnightblue" points="214.902,-30.16 214.157,-19.5914 208.149,-28.3181 214.902,-30.16"/>
</g>
<!-- Node7 -->
<g id="node8" class="node"><title>Node7</title>
<g id="a_node8"><a xlink:href="Random_8h.html" target="_top" xlink:title="Random.h">
<polygon fill="none" stroke="black" points="233.5,-56.5 233.5,-75.5 295.5,-75.5 295.5,-56.5 233.5,-56.5"/>
<text text-anchor="middle" x="264.5" y="-63.5" font-family="Helvetica,sans-Serif" font-size="10.00">Random.h</text>
</a>
</g>
</g>
<!-- Node5&#45;&gt;Node7 -->
<g id="edge8" class="edge"><title>Node5&#45;&gt;Node7</title>
<path fill="none" stroke="midnightblue" d="M199.032,-112.324C211.086,-103.979 229.527,-91.2122 243.769,-81.3524"/>
<polygon fill="midnightblue" stroke="midnightblue" points="245.769,-84.2243 251.999,-75.6545 241.785,-78.469 245.769,-84.2243"/>
</g>
<!-- Node7&#45;&gt;Node2 -->
<g id="edge10" class="edge"><title>Node7&#45;&gt;Node2</title>
<path fill="none" stroke="midnightblue" d="M235.503,-56.4435C202.44,-46.6872 148.52,-30.7764 114.045,-20.6036"/>
<polygon fill="midnightblue" stroke="midnightblue" points="114.597,-17.1172 104.015,-17.6439 112.616,-23.831 114.597,-17.1172"/>
</g>
<!-- Node7&#45;&gt;Node3 -->
<g id="edge11" class="edge"><title>Node7&#45;&gt;Node3</title>
<path fill="none" stroke="midnightblue" d="M246.278,-56.4435C227.604,-47.6751 198.344,-33.9355 176.883,-23.8579"/>
<polygon fill="midnightblue" stroke="midnightblue" points="178.176,-20.5988 167.637,-19.5164 175.201,-26.935 178.176,-20.5988"/>
</g>
<!-- Node7&#45;&gt;Node6 -->
<g id="edge9" class="edge"><title>Node7&#45;&gt;Node6</title>
<path fill="none" stroke="midnightblue" d="M256.574,-56.083C249.654,-48.2982 239.435,-36.8015 231.048,-27.3665"/>
<polygon fill="midnightblue" stroke="midnightblue" points="233.538,-24.8999 224.279,-19.7511 228.306,-29.5505 233.538,-24.8999"/>
</g>
<!-- Node8 -->
<g id="node9" class="node"><title>Node8</title>
<polygon fill="none" stroke="#bfbfbf" points="256.5,-0.5 256.5,-19.5 308.5,-19.5 308.5,-0.5 256.5,-0.5"/>
<text text-anchor="middle" x="282.5" y="-7.5" font-family="Helvetica,sans-Serif" font-size="10.00">sstream</text>
</g>
<!-- Node7&#45;&gt;Node8 -->
<g id="edge12" class="edge"><title>Node7&#45;&gt;Node8</title>
<path fill="none" stroke="midnightblue" d="M267.472,-56.083C269.884,-48.8486 273.364,-38.4087 276.368,-29.3968"/>
<polygon fill="midnightblue" stroke="midnightblue" points="279.741,-30.3447 279.583,-19.7511 273.1,-28.1311 279.741,-30.3447"/>
</g>
<!-- Node9 -->
<g id="node10" class="node"><title>Node9</title>
<polygon fill="none" stroke="#bfbfbf" points="326.5,-0.5 326.5,-19.5 376.5,-19.5 376.5,-0.5 326.5,-0.5"/>
<text text-anchor="middle" x="351.5" y="-7.5" font-family="Helvetica,sans-Serif" font-size="10.00">iomanip</text>
</g>
<!-- Node7&#45;&gt;Node9 -->
<g id="edge13" class="edge"><title>Node7&#45;&gt;Node9</title>
<path fill="none" stroke="midnightblue" d="M278.478,-56.324C292.05,-47.9002 312.88,-34.9709 328.825,-25.0741"/>
<polygon fill="midnightblue" stroke="midnightblue" points="330.906,-27.9019 337.557,-19.6545 327.214,-21.9544 330.906,-27.9019"/>
</g>
<!-- Node10 -->
<g id="node11" class="node"><title>Node10</title>
<polygon fill="none" stroke="#bfbfbf" points="394.5,-0.5 394.5,-19.5 444.5,-19.5 444.5,-0.5 394.5,-0.5"/>
<text text-anchor="middle" x="419.5" y="-7.5" font-family="Helvetica,sans-Serif" font-size="10.00">fstream</text>
</g>
<!-- Node7&#45;&gt;Node10 -->
<g id="edge14" class="edge"><title>Node7&#45;&gt;Node10</title>
<path fill="none" stroke="midnightblue" d="M289.06,-56.4435C315.023,-47.3986 356.168,-33.064 385.297,-22.9158"/>
<polygon fill="midnightblue" stroke="midnightblue" points="386.763,-26.1116 395.055,-19.5164 384.46,-19.5013 386.763,-26.1116"/>
</g>
</g>
</svg>
