<?xml version="1.0" encoding="UTF-8" standalone="no"?>
<!DOCTYPE svg PUBLIC "-//W3C//DTD SVG 1.1//EN"
 "http://www.w3.org/Graphics/SVG/1.1/DTD/svg11.dtd">
<!-- Generated by graphviz version 2.38.0 (20140413.2041)
 -->
<!-- Title: IncompleteGamma.h Pages: 1 -->
<svg width="509pt" height="84pt"
 viewBox="0.00 0.00 508.50 84.00" xmlns="http://www.w3.org/2000/svg" xmlns:xlink="http://www.w3.org/1999/xlink">
<g id="graph0" class="graph" transform="scale(1 1) rotate(0) translate(4 80)">
<title>IncompleteGamma.h</title>
<!-- Node0 -->
<g id="node1" class="node"><title>Node0</title>
<polygon fill="#bfbfbf" stroke="black" points="195,-56.5 195,-75.5 302,-75.5 302,-56.5 195,-56.5"/>
<text text-anchor="middle" x="248.5" y="-63.5" font-family="Helvetica,sans-Serif" font-size="10.00">IncompleteGamma.h</text>
</g>
<!-- Node1 -->
<g id="node2" class="node"><title>Node1</title>
<polygon fill="none" stroke="#bfbfbf" points="0,-0.5 0,-19.5 45,-19.5 45,-0.5 0,-0.5"/>
<text text-anchor="middle" x="22.5" y="-7.5" font-family="Helvetica,sans-Serif" font-size="10.00">cstdlib</text>
</g>
<!-- Node0&#45;&gt;Node1 -->
<g id="edge1" class="edge"><title>Node0&#45;&gt;Node1</title>
<path fill="none" stroke="midnightblue" d="M208.38,-56.4271C170.929,-48.2719 113.275,-35.3296 54.8993,-20.2676"/>
<polygon fill="midnightblue" stroke="midnightblue" points="55.7055,-16.8609 45.1466,-17.7328 53.9446,-23.6358 55.7055,-16.8609"/>
</g>
<!-- Node2 -->
<g id="node3" class="node"><title>Node2</title>
<polygon fill="none" stroke="#bfbfbf" points="63,-0.5 63,-19.5 106,-19.5 106,-0.5 63,-0.5"/>
<text text-anchor="middle" x="84.5" y="-7.5" font-family="Helvetica,sans-Serif" font-size="10.00">cstdio</text>
</g>
<!-- Node0&#45;&gt;Node2 -->
<g id="edge2" class="edge"><title>Node0&#45;&gt;Node2</title>
<path fill="none" stroke="midnightblue" d="M222.514,-56.4435C193.626,-46.9316 146.971,-31.5697 116.021,-21.3787"/>
<polygon fill="midnightblue" stroke="midnightblue" points="116.768,-17.94 106.175,-18.1368 114.579,-24.5888 116.768,-17.94"/>
</g>
<!-- Node3 -->
<g id="node4" class="node"><title>Node3</title>
<polygon fill="none" stroke="#bfbfbf" points="124.5,-0.5 124.5,-19.5 168.5,-19.5 168.5,-0.5 124.5,-0.5"/>
<text text-anchor="middle" x="146.5" y="-7.5" font-family="Helvetica,sans-Serif" font-size="10.00">cmath</text>
</g>
<!-- Node0&#45;&gt;Node3 -->
<g id="edge3" class="edge"><title>Node0&#45;&gt;Node3</title>
<path fill="none" stroke="midnightblue" d="M232.112,-56.324C215.829,-47.7034 190.633,-34.3643 171.784,-24.3855"/>
<polygon fill="midnightblue" stroke="midnightblue" points="173.323,-21.2402 162.847,-19.6545 170.048,-27.4267 173.323,-21.2402"/>
</g>
<!-- Node4 -->
<g id="node5" class="node"><title>Node4</title>
<polygon fill="none" stroke="#bfbfbf" points="186.5,-0.5 186.5,-19.5 240.5,-19.5 240.5,-0.5 186.5,-0.5"/>
<text text-anchor="middle" x="213.5" y="-7.5" font-family="Helvetica,sans-Serif" font-size="10.00">iostream</text>
</g>
<!-- Node0&#45;&gt;Node4 -->
<g id="edge4" class="edge"><title>Node0&#45;&gt;Node4</title>
<path fill="none" stroke="midnightblue" d="M242.72,-56.083C237.828,-48.5341 230.673,-37.4948 224.667,-28.2298"/>
<polygon fill="midnightblue" stroke="midnightblue" points="227.548,-26.239 219.172,-19.7511 221.674,-30.0463 227.548,-26.239"/>
</g>
<!-- Node5 -->
<g id="node6" class="node"><title>Node5</title>
<polygon fill="none" stroke="#bfbfbf" points="258.5,-0.5 258.5,-19.5 308.5,-19.5 308.5,-0.5 258.5,-0.5"/>
<text text-anchor="middle" x="283.5" y="-7.5" font-family="Helvetica,sans-Serif" font-size="10.00">fstream</text>
</g>
<!-- Node0&#45;&gt;Node5 -->
<g id="edge5" class="edge"><title>Node0&#45;&gt;Node5</title>
<path fill="none" stroke="midnightblue" d="M254.28,-56.083C259.172,-48.5341 266.327,-37.4948 272.333,-28.2298"/>
<polygon fill="midnightblue" stroke="midnightblue" points="275.326,-30.0463 277.828,-19.7511 269.452,-26.239 275.326,-30.0463"/>
</g>
<!-- Node6 -->
<g id="node7" class="node"><title>Node6</title>
<polygon fill="none" stroke="#bfbfbf" points="326.5,-0.5 326.5,-19.5 376.5,-19.5 376.5,-0.5 326.5,-0.5"/>
<text text-anchor="middle" x="351.5" y="-7.5" font-family="Helvetica,sans-Serif" font-size="10.00">iomanip</text>
</g>
<!-- Node0&#45;&gt;Node6 -->
<g id="edge6" class="edge"><title>Node0&#45;&gt;Node6</title>
<path fill="none" stroke="midnightblue" d="M265.049,-56.324C281.492,-47.7034 306.935,-34.3643 325.968,-24.3855"/>
<polygon fill="midnightblue" stroke="midnightblue" points="327.761,-27.3977 334.992,-19.6545 324.511,-21.198 327.761,-27.3977"/>
</g>
<!-- Node7 -->
<g id="node8" class="node"><title>Node7</title>
<polygon fill="none" stroke="#bfbfbf" points="395,-0.5 395,-19.5 436,-19.5 436,-0.5 395,-0.5"/>
<text text-anchor="middle" x="415.5" y="-7.5" font-family="Helvetica,sans-Serif" font-size="10.00">ctime</text>
</g>
<!-- Node0&#45;&gt;Node7 -->
<g id="edge7" class="edge"><title>Node0&#45;&gt;Node7</title>
<path fill="none" stroke="midnightblue" d="M274.962,-56.4435C305.004,-46.7292 353.916,-30.9134 385.392,-20.7354"/>
<polygon fill="midnightblue" stroke="midnightblue" points="386.515,-24.0508 394.953,-17.6439 384.361,-17.3904 386.515,-24.0508"/>
</g>
<!-- Node8 -->
<g id="node9" class="node"><title>Node8</title>
<polygon fill="none" stroke="#bfbfbf" points="454.5,-0.5 454.5,-19.5 500.5,-19.5 500.5,-0.5 454.5,-0.5"/>
<text text-anchor="middle" x="477.5" y="-7.5" font-family="Helvetica,sans-Serif" font-size="10.00">cstring</text>
</g>
<!-- Node0&#45;&gt;Node8 -->
<g id="edge8" class="edge"><title>Node0&#45;&gt;Node8</title>
<path fill="none" stroke="midnightblue" d="M288.634,-56.4433C326.437,-48.2477 384.874,-35.2306 444.499,-20.1613"/>
<polygon fill="midnightblue" stroke="midnightblue" points="445.636,-23.4835 454.465,-17.6259 443.91,-16.6996 445.636,-23.4835"/>
</g>
</g>
</svg>
