<?xml version="1.0" encoding="UTF-8" standalone="no"?>
<!DOCTYPE svg PUBLIC "-//W3C//DTD SVG 1.1//EN"
 "http://www.w3.org/Graphics/SVG/1.1/DTD/svg11.dtd">
<!-- Generated by graphviz version 2.38.0 (20140413.2041)
 -->
<!-- Title: Graphical Class Hierarchy Pages: 1 -->
<svg width="282pt" height="142pt"
 viewBox="0.00 0.00 282.00 142.00" xmlns="http://www.w3.org/2000/svg" xmlns:xlink="http://www.w3.org/1999/xlink">
<g id="graph0" class="graph" transform="scale(1 1) rotate(0) translate(4 138)">
<title>Graphical Class Hierarchy</title>
<!-- Node0 -->
<g id="node1" class="node"><title>Node0</title>
<g id="a_node1"><a xlink:href="classSequenceAlignment.html" target="_top" xlink:title="SequenceAlignment">
<polygon fill="none" stroke="black" points="0,-57.5 0,-76.5 104,-76.5 104,-57.5 0,-57.5"/>
<text text-anchor="middle" x="52" y="-64.5" font-family="Helvetica,sans-Serif" font-size="10.00">SequenceAlignment</text>
</a>
</g>
</g>
<!-- Node1 -->
<g id="node2" class="node"><title>Node1</title>
<g id="a_node2"><a xlink:href="classCodonSequenceAlignment.html" target="_top" xlink:title="CodonSequenceAlignment">
<polygon fill="none" stroke="black" points="141,-114.5 141,-133.5 273,-133.5 273,-114.5 141,-114.5"/>
<text text-anchor="middle" x="207" y="-121.5" font-family="Helvetica,sans-Serif" font-size="10.00">CodonSequenceAlignment</text>
</a>
</g>
</g>
<!-- Node0&#45;&gt;Node1 -->
<g id="edge1" class="edge"><title>Node0&#45;&gt;Node1</title>
<path fill="none" stroke="midnightblue" d="M81.9849,-80.8028C98.7221,-88.4832 120.299,-97.8965 140,-105 149.534,-108.438 160.013,-111.687 169.759,-114.495"/>
<polygon fill="midnightblue" stroke="midnightblue" points="83.2844,-77.5474 72.7403,-76.5116 80.337,-83.8967 83.2844,-77.5474"/>
</g>
<!-- Node2 -->
<g id="node3" class="node"><title>Node2</title>
<g id="a_node3"><a xlink:href="classFileSequenceAlignment.html" target="_top" xlink:title="FileSequenceAlignment">
<polygon fill="none" stroke="black" points="147.5,-76.5 147.5,-95.5 266.5,-95.5 266.5,-76.5 147.5,-76.5"/>
<text text-anchor="middle" x="207" y="-83.5" font-family="Helvetica,sans-Serif" font-size="10.00">FileSequenceAlignment</text>
</a>
</g>
</g>
<!-- Node0&#45;&gt;Node2 -->
<g id="edge2" class="edge"><title>Node0&#45;&gt;Node2</title>
<path fill="none" stroke="midnightblue" d="M114.588,-74.6481C125.405,-75.9915 136.637,-77.3863 147.372,-78.7194"/>
<polygon fill="midnightblue" stroke="midnightblue" points="114.728,-71.1387 104.372,-73.3796 113.865,-78.0854 114.728,-71.1387"/>
</g>
<!-- Node3 -->
<g id="node4" class="node"><title>Node3</title>
<g id="a_node4"><a xlink:href="classProteinSequenceAlignment.html" target="_top" xlink:title="ProteinSequenceAlignment">
<polygon fill="none" stroke="black" points="140,-38.5 140,-57.5 274,-57.5 274,-38.5 140,-38.5"/>
<text text-anchor="middle" x="207" y="-45.5" font-family="Helvetica,sans-Serif" font-size="10.00">ProteinSequenceAlignment</text>
</a>
</g>
</g>
<!-- Node0&#45;&gt;Node3 -->
<g id="edge3" class="edge"><title>Node0&#45;&gt;Node3</title>
<path fill="none" stroke="midnightblue" d="M114.415,-59.3733C122.773,-58.3354 131.381,-57.2664 139.819,-56.2185"/>
<polygon fill="midnightblue" stroke="midnightblue" points="113.865,-55.9146 104.372,-60.6204 114.728,-62.8613 113.865,-55.9146"/>
</g>
<!-- Node4 -->
<g id="node5" class="node"><title>Node4</title>
<g id="a_node5"><a xlink:href="classZippedSequenceAlignment.html" target="_top" xlink:title="ZippedSequenceAlignment">
<polygon fill="none" stroke="black" points="140.5,-0.5 140.5,-19.5 273.5,-19.5 273.5,-0.5 140.5,-0.5"/>
<text text-anchor="middle" x="207" y="-7.5" font-family="Helvetica,sans-Serif" font-size="10.00">ZippedSequenceAlignment</text>
</a>
</g>
</g>
<!-- Node0&#45;&gt;Node4 -->
<g id="edge4" class="edge"><title>Node0&#45;&gt;Node4</title>
<path fill="none" stroke="midnightblue" d="M81.9849,-53.1972C98.7221,-45.5168 120.299,-36.1035 140,-29 149.534,-25.5623 160.013,-22.3128 169.759,-19.5055"/>
<polygon fill="midnightblue" stroke="midnightblue" points="80.337,-50.1033 72.7403,-57.4884 83.2844,-56.4526 80.337,-50.1033"/>
</g>
</g>
</svg>
