<?xml version="1.0" encoding="UTF-8" standalone="no"?>
<!DOCTYPE svg PUBLIC "-//W3C//DTD SVG 1.1//EN"
 "http://www.w3.org/Graphics/SVG/1.1/DTD/svg11.dtd">
<!-- Generated by graphviz version 2.38.0 (20140413.2041)
 -->
<!-- Title: Graphical Class Hierarchy Pages: 1 -->
<svg width="1704pt" height="473pt"
 viewBox="0.00 0.00 1704.00 473.07" xmlns="http://www.w3.org/2000/svg" xmlns:xlink="http://www.w3.org/1999/xlink">
<g id="graph0" class="graph" transform="scale(1 1) rotate(0) translate(4 469.071)">
<title>Graphical Class Hierarchy</title>
<!-- Node53 -->
<g id="node1" class="node"><title>Node53</title>
<g id="a_node1"><a xlink:href="classNewickTree.html" target="_top" xlink:title="NewickTree">
<polygon fill="none" stroke="black" points="135,-211.5 135,-230.5 204,-230.5 204,-211.5 135,-211.5"/>
<text text-anchor="middle" x="169.5" y="-218.5" font-family="Helvetica,sans-Serif" font-size="10.00">NewickTree</text>
</a>
</g>
</g>
<!-- Node54 -->
<g id="node2" class="node"><title>Node54</title>
<g id="a_node2"><a xlink:href="classBranchProcess.html" target="_top" xlink:title="BranchProcess">
<polygon fill="none" stroke="black" points="269.5,-192.5 269.5,-211.5 352.5,-211.5 352.5,-192.5 269.5,-192.5"/>
<text text-anchor="middle" x="311" y="-199.5" font-family="Helvetica,sans-Serif" font-size="10.00">BranchProcess</text>
</a>
</g>
</g>
<!-- Node53&#45;&gt;Node54 -->
<g id="edge1" class="edge"><title>Node53&#45;&gt;Node54</title>
<path fill="none" stroke="midnightblue" d="M214.293,-215.035C231.893,-212.638 252.065,-209.891 269.337,-207.538"/>
<polygon fill="midnightblue" stroke="midnightblue" points="213.705,-211.583 204.269,-216.401 214.65,-218.519 213.705,-211.583"/>
</g>
<!-- Node56 -->
<g id="node10" class="node"><title>Node56</title>
<g id="a_node10"><a xlink:href="classTree.html" target="_top" xlink:title="Tree">
<polygon fill="none" stroke="black" points="293,-230.5 293,-249.5 329,-249.5 329,-230.5 293,-230.5"/>
<text text-anchor="middle" x="311" y="-237.5" font-family="Helvetica,sans-Serif" font-size="10.00">Tree</text>
</a>
</g>
</g>
<!-- Node53&#45;&gt;Node56 -->
<g id="edge10" class="edge"><title>Node53&#45;&gt;Node56</title>
<path fill="none" stroke="midnightblue" d="M214.47,-226.989C240.961,-230.597 273.226,-234.991 292.663,-237.639"/>
<polygon fill="midnightblue" stroke="midnightblue" points="214.65,-223.481 204.269,-225.599 213.705,-230.417 214.65,-223.481"/>
</g>
<!-- Node55 -->
<g id="node3" class="node"><title>Node55</title>
<g id="a_node3"><a xlink:href="classGammaBranchProcess.html" target="_top" xlink:title="GammaBranchProcess">
<polygon fill="none" stroke="black" points="1006,-139.5 1006,-158.5 1124,-158.5 1124,-139.5 1006,-139.5"/>
<text text-anchor="middle" x="1065" y="-146.5" font-family="Helvetica,sans-Serif" font-size="10.00">GammaBranchProcess</text>
</a>
</g>
</g>
<!-- Node54&#45;&gt;Node55 -->
<g id="edge2" class="edge"><title>Node54&#45;&gt;Node55</title>
<path fill="none" stroke="midnightblue" d="M362.739,-198.424C497.347,-188.937 862.958,-163.169 1005.75,-153.105"/>
<polygon fill="midnightblue" stroke="midnightblue" points="362.427,-194.937 352.697,-199.132 362.919,-201.92 362.427,-194.937"/>
</g>
<!-- Node38 -->
<g id="node5" class="node"><title>Node38</title>
<g id="a_node5"><a xlink:href="classExpoConjugateGTRProfileProcess.html" target="_top" xlink:title="ExpoConjugateGTRProfileProcess">
<polygon fill="none" stroke="black" points="399,-230.5 399,-249.5 567,-249.5 567,-230.5 399,-230.5"/>
<text text-anchor="middle" x="483" y="-237.5" font-family="Helvetica,sans-Serif" font-size="10.00">ExpoConjugateGTRProfileProcess</text>
</a>
</g>
</g>
<!-- Node54&#45;&gt;Node38 -->
<g id="edge4" class="edge"><title>Node54&#45;&gt;Node38</title>
<path fill="none" stroke="midnightblue" d="M362.525,-213.294C386.944,-218.752 415.933,-225.232 439.241,-230.442"/>
<polygon fill="midnightblue" stroke="midnightblue" points="363.242,-209.868 352.719,-211.102 361.715,-216.699 363.242,-209.868"/>
</g>
<!-- Node43 -->
<g id="node4" class="node"><title>Node43</title>
<g id="a_node4"><a xlink:href="classMatrixSBDPProfileProcess.html" target="_top" xlink:title="MatrixSBDPProfileProcess">
<polygon fill="none" stroke="black" points="1171,-250.5 1171,-269.5 1306,-269.5 1306,-250.5 1171,-250.5"/>
<text text-anchor="middle" x="1238.5" y="-257.5" font-family="Helvetica,sans-Serif" font-size="10.00">MatrixSBDPProfileProcess</text>
</a>
</g>
</g>
<!-- Node55&#45;&gt;Node43 -->
<g id="edge3" class="edge"><title>Node55&#45;&gt;Node43</title>
<path fill="none" stroke="midnightblue" d="M1089.74,-164.368C1125.63,-187.593 1192.65,-230.969 1222.49,-250.287"/>
<polygon fill="midnightblue" stroke="midnightblue" points="1091.22,-161.152 1080.92,-158.656 1087.41,-167.028 1091.22,-161.152"/>
</g>
<!-- Node40 -->
<g id="node7" class="node"><title>Node40</title>
<g id="a_node7"><a xlink:href="classExpoConjugateGTRSBDPProfileProcess.html" target="_top" xlink:title="ExpoConjugateGTRSBDPProfile\lProcess">
<polygon fill="none" stroke="black" points="1342,-298 1342,-328 1502,-328 1502,-298 1342,-298"/>
<text text-anchor="start" x="1350" y="-316" font-family="Helvetica,sans-Serif" font-size="10.00">ExpoConjugateGTRSBDPProfile</text>
<text text-anchor="middle" x="1422" y="-305" font-family="Helvetica,sans-Serif" font-size="10.00">Process</text>
</a>
</g>
</g>
<!-- Node43&#45;&gt;Node40 -->
<g id="edge34" class="edge"><title>Node43&#45;&gt;Node40</title>
<path fill="none" stroke="midnightblue" d="M1281.99,-272.409C1308.15,-280.045 1341.84,-289.884 1369.5,-297.962"/>
<polygon fill="midnightblue" stroke="midnightblue" points="1282.95,-269.041 1272.37,-269.598 1280.99,-275.761 1282.95,-269.041"/>
</g>
<!-- Node39 -->
<g id="node6" class="node"><title>Node39</title>
<g id="a_node6"><a xlink:href="classExpoConjugateGTRMixtureProfileProcess.html" target="_top" xlink:title="ExpoConjugateGTRMixtureProfile\lProcess">
<polygon fill="none" stroke="black" points="603,-295 603,-325 767,-325 767,-295 603,-295"/>
<text text-anchor="start" x="611" y="-313" font-family="Helvetica,sans-Serif" font-size="10.00">ExpoConjugateGTRMixtureProfile</text>
<text text-anchor="middle" x="685" y="-302" font-family="Helvetica,sans-Serif" font-size="10.00">Process</text>
</a>
</g>
</g>
<!-- Node38&#45;&gt;Node39 -->
<g id="edge5" class="edge"><title>Node38&#45;&gt;Node39</title>
<path fill="none" stroke="midnightblue" d="M538.342,-252.929C558.544,-260.089 581.724,-268.702 603,-276 621.515,-282.351 642.654,-288.851 658.694,-294.893"/>
<polygon fill="midnightblue" stroke="midnightblue" points="539.28,-249.549 528.685,-249.543 536.964,-256.155 539.28,-249.549"/>
</g>
<!-- Node38&#45;&gt;Node39 -->
<g id="edge18" class="edge"><title>Node38&#45;&gt;Node39</title>
<path fill="none" stroke="midnightblue" d="M504.075,-254.485C527.62,-266.343 567.901,-281.96 603,-294 603.835,-294.287 604.676,-294.573 605.521,-294.86"/>
<polygon fill="midnightblue" stroke="midnightblue" points="505.539,-251.298 495.072,-249.654 502.229,-257.467 505.539,-251.298"/>
</g>
<!-- Node25 -->
<g id="node18" class="node"><title>Node25</title>
<g id="a_node18"><a xlink:href="classExpoConjugateGTRSubstitutionProcess.html" target="_top" xlink:title="ExpoConjugateGTRSubstitution\lProcess">
<polygon fill="none" stroke="black" points="803,-207 803,-237 959,-237 959,-207 803,-207"/>
<text text-anchor="start" x="811" y="-225" font-family="Helvetica,sans-Serif" font-size="10.00">ExpoConjugateGTRSubstitution</text>
<text text-anchor="middle" x="881" y="-214" font-family="Helvetica,sans-Serif" font-size="10.00">Process</text>
</a>
</g>
</g>
<!-- Node38&#45;&gt;Node25 -->
<g id="edge22" class="edge"><title>Node38&#45;&gt;Node25</title>
<path fill="none" stroke="midnightblue" d="M577.397,-235.755C646.069,-232.633 738.289,-228.441 802.807,-225.509"/>
<polygon fill="midnightblue" stroke="midnightblue" points="576.845,-232.276 567.015,-236.227 577.163,-239.269 576.845,-232.276"/>
</g>
<!-- Node39&#45;&gt;Node40 -->
<g id="edge6" class="edge"><title>Node39&#45;&gt;Node40</title>
<path fill="none" stroke="midnightblue" d="M777.345,-305.734C922.776,-303.429 1204.52,-304.665 1341.87,-308.296"/>
<polygon fill="midnightblue" stroke="midnightblue" points="777.053,-302.238 767.113,-305.906 777.17,-309.237 777.053,-302.238"/>
</g>
<!-- Node39&#45;&gt;Node40 -->
<g id="edge19" class="edge"><title>Node39&#45;&gt;Node40</title>
<path fill="none" stroke="midnightblue" d="M777.345,-315.012C922.776,-318.504 1204.52,-319.568 1341.87,-317.058"/>
<polygon fill="midnightblue" stroke="midnightblue" points="777.197,-311.507 767.113,-314.756 777.022,-318.505 777.197,-311.507"/>
</g>
<!-- Node41 -->
<g id="node8" class="node"><title>Node41</title>
<g id="a_node8"><a xlink:href="classGTRMixtureProfileProcess.html" target="_top" xlink:title="GTRMixtureProfileProcess">
<polygon fill="none" stroke="black" points="814,-256.5 814,-275.5 948,-275.5 948,-256.5 814,-256.5"/>
<text text-anchor="middle" x="881" y="-263.5" font-family="Helvetica,sans-Serif" font-size="10.00">GTRMixtureProfileProcess</text>
</a>
</g>
</g>
<!-- Node39&#45;&gt;Node41 -->
<g id="edge7" class="edge"><title>Node39&#45;&gt;Node41</title>
<path fill="none" stroke="midnightblue" d="M737.337,-292.321C760.722,-286.228 788.695,-279.748 813.651,-274.607"/>
<polygon fill="midnightblue" stroke="midnightblue" points="736.384,-288.953 727.618,-294.904 738.181,-295.718 736.384,-288.953"/>
</g>
<!-- Node28 -->
<g id="node17" class="node"><title>Node28</title>
<g id="a_node17"><a xlink:href="classRASCATGTRSBDPSubstitutionProcess.html" target="_top" xlink:title="RASCATGTRSBDPSubstitution\lProcess">
<polygon fill="none" stroke="black" points="1538,-226 1538,-256 1696,-256 1696,-226 1538,-226"/>
<text text-anchor="start" x="1546" y="-244" font-family="Helvetica,sans-Serif" font-size="10.00">RASCATGTRSBDPSubstitution</text>
<text text-anchor="middle" x="1617" y="-233" font-family="Helvetica,sans-Serif" font-size="10.00">Process</text>
</a>
</g>
</g>
<!-- Node40&#45;&gt;Node28 -->
<g id="edge20" class="edge"><title>Node40&#45;&gt;Node28</title>
<path fill="none" stroke="midnightblue" d="M1473.05,-294.327C1504.96,-282.425 1545.76,-267.205 1575.59,-256.074"/>
<polygon fill="midnightblue" stroke="midnightblue" points="1471.61,-291.132 1463.46,-297.906 1474.05,-297.69 1471.61,-291.132"/>
</g>
<!-- Node41&#45;&gt;Node39 -->
<g id="edge26" class="edge"><title>Node41&#45;&gt;Node39</title>
<path fill="none" stroke="midnightblue" d="M847.667,-278.517C825.652,-284.791 795.474,-292.131 767.149,-298.264"/>
<polygon fill="midnightblue" stroke="midnightblue" points="848.872,-281.811 857.473,-275.625 846.891,-275.097 848.872,-281.811"/>
</g>
<!-- Node42 -->
<g id="node9" class="node"><title>Node42</title>
<g id="a_node9"><a xlink:href="classMatrixMixtureProfileProcess.html" target="_top" xlink:title="MatrixMixtureProfileProcess">
<polygon fill="none" stroke="black" points="995,-250.5 995,-269.5 1135,-269.5 1135,-250.5 995,-250.5"/>
<text text-anchor="middle" x="1065" y="-257.5" font-family="Helvetica,sans-Serif" font-size="10.00">MatrixMixtureProfileProcess</text>
</a>
</g>
</g>
<!-- Node41&#45;&gt;Node42 -->
<g id="edge8" class="edge"><title>Node41&#45;&gt;Node42</title>
<path fill="none" stroke="midnightblue" d="M958.282,-256.814C970.383,-256.284 982.84,-255.905 994.767,-255.707"/>
<polygon fill="midnightblue" stroke="midnightblue" points="958.043,-253.322 948.221,-257.294 958.377,-260.314 958.043,-253.322"/>
</g>
<!-- Node42&#45;&gt;Node43 -->
<g id="edge9" class="edge"><title>Node42&#45;&gt;Node43</title>
<path fill="none" stroke="midnightblue" d="M1145.5,-253.266C1153.95,-253.223 1162.48,-253.267 1170.76,-253.4"/>
<polygon fill="midnightblue" stroke="midnightblue" points="1145.23,-249.768 1135.26,-253.362 1145.29,-256.768 1145.23,-249.768"/>
</g>
<!-- Node42&#45;&gt;Node43 -->
<g id="edge33" class="edge"><title>Node42&#45;&gt;Node43</title>
<path fill="none" stroke="midnightblue" d="M1145.5,-266.734C1153.95,-266.777 1162.48,-266.733 1170.76,-266.6"/>
<polygon fill="midnightblue" stroke="midnightblue" points="1145.29,-263.232 1135.26,-266.638 1145.23,-270.232 1145.29,-263.232"/>
</g>
<!-- Node42&#45;&gt;Node41 -->
<g id="edge32" class="edge"><title>Node42&#45;&gt;Node41</title>
<path fill="none" stroke="midnightblue" d="M984.643,-269.317C972.488,-269.821 960.052,-270.172 948.221,-270.339"/>
<polygon fill="midnightblue" stroke="midnightblue" points="984.936,-272.807 994.767,-268.858 984.618,-265.814 984.936,-272.807"/>
</g>
<!-- Node36 -->
<g id="node14" class="node"><title>Node36</title>
<g id="a_node14"><a xlink:href="classGeneralPathSuffStatMatrixMixtureProfileProcess.html" target="_top" xlink:title="GeneralPathSuffStatMatrix\lMixtureProfileProcess">
<polygon fill="none" stroke="black" points="1171.5,-367 1171.5,-397 1305.5,-397 1305.5,-367 1171.5,-367"/>
<text text-anchor="start" x="1179.5" y="-385" font-family="Helvetica,sans-Serif" font-size="10.00">GeneralPathSuffStatMatrix</text>
<text text-anchor="middle" x="1238.5" y="-374" font-family="Helvetica,sans-Serif" font-size="10.00">MixtureProfileProcess</text>
</a>
</g>
</g>
<!-- Node42&#45;&gt;Node36 -->
<g id="edge31" class="edge"><title>Node42&#45;&gt;Node36</title>
<path fill="none" stroke="midnightblue" d="M1087.99,-275.64C1121.14,-299.227 1183.54,-343.614 1216.26,-366.887"/>
<polygon fill="midnightblue" stroke="midnightblue" points="1089.63,-272.518 1079.46,-269.573 1085.58,-278.222 1089.63,-272.518"/>
</g>
<!-- Node33 -->
<g id="node11" class="node"><title>Node33</title>
<g id="a_node11"><a xlink:href="classProfileProcess.html" target="_top" xlink:title="ProfileProcess">
<polygon fill="none" stroke="black" points="0,-268.5 0,-287.5 80,-287.5 80,-268.5 0,-268.5"/>
<text text-anchor="middle" x="40" y="-275.5" font-family="Helvetica,sans-Serif" font-size="10.00">ProfileProcess</text>
</a>
</g>
</g>
<!-- Node34 -->
<g id="node12" class="node"><title>Node34</title>
<g id="a_node12"><a xlink:href="classMatrixProfileProcess.html" target="_top" xlink:title="MatrixProfileProcess">
<polygon fill="none" stroke="black" points="116,-344.5 116,-363.5 223,-363.5 223,-344.5 116,-344.5"/>
<text text-anchor="middle" x="169.5" y="-351.5" font-family="Helvetica,sans-Serif" font-size="10.00">MatrixProfileProcess</text>
</a>
</g>
</g>
<!-- Node33&#45;&gt;Node34 -->
<g id="edge11" class="edge"><title>Node33&#45;&gt;Node34</title>
<path fill="none" stroke="midnightblue" d="M65.9218,-292.855C91.5529,-308.133 130.71,-331.474 152.483,-344.453"/>
<polygon fill="midnightblue" stroke="midnightblue" points="67.5298,-289.739 57.148,-287.625 63.9457,-295.752 67.5298,-289.739"/>
</g>
<!-- Node44 -->
<g id="node21" class="node"><title>Node44</title>
<g id="a_node21"><a xlink:href="classMixtureProfileProcess.html" target="_top" xlink:title="MixtureProfileProcess">
<polygon fill="none" stroke="black" points="628.5,-28.5 628.5,-47.5 741.5,-47.5 741.5,-28.5 628.5,-28.5"/>
<text text-anchor="middle" x="685" y="-35.5" font-family="Helvetica,sans-Serif" font-size="10.00">MixtureProfileProcess</text>
</a>
</g>
</g>
<!-- Node33&#45;&gt;Node44 -->
<g id="edge39" class="edge"><title>Node33&#45;&gt;Node44</title>
<path fill="none" stroke="midnightblue" d="M43.8017,-258.335C49.987,-222.49 68.2566,-146.576 116,-107 269.529,20.2641 531.554,-9.63694 637.503,-28.4712"/>
<polygon fill="midnightblue" stroke="midnightblue" points="40.3042,-258.044 42.196,-268.469 47.218,-259.14 40.3042,-258.044"/>
</g>
<!-- Node20 -->
<g id="node24" class="node"><title>Node20</title>
<g id="a_node24"><a xlink:href="classSubstitutionProcess.html" target="_top" xlink:title="SubstitutionProcess">
<polygon fill="none" stroke="black" points="259,-268.5 259,-287.5 363,-287.5 363,-268.5 259,-268.5"/>
<text text-anchor="middle" x="311" y="-275.5" font-family="Helvetica,sans-Serif" font-size="10.00">SubstitutionProcess</text>
</a>
</g>
</g>
<!-- Node33&#45;&gt;Node20 -->
<g id="edge44" class="edge"><title>Node33&#45;&gt;Node20</title>
<path fill="none" stroke="midnightblue" d="M90.2308,-278C138.07,-278 210.401,-278 258.874,-278"/>
<polygon fill="midnightblue" stroke="midnightblue" points="90.1149,-274.5 80.1149,-278 90.1149,-281.5 90.1149,-274.5"/>
</g>
<!-- Node34&#45;&gt;Node42 -->
<g id="edge30" class="edge"><title>Node34&#45;&gt;Node42</title>
<path fill="none" stroke="midnightblue" d="M228.61,-365.367C290.985,-376.563 393.106,-392 482,-392 482,-392 482,-392 686,-392 834.407,-392 998.186,-300.19 1048.48,-269.706"/>
<polygon fill="midnightblue" stroke="midnightblue" points="229.037,-361.887 218.572,-363.54 227.783,-368.774 229.037,-361.887"/>
</g>
<!-- Node35 -->
<g id="node13" class="node"><title>Node35</title>
<g id="a_node13"><a xlink:href="classGeneralPathSuffStatMatrixProfileProcess.html" target="_top" xlink:title="GeneralPathSuffStatMatrix\lProfileProcess">
<polygon fill="none" stroke="black" points="416,-421 416,-451 550,-451 550,-421 416,-421"/>
<text text-anchor="start" x="424" y="-439" font-family="Helvetica,sans-Serif" font-size="10.00">GeneralPathSuffStatMatrix</text>
<text text-anchor="middle" x="483" y="-428" font-family="Helvetica,sans-Serif" font-size="10.00">ProfileProcess</text>
</a>
</g>
</g>
<!-- Node34&#45;&gt;Node35 -->
<g id="edge12" class="edge"><title>Node34&#45;&gt;Node35</title>
<path fill="none" stroke="midnightblue" d="M191.39,-369.525C208.622,-381.504 234.184,-397.431 259,-406 309.772,-423.531 370.336,-430.885 415.526,-433.936"/>
<polygon fill="midnightblue" stroke="midnightblue" points="193.362,-366.632 183.187,-363.681 189.3,-372.334 193.362,-366.632"/>
</g>
<!-- Node37 -->
<g id="node16" class="node"><title>Node37</title>
<g id="a_node16"><a xlink:href="classGTRProfileProcess.html" target="_top" xlink:title="GTRProfileProcess">
<polygon fill="none" stroke="black" points="260.5,-306.5 260.5,-325.5 361.5,-325.5 361.5,-306.5 260.5,-306.5"/>
<text text-anchor="middle" x="311" y="-313.5" font-family="Helvetica,sans-Serif" font-size="10.00">GTRProfileProcess</text>
</a>
</g>
</g>
<!-- Node34&#45;&gt;Node37 -->
<g id="edge16" class="edge"><title>Node34&#45;&gt;Node37</title>
<path fill="none" stroke="midnightblue" d="M215.456,-341.754C234.685,-336.516 256.803,-330.491 274.81,-325.586"/>
<polygon fill="midnightblue" stroke="midnightblue" points="214.43,-338.406 205.702,-344.411 216.27,-345.16 214.43,-338.406"/>
</g>
<!-- Node21 -->
<g id="node20" class="node"><title>Node21</title>
<g id="a_node20"><a xlink:href="classMatrixSubstitutionProcess.html" target="_top" xlink:title="MatrixSubstitutionProcess">
<polygon fill="none" stroke="black" points="417.5,-306.5 417.5,-325.5 548.5,-325.5 548.5,-306.5 417.5,-306.5"/>
<text text-anchor="middle" x="483" y="-313.5" font-family="Helvetica,sans-Serif" font-size="10.00">MatrixSubstitutionProcess</text>
</a>
</g>
</g>
<!-- Node34&#45;&gt;Node21 -->
<g id="edge35" class="edge"><title>Node34&#45;&gt;Node21</title>
<path fill="none" stroke="midnightblue" d="M233.603,-348.732C271.235,-345.352 319.922,-340.56 363,-335 383.853,-332.309 406.673,-328.802 426.702,-325.535"/>
<polygon fill="midnightblue" stroke="midnightblue" points="232.947,-345.277 223.296,-349.648 233.566,-352.249 232.947,-345.277"/>
</g>
<!-- Node35&#45;&gt;Node36 -->
<g id="edge13" class="edge"><title>Node35&#45;&gt;Node36</title>
<path fill="none" stroke="midnightblue" d="M556.535,-453.014C571.798,-455.921 587.861,-458.489 603,-460 817.799,-481.445 1072.47,-425.278 1182.43,-397.055"/>
<polygon fill="midnightblue" stroke="midnightblue" points="557.128,-449.563 546.639,-451.061 555.773,-456.431 557.128,-449.563"/>
</g>
<!-- Node22 -->
<g id="node15" class="node"><title>Node22</title>
<g id="a_node15"><a xlink:href="classGeneralPathSuffStatMatrixSubstitutionProcess.html" target="_top" xlink:title="GeneralPathSuffStatMatrix\lSubstitutionProcess">
<polygon fill="none" stroke="black" points="618,-421 618,-451 752,-451 752,-421 618,-421"/>
<text text-anchor="start" x="626" y="-439" font-family="Helvetica,sans-Serif" font-size="10.00">GeneralPathSuffStatMatrix</text>
<text text-anchor="middle" x="685" y="-428" font-family="Helvetica,sans-Serif" font-size="10.00">SubstitutionProcess</text>
</a>
</g>
</g>
<!-- Node35&#45;&gt;Node22 -->
<g id="edge14" class="edge"><title>Node35&#45;&gt;Node22</title>
<path fill="none" stroke="midnightblue" d="M560.126,-436C579.079,-436 599.248,-436 617.686,-436"/>
<polygon fill="midnightblue" stroke="midnightblue" points="560.042,-432.5 550.042,-436 560.042,-439.5 560.042,-432.5"/>
</g>
<!-- Node22&#45;&gt;Node40 -->
<g id="edge15" class="edge"><title>Node22&#45;&gt;Node40</title>
<path fill="none" stroke="midnightblue" d="M762.264,-447.058C882.402,-461.285 1121.07,-476.492 1306,-406 1349.43,-389.446 1388.93,-349.81 1408.35,-328.007"/>
<polygon fill="midnightblue" stroke="midnightblue" points="762.415,-443.551 752.066,-445.819 761.571,-450.499 762.415,-443.551"/>
</g>
<!-- Node37&#45;&gt;Node38 -->
<g id="edge17" class="edge"><title>Node37&#45;&gt;Node38</title>
<path fill="none" stroke="midnightblue" d="M352.811,-302.441C356.342,-300.779 359.789,-298.965 363,-297 381.512,-285.668 380.075,-274.628 399,-264 409.986,-257.83 422.699,-253.125 434.822,-249.588"/>
<polygon fill="midnightblue" stroke="midnightblue" points="351.183,-299.331 343.369,-306.485 353.939,-305.766 351.183,-299.331"/>
</g>
<!-- Node37&#45;&gt;Node41 -->
<g id="edge25" class="edge"><title>Node37&#45;&gt;Node41</title>
<path fill="none" stroke="midnightblue" d="M361.149,-327.668C445.85,-345.65 623.999,-374.094 767,-334 808.226,-322.441 849.519,-291.485 868.783,-275.638"/>
<polygon fill="midnightblue" stroke="midnightblue" points="361.806,-324.229 351.291,-325.532 360.323,-331.07 361.806,-324.229"/>
</g>
<!-- Node24 -->
<g id="node19" class="node"><title>Node24</title>
<g id="a_node19"><a xlink:href="classGTRSubstitutionProcess.html" target="_top" xlink:title="GTRSubstitutionProcess">
<polygon fill="none" stroke="black" points="622.5,-256.5 622.5,-275.5 747.5,-275.5 747.5,-256.5 622.5,-256.5"/>
<text text-anchor="middle" x="685" y="-263.5" font-family="Helvetica,sans-Serif" font-size="10.00">GTRSubstitutionProcess</text>
</a>
</g>
</g>
<!-- Node37&#45;&gt;Node24 -->
<g id="edge27" class="edge"><title>Node37&#45;&gt;Node24</title>
<path fill="none" stroke="midnightblue" d="M361.298,-304.276C373.566,-301.624 386.722,-299.003 399,-297 475.507,-284.521 564.413,-275.752 622.312,-270.798"/>
<polygon fill="midnightblue" stroke="midnightblue" points="360.25,-300.923 351.241,-306.499 361.761,-307.758 360.25,-300.923"/>
</g>
<!-- Node28&#45;&gt;Node43 -->
<g id="edge21" class="edge"><title>Node28&#45;&gt;Node43</title>
<path fill="none" stroke="midnightblue" d="M1527.48,-245.467C1459.82,-248.882 1367.98,-253.516 1306.38,-256.625"/>
<polygon fill="midnightblue" stroke="midnightblue" points="1527.89,-248.951 1537.7,-244.951 1527.54,-241.96 1527.89,-248.951"/>
</g>
<!-- Node25&#45;&gt;Node42 -->
<g id="edge23" class="edge"><title>Node25&#45;&gt;Node42</title>
<path fill="none" stroke="midnightblue" d="M963.963,-239.113C982.698,-243.025 1001.95,-247.044 1018.5,-250.499"/>
<polygon fill="midnightblue" stroke="midnightblue" points="964.435,-235.636 953.931,-237.019 963.005,-242.489 964.435,-235.636"/>
</g>
<!-- Node25&#45;&gt;Node28 -->
<g id="edge24" class="edge"><title>Node25&#45;&gt;Node28</title>
<path fill="none" stroke="midnightblue" d="M969.309,-224.26C1113.68,-227.997 1399.9,-235.406 1537.94,-238.979"/>
<polygon fill="midnightblue" stroke="midnightblue" points="969.251,-220.757 959.164,-223.997 969.07,-227.755 969.251,-220.757"/>
</g>
<!-- Node24&#45;&gt;Node41 -->
<g id="edge29" class="edge"><title>Node24&#45;&gt;Node41</title>
<path fill="none" stroke="midnightblue" d="M757.701,-266C776.069,-266 795.738,-266 813.814,-266"/>
<polygon fill="midnightblue" stroke="midnightblue" points="757.649,-262.5 747.649,-266 757.649,-269.5 757.649,-262.5"/>
</g>
<!-- Node24&#45;&gt;Node25 -->
<g id="edge28" class="edge"><title>Node24&#45;&gt;Node25</title>
<path fill="none" stroke="midnightblue" d="M738.085,-254.187C761.294,-248.923 788.904,-242.661 813.575,-237.065"/>
<polygon fill="midnightblue" stroke="midnightblue" points="737.073,-250.827 728.095,-256.453 738.622,-257.654 737.073,-250.827"/>
</g>
<!-- Node21&#45;&gt;Node39 -->
<g id="edge38" class="edge"><title>Node21&#45;&gt;Node39</title>
<path fill="none" stroke="midnightblue" d="M558.921,-313.752C573.219,-313.323 588.247,-312.873 602.732,-312.438"/>
<polygon fill="midnightblue" stroke="midnightblue" points="558.549,-310.262 548.658,-314.06 558.759,-317.259 558.549,-310.262"/>
</g>
<!-- Node21&#45;&gt;Node22 -->
<g id="edge36" class="edge"><title>Node21&#45;&gt;Node22</title>
<path fill="none" stroke="midnightblue" d="M509.008,-331.005C547.435,-354.061 620.577,-397.946 658.999,-421"/>
<polygon fill="midnightblue" stroke="midnightblue" points="510.404,-327.761 500.029,-325.617 506.803,-333.763 510.404,-327.761"/>
</g>
<!-- Node21&#45;&gt;Node24 -->
<g id="edge37" class="edge"><title>Node21&#45;&gt;Node24</title>
<path fill="none" stroke="midnightblue" d="M529.421,-303.89C551.581,-298.052 578.649,-291.027 603,-285 615.759,-281.842 629.682,-278.529 642.33,-275.569"/>
<polygon fill="midnightblue" stroke="midnightblue" points="528.386,-300.543 519.612,-306.48 530.174,-307.311 528.386,-300.543"/>
</g>
<!-- Node44&#45;&gt;Node42 -->
<g id="edge43" class="edge"><title>Node44&#45;&gt;Node42</title>
<path fill="none" stroke="midnightblue" d="M742.579,-49.8096C800.704,-63.8895 891.919,-91.5505 959,-138 1005.41,-170.135 1043.95,-227.517 1058.15,-250.295"/>
<polygon fill="midnightblue" stroke="midnightblue" points="743.372,-46.4007 732.835,-47.5013 741.759,-53.2122 743.372,-46.4007"/>
</g>
<!-- Node45 -->
<g id="node22" class="node"><title>Node45</title>
<g id="a_node22"><a xlink:href="classDPProfileProcess.html" target="_top" xlink:title="DPProfileProcess">
<polygon fill="none" stroke="black" points="833.5,-28.5 833.5,-47.5 928.5,-47.5 928.5,-28.5 833.5,-28.5"/>
<text text-anchor="middle" x="881" y="-35.5" font-family="Helvetica,sans-Serif" font-size="10.00">DPProfileProcess</text>
</a>
</g>
</g>
<!-- Node44&#45;&gt;Node45 -->
<g id="edge40" class="edge"><title>Node44&#45;&gt;Node45</title>
<path fill="none" stroke="midnightblue" d="M751.662,-38C778.443,-38 808.795,-38 833.255,-38"/>
<polygon fill="midnightblue" stroke="midnightblue" points="751.593,-34.5001 741.593,-38 751.593,-41.5001 751.593,-34.5001"/>
</g>
<!-- Node46 -->
<g id="node23" class="node"><title>Node46</title>
<g id="a_node23"><a xlink:href="classSBDPProfileProcess.html" target="_top" xlink:title="SBDPProfileProcess">
<polygon fill="none" stroke="black" points="1011,-82.5 1011,-101.5 1119,-101.5 1119,-82.5 1011,-82.5"/>
<text text-anchor="middle" x="1065" y="-89.5" font-family="Helvetica,sans-Serif" font-size="10.00">SBDPProfileProcess</text>
</a>
</g>
</g>
<!-- Node45&#45;&gt;Node46 -->
<g id="edge41" class="edge"><title>Node45&#45;&gt;Node46</title>
<path fill="none" stroke="midnightblue" d="M923.899,-50.4315C956.771,-60.1848 1001.85,-73.5585 1031.9,-82.4748"/>
<polygon fill="midnightblue" stroke="midnightblue" points="924.702,-47.0189 914.119,-47.5298 922.71,-53.7298 924.702,-47.0189"/>
</g>
<!-- Node46&#45;&gt;Node43 -->
<g id="edge42" class="edge"><title>Node46&#45;&gt;Node43</title>
<path fill="none" stroke="midnightblue" d="M1097.65,-106.055C1110.01,-112.379 1123.86,-120.556 1135,-130 1179.5,-167.732 1217.88,-227.367 1231.86,-250.443"/>
<polygon fill="midnightblue" stroke="midnightblue" points="1099.07,-102.856 1088.55,-101.59 1095.99,-109.139 1099.07,-102.856"/>
</g>
<!-- Node20&#45;&gt;Node38 -->
<g id="edge46" class="edge"><title>Node20&#45;&gt;Node38</title>
<path fill="none" stroke="midnightblue" d="M364.898,-266.176C388.865,-260.818 416.824,-254.569 439.41,-249.52"/>
<polygon fill="midnightblue" stroke="midnightblue" points="363.894,-262.814 354.898,-268.411 365.421,-269.645 363.894,-262.814"/>
</g>
<!-- Node20&#45;&gt;Node21 -->
<g id="edge45" class="edge"><title>Node20&#45;&gt;Node21</title>
<path fill="none" stroke="midnightblue" d="M364.898,-289.824C388.865,-295.182 416.824,-301.431 439.41,-306.48"/>
<polygon fill="midnightblue" stroke="midnightblue" points="365.421,-286.355 354.898,-287.589 363.894,-293.186 365.421,-286.355"/>
</g>
<!-- Node0 -->
<g id="node25" class="node"><title>Node0</title>
<g id="a_node25"><a xlink:href="classRateProcess.html" target="_top" xlink:title="RateProcess">
<polygon fill="none" stroke="black" points="132.5,-116.5 132.5,-135.5 206.5,-135.5 206.5,-116.5 132.5,-116.5"/>
<text text-anchor="middle" x="169.5" y="-123.5" font-family="Helvetica,sans-Serif" font-size="10.00">RateProcess</text>
</a>
</g>
</g>
<!-- Node0&#45;&gt;Node42 -->
<g id="edge49" class="edge"><title>Node0&#45;&gt;Node42</title>
<path fill="none" stroke="midnightblue" d="M217.201,-125.79C256.195,-125.782 313.238,-126.157 363,-128 629.475,-137.868 707.71,-107.782 959,-197 995.461,-209.945 1033.15,-236.326 1051.89,-250.496"/>
<polygon fill="midnightblue" stroke="midnightblue" points="216.698,-122.291 206.702,-125.802 216.706,-129.291 216.698,-122.291"/>
</g>
<!-- Node0&#45;&gt;Node25 -->
<g id="edge50" class="edge"><title>Node0&#45;&gt;Node25</title>
<path fill="none" stroke="midnightblue" d="M216.789,-128.264C255.846,-130.438 313.193,-134.249 363,-140 519.86,-158.111 701.95,-189.411 802.765,-207.654"/>
<polygon fill="midnightblue" stroke="midnightblue" points="216.95,-124.768 206.774,-127.72 216.57,-131.757 216.95,-124.768"/>
</g>
<!-- Node0&#45;&gt;Node24 -->
<g id="edge51" class="edge"><title>Node0&#45;&gt;Node24</title>
<path fill="none" stroke="midnightblue" d="M216.741,-135.01C291.272,-149.992 442.233,-182.245 567,-221 600.669,-231.458 638.579,-246.701 661.879,-256.484"/>
<polygon fill="midnightblue" stroke="midnightblue" points="217.235,-131.539 206.743,-133.011 215.863,-138.403 217.235,-131.539"/>
</g>
<!-- Node0&#45;&gt;Node20 -->
<g id="edge52" class="edge"><title>Node0&#45;&gt;Node20</title>
<path fill="none" stroke="midnightblue" d="M183.431,-144.265C194.19,-159.571 209.822,-182.056 223,-202 239.518,-226.998 235.74,-240.112 259,-259 263.694,-262.812 269.229,-265.906 274.89,-268.402"/>
<polygon fill="midnightblue" stroke="midnightblue" points="186.05,-141.906 177.426,-135.75 180.329,-145.94 186.05,-141.906"/>
</g>
<!-- Node1 -->
<g id="node26" class="node"><title>Node1</title>
<g id="a_node26"><a xlink:href="classDGamRateProcess.html" target="_top" xlink:title="DGamRateProcess">
<polygon fill="none" stroke="black" points="1371,-82.5 1371,-101.5 1473,-101.5 1473,-82.5 1371,-82.5"/>
<text text-anchor="middle" x="1422" y="-89.5" font-family="Helvetica,sans-Serif" font-size="10.00">DGamRateProcess</text>
</a>
</g>
</g>
<!-- Node0&#45;&gt;Node1 -->
<g id="edge47" class="edge"><title>Node0&#45;&gt;Node1</title>
<path fill="none" stroke="midnightblue" d="M198.249,-111.607C263.001,-78.5464 423.044,-0 482,-0 482,-0 482,-0 1066,-0 1196.2,-0 1344.92,-58.7076 1399.49,-82.3283"/>
<polygon fill="midnightblue" stroke="midnightblue" points="196.357,-108.644 189.057,-116.322 199.552,-114.872 196.357,-108.644"/>
</g>
<!-- Node1&#45;&gt;Node28 -->
<g id="edge48" class="edge"><title>Node1&#45;&gt;Node28</title>
<path fill="none" stroke="midnightblue" d="M1443.53,-107.852C1480.99,-136.771 1559.93,-197.711 1596.56,-225.993"/>
<polygon fill="midnightblue" stroke="midnightblue" points="1445.42,-104.888 1435.37,-101.547 1441.14,-110.429 1445.42,-104.888"/>
</g>
</g>
</svg>
