<?xml version="1.0" encoding="UTF-8" standalone="no"?>
<!DOCTYPE svg PUBLIC "-//W3C//DTD SVG 1.1//EN"
 "http://www.w3.org/Graphics/SVG/1.1/DTD/svg11.dtd">
<!-- Generated by graphviz version 2.38.0 (20140413.2041)
 -->
<!-- Title: Graphical Class Hierarchy Pages: 1 -->
<svg width="332pt" height="66pt"
 viewBox="0.00 0.00 332.00 66.00" xmlns="http://www.w3.org/2000/svg" xmlns:xlink="http://www.w3.org/1999/xlink">
<g id="graph0" class="graph" transform="scale(1 1) rotate(0) translate(4 62)">
<title>Graphical Class Hierarchy</title>
<!-- Node146 -->
<g id="node1" class="node"><title>Node146</title>
<g id="a_node1"><a xlink:href="classConjugateSampling.html" target="_top" xlink:title="ConjugateSampling">
<polygon fill="none" stroke="black" points="10.5,-38.5 10.5,-57.5 111.5,-57.5 111.5,-38.5 10.5,-38.5"/>
<text text-anchor="middle" x="61" y="-45.5" font-family="Helvetica,sans-Serif" font-size="10.00">ConjugateSampling</text>
</a>
</g>
</g>
<!-- Node1 -->
<g id="node2" class="node"><title>Node1</title>
<g id="a_node2"><a xlink:href="classConjugateRandomBranchSitePath.html" target="_top" xlink:title="ConjugateRandomBranchSitePath">
<polygon fill="none" stroke="black" points="158,-19.5 158,-38.5 324,-38.5 324,-19.5 158,-19.5"/>
<text text-anchor="middle" x="241" y="-26.5" font-family="Helvetica,sans-Serif" font-size="10.00">ConjugateRandomBranchSitePath</text>
</a>
</g>
</g>
<!-- Node146&#45;&gt;Node1 -->
<g id="edge1" class="edge"><title>Node146&#45;&gt;Node1</title>
<path fill="none" stroke="midnightblue" d="M121.614,-41.6367C133.277,-40.3918 145.699,-39.0659 157.944,-37.7588"/>
<polygon fill="midnightblue" stroke="midnightblue" points="121.155,-38.1657 111.583,-42.7074 121.898,-45.1262 121.155,-38.1657"/>
</g>
<!-- Node0 -->
<g id="node3" class="node"><title>Node0</title>
<g id="a_node3"><a xlink:href="classRandomBranchSitePath.html" target="_top" xlink:title="RandomBranchSitePath">
<polygon fill="none" stroke="black" points="0,-0.5 0,-19.5 122,-19.5 122,-0.5 0,-0.5"/>
<text text-anchor="middle" x="61" y="-7.5" font-family="Helvetica,sans-Serif" font-size="10.00">RandomBranchSitePath</text>
</a>
</g>
</g>
<!-- Node0&#45;&gt;Node1 -->
<g id="edge2" class="edge"><title>Node0&#45;&gt;Node1</title>
<path fill="none" stroke="midnightblue" d="M132.302,-17.5041C140.642,-18.3944 149.212,-19.3092 157.7,-20.2152"/>
<polygon fill="midnightblue" stroke="midnightblue" points="132.578,-14.0138 122.263,-16.4325 131.835,-20.9742 132.578,-14.0138"/>
</g>
</g>
</svg>
