<?xml version="1.0" encoding="UTF-8" standalone="no"?>
<!DOCTYPE svg PUBLIC "-//W3C//DTD SVG 1.1//EN"
 "http://www.w3.org/Graphics/SVG/1.1/DTD/svg11.dtd">
<!-- Generated by graphviz version 2.38.0 (20140413.2041)
 -->
<!-- Title: Graphical Class Hierarchy Pages: 1 -->
<svg width="344pt" height="104pt"
 viewBox="0.00 0.00 344.00 104.00" xmlns="http://www.w3.org/2000/svg" xmlns:xlink="http://www.w3.org/1999/xlink">
<g id="graph0" class="graph" transform="scale(1 1) rotate(0) translate(4 100)">
<title>Graphical Class Hierarchy</title>
<!-- Node0 -->
<g id="node1" class="node"><title>Node0</title>
<g id="a_node1"><a xlink:href="classStateSpace.html" target="_top" xlink:title="StateSpace">
<polygon fill="none" stroke="black" points="0,-57.5 0,-76.5 68,-76.5 68,-57.5 0,-57.5"/>
<text text-anchor="middle" x="34" y="-64.5" font-family="Helvetica,sans-Serif" font-size="10.00">StateSpace</text>
</a>
</g>
</g>
<!-- Node1 -->
<g id="node2" class="node"><title>Node1</title>
<g id="a_node2"><a xlink:href="classCodonStateSpace.html" target="_top" xlink:title="CodonStateSpace">
<polygon fill="none" stroke="black" points="105,-76.5 105,-95.5 201,-95.5 201,-76.5 105,-76.5"/>
<text text-anchor="middle" x="153" y="-83.5" font-family="Helvetica,sans-Serif" font-size="10.00">CodonStateSpace</text>
</a>
</g>
</g>
<!-- Node0&#45;&gt;Node1 -->
<g id="edge1" class="edge"><title>Node0&#45;&gt;Node1</title>
<path fill="none" stroke="midnightblue" d="M78.1141,-74.0014C86.7794,-75.4086 95.9296,-76.8946 104.728,-78.3233"/>
<polygon fill="midnightblue" stroke="midnightblue" points="78.6463,-70.5421 68.2145,-72.3938 77.5242,-77.4516 78.6463,-70.5421"/>
</g>
<!-- Node2 -->
<g id="node3" class="node"><title>Node2</title>
<g id="a_node3"><a xlink:href="classSimpleStateSpace.html" target="_top" xlink:title="SimpleStateSpace">
<polygon fill="none" stroke="black" points="104,-38.5 104,-57.5 202,-57.5 202,-38.5 104,-38.5"/>
<text text-anchor="middle" x="153" y="-45.5" font-family="Helvetica,sans-Serif" font-size="10.00">SimpleStateSpace</text>
</a>
</g>
</g>
<!-- Node0&#45;&gt;Node2 -->
<g id="edge2" class="edge"><title>Node0&#45;&gt;Node2</title>
<path fill="none" stroke="midnightblue" d="M78.1477,-59.9931C86.516,-58.6342 95.3354,-57.2019 103.852,-55.8189"/>
<polygon fill="midnightblue" stroke="midnightblue" points="77.5242,-56.5484 68.2145,-61.6062 78.6463,-63.4579 77.5242,-56.5484"/>
</g>
<!-- Node3 -->
<g id="node4" class="node"><title>Node3</title>
<g id="a_node4"><a xlink:href="classDNAStateSpace.html" target="_top" xlink:title="DNAStateSpace">
<polygon fill="none" stroke="black" points="242.5,-76.5 242.5,-95.5 331.5,-95.5 331.5,-76.5 242.5,-76.5"/>
<text text-anchor="middle" x="287" y="-83.5" font-family="Helvetica,sans-Serif" font-size="10.00">DNAStateSpace</text>
</a>
</g>
</g>
<!-- Node2&#45;&gt;Node3 -->
<g id="edge3" class="edge"><title>Node2&#45;&gt;Node3</title>
<path fill="none" stroke="midnightblue" d="M197.041,-60.3906C215.118,-65.5945 235.819,-71.5541 252.701,-76.4141"/>
<polygon fill="midnightblue" stroke="midnightblue" points="197.887,-56.9921 187.309,-57.589 195.951,-63.7189 197.887,-56.9921"/>
</g>
<!-- Node4 -->
<g id="node5" class="node"><title>Node4</title>
<g id="a_node5"><a xlink:href="classProteinStateSpace.html" target="_top" xlink:title="ProteinStateSpace">
<polygon fill="none" stroke="black" points="238,-38.5 238,-57.5 336,-57.5 336,-38.5 238,-38.5"/>
<text text-anchor="middle" x="287" y="-45.5" font-family="Helvetica,sans-Serif" font-size="10.00">ProteinStateSpace</text>
</a>
</g>
</g>
<!-- Node2&#45;&gt;Node4 -->
<g id="edge4" class="edge"><title>Node2&#45;&gt;Node4</title>
<path fill="none" stroke="midnightblue" d="M212.292,-48C220.809,-48 229.5,-48 237.786,-48"/>
<polygon fill="midnightblue" stroke="midnightblue" points="212.028,-44.5001 202.028,-48 212.028,-51.5001 212.028,-44.5001"/>
</g>
<!-- Node5 -->
<g id="node6" class="node"><title>Node5</title>
<g id="a_node6"><a xlink:href="classRNAStateSpace.html" target="_top" xlink:title="RNAStateSpace">
<polygon fill="none" stroke="black" points="242.5,-0.5 242.5,-19.5 331.5,-19.5 331.5,-0.5 242.5,-0.5"/>
<text text-anchor="middle" x="287" y="-7.5" font-family="Helvetica,sans-Serif" font-size="10.00">RNAStateSpace</text>
</a>
</g>
</g>
<!-- Node2&#45;&gt;Node5 -->
<g id="edge5" class="edge"><title>Node2&#45;&gt;Node5</title>
<path fill="none" stroke="midnightblue" d="M197.041,-35.6094C215.118,-30.4055 235.819,-24.4459 252.701,-19.5859"/>
<polygon fill="midnightblue" stroke="midnightblue" points="195.951,-32.2811 187.309,-38.411 197.887,-39.0079 195.951,-32.2811"/>
</g>
</g>
</svg>
