<?xml version="1.0" encoding="UTF-8" standalone="no"?>
<!DOCTYPE svg PUBLIC "-//W3C//DTD SVG 1.1//EN"
 "http://www.w3.org/Graphics/SVG/1.1/DTD/svg11.dtd">
<!-- Generated by graphviz version 2.40.1 (20161225.0304)
 -->
<!-- Title: Graphical Class Hierarchy Pages: 1 -->
<svg width="2687pt" height="590pt"
 viewBox="0.00 0.00 2687.00 590.00" xmlns="http://www.w3.org/2000/svg" xmlns:xlink="http://www.w3.org/1999/xlink">
<g id="graph0" class="graph" transform="scale(1 1) rotate(0) translate(4 586)">
<title>Graphical Class Hierarchy</title>
<!-- Node58 -->
<g id="node1" class="node">
<title>Node58</title>
<g id="a_node1"><a xlink:href="classRASCATGTRDPGammaPhyloProcess.html" target="_top" xlink:title="RASCATGTRDPGammaPhyloProcess">
<polygon fill="none" stroke="#000000" points="1598,-382.5 1598,-401.5 1786,-401.5 1786,-382.5 1598,-382.5"/>
<text text-anchor="middle" x="1692" y="-389.5" font-family="Helvetica,sans-Serif" font-size="10.00" fill="#000000">RASCATGTRDPGammaPhyloProcess</text>
</a>
</g>
</g>
<!-- Node59 -->
<g id="node2" class="node">
<title>Node59</title>
<g id="a_node2"><a xlink:href="classRASCATGTRSBDPGammaPhyloProcess.html" target="_top" xlink:title="RASCATGTRSBDPGammaPhyloProcess">
<polygon fill="none" stroke="#000000" points="1822,-420.5 1822,-439.5 2024,-439.5 2024,-420.5 1822,-420.5"/>
<text text-anchor="middle" x="1923" y="-427.5" font-family="Helvetica,sans-Serif" font-size="10.00" fill="#000000">RASCATGTRSBDPGammaPhyloProcess</text>
</a>
</g>
</g>
<!-- Node58&#45;&gt;Node59 -->
<g id="edge1" class="edge">
<title>Node58&#45;&gt;Node59</title>
<path fill="none" stroke="#191970" d="M1760.1143,-403.205C1793.437,-408.6866 1833.1257,-415.2155 1864.9833,-420.4561"/>
<polygon fill="#191970" stroke="#191970" points="1760.4284,-399.7097 1749.9929,-401.54 1759.2921,-406.6168 1760.4284,-399.7097"/>
</g>
<!-- Node61 -->
<g id="node9" class="node">
<title>Node61</title>
<g id="a_node9"><a xlink:href="classTree.html" target="_top" xlink:title="Tree">
<polygon fill="none" stroke="#000000" points="1905,-382.5 1905,-401.5 1941,-401.5 1941,-382.5 1905,-382.5"/>
<text text-anchor="middle" x="1923" y="-389.5" font-family="Helvetica,sans-Serif" font-size="10.00" fill="#000000">Tree</text>
</a>
</g>
</g>
<!-- Node58&#45;&gt;Node61 -->
<g id="edge12" class="edge">
<title>Node58&#45;&gt;Node61</title>
<path fill="none" stroke="#191970" d="M1796.4443,-392C1837.7012,-392 1880.8571,-392 1904.5952,-392"/>
<polygon fill="#191970" stroke="#191970" points="1796.2898,-388.5001 1786.2897,-392 1796.2897,-395.5001 1796.2898,-388.5001"/>
</g>
<!-- Node60 -->
<g id="node3" class="node">
<title>Node60</title>
<g id="a_node3"><a xlink:href="classUniformRateProcess.html" target="_top" xlink:title="UniformRateProcess">
<polygon fill="none" stroke="#000000" points="2060,-458.5 2060,-477.5 2168,-477.5 2168,-458.5 2060,-458.5"/>
<text text-anchor="middle" x="2114" y="-465.5" font-family="Helvetica,sans-Serif" font-size="10.00" fill="#000000">UniformRateProcess</text>
</a>
</g>
</g>
<!-- Node59&#45;&gt;Node60 -->
<g id="edge2" class="edge">
<title>Node59&#45;&gt;Node60</title>
<path fill="none" stroke="#191970" d="M2014.723,-441.5032C2042.4202,-446.9448 2070.5417,-453.2288 2089.7492,-458.4975"/>
<polygon fill="#191970" stroke="#191970" points="2015.0374,-437.9994 2004.5552,-439.54 2013.7103,-444.8724 2015.0374,-437.9994"/>
</g>
<!-- Node53 -->
<g id="node4" class="node">
<title>Node53</title>
<g id="a_node4"><a xlink:href="classPhyloProcess.html" target="_top" xlink:title="PhyloProcess">
<polygon fill="none" stroke="#000000" points="2075.5,-104.5 2075.5,-123.5 2152.5,-123.5 2152.5,-104.5 2075.5,-104.5"/>
<text text-anchor="middle" x="2114" y="-111.5" font-family="Helvetica,sans-Serif" font-size="10.00" fill="#000000">PhyloProcess</text>
</a>
</g>
</g>
<!-- Node59&#45;&gt;Node53 -->
<g id="edge5" class="edge">
<title>Node59&#45;&gt;Node53</title>
<path fill="none" stroke="#191970" d="M2019.1736,-414.9006C2020.8442,-413.6837 2022.4561,-412.3851 2024,-411 2069.3168,-370.3428 2104.7633,-170.0017 2112.4488,-123.6051"/>
<polygon fill="#191970" stroke="#191970" points="2017.0481,-412.0993 2010.3747,-420.3282 2020.7232,-418.0569 2017.0481,-412.0993"/>
</g>
<!-- Node60&#45;&gt;Node58 -->
<g id="edge3" class="edge">
<title>Node60&#45;&gt;Node58</title>
<path fill="none" stroke="#191970" d="M2049.8166,-470.1643C1990.0015,-470.6994 1898.7512,-467.7089 1822,-449 1779.1428,-438.5531 1732.6608,-414.8479 1708.5763,-401.5328"/>
<polygon fill="#191970" stroke="#191970" points="2049.9179,-473.6634 2059.8732,-470.0383 2049.8302,-466.6639 2049.9179,-473.6634"/>
</g>
<!-- Node60&#45;&gt;Node59 -->
<g id="edge4" class="edge">
<title>Node60&#45;&gt;Node59</title>
<path fill="none" stroke="#191970" d="M2049.6575,-461.6189C2014.6017,-455.4124 1973.2554,-446.6139 1947.5789,-439.5924"/>
<polygon fill="#191970" stroke="#191970" points="2049.3839,-465.1234 2059.8338,-463.3768 2050.5756,-458.2255 2049.3839,-465.1234"/>
</g>
<!-- Node54 -->
<g id="node5" class="node">
<title>Node54</title>
<g id="a_node5"><a xlink:href="classMatrixPhyloProcess.html" target="_top" xlink:title="MatrixPhyloProcess">
<polygon fill="none" stroke="#000000" points="2204,-85.5 2204,-104.5 2308,-104.5 2308,-85.5 2204,-85.5"/>
<text text-anchor="middle" x="2256" y="-92.5" font-family="Helvetica,sans-Serif" font-size="10.00" fill="#000000">MatrixPhyloProcess</text>
</a>
</g>
</g>
<!-- Node53&#45;&gt;Node54 -->
<g id="edge6" class="edge">
<title>Node53&#45;&gt;Node54</title>
<path fill="none" stroke="#191970" d="M2163.0983,-107.4305C2176.2849,-105.6661 2190.5889,-103.7522 2203.9308,-101.967"/>
<polygon fill="#191970" stroke="#191970" points="2162.2496,-104.0128 2152.8021,-108.8082 2163.178,-110.951 2162.2496,-104.0128"/>
</g>
<!-- Node55 -->
<g id="node6" class="node">
<title>Node55</title>
<g id="a_node6"><a xlink:href="classGeneralPathSuffStatMatrixPhyloProcess.html" target="_top" xlink:title="GeneralPathSuffStatMatrix\lPhyloProcess">
<polygon fill="none" stroke="#000000" points="2344,-61 2344,-91 2478,-91 2478,-61 2344,-61"/>
<text text-anchor="start" x="2352" y="-79" font-family="Helvetica,sans-Serif" font-size="10.00" fill="#000000">GeneralPathSuffStatMatrix</text>
<text text-anchor="middle" x="2411" y="-68" font-family="Helvetica,sans-Serif" font-size="10.00" fill="#000000">PhyloProcess</text>
</a>
</g>
</g>
<!-- Node54&#45;&gt;Node55 -->
<g id="edge7" class="edge">
<title>Node54&#45;&gt;Node55</title>
<path fill="none" stroke="#191970" d="M2318.2179,-87.3733C2326.6853,-86.3354 2335.4061,-85.2664 2343.9541,-84.2185"/>
<polygon fill="#191970" stroke="#191970" points="2317.5438,-83.9296 2308.0439,-88.6204 2318.3955,-90.8776 2317.5438,-83.9296"/>
</g>
<!-- Node56 -->
<g id="node7" class="node">
<title>Node56</title>
<g id="a_node7"><a xlink:href="classGTRPhyloProcess.html" target="_top" xlink:title="GTRPhyloProcess">
<polygon fill="none" stroke="#000000" points="2362,-142.5 2362,-161.5 2460,-161.5 2460,-142.5 2362,-142.5"/>
<text text-anchor="middle" x="2411" y="-149.5" font-family="Helvetica,sans-Serif" font-size="10.00" fill="#000000">GTRPhyloProcess</text>
</a>
</g>
</g>
<!-- Node54&#45;&gt;Node56 -->
<g id="edge8" class="edge">
<title>Node54&#45;&gt;Node56</title>
<path fill="none" stroke="#191970" d="M2291.5289,-108.0655C2320.0198,-118.5428 2359.3472,-133.0051 2384.9718,-142.4284"/>
<polygon fill="#191970" stroke="#191970" points="2292.537,-104.7071 2281.9435,-104.5405 2290.121,-111.2769 2292.537,-104.7071"/>
</g>
<!-- Node57 -->
<g id="node8" class="node">
<title>Node57</title>
<g id="a_node8"><a xlink:href="classExpoConjugateGTRPhyloProcess.html" target="_top" xlink:title="ExpoConjugateGTRPhyloProcess">
<polygon fill="none" stroke="#000000" points="2514,-420.5 2514,-439.5 2679,-439.5 2679,-420.5 2514,-420.5"/>
<text text-anchor="middle" x="2596.5" y="-427.5" font-family="Helvetica,sans-Serif" font-size="10.00" fill="#000000">ExpoConjugateGTRPhyloProcess</text>
</a>
</g>
</g>
<!-- Node56&#45;&gt;Node57 -->
<g id="edge9" class="edge">
<title>Node56&#45;&gt;Node57</title>
<path fill="none" stroke="#191970" d="M2423.0425,-170.0475C2458.7564,-223.5702 2563.2687,-380.1979 2590.1415,-420.4709"/>
<polygon fill="#191970" stroke="#191970" points="2425.8472,-167.9449 2417.3853,-161.5694 2420.0245,-171.8303 2425.8472,-167.9449"/>
</g>
<!-- Node57&#45;&gt;Node58 -->
<g id="edge10" class="edge">
<title>Node57&#45;&gt;Node58</title>
<path fill="none" stroke="#191970" d="M2561.7845,-416.9372C2500.8285,-395.2082 2370.1765,-354 2256,-354 2114,-354 2114,-354 2114,-354 1983.9478,-354 1951.3353,-359.3629 1822,-373 1798.4092,-375.4874 1772.5308,-379.0895 1750.117,-382.4902"/>
<polygon fill="#191970" stroke="#191970" points="2560.7076,-420.2694 2571.302,-420.3745 2563.0855,-413.6857 2560.7076,-420.2694"/>
</g>
<!-- Node57&#45;&gt;Node59 -->
<g id="edge11" class="edge">
<title>Node57&#45;&gt;Node59</title>
<path fill="none" stroke="#191970" d="M2503.5642,-430C2377.7643,-430 2154.1179,-430 2024.1941,-430"/>
<polygon fill="#191970" stroke="#191970" points="2503.9376,-433.5001 2513.9376,-430 2503.9375,-426.5001 2503.9376,-433.5001"/>
</g>
<!-- Node36 -->
<g id="node10" class="node">
<title>Node36</title>
<g id="a_node10"><a xlink:href="classProfileProcess.html" target="_top" xlink:title="ProfileProcess">
<polygon fill="none" stroke="#000000" points="0,-180.5 0,-199.5 80,-199.5 80,-180.5 0,-180.5"/>
<text text-anchor="middle" x="40" y="-187.5" font-family="Helvetica,sans-Serif" font-size="10.00" fill="#000000">ProfileProcess</text>
</a>
</g>
</g>
<!-- Node37 -->
<g id="node11" class="node">
<title>Node37</title>
<g id="a_node11"><a xlink:href="classMatrixProfileProcess.html" target="_top" xlink:title="MatrixProfileProcess">
<polygon fill="none" stroke="#000000" points="116,-180.5 116,-199.5 223,-199.5 223,-180.5 116,-180.5"/>
<text text-anchor="middle" x="169.5" y="-187.5" font-family="Helvetica,sans-Serif" font-size="10.00" fill="#000000">MatrixProfileProcess</text>
</a>
</g>
</g>
<!-- Node36&#45;&gt;Node37 -->
<g id="edge13" class="edge">
<title>Node36&#45;&gt;Node37</title>
<path fill="none" stroke="#191970" d="M90.3026,-190C98.7042,-190 107.4478,-190 115.9277,-190"/>
<polygon fill="#191970" stroke="#191970" points="90.2648,-186.5001 80.2647,-190 90.2647,-193.5001 90.2648,-186.5001"/>
</g>
<!-- Node49 -->
<g id="node27" class="node">
<title>Node49</title>
<g id="a_node27"><a xlink:href="classMixtureProfileProcess.html" target="_top" xlink:title="MixtureProfileProcess">
<polygon fill="none" stroke="#000000" points="439.5,-218.5 439.5,-237.5 552.5,-237.5 552.5,-218.5 439.5,-218.5"/>
<text text-anchor="middle" x="496" y="-225.5" font-family="Helvetica,sans-Serif" font-size="10.00" fill="#000000">MixtureProfileProcess</text>
</a>
</g>
</g>
<!-- Node36&#45;&gt;Node49 -->
<g id="edge47" class="edge">
<title>Node36&#45;&gt;Node49</title>
<path fill="none" stroke="#191970" d="M82.0401,-202.0618C93.0093,-204.7804 104.8761,-207.3476 116,-209 229.8509,-225.9122 364.7687,-228.6041 439.327,-228.5987"/>
<polygon fill="#191970" stroke="#191970" points="82.8226,-198.6491 72.2656,-199.5444 81.0766,-205.4279 82.8226,-198.6491"/>
</g>
<!-- Node30 -->
<g id="node30" class="node">
<title>Node30</title>
<g id="a_node30"><a xlink:href="classSubstitutionProcess.html" target="_top" xlink:title="SubstitutionProcess">
<polygon fill="none" stroke="#000000" points="117.5,-142.5 117.5,-161.5 221.5,-161.5 221.5,-142.5 117.5,-142.5"/>
<text text-anchor="middle" x="169.5" y="-149.5" font-family="Helvetica,sans-Serif" font-size="10.00" fill="#000000">SubstitutionProcess</text>
</a>
</g>
</g>
<!-- Node36&#45;&gt;Node30 -->
<g id="edge53" class="edge">
<title>Node36&#45;&gt;Node30</title>
<path fill="none" stroke="#191970" d="M82.719,-177.4647C100.336,-172.2952 120.4232,-166.4009 136.8321,-161.5859"/>
<polygon fill="#191970" stroke="#191970" points="81.2882,-174.2369 72.6783,-180.411 83.2592,-180.9537 81.2882,-174.2369"/>
</g>
<!-- Node38 -->
<g id="node12" class="node">
<title>Node38</title>
<g id="a_node12"><a xlink:href="classGeneralPathSuffStatMatrixProfileProcess.html" target="_top" xlink:title="GeneralPathSuffStatMatrix\lProfileProcess">
<polygon fill="none" stroke="#000000" points="259,-67 259,-97 393,-97 393,-67 259,-67"/>
<text text-anchor="start" x="267" y="-85" font-family="Helvetica,sans-Serif" font-size="10.00" fill="#000000">GeneralPathSuffStatMatrix</text>
<text text-anchor="middle" x="326" y="-74" font-family="Helvetica,sans-Serif" font-size="10.00" fill="#000000">ProfileProcess</text>
</a>
</g>
</g>
<!-- Node37&#45;&gt;Node38 -->
<g id="edge14" class="edge">
<title>Node37&#45;&gt;Node38</title>
<path fill="none" stroke="#191970" d="M213.2075,-176.4676C216.619,-174.8182 219.9277,-172.999 223,-171 242.5001,-158.3122 241.6876,-148.5407 259,-133 273.4683,-120.0123 290.9873,-106.7541 304.4819,-97.012"/>
<polygon fill="#191970" stroke="#191970" points="211.8132,-173.2572 204.0286,-180.444 214.5959,-179.6804 211.8132,-173.2572"/>
</g>
<!-- Node40 -->
<g id="node15" class="node">
<title>Node40</title>
<g id="a_node15"><a xlink:href="classGTRProfileProcess.html" target="_top" xlink:title="GTRProfileProcess">
<polygon fill="none" stroke="#000000" points="275.5,-332.5 275.5,-351.5 376.5,-351.5 376.5,-332.5 275.5,-332.5"/>
<text text-anchor="middle" x="326" y="-339.5" font-family="Helvetica,sans-Serif" font-size="10.00" fill="#000000">GTRProfileProcess</text>
</a>
</g>
</g>
<!-- Node37&#45;&gt;Node40 -->
<g id="edge18" class="edge">
<title>Node37&#45;&gt;Node40</title>
<path fill="none" stroke="#191970" d="M186.108,-207.1192C203.9225,-225.3831 233.1445,-255.0578 259,-280 278.6183,-298.9253 302.1194,-320.4075 315.4297,-332.4676"/>
<polygon fill="#191970" stroke="#191970" points="188.2615,-204.3138 178.7787,-199.5887 183.2452,-209.1961 188.2615,-204.3138"/>
</g>
<!-- Node46 -->
<g id="node23" class="node">
<title>Node46</title>
<g id="a_node23"><a xlink:href="classMatrixMixtureProfileProcess.html" target="_top" xlink:title="MatrixMixtureProfileProcess">
<polygon fill="none" stroke="#000000" points="607,-256.5 607,-275.5 747,-275.5 747,-256.5 607,-256.5"/>
<text text-anchor="middle" x="677" y="-263.5" font-family="Helvetica,sans-Serif" font-size="10.00" fill="#000000">MatrixMixtureProfileProcess</text>
</a>
</g>
</g>
<!-- Node37&#45;&gt;Node46 -->
<g id="edge36" class="edge">
<title>Node37&#45;&gt;Node46</title>
<path fill="none" stroke="#191970" d="M215.1388,-202.0563C266.6906,-215.1981 353.2776,-235.8389 429,-247 488.7014,-255.7997 557.1263,-260.654 606.959,-263.2481"/>
<polygon fill="#191970" stroke="#191970" points="215.8654,-198.6294 205.3092,-199.533 214.1249,-205.4096 215.8654,-198.6294"/>
</g>
<!-- Node31 -->
<g id="node26" class="node">
<title>Node31</title>
<g id="a_node26"><a xlink:href="classMatrixSubstitutionProcess.html" target="_top" xlink:title="MatrixSubstitutionProcess">
<polygon fill="none" stroke="#000000" points="260.5,-142.5 260.5,-161.5 391.5,-161.5 391.5,-142.5 260.5,-142.5"/>
<text text-anchor="middle" x="326" y="-149.5" font-family="Helvetica,sans-Serif" font-size="10.00" fill="#000000">MatrixSubstitutionProcess</text>
</a>
</g>
</g>
<!-- Node37&#45;&gt;Node31 -->
<g id="edge43" class="edge">
<title>Node37&#45;&gt;Node31</title>
<path fill="none" stroke="#191970" d="M218.7892,-178.032C240.7203,-172.7069 266.1849,-166.5238 286.7924,-161.5201"/>
<polygon fill="#191970" stroke="#191970" points="217.8833,-174.6502 208.9916,-180.411 219.5351,-181.4525 217.8833,-174.6502"/>
</g>
<!-- Node39 -->
<g id="node13" class="node">
<title>Node39</title>
<g id="a_node13"><a xlink:href="classRASCATGTRDPSubstitutionProcess.html" target="_top" xlink:title="RASCATGTRDPSubstitutionProcess">
<polygon fill="none" stroke="#000000" points="1381,-336.5 1381,-355.5 1562,-355.5 1562,-336.5 1381,-336.5"/>
<text text-anchor="middle" x="1471.5" y="-343.5" font-family="Helvetica,sans-Serif" font-size="10.00" fill="#000000">RASCATGTRDPSubstitutionProcess</text>
</a>
</g>
</g>
<!-- Node38&#45;&gt;Node39 -->
<g id="edge15" class="edge">
<title>Node38&#45;&gt;Node39</title>
<path fill="none" stroke="#191970" d="M387.1977,-64.6175C400.8458,-61.4514 415.3268,-58.6356 429,-57 488.134,-49.9262 503.7578,-50.8986 563,-57 827.6291,-84.2545 895.9482,-96.926 1149,-179 1239.8304,-208.4596 1260.7531,-222.0502 1345,-267 1387.2622,-289.5489 1434.5047,-320.7639 1457.4587,-336.3441"/>
<polygon fill="#191970" stroke="#191970" points="386.3312,-61.226 377.4305,-66.973 387.9724,-68.0309 386.3312,-61.226"/>
</g>
<!-- Node32 -->
<g id="node14" class="node">
<title>Node32</title>
<g id="a_node14"><a xlink:href="classGeneralPathSuffStatMatrixSubstitutionProcess.html" target="_top" xlink:title="GeneralPathSuffStatMatrix\lSubstitutionProcess">
<polygon fill="none" stroke="#000000" points="429,-67 429,-97 563,-97 563,-67 429,-67"/>
<text text-anchor="start" x="437" y="-85" font-family="Helvetica,sans-Serif" font-size="10.00" fill="#000000">GeneralPathSuffStatMatrix</text>
<text text-anchor="middle" x="496" y="-74" font-family="Helvetica,sans-Serif" font-size="10.00" fill="#000000">SubstitutionProcess</text>
</a>
</g>
</g>
<!-- Node38&#45;&gt;Node32 -->
<g id="edge16" class="edge">
<title>Node38&#45;&gt;Node32</title>
<path fill="none" stroke="#191970" d="M403.4246,-82C411.8759,-82 420.4279,-82 428.7428,-82"/>
<polygon fill="#191970" stroke="#191970" points="403.1885,-78.5001 393.1885,-82 403.1885,-85.5001 403.1885,-78.5001"/>
</g>
<!-- Node39&#45;&gt;Node58 -->
<g id="edge23" class="edge">
<title>Node39&#45;&gt;Node58</title>
<path fill="none" stroke="#191970" d="M1527.2715,-357.6349C1564.1126,-365.3206 1611.7945,-375.2678 1646.3708,-382.481"/>
<polygon fill="#191970" stroke="#191970" points="1527.6918,-354.1473 1517.1877,-355.5312 1526.2622,-360.9997 1527.6918,-354.1473"/>
</g>
<!-- Node32&#45;&gt;Node55 -->
<g id="edge17" class="edge">
<title>Node32&#45;&gt;Node55</title>
<path fill="none" stroke="#191970" d="M573.1306,-74.6611C711.5651,-62.1426 1011.4174,-38 1265,-38 1265,-38 1265,-38 2114,-38 2193.4038,-38 2283.7902,-51.529 2343.7832,-62.4421"/>
<polygon fill="#191970" stroke="#191970" points="572.686,-71.187 563.0441,-75.5785 573.3201,-78.1582 572.686,-71.187"/>
</g>
<!-- Node41 -->
<g id="node16" class="node">
<title>Node41</title>
<g id="a_node16"><a xlink:href="classRASCATGTRSBDPSubstitutionProcess.html" target="_top" xlink:title="RASCATGTRSBDPSubstitution\lProcess">
<polygon fill="none" stroke="#000000" points="791,-371 791,-401 949,-401 949,-371 791,-371"/>
<text text-anchor="start" x="799" y="-389" font-family="Helvetica,sans-Serif" font-size="10.00" fill="#000000">RASCATGTRSBDPSubstitution</text>
<text text-anchor="middle" x="870" y="-378" font-family="Helvetica,sans-Serif" font-size="10.00" fill="#000000">Process</text>
</a>
</g>
</g>
<!-- Node40&#45;&gt;Node41 -->
<g id="edge19" class="edge">
<title>Node40&#45;&gt;Node41</title>
<path fill="none" stroke="#191970" d="M386.6765,-350.9373C400.563,-352.7906 415.2754,-354.602 429,-356 555.35,-368.8698 702.6459,-377.6376 790.9982,-382.2284"/>
<polygon fill="#191970" stroke="#191970" points="387.1173,-347.4651 376.7369,-349.5857 386.1741,-354.4012 387.1173,-347.4651"/>
</g>
<!-- Node45 -->
<g id="node21" class="node">
<title>Node45</title>
<g id="a_node21"><a xlink:href="classGTRMixtureProfileProcess.html" target="_top" xlink:title="GTRMixtureProfileProcess">
<polygon fill="none" stroke="#000000" points="803,-332.5 803,-351.5 937,-351.5 937,-332.5 803,-332.5"/>
<text text-anchor="middle" x="870" y="-339.5" font-family="Helvetica,sans-Serif" font-size="10.00" fill="#000000">GTRMixtureProfileProcess</text>
</a>
</g>
</g>
<!-- Node40&#45;&gt;Node45 -->
<g id="edge31" class="edge">
<title>Node40&#45;&gt;Node45</title>
<path fill="none" stroke="#191970" d="M386.8875,-342C489.5185,-342 696.1722,-342 802.8629,-342"/>
<polygon fill="#191970" stroke="#191970" points="386.6897,-338.5001 376.6897,-342 386.6897,-345.5001 386.6897,-338.5001"/>
</g>
<!-- Node34 -->
<g id="node22" class="node">
<title>Node34</title>
<g id="a_node22"><a xlink:href="classGTRSubstitutionProcess.html" target="_top" xlink:title="GTRSubstitutionProcess">
<polygon fill="none" stroke="#000000" points="433.5,-294.5 433.5,-313.5 558.5,-313.5 558.5,-294.5 433.5,-294.5"/>
<text text-anchor="middle" x="496" y="-301.5" font-family="Helvetica,sans-Serif" font-size="10.00" fill="#000000">GTRSubstitutionProcess</text>
</a>
</g>
</g>
<!-- Node40&#45;&gt;Node34 -->
<g id="edge33" class="edge">
<title>Node40&#45;&gt;Node34</title>
<path fill="none" stroke="#191970" d="M378.8981,-330.1757C402.865,-324.8184 430.8235,-318.5689 453.4103,-313.5201"/>
<polygon fill="#191970" stroke="#191970" points="377.8938,-326.8138 368.8982,-332.411 379.4209,-333.6452 377.8938,-326.8138"/>
</g>
<!-- Node41&#45;&gt;Node59 -->
<g id="edge26" class="edge">
<title>Node41&#45;&gt;Node59</title>
<path fill="none" stroke="#191970" d="M959.3466,-389.7334C1154.2154,-397.876 1616.3778,-417.1877 1821.6905,-425.7667"/>
<polygon fill="#191970" stroke="#191970" points="959.2836,-386.2278 949.1461,-389.3072 958.9913,-393.2217 959.2836,-386.2278"/>
</g>
<!-- Node42 -->
<g id="node17" class="node">
<title>Node42</title>
<g id="a_node17"><a xlink:href="classExpoConjugateGTRMixtureProfileProcess.html" target="_top" xlink:title="ExpoConjugateGTRMixtureProfile\lProcess">
<polygon fill="none" stroke="#000000" points="985,-295 985,-325 1149,-325 1149,-295 985,-295"/>
<text text-anchor="start" x="993" y="-313" font-family="Helvetica,sans-Serif" font-size="10.00" fill="#000000">ExpoConjugateGTRMixtureProfile</text>
<text text-anchor="middle" x="1067" y="-302" font-family="Helvetica,sans-Serif" font-size="10.00" fill="#000000">Process</text>
</a>
</g>
</g>
<!-- Node41&#45;&gt;Node42 -->
<g id="edge20" class="edge">
<title>Node41&#45;&gt;Node42</title>
<path fill="none" stroke="#191970" d="M933.1075,-367.426C938.5405,-365.4072 943.9039,-363.2592 949,-361 965.9339,-353.493 968.2363,-347.8798 985,-340 996.5239,-334.5832 1009.3139,-329.4912 1021.2983,-325.094"/>
<polygon fill="#191970" stroke="#191970" points="931.5442,-364.2672 923.2956,-370.9164 933.8903,-370.8624 931.5442,-364.2672"/>
</g>
<!-- Node35 -->
<g id="node20" class="node">
<title>Node35</title>
<g id="a_node20"><a xlink:href="classExpoConjugateGTRSubstitutionProcess.html" target="_top" xlink:title="ExpoConjugateGTRSubstitution\lProcess">
<polygon fill="none" stroke="#000000" points="599,-409 599,-439 755,-439 755,-409 599,-409"/>
<text text-anchor="start" x="607" y="-427" font-family="Helvetica,sans-Serif" font-size="10.00" fill="#000000">ExpoConjugateGTRSubstitution</text>
<text text-anchor="middle" x="677" y="-416" font-family="Helvetica,sans-Serif" font-size="10.00" fill="#000000">Process</text>
</a>
</g>
</g>
<!-- Node41&#45;&gt;Node35 -->
<g id="edge27" class="edge">
<title>Node41&#45;&gt;Node35</title>
<path fill="none" stroke="#191970" d="M813.6816,-403.289C795.4082,-407.4163 774.7946,-411.6218 755.2223,-415.2399"/>
<polygon fill="#191970" stroke="#191970" points="814.6135,-406.6661 823.5712,-401.0084 813.0404,-399.8451 814.6135,-406.6661"/>
</g>
<!-- Node43 -->
<g id="node18" class="node">
<title>Node43</title>
<g id="a_node18"><a xlink:href="classExpoConjugateGTRDPProfileProcess.html" target="_top" xlink:title="ExpoConjugateGTRDPProfile\lProcess">
<polygon fill="none" stroke="#000000" points="1192,-284 1192,-314 1338,-314 1338,-284 1192,-284"/>
<text text-anchor="start" x="1200" y="-302" font-family="Helvetica,sans-Serif" font-size="10.00" fill="#000000">ExpoConjugateGTRDPProfile</text>
<text text-anchor="middle" x="1265" y="-291" font-family="Helvetica,sans-Serif" font-size="10.00" fill="#000000">Process</text>
</a>
</g>
</g>
<!-- Node42&#45;&gt;Node43 -->
<g id="edge21" class="edge">
<title>Node42&#45;&gt;Node43</title>
<path fill="none" stroke="#191970" d="M1159.2476,-304.8751C1170.1849,-304.2675 1181.2325,-303.6537 1191.8533,-303.0637"/>
<polygon fill="#191970" stroke="#191970" points="1159.0401,-301.3812 1149.2497,-305.4306 1159.4285,-308.3704 1159.0401,-301.3812"/>
</g>
<!-- Node44 -->
<g id="node19" class="node">
<title>Node44</title>
<g id="a_node19"><a xlink:href="classExpoConjugateGTRSBDPProfileProcess.html" target="_top" xlink:title="ExpoConjugateGTRSBDPProfile\lProcess">
<polygon fill="none" stroke="#000000" points="1185,-333 1185,-363 1345,-363 1345,-333 1185,-333"/>
<text text-anchor="start" x="1193" y="-351" font-family="Helvetica,sans-Serif" font-size="10.00" fill="#000000">ExpoConjugateGTRSBDPProfile</text>
<text text-anchor="middle" x="1265" y="-340" font-family="Helvetica,sans-Serif" font-size="10.00" fill="#000000">Process</text>
</a>
</g>
</g>
<!-- Node42&#45;&gt;Node44 -->
<g id="edge24" class="edge">
<title>Node42&#45;&gt;Node44</title>
<path fill="none" stroke="#191970" d="M1155.2315,-326.9333C1165.7055,-328.9435 1176.3422,-330.9849 1186.6652,-332.966"/>
<polygon fill="#191970" stroke="#191970" points="1155.7353,-323.4662 1145.2548,-325.0186 1154.4159,-330.3408 1155.7353,-323.4662"/>
</g>
<!-- Node43&#45;&gt;Node39 -->
<g id="edge22" class="edge">
<title>Node43&#45;&gt;Node39</title>
<path fill="none" stroke="#191970" d="M1340.9185,-316.2793C1370.8644,-323.095 1404.1156,-330.6631 1429.5698,-336.4566"/>
<polygon fill="#191970" stroke="#191970" points="1341.4331,-312.8069 1330.9056,-314.0003 1339.8795,-319.6324 1341.4331,-312.8069"/>
</g>
<!-- Node44&#45;&gt;Node41 -->
<g id="edge25" class="edge">
<title>Node44&#45;&gt;Node41</title>
<path fill="none" stroke="#191970" d="M1174.73,-356.6842C1106.8072,-363.2185 1014.6019,-372.0889 949.459,-378.3558"/>
<polygon fill="#191970" stroke="#191970" points="1175.3727,-360.1386 1184.9915,-355.697 1174.7023,-353.1708 1175.3727,-360.1386"/>
</g>
<!-- Node35&#45;&gt;Node57 -->
<g id="edge28" class="edge">
<title>Node35&#45;&gt;Node57</title>
<path fill="none" stroke="#191970" d="M745.7927,-441.5078C882.8908,-474.8123 1200.3352,-544 1471.5,-544 1471.5,-544 1471.5,-544 2256,-544 2387.2252,-544 2532.8656,-466.9222 2580.4908,-439.5235"/>
<polygon fill="#191970" stroke="#191970" points="746.3874,-438.0503 735.8424,-439.0766 744.7259,-444.8502 746.3874,-438.0503"/>
</g>
<!-- Node35&#45;&gt;Node39 -->
<g id="edge29" class="edge">
<title>Node35&#45;&gt;Node39</title>
<path fill="none" stroke="#191970" d="M765.2195,-421.1497C893.4744,-416.098 1138.6438,-403.0165 1345,-372 1373.8234,-367.6677 1405.994,-361.0307 1430.6796,-355.5468"/>
<polygon fill="#191970" stroke="#191970" points="764.9172,-417.6587 755.06,-421.5427 765.1878,-424.6535 764.9172,-417.6587"/>
</g>
<!-- Node35&#45;&gt;Node41 -->
<g id="edge30" class="edge">
<title>Node35&#45;&gt;Node41</title>
<path fill="none" stroke="#191970" d="M733.7079,-406.6231C751.6283,-402.5818 771.7682,-398.47 790.9557,-394.9123"/>
<polygon fill="#191970" stroke="#191970" points="732.6795,-403.2682 723.7199,-408.923 734.2503,-410.0897 732.6795,-403.2682"/>
</g>
<!-- Node45&#45;&gt;Node42 -->
<g id="edge32" class="edge">
<title>Node45&#45;&gt;Node42</title>
<path fill="none" stroke="#191970" d="M938.7247,-330.8366C953.6479,-328.4125 969.5776,-325.825 984.9565,-323.3269"/>
<polygon fill="#191970" stroke="#191970" points="937.8825,-327.4274 928.5731,-332.4856 939.0049,-334.3369 937.8825,-327.4274"/>
</g>
<!-- Node34&#45;&gt;Node56 -->
<g id="edge35" class="edge">
<title>Node34&#45;&gt;Node56</title>
<path fill="none" stroke="#191970" d="M515.9904,-287.9456C529.5709,-276.8109 547.7636,-261.443 563,-247 579.8842,-230.995 578.6945,-220.3544 599,-209 706.4254,-148.9298 746.9202,-152 870,-152 870,-152 870,-152 2114,-152 2201.2695,-152 2302.9633,-152 2361.8633,-152"/>
<polygon fill="#191970" stroke="#191970" points="513.7463,-285.2592 508.1983,-294.2853 518.1641,-290.6891 513.7463,-285.2592"/>
</g>
<!-- Node34&#45;&gt;Node35 -->
<g id="edge34" class="edge">
<title>Node34&#45;&gt;Node35</title>
<path fill="none" stroke="#191970" d="M519.0761,-319.2991C553.9692,-342.4327 619.7494,-386.0438 654.3745,-408.9996"/>
<polygon fill="#191970" stroke="#191970" points="520.7747,-316.2259 510.506,-313.6173 516.9067,-322.0602 520.7747,-316.2259"/>
</g>
<!-- Node46&#45;&gt;Node39 -->
<g id="edge37" class="edge">
<title>Node46&#45;&gt;Node39</title>
<path fill="none" stroke="#191970" d="M757.5013,-267.4797C768.7511,-267.6669 780.165,-267.8463 791,-268 806.3882,-268.2183 1330.144,-269.9821 1345,-274 1391.1038,-286.469 1438.0825,-319.771 1459.5149,-336.3484"/>
<polygon fill="#191970" stroke="#191970" points="757.295,-263.9759 747.2373,-267.3063 757.1766,-270.9749 757.295,-263.9759"/>
</g>
<!-- Node46&#45;&gt;Node45 -->
<g id="edge38" class="edge">
<title>Node46&#45;&gt;Node45</title>
<path fill="none" stroke="#191970" d="M705.1339,-280.1034C727.9397,-291.2247 761.0886,-306.692 791,-318 805.2125,-323.3731 821.1997,-328.4113 835.0551,-332.4708"/>
<polygon fill="#191970" stroke="#191970" points="706.5511,-276.9 696.0329,-275.628 703.4621,-283.1816 706.5511,-276.9"/>
</g>
<!-- Node47 -->
<g id="node24" class="node">
<title>Node47</title>
<g id="a_node24"><a xlink:href="classMatrixDPProfileProcess.html" target="_top" xlink:title="MatrixDPProfileProcess">
<polygon fill="none" stroke="#000000" points="809,-180.5 809,-199.5 931,-199.5 931,-180.5 809,-180.5"/>
<text text-anchor="middle" x="870" y="-187.5" font-family="Helvetica,sans-Serif" font-size="10.00" fill="#000000">MatrixDPProfileProcess</text>
</a>
</g>
</g>
<!-- Node46&#45;&gt;Node47 -->
<g id="edge39" class="edge">
<title>Node46&#45;&gt;Node47</title>
<path fill="none" stroke="#191970" d="M743.2096,-252.7825C747.3028,-251.082 751.2702,-249.1637 755,-247 775.1234,-235.3259 770.8596,-220.6448 791,-209 797.7166,-205.1166 805.1937,-202.0248 812.7944,-199.5638"/>
<polygon fill="#191970" stroke="#191970" points="741.6552,-249.6252 733.4832,-256.3682 744.0766,-256.1931 741.6552,-249.6252"/>
</g>
<!-- Node48 -->
<g id="node25" class="node">
<title>Node48</title>
<g id="a_node25"><a xlink:href="classMatrixSBDPProfileProcess.html" target="_top" xlink:title="MatrixSBDPProfileProcess">
<polygon fill="none" stroke="#000000" points="999.5,-218.5 999.5,-237.5 1134.5,-237.5 1134.5,-218.5 999.5,-218.5"/>
<text text-anchor="middle" x="1067" y="-225.5" font-family="Helvetica,sans-Serif" font-size="10.00" fill="#000000">MatrixSBDPProfileProcess</text>
</a>
</g>
</g>
<!-- Node46&#45;&gt;Node48 -->
<g id="edge41" class="edge">
<title>Node46&#45;&gt;Node48</title>
<path fill="none" stroke="#191970" d="M757.2847,-262.2912C811.5368,-259.3192 884.7196,-254.405 949,-247 970.4382,-244.5303 993.9325,-240.9315 1014.2741,-237.5286"/>
<polygon fill="#191970" stroke="#191970" points="756.8364,-258.8102 747.0386,-262.8418 757.212,-265.8001 756.8364,-258.8102"/>
</g>
<!-- Node47&#45;&gt;Node43 -->
<g id="edge40" class="edge">
<title>Node47&#45;&gt;Node43</title>
<path fill="none" stroke="#191970" d="M941.3689,-183.6291C999.238,-181.0743 1081.9106,-183.4465 1149,-209 1191.6381,-225.2403 1231.3627,-262.7712 1251.402,-283.8791"/>
<polygon fill="#191970" stroke="#191970" points="941.0341,-180.1414 931.2223,-184.1386 941.3853,-187.1326 941.0341,-180.1414"/>
</g>
<!-- Node48&#45;&gt;Node44 -->
<g id="edge42" class="edge">
<title>Node48&#45;&gt;Node44</title>
<path fill="none" stroke="#191970" d="M1091.5024,-243.1389C1108.3219,-253.9769 1130.8051,-269.3631 1149,-285 1166.6439,-300.1633 1165.2601,-310.6886 1185,-323 1191.1734,-326.8502 1197.987,-330.1501 1204.9554,-332.9678"/>
<polygon fill="#191970" stroke="#191970" points="1093.1216,-240.0211 1082.8041,-237.6131 1089.3681,-245.9296 1093.1216,-240.0211"/>
</g>
<!-- Node31&#45;&gt;Node54 -->
<g id="edge46" class="edge">
<title>Node31&#45;&gt;Node54</title>
<path fill="none" stroke="#191970" d="M401.7715,-141.6883C561.1909,-120.916 943.1194,-76 1265,-76 1265,-76 1265,-76 1923,-76 2022.4545,-76 2138.3461,-84.552 2203.8547,-90.1809"/>
<polygon fill="#191970" stroke="#191970" points="401.0565,-138.252 391.5956,-143.0209 401.9654,-145.1927 401.0565,-138.252"/>
</g>
<!-- Node31&#45;&gt;Node32 -->
<g id="edge44" class="edge">
<title>Node31&#45;&gt;Node32</title>
<path fill="none" stroke="#191970" d="M358.8817,-138.4605C387.6706,-126.6062 429.4502,-109.4029 459.3153,-97.1055"/>
<polygon fill="#191970" stroke="#191970" points="357.1955,-135.3696 349.2813,-142.4136 359.8608,-141.8424 357.1955,-135.3696"/>
</g>
<!-- Node31&#45;&gt;Node34 -->
<g id="edge45" class="edge">
<title>Node31&#45;&gt;Node34</title>
<path fill="none" stroke="#191970" d="M343.3974,-168.4429C363.7203,-187.5578 398.4574,-219.9422 429,-247 448.2045,-264.0133 471.0576,-283.2445 484.4998,-294.4556"/>
<polygon fill="#191970" stroke="#191970" points="345.7879,-165.8864 336.1097,-161.5757 340.9873,-170.981 345.7879,-165.8864"/>
</g>
<!-- Node49&#45;&gt;Node46 -->
<g id="edge52" class="edge">
<title>Node49&#45;&gt;Node46</title>
<path fill="none" stroke="#191970" d="M551.6384,-239.681C577.3066,-245.0699 607.3915,-251.3861 631.6545,-256.4799"/>
<polygon fill="#191970" stroke="#191970" points="552.1797,-236.2184 541.6739,-237.589 550.7414,-243.0691 552.1797,-236.2184"/>
</g>
<!-- Node50 -->
<g id="node28" class="node">
<title>Node50</title>
<g id="a_node28"><a xlink:href="classDPProfileProcess.html" target="_top" xlink:title="DPProfileProcess">
<polygon fill="none" stroke="#000000" points="629.5,-218.5 629.5,-237.5 724.5,-237.5 724.5,-218.5 629.5,-218.5"/>
<text text-anchor="middle" x="677" y="-225.5" font-family="Helvetica,sans-Serif" font-size="10.00" fill="#000000">DPProfileProcess</text>
</a>
</g>
</g>
<!-- Node49&#45;&gt;Node50 -->
<g id="edge48" class="edge">
<title>Node49&#45;&gt;Node50</title>
<path fill="none" stroke="#191970" d="M563.0453,-228C585.0277,-228 608.9932,-228 629.2493,-228"/>
<polygon fill="#191970" stroke="#191970" points="562.773,-224.5001 552.7729,-228 562.7729,-231.5001 562.773,-224.5001"/>
</g>
<!-- Node50&#45;&gt;Node47 -->
<g id="edge49" class="edge">
<title>Node50&#45;&gt;Node47</title>
<path fill="none" stroke="#191970" d="M734.6518,-216.6489C762.3291,-211.1995 795.1242,-204.7424 821.5004,-199.5491"/>
<polygon fill="#191970" stroke="#191970" points="733.8433,-213.2408 724.7079,-218.6067 735.1957,-220.1089 733.8433,-213.2408"/>
</g>
<!-- Node51 -->
<g id="node29" class="node">
<title>Node51</title>
<g id="a_node29"><a xlink:href="classSBDPProfileProcess.html" target="_top" xlink:title="SBDPProfileProcess">
<polygon fill="none" stroke="#000000" points="816,-218.5 816,-237.5 924,-237.5 924,-218.5 816,-218.5"/>
<text text-anchor="middle" x="870" y="-225.5" font-family="Helvetica,sans-Serif" font-size="10.00" fill="#000000">SBDPProfileProcess</text>
</a>
</g>
</g>
<!-- Node50&#45;&gt;Node51 -->
<g id="edge50" class="edge">
<title>Node50&#45;&gt;Node51</title>
<path fill="none" stroke="#191970" d="M735.0177,-228C760.6133,-228 790.5286,-228 815.6829,-228"/>
<polygon fill="#191970" stroke="#191970" points="734.7079,-224.5001 724.7079,-228 734.7078,-231.5001 734.7079,-224.5001"/>
</g>
<!-- Node51&#45;&gt;Node48 -->
<g id="edge51" class="edge">
<title>Node51&#45;&gt;Node48</title>
<path fill="none" stroke="#191970" d="M934.1226,-228C954.9805,-228 978.19,-228 999.3007,-228"/>
<polygon fill="#191970" stroke="#191970" points="934.0917,-224.5001 924.0917,-228 934.0916,-231.5001 934.0917,-224.5001"/>
</g>
<!-- Node30&#45;&gt;Node53 -->
<g id="edge55" class="edge">
<title>Node30&#45;&gt;Node53</title>
<path fill="none" stroke="#191970" d="M181.3288,-134.1548C196.6413,-112.5075 225.3844,-76.4983 259,-57 352.7133,-2.6428 387.6631,0 496,0 496,0 496,0 1067,0 1404.9313,0 1485.768,-56.1534 1822,-90 1912.5912,-99.1193 2019.2571,-107.2196 2075.2275,-111.2674"/>
<polygon fill="#191970" stroke="#191970" points="178.3976,-132.2404 175.6135,-142.4629 184.1648,-136.2077 178.3976,-132.2404"/>
</g>
<!-- Node30&#45;&gt;Node31 -->
<g id="edge54" class="edge">
<title>Node30&#45;&gt;Node31</title>
<path fill="none" stroke="#191970" d="M231.7155,-152C241.1699,-152 250.9506,-152 260.473,-152"/>
<polygon fill="#191970" stroke="#191970" points="231.6123,-148.5001 221.6122,-152 231.6122,-155.5001 231.6123,-148.5001"/>
</g>
<!-- Node0 -->
<g id="node31" class="node">
<title>Node0</title>
<g id="a_node31"><a xlink:href="classRateProcess.html" target="_top" xlink:title="RateProcess">
<polygon fill="none" stroke="#000000" points="3,-435.5 3,-454.5 77,-454.5 77,-435.5 3,-435.5"/>
<text text-anchor="middle" x="40" y="-442.5" font-family="Helvetica,sans-Serif" font-size="10.00" fill="#000000">RateProcess</text>
</a>
</g>
</g>
<!-- Node0&#45;&gt;Node60 -->
<g id="edge63" class="edge">
<title>Node0&#45;&gt;Node60</title>
<path fill="none" stroke="#191970" d="M64.5666,-459.7812C112.8493,-487.3842 224.2793,-544 326,-544 326,-544 326,-544 870,-544 1137.8663,-544 1203.6337,-506 1471.5,-506 1471.5,-506 1471.5,-506 1692,-506 1824.5925,-506 1979.6781,-487.1612 2059.8481,-476.0124"/>
<polygon fill="#191970" stroke="#191970" points="66.1786,-456.6699 55.7736,-454.6728 62.6621,-462.7226 66.1786,-456.6699"/>
</g>
<!-- Node0&#45;&gt;Node57 -->
<g id="edge59" class="edge">
<title>Node0&#45;&gt;Node57</title>
<path fill="none" stroke="#191970" d="M53.4026,-462.8817C67.2592,-480.1596 90.4234,-505.8748 116,-521 199.6577,-570.4724 228.8088,-582 326,-582 326,-582 326,-582 2256,-582 2357.7574,-582 2387.0011,-571.5386 2478,-526 2524.408,-502.7761 2569.2163,-458.8404 2587.6709,-439.5212"/>
<polygon fill="#191970" stroke="#191970" points="55.9481,-460.454 47.0414,-454.7163 50.426,-464.756 55.9481,-460.454"/>
</g>
<!-- Node0&#45;&gt;Node35 -->
<g id="edge60" class="edge">
<title>Node0&#45;&gt;Node35</title>
<path fill="none" stroke="#191970" d="M87.001,-443.4505C195.6198,-439.8697 464.9648,-430.9902 598.8608,-426.576"/>
<polygon fill="#191970" stroke="#191970" points="86.8804,-439.9525 77.0012,-443.7802 87.1111,-446.9487 86.8804,-439.9525"/>
</g>
<!-- Node0&#45;&gt;Node34 -->
<g id="edge61" class="edge">
<title>Node0&#45;&gt;Node34</title>
<path fill="none" stroke="#191970" d="M60.5088,-429.5425C97.7444,-402.4382 179.9482,-346.946 259,-323 316.2825,-305.6483 384.7081,-301.8573 433.2765,-301.832"/>
<polygon fill="#191970" stroke="#191970" points="58.4203,-426.7338 52.4452,-435.4831 62.5722,-432.3696 58.4203,-426.7338"/>
</g>
<!-- Node0&#45;&gt;Node30 -->
<g id="edge62" class="edge">
<title>Node0&#45;&gt;Node30</title>
<path fill="none" stroke="#191970" d="M43.0532,-425.3367C52.1522,-369.0532 80.6608,-208.9295 116,-171 119.6283,-167.1058 124.1063,-164.009 128.9142,-161.5466"/>
<polygon fill="#191970" stroke="#191970" points="39.5642,-424.9918 41.4531,-435.4169 46.4777,-426.0893 39.5642,-424.9918"/>
</g>
<!-- Node1 -->
<g id="node32" class="node">
<title>Node1</title>
<g id="a_node32"><a xlink:href="classDGamRateProcess.html" target="_top" xlink:title="DGamRateProcess">
<polygon fill="none" stroke="#000000" points="626,-458.5 626,-477.5 728,-477.5 728,-458.5 626,-458.5"/>
<text text-anchor="middle" x="677" y="-465.5" font-family="Helvetica,sans-Serif" font-size="10.00" fill="#000000">DGamRateProcess</text>
</a>
</g>
</g>
<!-- Node0&#45;&gt;Node1 -->
<g id="edge56" class="edge">
<title>Node0&#45;&gt;Node1</title>
<path fill="none" stroke="#191970" d="M87.1953,-449.8148C96.7229,-450.6549 106.6755,-451.4382 116,-452 303.71,-463.3099 527.2467,-466.6606 625.9005,-467.6248"/>
<polygon fill="#191970" stroke="#191970" points="87.3509,-446.3145 77.0735,-448.8886 86.713,-453.2854 87.3509,-446.3145"/>
</g>
<!-- Node1&#45;&gt;Node39 -->
<g id="edge57" class="edge">
<title>Node1&#45;&gt;Node39</title>
<path fill="none" stroke="#191970" d="M738.4299,-466.8712C857.2758,-463.4883 1126.2388,-449.973 1345,-396 1384.2062,-386.327 1427.4774,-367.2674 1451.8899,-355.6771"/>
<polygon fill="#191970" stroke="#191970" points="737.9867,-463.3818 728.0849,-467.1507 738.1758,-470.3793 737.9867,-463.3818"/>
</g>
<!-- Node1&#45;&gt;Node41 -->
<g id="edge58" class="edge">
<title>Node1&#45;&gt;Node41</title>
<path fill="none" stroke="#191970" d="M735.0125,-455.6723C741.8325,-453.6948 748.6268,-451.4723 755,-449 788.3215,-436.0737 824.0252,-415.3072 846.6565,-401.1787"/>
<polygon fill="#191970" stroke="#191970" points="733.7719,-452.3829 725.048,-458.3949 735.617,-459.1353 733.7719,-452.3829"/>
</g>
</g>
</svg>
