<?xml version="1.0" encoding="UTF-8" standalone="no"?>
<!DOCTYPE svg PUBLIC "-//W3C//DTD SVG 1.1//EN"
 "http://www.w3.org/Graphics/SVG/1.1/DTD/svg11.dtd">
<!-- Generated by graphviz version 2.40.1 (20161225.0304)
 -->
<!-- Title: Graphical Class Hierarchy Pages: 1 -->
<svg width="1563pt" height="544pt"
 viewBox="0.00 0.00 1563.00 544.00" xmlns="http://www.w3.org/2000/svg" xmlns:xlink="http://www.w3.org/1999/xlink">
<g id="graph0" class="graph" transform="scale(1 1) rotate(0) translate(4 540)">
<title>Graphical Class Hierarchy</title>
<!-- Node54 -->
<g id="node1" class="node">
<title>Node54</title>
<g id="a_node1"><a xlink:href="classNewickTree.html" target="_top" xlink:title="NewickTree">
<polygon fill="none" stroke="#000000" points="5.5,-440.5 5.5,-459.5 74.5,-459.5 74.5,-440.5 5.5,-440.5"/>
<text text-anchor="middle" x="40" y="-447.5" font-family="Helvetica,sans-Serif" font-size="10.00" fill="#000000">NewickTree</text>
</a>
</g>
</g>
<!-- Node55 -->
<g id="node2" class="node">
<title>Node55</title>
<g id="a_node2"><a xlink:href="classBranchProcess.html" target="_top" xlink:title="BranchProcess">
<polygon fill="none" stroke="#000000" points="131,-364.5 131,-383.5 214,-383.5 214,-364.5 131,-364.5"/>
<text text-anchor="middle" x="172.5" y="-371.5" font-family="Helvetica,sans-Serif" font-size="10.00" fill="#000000">BranchProcess</text>
</a>
</g>
</g>
<!-- Node54&#45;&gt;Node55 -->
<g id="edge1" class="edge">
<title>Node54&#45;&gt;Node55</title>
<path fill="none" stroke="#191970" d="M65.5494,-435.3452C92.178,-420.0715 133.1288,-396.5828 155.855,-383.5473"/>
<polygon fill="#191970" stroke="#191970" points="63.7142,-432.363 56.7812,-440.3745 67.197,-438.435 63.7142,-432.363"/>
</g>
<!-- Node57 -->
<g id="node10" class="node">
<title>Node57</title>
<g id="a_node10"><a xlink:href="classTree.html" target="_top" xlink:title="Tree">
<polygon fill="none" stroke="#000000" points="154.5,-516.5 154.5,-535.5 190.5,-535.5 190.5,-516.5 154.5,-516.5"/>
<text text-anchor="middle" x="172.5" y="-523.5" font-family="Helvetica,sans-Serif" font-size="10.00" fill="#000000">Tree</text>
</a>
</g>
</g>
<!-- Node54&#45;&gt;Node57 -->
<g id="edge10" class="edge">
<title>Node54&#45;&gt;Node57</title>
<path fill="none" stroke="#191970" d="M58.397,-466.4629C73.126,-478.959 94.7652,-495.8381 116,-507 128.1833,-513.4041 142.9575,-518.2823 154.342,-521.4915"/>
<polygon fill="#191970" stroke="#191970" points="60.4282,-463.5917 50.5786,-459.6882 55.8441,-468.882 60.4282,-463.5917"/>
</g>
<!-- Node56 -->
<g id="node3" class="node">
<title>Node56</title>
<g id="a_node3"><a xlink:href="classGammaBranchProcess.html" target="_top" xlink:title="GammaBranchProcess">
<polygon fill="none" stroke="#000000" points="273,-364.5 273,-383.5 391,-383.5 391,-364.5 273,-364.5"/>
<text text-anchor="middle" x="332" y="-371.5" font-family="Helvetica,sans-Serif" font-size="10.00" fill="#000000">GammaBranchProcess</text>
</a>
</g>
</g>
<!-- Node55&#45;&gt;Node56 -->
<g id="edge2" class="edge">
<title>Node55&#45;&gt;Node56</title>
<path fill="none" stroke="#191970" d="M224.7948,-374C240.2079,-374 257.1793,-374 272.9834,-374"/>
<polygon fill="#191970" stroke="#191970" points="224.4068,-370.5001 214.4067,-374 224.4067,-377.5001 224.4068,-370.5001"/>
</g>
<!-- Node38 -->
<g id="node5" class="node">
<title>Node38</title>
<g id="a_node5"><a xlink:href="classGTRProfileProcess.html" target="_top" xlink:title="GTRProfileProcess">
<polygon fill="none" stroke="#000000" points="281.5,-193.5 281.5,-212.5 382.5,-212.5 382.5,-193.5 281.5,-193.5"/>
<text text-anchor="middle" x="332" y="-200.5" font-family="Helvetica,sans-Serif" font-size="10.00" fill="#000000">GTRProfileProcess</text>
</a>
</g>
</g>
<!-- Node55&#45;&gt;Node38 -->
<g id="edge4" class="edge">
<title>Node55&#45;&gt;Node38</title>
<path fill="none" stroke="#191970" d="M187.4333,-356.5419C211.5303,-328.3987 257.0999,-275.3025 265,-267 284.0724,-246.9562 307.7612,-224.9556 321.2534,-212.6758"/>
<polygon fill="#191970" stroke="#191970" points="184.5531,-354.5245 180.7098,-364.3977 189.8713,-359.0762 184.5531,-354.5245"/>
</g>
<!-- Node43 -->
<g id="node4" class="node">
<title>Node43</title>
<g id="a_node4"><a xlink:href="classMatrixMixtureProfileProcess.html" target="_top" xlink:title="MatrixMixtureProfileProcess">
<polygon fill="none" stroke="#000000" points="449,-393.5 449,-412.5 589,-412.5 589,-393.5 449,-393.5"/>
<text text-anchor="middle" x="519" y="-400.5" font-family="Helvetica,sans-Serif" font-size="10.00" fill="#000000">MatrixMixtureProfileProcess</text>
</a>
</g>
</g>
<!-- Node56&#45;&gt;Node43 -->
<g id="edge3" class="edge">
<title>Node56&#45;&gt;Node43</title>
<path fill="none" stroke="#191970" d="M401.279,-384.7438C419.7664,-387.6108 439.6106,-390.6883 457.6397,-393.4842"/>
<polygon fill="#191970" stroke="#191970" points="401.5862,-381.2497 391.168,-383.1758 400.5134,-388.167 401.5862,-381.2497"/>
</g>
<!-- Node42 -->
<g id="node9" class="node">
<title>Node42</title>
<g id="a_node9"><a xlink:href="classGTRMixtureProfileProcess.html" target="_top" xlink:title="GTRMixtureProfileProcess">
<polygon fill="none" stroke="#000000" points="831,-220.5 831,-239.5 965,-239.5 965,-220.5 831,-220.5"/>
<text text-anchor="middle" x="898" y="-227.5" font-family="Helvetica,sans-Serif" font-size="10.00" fill="#000000">GTRMixtureProfileProcess</text>
</a>
</g>
</g>
<!-- Node43&#45;&gt;Node42 -->
<g id="edge32" class="edge">
<title>Node43&#45;&gt;Node42</title>
<path fill="none" stroke="#191970" d="M599.3163,-404.2918C657.4656,-405.2549 735.9031,-400.3986 795,-366 847.5729,-335.3988 880.2272,-266.0289 892.4863,-239.7804"/>
<polygon fill="#191970" stroke="#191970" points="599.1467,-400.7872 589.0702,-404.0605 598.9886,-407.7854 599.1467,-400.7872"/>
</g>
<!-- Node37 -->
<g id="node14" class="node">
<title>Node37</title>
<g id="a_node14"><a xlink:href="classGeneralPathSuffStatMatrixMixtureProfileProcess.html" target="_top" xlink:title="GeneralPathSuffStatMatrix\lMixtureProfileProcess">
<polygon fill="none" stroke="#000000" points="650,-335 650,-365 784,-365 784,-335 650,-335"/>
<text text-anchor="start" x="658" y="-353" font-family="Helvetica,sans-Serif" font-size="10.00" fill="#000000">GeneralPathSuffStatMatrix</text>
<text text-anchor="middle" x="717" y="-342" font-family="Helvetica,sans-Serif" font-size="10.00" fill="#000000">MixtureProfileProcess</text>
</a>
</g>
</g>
<!-- Node43&#45;&gt;Node37 -->
<g id="edge31" class="edge">
<title>Node43&#45;&gt;Node37</title>
<path fill="none" stroke="#191970" d="M564.6049,-390.7926C593.2387,-383.128 630.3759,-373.1873 660.8207,-365.0379"/>
<polygon fill="#191970" stroke="#191970" points="563.6112,-387.4353 554.8563,-393.4021 565.4213,-394.1973 563.6112,-387.4353"/>
</g>
<!-- Node44 -->
<g id="node19" class="node">
<title>Node44</title>
<g id="a_node19"><a xlink:href="classUniformRateProcess.html" target="_top" xlink:title="UniformRateProcess">
<polygon fill="none" stroke="#000000" points="663,-478.5 663,-497.5 771,-497.5 771,-478.5 663,-478.5"/>
<text text-anchor="middle" x="717" y="-485.5" font-family="Helvetica,sans-Serif" font-size="10.00" fill="#000000">UniformRateProcess</text>
</a>
</g>
</g>
<!-- Node43&#45;&gt;Node44 -->
<g id="edge33" class="edge">
<title>Node43&#45;&gt;Node44</title>
<path fill="none" stroke="#191970" d="M559.0747,-416.0703C573.352,-421.4137 589.2826,-428.188 603,-436 620.6137,-446.031 621.0187,-454.644 639,-464 650.5631,-470.0165 663.889,-474.8083 676.2172,-478.4785"/>
<polygon fill="#191970" stroke="#191970" points="560.0964,-412.7179 549.5022,-412.6044 557.7133,-419.2997 560.0964,-412.7179"/>
</g>
<!-- Node39 -->
<g id="node6" class="node">
<title>Node39</title>
<g id="a_node6"><a xlink:href="classExpoConjugateGTRProfileProcess.html" target="_top" xlink:title="ExpoConjugateGTRProfileProcess">
<polygon fill="none" stroke="#000000" points="435,-136.5 435,-155.5 603,-155.5 603,-136.5 435,-136.5"/>
<text text-anchor="middle" x="519" y="-143.5" font-family="Helvetica,sans-Serif" font-size="10.00" fill="#000000">ExpoConjugateGTRProfileProcess</text>
</a>
</g>
</g>
<!-- Node38&#45;&gt;Node39 -->
<g id="edge5" class="edge">
<title>Node38&#45;&gt;Node39</title>
<path fill="none" stroke="#191970" d="M354.7782,-189.9229C367.9286,-185.4916 384.6529,-180.7466 399,-175 415.7945,-168.2731 418.0303,-162.2721 435,-156 435.4207,-155.8445 435.8431,-155.69 436.2671,-155.5366"/>
<polygon fill="#191970" stroke="#191970" points="353.323,-186.7273 345.1118,-193.4226 355.7061,-193.3093 353.323,-186.7273"/>
</g>
<!-- Node38&#45;&gt;Node39 -->
<g id="edge17" class="edge">
<title>Node38&#45;&gt;Node39</title>
<path fill="none" stroke="#191970" d="M392.1742,-195.5961C394.4919,-194.7587 396.7745,-193.8914 399,-193 415.7945,-186.2731 418.0303,-180.2721 435,-174 457.1586,-165.81 483.9625,-160.492 501.237,-155.5048"/>
<polygon fill="#191970" stroke="#191970" points="390.8641,-192.3441 382.5062,-198.8554 393.1003,-198.9774 390.8641,-192.3441"/>
</g>
<!-- Node38&#45;&gt;Node42 -->
<g id="edge25" class="edge">
<title>Node38&#45;&gt;Node42</title>
<path fill="none" stroke="#191970" d="M393.0975,-210.2567C406.864,-211.6879 421.4196,-213.0414 435,-214 575.6036,-223.9245 740.6798,-227.7592 830.8302,-229.1908"/>
<polygon fill="#191970" stroke="#191970" points="393.0682,-206.7338 382.7532,-209.1525 392.3252,-213.6943 393.0682,-206.7338"/>
</g>
<!-- Node24 -->
<g id="node18" class="node">
<title>Node24</title>
<g id="a_node18"><a xlink:href="classGTRSubstitutionProcess.html" target="_top" xlink:title="GTRSubstitutionProcess">
<polygon fill="none" stroke="#000000" points="456.5,-98.5 456.5,-117.5 581.5,-117.5 581.5,-98.5 456.5,-98.5"/>
<text text-anchor="middle" x="519" y="-105.5" font-family="Helvetica,sans-Serif" font-size="10.00" fill="#000000">GTRSubstitutionProcess</text>
</a>
</g>
</g>
<!-- Node38&#45;&gt;Node24 -->
<g id="edge27" class="edge">
<title>Node38&#45;&gt;Node24</title>
<path fill="none" stroke="#191970" d="M390.6446,-189.2814C393.5769,-187.7081 396.3853,-185.9545 399,-184 422.999,-166.0606 410.5264,-144.2865 435,-127 441.3505,-122.5144 448.5869,-119.0672 456.0874,-116.4215"/>
<polygon fill="#191970" stroke="#191970" points="389.159,-186.1122 381.5465,-193.481 392.0928,-192.4678 389.159,-186.1122"/>
</g>
<!-- Node40 -->
<g id="node7" class="node">
<title>Node40</title>
<g id="a_node7"><a xlink:href="classExpoConjugateGTRMixtureProfileProcess.html" target="_top" xlink:title="ExpoConjugateGTRMixtureProfile\lProcess">
<polygon fill="none" stroke="#000000" points="1001,-171 1001,-201 1165,-201 1165,-171 1001,-171"/>
<text text-anchor="start" x="1009" y="-189" font-family="Helvetica,sans-Serif" font-size="10.00" fill="#000000">ExpoConjugateGTRMixtureProfile</text>
<text text-anchor="middle" x="1083" y="-178" font-family="Helvetica,sans-Serif" font-size="10.00" fill="#000000">Process</text>
</a>
</g>
</g>
<!-- Node39&#45;&gt;Node40 -->
<g id="edge6" class="edge">
<title>Node39&#45;&gt;Node40</title>
<path fill="none" stroke="#191970" d="M613.3995,-147.5033C721.729,-153.0265 897.655,-165.5888 1000.6459,-175.2234"/>
<polygon fill="#191970" stroke="#191970" points="613.2938,-143.9937 603.1318,-146.9911 612.945,-150.985 613.2938,-143.9937"/>
</g>
<!-- Node39&#45;&gt;Node40 -->
<g id="edge18" class="edge">
<title>Node39&#45;&gt;Node40</title>
<path fill="none" stroke="#191970" d="M598.1998,-156.4803C704.6685,-166.5247 893.0172,-179.9048 1000.933,-185.109"/>
<polygon fill="#191970" stroke="#191970" points="598.4455,-152.9879 588.1575,-155.519 597.7785,-159.956 598.4455,-152.9879"/>
</g>
<!-- Node41 -->
<g id="node8" class="node">
<title>Node41</title>
<g id="a_node8"><a xlink:href="classExpoConjugateGTRSBDPProfileProcess.html" target="_top" xlink:title="ExpoConjugateGTRSBDPProfile\lProcess">
<polygon fill="none" stroke="#000000" points="1201,-193 1201,-223 1361,-223 1361,-193 1201,-193"/>
<text text-anchor="start" x="1209" y="-211" font-family="Helvetica,sans-Serif" font-size="10.00" fill="#000000">ExpoConjugateGTRSBDPProfile</text>
<text text-anchor="middle" x="1281" y="-200" font-family="Helvetica,sans-Serif" font-size="10.00" fill="#000000">Process</text>
</a>
</g>
</g>
<!-- Node39&#45;&gt;Node41 -->
<g id="edge7" class="edge">
<title>Node39&#45;&gt;Node41</title>
<path fill="none" stroke="#191970" d="M580.048,-157.981C587.8555,-160.0454 595.6737,-162.3833 603,-165 619.8463,-171.017 622.5053,-176.0772 639,-183 722.2033,-217.9203 741.9994,-234.13 831,-249 969.89,-272.2054 1135.2474,-242.7115 1221.6716,-223.0121"/>
<polygon fill="#191970" stroke="#191970" points="580.7531,-154.5495 570.2021,-155.5121 579.0505,-161.3393 580.7531,-154.5495"/>
</g>
<!-- Node25 -->
<g id="node17" class="node">
<title>Node25</title>
<g id="a_node17"><a xlink:href="classExpoConjugateGTRSubstitutionProcess.html" target="_top" xlink:title="ExpoConjugateGTRSubstitution\lProcess">
<polygon fill="none" stroke="#000000" points="639,-77 639,-107 795,-107 795,-77 639,-77"/>
<text text-anchor="start" x="647" y="-95" font-family="Helvetica,sans-Serif" font-size="10.00" fill="#000000">ExpoConjugateGTRSubstitution</text>
<text text-anchor="middle" x="717" y="-84" font-family="Helvetica,sans-Serif" font-size="10.00" fill="#000000">Process</text>
</a>
</g>
</g>
<!-- Node39&#45;&gt;Node25 -->
<g id="edge22" class="edge">
<title>Node39&#45;&gt;Node25</title>
<path fill="none" stroke="#191970" d="M574.0137,-134.1825C583.7033,-131.9229 593.6705,-129.4835 603,-127 625.5076,-121.0085 650.2487,-113.5238 670.9136,-107.0154"/>
<polygon fill="#191970" stroke="#191970" points="573.0195,-130.8196 564.0549,-136.4665 574.5843,-137.6425 573.0195,-130.8196"/>
</g>
<!-- Node40&#45;&gt;Node41 -->
<g id="edge19" class="edge">
<title>Node40&#45;&gt;Node41</title>
<path fill="none" stroke="#191970" d="M1175.2627,-196.2514C1183.832,-197.2036 1192.469,-198.1632 1200.9151,-199.1017"/>
<polygon fill="#191970" stroke="#191970" points="1175.5751,-192.7647 1165.2497,-195.1389 1174.802,-199.7219 1175.5751,-192.7647"/>
</g>
<!-- Node41&#45;&gt;Node42 -->
<g id="edge8" class="edge">
<title>Node41&#45;&gt;Node42</title>
<path fill="none" stroke="#191970" d="M1190.9613,-213.1719C1121.8042,-217.1444 1027.825,-222.5427 965.1518,-226.1427"/>
<polygon fill="#191970" stroke="#191970" points="1191.1952,-216.6644 1200.978,-212.5966 1190.7937,-209.6759 1191.1952,-216.6644"/>
</g>
<!-- Node28 -->
<g id="node16" class="node">
<title>Node28</title>
<g id="a_node16"><a xlink:href="classRASCATGTRSBDPSubstitutionProcess.html" target="_top" xlink:title="RASCATGTRSBDPSubstitution\lProcess">
<polygon fill="none" stroke="#000000" points="1397,-125 1397,-155 1555,-155 1555,-125 1397,-125"/>
<text text-anchor="start" x="1405" y="-143" font-family="Helvetica,sans-Serif" font-size="10.00" fill="#000000">RASCATGTRSBDPSubstitution</text>
<text text-anchor="middle" x="1476" y="-132" font-family="Helvetica,sans-Serif" font-size="10.00" fill="#000000">Process</text>
</a>
</g>
</g>
<!-- Node41&#45;&gt;Node28 -->
<g id="edge20" class="edge">
<title>Node41&#45;&gt;Node28</title>
<path fill="none" stroke="#191970" d="M1334.0557,-189.4985C1365.0675,-178.6841 1403.7114,-165.2083 1432.8442,-155.0492"/>
<polygon fill="#191970" stroke="#191970" points="1332.5667,-186.311 1324.2768,-192.9086 1334.8717,-192.9206 1332.5667,-186.311"/>
</g>
<!-- Node42&#45;&gt;Node43 -->
<g id="edge9" class="edge">
<title>Node42&#45;&gt;Node43</title>
<path fill="none" stroke="#191970" d="M892.4322,-249.7297C880.1313,-284.2324 847.4957,-353.4437 795,-384 715.0806,-430.5188 599.7903,-423.0094 547.1401,-412.5504"/>
<polygon fill="#191970" stroke="#191970" points="895.8862,-250.4335 895.7109,-239.8401 889.2418,-248.2307 895.8862,-250.4335"/>
</g>
<!-- Node42&#45;&gt;Node40 -->
<g id="edge26" class="edge">
<title>Node42&#45;&gt;Node40</title>
<path fill="none" stroke="#191970" d="M947.967,-218.116C970.0367,-212.8669 996.2359,-206.6358 1019.657,-201.0654"/>
<polygon fill="#191970" stroke="#191970" points="947.061,-214.7337 938.1422,-220.4527 948.6807,-221.5438 947.061,-214.7337"/>
</g>
<!-- Node34 -->
<g id="node11" class="node">
<title>Node34</title>
<g id="a_node11"><a xlink:href="classProfileProcess.html" target="_top" xlink:title="ProfileProcess">
<polygon fill="none" stroke="#000000" points="0,-279.5 0,-298.5 80,-298.5 80,-279.5 0,-279.5"/>
<text text-anchor="middle" x="40" y="-286.5" font-family="Helvetica,sans-Serif" font-size="10.00" fill="#000000">ProfileProcess</text>
</a>
</g>
</g>
<!-- Node35 -->
<g id="node12" class="node">
<title>Node35</title>
<g id="a_node12"><a xlink:href="classMatrixProfileProcess.html" target="_top" xlink:title="MatrixProfileProcess">
<polygon fill="none" stroke="#000000" points="119,-279.5 119,-298.5 226,-298.5 226,-279.5 119,-279.5"/>
<text text-anchor="middle" x="172.5" y="-286.5" font-family="Helvetica,sans-Serif" font-size="10.00" fill="#000000">MatrixProfileProcess</text>
</a>
</g>
</g>
<!-- Node34&#45;&gt;Node35 -->
<g id="edge11" class="edge">
<title>Node34&#45;&gt;Node35</title>
<path fill="none" stroke="#191970" d="M90.3839,-289C99.6845,-289 109.4283,-289 118.8221,-289"/>
<polygon fill="#191970" stroke="#191970" points="90.114,-285.5001 80.1139,-289 90.1139,-292.5001 90.114,-285.5001"/>
</g>
<!-- Node45 -->
<g id="node21" class="node">
<title>Node45</title>
<g id="a_node21"><a xlink:href="classMixtureProfileProcess.html" target="_top" xlink:title="MixtureProfileProcess">
<polygon fill="none" stroke="#000000" points="116,-478.5 116,-497.5 229,-497.5 229,-478.5 116,-478.5"/>
<text text-anchor="middle" x="172.5" y="-485.5" font-family="Helvetica,sans-Serif" font-size="10.00" fill="#000000">MixtureProfileProcess</text>
</a>
</g>
</g>
<!-- Node34&#45;&gt;Node45 -->
<g id="edge39" class="edge">
<title>Node34&#45;&gt;Node45</title>
<path fill="none" stroke="#191970" d="M43.5944,-308.8379C51.0142,-344.4376 71.2277,-419.5856 116,-464 122.2798,-470.2296 130.4267,-474.9425 138.5699,-478.4674"/>
<polygon fill="#191970" stroke="#191970" points="46.9771,-307.899 41.62,-298.7583 40.1076,-309.2447 46.9771,-307.899"/>
</g>
<!-- Node20 -->
<g id="node24" class="node">
<title>Node20</title>
<g id="a_node24"><a xlink:href="classSubstitutionProcess.html" target="_top" xlink:title="SubstitutionProcess">
<polygon fill="none" stroke="#000000" points="120.5,-187.5 120.5,-206.5 224.5,-206.5 224.5,-187.5 120.5,-187.5"/>
<text text-anchor="middle" x="172.5" y="-194.5" font-family="Helvetica,sans-Serif" font-size="10.00" fill="#000000">SubstitutionProcess</text>
</a>
</g>
</g>
<!-- Node34&#45;&gt;Node20 -->
<g id="edge44" class="edge">
<title>Node34&#45;&gt;Node20</title>
<path fill="none" stroke="#191970" d="M62.395,-273.4503C89.8288,-254.4019 135.4772,-222.7064 158.4221,-206.7748"/>
<polygon fill="#191970" stroke="#191970" points="60.3977,-270.576 54.1798,-279.1544 64.3901,-276.3259 60.3977,-270.576"/>
</g>
<!-- Node35&#45;&gt;Node43 -->
<g id="edge30" class="edge">
<title>Node35&#45;&gt;Node43</title>
<path fill="none" stroke="#191970" d="M214.9934,-301.411C230.705,-305.9979 248.6631,-311.2383 265,-316 324.5488,-333.3566 340.3577,-334.7914 399,-355 433.5786,-366.9161 472.7728,-383.1175 496.6864,-393.3162"/>
<polygon fill="#191970" stroke="#191970" points="215.6127,-297.9458 205.0325,-298.5027 213.6508,-304.6652 215.6127,-297.9458"/>
</g>
<!-- Node35&#45;&gt;Node38 -->
<g id="edge16" class="edge">
<title>Node35&#45;&gt;Node38</title>
<path fill="none" stroke="#191970" d="M199.1715,-274.6191C231.8444,-257.0024 286.2874,-227.6476 314.2421,-212.5748"/>
<polygon fill="#191970" stroke="#191970" points="197.3197,-271.6412 190.1787,-279.4679 200.6419,-277.8026 197.3197,-271.6412"/>
</g>
<!-- Node36 -->
<g id="node13" class="node">
<title>Node36</title>
<g id="a_node13"><a xlink:href="classGeneralPathSuffStatMatrixProfileProcess.html" target="_top" xlink:title="GeneralPathSuffStatMatrix\lProfileProcess">
<polygon fill="none" stroke="#000000" points="265,-277 265,-307 399,-307 399,-277 265,-277"/>
<text text-anchor="start" x="273" y="-295" font-family="Helvetica,sans-Serif" font-size="10.00" fill="#000000">GeneralPathSuffStatMatrix</text>
<text text-anchor="middle" x="332" y="-284" font-family="Helvetica,sans-Serif" font-size="10.00" fill="#000000">ProfileProcess</text>
</a>
</g>
</g>
<!-- Node35&#45;&gt;Node36 -->
<g id="edge12" class="edge">
<title>Node35&#45;&gt;Node36</title>
<path fill="none" stroke="#191970" d="M236.1845,-290.1978C245.6584,-290.376 255.4479,-290.5601 264.9878,-290.7396"/>
<polygon fill="#191970" stroke="#191970" points="236.119,-286.6961 226.0549,-290.0073 235.9873,-293.6948 236.119,-286.6961"/>
</g>
<!-- Node21 -->
<g id="node20" class="node">
<title>Node21</title>
<g id="a_node20"><a xlink:href="classMatrixSubstitutionProcess.html" target="_top" xlink:title="MatrixSubstitutionProcess">
<polygon fill="none" stroke="#000000" points="266.5,-155.5 266.5,-174.5 397.5,-174.5 397.5,-155.5 266.5,-155.5"/>
<text text-anchor="middle" x="332" y="-162.5" font-family="Helvetica,sans-Serif" font-size="10.00" fill="#000000">MatrixSubstitutionProcess</text>
</a>
</g>
</g>
<!-- Node35&#45;&gt;Node21 -->
<g id="edge35" class="edge">
<title>Node35&#45;&gt;Node21</title>
<path fill="none" stroke="#191970" d="M186.092,-271.2702C206.8875,-244.5651 246.1667,-195.8723 265,-184 271.1368,-180.1314 278.0774,-177.0326 285.1079,-174.5551"/>
<polygon fill="#191970" stroke="#191970" points="183.1543,-269.3475 179.8044,-279.3988 188.6913,-273.6304 183.1543,-269.3475"/>
</g>
<!-- Node36&#45;&gt;Node37 -->
<g id="edge13" class="edge">
<title>Node36&#45;&gt;Node37</title>
<path fill="none" stroke="#191970" d="M409.2063,-303.6311C479.6211,-314.239 582.6236,-329.7563 649.7386,-339.8671"/>
<polygon fill="#191970" stroke="#191970" points="409.4717,-300.1316 399.0619,-302.1028 408.4289,-307.0535 409.4717,-300.1316"/>
</g>
<!-- Node22 -->
<g id="node15" class="node">
<title>Node22</title>
<g id="a_node15"><a xlink:href="classGeneralPathSuffStatMatrixSubstitutionProcess.html" target="_top" xlink:title="GeneralPathSuffStatMatrix\lSubstitutionProcess">
<polygon fill="none" stroke="#000000" points="452,-175 452,-205 586,-205 586,-175 452,-175"/>
<text text-anchor="start" x="460" y="-193" font-family="Helvetica,sans-Serif" font-size="10.00" fill="#000000">GeneralPathSuffStatMatrix</text>
<text text-anchor="middle" x="519" y="-182" font-family="Helvetica,sans-Serif" font-size="10.00" fill="#000000">SubstitutionProcess</text>
</a>
</g>
</g>
<!-- Node36&#45;&gt;Node22 -->
<g id="edge14" class="edge">
<title>Node36&#45;&gt;Node22</title>
<path fill="none" stroke="#191970" d="M368.7814,-271.9374C404.7735,-252.3053 458.7891,-222.8423 491.2943,-205.1122"/>
<polygon fill="#191970" stroke="#191970" points="366.6955,-269.0883 359.5925,-276.9495 370.0475,-275.2336 366.6955,-269.0883"/>
</g>
<!-- Node22&#45;&gt;Node40 -->
<g id="edge15" class="edge">
<title>Node22&#45;&gt;Node40</title>
<path fill="none" stroke="#191970" d="M596.507,-189.4503C702.604,-188.6978 892.2375,-187.3529 1000.7568,-186.5833"/>
<polygon fill="#191970" stroke="#191970" points="596.1668,-185.9525 586.192,-189.5235 596.2166,-192.9524 596.1668,-185.9525"/>
</g>
<!-- Node28&#45;&gt;Node43 -->
<g id="edge21" class="edge">
<title>Node28&#45;&gt;Node43</title>
<path fill="none" stroke="#191970" d="M1461.7558,-163.8976C1416.4266,-236.5716 1267.5904,-450 1083,-450 898,-450 898,-450 898,-450 777.3292,-450 636.6784,-426.2447 565.4476,-412.5112"/>
<polygon fill="#191970" stroke="#191970" points="1464.7412,-165.7245 1466.9987,-155.3729 1458.7786,-162.0573 1464.7412,-165.7245"/>
</g>
<!-- Node25&#45;&gt;Node42 -->
<g id="edge23" class="edge">
<title>Node25&#45;&gt;Node42</title>
<path fill="none" stroke="#191970" d="M744.7018,-113.1207C784.5347,-143.4906 856.3808,-198.2682 885.3668,-220.3681"/>
<polygon fill="#191970" stroke="#191970" points="746.7891,-110.3109 736.7147,-107.0311 742.545,-115.8775 746.7891,-110.3109"/>
</g>
<!-- Node25&#45;&gt;Node28 -->
<g id="edge24" class="edge">
<title>Node25&#45;&gt;Node28</title>
<path fill="none" stroke="#191970" d="M805.0476,-97.5682C954.138,-106.9969 1253.982,-125.9593 1396.8326,-134.9934"/>
<polygon fill="#191970" stroke="#191970" points="805.2142,-94.0719 795.0132,-96.9336 804.7723,-101.0579 805.2142,-94.0719"/>
</g>
<!-- Node24&#45;&gt;Node41 -->
<g id="edge29" class="edge">
<title>Node24&#45;&gt;Node41</title>
<path fill="none" stroke="#191970" d="M549.3461,-94.5145C573.1839,-84.6933 607.5044,-72.232 639,-67 707.396,-55.6381 726.2024,-58.3975 795,-67 963.3573,-88.0516 1003.7787,-108.1317 1165,-161 1193.2869,-170.2759 1224.5194,-183.0842 1247.4438,-192.9875"/>
<polygon fill="#191970" stroke="#191970" points="547.9826,-91.2909 540.1249,-98.3977 550.6994,-97.7422 547.9826,-91.2909"/>
</g>
<!-- Node24&#45;&gt;Node25 -->
<g id="edge28" class="edge">
<title>Node24&#45;&gt;Node25</title>
<path fill="none" stroke="#191970" d="M592.0248,-102.099C607.2444,-100.8691 623.3454,-99.568 638.7452,-98.3236"/>
<polygon fill="#191970" stroke="#191970" points="591.334,-98.6433 581.6484,-102.9375 591.8979,-105.6206 591.334,-98.6433"/>
</g>
<!-- Node44&#45;&gt;Node41 -->
<g id="edge34" class="edge">
<title>Node44&#45;&gt;Node41</title>
<path fill="none" stroke="#191970" d="M750.3351,-474.5203C825.7689,-443.6213 1014.6844,-364.0042 1165,-282 1198.9717,-263.4669 1236.4003,-238.7563 1259.3067,-223.1083"/>
<polygon fill="#191970" stroke="#191970" points="748.8094,-471.3627 740.8746,-478.3834 751.4557,-477.8433 748.8094,-471.3627"/>
</g>
<!-- Node21&#45;&gt;Node39 -->
<g id="edge38" class="edge">
<title>Node21&#45;&gt;Node39</title>
<path fill="none" stroke="#191970" d="M407.6403,-157.3146C416.5758,-156.4067 425.7372,-155.4759 434.7817,-154.5569"/>
<polygon fill="#191970" stroke="#191970" points="407.2612,-153.835 397.6663,-158.328 407.9689,-160.7992 407.2612,-153.835"/>
</g>
<!-- Node21&#45;&gt;Node22 -->
<g id="edge36" class="edge">
<title>Node21&#45;&gt;Node22</title>
<path fill="none" stroke="#191970" d="M407.6858,-175.1184C422.325,-177.0755 437.5691,-179.1135 451.9102,-181.0308"/>
<polygon fill="#191970" stroke="#191970" points="408.0419,-171.635 397.6663,-173.7789 407.1143,-178.5732 408.0419,-171.635"/>
</g>
<!-- Node21&#45;&gt;Node24 -->
<g id="edge37" class="edge">
<title>Node21&#45;&gt;Node24</title>
<path fill="none" stroke="#191970" d="M364.7386,-151.6719C384.8004,-143.819 411.1278,-134.0704 435,-127 446.7557,-123.5183 459.5988,-120.3176 471.6265,-117.5752"/>
<polygon fill="#191970" stroke="#191970" points="363.4424,-148.4207 355.4317,-155.3546 366.018,-154.9296 363.4424,-148.4207"/>
</g>
<!-- Node45&#45;&gt;Node43 -->
<g id="edge43" class="edge">
<title>Node45&#45;&gt;Node43</title>
<path fill="none" stroke="#191970" d="M221.0548,-476.089C290.4719,-459.0603 416.6946,-428.0966 480.2453,-412.5069"/>
<polygon fill="#191970" stroke="#191970" points="220.1175,-472.7151 211.2394,-478.4968 221.7853,-479.5135 220.1175,-472.7151"/>
</g>
<!-- Node46 -->
<g id="node22" class="node">
<title>Node46</title>
<g id="a_node22"><a xlink:href="classDPProfileProcess.html" target="_top" xlink:title="DPProfileProcess">
<polygon fill="none" stroke="#000000" points="284.5,-478.5 284.5,-497.5 379.5,-497.5 379.5,-478.5 284.5,-478.5"/>
<text text-anchor="middle" x="332" y="-485.5" font-family="Helvetica,sans-Serif" font-size="10.00" fill="#000000">DPProfileProcess</text>
</a>
</g>
</g>
<!-- Node45&#45;&gt;Node46 -->
<g id="edge40" class="edge">
<title>Node45&#45;&gt;Node46</title>
<path fill="none" stroke="#191970" d="M239.512,-488C254.6162,-488 270.3461,-488 284.4586,-488"/>
<polygon fill="#191970" stroke="#191970" points="239.1829,-484.5001 229.1828,-488 239.1828,-491.5001 239.1829,-484.5001"/>
</g>
<!-- Node47 -->
<g id="node23" class="node">
<title>Node47</title>
<g id="a_node23"><a xlink:href="classSBDPProfileProcess.html" target="_top" xlink:title="SBDPProfileProcess">
<polygon fill="none" stroke="#000000" points="465,-478.5 465,-497.5 573,-497.5 573,-478.5 465,-478.5"/>
<text text-anchor="middle" x="519" y="-485.5" font-family="Helvetica,sans-Serif" font-size="10.00" fill="#000000">SBDPProfileProcess</text>
</a>
</g>
</g>
<!-- Node46&#45;&gt;Node47 -->
<g id="edge41" class="edge">
<title>Node46&#45;&gt;Node47</title>
<path fill="none" stroke="#191970" d="M389.6819,-488C413.6185,-488 441.2448,-488 464.802,-488"/>
<polygon fill="#191970" stroke="#191970" points="389.6719,-484.5001 379.6718,-488 389.6718,-491.5001 389.6719,-484.5001"/>
</g>
<!-- Node47&#45;&gt;Node44 -->
<g id="edge42" class="edge">
<title>Node47&#45;&gt;Node44</title>
<path fill="none" stroke="#191970" d="M583.1562,-488C608.9256,-488 638.3053,-488 662.961,-488"/>
<polygon fill="#191970" stroke="#191970" points="583.1044,-484.5001 573.1044,-488 583.1043,-491.5001 583.1044,-484.5001"/>
</g>
<!-- Node20&#45;&gt;Node38 -->
<g id="edge46" class="edge">
<title>Node20&#45;&gt;Node38</title>
<path fill="none" stroke="#191970" d="M235.147,-199.3566C250.445,-199.9321 266.6241,-200.5407 281.2866,-201.0923"/>
<polygon fill="#191970" stroke="#191970" points="234.8508,-195.8431 224.7263,-198.9646 234.5876,-202.8382 234.8508,-195.8431"/>
</g>
<!-- Node20&#45;&gt;Node21 -->
<g id="edge45" class="edge">
<title>Node20&#45;&gt;Node21</title>
<path fill="none" stroke="#191970" d="M229.9514,-185.4737C247.8391,-181.8849 267.3543,-177.9697 284.4839,-174.533"/>
<polygon fill="#191970" stroke="#191970" points="229.0395,-182.0868 219.9234,-187.4856 230.4165,-188.9501 229.0395,-182.0868"/>
</g>
<!-- Node0 -->
<g id="node25" class="node">
<title>Node0</title>
<g id="a_node25"><a xlink:href="classRateProcess.html" target="_top" xlink:title="RateProcess">
<polygon fill="none" stroke="#000000" points="3,-143.5 3,-162.5 77,-162.5 77,-143.5 3,-143.5"/>
<text text-anchor="middle" x="40" y="-150.5" font-family="Helvetica,sans-Serif" font-size="10.00" fill="#000000">RateProcess</text>
</a>
</g>
</g>
<!-- Node0&#45;&gt;Node42 -->
<g id="edge49" class="edge">
<title>Node0&#45;&gt;Node42</title>
<path fill="none" stroke="#191970" d="M54.994,-170.5861C69.0371,-185.6618 91.4887,-206.417 116,-216 332.7344,-300.7354 406.3348,-236.4397 639,-241 708.32,-242.3587 725.7647,-244.6865 795,-241 806.583,-240.3832 818.8678,-239.379 830.7654,-238.2217"/>
<polygon fill="#191970" stroke="#191970" points="57.3817,-168.0065 48.0976,-162.9019 52.1721,-172.682 57.3817,-168.0065"/>
</g>
<!-- Node0&#45;&gt;Node25 -->
<g id="edge50" class="edge">
<title>Node0&#45;&gt;Node25</title>
<path fill="none" stroke="#191970" d="M80.5268,-140.7073C91.9254,-137.5493 104.3826,-134.3766 116,-132 328.8777,-88.451 385.7323,-86.1417 603,-89 614.5811,-89.1524 626.8223,-89.3917 638.8172,-89.6704"/>
<polygon fill="#191970" stroke="#191970" points="79.4952,-137.3617 70.8302,-143.4582 81.4058,-144.096 79.4952,-137.3617"/>
</g>
<!-- Node0&#45;&gt;Node24 -->
<g id="edge51" class="edge">
<title>Node0&#45;&gt;Node24</title>
<path fill="none" stroke="#191970" d="M87.2814,-148.5581C174.1388,-140.3982 359.0871,-123.0231 456.3061,-113.8898"/>
<polygon fill="#191970" stroke="#191970" points="86.8165,-145.0863 77.1877,-149.5064 87.4713,-152.0556 86.8165,-145.0863"/>
</g>
<!-- Node0&#45;&gt;Node44 -->
<g id="edge53" class="edge">
<title>Node0&#45;&gt;Node44</title>
<path fill="none" stroke="#191970" d="M46.8902,-172.2886C55.0807,-195.4099 69.0207,-235.3766 80,-270 97.2175,-324.2955 73.1936,-355.4227 116,-393 198.3153,-465.2598 494.8665,-451.5518 603,-469 622.5113,-472.1483 643.8852,-475.6867 662.7997,-478.849"/>
<polygon fill="#191970" stroke="#191970" points="50.1141,-170.9083 43.4659,-162.659 43.5187,-173.2537 50.1141,-170.9083"/>
</g>
<!-- Node0&#45;&gt;Node20 -->
<g id="edge52" class="edge">
<title>Node0&#45;&gt;Node20</title>
<path fill="none" stroke="#191970" d="M78.2939,-165.7165C99.1906,-172.6558 124.6316,-181.1041 143.8056,-187.4713"/>
<polygon fill="#191970" stroke="#191970" points="79.344,-162.3773 68.7505,-162.5473 77.1379,-169.0206 79.344,-162.3773"/>
</g>
<!-- Node1 -->
<g id="node26" class="node">
<title>Node1</title>
<g id="a_node26"><a xlink:href="classDGamRateProcess.html" target="_top" xlink:title="DGamRateProcess">
<polygon fill="none" stroke="#000000" points="847,-.5 847,-19.5 949,-19.5 949,-.5 847,-.5"/>
<text text-anchor="middle" x="898" y="-7.5" font-family="Helvetica,sans-Serif" font-size="10.00" fill="#000000">DGamRateProcess</text>
</a>
</g>
</g>
<!-- Node0&#45;&gt;Node1 -->
<g id="edge47" class="edge">
<title>Node0&#45;&gt;Node1</title>
<path fill="none" stroke="#191970" d="M58.2555,-136.6135C102.0557,-99.0622 217.9592,-10 332,-10 332,-10 332,-10 519,-10 636.286,-10 773.9883,-10 846.8132,-10"/>
<polygon fill="#191970" stroke="#191970" points="55.7152,-134.1849 50.4788,-143.3953 60.3159,-139.4606 55.7152,-134.1849"/>
</g>
<!-- Node1&#45;&gt;Node28 -->
<g id="edge48" class="edge">
<title>Node1&#45;&gt;Node28</title>
<path fill="none" stroke="#191970" d="M959.4416,-11.5952C1050.0177,-15.6658 1223.5029,-30.0776 1361,-81 1393.1954,-92.9237 1427.9845,-111.6692 1450.7669,-124.8233"/>
<polygon fill="#191970" stroke="#191970" points="959.4842,-8.094 949.3455,-11.1691 959.189,-15.0877 959.4842,-8.094"/>
</g>
</g>
</svg>
