<?xml version="1.0" encoding="UTF-8" standalone="no"?>
<!DOCTYPE svg PUBLIC "-//W3C//DTD SVG 1.1//EN"
 "http://www.w3.org/Graphics/SVG/1.1/DTD/svg11.dtd">
<!-- Generated by graphviz version 2.40.1 (20161225.0304)
 -->
<!-- Title: Graphical Class Hierarchy Pages: 1 -->
<svg width="282pt" height="104pt"
 viewBox="0.00 0.00 282.00 104.00" xmlns="http://www.w3.org/2000/svg" xmlns:xlink="http://www.w3.org/1999/xlink">
<g id="graph0" class="graph" transform="scale(1 1) rotate(0) translate(4 100)">
<title>Graphical Class Hierarchy</title>
<!-- Node0 -->
<g id="node1" class="node">
<title>Node0</title>
<g id="a_node1"><a xlink:href="classSequenceAlignment.html" target="_top" xlink:title="SequenceAlignment">
<polygon fill="none" stroke="#000000" points="0,-38.5 0,-57.5 104,-57.5 104,-38.5 0,-38.5"/>
<text text-anchor="middle" x="52" y="-45.5" font-family="Helvetica,sans-Serif" font-size="10.00" fill="#000000">SequenceAlignment</text>
</a>
</g>
</g>
<!-- Node1 -->
<g id="node2" class="node">
<title>Node1</title>
<g id="a_node2"><a xlink:href="classFileSequenceAlignment.html" target="_top" xlink:title="FileSequenceAlignment">
<polygon fill="none" stroke="#000000" points="147.5,-76.5 147.5,-95.5 266.5,-95.5 266.5,-76.5 147.5,-76.5"/>
<text text-anchor="middle" x="207" y="-83.5" font-family="Helvetica,sans-Serif" font-size="10.00" fill="#000000">FileSequenceAlignment</text>
</a>
</g>
</g>
<!-- Node0&#45;&gt;Node1 -->
<g id="edge1" class="edge">
<title>Node0&#45;&gt;Node1</title>
<path fill="none" stroke="#191970" d="M101.1105,-60.04C122.7647,-65.3488 147.8502,-71.4988 168.1682,-76.4799"/>
<polygon fill="#191970" stroke="#191970" points="101.6588,-56.5708 91.113,-57.589 99.992,-63.3695 101.6588,-56.5708"/>
</g>
<!-- Node2 -->
<g id="node3" class="node">
<title>Node2</title>
<g id="a_node3"><a xlink:href="classProteinSequenceAlignment.html" target="_top" xlink:title="ProteinSequenceAlignment">
<polygon fill="none" stroke="#000000" points="140,-38.5 140,-57.5 274,-57.5 274,-38.5 140,-38.5"/>
<text text-anchor="middle" x="207" y="-45.5" font-family="Helvetica,sans-Serif" font-size="10.00" fill="#000000">ProteinSequenceAlignment</text>
</a>
</g>
</g>
<!-- Node0&#45;&gt;Node2 -->
<g id="edge2" class="edge">
<title>Node0&#45;&gt;Node2</title>
<path fill="none" stroke="#191970" d="M114.2179,-48C122.6853,-48 131.4061,-48 139.9541,-48"/>
<polygon fill="#191970" stroke="#191970" points="114.044,-44.5001 104.0439,-48 114.0439,-51.5001 114.044,-44.5001"/>
</g>
<!-- Node3 -->
<g id="node4" class="node">
<title>Node3</title>
<g id="a_node4"><a xlink:href="classZippedSequenceAlignment.html" target="_top" xlink:title="ZippedSequenceAlignment">
<polygon fill="none" stroke="#000000" points="140.5,-.5 140.5,-19.5 273.5,-19.5 273.5,-.5 140.5,-.5"/>
<text text-anchor="middle" x="207" y="-7.5" font-family="Helvetica,sans-Serif" font-size="10.00" fill="#000000">ZippedSequenceAlignment</text>
</a>
</g>
</g>
<!-- Node0&#45;&gt;Node3 -->
<g id="edge3" class="edge">
<title>Node0&#45;&gt;Node3</title>
<path fill="none" stroke="#191970" d="M101.1105,-35.96C122.7647,-30.6512 147.8502,-24.5012 168.1682,-19.5201"/>
<polygon fill="#191970" stroke="#191970" points="99.992,-32.6305 91.113,-38.411 101.6588,-39.4292 99.992,-32.6305"/>
</g>
</g>
</svg>
