<?xml version="1.0" encoding="UTF-8" standalone="no"?>
<!DOCTYPE svg PUBLIC "-//W3C//DTD SVG 1.1//EN"
 "http://www.w3.org/Graphics/SVG/1.1/DTD/svg11.dtd">
<!-- Generated by graphviz version 2.38.0 (20140413.2041)
 -->
<!-- Title: Graphical Class Hierarchy Pages: 1 -->
<svg width="433pt" height="66pt"
 viewBox="0.00 0.00 433.00 66.00" xmlns="http://www.w3.org/2000/svg" xmlns:xlink="http://www.w3.org/1999/xlink">
<g id="graph0" class="graph" transform="scale(1 1) rotate(0) translate(4 62)">
<title>Graphical Class Hierarchy</title>
<!-- Node0 -->
<g id="node1" class="node"><title>Node0</title>
<g id="a_node1"><a xlink:href="classBranchValPtrTree.html" target="_top" xlink:title="BranchValPtrTree">
<polygon fill="none" stroke="black" points="0,-19.5 0,-38.5 94,-38.5 94,-19.5 0,-19.5"/>
<text text-anchor="middle" x="47" y="-26.5" font-family="Helvetica,sans-Serif" font-size="10.00">BranchValPtrTree</text>
</a>
</g>
</g>
<!-- Node1 -->
<g id="node2" class="node"><title>Node1</title>
<g id="a_node2"><a xlink:href="classPathConjugateTree.html" target="_top" xlink:title="PathConjugateTree">
<polygon fill="none" stroke="black" points="130,-19.5 130,-38.5 231,-38.5 231,-19.5 130,-19.5"/>
<text text-anchor="middle" x="180.5" y="-26.5" font-family="Helvetica,sans-Serif" font-size="10.00">PathConjugateTree</text>
</a>
</g>
</g>
<!-- Node0&#45;&gt;Node1 -->
<g id="edge1" class="edge"><title>Node0&#45;&gt;Node1</title>
<path fill="none" stroke="midnightblue" d="M104.546,-29C113.011,-29 121.683,-29 129.988,-29"/>
<polygon fill="midnightblue" stroke="midnightblue" points="104.362,-25.5001 94.362,-29 104.362,-32.5001 104.362,-25.5001"/>
</g>
<!-- Node2 -->
<g id="node3" class="node"><title>Node2</title>
<g id="a_node3"><a xlink:href="classBranchMatrixPathConjugateTree.html" target="_top" xlink:title="BranchMatrixPathConjugateTree">
<polygon fill="none" stroke="black" points="267,-38.5 267,-57.5 425,-57.5 425,-38.5 267,-38.5"/>
<text text-anchor="middle" x="346" y="-45.5" font-family="Helvetica,sans-Serif" font-size="10.00">BranchMatrixPathConjugateTree</text>
</a>
</g>
</g>
<!-- Node1&#45;&gt;Node2 -->
<g id="edge2" class="edge"><title>Node1&#45;&gt;Node2</title>
<path fill="none" stroke="midnightblue" d="M241.618,-35.9862C249.804,-36.9374 258.301,-37.9249 266.748,-38.9065"/>
<polygon fill="midnightblue" stroke="midnightblue" points="241.781,-32.4817 231.444,-34.8039 240.973,-39.4349 241.781,-32.4817"/>
</g>
<!-- Node3 -->
<g id="node4" class="node"><title>Node3</title>
<g id="a_node4"><a xlink:href="classOneMatrixPathConjugateTree.html" target="_top" xlink:title="OneMatrixPathConjugateTree">
<polygon fill="none" stroke="black" points="273,-0.5 273,-19.5 419,-19.5 419,-0.5 273,-0.5"/>
<text text-anchor="middle" x="346" y="-7.5" font-family="Helvetica,sans-Serif" font-size="10.00">OneMatrixPathConjugateTree</text>
</a>
</g>
</g>
<!-- Node1&#45;&gt;Node3 -->
<g id="edge3" class="edge"><title>Node1&#45;&gt;Node3</title>
<path fill="none" stroke="midnightblue" d="M241.448,-22.0335C251.642,-20.849 262.323,-19.6078 272.792,-18.3911"/>
<polygon fill="midnightblue" stroke="midnightblue" points="240.973,-18.5651 231.444,-23.1961 241.781,-25.5183 240.973,-18.5651"/>
</g>
</g>
</svg>
