<?xml version="1.0" encoding="UTF-8" standalone="no"?>
<!DOCTYPE svg PUBLIC "-//W3C//DTD SVG 1.1//EN"
 "http://www.w3.org/Graphics/SVG/1.1/DTD/svg11.dtd">
<!-- Generated by graphviz version 2.40.1 (20161225.0304)
 -->
<!-- Title: Graphical Class Hierarchy Pages: 1 -->
<svg width="297pt" height="28pt"
 viewBox="0.00 0.00 297.00 28.00" xmlns="http://www.w3.org/2000/svg" xmlns:xlink="http://www.w3.org/1999/xlink">
<g id="graph0" class="graph" transform="scale(1 1) rotate(0) translate(4 24)">
<title>Graphical Class Hierarchy</title>
<!-- Node0 -->
<g id="node1" class="node">
<title>Node0</title>
<g id="a_node1"><a xlink:href="classSubMatrix.html" target="_top" xlink:title="SubMatrix">
<polygon fill="none" stroke="#000000" points="0,-.5 0,-19.5 61,-19.5 61,-.5 0,-.5"/>
<text text-anchor="middle" x="30.5" y="-7.5" font-family="Helvetica,sans-Serif" font-size="10.00" fill="#000000">SubMatrix</text>
</a>
</g>
</g>
<!-- Node1 -->
<g id="node2" class="node">
<title>Node1</title>
<g id="a_node2"><a xlink:href="classGTRSubMatrix.html" target="_top" xlink:title="GTRSubMatrix">
<polygon fill="none" stroke="#000000" points="97,-.5 97,-19.5 179,-19.5 179,-.5 97,-.5"/>
<text text-anchor="middle" x="138" y="-7.5" font-family="Helvetica,sans-Serif" font-size="10.00" fill="#000000">GTRSubMatrix</text>
</a>
</g>
</g>
<!-- Node0&#45;&gt;Node1 -->
<g id="edge1" class="edge">
<title>Node0&#45;&gt;Node1</title>
<path fill="none" stroke="#191970" d="M71.0612,-10C79.535,-10 88.475,-10 96.9659,-10"/>
<polygon fill="#191970" stroke="#191970" points="71.0177,-6.5001 61.0176,-10 71.0176,-13.5001 71.0177,-6.5001"/>
</g>
<!-- Node2 -->
<g id="node3" class="node">
<title>Node2</title>
<g id="a_node3"><a xlink:href="classLGSubMatrix.html" target="_top" xlink:title="LGSubMatrix">
<polygon fill="none" stroke="#000000" points="215,-.5 215,-19.5 289,-19.5 289,-.5 215,-.5"/>
<text text-anchor="middle" x="252" y="-7.5" font-family="Helvetica,sans-Serif" font-size="10.00" fill="#000000">LGSubMatrix</text>
</a>
</g>
</g>
<!-- Node1&#45;&gt;Node2 -->
<g id="edge2" class="edge">
<title>Node1&#45;&gt;Node2</title>
<path fill="none" stroke="#191970" d="M189.4094,-10C197.9255,-10 206.6098,-10 214.6919,-10"/>
<polygon fill="#191970" stroke="#191970" points="189.1567,-6.5001 179.1566,-10 189.1566,-13.5001 189.1567,-6.5001"/>
</g>
</g>
</svg>
