<?xml version="1.0" encoding="UTF-8" standalone="no"?>
<!DOCTYPE svg PUBLIC "-//W3C//DTD SVG 1.1//EN"
 "http://www.w3.org/Graphics/SVG/1.1/DTD/svg11.dtd">
<!-- Generated by graphviz version 2.38.0 (20140413.2041)
 -->
<!-- Title: JackKnife.cpp Pages: 1 -->
<svg width="554pt" height="252pt"
 viewBox="0.00 0.00 553.50 252.00" xmlns="http://www.w3.org/2000/svg" xmlns:xlink="http://www.w3.org/1999/xlink">
<g id="graph0" class="graph" transform="scale(1 1) rotate(0) translate(4 248)">
<title>JackKnife.cpp</title>
<!-- Node0 -->
<g id="node1" class="node"><title>Node0</title>
<polygon fill="#bfbfbf" stroke="black" points="320.5,-224.5 320.5,-243.5 399.5,-243.5 399.5,-224.5 320.5,-224.5"/>
<text text-anchor="middle" x="360" y="-231.5" font-family="Helvetica,sans-Serif" font-size="10.00">JackKnife.cpp</text>
</g>
<!-- Node1 -->
<g id="node2" class="node"><title>Node1</title>
<g id="a_node2"><a xlink:href="Random_8h.html" target="_top" xlink:title="Random.h">
<polygon fill="none" stroke="black" points="174,-112.5 174,-131.5 236,-131.5 236,-112.5 174,-112.5"/>
<text text-anchor="middle" x="205" y="-119.5" font-family="Helvetica,sans-Serif" font-size="10.00">Random.h</text>
</a>
</g>
</g>
<!-- Node0&#45;&gt;Node1 -->
<g id="edge1" class="edge"><title>Node0&#45;&gt;Node1</title>
<path fill="none" stroke="midnightblue" d="M347.488,-224.447C334.361,-215.448 313.154,-200.838 295,-188 270.792,-170.881 243.181,-150.866 224.997,-137.616"/>
<polygon fill="midnightblue" stroke="midnightblue" points="227.025,-134.764 216.883,-131.698 222.899,-140.419 227.025,-134.764"/>
</g>
<!-- Node8 -->
<g id="node9" class="node"><title>Node8</title>
<g id="a_node9"><a xlink:href="SequenceAlignment_8h.html" target="_top" xlink:title="SequenceAlignment.h">
<polygon fill="none" stroke="black" points="304,-168.5 304,-187.5 416,-187.5 416,-168.5 304,-168.5"/>
<text text-anchor="middle" x="360" y="-175.5" font-family="Helvetica,sans-Serif" font-size="10.00">SequenceAlignment.h</text>
</a>
</g>
</g>
<!-- Node0&#45;&gt;Node8 -->
<g id="edge8" class="edge"><title>Node0&#45;&gt;Node8</title>
<path fill="none" stroke="midnightblue" d="M360,-224.083C360,-217.006 360,-206.861 360,-197.986"/>
<polygon fill="midnightblue" stroke="midnightblue" points="363.5,-197.751 360,-187.751 356.5,-197.751 363.5,-197.751"/>
</g>
<!-- Node14 -->
<g id="node15" class="node"><title>Node14</title>
<g id="a_node15"><a xlink:href="Parallel_8h.html" target="_top" xlink:title="Parallel.h">
<polygon fill="none" stroke="black" points="440.5,-168.5 440.5,-187.5 497.5,-187.5 497.5,-168.5 440.5,-168.5"/>
<text text-anchor="middle" x="469" y="-175.5" font-family="Helvetica,sans-Serif" font-size="10.00">Parallel.h</text>
</a>
</g>
</g>
<!-- Node0&#45;&gt;Node14 -->
<g id="edge19" class="edge"><title>Node0&#45;&gt;Node14</title>
<path fill="none" stroke="midnightblue" d="M377.513,-224.324C395.072,-215.625 422.331,-202.12 442.531,-192.113"/>
<polygon fill="midnightblue" stroke="midnightblue" points="444.124,-195.23 451.531,-187.655 441.016,-188.958 444.124,-195.23"/>
</g>
<!-- Node2 -->
<g id="node3" class="node"><title>Node2</title>
<polygon fill="none" stroke="#bfbfbf" points="106,-56.5 106,-75.5 150,-75.5 150,-56.5 106,-56.5"/>
<text text-anchor="middle" x="128" y="-63.5" font-family="Helvetica,sans-Serif" font-size="10.00">cmath</text>
</g>
<!-- Node1&#45;&gt;Node2 -->
<g id="edge2" class="edge"><title>Node1&#45;&gt;Node2</title>
<path fill="none" stroke="midnightblue" d="M192.629,-112.324C180.842,-104.058 162.868,-91.4527 148.864,-81.6322"/>
<polygon fill="midnightblue" stroke="midnightblue" points="150.538,-78.5307 140.341,-75.6545 146.518,-84.2619 150.538,-78.5307"/>
</g>
<!-- Node3 -->
<g id="node4" class="node"><title>Node3</title>
<polygon fill="none" stroke="#bfbfbf" points="183.5,-0.5 183.5,-19.5 228.5,-19.5 228.5,-0.5 183.5,-0.5"/>
<text text-anchor="middle" x="206" y="-7.5" font-family="Helvetica,sans-Serif" font-size="10.00">cstdlib</text>
</g>
<!-- Node1&#45;&gt;Node3 -->
<g id="edge3" class="edge"><title>Node1&#45;&gt;Node3</title>
<path fill="none" stroke="midnightblue" d="M173.677,-115.303C134.661,-106.73 75.5831,-88.0122 97,-56 113.909,-30.7254 147.891,-19.631 173.442,-14.7703"/>
<polygon fill="midnightblue" stroke="midnightblue" points="174.17,-18.1972 183.456,-13.0954 173.016,-11.2931 174.17,-18.1972"/>
</g>
<!-- Node4 -->
<g id="node5" class="node"><title>Node4</title>
<polygon fill="none" stroke="#bfbfbf" points="369,-0.5 369,-19.5 423,-19.5 423,-0.5 369,-0.5"/>
<text text-anchor="middle" x="396" y="-7.5" font-family="Helvetica,sans-Serif" font-size="10.00">iostream</text>
</g>
<!-- Node1&#45;&gt;Node4 -->
<g id="edge4" class="edge"><title>Node1&#45;&gt;Node4</title>
<path fill="none" stroke="midnightblue" d="M200.358,-112.346C193.786,-98.7722 183.94,-72.3432 197,-56 216.86,-31.148 306.823,-19.0166 358.735,-13.99"/>
<polygon fill="midnightblue" stroke="midnightblue" points="359.252,-17.4572 368.886,-13.0505 358.606,-10.487 359.252,-17.4572"/>
</g>
<!-- Node5 -->
<g id="node6" class="node"><title>Node5</title>
<polygon fill="none" stroke="#bfbfbf" points="206,-56.5 206,-75.5 258,-75.5 258,-56.5 206,-56.5"/>
<text text-anchor="middle" x="232" y="-63.5" font-family="Helvetica,sans-Serif" font-size="10.00">sstream</text>
</g>
<!-- Node1&#45;&gt;Node5 -->
<g id="edge5" class="edge"><title>Node1&#45;&gt;Node5</title>
<path fill="none" stroke="midnightblue" d="M209.459,-112.083C213.154,-104.691 218.523,-93.9533 223.094,-84.8111"/>
<polygon fill="midnightblue" stroke="midnightblue" points="226.283,-86.2606 227.624,-75.7511 220.022,-83.1301 226.283,-86.2606"/>
</g>
<!-- Node6 -->
<g id="node7" class="node"><title>Node6</title>
<polygon fill="none" stroke="#bfbfbf" points="276,-56.5 276,-75.5 326,-75.5 326,-56.5 276,-56.5"/>
<text text-anchor="middle" x="301" y="-63.5" font-family="Helvetica,sans-Serif" font-size="10.00">iomanip</text>
</g>
<!-- Node1&#45;&gt;Node6 -->
<g id="edge6" class="edge"><title>Node1&#45;&gt;Node6</title>
<path fill="none" stroke="midnightblue" d="M220.424,-112.324C235.54,-103.822 258.815,-90.7288 276.471,-80.7975"/>
<polygon fill="midnightblue" stroke="midnightblue" points="278.614,-83.6077 285.614,-75.6545 275.183,-77.5066 278.614,-83.6077"/>
</g>
<!-- Node7 -->
<g id="node8" class="node"><title>Node7</title>
<polygon fill="none" stroke="#bfbfbf" points="0,-56.5 0,-75.5 50,-75.5 50,-56.5 0,-56.5"/>
<text text-anchor="middle" x="25" y="-63.5" font-family="Helvetica,sans-Serif" font-size="10.00">fstream</text>
</g>
<!-- Node1&#45;&gt;Node7 -->
<g id="edge7" class="edge"><title>Node1&#45;&gt;Node7</title>
<path fill="none" stroke="midnightblue" d="M176.478,-112.444C144.945,-102.984 94.1255,-87.7377 60.1549,-77.5465"/>
<polygon fill="midnightblue" stroke="midnightblue" points="60.7773,-74.0791 50.1933,-74.558 58.7658,-80.7839 60.7773,-74.0791"/>
</g>
<!-- Node8&#45;&gt;Node1 -->
<g id="edge18" class="edge"><title>Node8&#45;&gt;Node1</title>
<path fill="none" stroke="midnightblue" d="M335.44,-168.444C309.477,-159.399 268.332,-145.064 239.203,-134.916"/>
<polygon fill="midnightblue" stroke="midnightblue" points="240.04,-131.501 229.445,-131.516 237.737,-138.112 240.04,-131.501"/>
</g>
<!-- Node9 -->
<g id="node10" class="node"><title>Node9</title>
<g id="a_node10"><a xlink:href="StateSpace_8h.html" target="_top" xlink:title="StateSpace.h">
<polygon fill="none" stroke="black" points="322,-112.5 322,-131.5 398,-131.5 398,-112.5 322,-112.5"/>
<text text-anchor="middle" x="360" y="-119.5" font-family="Helvetica,sans-Serif" font-size="10.00">StateSpace.h</text>
</a>
</g>
</g>
<!-- Node8&#45;&gt;Node9 -->
<g id="edge9" class="edge"><title>Node8&#45;&gt;Node9</title>
<path fill="none" stroke="midnightblue" d="M360,-168.083C360,-161.006 360,-150.861 360,-141.986"/>
<polygon fill="midnightblue" stroke="midnightblue" points="363.5,-141.751 360,-131.751 356.5,-141.751 363.5,-141.751"/>
</g>
<!-- Node12 -->
<g id="node13" class="node"><title>Node12</title>
<g id="a_node13"><a xlink:href="TaxonSet_8h.html" target="_top" xlink:title="TaxonSet.h">
<polygon fill="none" stroke="black" points="478.5,-56.5 478.5,-75.5 545.5,-75.5 545.5,-56.5 478.5,-56.5"/>
<text text-anchor="middle" x="512" y="-63.5" font-family="Helvetica,sans-Serif" font-size="10.00">TaxonSet.h</text>
</a>
</g>
</g>
<!-- Node8&#45;&gt;Node12 -->
<g id="edge14" class="edge"><title>Node8&#45;&gt;Node12</title>
<path fill="none" stroke="midnightblue" d="M370.842,-168.368C386.843,-155.706 417.826,-131.487 445,-112 459.895,-101.318 477.062,-89.8029 490.29,-81.0952"/>
<polygon fill="midnightblue" stroke="midnightblue" points="492.294,-83.9668 498.742,-75.5601 488.459,-78.1107 492.294,-83.9668"/>
</g>
<!-- Node10 -->
<g id="node11" class="node"><title>Node10</title>
<g id="a_node11"><a xlink:href="BiologicalSequences_8h.html" target="_top" xlink:title="BiologicalSequences.h">
<polygon fill="none" stroke="black" points="344,-56.5 344,-75.5 460,-75.5 460,-56.5 344,-56.5"/>
<text text-anchor="middle" x="402" y="-63.5" font-family="Helvetica,sans-Serif" font-size="10.00">BiologicalSequences.h</text>
</a>
</g>
</g>
<!-- Node9&#45;&gt;Node10 -->
<g id="edge10" class="edge"><title>Node9&#45;&gt;Node10</title>
<path fill="none" stroke="midnightblue" d="M366.935,-112.083C372.929,-104.377 381.752,-93.0333 389.048,-83.6531"/>
<polygon fill="midnightblue" stroke="midnightblue" points="391.817,-85.7934 395.194,-75.7511 386.291,-81.4958 391.817,-85.7934"/>
</g>
<!-- Node10&#45;&gt;Node3 -->
<g id="edge11" class="edge"><title>Node10&#45;&gt;Node3</title>
<path fill="none" stroke="midnightblue" d="M370.943,-56.4435C334.733,-46.4672 275.165,-30.0556 238.392,-19.9242"/>
<polygon fill="midnightblue" stroke="midnightblue" points="239.233,-16.5257 228.662,-17.2437 237.374,-23.2742 239.233,-16.5257"/>
</g>
<!-- Node10&#45;&gt;Node4 -->
<g id="edge12" class="edge"><title>Node10&#45;&gt;Node4</title>
<path fill="none" stroke="midnightblue" d="M401.009,-56.083C400.214,-48.9272 399.071,-38.6353 398.077,-29.6911"/>
<polygon fill="midnightblue" stroke="midnightblue" points="401.555,-29.3034 396.972,-19.7511 394.598,-30.0765 401.555,-29.3034"/>
</g>
<!-- Node11 -->
<g id="node12" class="node"><title>Node11</title>
<polygon fill="none" stroke="#bfbfbf" points="441.5,-0.5 441.5,-19.5 482.5,-19.5 482.5,-0.5 441.5,-0.5"/>
<text text-anchor="middle" x="462" y="-7.5" font-family="Helvetica,sans-Serif" font-size="10.00">string</text>
</g>
<!-- Node10&#45;&gt;Node11 -->
<g id="edge13" class="edge"><title>Node10&#45;&gt;Node11</title>
<path fill="none" stroke="midnightblue" d="M411.64,-56.324C420.51,-48.3414 433.875,-36.3128 444.608,-26.6529"/>
<polygon fill="midnightblue" stroke="midnightblue" points="447.093,-29.1251 452.185,-19.8339 442.41,-23.922 447.093,-29.1251"/>
</g>
<!-- Node12&#45;&gt;Node4 -->
<g id="edge17" class="edge"><title>Node12&#45;&gt;Node4</title>
<path fill="none" stroke="midnightblue" d="M493.619,-56.4435C474.784,-47.6751 445.269,-33.9355 423.621,-23.8579"/>
<polygon fill="midnightblue" stroke="midnightblue" points="424.838,-20.5637 414.295,-19.5164 421.883,-26.9098 424.838,-20.5637"/>
</g>
<!-- Node12&#45;&gt;Node11 -->
<g id="edge16" class="edge"><title>Node12&#45;&gt;Node11</title>
<path fill="none" stroke="midnightblue" d="M503.744,-56.083C496.535,-48.2982 485.89,-36.8015 477.154,-27.3665"/>
<polygon fill="midnightblue" stroke="midnightblue" points="479.465,-24.7108 470.103,-19.7511 474.329,-29.4666 479.465,-24.7108"/>
</g>
<!-- Node13 -->
<g id="node14" class="node"><title>Node13</title>
<polygon fill="none" stroke="#bfbfbf" points="500.5,-0.5 500.5,-19.5 535.5,-19.5 535.5,-0.5 500.5,-0.5"/>
<text text-anchor="middle" x="518" y="-7.5" font-family="Helvetica,sans-Serif" font-size="10.00">map</text>
</g>
<!-- Node12&#45;&gt;Node13 -->
<g id="edge15" class="edge"><title>Node12&#45;&gt;Node13</title>
<path fill="none" stroke="midnightblue" d="M512.991,-56.083C513.786,-48.9272 514.929,-38.6353 515.923,-29.6911"/>
<polygon fill="midnightblue" stroke="midnightblue" points="519.402,-30.0765 517.028,-19.7511 512.445,-29.3034 519.402,-30.0765"/>
</g>
<!-- Node15 -->
<g id="node16" class="node"><title>Node15</title>
<polygon fill="none" stroke="#bfbfbf" points="454.5,-112.5 454.5,-131.5 495.5,-131.5 495.5,-112.5 454.5,-112.5"/>
<text text-anchor="middle" x="475" y="-119.5" font-family="Helvetica,sans-Serif" font-size="10.00">mpi.h</text>
</g>
<!-- Node14&#45;&gt;Node15 -->
<g id="edge20" class="edge"><title>Node14&#45;&gt;Node15</title>
<path fill="none" stroke="midnightblue" d="M469.991,-168.083C470.786,-160.927 471.929,-150.635 472.923,-141.691"/>
<polygon fill="midnightblue" stroke="midnightblue" points="476.402,-142.076 474.028,-131.751 469.445,-141.303 476.402,-142.076"/>
</g>
</g>
</svg>
