<?xml version="1.0" encoding="UTF-8" standalone="no"?>
<!DOCTYPE svg PUBLIC "-//W3C//DTD SVG 1.1//EN"
 "http://www.w3.org/Graphics/SVG/1.1/DTD/svg11.dtd">
<!-- Generated by graphviz version 2.38.0 (20140413.2041)
 -->
<!-- Title: linalg.h Pages: 1 -->
<svg width="164pt" height="84pt"
 viewBox="0.00 0.00 164.00 84.00" xmlns="http://www.w3.org/2000/svg" xmlns:xlink="http://www.w3.org/1999/xlink">
<g id="graph0" class="graph" transform="scale(1 1) rotate(0) translate(4 80)">
<title>linalg.h</title>
<!-- Node1 -->
<g id="node1" class="node"><title>Node1</title>
<polygon fill="#bfbfbf" stroke="black" points="48.5,-56.5 48.5,-75.5 95.5,-75.5 95.5,-56.5 48.5,-56.5"/>
<text text-anchor="middle" x="72" y="-63.5" font-family="Helvetica,sans-Serif" font-size="10.00">linalg.h</text>
</g>
<!-- Node2 -->
<g id="node2" class="node"><title>Node2</title>
<g id="a_node2"><a xlink:href="linalg_8cpp.html" target="_top" xlink:title="linalg.cpp">
<polygon fill="none" stroke="black" points="0,-0.5 0,-19.5 58,-19.5 58,-0.5 0,-0.5"/>
<text text-anchor="middle" x="29" y="-7.5" font-family="Helvetica,sans-Serif" font-size="10.00">linalg.cpp</text>
</a>
</g>
</g>
<!-- Node1&#45;&gt;Node2 -->
<g id="edge1" class="edge"><title>Node1&#45;&gt;Node2</title>
<path fill="none" stroke="midnightblue" d="M58.5776,-48.144C51.0858,-38.7357 42.0629,-27.4046 35.9685,-19.7511"/>
<polygon fill="midnightblue" stroke="midnightblue" points="55.9321,-50.4404 64.8994,-56.083 61.4081,-46.0799 55.9321,-50.4404"/>
</g>
<!-- Node3 -->
<g id="node3" class="node"><title>Node3</title>
<g id="a_node3"><a xlink:href="SubMatrix_8cpp.html" target="_top" xlink:title="SubMatrix.cpp">
<polygon fill="none" stroke="black" points="76,-0.5 76,-19.5 156,-19.5 156,-0.5 76,-0.5"/>
<text text-anchor="middle" x="116" y="-7.5" font-family="Helvetica,sans-Serif" font-size="10.00">SubMatrix.cpp</text>
</a>
</g>
</g>
<!-- Node1&#45;&gt;Node3 -->
<g id="edge2" class="edge"><title>Node1&#45;&gt;Node3</title>
<path fill="none" stroke="midnightblue" d="M85.7345,-48.144C93.4005,-38.7357 102.633,-27.4046 108.869,-19.7511"/>
<polygon fill="midnightblue" stroke="midnightblue" points="82.8691,-46.1198 79.2657,-56.083 88.2958,-50.5415 82.8691,-46.1198"/>
</g>
</g>
</svg>
