<?xml version="1.0" encoding="UTF-8" standalone="no"?>
<!DOCTYPE svg PUBLIC "-//W3C//DTD SVG 1.1//EN"
 "http://www.w3.org/Graphics/SVG/1.1/DTD/svg11.dtd">
<!-- Generated by graphviz version 2.38.0 (20140413.2041)
 -->
<!-- Title: MatrixMixtureProfileProcess.cpp Pages: 1 -->
<svg width="681pt" height="364pt"
 viewBox="0.00 0.00 680.50 364.00" xmlns="http://www.w3.org/2000/svg" xmlns:xlink="http://www.w3.org/1999/xlink">
<g id="graph0" class="graph" transform="scale(1 1) rotate(0) translate(4 360)">
<title>MatrixMixtureProfileProcess.cpp</title>
<!-- Node0 -->
<g id="node1" class="node"><title>Node0</title>
<polygon fill="#bfbfbf" stroke="black" points="418,-336.5 418,-355.5 576,-355.5 576,-336.5 418,-336.5"/>
<text text-anchor="middle" x="497" y="-343.5" font-family="Helvetica,sans-Serif" font-size="10.00">MatrixMixtureProfileProcess.cpp</text>
</g>
<!-- Node1 -->
<g id="node2" class="node"><title>Node1</title>
<g id="a_node2"><a xlink:href="MatrixMixtureProfileProcess_8h.html" target="_top" xlink:title="MatrixMixtureProfileProcess.h">
<polygon fill="none" stroke="black" points="365,-280.5 365,-299.5 513,-299.5 513,-280.5 365,-280.5"/>
<text text-anchor="middle" x="439" y="-287.5" font-family="Helvetica,sans-Serif" font-size="10.00">MatrixMixtureProfileProcess.h</text>
</a>
</g>
</g>
<!-- Node0&#45;&gt;Node1 -->
<g id="edge1" class="edge"><title>Node0&#45;&gt;Node1</title>
<path fill="none" stroke="midnightblue" d="M487.681,-336.324C479.107,-328.341 466.188,-316.313 455.812,-306.653"/>
<polygon fill="midnightblue" stroke="midnightblue" points="458.192,-304.086 448.488,-299.834 453.422,-309.21 458.192,-304.086"/>
</g>
<!-- Node6 -->
<g id="node7" class="node"><title>Node6</title>
<g id="a_node7"><a xlink:href="Random_8h.html" target="_top" xlink:title="Random.h">
<polygon fill="none" stroke="black" points="360,-112.5 360,-131.5 422,-131.5 422,-112.5 360,-112.5"/>
<text text-anchor="middle" x="391" y="-119.5" font-family="Helvetica,sans-Serif" font-size="10.00">Random.h</text>
</a>
</g>
</g>
<!-- Node0&#45;&gt;Node6 -->
<g id="edge29" class="edge"><title>Node0&#45;&gt;Node6</title>
<path fill="none" stroke="midnightblue" d="M419.645,-336.413C395.985,-329.989 372.01,-318.935 356,-300 316.439,-253.21 357.77,-174.583 379.471,-140.091"/>
<polygon fill="midnightblue" stroke="midnightblue" points="382.477,-141.889 384.988,-131.596 376.606,-138.076 382.477,-141.889"/>
</g>
<!-- Node20 -->
<g id="node21" class="node"><title>Node20</title>
<polygon fill="none" stroke="#bfbfbf" points="531.5,-280.5 531.5,-299.5 580.5,-299.5 580.5,-280.5 531.5,-280.5"/>
<text text-anchor="middle" x="556" y="-287.5" font-family="Helvetica,sans-Serif" font-size="10.00">cassert</text>
</g>
<!-- Node0&#45;&gt;Node20 -->
<g id="edge30" class="edge"><title>Node0&#45;&gt;Node20</title>
<path fill="none" stroke="midnightblue" d="M506.479,-336.324C515.201,-328.341 528.343,-316.313 538.898,-306.653"/>
<polygon fill="midnightblue" stroke="midnightblue" points="541.334,-309.167 546.348,-299.834 536.608,-304.004 541.334,-309.167"/>
</g>
<!-- Node21 -->
<g id="node22" class="node"><title>Node21</title>
<g id="a_node22"><a xlink:href="Parallel_8h.html" target="_top" xlink:title="Parallel.h">
<polygon fill="none" stroke="black" points="614.5,-280.5 614.5,-299.5 671.5,-299.5 671.5,-280.5 614.5,-280.5"/>
<text text-anchor="middle" x="643" y="-287.5" font-family="Helvetica,sans-Serif" font-size="10.00">Parallel.h</text>
</a>
</g>
</g>
<!-- Node0&#45;&gt;Node21 -->
<g id="edge31" class="edge"><title>Node0&#45;&gt;Node21</title>
<path fill="none" stroke="midnightblue" d="M520.134,-336.444C544.482,-327.438 583.007,-313.189 610.423,-303.049"/>
<polygon fill="midnightblue" stroke="midnightblue" points="611.809,-306.268 619.974,-299.516 609.381,-299.703 611.809,-306.268"/>
</g>
<!-- Node2 -->
<g id="node3" class="node"><title>Node2</title>
<g id="a_node3"><a xlink:href="MatrixProfileProcess_8h.html" target="_top" xlink:title="MatrixProfileProcess.h">
<polygon fill="none" stroke="black" points="497,-224.5 497,-243.5 613,-243.5 613,-224.5 497,-224.5"/>
<text text-anchor="middle" x="555" y="-231.5" font-family="Helvetica,sans-Serif" font-size="10.00">MatrixProfileProcess.h</text>
</a>
</g>
</g>
<!-- Node1&#45;&gt;Node2 -->
<g id="edge2" class="edge"><title>Node1&#45;&gt;Node2</title>
<path fill="none" stroke="midnightblue" d="M457.381,-280.444C476.216,-271.675 505.731,-257.935 527.379,-247.858"/>
<polygon fill="midnightblue" stroke="midnightblue" points="529.117,-250.91 536.705,-243.516 526.162,-244.564 529.117,-250.91"/>
</g>
<!-- Node19 -->
<g id="node20" class="node"><title>Node19</title>
<g id="a_node20"><a xlink:href="MixtureProfileProcess_8h.html" target="_top" xlink:title="MixtureProfileProcess.h">
<polygon fill="none" stroke="black" points="357.5,-224.5 357.5,-243.5 478.5,-243.5 478.5,-224.5 357.5,-224.5"/>
<text text-anchor="middle" x="418" y="-231.5" font-family="Helvetica,sans-Serif" font-size="10.00">MixtureProfileProcess.h</text>
</a>
</g>
</g>
<!-- Node1&#45;&gt;Node19 -->
<g id="edge26" class="edge"><title>Node1&#45;&gt;Node19</title>
<path fill="none" stroke="midnightblue" d="M435.532,-280.083C432.688,-272.77 428.571,-262.181 425.04,-253.103"/>
<polygon fill="midnightblue" stroke="midnightblue" points="428.29,-251.803 421.403,-243.751 421.766,-254.34 428.29,-251.803"/>
</g>
<!-- Node3 -->
<g id="node4" class="node"><title>Node3</title>
<g id="a_node4"><a xlink:href="SubMatrix_8h.html" target="_top" xlink:title="SubMatrix.h">
<polygon fill="none" stroke="black" points="518.5,-168.5 518.5,-187.5 587.5,-187.5 587.5,-168.5 518.5,-168.5"/>
<text text-anchor="middle" x="553" y="-175.5" font-family="Helvetica,sans-Serif" font-size="10.00">SubMatrix.h</text>
</a>
</g>
</g>
<!-- Node2&#45;&gt;Node3 -->
<g id="edge3" class="edge"><title>Node2&#45;&gt;Node3</title>
<path fill="none" stroke="midnightblue" d="M554.67,-224.083C554.408,-217.006 554.032,-206.861 553.703,-197.986"/>
<polygon fill="midnightblue" stroke="midnightblue" points="557.192,-197.615 553.324,-187.751 550.197,-197.874 557.192,-197.615"/>
</g>
<!-- Node11 -->
<g id="node12" class="node"><title>Node11</title>
<g id="a_node12"><a xlink:href="ProfileProcess_8h.html" target="_top" xlink:title="ProfileProcess.h">
<polygon fill="none" stroke="black" points="211.5,-168.5 211.5,-187.5 300.5,-187.5 300.5,-168.5 211.5,-168.5"/>
<text text-anchor="middle" x="256" y="-175.5" font-family="Helvetica,sans-Serif" font-size="10.00">ProfileProcess.h</text>
</a>
</g>
</g>
<!-- Node2&#45;&gt;Node11 -->
<g id="edge13" class="edge"><title>Node2&#45;&gt;Node11</title>
<path fill="none" stroke="midnightblue" d="M507.623,-224.444C454.141,-214.785 367.259,-199.094 310.873,-188.91"/>
<polygon fill="midnightblue" stroke="midnightblue" points="311.177,-185.409 300.714,-187.075 309.933,-192.297 311.177,-185.409"/>
</g>
<!-- Node4 -->
<g id="node5" class="node"><title>Node4</title>
<polygon fill="none" stroke="#bfbfbf" points="309,-0.5 309,-19.5 363,-19.5 363,-0.5 309,-0.5"/>
<text text-anchor="middle" x="336" y="-7.5" font-family="Helvetica,sans-Serif" font-size="10.00">iostream</text>
</g>
<!-- Node3&#45;&gt;Node4 -->
<g id="edge4" class="edge"><title>Node3&#45;&gt;Node4</title>
<path fill="none" stroke="midnightblue" d="M559.481,-168.234C574.657,-146.566 609.154,-89.7961 581,-56 555.03,-24.8255 435.5,-15.1748 373.52,-12.2438"/>
<polygon fill="midnightblue" stroke="midnightblue" points="373.513,-8.74024 363.37,-11.7997 373.207,-15.7335 373.513,-8.74024"/>
</g>
<!-- Node5 -->
<g id="node6" class="node"><title>Node5</title>
<polygon fill="none" stroke="#bfbfbf" points="528,-56.5 528,-75.5 572,-75.5 572,-56.5 528,-56.5"/>
<text text-anchor="middle" x="550" y="-63.5" font-family="Helvetica,sans-Serif" font-size="10.00">cmath</text>
</g>
<!-- Node3&#45;&gt;Node5 -->
<g id="edge5" class="edge"><title>Node3&#45;&gt;Node5</title>
<path fill="none" stroke="midnightblue" d="M552.765,-168.368C552.28,-150.617 551.164,-109.666 550.507,-85.5974"/>
<polygon fill="midnightblue" stroke="midnightblue" points="554.006,-85.4922 550.234,-75.5914 547.008,-85.6832 554.006,-85.4922"/>
</g>
<!-- Node3&#45;&gt;Node6 -->
<g id="edge6" class="edge"><title>Node3&#45;&gt;Node6</title>
<path fill="none" stroke="midnightblue" d="M527.331,-168.444C500.077,-159.359 456.816,-144.939 426.349,-134.783"/>
<polygon fill="midnightblue" stroke="midnightblue" points="427.143,-131.358 416.549,-131.516 424.929,-137.999 427.143,-131.358"/>
</g>
<!-- Node6&#45;&gt;Node4 -->
<g id="edge9" class="edge"><title>Node6&#45;&gt;Node4</title>
<path fill="none" stroke="midnightblue" d="M398.01,-112.105C407.329,-99.1157 421.471,-74.4937 411,-56 402.653,-41.2584 387.338,-30.8192 372.713,-23.7321"/>
<polygon fill="midnightblue" stroke="midnightblue" points="373.842,-20.4041 363.282,-19.5474 371.003,-26.8025 373.842,-20.4041"/>
</g>
<!-- Node6&#45;&gt;Node5 -->
<g id="edge7" class="edge"><title>Node6&#45;&gt;Node5</title>
<path fill="none" stroke="midnightblue" d="M416.194,-112.444C443.887,-103.038 488.419,-87.9142 518.423,-77.7242"/>
<polygon fill="midnightblue" stroke="midnightblue" points="519.653,-81.003 527.996,-74.473 517.402,-74.3748 519.653,-81.003"/>
</g>
<!-- Node7 -->
<g id="node8" class="node"><title>Node7</title>
<polygon fill="none" stroke="#bfbfbf" points="106.5,-0.5 106.5,-19.5 151.5,-19.5 151.5,-0.5 106.5,-0.5"/>
<text text-anchor="middle" x="129" y="-7.5" font-family="Helvetica,sans-Serif" font-size="10.00">cstdlib</text>
</g>
<!-- Node6&#45;&gt;Node7 -->
<g id="edge8" class="edge"><title>Node6&#45;&gt;Node7</title>
<path fill="none" stroke="midnightblue" d="M359.662,-116.352C300.895,-107.415 178.633,-87.6851 163,-76 147.732,-64.5883 138.695,-44.302 133.822,-29.419"/>
<polygon fill="midnightblue" stroke="midnightblue" points="137.156,-28.3497 130.98,-19.741 130.44,-30.3221 137.156,-28.3497"/>
</g>
<!-- Node8 -->
<g id="node9" class="node"><title>Node8</title>
<polygon fill="none" stroke="#bfbfbf" points="458,-56.5 458,-75.5 510,-75.5 510,-56.5 458,-56.5"/>
<text text-anchor="middle" x="484" y="-63.5" font-family="Helvetica,sans-Serif" font-size="10.00">sstream</text>
</g>
<!-- Node6&#45;&gt;Node8 -->
<g id="edge10" class="edge"><title>Node6&#45;&gt;Node8</title>
<path fill="none" stroke="midnightblue" d="M405.942,-112.324C420.585,-103.822 443.134,-90.7288 460.238,-80.7975"/>
<polygon fill="midnightblue" stroke="midnightblue" points="462.205,-83.7027 469.095,-75.6545 458.69,-77.6491 462.205,-83.7027"/>
</g>
<!-- Node9 -->
<g id="node10" class="node"><title>Node9</title>
<polygon fill="none" stroke="#bfbfbf" points="284,-56.5 284,-75.5 334,-75.5 334,-56.5 284,-56.5"/>
<text text-anchor="middle" x="309" y="-63.5" font-family="Helvetica,sans-Serif" font-size="10.00">iomanip</text>
</g>
<!-- Node6&#45;&gt;Node9 -->
<g id="edge11" class="edge"><title>Node6&#45;&gt;Node9</title>
<path fill="none" stroke="midnightblue" d="M377.825,-112.324C365.153,-103.979 345.767,-91.2122 330.794,-81.3524"/>
<polygon fill="midnightblue" stroke="midnightblue" points="332.419,-78.2313 322.142,-75.6545 328.569,-84.0776 332.419,-78.2313"/>
</g>
<!-- Node10 -->
<g id="node11" class="node"><title>Node10</title>
<polygon fill="none" stroke="#bfbfbf" points="352,-56.5 352,-75.5 402,-75.5 402,-56.5 352,-56.5"/>
<text text-anchor="middle" x="377" y="-63.5" font-family="Helvetica,sans-Serif" font-size="10.00">fstream</text>
</g>
<!-- Node6&#45;&gt;Node10 -->
<g id="edge12" class="edge"><title>Node6&#45;&gt;Node10</title>
<path fill="none" stroke="midnightblue" d="M388.688,-112.083C386.833,-104.927 384.165,-94.6353 381.846,-85.6911"/>
<polygon fill="midnightblue" stroke="midnightblue" points="385.166,-84.5527 379.269,-75.7511 378.391,-86.3094 385.166,-84.5527"/>
</g>
<!-- Node11&#45;&gt;Node4 -->
<g id="edge24" class="edge"><title>Node11&#45;&gt;Node4</title>
<path fill="none" stroke="midnightblue" d="M255.226,-168.334C253.779,-147.365 252.604,-92.9022 275,-56 282.998,-42.8213 296.449,-32.2812 308.688,-24.7242"/>
<polygon fill="midnightblue" stroke="midnightblue" points="310.782,-27.557 317.7,-19.5326 307.288,-21.4914 310.782,-27.557"/>
</g>
<!-- Node12 -->
<g id="node13" class="node"><title>Node12</title>
<g id="a_node13"><a xlink:href="Chrono_8h.html" target="_top" xlink:title="Chrono.h">
<polygon fill="none" stroke="black" points="172,-56.5 172,-75.5 228,-75.5 228,-56.5 172,-56.5"/>
<text text-anchor="middle" x="200" y="-63.5" font-family="Helvetica,sans-Serif" font-size="10.00">Chrono.h</text>
</a>
</g>
</g>
<!-- Node11&#45;&gt;Node12 -->
<g id="edge14" class="edge"><title>Node11&#45;&gt;Node12</title>
<path fill="none" stroke="midnightblue" d="M251.606,-168.368C242.446,-150.376 221.153,-108.55 208.974,-84.6267"/>
<polygon fill="midnightblue" stroke="midnightblue" points="212.03,-82.9152 204.374,-75.5914 205.792,-86.091 212.03,-82.9152"/>
</g>
<!-- Node15 -->
<g id="node16" class="node"><title>Node15</title>
<g id="a_node16"><a xlink:href="StateSpace_8h.html" target="_top" xlink:title="StateSpace.h">
<polygon fill="none" stroke="black" points="67,-112.5 67,-131.5 143,-131.5 143,-112.5 67,-112.5"/>
<text text-anchor="middle" x="105" y="-119.5" font-family="Helvetica,sans-Serif" font-size="10.00">StateSpace.h</text>
</a>
</g>
</g>
<!-- Node11&#45;&gt;Node15 -->
<g id="edge19" class="edge"><title>Node11&#45;&gt;Node15</title>
<path fill="none" stroke="midnightblue" d="M232.074,-168.444C206.781,-159.399 166.698,-145.064 138.32,-134.916"/>
<polygon fill="midnightblue" stroke="midnightblue" points="139.409,-131.588 128.814,-131.516 137.052,-138.179 139.409,-131.588"/>
</g>
<!-- Node18 -->
<g id="node19" class="node"><title>Node18</title>
<polygon fill="none" stroke="#bfbfbf" points="284.5,-112.5 284.5,-131.5 319.5,-131.5 319.5,-112.5 284.5,-112.5"/>
<text text-anchor="middle" x="302" y="-119.5" font-family="Helvetica,sans-Serif" font-size="10.00">map</text>
</g>
<!-- Node11&#45;&gt;Node18 -->
<g id="edge25" class="edge"><title>Node11&#45;&gt;Node18</title>
<path fill="none" stroke="midnightblue" d="M263.596,-168.083C270.227,-160.298 280.021,-148.801 288.058,-139.367"/>
<polygon fill="midnightblue" stroke="midnightblue" points="290.725,-141.633 294.545,-131.751 285.396,-137.094 290.725,-141.633"/>
</g>
<!-- Node12&#45;&gt;Node4 -->
<g id="edge17" class="edge"><title>Node12&#45;&gt;Node4</title>
<path fill="none" stroke="midnightblue" d="M221.55,-56.4435C244.031,-47.5171 279.488,-33.4387 304.98,-23.3168"/>
<polygon fill="midnightblue" stroke="midnightblue" points="306.549,-26.4598 314.551,-19.5164 303.965,-19.9539 306.549,-26.4598"/>
</g>
<!-- Node12&#45;&gt;Node7 -->
<g id="edge18" class="edge"><title>Node12&#45;&gt;Node7</title>
<path fill="none" stroke="midnightblue" d="M188.593,-56.324C177.891,-48.1849 161.659,-35.8395 148.837,-26.0874"/>
<polygon fill="midnightblue" stroke="midnightblue" points="150.693,-23.1018 140.615,-19.8339 146.456,-28.6734 150.693,-23.1018"/>
</g>
<!-- Node13 -->
<g id="node14" class="node"><title>Node13</title>
<polygon fill="none" stroke="#bfbfbf" points="169.5,-0.5 169.5,-19.5 210.5,-19.5 210.5,-0.5 169.5,-0.5"/>
<text text-anchor="middle" x="190" y="-7.5" font-family="Helvetica,sans-Serif" font-size="10.00">ctime</text>
</g>
<!-- Node12&#45;&gt;Node13 -->
<g id="edge15" class="edge"><title>Node12&#45;&gt;Node13</title>
<path fill="none" stroke="midnightblue" d="M198.349,-56.083C197.024,-48.9272 195.118,-38.6353 193.461,-29.6911"/>
<polygon fill="midnightblue" stroke="midnightblue" points="196.883,-28.9466 191.621,-19.7511 190,-30.2212 196.883,-28.9466"/>
</g>
<!-- Node14 -->
<g id="node15" class="node"><title>Node14</title>
<polygon fill="none" stroke="#bfbfbf" points="229,-0.5 229,-19.5 291,-19.5 291,-0.5 229,-0.5"/>
<text text-anchor="middle" x="260" y="-7.5" font-family="Helvetica,sans-Serif" font-size="10.00">sys/time.h</text>
</g>
<!-- Node12&#45;&gt;Node14 -->
<g id="edge16" class="edge"><title>Node12&#45;&gt;Node14</title>
<path fill="none" stroke="midnightblue" d="M209.64,-56.324C218.51,-48.3414 231.875,-36.3128 242.608,-26.6529"/>
<polygon fill="midnightblue" stroke="midnightblue" points="245.093,-29.1251 250.185,-19.8339 240.41,-23.922 245.093,-29.1251"/>
</g>
<!-- Node16 -->
<g id="node17" class="node"><title>Node16</title>
<g id="a_node17"><a xlink:href="BiologicalSequences_8h.html" target="_top" xlink:title="BiologicalSequences.h">
<polygon fill="none" stroke="black" points="0,-56.5 0,-75.5 116,-75.5 116,-56.5 0,-56.5"/>
<text text-anchor="middle" x="58" y="-63.5" font-family="Helvetica,sans-Serif" font-size="10.00">BiologicalSequences.h</text>
</a>
</g>
</g>
<!-- Node15&#45;&gt;Node16 -->
<g id="edge20" class="edge"><title>Node15&#45;&gt;Node16</title>
<path fill="none" stroke="midnightblue" d="M97.2389,-112.083C90.4632,-104.298 80.4568,-92.8015 72.2449,-83.3665"/>
<polygon fill="midnightblue" stroke="midnightblue" points="74.822,-80.9963 65.6167,-75.7511 69.5419,-85.592 74.822,-80.9963"/>
</g>
<!-- Node16&#45;&gt;Node4 -->
<g id="edge22" class="edge"><title>Node16&#45;&gt;Node4</title>
<path fill="none" stroke="midnightblue" d="M109.17,-56.4205C156.071,-48.3462 227.655,-35.4951 298.871,-20.1424"/>
<polygon fill="midnightblue" stroke="midnightblue" points="299.886,-23.5036 308.915,-17.9597 298.4,-16.6633 299.886,-23.5036"/>
</g>
<!-- Node16&#45;&gt;Node7 -->
<g id="edge21" class="edge"><title>Node16&#45;&gt;Node7</title>
<path fill="none" stroke="midnightblue" d="M69.4074,-56.324C80.1088,-48.1849 96.3407,-35.8395 109.163,-26.0874"/>
<polygon fill="midnightblue" stroke="midnightblue" points="111.544,-28.6734 117.385,-19.8339 107.307,-23.1018 111.544,-28.6734"/>
</g>
<!-- Node17 -->
<g id="node18" class="node"><title>Node17</title>
<polygon fill="none" stroke="#bfbfbf" points="37.5,-0.5 37.5,-19.5 78.5,-19.5 78.5,-0.5 37.5,-0.5"/>
<text text-anchor="middle" x="58" y="-7.5" font-family="Helvetica,sans-Serif" font-size="10.00">string</text>
</g>
<!-- Node16&#45;&gt;Node17 -->
<g id="edge23" class="edge"><title>Node16&#45;&gt;Node17</title>
<path fill="none" stroke="midnightblue" d="M58,-56.083C58,-49.0059 58,-38.8611 58,-29.9865"/>
<polygon fill="midnightblue" stroke="midnightblue" points="61.5001,-29.751 58,-19.7511 54.5001,-29.7511 61.5001,-29.751"/>
</g>
<!-- Node19&#45;&gt;Node5 -->
<g id="edge27" class="edge"><title>Node19&#45;&gt;Node5</title>
<path fill="none" stroke="midnightblue" d="M425.097,-224.075C446.235,-197.493 509.018,-118.538 536.67,-83.7633"/>
<polygon fill="midnightblue" stroke="midnightblue" points="539.702,-85.5736 543.187,-75.5681 534.223,-81.2168 539.702,-85.5736"/>
</g>
<!-- Node19&#45;&gt;Node11 -->
<g id="edge28" class="edge"><title>Node19&#45;&gt;Node11</title>
<path fill="none" stroke="midnightblue" d="M392.331,-224.444C365.077,-215.359 321.816,-200.939 291.349,-190.783"/>
<polygon fill="midnightblue" stroke="midnightblue" points="292.143,-187.358 281.549,-187.516 289.929,-193.999 292.143,-187.358"/>
</g>
<!-- Node22 -->
<g id="node23" class="node"><title>Node22</title>
<polygon fill="none" stroke="#bfbfbf" points="631.5,-224.5 631.5,-243.5 672.5,-243.5 672.5,-224.5 631.5,-224.5"/>
<text text-anchor="middle" x="652" y="-231.5" font-family="Helvetica,sans-Serif" font-size="10.00">mpi.h</text>
</g>
<!-- Node21&#45;&gt;Node22 -->
<g id="edge32" class="edge"><title>Node21&#45;&gt;Node22</title>
<path fill="none" stroke="midnightblue" d="M644.486,-280.083C645.679,-272.927 647.394,-262.635 648.885,-253.691"/>
<polygon fill="midnightblue" stroke="midnightblue" points="652.35,-254.19 650.541,-243.751 645.445,-253.04 652.35,-254.19"/>
</g>
</g>
</svg>
