<?xml version="1.0" encoding="UTF-8" standalone="no"?>
<!DOCTYPE svg PUBLIC "-//W3C//DTD SVG 1.1//EN"
 "http://www.w3.org/Graphics/SVG/1.1/DTD/svg11.dtd">
<!-- Generated by graphviz version 2.38.0 (20140413.2041)
 -->
<!-- Title: MatrixSubstitutionProcess.h Pages: 1 -->
<svg width="2207pt" height="408pt"
 viewBox="0.00 0.00 2206.50 408.00" xmlns="http://www.w3.org/2000/svg" xmlns:xlink="http://www.w3.org/1999/xlink">
<g id="graph0" class="graph" transform="scale(1 1) rotate(0) translate(4 404)">
<title>MatrixSubstitutionProcess.h</title>
<!-- Node24 -->
<g id="node1" class="node"><title>Node24</title>
<polygon fill="#bfbfbf" stroke="black" points="1370,-380.5 1370,-399.5 1510,-399.5 1510,-380.5 1370,-380.5"/>
<text text-anchor="middle" x="1440" y="-387.5" font-family="Helvetica,sans-Serif" font-size="10.00">MatrixSubstitutionProcess.h</text>
</g>
<!-- Node25 -->
<g id="node2" class="node"><title>Node25</title>
<g id="a_node2"><a xlink:href="GeneralPathSuffStatMatrixSubstitutionProcess_8h.html" target="_top" xlink:title="GeneralPathSuffStatMatrix\lSubstitutionProcess.h">
<polygon fill="none" stroke="black" points="692,-257.5 692,-287.5 826,-287.5 826,-257.5 692,-257.5"/>
<text text-anchor="start" x="700" y="-275.5" font-family="Helvetica,sans-Serif" font-size="10.00">GeneralPathSuffStatMatrix</text>
<text text-anchor="middle" x="759" y="-264.5" font-family="Helvetica,sans-Serif" font-size="10.00">SubstitutionProcess.h</text>
</a>
</g>
</g>
<!-- Node24&#45;&gt;Node25 -->
<g id="edge1" class="edge"><title>Node24&#45;&gt;Node25</title>
<path fill="none" stroke="midnightblue" d="M1379.71,-378.774C1252.75,-357.242 958.67,-307.365 826.029,-284.868"/>
<polygon fill="midnightblue" stroke="midnightblue" points="1379.2,-382.239 1389.65,-380.46 1380.37,-375.337 1379.2,-382.239"/>
</g>
<!-- Node47 -->
<g id="node24" class="node"><title>Node47</title>
<g id="a_node24"><a xlink:href="MatrixPhyloProcess_8h.html" target="_top" xlink:title="MatrixPhyloProcess.h">
<polygon fill="none" stroke="black" points="1383.5,-263 1383.5,-282 1496.5,-282 1496.5,-263 1383.5,-263"/>
<text text-anchor="middle" x="1440" y="-270" font-family="Helvetica,sans-Serif" font-size="10.00">MatrixPhyloProcess.h</text>
</a>
</g>
</g>
<!-- Node24&#45;&gt;Node47 -->
<g id="edge31" class="edge"><title>Node24&#45;&gt;Node47</title>
<path fill="none" stroke="midnightblue" d="M1440,-370.164C1440,-344.865 1440,-300.935 1440,-282.282"/>
<polygon fill="midnightblue" stroke="midnightblue" points="1436.5,-370.319 1440,-380.319 1443.5,-370.319 1436.5,-370.319"/>
</g>
<!-- Node58 -->
<g id="node35" class="node"><title>Node58</title>
<g id="a_node35"><a xlink:href="GTRSubstitutionProcess_8h.html" target="_top" xlink:title="GTRSubstitutionProcess.h">
<polygon fill="none" stroke="black" points="1278,-324.5 1278,-343.5 1412,-343.5 1412,-324.5 1278,-324.5"/>
<text text-anchor="middle" x="1345" y="-331.5" font-family="Helvetica,sans-Serif" font-size="10.00">GTRSubstitutionProcess.h</text>
</a>
</g>
</g>
<!-- Node24&#45;&gt;Node58 -->
<g id="edge45" class="edge"><title>Node24&#45;&gt;Node58</title>
<path fill="none" stroke="midnightblue" d="M1415.68,-375.177C1398.2,-365.241 1375.17,-352.149 1360.23,-343.655"/>
<polygon fill="midnightblue" stroke="midnightblue" points="1414.31,-378.425 1424.74,-380.324 1417.77,-372.339 1414.31,-378.425"/>
</g>
<!-- Node61 -->
<g id="node38" class="node"><title>Node61</title>
<g id="a_node38"><a xlink:href="MatrixSubstitutionProcess_8cpp.html" target="_top" xlink:title="MatrixSubstitutionProcess.cpp">
<polygon fill="none" stroke="black" points="1468,-324.5 1468,-343.5 1618,-343.5 1618,-324.5 1468,-324.5"/>
<text text-anchor="middle" x="1543" y="-331.5" font-family="Helvetica,sans-Serif" font-size="10.00">MatrixSubstitutionProcess.cpp</text>
</a>
</g>
</g>
<!-- Node24&#45;&gt;Node61 -->
<g id="edge51" class="edge"><title>Node24&#45;&gt;Node61</title>
<path fill="none" stroke="midnightblue" d="M1465.58,-375.59C1484.62,-365.605 1510.06,-352.267 1526.49,-343.655"/>
<polygon fill="midnightblue" stroke="midnightblue" points="1463.78,-372.581 1456.55,-380.324 1467.03,-378.78 1463.78,-372.581"/>
</g>
<!-- Node62 -->
<g id="node39" class="node"><title>Node62</title>
<g id="a_node39"><a xlink:href="Propagate_8cpp.html" target="_top" xlink:title="Propagate.cpp">
<polygon fill="none" stroke="black" points="1636,-324.5 1636,-343.5 1716,-343.5 1716,-324.5 1636,-324.5"/>
<text text-anchor="middle" x="1676" y="-331.5" font-family="Helvetica,sans-Serif" font-size="10.00">Propagate.cpp</text>
</a>
</g>
</g>
<!-- Node24&#45;&gt;Node62 -->
<g id="edge52" class="edge"><title>Node24&#45;&gt;Node62</title>
<path fill="none" stroke="midnightblue" d="M1487.41,-378.153C1532,-367.95 1597.85,-352.881 1638.78,-343.516"/>
<polygon fill="midnightblue" stroke="midnightblue" points="1486.36,-374.801 1477.39,-380.444 1487.92,-381.625 1486.36,-374.801"/>
</g>
<!-- Node26 -->
<g id="node3" class="node"><title>Node26</title>
<g id="a_node3"><a xlink:href="AACodonMutSelFiniteSubstitutionProcess_8h.html" target="_top" xlink:title="AACodonMutSelFiniteSubstitution\lProcess.h">
<polygon fill="none" stroke="black" points="844.5,-190.5 844.5,-220.5 1009.5,-220.5 1009.5,-190.5 844.5,-190.5"/>
<text text-anchor="start" x="852.5" y="-208.5" font-family="Helvetica,sans-Serif" font-size="10.00">AACodonMutSelFiniteSubstitution</text>
<text text-anchor="middle" x="927" y="-197.5" font-family="Helvetica,sans-Serif" font-size="10.00">Process.h</text>
</a>
</g>
</g>
<!-- Node25&#45;&gt;Node26 -->
<g id="edge2" class="edge"><title>Node25&#45;&gt;Node26</title>
<path fill="none" stroke="midnightblue" d="M805.054,-253.682C831.998,-243.257 865.536,-230.281 890.618,-220.577"/>
<polygon fill="midnightblue" stroke="midnightblue" points="803.517,-250.523 795.453,-257.396 806.043,-257.052 803.517,-250.523"/>
</g>
<!-- Node32 -->
<g id="node9" class="node"><title>Node32</title>
<g id="a_node9"><a xlink:href="GeneralPathSuffStatMatrixPhyloProcess_8h.html" target="_top" xlink:title="GeneralPathSuffStatMatrix\lPhyloProcess.h">
<polygon fill="none" stroke="black" points="692,-190.5 692,-220.5 826,-220.5 826,-190.5 692,-190.5"/>
<text text-anchor="start" x="700" y="-208.5" font-family="Helvetica,sans-Serif" font-size="10.00">GeneralPathSuffStatMatrix</text>
<text text-anchor="middle" x="759" y="-197.5" font-family="Helvetica,sans-Serif" font-size="10.00">PhyloProcess.h</text>
</a>
</g>
</g>
<!-- Node25&#45;&gt;Node32 -->
<g id="edge8" class="edge"><title>Node25&#45;&gt;Node32</title>
<path fill="none" stroke="midnightblue" d="M759,-247.108C759,-238.154 759,-228.323 759,-220.577"/>
<polygon fill="midnightblue" stroke="midnightblue" points="755.5,-247.396 759,-257.396 762.5,-247.396 755.5,-247.396"/>
</g>
<!-- Node41 -->
<g id="node18" class="node"><title>Node41</title>
<g id="a_node18"><a xlink:href="AACodonMutSelGeneSubstitutionProcess_8h.html" target="_top" xlink:title="AACodonMutSelGeneSubstitution\lProcess.h">
<polygon fill="none" stroke="black" points="0,-190.5 0,-220.5 164,-220.5 164,-190.5 0,-190.5"/>
<text text-anchor="start" x="8" y="-208.5" font-family="Helvetica,sans-Serif" font-size="10.00">AACodonMutSelGeneSubstitution</text>
<text text-anchor="middle" x="82" y="-197.5" font-family="Helvetica,sans-Serif" font-size="10.00">Process.h</text>
</a>
</g>
</g>
<!-- Node25&#45;&gt;Node41 -->
<g id="edge21" class="edge"><title>Node25&#45;&gt;Node41</title>
<path fill="none" stroke="midnightblue" d="M681.382,-266.599C569.013,-259.098 354.583,-243.262 173,-221 170.142,-220.65 167.236,-220.277 164.302,-219.886"/>
<polygon fill="midnightblue" stroke="midnightblue" points="681.394,-270.107 691.604,-267.277 681.857,-263.122 681.394,-270.107"/>
</g>
<!-- Node42 -->
<g id="node19" class="node"><title>Node42</title>
<g id="a_node19"><a xlink:href="AACodonMutSelSBDPSubstitutionProcess_8h.html" target="_top" xlink:title="AACodonMutSelSBDPSubstitution\lProcess.h">
<polygon fill="none" stroke="black" points="334.5,-190.5 334.5,-220.5 503.5,-220.5 503.5,-190.5 334.5,-190.5"/>
<text text-anchor="start" x="342.5" y="-208.5" font-family="Helvetica,sans-Serif" font-size="10.00">AACodonMutSelSBDPSubstitution</text>
<text text-anchor="middle" x="419" y="-197.5" font-family="Helvetica,sans-Serif" font-size="10.00">Process.h</text>
</a>
</g>
</g>
<!-- Node25&#45;&gt;Node42 -->
<g id="edge23" class="edge"><title>Node25&#45;&gt;Node42</title>
<path fill="none" stroke="midnightblue" d="M681.827,-256.746C625.067,-245.895 548.396,-231.237 492.516,-220.555"/>
<polygon fill="midnightblue" stroke="midnightblue" points="681.348,-260.218 691.827,-258.658 682.662,-253.343 681.348,-260.218"/>
</g>
<!-- Node43 -->
<g id="node20" class="node"><title>Node43</title>
<g id="a_node20"><a xlink:href="CodonMutSelFiniteSubstitutionProcess_8h.html" target="_top" xlink:title="CodonMutSelFiniteSubstitution\lProcess.h">
<polygon fill="none" stroke="black" points="522,-190.5 522,-220.5 674,-220.5 674,-190.5 522,-190.5"/>
<text text-anchor="start" x="530" y="-208.5" font-family="Helvetica,sans-Serif" font-size="10.00">CodonMutSelFiniteSubstitution</text>
<text text-anchor="middle" x="598" y="-197.5" font-family="Helvetica,sans-Serif" font-size="10.00">Process.h</text>
</a>
</g>
</g>
<!-- Node25&#45;&gt;Node43 -->
<g id="edge25" class="edge"><title>Node25&#45;&gt;Node43</title>
<path fill="none" stroke="midnightblue" d="M714.525,-253.544C688.762,-243.143 656.797,-230.238 632.866,-220.577"/>
<polygon fill="midnightblue" stroke="midnightblue" points="713.482,-256.898 724.065,-257.396 716.103,-250.407 713.482,-256.898"/>
</g>
<!-- Node44 -->
<g id="node21" class="node"><title>Node44</title>
<g id="a_node21"><a xlink:href="CodonMutSelSBDPSubstitutionProcess_8h.html" target="_top" xlink:title="CodonMutSelSBDPSubstitution\lProcess.h">
<polygon fill="none" stroke="black" points="1027.5,-190.5 1027.5,-220.5 1182.5,-220.5 1182.5,-190.5 1027.5,-190.5"/>
<text text-anchor="start" x="1035.5" y="-208.5" font-family="Helvetica,sans-Serif" font-size="10.00">CodonMutSelSBDPSubstitution</text>
<text text-anchor="middle" x="1105" y="-197.5" font-family="Helvetica,sans-Serif" font-size="10.00">Process.h</text>
</a>
</g>
</g>
<!-- Node25&#45;&gt;Node44 -->
<g id="edge27" class="edge"><title>Node25&#45;&gt;Node44</title>
<path fill="none" stroke="midnightblue" d="M835.958,-257.043C893.896,-246.158 972.87,-231.322 1030.26,-220.541"/>
<polygon fill="midnightblue" stroke="midnightblue" points="835.304,-253.604 826.123,-258.89 836.597,-260.484 835.304,-253.604"/>
</g>
<!-- Node45 -->
<g id="node22" class="node"><title>Node45</title>
<g id="a_node22"><a xlink:href="GeneralPathSuffStatGTRSubstitutionProcess_8h.html" target="_top" xlink:title="GeneralPathSuffStatGTRSubstitution\lProcess.h">
<polygon fill="none" stroke="black" points="1200.5,-190.5 1200.5,-220.5 1379.5,-220.5 1379.5,-190.5 1200.5,-190.5"/>
<text text-anchor="start" x="1208.5" y="-208.5" font-family="Helvetica,sans-Serif" font-size="10.00">GeneralPathSuffStatGTRSubstitution</text>
<text text-anchor="middle" x="1290" y="-197.5" font-family="Helvetica,sans-Serif" font-size="10.00">Process.h</text>
</a>
</g>
</g>
<!-- Node25&#45;&gt;Node45 -->
<g id="edge29" class="edge"><title>Node25&#45;&gt;Node45</title>
<path fill="none" stroke="midnightblue" d="M836.044,-263.177C922.516,-253.677 1066.96,-237.331 1191,-221 1194.1,-220.592 1197.25,-220.169 1200.44,-219.737"/>
<polygon fill="midnightblue" stroke="midnightblue" points="835.609,-259.704 826.05,-264.273 836.372,-266.662 835.609,-259.704"/>
</g>
<!-- Node46 -->
<g id="node23" class="node"><title>Node46</title>
<g id="a_node23"><a xlink:href="GeneralPathSuffStatMatrixSubstitutionProcess_8cpp.html" target="_top" xlink:title="GeneralPathSuffStatMatrix\lSubstitutionProcess.cpp">
<polygon fill="none" stroke="black" points="182,-190.5 182,-220.5 316,-220.5 316,-190.5 182,-190.5"/>
<text text-anchor="start" x="190" y="-208.5" font-family="Helvetica,sans-Serif" font-size="10.00">GeneralPathSuffStatMatrix</text>
<text text-anchor="middle" x="249" y="-197.5" font-family="Helvetica,sans-Serif" font-size="10.00">SubstitutionProcess.cpp</text>
</a>
</g>
</g>
<!-- Node25&#45;&gt;Node46 -->
<g id="edge30" class="edge"><title>Node25&#45;&gt;Node46</title>
<path fill="none" stroke="midnightblue" d="M681.834,-264.231C594.877,-255.643 449.413,-240.081 325,-221 322.079,-220.552 319.099,-220.074 316.091,-219.574"/>
<polygon fill="midnightblue" stroke="midnightblue" points="681.589,-267.724 691.883,-265.218 682.273,-260.757 681.589,-267.724"/>
</g>
<!-- Node27 -->
<g id="node4" class="node"><title>Node27</title>
<g id="a_node4"><a xlink:href="AACodonMutSelFinitePhyloProcess_8h.html" target="_top" xlink:title="AACodonMutSelFinitePhylo\lProcess.h">
<polygon fill="none" stroke="black" points="855,-123.5 855,-153.5 993,-153.5 993,-123.5 855,-123.5"/>
<text text-anchor="start" x="863" y="-141.5" font-family="Helvetica,sans-Serif" font-size="10.00">AACodonMutSelFinitePhylo</text>
<text text-anchor="middle" x="924" y="-130.5" font-family="Helvetica,sans-Serif" font-size="10.00">Process.h</text>
</a>
</g>
</g>
<!-- Node26&#45;&gt;Node27 -->
<g id="edge3" class="edge"><title>Node26&#45;&gt;Node27</title>
<path fill="none" stroke="midnightblue" d="M925.888,-180.403C925.471,-171.37 925.011,-161.408 924.65,-153.577"/>
<polygon fill="midnightblue" stroke="midnightblue" points="922.392,-180.568 926.349,-190.396 929.384,-180.245 922.392,-180.568"/>
</g>
<!-- Node28 -->
<g id="node5" class="node"><title>Node28</title>
<g id="a_node5"><a xlink:href="AACodonMutSelFinitePhyloProcess_8cpp.html" target="_top" xlink:title="AACodonMutSelFinitePhylo\lProcess.cpp">
<polygon fill="none" stroke="black" points="781,-56.5 781,-86.5 919,-86.5 919,-56.5 781,-56.5"/>
<text text-anchor="start" x="789" y="-74.5" font-family="Helvetica,sans-Serif" font-size="10.00">AACodonMutSelFinitePhylo</text>
<text text-anchor="middle" x="850" y="-63.5" font-family="Helvetica,sans-Serif" font-size="10.00">Process.cpp</text>
</a>
</g>
</g>
<!-- Node27&#45;&gt;Node28 -->
<g id="edge4" class="edge"><title>Node27&#45;&gt;Node28</title>
<path fill="none" stroke="midnightblue" d="M900.204,-116.598C889.03,-106.783 876.007,-95.3442 866.026,-86.5765"/>
<polygon fill="midnightblue" stroke="midnightblue" points="898.12,-119.426 907.943,-123.396 902.74,-114.167 898.12,-119.426"/>
</g>
<!-- Node29 -->
<g id="node6" class="node"><title>Node29</title>
<g id="a_node6"><a xlink:href="Model_8h.html" target="_top" xlink:title="Model.h">
<polygon fill="none" stroke="black" points="937.5,-62 937.5,-81 988.5,-81 988.5,-62 937.5,-62"/>
<text text-anchor="middle" x="963" y="-69" font-family="Helvetica,sans-Serif" font-size="10.00">Model.h</text>
</a>
</g>
</g>
<!-- Node27&#45;&gt;Node29 -->
<g id="edge5" class="edge"><title>Node27&#45;&gt;Node29</title>
<path fill="none" stroke="midnightblue" d="M937.721,-114.632C944.66,-103.067 952.672,-89.7142 957.783,-81.1945"/>
<polygon fill="midnightblue" stroke="midnightblue" points="934.606,-113.02 932.462,-123.396 940.609,-116.622 934.606,-113.02"/>
</g>
<!-- Node30 -->
<g id="node7" class="node"><title>Node30</title>
<g id="a_node7"><a xlink:href="PB_8cpp.html" target="_top" xlink:title="PB.cpp">
<polygon fill="none" stroke="black" points="899.5,-0.5 899.5,-19.5 948.5,-19.5 948.5,-0.5 899.5,-0.5"/>
<text text-anchor="middle" x="924" y="-7.5" font-family="Helvetica,sans-Serif" font-size="10.00">PB.cpp</text>
</a>
</g>
</g>
<!-- Node29&#45;&gt;Node30 -->
<g id="edge6" class="edge"><title>Node29&#45;&gt;Node30</title>
<path fill="none" stroke="midnightblue" d="M951.86,-53.5051C944.574,-42.388 935.365,-28.3395 929.577,-19.5091"/>
<polygon fill="midnightblue" stroke="midnightblue" points="949.003,-55.5303 957.412,-61.9751 954.857,-51.6929 949.003,-55.5303"/>
</g>
<!-- Node31 -->
<g id="node8" class="node"><title>Node31</title>
<g id="a_node8"><a xlink:href="ReadPB_8cpp.html" target="_top" xlink:title="ReadPB.cpp">
<polygon fill="none" stroke="black" points="967,-0.5 967,-19.5 1039,-19.5 1039,-0.5 967,-0.5"/>
<text text-anchor="middle" x="1003" y="-7.5" font-family="Helvetica,sans-Serif" font-size="10.00">ReadPB.cpp</text>
</a>
</g>
</g>
<!-- Node29&#45;&gt;Node31 -->
<g id="edge7" class="edge"><title>Node29&#45;&gt;Node31</title>
<path fill="none" stroke="midnightblue" d="M974.425,-53.5051C981.899,-42.388 991.343,-28.3395 997.28,-19.5091"/>
<polygon fill="midnightblue" stroke="midnightblue" points="971.406,-51.7234 968.731,-61.9751 977.215,-55.6288 971.406,-51.7234"/>
</g>
<!-- Node32&#45;&gt;Node27 -->
<g id="edge9" class="edge"><title>Node32&#45;&gt;Node27</title>
<path fill="none" stroke="midnightblue" d="M804.232,-186.682C830.694,-176.257 863.634,-163.281 888.267,-153.577"/>
<polygon fill="midnightblue" stroke="midnightblue" points="802.824,-183.474 794.803,-190.396 805.389,-189.987 802.824,-183.474"/>
</g>
<!-- Node33 -->
<g id="node10" class="node"><title>Node33</title>
<g id="a_node10"><a xlink:href="AACodonMutSelGenePhyloProcess_8h.html" target="_top" xlink:title="AACodonMutSelGenePhyloProcess.h">
<polygon fill="none" stroke="black" points="51,-129 51,-148 233,-148 233,-129 51,-129"/>
<text text-anchor="middle" x="142" y="-136" font-family="Helvetica,sans-Serif" font-size="10.00">AACodonMutSelGenePhyloProcess.h</text>
</a>
</g>
</g>
<!-- Node32&#45;&gt;Node33 -->
<g id="edge10" class="edge"><title>Node32&#45;&gt;Node33</title>
<path fill="none" stroke="midnightblue" d="M681.866,-190.103C622.443,-183.357 371.011,-160.333 233.069,-147.773"/>
<polygon fill="midnightblue" stroke="midnightblue" points="681.568,-193.592 691.921,-191.342 682.425,-186.645 681.568,-193.592"/>
</g>
<!-- Node34 -->
<g id="node11" class="node"><title>Node34</title>
<g id="a_node11"><a xlink:href="AACodonMutSelSBDPPhyloProcess_8h.html" target="_top" xlink:title="AACodonMutSelSBDPPhyloProcess.h">
<polygon fill="none" stroke="black" points="312,-129 312,-148 498,-148 498,-129 312,-129"/>
<text text-anchor="middle" x="405" y="-136" font-family="Helvetica,sans-Serif" font-size="10.00">AACodonMutSelSBDPPhyloProcess.h</text>
</a>
</g>
</g>
<!-- Node32&#45;&gt;Node34 -->
<g id="edge11" class="edge"><title>Node32&#45;&gt;Node34</title>
<path fill="none" stroke="midnightblue" d="M681.873,-189.799C595.294,-173.708 506.082,-157.612 452.74,-148.04"/>
<polygon fill="midnightblue" stroke="midnightblue" points="681.398,-193.27 691.869,-191.659 682.678,-186.389 681.398,-193.27"/>
</g>
<!-- Node36 -->
<g id="node13" class="node"><title>Node36</title>
<g id="a_node13"><a xlink:href="CodonMutSelFinitePhyloProcess_8h.html" target="_top" xlink:title="CodonMutSelFinitePhyloProcess.h">
<polygon fill="none" stroke="black" points="515.5,-129 515.5,-148 684.5,-148 684.5,-129 515.5,-129"/>
<text text-anchor="middle" x="600" y="-136" font-family="Helvetica,sans-Serif" font-size="10.00">CodonMutSelFinitePhyloProcess.h</text>
</a>
</g>
</g>
<!-- Node32&#45;&gt;Node36 -->
<g id="edge14" class="edge"><title>Node32&#45;&gt;Node36</title>
<path fill="none" stroke="midnightblue" d="M714.868,-186.458C684.148,-173.9 644.579,-157.724 620.809,-148.007"/>
<polygon fill="midnightblue" stroke="midnightblue" points="713.919,-189.852 724.499,-190.396 716.567,-183.372 713.919,-189.852"/>
</g>
<!-- Node38 -->
<g id="node15" class="node"><title>Node38</title>
<g id="a_node15"><a xlink:href="CodonMutSelSBDPPhyloProcess_8h.html" target="_top" xlink:title="CodonMutSelSBDPPhyloProcess.h">
<polygon fill="none" stroke="black" points="1011.5,-129 1011.5,-148 1184.5,-148 1184.5,-129 1011.5,-129"/>
<text text-anchor="middle" x="1098" y="-136" font-family="Helvetica,sans-Serif" font-size="10.00">CodonMutSelSBDPPhyloProcess.h</text>
</a>
</g>
</g>
<!-- Node32&#45;&gt;Node38 -->
<g id="edge17" class="edge"><title>Node32&#45;&gt;Node38</title>
<path fill="none" stroke="midnightblue" d="M836.489,-189.642C903.599,-176.775 998.321,-158.612 1053.43,-148.046"/>
<polygon fill="midnightblue" stroke="midnightblue" points="835.543,-186.26 826.381,-191.58 836.861,-193.135 835.543,-186.26"/>
</g>
<!-- Node40 -->
<g id="node17" class="node"><title>Node40</title>
<g id="a_node17"><a xlink:href="GeneralPathSuffStatMatrixPhyloProcess_8cpp.html" target="_top" xlink:title="GeneralPathSuffStatMatrix\lPhyloProcess.cpp">
<polygon fill="none" stroke="black" points="703,-123.5 703,-153.5 837,-153.5 837,-123.5 703,-123.5"/>
<text text-anchor="start" x="711" y="-141.5" font-family="Helvetica,sans-Serif" font-size="10.00">GeneralPathSuffStatMatrix</text>
<text text-anchor="middle" x="770" y="-130.5" font-family="Helvetica,sans-Serif" font-size="10.00">PhyloProcess.cpp</text>
</a>
</g>
</g>
<!-- Node32&#45;&gt;Node40 -->
<g id="edge20" class="edge"><title>Node32&#45;&gt;Node40</title>
<path fill="none" stroke="midnightblue" d="M763.078,-180.403C764.607,-171.37 766.293,-161.408 767.618,-153.577"/>
<polygon fill="midnightblue" stroke="midnightblue" points="759.605,-179.952 761.387,-190.396 766.506,-181.12 759.605,-179.952"/>
</g>
<!-- Node34&#45;&gt;Node29 -->
<g id="edge13" class="edge"><title>Node34&#45;&gt;Node29</title>
<path fill="none" stroke="midnightblue" d="M470.476,-127.541C482.285,-125.904 494.498,-124.315 506,-123 693.018,-101.616 745.111,-131.549 928,-87 933.751,-85.5991 939.785,-83.391 945.191,-81.1165"/>
<polygon fill="midnightblue" stroke="midnightblue" points="469.642,-124.124 460.229,-128.986 470.62,-131.055 469.642,-124.124"/>
</g>
<!-- Node35 -->
<g id="node12" class="node"><title>Node35</title>
<g id="a_node12"><a xlink:href="AACodonMutSelSBDPPhyloProcess_8cpp.html" target="_top" xlink:title="AACodonMutSelSBDPPhyloProcess.cpp">
<polygon fill="none" stroke="black" points="301.5,-62 301.5,-81 498.5,-81 498.5,-62 301.5,-62"/>
<text text-anchor="middle" x="400" y="-69" font-family="Helvetica,sans-Serif" font-size="10.00">AACodonMutSelSBDPPhyloProcess.cpp</text>
</a>
</g>
</g>
<!-- Node34&#45;&gt;Node35 -->
<g id="edge12" class="edge"><title>Node34&#45;&gt;Node35</title>
<path fill="none" stroke="midnightblue" d="M403.541,-118.537C402.59,-106.17 401.394,-90.6198 400.664,-81.1273"/>
<polygon fill="midnightblue" stroke="midnightblue" points="400.069,-119.032 404.326,-128.734 407.048,-118.495 400.069,-119.032"/>
</g>
<!-- Node36&#45;&gt;Node29 -->
<g id="edge16" class="edge"><title>Node36&#45;&gt;Node29</title>
<path fill="none" stroke="midnightblue" d="M665.156,-127.446C674.826,-125.955 684.673,-124.437 694,-123 797.997,-106.979 826.665,-115.341 928,-87 933.574,-85.4411 939.452,-83.2406 944.766,-81.0237"/>
<polygon fill="midnightblue" stroke="midnightblue" points="664.522,-124.002 655.172,-128.986 665.589,-130.92 664.522,-124.002"/>
</g>
<!-- Node37 -->
<g id="node14" class="node"><title>Node37</title>
<g id="a_node14"><a xlink:href="CodonMutSelFinitePhyloProcess_8cpp.html" target="_top" xlink:title="CodonMutSelFinitePhyloProcess.cpp">
<polygon fill="none" stroke="black" points="516.5,-62 516.5,-81 695.5,-81 695.5,-62 516.5,-62"/>
<text text-anchor="middle" x="606" y="-69" font-family="Helvetica,sans-Serif" font-size="10.00">CodonMutSelFinitePhyloProcess.cpp</text>
</a>
</g>
</g>
<!-- Node36&#45;&gt;Node37 -->
<g id="edge15" class="edge"><title>Node36&#45;&gt;Node37</title>
<path fill="none" stroke="midnightblue" d="M601.75,-118.537C602.892,-106.17 604.327,-90.6198 605.204,-81.1273"/>
<polygon fill="midnightblue" stroke="midnightblue" points="598.243,-118.454 600.809,-128.734 605.214,-119.098 598.243,-118.454"/>
</g>
<!-- Node38&#45;&gt;Node29 -->
<g id="edge19" class="edge"><title>Node38&#45;&gt;Node29</title>
<path fill="none" stroke="midnightblue" d="M1070.88,-124.444C1044.14,-111.569 1004.03,-92.2573 981.001,-81.1672"/>
<polygon fill="midnightblue" stroke="midnightblue" points="1069.54,-127.684 1080.07,-128.869 1072.58,-121.377 1069.54,-127.684"/>
</g>
<!-- Node39 -->
<g id="node16" class="node"><title>Node39</title>
<g id="a_node16"><a xlink:href="CodonMutSelSBDPPhyloProcess_8cpp.html" target="_top" xlink:title="CodonMutSelSBDPPhyloProcess.cpp">
<polygon fill="none" stroke="black" points="1006.5,-62 1006.5,-81 1189.5,-81 1189.5,-62 1006.5,-62"/>
<text text-anchor="middle" x="1098" y="-69" font-family="Helvetica,sans-Serif" font-size="10.00">CodonMutSelSBDPPhyloProcess.cpp</text>
</a>
</g>
</g>
<!-- Node38&#45;&gt;Node39 -->
<g id="edge18" class="edge"><title>Node38&#45;&gt;Node39</title>
<path fill="none" stroke="midnightblue" d="M1098,-118.537C1098,-106.17 1098,-90.6198 1098,-81.1273"/>
<polygon fill="midnightblue" stroke="midnightblue" points="1094.5,-118.734 1098,-128.734 1101.5,-118.734 1094.5,-118.734"/>
</g>
<!-- Node41&#45;&gt;Node33 -->
<g id="edge22" class="edge"><title>Node41&#45;&gt;Node33</title>
<path fill="none" stroke="midnightblue" d="M101.849,-182.997C112.801,-171.132 125.799,-157.052 133.974,-148.195"/>
<polygon fill="midnightblue" stroke="midnightblue" points="99.2301,-180.674 95.0191,-190.396 104.374,-185.422 99.2301,-180.674"/>
</g>
<!-- Node42&#45;&gt;Node34 -->
<g id="edge24" class="edge"><title>Node42&#45;&gt;Node34</title>
<path fill="none" stroke="midnightblue" d="M413.852,-180.596C411.414,-169.278 408.653,-156.461 406.873,-148.195"/>
<polygon fill="midnightblue" stroke="midnightblue" points="410.435,-181.357 415.962,-190.396 417.278,-179.883 410.435,-181.357"/>
</g>
<!-- Node43&#45;&gt;Node36 -->
<g id="edge26" class="edge"><title>Node43&#45;&gt;Node36</title>
<path fill="none" stroke="midnightblue" d="M598.746,-180.25C599.092,-169.017 599.481,-156.377 599.732,-148.195"/>
<polygon fill="midnightblue" stroke="midnightblue" points="595.243,-180.293 598.434,-190.396 602.24,-180.508 595.243,-180.293"/>
</g>
<!-- Node44&#45;&gt;Node38 -->
<g id="edge28" class="edge"><title>Node44&#45;&gt;Node38</title>
<path fill="none" stroke="midnightblue" d="M1102.39,-180.25C1101.18,-169.017 1099.82,-156.377 1098.94,-148.195"/>
<polygon fill="midnightblue" stroke="midnightblue" points="1098.93,-180.828 1103.48,-190.396 1105.89,-180.079 1098.93,-180.828"/>
</g>
<!-- Node47&#45;&gt;Node32 -->
<g id="edge32" class="edge"><title>Node47&#45;&gt;Node32</title>
<path fill="none" stroke="midnightblue" d="M1373.38,-268.237C1261.67,-262.251 1029.69,-247.622 835,-221 832.072,-220.6 829.086,-220.161 826.074,-219.694"/>
<polygon fill="midnightblue" stroke="midnightblue" points="1373.31,-271.738 1383.48,-268.772 1373.68,-264.748 1373.31,-271.738"/>
</g>
<!-- Node48 -->
<g id="node25" class="node"><title>Node48</title>
<g id="a_node25"><a xlink:href="ExpoConjugateGTRPhyloProcess_8h.html" target="_top" xlink:title="ExpoConjugateGTRPhyloProcess.h">
<polygon fill="none" stroke="black" points="1538.5,-196 1538.5,-215 1711.5,-215 1711.5,-196 1538.5,-196"/>
<text text-anchor="middle" x="1625" y="-203" font-family="Helvetica,sans-Serif" font-size="10.00">ExpoConjugateGTRPhyloProcess.h</text>
</a>
</g>
</g>
<!-- Node47&#45;&gt;Node48 -->
<g id="edge33" class="edge"><title>Node47&#45;&gt;Node48</title>
<path fill="none" stroke="midnightblue" d="M1474.34,-259.436C1511.04,-246.542 1568.29,-226.424 1600.63,-215.064"/>
<polygon fill="midnightblue" stroke="midnightblue" points="1472.84,-256.251 1464.57,-262.869 1475.16,-262.856 1472.84,-256.251"/>
</g>
<!-- Node57 -->
<g id="node34" class="node"><title>Node57</title>
<g id="a_node34"><a xlink:href="MatrixPhyloProcess_8cpp.html" target="_top" xlink:title="MatrixPhyloProcess.cpp">
<polygon fill="none" stroke="black" points="1397.5,-196 1397.5,-215 1520.5,-215 1520.5,-196 1397.5,-196"/>
<text text-anchor="middle" x="1459" y="-203" font-family="Helvetica,sans-Serif" font-size="10.00">MatrixPhyloProcess.cpp</text>
</a>
</g>
</g>
<!-- Node47&#45;&gt;Node57 -->
<g id="edge44" class="edge"><title>Node47&#45;&gt;Node57</title>
<path fill="none" stroke="midnightblue" d="M1445.43,-252.915C1449.06,-240.488 1453.68,-224.717 1456.48,-215.127"/>
<polygon fill="midnightblue" stroke="midnightblue" points="1442.01,-252.153 1442.56,-262.734 1448.73,-254.117 1442.01,-252.153"/>
</g>
<!-- Node49 -->
<g id="node26" class="node"><title>Node49</title>
<g id="a_node26"><a xlink:href="ExpoConjugateGTRGeneGammaPhyloProcess_8h.html" target="_top" xlink:title="ExpoConjugateGTRGeneGamma\lPhyloProcess.h">
<polygon fill="none" stroke="black" points="1431,-123.5 1431,-153.5 1593,-153.5 1593,-123.5 1431,-123.5"/>
<text text-anchor="start" x="1439" y="-141.5" font-family="Helvetica,sans-Serif" font-size="10.00">ExpoConjugateGTRGeneGamma</text>
<text text-anchor="middle" x="1512" y="-130.5" font-family="Helvetica,sans-Serif" font-size="10.00">PhyloProcess.h</text>
</a>
</g>
</g>
<!-- Node48&#45;&gt;Node49 -->
<g id="edge34" class="edge"><title>Node48&#45;&gt;Node49</title>
<path fill="none" stroke="midnightblue" d="M1600.84,-190.604C1581.87,-179.689 1555.55,-164.553 1536.49,-153.589"/>
<polygon fill="midnightblue" stroke="midnightblue" points="1599.35,-193.781 1609.76,-195.734 1602.84,-187.714 1599.35,-193.781"/>
</g>
<!-- Node50 -->
<g id="node27" class="node"><title>Node50</title>
<g id="a_node27"><a xlink:href="ExpoConjugateGTRPhyloProcess_8cpp.html" target="_top" xlink:title="ExpoConjugateGTRPhyloProcess.cpp">
<polygon fill="none" stroke="black" points="1611,-129 1611,-148 1795,-148 1795,-129 1611,-129"/>
<text text-anchor="middle" x="1703" y="-136" font-family="Helvetica,sans-Serif" font-size="10.00">ExpoConjugateGTRPhyloProcess.cpp</text>
</a>
</g>
</g>
<!-- Node48&#45;&gt;Node50 -->
<g id="edge35" class="edge"><title>Node48&#45;&gt;Node50</title>
<path fill="none" stroke="midnightblue" d="M1643.34,-189.213C1658.71,-176.407 1680.09,-158.588 1692.65,-148.127"/>
<polygon fill="midnightblue" stroke="midnightblue" points="1640.96,-186.643 1635.52,-195.734 1645.44,-192.021 1640.96,-186.643"/>
</g>
<!-- Node51 -->
<g id="node28" class="node"><title>Node51</title>
<g id="a_node28"><a xlink:href="RASCATGTRFiniteGammaPhyloProcess_8h.html" target="_top" xlink:title="RASCATGTRFiniteGammaPhylo\lProcess.h">
<polygon fill="none" stroke="black" points="1813,-123.5 1813,-153.5 1975,-153.5 1975,-123.5 1813,-123.5"/>
<text text-anchor="start" x="1821" y="-141.5" font-family="Helvetica,sans-Serif" font-size="10.00">RASCATGTRFiniteGammaPhylo</text>
<text text-anchor="middle" x="1894" y="-130.5" font-family="Helvetica,sans-Serif" font-size="10.00">Process.h</text>
</a>
</g>
</g>
<!-- Node48&#45;&gt;Node51 -->
<g id="edge36" class="edge"><title>Node48&#45;&gt;Node51</title>
<path fill="none" stroke="midnightblue" d="M1670.33,-193.547C1715.86,-182.546 1786.19,-165.55 1835.82,-153.559"/>
<polygon fill="midnightblue" stroke="midnightblue" points="1669.34,-190.185 1660.44,-195.936 1670.99,-196.989 1669.34,-190.185"/>
</g>
<!-- Node53 -->
<g id="node30" class="node"><title>Node53</title>
<g id="a_node30"><a xlink:href="RASCATGTRSBDPGammaPhyloProcess_8h.html" target="_top" xlink:title="RASCATGTRSBDPGammaPhyloProcess.h">
<polygon fill="none" stroke="black" points="1203,-129 1203,-148 1413,-148 1413,-129 1203,-129"/>
<text text-anchor="middle" x="1308" y="-136" font-family="Helvetica,sans-Serif" font-size="10.00">RASCATGTRSBDPGammaPhyloProcess.h</text>
</a>
</g>
</g>
<!-- Node48&#45;&gt;Node53 -->
<g id="edge39" class="edge"><title>Node48&#45;&gt;Node53</title>
<path fill="none" stroke="midnightblue" d="M1573.2,-193.879C1510.77,-181.077 1407.09,-159.819 1349.61,-148.032"/>
<polygon fill="midnightblue" stroke="midnightblue" points="1572.73,-197.355 1583.23,-195.936 1574.14,-190.498 1572.73,-197.355"/>
</g>
<!-- Node55 -->
<g id="node32" class="node"><title>Node55</title>
<g id="a_node32"><a xlink:href="RASCATGTRDPGammaPhyloProcess_8h.html" target="_top" xlink:title="RASCATGTRDPGammaPhyloProcess.h">
<polygon fill="none" stroke="black" points="1995.5,-129 1995.5,-148 2192.5,-148 2192.5,-129 1995.5,-129"/>
<text text-anchor="middle" x="2094" y="-136" font-family="Helvetica,sans-Serif" font-size="10.00">RASCATGTRDPGammaPhyloProcess.h</text>
</a>
</g>
</g>
<!-- Node48&#45;&gt;Node55 -->
<g id="edge42" class="edge"><title>Node48&#45;&gt;Node55</title>
<path fill="none" stroke="midnightblue" d="M1690.43,-194.479C1700.66,-192.953 1711.11,-191.416 1721,-190 1779.22,-181.663 1939.97,-160.083 2030.29,-148.005"/>
<polygon fill="midnightblue" stroke="midnightblue" points="1689.68,-191.053 1680.31,-195.997 1690.72,-197.976 1689.68,-191.053"/>
</g>
<!-- Node51&#45;&gt;Node29 -->
<g id="edge37" class="edge"><title>Node51&#45;&gt;Node29</title>
<path fill="none" stroke="midnightblue" d="M1802.51,-122.98C1609.57,-105.453 1168.96,-126.148 997,-87 991.244,-85.6895 985.233,-83.4482 979.895,-81.1144"/>
<polygon fill="midnightblue" stroke="midnightblue" points="1802.33,-126.48 1812.62,-123.958 1803,-119.512 1802.33,-126.48"/>
</g>
<!-- Node52 -->
<g id="node29" class="node"><title>Node52</title>
<g id="a_node29"><a xlink:href="RASCATGTRFiniteGammaPhyloProcess_8cpp.html" target="_top" xlink:title="RASCATGTRFiniteGammaPhylo\lProcess.cpp">
<polygon fill="none" stroke="black" points="1811,-56.5 1811,-86.5 1973,-86.5 1973,-56.5 1811,-56.5"/>
<text text-anchor="start" x="1819" y="-74.5" font-family="Helvetica,sans-Serif" font-size="10.00">RASCATGTRFiniteGammaPhylo</text>
<text text-anchor="middle" x="1892" y="-63.5" font-family="Helvetica,sans-Serif" font-size="10.00">Process.cpp</text>
</a>
</g>
</g>
<!-- Node51&#45;&gt;Node52 -->
<g id="edge38" class="edge"><title>Node51&#45;&gt;Node52</title>
<path fill="none" stroke="midnightblue" d="M1893.25,-113.108C1892.97,-104.154 1892.67,-94.3227 1892.43,-86.5765"/>
<polygon fill="midnightblue" stroke="midnightblue" points="1889.76,-113.508 1893.57,-123.396 1896.76,-113.293 1889.76,-113.508"/>
</g>
<!-- Node53&#45;&gt;Node29 -->
<g id="edge40" class="edge"><title>Node53&#45;&gt;Node29</title>
<path fill="none" stroke="midnightblue" d="M1233.93,-127.578C1156.46,-116.826 1040.24,-99.5302 997,-87 991.576,-85.4283 985.863,-83.2238 980.702,-81.0072"/>
<polygon fill="midnightblue" stroke="midnightblue" points="1233.73,-131.084 1244.12,-128.986 1234.69,-124.15 1233.73,-131.084"/>
</g>
<!-- Node54 -->
<g id="node31" class="node"><title>Node54</title>
<g id="a_node31"><a xlink:href="RASCATGTRSBDPGammaPhyloProcess_8cpp.html" target="_top" xlink:title="RASCATGTRSBDPGammaPhyloProcess.cpp">
<polygon fill="none" stroke="black" points="1207.5,-62 1207.5,-81 1428.5,-81 1428.5,-62 1207.5,-62"/>
<text text-anchor="middle" x="1318" y="-69" font-family="Helvetica,sans-Serif" font-size="10.00">RASCATGTRSBDPGammaPhyloProcess.cpp</text>
</a>
</g>
</g>
<!-- Node53&#45;&gt;Node54 -->
<g id="edge41" class="edge"><title>Node53&#45;&gt;Node54</title>
<path fill="none" stroke="midnightblue" d="M1310.92,-118.537C1312.82,-106.17 1315.21,-90.6198 1316.67,-81.1273"/>
<polygon fill="midnightblue" stroke="midnightblue" points="1307.41,-118.318 1309.35,-128.734 1314.33,-119.382 1307.41,-118.318"/>
</g>
<!-- Node56 -->
<g id="node33" class="node"><title>Node56</title>
<g id="a_node33"><a xlink:href="RASCATGTRDPGammaPhyloProcess_8cpp.html" target="_top" xlink:title="RASCATGTRDPGammaPhyloProcess.cpp">
<polygon fill="none" stroke="black" points="1991.5,-62 1991.5,-81 2198.5,-81 2198.5,-62 1991.5,-62"/>
<text text-anchor="middle" x="2095" y="-69" font-family="Helvetica,sans-Serif" font-size="10.00">RASCATGTRDPGammaPhyloProcess.cpp</text>
</a>
</g>
</g>
<!-- Node55&#45;&gt;Node56 -->
<g id="edge43" class="edge"><title>Node55&#45;&gt;Node56</title>
<path fill="none" stroke="midnightblue" d="M2094.29,-118.537C2094.48,-106.17 2094.72,-90.6198 2094.87,-81.1273"/>
<polygon fill="midnightblue" stroke="midnightblue" points="2090.79,-118.681 2094.13,-128.734 2097.79,-118.789 2090.79,-118.681"/>
</g>
<!-- Node58&#45;&gt;Node45 -->
<g id="edge50" class="edge"><title>Node58&#45;&gt;Node45</title>
<path fill="none" stroke="midnightblue" d="M1337.23,-315.13C1326.24,-289.844 1306.36,-244.121 1296.26,-220.888"/>
<polygon fill="midnightblue" stroke="midnightblue" points="1334.02,-316.53 1341.22,-324.305 1340.44,-313.739 1334.02,-316.53"/>
</g>
<!-- Node58&#45;&gt;Node47 -->
<g id="edge46" class="edge"><title>Node58&#45;&gt;Node47</title>
<path fill="none" stroke="midnightblue" d="M1367.21,-319.087C1385.55,-307.604 1410.98,-291.678 1426.41,-282.009"/>
<polygon fill="midnightblue" stroke="midnightblue" points="1365.23,-316.201 1358.61,-324.475 1368.94,-322.133 1365.23,-316.201"/>
</g>
<!-- Node59 -->
<g id="node36" class="node"><title>Node59</title>
<g id="a_node36"><a xlink:href="ExpoConjugateGTRSubstitutionProcess_8h.html" target="_top" xlink:title="ExpoConjugateGTRSubstitution\lProcess.h">
<polygon fill="none" stroke="black" points="1547,-257.5 1547,-287.5 1703,-287.5 1703,-257.5 1547,-257.5"/>
<text text-anchor="start" x="1555" y="-275.5" font-family="Helvetica,sans-Serif" font-size="10.00">ExpoConjugateGTRSubstitution</text>
<text text-anchor="middle" x="1625" y="-264.5" font-family="Helvetica,sans-Serif" font-size="10.00">Process.h</text>
</a>
</g>
</g>
<!-- Node58&#45;&gt;Node59 -->
<g id="edge47" class="edge"><title>Node58&#45;&gt;Node59</title>
<path fill="none" stroke="midnightblue" d="M1395.1,-322.353C1440.87,-312.629 1508.84,-298.185 1559.01,-287.523"/>
<polygon fill="midnightblue" stroke="midnightblue" points="1394.17,-318.973 1385.12,-324.475 1395.63,-325.82 1394.17,-318.973"/>
</g>
<!-- Node59&#45;&gt;Node48 -->
<g id="edge48" class="edge"><title>Node59&#45;&gt;Node48</title>
<path fill="none" stroke="midnightblue" d="M1625,-247.25C1625,-236.017 1625,-223.377 1625,-215.195"/>
<polygon fill="midnightblue" stroke="midnightblue" points="1621.5,-247.396 1625,-257.396 1628.5,-247.396 1621.5,-247.396"/>
</g>
<!-- Node60 -->
<g id="node37" class="node"><title>Node60</title>
<g id="a_node37"><a xlink:href="ExpoConjugateGTRSubstitutionProcess_8cpp.html" target="_top" xlink:title="ExpoConjugateGTRSubstitution\lProcess.cpp">
<polygon fill="none" stroke="black" points="1730,-190.5 1730,-220.5 1886,-220.5 1886,-190.5 1730,-190.5"/>
<text text-anchor="start" x="1738" y="-208.5" font-family="Helvetica,sans-Serif" font-size="10.00">ExpoConjugateGTRSubstitution</text>
<text text-anchor="middle" x="1808" y="-197.5" font-family="Helvetica,sans-Serif" font-size="10.00">Process.cpp</text>
</a>
</g>
</g>
<!-- Node59&#45;&gt;Node60 -->
<g id="edge49" class="edge"><title>Node59&#45;&gt;Node60</title>
<path fill="none" stroke="midnightblue" d="M1674.4,-253.955C1703.87,-243.485 1740.81,-230.366 1768.37,-220.577"/>
<polygon fill="midnightblue" stroke="midnightblue" points="1672.96,-250.751 1664.71,-257.396 1675.3,-257.347 1672.96,-250.751"/>
</g>
</g>
</svg>
