<?xml version="1.0" encoding="UTF-8" standalone="no"?>
<!DOCTYPE svg PUBLIC "-//W3C//DTD SVG 1.1//EN"
 "http://www.w3.org/Graphics/SVG/1.1/DTD/svg11.dtd">
<!-- Generated by graphviz version 2.40.1 (20161225.0304)
 -->
<!-- Title: MatrixProfileProcess.h Pages: 1 -->
<svg width="1887pt" height="475pt"
 viewBox="0.00 0.00 1887.00 475.00" xmlns="http://www.w3.org/2000/svg" xmlns:xlink="http://www.w3.org/1999/xlink">
<g id="graph0" class="graph" transform="scale(1 1) rotate(0) translate(4 471)">
<title>MatrixProfileProcess.h</title>
<!-- Node17 -->
<g id="node1" class="node">
<title>Node17</title>
<polygon fill="#bfbfbf" stroke="#000000" points="1265,-447.5 1265,-466.5 1381,-466.5 1381,-447.5 1265,-447.5"/>
<text text-anchor="middle" x="1323" y="-454.5" font-family="Helvetica,sans-Serif" font-size="10.00" fill="#000000">MatrixProfileProcess.h</text>
</g>
<!-- Node18 -->
<g id="node2" class="node">
<title>Node18</title>
<g id="a_node2"><a xlink:href="MatrixMixtureProfileProcess_8h.html" target="_top" xlink:title="MatrixMixtureProfileProcess.h">
<polygon fill="none" stroke="#000000" points="433,-386 433,-405 581,-405 581,-386 433,-386"/>
<text text-anchor="middle" x="507" y="-393" font-family="Helvetica,sans-Serif" font-size="10.00" fill="#000000">MatrixMixtureProfileProcess.h</text>
</a>
</g>
</g>
<!-- Node17&#45;&gt;Node18 -->
<g id="edge1" class="edge">
<title>Node17&#45;&gt;Node18</title>
<path fill="none" stroke="#191970" d="M1254.851,-451.8638C1103.0925,-440.4261 738.3377,-412.9354 581.1415,-401.0879"/>
<polygon fill="#191970" stroke="#191970" points="1254.7347,-455.3648 1264.9695,-452.6264 1255.2608,-448.3846 1254.7347,-455.3648"/>
</g>
<!-- Node40 -->
<g id="node24" class="node">
<title>Node40</title>
<g id="a_node24"><a xlink:href="GTRProfileProcess_8h.html" target="_top" xlink:title="GTRProfileProcess.h">
<polygon fill="none" stroke="#000000" points="1128,-386 1128,-405 1238,-405 1238,-386 1128,-386"/>
<text text-anchor="middle" x="1183" y="-393" font-family="Helvetica,sans-Serif" font-size="10.00" fill="#000000">GTRProfileProcess.h</text>
</a>
</g>
</g>
<!-- Node17&#45;&gt;Node40 -->
<g id="edge25" class="edge">
<title>Node17&#45;&gt;Node40</title>
<path fill="none" stroke="#191970" d="M1291.9105,-443.3428C1265.4382,-431.7139 1228.0848,-415.3051 1204.7214,-405.0419"/>
<polygon fill="#191970" stroke="#191970" points="1290.5617,-446.5731 1301.125,-447.3906 1293.3771,-440.1642 1290.5617,-446.5731"/>
</g>
<!-- Node53 -->
<g id="node37" class="node">
<title>Node53</title>
<g id="a_node37"><a xlink:href="MatrixSubstitutionProcess_8h.html" target="_top" xlink:title="MatrixSubstitutionProcess.h">
<polygon fill="none" stroke="#000000" points="1408,-386 1408,-405 1548,-405 1548,-386 1408,-386"/>
<text text-anchor="middle" x="1478" y="-393" font-family="Helvetica,sans-Serif" font-size="10.00" fill="#000000">MatrixSubstitutionProcess.h</text>
</a>
</g>
</g>
<!-- Node17&#45;&gt;Node53 -->
<g id="edge44" class="edge">
<title>Node17&#45;&gt;Node53</title>
<path fill="none" stroke="#191970" d="M1356.6521,-443.6477C1386.0024,-432.0023 1427.8577,-415.3952 1453.9513,-405.0419"/>
<polygon fill="#191970" stroke="#191970" points="1355.223,-440.4492 1347.2188,-447.3906 1357.8047,-446.9558 1355.223,-440.4492"/>
</g>
<!-- Node58 -->
<g id="node42" class="node">
<title>Node58</title>
<g id="a_node42"><a xlink:href="GeneralPathSuffStatMatrixProfileProcess_8h.html" target="_top" xlink:title="GeneralPathSuffStatMatrix\lProfileProcess.h">
<polygon fill="none" stroke="#000000" points="1256,-380.5 1256,-410.5 1390,-410.5 1390,-380.5 1256,-380.5"/>
<text text-anchor="start" x="1264" y="-398.5" font-family="Helvetica,sans-Serif" font-size="10.00" fill="#000000">GeneralPathSuffStatMatrix</text>
<text text-anchor="middle" x="1323" y="-387.5" font-family="Helvetica,sans-Serif" font-size="10.00" fill="#000000">ProfileProcess.h</text>
</a>
</g>
</g>
<!-- Node17&#45;&gt;Node58 -->
<g id="edge52" class="edge">
<title>Node17&#45;&gt;Node58</title>
<path fill="none" stroke="#191970" d="M1323,-437.3693C1323,-428.681 1323,-418.6241 1323,-410.5446"/>
<polygon fill="#191970" stroke="#191970" points="1319.5001,-437.3906 1323,-447.3906 1326.5001,-437.3907 1319.5001,-437.3906"/>
</g>
<!-- Node59 -->
<g id="node43" class="node">
<title>Node59</title>
<g id="a_node43"><a xlink:href="MatrixProfileProcess_8cpp.html" target="_top" xlink:title="MatrixProfileProcess.cpp">
<polygon fill="none" stroke="#000000" points="1566,-386 1566,-405 1692,-405 1692,-386 1566,-386"/>
<text text-anchor="middle" x="1629" y="-393" font-family="Helvetica,sans-Serif" font-size="10.00" fill="#000000">MatrixProfileProcess.cpp</text>
</a>
</g>
</g>
<!-- Node17&#45;&gt;Node59 -->
<g id="edge55" class="edge">
<title>Node17&#45;&gt;Node59</title>
<path fill="none" stroke="#191970" d="M1382.8823,-445.535C1430.1943,-436.4026 1497.8748,-423.1746 1557,-411 1566.1422,-409.1175 1575.9252,-407.0482 1585.24,-405.0518"/>
<polygon fill="#191970" stroke="#191970" points="1381.9647,-442.1473 1372.8081,-447.477 1383.2898,-449.0208 1381.9647,-442.1473"/>
</g>
<!-- Node19 -->
<g id="node3" class="node">
<title>Node19</title>
<g id="a_node3"><a xlink:href="MatrixDPProfileProcess_8h.html" target="_top" xlink:title="MatrixDPProfileProcess.h">
<polygon fill="none" stroke="#000000" points="176,-319 176,-338 306,-338 306,-319 176,-319"/>
<text text-anchor="middle" x="241" y="-326" font-family="Helvetica,sans-Serif" font-size="10.00" fill="#000000">MatrixDPProfileProcess.h</text>
</a>
</g>
</g>
<!-- Node18&#45;&gt;Node19 -->
<g id="edge2" class="edge">
<title>Node18&#45;&gt;Node19</title>
<path fill="none" stroke="#191970" d="M459.273,-383.4785C407.718,-370.4929 326.6043,-350.062 279.129,-338.1039"/>
<polygon fill="#191970" stroke="#191970" points="458.6191,-386.9231 469.1712,-385.9717 460.329,-380.1351 458.6191,-386.9231"/>
</g>
<!-- Node25 -->
<g id="node9" class="node">
<title>Node25</title>
<g id="a_node9"><a xlink:href="GTRMixtureProfileProcess_8h.html" target="_top" xlink:title="GTRMixtureProfileProcess.h">
<polygon fill="none" stroke="#000000" points="523,-319 523,-338 665,-338 665,-319 523,-319"/>
<text text-anchor="middle" x="594" y="-326" font-family="Helvetica,sans-Serif" font-size="10.00" fill="#000000">GTRMixtureProfileProcess.h</text>
</a>
</g>
</g>
<!-- Node18&#45;&gt;Node25 -->
<g id="edge8" class="edge">
<title>Node18&#45;&gt;Node25</title>
<path fill="none" stroke="#191970" d="M527.5737,-379.6559C544.3458,-366.7395 567.4843,-348.9201 581.5581,-338.0817"/>
<polygon fill="#191970" stroke="#191970" points="525.2523,-377.026 519.465,-385.9005 529.5234,-382.572 525.2523,-377.026"/>
</g>
<!-- Node35 -->
<g id="node19" class="node">
<title>Node35</title>
<g id="a_node19"><a xlink:href="MatrixSBDPProfileProcess_8h.html" target="_top" xlink:title="MatrixSBDPProfileProcess.h">
<polygon fill="none" stroke="#000000" points="348.5,-319 348.5,-338 491.5,-338 491.5,-319 348.5,-319"/>
<text text-anchor="middle" x="420" y="-326" font-family="Helvetica,sans-Serif" font-size="10.00" fill="#000000">MatrixSBDPProfileProcess.h</text>
</a>
</g>
</g>
<!-- Node18&#45;&gt;Node35 -->
<g id="edge19" class="edge">
<title>Node18&#45;&gt;Node35</title>
<path fill="none" stroke="#191970" d="M486.4263,-379.6559C469.6542,-366.7395 446.5157,-348.9201 432.4419,-338.0817"/>
<polygon fill="#191970" stroke="#191970" points="484.4766,-382.572 494.535,-385.9005 488.7477,-377.026 484.4766,-382.572"/>
</g>
<!-- Node37 -->
<g id="node21" class="node">
<title>Node37</title>
<g id="a_node21"><a xlink:href="GeneralPathSuffStatMatrixMixtureProfileProcess_8h.html" target="_top" xlink:title="GeneralPathSuffStatMatrix\lMixtureProfileProcess.h">
<polygon fill="none" stroke="#000000" points="685,-313.5 685,-343.5 819,-343.5 819,-313.5 685,-313.5"/>
<text text-anchor="start" x="693" y="-331.5" font-family="Helvetica,sans-Serif" font-size="10.00" fill="#000000">GeneralPathSuffStatMatrix</text>
<text text-anchor="middle" x="752" y="-320.5" font-family="Helvetica,sans-Serif" font-size="10.00" fill="#000000">MixtureProfileProcess.h</text>
</a>
</g>
</g>
<!-- Node18&#45;&gt;Node37 -->
<g id="edge22" class="edge">
<title>Node18&#45;&gt;Node37</title>
<path fill="none" stroke="#191970" d="M551.5252,-383.3237C592.3869,-372.1493 653.0579,-355.5576 696.9469,-343.5553"/>
<polygon fill="#191970" stroke="#191970" points="550.5649,-379.9577 541.8423,-385.9717 552.4114,-386.7098 550.5649,-379.9577"/>
</g>
<!-- Node39 -->
<g id="node23" class="node">
<title>Node39</title>
<g id="a_node23"><a xlink:href="MatrixMixtureProfileProcess_8cpp.html" target="_top" xlink:title="MatrixMixtureProfileProcess.cpp">
<polygon fill="none" stroke="#000000" points="0,-319 0,-338 158,-338 158,-319 0,-319"/>
<text text-anchor="middle" x="79" y="-326" font-family="Helvetica,sans-Serif" font-size="10.00" fill="#000000">MatrixMixtureProfileProcess.cpp</text>
</a>
</g>
</g>
<!-- Node18&#45;&gt;Node39 -->
<g id="edge24" class="edge">
<title>Node18&#45;&gt;Node39</title>
<path fill="none" stroke="#191970" d="M431.2013,-384.5511C362.244,-374.4639 257.6894,-358.853 167,-344 155.6713,-342.1446 143.539,-340.0667 132.0143,-338.05"/>
<polygon fill="#191970" stroke="#191970" points="430.7102,-388.0164 441.1111,-385.9985 431.722,-381.0899 430.7102,-388.0164"/>
</g>
<!-- Node20 -->
<g id="node4" class="node">
<title>Node20</title>
<g id="a_node4"><a xlink:href="ExpoConjugateGTRDPProfileProcess_8h.html" target="_top" xlink:title="ExpoConjugateGTRDPProfile\lProcess.h">
<polygon fill="none" stroke="#000000" points="423,-179.5 423,-209.5 569,-209.5 569,-179.5 423,-179.5"/>
<text text-anchor="start" x="431" y="-197.5" font-family="Helvetica,sans-Serif" font-size="10.00" fill="#000000">ExpoConjugateGTRDPProfile</text>
<text text-anchor="middle" x="496" y="-186.5" font-family="Helvetica,sans-Serif" font-size="10.00" fill="#000000">Process.h</text>
</a>
</g>
</g>
<!-- Node19&#45;&gt;Node20 -->
<g id="edge3" class="edge">
<title>Node19&#45;&gt;Node20</title>
<path fill="none" stroke="#191970" d="M201.5112,-315.3472C162.9203,-300.4436 113.3122,-274.4934 138,-246 156.3749,-224.7926 323.6296,-208.0926 422.8973,-199.945"/>
<polygon fill="#191970" stroke="#191970" points="200.4404,-318.6832 211.0332,-318.893 202.8833,-312.1233 200.4404,-318.6832"/>
</g>
<!-- Node24 -->
<g id="node8" class="node">
<title>Node24</title>
<g id="a_node8"><a xlink:href="MatrixDPProfileProcess_8cpp.html" target="_top" xlink:title="MatrixDPProfileProcess.cpp">
<polygon fill="none" stroke="#000000" points="147,-252 147,-271 287,-271 287,-252 147,-252"/>
<text text-anchor="middle" x="217" y="-259" font-family="Helvetica,sans-Serif" font-size="10.00" fill="#000000">MatrixDPProfileProcess.cpp</text>
</a>
</g>
</g>
<!-- Node19&#45;&gt;Node24 -->
<g id="edge7" class="edge">
<title>Node19&#45;&gt;Node24</title>
<path fill="none" stroke="#191970" d="M234.1449,-309.3628C229.6607,-296.8444 223.9941,-281.0252 220.4322,-271.0817"/>
<polygon fill="#191970" stroke="#191970" points="230.8941,-310.6666 237.5614,-318.9005 237.484,-308.306 230.8941,-310.6666"/>
</g>
<!-- Node21 -->
<g id="node5" class="node">
<title>Node21</title>
<g id="a_node5"><a xlink:href="ExpoConjugateGTRDPProfileProcess_8cpp.html" target="_top" xlink:title="ExpoConjugateGTRDPProfile\lProcess.cpp">
<polygon fill="none" stroke="#000000" points="340,-112.5 340,-142.5 486,-142.5 486,-112.5 340,-112.5"/>
<text text-anchor="start" x="348" y="-130.5" font-family="Helvetica,sans-Serif" font-size="10.00" fill="#000000">ExpoConjugateGTRDPProfile</text>
<text text-anchor="middle" x="413" y="-119.5" font-family="Helvetica,sans-Serif" font-size="10.00" fill="#000000">Process.cpp</text>
</a>
</g>
</g>
<!-- Node20&#45;&gt;Node21 -->
<g id="edge4" class="edge">
<title>Node20&#45;&gt;Node21</title>
<path fill="none" stroke="#191970" d="M469.0942,-172.7808C456.9012,-162.9383 442.7821,-151.541 431.7595,-142.6432"/>
<polygon fill="#191970" stroke="#191970" points="467.1864,-175.7389 477.166,-179.2967 471.5832,-170.292 467.1864,-175.7389"/>
</g>
<!-- Node22 -->
<g id="node6" class="node">
<title>Node22</title>
<g id="a_node6"><a xlink:href="RASCATGTRDPGammaPhyloProcess_8h.html" target="_top" xlink:title="RASCATGTRDPGammaPhyloProcess.h">
<polygon fill="none" stroke="#000000" points="504.5,-118 504.5,-137 701.5,-137 701.5,-118 504.5,-118"/>
<text text-anchor="middle" x="603" y="-125" font-family="Helvetica,sans-Serif" font-size="10.00" fill="#000000">RASCATGTRDPGammaPhyloProcess.h</text>
</a>
</g>
</g>
<!-- Node20&#45;&gt;Node22 -->
<g id="edge5" class="edge">
<title>Node20&#45;&gt;Node22</title>
<path fill="none" stroke="#191970" d="M528.6678,-174.0445C548.286,-161.7601 572.3333,-146.7025 587.6624,-137.1039"/>
<polygon fill="#191970" stroke="#191970" points="526.6309,-171.1903 520.0129,-179.4639 530.3459,-177.1232 526.6309,-171.1903"/>
</g>
<!-- Node23 -->
<g id="node7" class="node">
<title>Node23</title>
<g id="a_node7"><a xlink:href="RASCATGTRDPGammaPhyloProcess_8cpp.html" target="_top" xlink:title="RASCATGTRDPGammaPhyloProcess.cpp">
<polygon fill="none" stroke="#000000" points="499.5,-56.5 499.5,-75.5 706.5,-75.5 706.5,-56.5 499.5,-56.5"/>
<text text-anchor="middle" x="603" y="-63.5" font-family="Helvetica,sans-Serif" font-size="10.00" fill="#000000">RASCATGTRDPGammaPhyloProcess.cpp</text>
</a>
</g>
</g>
<!-- Node22&#45;&gt;Node23 -->
<g id="edge6" class="edge">
<title>Node22&#45;&gt;Node23</title>
<path fill="none" stroke="#191970" d="M603,-107.7462C603,-97.0519 603,-84.314 603,-75.7449"/>
<polygon fill="#191970" stroke="#191970" points="599.5001,-107.8906 603,-117.8906 606.5001,-107.8907 599.5001,-107.8906"/>
</g>
<!-- Node26 -->
<g id="node10" class="node">
<title>Node26</title>
<g id="a_node10"><a xlink:href="ExpoConjugateGTRMixtureProfileProcess_8h.html" target="_top" xlink:title="ExpoConjugateGTRMixtureProfile\lProcess.h">
<polygon fill="none" stroke="#000000" points="837,-246.5 837,-276.5 1001,-276.5 1001,-246.5 837,-246.5"/>
<text text-anchor="start" x="845" y="-264.5" font-family="Helvetica,sans-Serif" font-size="10.00" fill="#000000">ExpoConjugateGTRMixtureProfile</text>
<text text-anchor="middle" x="919" y="-253.5" font-family="Helvetica,sans-Serif" font-size="10.00" fill="#000000">Process.h</text>
</a>
</g>
</g>
<!-- Node25&#45;&gt;Node26 -->
<g id="edge9" class="edge">
<title>Node25&#45;&gt;Node26</title>
<path fill="none" stroke="#191970" d="M650.3366,-316.886C704.5396,-305.7118 786.7655,-288.7606 845.9703,-276.5553"/>
<polygon fill="#191970" stroke="#191970" points="649.3068,-313.5246 640.2194,-318.9717 650.7202,-320.3804 649.3068,-313.5246"/>
</g>
<!-- Node34 -->
<g id="node18" class="node">
<title>Node34</title>
<g id="a_node18"><a xlink:href="GTRMixtureProfileProcess_8cpp.html" target="_top" xlink:title="GTRMixtureProfileProcess.cpp">
<polygon fill="none" stroke="#000000" points="515,-252 515,-271 667,-271 667,-252 515,-252"/>
<text text-anchor="middle" x="591" y="-259" font-family="Helvetica,sans-Serif" font-size="10.00" fill="#000000">GTRMixtureProfileProcess.cpp</text>
</a>
</g>
</g>
<!-- Node25&#45;&gt;Node34 -->
<g id="edge18" class="edge">
<title>Node25&#45;&gt;Node34</title>
<path fill="none" stroke="#191970" d="M593.1093,-308.6079C592.5544,-296.214 591.8654,-280.8263 591.429,-271.0817"/>
<polygon fill="#191970" stroke="#191970" points="589.6263,-309.0671 593.5702,-318.9005 596.6193,-308.754 589.6263,-309.0671"/>
</g>
<!-- Node26&#45;&gt;Node20 -->
<g id="edge10" class="edge">
<title>Node26&#45;&gt;Node20</title>
<path fill="none" stroke="#191970" d="M826.6442,-245.7914C732.0863,-230.4559 634.2424,-215.4159 569.2382,-205.5421"/>
<polygon fill="#191970" stroke="#191970" points="826.2373,-249.2711 836.6692,-247.4204 827.3601,-242.3617 826.2373,-249.2711"/>
</g>
<!-- Node27 -->
<g id="node11" class="node">
<title>Node27</title>
<g id="a_node11"><a xlink:href="ExpoConjugateGTRMixtureProfileProcess_8cpp.html" target="_top" xlink:title="ExpoConjugateGTRMixtureProfile\lProcess.cpp">
<polygon fill="none" stroke="#000000" points="847,-179.5 847,-209.5 1011,-209.5 1011,-179.5 847,-179.5"/>
<text text-anchor="start" x="855" y="-197.5" font-family="Helvetica,sans-Serif" font-size="10.00" fill="#000000">ExpoConjugateGTRMixtureProfile</text>
<text text-anchor="middle" x="929" y="-186.5" font-family="Helvetica,sans-Serif" font-size="10.00" fill="#000000">Process.cpp</text>
</a>
</g>
</g>
<!-- Node26&#45;&gt;Node27 -->
<g id="edge11" class="edge">
<title>Node26&#45;&gt;Node27</title>
<path fill="none" stroke="#191970" d="M922.7585,-236.3179C924.0983,-227.3414 925.565,-217.5143 926.7398,-209.6432"/>
<polygon fill="#191970" stroke="#191970" points="919.2838,-235.8895 921.2692,-246.2967 926.2071,-236.9229 919.2838,-235.8895"/>
</g>
<!-- Node28 -->
<g id="node12" class="node">
<title>Node28</title>
<g id="a_node12"><a xlink:href="ExpoConjugateGTRSBDPProfileProcess_8h.html" target="_top" xlink:title="ExpoConjugateGTRSBDPProfile\lProcess.h">
<polygon fill="none" stroke="#000000" points="669,-179.5 669,-209.5 829,-209.5 829,-179.5 669,-179.5"/>
<text text-anchor="start" x="677" y="-197.5" font-family="Helvetica,sans-Serif" font-size="10.00" fill="#000000">ExpoConjugateGTRSBDPProfile</text>
<text text-anchor="middle" x="749" y="-186.5" font-family="Helvetica,sans-Serif" font-size="10.00" fill="#000000">Process.h</text>
</a>
</g>
</g>
<!-- Node26&#45;&gt;Node28 -->
<g id="edge12" class="edge">
<title>Node26&#45;&gt;Node28</title>
<path fill="none" stroke="#191970" d="M871.3682,-242.7275C844.8204,-232.2645 812.2005,-219.4084 787.3177,-209.6017"/>
<polygon fill="#191970" stroke="#191970" points="870.2618,-246.0534 880.8487,-246.4639 872.8285,-239.5409 870.2618,-246.0534"/>
</g>
<!-- Node29 -->
<g id="node13" class="node">
<title>Node29</title>
<g id="a_node13"><a xlink:href="ExpoConjugateGTRSBDPProfileProcess_8cpp.html" target="_top" xlink:title="ExpoConjugateGTRSBDPProfile\lProcess.cpp">
<polygon fill="none" stroke="#000000" points="720,-112.5 720,-142.5 880,-142.5 880,-112.5 720,-112.5"/>
<text text-anchor="start" x="728" y="-130.5" font-family="Helvetica,sans-Serif" font-size="10.00" fill="#000000">ExpoConjugateGTRSBDPProfile</text>
<text text-anchor="middle" x="800" y="-119.5" font-family="Helvetica,sans-Serif" font-size="10.00" fill="#000000">Process.cpp</text>
</a>
</g>
</g>
<!-- Node28&#45;&gt;Node29 -->
<g id="edge13" class="edge">
<title>Node28&#45;&gt;Node29</title>
<path fill="none" stroke="#191970" d="M766.8404,-171.0626C774.0193,-161.6315 782.0909,-151.0276 788.4731,-142.6432"/>
<polygon fill="#191970" stroke="#191970" points="763.8446,-169.2197 760.5727,-179.2967 769.4146,-173.4595 763.8446,-169.2197"/>
</g>
<!-- Node30 -->
<g id="node14" class="node">
<title>Node30</title>
<g id="a_node14"><a xlink:href="RASCATGTRSBDPGammaPhyloProcess_8h.html" target="_top" xlink:title="RASCATGTRSBDPGammaPhyloProcess.h">
<polygon fill="none" stroke="#000000" points="946,-118 946,-137 1156,-137 1156,-118 946,-118"/>
<text text-anchor="middle" x="1051" y="-125" font-family="Helvetica,sans-Serif" font-size="10.00" fill="#000000">RASCATGTRSBDPGammaPhyloProcess.h</text>
</a>
</g>
</g>
<!-- Node28&#45;&gt;Node30 -->
<g id="edge14" class="edge">
<title>Node28&#45;&gt;Node30</title>
<path fill="none" stroke="#191970" d="M826.5986,-177.2844C884.3524,-164.4715 961.0371,-147.4587 1008.1553,-137.0053"/>
<polygon fill="#191970" stroke="#191970" points="825.7792,-173.881 816.7747,-179.4639 827.2954,-180.7149 825.7792,-173.881"/>
</g>
<!-- Node31 -->
<g id="node15" class="node">
<title>Node31</title>
<g id="a_node15"><a xlink:href="Model_8h.html" target="_top" xlink:title="Model.h">
<polygon fill="none" stroke="#000000" points="1102.5,-56.5 1102.5,-75.5 1153.5,-75.5 1153.5,-56.5 1102.5,-56.5"/>
<text text-anchor="middle" x="1128" y="-63.5" font-family="Helvetica,sans-Serif" font-size="10.00" fill="#000000">Model.h</text>
</a>
</g>
</g>
<!-- Node30&#45;&gt;Node31 -->
<g id="edge15" class="edge">
<title>Node30&#45;&gt;Node31</title>
<path fill="none" stroke="#191970" d="M1070.8458,-111.6491C1085.153,-100.222 1103.9924,-85.1749 1116.0532,-75.5419"/>
<polygon fill="#191970" stroke="#191970" points="1068.6606,-108.915 1063.0313,-117.8906 1073.0292,-114.3846 1068.6606,-108.915"/>
</g>
<!-- Node33 -->
<g id="node17" class="node">
<title>Node33</title>
<g id="a_node17"><a xlink:href="RASCATGTRSBDPGammaPhyloProcess_8cpp.html" target="_top" xlink:title="RASCATGTRSBDPGammaPhyloProcess.cpp">
<polygon fill="none" stroke="#000000" points="863.5,-56.5 863.5,-75.5 1084.5,-75.5 1084.5,-56.5 863.5,-56.5"/>
<text text-anchor="middle" x="974" y="-63.5" font-family="Helvetica,sans-Serif" font-size="10.00" fill="#000000">RASCATGTRSBDPGammaPhyloProcess.cpp</text>
</a>
</g>
</g>
<!-- Node30&#45;&gt;Node33 -->
<g id="edge17" class="edge">
<title>Node30&#45;&gt;Node33</title>
<path fill="none" stroke="#191970" d="M1031.1542,-111.6491C1016.847,-100.222 998.0076,-85.1749 985.9468,-75.5419"/>
<polygon fill="#191970" stroke="#191970" points="1028.9708,-114.3846 1038.9688,-117.8906 1033.3394,-108.915 1028.9708,-114.3846"/>
</g>
<!-- Node32 -->
<g id="node16" class="node">
<title>Node32</title>
<g id="a_node16"><a xlink:href="PB_8cpp.html" target="_top" xlink:title="PB.cpp">
<polygon fill="none" stroke="#000000" points="1103.5,-.5 1103.5,-19.5 1152.5,-19.5 1152.5,-.5 1103.5,-.5"/>
<text text-anchor="middle" x="1128" y="-7.5" font-family="Helvetica,sans-Serif" font-size="10.00" fill="#000000">PB.cpp</text>
</a>
</g>
</g>
<!-- Node31&#45;&gt;Node32 -->
<g id="edge16" class="edge">
<title>Node31&#45;&gt;Node32</title>
<path fill="none" stroke="#191970" d="M1128,-46.1575C1128,-37.155 1128,-26.9199 1128,-19.6427"/>
<polygon fill="#191970" stroke="#191970" points="1124.5001,-46.2455 1128,-56.2455 1131.5001,-46.2456 1124.5001,-46.2455"/>
</g>
<!-- Node35&#45;&gt;Node28 -->
<g id="edge20" class="edge">
<title>Node35&#45;&gt;Node28</title>
<path fill="none" stroke="#191970" d="M386.9441,-314.5219C353.9892,-298.6711 311.3071,-271.6831 334,-246 344.9664,-233.5886 551.2055,-212.7002 668.7279,-201.7287"/>
<polygon fill="#191970" stroke="#191970" points="385.8018,-317.8501 396.3466,-318.8784 388.7446,-311.4987 385.8018,-317.8501"/>
</g>
<!-- Node36 -->
<g id="node20" class="node">
<title>Node36</title>
<g id="a_node20"><a xlink:href="MatrixSBDPProfileProcess_8cpp.html" target="_top" xlink:title="MatrixSBDPProfileProcess.cpp">
<polygon fill="none" stroke="#000000" points="343,-252 343,-271 497,-271 497,-252 343,-252"/>
<text text-anchor="middle" x="420" y="-259" font-family="Helvetica,sans-Serif" font-size="10.00" fill="#000000">MatrixSBDPProfileProcess.cpp</text>
</a>
</g>
</g>
<!-- Node35&#45;&gt;Node36 -->
<g id="edge21" class="edge">
<title>Node35&#45;&gt;Node36</title>
<path fill="none" stroke="#191970" d="M420,-308.6079C420,-296.214 420,-280.8263 420,-271.0817"/>
<polygon fill="#191970" stroke="#191970" points="416.5001,-308.9005 420,-318.9005 423.5001,-308.9006 416.5001,-308.9005"/>
</g>
<!-- Node38 -->
<g id="node22" class="node">
<title>Node38</title>
<g id="a_node22"><a xlink:href="GeneralPathSuffStatMatrixMixtureProfileProcess_8cpp.html" target="_top" xlink:title="GeneralPathSuffStatMatrix\lMixtureProfileProcess.cpp">
<polygon fill="none" stroke="#000000" points="685,-246.5 685,-276.5 819,-276.5 819,-246.5 685,-246.5"/>
<text text-anchor="start" x="693" y="-264.5" font-family="Helvetica,sans-Serif" font-size="10.00" fill="#000000">GeneralPathSuffStatMatrix</text>
<text text-anchor="middle" x="752" y="-253.5" font-family="Helvetica,sans-Serif" font-size="10.00" fill="#000000">MixtureProfileProcess.cpp</text>
</a>
</g>
</g>
<!-- Node37&#45;&gt;Node38 -->
<g id="edge23" class="edge">
<title>Node37&#45;&gt;Node38</title>
<path fill="none" stroke="#191970" d="M752,-303.0249C752,-294.128 752,-284.4287 752,-276.6432"/>
<polygon fill="#191970" stroke="#191970" points="748.5001,-303.2966 752,-313.2967 755.5001,-303.2967 748.5001,-303.2966"/>
</g>
<!-- Node40&#45;&gt;Node25 -->
<g id="edge26" class="edge">
<title>Node40&#45;&gt;Node25</title>
<path fill="none" stroke="#191970" d="M1117.4474,-390.645C1020.6132,-383.0655 833.7655,-366.8807 676,-344 664.5294,-342.3364 652.2202,-340.1989 640.7165,-338.0461"/>
<polygon fill="#191970" stroke="#191970" points="1117.4271,-394.1539 1127.6682,-391.4392 1117.9694,-387.175 1117.4271,-394.1539"/>
</g>
<!-- Node41 -->
<g id="node25" class="node">
<title>Node41</title>
<g id="a_node25"><a xlink:href="ExpoConjugateGTRProfileProcess_8h.html" target="_top" xlink:title="ExpoConjugateGTRProfileProcess.h">
<polygon fill="none" stroke="#000000" points="957,-319 957,-338 1133,-338 1133,-319 957,-319"/>
<text text-anchor="middle" x="1045" y="-326" font-family="Helvetica,sans-Serif" font-size="10.00" fill="#000000">ExpoConjugateGTRProfileProcess.h</text>
</a>
</g>
</g>
<!-- Node40&#45;&gt;Node41 -->
<g id="edge27" class="edge">
<title>Node40&#45;&gt;Node41</title>
<path fill="none" stroke="#191970" d="M1153.9609,-381.4013C1127.1594,-368.389 1088.0834,-349.4173 1064.7354,-338.0817"/>
<polygon fill="#191970" stroke="#191970" points="1152.7035,-384.6815 1163.228,-385.9005 1155.7608,-378.3844 1152.7035,-384.6815"/>
</g>
<!-- Node47 -->
<g id="node31" class="node">
<title>Node47</title>
<g id="a_node31"><a xlink:href="GTRSubstitutionProcess_8h.html" target="_top" xlink:title="GTRSubstitutionProcess.h">
<polygon fill="none" stroke="#000000" points="1289,-319 1289,-338 1423,-338 1423,-319 1289,-319"/>
<text text-anchor="middle" x="1356" y="-326" font-family="Helvetica,sans-Serif" font-size="10.00" fill="#000000">GTRSubstitutionProcess.h</text>
</a>
</g>
</g>
<!-- Node40&#45;&gt;Node47 -->
<g id="edge36" class="edge">
<title>Node40&#45;&gt;Node47</title>
<path fill="none" stroke="#191970" d="M1217.2162,-382.2487C1250.8451,-369.2247 1301.3478,-349.6659 1331.2593,-338.0817"/>
<polygon fill="#191970" stroke="#191970" points="1215.8478,-379.0252 1207.7867,-385.9005 1218.3758,-385.5528 1215.8478,-379.0252"/>
</g>
<!-- Node52 -->
<g id="node36" class="node">
<title>Node52</title>
<g id="a_node36"><a xlink:href="GTRProfileProcess_8cpp.html" target="_top" xlink:title="GTRProfileProcess.cpp">
<polygon fill="none" stroke="#000000" points="1151,-319 1151,-338 1271,-338 1271,-319 1151,-319"/>
<text text-anchor="middle" x="1211" y="-326" font-family="Helvetica,sans-Serif" font-size="10.00" fill="#000000">GTRProfileProcess.cpp</text>
</a>
</g>
</g>
<!-- Node40&#45;&gt;Node52 -->
<g id="edge43" class="edge">
<title>Node40&#45;&gt;Node52</title>
<path fill="none" stroke="#191970" d="M1190.9976,-376.3628C1196.2292,-363.8444 1202.8402,-348.0252 1206.9957,-338.0817"/>
<polygon fill="#191970" stroke="#191970" points="1187.6384,-375.3242 1187.0117,-385.9005 1194.0971,-378.0234 1187.6384,-375.3242"/>
</g>
<!-- Node41&#45;&gt;Node26 -->
<g id="edge28" class="edge">
<title>Node41&#45;&gt;Node26</title>
<path fill="none" stroke="#191970" d="M1017.9832,-314.1339C997.1414,-303.0514 968.3952,-287.7657 947.2499,-276.5218"/>
<polygon fill="#191970" stroke="#191970" points="1016.4747,-317.2958 1026.9473,-318.9005 1019.7612,-311.1152 1016.4747,-317.2958"/>
</g>
<!-- Node42 -->
<g id="node26" class="node">
<title>Node42</title>
<g id="a_node26"><a xlink:href="ExpoConjugateGTRSubstitutionProcess_8h.html" target="_top" xlink:title="ExpoConjugateGTRSubstitution\lProcess.h">
<polygon fill="none" stroke="#000000" points="1225,-246.5 1225,-276.5 1381,-276.5 1381,-246.5 1225,-246.5"/>
<text text-anchor="start" x="1233" y="-264.5" font-family="Helvetica,sans-Serif" font-size="10.00" fill="#000000">ExpoConjugateGTRSubstitution</text>
<text text-anchor="middle" x="1303" y="-253.5" font-family="Helvetica,sans-Serif" font-size="10.00" fill="#000000">Process.h</text>
</a>
</g>
</g>
<!-- Node41&#45;&gt;Node42 -->
<g id="edge29" class="edge">
<title>Node41&#45;&gt;Node42</title>
<path fill="none" stroke="#191970" d="M1091.6152,-316.3945C1134.6474,-305.2195 1198.7102,-288.583 1245.0257,-276.5553"/>
<polygon fill="#191970" stroke="#191970" points="1090.4903,-313.0705 1081.6911,-318.9717 1092.2498,-319.8457 1090.4903,-313.0705"/>
</g>
<!-- Node46 -->
<g id="node30" class="node">
<title>Node46</title>
<g id="a_node30"><a xlink:href="ExpoConjugateGTRProfileProcess_8cpp.html" target="_top" xlink:title="ExpoConjugateGTRProfileProcess.cpp">
<polygon fill="none" stroke="#000000" points="1019.5,-252 1019.5,-271 1206.5,-271 1206.5,-252 1019.5,-252"/>
<text text-anchor="middle" x="1113" y="-259" font-family="Helvetica,sans-Serif" font-size="10.00" fill="#000000">ExpoConjugateGTRProfileProcess.cpp</text>
</a>
</g>
</g>
<!-- Node41&#45;&gt;Node46 -->
<g id="edge35" class="edge">
<title>Node41&#45;&gt;Node46</title>
<path fill="none" stroke="#191970" d="M1062.174,-311.5785C1075.1799,-298.7639 1092.5779,-281.6218 1103.2753,-271.0817"/>
<polygon fill="#191970" stroke="#191970" points="1059.4095,-309.3889 1054.7427,-318.9005 1064.3225,-314.3752 1059.4095,-309.3889"/>
</g>
<!-- Node43 -->
<g id="node27" class="node">
<title>Node43</title>
<g id="a_node27"><a xlink:href="ExpoConjugateGTRPhyloProcess_8h.html" target="_top" xlink:title="ExpoConjugateGTRPhyloProcess.h">
<polygon fill="none" stroke="#000000" points="1203.5,-185 1203.5,-204 1376.5,-204 1376.5,-185 1203.5,-185"/>
<text text-anchor="middle" x="1290" y="-192" font-family="Helvetica,sans-Serif" font-size="10.00" fill="#000000">ExpoConjugateGTRPhyloProcess.h</text>
</a>
</g>
</g>
<!-- Node42&#45;&gt;Node43 -->
<g id="edge30" class="edge">
<title>Node42&#45;&gt;Node43</title>
<path fill="none" stroke="#191970" d="M1298.1427,-236.4663C1295.95,-225.1655 1293.4904,-212.4891 1291.8539,-204.055"/>
<polygon fill="#191970" stroke="#191970" points="1294.7093,-237.1464 1300.0501,-246.2967 1301.5812,-235.813 1294.7093,-237.1464"/>
</g>
<!-- Node45 -->
<g id="node29" class="node">
<title>Node45</title>
<g id="a_node29"><a xlink:href="ExpoConjugateGTRSubstitutionProcess_8cpp.html" target="_top" xlink:title="ExpoConjugateGTRSubstitution\lProcess.cpp">
<polygon fill="none" stroke="#000000" points="1029,-179.5 1029,-209.5 1185,-209.5 1185,-179.5 1029,-179.5"/>
<text text-anchor="start" x="1037" y="-197.5" font-family="Helvetica,sans-Serif" font-size="10.00" fill="#000000">ExpoConjugateGTRSubstitution</text>
<text text-anchor="middle" x="1107" y="-186.5" font-family="Helvetica,sans-Serif" font-size="10.00" fill="#000000">Process.cpp</text>
</a>
</g>
</g>
<!-- Node42&#45;&gt;Node45 -->
<g id="edge34" class="edge">
<title>Node42&#45;&gt;Node45</title>
<path fill="none" stroke="#191970" d="M1249.2879,-243.1392C1218.4665,-232.6033 1180.244,-219.5375 1151.1781,-209.6017"/>
<polygon fill="#191970" stroke="#191970" points="1248.4192,-246.5411 1259.0138,-246.4639 1250.6835,-239.9174 1248.4192,-246.5411"/>
</g>
<!-- Node43&#45;&gt;Node22 -->
<g id="edge33" class="edge">
<title>Node43&#45;&gt;Node22</title>
<path fill="none" stroke="#191970" d="M1226.1473,-183.4075C1215.4361,-181.7718 1204.4189,-180.2271 1194,-179 980.2155,-153.8211 924.997,-166.3039 711,-143 695.8412,-141.3492 679.5368,-139.204 664.3061,-137.0385"/>
<polygon fill="#191970" stroke="#191970" points="1225.8724,-186.907 1236.2935,-184.9963 1226.9554,-179.9913 1225.8724,-186.907"/>
</g>
<!-- Node43&#45;&gt;Node30 -->
<g id="edge32" class="edge">
<title>Node43&#45;&gt;Node30</title>
<path fill="none" stroke="#191970" d="M1246.2458,-182.2342C1199.8857,-169.2378 1127.6485,-148.9872 1085.2588,-137.1039"/>
<polygon fill="#191970" stroke="#191970" points="1245.4374,-185.6424 1256.0109,-184.9717 1247.3269,-178.9022 1245.4374,-185.6424"/>
</g>
<!-- Node44 -->
<g id="node28" class="node">
<title>Node44</title>
<g id="a_node28"><a xlink:href="ExpoConjugateGTRPhyloProcess_8cpp.html" target="_top" xlink:title="ExpoConjugateGTRPhyloProcess.cpp">
<polygon fill="none" stroke="#000000" points="1198,-118 1198,-137 1382,-137 1382,-118 1198,-118"/>
<text text-anchor="middle" x="1290" y="-125" font-family="Helvetica,sans-Serif" font-size="10.00" fill="#000000">ExpoConjugateGTRPhyloProcess.cpp</text>
</a>
</g>
</g>
<!-- Node43&#45;&gt;Node44 -->
<g id="edge31" class="edge">
<title>Node43&#45;&gt;Node44</title>
<path fill="none" stroke="#191970" d="M1290,-174.6079C1290,-162.214 1290,-146.8263 1290,-137.0817"/>
<polygon fill="#191970" stroke="#191970" points="1286.5001,-174.9005 1290,-184.9005 1293.5001,-174.9006 1286.5001,-174.9005"/>
</g>
<!-- Node47&#45;&gt;Node42 -->
<g id="edge42" class="edge">
<title>Node47&#45;&gt;Node42</title>
<path fill="none" stroke="#191970" d="M1342.1902,-311.0423C1333.7163,-300.33 1322.9761,-286.7528 1314.8829,-276.5218"/>
<polygon fill="#191970" stroke="#191970" points="1339.4573,-313.2291 1348.4064,-318.9005 1344.9473,-308.8863 1339.4573,-313.2291"/>
</g>
<!-- Node48 -->
<g id="node32" class="node">
<title>Node48</title>
<g id="a_node32"><a xlink:href="MatrixPhyloProcess_8h.html" target="_top" xlink:title="MatrixPhyloProcess.h">
<polygon fill="none" stroke="#000000" points="1399.5,-252 1399.5,-271 1512.5,-271 1512.5,-252 1399.5,-252"/>
<text text-anchor="middle" x="1456" y="-259" font-family="Helvetica,sans-Serif" font-size="10.00" fill="#000000">MatrixPhyloProcess.h</text>
</a>
</g>
</g>
<!-- Node47&#45;&gt;Node48 -->
<g id="edge37" class="edge">
<title>Node47&#45;&gt;Node48</title>
<path fill="none" stroke="#191970" d="M1378.8562,-313.1864C1398.1922,-300.2312 1425.2996,-282.0693 1441.699,-271.0817"/>
<polygon fill="#191970" stroke="#191970" points="1376.6871,-310.4266 1370.3276,-318.9005 1380.5834,-316.242 1376.6871,-310.4266"/>
</g>
<!-- Node48&#45;&gt;Node43 -->
<g id="edge38" class="edge">
<title>Node48&#45;&gt;Node43</title>
<path fill="none" stroke="#191970" d="M1422.7519,-248.0806C1390.4845,-235.057 1342.3176,-215.6162 1313.7396,-204.0817"/>
<polygon fill="#191970" stroke="#191970" points="1421.6331,-251.4033 1432.2162,-251.9005 1424.2531,-244.9121 1421.6331,-251.4033"/>
</g>
<!-- Node49 -->
<g id="node33" class="node">
<title>Node49</title>
<g id="a_node33"><a xlink:href="GeneralPathSuffStatMatrixPhyloProcess_8h.html" target="_top" xlink:title="GeneralPathSuffStatMatrix\lPhyloProcess.h">
<polygon fill="none" stroke="#000000" points="1536,-179.5 1536,-209.5 1670,-209.5 1670,-179.5 1536,-179.5"/>
<text text-anchor="start" x="1544" y="-197.5" font-family="Helvetica,sans-Serif" font-size="10.00" fill="#000000">GeneralPathSuffStatMatrix</text>
<text text-anchor="middle" x="1603" y="-186.5" font-family="Helvetica,sans-Serif" font-size="10.00" fill="#000000">PhyloProcess.h</text>
</a>
</g>
</g>
<!-- Node48&#45;&gt;Node49 -->
<g id="edge39" class="edge">
<title>Node48&#45;&gt;Node49</title>
<path fill="none" stroke="#191970" d="M1486.2143,-247.7289C1510.6236,-236.6035 1544.9277,-220.9683 1570.0418,-209.5218"/>
<polygon fill="#191970" stroke="#191970" points="1484.7094,-244.5683 1477.0615,-251.9005 1487.6125,-250.9379 1484.7094,-244.5683"/>
</g>
<!-- Node51 -->
<g id="node35" class="node">
<title>Node51</title>
<g id="a_node35"><a xlink:href="MatrixPhyloProcess_8cpp.html" target="_top" xlink:title="MatrixPhyloProcess.cpp">
<polygon fill="none" stroke="#000000" points="1394.5,-185 1394.5,-204 1517.5,-204 1517.5,-185 1394.5,-185"/>
<text text-anchor="middle" x="1456" y="-192" font-family="Helvetica,sans-Serif" font-size="10.00" fill="#000000">MatrixPhyloProcess.cpp</text>
</a>
</g>
</g>
<!-- Node48&#45;&gt;Node51 -->
<g id="edge41" class="edge">
<title>Node48&#45;&gt;Node51</title>
<path fill="none" stroke="#191970" d="M1456,-241.6079C1456,-229.214 1456,-213.8263 1456,-204.0817"/>
<polygon fill="#191970" stroke="#191970" points="1452.5001,-241.9005 1456,-251.9005 1459.5001,-241.9006 1452.5001,-241.9005"/>
</g>
<!-- Node50 -->
<g id="node34" class="node">
<title>Node50</title>
<g id="a_node34"><a xlink:href="GeneralPathSuffStatMatrixPhyloProcess_8cpp.html" target="_top" xlink:title="GeneralPathSuffStatMatrix\lPhyloProcess.cpp">
<polygon fill="none" stroke="#000000" points="1536,-112.5 1536,-142.5 1670,-142.5 1670,-112.5 1536,-112.5"/>
<text text-anchor="start" x="1544" y="-130.5" font-family="Helvetica,sans-Serif" font-size="10.00" fill="#000000">GeneralPathSuffStatMatrix</text>
<text text-anchor="middle" x="1603" y="-119.5" font-family="Helvetica,sans-Serif" font-size="10.00" fill="#000000">PhyloProcess.cpp</text>
</a>
</g>
</g>
<!-- Node49&#45;&gt;Node50 -->
<g id="edge40" class="edge">
<title>Node49&#45;&gt;Node50</title>
<path fill="none" stroke="#191970" d="M1603,-169.0249C1603,-160.128 1603,-150.4287 1603,-142.6432"/>
<polygon fill="#191970" stroke="#191970" points="1599.5001,-169.2966 1603,-179.2967 1606.5001,-169.2967 1599.5001,-169.2966"/>
</g>
<!-- Node53&#45;&gt;Node47 -->
<g id="edge46" class="edge">
<title>Node53&#45;&gt;Node47</title>
<path fill="none" stroke="#191970" d="M1451.7018,-381.0575C1428.0286,-368.0567 1393.9071,-349.3179 1373.4472,-338.0817"/>
<polygon fill="#191970" stroke="#191970" points="1450.0704,-384.1546 1460.5204,-385.9005 1453.44,-378.019 1450.0704,-384.1546"/>
</g>
<!-- Node53&#45;&gt;Node48 -->
<g id="edge45" class="edge">
<title>Node53&#45;&gt;Node48</title>
<path fill="none" stroke="#191970" d="M1474.7368,-375.624C1469.9318,-346.3572 1461.1374,-292.7914 1457.5678,-271.0496"/>
<polygon fill="#191970" stroke="#191970" points="1471.3439,-376.5622 1476.4178,-385.8631 1478.2514,-375.4281 1471.3439,-376.5622"/>
</g>
<!-- Node54 -->
<g id="node38" class="node">
<title>Node54</title>
<g id="a_node38"><a xlink:href="GeneralPathSuffStatMatrixSubstitutionProcess_8h.html" target="_top" xlink:title="GeneralPathSuffStatMatrix\lSubstitutionProcess.h">
<polygon fill="none" stroke="#000000" points="1479,-313.5 1479,-343.5 1613,-343.5 1613,-313.5 1479,-313.5"/>
<text text-anchor="start" x="1487" y="-331.5" font-family="Helvetica,sans-Serif" font-size="10.00" fill="#000000">GeneralPathSuffStatMatrix</text>
<text text-anchor="middle" x="1546" y="-320.5" font-family="Helvetica,sans-Serif" font-size="10.00" fill="#000000">SubstitutionProcess.h</text>
</a>
</g>
</g>
<!-- Node53&#45;&gt;Node54 -->
<g id="edge47" class="edge">
<title>Node53&#45;&gt;Node54</title>
<path fill="none" stroke="#191970" d="M1495.0758,-378.6753C1506.0434,-367.8691 1520.1647,-353.9553 1530.754,-343.5218"/>
<polygon fill="#191970" stroke="#191970" points="1492.4095,-376.3889 1487.7427,-385.9005 1497.3225,-381.3752 1492.4095,-376.3889"/>
</g>
<!-- Node56 -->
<g id="node40" class="node">
<title>Node56</title>
<g id="a_node40"><a xlink:href="MatrixSubstitutionProcess_8cpp.html" target="_top" xlink:title="MatrixSubstitutionProcess.cpp">
<polygon fill="none" stroke="#000000" points="1631,-319 1631,-338 1781,-338 1781,-319 1631,-319"/>
<text text-anchor="middle" x="1706" y="-326" font-family="Helvetica,sans-Serif" font-size="10.00" fill="#000000">MatrixSubstitutionProcess.cpp</text>
</a>
</g>
</g>
<!-- Node53&#45;&gt;Node56 -->
<g id="edge50" class="edge">
<title>Node53&#45;&gt;Node56</title>
<path fill="none" stroke="#191970" d="M1520.2721,-383.0779C1564.5453,-370.0678 1633.1269,-349.9145 1673.3938,-338.0817"/>
<polygon fill="#191970" stroke="#191970" points="1519.2744,-379.7231 1510.6668,-385.9005 1521.248,-386.4391 1519.2744,-379.7231"/>
</g>
<!-- Node57 -->
<g id="node41" class="node">
<title>Node57</title>
<g id="a_node41"><a xlink:href="Propagate_8cpp.html" target="_top" xlink:title="Propagate.cpp">
<polygon fill="none" stroke="#000000" points="1799,-319 1799,-338 1879,-338 1879,-319 1799,-319"/>
<text text-anchor="middle" x="1839" y="-326" font-family="Helvetica,sans-Serif" font-size="10.00" fill="#000000">Propagate.cpp</text>
</a>
</g>
</g>
<!-- Node53&#45;&gt;Node57 -->
<g id="edge51" class="edge">
<title>Node53&#45;&gt;Node57</title>
<path fill="none" stroke="#191970" d="M1535.0953,-384.0136C1542.4575,-382.6161 1549.9014,-381.2442 1557,-380 1660.2108,-361.9091 1687.971,-367.8712 1790,-344 1797.0371,-342.3536 1804.5266,-340.1973 1811.4777,-338.0186"/>
<polygon fill="#191970" stroke="#191970" points="1534.3063,-380.6011 1525.1467,-385.9257 1535.6276,-387.4753 1534.3063,-380.6011"/>
</g>
<!-- Node54&#45;&gt;Node49 -->
<g id="edge48" class="edge">
<title>Node54&#45;&gt;Node49</title>
<path fill="none" stroke="#191970" d="M1549.0952,-303.147C1551.796,-286.3655 1556.638,-264.1838 1565,-246 1571.1279,-232.6744 1581.0394,-219.3985 1589.2035,-209.664"/>
<polygon fill="#191970" stroke="#191970" points="1545.5945,-302.8982 1547.6141,-313.2987 1552.5212,-303.9088 1545.5945,-302.8982"/>
</g>
<!-- Node55 -->
<g id="node39" class="node">
<title>Node55</title>
<g id="a_node39"><a xlink:href="GeneralPathSuffStatMatrixSubstitutionProcess_8cpp.html" target="_top" xlink:title="GeneralPathSuffStatMatrix\lSubstitutionProcess.cpp">
<polygon fill="none" stroke="#000000" points="1574,-246.5 1574,-276.5 1708,-276.5 1708,-246.5 1574,-246.5"/>
<text text-anchor="start" x="1582" y="-264.5" font-family="Helvetica,sans-Serif" font-size="10.00" fill="#000000">GeneralPathSuffStatMatrix</text>
<text text-anchor="middle" x="1641" y="-253.5" font-family="Helvetica,sans-Serif" font-size="10.00" fill="#000000">SubstitutionProcess.cpp</text>
</a>
</g>
</g>
<!-- Node54&#45;&gt;Node55 -->
<g id="edge49" class="edge">
<title>Node54&#45;&gt;Node55</title>
<path fill="none" stroke="#191970" d="M1575.9932,-307.3469C1590.1288,-297.3776 1606.6695,-285.7121 1619.5283,-276.6432"/>
<polygon fill="#191970" stroke="#191970" points="1573.7118,-304.6729 1567.557,-313.2967 1577.7463,-310.3934 1573.7118,-304.6729"/>
</g>
<!-- Node58&#45;&gt;Node37 -->
<g id="edge53" class="edge">
<title>Node58&#45;&gt;Node37</title>
<path fill="none" stroke="#191970" d="M1245.9892,-379.9347C1087.4189,-355.9713 912.5931,-340.6751 819.1189,-333.3946"/>
<polygon fill="#191970" stroke="#191970" points="1245.5134,-383.4025 1255.9269,-381.4512 1246.5694,-376.4826 1245.5134,-383.4025"/>
</g>
<!-- Node58&#45;&gt;Node54 -->
<g id="edge54" class="edge">
<title>Node58&#45;&gt;Node54</title>
<path fill="none" stroke="#191970" d="M1382.7493,-377.5484C1418.0471,-366.9432 1462.2368,-353.6665 1495.7362,-343.6017"/>
<polygon fill="#191970" stroke="#191970" points="1381.6155,-374.2344 1373.0456,-380.4639 1383.6298,-380.9384 1381.6155,-374.2344"/>
</g>
</g>
</svg>
