<?xml version="1.0" encoding="UTF-8" standalone="no"?>
<!DOCTYPE svg PUBLIC "-//W3C//DTD SVG 1.1//EN"
 "http://www.w3.org/Graphics/SVG/1.1/DTD/svg11.dtd">
<!-- Generated by graphviz version 2.40.1 (20161225.0304)
 -->
<!-- Title: MatrixMixtureProfileProcess.h Pages: 1 -->
<svg width="1040pt" height="408pt"
 viewBox="0.00 0.00 1040.00 408.00" xmlns="http://www.w3.org/2000/svg" xmlns:xlink="http://www.w3.org/1999/xlink">
<g id="graph0" class="graph" transform="scale(1 1) rotate(0) translate(4 404)">
<title>MatrixMixtureProfileProcess.h</title>
<!-- Node19 -->
<g id="node1" class="node">
<title>Node19</title>
<polygon fill="#bfbfbf" stroke="#000000" points="558,-380.5 558,-399.5 706,-399.5 706,-380.5 558,-380.5"/>
<text text-anchor="middle" x="632" y="-387.5" font-family="Helvetica,sans-Serif" font-size="10.00" fill="#000000">MatrixMixtureProfileProcess.h</text>
</g>
<!-- Node20 -->
<g id="node2" class="node">
<title>Node20</title>
<g id="a_node2"><a xlink:href="MatrixDPProfileProcess_8h.html" target="_top" xlink:title="MatrixDPProfileProcess.h">
<polygon fill="none" stroke="#000000" points="89,-319 89,-338 219,-338 219,-319 89,-319"/>
<text text-anchor="middle" x="154" y="-326" font-family="Helvetica,sans-Serif" font-size="10.00" fill="#000000">MatrixDPProfileProcess.h</text>
</a>
</g>
</g>
<!-- Node19&#45;&gt;Node20 -->
<g id="edge1" class="edge">
<title>Node19&#45;&gt;Node20</title>
<path fill="none" stroke="#191970" d="M548.0798,-379.2027C454.3309,-367.1409 304.5569,-347.8708 219.1934,-336.8879"/>
<polygon fill="#191970" stroke="#191970" points="547.7338,-382.687 558.0987,-380.4918 548.6271,-375.7442 547.7338,-382.687"/>
</g>
<!-- Node26 -->
<g id="node8" class="node">
<title>Node26</title>
<g id="a_node8"><a xlink:href="GTRMixtureProfileProcess_8h.html" target="_top" xlink:title="GTRMixtureProfileProcess.h">
<polygon fill="none" stroke="#000000" points="400,-319 400,-338 542,-338 542,-319 400,-319"/>
<text text-anchor="middle" x="471" y="-326" font-family="Helvetica,sans-Serif" font-size="10.00" fill="#000000">GTRMixtureProfileProcess.h</text>
</a>
</g>
</g>
<!-- Node19&#45;&gt;Node26 -->
<g id="edge7" class="edge">
<title>Node19&#45;&gt;Node26</title>
<path fill="none" stroke="#191970" d="M597.4422,-376.7993C566.9372,-365.1468 523.2011,-348.4402 495.9796,-338.0419"/>
<polygon fill="#191970" stroke="#191970" points="596.2531,-380.0917 606.8438,-380.3906 598.751,-373.5526 596.2531,-380.0917"/>
</g>
<!-- Node36 -->
<g id="node18" class="node">
<title>Node36</title>
<g id="a_node18"><a xlink:href="MatrixSBDPProfileProcess_8h.html" target="_top" xlink:title="MatrixSBDPProfileProcess.h">
<polygon fill="none" stroke="#000000" points="560.5,-319 560.5,-338 703.5,-338 703.5,-319 560.5,-319"/>
<text text-anchor="middle" x="632" y="-326" font-family="Helvetica,sans-Serif" font-size="10.00" fill="#000000">MatrixSBDPProfileProcess.h</text>
</a>
</g>
</g>
<!-- Node19&#45;&gt;Node36 -->
<g id="edge18" class="edge">
<title>Node19&#45;&gt;Node36</title>
<path fill="none" stroke="#191970" d="M632,-370.2462C632,-359.5519 632,-346.814 632,-338.2449"/>
<polygon fill="#191970" stroke="#191970" points="628.5001,-370.3906 632,-380.3906 635.5001,-370.3907 628.5001,-370.3906"/>
</g>
<!-- Node38 -->
<g id="node20" class="node">
<title>Node38</title>
<g id="a_node20"><a xlink:href="GeneralPathSuffStatMatrixMixtureProfileProcess_8h.html" target="_top" xlink:title="GeneralPathSuffStatMatrix\lMixtureProfileProcess.h">
<polygon fill="none" stroke="#000000" points="722,-313.5 722,-343.5 856,-343.5 856,-313.5 722,-313.5"/>
<text text-anchor="start" x="730" y="-331.5" font-family="Helvetica,sans-Serif" font-size="10.00" fill="#000000">GeneralPathSuffStatMatrix</text>
<text text-anchor="middle" x="789" y="-320.5" font-family="Helvetica,sans-Serif" font-size="10.00" fill="#000000">MixtureProfileProcess.h</text>
</a>
</g>
</g>
<!-- Node19&#45;&gt;Node38 -->
<g id="edge21" class="edge">
<title>Node19&#45;&gt;Node38</title>
<path fill="none" stroke="#191970" d="M665.9368,-376.7063C690.8422,-366.9503 724.6967,-353.6889 750.5935,-343.5446"/>
<polygon fill="#191970" stroke="#191970" points="664.5658,-373.4843 656.5313,-380.3906 667.119,-380.0021 664.5658,-373.4843"/>
</g>
<!-- Node40 -->
<g id="node22" class="node">
<title>Node40</title>
<g id="a_node22"><a xlink:href="MatrixMixtureProfileProcess_8cpp.html" target="_top" xlink:title="MatrixMixtureProfileProcess.cpp">
<polygon fill="none" stroke="#000000" points="874,-319 874,-338 1032,-338 1032,-319 874,-319"/>
<text text-anchor="middle" x="953" y="-326" font-family="Helvetica,sans-Serif" font-size="10.00" fill="#000000">MatrixMixtureProfileProcess.cpp</text>
</a>
</g>
</g>
<!-- Node19&#45;&gt;Node40 -->
<g id="edge23" class="edge">
<title>Node19&#45;&gt;Node40</title>
<path fill="none" stroke="#191970" d="M691.6732,-378.5673C752.6548,-366.8839 846.2726,-348.9478 903.3432,-338.0137"/>
<polygon fill="#191970" stroke="#191970" points="690.9668,-375.1389 681.804,-380.4581 692.284,-382.0138 690.9668,-375.1389"/>
</g>
<!-- Node21 -->
<g id="node3" class="node">
<title>Node21</title>
<g id="a_node3"><a xlink:href="ExpoConjugateGTRDPProfileProcess_8h.html" target="_top" xlink:title="ExpoConjugateGTRDPProfile\lProcess.h">
<polygon fill="none" stroke="#000000" points="17,-179.5 17,-209.5 163,-209.5 163,-179.5 17,-179.5"/>
<text text-anchor="start" x="25" y="-197.5" font-family="Helvetica,sans-Serif" font-size="10.00" fill="#000000">ExpoConjugateGTRDPProfile</text>
<text text-anchor="middle" x="90" y="-186.5" font-family="Helvetica,sans-Serif" font-size="10.00" fill="#000000">Process.h</text>
</a>
</g>
</g>
<!-- Node20&#45;&gt;Node21 -->
<g id="edge2" class="edge">
<title>Node20&#45;&gt;Node21</title>
<path fill="none" stroke="#191970" d="M117.8491,-314.5185C101.6677,-306.2274 84.1931,-293.967 75,-277 63.4183,-255.6246 73.3304,-227.0293 81.6222,-209.7302"/>
<polygon fill="#191970" stroke="#191970" points="116.6209,-317.8101 127.1546,-318.947 119.629,-311.4894 116.6209,-317.8101"/>
</g>
<!-- Node25 -->
<g id="node7" class="node">
<title>Node25</title>
<g id="a_node7"><a xlink:href="MatrixDPProfileProcess_8cpp.html" target="_top" xlink:title="MatrixDPProfileProcess.cpp">
<polygon fill="none" stroke="#000000" points="84,-252 84,-271 224,-271 224,-252 84,-252"/>
<text text-anchor="middle" x="154" y="-259" font-family="Helvetica,sans-Serif" font-size="10.00" fill="#000000">MatrixDPProfileProcess.cpp</text>
</a>
</g>
</g>
<!-- Node20&#45;&gt;Node25 -->
<g id="edge6" class="edge">
<title>Node20&#45;&gt;Node25</title>
<path fill="none" stroke="#191970" d="M154,-308.6079C154,-296.214 154,-280.8263 154,-271.0817"/>
<polygon fill="#191970" stroke="#191970" points="150.5001,-308.9005 154,-318.9005 157.5001,-308.9006 150.5001,-308.9005"/>
</g>
<!-- Node22 -->
<g id="node4" class="node">
<title>Node22</title>
<g id="a_node4"><a xlink:href="ExpoConjugateGTRDPProfileProcess_8cpp.html" target="_top" xlink:title="ExpoConjugateGTRDPProfile\lProcess.cpp">
<polygon fill="none" stroke="#000000" points="0,-112.5 0,-142.5 146,-142.5 146,-112.5 0,-112.5"/>
<text text-anchor="start" x="8" y="-130.5" font-family="Helvetica,sans-Serif" font-size="10.00" fill="#000000">ExpoConjugateGTRDPProfile</text>
<text text-anchor="middle" x="73" y="-119.5" font-family="Helvetica,sans-Serif" font-size="10.00" fill="#000000">Process.cpp</text>
</a>
</g>
</g>
<!-- Node21&#45;&gt;Node22 -->
<g id="edge3" class="edge">
<title>Node21&#45;&gt;Node22</title>
<path fill="none" stroke="#191970" d="M83.6105,-169.3179C81.3329,-160.3414 78.8394,-150.5143 76.8423,-142.6432"/>
<polygon fill="#191970" stroke="#191970" points="80.2905,-170.4646 86.1424,-179.2967 87.0755,-168.743 80.2905,-170.4646"/>
</g>
<!-- Node23 -->
<g id="node5" class="node">
<title>Node23</title>
<g id="a_node5"><a xlink:href="RASCATGTRDPGammaPhyloProcess_8h.html" target="_top" xlink:title="RASCATGTRDPGammaPhyloProcess.h">
<polygon fill="none" stroke="#000000" points="164.5,-118 164.5,-137 361.5,-137 361.5,-118 164.5,-118"/>
<text text-anchor="middle" x="263" y="-125" font-family="Helvetica,sans-Serif" font-size="10.00" fill="#000000">RASCATGTRDPGammaPhyloProcess.h</text>
</a>
</g>
</g>
<!-- Node21&#45;&gt;Node23 -->
<g id="edge4" class="edge">
<title>Node21&#45;&gt;Node23</title>
<path fill="none" stroke="#191970" d="M138.187,-175.838C170.7803,-163.2151 212.4688,-147.0699 238.4565,-137.0053"/>
<polygon fill="#191970" stroke="#191970" points="136.8856,-172.5886 128.8246,-179.4639 139.4137,-179.1162 136.8856,-172.5886"/>
</g>
<!-- Node24 -->
<g id="node6" class="node">
<title>Node24</title>
<g id="a_node6"><a xlink:href="RASCATGTRDPGammaPhyloProcess_8cpp.html" target="_top" xlink:title="RASCATGTRDPGammaPhyloProcess.cpp">
<polygon fill="none" stroke="#000000" points="159.5,-56.5 159.5,-75.5 366.5,-75.5 366.5,-56.5 159.5,-56.5"/>
<text text-anchor="middle" x="263" y="-63.5" font-family="Helvetica,sans-Serif" font-size="10.00" fill="#000000">RASCATGTRDPGammaPhyloProcess.cpp</text>
</a>
</g>
</g>
<!-- Node23&#45;&gt;Node24 -->
<g id="edge5" class="edge">
<title>Node23&#45;&gt;Node24</title>
<path fill="none" stroke="#191970" d="M263,-107.7462C263,-97.0519 263,-84.314 263,-75.7449"/>
<polygon fill="#191970" stroke="#191970" points="259.5001,-107.8906 263,-117.8906 266.5001,-107.8907 259.5001,-107.8906"/>
</g>
<!-- Node27 -->
<g id="node9" class="node">
<title>Node27</title>
<g id="a_node9"><a xlink:href="ExpoConjugateGTRMixtureProfileProcess_8h.html" target="_top" xlink:title="ExpoConjugateGTRMixtureProfile\lProcess.h">
<polygon fill="none" stroke="#000000" points="242,-246.5 242,-276.5 406,-276.5 406,-246.5 242,-246.5"/>
<text text-anchor="start" x="250" y="-264.5" font-family="Helvetica,sans-Serif" font-size="10.00" fill="#000000">ExpoConjugateGTRMixtureProfile</text>
<text text-anchor="middle" x="324" y="-253.5" font-family="Helvetica,sans-Serif" font-size="10.00" fill="#000000">Process.h</text>
</a>
</g>
</g>
<!-- Node26&#45;&gt;Node27 -->
<g id="edge8" class="edge">
<title>Node26&#45;&gt;Node27</title>
<path fill="none" stroke="#191970" d="M440.7857,-314.7289C416.3764,-303.6035 382.0723,-287.9683 356.9582,-276.5218"/>
<polygon fill="#191970" stroke="#191970" points="439.3875,-317.9379 449.9385,-318.9005 442.2906,-311.5683 439.3875,-317.9379"/>
</g>
<!-- Node35 -->
<g id="node17" class="node">
<title>Node35</title>
<g id="a_node17"><a xlink:href="GTRMixtureProfileProcess_8cpp.html" target="_top" xlink:title="GTRMixtureProfileProcess.cpp">
<polygon fill="none" stroke="#000000" points="424,-252 424,-271 576,-271 576,-252 424,-252"/>
<text text-anchor="middle" x="500" y="-259" font-family="Helvetica,sans-Serif" font-size="10.00" fill="#000000">GTRMixtureProfileProcess.cpp</text>
</a>
</g>
</g>
<!-- Node26&#45;&gt;Node35 -->
<g id="edge17" class="edge">
<title>Node26&#45;&gt;Node35</title>
<path fill="none" stroke="#191970" d="M479.2832,-309.3628C484.7017,-296.8444 491.5488,-281.0252 495.8527,-271.0817"/>
<polygon fill="#191970" stroke="#191970" points="475.9153,-308.333 475.155,-318.9005 482.3393,-311.1136 475.9153,-308.333"/>
</g>
<!-- Node27&#45;&gt;Node21 -->
<g id="edge9" class="edge">
<title>Node27&#45;&gt;Node21</title>
<path fill="none" stroke="#191970" d="M261.7778,-243.6842C224.661,-233.0568 178.0452,-219.7095 142.7432,-209.6017"/>
<polygon fill="#191970" stroke="#191970" points="260.9087,-247.076 271.4858,-246.4639 262.8356,-240.3464 260.9087,-247.076"/>
</g>
<!-- Node28 -->
<g id="node10" class="node">
<title>Node28</title>
<g id="a_node10"><a xlink:href="ExpoConjugateGTRMixtureProfileProcess_8cpp.html" target="_top" xlink:title="ExpoConjugateGTRMixtureProfile\lProcess.cpp">
<polygon fill="none" stroke="#000000" points="242,-179.5 242,-209.5 406,-209.5 406,-179.5 242,-179.5"/>
<text text-anchor="start" x="250" y="-197.5" font-family="Helvetica,sans-Serif" font-size="10.00" fill="#000000">ExpoConjugateGTRMixtureProfile</text>
<text text-anchor="middle" x="324" y="-186.5" font-family="Helvetica,sans-Serif" font-size="10.00" fill="#000000">Process.cpp</text>
</a>
</g>
</g>
<!-- Node27&#45;&gt;Node28 -->
<g id="edge10" class="edge">
<title>Node27&#45;&gt;Node28</title>
<path fill="none" stroke="#191970" d="M324,-236.0249C324,-227.128 324,-217.4287 324,-209.6432"/>
<polygon fill="#191970" stroke="#191970" points="320.5001,-236.2966 324,-246.2967 327.5001,-236.2967 320.5001,-236.2966"/>
</g>
<!-- Node29 -->
<g id="node11" class="node">
<title>Node29</title>
<g id="a_node11"><a xlink:href="ExpoConjugateGTRSBDPProfileProcess_8h.html" target="_top" xlink:title="ExpoConjugateGTRSBDPProfile\lProcess.h">
<polygon fill="none" stroke="#000000" points="452,-179.5 452,-209.5 612,-209.5 612,-179.5 452,-179.5"/>
<text text-anchor="start" x="460" y="-197.5" font-family="Helvetica,sans-Serif" font-size="10.00" fill="#000000">ExpoConjugateGTRSBDPProfile</text>
<text text-anchor="middle" x="532" y="-186.5" font-family="Helvetica,sans-Serif" font-size="10.00" fill="#000000">Process.h</text>
</a>
</g>
</g>
<!-- Node27&#45;&gt;Node29 -->
<g id="edge11" class="edge">
<title>Node27&#45;&gt;Node29</title>
<path fill="none" stroke="#191970" d="M380.5763,-243.2759C413.3577,-232.7165 454.1382,-219.5805 485.1171,-209.6017"/>
<polygon fill="#191970" stroke="#191970" points="379.1245,-240.0664 370.6793,-246.4639 381.2708,-246.7292 379.1245,-240.0664"/>
</g>
<!-- Node30 -->
<g id="node12" class="node">
<title>Node30</title>
<g id="a_node12"><a xlink:href="ExpoConjugateGTRSBDPProfileProcess_8cpp.html" target="_top" xlink:title="ExpoConjugateGTRSBDPProfile\lProcess.cpp">
<polygon fill="none" stroke="#000000" points="419,-112.5 419,-142.5 579,-142.5 579,-112.5 419,-112.5"/>
<text text-anchor="start" x="427" y="-130.5" font-family="Helvetica,sans-Serif" font-size="10.00" fill="#000000">ExpoConjugateGTRSBDPProfile</text>
<text text-anchor="middle" x="499" y="-119.5" font-family="Helvetica,sans-Serif" font-size="10.00" fill="#000000">Process.cpp</text>
</a>
</g>
</g>
<!-- Node29&#45;&gt;Node30 -->
<g id="edge12" class="edge">
<title>Node29&#45;&gt;Node30</title>
<path fill="none" stroke="#191970" d="M520.028,-170.1932C515.4923,-160.9844 510.4618,-150.771 506.4586,-142.6432"/>
<polygon fill="#191970" stroke="#191970" points="516.9534,-171.8723 524.5118,-179.2967 523.2331,-168.7793 516.9534,-171.8723"/>
</g>
<!-- Node31 -->
<g id="node13" class="node">
<title>Node31</title>
<g id="a_node13"><a xlink:href="RASCATGTRSBDPGammaPhyloProcess_8h.html" target="_top" xlink:title="RASCATGTRSBDPGammaPhyloProcess.h">
<polygon fill="none" stroke="#000000" points="597,-118 597,-137 807,-137 807,-118 597,-118"/>
<text text-anchor="middle" x="702" y="-125" font-family="Helvetica,sans-Serif" font-size="10.00" fill="#000000">RASCATGTRSBDPGammaPhyloProcess.h</text>
</a>
</g>
</g>
<!-- Node29&#45;&gt;Node31 -->
<g id="edge13" class="edge">
<title>Node29&#45;&gt;Node31</title>
<path fill="none" stroke="#191970" d="M579.7348,-175.6869C611.6012,-163.1278 652.1802,-147.1349 677.6318,-137.1039"/>
<polygon fill="#191970" stroke="#191970" points="578.1715,-172.5409 570.1513,-179.4639 580.7382,-179.0534 578.1715,-172.5409"/>
</g>
<!-- Node32 -->
<g id="node14" class="node">
<title>Node32</title>
<g id="a_node14"><a xlink:href="Model_8h.html" target="_top" xlink:title="Model.h">
<polygon fill="none" stroke="#000000" points="599.5,-56.5 599.5,-75.5 650.5,-75.5 650.5,-56.5 599.5,-56.5"/>
<text text-anchor="middle" x="625" y="-63.5" font-family="Helvetica,sans-Serif" font-size="10.00" fill="#000000">Model.h</text>
</a>
</g>
</g>
<!-- Node31&#45;&gt;Node32 -->
<g id="edge14" class="edge">
<title>Node31&#45;&gt;Node32</title>
<path fill="none" stroke="#191970" d="M682.1542,-111.6491C667.847,-100.222 649.0076,-85.1749 636.9468,-75.5419"/>
<polygon fill="#191970" stroke="#191970" points="679.9708,-114.3846 689.9688,-117.8906 684.3394,-108.915 679.9708,-114.3846"/>
</g>
<!-- Node34 -->
<g id="node16" class="node">
<title>Node34</title>
<g id="a_node16"><a xlink:href="RASCATGTRSBDPGammaPhyloProcess_8cpp.html" target="_top" xlink:title="RASCATGTRSBDPGammaPhyloProcess.cpp">
<polygon fill="none" stroke="#000000" points="668.5,-56.5 668.5,-75.5 889.5,-75.5 889.5,-56.5 668.5,-56.5"/>
<text text-anchor="middle" x="779" y="-63.5" font-family="Helvetica,sans-Serif" font-size="10.00" fill="#000000">RASCATGTRSBDPGammaPhyloProcess.cpp</text>
</a>
</g>
</g>
<!-- Node31&#45;&gt;Node34 -->
<g id="edge16" class="edge">
<title>Node31&#45;&gt;Node34</title>
<path fill="none" stroke="#191970" d="M721.8458,-111.6491C736.153,-100.222 754.9924,-85.1749 767.0532,-75.5419"/>
<polygon fill="#191970" stroke="#191970" points="719.6606,-108.915 714.0313,-117.8906 724.0292,-114.3846 719.6606,-108.915"/>
</g>
<!-- Node33 -->
<g id="node15" class="node">
<title>Node33</title>
<g id="a_node15"><a xlink:href="PB_8cpp.html" target="_top" xlink:title="PB.cpp">
<polygon fill="none" stroke="#000000" points="600.5,-.5 600.5,-19.5 649.5,-19.5 649.5,-.5 600.5,-.5"/>
<text text-anchor="middle" x="625" y="-7.5" font-family="Helvetica,sans-Serif" font-size="10.00" fill="#000000">PB.cpp</text>
</a>
</g>
</g>
<!-- Node32&#45;&gt;Node33 -->
<g id="edge15" class="edge">
<title>Node32&#45;&gt;Node33</title>
<path fill="none" stroke="#191970" d="M625,-46.1575C625,-37.155 625,-26.9199 625,-19.6427"/>
<polygon fill="#191970" stroke="#191970" points="621.5001,-46.2455 625,-56.2455 628.5001,-46.2456 621.5001,-46.2455"/>
</g>
<!-- Node36&#45;&gt;Node29 -->
<g id="edge19" class="edge">
<title>Node36&#45;&gt;Node29</title>
<path fill="none" stroke="#191970" d="M623.2092,-309.705C614.6587,-292.3481 600.69,-266.2666 585,-246 574.6327,-232.6086 560.8656,-219.3348 549.9611,-209.6177"/>
<polygon fill="#191970" stroke="#191970" points="620.099,-311.3135 627.5895,-318.8063 626.4065,-308.2777 620.099,-311.3135"/>
</g>
<!-- Node37 -->
<g id="node19" class="node">
<title>Node37</title>
<g id="a_node19"><a xlink:href="MatrixSBDPProfileProcess_8cpp.html" target="_top" xlink:title="MatrixSBDPProfileProcess.cpp">
<polygon fill="none" stroke="#000000" points="632,-252 632,-271 786,-271 786,-252 632,-252"/>
<text text-anchor="middle" x="709" y="-259" font-family="Helvetica,sans-Serif" font-size="10.00" fill="#000000">MatrixSBDPProfileProcess.cpp</text>
</a>
</g>
</g>
<!-- Node36&#45;&gt;Node37 -->
<g id="edge20" class="edge">
<title>Node36&#45;&gt;Node37</title>
<path fill="none" stroke="#191970" d="M650.6188,-312.2992C665.4282,-299.4131 685.6464,-281.8207 697.9882,-271.0817"/>
<polygon fill="#191970" stroke="#191970" points="648.2787,-309.6959 643.0322,-318.9005 652.8737,-314.9767 648.2787,-309.6959"/>
</g>
<!-- Node39 -->
<g id="node21" class="node">
<title>Node39</title>
<g id="a_node21"><a xlink:href="GeneralPathSuffStatMatrixMixtureProfileProcess_8cpp.html" target="_top" xlink:title="GeneralPathSuffStatMatrix\lMixtureProfileProcess.cpp">
<polygon fill="none" stroke="#000000" points="804,-246.5 804,-276.5 938,-276.5 938,-246.5 804,-246.5"/>
<text text-anchor="start" x="812" y="-264.5" font-family="Helvetica,sans-Serif" font-size="10.00" fill="#000000">GeneralPathSuffStatMatrix</text>
<text text-anchor="middle" x="871" y="-253.5" font-family="Helvetica,sans-Serif" font-size="10.00" fill="#000000">MixtureProfileProcess.cpp</text>
</a>
</g>
</g>
<!-- Node38&#45;&gt;Node39 -->
<g id="edge22" class="edge">
<title>Node38&#45;&gt;Node39</title>
<path fill="none" stroke="#191970" d="M815.5817,-306.7808C827.6278,-296.9383 841.5767,-285.541 852.4666,-276.6432"/>
<polygon fill="#191970" stroke="#191970" points="813.1363,-304.2591 807.6071,-313.2967 817.5654,-309.6797 813.1363,-304.2591"/>
</g>
</g>
</svg>
