<?xml version="1.0" encoding="UTF-8" standalone="no"?>
<!DOCTYPE svg PUBLIC "-//W3C//DTD SVG 1.1//EN"
 "http://www.w3.org/Graphics/SVG/1.1/DTD/svg11.dtd">
<!-- Generated by graphviz version 2.38.0 (20140413.2041)
 -->
<!-- Title: MatrixFiniteProfileProcess.h Pages: 1 -->
<svg width="1191pt" height="352pt"
 viewBox="0.00 0.00 1191.00 352.00" xmlns="http://www.w3.org/2000/svg" xmlns:xlink="http://www.w3.org/1999/xlink">
<g id="graph0" class="graph" transform="scale(1 1) rotate(0) translate(4 348)">
<title>MatrixFiniteProfileProcess.h</title>
<!-- Node21 -->
<g id="node1" class="node"><title>Node21</title>
<polygon fill="#bfbfbf" stroke="black" points="616.5,-324.5 616.5,-343.5 756.5,-343.5 756.5,-324.5 616.5,-324.5"/>
<text text-anchor="middle" x="686.5" y="-331.5" font-family="Helvetica,sans-Serif" font-size="10.00">MatrixFiniteProfileProcess.h</text>
</g>
<!-- Node22 -->
<g id="node2" class="node"><title>Node22</title>
<g id="a_node2"><a xlink:href="AACodonMutSelFiniteProfileProcess_8h.html" target="_top" xlink:title="AACodonMutSelFiniteProfile\lProcess.h">
<polygon fill="none" stroke="black" points="108,-257.5 108,-287.5 249,-287.5 249,-257.5 108,-257.5"/>
<text text-anchor="start" x="116" y="-275.5" font-family="Helvetica,sans-Serif" font-size="10.00">AACodonMutSelFiniteProfile</text>
<text text-anchor="middle" x="178.5" y="-264.5" font-family="Helvetica,sans-Serif" font-size="10.00">Process.h</text>
</a>
</g>
</g>
<!-- Node21&#45;&gt;Node22 -->
<g id="edge1" class="edge"><title>Node21&#45;&gt;Node22</title>
<path fill="none" stroke="midnightblue" d="M606.213,-323.596C507.866,-312.077 342.817,-292.746 249.107,-281.77"/>
<polygon fill="midnightblue" stroke="midnightblue" points="606.059,-327.102 616.398,-324.789 606.873,-320.15 606.059,-327.102"/>
</g>
<!-- Node29 -->
<g id="node9" class="node"><title>Node29</title>
<g id="a_node9"><a xlink:href="CodonMutSelFiniteProfileProcess_8h.html" target="_top" xlink:title="CodonMutSelFiniteProfile\lProcess.h">
<polygon fill="none" stroke="black" points="543.5,-257.5 543.5,-287.5 671.5,-287.5 671.5,-257.5 543.5,-257.5"/>
<text text-anchor="start" x="551.5" y="-275.5" font-family="Helvetica,sans-Serif" font-size="10.00">CodonMutSelFiniteProfile</text>
<text text-anchor="middle" x="607.5" y="-264.5" font-family="Helvetica,sans-Serif" font-size="10.00">Process.h</text>
</a>
</g>
</g>
<!-- Node21&#45;&gt;Node29 -->
<g id="edge8" class="edge"><title>Node21&#45;&gt;Node29</title>
<path fill="none" stroke="midnightblue" d="M666.844,-318.195C654.386,-308.813 638.371,-296.751 626.119,-287.523"/>
<polygon fill="midnightblue" stroke="midnightblue" points="665.088,-321.255 675.181,-324.475 669.299,-315.663 665.088,-321.255"/>
</g>
<!-- Node33 -->
<g id="node13" class="node"><title>Node33</title>
<g id="a_node13"><a xlink:href="ExpoConjugateGTRFiniteProfileProcess_8h.html" target="_top" xlink:title="ExpoConjugateGTRFiniteProfile\lProcess.h">
<polygon fill="none" stroke="black" points="363.5,-257.5 363.5,-287.5 519.5,-287.5 519.5,-257.5 363.5,-257.5"/>
<text text-anchor="start" x="371.5" y="-275.5" font-family="Helvetica,sans-Serif" font-size="10.00">ExpoConjugateGTRFiniteProfile</text>
<text text-anchor="middle" x="441.5" y="-264.5" font-family="Helvetica,sans-Serif" font-size="10.00">Process.h</text>
</a>
</g>
</g>
<!-- Node21&#45;&gt;Node33 -->
<g id="edge13" class="edge"><title>Node21&#45;&gt;Node33</title>
<path fill="none" stroke="midnightblue" d="M641.647,-322.107C601.62,-312.386 542.774,-298.095 499.242,-287.523"/>
<polygon fill="midnightblue" stroke="midnightblue" points="640.854,-325.516 651.397,-324.475 642.506,-318.714 640.854,-325.516"/>
</g>
<!-- Node37 -->
<g id="node17" class="node"><title>Node37</title>
<g id="a_node17"><a xlink:href="GeneralPathSuffStatGTRFiniteProfileProcess_8h.html" target="_top" xlink:title="GeneralPathSuffStatGTRFinite\lProfileProcess.h">
<polygon fill="none" stroke="black" points="689.5,-257.5 689.5,-287.5 841.5,-287.5 841.5,-257.5 689.5,-257.5"/>
<text text-anchor="start" x="697.5" y="-275.5" font-family="Helvetica,sans-Serif" font-size="10.00">GeneralPathSuffStatGTRFinite</text>
<text text-anchor="middle" x="765.5" y="-264.5" font-family="Helvetica,sans-Serif" font-size="10.00">ProfileProcess.h</text>
</a>
</g>
</g>
<!-- Node21&#45;&gt;Node37 -->
<g id="edge18" class="edge"><title>Node21&#45;&gt;Node37</title>
<path fill="none" stroke="midnightblue" d="M706.156,-318.195C718.614,-308.813 734.629,-296.751 746.881,-287.523"/>
<polygon fill="midnightblue" stroke="midnightblue" points="703.701,-315.663 697.819,-324.475 707.912,-321.255 703.701,-315.663"/>
</g>
<!-- Node39 -->
<g id="node19" class="node"><title>Node39</title>
<g id="a_node19"><a xlink:href="MatrixFiniteProfileProcess_8cpp.html" target="_top" xlink:title="MatrixFiniteProfileProcess.cpp">
<polygon fill="none" stroke="black" points="859.5,-263 859.5,-282 1009.5,-282 1009.5,-263 859.5,-263"/>
<text text-anchor="middle" x="934.5" y="-270" font-family="Helvetica,sans-Serif" font-size="10.00">MatrixFiniteProfileProcess.cpp</text>
</a>
</g>
</g>
<!-- Node21&#45;&gt;Node39 -->
<g id="edge20" class="edge"><title>Node21&#45;&gt;Node39</title>
<path fill="none" stroke="midnightblue" d="M731.875,-322.114C780.01,-310.565 855.05,-292.561 899.034,-282.009"/>
<polygon fill="midnightblue" stroke="midnightblue" points="730.94,-318.739 722.032,-324.475 732.573,-325.545 730.94,-318.739"/>
</g>
<!-- Node40 -->
<g id="node20" class="node"><title>Node40</title>
<g id="a_node20"><a xlink:href="MatrixInfiniteProfileProcess_8cpp.html" target="_top" xlink:title="MatrixInfiniteProfileProcess.cpp">
<polygon fill="none" stroke="black" points="1028,-263 1028,-282 1183,-282 1183,-263 1028,-263"/>
<text text-anchor="middle" x="1105.5" y="-270" font-family="Helvetica,sans-Serif" font-size="10.00">MatrixInfiniteProfileProcess.cpp</text>
</a>
</g>
</g>
<!-- Node21&#45;&gt;Node40 -->
<g id="edge21" class="edge"><title>Node21&#45;&gt;Node40</title>
<path fill="none" stroke="midnightblue" d="M764.094,-323.161C831.439,-314.46 931.519,-301.14 1018.5,-288 1030.61,-286.17 1043.65,-284.068 1055.85,-282.042"/>
<polygon fill="midnightblue" stroke="midnightblue" points="763.458,-319.714 753.988,-324.464 764.353,-326.657 763.458,-319.714"/>
</g>
<!-- Node23 -->
<g id="node3" class="node"><title>Node23</title>
<g id="a_node3"><a xlink:href="AACodonMutSelFiniteSubstitutionProcess_8h.html" target="_top" xlink:title="AACodonMutSelFiniteSubstitution\lProcess.h">
<polygon fill="none" stroke="black" points="0,-190.5 0,-220.5 165,-220.5 165,-190.5 0,-190.5"/>
<text text-anchor="start" x="8" y="-208.5" font-family="Helvetica,sans-Serif" font-size="10.00">AACodonMutSelFiniteSubstitution</text>
<text text-anchor="middle" x="82.5" y="-197.5" font-family="Helvetica,sans-Serif" font-size="10.00">Process.h</text>
</a>
</g>
</g>
<!-- Node22&#45;&gt;Node23 -->
<g id="edge2" class="edge"><title>Node22&#45;&gt;Node23</title>
<path fill="none" stroke="midnightblue" d="M149.307,-251.734C134.452,-241.676 116.742,-229.685 103.29,-220.577"/>
<polygon fill="midnightblue" stroke="midnightblue" points="147.427,-254.688 157.669,-257.396 151.351,-248.891 147.427,-254.688"/>
</g>
<!-- Node24 -->
<g id="node4" class="node"><title>Node24</title>
<g id="a_node4"><a xlink:href="AACodonMutSelFinitePhyloProcess_8h.html" target="_top" xlink:title="AACodonMutSelFinitePhylo\lProcess.h">
<polygon fill="none" stroke="black" points="47.5,-123.5 47.5,-153.5 185.5,-153.5 185.5,-123.5 47.5,-123.5"/>
<text text-anchor="start" x="55.5" y="-141.5" font-family="Helvetica,sans-Serif" font-size="10.00">AACodonMutSelFinitePhylo</text>
<text text-anchor="middle" x="116.5" y="-130.5" font-family="Helvetica,sans-Serif" font-size="10.00">Process.h</text>
</a>
</g>
</g>
<!-- Node23&#45;&gt;Node24 -->
<g id="edge3" class="edge"><title>Node23&#45;&gt;Node24</title>
<path fill="none" stroke="midnightblue" d="M94.644,-181.283C99.4884,-172.022 104.907,-161.663 109.137,-153.577"/>
<polygon fill="midnightblue" stroke="midnightblue" points="91.4112,-179.913 89.8775,-190.396 97.6139,-183.157 91.4112,-179.913"/>
</g>
<!-- Node25 -->
<g id="node5" class="node"><title>Node25</title>
<g id="a_node5"><a xlink:href="AACodonMutSelFinitePhyloProcess_8cpp.html" target="_top" xlink:title="AACodonMutSelFinitePhylo\lProcess.cpp">
<polygon fill="none" stroke="black" points="47.5,-56.5 47.5,-86.5 185.5,-86.5 185.5,-56.5 47.5,-56.5"/>
<text text-anchor="start" x="55.5" y="-74.5" font-family="Helvetica,sans-Serif" font-size="10.00">AACodonMutSelFinitePhylo</text>
<text text-anchor="middle" x="116.5" y="-63.5" font-family="Helvetica,sans-Serif" font-size="10.00">Process.cpp</text>
</a>
</g>
</g>
<!-- Node24&#45;&gt;Node25 -->
<g id="edge4" class="edge"><title>Node24&#45;&gt;Node25</title>
<path fill="none" stroke="midnightblue" d="M116.5,-113.108C116.5,-104.154 116.5,-94.3227 116.5,-86.5765"/>
<polygon fill="midnightblue" stroke="midnightblue" points="113,-113.396 116.5,-123.396 120,-113.396 113,-113.396"/>
</g>
<!-- Node26 -->
<g id="node6" class="node"><title>Node26</title>
<g id="a_node6"><a xlink:href="Model_8h.html" target="_top" xlink:title="Model.h">
<polygon fill="none" stroke="black" points="221,-62 221,-81 272,-81 272,-62 221,-62"/>
<text text-anchor="middle" x="246.5" y="-69" font-family="Helvetica,sans-Serif" font-size="10.00">Model.h</text>
</a>
</g>
</g>
<!-- Node24&#45;&gt;Node26 -->
<g id="edge5" class="edge"><title>Node24&#45;&gt;Node26</title>
<path fill="none" stroke="midnightblue" d="M153.894,-118.803C178.816,-106.342 210.388,-90.5558 229.486,-81.007"/>
<polygon fill="midnightblue" stroke="midnightblue" points="152.087,-115.793 144.708,-123.396 155.218,-122.054 152.087,-115.793"/>
</g>
<!-- Node27 -->
<g id="node7" class="node"><title>Node27</title>
<g id="a_node7"><a xlink:href="PB_8cpp.html" target="_top" xlink:title="PB.cpp">
<polygon fill="none" stroke="black" points="182,-0.5 182,-19.5 231,-19.5 231,-0.5 182,-0.5"/>
<text text-anchor="middle" x="206.5" y="-7.5" font-family="Helvetica,sans-Serif" font-size="10.00">PB.cpp</text>
</a>
</g>
</g>
<!-- Node26&#45;&gt;Node27 -->
<g id="edge6" class="edge"><title>Node26&#45;&gt;Node27</title>
<path fill="none" stroke="midnightblue" d="M235.075,-53.5051C227.601,-42.388 218.157,-28.3395 212.22,-19.5091"/>
<polygon fill="midnightblue" stroke="midnightblue" points="232.285,-55.6288 240.769,-61.9751 238.094,-51.7234 232.285,-55.6288"/>
</g>
<!-- Node28 -->
<g id="node8" class="node"><title>Node28</title>
<g id="a_node8"><a xlink:href="ReadPB_8cpp.html" target="_top" xlink:title="ReadPB.cpp">
<polygon fill="none" stroke="black" points="249.5,-0.5 249.5,-19.5 321.5,-19.5 321.5,-0.5 249.5,-0.5"/>
<text text-anchor="middle" x="285.5" y="-7.5" font-family="Helvetica,sans-Serif" font-size="10.00">ReadPB.cpp</text>
</a>
</g>
</g>
<!-- Node26&#45;&gt;Node28 -->
<g id="edge7" class="edge"><title>Node26&#45;&gt;Node28</title>
<path fill="none" stroke="midnightblue" d="M257.64,-53.5051C264.926,-42.388 274.135,-28.3395 279.923,-19.5091"/>
<polygon fill="midnightblue" stroke="midnightblue" points="254.643,-51.6929 252.088,-61.9751 260.497,-55.5303 254.643,-51.6929"/>
</g>
<!-- Node30 -->
<g id="node10" class="node"><title>Node30</title>
<g id="a_node10"><a xlink:href="CodonMutSelFiniteSubstitutionProcess_8h.html" target="_top" xlink:title="CodonMutSelFiniteSubstitution\lProcess.h">
<polygon fill="none" stroke="black" points="537.5,-190.5 537.5,-220.5 689.5,-220.5 689.5,-190.5 537.5,-190.5"/>
<text text-anchor="start" x="545.5" y="-208.5" font-family="Helvetica,sans-Serif" font-size="10.00">CodonMutSelFiniteSubstitution</text>
<text text-anchor="middle" x="613.5" y="-197.5" font-family="Helvetica,sans-Serif" font-size="10.00">Process.h</text>
</a>
</g>
</g>
<!-- Node29&#45;&gt;Node30 -->
<g id="edge9" class="edge"><title>Node29&#45;&gt;Node30</title>
<path fill="none" stroke="midnightblue" d="M609.724,-247.403C610.558,-238.37 611.478,-228.408 612.201,-220.577"/>
<polygon fill="midnightblue" stroke="midnightblue" points="606.236,-247.117 608.802,-257.396 613.206,-247.76 606.236,-247.117"/>
</g>
<!-- Node31 -->
<g id="node11" class="node"><title>Node31</title>
<g id="a_node11"><a xlink:href="CodonMutSelFinitePhyloProcess_8h.html" target="_top" xlink:title="CodonMutSelFinitePhyloProcess.h">
<polygon fill="none" stroke="black" points="500,-129 500,-148 669,-148 669,-129 500,-129"/>
<text text-anchor="middle" x="584.5" y="-136" font-family="Helvetica,sans-Serif" font-size="10.00">CodonMutSelFinitePhyloProcess.h</text>
</a>
</g>
</g>
<!-- Node30&#45;&gt;Node31 -->
<g id="edge10" class="edge"><title>Node30&#45;&gt;Node31</title>
<path fill="none" stroke="midnightblue" d="M602.99,-180.942C597.903,-169.54 592.105,-156.545 588.379,-148.195"/>
<polygon fill="midnightblue" stroke="midnightblue" points="599.937,-182.69 607.207,-190.396 606.329,-179.838 599.937,-182.69"/>
</g>
<!-- Node31&#45;&gt;Node26 -->
<g id="edge12" class="edge"><title>Node31&#45;&gt;Node26</title>
<path fill="none" stroke="midnightblue" d="M529.909,-127.002C455.956,-112.78 326.904,-87.9623 272.191,-77.4406"/>
<polygon fill="midnightblue" stroke="midnightblue" points="529.484,-130.484 539.965,-128.936 530.806,-123.61 529.484,-130.484"/>
</g>
<!-- Node32 -->
<g id="node12" class="node"><title>Node32</title>
<g id="a_node12"><a xlink:href="CodonMutSelFinitePhyloProcess_8cpp.html" target="_top" xlink:title="CodonMutSelFinitePhyloProcess.cpp">
<polygon fill="none" stroke="black" points="495,-62 495,-81 674,-81 674,-62 495,-62"/>
<text text-anchor="middle" x="584.5" y="-69" font-family="Helvetica,sans-Serif" font-size="10.00">CodonMutSelFinitePhyloProcess.cpp</text>
</a>
</g>
</g>
<!-- Node31&#45;&gt;Node32 -->
<g id="edge11" class="edge"><title>Node31&#45;&gt;Node32</title>
<path fill="none" stroke="midnightblue" d="M584.5,-118.537C584.5,-106.17 584.5,-90.6198 584.5,-81.1273"/>
<polygon fill="midnightblue" stroke="midnightblue" points="581,-118.734 584.5,-128.734 588,-118.734 581,-118.734"/>
</g>
<!-- Node34 -->
<g id="node14" class="node"><title>Node34</title>
<g id="a_node14"><a xlink:href="ExpoConjugateGTRFiniteProfileProcess_8cpp.html" target="_top" xlink:title="ExpoConjugateGTRFiniteProfile\lProcess.cpp">
<polygon fill="none" stroke="black" points="363.5,-190.5 363.5,-220.5 519.5,-220.5 519.5,-190.5 363.5,-190.5"/>
<text text-anchor="start" x="371.5" y="-208.5" font-family="Helvetica,sans-Serif" font-size="10.00">ExpoConjugateGTRFiniteProfile</text>
<text text-anchor="middle" x="441.5" y="-197.5" font-family="Helvetica,sans-Serif" font-size="10.00">Process.cpp</text>
</a>
</g>
</g>
<!-- Node33&#45;&gt;Node34 -->
<g id="edge14" class="edge"><title>Node33&#45;&gt;Node34</title>
<path fill="none" stroke="midnightblue" d="M441.5,-247.108C441.5,-238.154 441.5,-228.323 441.5,-220.577"/>
<polygon fill="midnightblue" stroke="midnightblue" points="438,-247.396 441.5,-257.396 445,-247.396 438,-247.396"/>
</g>
<!-- Node35 -->
<g id="node15" class="node"><title>Node35</title>
<g id="a_node15"><a xlink:href="RASCATGTRFiniteGammaPhyloProcess_8h.html" target="_top" xlink:title="RASCATGTRFiniteGammaPhylo\lProcess.h">
<polygon fill="none" stroke="black" points="183.5,-190.5 183.5,-220.5 345.5,-220.5 345.5,-190.5 183.5,-190.5"/>
<text text-anchor="start" x="191.5" y="-208.5" font-family="Helvetica,sans-Serif" font-size="10.00">RASCATGTRFiniteGammaPhylo</text>
<text text-anchor="middle" x="264.5" y="-197.5" font-family="Helvetica,sans-Serif" font-size="10.00">Process.h</text>
</a>
</g>
</g>
<!-- Node33&#45;&gt;Node35 -->
<g id="edge15" class="edge"><title>Node33&#45;&gt;Node35</title>
<path fill="none" stroke="midnightblue" d="M393.352,-253.819C364.902,-243.371 329.372,-230.323 302.831,-220.577"/>
<polygon fill="midnightblue" stroke="midnightblue" points="392.5,-257.234 403.094,-257.396 394.913,-250.663 392.5,-257.234"/>
</g>
<!-- Node35&#45;&gt;Node26 -->
<g id="edge16" class="edge"><title>Node35&#45;&gt;Node26</title>
<path fill="none" stroke="midnightblue" d="M261.202,-180.317C257.119,-150.376 250.374,-100.911 247.672,-81.0973"/>
<polygon fill="midnightblue" stroke="midnightblue" points="257.755,-180.938 262.574,-190.374 264.69,-179.992 257.755,-180.938"/>
</g>
<!-- Node36 -->
<g id="node16" class="node"><title>Node36</title>
<g id="a_node16"><a xlink:href="RASCATGTRFiniteGammaPhyloProcess_8cpp.html" target="_top" xlink:title="RASCATGTRFiniteGammaPhylo\lProcess.cpp">
<polygon fill="none" stroke="black" points="274.5,-123.5 274.5,-153.5 436.5,-153.5 436.5,-123.5 274.5,-123.5"/>
<text text-anchor="start" x="282.5" y="-141.5" font-family="Helvetica,sans-Serif" font-size="10.00">RASCATGTRFiniteGammaPhylo</text>
<text text-anchor="middle" x="355.5" y="-130.5" font-family="Helvetica,sans-Serif" font-size="10.00">Process.cpp</text>
</a>
</g>
</g>
<!-- Node35&#45;&gt;Node36 -->
<g id="edge17" class="edge"><title>Node35&#45;&gt;Node36</title>
<path fill="none" stroke="midnightblue" d="M292.568,-184.451C306.568,-174.452 323.161,-162.6 335.793,-153.577"/>
<polygon fill="midnightblue" stroke="midnightblue" points="290.349,-181.735 284.246,-190.396 294.417,-187.432 290.349,-181.735"/>
</g>
<!-- Node38 -->
<g id="node18" class="node"><title>Node38</title>
<g id="a_node18"><a xlink:href="GeneralPathSuffStatGTRFiniteProfileProcess_8cpp.html" target="_top" xlink:title="GeneralPathSuffStatGTRFinite\lProfileProcess.cpp">
<polygon fill="none" stroke="black" points="707.5,-190.5 707.5,-220.5 859.5,-220.5 859.5,-190.5 707.5,-190.5"/>
<text text-anchor="start" x="715.5" y="-208.5" font-family="Helvetica,sans-Serif" font-size="10.00">GeneralPathSuffStatGTRFinite</text>
<text text-anchor="middle" x="783.5" y="-197.5" font-family="Helvetica,sans-Serif" font-size="10.00">ProfileProcess.cpp</text>
</a>
</g>
</g>
<!-- Node37&#45;&gt;Node38 -->
<g id="edge19" class="edge"><title>Node37&#45;&gt;Node38</title>
<path fill="none" stroke="midnightblue" d="M772.092,-247.697C774.614,-238.587 777.41,-228.493 779.602,-220.577"/>
<polygon fill="midnightblue" stroke="midnightblue" points="768.702,-246.825 769.406,-257.396 775.448,-248.693 768.702,-246.825"/>
</g>
</g>
</svg>
