<?xml version="1.0" encoding="UTF-8" standalone="no"?>
<!DOCTYPE svg PUBLIC "-//W3C//DTD SVG 1.1//EN"
 "http://www.w3.org/Graphics/SVG/1.1/DTD/svg11.dtd">
<!-- Generated by graphviz version 2.40.1 (20161225.0304)
 -->
<!-- Title: MatrixSubstitutionProcess.h Pages: 1 -->
<svg width="981pt" height="408pt"
 viewBox="0.00 0.00 981.00 408.00" xmlns="http://www.w3.org/2000/svg" xmlns:xlink="http://www.w3.org/1999/xlink">
<g id="graph0" class="graph" transform="scale(1 1) rotate(0) translate(4 404)">
<title>MatrixSubstitutionProcess.h</title>
<!-- Node24 -->
<g id="node1" class="node">
<title>Node24</title>
<polygon fill="#bfbfbf" stroke="#000000" points="570,-380.5 570,-399.5 710,-399.5 710,-380.5 570,-380.5"/>
<text text-anchor="middle" x="640" y="-387.5" font-family="Helvetica,sans-Serif" font-size="10.00" fill="#000000">MatrixSubstitutionProcess.h</text>
</g>
<!-- Node25 -->
<g id="node2" class="node">
<title>Node25</title>
<g id="a_node2"><a xlink:href="MatrixPhyloProcess_8h.html" target="_top" xlink:title="MatrixPhyloProcess.h">
<polygon fill="none" stroke="#000000" points="462.5,-252 462.5,-271 575.5,-271 575.5,-252 462.5,-252"/>
<text text-anchor="middle" x="519" y="-259" font-family="Helvetica,sans-Serif" font-size="10.00" fill="#000000">MatrixPhyloProcess.h</text>
</a>
</g>
</g>
<!-- Node24&#45;&gt;Node25 -->
<g id="edge1" class="edge">
<title>Node24&#45;&gt;Node25</title>
<path fill="none" stroke="#191970" d="M608.2575,-375.6393C593.5045,-367.8283 576.5023,-357.0771 564,-344 542.8041,-321.8296 528.4709,-287.7292 522.3519,-271.1776"/>
<polygon fill="#191970" stroke="#191970" points="607.0544,-378.953 617.5577,-380.3427 610.2135,-372.7063 607.0544,-378.953"/>
</g>
<!-- Node37 -->
<g id="node14" class="node">
<title>Node37</title>
<g id="a_node14"><a xlink:href="GTRSubstitutionProcess_8h.html" target="_top" xlink:title="GTRSubstitutionProcess.h">
<polygon fill="none" stroke="#000000" points="383,-319 383,-338 517,-338 517,-319 383,-319"/>
<text text-anchor="middle" x="450" y="-326" font-family="Helvetica,sans-Serif" font-size="10.00" fill="#000000">GTRSubstitutionProcess.h</text>
</a>
</g>
</g>
<!-- Node24&#45;&gt;Node37 -->
<g id="edge13" class="edge">
<title>Node24&#45;&gt;Node37</title>
<path fill="none" stroke="#191970" d="M600.6121,-377.2507C564.5617,-365.5818 512.021,-348.5752 479.479,-338.0419"/>
<polygon fill="#191970" stroke="#191970" points="599.7206,-380.6409 610.3125,-380.3906 601.8763,-373.9811 599.7206,-380.6409"/>
</g>
<!-- Node40 -->
<g id="node17" class="node">
<title>Node40</title>
<g id="a_node17"><a xlink:href="GeneralPathSuffStatMatrixSubstitutionProcess_8h.html" target="_top" xlink:title="GeneralPathSuffStatMatrix\lSubstitutionProcess.h">
<polygon fill="none" stroke="#000000" points="573,-313.5 573,-343.5 707,-343.5 707,-313.5 573,-313.5"/>
<text text-anchor="start" x="581" y="-331.5" font-family="Helvetica,sans-Serif" font-size="10.00" fill="#000000">GeneralPathSuffStatMatrix</text>
<text text-anchor="middle" x="640" y="-320.5" font-family="Helvetica,sans-Serif" font-size="10.00" fill="#000000">SubstitutionProcess.h</text>
</a>
</g>
</g>
<!-- Node24&#45;&gt;Node40 -->
<g id="edge18" class="edge">
<title>Node24&#45;&gt;Node40</title>
<path fill="none" stroke="#191970" d="M640,-370.3693C640,-361.681 640,-351.6241 640,-343.5446"/>
<polygon fill="#191970" stroke="#191970" points="636.5001,-370.3906 640,-380.3906 643.5001,-370.3907 636.5001,-370.3906"/>
</g>
<!-- Node42 -->
<g id="node19" class="node">
<title>Node42</title>
<g id="a_node19"><a xlink:href="MatrixSubstitutionProcess_8cpp.html" target="_top" xlink:title="MatrixSubstitutionProcess.cpp">
<polygon fill="none" stroke="#000000" points="725,-319 725,-338 875,-338 875,-319 725,-319"/>
<text text-anchor="middle" x="800" y="-326" font-family="Helvetica,sans-Serif" font-size="10.00" fill="#000000">MatrixSubstitutionProcess.cpp</text>
</a>
</g>
</g>
<!-- Node24&#45;&gt;Node42 -->
<g id="edge21" class="edge">
<title>Node24&#45;&gt;Node42</title>
<path fill="none" stroke="#191970" d="M674.3432,-376.7993C704.6587,-365.1468 748.1231,-348.4402 775.1756,-338.0419"/>
<polygon fill="#191970" stroke="#191970" points="673.0784,-373.5357 665,-380.3906 675.59,-380.0697 673.0784,-373.5357"/>
</g>
<!-- Node43 -->
<g id="node20" class="node">
<title>Node43</title>
<g id="a_node20"><a xlink:href="Propagate_8cpp.html" target="_top" xlink:title="Propagate.cpp">
<polygon fill="none" stroke="#000000" points="893,-319 893,-338 973,-338 973,-319 893,-319"/>
<text text-anchor="middle" x="933" y="-326" font-family="Helvetica,sans-Serif" font-size="10.00" fill="#000000">Propagate.cpp</text>
</a>
</g>
</g>
<!-- Node24&#45;&gt;Node43 -->
<g id="edge22" class="edge">
<title>Node24&#45;&gt;Node43</title>
<path fill="none" stroke="#191970" d="M711.772,-378.8005C760.6443,-370.6058 826.6264,-358.4272 884,-344 890.8359,-342.281 898.119,-340.1469 904.9224,-338.0176"/>
<polygon fill="#191970" stroke="#191970" points="710.9035,-375.3968 701.6122,-380.4881 712.0506,-382.3021 710.9035,-375.3968"/>
</g>
<!-- Node26 -->
<g id="node3" class="node">
<title>Node26</title>
<g id="a_node3"><a xlink:href="ExpoConjugateGTRPhyloProcess_8h.html" target="_top" xlink:title="ExpoConjugateGTRPhyloProcess.h">
<polygon fill="none" stroke="#000000" points="266.5,-185 266.5,-204 439.5,-204 439.5,-185 266.5,-185"/>
<text text-anchor="middle" x="353" y="-192" font-family="Helvetica,sans-Serif" font-size="10.00" fill="#000000">ExpoConjugateGTRPhyloProcess.h</text>
</a>
</g>
</g>
<!-- Node25&#45;&gt;Node26 -->
<g id="edge2" class="edge">
<title>Node25&#45;&gt;Node26</title>
<path fill="none" stroke="#191970" d="M485.7519,-248.0806C453.4845,-235.057 405.3176,-215.6162 376.7396,-204.0817"/>
<polygon fill="#191970" stroke="#191970" points="484.6331,-251.4033 495.2162,-251.9005 487.2531,-244.9121 484.6331,-251.4033"/>
</g>
<!-- Node34 -->
<g id="node11" class="node">
<title>Node34</title>
<g id="a_node11"><a xlink:href="GeneralPathSuffStatMatrixPhyloProcess_8h.html" target="_top" xlink:title="GeneralPathSuffStatMatrix\lPhyloProcess.h">
<polygon fill="none" stroke="#000000" points="599,-179.5 599,-209.5 733,-209.5 733,-179.5 599,-179.5"/>
<text text-anchor="start" x="607" y="-197.5" font-family="Helvetica,sans-Serif" font-size="10.00" fill="#000000">GeneralPathSuffStatMatrix</text>
<text text-anchor="middle" x="666" y="-186.5" font-family="Helvetica,sans-Serif" font-size="10.00" fill="#000000">PhyloProcess.h</text>
</a>
</g>
</g>
<!-- Node25&#45;&gt;Node34 -->
<g id="edge10" class="edge">
<title>Node25&#45;&gt;Node34</title>
<path fill="none" stroke="#191970" d="M549.2143,-247.7289C573.6236,-236.6035 607.9277,-220.9683 633.0418,-209.5218"/>
<polygon fill="#191970" stroke="#191970" points="547.7094,-244.5683 540.0615,-251.9005 550.6125,-250.9379 547.7094,-244.5683"/>
</g>
<!-- Node36 -->
<g id="node13" class="node">
<title>Node36</title>
<g id="a_node13"><a xlink:href="MatrixPhyloProcess_8cpp.html" target="_top" xlink:title="MatrixPhyloProcess.cpp">
<polygon fill="none" stroke="#000000" points="457.5,-185 457.5,-204 580.5,-204 580.5,-185 457.5,-185"/>
<text text-anchor="middle" x="519" y="-192" font-family="Helvetica,sans-Serif" font-size="10.00" fill="#000000">MatrixPhyloProcess.cpp</text>
</a>
</g>
</g>
<!-- Node25&#45;&gt;Node36 -->
<g id="edge12" class="edge">
<title>Node25&#45;&gt;Node36</title>
<path fill="none" stroke="#191970" d="M519,-241.6079C519,-229.214 519,-213.8263 519,-204.0817"/>
<polygon fill="#191970" stroke="#191970" points="515.5001,-241.9005 519,-251.9005 522.5001,-241.9006 515.5001,-241.9005"/>
</g>
<!-- Node27 -->
<g id="node4" class="node">
<title>Node27</title>
<g id="a_node4"><a xlink:href="ExpoConjugateGTRPhyloProcess_8cpp.html" target="_top" xlink:title="ExpoConjugateGTRPhyloProcess.cpp">
<polygon fill="none" stroke="#000000" points="0,-118 0,-137 184,-137 184,-118 0,-118"/>
<text text-anchor="middle" x="92" y="-125" font-family="Helvetica,sans-Serif" font-size="10.00" fill="#000000">ExpoConjugateGTRPhyloProcess.cpp</text>
</a>
</g>
</g>
<!-- Node26&#45;&gt;Node27 -->
<g id="edge3" class="edge">
<title>Node26&#45;&gt;Node27</title>
<path fill="none" stroke="#191970" d="M306.1701,-182.4785C255.5842,-169.4929 175.9952,-149.062 129.4123,-137.1039"/>
<polygon fill="#191970" stroke="#191970" points="305.326,-185.8753 315.8822,-184.9717 307.0666,-179.0951 305.326,-185.8753"/>
</g>
<!-- Node28 -->
<g id="node5" class="node">
<title>Node28</title>
<g id="a_node5"><a xlink:href="RASCATGTRSBDPGammaPhyloProcess_8h.html" target="_top" xlink:title="RASCATGTRSBDPGammaPhyloProcess.h">
<polygon fill="none" stroke="#000000" points="202,-118 202,-137 412,-137 412,-118 202,-118"/>
<text text-anchor="middle" x="307" y="-125" font-family="Helvetica,sans-Serif" font-size="10.00" fill="#000000">RASCATGTRSBDPGammaPhyloProcess.h</text>
</a>
</g>
</g>
<!-- Node26&#45;&gt;Node28 -->
<g id="edge4" class="edge">
<title>Node26&#45;&gt;Node28</title>
<path fill="none" stroke="#191970" d="M340.6283,-176.4803C331.9216,-163.7989 320.6102,-147.3235 313.5785,-137.0817"/>
<polygon fill="#191970" stroke="#191970" points="337.8638,-178.6375 346.4093,-184.9005 343.6346,-174.6755 337.8638,-178.6375"/>
</g>
<!-- Node32 -->
<g id="node9" class="node">
<title>Node32</title>
<g id="a_node9"><a xlink:href="RASCATGTRDPGammaPhyloProcess_8h.html" target="_top" xlink:title="RASCATGTRDPGammaPhyloProcess.h">
<polygon fill="none" stroke="#000000" points="430.5,-118 430.5,-137 627.5,-137 627.5,-118 430.5,-118"/>
<text text-anchor="middle" x="529" y="-125" font-family="Helvetica,sans-Serif" font-size="10.00" fill="#000000">RASCATGTRDPGammaPhyloProcess.h</text>
</a>
</g>
</g>
<!-- Node26&#45;&gt;Node32 -->
<g id="edge8" class="edge">
<title>Node26&#45;&gt;Node32</title>
<path fill="none" stroke="#191970" d="M387.8095,-181.2487C422.0216,-168.2247 473.4001,-148.6659 503.8303,-137.0817"/>
<polygon fill="#191970" stroke="#191970" points="386.317,-178.0717 378.2165,-184.9005 388.8075,-184.6137 386.317,-178.0717"/>
</g>
<!-- Node29 -->
<g id="node6" class="node">
<title>Node29</title>
<g id="a_node6"><a xlink:href="Model_8h.html" target="_top" xlink:title="Model.h">
<polygon fill="none" stroke="#000000" points="127.5,-56.5 127.5,-75.5 178.5,-75.5 178.5,-56.5 127.5,-56.5"/>
<text text-anchor="middle" x="153" y="-63.5" font-family="Helvetica,sans-Serif" font-size="10.00" fill="#000000">Model.h</text>
</a>
</g>
</g>
<!-- Node28&#45;&gt;Node29 -->
<g id="edge5" class="edge">
<title>Node28&#45;&gt;Node29</title>
<path fill="none" stroke="#191970" d="M273.565,-114.1477C244.4041,-102.5023 202.8188,-85.8952 176.8935,-75.5419"/>
<polygon fill="#191970" stroke="#191970" points="272.3526,-117.4323 282.9375,-117.8906 274.9487,-110.9315 272.3526,-117.4323"/>
</g>
<!-- Node31 -->
<g id="node8" class="node">
<title>Node31</title>
<g id="a_node8"><a xlink:href="RASCATGTRSBDPGammaPhyloProcess_8cpp.html" target="_top" xlink:title="RASCATGTRSBDPGammaPhyloProcess.cpp">
<polygon fill="none" stroke="#000000" points="196.5,-56.5 196.5,-75.5 417.5,-75.5 417.5,-56.5 196.5,-56.5"/>
<text text-anchor="middle" x="307" y="-63.5" font-family="Helvetica,sans-Serif" font-size="10.00" fill="#000000">RASCATGTRSBDPGammaPhyloProcess.cpp</text>
</a>
</g>
</g>
<!-- Node28&#45;&gt;Node31 -->
<g id="edge7" class="edge">
<title>Node28&#45;&gt;Node31</title>
<path fill="none" stroke="#191970" d="M307,-107.7462C307,-97.0519 307,-84.314 307,-75.7449"/>
<polygon fill="#191970" stroke="#191970" points="303.5001,-107.8906 307,-117.8906 310.5001,-107.8907 303.5001,-107.8906"/>
</g>
<!-- Node30 -->
<g id="node7" class="node">
<title>Node30</title>
<g id="a_node7"><a xlink:href="PB_8cpp.html" target="_top" xlink:title="PB.cpp">
<polygon fill="none" stroke="#000000" points="128.5,-.5 128.5,-19.5 177.5,-19.5 177.5,-.5 128.5,-.5"/>
<text text-anchor="middle" x="153" y="-7.5" font-family="Helvetica,sans-Serif" font-size="10.00" fill="#000000">PB.cpp</text>
</a>
</g>
</g>
<!-- Node29&#45;&gt;Node30 -->
<g id="edge6" class="edge">
<title>Node29&#45;&gt;Node30</title>
<path fill="none" stroke="#191970" d="M153,-46.1575C153,-37.155 153,-26.9199 153,-19.6427"/>
<polygon fill="#191970" stroke="#191970" points="149.5001,-46.2455 153,-56.2455 156.5001,-46.2456 149.5001,-46.2455"/>
</g>
<!-- Node33 -->
<g id="node10" class="node">
<title>Node33</title>
<g id="a_node10"><a xlink:href="RASCATGTRDPGammaPhyloProcess_8cpp.html" target="_top" xlink:title="RASCATGTRDPGammaPhyloProcess.cpp">
<polygon fill="none" stroke="#000000" points="435.5,-56.5 435.5,-75.5 642.5,-75.5 642.5,-56.5 435.5,-56.5"/>
<text text-anchor="middle" x="539" y="-63.5" font-family="Helvetica,sans-Serif" font-size="10.00" fill="#000000">RASCATGTRDPGammaPhyloProcess.cpp</text>
</a>
</g>
</g>
<!-- Node32&#45;&gt;Node33 -->
<g id="edge9" class="edge">
<title>Node32&#45;&gt;Node33</title>
<path fill="none" stroke="#191970" d="M532.212,-107.7462C533.9509,-97.0519 536.0221,-84.314 537.4155,-75.7449"/>
<polygon fill="#191970" stroke="#191970" points="528.7129,-107.4585 530.5625,-117.8906 535.6221,-108.582 528.7129,-107.4585"/>
</g>
<!-- Node35 -->
<g id="node12" class="node">
<title>Node35</title>
<g id="a_node12"><a xlink:href="GeneralPathSuffStatMatrixPhyloProcess_8cpp.html" target="_top" xlink:title="GeneralPathSuffStatMatrix\lPhyloProcess.cpp">
<polygon fill="none" stroke="#000000" points="646,-112.5 646,-142.5 780,-142.5 780,-112.5 646,-112.5"/>
<text text-anchor="start" x="654" y="-130.5" font-family="Helvetica,sans-Serif" font-size="10.00" fill="#000000">GeneralPathSuffStatMatrix</text>
<text text-anchor="middle" x="713" y="-119.5" font-family="Helvetica,sans-Serif" font-size="10.00" fill="#000000">PhyloProcess.cpp</text>
</a>
</g>
</g>
<!-- Node34&#45;&gt;Node35 -->
<g id="edge11" class="edge">
<title>Node34&#45;&gt;Node35</title>
<path fill="none" stroke="#191970" d="M682.4412,-171.0626C689.057,-161.6315 696.4955,-151.0276 702.3772,-142.6432"/>
<polygon fill="#191970" stroke="#191970" points="679.5426,-169.1001 676.665,-179.2967 685.2732,-173.1201 679.5426,-169.1001"/>
</g>
<!-- Node37&#45;&gt;Node25 -->
<g id="edge14" class="edge">
<title>Node37&#45;&gt;Node25</title>
<path fill="none" stroke="#191970" d="M467.4266,-311.5785C480.6238,-298.7639 498.2775,-281.6218 509.1323,-271.0817"/>
<polygon fill="#191970" stroke="#191970" points="464.6221,-309.4232 459.886,-318.9005 469.4985,-314.4452 464.6221,-309.4232"/>
</g>
<!-- Node38 -->
<g id="node15" class="node">
<title>Node38</title>
<g id="a_node15"><a xlink:href="ExpoConjugateGTRSubstitutionProcess_8h.html" target="_top" xlink:title="ExpoConjugateGTRSubstitution\lProcess.h">
<polygon fill="none" stroke="#000000" points="275,-246.5 275,-276.5 431,-276.5 431,-246.5 275,-246.5"/>
<text text-anchor="start" x="283" y="-264.5" font-family="Helvetica,sans-Serif" font-size="10.00" fill="#000000">ExpoConjugateGTRSubstitution</text>
<text text-anchor="middle" x="353" y="-253.5" font-family="Helvetica,sans-Serif" font-size="10.00" fill="#000000">Process.h</text>
</a>
</g>
</g>
<!-- Node37&#45;&gt;Node38 -->
<g id="edge15" class="edge">
<title>Node37&#45;&gt;Node38</title>
<path fill="none" stroke="#191970" d="M427.4436,-312.9198C411.5691,-301.955 390.4399,-287.3605 374.7479,-276.5218"/>
<polygon fill="#191970" stroke="#191970" points="425.8851,-316.097 436.1023,-318.9005 429.8634,-310.3374 425.8851,-316.097"/>
</g>
<!-- Node38&#45;&gt;Node26 -->
<g id="edge16" class="edge">
<title>Node38&#45;&gt;Node26</title>
<path fill="none" stroke="#191970" d="M353,-236.1199C353,-224.9072 353,-212.4031 353,-204.055"/>
<polygon fill="#191970" stroke="#191970" points="349.5001,-236.2966 353,-246.2967 356.5001,-236.2967 349.5001,-236.2966"/>
</g>
<!-- Node39 -->
<g id="node16" class="node">
<title>Node39</title>
<g id="a_node16"><a xlink:href="ExpoConjugateGTRSubstitutionProcess_8cpp.html" target="_top" xlink:title="ExpoConjugateGTRSubstitution\lProcess.cpp">
<polygon fill="none" stroke="#000000" points="92,-179.5 92,-209.5 248,-209.5 248,-179.5 92,-179.5"/>
<text text-anchor="start" x="100" y="-197.5" font-family="Helvetica,sans-Serif" font-size="10.00" fill="#000000">ExpoConjugateGTRSubstitution</text>
<text text-anchor="middle" x="170" y="-186.5" font-family="Helvetica,sans-Serif" font-size="10.00" fill="#000000">Process.cpp</text>
</a>
</g>
</g>
<!-- Node38&#45;&gt;Node39 -->
<g id="edge17" class="edge">
<title>Node38&#45;&gt;Node39</title>
<path fill="none" stroke="#191970" d="M302.4763,-243.0023C273.7645,-232.4903 238.2685,-219.4945 211.2479,-209.6017"/>
<polygon fill="#191970" stroke="#191970" points="301.3375,-246.3125 311.9312,-246.4639 303.7441,-239.7392 301.3375,-246.3125"/>
</g>
<!-- Node40&#45;&gt;Node34 -->
<g id="edge19" class="edge">
<title>Node40&#45;&gt;Node34</title>
<path fill="none" stroke="#191970" d="M644.8815,-303.3415C650.2228,-275.8131 658.613,-232.5714 663.0388,-209.7614"/>
<polygon fill="#191970" stroke="#191970" points="641.4009,-302.9054 642.932,-313.389 648.2728,-304.2388 641.4009,-302.9054"/>
</g>
<!-- Node41 -->
<g id="node18" class="node">
<title>Node41</title>
<g id="a_node18"><a xlink:href="GeneralPathSuffStatMatrixSubstitutionProcess_8cpp.html" target="_top" xlink:title="GeneralPathSuffStatMatrix\lSubstitutionProcess.cpp">
<polygon fill="none" stroke="#000000" points="668,-246.5 668,-276.5 802,-276.5 802,-246.5 668,-246.5"/>
<text text-anchor="start" x="676" y="-264.5" font-family="Helvetica,sans-Serif" font-size="10.00" fill="#000000">GeneralPathSuffStatMatrix</text>
<text text-anchor="middle" x="735" y="-253.5" font-family="Helvetica,sans-Serif" font-size="10.00" fill="#000000">SubstitutionProcess.cpp</text>
</a>
</g>
</g>
<!-- Node40&#45;&gt;Node41 -->
<g id="edge20" class="edge">
<title>Node40&#45;&gt;Node41</title>
<path fill="none" stroke="#191970" d="M669.9932,-307.3469C684.1288,-297.3776 700.6695,-285.7121 713.5283,-276.6432"/>
<polygon fill="#191970" stroke="#191970" points="667.7118,-304.6729 661.557,-313.2967 671.7463,-310.3934 667.7118,-304.6729"/>
</g>
</g>
</svg>
