<?xml version="1.0" encoding="UTF-8" standalone="no"?>
<!DOCTYPE svg PUBLIC "-//W3C//DTD SVG 1.1//EN"
 "http://www.w3.org/Graphics/SVG/1.1/DTD/svg11.dtd">
<!-- Generated by graphviz version 2.40.1 (20161225.0304)
 -->
<!-- Title: MatrixDPProfileProcess.h Pages: 1 -->
<svg width="407pt" height="218pt"
 viewBox="0.00 0.00 407.00 218.00" xmlns="http://www.w3.org/2000/svg" xmlns:xlink="http://www.w3.org/1999/xlink">
<g id="graph0" class="graph" transform="scale(1 1) rotate(0) translate(4 214)">
<title>MatrixDPProfileProcess.h</title>
<!-- Node21 -->
<g id="node1" class="node">
<title>Node21</title>
<polygon fill="#bfbfbf" stroke="#000000" points="183,-190.5 183,-209.5 313,-209.5 313,-190.5 183,-190.5"/>
<text text-anchor="middle" x="248" y="-197.5" font-family="Helvetica,sans-Serif" font-size="10.00" fill="#000000">MatrixDPProfileProcess.h</text>
</g>
<!-- Node22 -->
<g id="node2" class="node">
<title>Node22</title>
<g id="a_node2"><a xlink:href="ExpoConjugateGTRDPProfileProcess_8h.html" target="_top" xlink:title="ExpoConjugateGTRDPProfile\lProcess.h">
<polygon fill="none" stroke="#000000" points="95,-123.5 95,-153.5 241,-153.5 241,-123.5 95,-123.5"/>
<text text-anchor="start" x="103" y="-141.5" font-family="Helvetica,sans-Serif" font-size="10.00" fill="#000000">ExpoConjugateGTRDPProfile</text>
<text text-anchor="middle" x="168" y="-130.5" font-family="Helvetica,sans-Serif" font-size="10.00" fill="#000000">Process.h</text>
</a>
</g>
</g>
<!-- Node21&#45;&gt;Node22 -->
<g id="edge1" class="edge">
<title>Node21&#45;&gt;Node22</title>
<path fill="none" stroke="#191970" d="M227.237,-184.0385C214.9952,-174.6276 199.5982,-162.7911 187.5702,-153.5446"/>
<polygon fill="#191970" stroke="#191970" points="225.4387,-187.0707 235.5,-190.3906 229.7051,-181.521 225.4387,-187.0707"/>
</g>
<!-- Node26 -->
<g id="node6" class="node">
<title>Node26</title>
<g id="a_node6"><a xlink:href="MatrixDPProfileProcess_8cpp.html" target="_top" xlink:title="MatrixDPProfileProcess.cpp">
<polygon fill="none" stroke="#000000" points="259,-129 259,-148 399,-148 399,-129 259,-129"/>
<text text-anchor="middle" x="329" y="-136" font-family="Helvetica,sans-Serif" font-size="10.00" fill="#000000">MatrixDPProfileProcess.cpp</text>
</a>
</g>
</g>
<!-- Node21&#45;&gt;Node26 -->
<g id="edge5" class="edge">
<title>Node21&#45;&gt;Node26</title>
<path fill="none" stroke="#191970" d="M268.8768,-184.1491C283.9271,-172.722 303.7452,-157.6749 316.4326,-148.0419"/>
<polygon fill="#191970" stroke="#191970" points="266.5042,-181.5559 260.6563,-190.3906 270.7372,-187.1311 266.5042,-181.5559"/>
</g>
<!-- Node23 -->
<g id="node3" class="node">
<title>Node23</title>
<g id="a_node3"><a xlink:href="ExpoConjugateGTRDPProfileProcess_8cpp.html" target="_top" xlink:title="ExpoConjugateGTRDPProfile\lProcess.cpp">
<polygon fill="none" stroke="#000000" points="0,-56.5 0,-86.5 146,-86.5 146,-56.5 0,-56.5"/>
<text text-anchor="start" x="8" y="-74.5" font-family="Helvetica,sans-Serif" font-size="10.00" fill="#000000">ExpoConjugateGTRDPProfile</text>
<text text-anchor="middle" x="73" y="-63.5" font-family="Helvetica,sans-Serif" font-size="10.00" fill="#000000">Process.cpp</text>
</a>
</g>
</g>
<!-- Node22&#45;&gt;Node23 -->
<g id="edge2" class="edge">
<title>Node22&#45;&gt;Node23</title>
<path fill="none" stroke="#191970" d="M138.0068,-117.3469C123.8712,-107.3776 107.3305,-95.7121 94.4717,-86.6432"/>
<polygon fill="#191970" stroke="#191970" points="136.2537,-120.3934 146.443,-123.2967 140.2882,-114.6729 136.2537,-120.3934"/>
</g>
<!-- Node24 -->
<g id="node4" class="node">
<title>Node24</title>
<g id="a_node4"><a xlink:href="RASCATGTRDPGammaPhyloProcess_8h.html" target="_top" xlink:title="RASCATGTRDPGammaPhyloProcess.h">
<polygon fill="none" stroke="#000000" points="164.5,-62 164.5,-81 361.5,-81 361.5,-62 164.5,-62"/>
<text text-anchor="middle" x="263" y="-69" font-family="Helvetica,sans-Serif" font-size="10.00" fill="#000000">RASCATGTRDPGammaPhyloProcess.h</text>
</a>
</g>
</g>
<!-- Node22&#45;&gt;Node24 -->
<g id="edge3" class="edge">
<title>Node22&#45;&gt;Node24</title>
<path fill="none" stroke="#191970" d="M198.1849,-117.2117C215.4084,-105.0646 236.1507,-90.4358 249.4519,-81.055"/>
<polygon fill="#191970" stroke="#191970" points="195.7118,-114.6729 189.557,-123.2967 199.7463,-120.3934 195.7118,-114.6729"/>
</g>
<!-- Node25 -->
<g id="node5" class="node">
<title>Node25</title>
<g id="a_node5"><a xlink:href="RASCATGTRDPGammaPhyloProcess_8cpp.html" target="_top" xlink:title="RASCATGTRDPGammaPhyloProcess.cpp">
<polygon fill="none" stroke="#000000" points="159.5,-.5 159.5,-19.5 366.5,-19.5 366.5,-.5 159.5,-.5"/>
<text text-anchor="middle" x="263" y="-7.5" font-family="Helvetica,sans-Serif" font-size="10.00" fill="#000000">RASCATGTRDPGammaPhyloProcess.cpp</text>
</a>
</g>
</g>
<!-- Node24&#45;&gt;Node25 -->
<g id="edge4" class="edge">
<title>Node24&#45;&gt;Node25</title>
<path fill="none" stroke="#191970" d="M263,-51.7462C263,-41.0519 263,-28.314 263,-19.7449"/>
<polygon fill="#191970" stroke="#191970" points="259.5001,-51.8906 263,-61.8906 266.5001,-51.8907 259.5001,-51.8906"/>
</g>
</g>
</svg>
