<?xml version="1.0" encoding="UTF-8" standalone="no"?>
<!DOCTYPE svg PUBLIC "-//W3C//DTD SVG 1.1//EN"
 "http://www.w3.org/Graphics/SVG/1.1/DTD/svg11.dtd">
<!-- Generated by graphviz version 2.38.0 (20140413.2041)
 -->
<!-- Title: MatrixSBDPProfileProcess.cpp Pages: 1 -->
<svg width="649pt" height="476pt"
 viewBox="0.00 0.00 648.86 476.00" xmlns="http://www.w3.org/2000/svg" xmlns:xlink="http://www.w3.org/1999/xlink">
<g id="graph0" class="graph" transform="scale(1 1) rotate(0) translate(4 472)">
<title>MatrixSBDPProfileProcess.cpp</title>
<!-- Node0 -->
<g id="node1" class="node"><title>Node0</title>
<polygon fill="#bfbfbf" stroke="black" points="388.5,-448.5 388.5,-467.5 542.5,-467.5 542.5,-448.5 388.5,-448.5"/>
<text text-anchor="middle" x="465.5" y="-455.5" font-family="Helvetica,sans-Serif" font-size="10.00">MatrixSBDPProfileProcess.cpp</text>
</g>
<!-- Node1 -->
<g id="node2" class="node"><title>Node1</title>
<g id="a_node2"><a xlink:href="MatrixSBDPProfileProcess_8h.html" target="_top" xlink:title="MatrixSBDPProfileProcess.h">
<polygon fill="none" stroke="black" points="207,-392.5 207,-411.5 350,-411.5 350,-392.5 207,-392.5"/>
<text text-anchor="middle" x="278.5" y="-399.5" font-family="Helvetica,sans-Serif" font-size="10.00">MatrixSBDPProfileProcess.h</text>
</a>
</g>
</g>
<!-- Node0&#45;&gt;Node1 -->
<g id="edge1" class="edge"><title>Node0&#45;&gt;Node1</title>
<path fill="none" stroke="midnightblue" d="M435.869,-448.444C404,-439.241 353.167,-424.562 317.936,-414.388"/>
<polygon fill="midnightblue" stroke="midnightblue" points="318.571,-410.928 307.992,-411.516 316.628,-417.653 318.571,-410.928"/>
</g>
<!-- Node7 -->
<g id="node8" class="node"><title>Node7</title>
<g id="a_node8"><a xlink:href="Random_8h.html" target="_top" xlink:title="Random.h">
<polygon fill="none" stroke="black" points="414.5,-168.5 414.5,-187.5 476.5,-187.5 476.5,-168.5 414.5,-168.5"/>
<text text-anchor="middle" x="445.5" y="-175.5" font-family="Helvetica,sans-Serif" font-size="10.00">Random.h</text>
</a>
</g>
</g>
<!-- Node0&#45;&gt;Node7 -->
<g id="edge35" class="edge"><title>Node0&#45;&gt;Node7</title>
<path fill="none" stroke="midnightblue" d="M461.994,-448.325C454.897,-429.959 439.5,-385.658 439.5,-347 439.5,-347 439.5,-347 439.5,-289 439.5,-256.9 442.079,-219.61 443.855,-197.732"/>
<polygon fill="midnightblue" stroke="midnightblue" points="447.361,-197.808 444.716,-187.549 440.386,-197.219 447.361,-197.808"/>
</g>
<!-- Node23 -->
<g id="node24" class="node"><title>Node23</title>
<polygon fill="none" stroke="#bfbfbf" points="468,-392.5 468,-411.5 517,-411.5 517,-392.5 468,-392.5"/>
<text text-anchor="middle" x="492.5" y="-399.5" font-family="Helvetica,sans-Serif" font-size="10.00">cassert</text>
</g>
<!-- Node0&#45;&gt;Node23 -->
<g id="edge36" class="edge"><title>Node0&#45;&gt;Node23</title>
<path fill="none" stroke="midnightblue" d="M469.959,-448.083C473.654,-440.691 479.023,-429.953 483.594,-420.811"/>
<polygon fill="midnightblue" stroke="midnightblue" points="486.783,-422.261 488.124,-411.751 480.522,-419.13 486.783,-422.261"/>
</g>
<!-- Node24 -->
<g id="node25" class="node"><title>Node24</title>
<g id="a_node25"><a xlink:href="Parallel_8h.html" target="_top" xlink:title="Parallel.h">
<polygon fill="none" stroke="black" points="535,-392.5 535,-411.5 592,-411.5 592,-392.5 535,-392.5"/>
<text text-anchor="middle" x="563.5" y="-399.5" font-family="Helvetica,sans-Serif" font-size="10.00">Parallel.h</text>
</a>
</g>
</g>
<!-- Node0&#45;&gt;Node24 -->
<g id="edge37" class="edge"><title>Node0&#45;&gt;Node24</title>
<path fill="none" stroke="midnightblue" d="M481.245,-448.324C496.819,-439.743 520.877,-426.486 538.959,-416.522"/>
<polygon fill="midnightblue" stroke="midnightblue" points="540.724,-419.546 547.794,-411.655 537.346,-413.415 540.724,-419.546"/>
</g>
<!-- Node2 -->
<g id="node3" class="node"><title>Node2</title>
<g id="a_node3"><a xlink:href="MatrixMixtureProfileProcess_8h.html" target="_top" xlink:title="MatrixMixtureProfileProcess.h">
<polygon fill="none" stroke="black" points="25.5,-336.5 25.5,-355.5 173.5,-355.5 173.5,-336.5 25.5,-336.5"/>
<text text-anchor="middle" x="99.5" y="-343.5" font-family="Helvetica,sans-Serif" font-size="10.00">MatrixMixtureProfileProcess.h</text>
</a>
</g>
</g>
<!-- Node1&#45;&gt;Node2 -->
<g id="edge2" class="edge"><title>Node1&#45;&gt;Node2</title>
<path fill="none" stroke="midnightblue" d="M250.137,-392.444C219.762,-383.28 171.39,-368.688 137.684,-358.519"/>
<polygon fill="midnightblue" stroke="midnightblue" points="138.315,-355.054 127.73,-355.516 136.293,-361.756 138.315,-355.054"/>
</g>
<!-- Node21 -->
<g id="node22" class="node"><title>Node21</title>
<g id="a_node22"><a xlink:href="SBDPProfileProcess_8h.html" target="_top" xlink:title="SBDPProfileProcess.h">
<polygon fill="none" stroke="black" points="220.5,-336.5 220.5,-355.5 336.5,-355.5 336.5,-336.5 220.5,-336.5"/>
<text text-anchor="middle" x="278.5" y="-343.5" font-family="Helvetica,sans-Serif" font-size="10.00">SBDPProfileProcess.h</text>
</a>
</g>
</g>
<!-- Node1&#45;&gt;Node21 -->
<g id="edge30" class="edge"><title>Node1&#45;&gt;Node21</title>
<path fill="none" stroke="midnightblue" d="M278.5,-392.083C278.5,-385.006 278.5,-374.861 278.5,-365.986"/>
<polygon fill="midnightblue" stroke="midnightblue" points="282,-365.751 278.5,-355.751 275,-365.751 282,-365.751"/>
</g>
<!-- Node3 -->
<g id="node4" class="node"><title>Node3</title>
<g id="a_node4"><a xlink:href="MatrixProfileProcess_8h.html" target="_top" xlink:title="MatrixProfileProcess.h">
<polygon fill="none" stroke="black" points="41.5,-280.5 41.5,-299.5 157.5,-299.5 157.5,-280.5 41.5,-280.5"/>
<text text-anchor="middle" x="99.5" y="-287.5" font-family="Helvetica,sans-Serif" font-size="10.00">MatrixProfileProcess.h</text>
</a>
</g>
</g>
<!-- Node2&#45;&gt;Node3 -->
<g id="edge3" class="edge"><title>Node2&#45;&gt;Node3</title>
<path fill="none" stroke="midnightblue" d="M99.5,-336.083C99.5,-329.006 99.5,-318.861 99.5,-309.986"/>
<polygon fill="midnightblue" stroke="midnightblue" points="103,-309.751 99.5,-299.751 96.0001,-309.751 103,-309.751"/>
</g>
<!-- Node20 -->
<g id="node21" class="node"><title>Node20</title>
<g id="a_node21"><a xlink:href="MixtureProfileProcess_8h.html" target="_top" xlink:title="MixtureProfileProcess.h">
<polygon fill="none" stroke="black" points="120,-224.5 120,-243.5 241,-243.5 241,-224.5 120,-224.5"/>
<text text-anchor="middle" x="180.5" y="-231.5" font-family="Helvetica,sans-Serif" font-size="10.00">MixtureProfileProcess.h</text>
</a>
</g>
</g>
<!-- Node2&#45;&gt;Node20 -->
<g id="edge27" class="edge"><title>Node2&#45;&gt;Node20</title>
<path fill="none" stroke="midnightblue" d="M78.55,-336.439C53.1226,-324.793 15.6126,-302.785 32.5,-280 50.4521,-255.778 81.1209,-244.146 109.901,-238.72"/>
<polygon fill="midnightblue" stroke="midnightblue" points="110.685,-242.138 119.978,-237.05 109.54,-235.233 110.685,-242.138"/>
</g>
<!-- Node4 -->
<g id="node5" class="node"><title>Node4</title>
<g id="a_node5"><a xlink:href="SubMatrix_8h.html" target="_top" xlink:title="SubMatrix.h">
<polygon fill="none" stroke="black" points="340,-224.5 340,-243.5 409,-243.5 409,-224.5 340,-224.5"/>
<text text-anchor="middle" x="374.5" y="-231.5" font-family="Helvetica,sans-Serif" font-size="10.00">SubMatrix.h</text>
</a>
</g>
</g>
<!-- Node3&#45;&gt;Node4 -->
<g id="edge4" class="edge"><title>Node3&#45;&gt;Node4</title>
<path fill="none" stroke="midnightblue" d="M143.075,-280.444C194.189,-270.407 278.475,-253.856 329.99,-243.74"/>
<polygon fill="midnightblue" stroke="midnightblue" points="330.698,-247.168 339.836,-241.807 329.349,-240.299 330.698,-247.168"/>
</g>
<!-- Node12 -->
<g id="node13" class="node"><title>Node12</title>
<g id="a_node13"><a xlink:href="ProfileProcess_8h.html" target="_top" xlink:title="ProfileProcess.h">
<polygon fill="none" stroke="black" points="93,-168.5 93,-187.5 182,-187.5 182,-168.5 93,-168.5"/>
<text text-anchor="middle" x="137.5" y="-175.5" font-family="Helvetica,sans-Serif" font-size="10.00">ProfileProcess.h</text>
</a>
</g>
</g>
<!-- Node3&#45;&gt;Node12 -->
<g id="edge14" class="edge"><title>Node3&#45;&gt;Node12</title>
<path fill="none" stroke="midnightblue" d="M99.9444,-280.324C100.821,-267.608 103.358,-243.324 110.5,-224 114.087,-214.295 119.805,-204.345 125.057,-196.277"/>
<polygon fill="midnightblue" stroke="midnightblue" points="128.099,-198.029 130.853,-187.799 122.32,-194.079 128.099,-198.029"/>
</g>
<!-- Node5 -->
<g id="node6" class="node"><title>Node5</title>
<polygon fill="none" stroke="#bfbfbf" points="299.5,-0.5 299.5,-19.5 353.5,-19.5 353.5,-0.5 299.5,-0.5"/>
<text text-anchor="middle" x="326.5" y="-7.5" font-family="Helvetica,sans-Serif" font-size="10.00">iostream</text>
</g>
<!-- Node4&#45;&gt;Node5 -->
<g id="edge5" class="edge"><title>Node4&#45;&gt;Node5</title>
<path fill="none" stroke="midnightblue" d="M373.042,-224.459C369.623,-204.635 360.68,-153.988 351.5,-112 345.152,-82.9651 336.637,-49.5322 331.363,-29.3478"/>
<polygon fill="midnightblue" stroke="midnightblue" points="334.73,-28.3895 328.8,-19.6093 327.96,-30.1708 334.73,-28.3895"/>
</g>
<!-- Node6 -->
<g id="node7" class="node"><title>Node6</title>
<polygon fill="none" stroke="#bfbfbf" points="298.5,-112.5 298.5,-131.5 342.5,-131.5 342.5,-112.5 298.5,-112.5"/>
<text text-anchor="middle" x="320.5" y="-119.5" font-family="Helvetica,sans-Serif" font-size="10.00">cmath</text>
</g>
<!-- Node4&#45;&gt;Node6 -->
<g id="edge6" class="edge"><title>Node4&#45;&gt;Node6</title>
<path fill="none" stroke="midnightblue" d="M370.263,-224.368C361.43,-206.376 340.897,-164.55 329.153,-140.627"/>
<polygon fill="midnightblue" stroke="midnightblue" points="332.266,-139.026 324.718,-131.591 325.983,-142.11 332.266,-139.026"/>
</g>
<!-- Node4&#45;&gt;Node7 -->
<g id="edge7" class="edge"><title>Node4&#45;&gt;Node7</title>
<path fill="none" stroke="midnightblue" d="M385.907,-224.324C396.609,-216.185 412.841,-203.839 425.663,-194.087"/>
<polygon fill="midnightblue" stroke="midnightblue" points="428.044,-196.673 433.885,-187.834 423.807,-191.102 428.044,-196.673"/>
</g>
<!-- Node7&#45;&gt;Node5 -->
<g id="edge10" class="edge"><title>Node7&#45;&gt;Node5</title>
<path fill="none" stroke="midnightblue" d="M476.73,-177.024C539.881,-175.94 673.489,-167.253 633.5,-112 570.736,-25.2777 431.003,-11.7206 363.891,-10.4408"/>
<polygon fill="midnightblue" stroke="midnightblue" points="363.804,-6.93973 353.766,-10.3315 363.728,-13.9393 363.804,-6.93973"/>
</g>
<!-- Node7&#45;&gt;Node6 -->
<g id="edge8" class="edge"><title>Node7&#45;&gt;Node6</title>
<path fill="none" stroke="midnightblue" d="M425.693,-168.444C405.213,-159.596 373.017,-145.687 349.635,-135.586"/>
<polygon fill="midnightblue" stroke="midnightblue" points="350.782,-132.269 340.214,-131.516 348.006,-138.695 350.782,-132.269"/>
</g>
<!-- Node8 -->
<g id="node9" class="node"><title>Node8</title>
<polygon fill="none" stroke="#bfbfbf" points="140,-0.5 140,-19.5 185,-19.5 185,-0.5 140,-0.5"/>
<text text-anchor="middle" x="162.5" y="-7.5" font-family="Helvetica,sans-Serif" font-size="10.00">cstdlib</text>
</g>
<!-- Node7&#45;&gt;Node8 -->
<g id="edge9" class="edge"><title>Node7&#45;&gt;Node8</title>
<path fill="none" stroke="midnightblue" d="M435.876,-168.319C419.693,-154.215 385.458,-126.449 351.5,-112 277.23,-80.4 229.655,-133.976 173.5,-76 161.939,-64.064 159.953,-44.7598 160.4,-30.284"/>
<polygon fill="midnightblue" stroke="midnightblue" points="163.918,-30.1683 161.144,-19.943 156.936,-29.6662 163.918,-30.1683"/>
</g>
<!-- Node9 -->
<g id="node10" class="node"><title>Node9</title>
<polygon fill="none" stroke="#bfbfbf" points="504.5,-112.5 504.5,-131.5 556.5,-131.5 556.5,-112.5 504.5,-112.5"/>
<text text-anchor="middle" x="530.5" y="-119.5" font-family="Helvetica,sans-Serif" font-size="10.00">sstream</text>
</g>
<!-- Node7&#45;&gt;Node9 -->
<g id="edge11" class="edge"><title>Node7&#45;&gt;Node9</title>
<path fill="none" stroke="midnightblue" d="M459.157,-168.324C472.416,-159.9 492.768,-146.971 508.346,-137.074"/>
<polygon fill="midnightblue" stroke="midnightblue" points="510.313,-139.971 516.877,-131.655 506.56,-134.063 510.313,-139.971"/>
</g>
<!-- Node10 -->
<g id="node11" class="node"><title>Node10</title>
<polygon fill="none" stroke="#bfbfbf" points="574.5,-112.5 574.5,-131.5 624.5,-131.5 624.5,-112.5 574.5,-112.5"/>
<text text-anchor="middle" x="599.5" y="-119.5" font-family="Helvetica,sans-Serif" font-size="10.00">iomanip</text>
</g>
<!-- Node7&#45;&gt;Node10 -->
<g id="edge12" class="edge"><title>Node7&#45;&gt;Node10</title>
<path fill="none" stroke="midnightblue" d="M469.902,-168.444C495.697,-159.399 536.577,-145.064 565.518,-134.916"/>
<polygon fill="midnightblue" stroke="midnightblue" points="566.934,-138.128 575.212,-131.516 564.618,-131.523 566.934,-138.128"/>
</g>
<!-- Node11 -->
<g id="node12" class="node"><title>Node11</title>
<polygon fill="none" stroke="#bfbfbf" points="436.5,-112.5 436.5,-131.5 486.5,-131.5 486.5,-112.5 436.5,-112.5"/>
<text text-anchor="middle" x="461.5" y="-119.5" font-family="Helvetica,sans-Serif" font-size="10.00">fstream</text>
</g>
<!-- Node7&#45;&gt;Node11 -->
<g id="edge13" class="edge"><title>Node7&#45;&gt;Node11</title>
<path fill="none" stroke="midnightblue" d="M448.142,-168.083C450.286,-160.849 453.379,-150.409 456.049,-141.397"/>
<polygon fill="midnightblue" stroke="midnightblue" points="459.422,-142.333 458.907,-131.751 452.71,-140.345 459.422,-142.333"/>
</g>
<!-- Node12&#45;&gt;Node5 -->
<g id="edge25" class="edge"><title>Node12&#45;&gt;Node5</title>
<path fill="none" stroke="midnightblue" d="M169.158,-168.349C193.014,-160.946 225.882,-148.809 251.5,-132 280.929,-112.691 289.558,-106.282 307.5,-76 316.021,-61.618 320.938,-43.1602 323.626,-29.5908"/>
<polygon fill="midnightblue" stroke="midnightblue" points="327.109,-29.9935 325.389,-19.5391 320.214,-28.7839 327.109,-29.9935"/>
</g>
<!-- Node13 -->
<g id="node14" class="node"><title>Node13</title>
<g id="a_node14"><a xlink:href="Chrono_8h.html" target="_top" xlink:title="Chrono.h">
<polygon fill="none" stroke="black" points="62.5,-56.5 62.5,-75.5 118.5,-75.5 118.5,-56.5 62.5,-56.5"/>
<text text-anchor="middle" x="90.5" y="-63.5" font-family="Helvetica,sans-Serif" font-size="10.00">Chrono.h</text>
</a>
</g>
</g>
<!-- Node12&#45;&gt;Node13 -->
<g id="edge15" class="edge"><title>Node12&#45;&gt;Node13</title>
<path fill="none" stroke="midnightblue" d="M129.154,-168.47C121.305,-159.946 109.84,-146.112 103.5,-132 96.9346,-117.385 93.6653,-99.443 92.0489,-86.1144"/>
<polygon fill="midnightblue" stroke="midnightblue" points="95.4938,-85.3892 91.0125,-75.7887 88.5288,-86.0883 95.4938,-85.3892"/>
</g>
<!-- Node16 -->
<g id="node17" class="node"><title>Node16</title>
<g id="a_node17"><a xlink:href="StateSpace_8h.html" target="_top" xlink:title="StateSpace.h">
<polygon fill="none" stroke="black" points="166.5,-112.5 166.5,-131.5 242.5,-131.5 242.5,-112.5 166.5,-112.5"/>
<text text-anchor="middle" x="204.5" y="-119.5" font-family="Helvetica,sans-Serif" font-size="10.00">StateSpace.h</text>
</a>
</g>
</g>
<!-- Node12&#45;&gt;Node16 -->
<g id="edge20" class="edge"><title>Node12&#45;&gt;Node16</title>
<path fill="none" stroke="midnightblue" d="M148.265,-168.324C158.266,-160.263 173.387,-148.077 185.43,-138.369"/>
<polygon fill="midnightblue" stroke="midnightblue" points="187.95,-140.834 193.539,-131.834 183.557,-135.384 187.95,-140.834"/>
</g>
<!-- Node19 -->
<g id="node20" class="node"><title>Node19</title>
<polygon fill="none" stroke="#bfbfbf" points="113,-112.5 113,-131.5 148,-131.5 148,-112.5 113,-112.5"/>
<text text-anchor="middle" x="130.5" y="-119.5" font-family="Helvetica,sans-Serif" font-size="10.00">map</text>
</g>
<!-- Node12&#45;&gt;Node19 -->
<g id="edge26" class="edge"><title>Node12&#45;&gt;Node19</title>
<path fill="none" stroke="midnightblue" d="M136.344,-168.083C135.416,-160.927 134.082,-150.635 132.923,-141.691"/>
<polygon fill="midnightblue" stroke="midnightblue" points="136.391,-141.218 131.634,-131.751 129.449,-142.118 136.391,-141.218"/>
</g>
<!-- Node13&#45;&gt;Node5 -->
<g id="edge18" class="edge"><title>Node13&#45;&gt;Node5</title>
<path fill="none" stroke="midnightblue" d="M118.967,-58.4863C161.683,-48.7123 242.374,-30.2492 289.57,-19.45"/>
<polygon fill="midnightblue" stroke="midnightblue" points="290.423,-22.8455 299.39,-17.2031 288.861,-16.0219 290.423,-22.8455"/>
</g>
<!-- Node13&#45;&gt;Node8 -->
<g id="edge19" class="edge"><title>Node13&#45;&gt;Node8</title>
<path fill="none" stroke="midnightblue" d="M102.068,-56.324C112.92,-48.1849 129.381,-35.8395 142.383,-26.0874"/>
<polygon fill="midnightblue" stroke="midnightblue" points="144.821,-28.6339 150.721,-19.8339 140.621,-23.0339 144.821,-28.6339"/>
</g>
<!-- Node14 -->
<g id="node15" class="node"><title>Node14</title>
<polygon fill="none" stroke="#bfbfbf" points="0,-0.5 0,-19.5 41,-19.5 41,-0.5 0,-0.5"/>
<text text-anchor="middle" x="20.5" y="-7.5" font-family="Helvetica,sans-Serif" font-size="10.00">ctime</text>
</g>
<!-- Node13&#45;&gt;Node14 -->
<g id="edge16" class="edge"><title>Node13&#45;&gt;Node14</title>
<path fill="none" stroke="midnightblue" d="M79.2533,-56.324C68.7026,-48.1849 52.6993,-35.8395 40.0578,-26.0874"/>
<polygon fill="midnightblue" stroke="midnightblue" points="42.007,-23.1707 31.9513,-19.8339 37.7314,-28.7132 42.007,-23.1707"/>
</g>
<!-- Node15 -->
<g id="node16" class="node"><title>Node15</title>
<polygon fill="none" stroke="#bfbfbf" points="59.5,-0.5 59.5,-19.5 121.5,-19.5 121.5,-0.5 59.5,-0.5"/>
<text text-anchor="middle" x="90.5" y="-7.5" font-family="Helvetica,sans-Serif" font-size="10.00">sys/time.h</text>
</g>
<!-- Node13&#45;&gt;Node15 -->
<g id="edge17" class="edge"><title>Node13&#45;&gt;Node15</title>
<path fill="none" stroke="midnightblue" d="M90.5,-56.083C90.5,-49.0059 90.5,-38.8611 90.5,-29.9865"/>
<polygon fill="midnightblue" stroke="midnightblue" points="94.0001,-29.751 90.5,-19.7511 87.0001,-29.7511 94.0001,-29.751"/>
</g>
<!-- Node17 -->
<g id="node18" class="node"><title>Node17</title>
<g id="a_node18"><a xlink:href="BiologicalSequences_8h.html" target="_top" xlink:title="BiologicalSequences.h">
<polygon fill="none" stroke="black" points="182.5,-56.5 182.5,-75.5 298.5,-75.5 298.5,-56.5 182.5,-56.5"/>
<text text-anchor="middle" x="240.5" y="-63.5" font-family="Helvetica,sans-Serif" font-size="10.00">BiologicalSequences.h</text>
</a>
</g>
</g>
<!-- Node16&#45;&gt;Node17 -->
<g id="edge21" class="edge"><title>Node16&#45;&gt;Node17</title>
<path fill="none" stroke="midnightblue" d="M210.445,-112.083C215.477,-104.534 222.837,-93.4948 229.013,-84.2298"/>
<polygon fill="midnightblue" stroke="midnightblue" points="232.031,-86.0131 234.666,-75.7511 226.207,-82.1301 232.031,-86.0131"/>
</g>
<!-- Node17&#45;&gt;Node5 -->
<g id="edge23" class="edge"><title>Node17&#45;&gt;Node5</title>
<path fill="none" stroke="midnightblue" d="M254.317,-56.324C267.733,-47.9002 288.324,-34.9709 304.086,-25.0741"/>
<polygon fill="midnightblue" stroke="midnightblue" points="306.109,-27.9364 312.717,-19.6545 302.387,-22.0081 306.109,-27.9364"/>
</g>
<!-- Node17&#45;&gt;Node8 -->
<g id="edge22" class="edge"><title>Node17&#45;&gt;Node8</title>
<path fill="none" stroke="midnightblue" d="M227.968,-56.324C215.914,-47.979 197.473,-35.2122 183.231,-25.3524"/>
<polygon fill="midnightblue" stroke="midnightblue" points="185.215,-22.469 175.001,-19.6545 181.231,-28.2243 185.215,-22.469"/>
</g>
<!-- Node18 -->
<g id="node19" class="node"><title>Node18</title>
<polygon fill="none" stroke="#bfbfbf" points="220,-0.5 220,-19.5 261,-19.5 261,-0.5 220,-0.5"/>
<text text-anchor="middle" x="240.5" y="-7.5" font-family="Helvetica,sans-Serif" font-size="10.00">string</text>
</g>
<!-- Node17&#45;&gt;Node18 -->
<g id="edge24" class="edge"><title>Node17&#45;&gt;Node18</title>
<path fill="none" stroke="midnightblue" d="M240.5,-56.083C240.5,-49.0059 240.5,-38.8611 240.5,-29.9865"/>
<polygon fill="midnightblue" stroke="midnightblue" points="244,-29.751 240.5,-19.7511 237,-29.7511 244,-29.751"/>
</g>
<!-- Node20&#45;&gt;Node6 -->
<g id="edge28" class="edge"><title>Node20&#45;&gt;Node6</title>
<path fill="none" stroke="midnightblue" d="M189.926,-224.242C203.871,-211.423 230.995,-187.011 255.5,-168 269.462,-157.168 285.821,-145.849 298.635,-137.273"/>
<polygon fill="midnightblue" stroke="midnightblue" points="300.853,-140.002 307.254,-131.559 296.985,-134.168 300.853,-140.002"/>
</g>
<!-- Node20&#45;&gt;Node12 -->
<g id="edge29" class="edge"><title>Node20&#45;&gt;Node12</title>
<path fill="none" stroke="midnightblue" d="M173.399,-224.083C167.263,-216.377 158.23,-205.033 150.761,-195.653"/>
<polygon fill="midnightblue" stroke="midnightblue" points="153.436,-193.394 144.468,-187.751 147.96,-197.754 153.436,-193.394"/>
</g>
<!-- Node21&#45;&gt;Node6 -->
<g id="edge31" class="edge"><title>Node21&#45;&gt;Node6</title>
<path fill="none" stroke="midnightblue" d="M280.259,-336.38C282.098,-327.327 285.052,-312.673 287.5,-300 298.639,-242.346 311.2,-173.998 317.098,-141.694"/>
<polygon fill="midnightblue" stroke="midnightblue" points="320.542,-142.314 318.893,-131.848 313.656,-141.058 320.542,-142.314"/>
</g>
<!-- Node22 -->
<g id="node23" class="node"><title>Node22</title>
<g id="a_node23"><a xlink:href="DPProfileProcess_8h.html" target="_top" xlink:title="DPProfileProcess.h">
<polygon fill="none" stroke="black" points="176,-280.5 176,-299.5 279,-299.5 279,-280.5 176,-280.5"/>
<text text-anchor="middle" x="227.5" y="-287.5" font-family="Helvetica,sans-Serif" font-size="10.00">DPProfileProcess.h</text>
</a>
</g>
</g>
<!-- Node21&#45;&gt;Node22 -->
<g id="edge32" class="edge"><title>Node21&#45;&gt;Node22</title>
<path fill="none" stroke="midnightblue" d="M270.078,-336.083C262.652,-328.22 251.648,-316.569 242.688,-307.081"/>
<polygon fill="midnightblue" stroke="midnightblue" points="245.176,-304.618 235.765,-299.751 240.087,-309.424 245.176,-304.618"/>
</g>
<!-- Node22&#45;&gt;Node6 -->
<g id="edge33" class="edge"><title>Node22&#45;&gt;Node6</title>
<path fill="none" stroke="midnightblue" d="M232.022,-280.425C242.546,-260.529 269.607,-209.742 293.5,-168 298.77,-158.793 304.832,-148.652 309.875,-140.331"/>
<polygon fill="midnightblue" stroke="midnightblue" points="313.002,-141.925 315.218,-131.565 307.025,-138.282 313.002,-141.925"/>
</g>
<!-- Node22&#45;&gt;Node20 -->
<g id="edge34" class="edge"><title>Node22&#45;&gt;Node20</title>
<path fill="none" stroke="midnightblue" d="M219.739,-280.083C212.963,-272.298 202.957,-260.801 194.745,-251.367"/>
<polygon fill="midnightblue" stroke="midnightblue" points="197.322,-248.996 188.117,-243.751 192.042,-253.592 197.322,-248.996"/>
</g>
<!-- Node25 -->
<g id="node26" class="node"><title>Node25</title>
<polygon fill="none" stroke="#bfbfbf" points="543,-336.5 543,-355.5 584,-355.5 584,-336.5 543,-336.5"/>
<text text-anchor="middle" x="563.5" y="-343.5" font-family="Helvetica,sans-Serif" font-size="10.00">mpi.h</text>
</g>
<!-- Node24&#45;&gt;Node25 -->
<g id="edge38" class="edge"><title>Node24&#45;&gt;Node25</title>
<path fill="none" stroke="midnightblue" d="M563.5,-392.083C563.5,-385.006 563.5,-374.861 563.5,-365.986"/>
<polygon fill="midnightblue" stroke="midnightblue" points="567,-365.751 563.5,-355.751 560,-365.751 567,-365.751"/>
</g>
</g>
</svg>
