<?xml version="1.0" encoding="UTF-8" standalone="no"?>
<!DOCTYPE svg PUBLIC "-//W3C//DTD SVG 1.1//EN"
 "http://www.w3.org/Graphics/SVG/1.1/DTD/svg11.dtd">
<!-- Generated by graphviz version 2.38.0 (20140413.2041)
 -->
<!-- Title: MatrixProfileProcess.cpp Pages: 1 -->
<svg width="593pt" height="308pt"
 viewBox="0.00 0.00 592.50 308.00" xmlns="http://www.w3.org/2000/svg" xmlns:xlink="http://www.w3.org/1999/xlink">
<g id="graph0" class="graph" transform="scale(1 1) rotate(0) translate(4 304)">
<title>MatrixProfileProcess.cpp</title>
<!-- Node0 -->
<g id="node1" class="node"><title>Node0</title>
<polygon fill="#bfbfbf" stroke="black" points="323.5,-280.5 323.5,-299.5 449.5,-299.5 449.5,-280.5 323.5,-280.5"/>
<text text-anchor="middle" x="386.5" y="-287.5" font-family="Helvetica,sans-Serif" font-size="10.00">MatrixProfileProcess.cpp</text>
</g>
<!-- Node1 -->
<g id="node2" class="node"><title>Node1</title>
<g id="a_node2"><a xlink:href="MatrixProfileProcess_8h.html" target="_top" xlink:title="MatrixProfileProcess.h">
<polygon fill="none" stroke="black" points="285.5,-224.5 285.5,-243.5 401.5,-243.5 401.5,-224.5 285.5,-224.5"/>
<text text-anchor="middle" x="343.5" y="-231.5" font-family="Helvetica,sans-Serif" font-size="10.00">MatrixProfileProcess.h</text>
</a>
</g>
</g>
<!-- Node0&#45;&gt;Node1 -->
<g id="edge1" class="edge"><title>Node0&#45;&gt;Node1</title>
<path fill="none" stroke="midnightblue" d="M379.399,-280.083C373.263,-272.377 364.23,-261.033 356.761,-251.653"/>
<polygon fill="midnightblue" stroke="midnightblue" points="359.436,-249.394 350.468,-243.751 353.96,-253.754 359.436,-249.394"/>
</g>
<!-- Node5 -->
<g id="node6" class="node"><title>Node5</title>
<g id="a_node6"><a xlink:href="Random_8h.html" target="_top" xlink:title="Random.h">
<polygon fill="none" stroke="black" points="377.5,-56.5 377.5,-75.5 439.5,-75.5 439.5,-56.5 377.5,-56.5"/>
<text text-anchor="middle" x="408.5" y="-63.5" font-family="Helvetica,sans-Serif" font-size="10.00">Random.h</text>
</a>
</g>
</g>
<!-- Node0&#45;&gt;Node5 -->
<g id="edge25" class="edge"><title>Node0&#45;&gt;Node5</title>
<path fill="none" stroke="midnightblue" d="M392.867,-280.232C398.76,-271.532 407.107,-257.572 410.5,-244 424.568,-187.728 416.804,-118.217 411.754,-85.5783"/>
<polygon fill="midnightblue" stroke="midnightblue" points="415.199,-84.9525 410.121,-75.6534 408.291,-86.089 415.199,-84.9525"/>
</g>
<!-- Node2 -->
<g id="node3" class="node"><title>Node2</title>
<g id="a_node3"><a xlink:href="SubMatrix_8h.html" target="_top" xlink:title="SubMatrix.h">
<polygon fill="none" stroke="black" points="332,-112.5 332,-131.5 401,-131.5 401,-112.5 332,-112.5"/>
<text text-anchor="middle" x="366.5" y="-119.5" font-family="Helvetica,sans-Serif" font-size="10.00">SubMatrix.h</text>
</a>
</g>
</g>
<!-- Node1&#45;&gt;Node2 -->
<g id="edge2" class="edge"><title>Node1&#45;&gt;Node2</title>
<path fill="none" stroke="midnightblue" d="M345.305,-224.368C349.016,-206.617 357.579,-165.666 362.611,-141.597"/>
<polygon fill="midnightblue" stroke="midnightblue" points="366.083,-142.096 364.704,-131.591 359.231,-140.663 366.083,-142.096"/>
</g>
<!-- Node10 -->
<g id="node11" class="node"><title>Node10</title>
<g id="a_node11"><a xlink:href="ProfileProcess_8h.html" target="_top" xlink:title="ProfileProcess.h">
<polygon fill="none" stroke="black" points="178,-168.5 178,-187.5 267,-187.5 267,-168.5 178,-168.5"/>
<text text-anchor="middle" x="222.5" y="-175.5" font-family="Helvetica,sans-Serif" font-size="10.00">ProfileProcess.h</text>
</a>
</g>
</g>
<!-- Node1&#45;&gt;Node10 -->
<g id="edge12" class="edge"><title>Node1&#45;&gt;Node10</title>
<path fill="none" stroke="midnightblue" d="M324.327,-224.444C304.591,-215.636 273.615,-201.812 251.007,-191.722"/>
<polygon fill="midnightblue" stroke="midnightblue" points="252.141,-188.396 241.583,-187.516 249.289,-194.788 252.141,-188.396"/>
</g>
<!-- Node3 -->
<g id="node4" class="node"><title>Node3</title>
<polygon fill="none" stroke="#bfbfbf" points="139.5,-0.5 139.5,-19.5 193.5,-19.5 193.5,-0.5 139.5,-0.5"/>
<text text-anchor="middle" x="166.5" y="-7.5" font-family="Helvetica,sans-Serif" font-size="10.00">iostream</text>
</g>
<!-- Node2&#45;&gt;Node3 -->
<g id="edge3" class="edge"><title>Node2&#45;&gt;Node3</title>
<path fill="none" stroke="midnightblue" d="M331.772,-113.542C292.805,-104.701 232.547,-89.4662 213.5,-76 196.316,-63.8509 183.041,-43.3938 175.049,-28.6716"/>
<polygon fill="midnightblue" stroke="midnightblue" points="178.057,-26.8665 170.376,-19.568 171.829,-30.0629 178.057,-26.8665"/>
</g>
<!-- Node4 -->
<g id="node5" class="node"><title>Node4</title>
<polygon fill="none" stroke="#bfbfbf" points="540.5,-0.5 540.5,-19.5 584.5,-19.5 584.5,-0.5 540.5,-0.5"/>
<text text-anchor="middle" x="562.5" y="-7.5" font-family="Helvetica,sans-Serif" font-size="10.00">cmath</text>
</g>
<!-- Node2&#45;&gt;Node4 -->
<g id="edge4" class="edge"><title>Node2&#45;&gt;Node4</title>
<path fill="none" stroke="midnightblue" d="M382.262,-112.449C398.803,-103.452 425.541,-88.8437 448.5,-76 479.781,-58.5007 515.669,-37.9612 538.687,-24.7272"/>
<polygon fill="midnightblue" stroke="midnightblue" points="540.502,-27.7214 547.423,-19.7002 537.01,-21.6543 540.502,-27.7214"/>
</g>
<!-- Node2&#45;&gt;Node5 -->
<g id="edge5" class="edge"><title>Node2&#45;&gt;Node5</title>
<path fill="none" stroke="midnightblue" d="M373.435,-112.083C379.429,-104.377 388.252,-93.0333 395.548,-83.6531"/>
<polygon fill="midnightblue" stroke="midnightblue" points="398.317,-85.7934 401.694,-75.7511 392.791,-81.4958 398.317,-85.7934"/>
</g>
<!-- Node5&#45;&gt;Node3 -->
<g id="edge8" class="edge"><title>Node5&#45;&gt;Node3</title>
<path fill="none" stroke="midnightblue" d="M377.374,-58.5036C338.873,-50.4016 271.08,-35.9209 203.562,-20.197"/>
<polygon fill="midnightblue" stroke="midnightblue" points="204.14,-16.7378 193.606,-17.8687 202.546,-23.5539 204.14,-16.7378"/>
</g>
<!-- Node5&#45;&gt;Node4 -->
<g id="edge6" class="edge"><title>Node5&#45;&gt;Node4</title>
<path fill="none" stroke="midnightblue" d="M432.902,-56.4435C459.304,-47.1858 501.509,-32.3866 530.54,-22.2066"/>
<polygon fill="midnightblue" stroke="midnightblue" points="531.934,-25.427 540.212,-18.8151 529.618,-18.8213 531.934,-25.427"/>
</g>
<!-- Node6 -->
<g id="node7" class="node"><title>Node6</title>
<polygon fill="none" stroke="#bfbfbf" points="271,-0.5 271,-19.5 316,-19.5 316,-0.5 271,-0.5"/>
<text text-anchor="middle" x="293.5" y="-7.5" font-family="Helvetica,sans-Serif" font-size="10.00">cstdlib</text>
</g>
<!-- Node5&#45;&gt;Node6 -->
<g id="edge7" class="edge"><title>Node5&#45;&gt;Node6</title>
<path fill="none" stroke="midnightblue" d="M390.278,-56.4435C371.604,-47.6751 342.344,-33.9355 320.883,-23.8579"/>
<polygon fill="midnightblue" stroke="midnightblue" points="322.176,-20.5988 311.637,-19.5164 319.201,-26.935 322.176,-20.5988"/>
</g>
<!-- Node7 -->
<g id="node8" class="node"><title>Node7</title>
<polygon fill="none" stroke="#bfbfbf" points="470.5,-0.5 470.5,-19.5 522.5,-19.5 522.5,-0.5 470.5,-0.5"/>
<text text-anchor="middle" x="496.5" y="-7.5" font-family="Helvetica,sans-Serif" font-size="10.00">sstream</text>
</g>
<!-- Node5&#45;&gt;Node7 -->
<g id="edge9" class="edge"><title>Node5&#45;&gt;Node7</title>
<path fill="none" stroke="midnightblue" d="M422.639,-56.324C436.366,-47.9002 457.436,-34.9709 473.564,-25.0741"/>
<polygon fill="midnightblue" stroke="midnightblue" points="475.704,-27.8678 482.396,-19.6545 472.043,-21.9016 475.704,-27.8678"/>
</g>
<!-- Node8 -->
<g id="node9" class="node"><title>Node8</title>
<polygon fill="none" stroke="#bfbfbf" points="334.5,-0.5 334.5,-19.5 384.5,-19.5 384.5,-0.5 334.5,-0.5"/>
<text text-anchor="middle" x="359.5" y="-7.5" font-family="Helvetica,sans-Serif" font-size="10.00">iomanip</text>
</g>
<!-- Node5&#45;&gt;Node8 -->
<g id="edge10" class="edge"><title>Node5&#45;&gt;Node8</title>
<path fill="none" stroke="midnightblue" d="M400.409,-56.083C393.345,-48.2982 382.912,-36.8015 374.351,-27.3665"/>
<polygon fill="midnightblue" stroke="midnightblue" points="376.753,-24.8047 367.441,-19.7511 371.569,-29.5087 376.753,-24.8047"/>
</g>
<!-- Node9 -->
<g id="node10" class="node"><title>Node9</title>
<polygon fill="none" stroke="#bfbfbf" points="402.5,-0.5 402.5,-19.5 452.5,-19.5 452.5,-0.5 402.5,-0.5"/>
<text text-anchor="middle" x="427.5" y="-7.5" font-family="Helvetica,sans-Serif" font-size="10.00">fstream</text>
</g>
<!-- Node5&#45;&gt;Node9 -->
<g id="edge11" class="edge"><title>Node5&#45;&gt;Node9</title>
<path fill="none" stroke="midnightblue" d="M411.637,-56.083C414.183,-48.8486 417.856,-38.4087 421.027,-29.3968"/>
<polygon fill="midnightblue" stroke="midnightblue" points="424.403,-30.3459 424.421,-19.7511 417.8,-28.0225 424.403,-30.3459"/>
</g>
<!-- Node10&#45;&gt;Node3 -->
<g id="edge23" class="edge"><title>Node10&#45;&gt;Node3</title>
<path fill="none" stroke="midnightblue" d="M209.158,-168.443C198.021,-160.483 182.825,-147.53 175.5,-132 159.831,-98.7759 161.333,-54.67 163.883,-29.9235"/>
<polygon fill="midnightblue" stroke="midnightblue" points="167.388,-30.0899 165.11,-19.743 160.438,-29.2525 167.388,-30.0899"/>
</g>
<!-- Node11 -->
<g id="node12" class="node"><title>Node11</title>
<g id="a_node12"><a xlink:href="Chrono_8h.html" target="_top" xlink:title="Chrono.h">
<polygon fill="none" stroke="black" points="72.5,-56.5 72.5,-75.5 128.5,-75.5 128.5,-56.5 72.5,-56.5"/>
<text text-anchor="middle" x="100.5" y="-63.5" font-family="Helvetica,sans-Serif" font-size="10.00">Chrono.h</text>
</a>
</g>
</g>
<!-- Node10&#45;&gt;Node11 -->
<g id="edge13" class="edge"><title>Node10&#45;&gt;Node11</title>
<path fill="none" stroke="midnightblue" d="M200.972,-168.358C183.734,-160.674 159.68,-148.158 142.5,-132 128.009,-118.371 116.231,-98.764 108.875,-84.653"/>
<polygon fill="midnightblue" stroke="midnightblue" points="111.915,-82.9054 104.325,-75.5134 105.648,-86.0253 111.915,-82.9054"/>
</g>
<!-- Node14 -->
<g id="node15" class="node"><title>Node14</title>
<g id="a_node15"><a xlink:href="StateSpace_8h.html" target="_top" xlink:title="StateSpace.h">
<polygon fill="none" stroke="black" points="184.5,-112.5 184.5,-131.5 260.5,-131.5 260.5,-112.5 184.5,-112.5"/>
<text text-anchor="middle" x="222.5" y="-119.5" font-family="Helvetica,sans-Serif" font-size="10.00">StateSpace.h</text>
</a>
</g>
</g>
<!-- Node10&#45;&gt;Node14 -->
<g id="edge18" class="edge"><title>Node10&#45;&gt;Node14</title>
<path fill="none" stroke="midnightblue" d="M222.5,-168.083C222.5,-161.006 222.5,-150.861 222.5,-141.986"/>
<polygon fill="midnightblue" stroke="midnightblue" points="226,-141.751 222.5,-131.751 219,-141.751 226,-141.751"/>
</g>
<!-- Node17 -->
<g id="node18" class="node"><title>Node17</title>
<polygon fill="none" stroke="#bfbfbf" points="279,-112.5 279,-131.5 314,-131.5 314,-112.5 279,-112.5"/>
<text text-anchor="middle" x="296.5" y="-119.5" font-family="Helvetica,sans-Serif" font-size="10.00">map</text>
</g>
<!-- Node10&#45;&gt;Node17 -->
<g id="edge24" class="edge"><title>Node10&#45;&gt;Node17</title>
<path fill="none" stroke="midnightblue" d="M234.389,-168.324C245.65,-160.107 262.787,-147.602 276.209,-137.807"/>
<polygon fill="midnightblue" stroke="midnightblue" points="278.38,-140.556 284.394,-131.834 274.253,-134.901 278.38,-140.556"/>
</g>
<!-- Node11&#45;&gt;Node3 -->
<g id="edge16" class="edge"><title>Node11&#45;&gt;Node3</title>
<path fill="none" stroke="midnightblue" d="M111.104,-56.324C120.956,-48.2631 135.851,-36.0765 147.715,-26.3695"/>
<polygon fill="midnightblue" stroke="midnightblue" points="150.18,-28.8752 155.703,-19.8339 145.747,-23.4575 150.18,-28.8752"/>
</g>
<!-- Node11&#45;&gt;Node6 -->
<g id="edge17" class="edge"><title>Node11&#45;&gt;Node6</title>
<path fill="none" stroke="midnightblue" d="M128.715,-57.1288C158.978,-48.6827 208.706,-34.7953 260.988,-20.1403"/>
<polygon fill="midnightblue" stroke="midnightblue" points="262.092,-23.4658 270.776,-17.3961 260.202,-16.7257 262.092,-23.4658"/>
</g>
<!-- Node12 -->
<g id="node13" class="node"><title>Node12</title>
<polygon fill="none" stroke="#bfbfbf" points="0,-0.5 0,-19.5 41,-19.5 41,-0.5 0,-0.5"/>
<text text-anchor="middle" x="20.5" y="-7.5" font-family="Helvetica,sans-Serif" font-size="10.00">ctime</text>
</g>
<!-- Node11&#45;&gt;Node12 -->
<g id="edge14" class="edge"><title>Node11&#45;&gt;Node12</title>
<path fill="none" stroke="midnightblue" d="M87.6466,-56.324C75.2836,-47.979 56.3699,-35.2122 41.7628,-25.3524"/>
<polygon fill="midnightblue" stroke="midnightblue" points="43.5682,-22.3483 33.3215,-19.6545 39.6518,-28.1503 43.5682,-22.3483"/>
</g>
<!-- Node13 -->
<g id="node14" class="node"><title>Node13</title>
<polygon fill="none" stroke="#bfbfbf" points="59.5,-0.5 59.5,-19.5 121.5,-19.5 121.5,-0.5 59.5,-0.5"/>
<text text-anchor="middle" x="90.5" y="-7.5" font-family="Helvetica,sans-Serif" font-size="10.00">sys/time.h</text>
</g>
<!-- Node11&#45;&gt;Node13 -->
<g id="edge15" class="edge"><title>Node11&#45;&gt;Node13</title>
<path fill="none" stroke="midnightblue" d="M98.8487,-56.083C97.5236,-48.9272 95.6176,-38.6353 93.9613,-29.6911"/>
<polygon fill="midnightblue" stroke="midnightblue" points="97.383,-28.9466 92.1206,-19.7511 90.5001,-30.2212 97.383,-28.9466"/>
</g>
<!-- Node15 -->
<g id="node16" class="node"><title>Node15</title>
<g id="a_node16"><a xlink:href="BiologicalSequences_8h.html" target="_top" xlink:title="BiologicalSequences.h">
<polygon fill="none" stroke="black" points="222.5,-56.5 222.5,-75.5 338.5,-75.5 338.5,-56.5 222.5,-56.5"/>
<text text-anchor="middle" x="280.5" y="-63.5" font-family="Helvetica,sans-Serif" font-size="10.00">BiologicalSequences.h</text>
</a>
</g>
</g>
<!-- Node14&#45;&gt;Node15 -->
<g id="edge19" class="edge"><title>Node14&#45;&gt;Node15</title>
<path fill="none" stroke="midnightblue" d="M231.819,-112.324C240.393,-104.341 253.312,-92.3128 263.688,-82.6529"/>
<polygon fill="midnightblue" stroke="midnightblue" points="266.078,-85.2098 271.012,-75.8339 261.308,-80.0865 266.078,-85.2098"/>
</g>
<!-- Node15&#45;&gt;Node3 -->
<g id="edge21" class="edge"><title>Node15&#45;&gt;Node3</title>
<path fill="none" stroke="midnightblue" d="M262.436,-56.4435C243.925,-47.6751 214.919,-33.9355 193.645,-23.8579"/>
<polygon fill="midnightblue" stroke="midnightblue" points="195.015,-20.6343 184.479,-19.5164 192.018,-26.9604 195.015,-20.6343"/>
</g>
<!-- Node15&#45;&gt;Node6 -->
<g id="edge20" class="edge"><title>Node15&#45;&gt;Node6</title>
<path fill="none" stroke="midnightblue" d="M282.647,-56.083C284.369,-48.9272 286.847,-38.6353 289,-29.6911"/>
<polygon fill="midnightblue" stroke="midnightblue" points="292.455,-30.2925 291.393,-19.7511 285.65,-28.6541 292.455,-30.2925"/>
</g>
<!-- Node16 -->
<g id="node17" class="node"><title>Node16</title>
<polygon fill="none" stroke="#bfbfbf" points="212,-0.5 212,-19.5 253,-19.5 253,-0.5 212,-0.5"/>
<text text-anchor="middle" x="232.5" y="-7.5" font-family="Helvetica,sans-Serif" font-size="10.00">string</text>
</g>
<!-- Node15&#45;&gt;Node16 -->
<g id="edge22" class="edge"><title>Node15&#45;&gt;Node16</title>
<path fill="none" stroke="midnightblue" d="M272.574,-56.083C265.654,-48.2982 255.435,-36.8015 247.048,-27.3665"/>
<polygon fill="midnightblue" stroke="midnightblue" points="249.538,-24.8999 240.279,-19.7511 244.306,-29.5505 249.538,-24.8999"/>
</g>
</g>
</svg>
