<?xml version="1.0" encoding="UTF-8" standalone="no"?>
<!DOCTYPE svg PUBLIC "-//W3C//DTD SVG 1.1//EN"
 "http://www.w3.org/Graphics/SVG/1.1/DTD/svg11.dtd">
<!-- Generated by graphviz version 2.38.0 (20140413.2041)
 -->
<!-- Title: MatrixMixtureProfileProcess.h Pages: 1 -->
<svg width="592pt" height="308pt"
 viewBox="0.00 0.00 592.00 308.00" xmlns="http://www.w3.org/2000/svg" xmlns:xlink="http://www.w3.org/1999/xlink">
<g id="graph0" class="graph" transform="scale(1 1) rotate(0) translate(4 304)">
<title>MatrixMixtureProfileProcess.h</title>
<!-- Node0 -->
<g id="node1" class="node"><title>Node0</title>
<polygon fill="#bfbfbf" stroke="black" points="308,-280.5 308,-299.5 456,-299.5 456,-280.5 308,-280.5"/>
<text text-anchor="middle" x="382" y="-287.5" font-family="Helvetica,sans-Serif" font-size="10.00">MatrixMixtureProfileProcess.h</text>
</g>
<!-- Node1 -->
<g id="node2" class="node"><title>Node1</title>
<g id="a_node2"><a xlink:href="MatrixProfileProcess_8h.html" target="_top" xlink:title="MatrixProfileProcess.h">
<polygon fill="none" stroke="black" points="256,-224.5 256,-243.5 372,-243.5 372,-224.5 256,-224.5"/>
<text text-anchor="middle" x="314" y="-231.5" font-family="Helvetica,sans-Serif" font-size="10.00">MatrixProfileProcess.h</text>
</a>
</g>
</g>
<!-- Node0&#45;&gt;Node1 -->
<g id="edge1" class="edge"><title>Node0&#45;&gt;Node1</title>
<path fill="none" stroke="midnightblue" d="M371.075,-280.324C360.825,-272.185 345.279,-259.839 332.999,-250.087"/>
<polygon fill="midnightblue" stroke="midnightblue" points="335.132,-247.312 325.124,-243.834 330.779,-252.794 335.132,-247.312"/>
</g>
<!-- Node18 -->
<g id="node19" class="node"><title>Node18</title>
<g id="a_node19"><a xlink:href="MixtureProfileProcess_8h.html" target="_top" xlink:title="MixtureProfileProcess.h">
<polygon fill="none" stroke="black" points="390.5,-224.5 390.5,-243.5 511.5,-243.5 511.5,-224.5 390.5,-224.5"/>
<text text-anchor="middle" x="451" y="-231.5" font-family="Helvetica,sans-Serif" font-size="10.00">MixtureProfileProcess.h</text>
</a>
</g>
</g>
<!-- Node0&#45;&gt;Node18 -->
<g id="edge25" class="edge"><title>Node0&#45;&gt;Node18</title>
<path fill="none" stroke="midnightblue" d="M393.086,-280.324C403.486,-272.185 419.261,-259.839 431.722,-250.087"/>
<polygon fill="midnightblue" stroke="midnightblue" points="433.994,-252.753 439.712,-243.834 429.68,-247.241 433.994,-252.753"/>
</g>
<!-- Node2 -->
<g id="node3" class="node"><title>Node2</title>
<g id="a_node3"><a xlink:href="SubMatrix_8h.html" target="_top" xlink:title="SubMatrix.h">
<polygon fill="none" stroke="black" points="352.5,-112.5 352.5,-131.5 421.5,-131.5 421.5,-112.5 352.5,-112.5"/>
<text text-anchor="middle" x="387" y="-119.5" font-family="Helvetica,sans-Serif" font-size="10.00">SubMatrix.h</text>
</a>
</g>
</g>
<!-- Node1&#45;&gt;Node2 -->
<g id="edge2" class="edge"><title>Node1&#45;&gt;Node2</title>
<path fill="none" stroke="midnightblue" d="M319.728,-224.368C331.775,-206.215 359.923,-163.802 375.725,-139.99"/>
<polygon fill="midnightblue" stroke="midnightblue" points="378.685,-141.859 381.298,-131.591 372.853,-137.988 378.685,-141.859"/>
</g>
<!-- Node10 -->
<g id="node11" class="node"><title>Node10</title>
<g id="a_node11"><a xlink:href="ProfileProcess_8h.html" target="_top" xlink:title="ProfileProcess.h">
<polygon fill="none" stroke="black" points="214.5,-168.5 214.5,-187.5 303.5,-187.5 303.5,-168.5 214.5,-168.5"/>
<text text-anchor="middle" x="259" y="-175.5" font-family="Helvetica,sans-Serif" font-size="10.00">ProfileProcess.h</text>
</a>
</g>
</g>
<!-- Node1&#45;&gt;Node10 -->
<g id="edge12" class="edge"><title>Node1&#45;&gt;Node10</title>
<path fill="none" stroke="midnightblue" d="M304.918,-224.083C296.829,-216.141 284.805,-204.335 275.09,-194.797"/>
<polygon fill="midnightblue" stroke="midnightblue" points="277.501,-192.26 267.913,-187.751 272.597,-197.254 277.501,-192.26"/>
</g>
<!-- Node3 -->
<g id="node4" class="node"><title>Node3</title>
<polygon fill="none" stroke="#bfbfbf" points="262,-0.5 262,-19.5 316,-19.5 316,-0.5 262,-0.5"/>
<text text-anchor="middle" x="289" y="-7.5" font-family="Helvetica,sans-Serif" font-size="10.00">iostream</text>
</g>
<!-- Node2&#45;&gt;Node3 -->
<g id="edge3" class="edge"><title>Node2&#45;&gt;Node3</title>
<path fill="none" stroke="midnightblue" d="M379.31,-112.368C362.994,-94.0547 324.68,-51.0489 303.577,-27.3624"/>
<polygon fill="midnightblue" stroke="midnightblue" points="305.92,-24.7298 296.654,-19.5914 300.693,-29.3863 305.92,-24.7298"/>
</g>
<!-- Node4 -->
<g id="node5" class="node"><title>Node4</title>
<polygon fill="none" stroke="#bfbfbf" points="540,-0.5 540,-19.5 584,-19.5 584,-0.5 540,-0.5"/>
<text text-anchor="middle" x="562" y="-7.5" font-family="Helvetica,sans-Serif" font-size="10.00">cmath</text>
</g>
<!-- Node2&#45;&gt;Node4 -->
<g id="edge4" class="edge"><title>Node2&#45;&gt;Node4</title>
<path fill="none" stroke="midnightblue" d="M400.732,-112.368C430.89,-93.4121 503.135,-48.0006 539.819,-24.9424"/>
<polygon fill="midnightblue" stroke="midnightblue" points="541.728,-27.8764 548.332,-19.5914 538.003,-21.9499 541.728,-27.8764"/>
</g>
<!-- Node5 -->
<g id="node6" class="node"><title>Node5</title>
<g id="a_node6"><a xlink:href="Random_8h.html" target="_top" xlink:title="Random.h">
<polygon fill="none" stroke="black" points="373,-56.5 373,-75.5 435,-75.5 435,-56.5 373,-56.5"/>
<text text-anchor="middle" x="404" y="-63.5" font-family="Helvetica,sans-Serif" font-size="10.00">Random.h</text>
</a>
</g>
</g>
<!-- Node2&#45;&gt;Node5 -->
<g id="edge5" class="edge"><title>Node2&#45;&gt;Node5</title>
<path fill="none" stroke="midnightblue" d="M389.807,-112.083C392.085,-104.849 395.371,-94.4087 398.208,-85.3968"/>
<polygon fill="midnightblue" stroke="midnightblue" points="401.581,-86.3406 401.245,-75.7511 394.904,-84.2385 401.581,-86.3406"/>
</g>
<!-- Node5&#45;&gt;Node3 -->
<g id="edge8" class="edge"><title>Node5&#45;&gt;Node3</title>
<path fill="none" stroke="midnightblue" d="M385.778,-56.4435C367.104,-47.6751 337.844,-33.9355 316.383,-23.8579"/>
<polygon fill="midnightblue" stroke="midnightblue" points="317.676,-20.5988 307.137,-19.5164 314.701,-26.935 317.676,-20.5988"/>
</g>
<!-- Node5&#45;&gt;Node4 -->
<g id="edge6" class="edge"><title>Node5&#45;&gt;Node4</title>
<path fill="none" stroke="midnightblue" d="M429.036,-56.4435C456.476,-47.0652 500.555,-32.0001 530.367,-21.8112"/>
<polygon fill="midnightblue" stroke="midnightblue" points="531.555,-25.104 539.886,-18.558 529.291,-18.4802 531.555,-25.104"/>
</g>
<!-- Node6 -->
<g id="node7" class="node"><title>Node6</title>
<polygon fill="none" stroke="#bfbfbf" points="198.5,-0.5 198.5,-19.5 243.5,-19.5 243.5,-0.5 198.5,-0.5"/>
<text text-anchor="middle" x="221" y="-7.5" font-family="Helvetica,sans-Serif" font-size="10.00">cstdlib</text>
</g>
<!-- Node5&#45;&gt;Node6 -->
<g id="edge7" class="edge"><title>Node5&#45;&gt;Node6</title>
<path fill="none" stroke="midnightblue" d="M375.003,-56.4435C341.94,-46.6872 288.02,-30.7764 253.545,-20.6036"/>
<polygon fill="midnightblue" stroke="midnightblue" points="254.097,-17.1172 243.515,-17.6439 252.116,-23.831 254.097,-17.1172"/>
</g>
<!-- Node7 -->
<g id="node8" class="node"><title>Node7</title>
<polygon fill="none" stroke="#bfbfbf" points="334,-0.5 334,-19.5 386,-19.5 386,-0.5 334,-0.5"/>
<text text-anchor="middle" x="360" y="-7.5" font-family="Helvetica,sans-Serif" font-size="10.00">sstream</text>
</g>
<!-- Node5&#45;&gt;Node7 -->
<g id="edge9" class="edge"><title>Node5&#45;&gt;Node7</title>
<path fill="none" stroke="midnightblue" d="M396.734,-56.083C390.455,-48.3768 381.212,-37.0333 373.569,-27.6531"/>
<polygon fill="midnightblue" stroke="midnightblue" points="376.161,-25.2926 367.131,-19.7511 370.734,-29.7143 376.161,-25.2926"/>
</g>
<!-- Node8 -->
<g id="node9" class="node"><title>Node8</title>
<polygon fill="none" stroke="#bfbfbf" points="404,-0.5 404,-19.5 454,-19.5 454,-0.5 404,-0.5"/>
<text text-anchor="middle" x="429" y="-7.5" font-family="Helvetica,sans-Serif" font-size="10.00">iomanip</text>
</g>
<!-- Node5&#45;&gt;Node8 -->
<g id="edge10" class="edge"><title>Node5&#45;&gt;Node8</title>
<path fill="none" stroke="midnightblue" d="M408.128,-56.083C411.514,-48.77 416.416,-38.1814 420.619,-29.1034"/>
<polygon fill="midnightblue" stroke="midnightblue" points="423.923,-30.2962 424.949,-19.7511 417.571,-27.3553 423.923,-30.2962"/>
</g>
<!-- Node9 -->
<g id="node10" class="node"><title>Node9</title>
<polygon fill="none" stroke="#bfbfbf" points="472,-0.5 472,-19.5 522,-19.5 522,-0.5 472,-0.5"/>
<text text-anchor="middle" x="497" y="-7.5" font-family="Helvetica,sans-Serif" font-size="10.00">fstream</text>
</g>
<!-- Node5&#45;&gt;Node9 -->
<g id="edge11" class="edge"><title>Node5&#45;&gt;Node9</title>
<path fill="none" stroke="midnightblue" d="M418.942,-56.324C433.585,-47.8215 456.134,-34.7288 473.238,-24.7975"/>
<polygon fill="midnightblue" stroke="midnightblue" points="475.205,-27.7027 482.095,-19.6545 471.69,-21.6491 475.205,-27.7027"/>
</g>
<!-- Node10&#45;&gt;Node3 -->
<g id="edge23" class="edge"><title>Node10&#45;&gt;Node3</title>
<path fill="none" stroke="midnightblue" d="M266.647,-168.451C273.734,-159.914 283.796,-146.07 288,-132 298.436,-97.0735 295.184,-53.9034 292.006,-29.7111"/>
<polygon fill="midnightblue" stroke="midnightblue" points="295.46,-29.1443 290.555,-19.7531 288.533,-30.1531 295.46,-29.1443"/>
</g>
<!-- Node11 -->
<g id="node12" class="node"><title>Node11</title>
<g id="a_node12"><a xlink:href="Chrono_8h.html" target="_top" xlink:title="Chrono.h">
<polygon fill="none" stroke="black" points="89,-56.5 89,-75.5 145,-75.5 145,-56.5 89,-56.5"/>
<text text-anchor="middle" x="117" y="-63.5" font-family="Helvetica,sans-Serif" font-size="10.00">Chrono.h</text>
</a>
</g>
</g>
<!-- Node10&#45;&gt;Node11 -->
<g id="edge13" class="edge"><title>Node10&#45;&gt;Node11</title>
<path fill="none" stroke="midnightblue" d="M214.332,-169.653C189.526,-163.454 159.776,-152.204 140,-132 127.843,-119.58 122.078,-100.341 119.364,-86.0119"/>
<polygon fill="midnightblue" stroke="midnightblue" points="122.771,-85.1421 117.779,-75.7974 115.854,-86.216 122.771,-85.1421"/>
</g>
<!-- Node14 -->
<g id="node15" class="node"><title>Node14</title>
<g id="a_node15"><a xlink:href="StateSpace_8h.html" target="_top" xlink:title="StateSpace.h">
<polygon fill="none" stroke="black" points="203,-112.5 203,-131.5 279,-131.5 279,-112.5 203,-112.5"/>
<text text-anchor="middle" x="241" y="-119.5" font-family="Helvetica,sans-Serif" font-size="10.00">StateSpace.h</text>
</a>
</g>
</g>
<!-- Node10&#45;&gt;Node14 -->
<g id="edge18" class="edge"><title>Node10&#45;&gt;Node14</title>
<path fill="none" stroke="midnightblue" d="M256.028,-168.083C253.616,-160.849 250.136,-150.409 247.132,-141.397"/>
<polygon fill="midnightblue" stroke="midnightblue" points="250.4,-140.131 243.917,-131.751 243.759,-142.345 250.4,-140.131"/>
</g>
<!-- Node17 -->
<g id="node18" class="node"><title>Node17</title>
<polygon fill="none" stroke="#bfbfbf" points="149.5,-112.5 149.5,-131.5 184.5,-131.5 184.5,-112.5 149.5,-112.5"/>
<text text-anchor="middle" x="167" y="-119.5" font-family="Helvetica,sans-Serif" font-size="10.00">map</text>
</g>
<!-- Node10&#45;&gt;Node17 -->
<g id="edge24" class="edge"><title>Node10&#45;&gt;Node17</title>
<path fill="none" stroke="midnightblue" d="M244.219,-168.324C229.733,-159.822 207.427,-146.729 190.507,-136.797"/>
<polygon fill="midnightblue" stroke="midnightblue" points="192.141,-133.698 181.745,-131.655 188.597,-139.735 192.141,-133.698"/>
</g>
<!-- Node11&#45;&gt;Node3 -->
<g id="edge16" class="edge"><title>Node11&#45;&gt;Node3</title>
<path fill="none" stroke="midnightblue" d="M144.254,-56.4435C173.441,-47.2801 219.921,-32.6876 252.309,-22.5192"/>
<polygon fill="midnightblue" stroke="midnightblue" points="253.381,-25.8512 261.874,-19.5164 251.284,-19.1726 253.381,-25.8512"/>
</g>
<!-- Node11&#45;&gt;Node6 -->
<g id="edge17" class="edge"><title>Node11&#45;&gt;Node6</title>
<path fill="none" stroke="midnightblue" d="M133.709,-56.324C150.312,-47.7034 176.002,-34.3643 195.22,-24.3855"/>
<polygon fill="midnightblue" stroke="midnightblue" points="197.07,-27.3689 204.332,-19.6545 193.844,-21.1565 197.07,-27.3689"/>
</g>
<!-- Node12 -->
<g id="node13" class="node"><title>Node12</title>
<polygon fill="none" stroke="#bfbfbf" points="80.5,-0.5 80.5,-19.5 121.5,-19.5 121.5,-0.5 80.5,-0.5"/>
<text text-anchor="middle" x="101" y="-7.5" font-family="Helvetica,sans-Serif" font-size="10.00">ctime</text>
</g>
<!-- Node11&#45;&gt;Node12 -->
<g id="edge14" class="edge"><title>Node11&#45;&gt;Node12</title>
<path fill="none" stroke="midnightblue" d="M114.358,-56.083C112.214,-48.8486 109.121,-38.4087 106.451,-29.3968"/>
<polygon fill="midnightblue" stroke="midnightblue" points="109.79,-28.3447 103.593,-19.7511 103.078,-30.3334 109.79,-28.3447"/>
</g>
<!-- Node13 -->
<g id="node14" class="node"><title>Node13</title>
<polygon fill="none" stroke="#bfbfbf" points="0,-0.5 0,-19.5 62,-19.5 62,-0.5 0,-0.5"/>
<text text-anchor="middle" x="31" y="-7.5" font-family="Helvetica,sans-Serif" font-size="10.00">sys/time.h</text>
</g>
<!-- Node11&#45;&gt;Node13 -->
<g id="edge15" class="edge"><title>Node11&#45;&gt;Node13</title>
<path fill="none" stroke="midnightblue" d="M103.183,-56.324C89.767,-47.9002 69.1759,-34.9709 53.4144,-25.0741"/>
<polygon fill="midnightblue" stroke="midnightblue" points="55.1132,-22.0081 44.7831,-19.6545 51.3908,-27.9364 55.1132,-22.0081"/>
</g>
<!-- Node15 -->
<g id="node16" class="node"><title>Node15</title>
<g id="a_node16"><a xlink:href="BiologicalSequences_8h.html" target="_top" xlink:title="BiologicalSequences.h">
<polygon fill="none" stroke="black" points="163,-56.5 163,-75.5 279,-75.5 279,-56.5 163,-56.5"/>
<text text-anchor="middle" x="221" y="-63.5" font-family="Helvetica,sans-Serif" font-size="10.00">BiologicalSequences.h</text>
</a>
</g>
</g>
<!-- Node14&#45;&gt;Node15 -->
<g id="edge19" class="edge"><title>Node14&#45;&gt;Node15</title>
<path fill="none" stroke="midnightblue" d="M237.697,-112.083C235.018,-104.849 231.151,-94.4087 227.814,-85.3968"/>
<polygon fill="midnightblue" stroke="midnightblue" points="230.996,-83.9129 224.241,-75.7511 224.432,-86.3442 230.996,-83.9129"/>
</g>
<!-- Node15&#45;&gt;Node3 -->
<g id="edge21" class="edge"><title>Node15&#45;&gt;Node3</title>
<path fill="none" stroke="midnightblue" d="M231.925,-56.324C242.175,-48.1849 257.721,-35.8395 270.001,-26.0874"/>
<polygon fill="midnightblue" stroke="midnightblue" points="272.221,-28.7937 277.876,-19.8339 267.868,-23.3119 272.221,-28.7937"/>
</g>
<!-- Node15&#45;&gt;Node6 -->
<g id="edge20" class="edge"><title>Node15&#45;&gt;Node6</title>
<path fill="none" stroke="midnightblue" d="M221,-56.083C221,-49.0059 221,-38.8611 221,-29.9865"/>
<polygon fill="midnightblue" stroke="midnightblue" points="224.5,-29.751 221,-19.7511 217.5,-29.7511 224.5,-29.751"/>
</g>
<!-- Node16 -->
<g id="node17" class="node"><title>Node16</title>
<polygon fill="none" stroke="#bfbfbf" points="139.5,-0.5 139.5,-19.5 180.5,-19.5 180.5,-0.5 139.5,-0.5"/>
<text text-anchor="middle" x="160" y="-7.5" font-family="Helvetica,sans-Serif" font-size="10.00">string</text>
</g>
<!-- Node15&#45;&gt;Node16 -->
<g id="edge22" class="edge"><title>Node15&#45;&gt;Node16</title>
<path fill="none" stroke="midnightblue" d="M211.199,-56.324C202.182,-48.3414 188.594,-36.3128 177.682,-26.6529"/>
<polygon fill="midnightblue" stroke="midnightblue" points="179.787,-23.8416 169.979,-19.8339 175.147,-29.083 179.787,-23.8416"/>
</g>
<!-- Node18&#45;&gt;Node4 -->
<g id="edge26" class="edge"><title>Node18&#45;&gt;Node4</title>
<path fill="none" stroke="midnightblue" d="M455.351,-224.297C471.788,-191.425 530.304,-74.3911 552.955,-29.0904"/>
<polygon fill="midnightblue" stroke="midnightblue" points="556.216,-30.3933 557.558,-19.8837 549.955,-27.2628 556.216,-30.3933"/>
</g>
<!-- Node18&#45;&gt;Node10 -->
<g id="edge27" class="edge"><title>Node18&#45;&gt;Node10</title>
<path fill="none" stroke="midnightblue" d="M420.577,-224.444C387.715,-215.201 335.215,-200.436 299.026,-190.257"/>
<polygon fill="midnightblue" stroke="midnightblue" points="299.855,-186.855 289.281,-187.516 297.96,-193.593 299.855,-186.855"/>
</g>
</g>
</svg>
