<?xml version="1.0" encoding="UTF-8" standalone="no"?>
<!DOCTYPE svg PUBLIC "-//W3C//DTD SVG 1.1//EN"
 "http://www.w3.org/Graphics/SVG/1.1/DTD/svg11.dtd">
<!-- Generated by graphviz version 2.38.0 (20140413.2041)
 -->
<!-- Title: MatrixInfiniteProfileProcess.cpp Pages: 1 -->
<svg width="681pt" height="420pt"
 viewBox="0.00 0.00 680.50 420.00" xmlns="http://www.w3.org/2000/svg" xmlns:xlink="http://www.w3.org/1999/xlink">
<g id="graph0" class="graph" transform="scale(1 1) rotate(0) translate(4 416)">
<title>MatrixInfiniteProfileProcess.cpp</title>
<!-- Node0 -->
<g id="node1" class="node"><title>Node0</title>
<polygon fill="#bfbfbf" stroke="black" points="405,-392.5 405,-411.5 560,-411.5 560,-392.5 405,-392.5"/>
<text text-anchor="middle" x="482.5" y="-399.5" font-family="Helvetica,sans-Serif" font-size="10.00">MatrixInfiniteProfileProcess.cpp</text>
</g>
<!-- Node1 -->
<g id="node2" class="node"><title>Node1</title>
<g id="a_node2"><a xlink:href="MatrixFiniteProfileProcess_8h.html" target="_top" xlink:title="MatrixFiniteProfileProcess.h">
<polygon fill="none" stroke="black" points="284.5,-336.5 284.5,-355.5 424.5,-355.5 424.5,-336.5 284.5,-336.5"/>
<text text-anchor="middle" x="354.5" y="-343.5" font-family="Helvetica,sans-Serif" font-size="10.00">MatrixFiniteProfileProcess.h</text>
</a>
</g>
</g>
<!-- Node0&#45;&gt;Node1 -->
<g id="edge1" class="edge"><title>Node0&#45;&gt;Node1</title>
<path fill="none" stroke="midnightblue" d="M462.218,-392.444C441.153,-383.557 407.983,-369.563 384.014,-359.451"/>
<polygon fill="midnightblue" stroke="midnightblue" points="385.261,-356.179 374.687,-355.516 382.54,-362.628 385.261,-356.179"/>
</g>
<!-- Node7 -->
<g id="node8" class="node"><title>Node7</title>
<g id="a_node8"><a xlink:href="Random_8h.html" target="_top" xlink:title="Random.h">
<polygon fill="none" stroke="black" points="425.5,-112.5 425.5,-131.5 487.5,-131.5 487.5,-112.5 425.5,-112.5"/>
<text text-anchor="middle" x="456.5" y="-119.5" font-family="Helvetica,sans-Serif" font-size="10.00">Random.h</text>
</a>
</g>
</g>
<!-- Node0&#45;&gt;Node7 -->
<g id="edge33" class="edge"><title>Node0&#45;&gt;Node7</title>
<path fill="none" stroke="midnightblue" d="M478.994,-392.325C471.897,-373.959 456.5,-329.658 456.5,-291 456.5,-291 456.5,-291 456.5,-233 456.5,-200.948 456.5,-163.643 456.5,-141.749"/>
<polygon fill="midnightblue" stroke="midnightblue" points="460,-141.558 456.5,-131.558 453,-141.558 460,-141.558"/>
</g>
<!-- Node22 -->
<g id="node23" class="node"><title>Node22</title>
<polygon fill="none" stroke="#bfbfbf" points="485,-336.5 485,-355.5 534,-355.5 534,-336.5 485,-336.5"/>
<text text-anchor="middle" x="509.5" y="-343.5" font-family="Helvetica,sans-Serif" font-size="10.00">cassert</text>
</g>
<!-- Node0&#45;&gt;Node22 -->
<g id="edge34" class="edge"><title>Node0&#45;&gt;Node22</title>
<path fill="none" stroke="midnightblue" d="M486.959,-392.083C490.654,-384.691 496.023,-373.953 500.594,-364.811"/>
<polygon fill="midnightblue" stroke="midnightblue" points="503.783,-366.261 505.124,-355.751 497.522,-363.13 503.783,-366.261"/>
</g>
<!-- Node23 -->
<g id="node24" class="node"><title>Node23</title>
<g id="a_node24"><a xlink:href="Parallel_8h.html" target="_top" xlink:title="Parallel.h">
<polygon fill="none" stroke="black" points="552,-336.5 552,-355.5 609,-355.5 609,-336.5 552,-336.5"/>
<text text-anchor="middle" x="580.5" y="-343.5" font-family="Helvetica,sans-Serif" font-size="10.00">Parallel.h</text>
</a>
</g>
</g>
<!-- Node0&#45;&gt;Node23 -->
<g id="edge35" class="edge"><title>Node0&#45;&gt;Node23</title>
<path fill="none" stroke="midnightblue" d="M498.245,-392.324C513.819,-383.743 537.877,-370.486 555.959,-360.522"/>
<polygon fill="midnightblue" stroke="midnightblue" points="557.724,-363.546 564.794,-355.655 554.346,-357.415 557.724,-363.546"/>
</g>
<!-- Node2 -->
<g id="node3" class="node"><title>Node2</title>
<g id="a_node3"><a xlink:href="MatrixMixtureProfileProcess_8h.html" target="_top" xlink:title="MatrixMixtureProfileProcess.h">
<polygon fill="none" stroke="black" points="280.5,-280.5 280.5,-299.5 428.5,-299.5 428.5,-280.5 280.5,-280.5"/>
<text text-anchor="middle" x="354.5" y="-287.5" font-family="Helvetica,sans-Serif" font-size="10.00">MatrixMixtureProfileProcess.h</text>
</a>
</g>
</g>
<!-- Node1&#45;&gt;Node2 -->
<g id="edge2" class="edge"><title>Node1&#45;&gt;Node2</title>
<path fill="none" stroke="midnightblue" d="M354.5,-336.083C354.5,-329.006 354.5,-318.861 354.5,-309.986"/>
<polygon fill="midnightblue" stroke="midnightblue" points="358,-309.751 354.5,-299.751 351,-309.751 358,-309.751"/>
</g>
<!-- Node21 -->
<g id="node22" class="node"><title>Node21</title>
<g id="a_node22"><a xlink:href="FiniteProfileProcess_8h.html" target="_top" xlink:title="FiniteProfileProcess.h">
<polygon fill="none" stroke="black" points="149,-280.5 149,-299.5 262,-299.5 262,-280.5 149,-280.5"/>
<text text-anchor="middle" x="205.5" y="-287.5" font-family="Helvetica,sans-Serif" font-size="10.00">FiniteProfileProcess.h</text>
</a>
</g>
</g>
<!-- Node1&#45;&gt;Node21 -->
<g id="edge30" class="edge"><title>Node1&#45;&gt;Node21</title>
<path fill="none" stroke="midnightblue" d="M330.891,-336.444C306.042,-327.438 266.726,-313.189 238.746,-303.049"/>
<polygon fill="midnightblue" stroke="midnightblue" points="239.593,-299.633 228.999,-299.516 237.208,-306.214 239.593,-299.633"/>
</g>
<!-- Node3 -->
<g id="node4" class="node"><title>Node3</title>
<g id="a_node4"><a xlink:href="MatrixProfileProcess_8h.html" target="_top" xlink:title="MatrixProfileProcess.h">
<polygon fill="none" stroke="black" points="312.5,-224.5 312.5,-243.5 428.5,-243.5 428.5,-224.5 312.5,-224.5"/>
<text text-anchor="middle" x="370.5" y="-231.5" font-family="Helvetica,sans-Serif" font-size="10.00">MatrixProfileProcess.h</text>
</a>
</g>
</g>
<!-- Node2&#45;&gt;Node3 -->
<g id="edge3" class="edge"><title>Node2&#45;&gt;Node3</title>
<path fill="none" stroke="midnightblue" d="M357.142,-280.083C359.286,-272.849 362.379,-262.409 365.049,-253.397"/>
<polygon fill="midnightblue" stroke="midnightblue" points="368.422,-254.333 367.907,-243.751 361.71,-252.345 368.422,-254.333"/>
</g>
<!-- Node20 -->
<g id="node21" class="node"><title>Node20</title>
<g id="a_node21"><a xlink:href="MixtureProfileProcess_8h.html" target="_top" xlink:title="MixtureProfileProcess.h">
<polygon fill="none" stroke="black" points="173,-224.5 173,-243.5 294,-243.5 294,-224.5 173,-224.5"/>
<text text-anchor="middle" x="233.5" y="-231.5" font-family="Helvetica,sans-Serif" font-size="10.00">MixtureProfileProcess.h</text>
</a>
</g>
</g>
<!-- Node2&#45;&gt;Node20 -->
<g id="edge27" class="edge"><title>Node2&#45;&gt;Node20</title>
<path fill="none" stroke="midnightblue" d="M335.327,-280.444C315.591,-271.636 284.615,-257.812 262.007,-247.722"/>
<polygon fill="midnightblue" stroke="midnightblue" points="263.141,-244.396 252.583,-243.516 260.289,-250.788 263.141,-244.396"/>
</g>
<!-- Node4 -->
<g id="node5" class="node"><title>Node4</title>
<g id="a_node5"><a xlink:href="SubMatrix_8h.html" target="_top" xlink:title="SubMatrix.h">
<polygon fill="none" stroke="black" points="353,-168.5 353,-187.5 422,-187.5 422,-168.5 353,-168.5"/>
<text text-anchor="middle" x="387.5" y="-175.5" font-family="Helvetica,sans-Serif" font-size="10.00">SubMatrix.h</text>
</a>
</g>
</g>
<!-- Node3&#45;&gt;Node4 -->
<g id="edge4" class="edge"><title>Node3&#45;&gt;Node4</title>
<path fill="none" stroke="midnightblue" d="M373.307,-224.083C375.585,-216.849 378.871,-206.409 381.708,-197.397"/>
<polygon fill="midnightblue" stroke="midnightblue" points="385.081,-198.341 384.745,-187.751 378.404,-196.239 385.081,-198.341"/>
</g>
<!-- Node12 -->
<g id="node13" class="node"><title>Node12</title>
<g id="a_node13"><a xlink:href="ProfileProcess_8h.html" target="_top" xlink:title="ProfileProcess.h">
<polygon fill="none" stroke="black" points="189,-168.5 189,-187.5 278,-187.5 278,-168.5 189,-168.5"/>
<text text-anchor="middle" x="233.5" y="-175.5" font-family="Helvetica,sans-Serif" font-size="10.00">ProfileProcess.h</text>
</a>
</g>
</g>
<!-- Node3&#45;&gt;Node12 -->
<g id="edge14" class="edge"><title>Node3&#45;&gt;Node12</title>
<path fill="none" stroke="midnightblue" d="M348.792,-224.444C326.145,-215.517 290.428,-201.439 264.748,-191.317"/>
<polygon fill="midnightblue" stroke="midnightblue" points="265.693,-187.927 255.106,-187.516 263.126,-194.44 265.693,-187.927"/>
</g>
<!-- Node5 -->
<g id="node6" class="node"><title>Node5</title>
<polygon fill="none" stroke="#bfbfbf" points="262.5,-0.5 262.5,-19.5 316.5,-19.5 316.5,-0.5 262.5,-0.5"/>
<text text-anchor="middle" x="289.5" y="-7.5" font-family="Helvetica,sans-Serif" font-size="10.00">iostream</text>
</g>
<!-- Node4&#45;&gt;Node5 -->
<g id="edge5" class="edge"><title>Node4&#45;&gt;Node5</title>
<path fill="none" stroke="midnightblue" d="M387.834,-168.492C388.239,-147.412 386.679,-91.8786 361.5,-56 351.636,-41.9452 335.842,-31.364 321.556,-24.0051"/>
<polygon fill="midnightblue" stroke="midnightblue" points="322.993,-20.8121 312.464,-19.6305 319.958,-27.12 322.993,-20.8121"/>
</g>
<!-- Node6 -->
<g id="node7" class="node"><title>Node6</title>
<polygon fill="none" stroke="#bfbfbf" points="308.5,-56.5 308.5,-75.5 352.5,-75.5 352.5,-56.5 308.5,-56.5"/>
<text text-anchor="middle" x="330.5" y="-63.5" font-family="Helvetica,sans-Serif" font-size="10.00">cmath</text>
</g>
<!-- Node4&#45;&gt;Node6 -->
<g id="edge6" class="edge"><title>Node4&#45;&gt;Node6</title>
<path fill="none" stroke="midnightblue" d="M383.027,-168.368C373.704,-150.376 352.031,-108.55 339.634,-84.6267"/>
<polygon fill="midnightblue" stroke="midnightblue" points="342.66,-82.8599 334.952,-75.5914 336.445,-86.0805 342.66,-82.8599"/>
</g>
<!-- Node4&#45;&gt;Node7 -->
<g id="edge7" class="edge"><title>Node4&#45;&gt;Node7</title>
<path fill="none" stroke="midnightblue" d="M398.586,-168.324C408.986,-160.185 424.761,-147.839 437.222,-138.087"/>
<polygon fill="midnightblue" stroke="midnightblue" points="439.494,-140.753 445.212,-131.834 435.18,-135.241 439.494,-140.753"/>
</g>
<!-- Node7&#45;&gt;Node5 -->
<g id="edge10" class="edge"><title>Node7&#45;&gt;Node5</title>
<path fill="none" stroke="midnightblue" d="M455.676,-112.09C453.915,-98.1653 448.529,-71.2644 432.5,-56 403.798,-28.6666 358.641,-17.9286 326.763,-13.7144"/>
<polygon fill="midnightblue" stroke="midnightblue" points="326.842,-10.2 316.504,-12.5207 326.032,-17.1531 326.842,-10.2"/>
</g>
<!-- Node7&#45;&gt;Node6 -->
<g id="edge8" class="edge"><title>Node7&#45;&gt;Node6</title>
<path fill="none" stroke="midnightblue" d="M436.535,-112.444C415.891,-103.596 383.437,-89.6875 359.868,-79.5865"/>
<polygon fill="midnightblue" stroke="midnightblue" points="360.942,-76.2387 350.372,-75.5164 358.184,-82.6727 360.942,-76.2387"/>
</g>
<!-- Node8 -->
<g id="node9" class="node"><title>Node8</title>
<polygon fill="none" stroke="#bfbfbf" points="140,-0.5 140,-19.5 185,-19.5 185,-0.5 140,-0.5"/>
<text text-anchor="middle" x="162.5" y="-7.5" font-family="Helvetica,sans-Serif" font-size="10.00">cstdlib</text>
</g>
<!-- Node7&#45;&gt;Node8 -->
<g id="edge9" class="edge"><title>Node7&#45;&gt;Node8</title>
<path fill="none" stroke="midnightblue" d="M446.737,-112.368C430.328,-98.3332 395.655,-70.6654 361.5,-56 294.211,-27.1076 269.577,-37.6805 194.988,-20.1792"/>
<polygon fill="midnightblue" stroke="midnightblue" points="195.681,-16.7456 185.136,-17.7742 194.021,-23.5459 195.681,-16.7456"/>
</g>
<!-- Node9 -->
<g id="node10" class="node"><title>Node9</title>
<polygon fill="none" stroke="#bfbfbf" points="484.5,-56.5 484.5,-75.5 536.5,-75.5 536.5,-56.5 484.5,-56.5"/>
<text text-anchor="middle" x="510.5" y="-63.5" font-family="Helvetica,sans-Serif" font-size="10.00">sstream</text>
</g>
<!-- Node7&#45;&gt;Node9 -->
<g id="edge11" class="edge"><title>Node7&#45;&gt;Node9</title>
<path fill="none" stroke="midnightblue" d="M465.417,-112.083C473.28,-104.22 484.931,-92.5688 494.419,-83.0813"/>
<polygon fill="midnightblue" stroke="midnightblue" points="497.153,-85.2971 501.749,-75.7511 492.203,-80.3473 497.153,-85.2971"/>
</g>
<!-- Node10 -->
<g id="node11" class="node"><title>Node10</title>
<polygon fill="none" stroke="#bfbfbf" points="554.5,-56.5 554.5,-75.5 604.5,-75.5 604.5,-56.5 554.5,-56.5"/>
<text text-anchor="middle" x="579.5" y="-63.5" font-family="Helvetica,sans-Serif" font-size="10.00">iomanip</text>
</g>
<!-- Node7&#45;&gt;Node10 -->
<g id="edge12" class="edge"><title>Node7&#45;&gt;Node10</title>
<path fill="none" stroke="midnightblue" d="M475.99,-112.444C496.142,-103.596 527.823,-89.6875 550.831,-79.5865"/>
<polygon fill="midnightblue" stroke="midnightblue" points="552.352,-82.7411 560.101,-75.5164 549.538,-76.3316 552.352,-82.7411"/>
</g>
<!-- Node11 -->
<g id="node12" class="node"><title>Node11</title>
<polygon fill="none" stroke="#bfbfbf" points="622.5,-56.5 622.5,-75.5 672.5,-75.5 672.5,-56.5 622.5,-56.5"/>
<text text-anchor="middle" x="647.5" y="-63.5" font-family="Helvetica,sans-Serif" font-size="10.00">fstream</text>
</g>
<!-- Node7&#45;&gt;Node11 -->
<g id="edge13" class="edge"><title>Node7&#45;&gt;Node11</title>
<path fill="none" stroke="midnightblue" d="M486.765,-112.444C520.847,-102.808 576.165,-87.168 612.191,-76.9826"/>
<polygon fill="midnightblue" stroke="midnightblue" points="613.586,-80.2255 622.257,-74.1368 611.682,-73.4895 613.586,-80.2255"/>
</g>
<!-- Node12&#45;&gt;Node5 -->
<g id="edge25" class="edge"><title>Node12&#45;&gt;Node5</title>
<path fill="none" stroke="midnightblue" d="M239.717,-168.455C245.819,-159.699 254.987,-145.495 260.5,-132 274.675,-97.3003 282.958,-54.0496 286.823,-29.7817"/>
<polygon fill="midnightblue" stroke="midnightblue" points="290.3,-30.2002 288.333,-19.7895 283.378,-29.1542 290.3,-30.2002"/>
</g>
<!-- Node13 -->
<g id="node14" class="node"><title>Node13</title>
<g id="a_node14"><a xlink:href="Chrono_8h.html" target="_top" xlink:title="Chrono.h">
<polygon fill="none" stroke="black" points="62.5,-56.5 62.5,-75.5 118.5,-75.5 118.5,-56.5 62.5,-56.5"/>
<text text-anchor="middle" x="90.5" y="-63.5" font-family="Helvetica,sans-Serif" font-size="10.00">Chrono.h</text>
</a>
</g>
</g>
<!-- Node12&#45;&gt;Node13 -->
<g id="edge15" class="edge"><title>Node12&#45;&gt;Node13</title>
<path fill="none" stroke="midnightblue" d="M188.755,-169.816C163.684,-163.663 133.527,-152.405 113.5,-132 101.326,-119.597 95.5629,-100.355 92.8546,-86.0213"/>
<polygon fill="midnightblue" stroke="midnightblue" points="96.2615,-85.1496 91.2734,-75.8024 89.3438,-86.2201 96.2615,-85.1496"/>
</g>
<!-- Node16 -->
<g id="node17" class="node"><title>Node16</title>
<g id="a_node17"><a xlink:href="StateSpace_8h.html" target="_top" xlink:title="StateSpace.h">
<polygon fill="none" stroke="black" points="122.5,-112.5 122.5,-131.5 198.5,-131.5 198.5,-112.5 122.5,-112.5"/>
<text text-anchor="middle" x="160.5" y="-119.5" font-family="Helvetica,sans-Serif" font-size="10.00">StateSpace.h</text>
</a>
</g>
</g>
<!-- Node12&#45;&gt;Node16 -->
<g id="edge20" class="edge"><title>Node12&#45;&gt;Node16</title>
<path fill="none" stroke="midnightblue" d="M221.771,-168.324C210.663,-160.107 193.758,-147.602 180.517,-137.807"/>
<polygon fill="midnightblue" stroke="midnightblue" points="182.563,-134.967 172.442,-131.834 178.4,-140.595 182.563,-134.967"/>
</g>
<!-- Node19 -->
<g id="node20" class="node"><title>Node19</title>
<polygon fill="none" stroke="#bfbfbf" points="217,-112.5 217,-131.5 252,-131.5 252,-112.5 217,-112.5"/>
<text text-anchor="middle" x="234.5" y="-119.5" font-family="Helvetica,sans-Serif" font-size="10.00">map</text>
</g>
<!-- Node12&#45;&gt;Node19 -->
<g id="edge26" class="edge"><title>Node12&#45;&gt;Node19</title>
<path fill="none" stroke="midnightblue" d="M233.665,-168.083C233.796,-161.006 233.984,-150.861 234.148,-141.986"/>
<polygon fill="midnightblue" stroke="midnightblue" points="237.652,-141.814 234.338,-131.751 230.653,-141.685 237.652,-141.814"/>
</g>
<!-- Node13&#45;&gt;Node5 -->
<g id="edge18" class="edge"><title>Node13&#45;&gt;Node5</title>
<path fill="none" stroke="midnightblue" d="M118.59,-57.3776C153.602,-47.8768 213.547,-31.6103 252.334,-21.0853"/>
<polygon fill="midnightblue" stroke="midnightblue" points="253.458,-24.407 262.192,-18.4102 251.624,-17.6513 253.458,-24.407"/>
</g>
<!-- Node13&#45;&gt;Node8 -->
<g id="edge19" class="edge"><title>Node13&#45;&gt;Node8</title>
<path fill="none" stroke="midnightblue" d="M102.068,-56.324C112.92,-48.1849 129.381,-35.8395 142.383,-26.0874"/>
<polygon fill="midnightblue" stroke="midnightblue" points="144.821,-28.6339 150.721,-19.8339 140.621,-23.0339 144.821,-28.6339"/>
</g>
<!-- Node14 -->
<g id="node15" class="node"><title>Node14</title>
<polygon fill="none" stroke="#bfbfbf" points="0,-0.5 0,-19.5 41,-19.5 41,-0.5 0,-0.5"/>
<text text-anchor="middle" x="20.5" y="-7.5" font-family="Helvetica,sans-Serif" font-size="10.00">ctime</text>
</g>
<!-- Node13&#45;&gt;Node14 -->
<g id="edge16" class="edge"><title>Node13&#45;&gt;Node14</title>
<path fill="none" stroke="midnightblue" d="M79.2533,-56.324C68.7026,-48.1849 52.6993,-35.8395 40.0578,-26.0874"/>
<polygon fill="midnightblue" stroke="midnightblue" points="42.007,-23.1707 31.9513,-19.8339 37.7314,-28.7132 42.007,-23.1707"/>
</g>
<!-- Node15 -->
<g id="node16" class="node"><title>Node15</title>
<polygon fill="none" stroke="#bfbfbf" points="59.5,-0.5 59.5,-19.5 121.5,-19.5 121.5,-0.5 59.5,-0.5"/>
<text text-anchor="middle" x="90.5" y="-7.5" font-family="Helvetica,sans-Serif" font-size="10.00">sys/time.h</text>
</g>
<!-- Node13&#45;&gt;Node15 -->
<g id="edge17" class="edge"><title>Node13&#45;&gt;Node15</title>
<path fill="none" stroke="midnightblue" d="M90.5,-56.083C90.5,-49.0059 90.5,-38.8611 90.5,-29.9865"/>
<polygon fill="midnightblue" stroke="midnightblue" points="94.0001,-29.751 90.5,-19.7511 87.0001,-29.7511 94.0001,-29.751"/>
</g>
<!-- Node17 -->
<g id="node18" class="node"><title>Node17</title>
<g id="a_node18"><a xlink:href="BiologicalSequences_8h.html" target="_top" xlink:title="BiologicalSequences.h">
<polygon fill="none" stroke="black" points="136.5,-56.5 136.5,-75.5 252.5,-75.5 252.5,-56.5 136.5,-56.5"/>
<text text-anchor="middle" x="194.5" y="-63.5" font-family="Helvetica,sans-Serif" font-size="10.00">BiologicalSequences.h</text>
</a>
</g>
</g>
<!-- Node16&#45;&gt;Node17 -->
<g id="edge21" class="edge"><title>Node16&#45;&gt;Node17</title>
<path fill="none" stroke="midnightblue" d="M166.114,-112.083C170.867,-104.534 177.818,-93.4948 183.652,-84.2298"/>
<polygon fill="midnightblue" stroke="midnightblue" points="186.624,-86.0783 188.99,-75.7511 180.7,-82.3486 186.624,-86.0783"/>
</g>
<!-- Node17&#45;&gt;Node5 -->
<g id="edge23" class="edge"><title>Node17&#45;&gt;Node5</title>
<path fill="none" stroke="midnightblue" d="M209.763,-56.324C224.721,-47.8215 247.755,-34.7288 265.227,-24.7975"/>
<polygon fill="midnightblue" stroke="midnightblue" points="267.31,-27.639 274.274,-19.6545 263.851,-21.5534 267.31,-27.639"/>
</g>
<!-- Node17&#45;&gt;Node8 -->
<g id="edge22" class="edge"><title>Node17&#45;&gt;Node8</title>
<path fill="none" stroke="midnightblue" d="M189.216,-56.083C184.789,-48.6127 178.337,-37.7244 172.882,-28.5199"/>
<polygon fill="midnightblue" stroke="midnightblue" points="175.795,-26.5697 167.686,-19.7511 169.773,-30.1383 175.795,-26.5697"/>
</g>
<!-- Node18 -->
<g id="node19" class="node"><title>Node18</title>
<polygon fill="none" stroke="#bfbfbf" points="203,-0.5 203,-19.5 244,-19.5 244,-0.5 203,-0.5"/>
<text text-anchor="middle" x="223.5" y="-7.5" font-family="Helvetica,sans-Serif" font-size="10.00">string</text>
</g>
<!-- Node17&#45;&gt;Node18 -->
<g id="edge24" class="edge"><title>Node17&#45;&gt;Node18</title>
<path fill="none" stroke="midnightblue" d="M199.289,-56.083C203.258,-48.6913 209.025,-37.9533 213.935,-28.8111"/>
<polygon fill="midnightblue" stroke="midnightblue" points="217.153,-30.217 218.8,-19.7511 210.986,-26.9051 217.153,-30.217"/>
</g>
<!-- Node20&#45;&gt;Node6 -->
<g id="edge28" class="edge"><title>Node20&#45;&gt;Node6</title>
<path fill="none" stroke="midnightblue" d="M247.447,-224.211C259.302,-216.102 276.022,-203.061 286.5,-188 308.971,-155.698 321.344,-110.604 326.881,-85.5859"/>
<polygon fill="midnightblue" stroke="midnightblue" points="330.343,-86.1252 328.955,-75.6217 323.49,-84.6983 330.343,-86.1252"/>
</g>
<!-- Node20&#45;&gt;Node12 -->
<g id="edge29" class="edge"><title>Node20&#45;&gt;Node12</title>
<path fill="none" stroke="midnightblue" d="M233.5,-224.083C233.5,-217.006 233.5,-206.861 233.5,-197.986"/>
<polygon fill="midnightblue" stroke="midnightblue" points="237,-197.751 233.5,-187.751 230,-197.751 237,-197.751"/>
</g>
<!-- Node21&#45;&gt;Node6 -->
<g id="edge31" class="edge"><title>Node21&#45;&gt;Node6</title>
<path fill="none" stroke="midnightblue" d="M194.174,-280.158C160.661,-252.959 67.1536,-168.943 113.5,-112 125.132,-97.7081 240.879,-79.6059 298.399,-71.3999"/>
<polygon fill="midnightblue" stroke="midnightblue" points="299.01,-74.8484 308.423,-69.986 298.032,-67.917 299.01,-74.8484"/>
</g>
<!-- Node21&#45;&gt;Node20 -->
<g id="edge32" class="edge"><title>Node21&#45;&gt;Node20</title>
<path fill="none" stroke="midnightblue" d="M210.124,-280.083C213.956,-272.691 219.524,-261.953 224.265,-252.811"/>
<polygon fill="midnightblue" stroke="midnightblue" points="227.466,-254.24 228.962,-243.751 221.252,-251.018 227.466,-254.24"/>
</g>
<!-- Node24 -->
<g id="node25" class="node"><title>Node24</title>
<polygon fill="none" stroke="#bfbfbf" points="560,-280.5 560,-299.5 601,-299.5 601,-280.5 560,-280.5"/>
<text text-anchor="middle" x="580.5" y="-287.5" font-family="Helvetica,sans-Serif" font-size="10.00">mpi.h</text>
</g>
<!-- Node23&#45;&gt;Node24 -->
<g id="edge36" class="edge"><title>Node23&#45;&gt;Node24</title>
<path fill="none" stroke="midnightblue" d="M580.5,-336.083C580.5,-329.006 580.5,-318.861 580.5,-309.986"/>
<polygon fill="midnightblue" stroke="midnightblue" points="584,-309.751 580.5,-299.751 577,-309.751 584,-309.751"/>
</g>
</g>
</svg>
