<?xml version="1.0" encoding="UTF-8" standalone="no"?>
<!DOCTYPE svg PUBLIC "-//W3C//DTD SVG 1.1//EN"
 "http://www.w3.org/Graphics/SVG/1.1/DTD/svg11.dtd">
<!-- Generated by graphviz version 2.40.1 (20161225.0304)
 -->
<!-- Title: MatrixProfileProcess.h Pages: 1 -->
<svg width="1644pt" height="475pt"
 viewBox="0.00 0.00 1643.50 475.00" xmlns="http://www.w3.org/2000/svg" xmlns:xlink="http://www.w3.org/1999/xlink">
<g id="graph0" class="graph" transform="scale(1 1) rotate(0) translate(4 471)">
<title>MatrixProfileProcess.h</title>
<!-- Node17 -->
<g id="node1" class="node">
<title>Node17</title>
<polygon fill="#bfbfbf" stroke="#000000" points="1046.5,-447.5 1046.5,-466.5 1162.5,-466.5 1162.5,-447.5 1046.5,-447.5"/>
<text text-anchor="middle" x="1104.5" y="-454.5" font-family="Helvetica,sans-Serif" font-size="10.00" fill="#000000">MatrixProfileProcess.h</text>
</g>
<!-- Node18 -->
<g id="node2" class="node">
<title>Node18</title>
<g id="a_node2"><a xlink:href="GTRProfileProcess_8h.html" target="_top" xlink:title="GTRProfileProcess.h">
<polygon fill="none" stroke="#000000" points="392.5,-386 392.5,-405 502.5,-405 502.5,-386 392.5,-386"/>
<text text-anchor="middle" x="447.5" y="-393" font-family="Helvetica,sans-Serif" font-size="10.00" fill="#000000">GTRProfileProcess.h</text>
</a>
</g>
</g>
<!-- Node17&#45;&gt;Node18 -->
<g id="edge1" class="edge">
<title>Node17&#45;&gt;Node18</title>
<path fill="none" stroke="#191970" d="M1036.2143,-450.608C905.61,-438.3824 622.7702,-411.9066 502.9404,-400.6896"/>
<polygon fill="#191970" stroke="#191970" points="1036.2011,-454.1219 1046.4838,-451.5693 1036.8536,-447.1524 1036.2011,-454.1219"/>
</g>
<!-- Node41 -->
<g id="node25" class="node">
<title>Node41</title>
<g id="a_node25"><a xlink:href="MatrixMixtureProfileProcess_8h.html" target="_top" xlink:title="MatrixMixtureProfileProcess.h">
<polygon fill="none" stroke="#000000" points="703.5,-386 703.5,-405 851.5,-405 851.5,-386 703.5,-386"/>
<text text-anchor="middle" x="777.5" y="-393" font-family="Helvetica,sans-Serif" font-size="10.00" fill="#000000">MatrixMixtureProfileProcess.h</text>
</a>
</g>
</g>
<!-- Node17&#45;&gt;Node41 -->
<g id="edge28" class="edge">
<title>Node17&#45;&gt;Node41</title>
<path fill="none" stroke="#191970" d="M1043.7114,-445.5673C981.59,-433.8839 886.2223,-415.9478 828.0849,-405.0137"/>
<polygon fill="#191970" stroke="#191970" points="1043.2904,-449.0494 1053.765,-447.4581 1044.5843,-442.17 1043.2904,-449.0494"/>
</g>
<!-- Node47 -->
<g id="node31" class="node">
<title>Node47</title>
<g id="a_node31"><a xlink:href="MatrixSubstitutionProcess_8h.html" target="_top" xlink:title="MatrixSubstitutionProcess.h">
<polygon fill="none" stroke="#000000" points="1034.5,-386 1034.5,-405 1174.5,-405 1174.5,-386 1034.5,-386"/>
<text text-anchor="middle" x="1104.5" y="-393" font-family="Helvetica,sans-Serif" font-size="10.00" fill="#000000">MatrixSubstitutionProcess.h</text>
</a>
</g>
</g>
<!-- Node17&#45;&gt;Node47 -->
<g id="edge36" class="edge">
<title>Node17&#45;&gt;Node47</title>
<path fill="none" stroke="#191970" d="M1104.5,-437.2462C1104.5,-426.5519 1104.5,-413.814 1104.5,-405.2449"/>
<polygon fill="#191970" stroke="#191970" points="1101.0001,-437.3906 1104.5,-447.3906 1108.0001,-437.3907 1101.0001,-437.3906"/>
</g>
<!-- Node52 -->
<g id="node36" class="node">
<title>Node52</title>
<g id="a_node36"><a xlink:href="GeneralPathSuffStatMatrixProfileProcess_8h.html" target="_top" xlink:title="GeneralPathSuffStatMatrix\lProfileProcess.h">
<polygon fill="none" stroke="#000000" points="1261.5,-380.5 1261.5,-410.5 1395.5,-410.5 1395.5,-380.5 1261.5,-380.5"/>
<text text-anchor="start" x="1269.5" y="-398.5" font-family="Helvetica,sans-Serif" font-size="10.00" fill="#000000">GeneralPathSuffStatMatrix</text>
<text text-anchor="middle" x="1328.5" y="-387.5" font-family="Helvetica,sans-Serif" font-size="10.00" fill="#000000">ProfileProcess.h</text>
</a>
</g>
</g>
<!-- Node17&#45;&gt;Node52 -->
<g id="edge44" class="edge">
<title>Node17&#45;&gt;Node52</title>
<path fill="none" stroke="#191970" d="M1149.1949,-444.7289C1185.0194,-434.8931 1235.4473,-421.048 1273.7034,-410.5446"/>
<polygon fill="#191970" stroke="#191970" points="1148.2165,-441.3679 1139.5,-447.3906 1150.0698,-448.1181 1148.2165,-441.3679"/>
</g>
<!-- Node53 -->
<g id="node37" class="node">
<title>Node53</title>
<g id="a_node37"><a xlink:href="MatrixProfileProcess_8cpp.html" target="_top" xlink:title="MatrixProfileProcess.cpp">
<polygon fill="none" stroke="#000000" points="1413.5,-386 1413.5,-405 1539.5,-405 1539.5,-386 1413.5,-386"/>
<text text-anchor="middle" x="1476.5" y="-393" font-family="Helvetica,sans-Serif" font-size="10.00" fill="#000000">MatrixProfileProcess.cpp</text>
</a>
</g>
</g>
<!-- Node17&#45;&gt;Node53 -->
<g id="edge47" class="edge">
<title>Node17&#45;&gt;Node53</title>
<path fill="none" stroke="#191970" d="M1173.0061,-447.6868C1233.9395,-439.1198 1325.3861,-425.5676 1404.5,-411 1414.1827,-409.2171 1424.5545,-407.1044 1434.3248,-405.0217"/>
<polygon fill="#191970" stroke="#191970" points="1172.1639,-444.2705 1162.7455,-449.1228 1173.1341,-451.2029 1172.1639,-444.2705"/>
</g>
<!-- Node19 -->
<g id="node3" class="node">
<title>Node19</title>
<g id="a_node3"><a xlink:href="GTRMixtureProfileProcess_8h.html" target="_top" xlink:title="GTRMixtureProfileProcess.h">
<polygon fill="none" stroke="#000000" points="376.5,-319 376.5,-338 518.5,-338 518.5,-319 376.5,-319"/>
<text text-anchor="middle" x="447.5" y="-326" font-family="Helvetica,sans-Serif" font-size="10.00" fill="#000000">GTRMixtureProfileProcess.h</text>
</a>
</g>
</g>
<!-- Node18&#45;&gt;Node19 -->
<g id="edge2" class="edge">
<title>Node18&#45;&gt;Node19</title>
<path fill="none" stroke="#191970" d="M447.5,-375.6079C447.5,-363.214 447.5,-347.8263 447.5,-338.0817"/>
<polygon fill="#191970" stroke="#191970" points="444.0001,-375.9005 447.5,-385.9005 451.0001,-375.9006 444.0001,-375.9005"/>
</g>
<!-- Node29 -->
<g id="node13" class="node">
<title>Node29</title>
<g id="a_node13"><a xlink:href="ExpoConjugateGTRProfileProcess_8h.html" target="_top" xlink:title="ExpoConjugateGTRProfileProcess.h">
<polygon fill="none" stroke="#000000" points="182.5,-319 182.5,-338 358.5,-338 358.5,-319 182.5,-319"/>
<text text-anchor="middle" x="270.5" y="-326" font-family="Helvetica,sans-Serif" font-size="10.00" fill="#000000">ExpoConjugateGTRProfileProcess.h</text>
</a>
</g>
</g>
<!-- Node18&#45;&gt;Node29 -->
<g id="edge12" class="edge">
<title>Node18&#45;&gt;Node29</title>
<path fill="none" stroke="#191970" d="M412.4927,-382.2487C378.0862,-369.2247 326.4158,-349.6659 295.8127,-338.0817"/>
<polygon fill="#191970" stroke="#191970" points="411.5487,-385.6336 422.1402,-385.9005 414.0269,-379.087 411.5487,-385.6336"/>
</g>
<!-- Node35 -->
<g id="node19" class="node">
<title>Node35</title>
<g id="a_node19"><a xlink:href="GTRSubstitutionProcess_8h.html" target="_top" xlink:title="GTRSubstitutionProcess.h">
<polygon fill="none" stroke="#000000" points="874.5,-319 874.5,-338 1008.5,-338 1008.5,-319 874.5,-319"/>
<text text-anchor="middle" x="941.5" y="-326" font-family="Helvetica,sans-Serif" font-size="10.00" fill="#000000">GTRSubstitutionProcess.h</text>
</a>
</g>
</g>
<!-- Node18&#45;&gt;Node35 -->
<g id="edge20" class="edge">
<title>Node18&#45;&gt;Node35</title>
<path fill="none" stroke="#191970" d="M512.7839,-389.0626C595.2312,-380.5644 741.3285,-364.2794 865.5,-344 875.9991,-342.2853 887.2558,-340.1528 897.8026,-338.0237"/>
<polygon fill="#191970" stroke="#191970" points="512.3971,-385.5838 502.806,-390.085 513.1107,-392.5474 512.3971,-385.5838"/>
</g>
<!-- Node40 -->
<g id="node24" class="node">
<title>Node40</title>
<g id="a_node24"><a xlink:href="GTRProfileProcess_8cpp.html" target="_top" xlink:title="GTRProfileProcess.cpp">
<polygon fill="none" stroke="#000000" points="44.5,-319 44.5,-338 164.5,-338 164.5,-319 44.5,-319"/>
<text text-anchor="middle" x="104.5" y="-326" font-family="Helvetica,sans-Serif" font-size="10.00" fill="#000000">GTRProfileProcess.cpp</text>
</a>
</g>
</g>
<!-- Node18&#45;&gt;Node40 -->
<g id="edge27" class="edge">
<title>Node18&#45;&gt;Node40</title>
<path fill="none" stroke="#191970" d="M383.7789,-384.1787C328.1667,-374.1418 245.3498,-358.8176 173.5,-344 164.6018,-342.1649 155.0824,-340.0956 146.0445,-338.0808"/>
<polygon fill="#191970" stroke="#191970" points="383.3756,-387.6623 393.8376,-385.99 384.6162,-380.7731 383.3756,-387.6623"/>
</g>
<!-- Node20 -->
<g id="node4" class="node">
<title>Node20</title>
<g id="a_node4"><a xlink:href="ExpoConjugateGTRMixtureProfileProcess_8h.html" target="_top" xlink:title="ExpoConjugateGTRMixtureProfile\lProcess.h">
<polygon fill="none" stroke="#000000" points="205.5,-246.5 205.5,-276.5 369.5,-276.5 369.5,-246.5 205.5,-246.5"/>
<text text-anchor="start" x="213.5" y="-264.5" font-family="Helvetica,sans-Serif" font-size="10.00" fill="#000000">ExpoConjugateGTRMixtureProfile</text>
<text text-anchor="middle" x="287.5" y="-253.5" font-family="Helvetica,sans-Serif" font-size="10.00" fill="#000000">Process.h</text>
</a>
</g>
</g>
<!-- Node19&#45;&gt;Node20 -->
<g id="edge3" class="edge">
<title>Node19&#45;&gt;Node20</title>
<path fill="none" stroke="#191970" d="M415.3165,-315.0231C388.7074,-303.8806 350.9498,-288.0696 323.3729,-276.5218"/>
<polygon fill="#191970" stroke="#191970" points="414.0001,-318.2663 424.5759,-318.9005 416.7039,-311.8096 414.0001,-318.2663"/>
</g>
<!-- Node28 -->
<g id="node12" class="node">
<title>Node28</title>
<g id="a_node12"><a xlink:href="GTRMixtureProfileProcess_8cpp.html" target="_top" xlink:title="GTRMixtureProfileProcess.cpp">
<polygon fill="none" stroke="#000000" points="387.5,-252 387.5,-271 539.5,-271 539.5,-252 387.5,-252"/>
<text text-anchor="middle" x="463.5" y="-259" font-family="Helvetica,sans-Serif" font-size="10.00" fill="#000000">GTRMixtureProfileProcess.cpp</text>
</a>
</g>
</g>
<!-- Node19&#45;&gt;Node28 -->
<g id="edge11" class="edge">
<title>Node19&#45;&gt;Node28</title>
<path fill="none" stroke="#191970" d="M452.16,-308.9863C455.135,-296.5286 458.861,-280.9258 461.2118,-271.0817"/>
<polygon fill="#191970" stroke="#191970" points="448.711,-308.361 449.7924,-318.9005 455.5195,-309.987 448.711,-308.361"/>
</g>
<!-- Node21 -->
<g id="node5" class="node">
<title>Node21</title>
<g id="a_node5"><a xlink:href="ExpoConjugateGTRMixtureProfileProcess_8cpp.html" target="_top" xlink:title="ExpoConjugateGTRMixtureProfile\lProcess.cpp">
<polygon fill="none" stroke="#000000" points="205.5,-179.5 205.5,-209.5 369.5,-209.5 369.5,-179.5 205.5,-179.5"/>
<text text-anchor="start" x="213.5" y="-197.5" font-family="Helvetica,sans-Serif" font-size="10.00" fill="#000000">ExpoConjugateGTRMixtureProfile</text>
<text text-anchor="middle" x="287.5" y="-186.5" font-family="Helvetica,sans-Serif" font-size="10.00" fill="#000000">Process.cpp</text>
</a>
</g>
</g>
<!-- Node20&#45;&gt;Node21 -->
<g id="edge4" class="edge">
<title>Node20&#45;&gt;Node21</title>
<path fill="none" stroke="#191970" d="M287.5,-236.0249C287.5,-227.128 287.5,-217.4287 287.5,-209.6432"/>
<polygon fill="#191970" stroke="#191970" points="284.0001,-236.2966 287.5,-246.2967 291.0001,-236.2967 284.0001,-236.2966"/>
</g>
<!-- Node22 -->
<g id="node6" class="node">
<title>Node22</title>
<g id="a_node6"><a xlink:href="ExpoConjugateGTRSBDPProfileProcess_8h.html" target="_top" xlink:title="ExpoConjugateGTRSBDPProfile\lProcess.h">
<polygon fill="none" stroke="#000000" points="464.5,-179.5 464.5,-209.5 624.5,-209.5 624.5,-179.5 464.5,-179.5"/>
<text text-anchor="start" x="472.5" y="-197.5" font-family="Helvetica,sans-Serif" font-size="10.00" fill="#000000">ExpoConjugateGTRSBDPProfile</text>
<text text-anchor="middle" x="544.5" y="-186.5" font-family="Helvetica,sans-Serif" font-size="10.00" fill="#000000">Process.h</text>
</a>
</g>
</g>
<!-- Node20&#45;&gt;Node22 -->
<g id="edge5" class="edge">
<title>Node20&#45;&gt;Node22</title>
<path fill="none" stroke="#191970" d="M355.0588,-243.8874C395.949,-233.2273 447.5533,-219.774 486.5726,-209.6017"/>
<polygon fill="#191970" stroke="#191970" points="353.9694,-240.5543 345.1758,-246.4639 355.7354,-247.3279 353.9694,-240.5543"/>
</g>
<!-- Node23 -->
<g id="node7" class="node">
<title>Node23</title>
<g id="a_node7"><a xlink:href="ExpoConjugateGTRSBDPProfileProcess_8cpp.html" target="_top" xlink:title="ExpoConjugateGTRSBDPProfile\lProcess.cpp">
<polygon fill="none" stroke="#000000" points="439.5,-112.5 439.5,-142.5 599.5,-142.5 599.5,-112.5 439.5,-112.5"/>
<text text-anchor="start" x="447.5" y="-130.5" font-family="Helvetica,sans-Serif" font-size="10.00" fill="#000000">ExpoConjugateGTRSBDPProfile</text>
<text text-anchor="middle" x="519.5" y="-119.5" font-family="Helvetica,sans-Serif" font-size="10.00" fill="#000000">Process.cpp</text>
</a>
</g>
</g>
<!-- Node22&#45;&gt;Node23 -->
<g id="edge6" class="edge">
<title>Node22&#45;&gt;Node23</title>
<path fill="none" stroke="#191970" d="M535.3217,-169.9021C531.914,-160.7696 528.1513,-150.6854 525.1504,-142.6432"/>
<polygon fill="#191970" stroke="#191970" points="532.052,-171.1512 538.8271,-179.2967 538.6103,-168.704 532.052,-171.1512"/>
</g>
<!-- Node24 -->
<g id="node8" class="node">
<title>Node24</title>
<g id="a_node8"><a xlink:href="RASCATGTRSBDPGammaPhyloProcess_8h.html" target="_top" xlink:title="RASCATGTRSBDPGammaPhyloProcess.h">
<polygon fill="none" stroke="#000000" points="617.5,-118 617.5,-137 827.5,-137 827.5,-118 617.5,-118"/>
<text text-anchor="middle" x="722.5" y="-125" font-family="Helvetica,sans-Serif" font-size="10.00" fill="#000000">RASCATGTRSBDPGammaPhyloProcess.h</text>
</a>
</g>
</g>
<!-- Node22&#45;&gt;Node24 -->
<g id="edge7" class="edge">
<title>Node22&#45;&gt;Node24</title>
<path fill="none" stroke="#191970" d="M594.0797,-175.838C627.615,-163.2151 670.5083,-147.0699 697.2471,-137.0053"/>
<polygon fill="#191970" stroke="#191970" points="592.5727,-172.6654 584.4467,-179.4639 595.0386,-179.2167 592.5727,-172.6654"/>
</g>
<!-- Node25 -->
<g id="node9" class="node">
<title>Node25</title>
<g id="a_node9"><a xlink:href="Model_8h.html" target="_top" xlink:title="Model.h">
<polygon fill="none" stroke="#000000" points="620,-56.5 620,-75.5 671,-75.5 671,-56.5 620,-56.5"/>
<text text-anchor="middle" x="645.5" y="-63.5" font-family="Helvetica,sans-Serif" font-size="10.00" fill="#000000">Model.h</text>
</a>
</g>
</g>
<!-- Node24&#45;&gt;Node25 -->
<g id="edge8" class="edge">
<title>Node24&#45;&gt;Node25</title>
<path fill="none" stroke="#191970" d="M702.6542,-111.6491C688.347,-100.222 669.5076,-85.1749 657.4468,-75.5419"/>
<polygon fill="#191970" stroke="#191970" points="700.4708,-114.3846 710.4688,-117.8906 704.8394,-108.915 700.4708,-114.3846"/>
</g>
<!-- Node27 -->
<g id="node11" class="node">
<title>Node27</title>
<g id="a_node11"><a xlink:href="RASCATGTRSBDPGammaPhyloProcess_8cpp.html" target="_top" xlink:title="RASCATGTRSBDPGammaPhyloProcess.cpp">
<polygon fill="none" stroke="#000000" points="689,-56.5 689,-75.5 910,-75.5 910,-56.5 689,-56.5"/>
<text text-anchor="middle" x="799.5" y="-63.5" font-family="Helvetica,sans-Serif" font-size="10.00" fill="#000000">RASCATGTRSBDPGammaPhyloProcess.cpp</text>
</a>
</g>
</g>
<!-- Node24&#45;&gt;Node27 -->
<g id="edge10" class="edge">
<title>Node24&#45;&gt;Node27</title>
<path fill="none" stroke="#191970" d="M742.3458,-111.6491C756.653,-100.222 775.4924,-85.1749 787.5532,-75.5419"/>
<polygon fill="#191970" stroke="#191970" points="740.1606,-108.915 734.5313,-117.8906 744.5292,-114.3846 740.1606,-108.915"/>
</g>
<!-- Node26 -->
<g id="node10" class="node">
<title>Node26</title>
<g id="a_node10"><a xlink:href="PB_8cpp.html" target="_top" xlink:title="PB.cpp">
<polygon fill="none" stroke="#000000" points="621,-.5 621,-19.5 670,-19.5 670,-.5 621,-.5"/>
<text text-anchor="middle" x="645.5" y="-7.5" font-family="Helvetica,sans-Serif" font-size="10.00" fill="#000000">PB.cpp</text>
</a>
</g>
</g>
<!-- Node25&#45;&gt;Node26 -->
<g id="edge9" class="edge">
<title>Node25&#45;&gt;Node26</title>
<path fill="none" stroke="#191970" d="M645.5,-46.1575C645.5,-37.155 645.5,-26.9199 645.5,-19.6427"/>
<polygon fill="#191970" stroke="#191970" points="642.0001,-46.2455 645.5,-56.2455 649.0001,-46.2456 642.0001,-46.2455"/>
</g>
<!-- Node29&#45;&gt;Node20 -->
<g id="edge13" class="edge">
<title>Node29&#45;&gt;Node20</title>
<path fill="none" stroke="#191970" d="M275.4213,-309.1042C278.0539,-298.7287 281.2468,-286.145 283.6885,-276.5218"/>
<polygon fill="#191970" stroke="#191970" points="272.0026,-308.3469 272.9357,-318.9005 278.7876,-310.0685 272.0026,-308.3469"/>
</g>
<!-- Node30 -->
<g id="node14" class="node">
<title>Node30</title>
<g id="a_node14"><a xlink:href="ExpoConjugateGTRSubstitutionProcess_8h.html" target="_top" xlink:title="ExpoConjugateGTRSubstitution\lProcess.h">
<polygon fill="none" stroke="#000000" points="789.5,-246.5 789.5,-276.5 945.5,-276.5 945.5,-246.5 789.5,-246.5"/>
<text text-anchor="start" x="797.5" y="-264.5" font-family="Helvetica,sans-Serif" font-size="10.00" fill="#000000">ExpoConjugateGTRSubstitution</text>
<text text-anchor="middle" x="867.5" y="-253.5" font-family="Helvetica,sans-Serif" font-size="10.00" fill="#000000">Process.h</text>
</a>
</g>
</g>
<!-- Node29&#45;&gt;Node30 -->
<g id="edge14" class="edge">
<title>Node29&#45;&gt;Node30</title>
<path fill="none" stroke="#191970" d="M336.0304,-317.4206C346.5379,-315.8195 357.306,-314.2823 367.5,-313 540.6483,-291.2196 585.1708,-297.2906 758.5,-277 768.4668,-275.8332 778.9298,-274.4932 789.2665,-273.0999"/>
<polygon fill="#191970" stroke="#191970" points="335.4075,-313.9753 326.0634,-318.969 336.4822,-320.8923 335.4075,-313.9753"/>
</g>
<!-- Node34 -->
<g id="node18" class="node">
<title>Node34</title>
<g id="a_node18"><a xlink:href="ExpoConjugateGTRProfileProcess_8cpp.html" target="_top" xlink:title="ExpoConjugateGTRProfileProcess.cpp">
<polygon fill="none" stroke="#000000" points="0,-252 0,-271 187,-271 187,-252 0,-252"/>
<text text-anchor="middle" x="93.5" y="-259" font-family="Helvetica,sans-Serif" font-size="10.00" fill="#000000">ExpoConjugateGTRProfileProcess.cpp</text>
</a>
</g>
</g>
<!-- Node29&#45;&gt;Node34 -->
<g id="edge19" class="edge">
<title>Node29&#45;&gt;Node34</title>
<path fill="none" stroke="#191970" d="M235.4927,-315.2487C201.0862,-302.2247 149.4158,-282.6659 118.8127,-271.0817"/>
<polygon fill="#191970" stroke="#191970" points="234.5487,-318.6336 245.1402,-318.9005 237.0269,-312.087 234.5487,-318.6336"/>
</g>
<!-- Node31 -->
<g id="node15" class="node">
<title>Node31</title>
<g id="a_node15"><a xlink:href="ExpoConjugateGTRPhyloProcess_8h.html" target="_top" xlink:title="ExpoConjugateGTRPhyloProcess.h">
<polygon fill="none" stroke="#000000" points="826,-185 826,-204 999,-204 999,-185 826,-185"/>
<text text-anchor="middle" x="912.5" y="-192" font-family="Helvetica,sans-Serif" font-size="10.00" fill="#000000">ExpoConjugateGTRPhyloProcess.h</text>
</a>
</g>
</g>
<!-- Node30&#45;&gt;Node31 -->
<g id="edge15" class="edge">
<title>Node30&#45;&gt;Node31</title>
<path fill="none" stroke="#191970" d="M883.3892,-237.8428C891.204,-226.2073 900.1865,-212.8334 906.0825,-204.055"/>
<polygon fill="#191970" stroke="#191970" points="880.3813,-236.0438 877.7112,-246.2967 886.1923,-239.9467 880.3813,-236.0438"/>
</g>
<!-- Node33 -->
<g id="node17" class="node">
<title>Node33</title>
<g id="a_node17"><a xlink:href="ExpoConjugateGTRSubstitutionProcess_8cpp.html" target="_top" xlink:title="ExpoConjugateGTRSubstitution\lProcess.cpp">
<polygon fill="none" stroke="#000000" points="651.5,-179.5 651.5,-209.5 807.5,-209.5 807.5,-179.5 651.5,-179.5"/>
<text text-anchor="start" x="659.5" y="-197.5" font-family="Helvetica,sans-Serif" font-size="10.00" fill="#000000">ExpoConjugateGTRSubstitution</text>
<text text-anchor="middle" x="729.5" y="-186.5" font-family="Helvetica,sans-Serif" font-size="10.00" fill="#000000">Process.cpp</text>
</a>
</g>
</g>
<!-- Node30&#45;&gt;Node33 -->
<g id="edge18" class="edge">
<title>Node30&#45;&gt;Node33</title>
<path fill="none" stroke="#191970" d="M827.4425,-242.0518C806.2377,-231.7567 780.5788,-219.2991 760.844,-209.7177"/>
<polygon fill="#191970" stroke="#191970" points="826.0056,-245.2448 836.5301,-246.4639 829.0629,-238.9478 826.0056,-245.2448"/>
</g>
<!-- Node31&#45;&gt;Node24 -->
<g id="edge17" class="edge">
<title>Node31&#45;&gt;Node24</title>
<path fill="none" stroke="#191970" d="M875.3961,-181.416C838.4646,-168.3928 782.6636,-148.7156 749.6719,-137.0817"/>
<polygon fill="#191970" stroke="#191970" points="874.6828,-184.8757 885.2776,-184.9005 877.0108,-178.2741 874.6828,-184.8757"/>
</g>
<!-- Node32 -->
<g id="node16" class="node">
<title>Node32</title>
<g id="a_node16"><a xlink:href="ExpoConjugateGTRPhyloProcess_8cpp.html" target="_top" xlink:title="ExpoConjugateGTRPhyloProcess.cpp">
<polygon fill="none" stroke="#000000" points="845.5,-118 845.5,-137 1029.5,-137 1029.5,-118 845.5,-118"/>
<text text-anchor="middle" x="937.5" y="-125" font-family="Helvetica,sans-Serif" font-size="10.00" fill="#000000">ExpoConjugateGTRPhyloProcess.cpp</text>
</a>
</g>
</g>
<!-- Node31&#45;&gt;Node32 -->
<g id="edge16" class="edge">
<title>Node31&#45;&gt;Node32</title>
<path fill="none" stroke="#191970" d="M919.6407,-175.3628C924.3118,-162.8444 930.2145,-147.0252 933.9248,-137.0817"/>
<polygon fill="#191970" stroke="#191970" points="916.2987,-174.3079 916.0819,-184.9005 922.857,-176.7551 916.2987,-174.3079"/>
</g>
<!-- Node35&#45;&gt;Node30 -->
<g id="edge26" class="edge">
<title>Node35&#45;&gt;Node30</title>
<path fill="none" stroke="#191970" d="M923.2641,-311.9892C911.281,-301.1395 895.7267,-287.0566 884.0912,-276.5218"/>
<polygon fill="#191970" stroke="#191970" points="921.1355,-314.7833 930.8976,-318.9005 925.8337,-309.5942 921.1355,-314.7833"/>
</g>
<!-- Node36 -->
<g id="node20" class="node">
<title>Node36</title>
<g id="a_node20"><a xlink:href="MatrixPhyloProcess_8h.html" target="_top" xlink:title="MatrixPhyloProcess.h">
<polygon fill="none" stroke="#000000" points="980,-252 980,-271 1093,-271 1093,-252 980,-252"/>
<text text-anchor="middle" x="1036.5" y="-259" font-family="Helvetica,sans-Serif" font-size="10.00" fill="#000000">MatrixPhyloProcess.h</text>
</a>
</g>
</g>
<!-- Node35&#45;&gt;Node36 -->
<g id="edge21" class="edge">
<title>Node35&#45;&gt;Node36</title>
<path fill="none" stroke="#191970" d="M963.4632,-313.0102C981.8154,-300.067 1007.4051,-282.0195 1022.9141,-271.0817"/>
<polygon fill="#191970" stroke="#191970" points="961.266,-310.2768 955.1112,-318.9005 965.3005,-315.9973 961.266,-310.2768"/>
</g>
<!-- Node36&#45;&gt;Node31 -->
<g id="edge22" class="edge">
<title>Node36&#45;&gt;Node31</title>
<path fill="none" stroke="#191970" d="M1009.7706,-247.0575C985.7094,-234.0567 951.0286,-215.3179 930.2332,-204.0817"/>
<polygon fill="#191970" stroke="#191970" points="1008.2721,-250.2261 1018.7338,-251.9005 1011.5998,-244.0675 1008.2721,-250.2261"/>
</g>
<!-- Node37 -->
<g id="node21" class="node">
<title>Node37</title>
<g id="a_node21"><a xlink:href="GeneralPathSuffStatMatrixPhyloProcess_8h.html" target="_top" xlink:title="GeneralPathSuffStatMatrix\lPhyloProcess.h">
<polygon fill="none" stroke="#000000" points="1287.5,-179.5 1287.5,-209.5 1421.5,-209.5 1421.5,-179.5 1287.5,-179.5"/>
<text text-anchor="start" x="1295.5" y="-197.5" font-family="Helvetica,sans-Serif" font-size="10.00" fill="#000000">GeneralPathSuffStatMatrix</text>
<text text-anchor="middle" x="1354.5" y="-186.5" font-family="Helvetica,sans-Serif" font-size="10.00" fill="#000000">PhyloProcess.h</text>
</a>
</g>
</g>
<!-- Node36&#45;&gt;Node37 -->
<g id="edge23" class="edge">
<title>Node36&#45;&gt;Node37</title>
<path fill="none" stroke="#191970" d="M1091.5194,-249.9079C1145.8443,-238.462 1229.0111,-220.9395 1287.2343,-208.6723"/>
<polygon fill="#191970" stroke="#191970" points="1090.7875,-246.4851 1081.7239,-251.9717 1092.2307,-253.3348 1090.7875,-246.4851"/>
</g>
<!-- Node39 -->
<g id="node23" class="node">
<title>Node39</title>
<g id="a_node23"><a xlink:href="MatrixPhyloProcess_8cpp.html" target="_top" xlink:title="MatrixPhyloProcess.cpp">
<polygon fill="none" stroke="#000000" points="1017,-185 1017,-204 1140,-204 1140,-185 1017,-185"/>
<text text-anchor="middle" x="1078.5" y="-192" font-family="Helvetica,sans-Serif" font-size="10.00" fill="#000000">MatrixPhyloProcess.cpp</text>
</a>
</g>
</g>
<!-- Node36&#45;&gt;Node39 -->
<g id="edge25" class="edge">
<title>Node36&#45;&gt;Node39</title>
<path fill="none" stroke="#191970" d="M1048.0281,-243.1099C1055.9457,-230.4795 1066.1357,-214.2241 1072.4936,-204.0817"/>
<polygon fill="#191970" stroke="#191970" points="1044.8635,-241.5687 1042.5176,-251.9005 1050.7945,-245.2866 1044.8635,-241.5687"/>
</g>
<!-- Node38 -->
<g id="node22" class="node">
<title>Node38</title>
<g id="a_node22"><a xlink:href="GeneralPathSuffStatMatrixPhyloProcess_8cpp.html" target="_top" xlink:title="GeneralPathSuffStatMatrix\lPhyloProcess.cpp">
<polygon fill="none" stroke="#000000" points="1287.5,-112.5 1287.5,-142.5 1421.5,-142.5 1421.5,-112.5 1287.5,-112.5"/>
<text text-anchor="start" x="1295.5" y="-130.5" font-family="Helvetica,sans-Serif" font-size="10.00" fill="#000000">GeneralPathSuffStatMatrix</text>
<text text-anchor="middle" x="1354.5" y="-119.5" font-family="Helvetica,sans-Serif" font-size="10.00" fill="#000000">PhyloProcess.cpp</text>
</a>
</g>
</g>
<!-- Node37&#45;&gt;Node38 -->
<g id="edge24" class="edge">
<title>Node37&#45;&gt;Node38</title>
<path fill="none" stroke="#191970" d="M1354.5,-169.0249C1354.5,-160.128 1354.5,-150.4287 1354.5,-142.6432"/>
<polygon fill="#191970" stroke="#191970" points="1351.0001,-169.2966 1354.5,-179.2967 1358.0001,-169.2967 1351.0001,-169.2966"/>
</g>
<!-- Node41&#45;&gt;Node19 -->
<g id="edge29" class="edge">
<title>Node41&#45;&gt;Node19</title>
<path fill="none" stroke="#191970" d="M720.6564,-383.959C656.7418,-370.9824 554.1259,-350.1483 494.5355,-338.0496"/>
<polygon fill="#191970" stroke="#191970" points="720.073,-387.4119 730.5695,-385.9717 721.4659,-380.5519 720.073,-387.4119"/>
</g>
<!-- Node42 -->
<g id="node26" class="node">
<title>Node42</title>
<g id="a_node26"><a xlink:href="MatrixSBDPProfileProcess_8h.html" target="_top" xlink:title="MatrixSBDPProfileProcess.h">
<polygon fill="none" stroke="#000000" points="537,-319 537,-338 680,-338 680,-319 537,-319"/>
<text text-anchor="middle" x="608.5" y="-326" font-family="Helvetica,sans-Serif" font-size="10.00" fill="#000000">MatrixSBDPProfileProcess.h</text>
</a>
</g>
</g>
<!-- Node41&#45;&gt;Node42 -->
<g id="edge30" class="edge">
<title>Node41&#45;&gt;Node42</title>
<path fill="none" stroke="#191970" d="M743.6511,-382.0806C710.8005,-369.057 661.7631,-349.6162 632.6687,-338.0817"/>
<polygon fill="#191970" stroke="#191970" points="742.7004,-385.4687 753.2864,-385.9005 745.2802,-378.9614 742.7004,-385.4687"/>
</g>
<!-- Node44 -->
<g id="node28" class="node">
<title>Node44</title>
<g id="a_node28"><a xlink:href="GeneralPathSuffStatMatrixMixtureProfileProcess_8h.html" target="_top" xlink:title="GeneralPathSuffStatMatrix\lMixtureProfileProcess.h">
<polygon fill="none" stroke="#000000" points="1330.5,-313.5 1330.5,-343.5 1464.5,-343.5 1464.5,-313.5 1330.5,-313.5"/>
<text text-anchor="start" x="1338.5" y="-331.5" font-family="Helvetica,sans-Serif" font-size="10.00" fill="#000000">GeneralPathSuffStatMatrix</text>
<text text-anchor="middle" x="1397.5" y="-320.5" font-family="Helvetica,sans-Serif" font-size="10.00" fill="#000000">MixtureProfileProcess.h</text>
</a>
</g>
</g>
<!-- Node41&#45;&gt;Node44 -->
<g id="edge33" class="edge">
<title>Node41&#45;&gt;Node44</title>
<path fill="none" stroke="#191970" d="M861.8271,-390.3202C969.0489,-383.0918 1159.6974,-368.0881 1321.5,-344 1324.4302,-343.5638 1327.4181,-343.088 1330.4321,-342.5828"/>
<polygon fill="#191970" stroke="#191970" points="861.4596,-386.8369 851.715,-390.9955 861.926,-393.8213 861.4596,-386.8369"/>
</g>
<!-- Node46 -->
<g id="node30" class="node">
<title>Node46</title>
<g id="a_node30"><a xlink:href="MatrixMixtureProfileProcess_8cpp.html" target="_top" xlink:title="MatrixMixtureProfileProcess.cpp">
<polygon fill="none" stroke="#000000" points="698.5,-319 698.5,-338 856.5,-338 856.5,-319 698.5,-319"/>
<text text-anchor="middle" x="777.5" y="-326" font-family="Helvetica,sans-Serif" font-size="10.00" fill="#000000">MatrixMixtureProfileProcess.cpp</text>
</a>
</g>
</g>
<!-- Node41&#45;&gt;Node46 -->
<g id="edge35" class="edge">
<title>Node41&#45;&gt;Node46</title>
<path fill="none" stroke="#191970" d="M777.5,-375.6079C777.5,-363.214 777.5,-347.8263 777.5,-338.0817"/>
<polygon fill="#191970" stroke="#191970" points="774.0001,-375.9005 777.5,-385.9005 781.0001,-375.9006 774.0001,-375.9005"/>
</g>
<!-- Node42&#45;&gt;Node22 -->
<g id="edge31" class="edge">
<title>Node42&#45;&gt;Node22</title>
<path fill="none" stroke="#191970" d="M599.5521,-309.7654C586.7563,-282.9741 563.4805,-234.2405 551.7172,-209.611"/>
<polygon fill="#191970" stroke="#191970" points="596.4292,-311.3479 603.8973,-318.8631 602.7457,-308.331 596.4292,-311.3479"/>
</g>
<!-- Node43 -->
<g id="node27" class="node">
<title>Node43</title>
<g id="a_node27"><a xlink:href="MatrixSBDPProfileProcess_8cpp.html" target="_top" xlink:title="MatrixSBDPProfileProcess.cpp">
<polygon fill="none" stroke="#000000" points="595.5,-252 595.5,-271 749.5,-271 749.5,-252 595.5,-252"/>
<text text-anchor="middle" x="672.5" y="-259" font-family="Helvetica,sans-Serif" font-size="10.00" fill="#000000">MatrixSBDPProfileProcess.cpp</text>
</a>
</g>
</g>
<!-- Node42&#45;&gt;Node43 -->
<g id="edge32" class="edge">
<title>Node42&#45;&gt;Node43</title>
<path fill="none" stroke="#191970" d="M624.6638,-311.5785C636.9047,-298.7639 653.2792,-281.6218 663.3474,-271.0817"/>
<polygon fill="#191970" stroke="#191970" points="622.0461,-309.2518 617.6696,-318.9005 627.1079,-314.087 622.0461,-309.2518"/>
</g>
<!-- Node45 -->
<g id="node29" class="node">
<title>Node45</title>
<g id="a_node29"><a xlink:href="GeneralPathSuffStatMatrixMixtureProfileProcess_8cpp.html" target="_top" xlink:title="GeneralPathSuffStatMatrix\lMixtureProfileProcess.cpp">
<polygon fill="none" stroke="#000000" points="1311.5,-246.5 1311.5,-276.5 1445.5,-276.5 1445.5,-246.5 1311.5,-246.5"/>
<text text-anchor="start" x="1319.5" y="-264.5" font-family="Helvetica,sans-Serif" font-size="10.00" fill="#000000">GeneralPathSuffStatMatrix</text>
<text text-anchor="middle" x="1378.5" y="-253.5" font-family="Helvetica,sans-Serif" font-size="10.00" fill="#000000">MixtureProfileProcess.cpp</text>
</a>
</g>
</g>
<!-- Node44&#45;&gt;Node45 -->
<g id="edge34" class="edge">
<title>Node44&#45;&gt;Node45</title>
<path fill="none" stroke="#191970" d="M1390.4417,-303.6103C1387.8739,-294.5553 1385.0507,-284.5998 1382.7943,-276.6432"/>
<polygon fill="#191970" stroke="#191970" points="1387.0931,-304.6309 1393.1886,-313.2967 1393.8275,-302.7211 1387.0931,-304.6309"/>
</g>
<!-- Node47&#45;&gt;Node35 -->
<g id="edge38" class="edge">
<title>Node47&#45;&gt;Node35</title>
<path fill="none" stroke="#191970" d="M1071.8528,-382.0806C1040.1685,-369.057 992.8721,-349.6162 964.8106,-338.0817"/>
<polygon fill="#191970" stroke="#191970" points="1070.5663,-385.3359 1081.1461,-385.9005 1073.2276,-378.8615 1070.5663,-385.3359"/>
</g>
<!-- Node47&#45;&gt;Node36 -->
<g id="edge37" class="edge">
<title>Node47&#45;&gt;Node36</title>
<path fill="none" stroke="#191970" d="M1084.4104,-379.0886C1074.3003,-369.799 1062.6956,-357.3792 1055.5,-344 1042.5511,-319.9232 1038.3886,-287.2818 1037.0804,-271.2312"/>
<polygon fill="#191970" stroke="#191970" points="1082.2611,-381.8592 1092.0852,-385.8262 1086.8792,-376.5986 1082.2611,-381.8592"/>
</g>
<!-- Node48 -->
<g id="node32" class="node">
<title>Node48</title>
<g id="a_node32"><a xlink:href="GeneralPathSuffStatMatrixSubstitutionProcess_8h.html" target="_top" xlink:title="GeneralPathSuffStatMatrix\lSubstitutionProcess.h">
<polygon fill="none" stroke="#000000" points="1482.5,-313.5 1482.5,-343.5 1616.5,-343.5 1616.5,-313.5 1482.5,-313.5"/>
<text text-anchor="start" x="1490.5" y="-331.5" font-family="Helvetica,sans-Serif" font-size="10.00" fill="#000000">GeneralPathSuffStatMatrix</text>
<text text-anchor="middle" x="1549.5" y="-320.5" font-family="Helvetica,sans-Serif" font-size="10.00" fill="#000000">SubstitutionProcess.h</text>
</a>
</g>
</g>
<!-- Node47&#45;&gt;Node48 -->
<g id="edge39" class="edge">
<title>Node47&#45;&gt;Node48</title>
<path fill="none" stroke="#191970" d="M1185.0556,-385.7306C1259.9604,-376.2977 1374.5571,-360.977 1473.5,-344 1476.4199,-343.499 1479.3992,-342.9696 1482.4061,-342.4205"/>
<polygon fill="#191970" stroke="#191970" points="1184.2422,-382.3051 1174.7554,-387.0221 1185.1132,-389.2507 1184.2422,-382.3051"/>
</g>
<!-- Node50 -->
<g id="node34" class="node">
<title>Node50</title>
<g id="a_node34"><a xlink:href="MatrixSubstitutionProcess_8cpp.html" target="_top" xlink:title="MatrixSubstitutionProcess.cpp">
<polygon fill="none" stroke="#000000" points="1162.5,-319 1162.5,-338 1312.5,-338 1312.5,-319 1162.5,-319"/>
<text text-anchor="middle" x="1237.5" y="-326" font-family="Helvetica,sans-Serif" font-size="10.00" fill="#000000">MatrixSubstitutionProcess.cpp</text>
</a>
</g>
</g>
<!-- Node47&#45;&gt;Node50 -->
<g id="edge42" class="edge">
<title>Node47&#45;&gt;Node50</title>
<path fill="none" stroke="#191970" d="M1132.4869,-381.4013C1158.3174,-368.389 1195.9776,-349.4173 1218.4797,-338.0817"/>
<polygon fill="#191970" stroke="#191970" points="1130.9118,-378.2757 1123.5557,-385.9005 1134.0611,-384.5273 1130.9118,-378.2757"/>
</g>
<!-- Node51 -->
<g id="node35" class="node">
<title>Node51</title>
<g id="a_node35"><a xlink:href="Propagate_8cpp.html" target="_top" xlink:title="Propagate.cpp">
<polygon fill="none" stroke="#000000" points="1064.5,-319 1064.5,-338 1144.5,-338 1144.5,-319 1064.5,-319"/>
<text text-anchor="middle" x="1104.5" y="-326" font-family="Helvetica,sans-Serif" font-size="10.00" fill="#000000">Propagate.cpp</text>
</a>
</g>
</g>
<!-- Node47&#45;&gt;Node51 -->
<g id="edge43" class="edge">
<title>Node47&#45;&gt;Node51</title>
<path fill="none" stroke="#191970" d="M1104.5,-375.6079C1104.5,-363.214 1104.5,-347.8263 1104.5,-338.0817"/>
<polygon fill="#191970" stroke="#191970" points="1101.0001,-375.9005 1104.5,-385.9005 1108.0001,-375.9006 1101.0001,-375.9005"/>
</g>
<!-- Node48&#45;&gt;Node37 -->
<g id="edge40" class="edge">
<title>Node48&#45;&gt;Node37</title>
<path fill="none" stroke="#191970" d="M1525.21,-306.2263C1502.1377,-285.2891 1468.8989,-255.7525 1454.5,-246 1433.6425,-231.8731 1408.4133,-218.9065 1388.5145,-209.518"/>
<polygon fill="#191970" stroke="#191970" points="1523.1486,-309.0829 1532.8994,-313.2269 1527.8611,-303.9067 1523.1486,-309.0829"/>
</g>
<!-- Node49 -->
<g id="node33" class="node">
<title>Node49</title>
<g id="a_node33"><a xlink:href="GeneralPathSuffStatMatrixSubstitutionProcess_8cpp.html" target="_top" xlink:title="GeneralPathSuffStatMatrix\lSubstitutionProcess.cpp">
<polygon fill="none" stroke="#000000" points="1501.5,-246.5 1501.5,-276.5 1635.5,-276.5 1635.5,-246.5 1501.5,-246.5"/>
<text text-anchor="start" x="1509.5" y="-264.5" font-family="Helvetica,sans-Serif" font-size="10.00" fill="#000000">GeneralPathSuffStatMatrix</text>
<text text-anchor="middle" x="1568.5" y="-253.5" font-family="Helvetica,sans-Serif" font-size="10.00" fill="#000000">SubstitutionProcess.cpp</text>
</a>
</g>
</g>
<!-- Node48&#45;&gt;Node49 -->
<g id="edge41" class="edge">
<title>Node48&#45;&gt;Node49</title>
<path fill="none" stroke="#191970" d="M1556.5583,-303.6103C1559.1261,-294.5553 1561.9493,-284.5998 1564.2057,-276.6432"/>
<polygon fill="#191970" stroke="#191970" points="1553.1725,-302.7211 1553.8114,-313.2967 1559.9069,-304.6309 1553.1725,-302.7211"/>
</g>
<!-- Node52&#45;&gt;Node44 -->
<g id="edge45" class="edge">
<title>Node52&#45;&gt;Node44</title>
<path fill="none" stroke="#191970" d="M1351.454,-373.2113C1361.4543,-363.5009 1372.9176,-352.3698 1381.9048,-343.6432"/>
<polygon fill="#191970" stroke="#191970" points="1348.8932,-370.8193 1344.1572,-380.2967 1353.7697,-375.8413 1348.8932,-370.8193"/>
</g>
<!-- Node52&#45;&gt;Node48 -->
<g id="edge46" class="edge">
<title>Node52&#45;&gt;Node48</title>
<path fill="none" stroke="#191970" d="M1387.7134,-377.5484C1422.6947,-366.9432 1466.4881,-353.6665 1499.687,-343.6017"/>
<polygon fill="#191970" stroke="#191970" points="1386.6511,-374.2131 1378.0967,-380.4639 1388.6821,-380.912 1386.6511,-374.2131"/>
</g>
</g>
</svg>
