<?xml version="1.0" encoding="UTF-8" standalone="no"?>
<!DOCTYPE svg PUBLIC "-//W3C//DTD SVG 1.1//EN"
 "http://www.w3.org/Graphics/SVG/1.1/DTD/svg11.dtd">
<!-- Generated by graphviz version 2.40.1 (20161225.0304)
 -->
<!-- Title: MatrixSubstitutionProcess.h Pages: 1 -->
<svg width="889pt" height="408pt"
 viewBox="0.00 0.00 889.00 408.00" xmlns="http://www.w3.org/2000/svg" xmlns:xlink="http://www.w3.org/1999/xlink">
<g id="graph0" class="graph" transform="scale(1 1) rotate(0) translate(4 404)">
<title>MatrixSubstitutionProcess.h</title>
<!-- Node24 -->
<g id="node1" class="node">
<title>Node24</title>
<polygon fill="#bfbfbf" stroke="#000000" points="478,-380.5 478,-399.5 618,-399.5 618,-380.5 478,-380.5"/>
<text text-anchor="middle" x="548" y="-387.5" font-family="Helvetica,sans-Serif" font-size="10.00" fill="#000000">MatrixSubstitutionProcess.h</text>
</g>
<!-- Node25 -->
<g id="node2" class="node">
<title>Node25</title>
<g id="a_node2"><a xlink:href="MatrixPhyloProcess_8h.html" target="_top" xlink:title="MatrixPhyloProcess.h">
<polygon fill="none" stroke="#000000" points="370.5,-252 370.5,-271 483.5,-271 483.5,-252 370.5,-252"/>
<text text-anchor="middle" x="427" y="-259" font-family="Helvetica,sans-Serif" font-size="10.00" fill="#000000">MatrixPhyloProcess.h</text>
</a>
</g>
</g>
<!-- Node24&#45;&gt;Node25 -->
<g id="edge1" class="edge">
<title>Node24&#45;&gt;Node25</title>
<path fill="none" stroke="#191970" d="M516.2575,-375.6393C501.5045,-367.8283 484.5023,-357.0771 472,-344 450.8041,-321.8296 436.4709,-287.7292 430.3519,-271.1776"/>
<polygon fill="#191970" stroke="#191970" points="515.0544,-378.953 525.5577,-380.3427 518.2135,-372.7063 515.0544,-378.953"/>
</g>
<!-- Node35 -->
<g id="node12" class="node">
<title>Node35</title>
<g id="a_node12"><a xlink:href="GTRSubstitutionProcess_8h.html" target="_top" xlink:title="GTRSubstitutionProcess.h">
<polygon fill="none" stroke="#000000" points="291,-319 291,-338 425,-338 425,-319 291,-319"/>
<text text-anchor="middle" x="358" y="-326" font-family="Helvetica,sans-Serif" font-size="10.00" fill="#000000">GTRSubstitutionProcess.h</text>
</a>
</g>
</g>
<!-- Node24&#45;&gt;Node35 -->
<g id="edge11" class="edge">
<title>Node24&#45;&gt;Node35</title>
<path fill="none" stroke="#191970" d="M508.6121,-377.2507C472.5617,-365.5818 420.021,-348.5752 387.479,-338.0419"/>
<polygon fill="#191970" stroke="#191970" points="507.7206,-380.6409 518.3125,-380.3906 509.8763,-373.9811 507.7206,-380.6409"/>
</g>
<!-- Node38 -->
<g id="node15" class="node">
<title>Node38</title>
<g id="a_node15"><a xlink:href="GeneralPathSuffStatMatrixSubstitutionProcess_8h.html" target="_top" xlink:title="GeneralPathSuffStatMatrix\lSubstitutionProcess.h">
<polygon fill="none" stroke="#000000" points="481,-313.5 481,-343.5 615,-343.5 615,-313.5 481,-313.5"/>
<text text-anchor="start" x="489" y="-331.5" font-family="Helvetica,sans-Serif" font-size="10.00" fill="#000000">GeneralPathSuffStatMatrix</text>
<text text-anchor="middle" x="548" y="-320.5" font-family="Helvetica,sans-Serif" font-size="10.00" fill="#000000">SubstitutionProcess.h</text>
</a>
</g>
</g>
<!-- Node24&#45;&gt;Node38 -->
<g id="edge16" class="edge">
<title>Node24&#45;&gt;Node38</title>
<path fill="none" stroke="#191970" d="M548,-370.3693C548,-361.681 548,-351.6241 548,-343.5446"/>
<polygon fill="#191970" stroke="#191970" points="544.5001,-370.3906 548,-380.3906 551.5001,-370.3907 544.5001,-370.3906"/>
</g>
<!-- Node40 -->
<g id="node17" class="node">
<title>Node40</title>
<g id="a_node17"><a xlink:href="MatrixSubstitutionProcess_8cpp.html" target="_top" xlink:title="MatrixSubstitutionProcess.cpp">
<polygon fill="none" stroke="#000000" points="633,-319 633,-338 783,-338 783,-319 633,-319"/>
<text text-anchor="middle" x="708" y="-326" font-family="Helvetica,sans-Serif" font-size="10.00" fill="#000000">MatrixSubstitutionProcess.cpp</text>
</a>
</g>
</g>
<!-- Node24&#45;&gt;Node40 -->
<g id="edge19" class="edge">
<title>Node24&#45;&gt;Node40</title>
<path fill="none" stroke="#191970" d="M582.3432,-376.7993C612.6587,-365.1468 656.1231,-348.4402 683.1756,-338.0419"/>
<polygon fill="#191970" stroke="#191970" points="581.0784,-373.5357 573,-380.3906 583.59,-380.0697 581.0784,-373.5357"/>
</g>
<!-- Node41 -->
<g id="node18" class="node">
<title>Node41</title>
<g id="a_node18"><a xlink:href="Propagate_8cpp.html" target="_top" xlink:title="Propagate.cpp">
<polygon fill="none" stroke="#000000" points="801,-319 801,-338 881,-338 881,-319 801,-319"/>
<text text-anchor="middle" x="841" y="-326" font-family="Helvetica,sans-Serif" font-size="10.00" fill="#000000">Propagate.cpp</text>
</a>
</g>
</g>
<!-- Node24&#45;&gt;Node41 -->
<g id="edge20" class="edge">
<title>Node24&#45;&gt;Node41</title>
<path fill="none" stroke="#191970" d="M619.772,-378.8005C668.6443,-370.6058 734.6264,-358.4272 792,-344 798.8359,-342.281 806.119,-340.1469 812.9224,-338.0176"/>
<polygon fill="#191970" stroke="#191970" points="618.9035,-375.3968 609.6122,-380.4881 620.0506,-382.3021 618.9035,-375.3968"/>
</g>
<!-- Node26 -->
<g id="node3" class="node">
<title>Node26</title>
<g id="a_node3"><a xlink:href="ExpoConjugateGTRPhyloProcess_8h.html" target="_top" xlink:title="ExpoConjugateGTRPhyloProcess.h">
<polygon fill="none" stroke="#000000" points="174.5,-185 174.5,-204 347.5,-204 347.5,-185 174.5,-185"/>
<text text-anchor="middle" x="261" y="-192" font-family="Helvetica,sans-Serif" font-size="10.00" fill="#000000">ExpoConjugateGTRPhyloProcess.h</text>
</a>
</g>
</g>
<!-- Node25&#45;&gt;Node26 -->
<g id="edge2" class="edge">
<title>Node25&#45;&gt;Node26</title>
<path fill="none" stroke="#191970" d="M393.7519,-248.0806C361.4845,-235.057 313.3176,-215.6162 284.7396,-204.0817"/>
<polygon fill="#191970" stroke="#191970" points="392.6331,-251.4033 403.2162,-251.9005 395.2531,-244.9121 392.6331,-251.4033"/>
</g>
<!-- Node32 -->
<g id="node9" class="node">
<title>Node32</title>
<g id="a_node9"><a xlink:href="GeneralPathSuffStatMatrixPhyloProcess_8h.html" target="_top" xlink:title="GeneralPathSuffStatMatrix\lPhyloProcess.h">
<polygon fill="none" stroke="#000000" points="507,-179.5 507,-209.5 641,-209.5 641,-179.5 507,-179.5"/>
<text text-anchor="start" x="515" y="-197.5" font-family="Helvetica,sans-Serif" font-size="10.00" fill="#000000">GeneralPathSuffStatMatrix</text>
<text text-anchor="middle" x="574" y="-186.5" font-family="Helvetica,sans-Serif" font-size="10.00" fill="#000000">PhyloProcess.h</text>
</a>
</g>
</g>
<!-- Node25&#45;&gt;Node32 -->
<g id="edge8" class="edge">
<title>Node25&#45;&gt;Node32</title>
<path fill="none" stroke="#191970" d="M457.2143,-247.7289C481.6236,-236.6035 515.9277,-220.9683 541.0418,-209.5218"/>
<polygon fill="#191970" stroke="#191970" points="455.7094,-244.5683 448.0615,-251.9005 458.6125,-250.9379 455.7094,-244.5683"/>
</g>
<!-- Node34 -->
<g id="node11" class="node">
<title>Node34</title>
<g id="a_node11"><a xlink:href="MatrixPhyloProcess_8cpp.html" target="_top" xlink:title="MatrixPhyloProcess.cpp">
<polygon fill="none" stroke="#000000" points="365.5,-185 365.5,-204 488.5,-204 488.5,-185 365.5,-185"/>
<text text-anchor="middle" x="427" y="-192" font-family="Helvetica,sans-Serif" font-size="10.00" fill="#000000">MatrixPhyloProcess.cpp</text>
</a>
</g>
</g>
<!-- Node25&#45;&gt;Node34 -->
<g id="edge10" class="edge">
<title>Node25&#45;&gt;Node34</title>
<path fill="none" stroke="#191970" d="M427,-241.6079C427,-229.214 427,-213.8263 427,-204.0817"/>
<polygon fill="#191970" stroke="#191970" points="423.5001,-241.9005 427,-251.9005 430.5001,-241.9006 423.5001,-241.9005"/>
</g>
<!-- Node27 -->
<g id="node4" class="node">
<title>Node27</title>
<g id="a_node4"><a xlink:href="ExpoConjugateGTRPhyloProcess_8cpp.html" target="_top" xlink:title="ExpoConjugateGTRPhyloProcess.cpp">
<polygon fill="none" stroke="#000000" points="16,-118 16,-137 200,-137 200,-118 16,-118"/>
<text text-anchor="middle" x="108" y="-125" font-family="Helvetica,sans-Serif" font-size="10.00" fill="#000000">ExpoConjugateGTRPhyloProcess.cpp</text>
</a>
</g>
</g>
<!-- Node26&#45;&gt;Node27 -->
<g id="edge3" class="edge">
<title>Node26&#45;&gt;Node27</title>
<path fill="none" stroke="#191970" d="M229.5833,-180.7424C199.8511,-167.7224 155.9934,-148.5167 129.8805,-137.0817"/>
<polygon fill="#191970" stroke="#191970" points="228.5146,-184.0952 239.0788,-184.9005 231.3226,-177.6831 228.5146,-184.0952"/>
</g>
<!-- Node28 -->
<g id="node5" class="node">
<title>Node28</title>
<g id="a_node5"><a xlink:href="RASCATGTRSBDPGammaPhyloProcess_8h.html" target="_top" xlink:title="RASCATGTRSBDPGammaPhyloProcess.h">
<polygon fill="none" stroke="#000000" points="218,-118 218,-137 428,-137 428,-118 218,-118"/>
<text text-anchor="middle" x="323" y="-125" font-family="Helvetica,sans-Serif" font-size="10.00" fill="#000000">RASCATGTRSBDPGammaPhyloProcess.h</text>
</a>
</g>
</g>
<!-- Node26&#45;&gt;Node28 -->
<g id="edge4" class="edge">
<title>Node26&#45;&gt;Node28</title>
<path fill="none" stroke="#191970" d="M276.9953,-177.2147C288.8158,-164.441 304.4718,-147.5224 314.1334,-137.0817"/>
<polygon fill="#191970" stroke="#191970" points="274.1061,-175.1837 269.8831,-184.9005 279.2439,-179.9381 274.1061,-175.1837"/>
</g>
<!-- Node29 -->
<g id="node6" class="node">
<title>Node29</title>
<g id="a_node6"><a xlink:href="Model_8h.html" target="_top" xlink:title="Model.h">
<polygon fill="none" stroke="#000000" points="220.5,-56.5 220.5,-75.5 271.5,-75.5 271.5,-56.5 220.5,-56.5"/>
<text text-anchor="middle" x="246" y="-63.5" font-family="Helvetica,sans-Serif" font-size="10.00" fill="#000000">Model.h</text>
</a>
</g>
</g>
<!-- Node28&#45;&gt;Node29 -->
<g id="edge5" class="edge">
<title>Node28&#45;&gt;Node29</title>
<path fill="none" stroke="#191970" d="M303.1542,-111.6491C288.847,-100.222 270.0076,-85.1749 257.9468,-75.5419"/>
<polygon fill="#191970" stroke="#191970" points="300.9708,-114.3846 310.9688,-117.8906 305.3394,-108.915 300.9708,-114.3846"/>
</g>
<!-- Node31 -->
<g id="node8" class="node">
<title>Node31</title>
<g id="a_node8"><a xlink:href="RASCATGTRSBDPGammaPhyloProcess_8cpp.html" target="_top" xlink:title="RASCATGTRSBDPGammaPhyloProcess.cpp">
<polygon fill="none" stroke="#000000" points="289.5,-56.5 289.5,-75.5 510.5,-75.5 510.5,-56.5 289.5,-56.5"/>
<text text-anchor="middle" x="400" y="-63.5" font-family="Helvetica,sans-Serif" font-size="10.00" fill="#000000">RASCATGTRSBDPGammaPhyloProcess.cpp</text>
</a>
</g>
</g>
<!-- Node28&#45;&gt;Node31 -->
<g id="edge7" class="edge">
<title>Node28&#45;&gt;Node31</title>
<path fill="none" stroke="#191970" d="M342.8458,-111.6491C357.153,-100.222 375.9924,-85.1749 388.0532,-75.5419"/>
<polygon fill="#191970" stroke="#191970" points="340.6606,-108.915 335.0313,-117.8906 345.0292,-114.3846 340.6606,-108.915"/>
</g>
<!-- Node30 -->
<g id="node7" class="node">
<title>Node30</title>
<g id="a_node7"><a xlink:href="PB_8cpp.html" target="_top" xlink:title="PB.cpp">
<polygon fill="none" stroke="#000000" points="221.5,-.5 221.5,-19.5 270.5,-19.5 270.5,-.5 221.5,-.5"/>
<text text-anchor="middle" x="246" y="-7.5" font-family="Helvetica,sans-Serif" font-size="10.00" fill="#000000">PB.cpp</text>
</a>
</g>
</g>
<!-- Node29&#45;&gt;Node30 -->
<g id="edge6" class="edge">
<title>Node29&#45;&gt;Node30</title>
<path fill="none" stroke="#191970" d="M246,-46.1575C246,-37.155 246,-26.9199 246,-19.6427"/>
<polygon fill="#191970" stroke="#191970" points="242.5001,-46.2455 246,-56.2455 249.5001,-46.2456 242.5001,-46.2455"/>
</g>
<!-- Node33 -->
<g id="node10" class="node">
<title>Node33</title>
<g id="a_node10"><a xlink:href="GeneralPathSuffStatMatrixPhyloProcess_8cpp.html" target="_top" xlink:title="GeneralPathSuffStatMatrix\lPhyloProcess.cpp">
<polygon fill="none" stroke="#000000" points="507,-112.5 507,-142.5 641,-142.5 641,-112.5 507,-112.5"/>
<text text-anchor="start" x="515" y="-130.5" font-family="Helvetica,sans-Serif" font-size="10.00" fill="#000000">GeneralPathSuffStatMatrix</text>
<text text-anchor="middle" x="574" y="-119.5" font-family="Helvetica,sans-Serif" font-size="10.00" fill="#000000">PhyloProcess.cpp</text>
</a>
</g>
</g>
<!-- Node32&#45;&gt;Node33 -->
<g id="edge9" class="edge">
<title>Node32&#45;&gt;Node33</title>
<path fill="none" stroke="#191970" d="M574,-169.0249C574,-160.128 574,-150.4287 574,-142.6432"/>
<polygon fill="#191970" stroke="#191970" points="570.5001,-169.2966 574,-179.2967 577.5001,-169.2967 570.5001,-169.2966"/>
</g>
<!-- Node35&#45;&gt;Node25 -->
<g id="edge12" class="edge">
<title>Node35&#45;&gt;Node25</title>
<path fill="none" stroke="#191970" d="M375.4266,-311.5785C388.6238,-298.7639 406.2775,-281.6218 417.1323,-271.0817"/>
<polygon fill="#191970" stroke="#191970" points="372.6221,-309.4232 367.886,-318.9005 377.4985,-314.4452 372.6221,-309.4232"/>
</g>
<!-- Node36 -->
<g id="node13" class="node">
<title>Node36</title>
<g id="a_node13"><a xlink:href="ExpoConjugateGTRSubstitutionProcess_8h.html" target="_top" xlink:title="ExpoConjugateGTRSubstitution\lProcess.h">
<polygon fill="none" stroke="#000000" points="183,-246.5 183,-276.5 339,-276.5 339,-246.5 183,-246.5"/>
<text text-anchor="start" x="191" y="-264.5" font-family="Helvetica,sans-Serif" font-size="10.00" fill="#000000">ExpoConjugateGTRSubstitution</text>
<text text-anchor="middle" x="261" y="-253.5" font-family="Helvetica,sans-Serif" font-size="10.00" fill="#000000">Process.h</text>
</a>
</g>
</g>
<!-- Node35&#45;&gt;Node36 -->
<g id="edge13" class="edge">
<title>Node35&#45;&gt;Node36</title>
<path fill="none" stroke="#191970" d="M335.4436,-312.9198C319.5691,-301.955 298.4399,-287.3605 282.7479,-276.5218"/>
<polygon fill="#191970" stroke="#191970" points="333.8851,-316.097 344.1023,-318.9005 337.8634,-310.3374 333.8851,-316.097"/>
</g>
<!-- Node36&#45;&gt;Node26 -->
<g id="edge14" class="edge">
<title>Node36&#45;&gt;Node26</title>
<path fill="none" stroke="#191970" d="M261,-236.1199C261,-224.9072 261,-212.4031 261,-204.055"/>
<polygon fill="#191970" stroke="#191970" points="257.5001,-236.2966 261,-246.2967 264.5001,-236.2967 257.5001,-236.2966"/>
</g>
<!-- Node37 -->
<g id="node14" class="node">
<title>Node37</title>
<g id="a_node14"><a xlink:href="ExpoConjugateGTRSubstitutionProcess_8cpp.html" target="_top" xlink:title="ExpoConjugateGTRSubstitution\lProcess.cpp">
<polygon fill="none" stroke="#000000" points="0,-179.5 0,-209.5 156,-209.5 156,-179.5 0,-179.5"/>
<text text-anchor="start" x="8" y="-197.5" font-family="Helvetica,sans-Serif" font-size="10.00" fill="#000000">ExpoConjugateGTRSubstitution</text>
<text text-anchor="middle" x="78" y="-186.5" font-family="Helvetica,sans-Serif" font-size="10.00" fill="#000000">Process.cpp</text>
</a>
</g>
</g>
<!-- Node36&#45;&gt;Node37 -->
<g id="edge15" class="edge">
<title>Node36&#45;&gt;Node37</title>
<path fill="none" stroke="#191970" d="M210.4763,-243.0023C181.7645,-232.4903 146.2685,-219.4945 119.2479,-209.6017"/>
<polygon fill="#191970" stroke="#191970" points="209.3375,-246.3125 219.9312,-246.4639 211.7441,-239.7392 209.3375,-246.3125"/>
</g>
<!-- Node38&#45;&gt;Node32 -->
<g id="edge17" class="edge">
<title>Node38&#45;&gt;Node32</title>
<path fill="none" stroke="#191970" d="M552.8815,-303.3415C558.2228,-275.8131 566.613,-232.5714 571.0388,-209.7614"/>
<polygon fill="#191970" stroke="#191970" points="549.4009,-302.9054 550.932,-313.389 556.2728,-304.2388 549.4009,-302.9054"/>
</g>
<!-- Node39 -->
<g id="node16" class="node">
<title>Node39</title>
<g id="a_node16"><a xlink:href="GeneralPathSuffStatMatrixSubstitutionProcess_8cpp.html" target="_top" xlink:title="GeneralPathSuffStatMatrix\lSubstitutionProcess.cpp">
<polygon fill="none" stroke="#000000" points="576,-246.5 576,-276.5 710,-276.5 710,-246.5 576,-246.5"/>
<text text-anchor="start" x="584" y="-264.5" font-family="Helvetica,sans-Serif" font-size="10.00" fill="#000000">GeneralPathSuffStatMatrix</text>
<text text-anchor="middle" x="643" y="-253.5" font-family="Helvetica,sans-Serif" font-size="10.00" fill="#000000">SubstitutionProcess.cpp</text>
</a>
</g>
</g>
<!-- Node38&#45;&gt;Node39 -->
<g id="edge18" class="edge">
<title>Node38&#45;&gt;Node39</title>
<path fill="none" stroke="#191970" d="M577.9932,-307.3469C592.1288,-297.3776 608.6695,-285.7121 621.5283,-276.6432"/>
<polygon fill="#191970" stroke="#191970" points="575.7118,-304.6729 569.557,-313.2967 579.7463,-310.3934 575.7118,-304.6729"/>
</g>
</g>
</svg>
