<?xml version="1.0" encoding="UTF-8" standalone="no"?>
<!DOCTYPE svg PUBLIC "-//W3C//DTD SVG 1.1//EN"
 "http://www.w3.org/Graphics/SVG/1.1/DTD/svg11.dtd">
<!-- Generated by graphviz version 2.40.1 (20161225.0304)
 -->
<!-- Title: MatrixMixtureProfileProcess.h Pages: 1 -->
<svg width="851pt" height="408pt"
 viewBox="0.00 0.00 851.00 408.00" xmlns="http://www.w3.org/2000/svg" xmlns:xlink="http://www.w3.org/1999/xlink">
<g id="graph0" class="graph" transform="scale(1 1) rotate(0) translate(4 404)">
<title>MatrixMixtureProfileProcess.h</title>
<!-- Node19 -->
<g id="node1" class="node">
<title>Node19</title>
<polygon fill="#bfbfbf" stroke="#000000" points="447,-380.5 447,-399.5 595,-399.5 595,-380.5 447,-380.5"/>
<text text-anchor="middle" x="521" y="-387.5" font-family="Helvetica,sans-Serif" font-size="10.00" fill="#000000">MatrixMixtureProfileProcess.h</text>
</g>
<!-- Node20 -->
<g id="node2" class="node">
<title>Node20</title>
<g id="a_node2"><a xlink:href="GTRMixtureProfileProcess_8h.html" target="_top" xlink:title="GTRMixtureProfileProcess.h">
<polygon fill="none" stroke="#000000" points="187,-319 187,-338 329,-338 329,-319 187,-319"/>
<text text-anchor="middle" x="258" y="-326" font-family="Helvetica,sans-Serif" font-size="10.00" fill="#000000">GTRMixtureProfileProcess.h</text>
</a>
</g>
</g>
<!-- Node19&#45;&gt;Node20 -->
<g id="edge1" class="edge">
<title>Node19&#45;&gt;Node20</title>
<path fill="none" stroke="#191970" d="M470.2575,-378.1343C420.3457,-366.463 345.1047,-348.8686 298.9009,-338.0643"/>
<polygon fill="#191970" stroke="#191970" points="469.6605,-381.5891 480.1948,-380.4581 471.2545,-374.773 469.6605,-381.5891"/>
</g>
<!-- Node30 -->
<g id="node12" class="node">
<title>Node30</title>
<g id="a_node12"><a xlink:href="MatrixSBDPProfileProcess_8h.html" target="_top" xlink:title="MatrixSBDPProfileProcess.h">
<polygon fill="none" stroke="#000000" points="371.5,-319 371.5,-338 514.5,-338 514.5,-319 371.5,-319"/>
<text text-anchor="middle" x="443" y="-326" font-family="Helvetica,sans-Serif" font-size="10.00" fill="#000000">MatrixSBDPProfileProcess.h</text>
</a>
</g>
</g>
<!-- Node19&#45;&gt;Node30 -->
<g id="edge11" class="edge">
<title>Node19&#45;&gt;Node30</title>
<path fill="none" stroke="#191970" d="M500.8964,-374.1491C486.4035,-362.722 467.3194,-347.6749 455.1019,-338.0419"/>
<polygon fill="#191970" stroke="#191970" points="498.7927,-376.9475 508.8125,-380.3906 503.1268,-371.4506 498.7927,-376.9475"/>
</g>
<!-- Node32 -->
<g id="node14" class="node">
<title>Node32</title>
<g id="a_node14"><a xlink:href="GeneralPathSuffStatMatrixMixtureProfileProcess_8h.html" target="_top" xlink:title="GeneralPathSuffStatMatrix\lMixtureProfileProcess.h">
<polygon fill="none" stroke="#000000" points="533,-313.5 533,-343.5 667,-343.5 667,-313.5 533,-313.5"/>
<text text-anchor="start" x="541" y="-331.5" font-family="Helvetica,sans-Serif" font-size="10.00" fill="#000000">GeneralPathSuffStatMatrix</text>
<text text-anchor="middle" x="600" y="-320.5" font-family="Helvetica,sans-Serif" font-size="10.00" fill="#000000">MixtureProfileProcess.h</text>
</a>
</g>
</g>
<!-- Node19&#45;&gt;Node32 -->
<g id="edge14" class="edge">
<title>Node19&#45;&gt;Node32</title>
<path fill="none" stroke="#191970" d="M541.5035,-374.0385C553.5922,-364.6276 568.7967,-352.7911 580.6744,-343.5446"/>
<polygon fill="#191970" stroke="#191970" points="539.0846,-371.4859 533.3438,-380.3906 543.3846,-377.0095 539.0846,-371.4859"/>
</g>
<!-- Node34 -->
<g id="node16" class="node">
<title>Node34</title>
<g id="a_node16"><a xlink:href="MatrixMixtureProfileProcess_8cpp.html" target="_top" xlink:title="MatrixMixtureProfileProcess.cpp">
<polygon fill="none" stroke="#000000" points="685,-319 685,-338 843,-338 843,-319 685,-319"/>
<text text-anchor="middle" x="764" y="-326" font-family="Helvetica,sans-Serif" font-size="10.00" fill="#000000">MatrixMixtureProfileProcess.cpp</text>
</a>
</g>
</g>
<!-- Node19&#45;&gt;Node34 -->
<g id="edge16" class="edge">
<title>Node19&#45;&gt;Node34</title>
<path fill="none" stroke="#191970" d="M568.4627,-377.9878C614.58,-366.3162 683.6974,-348.8235 726.2094,-338.0643"/>
<polygon fill="#191970" stroke="#191970" points="567.5377,-374.6115 558.7021,-380.4581 569.2552,-381.3975 567.5377,-374.6115"/>
</g>
<!-- Node21 -->
<g id="node3" class="node">
<title>Node21</title>
<g id="a_node3"><a xlink:href="ExpoConjugateGTRMixtureProfileProcess_8h.html" target="_top" xlink:title="ExpoConjugateGTRMixtureProfile\lProcess.h">
<polygon fill="none" stroke="#000000" points="0,-246.5 0,-276.5 164,-276.5 164,-246.5 0,-246.5"/>
<text text-anchor="start" x="8" y="-264.5" font-family="Helvetica,sans-Serif" font-size="10.00" fill="#000000">ExpoConjugateGTRMixtureProfile</text>
<text text-anchor="middle" x="82" y="-253.5" font-family="Helvetica,sans-Serif" font-size="10.00" fill="#000000">Process.h</text>
</a>
</g>
</g>
<!-- Node20&#45;&gt;Node21 -->
<g id="edge2" class="edge">
<title>Node20&#45;&gt;Node21</title>
<path fill="none" stroke="#191970" d="M223.3655,-315.3153C194.0577,-304.1583 152.0609,-288.1709 121.4602,-276.5218"/>
<polygon fill="#191970" stroke="#191970" points="222.1925,-318.6137 232.7835,-318.9005 224.683,-312.0717 222.1925,-318.6137"/>
</g>
<!-- Node29 -->
<g id="node11" class="node">
<title>Node29</title>
<g id="a_node11"><a xlink:href="GTRMixtureProfileProcess_8cpp.html" target="_top" xlink:title="GTRMixtureProfileProcess.cpp">
<polygon fill="none" stroke="#000000" points="182,-252 182,-271 334,-271 334,-252 182,-252"/>
<text text-anchor="middle" x="258" y="-259" font-family="Helvetica,sans-Serif" font-size="10.00" fill="#000000">GTRMixtureProfileProcess.cpp</text>
</a>
</g>
</g>
<!-- Node20&#45;&gt;Node29 -->
<g id="edge10" class="edge">
<title>Node20&#45;&gt;Node29</title>
<path fill="none" stroke="#191970" d="M258,-308.6079C258,-296.214 258,-280.8263 258,-271.0817"/>
<polygon fill="#191970" stroke="#191970" points="254.5001,-308.9005 258,-318.9005 261.5001,-308.9006 254.5001,-308.9005"/>
</g>
<!-- Node22 -->
<g id="node4" class="node">
<title>Node22</title>
<g id="a_node4"><a xlink:href="ExpoConjugateGTRMixtureProfileProcess_8cpp.html" target="_top" xlink:title="ExpoConjugateGTRMixtureProfile\lProcess.cpp">
<polygon fill="none" stroke="#000000" points="0,-179.5 0,-209.5 164,-209.5 164,-179.5 0,-179.5"/>
<text text-anchor="start" x="8" y="-197.5" font-family="Helvetica,sans-Serif" font-size="10.00" fill="#000000">ExpoConjugateGTRMixtureProfile</text>
<text text-anchor="middle" x="82" y="-186.5" font-family="Helvetica,sans-Serif" font-size="10.00" fill="#000000">Process.cpp</text>
</a>
</g>
</g>
<!-- Node21&#45;&gt;Node22 -->
<g id="edge3" class="edge">
<title>Node21&#45;&gt;Node22</title>
<path fill="none" stroke="#191970" d="M82,-236.0249C82,-227.128 82,-217.4287 82,-209.6432"/>
<polygon fill="#191970" stroke="#191970" points="78.5001,-236.2966 82,-246.2967 85.5001,-236.2967 78.5001,-236.2966"/>
</g>
<!-- Node23 -->
<g id="node5" class="node">
<title>Node23</title>
<g id="a_node5"><a xlink:href="ExpoConjugateGTRSBDPProfileProcess_8h.html" target="_top" xlink:title="ExpoConjugateGTRSBDPProfile\lProcess.h">
<polygon fill="none" stroke="#000000" points="232,-179.5 232,-209.5 392,-209.5 392,-179.5 232,-179.5"/>
<text text-anchor="start" x="240" y="-197.5" font-family="Helvetica,sans-Serif" font-size="10.00" fill="#000000">ExpoConjugateGTRSBDPProfile</text>
<text text-anchor="middle" x="312" y="-186.5" font-family="Helvetica,sans-Serif" font-size="10.00" fill="#000000">Process.h</text>
</a>
</g>
</g>
<!-- Node21&#45;&gt;Node23 -->
<g id="edge4" class="edge">
<title>Node21&#45;&gt;Node23</title>
<path fill="none" stroke="#191970" d="M143.6248,-243.5484C180.0307,-232.9432 225.6075,-219.6665 260.1584,-209.6017"/>
<polygon fill="#191970" stroke="#191970" points="142.2385,-240.3067 133.6165,-246.4639 144.1963,-247.0274 142.2385,-240.3067"/>
</g>
<!-- Node24 -->
<g id="node6" class="node">
<title>Node24</title>
<g id="a_node6"><a xlink:href="ExpoConjugateGTRSBDPProfileProcess_8cpp.html" target="_top" xlink:title="ExpoConjugateGTRSBDPProfile\lProcess.cpp">
<polygon fill="none" stroke="#000000" points="131,-112.5 131,-142.5 291,-142.5 291,-112.5 131,-112.5"/>
<text text-anchor="start" x="139" y="-130.5" font-family="Helvetica,sans-Serif" font-size="10.00" fill="#000000">ExpoConjugateGTRSBDPProfile</text>
<text text-anchor="middle" x="211" y="-119.5" font-family="Helvetica,sans-Serif" font-size="10.00" fill="#000000">Process.cpp</text>
</a>
</g>
</g>
<!-- Node23&#45;&gt;Node24 -->
<g id="edge5" class="edge">
<title>Node23&#45;&gt;Node24</title>
<path fill="none" stroke="#191970" d="M280.7881,-173.7951C265.6543,-163.7558 247.8008,-151.9124 233.9402,-142.7177"/>
<polygon fill="#191970" stroke="#191970" points="279.0656,-176.8525 289.3336,-179.4639 282.9352,-171.0193 279.0656,-176.8525"/>
</g>
<!-- Node25 -->
<g id="node7" class="node">
<title>Node25</title>
<g id="a_node7"><a xlink:href="RASCATGTRSBDPGammaPhyloProcess_8h.html" target="_top" xlink:title="RASCATGTRSBDPGammaPhyloProcess.h">
<polygon fill="none" stroke="#000000" points="309,-118 309,-137 519,-137 519,-118 309,-118"/>
<text text-anchor="middle" x="414" y="-125" font-family="Helvetica,sans-Serif" font-size="10.00" fill="#000000">RASCATGTRSBDPGammaPhyloProcess.h</text>
</a>
</g>
</g>
<!-- Node23&#45;&gt;Node25 -->
<g id="edge6" class="edge">
<title>Node23&#45;&gt;Node25</title>
<path fill="none" stroke="#191970" d="M343.3942,-173.8783C362.0491,-161.6246 384.8322,-146.6593 399.3791,-137.1039"/>
<polygon fill="#191970" stroke="#191970" points="341.3274,-171.0484 334.8908,-179.4639 345.1705,-176.8991 341.3274,-171.0484"/>
</g>
<!-- Node26 -->
<g id="node8" class="node">
<title>Node26</title>
<g id="a_node8"><a xlink:href="Model_8h.html" target="_top" xlink:title="Model.h">
<polygon fill="none" stroke="#000000" points="311.5,-56.5 311.5,-75.5 362.5,-75.5 362.5,-56.5 311.5,-56.5"/>
<text text-anchor="middle" x="337" y="-63.5" font-family="Helvetica,sans-Serif" font-size="10.00" fill="#000000">Model.h</text>
</a>
</g>
</g>
<!-- Node25&#45;&gt;Node26 -->
<g id="edge7" class="edge">
<title>Node25&#45;&gt;Node26</title>
<path fill="none" stroke="#191970" d="M394.1542,-111.6491C379.847,-100.222 361.0076,-85.1749 348.9468,-75.5419"/>
<polygon fill="#191970" stroke="#191970" points="391.9708,-114.3846 401.9688,-117.8906 396.3394,-108.915 391.9708,-114.3846"/>
</g>
<!-- Node28 -->
<g id="node10" class="node">
<title>Node28</title>
<g id="a_node10"><a xlink:href="RASCATGTRSBDPGammaPhyloProcess_8cpp.html" target="_top" xlink:title="RASCATGTRSBDPGammaPhyloProcess.cpp">
<polygon fill="none" stroke="#000000" points="380.5,-56.5 380.5,-75.5 601.5,-75.5 601.5,-56.5 380.5,-56.5"/>
<text text-anchor="middle" x="491" y="-63.5" font-family="Helvetica,sans-Serif" font-size="10.00" fill="#000000">RASCATGTRSBDPGammaPhyloProcess.cpp</text>
</a>
</g>
</g>
<!-- Node25&#45;&gt;Node28 -->
<g id="edge9" class="edge">
<title>Node25&#45;&gt;Node28</title>
<path fill="none" stroke="#191970" d="M433.8458,-111.6491C448.153,-100.222 466.9924,-85.1749 479.0532,-75.5419"/>
<polygon fill="#191970" stroke="#191970" points="431.6606,-108.915 426.0313,-117.8906 436.0292,-114.3846 431.6606,-108.915"/>
</g>
<!-- Node27 -->
<g id="node9" class="node">
<title>Node27</title>
<g id="a_node9"><a xlink:href="PB_8cpp.html" target="_top" xlink:title="PB.cpp">
<polygon fill="none" stroke="#000000" points="312.5,-.5 312.5,-19.5 361.5,-19.5 361.5,-.5 312.5,-.5"/>
<text text-anchor="middle" x="337" y="-7.5" font-family="Helvetica,sans-Serif" font-size="10.00" fill="#000000">PB.cpp</text>
</a>
</g>
</g>
<!-- Node26&#45;&gt;Node27 -->
<g id="edge8" class="edge">
<title>Node26&#45;&gt;Node27</title>
<path fill="none" stroke="#191970" d="M337,-46.1575C337,-37.155 337,-26.9199 337,-19.6427"/>
<polygon fill="#191970" stroke="#191970" points="333.5001,-46.2455 337,-56.2455 340.5001,-46.2456 333.5001,-46.2455"/>
</g>
<!-- Node30&#45;&gt;Node23 -->
<g id="edge12" class="edge">
<title>Node30&#45;&gt;Node23</title>
<path fill="none" stroke="#191970" d="M422.0903,-312.6857C409.6714,-302.921 393.8845,-289.8411 381,-277 359.0458,-255.1198 336.551,-226.9266 323.4477,-209.8076"/>
<polygon fill="#191970" stroke="#191970" points="420.0248,-315.513 430.0729,-318.8726 424.313,-309.9802 420.0248,-315.513"/>
</g>
<!-- Node31 -->
<g id="node13" class="node">
<title>Node31</title>
<g id="a_node13"><a xlink:href="MatrixSBDPProfileProcess_8cpp.html" target="_top" xlink:title="MatrixSBDPProfileProcess.cpp">
<polygon fill="none" stroke="#000000" points="390,-252 390,-271 544,-271 544,-252 390,-252"/>
<text text-anchor="middle" x="467" y="-259" font-family="Helvetica,sans-Serif" font-size="10.00" fill="#000000">MatrixSBDPProfileProcess.cpp</text>
</a>
</g>
</g>
<!-- Node30&#45;&gt;Node31 -->
<g id="edge13" class="edge">
<title>Node30&#45;&gt;Node31</title>
<path fill="none" stroke="#191970" d="M449.8551,-309.3628C454.3393,-296.8444 460.0059,-281.0252 463.5678,-271.0817"/>
<polygon fill="#191970" stroke="#191970" points="446.516,-308.306 446.4386,-318.9005 453.1059,-310.6666 446.516,-308.306"/>
</g>
<!-- Node33 -->
<g id="node15" class="node">
<title>Node33</title>
<g id="a_node15"><a xlink:href="GeneralPathSuffStatMatrixMixtureProfileProcess_8cpp.html" target="_top" xlink:title="GeneralPathSuffStatMatrix\lMixtureProfileProcess.cpp">
<polygon fill="none" stroke="#000000" points="562,-246.5 562,-276.5 696,-276.5 696,-246.5 562,-246.5"/>
<text text-anchor="start" x="570" y="-264.5" font-family="Helvetica,sans-Serif" font-size="10.00" fill="#000000">GeneralPathSuffStatMatrix</text>
<text text-anchor="middle" x="629" y="-253.5" font-family="Helvetica,sans-Serif" font-size="10.00" fill="#000000">MixtureProfileProcess.cpp</text>
</a>
</g>
</g>
<!-- Node32&#45;&gt;Node33 -->
<g id="edge15" class="edge">
<title>Node32&#45;&gt;Node33</title>
<path fill="none" stroke="#191970" d="M610.6468,-303.9021C614.5997,-294.7696 618.9645,-284.6854 622.4455,-276.6432"/>
<polygon fill="#191970" stroke="#191970" points="607.3408,-302.7291 606.5805,-313.2967 613.7649,-305.5097 607.3408,-302.7291"/>
</g>
</g>
</svg>
