<?xml version="1.0" encoding="UTF-8" standalone="no"?>
<!DOCTYPE svg PUBLIC "-//W3C//DTD SVG 1.1//EN"
 "http://www.w3.org/Graphics/SVG/1.1/DTD/svg11.dtd">
<!-- Generated by graphviz version 2.38.0 (20140413.2041)
 -->
<!-- Title: MatrixOneProfileProcess.cpp Pages: 1 -->
<svg width="676pt" height="364pt"
 viewBox="0.00 0.00 675.50 364.00" xmlns="http://www.w3.org/2000/svg" xmlns:xlink="http://www.w3.org/1999/xlink">
<g id="graph0" class="graph" transform="scale(1 1) rotate(0) translate(4 360)">
<title>MatrixOneProfileProcess.cpp</title>
<!-- Node0 -->
<g id="node1" class="node"><title>Node0</title>
<polygon fill="#bfbfbf" stroke="black" points="424,-336.5 424,-355.5 568,-355.5 568,-336.5 424,-336.5"/>
<text text-anchor="middle" x="496" y="-343.5" font-family="Helvetica,sans-Serif" font-size="10.00">MatrixOneProfileProcess.cpp</text>
</g>
<!-- Node1 -->
<g id="node2" class="node"><title>Node1</title>
<g id="a_node2"><a xlink:href="MatrixOneProfileProcess_8h.html" target="_top" xlink:title="MatrixOneProfileProcess.h">
<polygon fill="none" stroke="black" points="374,-280.5 374,-299.5 508,-299.5 508,-280.5 374,-280.5"/>
<text text-anchor="middle" x="441" y="-287.5" font-family="Helvetica,sans-Serif" font-size="10.00">MatrixOneProfileProcess.h</text>
</a>
</g>
</g>
<!-- Node0&#45;&gt;Node1 -->
<g id="edge1" class="edge"><title>Node0&#45;&gt;Node1</title>
<path fill="none" stroke="midnightblue" d="M486.918,-336.083C478.829,-328.141 466.805,-316.335 457.09,-306.797"/>
<polygon fill="midnightblue" stroke="midnightblue" points="459.501,-304.26 449.913,-299.751 454.597,-309.254 459.501,-304.26"/>
</g>
<!-- Node6 -->
<g id="node7" class="node"><title>Node6</title>
<g id="a_node7"><a xlink:href="Random_8h.html" target="_top" xlink:title="Random.h">
<polygon fill="none" stroke="black" points="359,-112.5 359,-131.5 421,-131.5 421,-112.5 359,-112.5"/>
<text text-anchor="middle" x="390" y="-119.5" font-family="Helvetica,sans-Serif" font-size="10.00">Random.h</text>
</a>
</g>
</g>
<!-- Node0&#45;&gt;Node6 -->
<g id="edge29" class="edge"><title>Node0&#45;&gt;Node6</title>
<path fill="none" stroke="midnightblue" d="M428.468,-336.447C405.073,-330.102 380.784,-319.089 365,-300 326.481,-253.416 361.047,-175.258 379.784,-140.537"/>
<polygon fill="midnightblue" stroke="midnightblue" points="382.958,-142.033 384.785,-131.596 376.848,-138.615 382.958,-142.033"/>
</g>
<!-- Node20 -->
<g id="node21" class="node"><title>Node20</title>
<polygon fill="none" stroke="#bfbfbf" points="526.5,-280.5 526.5,-299.5 575.5,-299.5 575.5,-280.5 526.5,-280.5"/>
<text text-anchor="middle" x="551" y="-287.5" font-family="Helvetica,sans-Serif" font-size="10.00">cassert</text>
</g>
<!-- Node0&#45;&gt;Node20 -->
<g id="edge30" class="edge"><title>Node0&#45;&gt;Node20</title>
<path fill="none" stroke="midnightblue" d="M505.082,-336.083C513.171,-328.141 525.195,-316.335 534.91,-306.797"/>
<polygon fill="midnightblue" stroke="midnightblue" points="537.403,-309.254 542.087,-299.751 532.499,-304.26 537.403,-309.254"/>
</g>
<!-- Node21 -->
<g id="node22" class="node"><title>Node21</title>
<g id="a_node22"><a xlink:href="Parallel_8h.html" target="_top" xlink:title="Parallel.h">
<polygon fill="none" stroke="black" points="609.5,-280.5 609.5,-299.5 666.5,-299.5 666.5,-280.5 609.5,-280.5"/>
<text text-anchor="middle" x="638" y="-287.5" font-family="Helvetica,sans-Serif" font-size="10.00">Parallel.h</text>
</a>
</g>
</g>
<!-- Node0&#45;&gt;Node21 -->
<g id="edge31" class="edge"><title>Node0&#45;&gt;Node21</title>
<path fill="none" stroke="midnightblue" d="M518.5,-336.444C542.077,-327.478 579.322,-313.314 605.964,-303.183"/>
<polygon fill="midnightblue" stroke="midnightblue" points="607.502,-306.342 615.605,-299.516 605.014,-299.8 607.502,-306.342"/>
</g>
<!-- Node2 -->
<g id="node3" class="node"><title>Node2</title>
<g id="a_node3"><a xlink:href="MatrixProfileProcess_8h.html" target="_top" xlink:title="MatrixProfileProcess.h">
<polygon fill="none" stroke="black" points="492,-224.5 492,-243.5 608,-243.5 608,-224.5 492,-224.5"/>
<text text-anchor="middle" x="550" y="-231.5" font-family="Helvetica,sans-Serif" font-size="10.00">MatrixProfileProcess.h</text>
</a>
</g>
</g>
<!-- Node1&#45;&gt;Node2 -->
<g id="edge2" class="edge"><title>Node1&#45;&gt;Node2</title>
<path fill="none" stroke="midnightblue" d="M458.513,-280.324C476.072,-271.625 503.331,-258.12 523.531,-248.113"/>
<polygon fill="midnightblue" stroke="midnightblue" points="525.124,-251.23 532.531,-243.655 522.016,-244.958 525.124,-251.23"/>
</g>
<!-- Node19 -->
<g id="node20" class="node"><title>Node19</title>
<g id="a_node20"><a xlink:href="OneProfileProcess_8h.html" target="_top" xlink:title="OneProfileProcess.h">
<polygon fill="none" stroke="black" points="366.5,-224.5 366.5,-243.5 473.5,-243.5 473.5,-224.5 366.5,-224.5"/>
<text text-anchor="middle" x="420" y="-231.5" font-family="Helvetica,sans-Serif" font-size="10.00">OneProfileProcess.h</text>
</a>
</g>
</g>
<!-- Node1&#45;&gt;Node19 -->
<g id="edge26" class="edge"><title>Node1&#45;&gt;Node19</title>
<path fill="none" stroke="midnightblue" d="M437.532,-280.083C434.688,-272.77 430.571,-262.181 427.04,-253.103"/>
<polygon fill="midnightblue" stroke="midnightblue" points="430.29,-251.803 423.403,-243.751 423.766,-254.34 430.29,-251.803"/>
</g>
<!-- Node3 -->
<g id="node4" class="node"><title>Node3</title>
<g id="a_node4"><a xlink:href="SubMatrix_8h.html" target="_top" xlink:title="SubMatrix.h">
<polygon fill="none" stroke="black" points="515.5,-168.5 515.5,-187.5 584.5,-187.5 584.5,-168.5 515.5,-168.5"/>
<text text-anchor="middle" x="550" y="-175.5" font-family="Helvetica,sans-Serif" font-size="10.00">SubMatrix.h</text>
</a>
</g>
</g>
<!-- Node2&#45;&gt;Node3 -->
<g id="edge3" class="edge"><title>Node2&#45;&gt;Node3</title>
<path fill="none" stroke="midnightblue" d="M550,-224.083C550,-217.006 550,-206.861 550,-197.986"/>
<polygon fill="midnightblue" stroke="midnightblue" points="553.5,-197.751 550,-187.751 546.5,-197.751 553.5,-197.751"/>
</g>
<!-- Node11 -->
<g id="node12" class="node"><title>Node11</title>
<g id="a_node12"><a xlink:href="ProfileProcess_8h.html" target="_top" xlink:title="ProfileProcess.h">
<polygon fill="none" stroke="black" points="215.5,-168.5 215.5,-187.5 304.5,-187.5 304.5,-168.5 215.5,-168.5"/>
<text text-anchor="middle" x="260" y="-175.5" font-family="Helvetica,sans-Serif" font-size="10.00">ProfileProcess.h</text>
</a>
</g>
</g>
<!-- Node2&#45;&gt;Node11 -->
<g id="edge13" class="edge"><title>Node2&#45;&gt;Node11</title>
<path fill="none" stroke="midnightblue" d="M504.049,-224.444C452.628,-214.869 369.373,-199.366 314.655,-189.177"/>
<polygon fill="midnightblue" stroke="midnightblue" points="315.255,-185.729 304.783,-187.339 313.974,-192.611 315.255,-185.729"/>
</g>
<!-- Node4 -->
<g id="node5" class="node"><title>Node4</title>
<polygon fill="none" stroke="#bfbfbf" points="309,-0.5 309,-19.5 363,-19.5 363,-0.5 309,-0.5"/>
<text text-anchor="middle" x="336" y="-7.5" font-family="Helvetica,sans-Serif" font-size="10.00">iostream</text>
</g>
<!-- Node3&#45;&gt;Node4 -->
<g id="edge4" class="edge"><title>Node3&#45;&gt;Node4</title>
<path fill="none" stroke="midnightblue" d="M556.822,-168.258C572.818,-146.644 609.315,-89.9894 581,-56 555.03,-24.8255 435.5,-15.1748 373.52,-12.2438"/>
<polygon fill="midnightblue" stroke="midnightblue" points="373.513,-8.74024 363.37,-11.7997 373.207,-15.7335 373.513,-8.74024"/>
</g>
<!-- Node5 -->
<g id="node6" class="node"><title>Node5</title>
<polygon fill="none" stroke="#bfbfbf" points="528,-56.5 528,-75.5 572,-75.5 572,-56.5 528,-56.5"/>
<text text-anchor="middle" x="550" y="-63.5" font-family="Helvetica,sans-Serif" font-size="10.00">cmath</text>
</g>
<!-- Node3&#45;&gt;Node5 -->
<g id="edge5" class="edge"><title>Node3&#45;&gt;Node5</title>
<path fill="none" stroke="midnightblue" d="M550,-168.368C550,-150.617 550,-109.666 550,-85.5974"/>
<polygon fill="midnightblue" stroke="midnightblue" points="553.5,-85.5914 550,-75.5914 546.5,-85.5915 553.5,-85.5914"/>
</g>
<!-- Node3&#45;&gt;Node6 -->
<g id="edge6" class="edge"><title>Node3&#45;&gt;Node6</title>
<path fill="none" stroke="midnightblue" d="M524.648,-168.444C497.731,-159.359 455.004,-144.939 424.913,-134.783"/>
<polygon fill="midnightblue" stroke="midnightblue" points="425.828,-131.398 415.234,-131.516 423.59,-138.031 425.828,-131.398"/>
</g>
<!-- Node6&#45;&gt;Node4 -->
<g id="edge9" class="edge"><title>Node6&#45;&gt;Node4</title>
<path fill="none" stroke="midnightblue" d="M397.234,-112.127C406.863,-99.1642 421.517,-74.5755 411,-56 402.653,-41.2584 387.338,-30.8192 372.713,-23.7321"/>
<polygon fill="midnightblue" stroke="midnightblue" points="373.842,-20.4041 363.282,-19.5474 371.003,-26.8025 373.842,-20.4041"/>
</g>
<!-- Node6&#45;&gt;Node5 -->
<g id="edge7" class="edge"><title>Node6&#45;&gt;Node5</title>
<path fill="none" stroke="midnightblue" d="M415.352,-112.444C443.219,-103.038 488.032,-87.9142 518.225,-77.7242"/>
<polygon fill="midnightblue" stroke="midnightblue" points="519.502,-80.9871 527.858,-74.473 517.264,-74.3546 519.502,-80.9871"/>
</g>
<!-- Node7 -->
<g id="node8" class="node"><title>Node7</title>
<polygon fill="none" stroke="#bfbfbf" points="106.5,-0.5 106.5,-19.5 151.5,-19.5 151.5,-0.5 106.5,-0.5"/>
<text text-anchor="middle" x="129" y="-7.5" font-family="Helvetica,sans-Serif" font-size="10.00">cstdlib</text>
</g>
<!-- Node6&#45;&gt;Node7 -->
<g id="edge8" class="edge"><title>Node6&#45;&gt;Node7</title>
<path fill="none" stroke="midnightblue" d="M358.799,-116.345C300.289,-107.394 178.563,-87.6423 163,-76 147.737,-64.5819 138.699,-44.2967 133.825,-29.4157"/>
<polygon fill="midnightblue" stroke="midnightblue" points="137.159,-28.347 130.982,-19.7393 130.443,-30.3204 137.159,-28.347"/>
</g>
<!-- Node8 -->
<g id="node9" class="node"><title>Node8</title>
<polygon fill="none" stroke="#bfbfbf" points="458,-56.5 458,-75.5 510,-75.5 510,-56.5 458,-56.5"/>
<text text-anchor="middle" x="484" y="-63.5" font-family="Helvetica,sans-Serif" font-size="10.00">sstream</text>
</g>
<!-- Node6&#45;&gt;Node8 -->
<g id="edge10" class="edge"><title>Node6&#45;&gt;Node8</title>
<path fill="none" stroke="midnightblue" d="M405.103,-112.324C419.903,-103.822 442.694,-90.7288 459.982,-80.7975"/>
<polygon fill="midnightblue" stroke="midnightblue" points="462.007,-83.6707 468.935,-75.6545 458.52,-77.6009 462.007,-83.6707"/>
</g>
<!-- Node9 -->
<g id="node10" class="node"><title>Node9</title>
<polygon fill="none" stroke="#bfbfbf" points="284,-56.5 284,-75.5 334,-75.5 334,-56.5 284,-56.5"/>
<text text-anchor="middle" x="309" y="-63.5" font-family="Helvetica,sans-Serif" font-size="10.00">iomanip</text>
</g>
<!-- Node6&#45;&gt;Node9 -->
<g id="edge11" class="edge"><title>Node6&#45;&gt;Node9</title>
<path fill="none" stroke="midnightblue" d="M376.986,-112.324C364.468,-103.979 345.318,-91.2122 330.529,-81.3524"/>
<polygon fill="midnightblue" stroke="midnightblue" points="332.244,-78.2894 321.982,-75.6545 328.361,-84.1137 332.244,-78.2894"/>
</g>
<!-- Node10 -->
<g id="node11" class="node"><title>Node10</title>
<polygon fill="none" stroke="#bfbfbf" points="352,-56.5 352,-75.5 402,-75.5 402,-56.5 352,-56.5"/>
<text text-anchor="middle" x="377" y="-63.5" font-family="Helvetica,sans-Serif" font-size="10.00">fstream</text>
</g>
<!-- Node6&#45;&gt;Node10 -->
<g id="edge12" class="edge"><title>Node6&#45;&gt;Node10</title>
<path fill="none" stroke="midnightblue" d="M387.853,-112.083C386.131,-104.927 383.653,-94.6353 381.5,-85.6911"/>
<polygon fill="midnightblue" stroke="midnightblue" points="384.85,-84.6541 379.107,-75.7511 378.045,-86.2925 384.85,-84.6541"/>
</g>
<!-- Node11&#45;&gt;Node4 -->
<g id="edge24" class="edge"><title>Node11&#45;&gt;Node4</title>
<path fill="none" stroke="midnightblue" d="M258.873,-168.358C256.584,-147.443 253.304,-93.091 275,-56 282.731,-42.784 296.034,-32.2861 308.247,-24.7654"/>
<polygon fill="midnightblue" stroke="midnightblue" points="310.328,-27.6072 317.265,-19.5989 306.848,-21.5335 310.328,-27.6072"/>
</g>
<!-- Node12 -->
<g id="node13" class="node"><title>Node12</title>
<g id="a_node13"><a xlink:href="Chrono_8h.html" target="_top" xlink:title="Chrono.h">
<polygon fill="none" stroke="black" points="172,-56.5 172,-75.5 228,-75.5 228,-56.5 172,-56.5"/>
<text text-anchor="middle" x="200" y="-63.5" font-family="Helvetica,sans-Serif" font-size="10.00">Chrono.h</text>
</a>
</g>
</g>
<!-- Node11&#45;&gt;Node12 -->
<g id="edge14" class="edge"><title>Node11&#45;&gt;Node12</title>
<path fill="none" stroke="midnightblue" d="M255.292,-168.368C245.478,-150.376 222.664,-108.55 209.615,-84.6267"/>
<polygon fill="midnightblue" stroke="midnightblue" points="212.547,-82.6944 204.686,-75.5914 206.402,-86.0464 212.547,-82.6944"/>
</g>
<!-- Node15 -->
<g id="node16" class="node"><title>Node15</title>
<g id="a_node16"><a xlink:href="StateSpace_8h.html" target="_top" xlink:title="StateSpace.h">
<polygon fill="none" stroke="black" points="67,-112.5 67,-131.5 143,-131.5 143,-112.5 67,-112.5"/>
<text text-anchor="middle" x="105" y="-119.5" font-family="Helvetica,sans-Serif" font-size="10.00">StateSpace.h</text>
</a>
</g>
</g>
<!-- Node11&#45;&gt;Node15 -->
<g id="edge19" class="edge"><title>Node11&#45;&gt;Node15</title>
<path fill="none" stroke="midnightblue" d="M235.44,-168.444C209.477,-159.399 168.332,-145.064 139.203,-134.916"/>
<polygon fill="midnightblue" stroke="midnightblue" points="140.04,-131.501 129.445,-131.516 137.737,-138.112 140.04,-131.501"/>
</g>
<!-- Node18 -->
<g id="node19" class="node"><title>Node18</title>
<polygon fill="none" stroke="#bfbfbf" points="284.5,-112.5 284.5,-131.5 319.5,-131.5 319.5,-112.5 284.5,-112.5"/>
<text text-anchor="middle" x="302" y="-119.5" font-family="Helvetica,sans-Serif" font-size="10.00">map</text>
</g>
<!-- Node11&#45;&gt;Node18 -->
<g id="edge25" class="edge"><title>Node11&#45;&gt;Node18</title>
<path fill="none" stroke="midnightblue" d="M266.935,-168.083C272.929,-160.377 281.752,-149.033 289.048,-139.653"/>
<polygon fill="midnightblue" stroke="midnightblue" points="291.817,-141.793 295.194,-131.751 286.291,-137.496 291.817,-141.793"/>
</g>
<!-- Node12&#45;&gt;Node4 -->
<g id="edge17" class="edge"><title>Node12&#45;&gt;Node4</title>
<path fill="none" stroke="midnightblue" d="M221.55,-56.4435C244.031,-47.5171 279.488,-33.4387 304.98,-23.3168"/>
<polygon fill="midnightblue" stroke="midnightblue" points="306.549,-26.4598 314.551,-19.5164 303.965,-19.9539 306.549,-26.4598"/>
</g>
<!-- Node12&#45;&gt;Node7 -->
<g id="edge18" class="edge"><title>Node12&#45;&gt;Node7</title>
<path fill="none" stroke="midnightblue" d="M188.593,-56.324C177.891,-48.1849 161.659,-35.8395 148.837,-26.0874"/>
<polygon fill="midnightblue" stroke="midnightblue" points="150.693,-23.1018 140.615,-19.8339 146.456,-28.6734 150.693,-23.1018"/>
</g>
<!-- Node13 -->
<g id="node14" class="node"><title>Node13</title>
<polygon fill="none" stroke="#bfbfbf" points="169.5,-0.5 169.5,-19.5 210.5,-19.5 210.5,-0.5 169.5,-0.5"/>
<text text-anchor="middle" x="190" y="-7.5" font-family="Helvetica,sans-Serif" font-size="10.00">ctime</text>
</g>
<!-- Node12&#45;&gt;Node13 -->
<g id="edge15" class="edge"><title>Node12&#45;&gt;Node13</title>
<path fill="none" stroke="midnightblue" d="M198.349,-56.083C197.024,-48.9272 195.118,-38.6353 193.461,-29.6911"/>
<polygon fill="midnightblue" stroke="midnightblue" points="196.883,-28.9466 191.621,-19.7511 190,-30.2212 196.883,-28.9466"/>
</g>
<!-- Node14 -->
<g id="node15" class="node"><title>Node14</title>
<polygon fill="none" stroke="#bfbfbf" points="229,-0.5 229,-19.5 291,-19.5 291,-0.5 229,-0.5"/>
<text text-anchor="middle" x="260" y="-7.5" font-family="Helvetica,sans-Serif" font-size="10.00">sys/time.h</text>
</g>
<!-- Node12&#45;&gt;Node14 -->
<g id="edge16" class="edge"><title>Node12&#45;&gt;Node14</title>
<path fill="none" stroke="midnightblue" d="M209.64,-56.324C218.51,-48.3414 231.875,-36.3128 242.608,-26.6529"/>
<polygon fill="midnightblue" stroke="midnightblue" points="245.093,-29.1251 250.185,-19.8339 240.41,-23.922 245.093,-29.1251"/>
</g>
<!-- Node16 -->
<g id="node17" class="node"><title>Node16</title>
<g id="a_node17"><a xlink:href="BiologicalSequences_8h.html" target="_top" xlink:title="BiologicalSequences.h">
<polygon fill="none" stroke="black" points="0,-56.5 0,-75.5 116,-75.5 116,-56.5 0,-56.5"/>
<text text-anchor="middle" x="58" y="-63.5" font-family="Helvetica,sans-Serif" font-size="10.00">BiologicalSequences.h</text>
</a>
</g>
</g>
<!-- Node15&#45;&gt;Node16 -->
<g id="edge20" class="edge"><title>Node15&#45;&gt;Node16</title>
<path fill="none" stroke="midnightblue" d="M97.2389,-112.083C90.4632,-104.298 80.4568,-92.8015 72.2449,-83.3665"/>
<polygon fill="midnightblue" stroke="midnightblue" points="74.822,-80.9963 65.6167,-75.7511 69.5419,-85.592 74.822,-80.9963"/>
</g>
<!-- Node16&#45;&gt;Node4 -->
<g id="edge22" class="edge"><title>Node16&#45;&gt;Node4</title>
<path fill="none" stroke="midnightblue" d="M109.17,-56.4205C156.071,-48.3462 227.655,-35.4951 298.871,-20.1424"/>
<polygon fill="midnightblue" stroke="midnightblue" points="299.886,-23.5036 308.915,-17.9597 298.4,-16.6633 299.886,-23.5036"/>
</g>
<!-- Node16&#45;&gt;Node7 -->
<g id="edge21" class="edge"><title>Node16&#45;&gt;Node7</title>
<path fill="none" stroke="midnightblue" d="M69.4074,-56.324C80.1088,-48.1849 96.3407,-35.8395 109.163,-26.0874"/>
<polygon fill="midnightblue" stroke="midnightblue" points="111.544,-28.6734 117.385,-19.8339 107.307,-23.1018 111.544,-28.6734"/>
</g>
<!-- Node17 -->
<g id="node18" class="node"><title>Node17</title>
<polygon fill="none" stroke="#bfbfbf" points="37.5,-0.5 37.5,-19.5 78.5,-19.5 78.5,-0.5 37.5,-0.5"/>
<text text-anchor="middle" x="58" y="-7.5" font-family="Helvetica,sans-Serif" font-size="10.00">string</text>
</g>
<!-- Node16&#45;&gt;Node17 -->
<g id="edge23" class="edge"><title>Node16&#45;&gt;Node17</title>
<path fill="none" stroke="midnightblue" d="M58,-56.083C58,-49.0059 58,-38.8611 58,-29.9865"/>
<polygon fill="midnightblue" stroke="midnightblue" points="61.5001,-29.751 58,-19.7511 54.5001,-29.7511 61.5001,-29.751"/>
</g>
<!-- Node19&#45;&gt;Node5 -->
<g id="edge27" class="edge"><title>Node19&#45;&gt;Node5</title>
<path fill="none" stroke="midnightblue" d="M426.989,-224.075C447.807,-197.493 509.639,-118.538 536.872,-83.7633"/>
<polygon fill="midnightblue" stroke="midnightblue" points="539.88,-85.5992 543.29,-75.5681 534.369,-81.2832 539.88,-85.5992"/>
</g>
<!-- Node19&#45;&gt;Node11 -->
<g id="edge28" class="edge"><title>Node19&#45;&gt;Node11</title>
<path fill="none" stroke="midnightblue" d="M394.648,-224.444C367.731,-215.359 325.004,-200.939 294.913,-190.783"/>
<polygon fill="midnightblue" stroke="midnightblue" points="295.828,-187.398 285.234,-187.516 293.59,-194.031 295.828,-187.398"/>
</g>
<!-- Node22 -->
<g id="node23" class="node"><title>Node22</title>
<polygon fill="none" stroke="#bfbfbf" points="626.5,-224.5 626.5,-243.5 667.5,-243.5 667.5,-224.5 626.5,-224.5"/>
<text text-anchor="middle" x="647" y="-231.5" font-family="Helvetica,sans-Serif" font-size="10.00">mpi.h</text>
</g>
<!-- Node21&#45;&gt;Node22 -->
<g id="edge32" class="edge"><title>Node21&#45;&gt;Node22</title>
<path fill="none" stroke="midnightblue" d="M639.486,-280.083C640.679,-272.927 642.394,-262.635 643.885,-253.691"/>
<polygon fill="midnightblue" stroke="midnightblue" points="647.35,-254.19 645.541,-243.751 640.445,-253.04 647.35,-254.19"/>
</g>
</g>
</svg>
