<?xml version="1.0" encoding="UTF-8" standalone="no"?>
<!DOCTYPE svg PUBLIC "-//W3C//DTD SVG 1.1//EN"
 "http://www.w3.org/Graphics/SVG/1.1/DTD/svg11.dtd">
<!-- Generated by graphviz version 2.38.0 (20140413.2041)
 -->
<!-- Title: MatrixSBDPProfileProcess.h Pages: 1 -->
<svg width="1136pt" height="330pt"
 viewBox="0.00 0.00 1135.50 330.00" xmlns="http://www.w3.org/2000/svg" xmlns:xlink="http://www.w3.org/1999/xlink">
<g id="graph0" class="graph" transform="scale(1 1) rotate(0) translate(4 326)">
<title>MatrixSBDPProfileProcess.h</title>
<!-- Node22 -->
<g id="node1" class="node"><title>Node22</title>
<polygon fill="#bfbfbf" stroke="black" points="594,-302.5 594,-321.5 737,-321.5 737,-302.5 594,-302.5"/>
<text text-anchor="middle" x="665.5" y="-309.5" font-family="Helvetica,sans-Serif" font-size="10.00">MatrixSBDPProfileProcess.h</text>
</g>
<!-- Node23 -->
<g id="node2" class="node"><title>Node23</title>
<g id="a_node2"><a xlink:href="AACodonMutSelSBDPProfileProcess_8h.html" target="_top" xlink:title="AACodonMutSelSBDPProfile\lProcess.h">
<polygon fill="none" stroke="black" points="121,-235.5 121,-265.5 266,-265.5 266,-235.5 121,-235.5"/>
<text text-anchor="start" x="129" y="-253.5" font-family="Helvetica,sans-Serif" font-size="10.00">AACodonMutSelSBDPProfile</text>
<text text-anchor="middle" x="193.5" y="-242.5" font-family="Helvetica,sans-Serif" font-size="10.00">Process.h</text>
</a>
</g>
</g>
<!-- Node22&#45;&gt;Node23 -->
<g id="edge1" class="edge"><title>Node22&#45;&gt;Node23</title>
<path fill="none" stroke="midnightblue" d="M587.806,-301.206C498.509,-289.949 353.102,-271.619 266.036,-260.644"/>
<polygon fill="midnightblue" stroke="midnightblue" points="587.515,-304.697 597.874,-302.475 588.39,-297.752 587.515,-304.697"/>
</g>
<!-- Node30 -->
<g id="node9" class="node"><title>Node30</title>
<g id="a_node9"><a xlink:href="CodonMutSelSBDPProfileProcess_8h.html" target="_top" xlink:title="CodonMutSelSBDPProfileProcess.h">
<polygon fill="none" stroke="black" points="577.5,-241 577.5,-260 753.5,-260 753.5,-241 577.5,-241"/>
<text text-anchor="middle" x="665.5" y="-248" font-family="Helvetica,sans-Serif" font-size="10.00">CodonMutSelSBDPProfileProcess.h</text>
</a>
</g>
</g>
<!-- Node22&#45;&gt;Node30 -->
<g id="edge8" class="edge"><title>Node22&#45;&gt;Node30</title>
<path fill="none" stroke="midnightblue" d="M665.5,-292.317C665.5,-281.496 665.5,-268.398 665.5,-260.009"/>
<polygon fill="midnightblue" stroke="midnightblue" points="662,-292.475 665.5,-302.475 669,-292.475 662,-292.475"/>
</g>
<!-- Node34 -->
<g id="node13" class="node"><title>Node34</title>
<g id="a_node13"><a xlink:href="ExpoConjugateGTRSBDPProfileProcess_8h.html" target="_top" xlink:title="ExpoConjugateGTRSBDPProfile\lProcess.h">
<polygon fill="none" stroke="black" points="399.5,-235.5 399.5,-265.5 559.5,-265.5 559.5,-235.5 399.5,-235.5"/>
<text text-anchor="start" x="407.5" y="-253.5" font-family="Helvetica,sans-Serif" font-size="10.00">ExpoConjugateGTRSBDPProfile</text>
<text text-anchor="middle" x="479.5" y="-242.5" font-family="Helvetica,sans-Serif" font-size="10.00">Process.h</text>
</a>
</g>
</g>
<!-- Node22&#45;&gt;Node34 -->
<g id="edge13" class="edge"><title>Node22&#45;&gt;Node34</title>
<path fill="none" stroke="midnightblue" d="M629.103,-299.357C598.796,-289.662 555.545,-275.826 523.337,-265.523"/>
<polygon fill="midnightblue" stroke="midnightblue" points="628.26,-302.762 638.851,-302.475 630.393,-296.095 628.26,-302.762"/>
</g>
<!-- Node38 -->
<g id="node17" class="node"><title>Node38</title>
<g id="a_node17"><a xlink:href="GeneralPathSuffStatGTRSBDPProfileProcess_8h.html" target="_top" xlink:title="GeneralPathSuffStatGTRSBDPProfile\lProcess.h">
<polygon fill="none" stroke="black" points="772,-235.5 772,-265.5 955,-265.5 955,-235.5 772,-235.5"/>
<text text-anchor="start" x="780" y="-253.5" font-family="Helvetica,sans-Serif" font-size="10.00">GeneralPathSuffStatGTRSBDPProfile</text>
<text text-anchor="middle" x="863.5" y="-242.5" font-family="Helvetica,sans-Serif" font-size="10.00">Process.h</text>
</a>
</g>
</g>
<!-- Node22&#45;&gt;Node38 -->
<g id="edge18" class="edge"><title>Node22&#45;&gt;Node38</title>
<path fill="none" stroke="midnightblue" d="M703.825,-299.483C736.107,-289.782 782.399,-275.871 816.835,-265.523"/>
<polygon fill="midnightblue" stroke="midnightblue" points="702.438,-296.245 693.869,-302.475 704.453,-302.949 702.438,-296.245"/>
</g>
<!-- Node40 -->
<g id="node19" class="node"><title>Node40</title>
<g id="a_node19"><a xlink:href="MatrixSBDPProfileProcess_8cpp.html" target="_top" xlink:title="MatrixSBDPProfileProcess.cpp">
<polygon fill="none" stroke="black" points="973.5,-241 973.5,-260 1127.5,-260 1127.5,-241 973.5,-241"/>
<text text-anchor="middle" x="1050.5" y="-248" font-family="Helvetica,sans-Serif" font-size="10.00">MatrixSBDPProfileProcess.cpp</text>
</a>
</g>
</g>
<!-- Node22&#45;&gt;Node40 -->
<g id="edge20" class="edge"><title>Node22&#45;&gt;Node40</title>
<path fill="none" stroke="midnightblue" d="M734.482,-300.971C795.119,-292.071 885.726,-278.568 964.5,-266 976.312,-264.115 989.024,-262.013 1000.95,-260.007"/>
<polygon fill="midnightblue" stroke="midnightblue" points="733.654,-297.555 724.268,-302.468 734.669,-304.481 733.654,-297.555"/>
</g>
<!-- Node24 -->
<g id="node3" class="node"><title>Node24</title>
<g id="a_node3"><a xlink:href="AACodonMutSelSBDPSubstitutionProcess_8h.html" target="_top" xlink:title="AACodonMutSelSBDPSubstitution\lProcess.h">
<polygon fill="none" stroke="black" points="0,-168.5 0,-198.5 169,-198.5 169,-168.5 0,-168.5"/>
<text text-anchor="start" x="8" y="-186.5" font-family="Helvetica,sans-Serif" font-size="10.00">AACodonMutSelSBDPSubstitution</text>
<text text-anchor="middle" x="84.5" y="-175.5" font-family="Helvetica,sans-Serif" font-size="10.00">Process.h</text>
</a>
</g>
</g>
<!-- Node23&#45;&gt;Node24 -->
<g id="edge2" class="edge"><title>Node23&#45;&gt;Node24</title>
<path fill="none" stroke="midnightblue" d="M160.825,-230.015C143.863,-219.9 123.522,-207.77 108.105,-198.577"/>
<polygon fill="midnightblue" stroke="midnightblue" points="159.467,-233.28 169.849,-235.396 163.052,-227.268 159.467,-233.28"/>
</g>
<!-- Node25 -->
<g id="node4" class="node"><title>Node25</title>
<g id="a_node4"><a xlink:href="AACodonMutSelSBDPPhyloProcess_8h.html" target="_top" xlink:title="AACodonMutSelSBDPPhyloProcess.h">
<polygon fill="none" stroke="black" points="24.5,-112.5 24.5,-131.5 210.5,-131.5 210.5,-112.5 24.5,-112.5"/>
<text text-anchor="middle" x="117.5" y="-119.5" font-family="Helvetica,sans-Serif" font-size="10.00">AACodonMutSelSBDPPhyloProcess.h</text>
</a>
</g>
</g>
<!-- Node24&#45;&gt;Node25 -->
<g id="edge3" class="edge"><title>Node24&#45;&gt;Node25</title>
<path fill="none" stroke="midnightblue" d="M97.2554,-159.502C102.669,-149.741 108.651,-138.956 112.698,-131.658"/>
<polygon fill="midnightblue" stroke="midnightblue" points="94.11,-157.957 92.3205,-168.399 100.232,-161.352 94.11,-157.957"/>
</g>
<!-- Node26 -->
<g id="node5" class="node"><title>Node26</title>
<g id="a_node5"><a xlink:href="AACodonMutSelSBDPPhyloProcess_8cpp.html" target="_top" xlink:title="AACodonMutSelSBDPPhyloProcess.cpp">
<polygon fill="none" stroke="black" points="19,-56.5 19,-75.5 216,-75.5 216,-56.5 19,-56.5"/>
<text text-anchor="middle" x="117.5" y="-63.5" font-family="Helvetica,sans-Serif" font-size="10.00">AACodonMutSelSBDPPhyloProcess.cpp</text>
</a>
</g>
</g>
<!-- Node25&#45;&gt;Node26 -->
<g id="edge4" class="edge"><title>Node25&#45;&gt;Node26</title>
<path fill="none" stroke="midnightblue" d="M117.5,-101.805C117.5,-92.9102 117.5,-82.7798 117.5,-75.7511"/>
<polygon fill="midnightblue" stroke="midnightblue" points="114,-102.083 117.5,-112.083 121,-102.083 114,-102.083"/>
</g>
<!-- Node27 -->
<g id="node6" class="node"><title>Node27</title>
<g id="a_node6"><a xlink:href="Model_8h.html" target="_top" xlink:title="Model.h">
<polygon fill="none" stroke="black" points="248,-56.5 248,-75.5 299,-75.5 299,-56.5 248,-56.5"/>
<text text-anchor="middle" x="273.5" y="-63.5" font-family="Helvetica,sans-Serif" font-size="10.00">Model.h</text>
</a>
</g>
</g>
<!-- Node25&#45;&gt;Node27 -->
<g id="edge5" class="edge"><title>Node25&#45;&gt;Node27</title>
<path fill="none" stroke="midnightblue" d="M151.67,-109.172C181.044,-99.0039 222.698,-84.5852 248.897,-75.5164"/>
<polygon fill="midnightblue" stroke="midnightblue" points="150.524,-105.865 142.219,-112.444 152.813,-112.48 150.524,-105.865"/>
</g>
<!-- Node28 -->
<g id="node7" class="node"><title>Node28</title>
<g id="a_node7"><a xlink:href="PB_8cpp.html" target="_top" xlink:title="PB.cpp">
<polygon fill="none" stroke="black" points="209,-0.5 209,-19.5 258,-19.5 258,-0.5 209,-0.5"/>
<text text-anchor="middle" x="233.5" y="-7.5" font-family="Helvetica,sans-Serif" font-size="10.00">PB.cpp</text>
</a>
</g>
</g>
<!-- Node27&#45;&gt;Node28 -->
<g id="edge6" class="edge"><title>Node27&#45;&gt;Node28</title>
<path fill="none" stroke="midnightblue" d="M260.8,-47.8554C253.874,-38.5048 245.594,-27.3265 239.982,-19.7511"/>
<polygon fill="midnightblue" stroke="midnightblue" points="258.13,-50.1307 266.895,-56.083 263.755,-45.9641 258.13,-50.1307"/>
</g>
<!-- Node29 -->
<g id="node8" class="node"><title>Node29</title>
<g id="a_node8"><a xlink:href="ReadPB_8cpp.html" target="_top" xlink:title="ReadPB.cpp">
<polygon fill="none" stroke="black" points="276.5,-0.5 276.5,-19.5 348.5,-19.5 348.5,-0.5 276.5,-0.5"/>
<text text-anchor="middle" x="312.5" y="-7.5" font-family="Helvetica,sans-Serif" font-size="10.00">ReadPB.cpp</text>
</a>
</g>
</g>
<!-- Node27&#45;&gt;Node29 -->
<g id="edge7" class="edge"><title>Node27&#45;&gt;Node29</title>
<path fill="none" stroke="midnightblue" d="M285.882,-47.8554C292.635,-38.5048 300.709,-27.3265 306.18,-19.7511"/>
<polygon fill="midnightblue" stroke="midnightblue" points="282.958,-45.927 279.94,-56.083 288.632,-50.0254 282.958,-45.927"/>
</g>
<!-- Node31 -->
<g id="node10" class="node"><title>Node31</title>
<g id="a_node10"><a xlink:href="CodonMutSelSBDPSubstitutionProcess_8h.html" target="_top" xlink:title="CodonMutSelSBDPSubstitution\lProcess.h">
<polygon fill="none" stroke="black" points="594,-168.5 594,-198.5 749,-198.5 749,-168.5 594,-168.5"/>
<text text-anchor="start" x="602" y="-186.5" font-family="Helvetica,sans-Serif" font-size="10.00">CodonMutSelSBDPSubstitution</text>
<text text-anchor="middle" x="671.5" y="-175.5" font-family="Helvetica,sans-Serif" font-size="10.00">Process.h</text>
</a>
</g>
</g>
<!-- Node30&#45;&gt;Node31 -->
<g id="edge9" class="edge"><title>Node30&#45;&gt;Node31</title>
<path fill="none" stroke="midnightblue" d="M667.232,-230.739C668.178,-220.487 669.331,-208.001 670.199,-198.589"/>
<polygon fill="midnightblue" stroke="midnightblue" points="663.743,-230.454 666.309,-240.734 670.714,-231.098 663.743,-230.454"/>
</g>
<!-- Node32 -->
<g id="node11" class="node"><title>Node32</title>
<g id="a_node11"><a xlink:href="CodonMutSelSBDPPhyloProcess_8h.html" target="_top" xlink:title="CodonMutSelSBDPPhyloProcess.h">
<polygon fill="none" stroke="black" points="570,-112.5 570,-131.5 743,-131.5 743,-112.5 570,-112.5"/>
<text text-anchor="middle" x="656.5" y="-119.5" font-family="Helvetica,sans-Serif" font-size="10.00">CodonMutSelSBDPPhyloProcess.h</text>
</a>
</g>
</g>
<!-- Node31&#45;&gt;Node32 -->
<g id="edge10" class="edge"><title>Node31&#45;&gt;Node32</title>
<path fill="none" stroke="midnightblue" d="M665.473,-158.593C663.074,-149.077 660.466,-138.73 658.683,-131.658"/>
<polygon fill="midnightblue" stroke="midnightblue" points="662.107,-159.558 667.945,-168.399 668.894,-157.847 662.107,-159.558"/>
</g>
<!-- Node32&#45;&gt;Node27 -->
<g id="edge12" class="edge"><title>Node32&#45;&gt;Node27</title>
<path fill="none" stroke="midnightblue" d="M585.797,-111.031C499.196,-98.8214 356.896,-78.7582 299.098,-70.6092"/>
<polygon fill="midnightblue" stroke="midnightblue" points="585.422,-114.513 595.813,-112.444 586.399,-107.582 585.422,-114.513"/>
</g>
<!-- Node33 -->
<g id="node12" class="node"><title>Node33</title>
<g id="a_node12"><a xlink:href="CodonMutSelSBDPPhyloProcess_8cpp.html" target="_top" xlink:title="CodonMutSelSBDPPhyloProcess.cpp">
<polygon fill="none" stroke="black" points="565,-56.5 565,-75.5 748,-75.5 748,-56.5 565,-56.5"/>
<text text-anchor="middle" x="656.5" y="-63.5" font-family="Helvetica,sans-Serif" font-size="10.00">CodonMutSelSBDPPhyloProcess.cpp</text>
</a>
</g>
</g>
<!-- Node32&#45;&gt;Node33 -->
<g id="edge11" class="edge"><title>Node32&#45;&gt;Node33</title>
<path fill="none" stroke="midnightblue" d="M656.5,-101.805C656.5,-92.9102 656.5,-82.7798 656.5,-75.7511"/>
<polygon fill="midnightblue" stroke="midnightblue" points="653,-102.083 656.5,-112.083 660,-102.083 653,-102.083"/>
</g>
<!-- Node35 -->
<g id="node14" class="node"><title>Node35</title>
<g id="a_node14"><a xlink:href="ExpoConjugateGTRSBDPProfileProcess_8cpp.html" target="_top" xlink:title="ExpoConjugateGTRSBDPProfile\lProcess.cpp">
<polygon fill="none" stroke="black" points="415.5,-168.5 415.5,-198.5 575.5,-198.5 575.5,-168.5 415.5,-168.5"/>
<text text-anchor="start" x="423.5" y="-186.5" font-family="Helvetica,sans-Serif" font-size="10.00">ExpoConjugateGTRSBDPProfile</text>
<text text-anchor="middle" x="495.5" y="-175.5" font-family="Helvetica,sans-Serif" font-size="10.00">Process.cpp</text>
</a>
</g>
</g>
<!-- Node34&#45;&gt;Node35 -->
<g id="edge14" class="edge"><title>Node34&#45;&gt;Node35</title>
<path fill="none" stroke="midnightblue" d="M485.432,-225.403C487.655,-216.37 490.107,-206.408 492.035,-198.577"/>
<polygon fill="midnightblue" stroke="midnightblue" points="481.963,-224.849 482.972,-235.396 488.761,-226.522 481.963,-224.849"/>
</g>
<!-- Node36 -->
<g id="node15" class="node"><title>Node36</title>
<g id="a_node15"><a xlink:href="RASCATGTRSBDPGammaPhyloProcess_8h.html" target="_top" xlink:title="RASCATGTRSBDPGammaPhyloProcess.h">
<polygon fill="none" stroke="black" points="187.5,-174 187.5,-193 397.5,-193 397.5,-174 187.5,-174"/>
<text text-anchor="middle" x="292.5" y="-181" font-family="Helvetica,sans-Serif" font-size="10.00">RASCATGTRSBDPGammaPhyloProcess.h</text>
</a>
</g>
</g>
<!-- Node34&#45;&gt;Node36 -->
<g id="edge15" class="edge"><title>Node34&#45;&gt;Node36</title>
<path fill="none" stroke="midnightblue" d="M429.463,-232.108C393.084,-219.462 345.413,-202.892 316.974,-193.007"/>
<polygon fill="midnightblue" stroke="midnightblue" points="428.329,-235.419 438.924,-235.396 430.627,-228.807 428.329,-235.419"/>
</g>
<!-- Node36&#45;&gt;Node27 -->
<g id="edge16" class="edge"><title>Node36&#45;&gt;Node27</title>
<path fill="none" stroke="midnightblue" d="M289.401,-163.664C285.24,-138.365 278.013,-94.4353 274.945,-75.782"/>
<polygon fill="midnightblue" stroke="midnightblue" points="285.995,-164.519 291.072,-173.819 292.902,-163.383 285.995,-164.519"/>
</g>
<!-- Node37 -->
<g id="node16" class="node"><title>Node37</title>
<g id="a_node16"><a xlink:href="RASCATGTRSBDPGammaPhyloProcess_8cpp.html" target="_top" xlink:title="RASCATGTRSBDPGammaPhyloProcess.cpp">
<polygon fill="none" stroke="black" points="302,-112.5 302,-131.5 523,-131.5 523,-112.5 302,-112.5"/>
<text text-anchor="middle" x="412.5" y="-119.5" font-family="Helvetica,sans-Serif" font-size="10.00">RASCATGTRSBDPGammaPhyloProcess.cpp</text>
</a>
</g>
</g>
<!-- Node36&#45;&gt;Node37 -->
<g id="edge17" class="edge"><title>Node36&#45;&gt;Node37</title>
<path fill="none" stroke="midnightblue" d="M318.677,-169.521C341.949,-157.982 375.303,-141.443 395.339,-131.509"/>
<polygon fill="midnightblue" stroke="midnightblue" points="317.097,-166.397 309.693,-173.975 320.207,-172.669 317.097,-166.397"/>
</g>
<!-- Node39 -->
<g id="node18" class="node"><title>Node39</title>
<g id="a_node18"><a xlink:href="GeneralPathSuffStatGTRSBDPProfileProcess_8cpp.html" target="_top" xlink:title="GeneralPathSuffStatGTRSBDPProfile\lProcess.cpp">
<polygon fill="none" stroke="black" points="772,-168.5 772,-198.5 955,-198.5 955,-168.5 772,-168.5"/>
<text text-anchor="start" x="780" y="-186.5" font-family="Helvetica,sans-Serif" font-size="10.00">GeneralPathSuffStatGTRSBDPProfile</text>
<text text-anchor="middle" x="863.5" y="-175.5" font-family="Helvetica,sans-Serif" font-size="10.00">Process.cpp</text>
</a>
</g>
</g>
<!-- Node38&#45;&gt;Node39 -->
<g id="edge19" class="edge"><title>Node38&#45;&gt;Node39</title>
<path fill="none" stroke="midnightblue" d="M863.5,-225.108C863.5,-216.154 863.5,-206.323 863.5,-198.577"/>
<polygon fill="midnightblue" stroke="midnightblue" points="860,-225.396 863.5,-235.396 867,-225.396 860,-225.396"/>
</g>
</g>
</svg>
