<?xml version="1.0" encoding="UTF-8" standalone="no"?>
<!DOCTYPE svg PUBLIC "-//W3C//DTD SVG 1.1//EN"
 "http://www.w3.org/Graphics/SVG/1.1/DTD/svg11.dtd">
<!-- Generated by graphviz version 2.38.0 (20140413.2041)
 -->
<!-- Title: MatrixDPProfileProcess.h Pages: 1 -->
<svg width="613pt" height="364pt"
 viewBox="0.00 0.00 612.67 364.00" xmlns="http://www.w3.org/2000/svg" xmlns:xlink="http://www.w3.org/1999/xlink">
<g id="graph0" class="graph" transform="scale(1 1) rotate(0) translate(4 360)">
<title>MatrixDPProfileProcess.h</title>
<!-- Node0 -->
<g id="node1" class="node"><title>Node0</title>
<polygon fill="#bfbfbf" stroke="black" points="397.668,-336.5 397.668,-355.5 527.668,-355.5 527.668,-336.5 397.668,-336.5"/>
<text text-anchor="middle" x="462.668" y="-343.5" font-family="Helvetica,sans-Serif" font-size="10.00">MatrixDPProfileProcess.h</text>
</g>
<!-- Node1 -->
<g id="node2" class="node"><title>Node1</title>
<g id="a_node2"><a xlink:href="MatrixMixtureProfileProcess_8h.html" target="_top" xlink:title="MatrixMixtureProfileProcess.h">
<polygon fill="none" stroke="black" points="316.668,-280.5 316.668,-299.5 464.668,-299.5 464.668,-280.5 316.668,-280.5"/>
<text text-anchor="middle" x="390.668" y="-287.5" font-family="Helvetica,sans-Serif" font-size="10.00">MatrixMixtureProfileProcess.h</text>
</a>
</g>
</g>
<!-- Node0&#45;&gt;Node1 -->
<g id="edge1" class="edge"><title>Node0&#45;&gt;Node1</title>
<path fill="none" stroke="midnightblue" d="M451.1,-336.324C440.248,-328.185 423.788,-315.839 410.785,-306.087"/>
<polygon fill="midnightblue" stroke="midnightblue" points="412.547,-303.034 402.447,-299.834 408.347,-308.634 412.547,-303.034"/>
</g>
<!-- Node20 -->
<g id="node21" class="node"><title>Node20</title>
<g id="a_node21"><a xlink:href="DPProfileProcess_8h.html" target="_top" xlink:title="DPProfileProcess.h">
<polygon fill="none" stroke="black" points="483.168,-280.5 483.168,-299.5 586.168,-299.5 586.168,-280.5 483.168,-280.5"/>
<text text-anchor="middle" x="534.668" y="-287.5" font-family="Helvetica,sans-Serif" font-size="10.00">DPProfileProcess.h</text>
</a>
</g>
</g>
<!-- Node0&#45;&gt;Node20 -->
<g id="edge29" class="edge"><title>Node0&#45;&gt;Node20</title>
<path fill="none" stroke="midnightblue" d="M474.236,-336.324C485.088,-328.185 501.549,-315.839 514.552,-306.087"/>
<polygon fill="midnightblue" stroke="midnightblue" points="516.99,-308.634 522.89,-299.834 512.79,-303.034 516.99,-308.634"/>
</g>
<!-- Node2 -->
<g id="node3" class="node"><title>Node2</title>
<g id="a_node3"><a xlink:href="MatrixProfileProcess_8h.html" target="_top" xlink:title="MatrixProfileProcess.h">
<polygon fill="none" stroke="black" points="291.668,-224.5 291.668,-243.5 407.668,-243.5 407.668,-224.5 291.668,-224.5"/>
<text text-anchor="middle" x="349.668" y="-231.5" font-family="Helvetica,sans-Serif" font-size="10.00">MatrixProfileProcess.h</text>
</a>
</g>
</g>
<!-- Node1&#45;&gt;Node2 -->
<g id="edge2" class="edge"><title>Node1&#45;&gt;Node2</title>
<path fill="none" stroke="midnightblue" d="M383.898,-280.083C378.107,-272.455 369.61,-261.264 362.531,-251.941"/>
<polygon fill="midnightblue" stroke="midnightblue" points="365.147,-249.599 356.313,-243.751 359.572,-253.832 365.147,-249.599"/>
</g>
<!-- Node19 -->
<g id="node20" class="node"><title>Node19</title>
<g id="a_node20"><a xlink:href="MixtureProfileProcess_8h.html" target="_top" xlink:title="MixtureProfileProcess.h">
<polygon fill="none" stroke="black" points="426.168,-224.5 426.168,-243.5 547.168,-243.5 547.168,-224.5 426.168,-224.5"/>
<text text-anchor="middle" x="486.668" y="-231.5" font-family="Helvetica,sans-Serif" font-size="10.00">MixtureProfileProcess.h</text>
</a>
</g>
</g>
<!-- Node1&#45;&gt;Node19 -->
<g id="edge26" class="edge"><title>Node1&#45;&gt;Node19</title>
<path fill="none" stroke="midnightblue" d="M406.092,-280.324C421.208,-271.822 444.484,-258.729 462.139,-248.797"/>
<polygon fill="midnightblue" stroke="midnightblue" points="464.283,-251.608 471.282,-243.655 460.851,-245.507 464.283,-251.608"/>
</g>
<!-- Node3 -->
<g id="node4" class="node"><title>Node3</title>
<g id="a_node4"><a xlink:href="SubMatrix_8h.html" target="_top" xlink:title="SubMatrix.h">
<polygon fill="none" stroke="black" points="230.168,-168.5 230.168,-187.5 299.168,-187.5 299.168,-168.5 230.168,-168.5"/>
<text text-anchor="middle" x="264.668" y="-175.5" font-family="Helvetica,sans-Serif" font-size="10.00">SubMatrix.h</text>
</a>
</g>
</g>
<!-- Node2&#45;&gt;Node3 -->
<g id="edge3" class="edge"><title>Node2&#45;&gt;Node3</title>
<path fill="none" stroke="midnightblue" d="M336.012,-224.324C322.752,-215.9 302.4,-202.971 286.822,-193.074"/>
<polygon fill="midnightblue" stroke="midnightblue" points="288.609,-190.063 278.291,-187.655 284.855,-195.971 288.609,-190.063"/>
</g>
<!-- Node11 -->
<g id="node12" class="node"><title>Node11</title>
<g id="a_node12"><a xlink:href="ProfileProcess_8h.html" target="_top" xlink:title="ProfileProcess.h">
<polygon fill="none" stroke="black" points="372.168,-168.5 372.168,-187.5 461.168,-187.5 461.168,-168.5 372.168,-168.5"/>
<text text-anchor="middle" x="416.668" y="-175.5" font-family="Helvetica,sans-Serif" font-size="10.00">ProfileProcess.h</text>
</a>
</g>
</g>
<!-- Node2&#45;&gt;Node11 -->
<g id="edge13" class="edge"><title>Node2&#45;&gt;Node11</title>
<path fill="none" stroke="midnightblue" d="M360.433,-224.324C370.434,-216.263 385.555,-204.077 397.599,-194.369"/>
<polygon fill="midnightblue" stroke="midnightblue" points="400.118,-196.834 405.708,-187.834 395.725,-191.384 400.118,-196.834"/>
</g>
<!-- Node4 -->
<g id="node5" class="node"><title>Node4</title>
<polygon fill="none" stroke="#bfbfbf" points="248.668,-0.5 248.668,-19.5 302.668,-19.5 302.668,-0.5 248.668,-0.5"/>
<text text-anchor="middle" x="275.668" y="-7.5" font-family="Helvetica,sans-Serif" font-size="10.00">iostream</text>
</g>
<!-- Node3&#45;&gt;Node4 -->
<g id="edge4" class="edge"><title>Node3&#45;&gt;Node4</title>
<path fill="none" stroke="midnightblue" d="M230.104,-173.455C147.245,-163.66 -51.2414,-131.774 12.6682,-56 41.1006,-22.2895 172.723,-13.831 238.311,-11.7096"/>
<polygon fill="midnightblue" stroke="midnightblue" points="238.728,-15.1991 248.622,-11.4109 238.525,-8.20201 238.728,-15.1991"/>
</g>
<!-- Node5 -->
<g id="node6" class="node"><title>Node5</title>
<polygon fill="none" stroke="#bfbfbf" points="549.668,-56.5 549.668,-75.5 593.668,-75.5 593.668,-56.5 549.668,-56.5"/>
<text text-anchor="middle" x="571.668" y="-63.5" font-family="Helvetica,sans-Serif" font-size="10.00">cmath</text>
</g>
<!-- Node3&#45;&gt;Node5 -->
<g id="edge5" class="edge"><title>Node3&#45;&gt;Node5</title>
<path fill="none" stroke="midnightblue" d="M271.057,-168.146C281.939,-153.794 305.546,-125.679 332.668,-112 413.573,-71.1965 446.953,-95.3225 539.358,-76.0064"/>
<polygon fill="midnightblue" stroke="midnightblue" points="540.386,-79.3637 549.395,-73.7876 538.875,-72.5287 540.386,-79.3637"/>
</g>
<!-- Node6 -->
<g id="node7" class="node"><title>Node6</title>
<g id="a_node7"><a xlink:href="Random_8h.html" target="_top" xlink:title="Random.h">
<polygon fill="none" stroke="black" points="185.668,-112.5 185.668,-131.5 247.668,-131.5 247.668,-112.5 185.668,-112.5"/>
<text text-anchor="middle" x="216.668" y="-119.5" font-family="Helvetica,sans-Serif" font-size="10.00">Random.h</text>
</a>
</g>
</g>
<!-- Node3&#45;&gt;Node6 -->
<g id="edge6" class="edge"><title>Node3&#45;&gt;Node6</title>
<path fill="none" stroke="midnightblue" d="M256.742,-168.083C249.822,-160.298 239.603,-148.801 231.216,-139.367"/>
<polygon fill="midnightblue" stroke="midnightblue" points="233.707,-136.9 224.447,-131.751 228.475,-141.55 233.707,-136.9"/>
</g>
<!-- Node6&#45;&gt;Node4 -->
<g id="edge9" class="edge"><title>Node6&#45;&gt;Node4</title>
<path fill="none" stroke="midnightblue" d="M221.298,-112.368C230.948,-94.376 253.382,-52.5503 266.214,-28.6267"/>
<polygon fill="midnightblue" stroke="midnightblue" points="269.418,-30.0582 271.06,-19.5914 263.249,-26.7495 269.418,-30.0582"/>
</g>
<!-- Node6&#45;&gt;Node5 -->
<g id="edge7" class="edge"><title>Node6&#45;&gt;Node5</title>
<path fill="none" stroke="midnightblue" d="M247.899,-117.248C314.37,-109.171 468.894,-89.8924 539.266,-75.9765"/>
<polygon fill="midnightblue" stroke="midnightblue" points="540.331,-79.3304 549.415,-73.878 538.913,-72.4754 540.331,-79.3304"/>
</g>
<!-- Node7 -->
<g id="node8" class="node"><title>Node7</title>
<polygon fill="none" stroke="#bfbfbf" points="420.168,-0.5 420.168,-19.5 465.168,-19.5 465.168,-0.5 420.168,-0.5"/>
<text text-anchor="middle" x="442.668" y="-7.5" font-family="Helvetica,sans-Serif" font-size="10.00">cstdlib</text>
</g>
<!-- Node6&#45;&gt;Node7 -->
<g id="edge8" class="edge"><title>Node6&#45;&gt;Node7</title>
<path fill="none" stroke="midnightblue" d="M247.831,-116.292C303.611,-107.59 415.912,-88.7183 428.668,-76 440.666,-64.0382 443.508,-44.4279 443.75,-29.8705"/>
<polygon fill="midnightblue" stroke="midnightblue" points="447.241,-29.4382 443.511,-19.5216 440.243,-29.5998 447.241,-29.4382"/>
</g>
<!-- Node8 -->
<g id="node9" class="node"><title>Node8</title>
<polygon fill="none" stroke="#bfbfbf" points="21.6682,-56.5 21.6682,-75.5 73.6682,-75.5 73.6682,-56.5 21.6682,-56.5"/>
<text text-anchor="middle" x="47.6682" y="-63.5" font-family="Helvetica,sans-Serif" font-size="10.00">sstream</text>
</g>
<!-- Node6&#45;&gt;Node8 -->
<g id="edge10" class="edge"><title>Node6&#45;&gt;Node8</title>
<path fill="none" stroke="midnightblue" d="M189.89,-112.444C161.167,-103.266 115.401,-88.6424 83.5715,-78.472"/>
<polygon fill="midnightblue" stroke="midnightblue" points="84.3571,-75.0488 73.7662,-75.339 82.2264,-81.7167 84.3571,-75.0488"/>
</g>
<!-- Node9 -->
<g id="node10" class="node"><title>Node9</title>
<polygon fill="none" stroke="#bfbfbf" points="91.6682,-56.5 91.6682,-75.5 141.668,-75.5 141.668,-56.5 91.6682,-56.5"/>
<text text-anchor="middle" x="116.668" y="-63.5" font-family="Helvetica,sans-Serif" font-size="10.00">iomanip</text>
</g>
<!-- Node6&#45;&gt;Node9 -->
<g id="edge11" class="edge"><title>Node6&#45;&gt;Node9</title>
<path fill="none" stroke="midnightblue" d="M200.602,-112.324C184.71,-103.743 160.161,-90.486 141.71,-80.5224"/>
<polygon fill="midnightblue" stroke="midnightblue" points="143.157,-77.3264 132.695,-75.6545 139.831,-83.4857 143.157,-77.3264"/>
</g>
<!-- Node10 -->
<g id="node11" class="node"><title>Node10</title>
<polygon fill="none" stroke="#bfbfbf" points="159.668,-56.5 159.668,-75.5 209.668,-75.5 209.668,-56.5 159.668,-56.5"/>
<text text-anchor="middle" x="184.668" y="-63.5" font-family="Helvetica,sans-Serif" font-size="10.00">fstream</text>
</g>
<!-- Node6&#45;&gt;Node10 -->
<g id="edge12" class="edge"><title>Node6&#45;&gt;Node10</title>
<path fill="none" stroke="midnightblue" d="M211.384,-112.083C206.957,-104.613 200.505,-93.7244 195.05,-84.5199"/>
<polygon fill="midnightblue" stroke="midnightblue" points="197.963,-82.5697 189.854,-75.7511 191.941,-86.1383 197.963,-82.5697"/>
</g>
<!-- Node11&#45;&gt;Node4 -->
<g id="edge24" class="edge"><title>Node11&#45;&gt;Node4</title>
<path fill="none" stroke="midnightblue" d="M394.146,-168.48C376.094,-160.867 350.862,-148.387 332.668,-132 310.319,-111.87 307.488,-103.209 294.668,-76 287.622,-61.0436 282.584,-42.9051 279.474,-29.5936"/>
<polygon fill="midnightblue" stroke="midnightblue" points="282.87,-28.7433 277.313,-19.723 276.032,-30.2402 282.87,-28.7433"/>
</g>
<!-- Node12 -->
<g id="node13" class="node"><title>Node12</title>
<g id="a_node13"><a xlink:href="Chrono_8h.html" target="_top" xlink:title="Chrono.h">
<polygon fill="none" stroke="black" points="475.668,-56.5 475.668,-75.5 531.668,-75.5 531.668,-56.5 475.668,-56.5"/>
<text text-anchor="middle" x="503.668" y="-63.5" font-family="Helvetica,sans-Serif" font-size="10.00">Chrono.h</text>
</a>
</g>
</g>
<!-- Node11&#45;&gt;Node12 -->
<g id="edge14" class="edge"><title>Node11&#45;&gt;Node12</title>
<path fill="none" stroke="midnightblue" d="M433.834,-168.486C447.906,-160.72 467.433,-148.024 479.668,-132 490.152,-118.27 496.426,-99.4891 499.915,-85.6452"/>
<polygon fill="midnightblue" stroke="midnightblue" points="503.351,-86.3175 502.142,-75.7918 496.523,-84.7739 503.351,-86.3175"/>
</g>
<!-- Node15 -->
<g id="node16" class="node"><title>Node15</title>
<g id="a_node16"><a xlink:href="StateSpace_8h.html" target="_top" xlink:title="StateSpace.h">
<polygon fill="none" stroke="black" points="341.668,-112.5 341.668,-131.5 417.668,-131.5 417.668,-112.5 341.668,-112.5"/>
<text text-anchor="middle" x="379.668" y="-119.5" font-family="Helvetica,sans-Serif" font-size="10.00">StateSpace.h</text>
</a>
</g>
</g>
<!-- Node11&#45;&gt;Node15 -->
<g id="edge19" class="edge"><title>Node11&#45;&gt;Node15</title>
<path fill="none" stroke="midnightblue" d="M410.558,-168.083C405.386,-160.534 397.822,-149.495 391.474,-140.23"/>
<polygon fill="midnightblue" stroke="midnightblue" points="394.204,-138.022 385.664,-131.751 388.429,-141.979 394.204,-138.022"/>
</g>
<!-- Node18 -->
<g id="node19" class="node"><title>Node18</title>
<polygon fill="none" stroke="#bfbfbf" points="436.168,-112.5 436.168,-131.5 471.168,-131.5 471.168,-112.5 436.168,-112.5"/>
<text text-anchor="middle" x="453.668" y="-119.5" font-family="Helvetica,sans-Serif" font-size="10.00">map</text>
</g>
<!-- Node11&#45;&gt;Node18 -->
<g id="edge25" class="edge"><title>Node11&#45;&gt;Node18</title>
<path fill="none" stroke="midnightblue" d="M422.778,-168.083C427.95,-160.534 435.514,-149.495 441.863,-140.23"/>
<polygon fill="midnightblue" stroke="midnightblue" points="444.907,-141.979 447.672,-131.751 439.133,-138.022 444.907,-141.979"/>
</g>
<!-- Node12&#45;&gt;Node4 -->
<g id="edge17" class="edge"><title>Node12&#45;&gt;Node4</title>
<path fill="none" stroke="midnightblue" d="M475.253,-58.27C434.19,-48.5447 358.215,-30.5507 312.774,-19.7883"/>
<polygon fill="midnightblue" stroke="midnightblue" points="313.554,-16.3761 303.016,-17.4772 311.941,-23.1877 313.554,-16.3761"/>
</g>
<!-- Node12&#45;&gt;Node7 -->
<g id="edge18" class="edge"><title>Node12&#45;&gt;Node7</title>
<path fill="none" stroke="midnightblue" d="M493.868,-56.324C484.85,-48.3414 471.262,-36.3128 460.35,-26.6529"/>
<polygon fill="midnightblue" stroke="midnightblue" points="462.455,-23.8416 452.647,-19.8339 457.815,-29.083 462.455,-23.8416"/>
</g>
<!-- Node13 -->
<g id="node14" class="node"><title>Node13</title>
<polygon fill="none" stroke="#bfbfbf" points="483.168,-0.5 483.168,-19.5 524.168,-19.5 524.168,-0.5 483.168,-0.5"/>
<text text-anchor="middle" x="503.668" y="-7.5" font-family="Helvetica,sans-Serif" font-size="10.00">ctime</text>
</g>
<!-- Node12&#45;&gt;Node13 -->
<g id="edge15" class="edge"><title>Node12&#45;&gt;Node13</title>
<path fill="none" stroke="midnightblue" d="M503.668,-56.083C503.668,-49.0059 503.668,-38.8611 503.668,-29.9865"/>
<polygon fill="midnightblue" stroke="midnightblue" points="507.168,-29.751 503.668,-19.7511 500.168,-29.7511 507.168,-29.751"/>
</g>
<!-- Node14 -->
<g id="node15" class="node"><title>Node14</title>
<polygon fill="none" stroke="#bfbfbf" points="542.668,-0.5 542.668,-19.5 604.668,-19.5 604.668,-0.5 542.668,-0.5"/>
<text text-anchor="middle" x="573.668" y="-7.5" font-family="Helvetica,sans-Serif" font-size="10.00">sys/time.h</text>
</g>
<!-- Node12&#45;&gt;Node14 -->
<g id="edge16" class="edge"><title>Node12&#45;&gt;Node14</title>
<path fill="none" stroke="midnightblue" d="M514.915,-56.324C525.466,-48.1849 541.469,-35.8395 554.11,-26.0874"/>
<polygon fill="midnightblue" stroke="midnightblue" points="556.437,-28.7132 562.217,-19.8339 552.161,-23.1707 556.437,-28.7132"/>
</g>
<!-- Node16 -->
<g id="node17" class="node"><title>Node16</title>
<g id="a_node17"><a xlink:href="BiologicalSequences_8h.html" target="_top" xlink:title="BiologicalSequences.h">
<polygon fill="none" stroke="black" points="303.668,-56.5 303.668,-75.5 419.668,-75.5 419.668,-56.5 303.668,-56.5"/>
<text text-anchor="middle" x="361.668" y="-63.5" font-family="Helvetica,sans-Serif" font-size="10.00">BiologicalSequences.h</text>
</a>
</g>
</g>
<!-- Node15&#45;&gt;Node16 -->
<g id="edge20" class="edge"><title>Node15&#45;&gt;Node16</title>
<path fill="none" stroke="midnightblue" d="M376.696,-112.083C374.284,-104.849 370.804,-94.4087 367.8,-85.3968"/>
<polygon fill="midnightblue" stroke="midnightblue" points="371.068,-84.1311 364.585,-75.7511 364.427,-86.3447 371.068,-84.1311"/>
</g>
<!-- Node16&#45;&gt;Node4 -->
<g id="edge22" class="edge"><title>Node16&#45;&gt;Node4</title>
<path fill="none" stroke="midnightblue" d="M347.851,-56.324C334.435,-47.9002 313.844,-34.9709 298.083,-25.0741"/>
<polygon fill="midnightblue" stroke="midnightblue" points="299.781,-22.0081 289.451,-19.6545 296.059,-27.9364 299.781,-22.0081"/>
</g>
<!-- Node16&#45;&gt;Node7 -->
<g id="edge21" class="edge"><title>Node16&#45;&gt;Node7</title>
<path fill="none" stroke="midnightblue" d="M374.682,-56.324C387.2,-47.979 406.35,-35.2122 421.14,-25.3524"/>
<polygon fill="midnightblue" stroke="midnightblue" points="423.307,-28.1137 429.686,-19.6545 419.424,-22.2894 423.307,-28.1137"/>
</g>
<!-- Node17 -->
<g id="node18" class="node"><title>Node17</title>
<polygon fill="none" stroke="#bfbfbf" points="341.168,-0.5 341.168,-19.5 382.168,-19.5 382.168,-0.5 341.168,-0.5"/>
<text text-anchor="middle" x="361.668" y="-7.5" font-family="Helvetica,sans-Serif" font-size="10.00">string</text>
</g>
<!-- Node16&#45;&gt;Node17 -->
<g id="edge23" class="edge"><title>Node16&#45;&gt;Node17</title>
<path fill="none" stroke="midnightblue" d="M361.668,-56.083C361.668,-49.0059 361.668,-38.8611 361.668,-29.9865"/>
<polygon fill="midnightblue" stroke="midnightblue" points="365.168,-29.751 361.668,-19.7511 358.168,-29.7511 365.168,-29.751"/>
</g>
<!-- Node19&#45;&gt;Node5 -->
<g id="edge27" class="edge"><title>Node19&#45;&gt;Node5</title>
<path fill="none" stroke="midnightblue" d="M491.238,-224.075C504.734,-197.719 544.592,-119.878 562.625,-84.6608"/>
<polygon fill="midnightblue" stroke="midnightblue" points="565.839,-86.0643 567.281,-75.5681 559.608,-82.8739 565.839,-86.0643"/>
</g>
<!-- Node19&#45;&gt;Node11 -->
<g id="edge28" class="edge"><title>Node19&#45;&gt;Node11</title>
<path fill="none" stroke="midnightblue" d="M475.422,-224.324C464.871,-216.185 448.868,-203.839 436.226,-194.087"/>
<polygon fill="midnightblue" stroke="midnightblue" points="438.175,-191.171 428.12,-187.834 433.9,-196.713 438.175,-191.171"/>
</g>
<!-- Node20&#45;&gt;Node5 -->
<g id="edge30" class="edge"><title>Node20&#45;&gt;Node5</title>
<path fill="none" stroke="midnightblue" d="M539.798,-280.38C544.772,-271.567 552.077,-257.318 555.668,-244 570.764,-188.017 572.319,-118.847 572.078,-86.0172"/>
<polygon fill="midnightblue" stroke="midnightblue" points="575.573,-85.6068 571.93,-75.6579 568.574,-85.707 575.573,-85.6068"/>
</g>
<!-- Node20&#45;&gt;Node19 -->
<g id="edge31" class="edge"><title>Node20&#45;&gt;Node19</title>
<path fill="none" stroke="midnightblue" d="M526.742,-280.083C519.822,-272.298 509.603,-260.801 501.216,-251.367"/>
<polygon fill="midnightblue" stroke="midnightblue" points="503.707,-248.9 494.447,-243.751 498.475,-253.55 503.707,-248.9"/>
</g>
</g>
</svg>
