<?xml version="1.0" encoding="UTF-8" standalone="no"?>
<!DOCTYPE svg PUBLIC "-//W3C//DTD SVG 1.1//EN"
 "http://www.w3.org/Graphics/SVG/1.1/DTD/svg11.dtd">
<!-- Generated by graphviz version 2.40.1 (20161225.0304)
 -->
<!-- Title: MixtureProfileProcess.h Pages: 1 -->
<svg width="997pt" height="464pt"
 viewBox="0.00 0.00 996.50 464.00" xmlns="http://www.w3.org/2000/svg" xmlns:xlink="http://www.w3.org/1999/xlink">
<g id="graph0" class="graph" transform="scale(1 1) rotate(0) translate(4 460)">
<title>MixtureProfileProcess.h</title>
<!-- Node12 -->
<g id="node1" class="node">
<title>Node12</title>
<polygon fill="#bfbfbf" stroke="#000000" points="401,-436.5 401,-455.5 522,-455.5 522,-436.5 401,-436.5"/>
<text text-anchor="middle" x="461.5" y="-443.5" font-family="Helvetica,sans-Serif" font-size="10.00" fill="#000000">MixtureProfileProcess.h</text>
</g>
<!-- Node13 -->
<g id="node2" class="node">
<title>Node13</title>
<g id="a_node2"><a xlink:href="DPProfileProcess_8h.html" target="_top" xlink:title="DPProfileProcess.h">
<polygon fill="none" stroke="#000000" points="249,-380.5 249,-399.5 352,-399.5 352,-380.5 249,-380.5"/>
<text text-anchor="middle" x="300.5" y="-387.5" font-family="Helvetica,sans-Serif" font-size="10.00" fill="#000000">DPProfileProcess.h</text>
</a>
</g>
</g>
<!-- Node12&#45;&gt;Node13 -->
<g id="edge1" class="edge">
<title>Node12&#45;&gt;Node13</title>
<path fill="none" stroke="#191970" d="M424.2889,-433.057C394.8241,-422.8084 354.3459,-408.729 327.8157,-399.5011"/>
<polygon fill="#191970" stroke="#191970" points="423.2283,-436.3937 433.8231,-436.3733 425.528,-429.7822 423.2283,-436.3937"/>
</g>
<!-- Node31 -->
<g id="node20" class="node">
<title>Node31</title>
<g id="a_node20"><a xlink:href="MatrixMixtureProfileProcess_8h.html" target="_top" xlink:title="MatrixMixtureProfileProcess.h">
<polygon fill="none" stroke="#000000" points="387.5,-380.5 387.5,-399.5 535.5,-399.5 535.5,-380.5 387.5,-380.5"/>
<text text-anchor="middle" x="461.5" y="-387.5" font-family="Helvetica,sans-Serif" font-size="10.00" fill="#000000">MatrixMixtureProfileProcess.h</text>
</a>
</g>
</g>
<!-- Node12&#45;&gt;Node31 -->
<g id="edge19" class="edge">
<title>Node12&#45;&gt;Node31</title>
<path fill="none" stroke="#191970" d="M461.5,-426.1575C461.5,-417.155 461.5,-406.9199 461.5,-399.6427"/>
<polygon fill="#191970" stroke="#191970" points="458.0001,-426.2455 461.5,-436.2455 465.0001,-426.2456 458.0001,-426.2455"/>
</g>
<!-- Node39 -->
<g id="node28" class="node">
<title>Node39</title>
<g id="a_node28"><a xlink:href="MixtureProfileProcess_8cpp.html" target="_top" xlink:title="MixtureProfileProcess.cpp">
<polygon fill="none" stroke="#000000" points="554,-380.5 554,-399.5 685,-399.5 685,-380.5 554,-380.5"/>
<text text-anchor="middle" x="619.5" y="-387.5" font-family="Helvetica,sans-Serif" font-size="10.00" fill="#000000">MixtureProfileProcess.cpp</text>
</a>
</g>
</g>
<!-- Node12&#45;&gt;Node39 -->
<g id="edge31" class="edge">
<title>Node12&#45;&gt;Node39</title>
<path fill="none" stroke="#191970" d="M498.3955,-432.9231C527.2787,-422.686 566.7706,-408.6889 592.6933,-399.5011"/>
<polygon fill="#191970" stroke="#191970" points="496.9174,-429.7336 488.6612,-436.3733 499.2559,-436.3314 496.9174,-429.7336"/>
</g>
<!-- Node14 -->
<g id="node3" class="node">
<title>Node14</title>
<g id="a_node3"><a xlink:href="DPProfileProcess_8cpp.html" target="_top" xlink:title="DPProfileProcess.cpp">
<polygon fill="none" stroke="#000000" points="18,-319 18,-338 131,-338 131,-319 18,-319"/>
<text text-anchor="middle" x="74.5" y="-326" font-family="Helvetica,sans-Serif" font-size="10.00" fill="#000000">DPProfileProcess.cpp</text>
</a>
</g>
</g>
<!-- Node13&#45;&gt;Node14 -->
<g id="edge2" class="edge">
<title>Node13&#45;&gt;Node14</title>
<path fill="none" stroke="#191970" d="M255.2886,-377.6969C212.3745,-366.0189 148.7686,-348.7103 109.5645,-338.0419"/>
<polygon fill="#191970" stroke="#191970" points="254.6193,-381.142 265.1875,-380.3906 256.4574,-374.3876 254.6193,-381.142"/>
</g>
<!-- Node15 -->
<g id="node4" class="node">
<title>Node15</title>
<g id="a_node4"><a xlink:href="MatrixDPProfileProcess_8h.html" target="_top" xlink:title="MatrixDPProfileProcess.h">
<polygon fill="none" stroke="#000000" points="321.5,-319 321.5,-338 451.5,-338 451.5,-319 321.5,-319"/>
<text text-anchor="middle" x="386.5" y="-326" font-family="Helvetica,sans-Serif" font-size="10.00" fill="#000000">MatrixDPProfileProcess.h</text>
</a>
</g>
</g>
<!-- Node13&#45;&gt;Node15 -->
<g id="edge3" class="edge">
<title>Node13&#45;&gt;Node15</title>
<path fill="none" stroke="#191970" d="M322.2188,-374.4685C338.2509,-363.0037 359.5604,-347.765 373.1569,-338.0419"/>
<polygon fill="#191970" stroke="#191970" points="320.0357,-371.7268 313.9375,-380.3906 324.1076,-377.4207 320.0357,-371.7268"/>
</g>
<!-- Node21 -->
<g id="node10" class="node">
<title>Node21</title>
<g id="a_node10"><a xlink:href="SBDPProfileProcess_8h.html" target="_top" xlink:title="SBDPProfileProcess.h">
<polygon fill="none" stroke="#000000" points="149.5,-319 149.5,-338 265.5,-338 265.5,-319 149.5,-319"/>
<text text-anchor="middle" x="207.5" y="-326" font-family="Helvetica,sans-Serif" font-size="10.00" fill="#000000">SBDPProfileProcess.h</text>
</a>
</g>
</g>
<!-- Node13&#45;&gt;Node21 -->
<g id="edge9" class="edge">
<title>Node13&#45;&gt;Node21</title>
<path fill="none" stroke="#191970" d="M277.4935,-374.786C260.1038,-363.2864 236.7685,-347.855 221.9292,-338.0419"/>
<polygon fill="#191970" stroke="#191970" points="275.697,-377.7941 285.9688,-380.3906 279.5582,-371.9553 275.697,-377.7941"/>
</g>
<!-- Node16 -->
<g id="node5" class="node">
<title>Node16</title>
<g id="a_node5"><a xlink:href="ExpoConjugateGTRDPProfileProcess_8h.html" target="_top" xlink:title="ExpoConjugateGTRDPProfile\lProcess.h">
<polygon fill="none" stroke="#000000" points="502.5,-179.5 502.5,-209.5 648.5,-209.5 648.5,-179.5 502.5,-179.5"/>
<text text-anchor="start" x="510.5" y="-197.5" font-family="Helvetica,sans-Serif" font-size="10.00" fill="#000000">ExpoConjugateGTRDPProfile</text>
<text text-anchor="middle" x="575.5" y="-186.5" font-family="Helvetica,sans-Serif" font-size="10.00" fill="#000000">Process.h</text>
</a>
</g>
</g>
<!-- Node15&#45;&gt;Node16 -->
<g id="edge4" class="edge">
<title>Node15&#45;&gt;Node16</title>
<path fill="none" stroke="#191970" d="M407.9065,-312.8907C421.6233,-302.7984 439.744,-289.2976 455.5,-277 472.682,-263.5895 475.793,-258.7092 493.5,-246 511.6641,-232.9627 533.0874,-219.5714 549.4807,-209.713"/>
<polygon fill="#191970" stroke="#191970" points="405.5921,-310.2476 399.5977,-318.9837 409.7316,-315.8926 405.5921,-310.2476"/>
</g>
<!-- Node20 -->
<g id="node9" class="node">
<title>Node20</title>
<g id="a_node9"><a xlink:href="MatrixDPProfileProcess_8cpp.html" target="_top" xlink:title="MatrixDPProfileProcess.cpp">
<polygon fill="none" stroke="#000000" points="306.5,-252 306.5,-271 446.5,-271 446.5,-252 306.5,-252"/>
<text text-anchor="middle" x="376.5" y="-259" font-family="Helvetica,sans-Serif" font-size="10.00" fill="#000000">MatrixDPProfileProcess.cpp</text>
</a>
</g>
</g>
<!-- Node15&#45;&gt;Node20 -->
<g id="edge8" class="edge">
<title>Node15&#45;&gt;Node20</title>
<path fill="none" stroke="#191970" d="M383.5875,-308.9863C381.7282,-296.5286 379.3994,-280.9258 377.9301,-271.0817"/>
<polygon fill="#191970" stroke="#191970" points="380.1293,-309.5268 385.0672,-318.9005 387.0526,-308.4934 380.1293,-309.5268"/>
</g>
<!-- Node17 -->
<g id="node6" class="node">
<title>Node17</title>
<g id="a_node6"><a xlink:href="ExpoConjugateGTRDPProfileProcess_8cpp.html" target="_top" xlink:title="ExpoConjugateGTRDPProfile\lProcess.cpp">
<polygon fill="none" stroke="#000000" points="502.5,-112.5 502.5,-142.5 648.5,-142.5 648.5,-112.5 502.5,-112.5"/>
<text text-anchor="start" x="510.5" y="-130.5" font-family="Helvetica,sans-Serif" font-size="10.00" fill="#000000">ExpoConjugateGTRDPProfile</text>
<text text-anchor="middle" x="575.5" y="-119.5" font-family="Helvetica,sans-Serif" font-size="10.00" fill="#000000">Process.cpp</text>
</a>
</g>
</g>
<!-- Node16&#45;&gt;Node17 -->
<g id="edge5" class="edge">
<title>Node16&#45;&gt;Node17</title>
<path fill="none" stroke="#191970" d="M575.5,-169.0249C575.5,-160.128 575.5,-150.4287 575.5,-142.6432"/>
<polygon fill="#191970" stroke="#191970" points="572.0001,-169.2966 575.5,-179.2967 579.0001,-169.2967 572.0001,-169.2966"/>
</g>
<!-- Node18 -->
<g id="node7" class="node">
<title>Node18</title>
<g id="a_node7"><a xlink:href="RASCATGTRDPGammaPhyloProcess_8h.html" target="_top" xlink:title="RASCATGTRDPGammaPhyloProcess.h">
<polygon fill="none" stroke="#000000" points="667,-118 667,-137 864,-137 864,-118 667,-118"/>
<text text-anchor="middle" x="765.5" y="-125" font-family="Helvetica,sans-Serif" font-size="10.00" fill="#000000">RASCATGTRDPGammaPhyloProcess.h</text>
</a>
</g>
</g>
<!-- Node16&#45;&gt;Node18 -->
<g id="edge6" class="edge">
<title>Node16&#45;&gt;Node18</title>
<path fill="none" stroke="#191970" d="M627.9618,-176.0003C663.8249,-163.3538 709.8808,-147.1131 738.5447,-137.0053"/>
<polygon fill="#191970" stroke="#191970" points="626.4065,-172.8374 618.1397,-179.4639 628.7345,-179.439 626.4065,-172.8374"/>
</g>
<!-- Node19 -->
<g id="node8" class="node">
<title>Node19</title>
<g id="a_node8"><a xlink:href="RASCATGTRDPGammaPhyloProcess_8cpp.html" target="_top" xlink:title="RASCATGTRDPGammaPhyloProcess.cpp">
<polygon fill="none" stroke="#000000" points="662,-56.5 662,-75.5 869,-75.5 869,-56.5 662,-56.5"/>
<text text-anchor="middle" x="765.5" y="-63.5" font-family="Helvetica,sans-Serif" font-size="10.00" fill="#000000">RASCATGTRDPGammaPhyloProcess.cpp</text>
</a>
</g>
</g>
<!-- Node18&#45;&gt;Node19 -->
<g id="edge7" class="edge">
<title>Node18&#45;&gt;Node19</title>
<path fill="none" stroke="#191970" d="M765.5,-107.7462C765.5,-97.0519 765.5,-84.314 765.5,-75.7449"/>
<polygon fill="#191970" stroke="#191970" points="762.0001,-107.8906 765.5,-117.8906 769.0001,-107.8907 762.0001,-107.8906"/>
</g>
<!-- Node22 -->
<g id="node11" class="node">
<title>Node22</title>
<g id="a_node11"><a xlink:href="MatrixSBDPProfileProcess_8h.html" target="_top" xlink:title="MatrixSBDPProfileProcess.h">
<polygon fill="none" stroke="#000000" points="145,-252 145,-271 288,-271 288,-252 145,-252"/>
<text text-anchor="middle" x="216.5" y="-259" font-family="Helvetica,sans-Serif" font-size="10.00" fill="#000000">MatrixSBDPProfileProcess.h</text>
</a>
</g>
</g>
<!-- Node21&#45;&gt;Node22 -->
<g id="edge10" class="edge">
<title>Node21&#45;&gt;Node22</title>
<path fill="none" stroke="#191970" d="M210.1212,-308.9863C211.7947,-296.5286 213.8906,-280.9258 215.2129,-271.0817"/>
<polygon fill="#191970" stroke="#191970" points="206.652,-308.5236 208.7895,-318.9005 213.5897,-309.4555 206.652,-308.5236"/>
</g>
<!-- Node30 -->
<g id="node19" class="node">
<title>Node30</title>
<g id="a_node19"><a xlink:href="SBDPProfileProcess_8cpp.html" target="_top" xlink:title="SBDPProfileProcess.cpp">
<polygon fill="none" stroke="#000000" points="0,-252 0,-271 127,-271 127,-252 0,-252"/>
<text text-anchor="middle" x="63.5" y="-259" font-family="Helvetica,sans-Serif" font-size="10.00" fill="#000000">SBDPProfileProcess.cpp</text>
</a>
</g>
</g>
<!-- Node21&#45;&gt;Node30 -->
<g id="edge18" class="edge">
<title>Node21&#45;&gt;Node30</title>
<path fill="none" stroke="#191970" d="M177.5656,-314.5722C149.5895,-301.5555 108.5634,-282.467 84.0934,-271.0817"/>
<polygon fill="#191970" stroke="#191970" points="176.3252,-317.8553 186.8683,-318.9005 179.2781,-311.5086 176.3252,-317.8553"/>
</g>
<!-- Node23 -->
<g id="node12" class="node">
<title>Node23</title>
<g id="a_node12"><a xlink:href="ExpoConjugateGTRSBDPProfileProcess_8h.html" target="_top" xlink:title="ExpoConjugateGTRSBDPProfile\lProcess.h">
<polygon fill="none" stroke="#000000" points="299.5,-179.5 299.5,-209.5 459.5,-209.5 459.5,-179.5 299.5,-179.5"/>
<text text-anchor="start" x="307.5" y="-197.5" font-family="Helvetica,sans-Serif" font-size="10.00" fill="#000000">ExpoConjugateGTRSBDPProfile</text>
<text text-anchor="middle" x="379.5" y="-186.5" font-family="Helvetica,sans-Serif" font-size="10.00" fill="#000000">Process.h</text>
</a>
</g>
</g>
<!-- Node22&#45;&gt;Node23 -->
<g id="edge11" class="edge">
<title>Node22&#45;&gt;Node23</title>
<path fill="none" stroke="#191970" d="M249.287,-248.0231C276.395,-236.8806 314.8605,-221.0696 342.9545,-209.5218"/>
<polygon fill="#191970" stroke="#191970" points="247.7724,-244.8615 239.8539,-251.9005 250.4337,-251.3359 247.7724,-244.8615"/>
</g>
<!-- Node29 -->
<g id="node18" class="node">
<title>Node29</title>
<g id="a_node18"><a xlink:href="MatrixSBDPProfileProcess_8cpp.html" target="_top" xlink:title="MatrixSBDPProfileProcess.cpp">
<polygon fill="none" stroke="#000000" points="127.5,-185 127.5,-204 281.5,-204 281.5,-185 127.5,-185"/>
<text text-anchor="middle" x="204.5" y="-192" font-family="Helvetica,sans-Serif" font-size="10.00" fill="#000000">MatrixSBDPProfileProcess.cpp</text>
</a>
</g>
</g>
<!-- Node22&#45;&gt;Node29 -->
<g id="edge17" class="edge">
<title>Node22&#45;&gt;Node29</title>
<path fill="none" stroke="#191970" d="M213.005,-241.9863C210.7738,-229.5286 207.9792,-213.9258 206.2161,-204.0817"/>
<polygon fill="#191970" stroke="#191970" points="209.5724,-242.6742 214.7807,-251.9005 216.4628,-241.4401 209.5724,-242.6742"/>
</g>
<!-- Node24 -->
<g id="node13" class="node">
<title>Node24</title>
<g id="a_node13"><a xlink:href="ExpoConjugateGTRSBDPProfileProcess_8cpp.html" target="_top" xlink:title="ExpoConjugateGTRSBDPProfile\lProcess.cpp">
<polygon fill="none" stroke="#000000" points="96.5,-112.5 96.5,-142.5 256.5,-142.5 256.5,-112.5 96.5,-112.5"/>
<text text-anchor="start" x="104.5" y="-130.5" font-family="Helvetica,sans-Serif" font-size="10.00" fill="#000000">ExpoConjugateGTRSBDPProfile</text>
<text text-anchor="middle" x="176.5" y="-119.5" font-family="Helvetica,sans-Serif" font-size="10.00" fill="#000000">Process.cpp</text>
</a>
</g>
</g>
<!-- Node23&#45;&gt;Node24 -->
<g id="edge12" class="edge">
<title>Node23&#45;&gt;Node24</title>
<path fill="none" stroke="#191970" d="M324.2837,-176.2759C292.2904,-165.7165 252.4901,-152.5805 222.2559,-142.6017"/>
<polygon fill="#191970" stroke="#191970" points="323.3497,-179.6533 333.9428,-179.4639 325.5437,-173.006 323.3497,-179.6533"/>
</g>
<!-- Node25 -->
<g id="node14" class="node">
<title>Node25</title>
<g id="a_node14"><a xlink:href="RASCATGTRSBDPGammaPhyloProcess_8h.html" target="_top" xlink:title="RASCATGTRSBDPGammaPhyloProcess.h">
<polygon fill="none" stroke="#000000" points="274.5,-118 274.5,-137 484.5,-137 484.5,-118 274.5,-118"/>
<text text-anchor="middle" x="379.5" y="-125" font-family="Helvetica,sans-Serif" font-size="10.00" fill="#000000">RASCATGTRSBDPGammaPhyloProcess.h</text>
</a>
</g>
</g>
<!-- Node23&#45;&gt;Node25 -->
<g id="edge13" class="edge">
<title>Node23&#45;&gt;Node25</title>
<path fill="none" stroke="#191970" d="M379.5,-169.1199C379.5,-157.9072 379.5,-145.4031 379.5,-137.055"/>
<polygon fill="#191970" stroke="#191970" points="376.0001,-169.2966 379.5,-179.2967 383.0001,-169.2967 376.0001,-169.2966"/>
</g>
<!-- Node26 -->
<g id="node15" class="node">
<title>Node26</title>
<g id="a_node15"><a xlink:href="Model_8h.html" target="_top" xlink:title="Model.h">
<polygon fill="none" stroke="#000000" points="277,-56.5 277,-75.5 328,-75.5 328,-56.5 277,-56.5"/>
<text text-anchor="middle" x="302.5" y="-63.5" font-family="Helvetica,sans-Serif" font-size="10.00" fill="#000000">Model.h</text>
</a>
</g>
</g>
<!-- Node25&#45;&gt;Node26 -->
<g id="edge14" class="edge">
<title>Node25&#45;&gt;Node26</title>
<path fill="none" stroke="#191970" d="M359.6542,-111.6491C345.347,-100.222 326.5076,-85.1749 314.4468,-75.5419"/>
<polygon fill="#191970" stroke="#191970" points="357.4708,-114.3846 367.4688,-117.8906 361.8394,-108.915 357.4708,-114.3846"/>
</g>
<!-- Node28 -->
<g id="node17" class="node">
<title>Node28</title>
<g id="a_node17"><a xlink:href="RASCATGTRSBDPGammaPhyloProcess_8cpp.html" target="_top" xlink:title="RASCATGTRSBDPGammaPhyloProcess.cpp">
<polygon fill="none" stroke="#000000" points="346,-56.5 346,-75.5 567,-75.5 567,-56.5 346,-56.5"/>
<text text-anchor="middle" x="456.5" y="-63.5" font-family="Helvetica,sans-Serif" font-size="10.00" fill="#000000">RASCATGTRSBDPGammaPhyloProcess.cpp</text>
</a>
</g>
</g>
<!-- Node25&#45;&gt;Node28 -->
<g id="edge16" class="edge">
<title>Node25&#45;&gt;Node28</title>
<path fill="none" stroke="#191970" d="M399.3458,-111.6491C413.653,-100.222 432.4924,-85.1749 444.5532,-75.5419"/>
<polygon fill="#191970" stroke="#191970" points="397.1606,-108.915 391.5313,-117.8906 401.5292,-114.3846 397.1606,-108.915"/>
</g>
<!-- Node27 -->
<g id="node16" class="node">
<title>Node27</title>
<g id="a_node16"><a xlink:href="PB_8cpp.html" target="_top" xlink:title="PB.cpp">
<polygon fill="none" stroke="#000000" points="278,-.5 278,-19.5 327,-19.5 327,-.5 278,-.5"/>
<text text-anchor="middle" x="302.5" y="-7.5" font-family="Helvetica,sans-Serif" font-size="10.00" fill="#000000">PB.cpp</text>
</a>
</g>
</g>
<!-- Node26&#45;&gt;Node27 -->
<g id="edge15" class="edge">
<title>Node26&#45;&gt;Node27</title>
<path fill="none" stroke="#191970" d="M302.5,-46.1575C302.5,-37.155 302.5,-26.9199 302.5,-19.6427"/>
<polygon fill="#191970" stroke="#191970" points="299.0001,-46.2455 302.5,-56.2455 306.0001,-46.2456 299.0001,-46.2455"/>
</g>
<!-- Node31&#45;&gt;Node15 -->
<g id="edge20" class="edge">
<title>Node31&#45;&gt;Node15</title>
<path fill="none" stroke="#191970" d="M441.8283,-373.8692C428.0337,-362.5576 410.0442,-347.8062 398.384,-338.2449"/>
<polygon fill="#191970" stroke="#191970" points="439.8293,-376.7562 449.7813,-380.3906 444.2678,-371.3433 439.8293,-376.7562"/>
</g>
<!-- Node31&#45;&gt;Node22 -->
<g id="edge27" class="edge">
<title>Node31&#45;&gt;Node22</title>
<path fill="none" stroke="#191970" d="M403.686,-378.0397C375.1202,-370.6903 340.7997,-359.6325 312.5,-344 302.9302,-338.7137 250.2292,-291.7942 227.2352,-271.1625"/>
<polygon fill="#191970" stroke="#191970" points="402.9819,-381.4711 413.5308,-380.4861 404.67,-374.6777 402.9819,-381.4711"/>
</g>
<!-- Node32 -->
<g id="node21" class="node">
<title>Node32</title>
<g id="a_node21"><a xlink:href="GTRMixtureProfileProcess_8h.html" target="_top" xlink:title="GTRMixtureProfileProcess.h">
<polygon fill="none" stroke="#000000" points="797.5,-319 797.5,-338 939.5,-338 939.5,-319 797.5,-319"/>
<text text-anchor="middle" x="868.5" y="-326" font-family="Helvetica,sans-Serif" font-size="10.00" fill="#000000">GTRMixtureProfileProcess.h</text>
</a>
</g>
</g>
<!-- Node31&#45;&gt;Node32 -->
<g id="edge21" class="edge">
<title>Node31&#45;&gt;Node32</title>
<path fill="none" stroke="#191970" d="M545.6523,-379.3768C611.8047,-370.7329 706.2093,-357.7505 788.5,-344 799.2444,-342.2047 810.7629,-340.087 821.6178,-338.0035"/>
<polygon fill="#191970" stroke="#191970" points="545.1579,-375.9116 535.6934,-380.6732 546.0615,-382.853 545.1579,-375.9116"/>
</g>
<!-- Node36 -->
<g id="node25" class="node">
<title>Node36</title>
<g id="a_node25"><a xlink:href="GeneralPathSuffStatMatrixMixtureProfileProcess_8h.html" target="_top" xlink:title="GeneralPathSuffStatMatrix\lMixtureProfileProcess.h">
<polygon fill="none" stroke="#000000" points="469.5,-313.5 469.5,-343.5 603.5,-343.5 603.5,-313.5 469.5,-313.5"/>
<text text-anchor="start" x="477.5" y="-331.5" font-family="Helvetica,sans-Serif" font-size="10.00" fill="#000000">GeneralPathSuffStatMatrix</text>
<text text-anchor="middle" x="536.5" y="-320.5" font-family="Helvetica,sans-Serif" font-size="10.00" fill="#000000">MixtureProfileProcess.h</text>
</a>
</g>
</g>
<!-- Node31&#45;&gt;Node36 -->
<g id="edge28" class="edge">
<title>Node31&#45;&gt;Node36</title>
<path fill="none" stroke="#191970" d="M480.9653,-374.0385C492.442,-364.6276 506.8766,-352.7911 518.1529,-343.5446"/>
<polygon fill="#191970" stroke="#191970" points="478.7322,-371.3433 473.2188,-380.3906 483.1707,-376.7562 478.7322,-371.3433"/>
</g>
<!-- Node38 -->
<g id="node27" class="node">
<title>Node38</title>
<g id="a_node27"><a xlink:href="MatrixMixtureProfileProcess_8cpp.html" target="_top" xlink:title="MatrixMixtureProfileProcess.cpp">
<polygon fill="none" stroke="#000000" points="621.5,-319 621.5,-338 779.5,-338 779.5,-319 621.5,-319"/>
<text text-anchor="middle" x="700.5" y="-326" font-family="Helvetica,sans-Serif" font-size="10.00" fill="#000000">MatrixMixtureProfileProcess.cpp</text>
</a>
</g>
</g>
<!-- Node31&#45;&gt;Node38 -->
<g id="edge30" class="edge">
<title>Node31&#45;&gt;Node38</title>
<path fill="none" stroke="#191970" d="M508.467,-377.9144C553.8245,-366.2428 621.6069,-348.8009 663.3315,-338.0643"/>
<polygon fill="#191970" stroke="#191970" points="507.3938,-374.5764 498.5815,-380.4581 509.1383,-381.3556 507.3938,-374.5764"/>
</g>
<!-- Node33 -->
<g id="node22" class="node">
<title>Node33</title>
<g id="a_node22"><a xlink:href="ExpoConjugateGTRMixtureProfileProcess_8h.html" target="_top" xlink:title="ExpoConjugateGTRMixtureProfile\lProcess.h">
<polygon fill="none" stroke="#000000" points="654.5,-246.5 654.5,-276.5 818.5,-276.5 818.5,-246.5 654.5,-246.5"/>
<text text-anchor="start" x="662.5" y="-264.5" font-family="Helvetica,sans-Serif" font-size="10.00" fill="#000000">ExpoConjugateGTRMixtureProfile</text>
<text text-anchor="middle" x="736.5" y="-253.5" font-family="Helvetica,sans-Serif" font-size="10.00" fill="#000000">Process.h</text>
</a>
</g>
</g>
<!-- Node32&#45;&gt;Node33 -->
<g id="edge22" class="edge">
<title>Node32&#45;&gt;Node33</title>
<path fill="none" stroke="#191970" d="M840.4913,-314.2834C818.6339,-303.1892 788.3472,-287.8164 766.0951,-276.5218"/>
<polygon fill="#191970" stroke="#191970" points="839.0864,-317.4954 849.5876,-318.9005 842.2547,-311.2534 839.0864,-317.4954"/>
</g>
<!-- Node35 -->
<g id="node24" class="node">
<title>Node35</title>
<g id="a_node24"><a xlink:href="GTRMixtureProfileProcess_8cpp.html" target="_top" xlink:title="GTRMixtureProfileProcess.cpp">
<polygon fill="none" stroke="#000000" points="836.5,-252 836.5,-271 988.5,-271 988.5,-252 836.5,-252"/>
<text text-anchor="middle" x="912.5" y="-259" font-family="Helvetica,sans-Serif" font-size="10.00" fill="#000000">GTRMixtureProfileProcess.cpp</text>
</a>
</g>
</g>
<!-- Node32&#45;&gt;Node35 -->
<g id="edge26" class="edge">
<title>Node32&#45;&gt;Node35</title>
<path fill="none" stroke="#191970" d="M880.3338,-310.4803C888.6619,-297.7989 899.4816,-281.3235 906.2076,-271.0817"/>
<polygon fill="#191970" stroke="#191970" points="877.3679,-308.6206 874.8041,-318.9005 883.219,-312.4631 877.3679,-308.6206"/>
</g>
<!-- Node33&#45;&gt;Node16 -->
<g id="edge23" class="edge">
<title>Node33&#45;&gt;Node16</title>
<path fill="none" stroke="#191970" d="M691.0587,-242.5897C665.9767,-232.1518 635.2512,-219.3654 611.7891,-209.6017"/>
<polygon fill="#191970" stroke="#191970" points="689.7912,-245.8531 700.3685,-246.4639 692.4807,-239.3904 689.7912,-245.8531"/>
</g>
<!-- Node33&#45;&gt;Node23 -->
<g id="edge25" class="edge">
<title>Node33&#45;&gt;Node23</title>
<path fill="none" stroke="#191970" d="M646.218,-244.5563C588.7696,-233.7747 515.0355,-219.9366 459.6586,-209.5438"/>
<polygon fill="#191970" stroke="#191970" points="645.9082,-248.0592 656.3822,-246.4639 647.1994,-241.1793 645.9082,-248.0592"/>
</g>
<!-- Node34 -->
<g id="node23" class="node">
<title>Node34</title>
<g id="a_node23"><a xlink:href="ExpoConjugateGTRMixtureProfileProcess_8cpp.html" target="_top" xlink:title="ExpoConjugateGTRMixtureProfile\lProcess.cpp">
<polygon fill="none" stroke="#000000" points="666.5,-179.5 666.5,-209.5 830.5,-209.5 830.5,-179.5 666.5,-179.5"/>
<text text-anchor="start" x="674.5" y="-197.5" font-family="Helvetica,sans-Serif" font-size="10.00" fill="#000000">ExpoConjugateGTRMixtureProfile</text>
<text text-anchor="middle" x="748.5" y="-186.5" font-family="Helvetica,sans-Serif" font-size="10.00" fill="#000000">Process.cpp</text>
</a>
</g>
</g>
<!-- Node33&#45;&gt;Node34 -->
<g id="edge24" class="edge">
<title>Node33&#45;&gt;Node34</title>
<path fill="none" stroke="#191970" d="M741.0102,-236.3179C742.618,-227.3414 744.378,-217.5143 745.7878,-209.6432"/>
<polygon fill="#191970" stroke="#191970" points="737.5409,-235.8362 739.223,-246.2967 744.4312,-237.0704 737.5409,-235.8362"/>
</g>
<!-- Node37 -->
<g id="node26" class="node">
<title>Node37</title>
<g id="a_node26"><a xlink:href="GeneralPathSuffStatMatrixMixtureProfileProcess_8cpp.html" target="_top" xlink:title="GeneralPathSuffStatMatrix\lMixtureProfileProcess.cpp">
<polygon fill="none" stroke="#000000" points="502.5,-246.5 502.5,-276.5 636.5,-276.5 636.5,-246.5 502.5,-246.5"/>
<text text-anchor="start" x="510.5" y="-264.5" font-family="Helvetica,sans-Serif" font-size="10.00" fill="#000000">GeneralPathSuffStatMatrix</text>
<text text-anchor="middle" x="569.5" y="-253.5" font-family="Helvetica,sans-Serif" font-size="10.00" fill="#000000">MixtureProfileProcess.cpp</text>
</a>
</g>
</g>
<!-- Node36&#45;&gt;Node37 -->
<g id="edge29" class="edge">
<title>Node36&#45;&gt;Node37</title>
<path fill="none" stroke="#191970" d="M548.472,-304.1932C553.0077,-294.9844 558.0382,-284.771 562.0414,-276.6432"/>
<polygon fill="#191970" stroke="#191970" points="545.2669,-302.7793 543.9882,-313.2967 551.5466,-305.8723 545.2669,-302.7793"/>
</g>
</g>
</svg>
