<?xml version="1.0" encoding="UTF-8" standalone="no"?>
<!DOCTYPE svg PUBLIC "-//W3C//DTD SVG 1.1//EN"
 "http://www.w3.org/Graphics/SVG/1.1/DTD/svg11.dtd">
<!-- Generated by graphviz version 2.40.1 (20161225.0304)
 -->
<!-- Title: MixtureProfileProcess.h Pages: 1 -->
<svg width="802pt" height="464pt"
 viewBox="0.00 0.00 801.50 464.00" xmlns="http://www.w3.org/2000/svg" xmlns:xlink="http://www.w3.org/1999/xlink">
<g id="graph0" class="graph" transform="scale(1 1) rotate(0) translate(4 460)">
<title>MixtureProfileProcess.h</title>
<!-- Node12 -->
<g id="node1" class="node">
<title>Node12</title>
<polygon fill="#bfbfbf" stroke="#000000" points="334,-436.5 334,-455.5 455,-455.5 455,-436.5 334,-436.5"/>
<text text-anchor="middle" x="394.5" y="-443.5" font-family="Helvetica,sans-Serif" font-size="10.00" fill="#000000">MixtureProfileProcess.h</text>
</g>
<!-- Node13 -->
<g id="node2" class="node">
<title>Node13</title>
<g id="a_node2"><a xlink:href="DPProfileProcess_8h.html" target="_top" xlink:title="DPProfileProcess.h">
<polygon fill="none" stroke="#000000" points="158,-380.5 158,-399.5 261,-399.5 261,-380.5 158,-380.5"/>
<text text-anchor="middle" x="209.5" y="-387.5" font-family="Helvetica,sans-Serif" font-size="10.00" fill="#000000">DPProfileProcess.h</text>
</a>
</g>
</g>
<!-- Node12&#45;&gt;Node13 -->
<g id="edge1" class="edge">
<title>Node12&#45;&gt;Node13</title>
<path fill="none" stroke="#191970" d="M353.0603,-433.4561C319.1009,-423.1765 271.7703,-408.8494 240.8876,-399.5011"/>
<polygon fill="#191970" stroke="#191970" points="352.1122,-436.8259 362.6974,-436.3733 354.1403,-430.1261 352.1122,-436.8259"/>
</g>
<!-- Node25 -->
<g id="node14" class="node">
<title>Node25</title>
<g id="a_node14"><a xlink:href="MatrixMixtureProfileProcess_8h.html" target="_top" xlink:title="MatrixMixtureProfileProcess.h">
<polygon fill="none" stroke="#000000" points="320.5,-380.5 320.5,-399.5 468.5,-399.5 468.5,-380.5 320.5,-380.5"/>
<text text-anchor="middle" x="394.5" y="-387.5" font-family="Helvetica,sans-Serif" font-size="10.00" fill="#000000">MatrixMixtureProfileProcess.h</text>
</a>
</g>
</g>
<!-- Node12&#45;&gt;Node25 -->
<g id="edge13" class="edge">
<title>Node12&#45;&gt;Node25</title>
<path fill="none" stroke="#191970" d="M394.5,-426.1575C394.5,-417.155 394.5,-406.9199 394.5,-399.6427"/>
<polygon fill="#191970" stroke="#191970" points="391.0001,-426.2455 394.5,-436.2455 398.0001,-426.2456 391.0001,-426.2455"/>
</g>
<!-- Node33 -->
<g id="node22" class="node">
<title>Node33</title>
<g id="a_node22"><a xlink:href="MixtureProfileProcess_8cpp.html" target="_top" xlink:title="MixtureProfileProcess.cpp">
<polygon fill="none" stroke="#000000" points="487,-380.5 487,-399.5 618,-399.5 618,-380.5 487,-380.5"/>
<text text-anchor="middle" x="552.5" y="-387.5" font-family="Helvetica,sans-Serif" font-size="10.00" fill="#000000">MixtureProfileProcess.cpp</text>
</a>
</g>
</g>
<!-- Node12&#45;&gt;Node33 -->
<g id="edge23" class="edge">
<title>Node12&#45;&gt;Node33</title>
<path fill="none" stroke="#191970" d="M431.3955,-432.9231C460.2787,-422.686 499.7706,-408.6889 525.6933,-399.5011"/>
<polygon fill="#191970" stroke="#191970" points="429.9174,-429.7336 421.6612,-436.3733 432.2559,-436.3314 429.9174,-429.7336"/>
</g>
<!-- Node14 -->
<g id="node3" class="node">
<title>Node14</title>
<g id="a_node3"><a xlink:href="DPProfileProcess_8cpp.html" target="_top" xlink:title="DPProfileProcess.cpp">
<polygon fill="none" stroke="#000000" points="20,-319 20,-338 133,-338 133,-319 20,-319"/>
<text text-anchor="middle" x="76.5" y="-326" font-family="Helvetica,sans-Serif" font-size="10.00" fill="#000000">DPProfileProcess.cpp</text>
</a>
</g>
</g>
<!-- Node13&#45;&gt;Node14 -->
<g id="edge2" class="edge">
<title>Node13&#45;&gt;Node14</title>
<path fill="none" stroke="#191970" d="M179.6334,-376.1895C154.5053,-364.5701 119.2332,-348.2601 97.1353,-338.0419"/>
<polygon fill="#191970" stroke="#191970" points="178.1731,-379.3703 188.7188,-380.3906 181.1111,-373.0167 178.1731,-379.3703"/>
</g>
<!-- Node15 -->
<g id="node4" class="node">
<title>Node15</title>
<g id="a_node4"><a xlink:href="SBDPProfileProcess_8h.html" target="_top" xlink:title="SBDPProfileProcess.h">
<polygon fill="none" stroke="#000000" points="151.5,-319 151.5,-338 267.5,-338 267.5,-319 151.5,-319"/>
<text text-anchor="middle" x="209.5" y="-326" font-family="Helvetica,sans-Serif" font-size="10.00" fill="#000000">SBDPProfileProcess.h</text>
</a>
</g>
</g>
<!-- Node13&#45;&gt;Node15 -->
<g id="edge3" class="edge">
<title>Node13&#45;&gt;Node15</title>
<path fill="none" stroke="#191970" d="M209.5,-370.2462C209.5,-359.5519 209.5,-346.814 209.5,-338.2449"/>
<polygon fill="#191970" stroke="#191970" points="206.0001,-370.3906 209.5,-380.3906 213.0001,-370.3907 206.0001,-370.3906"/>
</g>
<!-- Node16 -->
<g id="node5" class="node">
<title>Node16</title>
<g id="a_node5"><a xlink:href="MatrixSBDPProfileProcess_8h.html" target="_top" xlink:title="MatrixSBDPProfileProcess.h">
<polygon fill="none" stroke="#000000" points="145,-252 145,-271 288,-271 288,-252 145,-252"/>
<text text-anchor="middle" x="216.5" y="-259" font-family="Helvetica,sans-Serif" font-size="10.00" fill="#000000">MatrixSBDPProfileProcess.h</text>
</a>
</g>
</g>
<!-- Node15&#45;&gt;Node16 -->
<g id="edge4" class="edge">
<title>Node15&#45;&gt;Node16</title>
<path fill="none" stroke="#191970" d="M211.5783,-308.6079C212.8732,-296.214 214.4808,-280.8263 215.4989,-271.0817"/>
<polygon fill="#191970" stroke="#191970" points="208.0611,-308.5909 210.5029,-318.9005 215.0232,-309.3184 208.0611,-308.5909"/>
</g>
<!-- Node24 -->
<g id="node13" class="node">
<title>Node24</title>
<g id="a_node13"><a xlink:href="SBDPProfileProcess_8cpp.html" target="_top" xlink:title="SBDPProfileProcess.cpp">
<polygon fill="none" stroke="#000000" points="0,-252 0,-271 127,-271 127,-252 0,-252"/>
<text text-anchor="middle" x="63.5" y="-259" font-family="Helvetica,sans-Serif" font-size="10.00" fill="#000000">SBDPProfileProcess.cpp</text>
</a>
</g>
</g>
<!-- Node15&#45;&gt;Node24 -->
<g id="edge12" class="edge">
<title>Node15&#45;&gt;Node24</title>
<path fill="none" stroke="#191970" d="M179.1498,-314.5722C150.7852,-301.5555 109.1893,-282.467 84.3794,-271.0817"/>
<polygon fill="#191970" stroke="#191970" points="178.0333,-317.9107 188.5818,-318.9005 180.9529,-311.5486 178.0333,-317.9107"/>
</g>
<!-- Node17 -->
<g id="node6" class="node">
<title>Node17</title>
<g id="a_node6"><a xlink:href="ExpoConjugateGTRSBDPProfileProcess_8h.html" target="_top" xlink:title="ExpoConjugateGTRSBDPProfile\lProcess.h">
<polygon fill="none" stroke="#000000" points="222.5,-179.5 222.5,-209.5 382.5,-209.5 382.5,-179.5 222.5,-179.5"/>
<text text-anchor="start" x="230.5" y="-197.5" font-family="Helvetica,sans-Serif" font-size="10.00" fill="#000000">ExpoConjugateGTRSBDPProfile</text>
<text text-anchor="middle" x="302.5" y="-186.5" font-family="Helvetica,sans-Serif" font-size="10.00" fill="#000000">Process.h</text>
</a>
</g>
</g>
<!-- Node16&#45;&gt;Node17 -->
<g id="edge5" class="edge">
<title>Node16&#45;&gt;Node17</title>
<path fill="none" stroke="#191970" d="M236.8942,-245.6115C250.9225,-234.6825 269.4359,-220.2592 283.2183,-209.5218"/>
<polygon fill="#191970" stroke="#191970" points="234.5593,-242.9937 228.8217,-251.9005 238.8613,-248.5158 234.5593,-242.9937"/>
</g>
<!-- Node23 -->
<g id="node12" class="node">
<title>Node23</title>
<g id="a_node12"><a xlink:href="MatrixSBDPProfileProcess_8cpp.html" target="_top" xlink:title="MatrixSBDPProfileProcess.cpp">
<polygon fill="none" stroke="#000000" points="50.5,-185 50.5,-204 204.5,-204 204.5,-185 50.5,-185"/>
<text text-anchor="middle" x="127.5" y="-192" font-family="Helvetica,sans-Serif" font-size="10.00" fill="#000000">MatrixSBDPProfileProcess.cpp</text>
</a>
</g>
</g>
<!-- Node16&#45;&gt;Node23 -->
<g id="edge11" class="edge">
<title>Node16&#45;&gt;Node23</title>
<path fill="none" stroke="#191970" d="M195.4534,-245.6559C178.2957,-232.7395 154.6252,-214.9201 140.2279,-204.0817"/>
<polygon fill="#191970" stroke="#191970" points="193.6542,-248.6824 203.7485,-251.9005 197.8643,-243.0899 193.6542,-248.6824"/>
</g>
<!-- Node18 -->
<g id="node7" class="node">
<title>Node18</title>
<g id="a_node7"><a xlink:href="ExpoConjugateGTRSBDPProfileProcess_8cpp.html" target="_top" xlink:title="ExpoConjugateGTRSBDPProfile\lProcess.cpp">
<polygon fill="none" stroke="#000000" points="121.5,-112.5 121.5,-142.5 281.5,-142.5 281.5,-112.5 121.5,-112.5"/>
<text text-anchor="start" x="129.5" y="-130.5" font-family="Helvetica,sans-Serif" font-size="10.00" fill="#000000">ExpoConjugateGTRSBDPProfile</text>
<text text-anchor="middle" x="201.5" y="-119.5" font-family="Helvetica,sans-Serif" font-size="10.00" fill="#000000">Process.cpp</text>
</a>
</g>
</g>
<!-- Node17&#45;&gt;Node18 -->
<g id="edge6" class="edge">
<title>Node17&#45;&gt;Node18</title>
<path fill="none" stroke="#191970" d="M271.2881,-173.7951C256.1543,-163.7558 238.3008,-151.9124 224.4402,-142.7177"/>
<polygon fill="#191970" stroke="#191970" points="269.5656,-176.8525 279.8336,-179.4639 273.4352,-171.0193 269.5656,-176.8525"/>
</g>
<!-- Node19 -->
<g id="node8" class="node">
<title>Node19</title>
<g id="a_node8"><a xlink:href="RASCATGTRSBDPGammaPhyloProcess_8h.html" target="_top" xlink:title="RASCATGTRSBDPGammaPhyloProcess.h">
<polygon fill="none" stroke="#000000" points="299.5,-118 299.5,-137 509.5,-137 509.5,-118 299.5,-118"/>
<text text-anchor="middle" x="404.5" y="-125" font-family="Helvetica,sans-Serif" font-size="10.00" fill="#000000">RASCATGTRSBDPGammaPhyloProcess.h</text>
</a>
</g>
</g>
<!-- Node17&#45;&gt;Node19 -->
<g id="edge7" class="edge">
<title>Node17&#45;&gt;Node19</title>
<path fill="none" stroke="#191970" d="M333.8942,-173.8783C352.5491,-161.6246 375.3322,-146.6593 389.8791,-137.1039"/>
<polygon fill="#191970" stroke="#191970" points="331.8274,-171.0484 325.3908,-179.4639 335.6705,-176.8991 331.8274,-171.0484"/>
</g>
<!-- Node20 -->
<g id="node9" class="node">
<title>Node20</title>
<g id="a_node9"><a xlink:href="Model_8h.html" target="_top" xlink:title="Model.h">
<polygon fill="none" stroke="#000000" points="302,-56.5 302,-75.5 353,-75.5 353,-56.5 302,-56.5"/>
<text text-anchor="middle" x="327.5" y="-63.5" font-family="Helvetica,sans-Serif" font-size="10.00" fill="#000000">Model.h</text>
</a>
</g>
</g>
<!-- Node19&#45;&gt;Node20 -->
<g id="edge8" class="edge">
<title>Node19&#45;&gt;Node20</title>
<path fill="none" stroke="#191970" d="M384.6542,-111.6491C370.347,-100.222 351.5076,-85.1749 339.4468,-75.5419"/>
<polygon fill="#191970" stroke="#191970" points="382.4708,-114.3846 392.4688,-117.8906 386.8394,-108.915 382.4708,-114.3846"/>
</g>
<!-- Node22 -->
<g id="node11" class="node">
<title>Node22</title>
<g id="a_node11"><a xlink:href="RASCATGTRSBDPGammaPhyloProcess_8cpp.html" target="_top" xlink:title="RASCATGTRSBDPGammaPhyloProcess.cpp">
<polygon fill="none" stroke="#000000" points="371,-56.5 371,-75.5 592,-75.5 592,-56.5 371,-56.5"/>
<text text-anchor="middle" x="481.5" y="-63.5" font-family="Helvetica,sans-Serif" font-size="10.00" fill="#000000">RASCATGTRSBDPGammaPhyloProcess.cpp</text>
</a>
</g>
</g>
<!-- Node19&#45;&gt;Node22 -->
<g id="edge10" class="edge">
<title>Node19&#45;&gt;Node22</title>
<path fill="none" stroke="#191970" d="M424.3458,-111.6491C438.653,-100.222 457.4924,-85.1749 469.5532,-75.5419"/>
<polygon fill="#191970" stroke="#191970" points="422.1606,-108.915 416.5313,-117.8906 426.5292,-114.3846 422.1606,-108.915"/>
</g>
<!-- Node21 -->
<g id="node10" class="node">
<title>Node21</title>
<g id="a_node10"><a xlink:href="PB_8cpp.html" target="_top" xlink:title="PB.cpp">
<polygon fill="none" stroke="#000000" points="303,-.5 303,-19.5 352,-19.5 352,-.5 303,-.5"/>
<text text-anchor="middle" x="327.5" y="-7.5" font-family="Helvetica,sans-Serif" font-size="10.00" fill="#000000">PB.cpp</text>
</a>
</g>
</g>
<!-- Node20&#45;&gt;Node21 -->
<g id="edge9" class="edge">
<title>Node20&#45;&gt;Node21</title>
<path fill="none" stroke="#191970" d="M327.5,-46.1575C327.5,-37.155 327.5,-26.9199 327.5,-19.6427"/>
<polygon fill="#191970" stroke="#191970" points="324.0001,-46.2455 327.5,-56.2455 331.0001,-46.2456 324.0001,-46.2455"/>
</g>
<!-- Node25&#45;&gt;Node16 -->
<g id="edge19" class="edge">
<title>Node25&#45;&gt;Node16</title>
<path fill="none" stroke="#191970" d="M366.618,-375.5597C350.8945,-367.028 331.1292,-355.6419 314.5,-344 305.4361,-337.6544 251.2459,-291.3225 227.5637,-271.0049"/>
<polygon fill="#191970" stroke="#191970" points="365.3526,-378.852 375.8217,-380.4798 368.6528,-372.6787 365.3526,-378.852"/>
</g>
<!-- Node26 -->
<g id="node15" class="node">
<title>Node26</title>
<g id="a_node15"><a xlink:href="GTRMixtureProfileProcess_8h.html" target="_top" xlink:title="GTRMixtureProfileProcess.h">
<polygon fill="none" stroke="#000000" points="323.5,-319 323.5,-338 465.5,-338 465.5,-319 323.5,-319"/>
<text text-anchor="middle" x="394.5" y="-326" font-family="Helvetica,sans-Serif" font-size="10.00" fill="#000000">GTRMixtureProfileProcess.h</text>
</a>
</g>
</g>
<!-- Node25&#45;&gt;Node26 -->
<g id="edge14" class="edge">
<title>Node25&#45;&gt;Node26</title>
<path fill="none" stroke="#191970" d="M394.5,-370.2462C394.5,-359.5519 394.5,-346.814 394.5,-338.2449"/>
<polygon fill="#191970" stroke="#191970" points="391.0001,-370.3906 394.5,-380.3906 398.0001,-370.3907 391.0001,-370.3906"/>
</g>
<!-- Node30 -->
<g id="node19" class="node">
<title>Node30</title>
<g id="a_node19"><a xlink:href="GeneralPathSuffStatMatrixMixtureProfileProcess_8h.html" target="_top" xlink:title="GeneralPathSuffStatMatrix\lMixtureProfileProcess.h">
<polygon fill="none" stroke="#000000" points="483.5,-313.5 483.5,-343.5 617.5,-343.5 617.5,-313.5 483.5,-313.5"/>
<text text-anchor="start" x="491.5" y="-331.5" font-family="Helvetica,sans-Serif" font-size="10.00" fill="#000000">GeneralPathSuffStatMatrix</text>
<text text-anchor="middle" x="550.5" y="-320.5" font-family="Helvetica,sans-Serif" font-size="10.00" fill="#000000">MixtureProfileProcess.h</text>
</a>
</g>
</g>
<!-- Node25&#45;&gt;Node30 -->
<g id="edge20" class="edge">
<title>Node25&#45;&gt;Node30</title>
<path fill="none" stroke="#191970" d="M428.2206,-376.7063C452.9674,-366.9503 486.6063,-353.6889 512.3381,-343.5446"/>
<polygon fill="#191970" stroke="#191970" points="426.8945,-373.4669 418.875,-380.3906 429.4618,-379.9791 426.8945,-373.4669"/>
</g>
<!-- Node32 -->
<g id="node21" class="node">
<title>Node32</title>
<g id="a_node21"><a xlink:href="MatrixMixtureProfileProcess_8cpp.html" target="_top" xlink:title="MatrixMixtureProfileProcess.cpp">
<polygon fill="none" stroke="#000000" points="635.5,-319 635.5,-338 793.5,-338 793.5,-319 635.5,-319"/>
<text text-anchor="middle" x="714.5" y="-326" font-family="Helvetica,sans-Serif" font-size="10.00" fill="#000000">MatrixMixtureProfileProcess.cpp</text>
</a>
</g>
</g>
<!-- Node25&#45;&gt;Node32 -->
<g id="edge22" class="edge">
<title>Node25&#45;&gt;Node32</title>
<path fill="none" stroke="#191970" d="M453.9873,-378.5673C514.7789,-366.8839 608.1051,-348.9478 664.9979,-338.0137"/>
<polygon fill="#191970" stroke="#191970" points="453.3086,-375.1336 444.1489,-380.4581 454.6298,-382.0078 453.3086,-375.1336"/>
</g>
<!-- Node27 -->
<g id="node16" class="node">
<title>Node27</title>
<g id="a_node16"><a xlink:href="ExpoConjugateGTRMixtureProfileProcess_8h.html" target="_top" xlink:title="ExpoConjugateGTRMixtureProfile\lProcess.h">
<polygon fill="none" stroke="#000000" points="306.5,-246.5 306.5,-276.5 470.5,-276.5 470.5,-246.5 306.5,-246.5"/>
<text text-anchor="start" x="314.5" y="-264.5" font-family="Helvetica,sans-Serif" font-size="10.00" fill="#000000">ExpoConjugateGTRMixtureProfile</text>
<text text-anchor="middle" x="388.5" y="-253.5" font-family="Helvetica,sans-Serif" font-size="10.00" fill="#000000">Process.h</text>
</a>
</g>
</g>
<!-- Node26&#45;&gt;Node27 -->
<g id="edge15" class="edge">
<title>Node26&#45;&gt;Node27</title>
<path fill="none" stroke="#191970" d="M392.7337,-308.7758C391.8102,-298.4641 390.6979,-286.0437 389.8452,-276.5218"/>
<polygon fill="#191970" stroke="#191970" points="389.2623,-309.2526 393.6403,-318.9005 396.2344,-308.6282 389.2623,-309.2526"/>
</g>
<!-- Node29 -->
<g id="node18" class="node">
<title>Node29</title>
<g id="a_node18"><a xlink:href="GTRMixtureProfileProcess_8cpp.html" target="_top" xlink:title="GTRMixtureProfileProcess.cpp">
<polygon fill="none" stroke="#000000" points="488.5,-252 488.5,-271 640.5,-271 640.5,-252 488.5,-252"/>
<text text-anchor="middle" x="564.5" y="-259" font-family="Helvetica,sans-Serif" font-size="10.00" fill="#000000">GTRMixtureProfileProcess.cpp</text>
</a>
</g>
</g>
<!-- Node26&#45;&gt;Node29 -->
<g id="edge18" class="edge">
<title>Node26&#45;&gt;Node29</title>
<path fill="none" stroke="#191970" d="M428.5492,-315.0806C461.5942,-302.057 510.9217,-282.6162 540.1883,-271.0817"/>
<polygon fill="#191970" stroke="#191970" points="426.877,-311.9776 418.8569,-318.9005 429.4437,-318.49 426.877,-311.9776"/>
</g>
<!-- Node27&#45;&gt;Node17 -->
<g id="edge17" class="edge">
<title>Node27&#45;&gt;Node17</title>
<path fill="none" stroke="#191970" d="M360.9855,-240.0643C348.2696,-230.1577 333.4684,-218.6265 321.9375,-209.6432"/>
<polygon fill="#191970" stroke="#191970" points="358.9456,-242.9119 368.9853,-246.2967 363.2477,-237.3899 358.9456,-242.9119"/>
</g>
<!-- Node28 -->
<g id="node17" class="node">
<title>Node28</title>
<g id="a_node17"><a xlink:href="ExpoConjugateGTRMixtureProfileProcess_8cpp.html" target="_top" xlink:title="ExpoConjugateGTRMixtureProfile\lProcess.cpp">
<polygon fill="none" stroke="#000000" points="400.5,-179.5 400.5,-209.5 564.5,-209.5 564.5,-179.5 400.5,-179.5"/>
<text text-anchor="start" x="408.5" y="-197.5" font-family="Helvetica,sans-Serif" font-size="10.00" fill="#000000">ExpoConjugateGTRMixtureProfile</text>
<text text-anchor="middle" x="482.5" y="-186.5" font-family="Helvetica,sans-Serif" font-size="10.00" fill="#000000">Process.cpp</text>
</a>
</g>
</g>
<!-- Node27&#45;&gt;Node28 -->
<g id="edge16" class="edge">
<title>Node27&#45;&gt;Node28</title>
<path fill="none" stroke="#191970" d="M418.1775,-240.3469C432.1643,-230.3776 448.5308,-218.7121 461.2544,-209.6432"/>
<polygon fill="#191970" stroke="#191970" points="415.9418,-237.6423 409.8301,-246.2967 420.0047,-243.3426 415.9418,-237.6423"/>
</g>
<!-- Node31 -->
<g id="node20" class="node">
<title>Node31</title>
<g id="a_node20"><a xlink:href="GeneralPathSuffStatMatrixMixtureProfileProcess_8cpp.html" target="_top" xlink:title="GeneralPathSuffStatMatrix\lMixtureProfileProcess.cpp">
<polygon fill="none" stroke="#000000" points="658.5,-246.5 658.5,-276.5 792.5,-276.5 792.5,-246.5 658.5,-246.5"/>
<text text-anchor="start" x="666.5" y="-264.5" font-family="Helvetica,sans-Serif" font-size="10.00" fill="#000000">GeneralPathSuffStatMatrix</text>
<text text-anchor="middle" x="725.5" y="-253.5" font-family="Helvetica,sans-Serif" font-size="10.00" fill="#000000">MixtureProfileProcess.cpp</text>
</a>
</g>
</g>
<!-- Node30&#45;&gt;Node31 -->
<g id="edge21" class="edge">
<title>Node30&#45;&gt;Node31</title>
<path fill="none" stroke="#191970" d="M599.1735,-309.865C626.5667,-299.3773 660.3283,-286.4515 686.0553,-276.6017"/>
<polygon fill="#191970" stroke="#191970" points="597.8609,-306.6197 589.7734,-313.4639 600.3638,-313.157 597.8609,-306.6197"/>
</g>
</g>
</svg>
