<?xml version="1.0" encoding="UTF-8" standalone="no"?>
<!DOCTYPE svg PUBLIC "-//W3C//DTD SVG 1.1//EN"
 "http://www.w3.org/Graphics/SVG/1.1/DTD/svg11.dtd">
<!-- Generated by graphviz version 2.38.0 (20140413.2041)
 -->
<!-- Title: OneProfileProcess.cpp Pages: 1 -->
<svg width="496pt" height="308pt"
 viewBox="0.00 0.00 495.90 308.00" xmlns="http://www.w3.org/2000/svg" xmlns:xlink="http://www.w3.org/1999/xlink">
<g id="graph0" class="graph" transform="scale(1 1) rotate(0) translate(4 304)">
<title>OneProfileProcess.cpp</title>
<!-- Node0 -->
<g id="node1" class="node"><title>Node0</title>
<polygon fill="#bfbfbf" stroke="black" points="166.897,-280.5 166.897,-299.5 283.897,-299.5 283.897,-280.5 166.897,-280.5"/>
<text text-anchor="middle" x="225.397" y="-287.5" font-family="Helvetica,sans-Serif" font-size="10.00">OneProfileProcess.cpp</text>
</g>
<!-- Node1 -->
<g id="node2" class="node"><title>Node1</title>
<g id="a_node2"><a xlink:href="OneProfileProcess_8h.html" target="_top" xlink:title="OneProfileProcess.h">
<polygon fill="none" stroke="black" points="223.897,-224.5 223.897,-243.5 330.897,-243.5 330.897,-224.5 223.897,-224.5"/>
<text text-anchor="middle" x="277.397" y="-231.5" font-family="Helvetica,sans-Serif" font-size="10.00">OneProfileProcess.h</text>
</a>
</g>
</g>
<!-- Node0&#45;&gt;Node1 -->
<g id="edge1" class="edge"><title>Node0&#45;&gt;Node1</title>
<path fill="none" stroke="midnightblue" d="M233.984,-280.083C241.556,-272.22 252.776,-260.569 261.912,-251.081"/>
<polygon fill="midnightblue" stroke="midnightblue" points="264.555,-253.382 268.971,-243.751 259.513,-248.527 264.555,-253.382"/>
</g>
<!-- Node13 -->
<g id="node14" class="node"><title>Node13</title>
<g id="a_node14"><a xlink:href="Random_8h.html" target="_top" xlink:title="Random.h">
<polygon fill="none" stroke="black" points="143.397,-224.5 143.397,-243.5 205.397,-243.5 205.397,-224.5 143.397,-224.5"/>
<text text-anchor="middle" x="174.397" y="-231.5" font-family="Helvetica,sans-Serif" font-size="10.00">Random.h</text>
</a>
</g>
</g>
<!-- Node0&#45;&gt;Node13 -->
<g id="edge16" class="edge"><title>Node0&#45;&gt;Node13</title>
<path fill="none" stroke="midnightblue" d="M216.976,-280.083C209.549,-272.22 198.546,-260.569 189.585,-251.081"/>
<polygon fill="midnightblue" stroke="midnightblue" points="192.073,-248.618 182.662,-243.751 186.984,-253.424 192.073,-248.618"/>
</g>
<!-- Node2 -->
<g id="node3" class="node"><title>Node2</title>
<polygon fill="none" stroke="#bfbfbf" points="255.397,-168.5 255.397,-187.5 299.397,-187.5 299.397,-168.5 255.397,-168.5"/>
<text text-anchor="middle" x="277.397" y="-175.5" font-family="Helvetica,sans-Serif" font-size="10.00">cmath</text>
</g>
<!-- Node1&#45;&gt;Node2 -->
<g id="edge2" class="edge"><title>Node1&#45;&gt;Node2</title>
<path fill="none" stroke="midnightblue" d="M277.397,-224.083C277.397,-217.006 277.397,-206.861 277.397,-197.986"/>
<polygon fill="midnightblue" stroke="midnightblue" points="280.898,-197.751 277.397,-187.751 273.898,-197.751 280.898,-197.751"/>
</g>
<!-- Node3 -->
<g id="node4" class="node"><title>Node3</title>
<g id="a_node4"><a xlink:href="ProfileProcess_8h.html" target="_top" xlink:title="ProfileProcess.h">
<polygon fill="none" stroke="black" points="317.897,-168.5 317.897,-187.5 406.897,-187.5 406.897,-168.5 317.897,-168.5"/>
<text text-anchor="middle" x="362.397" y="-175.5" font-family="Helvetica,sans-Serif" font-size="10.00">ProfileProcess.h</text>
</a>
</g>
</g>
<!-- Node1&#45;&gt;Node3 -->
<g id="edge3" class="edge"><title>Node1&#45;&gt;Node3</title>
<path fill="none" stroke="midnightblue" d="M291.054,-224.324C304.314,-215.9 324.666,-202.971 340.244,-193.074"/>
<polygon fill="midnightblue" stroke="midnightblue" points="342.211,-195.971 348.775,-187.655 338.457,-190.063 342.211,-195.971"/>
</g>
<!-- Node4 -->
<g id="node5" class="node"><title>Node4</title>
<g id="a_node5"><a xlink:href="Chrono_8h.html" target="_top" xlink:title="Chrono.h">
<polygon fill="none" stroke="black" points="387.397,-56.5 387.397,-75.5 443.397,-75.5 443.397,-56.5 387.397,-56.5"/>
<text text-anchor="middle" x="415.397" y="-63.5" font-family="Helvetica,sans-Serif" font-size="10.00">Chrono.h</text>
</a>
</g>
</g>
<!-- Node3&#45;&gt;Node4 -->
<g id="edge4" class="edge"><title>Node3&#45;&gt;Node4</title>
<path fill="none" stroke="midnightblue" d="M386.867,-168.438C402.964,-161.378 422.775,-149.626 432.397,-132 440.493,-117.171 433.986,-98.3143 426.808,-84.7347"/>
<polygon fill="midnightblue" stroke="midnightblue" points="429.724,-82.7872 421.663,-75.9123 423.678,-86.3138 429.724,-82.7872"/>
</g>
<!-- Node7 -->
<g id="node8" class="node"><title>Node7</title>
<polygon fill="none" stroke="#bfbfbf" points="277.397,-0.5 277.397,-19.5 331.397,-19.5 331.397,-0.5 277.397,-0.5"/>
<text text-anchor="middle" x="304.397" y="-7.5" font-family="Helvetica,sans-Serif" font-size="10.00">iostream</text>
</g>
<!-- Node3&#45;&gt;Node7 -->
<g id="edge14" class="edge"><title>Node3&#45;&gt;Node7</title>
<path fill="none" stroke="midnightblue" d="M359.453,-168.153C355.275,-155.632 347.357,-132.032 340.397,-112 330.299,-82.9344 318.233,-49.2961 310.95,-29.1074"/>
<polygon fill="midnightblue" stroke="midnightblue" points="314.216,-27.8459 307.526,-19.6302 307.632,-30.2245 314.216,-27.8459"/>
</g>
<!-- Node9 -->
<g id="node10" class="node"><title>Node9</title>
<g id="a_node10"><a xlink:href="StateSpace_8h.html" target="_top" xlink:title="StateSpace.h">
<polygon fill="none" stroke="black" points="255.397,-112.5 255.397,-131.5 331.397,-131.5 331.397,-112.5 255.397,-112.5"/>
<text text-anchor="middle" x="293.397" y="-119.5" font-family="Helvetica,sans-Serif" font-size="10.00">StateSpace.h</text>
</a>
</g>
</g>
<!-- Node3&#45;&gt;Node9 -->
<g id="edge9" class="edge"><title>Node3&#45;&gt;Node9</title>
<path fill="none" stroke="midnightblue" d="M351.311,-168.324C340.911,-160.185 325.137,-147.839 312.676,-138.087"/>
<polygon fill="midnightblue" stroke="midnightblue" points="314.717,-135.241 304.685,-131.834 310.403,-140.753 314.717,-135.241"/>
</g>
<!-- Node12 -->
<g id="node13" class="node"><title>Node12</title>
<polygon fill="none" stroke="#bfbfbf" points="387.897,-112.5 387.897,-131.5 422.897,-131.5 422.897,-112.5 387.897,-112.5"/>
<text text-anchor="middle" x="405.397" y="-119.5" font-family="Helvetica,sans-Serif" font-size="10.00">map</text>
</g>
<!-- Node3&#45;&gt;Node12 -->
<g id="edge15" class="edge"><title>Node3&#45;&gt;Node12</title>
<path fill="none" stroke="midnightblue" d="M369.498,-168.083C375.634,-160.377 384.667,-149.033 392.137,-139.653"/>
<polygon fill="midnightblue" stroke="midnightblue" points="394.938,-141.754 398.429,-131.751 389.462,-137.394 394.938,-141.754"/>
</g>
<!-- Node5 -->
<g id="node6" class="node"><title>Node5</title>
<polygon fill="none" stroke="#bfbfbf" points="446.897,-0.5 446.897,-19.5 487.897,-19.5 487.897,-0.5 446.897,-0.5"/>
<text text-anchor="middle" x="467.397" y="-7.5" font-family="Helvetica,sans-Serif" font-size="10.00">ctime</text>
</g>
<!-- Node4&#45;&gt;Node5 -->
<g id="edge5" class="edge"><title>Node4&#45;&gt;Node5</title>
<path fill="none" stroke="midnightblue" d="M423.984,-56.083C431.556,-48.2195 442.776,-36.5688 451.912,-27.0813"/>
<polygon fill="midnightblue" stroke="midnightblue" points="454.555,-29.3821 458.971,-19.7511 449.513,-24.5266 454.555,-29.3821"/>
</g>
<!-- Node6 -->
<g id="node7" class="node"><title>Node6</title>
<polygon fill="none" stroke="#bfbfbf" points="366.397,-0.5 366.397,-19.5 428.397,-19.5 428.397,-0.5 366.397,-0.5"/>
<text text-anchor="middle" x="397.397" y="-7.5" font-family="Helvetica,sans-Serif" font-size="10.00">sys/time.h</text>
</g>
<!-- Node4&#45;&gt;Node6 -->
<g id="edge6" class="edge"><title>Node4&#45;&gt;Node6</title>
<path fill="none" stroke="midnightblue" d="M412.425,-56.083C410.014,-48.8486 406.534,-38.4087 403.53,-29.3968"/>
<polygon fill="midnightblue" stroke="midnightblue" points="406.797,-28.1311 400.315,-19.7511 400.156,-30.3447 406.797,-28.1311"/>
</g>
<!-- Node4&#45;&gt;Node7 -->
<g id="edge7" class="edge"><title>Node4&#45;&gt;Node7</title>
<path fill="none" stroke="midnightblue" d="M397.563,-56.324C379.682,-47.6247 351.922,-34.1202 331.352,-24.113"/>
<polygon fill="midnightblue" stroke="midnightblue" points="332.711,-20.8819 322.187,-19.6545 329.649,-27.1765 332.711,-20.8819"/>
</g>
<!-- Node8 -->
<g id="node9" class="node"><title>Node8</title>
<polygon fill="none" stroke="#bfbfbf" points="179.897,-0.5 179.897,-19.5 224.897,-19.5 224.897,-0.5 179.897,-0.5"/>
<text text-anchor="middle" x="202.397" y="-7.5" font-family="Helvetica,sans-Serif" font-size="10.00">cstdlib</text>
</g>
<!-- Node4&#45;&gt;Node8 -->
<g id="edge8" class="edge"><title>Node4&#45;&gt;Node8</title>
<path fill="none" stroke="midnightblue" d="M387.113,-57.8292C347.678,-47.8318 276.358,-29.7507 234.823,-19.2204"/>
<polygon fill="midnightblue" stroke="midnightblue" points="235.495,-15.7803 224.942,-16.7155 233.775,-22.5657 235.495,-15.7803"/>
</g>
<!-- Node10 -->
<g id="node11" class="node"><title>Node10</title>
<g id="a_node11"><a xlink:href="BiologicalSequences_8h.html" target="_top" xlink:title="BiologicalSequences.h">
<polygon fill="none" stroke="black" points="83.3975,-56.5 83.3975,-75.5 199.397,-75.5 199.397,-56.5 83.3975,-56.5"/>
<text text-anchor="middle" x="141.397" y="-63.5" font-family="Helvetica,sans-Serif" font-size="10.00">BiologicalSequences.h</text>
</a>
</g>
</g>
<!-- Node9&#45;&gt;Node10 -->
<g id="edge10" class="edge"><title>Node9&#45;&gt;Node10</title>
<path fill="none" stroke="midnightblue" d="M269.313,-112.444C243.853,-103.399 203.504,-89.064 174.938,-78.9158"/>
<polygon fill="midnightblue" stroke="midnightblue" points="175.964,-75.5661 165.37,-75.5164 173.621,-82.1622 175.964,-75.5661"/>
</g>
<!-- Node10&#45;&gt;Node7 -->
<g id="edge12" class="edge"><title>Node10&#45;&gt;Node7</title>
<path fill="none" stroke="midnightblue" d="M167.225,-56.4435C194.647,-47.3591 238.175,-32.9388 268.83,-22.7831"/>
<polygon fill="midnightblue" stroke="midnightblue" points="270.299,-25.9837 278.69,-19.5164 268.097,-19.3389 270.299,-25.9837"/>
</g>
<!-- Node10&#45;&gt;Node8 -->
<g id="edge11" class="edge"><title>Node10&#45;&gt;Node8</title>
<path fill="none" stroke="midnightblue" d="M151.198,-56.324C160.216,-48.3414 173.803,-36.3128 184.716,-26.6529"/>
<polygon fill="midnightblue" stroke="midnightblue" points="187.251,-29.083 192.418,-19.8339 182.611,-23.8416 187.251,-29.083"/>
</g>
<!-- Node11 -->
<g id="node12" class="node"><title>Node11</title>
<polygon fill="none" stroke="#bfbfbf" points="120.897,-0.5 120.897,-19.5 161.897,-19.5 161.897,-0.5 120.897,-0.5"/>
<text text-anchor="middle" x="141.397" y="-7.5" font-family="Helvetica,sans-Serif" font-size="10.00">string</text>
</g>
<!-- Node10&#45;&gt;Node11 -->
<g id="edge13" class="edge"><title>Node10&#45;&gt;Node11</title>
<path fill="none" stroke="midnightblue" d="M141.397,-56.083C141.397,-49.0059 141.397,-38.8611 141.397,-29.9865"/>
<polygon fill="midnightblue" stroke="midnightblue" points="144.898,-29.751 141.397,-19.7511 137.898,-29.7511 144.898,-29.751"/>
</g>
<!-- Node13&#45;&gt;Node2 -->
<g id="edge17" class="edge"><title>Node13&#45;&gt;Node2</title>
<path fill="none" stroke="midnightblue" d="M190.946,-224.324C207.389,-215.703 232.832,-202.364 251.866,-192.386"/>
<polygon fill="midnightblue" stroke="midnightblue" points="253.658,-195.398 260.89,-187.655 250.408,-189.198 253.658,-195.398"/>
</g>
<!-- Node13&#45;&gt;Node7 -->
<g id="edge19" class="edge"><title>Node13&#45;&gt;Node7</title>
<path fill="none" stroke="midnightblue" d="M181.671,-224.378C188.921,-215.562 200.137,-201.312 208.397,-188 228.308,-155.911 228.542,-145.277 246.397,-112 262.345,-82.2774 282.137,-48.4045 293.991,-28.411"/>
<polygon fill="midnightblue" stroke="midnightblue" points="297.156,-29.936 299.263,-19.5527 291.141,-26.3561 297.156,-29.936"/>
</g>
<!-- Node13&#45;&gt;Node8 -->
<g id="edge18" class="edge"><title>Node13&#45;&gt;Node8</title>
<path fill="none" stroke="midnightblue" d="M143.014,-233.871C88.8725,-233.851 -14.7393,-226.347 2.39749,-168 19.0733,-111.222 27.9684,-92.6902 74.3975,-56 82.1351,-49.8854 134.526,-32.5133 169.837,-21.2292"/>
<polygon fill="midnightblue" stroke="midnightblue" points="171.266,-24.4477 179.735,-18.0822 169.145,-17.7767 171.266,-24.4477"/>
</g>
<!-- Node14 -->
<g id="node15" class="node"><title>Node14</title>
<polygon fill="none" stroke="#bfbfbf" points="11.3975,-168.5 11.3975,-187.5 63.3975,-187.5 63.3975,-168.5 11.3975,-168.5"/>
<text text-anchor="middle" x="37.3975" y="-175.5" font-family="Helvetica,sans-Serif" font-size="10.00">sstream</text>
</g>
<!-- Node13&#45;&gt;Node14 -->
<g id="edge20" class="edge"><title>Node13&#45;&gt;Node14</title>
<path fill="none" stroke="midnightblue" d="M152.689,-224.444C130.043,-215.517 94.3253,-201.439 68.6457,-191.317"/>
<polygon fill="midnightblue" stroke="midnightblue" points="69.5909,-187.927 59.004,-187.516 67.0239,-194.44 69.5909,-187.927"/>
</g>
<!-- Node15 -->
<g id="node16" class="node"><title>Node15</title>
<polygon fill="none" stroke="#bfbfbf" points="81.3975,-168.5 81.3975,-187.5 131.397,-187.5 131.397,-168.5 81.3975,-168.5"/>
<text text-anchor="middle" x="106.397" y="-175.5" font-family="Helvetica,sans-Serif" font-size="10.00">iomanip</text>
</g>
<!-- Node13&#45;&gt;Node15 -->
<g id="edge21" class="edge"><title>Node13&#45;&gt;Node15</title>
<path fill="none" stroke="midnightblue" d="M163.472,-224.324C153.223,-216.185 137.677,-203.839 125.396,-194.087"/>
<polygon fill="midnightblue" stroke="midnightblue" points="127.529,-191.312 117.522,-187.834 123.176,-196.794 127.529,-191.312"/>
</g>
<!-- Node16 -->
<g id="node17" class="node"><title>Node16</title>
<polygon fill="none" stroke="#bfbfbf" points="149.397,-168.5 149.397,-187.5 199.397,-187.5 199.397,-168.5 149.397,-168.5"/>
<text text-anchor="middle" x="174.397" y="-175.5" font-family="Helvetica,sans-Serif" font-size="10.00">fstream</text>
</g>
<!-- Node13&#45;&gt;Node16 -->
<g id="edge22" class="edge"><title>Node13&#45;&gt;Node16</title>
<path fill="none" stroke="midnightblue" d="M174.397,-224.083C174.397,-217.006 174.397,-206.861 174.397,-197.986"/>
<polygon fill="midnightblue" stroke="midnightblue" points="177.898,-197.751 174.397,-187.751 170.898,-197.751 177.898,-197.751"/>
</g>
</g>
</svg>
