<?xml version="1.0" encoding="UTF-8" standalone="no"?>
<!DOCTYPE svg PUBLIC "-//W3C//DTD SVG 1.1//EN"
 "http://www.w3.org/Graphics/SVG/1.1/DTD/svg11.dtd">
<!-- Generated by graphviz version 2.38.0 (20140413.2041)
 -->
<!-- Title: OneProfileProcess.h Pages: 1 -->
<svg width="356pt" height="218pt"
 viewBox="0.00 0.00 355.50 218.00" xmlns="http://www.w3.org/2000/svg" xmlns:xlink="http://www.w3.org/1999/xlink">
<g id="graph0" class="graph" transform="scale(1 1) rotate(0) translate(4 214)">
<title>OneProfileProcess.h</title>
<!-- Node12 -->
<g id="node1" class="node"><title>Node12</title>
<polygon fill="#bfbfbf" stroke="black" points="163.5,-190.5 163.5,-209.5 270.5,-209.5 270.5,-190.5 163.5,-190.5"/>
<text text-anchor="middle" x="217" y="-197.5" font-family="Helvetica,sans-Serif" font-size="10.00">OneProfileProcess.h</text>
</g>
<!-- Node13 -->
<g id="node2" class="node"><title>Node13</title>
<g id="a_node2"><a xlink:href="MatrixOneProfileProcess_8h.html" target="_top" xlink:title="MatrixOneProfileProcess.h">
<polygon fill="none" stroke="black" points="78,-134.5 78,-153.5 212,-153.5 212,-134.5 78,-134.5"/>
<text text-anchor="middle" x="145" y="-141.5" font-family="Helvetica,sans-Serif" font-size="10.00">MatrixOneProfileProcess.h</text>
</a>
</g>
</g>
<!-- Node12&#45;&gt;Node13 -->
<g id="edge1" class="edge"><title>Node12&#45;&gt;Node13</title>
<path fill="none" stroke="midnightblue" d="M197.134,-184.101C184.177,-174.382 167.703,-162.027 156.779,-153.834"/>
<polygon fill="midnightblue" stroke="midnightblue" points="195.332,-187.124 205.432,-190.324 199.532,-181.524 195.332,-187.124"/>
</g>
<!-- Node17 -->
<g id="node6" class="node"><title>Node17</title>
<g id="a_node6"><a xlink:href="OneProfileProcess_8cpp.html" target="_top" xlink:title="OneProfileProcess.cpp">
<polygon fill="none" stroke="black" points="230.5,-134.5 230.5,-153.5 347.5,-153.5 347.5,-134.5 230.5,-134.5"/>
<text text-anchor="middle" x="289" y="-141.5" font-family="Helvetica,sans-Serif" font-size="10.00">OneProfileProcess.cpp</text>
</a>
</g>
</g>
<!-- Node12&#45;&gt;Node17 -->
<g id="edge5" class="edge"><title>Node12&#45;&gt;Node17</title>
<path fill="none" stroke="midnightblue" d="M236.866,-184.101C249.823,-174.382 266.297,-162.027 277.221,-153.834"/>
<polygon fill="midnightblue" stroke="midnightblue" points="234.468,-181.524 228.568,-190.324 238.668,-187.124 234.468,-181.524"/>
</g>
<!-- Node14 -->
<g id="node3" class="node"><title>Node14</title>
<g id="a_node3"><a xlink:href="GeneralPathSuffStatMatrixOneProfileProcess_8h.html" target="_top" xlink:title="GeneralPathSuffStatMatrix\lOneProfileProcess.h">
<polygon fill="none" stroke="black" points="0,-67.5 0,-97.5 134,-97.5 134,-67.5 0,-67.5"/>
<text text-anchor="start" x="8" y="-85.5" font-family="Helvetica,sans-Serif" font-size="10.00">GeneralPathSuffStatMatrix</text>
<text text-anchor="middle" x="67" y="-74.5" font-family="Helvetica,sans-Serif" font-size="10.00">OneProfileProcess.h</text>
</a>
</g>
</g>
<!-- Node13&#45;&gt;Node14 -->
<g id="edge2" class="edge"><title>Node13&#45;&gt;Node14</title>
<path fill="none" stroke="midnightblue" d="M125.592,-128.195C113.293,-118.813 97.4806,-106.751 85.3831,-97.523"/>
<polygon fill="midnightblue" stroke="midnightblue" points="123.751,-131.193 133.825,-134.475 127.996,-125.627 123.751,-131.193"/>
</g>
<!-- Node16 -->
<g id="node5" class="node"><title>Node16</title>
<g id="a_node5"><a xlink:href="MatrixOneProfileProcess_8cpp.html" target="_top" xlink:title="MatrixOneProfileProcess.cpp">
<polygon fill="none" stroke="black" points="152,-73 152,-92 296,-92 296,-73 152,-73"/>
<text text-anchor="middle" x="224" y="-80" font-family="Helvetica,sans-Serif" font-size="10.00">MatrixOneProfileProcess.cpp</text>
</a>
</g>
</g>
<!-- Node13&#45;&gt;Node16 -->
<g id="edge4" class="edge"><title>Node13&#45;&gt;Node16</title>
<path fill="none" stroke="midnightblue" d="M164.526,-128.294C179.68,-116.88 200.157,-101.458 212.702,-92.0091"/>
<polygon fill="midnightblue" stroke="midnightblue" points="162.201,-125.663 156.319,-134.475 166.412,-131.255 162.201,-125.663"/>
</g>
<!-- Node15 -->
<g id="node4" class="node"><title>Node15</title>
<g id="a_node4"><a xlink:href="GeneralPathSuffStatMatrixOneProfileProcess_8cpp.html" target="_top" xlink:title="GeneralPathSuffStatMatrix\lOneProfileProcess.cpp">
<polygon fill="none" stroke="black" points="0,-0.5 0,-30.5 134,-30.5 134,-0.5 0,-0.5"/>
<text text-anchor="start" x="8" y="-18.5" font-family="Helvetica,sans-Serif" font-size="10.00">GeneralPathSuffStatMatrix</text>
<text text-anchor="middle" x="67" y="-7.5" font-family="Helvetica,sans-Serif" font-size="10.00">OneProfileProcess.cpp</text>
</a>
</g>
</g>
<!-- Node14&#45;&gt;Node15 -->
<g id="edge3" class="edge"><title>Node14&#45;&gt;Node15</title>
<path fill="none" stroke="midnightblue" d="M67,-57.1081C67,-48.1539 67,-38.3227 67,-30.5765"/>
<polygon fill="midnightblue" stroke="midnightblue" points="63.5001,-57.3959 67,-67.396 70.5001,-57.396 63.5001,-57.3959"/>
</g>
</g>
</svg>
