<?xml version="1.0" encoding="UTF-8" standalone="no"?>
<!DOCTYPE svg PUBLIC "-//W3C//DTD SVG 1.1//EN"
 "http://www.w3.org/Graphics/SVG/1.1/DTD/svg11.dtd">
<!-- Generated by graphviz version 2.40.1 (20161225.0304)
 -->
<!-- Title: Parallel.h Pages: 1 -->
<svg width="1274pt" height="386pt"
 viewBox="0.00 0.00 1273.50 386.00" xmlns="http://www.w3.org/2000/svg" xmlns:xlink="http://www.w3.org/1999/xlink">
<g id="graph0" class="graph" transform="scale(1 1) rotate(0) translate(4 382)">
<title>Parallel.h</title>
<!-- Node2 -->
<g id="node1" class="node">
<title>Node2</title>
<polygon fill="#bfbfbf" stroke="#000000" points="627,-358.5 627,-377.5 684,-377.5 684,-358.5 627,-358.5"/>
<text text-anchor="middle" x="655.5" y="-365.5" font-family="Helvetica,sans-Serif" font-size="10.00" fill="#000000">Parallel.h</text>
</g>
<!-- Node3 -->
<g id="node2" class="node">
<title>Node3</title>
<g id="a_node2"><a xlink:href="DGamRateProcess_8cpp.html" target="_top" xlink:title="DGamRateProcess.cpp">
<polygon fill="none" stroke="#000000" points="0,-302.5 0,-321.5 121,-321.5 121,-302.5 0,-302.5"/>
<text text-anchor="middle" x="60.5" y="-309.5" font-family="Helvetica,sans-Serif" font-size="10.00" fill="#000000">DGamRateProcess.cpp</text>
</a>
</g>
</g>
<!-- Node2&#45;&gt;Node3 -->
<g id="edge1" class="edge">
<title>Node2&#45;&gt;Node3</title>
<path fill="none" stroke="#191970" d="M616.8651,-365.1712C530.4745,-358.7169 315.1456,-341.9123 135.5,-322 130.7998,-321.479 125.9384,-320.9068 121.054,-320.3081"/>
<polygon fill="#191970" stroke="#191970" points="616.7579,-368.6729 626.99,-365.9243 617.2772,-361.6921 616.7579,-368.6729"/>
</g>
<!-- Node4 -->
<g id="node3" class="node">
<title>Node4</title>
<g id="a_node3"><a xlink:href="PhyloProcess_8h.html" target="_top" xlink:title="PhyloProcess.h">
<polygon fill="none" stroke="#000000" points="521.5,-302.5 521.5,-321.5 607.5,-321.5 607.5,-302.5 521.5,-302.5"/>
<text text-anchor="middle" x="564.5" y="-309.5" font-family="Helvetica,sans-Serif" font-size="10.00" fill="#000000">PhyloProcess.h</text>
</a>
</g>
</g>
<!-- Node2&#45;&gt;Node4 -->
<g id="edge2" class="edge">
<title>Node2&#45;&gt;Node4</title>
<path fill="none" stroke="#191970" d="M630.7496,-352.769C614.6242,-342.8456 594.074,-330.1994 580.1693,-321.6427"/>
<polygon fill="#191970" stroke="#191970" points="629.2981,-355.9853 639.649,-358.2455 632.9668,-350.0237 629.2981,-355.9853"/>
</g>
<!-- Node7 -->
<g id="node6" class="node">
<title>Node7</title>
<g id="a_node6"><a xlink:href="ExpoConjugateGTRPhyloProcess_8cpp.html" target="_top" xlink:title="ExpoConjugateGTRPhyloProcess.cpp">
<polygon fill="none" stroke="#000000" points="177.5,-118 177.5,-137 361.5,-137 361.5,-118 177.5,-118"/>
<text text-anchor="middle" x="269.5" y="-125" font-family="Helvetica,sans-Serif" font-size="10.00" fill="#000000">ExpoConjugateGTRPhyloProcess.cpp</text>
</a>
</g>
</g>
<!-- Node2&#45;&gt;Node7 -->
<g id="edge15" class="edge">
<title>Node2&#45;&gt;Node7</title>
<path fill="none" stroke="#191970" d="M616.8735,-359.8886C519.9355,-338.6431 270.9396,-278.2722 226.5,-210 210.1993,-184.9573 239.9142,-153.025 257.6505,-137.2388"/>
<polygon fill="#191970" stroke="#191970" points="616.3322,-363.3525 626.8471,-362.0536 617.8172,-356.5118 616.3322,-363.3525"/>
</g>
<!-- Node9 -->
<g id="node8" class="node">
<title>Node9</title>
<g id="a_node8"><a xlink:href="Model_8h.html" target="_top" xlink:title="Model.h">
<polygon fill="none" stroke="#000000" points="337,-56.5 337,-75.5 388,-75.5 388,-56.5 337,-56.5"/>
<text text-anchor="middle" x="362.5" y="-63.5" font-family="Helvetica,sans-Serif" font-size="10.00" fill="#000000">Model.h</text>
</a>
</g>
</g>
<!-- Node2&#45;&gt;Node9 -->
<g id="edge20" class="edge">
<title>Node2&#45;&gt;Node9</title>
<path fill="none" stroke="#191970" d="M616.7756,-363.5546C498.4247,-349.4514 149.5,-303.8173 149.5,-256 149.5,-256 149.5,-256 149.5,-194.5 149.5,-156.8735 141.9801,-138.6917 168.5,-112 191.982,-88.3658 289.8434,-74.2653 336.947,-68.7243"/>
<polygon fill="#191970" stroke="#191970" points="616.5038,-367.0467 626.8455,-364.7445 617.3253,-360.0951 616.5038,-367.0467"/>
</g>
<!-- Node11 -->
<g id="node10" class="node">
<title>Node11</title>
<g id="a_node10"><a xlink:href="RASCATGTRSBDPGammaPhyloProcess_8cpp.html" target="_top" xlink:title="RASCATGTRSBDPGammaPhyloProcess.cpp">
<polygon fill="none" stroke="#000000" points="496,-56.5 496,-75.5 717,-75.5 717,-56.5 496,-56.5"/>
<text text-anchor="middle" x="606.5" y="-63.5" font-family="Helvetica,sans-Serif" font-size="10.00" fill="#000000">RASCATGTRSBDPGammaPhyloProcess.cpp</text>
</a>
</g>
</g>
<!-- Node2&#45;&gt;Node11 -->
<g id="edge23" class="edge">
<title>Node2&#45;&gt;Node11</title>
<path fill="none" stroke="#191970" d="M686.8136,-353.8341C720.5617,-336.172 769.5,-302.5372 769.5,-256 769.5,-256 769.5,-256 769.5,-194.5 769.5,-156.8735 775.9814,-139.6849 750.5,-112 737.0811,-97.4207 689.3925,-84.0363 652.5303,-75.5096"/>
<polygon fill="#191970" stroke="#191970" points="685.1138,-350.7711 677.751,-358.3895 688.2576,-357.0254 685.1138,-350.7711"/>
</g>
<!-- Node13 -->
<g id="node12" class="node">
<title>Node13</title>
<g id="a_node12"><a xlink:href="GeneralPathSuffStatMatrixPhyloProcess_8cpp.html" target="_top" xlink:title="GeneralPathSuffStatMatrix\lPhyloProcess.cpp">
<polygon fill="none" stroke="#000000" points="607.5,-112.5 607.5,-142.5 741.5,-142.5 741.5,-112.5 607.5,-112.5"/>
<text text-anchor="start" x="615.5" y="-130.5" font-family="Helvetica,sans-Serif" font-size="10.00" fill="#000000">GeneralPathSuffStatMatrix</text>
<text text-anchor="middle" x="674.5" y="-119.5" font-family="Helvetica,sans-Serif" font-size="10.00" fill="#000000">PhyloProcess.cpp</text>
</a>
</g>
</g>
<!-- Node2&#45;&gt;Node13 -->
<g id="edge16" class="edge">
<title>Node2&#45;&gt;Node13</title>
<path fill="none" stroke="#191970" d="M669.2609,-350.1227C683.2953,-330.6647 704.1576,-298.0297 712.5,-266 722.2459,-228.5817 724.5841,-215.7299 712.5,-179 707.9857,-165.2786 698.257,-152.2125 689.774,-142.6746"/>
<polygon fill="#191970" stroke="#191970" points="666.3269,-348.2034 663.1835,-358.3212 671.9503,-352.372 666.3269,-348.2034"/>
</g>
<!-- Node15 -->
<g id="node14" class="node">
<title>Node15</title>
<g id="a_node14"><a xlink:href="NNI_8cpp.html" target="_top" xlink:title="NNI.cpp">
<polygon fill="none" stroke="#000000" points="405,-246.5 405,-265.5 458,-265.5 458,-246.5 405,-246.5"/>
<text text-anchor="middle" x="431.5" y="-253.5" font-family="Helvetica,sans-Serif" font-size="10.00" fill="#000000">NNI.cpp</text>
</a>
</g>
</g>
<!-- Node2&#45;&gt;Node15 -->
<g id="edge21" class="edge">
<title>Node2&#45;&gt;Node15</title>
<path fill="none" stroke="#191970" d="M616.8505,-359.7198C587.1455,-352.3916 545.7118,-340.0346 512.5,-322 483.8061,-306.4187 455.4179,-280.1192 441.0912,-265.8771"/>
<polygon fill="#191970" stroke="#191970" points="616.2963,-363.1858 626.8357,-362.1032 617.9216,-356.3771 616.2963,-363.1858"/>
</g>
<!-- Node16 -->
<g id="node15" class="node">
<title>Node16</title>
<g id="a_node15"><a xlink:href="PhyloProcess_8cpp.html" target="_top" xlink:title="PhyloProcess.cpp">
<polygon fill="none" stroke="#000000" points="607.5,-246.5 607.5,-265.5 703.5,-265.5 703.5,-246.5 607.5,-246.5"/>
<text text-anchor="middle" x="655.5" y="-253.5" font-family="Helvetica,sans-Serif" font-size="10.00" fill="#000000">PhyloProcess.cpp</text>
</a>
</g>
</g>
<!-- Node2&#45;&gt;Node16 -->
<g id="edge22" class="edge">
<title>Node2&#45;&gt;Node16</title>
<path fill="none" stroke="#191970" d="M655.5,-348.2702C655.5,-323.9985 655.5,-283.7725 655.5,-265.5249"/>
<polygon fill="#191970" stroke="#191970" points="652.0001,-348.4509 655.5,-358.4509 659.0001,-348.451 652.0001,-348.4509"/>
</g>
<!-- Node17 -->
<g id="node16" class="node">
<title>Node17</title>
<g id="a_node16"><a xlink:href="GTRProfileProcess_8cpp.html" target="_top" xlink:title="GTRProfileProcess.cpp">
<polygon fill="none" stroke="#000000" points="797.5,-302.5 797.5,-321.5 917.5,-321.5 917.5,-302.5 797.5,-302.5"/>
<text text-anchor="middle" x="857.5" y="-309.5" font-family="Helvetica,sans-Serif" font-size="10.00" fill="#000000">GTRProfileProcess.cpp</text>
</a>
</g>
</g>
<!-- Node2&#45;&gt;Node17 -->
<g id="edge17" class="edge">
<title>Node2&#45;&gt;Node17</title>
<path fill="none" stroke="#191970" d="M693.9944,-357.3283C731.2551,-346.9986 787.2182,-331.4841 823.0475,-321.5512"/>
<polygon fill="#191970" stroke="#191970" points="692.7147,-354.051 684.0132,-360.0953 694.5848,-360.7965 692.7147,-354.051"/>
</g>
<!-- Node18 -->
<g id="node17" class="node">
<title>Node18</title>
<g id="a_node17"><a xlink:href="MatrixMixtureProfileProcess_8cpp.html" target="_top" xlink:title="MatrixMixtureProfileProcess.cpp">
<polygon fill="none" stroke="#000000" points="935.5,-302.5 935.5,-321.5 1093.5,-321.5 1093.5,-302.5 935.5,-302.5"/>
<text text-anchor="middle" x="1014.5" y="-309.5" font-family="Helvetica,sans-Serif" font-size="10.00" fill="#000000">MatrixMixtureProfileProcess.cpp</text>
</a>
</g>
</g>
<!-- Node2&#45;&gt;Node18 -->
<g id="edge18" class="edge">
<title>Node2&#45;&gt;Node18</title>
<path fill="none" stroke="#191970" d="M694.4594,-361.9228C756.768,-352.2033 879.3436,-333.0829 953.3948,-321.5317"/>
<polygon fill="#191970" stroke="#191970" points="693.6127,-358.5124 684.2716,-363.5119 694.6916,-365.4288 693.6127,-358.5124"/>
</g>
<!-- Node19 -->
<g id="node18" class="node">
<title>Node19</title>
<g id="a_node18"><a xlink:href="MatrixSBDPProfileProcess_8cpp.html" target="_top" xlink:title="MatrixSBDPProfileProcess.cpp">
<polygon fill="none" stroke="#000000" points="1111.5,-302.5 1111.5,-321.5 1265.5,-321.5 1265.5,-302.5 1111.5,-302.5"/>
<text text-anchor="middle" x="1188.5" y="-309.5" font-family="Helvetica,sans-Serif" font-size="10.00" fill="#000000">MatrixSBDPProfileProcess.cpp</text>
</a>
</g>
</g>
<!-- Node2&#45;&gt;Node19 -->
<g id="edge19" class="edge">
<title>Node2&#45;&gt;Node19</title>
<path fill="none" stroke="#191970" d="M694.2663,-364.1846C771.8214,-356.5132 951.5904,-338.538 1102.5,-322 1105.3389,-321.6889 1108.2302,-321.3689 1111.1503,-321.043"/>
<polygon fill="#191970" stroke="#191970" points="693.6223,-360.7311 684.015,-365.1975 694.3107,-367.6972 693.6223,-360.7311"/>
</g>
<!-- Node5 -->
<g id="node4" class="node">
<title>Node5</title>
<g id="a_node4"><a xlink:href="MatrixPhyloProcess_8h.html" target="_top" xlink:title="MatrixPhyloProcess.h">
<polygon fill="none" stroke="#000000" points="476,-246.5 476,-265.5 589,-265.5 589,-246.5 476,-246.5"/>
<text text-anchor="middle" x="532.5" y="-253.5" font-family="Helvetica,sans-Serif" font-size="10.00" fill="#000000">MatrixPhyloProcess.h</text>
</a>
</g>
</g>
<!-- Node4&#45;&gt;Node5 -->
<g id="edge3" class="edge">
<title>Node4&#45;&gt;Node5</title>
<path fill="none" stroke="#191970" d="M553.8355,-293.3372C548.5346,-284.0605 542.3513,-273.2398 538.0101,-265.6427"/>
<polygon fill="#191970" stroke="#191970" points="550.9257,-295.2996 558.926,-302.2455 557.0034,-291.8266 550.9257,-295.2996"/>
</g>
<!-- Node4&#45;&gt;Node15 -->
<g id="edge13" class="edge">
<title>Node4&#45;&gt;Node15</title>
<path fill="none" stroke="#191970" d="M532.1603,-298.3833C507.9715,-288.1985 475.505,-274.5284 454.0652,-265.5011"/>
<polygon fill="#191970" stroke="#191970" points="531.0619,-301.7184 541.6365,-302.3733 533.7783,-295.2669 531.0619,-301.7184"/>
</g>
<!-- Node4&#45;&gt;Node16 -->
<g id="edge14" class="edge">
<title>Node4&#45;&gt;Node16</title>
<path fill="none" stroke="#191970" d="M589.2504,-296.769C605.3758,-286.8456 625.926,-274.1994 639.8307,-265.6427"/>
<polygon fill="#191970" stroke="#191970" points="587.0332,-294.0237 580.351,-302.2455 590.7019,-299.9853 587.0332,-294.0237"/>
</g>
<!-- Node6 -->
<g id="node5" class="node">
<title>Node6</title>
<g id="a_node5"><a xlink:href="ExpoConjugateGTRPhyloProcess_8h.html" target="_top" xlink:title="ExpoConjugateGTRPhyloProcess.h">
<polygon fill="none" stroke="#000000" points="236,-185 236,-204 409,-204 409,-185 236,-185"/>
<text text-anchor="middle" x="322.5" y="-192" font-family="Helvetica,sans-Serif" font-size="10.00" fill="#000000">ExpoConjugateGTRPhyloProcess.h</text>
</a>
</g>
</g>
<!-- Node5&#45;&gt;Node6 -->
<g id="edge4" class="edge">
<title>Node5&#45;&gt;Node6</title>
<path fill="none" stroke="#191970" d="M489.9836,-243.5488C450.1151,-231.873 391.3569,-214.6652 355.0821,-204.0419"/>
<polygon fill="#191970" stroke="#191970" points="489.1069,-246.939 499.6875,-246.3906 491.0743,-240.2211 489.1069,-246.939"/>
</g>
<!-- Node12 -->
<g id="node11" class="node">
<title>Node12</title>
<g id="a_node11"><a xlink:href="GeneralPathSuffStatMatrixPhyloProcess_8h.html" target="_top" xlink:title="GeneralPathSuffStatMatrix\lPhyloProcess.h">
<polygon fill="none" stroke="#000000" points="427.5,-179.5 427.5,-209.5 561.5,-209.5 561.5,-179.5 427.5,-179.5"/>
<text text-anchor="start" x="435.5" y="-197.5" font-family="Helvetica,sans-Serif" font-size="10.00" fill="#000000">GeneralPathSuffStatMatrix</text>
<text text-anchor="middle" x="494.5" y="-186.5" font-family="Helvetica,sans-Serif" font-size="10.00" fill="#000000">PhyloProcess.h</text>
</a>
</g>
</g>
<!-- Node5&#45;&gt;Node12 -->
<g id="edge10" class="edge">
<title>Node5&#45;&gt;Node12</title>
<path fill="none" stroke="#191970" d="M521.257,-237.8041C515.6963,-228.8045 509.0654,-218.073 503.7958,-209.5446"/>
<polygon fill="#191970" stroke="#191970" points="518.3286,-239.7233 526.5625,-246.3906 524.2835,-236.0438 518.3286,-239.7233"/>
</g>
<!-- Node14 -->
<g id="node13" class="node">
<title>Node14</title>
<g id="a_node13"><a xlink:href="MatrixPhyloProcess_8cpp.html" target="_top" xlink:title="MatrixPhyloProcess.cpp">
<polygon fill="none" stroke="#000000" points="580,-185 580,-204 703,-204 703,-185 580,-185"/>
<text text-anchor="middle" x="641.5" y="-192" font-family="Helvetica,sans-Serif" font-size="10.00" fill="#000000">MatrixPhyloProcess.cpp</text>
</a>
</g>
</g>
<!-- Node5&#45;&gt;Node14 -->
<g id="edge12" class="edge">
<title>Node5&#45;&gt;Node14</title>
<path fill="none" stroke="#191970" d="M558.3498,-241.415C578.8391,-229.8546 606.8769,-214.035 624.5883,-204.0419"/>
<polygon fill="#191970" stroke="#191970" points="556.5207,-238.4283 549.5313,-246.3906 559.9605,-244.5249 556.5207,-238.4283"/>
</g>
<!-- Node6&#45;&gt;Node7 -->
<g id="edge5" class="edge">
<title>Node6&#45;&gt;Node7</title>
<path fill="none" stroke="#191970" d="M308.537,-176.8486C298.4676,-164.1194 285.2599,-147.4229 277.0795,-137.0817"/>
<polygon fill="#191970" stroke="#191970" points="305.9573,-179.2291 314.9064,-184.9005 311.4473,-174.8863 305.9573,-179.2291"/>
</g>
<!-- Node8 -->
<g id="node7" class="node">
<title>Node8</title>
<g id="a_node7"><a xlink:href="RASCATGTRSBDPGammaPhyloProcess_8h.html" target="_top" xlink:title="RASCATGTRSBDPGammaPhyloProcess.h">
<polygon fill="none" stroke="#000000" points="379.5,-118 379.5,-137 589.5,-137 589.5,-118 379.5,-118"/>
<text text-anchor="middle" x="484.5" y="-125" font-family="Helvetica,sans-Serif" font-size="10.00" fill="#000000">RASCATGTRSBDPGammaPhyloProcess.h</text>
</a>
</g>
</g>
<!-- Node6&#45;&gt;Node8 -->
<g id="edge6" class="edge">
<title>Node6&#45;&gt;Node8</title>
<path fill="none" stroke="#191970" d="M355.355,-180.9118C386.8417,-167.8895 433.5632,-148.5664 461.3324,-137.0817"/>
<polygon fill="#191970" stroke="#191970" points="353.6139,-177.8443 345.7107,-184.9005 356.2892,-184.3129 353.6139,-177.8443"/>
</g>
<!-- Node8&#45;&gt;Node9 -->
<g id="edge7" class="edge">
<title>Node8&#45;&gt;Node9</title>
<path fill="none" stroke="#191970" d="M456.4922,-113.3813C433.4845,-101.7832 401.5203,-85.6701 381.4286,-75.5419"/>
<polygon fill="#191970" stroke="#191970" points="454.9324,-116.5145 465.4375,-117.8906 458.0834,-110.2638 454.9324,-116.5145"/>
</g>
<!-- Node8&#45;&gt;Node11 -->
<g id="edge9" class="edge">
<title>Node8&#45;&gt;Node11</title>
<path fill="none" stroke="#191970" d="M512.5078,-113.3813C535.5155,-101.7832 567.4797,-85.6701 587.5714,-75.5419"/>
<polygon fill="#191970" stroke="#191970" points="510.9166,-110.2638 503.5625,-117.8906 514.0676,-116.5145 510.9166,-110.2638"/>
</g>
<!-- Node10 -->
<g id="node9" class="node">
<title>Node10</title>
<g id="a_node9"><a xlink:href="PB_8cpp.html" target="_top" xlink:title="PB.cpp">
<polygon fill="none" stroke="#000000" points="338,-.5 338,-19.5 387,-19.5 387,-.5 338,-.5"/>
<text text-anchor="middle" x="362.5" y="-7.5" font-family="Helvetica,sans-Serif" font-size="10.00" fill="#000000">PB.cpp</text>
</a>
</g>
</g>
<!-- Node9&#45;&gt;Node10 -->
<g id="edge8" class="edge">
<title>Node9&#45;&gt;Node10</title>
<path fill="none" stroke="#191970" d="M362.5,-46.1575C362.5,-37.155 362.5,-26.9199 362.5,-19.6427"/>
<polygon fill="#191970" stroke="#191970" points="359.0001,-46.2455 362.5,-56.2455 366.0001,-46.2456 359.0001,-46.2455"/>
</g>
<!-- Node12&#45;&gt;Node13 -->
<g id="edge11" class="edge">
<title>Node12&#45;&gt;Node13</title>
<path fill="none" stroke="#191970" d="M544.5642,-175.865C572.74,-165.3773 607.4663,-152.4515 633.9283,-142.6017"/>
<polygon fill="#191970" stroke="#191970" points="543.0464,-172.6953 534.8955,-179.4639 545.4883,-179.2556 543.0464,-172.6953"/>
</g>
</g>
</svg>
