<?xml version="1.0" encoding="UTF-8" standalone="no"?>
<!DOCTYPE svg PUBLIC "-//W3C//DTD SVG 1.1//EN"
 "http://www.w3.org/Graphics/SVG/1.1/DTD/svg11.dtd">
<!-- Generated by graphviz version 2.40.1 (20161225.0304)
 -->
<!-- Title: Parallel.h Pages: 1 -->
<svg width="1686pt" height="386pt"
 viewBox="0.00 0.00 1685.50 386.00" xmlns="http://www.w3.org/2000/svg" xmlns:xlink="http://www.w3.org/1999/xlink">
<g id="graph0" class="graph" transform="scale(1 1) rotate(0) translate(4 382)">
<title>Parallel.h</title>
<!-- Node2 -->
<g id="node1" class="node">
<title>Node2</title>
<polygon fill="#bfbfbf" stroke="#000000" points="878,-358.5 878,-377.5 935,-377.5 935,-358.5 878,-358.5"/>
<text text-anchor="middle" x="906.5" y="-365.5" font-family="Helvetica,sans-Serif" font-size="10.00" fill="#000000">Parallel.h</text>
</g>
<!-- Node3 -->
<g id="node2" class="node">
<title>Node3</title>
<g id="a_node2"><a xlink:href="DGamRateProcess_8cpp.html" target="_top" xlink:title="DGamRateProcess.cpp">
<polygon fill="none" stroke="#000000" points="0,-302.5 0,-321.5 121,-321.5 121,-302.5 0,-302.5"/>
<text text-anchor="middle" x="60.5" y="-309.5" font-family="Helvetica,sans-Serif" font-size="10.00" fill="#000000">DGamRateProcess.cpp</text>
</a>
</g>
</g>
<!-- Node2&#45;&gt;Node3 -->
<g id="edge1" class="edge">
<title>Node2&#45;&gt;Node3</title>
<path fill="none" stroke="#191970" d="M867.4858,-366.6791C754.1885,-362.6267 415.4405,-348.9775 135.5,-322 130.7928,-321.5464 125.9264,-321.0226 121.0386,-320.4573"/>
<polygon fill="#191970" stroke="#191970" points="867.6192,-370.1859 877.7367,-367.0415 867.8666,-363.1903 867.6192,-370.1859"/>
</g>
<!-- Node4 -->
<g id="node3" class="node">
<title>Node4</title>
<g id="a_node3"><a xlink:href="PhyloProcess_8h.html" target="_top" xlink:title="PhyloProcess.h">
<polygon fill="none" stroke="#000000" points="709.5,-302.5 709.5,-321.5 795.5,-321.5 795.5,-302.5 709.5,-302.5"/>
<text text-anchor="middle" x="752.5" y="-309.5" font-family="Helvetica,sans-Serif" font-size="10.00" fill="#000000">PhyloProcess.h</text>
</a>
</g>
</g>
<!-- Node2&#45;&gt;Node4 -->
<g id="edge2" class="edge">
<title>Node2&#45;&gt;Node4</title>
<path fill="none" stroke="#191970" d="M870.5386,-354.9231C842.3866,-344.686 803.8945,-330.6889 778.6281,-321.5011"/>
<polygon fill="#191970" stroke="#191970" points="869.4324,-358.245 880.0265,-358.3733 871.8246,-351.6665 869.4324,-358.245"/>
</g>
<!-- Node7 -->
<g id="node6" class="node">
<title>Node7</title>
<g id="a_node6"><a xlink:href="ExpoConjugateGTRPhyloProcess_8cpp.html" target="_top" xlink:title="ExpoConjugateGTRPhyloProcess.cpp">
<polygon fill="none" stroke="#000000" points="773.5,-118 773.5,-137 957.5,-137 957.5,-118 773.5,-118"/>
<text text-anchor="middle" x="865.5" y="-125" font-family="Helvetica,sans-Serif" font-size="10.00" fill="#000000">ExpoConjugateGTRPhyloProcess.cpp</text>
</a>
</g>
</g>
<!-- Node2&#45;&gt;Node7 -->
<g id="edge17" class="edge">
<title>Node2&#45;&gt;Node7</title>
<path fill="none" stroke="#191970" d="M903.6421,-348.5026C900.0671,-324.394 893.6639,-282.1181 887.5,-246 880.5655,-205.3663 871.2757,-157.0973 867.362,-137.0066"/>
<polygon fill="#191970" stroke="#191970" points="900.1938,-349.1111 905.1156,-358.4934 907.1189,-348.0897 900.1938,-349.1111"/>
</g>
<!-- Node9 -->
<g id="node8" class="node">
<title>Node9</title>
<g id="a_node8"><a xlink:href="Model_8h.html" target="_top" xlink:title="Model.h">
<polygon fill="none" stroke="#000000" points="270,-56.5 270,-75.5 321,-75.5 321,-56.5 270,-56.5"/>
<text text-anchor="middle" x="295.5" y="-63.5" font-family="Helvetica,sans-Serif" font-size="10.00" fill="#000000">Model.h</text>
</a>
</g>
</g>
<!-- Node2&#45;&gt;Node9 -->
<g id="edge23" class="edge">
<title>Node2&#45;&gt;Node9</title>
<path fill="none" stroke="#191970" d="M867.2956,-366.3802C712.143,-359.4583 149.5,-329.3034 149.5,-256 149.5,-256 149.5,-256 149.5,-194.5 149.5,-156.8735 143.5535,-140.1678 168.5,-112 194.5423,-82.5948 240.8751,-71.9763 269.7975,-68.1488"/>
<polygon fill="#191970" stroke="#191970" points="867.6053,-369.8971 877.7491,-366.8387 867.9121,-362.9038 867.6053,-369.8971"/>
</g>
<!-- Node11 -->
<g id="node10" class="node">
<title>Node11</title>
<g id="a_node10"><a xlink:href="RASCATGTRSBDPGammaPhyloProcess_8cpp.html" target="_top" xlink:title="RASCATGTRSBDPGammaPhyloProcess.cpp">
<polygon fill="none" stroke="#000000" points="404,-56.5 404,-75.5 625,-75.5 625,-56.5 404,-56.5"/>
<text text-anchor="middle" x="514.5" y="-63.5" font-family="Helvetica,sans-Serif" font-size="10.00" fill="#000000">RASCATGTRSBDPGammaPhyloProcess.cpp</text>
</a>
</g>
</g>
<!-- Node2&#45;&gt;Node11 -->
<g id="edge27" class="edge">
<title>Node2&#45;&gt;Node11</title>
<path fill="none" stroke="#191970" d="M938.9211,-353.9147C973.5472,-336.4222 1023.5,-303.0358 1023.5,-256 1023.5,-256 1023.5,-256 1023.5,-194.5 1023.5,-149.9329 1004.8667,-134.6764 966.5,-112 937.7682,-95.0182 749.4598,-80.3844 625.1361,-72.4166"/>
<polygon fill="#191970" stroke="#191970" points="937.0875,-350.9139 929.6154,-358.4252 940.1407,-357.213 937.0875,-350.9139"/>
</g>
<!-- Node13 -->
<g id="node12" class="node">
<title>Node13</title>
<g id="a_node12"><a xlink:href="RASCATGTRDPGammaPhyloProcess_8cpp.html" target="_top" xlink:title="RASCATGTRDPGammaPhyloProcess.cpp">
<polygon fill="none" stroke="#000000" points="802,-56.5 802,-75.5 1009,-75.5 1009,-56.5 802,-56.5"/>
<text text-anchor="middle" x="905.5" y="-63.5" font-family="Helvetica,sans-Serif" font-size="10.00" fill="#000000">RASCATGTRDPGammaPhyloProcess.cpp</text>
</a>
</g>
</g>
<!-- Node2&#45;&gt;Node13 -->
<g id="edge26" class="edge">
<title>Node2&#45;&gt;Node13</title>
<path fill="none" stroke="#191970" d="M927.9502,-351.6826C951.3445,-331.857 985.5,-296.0534 985.5,-256 985.5,-256 985.5,-256 985.5,-194.5 985.5,-156.8735 986.9789,-143.5653 966.5,-112 956.1044,-95.9767 938.1031,-83.425 924.3417,-75.5091"/>
<polygon fill="#191970" stroke="#191970" points="925.442,-349.2115 919.9013,-358.2421 929.8642,-354.6378 925.442,-349.2115"/>
</g>
<!-- Node15 -->
<g id="node14" class="node">
<title>Node15</title>
<g id="a_node14"><a xlink:href="GeneralPathSuffStatMatrixPhyloProcess_8cpp.html" target="_top" xlink:title="GeneralPathSuffStatMatrix\lPhyloProcess.cpp">
<polygon fill="none" stroke="#000000" points="177.5,-112.5 177.5,-142.5 311.5,-142.5 311.5,-112.5 177.5,-112.5"/>
<text text-anchor="start" x="185.5" y="-130.5" font-family="Helvetica,sans-Serif" font-size="10.00" fill="#000000">GeneralPathSuffStatMatrix</text>
<text text-anchor="middle" x="244.5" y="-119.5" font-family="Helvetica,sans-Serif" font-size="10.00" fill="#000000">PhyloProcess.cpp</text>
</a>
</g>
</g>
<!-- Node2&#45;&gt;Node15 -->
<g id="edge18" class="edge">
<title>Node2&#45;&gt;Node15</title>
<path fill="none" stroke="#191970" d="M867.6644,-366.4687C767.0292,-360.7705 493.0139,-334.0794 311.5,-210 285.3003,-192.0904 264.0615,-161.005 252.9445,-142.5335"/>
<polygon fill="#191970" stroke="#191970" points="867.5146,-369.9655 877.6854,-366.9981 867.8841,-362.9753 867.5146,-369.9655"/>
</g>
<!-- Node17 -->
<g id="node16" class="node">
<title>Node17</title>
<g id="a_node16"><a xlink:href="NNI_8cpp.html" target="_top" xlink:title="NNI.cpp">
<polygon fill="none" stroke="#000000" points="580,-246.5 580,-265.5 633,-265.5 633,-246.5 580,-246.5"/>
<text text-anchor="middle" x="606.5" y="-253.5" font-family="Helvetica,sans-Serif" font-size="10.00" fill="#000000">NNI.cpp</text>
</a>
</g>
</g>
<!-- Node2&#45;&gt;Node17 -->
<g id="edge24" class="edge">
<title>Node2&#45;&gt;Node17</title>
<path fill="none" stroke="#191970" d="M867.8077,-363.9459C825.3162,-358.4631 755.7764,-346.4152 700.5,-322 667.3027,-307.337 633.7972,-280.1644 617.2007,-265.6805"/>
<polygon fill="#191970" stroke="#191970" points="867.3902,-367.4208 877.7435,-365.1714 868.2472,-360.4735 867.3902,-367.4208"/>
</g>
<!-- Node18 -->
<g id="node17" class="node">
<title>Node18</title>
<g id="a_node17"><a xlink:href="PhyloProcess_8cpp.html" target="_top" xlink:title="PhyloProcess.cpp">
<polygon fill="none" stroke="#000000" points="782.5,-246.5 782.5,-265.5 878.5,-265.5 878.5,-246.5 782.5,-246.5"/>
<text text-anchor="middle" x="830.5" y="-253.5" font-family="Helvetica,sans-Serif" font-size="10.00" fill="#000000">PhyloProcess.cpp</text>
</a>
</g>
</g>
<!-- Node2&#45;&gt;Node18 -->
<g id="edge25" class="edge">
<title>Node2&#45;&gt;Node18</title>
<path fill="none" stroke="#191970" d="M894.2129,-349.8927C877.8846,-325.8299 849.6258,-284.1853 836.9633,-265.5249"/>
<polygon fill="#191970" stroke="#191970" points="891.5091,-352.1414 900.0203,-358.4509 897.3014,-348.2109 891.5091,-352.1414"/>
</g>
<!-- Node19 -->
<g id="node18" class="node">
<title>Node19</title>
<g id="a_node18"><a xlink:href="GTRProfileProcess_8cpp.html" target="_top" xlink:title="GTRProfileProcess.cpp">
<polygon fill="none" stroke="#000000" points="1051.5,-302.5 1051.5,-321.5 1171.5,-321.5 1171.5,-302.5 1051.5,-302.5"/>
<text text-anchor="middle" x="1111.5" y="-309.5" font-family="Helvetica,sans-Serif" font-size="10.00" fill="#000000">GTRProfileProcess.cpp</text>
</a>
</g>
</g>
<!-- Node2&#45;&gt;Node19 -->
<g id="edge19" class="edge">
<title>Node2&#45;&gt;Node19</title>
<path fill="none" stroke="#191970" d="M945.1107,-357.4527C982.8677,-347.1386 1039.8615,-331.5696 1076.3758,-321.5949"/>
<polygon fill="#191970" stroke="#191970" points="943.7286,-354.2019 935.0044,-360.2134 945.5733,-360.9545 943.7286,-354.2019"/>
</g>
<!-- Node20 -->
<g id="node19" class="node">
<title>Node20</title>
<g id="a_node19"><a xlink:href="MatrixDPProfileProcess_8cpp.html" target="_top" xlink:title="MatrixDPProfileProcess.cpp">
<polygon fill="none" stroke="#000000" points="1189.5,-302.5 1189.5,-321.5 1329.5,-321.5 1329.5,-302.5 1189.5,-302.5"/>
<text text-anchor="middle" x="1259.5" y="-309.5" font-family="Helvetica,sans-Serif" font-size="10.00" fill="#000000">MatrixDPProfileProcess.cpp</text>
</a>
</g>
</g>
<!-- Node2&#45;&gt;Node20 -->
<g id="edge20" class="edge">
<title>Node2&#45;&gt;Node20</title>
<path fill="none" stroke="#191970" d="M945.1329,-361.8713C1006.5362,-352.1302 1126.8709,-333.0403 1199.543,-321.5116"/>
<polygon fill="#191970" stroke="#191970" points="944.4165,-358.4411 935.0885,-363.4647 945.5134,-365.3546 944.4165,-358.4411"/>
</g>
<!-- Node21 -->
<g id="node20" class="node">
<title>Node21</title>
<g id="a_node20"><a xlink:href="MatrixMixtureProfileProcess_8cpp.html" target="_top" xlink:title="MatrixMixtureProfileProcess.cpp">
<polygon fill="none" stroke="#000000" points="1347.5,-302.5 1347.5,-321.5 1505.5,-321.5 1505.5,-302.5 1347.5,-302.5"/>
<text text-anchor="middle" x="1426.5" y="-309.5" font-family="Helvetica,sans-Serif" font-size="10.00" fill="#000000">MatrixMixtureProfileProcess.cpp</text>
</a>
</g>
</g>
<!-- Node2&#45;&gt;Node21 -->
<g id="edge21" class="edge">
<title>Node2&#45;&gt;Node21</title>
<path fill="none" stroke="#191970" d="M945.0679,-363.9856C1020.6001,-356.1034 1193.324,-337.9777 1338.5,-322 1341.4039,-321.6804 1344.3615,-321.3532 1347.3489,-321.0212"/>
<polygon fill="#191970" stroke="#191970" points="944.6509,-360.5101 935.068,-365.0286 945.3771,-367.4723 944.6509,-360.5101"/>
</g>
<!-- Node22 -->
<g id="node21" class="node">
<title>Node22</title>
<g id="a_node21"><a xlink:href="MatrixSBDPProfileProcess_8cpp.html" target="_top" xlink:title="MatrixSBDPProfileProcess.cpp">
<polygon fill="none" stroke="#000000" points="1523.5,-302.5 1523.5,-321.5 1677.5,-321.5 1677.5,-302.5 1523.5,-302.5"/>
<text text-anchor="middle" x="1600.5" y="-309.5" font-family="Helvetica,sans-Serif" font-size="10.00" fill="#000000">MatrixSBDPProfileProcess.cpp</text>
</a>
</g>
</g>
<!-- Node2&#45;&gt;Node22 -->
<g id="edge22" class="edge">
<title>Node2&#45;&gt;Node22</title>
<path fill="none" stroke="#191970" d="M945.1599,-365.617C1041.4458,-359.5642 1299.6878,-342.6068 1514.5,-322 1517.3429,-321.7273 1520.2375,-321.44 1523.1605,-321.1417"/>
<polygon fill="#191970" stroke="#191970" points="944.7868,-362.1334 935.025,-366.2514 945.2242,-369.1198 944.7868,-362.1334"/>
</g>
<!-- Node5 -->
<g id="node4" class="node">
<title>Node5</title>
<g id="a_node4"><a xlink:href="MatrixPhyloProcess_8h.html" target="_top" xlink:title="MatrixPhyloProcess.h">
<polygon fill="none" stroke="#000000" points="651,-246.5 651,-265.5 764,-265.5 764,-246.5 651,-246.5"/>
<text text-anchor="middle" x="707.5" y="-253.5" font-family="Helvetica,sans-Serif" font-size="10.00" fill="#000000">MatrixPhyloProcess.h</text>
</a>
</g>
</g>
<!-- Node4&#45;&gt;Node5 -->
<g id="edge3" class="edge">
<title>Node4&#45;&gt;Node5</title>
<path fill="none" stroke="#191970" d="M738.2054,-294.2112C730.6004,-284.7472 721.5462,-273.4797 715.2486,-265.6427"/>
<polygon fill="#191970" stroke="#191970" points="735.6694,-296.6428 744.6616,-302.2455 741.1259,-292.2581 735.6694,-296.6428"/>
</g>
<!-- Node4&#45;&gt;Node17 -->
<g id="edge15" class="edge">
<title>Node4&#45;&gt;Node17</title>
<path fill="none" stroke="#191970" d="M718.0565,-298.7888C691.3987,-288.5639 655.12,-274.6488 631.2708,-265.5011"/>
<polygon fill="#191970" stroke="#191970" points="716.8115,-302.0598 727.4017,-302.3733 719.3184,-295.5241 716.8115,-302.0598"/>
</g>
<!-- Node4&#45;&gt;Node18 -->
<g id="edge16" class="edge">
<title>Node4&#45;&gt;Node18</title>
<path fill="none" stroke="#191970" d="M774.4936,-296.2097C788.1929,-286.3743 805.3736,-274.0394 817.0691,-265.6427"/>
<polygon fill="#191970" stroke="#191970" points="772.1686,-293.5703 766.0866,-302.2455 776.2511,-299.2566 772.1686,-293.5703"/>
</g>
<!-- Node6 -->
<g id="node5" class="node">
<title>Node6</title>
<g id="a_node5"><a xlink:href="ExpoConjugateGTRPhyloProcess_8h.html" target="_top" xlink:title="ExpoConjugateGTRPhyloProcess.h">
<polygon fill="none" stroke="#000000" points="621,-185 621,-204 794,-204 794,-185 621,-185"/>
<text text-anchor="middle" x="707.5" y="-192" font-family="Helvetica,sans-Serif" font-size="10.00" fill="#000000">ExpoConjugateGTRPhyloProcess.h</text>
</a>
</g>
</g>
<!-- Node5&#45;&gt;Node6 -->
<g id="edge4" class="edge">
<title>Node5&#45;&gt;Node6</title>
<path fill="none" stroke="#191970" d="M707.5,-236.2462C707.5,-225.5519 707.5,-212.814 707.5,-204.2449"/>
<polygon fill="#191970" stroke="#191970" points="704.0001,-236.3906 707.5,-246.3906 711.0001,-236.3907 704.0001,-236.3906"/>
</g>
<!-- Node14 -->
<g id="node13" class="node">
<title>Node14</title>
<g id="a_node13"><a xlink:href="GeneralPathSuffStatMatrixPhyloProcess_8h.html" target="_top" xlink:title="GeneralPathSuffStatMatrix\lPhyloProcess.h">
<polygon fill="none" stroke="#000000" points="320.5,-179.5 320.5,-209.5 454.5,-209.5 454.5,-179.5 320.5,-179.5"/>
<text text-anchor="start" x="328.5" y="-197.5" font-family="Helvetica,sans-Serif" font-size="10.00" fill="#000000">GeneralPathSuffStatMatrix</text>
<text text-anchor="middle" x="387.5" y="-186.5" font-family="Helvetica,sans-Serif" font-size="10.00" fill="#000000">PhyloProcess.h</text>
</a>
</g>
</g>
<!-- Node5&#45;&gt;Node14 -->
<g id="edge12" class="edge">
<title>Node5&#45;&gt;Node14</title>
<path fill="none" stroke="#191970" d="M647.9221,-244.5499C593.0338,-234.001 511.679,-218.3657 454.5406,-207.3844"/>
<polygon fill="#191970" stroke="#191970" points="647.3702,-248.0078 657.8511,-246.4581 648.6914,-241.1336 647.3702,-248.0078"/>
</g>
<!-- Node16 -->
<g id="node15" class="node">
<title>Node16</title>
<g id="a_node15"><a xlink:href="MatrixPhyloProcess_8cpp.html" target="_top" xlink:title="MatrixPhyloProcess.cpp">
<polygon fill="none" stroke="#000000" points="480,-185 480,-204 603,-204 603,-185 480,-185"/>
<text text-anchor="middle" x="541.5" y="-192" font-family="Helvetica,sans-Serif" font-size="10.00" fill="#000000">MatrixPhyloProcess.cpp</text>
</a>
</g>
</g>
<!-- Node5&#45;&gt;Node16 -->
<g id="edge14" class="edge">
<title>Node5&#45;&gt;Node16</title>
<path fill="none" stroke="#191970" d="M671.8689,-242.7993C640.4166,-231.1468 595.3222,-214.4402 567.2554,-204.0419"/>
<polygon fill="#191970" stroke="#191970" points="670.9694,-246.1985 681.5625,-246.3906 673.4013,-239.6345 670.9694,-246.1985"/>
</g>
<!-- Node6&#45;&gt;Node7 -->
<g id="edge5" class="edge">
<title>Node6&#45;&gt;Node7</title>
<path fill="none" stroke="#191970" d="M739.5437,-180.9118C770.253,-167.8895 815.8209,-148.5664 842.9044,-137.0817"/>
<polygon fill="#191970" stroke="#191970" points="737.9776,-177.7742 730.1375,-184.9005 740.7104,-184.2187 737.9776,-177.7742"/>
</g>
<!-- Node8 -->
<g id="node7" class="node">
<title>Node8</title>
<g id="a_node7"><a xlink:href="RASCATGTRSBDPGammaPhyloProcess_8h.html" target="_top" xlink:title="RASCATGTRSBDPGammaPhyloProcess.h">
<polygon fill="none" stroke="#000000" points="329.5,-118 329.5,-137 539.5,-137 539.5,-118 329.5,-118"/>
<text text-anchor="middle" x="434.5" y="-125" font-family="Helvetica,sans-Serif" font-size="10.00" fill="#000000">RASCATGTRSBDPGammaPhyloProcess.h</text>
</a>
</g>
</g>
<!-- Node6&#45;&gt;Node8 -->
<g id="edge6" class="edge">
<title>Node6&#45;&gt;Node8</title>
<path fill="none" stroke="#191970" d="M658.8473,-182.5596C605.9523,-169.578 522.4585,-149.0869 473.6324,-137.1039"/>
<polygon fill="#191970" stroke="#191970" points="658.1296,-185.9873 668.6757,-184.9717 659.7981,-179.189 658.1296,-185.9873"/>
</g>
<!-- Node12 -->
<g id="node11" class="node">
<title>Node12</title>
<g id="a_node11"><a xlink:href="RASCATGTRDPGammaPhyloProcess_8h.html" target="_top" xlink:title="RASCATGTRDPGammaPhyloProcess.h">
<polygon fill="none" stroke="#000000" points="558,-118 558,-137 755,-137 755,-118 558,-118"/>
<text text-anchor="middle" x="656.5" y="-125" font-family="Helvetica,sans-Serif" font-size="10.00" fill="#000000">RASCATGTRDPGammaPhyloProcess.h</text>
</a>
</g>
</g>
<!-- Node6&#45;&gt;Node12 -->
<g id="edge10" class="edge">
<title>Node6&#45;&gt;Node12</title>
<path fill="none" stroke="#191970" d="M694.0639,-176.8486C684.3744,-164.1194 671.6652,-147.4229 663.7935,-137.0817"/>
<polygon fill="#191970" stroke="#191970" points="691.3511,-179.0634 700.1929,-184.9005 696.921,-174.8236 691.3511,-179.0634"/>
</g>
<!-- Node8&#45;&gt;Node9 -->
<g id="edge7" class="edge">
<title>Node8&#45;&gt;Node9</title>
<path fill="none" stroke="#191970" d="M403.6325,-113.8428C377.3494,-102.2139 340.2628,-85.8051 317.0662,-75.5419"/>
<polygon fill="#191970" stroke="#191970" points="402.2202,-117.0452 412.7813,-117.8906 405.0525,-110.6437 402.2202,-117.0452"/>
</g>
<!-- Node8&#45;&gt;Node11 -->
<g id="edge9" class="edge">
<title>Node8&#45;&gt;Node11</title>
<path fill="none" stroke="#191970" d="M455.119,-111.6491C469.9836,-100.222 489.557,-85.1749 502.0878,-75.5419"/>
<polygon fill="#191970" stroke="#191970" points="452.7949,-109.021 447,-117.8906 457.0613,-114.5707 452.7949,-109.021"/>
</g>
<!-- Node10 -->
<g id="node9" class="node">
<title>Node10</title>
<g id="a_node9"><a xlink:href="PB_8cpp.html" target="_top" xlink:title="PB.cpp">
<polygon fill="none" stroke="#000000" points="271,-.5 271,-19.5 320,-19.5 320,-.5 271,-.5"/>
<text text-anchor="middle" x="295.5" y="-7.5" font-family="Helvetica,sans-Serif" font-size="10.00" fill="#000000">PB.cpp</text>
</a>
</g>
</g>
<!-- Node9&#45;&gt;Node10 -->
<g id="edge8" class="edge">
<title>Node9&#45;&gt;Node10</title>
<path fill="none" stroke="#191970" d="M295.5,-46.1575C295.5,-37.155 295.5,-26.9199 295.5,-19.6427"/>
<polygon fill="#191970" stroke="#191970" points="292.0001,-46.2455 295.5,-56.2455 299.0001,-46.2456 292.0001,-46.2455"/>
</g>
<!-- Node12&#45;&gt;Node13 -->
<g id="edge11" class="edge">
<title>Node12&#45;&gt;Node13</title>
<path fill="none" stroke="#191970" d="M705.1346,-115.4878C752.3907,-103.8162 823.2147,-86.3235 866.7763,-75.5643"/>
<polygon fill="#191970" stroke="#191970" points="704.0021,-112.1623 695.133,-117.9581 705.6806,-118.9581 704.0021,-112.1623"/>
</g>
<!-- Node14&#45;&gt;Node15 -->
<g id="edge13" class="edge">
<title>Node14&#45;&gt;Node15</title>
<path fill="none" stroke="#191970" d="M346.2865,-175.1902C324.2566,-164.8685 297.5211,-152.3421 276.9796,-142.7177"/>
<polygon fill="#191970" stroke="#191970" points="344.8677,-178.3905 355.408,-179.4639 347.8376,-172.0517 344.8677,-178.3905"/>
</g>
</g>
</svg>
