<?xml version="1.0" encoding="UTF-8" standalone="no"?>
<!DOCTYPE svg PUBLIC "-//W3C//DTD SVG 1.1//EN"
 "http://www.w3.org/Graphics/SVG/1.1/DTD/svg11.dtd">
<!-- Generated by graphviz version 2.40.1 (20161225.0304)
 -->
<!-- Title: PoissonSubstitutionProcess.h Pages: 1 -->
<svg width="424pt" height="196pt"
 viewBox="0.00 0.00 423.50 196.00" xmlns="http://www.w3.org/2000/svg" xmlns:xlink="http://www.w3.org/1999/xlink">
<g id="graph0" class="graph" transform="scale(1 1) rotate(0) translate(4 192)">
<title>PoissonSubstitutionProcess.h</title>
<!-- Node24 -->
<g id="node1" class="node">
<title>Node24</title>
<polygon fill="#bfbfbf" stroke="#000000" points="155.5,-168.5 155.5,-187.5 303.5,-187.5 303.5,-168.5 155.5,-168.5"/>
<text text-anchor="middle" x="229.5" y="-175.5" font-family="Helvetica,sans-Serif" font-size="10.00" fill="#000000">PoissonSubstitutionProcess.h</text>
</g>
<!-- Node25 -->
<g id="node2" class="node">
<title>Node25</title>
<g id="a_node2"><a xlink:href="PoissonPhyloProcess_8h.html" target="_top" xlink:title="PoissonPhyloProcess.h">
<polygon fill="none" stroke="#000000" points="80,-112.5 80,-131.5 201,-131.5 201,-112.5 80,-112.5"/>
<text text-anchor="middle" x="140.5" y="-119.5" font-family="Helvetica,sans-Serif" font-size="10.00" fill="#000000">PoissonPhyloProcess.h</text>
</a>
</g>
</g>
<!-- Node24&#45;&gt;Node25 -->
<g id="edge1" class="edge">
<title>Node24&#45;&gt;Node25</title>
<path fill="none" stroke="#191970" d="M205.2936,-162.769C189.5225,-152.8456 169.424,-140.1994 155.825,-131.6427"/>
<polygon fill="#191970" stroke="#191970" points="203.6695,-165.8823 213.9974,-168.2455 207.3974,-159.9575 203.6695,-165.8823"/>
</g>
<!-- Node27 -->
<g id="node4" class="node">
<title>Node27</title>
<g id="a_node4"><a xlink:href="RASCATGammaPhyloProcess_8h.html" target="_top" xlink:title="RASCATGammaPhyloProcess.h">
<polygon fill="none" stroke="#000000" points="149,-56.5 149,-75.5 310,-75.5 310,-56.5 149,-56.5"/>
<text text-anchor="middle" x="229.5" y="-63.5" font-family="Helvetica,sans-Serif" font-size="10.00" fill="#000000">RASCATGammaPhyloProcess.h</text>
</a>
</g>
</g>
<!-- Node24&#45;&gt;Node27 -->
<g id="edge6" class="edge">
<title>Node24&#45;&gt;Node27</title>
<path fill="none" stroke="#191970" d="M229.5,-158.2702C229.5,-133.9985 229.5,-93.7725 229.5,-75.5249"/>
<polygon fill="#191970" stroke="#191970" points="226.0001,-158.4509 229.5,-168.4509 233.0001,-158.451 226.0001,-158.4509"/>
</g>
<!-- Node29 -->
<g id="node6" class="node">
<title>Node29</title>
<g id="a_node6"><a xlink:href="PoissonSubstitutionProcess_8cpp.html" target="_top" xlink:title="PoissonSubstitutionProcess.cpp">
<polygon fill="none" stroke="#000000" points="257.5,-112.5 257.5,-131.5 415.5,-131.5 415.5,-112.5 257.5,-112.5"/>
<text text-anchor="middle" x="336.5" y="-119.5" font-family="Helvetica,sans-Serif" font-size="10.00" fill="#000000">PoissonSubstitutionProcess.cpp</text>
</a>
</g>
</g>
<!-- Node24&#45;&gt;Node29 -->
<g id="edge5" class="edge">
<title>Node24&#45;&gt;Node29</title>
<path fill="none" stroke="#191970" d="M257.0199,-163.5971C276.2017,-153.558 301.2678,-140.4393 318.0756,-131.6427"/>
<polygon fill="#191970" stroke="#191970" points="255.375,-160.5075 248.138,-168.2455 258.6209,-166.7095 255.375,-160.5075"/>
</g>
<!-- Node26 -->
<g id="node3" class="node">
<title>Node26</title>
<g id="a_node3"><a xlink:href="PoissonPhyloProcess_8cpp.html" target="_top" xlink:title="PoissonPhyloProcess.cpp">
<polygon fill="none" stroke="#000000" points="0,-56.5 0,-75.5 131,-75.5 131,-56.5 0,-56.5"/>
<text text-anchor="middle" x="65.5" y="-63.5" font-family="Helvetica,sans-Serif" font-size="10.00" fill="#000000">PoissonPhyloProcess.cpp</text>
</a>
</g>
</g>
<!-- Node25&#45;&gt;Node26 -->
<g id="edge2" class="edge">
<title>Node25&#45;&gt;Node26</title>
<path fill="none" stroke="#191970" d="M119.3523,-106.2097C106.1799,-96.3743 89.66,-84.0394 78.4143,-75.6427"/>
<polygon fill="#191970" stroke="#191970" points="117.3291,-109.0671 127.436,-112.2455 121.5172,-103.4581 117.3291,-109.0671"/>
</g>
<!-- Node25&#45;&gt;Node27 -->
<g id="edge3" class="edge">
<title>Node25&#45;&gt;Node27</title>
<path fill="none" stroke="#191970" d="M164.7064,-106.769C180.4775,-96.8456 200.576,-84.1994 214.175,-75.6427"/>
<polygon fill="#191970" stroke="#191970" points="162.6026,-103.9575 156.0026,-112.2455 166.3305,-109.8823 162.6026,-103.9575"/>
</g>
<!-- Node28 -->
<g id="node5" class="node">
<title>Node28</title>
<g id="a_node5"><a xlink:href="RASCATGammaPhyloProcess_8cpp.html" target="_top" xlink:title="RASCATGammaPhyloProcess.cpp">
<polygon fill="none" stroke="#000000" points="143.5,-.5 143.5,-19.5 315.5,-19.5 315.5,-.5 143.5,-.5"/>
<text text-anchor="middle" x="229.5" y="-7.5" font-family="Helvetica,sans-Serif" font-size="10.00" fill="#000000">RASCATGammaPhyloProcess.cpp</text>
</a>
</g>
</g>
<!-- Node27&#45;&gt;Node28 -->
<g id="edge4" class="edge">
<title>Node27&#45;&gt;Node28</title>
<path fill="none" stroke="#191970" d="M229.5,-46.1575C229.5,-37.155 229.5,-26.9199 229.5,-19.6427"/>
<polygon fill="#191970" stroke="#191970" points="226.0001,-46.2455 229.5,-56.2455 233.0001,-46.2456 226.0001,-46.2455"/>
</g>
</g>
</svg>
