<?xml version="1.0" encoding="UTF-8" standalone="no"?>
<!DOCTYPE svg PUBLIC "-//W3C//DTD SVG 1.1//EN"
 "http://www.w3.org/Graphics/SVG/1.1/DTD/svg11.dtd">
<!-- Generated by graphviz version 2.38.0 (20140413.2041)
 -->
<!-- Title: PoissonMixtureProfileProcess.h Pages: 1 -->
<svg width="886pt" height="308pt"
 viewBox="0.00 0.00 886.00 308.00" xmlns="http://www.w3.org/2000/svg" xmlns:xlink="http://www.w3.org/1999/xlink">
<g id="graph0" class="graph" transform="scale(1 1) rotate(0) translate(4 304)">
<title>PoissonMixtureProfileProcess.h</title>
<!-- Node14 -->
<g id="node1" class="node"><title>Node14</title>
<polygon fill="#bfbfbf" stroke="black" points="468.5,-280.5 468.5,-299.5 624.5,-299.5 624.5,-280.5 468.5,-280.5"/>
<text text-anchor="middle" x="546.5" y="-287.5" font-family="Helvetica,sans-Serif" font-size="10.00">PoissonMixtureProfileProcess.h</text>
</g>
<!-- Node15 -->
<g id="node2" class="node"><title>Node15</title>
<g id="a_node2"><a xlink:href="PoissonFiniteProfileProcess_8h.html" target="_top" xlink:title="PoissonFiniteProfileProcess.h">
<polygon fill="none" stroke="black" points="207.5,-224.5 207.5,-243.5 355.5,-243.5 355.5,-224.5 207.5,-224.5"/>
<text text-anchor="middle" x="281.5" y="-231.5" font-family="Helvetica,sans-Serif" font-size="10.00">PoissonFiniteProfileProcess.h</text>
</a>
</g>
</g>
<!-- Node14&#45;&gt;Node15 -->
<g id="edge1" class="edge"><title>Node14&#45;&gt;Node15</title>
<path fill="none" stroke="midnightblue" d="M494.528,-278.41C444.446,-268.204 369.636,-252.96 323.294,-243.516"/>
<polygon fill="midnightblue" stroke="midnightblue" points="494.012,-281.876 504.51,-280.444 495.41,-275.017 494.012,-281.876"/>
</g>
<!-- Node22 -->
<g id="node9" class="node"><title>Node22</title>
<g id="a_node9"><a xlink:href="PoissonDPProfileProcess_8h.html" target="_top" xlink:title="PoissonDPProfileProcess.h">
<polygon fill="none" stroke="black" points="477.5,-224.5 477.5,-243.5 615.5,-243.5 615.5,-224.5 477.5,-224.5"/>
<text text-anchor="middle" x="546.5" y="-231.5" font-family="Helvetica,sans-Serif" font-size="10.00">PoissonDPProfileProcess.h</text>
</a>
</g>
</g>
<!-- Node14&#45;&gt;Node22 -->
<g id="edge8" class="edge"><title>Node14&#45;&gt;Node22</title>
<path fill="none" stroke="midnightblue" d="M546.5,-269.805C546.5,-260.91 546.5,-250.78 546.5,-243.751"/>
<polygon fill="midnightblue" stroke="midnightblue" points="543,-270.083 546.5,-280.083 550,-270.083 543,-270.083"/>
</g>
<!-- Node30 -->
<g id="node17" class="node"><title>Node30</title>
<g id="a_node17"><a xlink:href="PoissonMixtureProfileProcess_8cpp.html" target="_top" xlink:title="PoissonMixtureProfileProcess.cpp">
<polygon fill="none" stroke="black" points="634,-224.5 634,-243.5 801,-243.5 801,-224.5 634,-224.5"/>
<text text-anchor="middle" x="717.5" y="-231.5" font-family="Helvetica,sans-Serif" font-size="10.00">PoissonMixtureProfileProcess.cpp</text>
</a>
</g>
</g>
<!-- Node14&#45;&gt;Node30 -->
<g id="edge18" class="edge"><title>Node14&#45;&gt;Node30</title>
<path fill="none" stroke="midnightblue" d="M583.536,-277.304C615.757,-267.129 661.689,-252.625 690.531,-243.516"/>
<polygon fill="midnightblue" stroke="midnightblue" points="582.077,-274.095 573.595,-280.444 584.185,-280.77 582.077,-274.095"/>
</g>
<!-- Node16 -->
<g id="node3" class="node"><title>Node16</title>
<g id="a_node3"><a xlink:href="RASCATFiniteGammaPhyloProcess_8h.html" target="_top" xlink:title="RASCATFiniteGammaPhyloProcess.h">
<polygon fill="none" stroke="black" points="0,-168.5 0,-187.5 185,-187.5 185,-168.5 0,-168.5"/>
<text text-anchor="middle" x="92.5" y="-175.5" font-family="Helvetica,sans-Serif" font-size="10.00">RASCATFiniteGammaPhyloProcess.h</text>
</a>
</g>
</g>
<!-- Node15&#45;&gt;Node16 -->
<g id="edge2" class="edge"><title>Node15&#45;&gt;Node16</title>
<path fill="none" stroke="midnightblue" d="M241.487,-221.568C205.833,-211.381 154.462,-196.703 122.308,-187.516"/>
<polygon fill="midnightblue" stroke="midnightblue" points="240.976,-225.062 251.552,-224.444 242.899,-218.331 240.976,-225.062"/>
</g>
<!-- Node21 -->
<g id="node8" class="node"><title>Node21</title>
<g id="a_node8"><a xlink:href="PoissonFiniteProfileProcess_8cpp.html" target="_top" xlink:title="PoissonFiniteProfileProcess.cpp">
<polygon fill="none" stroke="black" points="202.5,-168.5 202.5,-187.5 360.5,-187.5 360.5,-168.5 202.5,-168.5"/>
<text text-anchor="middle" x="281.5" y="-175.5" font-family="Helvetica,sans-Serif" font-size="10.00">PoissonFiniteProfileProcess.cpp</text>
</a>
</g>
</g>
<!-- Node15&#45;&gt;Node21 -->
<g id="edge7" class="edge"><title>Node15&#45;&gt;Node21</title>
<path fill="none" stroke="midnightblue" d="M281.5,-213.805C281.5,-204.91 281.5,-194.78 281.5,-187.751"/>
<polygon fill="midnightblue" stroke="midnightblue" points="278,-214.083 281.5,-224.083 285,-214.083 278,-214.083"/>
</g>
<!-- Node17 -->
<g id="node4" class="node"><title>Node17</title>
<g id="a_node4"><a xlink:href="Model_8h.html" target="_top" xlink:title="Model.h">
<polygon fill="none" stroke="black" points="196,-56.5 196,-75.5 247,-75.5 247,-56.5 196,-56.5"/>
<text text-anchor="middle" x="221.5" y="-63.5" font-family="Helvetica,sans-Serif" font-size="10.00">Model.h</text>
</a>
</g>
</g>
<!-- Node16&#45;&gt;Node17 -->
<g id="edge3" class="edge"><title>Node16&#45;&gt;Node17</title>
<path fill="none" stroke="midnightblue" d="M70.7622,-161.985C54.0215,-148.564 35.7237,-128.525 48.5,-112 66.4384,-88.7986 152.185,-75.3279 195.839,-69.866"/>
<polygon fill="midnightblue" stroke="midnightblue" points="69.1094,-165.122 79.2018,-168.346 73.3228,-159.532 69.1094,-165.122"/>
</g>
<!-- Node20 -->
<g id="node7" class="node"><title>Node20</title>
<g id="a_node7"><a xlink:href="RASCATFiniteGammaPhyloProcess_8cpp.html" target="_top" xlink:title="RASCATFiniteGammaPhyloProcess.cpp">
<polygon fill="none" stroke="black" points="57.5,-112.5 57.5,-131.5 253.5,-131.5 253.5,-112.5 57.5,-112.5"/>
<text text-anchor="middle" x="155.5" y="-119.5" font-family="Helvetica,sans-Serif" font-size="10.00">RASCATFiniteGammaPhyloProcess.cpp</text>
</a>
</g>
</g>
<!-- Node16&#45;&gt;Node20 -->
<g id="edge6" class="edge"><title>Node16&#45;&gt;Node20</title>
<path fill="none" stroke="midnightblue" d="M110.54,-161.537C121.773,-151.909 135.819,-139.869 145.194,-131.834"/>
<polygon fill="midnightblue" stroke="midnightblue" points="107.937,-159.159 102.622,-168.324 112.492,-164.473 107.937,-159.159"/>
</g>
<!-- Node18 -->
<g id="node5" class="node"><title>Node18</title>
<g id="a_node5"><a xlink:href="PB_8cpp.html" target="_top" xlink:title="PB.cpp">
<polygon fill="none" stroke="black" points="158,-0.5 158,-19.5 207,-19.5 207,-0.5 158,-0.5"/>
<text text-anchor="middle" x="182.5" y="-7.5" font-family="Helvetica,sans-Serif" font-size="10.00">PB.cpp</text>
</a>
</g>
</g>
<!-- Node17&#45;&gt;Node18 -->
<g id="edge4" class="edge"><title>Node17&#45;&gt;Node18</title>
<path fill="none" stroke="midnightblue" d="M209.118,-47.8554C202.365,-38.5048 194.291,-27.3265 188.82,-19.7511"/>
<polygon fill="midnightblue" stroke="midnightblue" points="206.368,-50.0254 215.06,-56.083 212.042,-45.927 206.368,-50.0254"/>
</g>
<!-- Node19 -->
<g id="node6" class="node"><title>Node19</title>
<g id="a_node6"><a xlink:href="ReadPB_8cpp.html" target="_top" xlink:title="ReadPB.cpp">
<polygon fill="none" stroke="black" points="225.5,-0.5 225.5,-19.5 297.5,-19.5 297.5,-0.5 225.5,-0.5"/>
<text text-anchor="middle" x="261.5" y="-7.5" font-family="Helvetica,sans-Serif" font-size="10.00">ReadPB.cpp</text>
</a>
</g>
</g>
<!-- Node17&#45;&gt;Node19 -->
<g id="edge5" class="edge"><title>Node17&#45;&gt;Node19</title>
<path fill="none" stroke="midnightblue" d="M234.2,-47.8554C241.126,-38.5048 249.406,-27.3265 255.018,-19.7511"/>
<polygon fill="midnightblue" stroke="midnightblue" points="231.245,-45.9641 228.105,-56.083 236.87,-50.1307 231.245,-45.9641"/>
</g>
<!-- Node23 -->
<g id="node10" class="node"><title>Node23</title>
<g id="a_node10"><a xlink:href="RASCATGammaPhyloProcess_8h.html" target="_top" xlink:title="RASCATGammaPhyloProcess.h">
<polygon fill="none" stroke="black" points="379,-168.5 379,-187.5 540,-187.5 540,-168.5 379,-168.5"/>
<text text-anchor="middle" x="459.5" y="-175.5" font-family="Helvetica,sans-Serif" font-size="10.00">RASCATGammaPhyloProcess.h</text>
</a>
</g>
</g>
<!-- Node22&#45;&gt;Node23 -->
<g id="edge9" class="edge"><title>Node22&#45;&gt;Node23</title>
<path fill="none" stroke="midnightblue" d="M523.784,-218.901C507.831,-208.999 487.003,-196.071 473.443,-187.655"/>
<polygon fill="midnightblue" stroke="midnightblue" points="522.18,-222.024 532.522,-224.324 525.871,-216.077 522.18,-222.024"/>
</g>
<!-- Node27 -->
<g id="node14" class="node"><title>Node27</title>
<g id="a_node14"><a xlink:href="PoissonSBDPProfileProcess_8h.html" target="_top" xlink:title="PoissonSBDPProfileProcess.h">
<polygon fill="none" stroke="black" points="558.5,-168.5 558.5,-187.5 710.5,-187.5 710.5,-168.5 558.5,-168.5"/>
<text text-anchor="middle" x="634.5" y="-175.5" font-family="Helvetica,sans-Serif" font-size="10.00">PoissonSBDPProfileProcess.h</text>
</a>
</g>
</g>
<!-- Node22&#45;&gt;Node27 -->
<g id="edge14" class="edge"><title>Node22&#45;&gt;Node27</title>
<path fill="none" stroke="midnightblue" d="M569.477,-218.901C585.613,-208.999 606.681,-196.071 620.396,-187.655"/>
<polygon fill="midnightblue" stroke="midnightblue" points="567.331,-216.111 560.639,-224.324 570.993,-222.077 567.331,-216.111"/>
</g>
<!-- Node29 -->
<g id="node16" class="node"><title>Node29</title>
<g id="a_node16"><a xlink:href="PoissonDPProfileProcess_8cpp.html" target="_top" xlink:title="PoissonDPProfileProcess.cpp">
<polygon fill="none" stroke="black" points="729,-168.5 729,-187.5 878,-187.5 878,-168.5 729,-168.5"/>
<text text-anchor="middle" x="803.5" y="-175.5" font-family="Helvetica,sans-Serif" font-size="10.00">PoissonDPProfileProcess.cpp</text>
</a>
</g>
</g>
<!-- Node22&#45;&gt;Node29 -->
<g id="edge17" class="edge"><title>Node22&#45;&gt;Node29</title>
<path fill="none" stroke="midnightblue" d="M597.207,-222.346C645.776,-212.141 718.119,-196.94 762.968,-187.516"/>
<polygon fill="midnightblue" stroke="midnightblue" points="596.289,-218.962 587.222,-224.444 597.728,-225.812 596.289,-218.962"/>
</g>
<!-- Node24 -->
<g id="node11" class="node"><title>Node24</title>
<g id="a_node11"><a xlink:href="RASCATSBDPGammaPhyloProcess_8h.html" target="_top" xlink:title="RASCATSBDPGammaPhyloProcess.h">
<polygon fill="none" stroke="black" points="462,-112.5 462,-131.5 651,-131.5 651,-112.5 462,-112.5"/>
<text text-anchor="middle" x="556.5" y="-119.5" font-family="Helvetica,sans-Serif" font-size="10.00">RASCATSBDPGammaPhyloProcess.h</text>
</a>
</g>
</g>
<!-- Node23&#45;&gt;Node24 -->
<g id="edge10" class="edge"><title>Node23&#45;&gt;Node24</title>
<path fill="none" stroke="midnightblue" d="M483.835,-163.453C501.743,-153.483 525.554,-140.228 540.954,-131.655"/>
<polygon fill="midnightblue" stroke="midnightblue" points="482.12,-160.402 475.085,-168.324 485.525,-166.518 482.12,-160.402"/>
</g>
<!-- Node26 -->
<g id="node13" class="node"><title>Node26</title>
<g id="a_node13"><a xlink:href="RASCATGammaPhyloProcess_8cpp.html" target="_top" xlink:title="RASCATGammaPhyloProcess.cpp">
<polygon fill="none" stroke="black" points="271.5,-112.5 271.5,-131.5 443.5,-131.5 443.5,-112.5 271.5,-112.5"/>
<text text-anchor="middle" x="357.5" y="-119.5" font-family="Helvetica,sans-Serif" font-size="10.00">RASCATGammaPhyloProcess.cpp</text>
</a>
</g>
</g>
<!-- Node23&#45;&gt;Node26 -->
<g id="edge13" class="edge"><title>Node23&#45;&gt;Node26</title>
<path fill="none" stroke="midnightblue" d="M434.169,-163.59C415.31,-153.605 390.116,-140.267 373.847,-131.655"/>
<polygon fill="midnightblue" stroke="midnightblue" points="432.636,-166.738 443.112,-168.324 435.912,-160.552 432.636,-166.738"/>
</g>
<!-- Node24&#45;&gt;Node17 -->
<g id="edge11" class="edge"><title>Node24&#45;&gt;Node17</title>
<path fill="none" stroke="midnightblue" d="M493.247,-110.804C418.946,-98.8271 299.217,-79.5275 247.105,-71.1274"/>
<polygon fill="midnightblue" stroke="midnightblue" points="492.989,-114.307 503.418,-112.444 494.103,-107.397 492.989,-114.307"/>
</g>
<!-- Node25 -->
<g id="node12" class="node"><title>Node25</title>
<g id="a_node12"><a xlink:href="RASCATSBDPGammaPhyloProcess_8cpp.html" target="_top" xlink:title="RASCATSBDPGammaPhyloProcess.cpp">
<polygon fill="none" stroke="black" points="456.5,-56.5 456.5,-75.5 656.5,-75.5 656.5,-56.5 456.5,-56.5"/>
<text text-anchor="middle" x="556.5" y="-63.5" font-family="Helvetica,sans-Serif" font-size="10.00">RASCATSBDPGammaPhyloProcess.cpp</text>
</a>
</g>
</g>
<!-- Node24&#45;&gt;Node25 -->
<g id="edge12" class="edge"><title>Node24&#45;&gt;Node25</title>
<path fill="none" stroke="midnightblue" d="M556.5,-101.805C556.5,-92.9102 556.5,-82.7798 556.5,-75.7511"/>
<polygon fill="midnightblue" stroke="midnightblue" points="553,-102.083 556.5,-112.083 560,-102.083 553,-102.083"/>
</g>
<!-- Node27&#45;&gt;Node24 -->
<g id="edge15" class="edge"><title>Node27&#45;&gt;Node24</title>
<path fill="none" stroke="midnightblue" d="M613.732,-162.622C599.483,-152.757 581.044,-139.992 569.001,-131.655"/>
<polygon fill="midnightblue" stroke="midnightblue" points="611.754,-165.51 621.968,-168.324 615.738,-159.754 611.754,-165.51"/>
</g>
<!-- Node28 -->
<g id="node15" class="node"><title>Node28</title>
<g id="a_node15"><a xlink:href="PoissonSBDPProfileProcess_8cpp.html" target="_top" xlink:title="PoissonSBDPProfileProcess.cpp">
<polygon fill="none" stroke="black" points="669.5,-112.5 669.5,-131.5 831.5,-131.5 831.5,-112.5 669.5,-112.5"/>
<text text-anchor="middle" x="750.5" y="-119.5" font-family="Helvetica,sans-Serif" font-size="10.00">PoissonSBDPProfileProcess.cpp</text>
</a>
</g>
</g>
<!-- Node27&#45;&gt;Node28 -->
<g id="edge16" class="edge"><title>Node27&#45;&gt;Node28</title>
<path fill="none" stroke="midnightblue" d="M662.22,-164.096C683.892,-154.007 713.402,-140.27 732.205,-131.516"/>
<polygon fill="midnightblue" stroke="midnightblue" points="660.469,-161.05 652.881,-168.444 663.423,-167.396 660.469,-161.05"/>
</g>
</g>
</svg>
