<?xml version="1.0" encoding="UTF-8" standalone="no"?>
<!DOCTYPE svg PUBLIC "-//W3C//DTD SVG 1.1//EN"
 "http://www.w3.org/Graphics/SVG/1.1/DTD/svg11.dtd">
<!-- Generated by graphviz version 2.40.1 (20161225.0304)
 -->
<!-- Title: PoissonProfileProcess.h Pages: 1 -->
<svg width="691pt" height="252pt"
 viewBox="0.00 0.00 690.50 252.00" xmlns="http://www.w3.org/2000/svg" xmlns:xlink="http://www.w3.org/1999/xlink">
<g id="graph0" class="graph" transform="scale(1 1) rotate(0) translate(4 248)">
<title>PoissonProfileProcess.h</title>
<!-- Node11 -->
<g id="node1" class="node">
<title>Node11</title>
<polygon fill="#bfbfbf" stroke="#000000" points="268.5,-224.5 268.5,-243.5 392.5,-243.5 392.5,-224.5 268.5,-224.5"/>
<text text-anchor="middle" x="330.5" y="-231.5" font-family="Helvetica,sans-Serif" font-size="10.00" fill="#000000">PoissonProfileProcess.h</text>
</g>
<!-- Node12 -->
<g id="node2" class="node">
<title>Node12</title>
<g id="a_node2"><a xlink:href="PoissonMixtureProfileProcess_8h.html" target="_top" xlink:title="PoissonMixtureProfileProcess.h">
<polygon fill="none" stroke="#000000" points="167.5,-168.5 167.5,-187.5 323.5,-187.5 323.5,-168.5 167.5,-168.5"/>
<text text-anchor="middle" x="245.5" y="-175.5" font-family="Helvetica,sans-Serif" font-size="10.00" fill="#000000">PoissonMixtureProfileProcess.h</text>
</a>
</g>
</g>
<!-- Node11&#45;&gt;Node12 -->
<g id="edge1" class="edge">
<title>Node11&#45;&gt;Node12</title>
<path fill="none" stroke="#191970" d="M306.9581,-218.49C291.961,-208.6096 273.0027,-196.1194 260.1362,-187.6427"/>
<polygon fill="#191970" stroke="#191970" points="305.4179,-221.6666 315.6941,-224.2455 309.2691,-215.8212 305.4179,-221.6666"/>
</g>
<!-- Node18 -->
<g id="node8" class="node">
<title>Node18</title>
<g id="a_node8"><a xlink:href="PoissonSubstitutionProcess_8h.html" target="_top" xlink:title="PoissonSubstitutionProcess.h">
<polygon fill="none" stroke="#000000" points="356.5,-168.5 356.5,-187.5 504.5,-187.5 504.5,-168.5 356.5,-168.5"/>
<text text-anchor="middle" x="430.5" y="-175.5" font-family="Helvetica,sans-Serif" font-size="10.00" fill="#000000">PoissonSubstitutionProcess.h</text>
</a>
</g>
</g>
<!-- Node11&#45;&gt;Node18 -->
<g id="edge7" class="edge">
<title>Node11&#45;&gt;Node18</title>
<path fill="none" stroke="#191970" d="M356.7098,-219.3225C374.5717,-209.3198 397.7155,-196.3593 413.2809,-187.6427"/>
<polygon fill="#191970" stroke="#191970" points="354.9336,-216.3057 347.9187,-224.2455 358.3539,-222.4132 354.9336,-216.3057"/>
</g>
<!-- Node13 -->
<g id="node3" class="node">
<title>Node13</title>
<g id="a_node3"><a xlink:href="PoissonDPProfileProcess_8h.html" target="_top" xlink:title="PoissonDPProfileProcess.h">
<polygon fill="none" stroke="#000000" points="5.5,-112.5 5.5,-131.5 143.5,-131.5 143.5,-112.5 5.5,-112.5"/>
<text text-anchor="middle" x="74.5" y="-119.5" font-family="Helvetica,sans-Serif" font-size="10.00" fill="#000000">PoissonDPProfileProcess.h</text>
</a>
</g>
</g>
<!-- Node12&#45;&gt;Node13 -->
<g id="edge2" class="edge">
<title>Node12&#45;&gt;Node13</title>
<path fill="none" stroke="#191970" d="M206.3852,-165.1905C175.0568,-154.9309 131.8129,-140.7691 103.5124,-131.5011"/>
<polygon fill="#191970" stroke="#191970" points="205.5114,-168.5872 216.1041,-168.3733 207.69,-161.9348 205.5114,-168.5872"/>
</g>
<!-- Node17 -->
<g id="node7" class="node">
<title>Node17</title>
<g id="a_node7"><a xlink:href="PoissonMixtureProfileProcess_8cpp.html" target="_top" xlink:title="PoissonMixtureProfileProcess.cpp">
<polygon fill="none" stroke="#000000" points="162,-112.5 162,-131.5 329,-131.5 329,-112.5 162,-112.5"/>
<text text-anchor="middle" x="245.5" y="-119.5" font-family="Helvetica,sans-Serif" font-size="10.00" fill="#000000">PoissonMixtureProfileProcess.cpp</text>
</a>
</g>
</g>
<!-- Node12&#45;&gt;Node17 -->
<g id="edge6" class="edge">
<title>Node12&#45;&gt;Node17</title>
<path fill="none" stroke="#191970" d="M245.5,-158.1575C245.5,-149.155 245.5,-138.9199 245.5,-131.6427"/>
<polygon fill="#191970" stroke="#191970" points="242.0001,-158.2455 245.5,-168.2455 249.0001,-158.2456 242.0001,-158.2455"/>
</g>
<!-- Node14 -->
<g id="node4" class="node">
<title>Node14</title>
<g id="a_node4"><a xlink:href="PoissonDPProfileProcess_8cpp.html" target="_top" xlink:title="PoissonDPProfileProcess.cpp">
<polygon fill="none" stroke="#000000" points="0,-56.5 0,-75.5 149,-75.5 149,-56.5 0,-56.5"/>
<text text-anchor="middle" x="74.5" y="-63.5" font-family="Helvetica,sans-Serif" font-size="10.00" fill="#000000">PoissonDPProfileProcess.cpp</text>
</a>
</g>
</g>
<!-- Node13&#45;&gt;Node14 -->
<g id="edge3" class="edge">
<title>Node13&#45;&gt;Node14</title>
<path fill="none" stroke="#191970" d="M74.5,-102.1575C74.5,-93.155 74.5,-82.9199 74.5,-75.6427"/>
<polygon fill="#191970" stroke="#191970" points="71.0001,-102.2455 74.5,-112.2455 78.0001,-102.2456 71.0001,-102.2455"/>
</g>
<!-- Node15 -->
<g id="node5" class="node">
<title>Node15</title>
<g id="a_node5"><a xlink:href="RASCATGammaPhyloProcess_8h.html" target="_top" xlink:title="RASCATGammaPhyloProcess.h">
<polygon fill="none" stroke="#000000" points="238,-56.5 238,-75.5 399,-75.5 399,-56.5 238,-56.5"/>
<text text-anchor="middle" x="318.5" y="-63.5" font-family="Helvetica,sans-Serif" font-size="10.00" fill="#000000">RASCATGammaPhyloProcess.h</text>
</a>
</g>
</g>
<!-- Node13&#45;&gt;Node15 -->
<g id="edge4" class="edge">
<title>Node13&#45;&gt;Node15</title>
<path fill="none" stroke="#191970" d="M126.0122,-110.1775C170.9493,-99.8641 235.3074,-85.0934 277.004,-75.5237"/>
<polygon fill="#191970" stroke="#191970" points="125.1315,-106.7886 116.1679,-112.4369 126.6974,-113.6112 125.1315,-106.7886"/>
</g>
<!-- Node16 -->
<g id="node6" class="node">
<title>Node16</title>
<g id="a_node6"><a xlink:href="RASCATGammaPhyloProcess_8cpp.html" target="_top" xlink:title="RASCATGammaPhyloProcess.cpp">
<polygon fill="none" stroke="#000000" points="232.5,-.5 232.5,-19.5 404.5,-19.5 404.5,-.5 232.5,-.5"/>
<text text-anchor="middle" x="318.5" y="-7.5" font-family="Helvetica,sans-Serif" font-size="10.00" fill="#000000">RASCATGammaPhyloProcess.cpp</text>
</a>
</g>
</g>
<!-- Node15&#45;&gt;Node16 -->
<g id="edge5" class="edge">
<title>Node15&#45;&gt;Node16</title>
<path fill="none" stroke="#191970" d="M318.5,-46.1575C318.5,-37.155 318.5,-26.9199 318.5,-19.6427"/>
<polygon fill="#191970" stroke="#191970" points="315.0001,-46.2455 318.5,-56.2455 322.0001,-46.2456 315.0001,-46.2455"/>
</g>
<!-- Node18&#45;&gt;Node15 -->
<g id="edge12" class="edge">
<title>Node18&#45;&gt;Node15</title>
<path fill="none" stroke="#191970" d="M410.2782,-161.9469C399.8701,-153.3964 387.1631,-142.5001 376.5,-132 357.3705,-113.1629 337.13,-89.0315 326.3478,-75.7889"/>
<polygon fill="#191970" stroke="#191970" points="408.0778,-164.6688 418.0494,-168.249 412.4869,-159.2318 408.0778,-164.6688"/>
</g>
<!-- Node19 -->
<g id="node9" class="node">
<title>Node19</title>
<g id="a_node9"><a xlink:href="PoissonPhyloProcess_8h.html" target="_top" xlink:title="PoissonPhyloProcess.h">
<polygon fill="none" stroke="#000000" points="385,-112.5 385,-131.5 506,-131.5 506,-112.5 385,-112.5"/>
<text text-anchor="middle" x="445.5" y="-119.5" font-family="Helvetica,sans-Serif" font-size="10.00" fill="#000000">PoissonPhyloProcess.h</text>
</a>
</g>
</g>
<!-- Node18&#45;&gt;Node19 -->
<g id="edge8" class="edge">
<title>Node18&#45;&gt;Node19</title>
<path fill="none" stroke="#191970" d="M435.7356,-158.4538C438.166,-149.3803 440.9465,-138.9998 442.9171,-131.6427"/>
<polygon fill="#191970" stroke="#191970" points="432.3194,-157.6805 433.1128,-168.2455 439.0811,-159.4917 432.3194,-157.6805"/>
</g>
<!-- Node21 -->
<g id="node11" class="node">
<title>Node21</title>
<g id="a_node11"><a xlink:href="PoissonSubstitutionProcess_8cpp.html" target="_top" xlink:title="PoissonSubstitutionProcess.cpp">
<polygon fill="none" stroke="#000000" points="524.5,-112.5 524.5,-131.5 682.5,-131.5 682.5,-112.5 524.5,-112.5"/>
<text text-anchor="middle" x="603.5" y="-119.5" font-family="Helvetica,sans-Serif" font-size="10.00" fill="#000000">PoissonSubstitutionProcess.cpp</text>
</a>
</g>
</g>
<!-- Node18&#45;&gt;Node21 -->
<g id="edge11" class="edge">
<title>Node18&#45;&gt;Node21</title>
<path fill="none" stroke="#191970" d="M470.0723,-165.1905C501.7671,-154.9309 545.5168,-140.7691 574.1483,-131.5011"/>
<polygon fill="#191970" stroke="#191970" points="468.6758,-161.9636 460.2398,-168.3733 470.8316,-168.6234 468.6758,-161.9636"/>
</g>
<!-- Node19&#45;&gt;Node15 -->
<g id="edge10" class="edge">
<title>Node19&#45;&gt;Node15</title>
<path fill="none" stroke="#191970" d="M414.3108,-108.2473C391.2463,-98.0771 360.4288,-84.4883 340.0472,-75.5011"/>
<polygon fill="#191970" stroke="#191970" points="413.1058,-111.5411 423.6679,-112.3733 415.9301,-105.1361 413.1058,-111.5411"/>
</g>
<!-- Node20 -->
<g id="node10" class="node">
<title>Node20</title>
<g id="a_node10"><a xlink:href="PoissonPhyloProcess_8cpp.html" target="_top" xlink:title="PoissonPhyloProcess.cpp">
<polygon fill="none" stroke="#000000" points="417,-56.5 417,-75.5 548,-75.5 548,-56.5 417,-56.5"/>
<text text-anchor="middle" x="482.5" y="-63.5" font-family="Helvetica,sans-Serif" font-size="10.00" fill="#000000">PoissonPhyloProcess.cpp</text>
</a>
</g>
</g>
<!-- Node19&#45;&gt;Node20 -->
<g id="edge9" class="edge">
<title>Node19&#45;&gt;Node20</title>
<path fill="none" stroke="#191970" d="M457.6376,-103.6296C463.8093,-94.2887 471.0566,-83.3197 476.1289,-75.6427"/>
<polygon fill="#191970" stroke="#191970" points="454.5373,-101.9728 451.9449,-112.2455 460.3777,-105.8316 454.5373,-101.9728"/>
</g>
</g>
</svg>
