<?xml version="1.0" encoding="UTF-8" standalone="no"?>
<!DOCTYPE svg PUBLIC "-//W3C//DTD SVG 1.1//EN"
 "http://www.w3.org/Graphics/SVG/1.1/DTD/svg11.dtd">
<!-- Generated by graphviz version 2.38.0 (20140413.2041)
 -->
<!-- Title: PoissonSubstitutionProcess.h Pages: 1 -->
<svg width="996pt" height="308pt"
 viewBox="0.00 0.00 996.39 308.00" xmlns="http://www.w3.org/2000/svg" xmlns:xlink="http://www.w3.org/1999/xlink">
<g id="graph0" class="graph" transform="scale(1 1) rotate(0) translate(4 304)">
<title>PoissonSubstitutionProcess.h</title>
<!-- Node0 -->
<g id="node1" class="node"><title>Node0</title>
<polygon fill="#bfbfbf" stroke="black" points="390.394,-280.5 390.394,-299.5 538.394,-299.5 538.394,-280.5 390.394,-280.5"/>
<text text-anchor="middle" x="464.394" y="-287.5" font-family="Helvetica,sans-Serif" font-size="10.00">PoissonSubstitutionProcess.h</text>
</g>
<!-- Node1 -->
<g id="node2" class="node"><title>Node1</title>
<g id="a_node2"><a xlink:href="SubstitutionProcess_8h.html" target="_top" xlink:title="SubstitutionProcess.h">
<polygon fill="none" stroke="black" points="407.894,-224.5 407.894,-243.5 520.894,-243.5 520.894,-224.5 407.894,-224.5"/>
<text text-anchor="middle" x="464.394" y="-231.5" font-family="Helvetica,sans-Serif" font-size="10.00">SubstitutionProcess.h</text>
</a>
</g>
</g>
<!-- Node0&#45;&gt;Node1 -->
<g id="edge1" class="edge"><title>Node0&#45;&gt;Node1</title>
<path fill="none" stroke="midnightblue" d="M464.394,-280.083C464.394,-273.006 464.394,-262.861 464.394,-253.986"/>
<polygon fill="midnightblue" stroke="midnightblue" points="467.894,-253.751 464.394,-243.751 460.894,-253.751 467.894,-253.751"/>
</g>
<!-- Node2 -->
<g id="node3" class="node"><title>Node2</title>
<g id="a_node3"><a xlink:href="RateProcess_8h.html" target="_top" xlink:title="RateProcess.h">
<polygon fill="none" stroke="black" points="508.394,-168.5 508.394,-187.5 590.394,-187.5 590.394,-168.5 508.394,-168.5"/>
<text text-anchor="middle" x="549.394" y="-175.5" font-family="Helvetica,sans-Serif" font-size="10.00">RateProcess.h</text>
</a>
</g>
</g>
<!-- Node0&#45;&gt;Node2 -->
<g id="edge43" class="edge"><title>Node0&#45;&gt;Node2</title>
<path fill="none" stroke="midnightblue" d="M482.933,-280.482C497.546,-272.87 517.396,-260.391 529.394,-244 539.31,-230.454 544.381,-211.903 546.929,-198.086"/>
<polygon fill="midnightblue" stroke="midnightblue" points="550.45,-198.226 548.528,-187.807 543.533,-197.15 550.45,-198.226"/>
</g>
<!-- Node23 -->
<g id="node24" class="node"><title>Node23</title>
<g id="a_node24"><a xlink:href="PoissonProfileProcess_8h.html" target="_top" xlink:title="PoissonProfileProcess.h">
<polygon fill="none" stroke="black" points="265.394,-224.5 265.394,-243.5 389.394,-243.5 389.394,-224.5 265.394,-224.5"/>
<text text-anchor="middle" x="327.394" y="-231.5" font-family="Helvetica,sans-Serif" font-size="10.00">PoissonProfileProcess.h</text>
</a>
</g>
</g>
<!-- Node0&#45;&gt;Node23 -->
<g id="edge41" class="edge"><title>Node0&#45;&gt;Node23</title>
<path fill="none" stroke="midnightblue" d="M442.686,-280.444C420.039,-271.517 384.322,-257.439 358.642,-247.317"/>
<polygon fill="midnightblue" stroke="midnightblue" points="359.587,-243.927 349,-243.516 357.02,-250.44 359.587,-243.927"/>
</g>
<!-- Node1&#45;&gt;Node2 -->
<g id="edge2" class="edge"><title>Node1&#45;&gt;Node2</title>
<path fill="none" stroke="midnightblue" d="M478.051,-224.324C491.31,-215.9 511.662,-202.971 527.24,-193.074"/>
<polygon fill="midnightblue" stroke="midnightblue" points="529.207,-195.971 535.771,-187.655 525.454,-190.063 529.207,-195.971"/>
</g>
<!-- Node4 -->
<g id="node5" class="node"><title>Node4</title>
<g id="a_node5"><a xlink:href="Chrono_8h.html" target="_top" xlink:title="Chrono.h">
<polygon fill="none" stroke="black" points="484.394,-112.5 484.394,-131.5 540.394,-131.5 540.394,-112.5 484.394,-112.5"/>
<text text-anchor="middle" x="512.394" y="-119.5" font-family="Helvetica,sans-Serif" font-size="10.00">Chrono.h</text>
</a>
</g>
</g>
<!-- Node1&#45;&gt;Node4 -->
<g id="edge39" class="edge"><title>Node1&#45;&gt;Node4</title>
<path fill="none" stroke="midnightblue" d="M468.16,-224.368C475.977,-206.456 494.1,-164.923 504.562,-140.948"/>
<polygon fill="midnightblue" stroke="midnightblue" points="507.853,-142.157 508.645,-131.591 501.438,-139.357 507.853,-142.157"/>
</g>
<!-- Node8 -->
<g id="node9" class="node"><title>Node8</title>
<g id="a_node9"><a xlink:href="ProfileProcess_8h.html" target="_top" xlink:title="ProfileProcess.h">
<polygon fill="none" stroke="black" points="286.894,-168.5 286.894,-187.5 375.894,-187.5 375.894,-168.5 286.894,-168.5"/>
<text text-anchor="middle" x="331.394" y="-175.5" font-family="Helvetica,sans-Serif" font-size="10.00">ProfileProcess.h</text>
</a>
</g>
</g>
<!-- Node1&#45;&gt;Node8 -->
<g id="edge9" class="edge"><title>Node1&#45;&gt;Node8</title>
<path fill="none" stroke="midnightblue" d="M443.32,-224.444C421.334,-215.517 386.66,-201.439 361.73,-191.317"/>
<polygon fill="midnightblue" stroke="midnightblue" points="362.952,-188.035 352.37,-187.516 360.318,-194.521 362.952,-188.035"/>
</g>
<!-- Node13 -->
<g id="node14" class="node"><title>Node13</title>
<g id="a_node14"><a xlink:href="BranchSitePath_8h.html" target="_top" xlink:title="BranchSitePath.h">
<polygon fill="none" stroke="black" points="149.894,-168.5 149.894,-187.5 242.894,-187.5 242.894,-168.5 149.894,-168.5"/>
<text text-anchor="middle" x="196.394" y="-175.5" font-family="Helvetica,sans-Serif" font-size="10.00">BranchSitePath.h</text>
</a>
</g>
</g>
<!-- Node1&#45;&gt;Node13 -->
<g id="edge18" class="edge"><title>Node1&#45;&gt;Node13</title>
<path fill="none" stroke="midnightblue" d="M421.929,-224.444C374.981,-214.984 299.318,-199.738 248.74,-189.547"/>
<polygon fill="midnightblue" stroke="midnightblue" points="249.155,-186.061 238.661,-187.516 247.772,-192.923 249.155,-186.061"/>
</g>
<!-- Node22 -->
<g id="node23" class="node"><title>Node22</title>
<polygon fill="none" stroke="#bfbfbf" points="396.394,-168.5 396.394,-187.5 452.394,-187.5 452.394,-168.5 396.394,-168.5"/>
<text text-anchor="middle" x="424.394" y="-175.5" font-family="Helvetica,sans-Serif" font-size="10.00">algorithm</text>
</g>
<!-- Node1&#45;&gt;Node22 -->
<g id="edge40" class="edge"><title>Node1&#45;&gt;Node22</title>
<path fill="none" stroke="midnightblue" d="M457.789,-224.083C452.139,-216.455 443.849,-205.264 436.943,-195.941"/>
<polygon fill="midnightblue" stroke="midnightblue" points="439.641,-193.703 430.876,-187.751 434.016,-197.87 439.641,-193.703"/>
</g>
<!-- Node3 -->
<g id="node4" class="node"><title>Node3</title>
<polygon fill="none" stroke="#bfbfbf" points="360.394,-0.5 360.394,-19.5 414.394,-19.5 414.394,-0.5 360.394,-0.5"/>
<text text-anchor="middle" x="387.394" y="-7.5" font-family="Helvetica,sans-Serif" font-size="10.00">iostream</text>
</g>
<!-- Node2&#45;&gt;Node3 -->
<g id="edge3" class="edge"><title>Node2&#45;&gt;Node3</title>
<path fill="none" stroke="midnightblue" d="M570.427,-168.363C614.37,-149.14 708.775,-100.967 670.394,-56 662.451,-46.694 499.562,-25.1127 424.583,-15.6208"/>
<polygon fill="midnightblue" stroke="midnightblue" points="424.971,-12.1421 414.612,-14.3642 424.096,-19.0872 424.971,-12.1421"/>
</g>
<!-- Node2&#45;&gt;Node4 -->
<g id="edge4" class="edge"><title>Node2&#45;&gt;Node4</title>
<path fill="none" stroke="midnightblue" d="M543.284,-168.083C538.112,-160.534 530.548,-149.495 524.2,-140.23"/>
<polygon fill="midnightblue" stroke="midnightblue" points="526.93,-138.022 518.39,-131.751 521.155,-141.979 526.93,-138.022"/>
</g>
<!-- Node4&#45;&gt;Node3 -->
<g id="edge7" class="edge"><title>Node4&#45;&gt;Node3</title>
<path fill="none" stroke="midnightblue" d="M502.585,-112.368C481.5,-93.8137 431.613,-49.9129 404.937,-26.4376"/>
<polygon fill="midnightblue" stroke="midnightblue" points="406.976,-23.5702 397.157,-19.5914 402.352,-28.8252 406.976,-23.5702"/>
</g>
<!-- Node5 -->
<g id="node6" class="node"><title>Node5</title>
<polygon fill="none" stroke="#bfbfbf" points="620.894,-56.5 620.894,-75.5 661.894,-75.5 661.894,-56.5 620.894,-56.5"/>
<text text-anchor="middle" x="641.394" y="-63.5" font-family="Helvetica,sans-Serif" font-size="10.00">ctime</text>
</g>
<!-- Node4&#45;&gt;Node5 -->
<g id="edge5" class="edge"><title>Node4&#45;&gt;Node5</title>
<path fill="none" stroke="midnightblue" d="M532.834,-112.444C554.064,-103.557 587.493,-89.5632 611.649,-79.4514"/>
<polygon fill="midnightblue" stroke="midnightblue" points="613.176,-82.6064 621.049,-75.5164 610.473,-76.1493 613.176,-82.6064"/>
</g>
<!-- Node6 -->
<g id="node7" class="node"><title>Node6</title>
<polygon fill="none" stroke="#bfbfbf" points="540.394,-56.5 540.394,-75.5 602.394,-75.5 602.394,-56.5 540.394,-56.5"/>
<text text-anchor="middle" x="571.394" y="-63.5" font-family="Helvetica,sans-Serif" font-size="10.00">sys/time.h</text>
</g>
<!-- Node4&#45;&gt;Node6 -->
<g id="edge6" class="edge"><title>Node4&#45;&gt;Node6</title>
<path fill="none" stroke="midnightblue" d="M521.873,-112.324C530.595,-104.341 543.737,-92.3128 554.292,-82.6529"/>
<polygon fill="midnightblue" stroke="midnightblue" points="556.728,-85.1674 561.742,-75.8339 552.002,-80.0036 556.728,-85.1674"/>
</g>
<!-- Node7 -->
<g id="node8" class="node"><title>Node7</title>
<polygon fill="none" stroke="#bfbfbf" points="470.894,-0.5 470.894,-19.5 515.894,-19.5 515.894,-0.5 470.894,-0.5"/>
<text text-anchor="middle" x="493.394" y="-7.5" font-family="Helvetica,sans-Serif" font-size="10.00">cstdlib</text>
</g>
<!-- Node4&#45;&gt;Node7 -->
<g id="edge8" class="edge"><title>Node4&#45;&gt;Node7</title>
<path fill="none" stroke="midnightblue" d="M510.903,-112.368C507.837,-94.617 500.764,-53.6664 496.606,-29.5974"/>
<polygon fill="midnightblue" stroke="midnightblue" points="500.029,-28.8498 494.878,-19.5914 493.131,-30.0413 500.029,-28.8498"/>
</g>
<!-- Node8&#45;&gt;Node3 -->
<g id="edge16" class="edge"><title>Node8&#45;&gt;Node3</title>
<path fill="none" stroke="midnightblue" d="M321.632,-168.375C312.801,-159.991 300.174,-146.439 293.394,-132 278.914,-101.161 264.689,-84.4747 283.394,-56 298.166,-33.5125 326.836,-22.2089 350.339,-16.5576"/>
<polygon fill="midnightblue" stroke="midnightblue" points="351.33,-19.9247 360.372,-14.4022 349.86,-13.0808 351.33,-19.9247"/>
</g>
<!-- Node8&#45;&gt;Node4 -->
<g id="edge10" class="edge"><title>Node8&#45;&gt;Node4</title>
<path fill="none" stroke="midnightblue" d="M360.074,-168.444C391.012,-159.214 440.412,-144.475 474.524,-134.298"/>
<polygon fill="midnightblue" stroke="midnightblue" points="475.564,-137.64 484.146,-131.428 473.563,-130.933 475.564,-137.64"/>
</g>
<!-- Node9 -->
<g id="node10" class="node"><title>Node9</title>
<g id="a_node10"><a xlink:href="StateSpace_8h.html" target="_top" xlink:title="StateSpace.h">
<polygon fill="none" stroke="black" points="302.394,-112.5 302.394,-131.5 378.394,-131.5 378.394,-112.5 302.394,-112.5"/>
<text text-anchor="middle" x="340.394" y="-119.5" font-family="Helvetica,sans-Serif" font-size="10.00">StateSpace.h</text>
</a>
</g>
</g>
<!-- Node8&#45;&gt;Node9 -->
<g id="edge11" class="edge"><title>Node8&#45;&gt;Node9</title>
<path fill="none" stroke="midnightblue" d="M332.88,-168.083C334.073,-160.927 335.788,-150.635 337.279,-141.691"/>
<polygon fill="midnightblue" stroke="midnightblue" points="340.744,-142.19 338.935,-131.751 333.839,-141.04 340.744,-142.19"/>
</g>
<!-- Node12 -->
<g id="node13" class="node"><title>Node12</title>
<polygon fill="none" stroke="#bfbfbf" points="8.89397,-0.5 8.89397,-19.5 43.894,-19.5 43.894,-0.5 8.89397,-0.5"/>
<text text-anchor="middle" x="26.394" y="-7.5" font-family="Helvetica,sans-Serif" font-size="10.00">map</text>
</g>
<!-- Node8&#45;&gt;Node12 -->
<g id="edge17" class="edge"><title>Node8&#45;&gt;Node12</title>
<path fill="none" stroke="midnightblue" d="M286.654,-169.106C252.416,-162.072 204.578,-150.063 165.394,-132 125.315,-113.524 116.426,-105.267 83.394,-76 66.6219,-61.14 50.0261,-41.5051 39.1054,-27.7188"/>
<polygon fill="midnightblue" stroke="midnightblue" points="41.7045,-25.3595 32.8036,-19.6128 36.178,-29.6559 41.7045,-25.3595"/>
</g>
<!-- Node10 -->
<g id="node11" class="node"><title>Node10</title>
<g id="a_node11"><a xlink:href="BiologicalSequences_8h.html" target="_top" xlink:title="BiologicalSequences.h">
<polygon fill="none" stroke="black" points="292.394,-56.5 292.394,-75.5 408.394,-75.5 408.394,-56.5 292.394,-56.5"/>
<text text-anchor="middle" x="350.394" y="-63.5" font-family="Helvetica,sans-Serif" font-size="10.00">BiologicalSequences.h</text>
</a>
</g>
</g>
<!-- Node9&#45;&gt;Node10 -->
<g id="edge12" class="edge"><title>Node9&#45;&gt;Node10</title>
<path fill="none" stroke="midnightblue" d="M342.045,-112.083C343.37,-104.927 345.276,-94.6353 346.933,-85.6911"/>
<polygon fill="midnightblue" stroke="midnightblue" points="350.394,-86.2212 348.773,-75.7511 343.511,-84.9466 350.394,-86.2212"/>
</g>
<!-- Node10&#45;&gt;Node3 -->
<g id="edge14" class="edge"><title>Node10&#45;&gt;Node3</title>
<path fill="none" stroke="midnightblue" d="M356.504,-56.083C361.676,-48.5341 369.24,-37.4948 375.588,-28.2298"/>
<polygon fill="midnightblue" stroke="midnightblue" points="378.633,-29.9787 381.398,-19.7511 372.858,-26.0221 378.633,-29.9787"/>
</g>
<!-- Node10&#45;&gt;Node7 -->
<g id="edge13" class="edge"><title>Node10&#45;&gt;Node7</title>
<path fill="none" stroke="midnightblue" d="M373.053,-56.4435C396.796,-47.4776 434.303,-33.314 461.132,-23.1827"/>
<polygon fill="midnightblue" stroke="midnightblue" points="462.722,-26.3235 470.841,-19.5164 460.25,-19.7749 462.722,-26.3235"/>
</g>
<!-- Node11 -->
<g id="node12" class="node"><title>Node11</title>
<polygon fill="none" stroke="#bfbfbf" points="136.894,-0.5 136.894,-19.5 177.894,-19.5 177.894,-0.5 136.894,-0.5"/>
<text text-anchor="middle" x="157.394" y="-7.5" font-family="Helvetica,sans-Serif" font-size="10.00">string</text>
</g>
<!-- Node10&#45;&gt;Node11 -->
<g id="edge15" class="edge"><title>Node10&#45;&gt;Node11</title>
<path fill="none" stroke="midnightblue" d="M319.813,-56.4435C283.728,-46.3474 224.088,-29.6606 187.995,-19.562"/>
<polygon fill="midnightblue" stroke="midnightblue" points="188.614,-16.1007 178.04,-16.7767 186.728,-22.8418 188.614,-16.1007"/>
</g>
<!-- Node13&#45;&gt;Node11 -->
<g id="edge19" class="edge"><title>Node13&#45;&gt;Node11</title>
<path fill="none" stroke="midnightblue" d="M180.151,-168.495C153.977,-153.748 103.382,-120.673 83.394,-76 72.4952,-51.641 102.386,-32.8251 127.384,-21.8466"/>
<polygon fill="midnightblue" stroke="midnightblue" points="128.724,-25.0802 136.63,-18.0275 126.051,-18.6103 128.724,-25.0802"/>
</g>
<!-- Node13&#45;&gt;Node12 -->
<g id="edge20" class="edge"><title>Node13&#45;&gt;Node12</title>
<path fill="none" stroke="midnightblue" d="M149.524,-172.074C100.741,-165.867 29.1454,-153.342 12.394,-132 -11.0165,-102.174 5.23283,-54.773 17.0718,-29.0457"/>
<polygon fill="midnightblue" stroke="midnightblue" points="20.3676,-30.2717 21.5988,-19.7487 14.074,-27.2072 20.3676,-30.2717"/>
</g>
<!-- Node14 -->
<g id="node15" class="node"><title>Node14</title>
<g id="a_node15"><a xlink:href="Tree_8h.html" target="_top" xlink:title="Tree.h">
<polygon fill="none" stroke="black" points="174.394,-112.5 174.394,-131.5 218.394,-131.5 218.394,-112.5 174.394,-112.5"/>
<text text-anchor="middle" x="196.394" y="-119.5" font-family="Helvetica,sans-Serif" font-size="10.00">Tree.h</text>
</a>
</g>
</g>
<!-- Node13&#45;&gt;Node14 -->
<g id="edge21" class="edge"><title>Node13&#45;&gt;Node14</title>
<path fill="none" stroke="midnightblue" d="M196.394,-168.083C196.394,-161.006 196.394,-150.861 196.394,-141.986"/>
<polygon fill="midnightblue" stroke="midnightblue" points="199.894,-141.751 196.394,-131.751 192.894,-141.751 199.894,-141.751"/>
</g>
<!-- Node16 -->
<g id="node17" class="node"><title>Node16</title>
<g id="a_node17"><a xlink:href="SubMatrix_8h.html" target="_top" xlink:title="SubMatrix.h">
<polygon fill="none" stroke="black" points="724.894,-112.5 724.894,-131.5 793.894,-131.5 793.894,-112.5 724.894,-112.5"/>
<text text-anchor="middle" x="759.394" y="-119.5" font-family="Helvetica,sans-Serif" font-size="10.00">SubMatrix.h</text>
</a>
</g>
</g>
<!-- Node13&#45;&gt;Node16 -->
<g id="edge29" class="edge"><title>Node13&#45;&gt;Node16</title>
<path fill="none" stroke="midnightblue" d="M243.067,-171.672C254.304,-170.429 266.274,-169.137 277.394,-168 438.317,-151.549 629.722,-134.398 714.809,-126.899"/>
<polygon fill="midnightblue" stroke="midnightblue" points="715.236,-130.375 724.891,-126.012 714.622,-123.402 715.236,-130.375"/>
</g>
<!-- Node14&#45;&gt;Node3 -->
<g id="edge24" class="edge"><title>Node14&#45;&gt;Node3</title>
<path fill="none" stroke="midnightblue" d="M201.51,-112.071C209.944,-98.1211 228.076,-71.1858 250.394,-56 280.626,-35.4294 320.958,-23.6831 350.023,-17.388"/>
<polygon fill="midnightblue" stroke="midnightblue" points="351.087,-20.743 360.182,-15.3092 349.684,-13.8851 351.087,-20.743"/>
</g>
<!-- Node14&#45;&gt;Node7 -->
<g id="edge22" class="edge"><title>Node14&#45;&gt;Node7</title>
<path fill="none" stroke="midnightblue" d="M218.442,-117.948C267.113,-110.982 382.209,-93.1794 417.394,-76 441.879,-64.0452 464.905,-42.3199 479.06,-27.2963"/>
<polygon fill="midnightblue" stroke="midnightblue" points="481.8,-29.4863 485.963,-19.7439 476.633,-24.7634 481.8,-29.4863"/>
</g>
<!-- Node14&#45;&gt;Node11 -->
<g id="edge23" class="edge"><title>Node14&#45;&gt;Node11</title>
<path fill="none" stroke="midnightblue" d="M193.334,-112.368C187.012,-94.5366 172.39,-53.2953 163.872,-29.2717"/>
<polygon fill="midnightblue" stroke="midnightblue" points="167.081,-27.847 160.44,-19.5914 160.483,-30.1862 167.081,-27.847"/>
</g>
<!-- Node15 -->
<g id="node16" class="node"><title>Node15</title>
<g id="a_node16"><a xlink:href="TaxonSet_8h.html" target="_top" xlink:title="TaxonSet.h">
<polygon fill="none" stroke="black" points="92.894,-56.5 92.894,-75.5 159.894,-75.5 159.894,-56.5 92.894,-56.5"/>
<text text-anchor="middle" x="126.394" y="-63.5" font-family="Helvetica,sans-Serif" font-size="10.00">TaxonSet.h</text>
</a>
</g>
</g>
<!-- Node14&#45;&gt;Node15 -->
<g id="edge25" class="edge"><title>Node14&#45;&gt;Node15</title>
<path fill="none" stroke="midnightblue" d="M185.147,-112.324C174.597,-104.185 158.593,-91.8395 145.952,-82.0874"/>
<polygon fill="midnightblue" stroke="midnightblue" points="147.901,-79.1707 137.845,-75.8339 143.625,-84.7132 147.901,-79.1707"/>
</g>
<!-- Node15&#45;&gt;Node3 -->
<g id="edge28" class="edge"><title>Node15&#45;&gt;Node3</title>
<path fill="none" stroke="midnightblue" d="M159.981,-58.051C208.927,-47.9242 299.543,-29.1761 350.363,-18.6615"/>
<polygon fill="midnightblue" stroke="midnightblue" points="351.19,-22.0646 360.274,-16.6111 349.772,-15.2098 351.19,-22.0646"/>
</g>
<!-- Node15&#45;&gt;Node11 -->
<g id="edge27" class="edge"><title>Node15&#45;&gt;Node11</title>
<path fill="none" stroke="midnightblue" d="M131.513,-56.083C135.801,-48.6127 142.052,-37.7244 147.336,-28.5199"/>
<polygon fill="midnightblue" stroke="midnightblue" points="150.427,-30.1662 152.37,-19.7511 144.356,-26.6811 150.427,-30.1662"/>
</g>
<!-- Node15&#45;&gt;Node12 -->
<g id="edge26" class="edge"><title>Node15&#45;&gt;Node12</title>
<path fill="none" stroke="midnightblue" d="M110.327,-56.324C94.4362,-47.7428 69.8866,-34.486 51.4355,-24.5224"/>
<polygon fill="midnightblue" stroke="midnightblue" points="52.8829,-21.3264 42.4208,-19.6545 49.5569,-27.4857 52.8829,-21.3264"/>
</g>
<!-- Node16&#45;&gt;Node3 -->
<g id="edge30" class="edge"><title>Node16&#45;&gt;Node3</title>
<path fill="none" stroke="midnightblue" d="M754.704,-112.061C746.589,-97.5849 728.46,-69.2971 704.394,-56 692.244,-49.2868 506.001,-25.646 424.786,-15.5863"/>
<polygon fill="midnightblue" stroke="midnightblue" points="424.861,-12.069 414.507,-14.3162 424.002,-19.0162 424.861,-12.069"/>
</g>
<!-- Node17 -->
<g id="node18" class="node"><title>Node17</title>
<polygon fill="none" stroke="#bfbfbf" points="738.394,-0.5 738.394,-19.5 782.394,-19.5 782.394,-0.5 738.394,-0.5"/>
<text text-anchor="middle" x="760.394" y="-7.5" font-family="Helvetica,sans-Serif" font-size="10.00">cmath</text>
</g>
<!-- Node16&#45;&gt;Node17 -->
<g id="edge31" class="edge"><title>Node16&#45;&gt;Node17</title>
<path fill="none" stroke="midnightblue" d="M759.472,-112.368C759.634,-94.617 760.006,-53.6664 760.225,-29.5974"/>
<polygon fill="midnightblue" stroke="midnightblue" points="763.725,-29.6229 760.316,-19.5914 756.725,-29.5592 763.725,-29.6229"/>
</g>
<!-- Node18 -->
<g id="node19" class="node"><title>Node18</title>
<g id="a_node19"><a xlink:href="Random_8h.html" target="_top" xlink:title="Random.h">
<polygon fill="none" stroke="black" points="794.394,-56.5 794.394,-75.5 856.394,-75.5 856.394,-56.5 794.394,-56.5"/>
<text text-anchor="middle" x="825.394" y="-63.5" font-family="Helvetica,sans-Serif" font-size="10.00">Random.h</text>
</a>
</g>
</g>
<!-- Node16&#45;&gt;Node18 -->
<g id="edge32" class="edge"><title>Node16&#45;&gt;Node18</title>
<path fill="none" stroke="midnightblue" d="M769.998,-112.324C779.85,-104.263 794.745,-92.0765 806.609,-82.3695"/>
<polygon fill="midnightblue" stroke="midnightblue" points="809.074,-84.8752 814.597,-75.8339 804.641,-79.4575 809.074,-84.8752"/>
</g>
<!-- Node18&#45;&gt;Node3 -->
<g id="edge35" class="edge"><title>Node18&#45;&gt;Node3</title>
<path fill="none" stroke="midnightblue" d="M794.245,-61.1597C715.541,-51.4565 508.953,-25.9867 424.339,-15.5548"/>
<polygon fill="midnightblue" stroke="midnightblue" points="424.759,-12.0802 414.406,-14.3302 423.903,-19.0276 424.759,-12.0802"/>
</g>
<!-- Node18&#45;&gt;Node7 -->
<g id="edge34" class="edge"><title>Node18&#45;&gt;Node7</title>
<path fill="none" stroke="midnightblue" d="M794.16,-59.9198C731.315,-49.6981 590.139,-26.7356 526.095,-16.3189"/>
<polygon fill="midnightblue" stroke="midnightblue" points="526.575,-12.8511 516.143,-14.7002 525.452,-19.7603 526.575,-12.8511"/>
</g>
<!-- Node18&#45;&gt;Node17 -->
<g id="edge33" class="edge"><title>Node18&#45;&gt;Node17</title>
<path fill="none" stroke="midnightblue" d="M814.951,-56.324C805.248,-48.2631 790.579,-36.0765 778.894,-26.3695"/>
<polygon fill="midnightblue" stroke="midnightblue" points="780.956,-23.532 771.027,-19.8339 776.483,-28.9163 780.956,-23.532"/>
</g>
<!-- Node19 -->
<g id="node20" class="node"><title>Node19</title>
<polygon fill="none" stroke="#bfbfbf" points="936.394,-0.5 936.394,-19.5 988.394,-19.5 988.394,-0.5 936.394,-0.5"/>
<text text-anchor="middle" x="962.394" y="-7.5" font-family="Helvetica,sans-Serif" font-size="10.00">sstream</text>
</g>
<!-- Node18&#45;&gt;Node19 -->
<g id="edge36" class="edge"><title>Node18&#45;&gt;Node19</title>
<path fill="none" stroke="midnightblue" d="M847.102,-56.4435C869.749,-47.5171 905.466,-33.4387 931.146,-23.3168"/>
<polygon fill="midnightblue" stroke="midnightblue" points="932.768,-26.4397 940.787,-19.5164 930.201,-19.9273 932.768,-26.4397"/>
</g>
<!-- Node20 -->
<g id="node21" class="node"><title>Node20</title>
<polygon fill="none" stroke="#bfbfbf" points="800.394,-0.5 800.394,-19.5 850.394,-19.5 850.394,-0.5 800.394,-0.5"/>
<text text-anchor="middle" x="825.394" y="-7.5" font-family="Helvetica,sans-Serif" font-size="10.00">iomanip</text>
</g>
<!-- Node18&#45;&gt;Node20 -->
<g id="edge37" class="edge"><title>Node18&#45;&gt;Node20</title>
<path fill="none" stroke="midnightblue" d="M825.394,-56.083C825.394,-49.0059 825.394,-38.8611 825.394,-29.9865"/>
<polygon fill="midnightblue" stroke="midnightblue" points="828.894,-29.751 825.394,-19.7511 821.894,-29.7511 828.894,-29.751"/>
</g>
<!-- Node21 -->
<g id="node22" class="node"><title>Node21</title>
<polygon fill="none" stroke="#bfbfbf" points="868.394,-0.5 868.394,-19.5 918.394,-19.5 918.394,-0.5 868.394,-0.5"/>
<text text-anchor="middle" x="893.394" y="-7.5" font-family="Helvetica,sans-Serif" font-size="10.00">fstream</text>
</g>
<!-- Node18&#45;&gt;Node21 -->
<g id="edge38" class="edge"><title>Node18&#45;&gt;Node21</title>
<path fill="none" stroke="midnightblue" d="M836.319,-56.324C846.569,-48.1849 862.115,-35.8395 874.395,-26.0874"/>
<polygon fill="midnightblue" stroke="midnightblue" points="876.615,-28.7937 882.27,-19.8339 872.262,-23.3119 876.615,-28.7937"/>
</g>
<!-- Node23&#45;&gt;Node8 -->
<g id="edge42" class="edge"><title>Node23&#45;&gt;Node8</title>
<path fill="none" stroke="midnightblue" d="M328.054,-224.083C328.579,-217.006 329.33,-206.861 329.988,-197.986"/>
<polygon fill="midnightblue" stroke="midnightblue" points="333.497,-197.982 330.746,-187.751 326.517,-197.465 333.497,-197.982"/>
</g>
</g>
</svg>
