<?xml version="1.0" encoding="UTF-8" standalone="no"?>
<!DOCTYPE svg PUBLIC "-//W3C//DTD SVG 1.1//EN"
 "http://www.w3.org/Graphics/SVG/1.1/DTD/svg11.dtd">
<!-- Generated by graphviz version 2.38.0 (20140413.2041)
 -->
<!-- Title: PoissonProfileProcess.h Pages: 1 -->
<svg width="1242pt" height="364pt"
 viewBox="0.00 0.00 1241.50 364.00" xmlns="http://www.w3.org/2000/svg" xmlns:xlink="http://www.w3.org/1999/xlink">
<g id="graph0" class="graph" transform="scale(1 1) rotate(0) translate(4 360)">
<title>PoissonProfileProcess.h</title>
<!-- Node11 -->
<g id="node1" class="node"><title>Node11</title>
<polygon fill="#bfbfbf" stroke="black" points="613.5,-336.5 613.5,-355.5 737.5,-355.5 737.5,-336.5 613.5,-336.5"/>
<text text-anchor="middle" x="675.5" y="-343.5" font-family="Helvetica,sans-Serif" font-size="10.00">PoissonProfileProcess.h</text>
</g>
<!-- Node12 -->
<g id="node2" class="node"><title>Node12</title>
<g id="a_node2"><a xlink:href="PoissonSubstitutionProcess_8h.html" target="_top" xlink:title="PoissonSubstitutionProcess.h">
<polygon fill="none" stroke="black" points="453.5,-280.5 453.5,-299.5 601.5,-299.5 601.5,-280.5 453.5,-280.5"/>
<text text-anchor="middle" x="527.5" y="-287.5" font-family="Helvetica,sans-Serif" font-size="10.00">PoissonSubstitutionProcess.h</text>
</a>
</g>
</g>
<!-- Node11&#45;&gt;Node12 -->
<g id="edge1" class="edge"><title>Node11&#45;&gt;Node12</title>
<path fill="none" stroke="midnightblue" d="M642.353,-332.906C614.528,-322.754 575.48,-308.506 550.841,-299.516"/>
<polygon fill="midnightblue" stroke="midnightblue" points="641.455,-336.304 652.049,-336.444 643.854,-329.728 641.455,-336.304"/>
</g>
<!-- Node26 -->
<g id="node16" class="node"><title>Node26</title>
<g id="a_node16"><a xlink:href="PoissonMixtureProfileProcess_8h.html" target="_top" xlink:title="PoissonMixtureProfileProcess.h">
<polygon fill="none" stroke="black" points="746.5,-280.5 746.5,-299.5 902.5,-299.5 902.5,-280.5 746.5,-280.5"/>
<text text-anchor="middle" x="824.5" y="-287.5" font-family="Helvetica,sans-Serif" font-size="10.00">PoissonMixtureProfileProcess.h</text>
</a>
</g>
</g>
<!-- Node11&#45;&gt;Node26 -->
<g id="edge18" class="edge"><title>Node11&#45;&gt;Node26</title>
<path fill="none" stroke="midnightblue" d="M708.871,-332.906C736.884,-322.754 776.196,-308.506 801.001,-299.516"/>
<polygon fill="midnightblue" stroke="midnightblue" points="707.319,-329.746 699.109,-336.444 709.704,-336.327 707.319,-329.746"/>
</g>
<!-- Node13 -->
<g id="node3" class="node"><title>Node13</title>
<g id="a_node3"><a xlink:href="RASCATFiniteGammaPhyloProcess_8h.html" target="_top" xlink:title="RASCATFiniteGammaPhyloProcess.h">
<polygon fill="none" stroke="black" points="346,-168.5 346,-187.5 531,-187.5 531,-168.5 346,-168.5"/>
<text text-anchor="middle" x="438.5" y="-175.5" font-family="Helvetica,sans-Serif" font-size="10.00">RASCATFiniteGammaPhyloProcess.h</text>
</a>
</g>
</g>
<!-- Node12&#45;&gt;Node13 -->
<g id="edge2" class="edge"><title>Node12&#45;&gt;Node13</title>
<path fill="none" stroke="midnightblue" d="M482.629,-276.854C466.167,-270.007 449.202,-259.588 439.5,-244 428.646,-226.561 432.72,-201.065 435.982,-187.782"/>
<polygon fill="midnightblue" stroke="midnightblue" points="481.613,-280.212 492.205,-280.485 484.095,-273.667 481.613,-280.212"/>
</g>
<!-- Node18 -->
<g id="node8" class="node"><title>Node18</title>
<g id="a_node8"><a xlink:href="PoissonPhyloProcess_8h.html" target="_top" xlink:title="PoissonPhyloProcess.h">
<polygon fill="none" stroke="black" points="271,-224.5 271,-243.5 392,-243.5 392,-224.5 271,-224.5"/>
<text text-anchor="middle" x="331.5" y="-231.5" font-family="Helvetica,sans-Serif" font-size="10.00">PoissonPhyloProcess.h</text>
</a>
</g>
</g>
<!-- Node12&#45;&gt;Node18 -->
<g id="edge7" class="edge"><title>Node12&#45;&gt;Node18</title>
<path fill="none" stroke="midnightblue" d="M486.48,-277.699C449.489,-267.507 395.9,-252.743 362.411,-243.516"/>
<polygon fill="midnightblue" stroke="midnightblue" points="485.873,-281.162 496.443,-280.444 487.732,-274.413 485.873,-281.162"/>
</g>
<!-- Node19 -->
<g id="node9" class="node"><title>Node19</title>
<g id="a_node9"><a xlink:href="RASCATGammaPhyloProcess_8h.html" target="_top" xlink:title="RASCATGammaPhyloProcess.h">
<polygon fill="none" stroke="black" points="554,-168.5 554,-187.5 715,-187.5 715,-168.5 554,-168.5"/>
<text text-anchor="middle" x="634.5" y="-175.5" font-family="Helvetica,sans-Serif" font-size="10.00">RASCATGammaPhyloProcess.h</text>
</a>
</g>
</g>
<!-- Node12&#45;&gt;Node19 -->
<g id="edge16" class="edge"><title>Node12&#45;&gt;Node19</title>
<path fill="none" stroke="midnightblue" d="M567.319,-276.676C584.318,-269.586 603.064,-259.03 615.5,-244 629.291,-227.333 633.073,-201.046 634.109,-187.577"/>
<polygon fill="midnightblue" stroke="midnightblue" points="565.63,-273.578 557.574,-280.459 568.163,-280.103 565.63,-273.578"/>
</g>
<!-- Node25 -->
<g id="node15" class="node"><title>Node25</title>
<g id="a_node15"><a xlink:href="PoissonSubstitutionProcess_8cpp.html" target="_top" xlink:title="PoissonSubstitutionProcess.cpp">
<polygon fill="none" stroke="black" points="448.5,-224.5 448.5,-243.5 606.5,-243.5 606.5,-224.5 448.5,-224.5"/>
<text text-anchor="middle" x="527.5" y="-231.5" font-family="Helvetica,sans-Serif" font-size="10.00">PoissonSubstitutionProcess.cpp</text>
</a>
</g>
</g>
<!-- Node12&#45;&gt;Node25 -->
<g id="edge17" class="edge"><title>Node12&#45;&gt;Node25</title>
<path fill="none" stroke="midnightblue" d="M527.5,-269.805C527.5,-260.91 527.5,-250.78 527.5,-243.751"/>
<polygon fill="midnightblue" stroke="midnightblue" points="524,-270.083 527.5,-280.083 531,-270.083 524,-270.083"/>
</g>
<!-- Node14 -->
<g id="node4" class="node"><title>Node14</title>
<g id="a_node4"><a xlink:href="Model_8h.html" target="_top" xlink:title="Model.h">
<polygon fill="none" stroke="black" points="479,-56.5 479,-75.5 530,-75.5 530,-56.5 479,-56.5"/>
<text text-anchor="middle" x="504.5" y="-63.5" font-family="Helvetica,sans-Serif" font-size="10.00">Model.h</text>
</a>
</g>
</g>
<!-- Node13&#45;&gt;Node14 -->
<g id="edge3" class="edge"><title>Node13&#45;&gt;Node14</title>
<path fill="none" stroke="midnightblue" d="M386.989,-165.66C350.702,-155.216 311.813,-137.462 331.5,-112 349.438,-88.7986 435.185,-75.3279 478.839,-69.866"/>
<polygon fill="midnightblue" stroke="midnightblue" points="386.535,-169.164 397.104,-168.412 388.373,-162.409 386.535,-169.164"/>
</g>
<!-- Node17 -->
<g id="node7" class="node"><title>Node17</title>
<g id="a_node7"><a xlink:href="RASCATFiniteGammaPhyloProcess_8cpp.html" target="_top" xlink:title="RASCATFiniteGammaPhyloProcess.cpp">
<polygon fill="none" stroke="black" points="340.5,-112.5 340.5,-131.5 536.5,-131.5 536.5,-112.5 340.5,-112.5"/>
<text text-anchor="middle" x="438.5" y="-119.5" font-family="Helvetica,sans-Serif" font-size="10.00">RASCATFiniteGammaPhyloProcess.cpp</text>
</a>
</g>
</g>
<!-- Node13&#45;&gt;Node17 -->
<g id="edge6" class="edge"><title>Node13&#45;&gt;Node17</title>
<path fill="none" stroke="midnightblue" d="M438.5,-157.805C438.5,-148.91 438.5,-138.78 438.5,-131.751"/>
<polygon fill="midnightblue" stroke="midnightblue" points="435,-158.083 438.5,-168.083 442,-158.083 435,-158.083"/>
</g>
<!-- Node15 -->
<g id="node5" class="node"><title>Node15</title>
<g id="a_node5"><a xlink:href="PB_8cpp.html" target="_top" xlink:title="PB.cpp">
<polygon fill="none" stroke="black" points="441,-0.5 441,-19.5 490,-19.5 490,-0.5 441,-0.5"/>
<text text-anchor="middle" x="465.5" y="-7.5" font-family="Helvetica,sans-Serif" font-size="10.00">PB.cpp</text>
</a>
</g>
</g>
<!-- Node14&#45;&gt;Node15 -->
<g id="edge4" class="edge"><title>Node14&#45;&gt;Node15</title>
<path fill="none" stroke="midnightblue" d="M492.118,-47.8554C485.365,-38.5048 477.291,-27.3265 471.82,-19.7511"/>
<polygon fill="midnightblue" stroke="midnightblue" points="489.368,-50.0254 498.06,-56.083 495.042,-45.927 489.368,-50.0254"/>
</g>
<!-- Node16 -->
<g id="node6" class="node"><title>Node16</title>
<g id="a_node6"><a xlink:href="ReadPB_8cpp.html" target="_top" xlink:title="ReadPB.cpp">
<polygon fill="none" stroke="black" points="508.5,-0.5 508.5,-19.5 580.5,-19.5 580.5,-0.5 508.5,-0.5"/>
<text text-anchor="middle" x="544.5" y="-7.5" font-family="Helvetica,sans-Serif" font-size="10.00">ReadPB.cpp</text>
</a>
</g>
</g>
<!-- Node14&#45;&gt;Node16 -->
<g id="edge5" class="edge"><title>Node14&#45;&gt;Node16</title>
<path fill="none" stroke="midnightblue" d="M517.2,-47.8554C524.126,-38.5048 532.406,-27.3265 538.018,-19.7511"/>
<polygon fill="midnightblue" stroke="midnightblue" points="514.245,-45.9641 511.105,-56.083 519.87,-50.1307 514.245,-45.9641"/>
</g>
<!-- Node18&#45;&gt;Node13 -->
<g id="edge8" class="edge"><title>Node18&#45;&gt;Node13</title>
<path fill="none" stroke="midnightblue" d="M357.802,-219.726C377.615,-209.727 404.207,-196.307 421.351,-187.655"/>
<polygon fill="midnightblue" stroke="midnightblue" points="356.042,-216.694 348.691,-224.324 359.196,-222.943 356.042,-216.694"/>
</g>
<!-- Node18&#45;&gt;Node19 -->
<g id="edge9" class="edge"><title>Node18&#45;&gt;Node19</title>
<path fill="none" stroke="midnightblue" d="M389.495,-222.664C446.757,-212.459 533.283,-197.039 586.713,-187.516"/>
<polygon fill="midnightblue" stroke="midnightblue" points="388.742,-219.243 379.511,-224.444 389.97,-226.135 388.742,-219.243"/>
</g>
<!-- Node23 -->
<g id="node13" class="node"><title>Node23</title>
<g id="a_node13"><a xlink:href="PoissonGeneGammaPhyloProcess_8h.html" target="_top" xlink:title="PoissonGeneGammaPhyloProcess.h">
<polygon fill="none" stroke="black" points="149,-168.5 149,-187.5 328,-187.5 328,-168.5 149,-168.5"/>
<text text-anchor="middle" x="238.5" y="-175.5" font-family="Helvetica,sans-Serif" font-size="10.00">PoissonGeneGammaPhyloProcess.h</text>
</a>
</g>
</g>
<!-- Node18&#45;&gt;Node23 -->
<g id="edge14" class="edge"><title>Node18&#45;&gt;Node23</title>
<path fill="none" stroke="midnightblue" d="M307.694,-219.177C290.581,-209.241 268.035,-196.149 253.405,-187.655"/>
<polygon fill="midnightblue" stroke="midnightblue" points="306.153,-222.329 316.558,-224.324 309.668,-216.276 306.153,-222.329"/>
</g>
<!-- Node24 -->
<g id="node14" class="node"><title>Node24</title>
<g id="a_node14"><a xlink:href="PoissonPhyloProcess_8cpp.html" target="_top" xlink:title="PoissonPhyloProcess.cpp">
<polygon fill="none" stroke="black" points="0,-168.5 0,-187.5 131,-187.5 131,-168.5 0,-168.5"/>
<text text-anchor="middle" x="65.5" y="-175.5" font-family="Helvetica,sans-Serif" font-size="10.00">PoissonPhyloProcess.cpp</text>
</a>
</g>
</g>
<!-- Node18&#45;&gt;Node24 -->
<g id="edge15" class="edge"><title>Node18&#45;&gt;Node24</title>
<path fill="none" stroke="midnightblue" d="M279.332,-222.41C229.061,-212.204 153.968,-196.96 107.451,-187.516"/>
<polygon fill="midnightblue" stroke="midnightblue" points="278.855,-225.884 289.352,-224.444 280.248,-219.024 278.855,-225.884"/>
</g>
<!-- Node20 -->
<g id="node10" class="node"><title>Node20</title>
<g id="a_node10"><a xlink:href="RASCATSBDPGammaPhyloProcess_8h.html" target="_top" xlink:title="RASCATSBDPGammaPhyloProcess.h">
<polygon fill="none" stroke="black" points="745,-112.5 745,-131.5 934,-131.5 934,-112.5 745,-112.5"/>
<text text-anchor="middle" x="839.5" y="-119.5" font-family="Helvetica,sans-Serif" font-size="10.00">RASCATSBDPGammaPhyloProcess.h</text>
</a>
</g>
</g>
<!-- Node19&#45;&gt;Node20 -->
<g id="edge10" class="edge"><title>Node19&#45;&gt;Node20</title>
<path fill="none" stroke="midnightblue" d="M676.908,-165.829C715.614,-155.633 771.993,-140.782 807.169,-131.516"/>
<polygon fill="midnightblue" stroke="midnightblue" points="675.761,-162.512 666.983,-168.444 677.545,-169.281 675.761,-162.512"/>
</g>
<!-- Node22 -->
<g id="node12" class="node"><title>Node22</title>
<g id="a_node12"><a xlink:href="RASCATGammaPhyloProcess_8cpp.html" target="_top" xlink:title="RASCATGammaPhyloProcess.cpp">
<polygon fill="none" stroke="black" points="554.5,-112.5 554.5,-131.5 726.5,-131.5 726.5,-112.5 554.5,-112.5"/>
<text text-anchor="middle" x="640.5" y="-119.5" font-family="Helvetica,sans-Serif" font-size="10.00">RASCATGammaPhyloProcess.cpp</text>
</a>
</g>
</g>
<!-- Node19&#45;&gt;Node22 -->
<g id="edge13" class="edge"><title>Node19&#45;&gt;Node22</title>
<path fill="none" stroke="midnightblue" d="M636.6,-158.101C637.596,-149.136 638.738,-138.858 639.528,-131.751"/>
<polygon fill="midnightblue" stroke="midnightblue" points="633.117,-157.758 635.491,-168.083 640.074,-158.531 633.117,-157.758"/>
</g>
<!-- Node20&#45;&gt;Node14 -->
<g id="edge11" class="edge"><title>Node20&#45;&gt;Node14</title>
<path fill="none" stroke="midnightblue" d="M776.247,-110.804C701.946,-98.8271 582.217,-79.5275 530.105,-71.1274"/>
<polygon fill="midnightblue" stroke="midnightblue" points="775.989,-114.307 786.418,-112.444 777.103,-107.397 775.989,-114.307"/>
</g>
<!-- Node21 -->
<g id="node11" class="node"><title>Node21</title>
<g id="a_node11"><a xlink:href="RASCATSBDPGammaPhyloProcess_8cpp.html" target="_top" xlink:title="RASCATSBDPGammaPhyloProcess.cpp">
<polygon fill="none" stroke="black" points="739.5,-56.5 739.5,-75.5 939.5,-75.5 939.5,-56.5 739.5,-56.5"/>
<text text-anchor="middle" x="839.5" y="-63.5" font-family="Helvetica,sans-Serif" font-size="10.00">RASCATSBDPGammaPhyloProcess.cpp</text>
</a>
</g>
</g>
<!-- Node20&#45;&gt;Node21 -->
<g id="edge12" class="edge"><title>Node20&#45;&gt;Node21</title>
<path fill="none" stroke="midnightblue" d="M839.5,-101.805C839.5,-92.9102 839.5,-82.7798 839.5,-75.7511"/>
<polygon fill="midnightblue" stroke="midnightblue" points="836,-102.083 839.5,-112.083 843,-102.083 836,-102.083"/>
</g>
<!-- Node27 -->
<g id="node17" class="node"><title>Node27</title>
<g id="a_node17"><a xlink:href="PoissonFiniteProfileProcess_8h.html" target="_top" xlink:title="PoissonFiniteProfileProcess.h">
<polygon fill="none" stroke="black" points="662.5,-224.5 662.5,-243.5 810.5,-243.5 810.5,-224.5 662.5,-224.5"/>
<text text-anchor="middle" x="736.5" y="-231.5" font-family="Helvetica,sans-Serif" font-size="10.00">PoissonFiniteProfileProcess.h</text>
</a>
</g>
</g>
<!-- Node26&#45;&gt;Node27 -->
<g id="edge19" class="edge"><title>Node26&#45;&gt;Node27</title>
<path fill="none" stroke="midnightblue" d="M801.523,-274.901C785.387,-264.999 764.319,-252.071 750.604,-243.655"/>
<polygon fill="midnightblue" stroke="midnightblue" points="800.007,-278.077 810.361,-280.324 803.669,-272.111 800.007,-278.077"/>
</g>
<!-- Node29 -->
<g id="node19" class="node"><title>Node29</title>
<g id="a_node19"><a xlink:href="PoissonDPProfileProcess_8h.html" target="_top" xlink:title="PoissonDPProfileProcess.h">
<polygon fill="none" stroke="black" points="1014.5,-224.5 1014.5,-243.5 1152.5,-243.5 1152.5,-224.5 1014.5,-224.5"/>
<text text-anchor="middle" x="1083.5" y="-231.5" font-family="Helvetica,sans-Serif" font-size="10.00">PoissonDPProfileProcess.h</text>
</a>
</g>
</g>
<!-- Node26&#45;&gt;Node29 -->
<g id="edge22" class="edge"><title>Node26&#45;&gt;Node29</title>
<path fill="none" stroke="midnightblue" d="M875.602,-278.346C924.548,-268.141 997.454,-252.94 1042.65,-243.516"/>
<polygon fill="midnightblue" stroke="midnightblue" points="874.614,-274.976 865.539,-280.444 876.043,-281.829 874.614,-274.976"/>
</g>
<!-- Node33 -->
<g id="node23" class="node"><title>Node33</title>
<g id="a_node23"><a xlink:href="PoissonMixtureProfileProcess_8cpp.html" target="_top" xlink:title="PoissonMixtureProfileProcess.cpp">
<polygon fill="none" stroke="black" points="829,-224.5 829,-243.5 996,-243.5 996,-224.5 829,-224.5"/>
<text text-anchor="middle" x="912.5" y="-231.5" font-family="Helvetica,sans-Serif" font-size="10.00">PoissonMixtureProfileProcess.cpp</text>
</a>
</g>
</g>
<!-- Node26&#45;&gt;Node33 -->
<g id="edge28" class="edge"><title>Node26&#45;&gt;Node33</title>
<path fill="none" stroke="midnightblue" d="M847.477,-274.901C863.613,-264.999 884.681,-252.071 898.396,-243.655"/>
<polygon fill="midnightblue" stroke="midnightblue" points="845.331,-272.111 838.639,-280.324 848.993,-278.077 845.331,-272.111"/>
</g>
<!-- Node27&#45;&gt;Node13 -->
<g id="edge20" class="edge"><title>Node27&#45;&gt;Node13</title>
<path fill="none" stroke="midnightblue" d="M679.111,-222.601C622.793,-212.395 537.938,-197.019 485.498,-187.516"/>
<polygon fill="midnightblue" stroke="midnightblue" points="678.817,-226.104 689.281,-224.444 680.065,-219.217 678.817,-226.104"/>
</g>
<!-- Node28 -->
<g id="node18" class="node"><title>Node28</title>
<g id="a_node18"><a xlink:href="PoissonFiniteProfileProcess_8cpp.html" target="_top" xlink:title="PoissonFiniteProfileProcess.cpp">
<polygon fill="none" stroke="black" points="733.5,-168.5 733.5,-187.5 891.5,-187.5 891.5,-168.5 733.5,-168.5"/>
<text text-anchor="middle" x="812.5" y="-175.5" font-family="Helvetica,sans-Serif" font-size="10.00">PoissonFiniteProfileProcess.cpp</text>
</a>
</g>
</g>
<!-- Node27&#45;&gt;Node28 -->
<g id="edge21" class="edge"><title>Node27&#45;&gt;Node28</title>
<path fill="none" stroke="midnightblue" d="M757.076,-218.38C770.812,-208.62 788.425,-196.106 800.067,-187.834"/>
<polygon fill="midnightblue" stroke="midnightblue" points="754.835,-215.679 748.711,-224.324 758.89,-221.385 754.835,-215.679"/>
</g>
<!-- Node29&#45;&gt;Node19 -->
<g id="edge23" class="edge"><title>Node29&#45;&gt;Node19</title>
<path fill="none" stroke="midnightblue" d="M1004.24,-223.468C919.543,-213.281 786.51,-197.282 705.233,-187.507"/>
<polygon fill="midnightblue" stroke="midnightblue" points="1003.98,-226.962 1014.33,-224.681 1004.82,-220.012 1003.98,-226.962"/>
</g>
<!-- Node30 -->
<g id="node20" class="node"><title>Node30</title>
<g id="a_node20"><a xlink:href="PoissonSBDPProfileProcess_8h.html" target="_top" xlink:title="PoissonSBDPProfileProcess.h">
<polygon fill="none" stroke="black" points="1076.5,-168.5 1076.5,-187.5 1228.5,-187.5 1228.5,-168.5 1076.5,-168.5"/>
<text text-anchor="middle" x="1152.5" y="-175.5" font-family="Helvetica,sans-Serif" font-size="10.00">PoissonSBDPProfileProcess.h</text>
</a>
</g>
</g>
<!-- Node29&#45;&gt;Node30 -->
<g id="edge24" class="edge"><title>Node29&#45;&gt;Node30</title>
<path fill="none" stroke="midnightblue" d="M1102.54,-218.101C1114.96,-208.382 1130.74,-196.027 1141.21,-187.834"/>
<polygon fill="midnightblue" stroke="midnightblue" points="1100.3,-215.405 1094.59,-224.324 1104.62,-220.917 1100.3,-215.405"/>
</g>
<!-- Node32 -->
<g id="node22" class="node"><title>Node32</title>
<g id="a_node22"><a xlink:href="PoissonDPProfileProcess_8cpp.html" target="_top" xlink:title="PoissonDPProfileProcess.cpp">
<polygon fill="none" stroke="black" points="909,-168.5 909,-187.5 1058,-187.5 1058,-168.5 909,-168.5"/>
<text text-anchor="middle" x="983.5" y="-175.5" font-family="Helvetica,sans-Serif" font-size="10.00">PoissonDPProfileProcess.cpp</text>
</a>
</g>
</g>
<!-- Node29&#45;&gt;Node32 -->
<g id="edge27" class="edge"><title>Node29&#45;&gt;Node32</title>
<path fill="none" stroke="midnightblue" d="M1058.41,-219.453C1039.95,-209.483 1015.4,-196.228 999.527,-187.655"/>
<polygon fill="midnightblue" stroke="midnightblue" points="1056.97,-222.652 1067.43,-224.324 1060.3,-216.493 1056.97,-222.652"/>
</g>
<!-- Node30&#45;&gt;Node20 -->
<g id="edge25" class="edge"><title>Node30&#45;&gt;Node20</title>
<path fill="none" stroke="midnightblue" d="M1092.96,-166.727C1033.81,-156.523 944.171,-141.058 888.864,-131.516"/>
<polygon fill="midnightblue" stroke="midnightblue" points="1092.45,-170.192 1102.9,-168.444 1093.64,-163.294 1092.45,-170.192"/>
</g>
<!-- Node31 -->
<g id="node21" class="node"><title>Node31</title>
<g id="a_node21"><a xlink:href="PoissonSBDPProfileProcess_8cpp.html" target="_top" xlink:title="PoissonSBDPProfileProcess.cpp">
<polygon fill="none" stroke="black" points="1071.5,-112.5 1071.5,-131.5 1233.5,-131.5 1233.5,-112.5 1071.5,-112.5"/>
<text text-anchor="middle" x="1152.5" y="-119.5" font-family="Helvetica,sans-Serif" font-size="10.00">PoissonSBDPProfileProcess.cpp</text>
</a>
</g>
</g>
<!-- Node30&#45;&gt;Node31 -->
<g id="edge26" class="edge"><title>Node30&#45;&gt;Node31</title>
<path fill="none" stroke="midnightblue" d="M1152.5,-157.805C1152.5,-148.91 1152.5,-138.78 1152.5,-131.751"/>
<polygon fill="midnightblue" stroke="midnightblue" points="1149,-158.083 1152.5,-168.083 1156,-158.083 1149,-158.083"/>
</g>
</g>
</svg>
