<?xml version="1.0" encoding="UTF-8" standalone="no"?>
<!DOCTYPE svg PUBLIC "-//W3C//DTD SVG 1.1//EN"
 "http://www.w3.org/Graphics/SVG/1.1/DTD/svg11.dtd">
<!-- Generated by graphviz version 2.38.0 (20140413.2041)
 -->
<!-- Title: PoissonDPProfileProcess.h Pages: 1 -->
<svg width="624pt" height="252pt"
 viewBox="0.00 0.00 623.50 252.00" xmlns="http://www.w3.org/2000/svg" xmlns:xlink="http://www.w3.org/1999/xlink">
<g id="graph0" class="graph" transform="scale(1 1) rotate(0) translate(4 248)">
<title>PoissonDPProfileProcess.h</title>
<!-- Node16 -->
<g id="node1" class="node"><title>Node16</title>
<polygon fill="#bfbfbf" stroke="black" points="303,-224.5 303,-243.5 441,-243.5 441,-224.5 303,-224.5"/>
<text text-anchor="middle" x="372" y="-231.5" font-family="Helvetica,sans-Serif" font-size="10.00">PoissonDPProfileProcess.h</text>
</g>
<!-- Node17 -->
<g id="node2" class="node"><title>Node17</title>
<g id="a_node2"><a xlink:href="RASCATGammaPhyloProcess_8h.html" target="_top" xlink:title="RASCATGammaPhyloProcess.h">
<polygon fill="none" stroke="black" points="116.5,-168.5 116.5,-187.5 277.5,-187.5 277.5,-168.5 116.5,-168.5"/>
<text text-anchor="middle" x="197" y="-175.5" font-family="Helvetica,sans-Serif" font-size="10.00">RASCATGammaPhyloProcess.h</text>
</a>
</g>
</g>
<!-- Node16&#45;&gt;Node17 -->
<g id="edge1" class="edge"><title>Node16&#45;&gt;Node17</title>
<path fill="none" stroke="midnightblue" d="M334.525,-221.436C301.53,-211.255 254.244,-196.664 224.6,-187.516"/>
<polygon fill="midnightblue" stroke="midnightblue" points="333.683,-224.839 344.271,-224.444 335.747,-218.151 333.683,-224.839"/>
</g>
<!-- Node24 -->
<g id="node9" class="node"><title>Node24</title>
<g id="a_node9"><a xlink:href="PoissonSBDPProfileProcess_8h.html" target="_top" xlink:title="PoissonSBDPProfileProcess.h">
<polygon fill="none" stroke="black" points="296,-168.5 296,-187.5 448,-187.5 448,-168.5 296,-168.5"/>
<text text-anchor="middle" x="372" y="-175.5" font-family="Helvetica,sans-Serif" font-size="10.00">PoissonSBDPProfileProcess.h</text>
</a>
</g>
</g>
<!-- Node16&#45;&gt;Node24 -->
<g id="edge8" class="edge"><title>Node16&#45;&gt;Node24</title>
<path fill="none" stroke="midnightblue" d="M372,-213.805C372,-204.91 372,-194.78 372,-187.751"/>
<polygon fill="midnightblue" stroke="midnightblue" points="368.5,-214.083 372,-224.083 375.5,-214.083 368.5,-214.083"/>
</g>
<!-- Node26 -->
<g id="node11" class="node"><title>Node26</title>
<g id="a_node11"><a xlink:href="PoissonDPProfileProcess_8cpp.html" target="_top" xlink:title="PoissonDPProfileProcess.cpp">
<polygon fill="none" stroke="black" points="466.5,-168.5 466.5,-187.5 615.5,-187.5 615.5,-168.5 466.5,-168.5"/>
<text text-anchor="middle" x="541" y="-175.5" font-family="Helvetica,sans-Serif" font-size="10.00">PoissonDPProfileProcess.cpp</text>
</a>
</g>
</g>
<!-- Node16&#45;&gt;Node26 -->
<g id="edge11" class="edge"><title>Node16&#45;&gt;Node26</title>
<path fill="none" stroke="midnightblue" d="M408.603,-221.304C440.447,-211.129 485.842,-196.625 514.347,-187.516"/>
<polygon fill="midnightblue" stroke="midnightblue" points="407.239,-218.066 398.779,-224.444 409.369,-224.734 407.239,-218.066"/>
</g>
<!-- Node18 -->
<g id="node3" class="node"><title>Node18</title>
<g id="a_node3"><a xlink:href="RASCATSBDPGammaPhyloProcess_8h.html" target="_top" xlink:title="RASCATSBDPGammaPhyloProcess.h">
<polygon fill="none" stroke="black" points="190.5,-112.5 190.5,-131.5 379.5,-131.5 379.5,-112.5 190.5,-112.5"/>
<text text-anchor="middle" x="285" y="-119.5" font-family="Helvetica,sans-Serif" font-size="10.00">RASCATSBDPGammaPhyloProcess.h</text>
</a>
</g>
</g>
<!-- Node17&#45;&gt;Node18 -->
<g id="edge2" class="edge"><title>Node17&#45;&gt;Node18</title>
<path fill="none" stroke="midnightblue" d="M219.977,-162.901C236.113,-152.999 257.181,-140.071 270.896,-131.655"/>
<polygon fill="midnightblue" stroke="midnightblue" points="217.831,-160.111 211.139,-168.324 221.493,-166.077 217.831,-160.111"/>
</g>
<!-- Node23 -->
<g id="node8" class="node"><title>Node23</title>
<g id="a_node8"><a xlink:href="RASCATGammaPhyloProcess_8cpp.html" target="_top" xlink:title="RASCATGammaPhyloProcess.cpp">
<polygon fill="none" stroke="black" points="0,-112.5 0,-131.5 172,-131.5 172,-112.5 0,-112.5"/>
<text text-anchor="middle" x="86" y="-119.5" font-family="Helvetica,sans-Serif" font-size="10.00">RASCATGammaPhyloProcess.cpp</text>
</a>
</g>
</g>
<!-- Node17&#45;&gt;Node23 -->
<g id="edge7" class="edge"><title>Node17&#45;&gt;Node23</title>
<path fill="none" stroke="midnightblue" d="M169.995,-163.862C149.412,-153.849 121.655,-140.346 103.79,-131.655"/>
<polygon fill="midnightblue" stroke="midnightblue" points="168.642,-167.097 179.166,-168.324 171.705,-160.802 168.642,-167.097"/>
</g>
<!-- Node19 -->
<g id="node4" class="node"><title>Node19</title>
<g id="a_node4"><a xlink:href="Model_8h.html" target="_top" xlink:title="Model.h">
<polygon fill="none" stroke="black" points="187.5,-56.5 187.5,-75.5 238.5,-75.5 238.5,-56.5 187.5,-56.5"/>
<text text-anchor="middle" x="213" y="-63.5" font-family="Helvetica,sans-Serif" font-size="10.00">Model.h</text>
</a>
</g>
</g>
<!-- Node18&#45;&gt;Node19 -->
<g id="edge3" class="edge"><title>Node18&#45;&gt;Node19</title>
<path fill="none" stroke="midnightblue" d="M265.134,-106.101C252.177,-96.3824 235.703,-84.0269 224.779,-75.8339"/>
<polygon fill="midnightblue" stroke="midnightblue" points="263.332,-109.124 273.432,-112.324 267.532,-103.524 263.332,-109.124"/>
</g>
<!-- Node22 -->
<g id="node7" class="node"><title>Node22</title>
<g id="a_node7"><a xlink:href="RASCATSBDPGammaPhyloProcess_8cpp.html" target="_top" xlink:title="RASCATSBDPGammaPhyloProcess.cpp">
<polygon fill="none" stroke="black" points="257,-56.5 257,-75.5 457,-75.5 457,-56.5 257,-56.5"/>
<text text-anchor="middle" x="357" y="-63.5" font-family="Helvetica,sans-Serif" font-size="10.00">RASCATSBDPGammaPhyloProcess.cpp</text>
</a>
</g>
</g>
<!-- Node18&#45;&gt;Node22 -->
<g id="edge6" class="edge"><title>Node18&#45;&gt;Node22</title>
<path fill="none" stroke="midnightblue" d="M304.866,-106.101C317.823,-96.3824 334.297,-84.0269 345.221,-75.8339"/>
<polygon fill="midnightblue" stroke="midnightblue" points="302.468,-103.524 296.568,-112.324 306.668,-109.124 302.468,-103.524"/>
</g>
<!-- Node20 -->
<g id="node5" class="node"><title>Node20</title>
<g id="a_node5"><a xlink:href="PB_8cpp.html" target="_top" xlink:title="PB.cpp">
<polygon fill="none" stroke="black" points="149.5,-0.5 149.5,-19.5 198.5,-19.5 198.5,-0.5 149.5,-0.5"/>
<text text-anchor="middle" x="174" y="-7.5" font-family="Helvetica,sans-Serif" font-size="10.00">PB.cpp</text>
</a>
</g>
</g>
<!-- Node19&#45;&gt;Node20 -->
<g id="edge4" class="edge"><title>Node19&#45;&gt;Node20</title>
<path fill="none" stroke="midnightblue" d="M200.618,-47.8554C193.865,-38.5048 185.791,-27.3265 180.32,-19.7511"/>
<polygon fill="midnightblue" stroke="midnightblue" points="197.868,-50.0254 206.56,-56.083 203.542,-45.927 197.868,-50.0254"/>
</g>
<!-- Node21 -->
<g id="node6" class="node"><title>Node21</title>
<g id="a_node6"><a xlink:href="ReadPB_8cpp.html" target="_top" xlink:title="ReadPB.cpp">
<polygon fill="none" stroke="black" points="217,-0.5 217,-19.5 289,-19.5 289,-0.5 217,-0.5"/>
<text text-anchor="middle" x="253" y="-7.5" font-family="Helvetica,sans-Serif" font-size="10.00">ReadPB.cpp</text>
</a>
</g>
</g>
<!-- Node19&#45;&gt;Node21 -->
<g id="edge5" class="edge"><title>Node19&#45;&gt;Node21</title>
<path fill="none" stroke="midnightblue" d="M225.7,-47.8554C232.626,-38.5048 240.906,-27.3265 246.518,-19.7511"/>
<polygon fill="midnightblue" stroke="midnightblue" points="222.745,-45.9641 219.605,-56.083 228.37,-50.1307 222.745,-45.9641"/>
</g>
<!-- Node24&#45;&gt;Node18 -->
<g id="edge9" class="edge"><title>Node24&#45;&gt;Node18</title>
<path fill="none" stroke="midnightblue" d="M349.284,-162.901C333.331,-152.999 312.503,-140.071 298.943,-131.655"/>
<polygon fill="midnightblue" stroke="midnightblue" points="347.68,-166.024 358.022,-168.324 351.371,-160.077 347.68,-166.024"/>
</g>
<!-- Node25 -->
<g id="node10" class="node"><title>Node25</title>
<g id="a_node10"><a xlink:href="PoissonSBDPProfileProcess_8cpp.html" target="_top" xlink:title="PoissonSBDPProfileProcess.cpp">
<polygon fill="none" stroke="black" points="398,-112.5 398,-131.5 560,-131.5 560,-112.5 398,-112.5"/>
<text text-anchor="middle" x="479" y="-119.5" font-family="Helvetica,sans-Serif" font-size="10.00">PoissonSBDPProfileProcess.cpp</text>
</a>
</g>
</g>
<!-- Node24&#45;&gt;Node25 -->
<g id="edge10" class="edge"><title>Node24&#45;&gt;Node25</title>
<path fill="none" stroke="midnightblue" d="M398.302,-163.726C418.115,-153.727 444.707,-140.307 461.851,-131.655"/>
<polygon fill="midnightblue" stroke="midnightblue" points="396.542,-160.694 389.191,-168.324 399.696,-166.943 396.542,-160.694"/>
</g>
</g>
</svg>
