<?xml version="1.0" encoding="UTF-8" standalone="no"?>
<!DOCTYPE svg PUBLIC "-//W3C//DTD SVG 1.1//EN"
 "http://www.w3.org/Graphics/SVG/1.1/DTD/svg11.dtd">
<!-- Generated by graphviz version 2.40.1 (20161225.0304)
 -->
<!-- Title: PoissonMixtureProfileProcess.h Pages: 1 -->
<svg width="423pt" height="196pt"
 viewBox="0.00 0.00 423.00 196.00" xmlns="http://www.w3.org/2000/svg" xmlns:xlink="http://www.w3.org/1999/xlink">
<g id="graph0" class="graph" transform="scale(1 1) rotate(0) translate(4 192)">
<title>PoissonMixtureProfileProcess.h</title>
<!-- Node14 -->
<g id="node1" class="node">
<title>Node14</title>
<polygon fill="#bfbfbf" stroke="#000000" points="167.5,-168.5 167.5,-187.5 323.5,-187.5 323.5,-168.5 167.5,-168.5"/>
<text text-anchor="middle" x="245.5" y="-175.5" font-family="Helvetica,sans-Serif" font-size="10.00" fill="#000000">PoissonMixtureProfileProcess.h</text>
</g>
<!-- Node15 -->
<g id="node2" class="node">
<title>Node15</title>
<g id="a_node2"><a xlink:href="PoissonDPProfileProcess_8h.html" target="_top" xlink:title="PoissonDPProfileProcess.h">
<polygon fill="none" stroke="#000000" points="91.5,-112.5 91.5,-131.5 229.5,-131.5 229.5,-112.5 91.5,-112.5"/>
<text text-anchor="middle" x="160.5" y="-119.5" font-family="Helvetica,sans-Serif" font-size="10.00" fill="#000000">PoissonDPProfileProcess.h</text>
</a>
</g>
</g>
<!-- Node14&#45;&gt;Node15 -->
<g id="edge1" class="edge">
<title>Node14&#45;&gt;Node15</title>
<path fill="none" stroke="#191970" d="M221.9581,-162.49C206.961,-152.6096 188.0027,-140.1194 175.1362,-131.6427"/>
<polygon fill="#191970" stroke="#191970" points="220.4179,-165.6666 230.6941,-168.2455 224.2691,-159.8212 220.4179,-165.6666"/>
</g>
<!-- Node19 -->
<g id="node6" class="node">
<title>Node19</title>
<g id="a_node6"><a xlink:href="PoissonMixtureProfileProcess_8cpp.html" target="_top" xlink:title="PoissonMixtureProfileProcess.cpp">
<polygon fill="none" stroke="#000000" points="248,-112.5 248,-131.5 415,-131.5 415,-112.5 248,-112.5"/>
<text text-anchor="middle" x="331.5" y="-119.5" font-family="Helvetica,sans-Serif" font-size="10.00" fill="#000000">PoissonMixtureProfileProcess.cpp</text>
</a>
</g>
</g>
<!-- Node14&#45;&gt;Node19 -->
<g id="edge5" class="edge">
<title>Node14&#45;&gt;Node19</title>
<path fill="none" stroke="#191970" d="M268.8905,-162.769C284.1299,-152.8456 303.5509,-140.1994 316.6916,-131.6427"/>
<polygon fill="#191970" stroke="#191970" points="266.9502,-159.8558 260.4801,-168.2455 270.7699,-165.7218 266.9502,-159.8558"/>
</g>
<!-- Node16 -->
<g id="node3" class="node">
<title>Node16</title>
<g id="a_node3"><a xlink:href="PoissonDPProfileProcess_8cpp.html" target="_top" xlink:title="PoissonDPProfileProcess.cpp">
<polygon fill="none" stroke="#000000" points="0,-56.5 0,-75.5 149,-75.5 149,-56.5 0,-56.5"/>
<text text-anchor="middle" x="74.5" y="-63.5" font-family="Helvetica,sans-Serif" font-size="10.00" fill="#000000">PoissonDPProfileProcess.cpp</text>
</a>
</g>
</g>
<!-- Node15&#45;&gt;Node16 -->
<g id="edge2" class="edge">
<title>Node15&#45;&gt;Node16</title>
<path fill="none" stroke="#191970" d="M137.1095,-106.769C121.8701,-96.8456 102.4491,-84.1994 89.3084,-75.6427"/>
<polygon fill="#191970" stroke="#191970" points="135.2301,-109.7218 145.5199,-112.2455 139.0498,-103.8558 135.2301,-109.7218"/>
</g>
<!-- Node17 -->
<g id="node4" class="node">
<title>Node17</title>
<g id="a_node4"><a xlink:href="RASCATGammaPhyloProcess_8h.html" target="_top" xlink:title="RASCATGammaPhyloProcess.h">
<polygon fill="none" stroke="#000000" points="167,-56.5 167,-75.5 328,-75.5 328,-56.5 167,-56.5"/>
<text text-anchor="middle" x="247.5" y="-63.5" font-family="Helvetica,sans-Serif" font-size="10.00" fill="#000000">RASCATGammaPhyloProcess.h</text>
</a>
</g>
</g>
<!-- Node15&#45;&gt;Node17 -->
<g id="edge3" class="edge">
<title>Node15&#45;&gt;Node17</title>
<path fill="none" stroke="#191970" d="M184.1625,-106.769C199.5791,-96.8456 219.226,-84.1994 232.5194,-75.6427"/>
<polygon fill="#191970" stroke="#191970" points="182.1685,-103.89 175.6542,-112.2455 185.9573,-109.7761 182.1685,-103.89"/>
</g>
<!-- Node18 -->
<g id="node5" class="node">
<title>Node18</title>
<g id="a_node5"><a xlink:href="RASCATGammaPhyloProcess_8cpp.html" target="_top" xlink:title="RASCATGammaPhyloProcess.cpp">
<polygon fill="none" stroke="#000000" points="161.5,-.5 161.5,-19.5 333.5,-19.5 333.5,-.5 161.5,-.5"/>
<text text-anchor="middle" x="247.5" y="-7.5" font-family="Helvetica,sans-Serif" font-size="10.00" fill="#000000">RASCATGammaPhyloProcess.cpp</text>
</a>
</g>
</g>
<!-- Node17&#45;&gt;Node18 -->
<g id="edge4" class="edge">
<title>Node17&#45;&gt;Node18</title>
<path fill="none" stroke="#191970" d="M247.5,-46.1575C247.5,-37.155 247.5,-26.9199 247.5,-19.6427"/>
<polygon fill="#191970" stroke="#191970" points="244.0001,-46.2455 247.5,-56.2455 251.0001,-46.2456 244.0001,-46.2455"/>
</g>
</g>
</svg>
