<?xml version="1.0" encoding="UTF-8" standalone="no"?>
<!DOCTYPE svg PUBLIC "-//W3C//DTD SVG 1.1//EN"
 "http://www.w3.org/Graphics/SVG/1.1/DTD/svg11.dtd">
<!-- Generated by graphviz version 2.38.0 (20140413.2041)
 -->
<!-- Title: PoissonSubstitutionProcess.cpp Pages: 1 -->
<svg width="949pt" height="364pt"
 viewBox="0.00 0.00 948.50 364.00" xmlns="http://www.w3.org/2000/svg" xmlns:xlink="http://www.w3.org/1999/xlink">
<g id="graph0" class="graph" transform="scale(1 1) rotate(0) translate(4 360)">
<title>PoissonSubstitutionProcess.cpp</title>
<!-- Node0 -->
<g id="node1" class="node"><title>Node0</title>
<polygon fill="#bfbfbf" stroke="black" points="423.5,-336.5 423.5,-355.5 581.5,-355.5 581.5,-336.5 423.5,-336.5"/>
<text text-anchor="middle" x="502.5" y="-343.5" font-family="Helvetica,sans-Serif" font-size="10.00">PoissonSubstitutionProcess.cpp</text>
</g>
<!-- Node1 -->
<g id="node2" class="node"><title>Node1</title>
<g id="a_node2"><a xlink:href="PoissonSubstitutionProcess_8h.html" target="_top" xlink:title="PoissonSubstitutionProcess.h">
<polygon fill="none" stroke="black" points="365.5,-280.5 365.5,-299.5 513.5,-299.5 513.5,-280.5 365.5,-280.5"/>
<text text-anchor="middle" x="439.5" y="-287.5" font-family="Helvetica,sans-Serif" font-size="10.00">PoissonSubstitutionProcess.h</text>
</a>
</g>
</g>
<!-- Node0&#45;&gt;Node1 -->
<g id="edge1" class="edge"><title>Node0&#45;&gt;Node1</title>
<path fill="none" stroke="midnightblue" d="M492.378,-336.324C482.974,-328.263 468.756,-316.077 457.431,-306.369"/>
<polygon fill="midnightblue" stroke="midnightblue" points="459.677,-303.684 449.806,-299.834 455.121,-308.999 459.677,-303.684"/>
</g>
<!-- Node25 -->
<g id="node26" class="node"><title>Node25</title>
<g id="a_node26"><a xlink:href="Parallel_8h.html" target="_top" xlink:title="Parallel.h">
<polygon fill="none" stroke="black" points="538,-280.5 538,-299.5 595,-299.5 595,-280.5 538,-280.5"/>
<text text-anchor="middle" x="566.5" y="-287.5" font-family="Helvetica,sans-Serif" font-size="10.00">Parallel.h</text>
</a>
</g>
</g>
<!-- Node0&#45;&gt;Node25 -->
<g id="edge45" class="edge"><title>Node0&#45;&gt;Node25</title>
<path fill="none" stroke="midnightblue" d="M512.783,-336.324C522.336,-328.263 536.78,-316.077 548.284,-306.369"/>
<polygon fill="midnightblue" stroke="midnightblue" points="550.644,-308.958 556.03,-299.834 546.13,-303.608 550.644,-308.958"/>
</g>
<!-- Node2 -->
<g id="node3" class="node"><title>Node2</title>
<g id="a_node3"><a xlink:href="SubstitutionProcess_8h.html" target="_top" xlink:title="SubstitutionProcess.h">
<polygon fill="none" stroke="black" points="380,-224.5 380,-243.5 493,-243.5 493,-224.5 380,-224.5"/>
<text text-anchor="middle" x="436.5" y="-231.5" font-family="Helvetica,sans-Serif" font-size="10.00">SubstitutionProcess.h</text>
</a>
</g>
</g>
<!-- Node1&#45;&gt;Node2 -->
<g id="edge2" class="edge"><title>Node1&#45;&gt;Node2</title>
<path fill="none" stroke="midnightblue" d="M439.005,-280.083C438.611,-273.006 438.048,-262.861 437.555,-253.986"/>
<polygon fill="midnightblue" stroke="midnightblue" points="441.036,-253.542 436.986,-243.751 434.046,-253.93 441.036,-253.542"/>
</g>
<!-- Node3 -->
<g id="node4" class="node"><title>Node3</title>
<g id="a_node4"><a xlink:href="RateProcess_8h.html" target="_top" xlink:title="RateProcess.h">
<polygon fill="none" stroke="black" points="480.5,-168.5 480.5,-187.5 562.5,-187.5 562.5,-168.5 480.5,-168.5"/>
<text text-anchor="middle" x="521.5" y="-175.5" font-family="Helvetica,sans-Serif" font-size="10.00">RateProcess.h</text>
</a>
</g>
</g>
<!-- Node1&#45;&gt;Node3 -->
<g id="edge44" class="edge"><title>Node1&#45;&gt;Node3</title>
<path fill="none" stroke="midnightblue" d="M456.899,-280.436C470.862,-272.72 489.974,-260.121 501.5,-244 511.264,-230.344 516.352,-211.806 518.946,-198.021"/>
<polygon fill="midnightblue" stroke="midnightblue" points="522.461,-198.199 520.586,-187.772 515.549,-197.093 522.461,-198.199"/>
</g>
<!-- Node24 -->
<g id="node25" class="node"><title>Node24</title>
<g id="a_node25"><a xlink:href="PoissonProfileProcess_8h.html" target="_top" xlink:title="PoissonProfileProcess.h">
<polygon fill="none" stroke="black" points="237.5,-224.5 237.5,-243.5 361.5,-243.5 361.5,-224.5 237.5,-224.5"/>
<text text-anchor="middle" x="299.5" y="-231.5" font-family="Helvetica,sans-Serif" font-size="10.00">PoissonProfileProcess.h</text>
</a>
</g>
</g>
<!-- Node1&#45;&gt;Node24 -->
<g id="edge42" class="edge"><title>Node1&#45;&gt;Node24</title>
<path fill="none" stroke="midnightblue" d="M417.317,-280.444C394.072,-271.478 357.351,-257.314 331.085,-247.183"/>
<polygon fill="midnightblue" stroke="midnightblue" points="332.169,-243.85 321.58,-243.516 329.65,-250.381 332.169,-243.85"/>
</g>
<!-- Node2&#45;&gt;Node3 -->
<g id="edge3" class="edge"><title>Node2&#45;&gt;Node3</title>
<path fill="none" stroke="midnightblue" d="M450.157,-224.324C463.416,-215.9 483.768,-202.971 499.346,-193.074"/>
<polygon fill="midnightblue" stroke="midnightblue" points="501.313,-195.971 507.877,-187.655 497.56,-190.063 501.313,-195.971"/>
</g>
<!-- Node5 -->
<g id="node6" class="node"><title>Node5</title>
<g id="a_node6"><a xlink:href="Chrono_8h.html" target="_top" xlink:title="Chrono.h">
<polygon fill="none" stroke="black" points="437.5,-112.5 437.5,-131.5 493.5,-131.5 493.5,-112.5 437.5,-112.5"/>
<text text-anchor="middle" x="465.5" y="-119.5" font-family="Helvetica,sans-Serif" font-size="10.00">Chrono.h</text>
</a>
</g>
</g>
<!-- Node2&#45;&gt;Node5 -->
<g id="edge40" class="edge"><title>Node2&#45;&gt;Node5</title>
<path fill="none" stroke="midnightblue" d="M438.776,-224.368C443.477,-206.537 454.349,-165.295 460.683,-141.272"/>
<polygon fill="midnightblue" stroke="midnightblue" points="464.07,-142.153 463.235,-131.591 457.301,-140.369 464.07,-142.153"/>
</g>
<!-- Node9 -->
<g id="node10" class="node"><title>Node9</title>
<g id="a_node10"><a xlink:href="ProfileProcess_8h.html" target="_top" xlink:title="ProfileProcess.h">
<polygon fill="none" stroke="black" points="259,-168.5 259,-187.5 348,-187.5 348,-168.5 259,-168.5"/>
<text text-anchor="middle" x="303.5" y="-175.5" font-family="Helvetica,sans-Serif" font-size="10.00">ProfileProcess.h</text>
</a>
</g>
</g>
<!-- Node2&#45;&gt;Node9 -->
<g id="edge10" class="edge"><title>Node2&#45;&gt;Node9</title>
<path fill="none" stroke="midnightblue" d="M415.426,-224.444C393.44,-215.517 358.766,-201.439 333.836,-191.317"/>
<polygon fill="midnightblue" stroke="midnightblue" points="335.058,-188.035 324.476,-187.516 332.424,-194.521 335.058,-188.035"/>
</g>
<!-- Node14 -->
<g id="node15" class="node"><title>Node14</title>
<g id="a_node15"><a xlink:href="BranchSitePath_8h.html" target="_top" xlink:title="BranchSitePath.h">
<polygon fill="none" stroke="black" points="114,-168.5 114,-187.5 207,-187.5 207,-168.5 114,-168.5"/>
<text text-anchor="middle" x="160.5" y="-175.5" font-family="Helvetica,sans-Serif" font-size="10.00">BranchSitePath.h</text>
</a>
</g>
</g>
<!-- Node2&#45;&gt;Node14 -->
<g id="edge19" class="edge"><title>Node2&#45;&gt;Node14</title>
<path fill="none" stroke="midnightblue" d="M392.767,-224.444C344.317,-214.964 266.171,-199.675 214.082,-189.483"/>
<polygon fill="midnightblue" stroke="midnightblue" points="214.514,-186.002 204.028,-187.516 213.17,-192.871 214.514,-186.002"/>
</g>
<!-- Node23 -->
<g id="node24" class="node"><title>Node23</title>
<polygon fill="none" stroke="#bfbfbf" points="368.5,-168.5 368.5,-187.5 424.5,-187.5 424.5,-168.5 368.5,-168.5"/>
<text text-anchor="middle" x="396.5" y="-175.5" font-family="Helvetica,sans-Serif" font-size="10.00">algorithm</text>
</g>
<!-- Node2&#45;&gt;Node23 -->
<g id="edge41" class="edge"><title>Node2&#45;&gt;Node23</title>
<path fill="none" stroke="midnightblue" d="M429.895,-224.083C424.245,-216.455 415.955,-205.264 409.049,-195.941"/>
<polygon fill="midnightblue" stroke="midnightblue" points="411.747,-193.703 402.982,-187.751 406.122,-197.87 411.747,-193.703"/>
</g>
<!-- Node4 -->
<g id="node5" class="node"><title>Node4</title>
<polygon fill="none" stroke="#bfbfbf" points="400.5,-0.5 400.5,-19.5 454.5,-19.5 454.5,-0.5 400.5,-0.5"/>
<text text-anchor="middle" x="427.5" y="-7.5" font-family="Helvetica,sans-Serif" font-size="10.00">iostream</text>
</g>
<!-- Node3&#45;&gt;Node4 -->
<g id="edge4" class="edge"><title>Node3&#45;&gt;Node4</title>
<path fill="none" stroke="midnightblue" d="M539.068,-168.356C576.682,-148.726 658.897,-99.1401 624.5,-56 604.908,-31.4283 516.254,-19.2093 464.798,-14.0877"/>
<polygon fill="midnightblue" stroke="midnightblue" points="465.014,-10.5925 454.727,-13.1285 464.35,-17.561 465.014,-10.5925"/>
</g>
<!-- Node3&#45;&gt;Node5 -->
<g id="edge5" class="edge"><title>Node3&#45;&gt;Node5</title>
<path fill="none" stroke="midnightblue" d="M512.503,-168.324C504.306,-160.42 491.994,-148.548 482.028,-138.938"/>
<polygon fill="midnightblue" stroke="midnightblue" points="484.289,-136.256 474.661,-131.834 479.43,-141.295 484.289,-136.256"/>
</g>
<!-- Node5&#45;&gt;Node4 -->
<g id="edge8" class="edge"><title>Node5&#45;&gt;Node4</title>
<path fill="none" stroke="midnightblue" d="M462.518,-112.368C456.358,-94.5366 442.111,-53.2953 433.812,-29.2717"/>
<polygon fill="midnightblue" stroke="midnightblue" points="437.041,-27.9005 430.468,-19.5914 430.425,-30.1862 437.041,-27.9005"/>
</g>
<!-- Node6 -->
<g id="node7" class="node"><title>Node6</title>
<polygon fill="none" stroke="#bfbfbf" points="494,-56.5 494,-75.5 535,-75.5 535,-56.5 494,-56.5"/>
<text text-anchor="middle" x="514.5" y="-63.5" font-family="Helvetica,sans-Serif" font-size="10.00">ctime</text>
</g>
<!-- Node5&#45;&gt;Node6 -->
<g id="edge6" class="edge"><title>Node5&#45;&gt;Node6</title>
<path fill="none" stroke="midnightblue" d="M473.591,-112.083C480.655,-104.298 491.088,-92.8015 499.649,-83.3665"/>
<polygon fill="midnightblue" stroke="midnightblue" points="502.431,-85.5087 506.559,-75.7511 497.247,-80.8047 502.431,-85.5087"/>
</g>
<!-- Node7 -->
<g id="node8" class="node"><title>Node7</title>
<polygon fill="none" stroke="#bfbfbf" points="553.5,-56.5 553.5,-75.5 615.5,-75.5 615.5,-56.5 553.5,-56.5"/>
<text text-anchor="middle" x="584.5" y="-63.5" font-family="Helvetica,sans-Serif" font-size="10.00">sys/time.h</text>
</g>
<!-- Node5&#45;&gt;Node7 -->
<g id="edge7" class="edge"><title>Node5&#45;&gt;Node7</title>
<path fill="none" stroke="midnightblue" d="M484.356,-112.444C503.766,-103.636 534.23,-89.8116 556.465,-79.722"/>
<polygon fill="midnightblue" stroke="midnightblue" points="558.072,-82.836 565.732,-75.5164 555.18,-76.4615 558.072,-82.836"/>
</g>
<!-- Node8 -->
<g id="node9" class="node"><title>Node8</title>
<polygon fill="none" stroke="#bfbfbf" points="290,-0.5 290,-19.5 335,-19.5 335,-0.5 290,-0.5"/>
<text text-anchor="middle" x="312.5" y="-7.5" font-family="Helvetica,sans-Serif" font-size="10.00">cstdlib</text>
</g>
<!-- Node5&#45;&gt;Node8 -->
<g id="edge9" class="edge"><title>Node5&#45;&gt;Node8</title>
<path fill="none" stroke="midnightblue" d="M453.494,-112.368C427.351,-93.5728 365.032,-48.7684 332.715,-25.5334"/>
<polygon fill="midnightblue" stroke="midnightblue" points="334.612,-22.5871 324.45,-19.5914 330.526,-28.2707 334.612,-22.5871"/>
</g>
<!-- Node9&#45;&gt;Node4 -->
<g id="edge17" class="edge"><title>Node9&#45;&gt;Node4</title>
<path fill="none" stroke="midnightblue" d="M310.037,-168.388C316.897,-159.341 327.985,-144.692 337.5,-132 365.366,-94.8287 397.842,-51.0531 415.149,-27.6877"/>
<polygon fill="midnightblue" stroke="midnightblue" points="418.055,-29.6444 421.193,-19.525 412.43,-25.4789 418.055,-29.6444"/>
</g>
<!-- Node9&#45;&gt;Node5 -->
<g id="edge11" class="edge"><title>Node9&#45;&gt;Node5</title>
<path fill="none" stroke="midnightblue" d="M329.169,-168.444C356.423,-159.359 399.684,-144.939 430.151,-134.783"/>
<polygon fill="midnightblue" stroke="midnightblue" points="431.571,-137.999 439.951,-131.516 429.357,-131.358 431.571,-137.999"/>
</g>
<!-- Node10 -->
<g id="node11" class="node"><title>Node10</title>
<g id="a_node11"><a xlink:href="StateSpace_8h.html" target="_top" xlink:title="StateSpace.h">
<polygon fill="none" stroke="black" points="252.5,-112.5 252.5,-131.5 328.5,-131.5 328.5,-112.5 252.5,-112.5"/>
<text text-anchor="middle" x="290.5" y="-119.5" font-family="Helvetica,sans-Serif" font-size="10.00">StateSpace.h</text>
</a>
</g>
</g>
<!-- Node9&#45;&gt;Node10 -->
<g id="edge12" class="edge"><title>Node9&#45;&gt;Node10</title>
<path fill="none" stroke="midnightblue" d="M301.353,-168.083C299.631,-160.927 297.153,-150.635 295,-141.691"/>
<polygon fill="midnightblue" stroke="midnightblue" points="298.35,-140.654 292.607,-131.751 291.545,-142.293 298.35,-140.654"/>
</g>
<!-- Node13 -->
<g id="node14" class="node"><title>Node13</title>
<polygon fill="none" stroke="#bfbfbf" points="0,-0.5 0,-19.5 35,-19.5 35,-0.5 0,-0.5"/>
<text text-anchor="middle" x="17.5" y="-7.5" font-family="Helvetica,sans-Serif" font-size="10.00">map</text>
</g>
<!-- Node9&#45;&gt;Node13 -->
<g id="edge18" class="edge"><title>Node9&#45;&gt;Node13</title>
<path fill="none" stroke="midnightblue" d="M258.985,-174.017C198.095,-167.348 90.2735,-145.776 36.5,-76 26.1936,-62.6265 21.4713,-43.8024 19.3114,-29.8515"/>
<polygon fill="midnightblue" stroke="midnightblue" points="22.7817,-29.3951 18.0708,-19.9052 15.8355,-30.2615 22.7817,-29.3951"/>
</g>
<!-- Node11 -->
<g id="node12" class="node"><title>Node11</title>
<g id="a_node12"><a xlink:href="BiologicalSequences_8h.html" target="_top" xlink:title="BiologicalSequences.h">
<polygon fill="none" stroke="black" points="207.5,-56.5 207.5,-75.5 323.5,-75.5 323.5,-56.5 207.5,-56.5"/>
<text text-anchor="middle" x="265.5" y="-63.5" font-family="Helvetica,sans-Serif" font-size="10.00">BiologicalSequences.h</text>
</a>
</g>
</g>
<!-- Node10&#45;&gt;Node11 -->
<g id="edge13" class="edge"><title>Node10&#45;&gt;Node11</title>
<path fill="none" stroke="midnightblue" d="M286.372,-112.083C282.986,-104.77 278.084,-94.1814 273.881,-85.1034"/>
<polygon fill="midnightblue" stroke="midnightblue" points="276.929,-83.3553 269.551,-75.7511 270.577,-86.2962 276.929,-83.3553"/>
</g>
<!-- Node11&#45;&gt;Node4 -->
<g id="edge15" class="edge"><title>Node11&#45;&gt;Node4</title>
<path fill="none" stroke="midnightblue" d="M291.169,-56.4435C318.423,-47.3591 361.684,-32.9388 392.151,-22.7831"/>
<polygon fill="midnightblue" stroke="midnightblue" points="393.571,-25.9992 401.951,-19.5164 391.357,-19.3584 393.571,-25.9992"/>
</g>
<!-- Node11&#45;&gt;Node8 -->
<g id="edge14" class="edge"><title>Node11&#45;&gt;Node8</title>
<path fill="none" stroke="midnightblue" d="M273.261,-56.083C280.037,-48.2982 290.043,-36.8015 298.255,-27.3665"/>
<polygon fill="midnightblue" stroke="midnightblue" points="300.958,-29.592 304.883,-19.7511 295.678,-24.9963 300.958,-29.592"/>
</g>
<!-- Node12 -->
<g id="node13" class="node"><title>Node12</title>
<polygon fill="none" stroke="#bfbfbf" points="90,-0.5 90,-19.5 131,-19.5 131,-0.5 90,-0.5"/>
<text text-anchor="middle" x="110.5" y="-7.5" font-family="Helvetica,sans-Serif" font-size="10.00">string</text>
</g>
<!-- Node11&#45;&gt;Node12 -->
<g id="edge16" class="edge"><title>Node11&#45;&gt;Node12</title>
<path fill="none" stroke="midnightblue" d="M240.94,-56.4435C213.908,-47.0262 170.418,-31.8746 141.168,-21.6842"/>
<polygon fill="midnightblue" stroke="midnightblue" points="142.061,-18.289 131.466,-18.3042 139.758,-24.8993 142.061,-18.289"/>
</g>
<!-- Node14&#45;&gt;Node12 -->
<g id="edge20" class="edge"><title>Node14&#45;&gt;Node12</title>
<path fill="none" stroke="midnightblue" d="M141.795,-168.476C112.893,-154.132 58.4283,-122.143 36.5,-76 24.9806,-51.7603 55.4003,-32.8109 80.6647,-21.776"/>
<polygon fill="midnightblue" stroke="midnightblue" points="82.0786,-24.979 89.9968,-17.9397 79.4171,-18.5047 82.0786,-24.979"/>
</g>
<!-- Node14&#45;&gt;Node13 -->
<g id="edge21" class="edge"><title>Node14&#45;&gt;Node13</title>
<path fill="none" stroke="midnightblue" d="M127.249,-168.413C105.812,-161.492 78.4942,-149.911 59.5,-132 30.6101,-104.758 21.5883,-56.6448 18.7737,-30.0338"/>
<polygon fill="midnightblue" stroke="midnightblue" points="22.2349,-29.4317 17.8878,-19.7698 15.2608,-30.0338 22.2349,-29.4317"/>
</g>
<!-- Node15 -->
<g id="node16" class="node"><title>Node15</title>
<g id="a_node16"><a xlink:href="Tree_8h.html" target="_top" xlink:title="Tree.h">
<polygon fill="none" stroke="black" points="138.5,-112.5 138.5,-131.5 182.5,-131.5 182.5,-112.5 138.5,-112.5"/>
<text text-anchor="middle" x="160.5" y="-119.5" font-family="Helvetica,sans-Serif" font-size="10.00">Tree.h</text>
</a>
</g>
</g>
<!-- Node14&#45;&gt;Node15 -->
<g id="edge22" class="edge"><title>Node14&#45;&gt;Node15</title>
<path fill="none" stroke="midnightblue" d="M160.5,-168.083C160.5,-161.006 160.5,-150.861 160.5,-141.986"/>
<polygon fill="midnightblue" stroke="midnightblue" points="164,-141.751 160.5,-131.751 157,-141.751 164,-141.751"/>
</g>
<!-- Node17 -->
<g id="node18" class="node"><title>Node17</title>
<g id="a_node18"><a xlink:href="SubMatrix_8h.html" target="_top" xlink:title="SubMatrix.h">
<polygon fill="none" stroke="black" points="678,-112.5 678,-131.5 747,-131.5 747,-112.5 678,-112.5"/>
<text text-anchor="middle" x="712.5" y="-119.5" font-family="Helvetica,sans-Serif" font-size="10.00">SubMatrix.h</text>
</a>
</g>
</g>
<!-- Node14&#45;&gt;Node17 -->
<g id="edge30" class="edge"><title>Node14&#45;&gt;Node17</title>
<path fill="none" stroke="midnightblue" d="M207.149,-172.248C220.798,-170.867 235.746,-169.364 249.5,-168 403.063,-152.773 585.329,-135.207 667.899,-127.277"/>
<polygon fill="midnightblue" stroke="midnightblue" points="668.317,-130.753 677.937,-126.313 667.648,-123.785 668.317,-130.753"/>
</g>
<!-- Node15&#45;&gt;Node4 -->
<g id="edge25" class="edge"><title>Node15&#45;&gt;Node4</title>
<path fill="none" stroke="midnightblue" d="M182.772,-117.692C216.377,-112.152 281.531,-99.2506 332.5,-76 361.406,-62.8139 391.049,-40.9365 409.364,-26.2486"/>
<polygon fill="midnightblue" stroke="midnightblue" points="411.866,-28.7243 417.393,-19.6853 407.436,-23.3047 411.866,-28.7243"/>
</g>
<!-- Node15&#45;&gt;Node8 -->
<g id="edge23" class="edge"><title>Node15&#45;&gt;Node8</title>
<path fill="none" stroke="midnightblue" d="M163.494,-112.183C168.599,-98.3862 180.242,-71.6571 198.5,-56 221.819,-36.0023 255.095,-24.248 279.679,-17.7996"/>
<polygon fill="midnightblue" stroke="midnightblue" points="280.755,-21.1395 289.629,-15.3523 279.083,-14.3421 280.755,-21.1395"/>
</g>
<!-- Node15&#45;&gt;Node12 -->
<g id="edge24" class="edge"><title>Node15&#45;&gt;Node12</title>
<path fill="none" stroke="midnightblue" d="M156.577,-112.368C148.435,-94.4563 129.556,-52.9233 118.658,-28.9482"/>
<polygon fill="midnightblue" stroke="midnightblue" points="121.73,-27.2468 114.405,-19.5914 115.357,-30.1434 121.73,-27.2468"/>
</g>
<!-- Node16 -->
<g id="node17" class="node"><title>Node16</title>
<g id="a_node17"><a xlink:href="TaxonSet_8h.html" target="_top" xlink:title="TaxonSet.h">
<polygon fill="none" stroke="black" points="46,-56.5 46,-75.5 113,-75.5 113,-56.5 46,-56.5"/>
<text text-anchor="middle" x="79.5" y="-63.5" font-family="Helvetica,sans-Serif" font-size="10.00">TaxonSet.h</text>
</a>
</g>
</g>
<!-- Node15&#45;&gt;Node16 -->
<g id="edge26" class="edge"><title>Node15&#45;&gt;Node16</title>
<path fill="none" stroke="midnightblue" d="M147.486,-112.324C134.968,-103.979 115.818,-91.2122 101.029,-81.3524"/>
<polygon fill="midnightblue" stroke="midnightblue" points="102.744,-78.2894 92.4818,-75.6545 98.8608,-84.1137 102.744,-78.2894"/>
</g>
<!-- Node16&#45;&gt;Node4 -->
<g id="edge29" class="edge"><title>Node16&#45;&gt;Node4</title>
<path fill="none" stroke="midnightblue" d="M113.184,-59.7732C178.435,-49.648 321.639,-27.4267 389.889,-16.8362"/>
<polygon fill="midnightblue" stroke="midnightblue" points="390.83,-20.2321 400.175,-15.24 389.757,-13.3149 390.83,-20.2321"/>
</g>
<!-- Node16&#45;&gt;Node12 -->
<g id="edge28" class="edge"><title>Node16&#45;&gt;Node12</title>
<path fill="none" stroke="midnightblue" d="M84.619,-56.083C88.9075,-48.6127 95.1582,-37.7244 100.442,-28.5199"/>
<polygon fill="midnightblue" stroke="midnightblue" points="103.533,-30.1662 105.476,-19.7511 97.4621,-26.6811 103.533,-30.1662"/>
</g>
<!-- Node16&#45;&gt;Node13 -->
<g id="edge27" class="edge"><title>Node16&#45;&gt;Node13</title>
<path fill="none" stroke="midnightblue" d="M69.5386,-56.324C60.3734,-48.3414 46.5628,-36.3128 35.4718,-26.6529"/>
<polygon fill="midnightblue" stroke="midnightblue" points="37.4822,-23.7624 27.6426,-19.8339 32.8847,-29.041 37.4822,-23.7624"/>
</g>
<!-- Node17&#45;&gt;Node4 -->
<g id="edge31" class="edge"><title>Node17&#45;&gt;Node4</title>
<path fill="none" stroke="midnightblue" d="M707.731,-112.2C699.501,-97.9259 681.211,-69.9206 657.5,-56 596.663,-20.2829 512.728,-12.305 464.891,-10.8755"/>
<polygon fill="midnightblue" stroke="midnightblue" points="464.756,-7.37189 454.682,-10.6544 464.604,-14.3702 464.756,-7.37189"/>
</g>
<!-- Node18 -->
<g id="node19" class="node"><title>Node18</title>
<polygon fill="none" stroke="#bfbfbf" points="690.5,-0.5 690.5,-19.5 734.5,-19.5 734.5,-0.5 690.5,-0.5"/>
<text text-anchor="middle" x="712.5" y="-7.5" font-family="Helvetica,sans-Serif" font-size="10.00">cmath</text>
</g>
<!-- Node17&#45;&gt;Node18 -->
<g id="edge32" class="edge"><title>Node17&#45;&gt;Node18</title>
<path fill="none" stroke="midnightblue" d="M712.5,-112.368C712.5,-94.617 712.5,-53.6664 712.5,-29.5974"/>
<polygon fill="midnightblue" stroke="midnightblue" points="716,-29.5914 712.5,-19.5914 709,-29.5915 716,-29.5914"/>
</g>
<!-- Node19 -->
<g id="node20" class="node"><title>Node19</title>
<g id="a_node20"><a xlink:href="Random_8h.html" target="_top" xlink:title="Random.h">
<polygon fill="none" stroke="black" points="747.5,-56.5 747.5,-75.5 809.5,-75.5 809.5,-56.5 747.5,-56.5"/>
<text text-anchor="middle" x="778.5" y="-63.5" font-family="Helvetica,sans-Serif" font-size="10.00">Random.h</text>
</a>
</g>
</g>
<!-- Node17&#45;&gt;Node19 -->
<g id="edge33" class="edge"><title>Node17&#45;&gt;Node19</title>
<path fill="none" stroke="midnightblue" d="M723.104,-112.324C732.956,-104.263 747.851,-92.0765 759.715,-82.3695"/>
<polygon fill="midnightblue" stroke="midnightblue" points="762.18,-84.8752 767.703,-75.8339 757.747,-79.4575 762.18,-84.8752"/>
</g>
<!-- Node19&#45;&gt;Node4 -->
<g id="edge36" class="edge"><title>Node19&#45;&gt;Node4</title>
<path fill="none" stroke="midnightblue" d="M747.351,-60.2079C682.718,-50.2644 534.278,-27.4274 464.731,-16.7278"/>
<polygon fill="midnightblue" stroke="midnightblue" points="465.082,-13.2408 454.666,-15.1794 464.018,-20.1594 465.082,-13.2408"/>
</g>
<!-- Node19&#45;&gt;Node8 -->
<g id="edge35" class="edge"><title>Node19&#45;&gt;Node8</title>
<path fill="none" stroke="midnightblue" d="M747.201,-61.3731C662.769,-51.5891 430.929,-24.7236 345.055,-14.7725"/>
<polygon fill="midnightblue" stroke="midnightblue" points="345.429,-11.2925 335.093,-13.6181 344.624,-18.246 345.429,-11.2925"/>
</g>
<!-- Node19&#45;&gt;Node18 -->
<g id="edge34" class="edge"><title>Node19&#45;&gt;Node18</title>
<path fill="none" stroke="midnightblue" d="M767.896,-56.324C758.044,-48.2631 743.149,-36.0765 731.285,-26.3695"/>
<polygon fill="midnightblue" stroke="midnightblue" points="733.253,-23.4575 723.297,-19.8339 728.82,-28.8752 733.253,-23.4575"/>
</g>
<!-- Node20 -->
<g id="node21" class="node"><title>Node20</title>
<polygon fill="none" stroke="#bfbfbf" points="752.5,-0.5 752.5,-19.5 804.5,-19.5 804.5,-0.5 752.5,-0.5"/>
<text text-anchor="middle" x="778.5" y="-7.5" font-family="Helvetica,sans-Serif" font-size="10.00">sstream</text>
</g>
<!-- Node19&#45;&gt;Node20 -->
<g id="edge37" class="edge"><title>Node19&#45;&gt;Node20</title>
<path fill="none" stroke="midnightblue" d="M778.5,-56.083C778.5,-49.0059 778.5,-38.8611 778.5,-29.9865"/>
<polygon fill="midnightblue" stroke="midnightblue" points="782,-29.751 778.5,-19.7511 775,-29.7511 782,-29.751"/>
</g>
<!-- Node21 -->
<g id="node22" class="node"><title>Node21</title>
<polygon fill="none" stroke="#bfbfbf" points="822.5,-0.5 822.5,-19.5 872.5,-19.5 872.5,-0.5 822.5,-0.5"/>
<text text-anchor="middle" x="847.5" y="-7.5" font-family="Helvetica,sans-Serif" font-size="10.00">iomanip</text>
</g>
<!-- Node19&#45;&gt;Node21 -->
<g id="edge38" class="edge"><title>Node19&#45;&gt;Node21</title>
<path fill="none" stroke="midnightblue" d="M789.586,-56.324C799.986,-48.1849 815.761,-35.8395 828.222,-26.0874"/>
<polygon fill="midnightblue" stroke="midnightblue" points="830.494,-28.7533 836.212,-19.8339 826.18,-23.2407 830.494,-28.7533"/>
</g>
<!-- Node22 -->
<g id="node23" class="node"><title>Node22</title>
<polygon fill="none" stroke="#bfbfbf" points="890.5,-0.5 890.5,-19.5 940.5,-19.5 940.5,-0.5 890.5,-0.5"/>
<text text-anchor="middle" x="915.5" y="-7.5" font-family="Helvetica,sans-Serif" font-size="10.00">fstream</text>
</g>
<!-- Node19&#45;&gt;Node22 -->
<g id="edge39" class="edge"><title>Node19&#45;&gt;Node22</title>
<path fill="none" stroke="midnightblue" d="M800.208,-56.4435C822.855,-47.5171 858.572,-33.4387 884.252,-23.3168"/>
<polygon fill="midnightblue" stroke="midnightblue" points="885.874,-26.4397 893.894,-19.5164 883.307,-19.9273 885.874,-26.4397"/>
</g>
<!-- Node24&#45;&gt;Node9 -->
<g id="edge43" class="edge"><title>Node24&#45;&gt;Node9</title>
<path fill="none" stroke="midnightblue" d="M300.161,-224.083C300.685,-217.006 301.436,-206.861 302.094,-197.986"/>
<polygon fill="midnightblue" stroke="midnightblue" points="305.603,-197.982 302.852,-187.751 298.623,-197.465 305.603,-197.982"/>
</g>
<!-- Node26 -->
<g id="node27" class="node"><title>Node26</title>
<polygon fill="none" stroke="#bfbfbf" points="550,-224.5 550,-243.5 591,-243.5 591,-224.5 550,-224.5"/>
<text text-anchor="middle" x="570.5" y="-231.5" font-family="Helvetica,sans-Serif" font-size="10.00">mpi.h</text>
</g>
<!-- Node25&#45;&gt;Node26 -->
<g id="edge46" class="edge"><title>Node25&#45;&gt;Node26</title>
<path fill="none" stroke="midnightblue" d="M567.161,-280.083C567.685,-273.006 568.436,-262.861 569.094,-253.986"/>
<polygon fill="midnightblue" stroke="midnightblue" points="572.603,-253.982 569.852,-243.751 565.623,-253.465 572.603,-253.982"/>
</g>
</g>
</svg>
