<?xml version="1.0" encoding="UTF-8" standalone="no"?>
<!DOCTYPE svg PUBLIC "-//W3C//DTD SVG 1.1//EN"
 "http://www.w3.org/Graphics/SVG/1.1/DTD/svg11.dtd">
<!-- Generated by graphviz version 2.38.0 (20140413.2041)
 -->
<!-- Title: PoissonFiniteProfileProcess.cpp Pages: 1 -->
<svg width="584pt" height="420pt"
 viewBox="0.00 0.00 583.50 420.00" xmlns="http://www.w3.org/2000/svg" xmlns:xlink="http://www.w3.org/1999/xlink">
<g id="graph0" class="graph" transform="scale(1 1) rotate(0) translate(4 416)">
<title>PoissonFiniteProfileProcess.cpp</title>
<!-- Node0 -->
<g id="node1" class="node"><title>Node0</title>
<polygon fill="#bfbfbf" stroke="black" points="333.5,-392.5 333.5,-411.5 491.5,-411.5 491.5,-392.5 333.5,-392.5"/>
<text text-anchor="middle" x="412.5" y="-399.5" font-family="Helvetica,sans-Serif" font-size="10.00">PoissonFiniteProfileProcess.cpp</text>
</g>
<!-- Node1 -->
<g id="node2" class="node"><title>Node1</title>
<g id="a_node2"><a xlink:href="PoissonFiniteProfileProcess_8h.html" target="_top" xlink:title="PoissonFiniteProfileProcess.h">
<polygon fill="none" stroke="black" points="210.5,-336.5 210.5,-355.5 358.5,-355.5 358.5,-336.5 210.5,-336.5"/>
<text text-anchor="middle" x="284.5" y="-343.5" font-family="Helvetica,sans-Serif" font-size="10.00">PoissonFiniteProfileProcess.h</text>
</a>
</g>
</g>
<!-- Node0&#45;&gt;Node1 -->
<g id="edge1" class="edge"><title>Node0&#45;&gt;Node1</title>
<path fill="none" stroke="midnightblue" d="M392.218,-392.444C371.153,-383.557 337.983,-369.563 314.014,-359.451"/>
<polygon fill="midnightblue" stroke="midnightblue" points="315.261,-356.179 304.687,-355.516 312.54,-362.628 315.261,-356.179"/>
</g>
<!-- Node17 -->
<g id="node18" class="node"><title>Node17</title>
<g id="a_node18"><a xlink:href="Random_8h.html" target="_top" xlink:title="Random.h">
<polygon fill="none" stroke="black" points="355.5,-224.5 355.5,-243.5 417.5,-243.5 417.5,-224.5 355.5,-224.5"/>
<text text-anchor="middle" x="386.5" y="-231.5" font-family="Helvetica,sans-Serif" font-size="10.00">Random.h</text>
</a>
</g>
</g>
<!-- Node0&#45;&gt;Node17 -->
<g id="edge23" class="edge"><title>Node0&#45;&gt;Node17</title>
<path fill="none" stroke="midnightblue" d="M411.102,-392.075C407.01,-365.945 394.991,-289.211 389.41,-253.577"/>
<polygon fill="midnightblue" stroke="midnightblue" points="392.847,-252.906 387.842,-243.568 385.932,-253.989 392.847,-252.906"/>
</g>
<!-- Node21 -->
<g id="node22" class="node"><title>Node21</title>
<polygon fill="none" stroke="#bfbfbf" points="415,-336.5 415,-355.5 464,-355.5 464,-336.5 415,-336.5"/>
<text text-anchor="middle" x="439.5" y="-343.5" font-family="Helvetica,sans-Serif" font-size="10.00">cassert</text>
</g>
<!-- Node0&#45;&gt;Node21 -->
<g id="edge30" class="edge"><title>Node0&#45;&gt;Node21</title>
<path fill="none" stroke="midnightblue" d="M416.959,-392.083C420.654,-384.691 426.023,-373.953 430.594,-364.811"/>
<polygon fill="midnightblue" stroke="midnightblue" points="433.783,-366.261 435.124,-355.751 427.522,-363.13 433.783,-366.261"/>
</g>
<!-- Node22 -->
<g id="node23" class="node"><title>Node22</title>
<g id="a_node23"><a xlink:href="Parallel_8h.html" target="_top" xlink:title="Parallel.h">
<polygon fill="none" stroke="black" points="482,-336.5 482,-355.5 539,-355.5 539,-336.5 482,-336.5"/>
<text text-anchor="middle" x="510.5" y="-343.5" font-family="Helvetica,sans-Serif" font-size="10.00">Parallel.h</text>
</a>
</g>
</g>
<!-- Node0&#45;&gt;Node22 -->
<g id="edge31" class="edge"><title>Node0&#45;&gt;Node22</title>
<path fill="none" stroke="midnightblue" d="M428.245,-392.324C443.819,-383.743 467.877,-370.486 485.959,-360.522"/>
<polygon fill="midnightblue" stroke="midnightblue" points="487.724,-363.546 494.794,-355.655 484.346,-357.415 487.724,-363.546"/>
</g>
<!-- Node2 -->
<g id="node3" class="node"><title>Node2</title>
<g id="a_node3"><a xlink:href="PoissonMixtureProfileProcess_8h.html" target="_top" xlink:title="PoissonMixtureProfileProcess.h">
<polygon fill="none" stroke="black" points="61.5,-280.5 61.5,-299.5 217.5,-299.5 217.5,-280.5 61.5,-280.5"/>
<text text-anchor="middle" x="139.5" y="-287.5" font-family="Helvetica,sans-Serif" font-size="10.00">PoissonMixtureProfileProcess.h</text>
</a>
</g>
</g>
<!-- Node1&#45;&gt;Node2 -->
<g id="edge2" class="edge"><title>Node1&#45;&gt;Node2</title>
<path fill="none" stroke="midnightblue" d="M261.524,-336.444C237.343,-327.438 199.082,-313.189 171.854,-303.049"/>
<polygon fill="midnightblue" stroke="midnightblue" points="172.961,-299.727 162.368,-299.516 170.518,-306.286 172.961,-299.727"/>
</g>
<!-- Node16 -->
<g id="node17" class="node"><title>Node16</title>
<g id="a_node17"><a xlink:href="FiniteProfileProcess_8h.html" target="_top" xlink:title="FiniteProfileProcess.h">
<polygon fill="none" stroke="black" points="236,-280.5 236,-299.5 349,-299.5 349,-280.5 236,-280.5"/>
<text text-anchor="middle" x="292.5" y="-287.5" font-family="Helvetica,sans-Serif" font-size="10.00">FiniteProfileProcess.h</text>
</a>
</g>
</g>
<!-- Node1&#45;&gt;Node16 -->
<g id="edge20" class="edge"><title>Node1&#45;&gt;Node16</title>
<path fill="none" stroke="midnightblue" d="M285.821,-336.083C286.881,-328.927 288.406,-318.635 289.731,-309.691"/>
<polygon fill="midnightblue" stroke="midnightblue" points="293.2,-310.156 291.204,-299.751 286.276,-309.13 293.2,-310.156"/>
</g>
<!-- Node3 -->
<g id="node4" class="node"><title>Node3</title>
<g id="a_node4"><a xlink:href="PoissonProfileProcess_8h.html" target="_top" xlink:title="PoissonProfileProcess.h">
<polygon fill="none" stroke="black" points="18.5,-224.5 18.5,-243.5 142.5,-243.5 142.5,-224.5 18.5,-224.5"/>
<text text-anchor="middle" x="80.5" y="-231.5" font-family="Helvetica,sans-Serif" font-size="10.00">PoissonProfileProcess.h</text>
</a>
</g>
</g>
<!-- Node2&#45;&gt;Node3 -->
<g id="edge3" class="edge"><title>Node2&#45;&gt;Node3</title>
<path fill="none" stroke="midnightblue" d="M130.021,-280.324C121.299,-272.341 108.157,-260.313 97.6022,-250.653"/>
<polygon fill="midnightblue" stroke="midnightblue" points="99.8917,-248.004 90.1519,-243.834 95.1655,-253.167 99.8917,-248.004"/>
</g>
<!-- Node14 -->
<g id="node15" class="node"><title>Node14</title>
<g id="a_node15"><a xlink:href="MixtureProfileProcess_8h.html" target="_top" xlink:title="MixtureProfileProcess.h">
<polygon fill="none" stroke="black" points="161,-224.5 161,-243.5 282,-243.5 282,-224.5 161,-224.5"/>
<text text-anchor="middle" x="221.5" y="-231.5" font-family="Helvetica,sans-Serif" font-size="10.00">MixtureProfileProcess.h</text>
</a>
</g>
</g>
<!-- Node2&#45;&gt;Node14 -->
<g id="edge17" class="edge"><title>Node2&#45;&gt;Node14</title>
<path fill="none" stroke="midnightblue" d="M152.675,-280.324C165.347,-271.979 184.733,-259.212 199.706,-249.352"/>
<polygon fill="midnightblue" stroke="midnightblue" points="201.931,-252.078 208.358,-243.655 198.081,-246.231 201.931,-252.078"/>
</g>
<!-- Node4 -->
<g id="node5" class="node"><title>Node4</title>
<g id="a_node5"><a xlink:href="ProfileProcess_8h.html" target="_top" xlink:title="ProfileProcess.h">
<polygon fill="none" stroke="black" points="117,-168.5 117,-187.5 206,-187.5 206,-168.5 117,-168.5"/>
<text text-anchor="middle" x="161.5" y="-175.5" font-family="Helvetica,sans-Serif" font-size="10.00">ProfileProcess.h</text>
</a>
</g>
</g>
<!-- Node3&#45;&gt;Node4 -->
<g id="edge4" class="edge"><title>Node3&#45;&gt;Node4</title>
<path fill="none" stroke="midnightblue" d="M93.5141,-224.324C106.032,-215.979 125.182,-203.212 139.971,-193.352"/>
<polygon fill="midnightblue" stroke="midnightblue" points="142.139,-196.114 148.518,-187.655 138.256,-190.289 142.139,-196.114"/>
</g>
<!-- Node5 -->
<g id="node6" class="node"><title>Node5</title>
<g id="a_node6"><a xlink:href="Chrono_8h.html" target="_top" xlink:title="Chrono.h">
<polygon fill="none" stroke="black" points="55.5,-56.5 55.5,-75.5 111.5,-75.5 111.5,-56.5 55.5,-56.5"/>
<text text-anchor="middle" x="83.5" y="-63.5" font-family="Helvetica,sans-Serif" font-size="10.00">Chrono.h</text>
</a>
</g>
</g>
<!-- Node4&#45;&gt;Node5 -->
<g id="edge5" class="edge"><title>Node4&#45;&gt;Node5</title>
<path fill="none" stroke="midnightblue" d="M152.988,-168.472C144.493,-159.729 131.324,-145.535 121.5,-132 110.487,-116.826 99.8851,-98.2499 92.6916,-84.848"/>
<polygon fill="midnightblue" stroke="midnightblue" points="95.6584,-82.97 87.9045,-75.75 89.4636,-86.2295 95.6584,-82.97"/>
</g>
<!-- Node8 -->
<g id="node9" class="node"><title>Node8</title>
<polygon fill="none" stroke="#bfbfbf" points="146.5,-0.5 146.5,-19.5 200.5,-19.5 200.5,-0.5 146.5,-0.5"/>
<text text-anchor="middle" x="173.5" y="-7.5" font-family="Helvetica,sans-Serif" font-size="10.00">iostream</text>
</g>
<!-- Node4&#45;&gt;Node8 -->
<g id="edge15" class="edge"><title>Node4&#45;&gt;Node8</title>
<path fill="none" stroke="midnightblue" d="M159.761,-168.419C158.028,-159.399 155.487,-144.77 154.5,-132 151.67,-95.395 161.3,-53.1267 167.87,-29.4846"/>
<polygon fill="midnightblue" stroke="midnightblue" points="171.269,-30.3295 170.7,-19.7499 164.547,-28.3755 171.269,-30.3295"/>
</g>
<!-- Node10 -->
<g id="node11" class="node"><title>Node10</title>
<g id="a_node11"><a xlink:href="StateSpace_8h.html" target="_top" xlink:title="StateSpace.h">
<polygon fill="none" stroke="black" points="163.5,-112.5 163.5,-131.5 239.5,-131.5 239.5,-112.5 163.5,-112.5"/>
<text text-anchor="middle" x="201.5" y="-119.5" font-family="Helvetica,sans-Serif" font-size="10.00">StateSpace.h</text>
</a>
</g>
</g>
<!-- Node4&#45;&gt;Node10 -->
<g id="edge10" class="edge"><title>Node4&#45;&gt;Node10</title>
<path fill="none" stroke="midnightblue" d="M168.105,-168.083C173.755,-160.455 182.045,-149.264 188.951,-139.941"/>
<polygon fill="midnightblue" stroke="midnightblue" points="191.878,-141.87 195.018,-131.751 186.253,-137.703 191.878,-141.87"/>
</g>
<!-- Node13 -->
<g id="node14" class="node"><title>Node13</title>
<polygon fill="none" stroke="#bfbfbf" points="258,-112.5 258,-131.5 293,-131.5 293,-112.5 258,-112.5"/>
<text text-anchor="middle" x="275.5" y="-119.5" font-family="Helvetica,sans-Serif" font-size="10.00">map</text>
</g>
<!-- Node4&#45;&gt;Node13 -->
<g id="edge16" class="edge"><title>Node4&#45;&gt;Node13</title>
<path fill="none" stroke="midnightblue" d="M179.564,-168.444C198.184,-159.624 227.422,-145.774 248.73,-135.68"/>
<polygon fill="midnightblue" stroke="midnightblue" points="250.356,-138.783 257.895,-131.339 247.36,-132.457 250.356,-138.783"/>
</g>
<!-- Node6 -->
<g id="node7" class="node"><title>Node6</title>
<polygon fill="none" stroke="#bfbfbf" points="0,-0.5 0,-19.5 41,-19.5 41,-0.5 0,-0.5"/>
<text text-anchor="middle" x="20.5" y="-7.5" font-family="Helvetica,sans-Serif" font-size="10.00">ctime</text>
</g>
<!-- Node5&#45;&gt;Node6 -->
<g id="edge6" class="edge"><title>Node5&#45;&gt;Node6</title>
<path fill="none" stroke="midnightblue" d="M73.378,-56.324C63.9736,-48.2631 49.7559,-36.0765 38.431,-26.3695"/>
<polygon fill="midnightblue" stroke="midnightblue" points="40.6766,-23.6844 30.8062,-19.8339 36.121,-28.9993 40.6766,-23.6844"/>
</g>
<!-- Node7 -->
<g id="node8" class="node"><title>Node7</title>
<polygon fill="none" stroke="#bfbfbf" points="59.5,-0.5 59.5,-19.5 121.5,-19.5 121.5,-0.5 59.5,-0.5"/>
<text text-anchor="middle" x="90.5" y="-7.5" font-family="Helvetica,sans-Serif" font-size="10.00">sys/time.h</text>
</g>
<!-- Node5&#45;&gt;Node7 -->
<g id="edge7" class="edge"><title>Node5&#45;&gt;Node7</title>
<path fill="none" stroke="midnightblue" d="M84.6559,-56.083C85.5835,-48.9272 86.9176,-38.6353 88.0771,-29.6911"/>
<polygon fill="midnightblue" stroke="midnightblue" points="91.5509,-30.1181 89.3656,-19.7511 84.609,-29.2181 91.5509,-30.1181"/>
</g>
<!-- Node5&#45;&gt;Node8 -->
<g id="edge8" class="edge"><title>Node5&#45;&gt;Node8</title>
<path fill="none" stroke="midnightblue" d="M97.9601,-56.324C112,-47.9002 133.548,-34.9709 150.043,-25.0741"/>
<polygon fill="midnightblue" stroke="midnightblue" points="152.302,-27.8007 159.076,-19.6545 148.7,-21.7983 152.302,-27.8007"/>
</g>
<!-- Node9 -->
<g id="node10" class="node"><title>Node9</title>
<polygon fill="none" stroke="#bfbfbf" points="235,-0.5 235,-19.5 280,-19.5 280,-0.5 235,-0.5"/>
<text text-anchor="middle" x="257.5" y="-7.5" font-family="Helvetica,sans-Serif" font-size="10.00">cstdlib</text>
</g>
<!-- Node5&#45;&gt;Node9 -->
<g id="edge9" class="edge"><title>Node5&#45;&gt;Node9</title>
<path fill="none" stroke="midnightblue" d="M111.071,-56.4435C142.074,-46.8219 192.364,-31.2147 225.186,-21.0283"/>
<polygon fill="midnightblue" stroke="midnightblue" points="226.258,-24.3605 234.771,-18.0537 224.183,-17.675 226.258,-24.3605"/>
</g>
<!-- Node11 -->
<g id="node12" class="node"><title>Node11</title>
<g id="a_node12"><a xlink:href="BiologicalSequences_8h.html" target="_top" xlink:title="BiologicalSequences.h">
<polygon fill="none" stroke="black" points="215.5,-56.5 215.5,-75.5 331.5,-75.5 331.5,-56.5 215.5,-56.5"/>
<text text-anchor="middle" x="273.5" y="-63.5" font-family="Helvetica,sans-Serif" font-size="10.00">BiologicalSequences.h</text>
</a>
</g>
</g>
<!-- Node10&#45;&gt;Node11 -->
<g id="edge11" class="edge"><title>Node10&#45;&gt;Node11</title>
<path fill="none" stroke="midnightblue" d="M213.068,-112.324C223.92,-104.185 240.381,-91.8395 253.383,-82.0874"/>
<polygon fill="midnightblue" stroke="midnightblue" points="255.821,-84.6339 261.721,-75.8339 251.621,-79.0339 255.821,-84.6339"/>
</g>
<!-- Node11&#45;&gt;Node8 -->
<g id="edge13" class="edge"><title>Node11&#45;&gt;Node8</title>
<path fill="none" stroke="midnightblue" d="M257.433,-56.324C241.542,-47.7428 216.993,-34.486 198.542,-24.5224"/>
<polygon fill="midnightblue" stroke="midnightblue" points="199.989,-21.3264 189.527,-19.6545 196.663,-27.4857 199.989,-21.3264"/>
</g>
<!-- Node11&#45;&gt;Node9 -->
<g id="edge12" class="edge"><title>Node11&#45;&gt;Node9</title>
<path fill="none" stroke="midnightblue" d="M270.858,-56.083C268.714,-48.8486 265.621,-38.4087 262.951,-29.3968"/>
<polygon fill="midnightblue" stroke="midnightblue" points="266.29,-28.3447 260.093,-19.7511 259.578,-30.3334 266.29,-28.3447"/>
</g>
<!-- Node12 -->
<g id="node13" class="node"><title>Node12</title>
<polygon fill="none" stroke="#bfbfbf" points="298,-0.5 298,-19.5 339,-19.5 339,-0.5 298,-0.5"/>
<text text-anchor="middle" x="318.5" y="-7.5" font-family="Helvetica,sans-Serif" font-size="10.00">string</text>
</g>
<!-- Node11&#45;&gt;Node12 -->
<g id="edge14" class="edge"><title>Node11&#45;&gt;Node12</title>
<path fill="none" stroke="midnightblue" d="M280.931,-56.083C287.353,-48.3768 296.806,-37.0333 304.622,-27.6531"/>
<polygon fill="midnightblue" stroke="midnightblue" points="307.494,-29.674 311.207,-19.7511 302.117,-25.1927 307.494,-29.674"/>
</g>
<!-- Node14&#45;&gt;Node4 -->
<g id="edge19" class="edge"><title>Node14&#45;&gt;Node4</title>
<path fill="none" stroke="midnightblue" d="M211.86,-224.324C202.99,-216.341 189.625,-204.313 178.892,-194.653"/>
<polygon fill="midnightblue" stroke="midnightblue" points="181.09,-191.922 171.315,-187.834 176.407,-197.125 181.09,-191.922"/>
</g>
<!-- Node15 -->
<g id="node16" class="node"><title>Node15</title>
<polygon fill="none" stroke="#bfbfbf" points="249.5,-168.5 249.5,-187.5 293.5,-187.5 293.5,-168.5 249.5,-168.5"/>
<text text-anchor="middle" x="271.5" y="-175.5" font-family="Helvetica,sans-Serif" font-size="10.00">cmath</text>
</g>
<!-- Node14&#45;&gt;Node15 -->
<g id="edge18" class="edge"><title>Node14&#45;&gt;Node15</title>
<path fill="none" stroke="midnightblue" d="M229.756,-224.083C236.965,-216.298 247.61,-204.801 256.346,-195.367"/>
<polygon fill="midnightblue" stroke="midnightblue" points="259.171,-197.467 263.397,-187.751 254.035,-192.711 259.171,-197.467"/>
</g>
<!-- Node16&#45;&gt;Node14 -->
<g id="edge22" class="edge"><title>Node16&#45;&gt;Node14</title>
<path fill="none" stroke="midnightblue" d="M281.093,-280.324C270.391,-272.185 254.159,-259.839 241.337,-250.087"/>
<polygon fill="midnightblue" stroke="midnightblue" points="243.193,-247.102 233.115,-243.834 238.956,-252.673 243.193,-247.102"/>
</g>
<!-- Node16&#45;&gt;Node15 -->
<g id="edge21" class="edge"><title>Node16&#45;&gt;Node15</title>
<path fill="none" stroke="midnightblue" d="M293.223,-280.465C294.065,-267.923 294.838,-243.854 290.5,-224 288.463,-214.68 284.547,-204.861 280.797,-196.781"/>
<polygon fill="midnightblue" stroke="midnightblue" points="283.853,-195.065 276.29,-187.646 277.576,-198.162 283.853,-195.065"/>
</g>
<!-- Node17&#45;&gt;Node8 -->
<g id="edge26" class="edge"><title>Node17&#45;&gt;Node8</title>
<path fill="none" stroke="midnightblue" d="M382.673,-224.35C372.568,-202.453 343.065,-144.28 301.5,-112 265.839,-84.3051 240.097,-106.165 206.5,-76 192.692,-63.6028 183.876,-44.0837 178.863,-29.6677"/>
<polygon fill="midnightblue" stroke="midnightblue" points="182.107,-28.3176 175.751,-19.8409 175.433,-30.4309 182.107,-28.3176"/>
</g>
<!-- Node17&#45;&gt;Node9 -->
<g id="edge25" class="edge"><title>Node17&#45;&gt;Node9</title>
<path fill="none" stroke="midnightblue" d="M384.665,-224.3C377.499,-190.586 351.263,-69.751 340.5,-56 327.747,-39.7074 307.392,-28.5412 290.031,-21.4071"/>
<polygon fill="midnightblue" stroke="midnightblue" points="290.826,-17.9642 280.236,-17.6644 288.328,-24.5032 290.826,-17.9642"/>
</g>
<!-- Node17&#45;&gt;Node15 -->
<g id="edge24" class="edge"><title>Node17&#45;&gt;Node15</title>
<path fill="none" stroke="midnightblue" d="M368.278,-224.444C349.604,-215.675 320.344,-201.935 298.883,-191.858"/>
<polygon fill="midnightblue" stroke="midnightblue" points="300.176,-188.599 289.637,-187.516 297.201,-194.935 300.176,-188.599"/>
</g>
<!-- Node18 -->
<g id="node19" class="node"><title>Node18</title>
<polygon fill="none" stroke="#bfbfbf" points="387.5,-168.5 387.5,-187.5 439.5,-187.5 439.5,-168.5 387.5,-168.5"/>
<text text-anchor="middle" x="413.5" y="-175.5" font-family="Helvetica,sans-Serif" font-size="10.00">sstream</text>
</g>
<!-- Node17&#45;&gt;Node18 -->
<g id="edge27" class="edge"><title>Node17&#45;&gt;Node18</title>
<path fill="none" stroke="midnightblue" d="M390.959,-224.083C394.654,-216.691 400.023,-205.953 404.594,-196.811"/>
<polygon fill="midnightblue" stroke="midnightblue" points="407.783,-198.261 409.124,-187.751 401.522,-195.13 407.783,-198.261"/>
</g>
<!-- Node19 -->
<g id="node20" class="node"><title>Node19</title>
<polygon fill="none" stroke="#bfbfbf" points="457.5,-168.5 457.5,-187.5 507.5,-187.5 507.5,-168.5 457.5,-168.5"/>
<text text-anchor="middle" x="482.5" y="-175.5" font-family="Helvetica,sans-Serif" font-size="10.00">iomanip</text>
</g>
<!-- Node17&#45;&gt;Node19 -->
<g id="edge28" class="edge"><title>Node17&#45;&gt;Node19</title>
<path fill="none" stroke="midnightblue" d="M401.924,-224.324C417.04,-215.822 440.315,-202.729 457.971,-192.797"/>
<polygon fill="midnightblue" stroke="midnightblue" points="460.114,-195.608 467.114,-187.655 456.683,-189.507 460.114,-195.608"/>
</g>
<!-- Node20 -->
<g id="node21" class="node"><title>Node20</title>
<polygon fill="none" stroke="#bfbfbf" points="525.5,-168.5 525.5,-187.5 575.5,-187.5 575.5,-168.5 525.5,-168.5"/>
<text text-anchor="middle" x="550.5" y="-175.5" font-family="Helvetica,sans-Serif" font-size="10.00">fstream</text>
</g>
<!-- Node17&#45;&gt;Node20 -->
<g id="edge29" class="edge"><title>Node17&#45;&gt;Node20</title>
<path fill="none" stroke="midnightblue" d="M412.486,-224.444C440.441,-215.239 485.031,-200.557 515.93,-190.383"/>
<polygon fill="midnightblue" stroke="midnightblue" points="517.038,-193.703 525.442,-187.251 514.849,-187.054 517.038,-193.703"/>
</g>
<!-- Node23 -->
<g id="node24" class="node"><title>Node23</title>
<polygon fill="none" stroke="#bfbfbf" points="490,-280.5 490,-299.5 531,-299.5 531,-280.5 490,-280.5"/>
<text text-anchor="middle" x="510.5" y="-287.5" font-family="Helvetica,sans-Serif" font-size="10.00">mpi.h</text>
</g>
<!-- Node22&#45;&gt;Node23 -->
<g id="edge32" class="edge"><title>Node22&#45;&gt;Node23</title>
<path fill="none" stroke="midnightblue" d="M510.5,-336.083C510.5,-329.006 510.5,-318.861 510.5,-309.986"/>
<polygon fill="midnightblue" stroke="midnightblue" points="514,-309.751 510.5,-299.751 507,-309.751 514,-309.751"/>
</g>
</g>
</svg>
