<?xml version="1.0" encoding="UTF-8" standalone="no"?>
<!DOCTYPE svg PUBLIC "-//W3C//DTD SVG 1.1//EN"
 "http://www.w3.org/Graphics/SVG/1.1/DTD/svg11.dtd">
<!-- Generated by graphviz version 2.38.0 (20140413.2041)
 -->
<!-- Title: PoissonSBDPProfileProcess.h Pages: 1 -->
<svg width="419pt" height="196pt"
 viewBox="0.00 0.00 418.50 196.00" xmlns="http://www.w3.org/2000/svg" xmlns:xlink="http://www.w3.org/1999/xlink">
<g id="graph0" class="graph" transform="scale(1 1) rotate(0) translate(4 192)">
<title>PoissonSBDPProfileProcess.h</title>
<!-- Node18 -->
<g id="node1" class="node"><title>Node18</title>
<polygon fill="#bfbfbf" stroke="black" points="156.5,-168.5 156.5,-187.5 308.5,-187.5 308.5,-168.5 156.5,-168.5"/>
<text text-anchor="middle" x="232.5" y="-175.5" font-family="Helvetica,sans-Serif" font-size="10.00">PoissonSBDPProfileProcess.h</text>
</g>
<!-- Node19 -->
<g id="node2" class="node"><title>Node19</title>
<g id="a_node2"><a xlink:href="RASCATSBDPGammaPhyloProcess_8h.html" target="_top" xlink:title="RASCATSBDPGammaPhyloProcess.h">
<polygon fill="none" stroke="black" points="41,-112.5 41,-131.5 230,-131.5 230,-112.5 41,-112.5"/>
<text text-anchor="middle" x="135.5" y="-119.5" font-family="Helvetica,sans-Serif" font-size="10.00">RASCATSBDPGammaPhyloProcess.h</text>
</a>
</g>
</g>
<!-- Node18&#45;&gt;Node19 -->
<g id="edge1" class="edge"><title>Node18&#45;&gt;Node19</title>
<path fill="none" stroke="midnightblue" d="M208.165,-163.453C190.257,-153.483 166.446,-140.228 151.046,-131.655"/>
<polygon fill="midnightblue" stroke="midnightblue" points="206.475,-166.518 216.915,-168.324 209.88,-160.402 206.475,-166.518"/>
</g>
<!-- Node24 -->
<g id="node7" class="node"><title>Node24</title>
<g id="a_node7"><a xlink:href="PoissonSBDPProfileProcess_8cpp.html" target="_top" xlink:title="PoissonSBDPProfileProcess.cpp">
<polygon fill="none" stroke="black" points="248.5,-112.5 248.5,-131.5 410.5,-131.5 410.5,-112.5 248.5,-112.5"/>
<text text-anchor="middle" x="329.5" y="-119.5" font-family="Helvetica,sans-Serif" font-size="10.00">PoissonSBDPProfileProcess.cpp</text>
</a>
</g>
</g>
<!-- Node18&#45;&gt;Node24 -->
<g id="edge6" class="edge"><title>Node18&#45;&gt;Node24</title>
<path fill="none" stroke="midnightblue" d="M256.835,-163.453C274.743,-153.483 298.554,-140.228 313.954,-131.655"/>
<polygon fill="midnightblue" stroke="midnightblue" points="255.12,-160.402 248.085,-168.324 258.525,-166.518 255.12,-160.402"/>
</g>
<!-- Node20 -->
<g id="node3" class="node"><title>Node20</title>
<g id="a_node3"><a xlink:href="Model_8h.html" target="_top" xlink:title="Model.h">
<polygon fill="none" stroke="black" points="38,-56.5 38,-75.5 89,-75.5 89,-56.5 38,-56.5"/>
<text text-anchor="middle" x="63.5" y="-63.5" font-family="Helvetica,sans-Serif" font-size="10.00">Model.h</text>
</a>
</g>
</g>
<!-- Node19&#45;&gt;Node20 -->
<g id="edge2" class="edge"><title>Node19&#45;&gt;Node20</title>
<path fill="none" stroke="midnightblue" d="M115.634,-106.101C102.677,-96.3824 86.2026,-84.0269 75.2785,-75.8339"/>
<polygon fill="midnightblue" stroke="midnightblue" points="113.832,-109.124 123.932,-112.324 118.032,-103.524 113.832,-109.124"/>
</g>
<!-- Node23 -->
<g id="node6" class="node"><title>Node23</title>
<g id="a_node6"><a xlink:href="RASCATSBDPGammaPhyloProcess_8cpp.html" target="_top" xlink:title="RASCATSBDPGammaPhyloProcess.cpp">
<polygon fill="none" stroke="black" points="107.5,-56.5 107.5,-75.5 307.5,-75.5 307.5,-56.5 107.5,-56.5"/>
<text text-anchor="middle" x="207.5" y="-63.5" font-family="Helvetica,sans-Serif" font-size="10.00">RASCATSBDPGammaPhyloProcess.cpp</text>
</a>
</g>
</g>
<!-- Node19&#45;&gt;Node23 -->
<g id="edge5" class="edge"><title>Node19&#45;&gt;Node23</title>
<path fill="none" stroke="midnightblue" d="M155.366,-106.101C168.323,-96.3824 184.797,-84.0269 195.721,-75.8339"/>
<polygon fill="midnightblue" stroke="midnightblue" points="152.968,-103.524 147.068,-112.324 157.168,-109.124 152.968,-103.524"/>
</g>
<!-- Node21 -->
<g id="node4" class="node"><title>Node21</title>
<g id="a_node4"><a xlink:href="PB_8cpp.html" target="_top" xlink:title="PB.cpp">
<polygon fill="none" stroke="black" points="0,-0.5 0,-19.5 49,-19.5 49,-0.5 0,-0.5"/>
<text text-anchor="middle" x="24.5" y="-7.5" font-family="Helvetica,sans-Serif" font-size="10.00">PB.cpp</text>
</a>
</g>
</g>
<!-- Node20&#45;&gt;Node21 -->
<g id="edge3" class="edge"><title>Node20&#45;&gt;Node21</title>
<path fill="none" stroke="midnightblue" d="M51.1178,-47.8554C44.3646,-38.5048 36.2914,-27.3265 30.8202,-19.7511"/>
<polygon fill="midnightblue" stroke="midnightblue" points="48.3676,-50.0254 57.0599,-56.083 54.0424,-45.927 48.3676,-50.0254"/>
</g>
<!-- Node22 -->
<g id="node5" class="node"><title>Node22</title>
<g id="a_node5"><a xlink:href="ReadPB_8cpp.html" target="_top" xlink:title="ReadPB.cpp">
<polygon fill="none" stroke="black" points="67.5,-0.5 67.5,-19.5 139.5,-19.5 139.5,-0.5 67.5,-0.5"/>
<text text-anchor="middle" x="103.5" y="-7.5" font-family="Helvetica,sans-Serif" font-size="10.00">ReadPB.cpp</text>
</a>
</g>
</g>
<!-- Node20&#45;&gt;Node22 -->
<g id="edge4" class="edge"><title>Node20&#45;&gt;Node22</title>
<path fill="none" stroke="midnightblue" d="M76.1997,-47.8554C83.126,-38.5048 91.4063,-27.3265 97.0177,-19.7511"/>
<polygon fill="midnightblue" stroke="midnightblue" points="73.245,-45.9641 70.1052,-56.083 78.87,-50.1307 73.245,-45.9641"/>
</g>
</g>
</svg>
