<?xml version="1.0" encoding="UTF-8" standalone="no"?>
<!DOCTYPE svg PUBLIC "-//W3C//DTD SVG 1.1//EN"
 "http://www.w3.org/Graphics/SVG/1.1/DTD/svg11.dtd">
<!-- Generated by graphviz version 2.40.1 (20161225.0304)
 -->
<!-- Title: PolyNode.h Pages: 1 -->
<svg width="700pt" height="140pt"
 viewBox="0.00 0.00 700.00 140.00" xmlns="http://www.w3.org/2000/svg" xmlns:xlink="http://www.w3.org/1999/xlink">
<g id="graph0" class="graph" transform="scale(1 1) rotate(0) translate(4 136)">
<title>PolyNode.h</title>
<!-- Node1 -->
<g id="node1" class="node">
<title>Node1</title>
<polygon fill="#bfbfbf" stroke="#000000" points="313.5,-112.5 313.5,-131.5 381.5,-131.5 381.5,-112.5 313.5,-112.5"/>
<text text-anchor="middle" x="347.5" y="-119.5" font-family="Helvetica,sans-Serif" font-size="10.00" fill="#000000">PolyNode.h</text>
</g>
<!-- Node2 -->
<g id="node2" class="node">
<title>Node2</title>
<g id="a_node2"><a xlink:href="phylo_8h.html" target="_top" xlink:title="phylo.h">
<polygon fill="none" stroke="#000000" points="323.5,-56.5 323.5,-75.5 371.5,-75.5 371.5,-56.5 323.5,-56.5"/>
<text text-anchor="middle" x="347.5" y="-63.5" font-family="Helvetica,sans-Serif" font-size="10.00" fill="#000000">phylo.h</text>
</a>
</g>
</g>
<!-- Node1&#45;&gt;Node2 -->
<g id="edge1" class="edge">
<title>Node1&#45;&gt;Node2</title>
<path fill="none" stroke="#191970" d="M347.5,-102.1575C347.5,-93.155 347.5,-82.9199 347.5,-75.6427"/>
<polygon fill="#191970" stroke="#191970" points="344.0001,-102.2455 347.5,-112.2455 351.0001,-102.2456 344.0001,-102.2455"/>
</g>
<!-- Node3 -->
<g id="node3" class="node">
<title>Node3</title>
<g id="a_node3"><a xlink:href="Bipartition_8cpp.html" target="_top" xlink:title="Bipartition.cpp">
<polygon fill="none" stroke="#000000" points="0,-.5 0,-19.5 79,-19.5 79,-.5 0,-.5"/>
<text text-anchor="middle" x="39.5" y="-7.5" font-family="Helvetica,sans-Serif" font-size="10.00" fill="#000000">Bipartition.cpp</text>
</a>
</g>
</g>
<!-- Node2&#45;&gt;Node3 -->
<g id="edge2" class="edge">
<title>Node2&#45;&gt;Node3</title>
<path fill="none" stroke="#191970" d="M313.5489,-60.3307C263.8466,-51.9547 168.3955,-35.5791 87.5,-20 84.7416,-19.4688 81.8968,-18.9084 79.0336,-18.3351"/>
<polygon fill="#191970" stroke="#191970" points="312.9968,-63.7869 323.4387,-61.9935 314.1575,-56.8838 312.9968,-63.7869"/>
</g>
<!-- Node4 -->
<g id="node4" class="node">
<title>Node4</title>
<g id="a_node4"><a xlink:href="BipartitionList_8cpp.html" target="_top" xlink:title="BipartitionList.cpp">
<polygon fill="none" stroke="#000000" points="97,-.5 97,-19.5 192,-19.5 192,-.5 97,-.5"/>
<text text-anchor="middle" x="144.5" y="-7.5" font-family="Helvetica,sans-Serif" font-size="10.00" fill="#000000">BipartitionList.cpp</text>
</a>
</g>
</g>
<!-- Node2&#45;&gt;Node4 -->
<g id="edge3" class="edge">
<title>Node2&#45;&gt;Node4</title>
<path fill="none" stroke="#191970" d="M313.5184,-56.6258C276.2009,-46.3313 216.601,-29.8899 179.0566,-19.5328"/>
<polygon fill="#191970" stroke="#191970" points="312.8454,-60.0708 323.4161,-59.3562 314.7069,-53.3228 312.8454,-60.0708"/>
</g>
<!-- Node5 -->
<g id="node5" class="node">
<title>Node5</title>
<g id="a_node5"><a xlink:href="Consensus_8cpp.html" target="_top" xlink:title="Consensus.cpp">
<polygon fill="none" stroke="#000000" points="210,-.5 210,-19.5 295,-19.5 295,-.5 210,-.5"/>
<text text-anchor="middle" x="252.5" y="-7.5" font-family="Helvetica,sans-Serif" font-size="10.00" fill="#000000">Consensus.cpp</text>
</a>
</g>
</g>
<!-- Node2&#45;&gt;Node5 -->
<g id="edge4" class="edge">
<title>Node2&#45;&gt;Node5</title>
<path fill="none" stroke="#191970" d="M322.1324,-51.0465C305.229,-41.0824 283.5096,-28.2794 268.8581,-19.6427"/>
<polygon fill="#191970" stroke="#191970" points="320.5602,-54.1825 330.9523,-56.2455 324.1149,-48.1522 320.5602,-54.1825"/>
</g>
<!-- Node6 -->
<g id="node6" class="node">
<title>Node6</title>
<g id="a_node6"><a xlink:href="PBTree_8cpp.html" target="_top" xlink:title="PBTree.cpp">
<polygon fill="none" stroke="#000000" points="313.5,-.5 313.5,-19.5 381.5,-19.5 381.5,-.5 313.5,-.5"/>
<text text-anchor="middle" x="347.5" y="-7.5" font-family="Helvetica,sans-Serif" font-size="10.00" fill="#000000">PBTree.cpp</text>
</a>
</g>
</g>
<!-- Node2&#45;&gt;Node6 -->
<g id="edge5" class="edge">
<title>Node2&#45;&gt;Node6</title>
<path fill="none" stroke="#191970" d="M347.5,-46.1575C347.5,-37.155 347.5,-26.9199 347.5,-19.6427"/>
<polygon fill="#191970" stroke="#191970" points="344.0001,-46.2455 347.5,-56.2455 351.0001,-46.2456 344.0001,-46.2455"/>
</g>
<!-- Node7 -->
<g id="node7" class="node">
<title>Node7</title>
<g id="a_node7"><a xlink:href="PolyNode_8cpp.html" target="_top" xlink:title="PolyNode.cpp">
<polygon fill="none" stroke="#000000" points="399.5,-.5 399.5,-19.5 477.5,-19.5 477.5,-.5 399.5,-.5"/>
<text text-anchor="middle" x="438.5" y="-7.5" font-family="Helvetica,sans-Serif" font-size="10.00" fill="#000000">PolyNode.cpp</text>
</a>
</g>
</g>
<!-- Node2&#45;&gt;Node7 -->
<g id="edge6" class="edge">
<title>Node2&#45;&gt;Node7</title>
<path fill="none" stroke="#191970" d="M372.2504,-50.769C388.3758,-40.8456 408.926,-28.1994 422.8307,-19.6427"/>
<polygon fill="#191970" stroke="#191970" points="370.0332,-48.0237 363.351,-56.2455 373.7019,-53.9853 370.0332,-48.0237"/>
</g>
<!-- Node8 -->
<g id="node8" class="node">
<title>Node8</title>
<g id="a_node8"><a xlink:href="TaxaParameters_8cpp.html" target="_top" xlink:title="TaxaParameters.cpp">
<polygon fill="none" stroke="#000000" points="496,-.5 496,-19.5 603,-19.5 603,-.5 496,-.5"/>
<text text-anchor="middle" x="549.5" y="-7.5" font-family="Helvetica,sans-Serif" font-size="10.00" fill="#000000">TaxaParameters.cpp</text>
</a>
</g>
</g>
<!-- Node2&#45;&gt;Node8 -->
<g id="edge7" class="edge">
<title>Node2&#45;&gt;Node8</title>
<path fill="none" stroke="#191970" d="M381.7136,-56.515C418.8034,-46.2327 477.6705,-29.9131 514.9077,-19.5899"/>
<polygon fill="#191970" stroke="#191970" points="380.5674,-53.2007 371.8659,-59.2451 382.4375,-59.9463 380.5674,-53.2007"/>
</g>
<!-- Node9 -->
<g id="node9" class="node">
<title>Node9</title>
<g id="a_node9"><a xlink:href="TreeList_8cpp.html" target="_top" xlink:title="TreeList.cpp">
<polygon fill="none" stroke="#000000" points="621,-.5 621,-19.5 692,-19.5 692,-.5 621,-.5"/>
<text text-anchor="middle" x="656.5" y="-7.5" font-family="Helvetica,sans-Serif" font-size="10.00" fill="#000000">TreeList.cpp</text>
</a>
</g>
</g>
<!-- Node2&#45;&gt;Node9 -->
<g id="edge8" class="edge">
<title>Node2&#45;&gt;Node9</title>
<path fill="none" stroke="#191970" d="M381.7542,-60.6337C432.3557,-52.5753 530.0019,-36.5236 612.5,-20 615.2652,-19.4462 618.1228,-18.8503 620.9922,-18.2353"/>
<polygon fill="#191970" stroke="#191970" points="381.0212,-57.2061 371.6929,-62.2292 382.1177,-64.1197 381.0212,-57.2061"/>
</g>
</g>
</svg>
