<?xml version="1.0" encoding="UTF-8" standalone="no"?>
<!DOCTYPE svg PUBLIC "-//W3C//DTD SVG 1.1//EN"
 "http://www.w3.org/Graphics/SVG/1.1/DTD/svg11.dtd">
<!-- Generated by graphviz version 2.40.1 (20161225.0304)
 -->
<!-- Title: ProfileProcess.h Pages: 1 -->
<svg width="1946pt" height="531pt"
 viewBox="0.00 0.00 1945.50 531.00" xmlns="http://www.w3.org/2000/svg" xmlns:xlink="http://www.w3.org/1999/xlink">
<g id="graph0" class="graph" transform="scale(1 1) rotate(0) translate(4 527)">
<title>ProfileProcess.h</title>
<!-- Node10 -->
<g id="node1" class="node">
<title>Node10</title>
<polygon fill="#bfbfbf" stroke="#000000" points="1219,-503.5 1219,-522.5 1308,-522.5 1308,-503.5 1219,-503.5"/>
<text text-anchor="middle" x="1263.5" y="-510.5" font-family="Helvetica,sans-Serif" font-size="10.00" fill="#000000">ProfileProcess.h</text>
</g>
<!-- Node11 -->
<g id="node2" class="node">
<title>Node11</title>
<g id="a_node2"><a xlink:href="MixtureProfileProcess_8h.html" target="_top" xlink:title="MixtureProfileProcess.h">
<polygon fill="none" stroke="#000000" points="310,-447.5 310,-466.5 431,-466.5 431,-447.5 310,-447.5"/>
<text text-anchor="middle" x="370.5" y="-454.5" font-family="Helvetica,sans-Serif" font-size="10.00" fill="#000000">MixtureProfileProcess.h</text>
</a>
</g>
</g>
<!-- Node10&#45;&gt;Node11 -->
<g id="edge1" class="edge">
<title>Node10&#45;&gt;Node11</title>
<path fill="none" stroke="#191970" d="M1208.4955,-509.5507C1050.4889,-499.6421 596.0545,-471.1445 431.1807,-460.8053"/>
<polygon fill="#191970" stroke="#191970" points="1208.711,-513.071 1218.9105,-510.2038 1209.1492,-506.0847 1208.711,-513.071"/>
</g>
<!-- Node33 -->
<g id="node24" class="node">
<title>Node33</title>
<g id="a_node24"><a xlink:href="MatrixProfileProcess_8h.html" target="_top" xlink:title="MatrixProfileProcess.h">
<polygon fill="none" stroke="#000000" points="1057.5,-447.5 1057.5,-466.5 1173.5,-466.5 1173.5,-447.5 1057.5,-447.5"/>
<text text-anchor="middle" x="1115.5" y="-454.5" font-family="Helvetica,sans-Serif" font-size="10.00" fill="#000000">MatrixProfileProcess.h</text>
</a>
</g>
</g>
<!-- Node10&#45;&gt;Node33 -->
<g id="edge25" class="edge">
<title>Node10&#45;&gt;Node33</title>
<path fill="none" stroke="#191970" d="M1228.5847,-499.7888C1201.5617,-489.5639 1164.786,-475.6488 1140.6101,-466.5011"/>
<polygon fill="#191970" stroke="#191970" points="1227.4664,-503.1078 1238.0579,-503.3733 1229.9437,-496.5608 1227.4664,-503.1078"/>
</g>
<!-- Node54 -->
<g id="node45" class="node">
<title>Node54</title>
<g id="a_node45"><a xlink:href="SubstitutionProcess_8h.html" target="_top" xlink:title="SubstitutionProcess.h">
<polygon fill="none" stroke="#000000" points="1286,-447.5 1286,-466.5 1399,-466.5 1399,-447.5 1286,-447.5"/>
<text text-anchor="middle" x="1342.5" y="-454.5" font-family="Helvetica,sans-Serif" font-size="10.00" fill="#000000">SubstitutionProcess.h</text>
</a>
</g>
</g>
<!-- Node10&#45;&gt;Node54 -->
<g id="edge57" class="edge">
<title>Node10&#45;&gt;Node54</title>
<path fill="none" stroke="#191970" d="M1285.7756,-497.2097C1299.6505,-487.3743 1317.0515,-475.0394 1328.8969,-466.6427"/>
<polygon fill="#191970" stroke="#191970" points="1283.3949,-494.6071 1277.2607,-503.2455 1287.4431,-500.3178 1283.3949,-494.6071"/>
</g>
<!-- Node59 -->
<g id="node50" class="node">
<title>Node59</title>
<g id="a_node50"><a xlink:href="ProfileProcess_8cpp.html" target="_top" xlink:title="ProfileProcess.cpp">
<polygon fill="none" stroke="#000000" points="1417,-447.5 1417,-466.5 1516,-466.5 1516,-447.5 1417,-447.5"/>
<text text-anchor="middle" x="1466.5" y="-454.5" font-family="Helvetica,sans-Serif" font-size="10.00" fill="#000000">ProfileProcess.cpp</text>
</a>
</g>
</g>
<!-- Node10&#45;&gt;Node59 -->
<g id="edge64" class="edge">
<title>Node10&#45;&gt;Node59</title>
<path fill="none" stroke="#191970" d="M1308.4927,-500.5882C1345.7891,-490.2996 1398.0256,-475.8895 1432.0584,-466.5011"/>
<polygon fill="#191970" stroke="#191970" points="1307.1061,-497.3399 1298.3969,-503.3733 1308.9676,-504.0879 1307.1061,-497.3399"/>
</g>
<!-- Node12 -->
<g id="node3" class="node">
<title>Node12</title>
<g id="a_node3"><a xlink:href="DPProfileProcess_8h.html" target="_top" xlink:title="DPProfileProcess.h">
<polygon fill="none" stroke="#000000" points="193,-386 193,-405 296,-405 296,-386 193,-386"/>
<text text-anchor="middle" x="244.5" y="-393" font-family="Helvetica,sans-Serif" font-size="10.00" fill="#000000">DPProfileProcess.h</text>
</a>
</g>
</g>
<!-- Node11&#45;&gt;Node12 -->
<g id="edge2" class="edge">
<title>Node11&#45;&gt;Node12</title>
<path fill="none" stroke="#191970" d="M341.5739,-442.8813C317.8119,-431.2832 284.7997,-415.1701 264.0493,-405.0419"/>
<polygon fill="#191970" stroke="#191970" points="340.2906,-446.1496 350.8125,-447.3906 343.3611,-439.8589 340.2906,-446.1496"/>
</g>
<!-- Node24 -->
<g id="node15" class="node">
<title>Node24</title>
<g id="a_node15"><a xlink:href="MatrixMixtureProfileProcess_8h.html" target="_top" xlink:title="MatrixMixtureProfileProcess.h">
<polygon fill="none" stroke="#000000" points="422.5,-386 422.5,-405 570.5,-405 570.5,-386 422.5,-386"/>
<text text-anchor="middle" x="496.5" y="-393" font-family="Helvetica,sans-Serif" font-size="10.00" fill="#000000">MatrixMixtureProfileProcess.h</text>
</a>
</g>
</g>
<!-- Node11&#45;&gt;Node24 -->
<g id="edge14" class="edge">
<title>Node11&#45;&gt;Node24</title>
<path fill="none" stroke="#191970" d="M399.4261,-442.8813C423.1881,-431.2832 456.2003,-415.1701 476.9507,-405.0419"/>
<polygon fill="#191970" stroke="#191970" points="397.6389,-439.8589 390.1875,-447.3906 400.7094,-446.1496 397.6389,-439.8589"/>
</g>
<!-- Node32 -->
<g id="node23" class="node">
<title>Node32</title>
<g id="a_node23"><a xlink:href="MixtureProfileProcess_8cpp.html" target="_top" xlink:title="MixtureProfileProcess.cpp">
<polygon fill="none" stroke="#000000" points="44,-386 44,-405 175,-405 175,-386 44,-386"/>
<text text-anchor="middle" x="109.5" y="-393" font-family="Helvetica,sans-Serif" font-size="10.00" fill="#000000">MixtureProfileProcess.cpp</text>
</a>
</g>
</g>
<!-- Node11&#45;&gt;Node32 -->
<g id="edge24" class="edge">
<title>Node11&#45;&gt;Node32</title>
<path fill="none" stroke="#191970" d="M320.1433,-445.1343C270.6111,-433.463 195.9424,-415.8686 150.0899,-405.0643"/>
<polygon fill="#191970" stroke="#191970" points="319.4689,-448.5712 330.0051,-447.4581 321.0744,-441.7578 319.4689,-448.5712"/>
</g>
<!-- Node13 -->
<g id="node4" class="node">
<title>Node13</title>
<g id="a_node4"><a xlink:href="DPProfileProcess_8cpp.html" target="_top" xlink:title="DPProfileProcess.cpp">
<polygon fill="none" stroke="#000000" points="0,-319 0,-338 113,-338 113,-319 0,-319"/>
<text text-anchor="middle" x="56.5" y="-326" font-family="Helvetica,sans-Serif" font-size="10.00" fill="#000000">DPProfileProcess.cpp</text>
</a>
</g>
</g>
<!-- Node12&#45;&gt;Node13 -->
<g id="edge3" class="edge">
<title>Node12&#45;&gt;Node13</title>
<path fill="none" stroke="#191970" d="M207.7866,-382.416C171.2439,-369.3928 116.0303,-349.7156 83.3858,-338.0817"/>
<polygon fill="#191970" stroke="#191970" points="206.9695,-385.8403 217.5642,-385.9005 209.3195,-379.2466 206.9695,-385.8403"/>
</g>
<!-- Node14 -->
<g id="node5" class="node">
<title>Node14</title>
<g id="a_node5"><a xlink:href="SBDPProfileProcess_8h.html" target="_top" xlink:title="SBDPProfileProcess.h">
<polygon fill="none" stroke="#000000" points="131.5,-319 131.5,-338 247.5,-338 247.5,-319 131.5,-319"/>
<text text-anchor="middle" x="189.5" y="-326" font-family="Helvetica,sans-Serif" font-size="10.00" fill="#000000">SBDPProfileProcess.h</text>
</a>
</g>
</g>
<!-- Node12&#45;&gt;Node14 -->
<g id="edge4" class="edge">
<title>Node12&#45;&gt;Node14</title>
<path fill="none" stroke="#191970" d="M230.0101,-377.8486C219.5607,-365.1194 205.8546,-348.4229 197.3655,-338.0817"/>
<polygon fill="#191970" stroke="#191970" points="227.5696,-380.392 236.6198,-385.9005 232.9801,-375.9505 227.5696,-380.392"/>
</g>
<!-- Node15 -->
<g id="node6" class="node">
<title>Node15</title>
<g id="a_node6"><a xlink:href="MatrixSBDPProfileProcess_8h.html" target="_top" xlink:title="MatrixSBDPProfileProcess.h">
<polygon fill="none" stroke="#000000" points="204,-252 204,-271 347,-271 347,-252 204,-252"/>
<text text-anchor="middle" x="275.5" y="-259" font-family="Helvetica,sans-Serif" font-size="10.00" fill="#000000">MatrixSBDPProfileProcess.h</text>
</a>
</g>
</g>
<!-- Node14&#45;&gt;Node15 -->
<g id="edge5" class="edge">
<title>Node14&#45;&gt;Node15</title>
<path fill="none" stroke="#191970" d="M209.8372,-312.6559C226.4165,-299.7395 249.2891,-281.9201 263.2012,-271.0817"/>
<polygon fill="#191970" stroke="#191970" points="207.5593,-309.9937 201.8217,-318.9005 211.8613,-315.5158 207.5593,-309.9937"/>
</g>
<!-- Node23 -->
<g id="node14" class="node">
<title>Node23</title>
<g id="a_node14"><a xlink:href="SBDPProfileProcess_8cpp.html" target="_top" xlink:title="SBDPProfileProcess.cpp">
<polygon fill="none" stroke="#000000" points="59,-252 59,-271 186,-271 186,-252 59,-252"/>
<text text-anchor="middle" x="122.5" y="-259" font-family="Helvetica,sans-Serif" font-size="10.00" fill="#000000">SBDPProfileProcess.cpp</text>
</a>
</g>
</g>
<!-- Node14&#45;&gt;Node23 -->
<g id="edge13" class="edge">
<title>Node14&#45;&gt;Node23</title>
<path fill="none" stroke="#191970" d="M172.5785,-311.5785C159.7639,-298.7639 142.6218,-281.6218 132.0817,-271.0817"/>
<polygon fill="#191970" stroke="#191970" points="170.3546,-314.3043 179.9005,-318.9005 175.3043,-309.3546 170.3546,-314.3043"/>
</g>
<!-- Node16 -->
<g id="node7" class="node">
<title>Node16</title>
<g id="a_node7"><a xlink:href="ExpoConjugateGTRSBDPProfileProcess_8h.html" target="_top" xlink:title="ExpoConjugateGTRSBDPProfile\lProcess.h">
<polygon fill="none" stroke="#000000" points="541.5,-179.5 541.5,-209.5 701.5,-209.5 701.5,-179.5 541.5,-179.5"/>
<text text-anchor="start" x="549.5" y="-197.5" font-family="Helvetica,sans-Serif" font-size="10.00" fill="#000000">ExpoConjugateGTRSBDPProfile</text>
<text text-anchor="middle" x="621.5" y="-186.5" font-family="Helvetica,sans-Serif" font-size="10.00" fill="#000000">Process.h</text>
</a>
</g>
</g>
<!-- Node15&#45;&gt;Node16 -->
<g id="edge6" class="edge">
<title>Node15&#45;&gt;Node16</title>
<path fill="none" stroke="#191970" d="M334.7585,-250.0251C392.4537,-238.8529 480.4591,-221.8114 543.7515,-209.5553"/>
<polygon fill="#191970" stroke="#191970" points="333.8581,-246.6343 324.7059,-251.9717 335.189,-253.5067 333.8581,-246.6343"/>
</g>
<!-- Node22 -->
<g id="node13" class="node">
<title>Node22</title>
<g id="a_node13"><a xlink:href="MatrixSBDPProfileProcess_8cpp.html" target="_top" xlink:title="MatrixSBDPProfileProcess.cpp">
<polygon fill="none" stroke="#000000" points="198.5,-185 198.5,-204 352.5,-204 352.5,-185 198.5,-185"/>
<text text-anchor="middle" x="275.5" y="-192" font-family="Helvetica,sans-Serif" font-size="10.00" fill="#000000">MatrixSBDPProfileProcess.cpp</text>
</a>
</g>
</g>
<!-- Node15&#45;&gt;Node22 -->
<g id="edge12" class="edge">
<title>Node15&#45;&gt;Node22</title>
<path fill="none" stroke="#191970" d="M275.5,-241.6079C275.5,-229.214 275.5,-213.8263 275.5,-204.0817"/>
<polygon fill="#191970" stroke="#191970" points="272.0001,-241.9005 275.5,-251.9005 279.0001,-241.9006 272.0001,-241.9005"/>
</g>
<!-- Node17 -->
<g id="node8" class="node">
<title>Node17</title>
<g id="a_node8"><a xlink:href="ExpoConjugateGTRSBDPProfileProcess_8cpp.html" target="_top" xlink:title="ExpoConjugateGTRSBDPProfile\lProcess.cpp">
<polygon fill="none" stroke="#000000" points="541.5,-112.5 541.5,-142.5 701.5,-142.5 701.5,-112.5 541.5,-112.5"/>
<text text-anchor="start" x="549.5" y="-130.5" font-family="Helvetica,sans-Serif" font-size="10.00" fill="#000000">ExpoConjugateGTRSBDPProfile</text>
<text text-anchor="middle" x="621.5" y="-119.5" font-family="Helvetica,sans-Serif" font-size="10.00" fill="#000000">Process.cpp</text>
</a>
</g>
</g>
<!-- Node16&#45;&gt;Node17 -->
<g id="edge7" class="edge">
<title>Node16&#45;&gt;Node17</title>
<path fill="none" stroke="#191970" d="M621.5,-169.0249C621.5,-160.128 621.5,-150.4287 621.5,-142.6432"/>
<polygon fill="#191970" stroke="#191970" points="618.0001,-169.2966 621.5,-179.2967 625.0001,-169.2967 618.0001,-169.2966"/>
</g>
<!-- Node18 -->
<g id="node9" class="node">
<title>Node18</title>
<g id="a_node9"><a xlink:href="RASCATGTRSBDPGammaPhyloProcess_8h.html" target="_top" xlink:title="RASCATGTRSBDPGammaPhyloProcess.h">
<polygon fill="none" stroke="#000000" points="813.5,-118 813.5,-137 1023.5,-137 1023.5,-118 813.5,-118"/>
<text text-anchor="middle" x="918.5" y="-125" font-family="Helvetica,sans-Serif" font-size="10.00" fill="#000000">RASCATGTRSBDPGammaPhyloProcess.h</text>
</a>
</g>
</g>
<!-- Node16&#45;&gt;Node18 -->
<g id="edge8" class="edge">
<title>Node16&#45;&gt;Node18</title>
<path fill="none" stroke="#191970" d="M698.1662,-177.2049C754.923,-164.4012 830.1223,-147.4371 876.3646,-137.0053"/>
<polygon fill="#191970" stroke="#191970" points="697.1372,-173.849 688.1526,-179.4639 698.6777,-180.6774 697.1372,-173.849"/>
</g>
<!-- Node19 -->
<g id="node10" class="node">
<title>Node19</title>
<g id="a_node10"><a xlink:href="Model_8h.html" target="_top" xlink:title="Model.h">
<polygon fill="none" stroke="#000000" points="816,-56.5 816,-75.5 867,-75.5 867,-56.5 816,-56.5"/>
<text text-anchor="middle" x="841.5" y="-63.5" font-family="Helvetica,sans-Serif" font-size="10.00" fill="#000000">Model.h</text>
</a>
</g>
</g>
<!-- Node18&#45;&gt;Node19 -->
<g id="edge9" class="edge">
<title>Node18&#45;&gt;Node19</title>
<path fill="none" stroke="#191970" d="M898.6542,-111.6491C884.347,-100.222 865.5076,-85.1749 853.4468,-75.5419"/>
<polygon fill="#191970" stroke="#191970" points="896.4708,-114.3846 906.4688,-117.8906 900.8394,-108.915 896.4708,-114.3846"/>
</g>
<!-- Node21 -->
<g id="node12" class="node">
<title>Node21</title>
<g id="a_node12"><a xlink:href="RASCATGTRSBDPGammaPhyloProcess_8cpp.html" target="_top" xlink:title="RASCATGTRSBDPGammaPhyloProcess.cpp">
<polygon fill="none" stroke="#000000" points="885,-56.5 885,-75.5 1106,-75.5 1106,-56.5 885,-56.5"/>
<text text-anchor="middle" x="995.5" y="-63.5" font-family="Helvetica,sans-Serif" font-size="10.00" fill="#000000">RASCATGTRSBDPGammaPhyloProcess.cpp</text>
</a>
</g>
</g>
<!-- Node18&#45;&gt;Node21 -->
<g id="edge11" class="edge">
<title>Node18&#45;&gt;Node21</title>
<path fill="none" stroke="#191970" d="M938.3458,-111.6491C952.653,-100.222 971.4924,-85.1749 983.5532,-75.5419"/>
<polygon fill="#191970" stroke="#191970" points="936.1606,-108.915 930.5313,-117.8906 940.5292,-114.3846 936.1606,-108.915"/>
</g>
<!-- Node20 -->
<g id="node11" class="node">
<title>Node20</title>
<g id="a_node11"><a xlink:href="PB_8cpp.html" target="_top" xlink:title="PB.cpp">
<polygon fill="none" stroke="#000000" points="817,-.5 817,-19.5 866,-19.5 866,-.5 817,-.5"/>
<text text-anchor="middle" x="841.5" y="-7.5" font-family="Helvetica,sans-Serif" font-size="10.00" fill="#000000">PB.cpp</text>
</a>
</g>
</g>
<!-- Node19&#45;&gt;Node20 -->
<g id="edge10" class="edge">
<title>Node19&#45;&gt;Node20</title>
<path fill="none" stroke="#191970" d="M841.5,-46.1575C841.5,-37.155 841.5,-26.9199 841.5,-19.6427"/>
<polygon fill="#191970" stroke="#191970" points="838.0001,-46.2455 841.5,-56.2455 845.0001,-46.2456 838.0001,-46.2455"/>
</g>
<!-- Node24&#45;&gt;Node15 -->
<g id="edge20" class="edge">
<title>Node24&#45;&gt;Node15</title>
<path fill="none" stroke="#191970" d="M418.9273,-384.2338C369.6701,-375.5226 312.0094,-361.9218 294.5,-344 274.9845,-324.0249 273.9713,-288.2559 274.746,-271.1401"/>
<polygon fill="#191970" stroke="#191970" points="418.5231,-387.7156 428.9722,-385.9644 419.7117,-380.8173 418.5231,-387.7156"/>
</g>
<!-- Node25 -->
<g id="node16" class="node">
<title>Node25</title>
<g id="a_node16"><a xlink:href="GTRMixtureProfileProcess_8h.html" target="_top" xlink:title="GTRMixtureProfileProcess.h">
<polygon fill="none" stroke="#000000" points="479.5,-319 479.5,-338 621.5,-338 621.5,-319 479.5,-319"/>
<text text-anchor="middle" x="550.5" y="-326" font-family="Helvetica,sans-Serif" font-size="10.00" fill="#000000">GTRMixtureProfileProcess.h</text>
</a>
</g>
</g>
<!-- Node24&#45;&gt;Node25 -->
<g id="edge15" class="edge">
<title>Node24&#45;&gt;Node25</title>
<path fill="none" stroke="#191970" d="M510.7265,-377.8486C520.9859,-365.1194 534.4427,-348.4229 542.7775,-338.0817"/>
<polygon fill="#191970" stroke="#191970" points="507.7871,-375.9182 504.2369,-385.9005 513.2373,-380.3109 507.7871,-375.9182"/>
</g>
<!-- Node29 -->
<g id="node20" class="node">
<title>Node29</title>
<g id="a_node20"><a xlink:href="GeneralPathSuffStatMatrixMixtureProfileProcess_8h.html" target="_top" xlink:title="GeneralPathSuffStatMatrix\lMixtureProfileProcess.h">
<polygon fill="none" stroke="#000000" points="639.5,-313.5 639.5,-343.5 773.5,-343.5 773.5,-313.5 639.5,-313.5"/>
<text text-anchor="start" x="647.5" y="-331.5" font-family="Helvetica,sans-Serif" font-size="10.00" fill="#000000">GeneralPathSuffStatMatrix</text>
<text text-anchor="middle" x="706.5" y="-320.5" font-family="Helvetica,sans-Serif" font-size="10.00" fill="#000000">MixtureProfileProcess.h</text>
</a>
</g>
</g>
<!-- Node24&#45;&gt;Node29 -->
<g id="edge21" class="edge">
<title>Node24&#45;&gt;Node29</title>
<path fill="none" stroke="#191970" d="M536.4646,-382.7494C571.4853,-371.5761 622.4284,-355.3229 659.4169,-343.5218"/>
<polygon fill="#191970" stroke="#191970" points="535.0509,-379.5265 526.5879,-385.9005 537.1786,-386.1953 535.0509,-379.5265"/>
</g>
<!-- Node31 -->
<g id="node22" class="node">
<title>Node31</title>
<g id="a_node22"><a xlink:href="MatrixMixtureProfileProcess_8cpp.html" target="_top" xlink:title="MatrixMixtureProfileProcess.cpp">
<polygon fill="none" stroke="#000000" points="303.5,-319 303.5,-338 461.5,-338 461.5,-319 303.5,-319"/>
<text text-anchor="middle" x="382.5" y="-326" font-family="Helvetica,sans-Serif" font-size="10.00" fill="#000000">MatrixMixtureProfileProcess.cpp</text>
</a>
</g>
</g>
<!-- Node24&#45;&gt;Node31 -->
<g id="edge23" class="edge">
<title>Node24&#45;&gt;Node31</title>
<path fill="none" stroke="#191970" d="M471.3367,-380.711C449.2421,-367.7256 417.7522,-349.2184 398.8031,-338.0817"/>
<polygon fill="#191970" stroke="#191970" points="469.7718,-383.851 480.1666,-385.9005 473.3187,-377.8161 469.7718,-383.851"/>
</g>
<!-- Node26 -->
<g id="node17" class="node">
<title>Node26</title>
<g id="a_node17"><a xlink:href="ExpoConjugateGTRMixtureProfileProcess_8h.html" target="_top" xlink:title="ExpoConjugateGTRMixtureProfile\lProcess.h">
<polygon fill="none" stroke="#000000" points="687.5,-246.5 687.5,-276.5 851.5,-276.5 851.5,-246.5 687.5,-246.5"/>
<text text-anchor="start" x="695.5" y="-264.5" font-family="Helvetica,sans-Serif" font-size="10.00" fill="#000000">ExpoConjugateGTRMixtureProfile</text>
<text text-anchor="middle" x="769.5" y="-253.5" font-family="Helvetica,sans-Serif" font-size="10.00" fill="#000000">Process.h</text>
</a>
</g>
</g>
<!-- Node25&#45;&gt;Node26 -->
<g id="edge16" class="edge">
<title>Node25&#45;&gt;Node26</title>
<path fill="none" stroke="#191970" d="M591.7081,-315.893C628.2427,-304.7157 681.6597,-288.3735 720.399,-276.5218"/>
<polygon fill="#191970" stroke="#191970" points="590.4159,-312.6281 581.8774,-318.9005 592.4638,-319.3218 590.4159,-312.6281"/>
</g>
<!-- Node28 -->
<g id="node19" class="node">
<title>Node28</title>
<g id="a_node19"><a xlink:href="GTRMixtureProfileProcess_8cpp.html" target="_top" xlink:title="GTRMixtureProfileProcess.cpp">
<polygon fill="none" stroke="#000000" points="365.5,-252 365.5,-271 517.5,-271 517.5,-252 365.5,-252"/>
<text text-anchor="middle" x="441.5" y="-259" font-family="Helvetica,sans-Serif" font-size="10.00" fill="#000000">GTRMixtureProfileProcess.cpp</text>
</a>
</g>
</g>
<!-- Node25&#45;&gt;Node28 -->
<g id="edge19" class="edge">
<title>Node25&#45;&gt;Node28</title>
<path fill="none" stroke="#191970" d="M526.1569,-313.5368C505.0463,-300.5605 475.1252,-282.1687 457.0881,-271.0817"/>
<polygon fill="#191970" stroke="#191970" points="524.5308,-316.6456 534.883,-318.9005 528.1965,-310.6821 524.5308,-316.6456"/>
</g>
<!-- Node26&#45;&gt;Node16 -->
<g id="edge18" class="edge">
<title>Node26&#45;&gt;Node16</title>
<path fill="none" stroke="#191970" d="M727.1173,-242.3132C704.1739,-231.9267 676.2366,-219.2794 654.859,-209.6017"/>
<polygon fill="#191970" stroke="#191970" points="725.7325,-245.5282 736.2859,-246.4639 728.6194,-239.1512 725.7325,-245.5282"/>
</g>
<!-- Node27 -->
<g id="node18" class="node">
<title>Node27</title>
<g id="a_node18"><a xlink:href="ExpoConjugateGTRMixtureProfileProcess_8cpp.html" target="_top" xlink:title="ExpoConjugateGTRMixtureProfile\lProcess.cpp">
<polygon fill="none" stroke="#000000" points="719.5,-179.5 719.5,-209.5 883.5,-209.5 883.5,-179.5 719.5,-179.5"/>
<text text-anchor="start" x="727.5" y="-197.5" font-family="Helvetica,sans-Serif" font-size="10.00" fill="#000000">ExpoConjugateGTRMixtureProfile</text>
<text text-anchor="middle" x="801.5" y="-186.5" font-family="Helvetica,sans-Serif" font-size="10.00" fill="#000000">Process.cpp</text>
</a>
</g>
</g>
<!-- Node26&#45;&gt;Node27 -->
<g id="edge17" class="edge">
<title>Node26&#45;&gt;Node27</title>
<path fill="none" stroke="#191970" d="M781.1092,-237.1932C785.5075,-227.9844 790.3855,-217.771 794.2674,-209.6432"/>
<polygon fill="#191970" stroke="#191970" points="777.9129,-235.7646 776.7613,-246.2967 784.2294,-238.7815 777.9129,-235.7646"/>
</g>
<!-- Node30 -->
<g id="node21" class="node">
<title>Node30</title>
<g id="a_node21"><a xlink:href="GeneralPathSuffStatMatrixMixtureProfileProcess_8cpp.html" target="_top" xlink:title="GeneralPathSuffStatMatrix\lMixtureProfileProcess.cpp">
<polygon fill="none" stroke="#000000" points="535.5,-246.5 535.5,-276.5 669.5,-276.5 669.5,-246.5 535.5,-246.5"/>
<text text-anchor="start" x="543.5" y="-264.5" font-family="Helvetica,sans-Serif" font-size="10.00" fill="#000000">GeneralPathSuffStatMatrix</text>
<text text-anchor="middle" x="602.5" y="-253.5" font-family="Helvetica,sans-Serif" font-size="10.00" fill="#000000">MixtureProfileProcess.cpp</text>
</a>
</g>
</g>
<!-- Node29&#45;&gt;Node30 -->
<g id="edge22" class="edge">
<title>Node29&#45;&gt;Node30</title>
<path fill="none" stroke="#191970" d="M674.361,-307.7951C658.7777,-297.7558 640.3939,-285.9124 626.1216,-276.7177"/>
<polygon fill="#191970" stroke="#191970" points="672.8583,-310.9904 683.1604,-313.4639 676.6494,-305.1058 672.8583,-310.9904"/>
</g>
<!-- Node33&#45;&gt;Node24 -->
<g id="edge44" class="edge">
<title>Node33&#45;&gt;Node24</title>
<path fill="none" stroke="#191970" d="M1046.9901,-450.1933C929.78,-438.548 691.7351,-414.8974 570.7225,-402.8743"/>
<polygon fill="#191970" stroke="#191970" points="1046.9689,-453.7083 1057.266,-451.2142 1047.661,-446.7426 1046.9689,-453.7083"/>
</g>
<!-- Node34 -->
<g id="node25" class="node">
<title>Node34</title>
<g id="a_node25"><a xlink:href="GTRProfileProcess_8h.html" target="_top" xlink:title="GTRProfileProcess.h">
<polygon fill="none" stroke="#000000" points="990.5,-386 990.5,-405 1100.5,-405 1100.5,-386 990.5,-386"/>
<text text-anchor="middle" x="1045.5" y="-393" font-family="Helvetica,sans-Serif" font-size="10.00" fill="#000000">GTRProfileProcess.h</text>
</a>
</g>
</g>
<!-- Node33&#45;&gt;Node34 -->
<g id="edge26" class="edge">
<title>Node33&#45;&gt;Node34</title>
<path fill="none" stroke="#191970" d="M1096.7743,-440.5482C1083.9485,-429.2798 1067.3719,-414.716 1056.5917,-405.2449"/>
<polygon fill="#191970" stroke="#191970" points="1094.7399,-443.4197 1104.5625,-447.3906 1099.3601,-438.161 1094.7399,-443.4197"/>
</g>
<!-- Node47 -->
<g id="node38" class="node">
<title>Node47</title>
<g id="a_node38"><a xlink:href="MatrixSubstitutionProcess_8h.html" target="_top" xlink:title="MatrixSubstitutionProcess.h">
<polygon fill="none" stroke="#000000" points="1272.5,-386 1272.5,-405 1412.5,-405 1412.5,-386 1272.5,-386"/>
<text text-anchor="middle" x="1342.5" y="-393" font-family="Helvetica,sans-Serif" font-size="10.00" fill="#000000">MatrixSubstitutionProcess.h</text>
</a>
</g>
</g>
<!-- Node33&#45;&gt;Node47 -->
<g id="edge45" class="edge">
<title>Node33&#45;&gt;Node47</title>
<path fill="none" stroke="#191970" d="M1160.6389,-444.7707C1203.7458,-433.092 1267.8197,-415.7328 1307.2803,-405.0419"/>
<polygon fill="#191970" stroke="#191970" points="1159.7055,-441.3974 1150.9688,-447.3906 1161.5361,-448.1538 1159.7055,-441.3974"/>
</g>
<!-- Node52 -->
<g id="node43" class="node">
<title>Node52</title>
<g id="a_node43"><a xlink:href="GeneralPathSuffStatMatrixProfileProcess_8h.html" target="_top" xlink:title="GeneralPathSuffStatMatrix\lProfileProcess.h">
<polygon fill="none" stroke="#000000" points="1118.5,-380.5 1118.5,-410.5 1252.5,-410.5 1252.5,-380.5 1118.5,-380.5"/>
<text text-anchor="start" x="1126.5" y="-398.5" font-family="Helvetica,sans-Serif" font-size="10.00" fill="#000000">GeneralPathSuffStatMatrix</text>
<text text-anchor="middle" x="1185.5" y="-387.5" font-family="Helvetica,sans-Serif" font-size="10.00" fill="#000000">ProfileProcess.h</text>
</a>
</g>
</g>
<!-- Node33&#45;&gt;Node52 -->
<g id="edge53" class="edge">
<title>Node33&#45;&gt;Node52</title>
<path fill="none" stroke="#191970" d="M1133.9804,-440.7637C1144.6405,-431.398 1157.9537,-419.7014 1168.3761,-410.5446"/>
<polygon fill="#191970" stroke="#191970" points="1131.6399,-438.161 1126.4375,-447.3906 1136.2601,-443.4197 1131.6399,-438.161"/>
</g>
<!-- Node53 -->
<g id="node44" class="node">
<title>Node53</title>
<g id="a_node44"><a xlink:href="MatrixProfileProcess_8cpp.html" target="_top" xlink:title="MatrixProfileProcess.cpp">
<polygon fill="none" stroke="#000000" points="846.5,-386 846.5,-405 972.5,-405 972.5,-386 846.5,-386"/>
<text text-anchor="middle" x="909.5" y="-393" font-family="Helvetica,sans-Serif" font-size="10.00" fill="#000000">MatrixProfileProcess.cpp</text>
</a>
</g>
</g>
<!-- Node33&#45;&gt;Node53 -->
<g id="edge56" class="edge">
<title>Node33&#45;&gt;Node53</title>
<path fill="none" stroke="#191970" d="M1073.5446,-444.4745C1034.4402,-432.8001 976.97,-415.6427 941.4615,-405.0419"/>
<polygon fill="#191970" stroke="#191970" points="1072.7291,-447.8836 1083.3125,-447.3906 1074.7317,-441.1761 1072.7291,-447.8836"/>
</g>
<!-- Node34&#45;&gt;Node25 -->
<g id="edge27" class="edge">
<title>Node34&#45;&gt;Node25</title>
<path fill="none" stroke="#191970" d="M999.6959,-383.6146C993.6038,-382.2669 987.4191,-381.0155 981.5,-380 826.9398,-353.4831 785.6318,-366.9372 630.5,-344 619.304,-342.3446 607.293,-340.2102 596.0697,-338.0577"/>
<polygon fill="#191970" stroke="#191970" points="999.2666,-387.1076 1009.7979,-385.949 1000.8427,-380.2873 999.2666,-387.1076"/>
</g>
<!-- Node35 -->
<g id="node26" class="node">
<title>Node35</title>
<g id="a_node26"><a xlink:href="ExpoConjugateGTRProfileProcess_8h.html" target="_top" xlink:title="ExpoConjugateGTRProfileProcess.h">
<polygon fill="none" stroke="#000000" points="791.5,-319 791.5,-338 967.5,-338 967.5,-319 791.5,-319"/>
<text text-anchor="middle" x="879.5" y="-326" font-family="Helvetica,sans-Serif" font-size="10.00" fill="#000000">ExpoConjugateGTRProfileProcess.h</text>
</a>
</g>
</g>
<!-- Node34&#45;&gt;Node35 -->
<g id="edge28" class="edge">
<title>Node34&#45;&gt;Node35</title>
<path fill="none" stroke="#191970" d="M1012.2519,-382.0806C979.9845,-369.057 931.8176,-349.6162 903.2396,-338.0817"/>
<polygon fill="#191970" stroke="#191970" points="1011.1331,-385.4033 1021.7162,-385.9005 1013.7531,-378.9121 1011.1331,-385.4033"/>
</g>
<!-- Node41 -->
<g id="node32" class="node">
<title>Node41</title>
<g id="a_node32"><a xlink:href="GTRSubstitutionProcess_8h.html" target="_top" xlink:title="GTRSubstitutionProcess.h">
<polygon fill="none" stroke="#000000" points="1123.5,-319 1123.5,-338 1257.5,-338 1257.5,-319 1123.5,-319"/>
<text text-anchor="middle" x="1190.5" y="-326" font-family="Helvetica,sans-Serif" font-size="10.00" fill="#000000">GTRSubstitutionProcess.h</text>
</a>
</g>
</g>
<!-- Node34&#45;&gt;Node41 -->
<g id="edge36" class="edge">
<title>Node34&#45;&gt;Node41</title>
<path fill="none" stroke="#191970" d="M1075.6423,-381.5722C1103.8127,-368.5555 1145.1237,-349.467 1169.7636,-338.0817"/>
<polygon fill="#191970" stroke="#191970" points="1073.8846,-378.5287 1066.275,-385.9005 1076.8208,-384.8831 1073.8846,-378.5287"/>
</g>
<!-- Node46 -->
<g id="node37" class="node">
<title>Node46</title>
<g id="a_node37"><a xlink:href="GTRProfileProcess_8cpp.html" target="_top" xlink:title="GTRProfileProcess.cpp">
<polygon fill="none" stroke="#000000" points="985.5,-319 985.5,-338 1105.5,-338 1105.5,-319 985.5,-319"/>
<text text-anchor="middle" x="1045.5" y="-326" font-family="Helvetica,sans-Serif" font-size="10.00" fill="#000000">GTRProfileProcess.cpp</text>
</a>
</g>
</g>
<!-- Node34&#45;&gt;Node46 -->
<g id="edge43" class="edge">
<title>Node34&#45;&gt;Node46</title>
<path fill="none" stroke="#191970" d="M1045.5,-375.6079C1045.5,-363.214 1045.5,-347.8263 1045.5,-338.0817"/>
<polygon fill="#191970" stroke="#191970" points="1042.0001,-375.9005 1045.5,-385.9005 1049.0001,-375.9006 1042.0001,-375.9005"/>
</g>
<!-- Node35&#45;&gt;Node26 -->
<g id="edge29" class="edge">
<title>Node35&#45;&gt;Node26</title>
<path fill="none" stroke="#191970" d="M854.9238,-313.5308C836.8165,-302.5019 812.2902,-287.5631 794.1626,-276.5218"/>
<polygon fill="#191970" stroke="#191970" points="853.3785,-316.6877 863.7397,-318.9005 857.0199,-310.7094 853.3785,-316.6877"/>
</g>
<!-- Node36 -->
<g id="node27" class="node">
<title>Node36</title>
<g id="a_node27"><a xlink:href="ExpoConjugateGTRSubstitutionProcess_8h.html" target="_top" xlink:title="ExpoConjugateGTRSubstitution\lProcess.h">
<polygon fill="none" stroke="#000000" points="1075.5,-246.5 1075.5,-276.5 1231.5,-276.5 1231.5,-246.5 1075.5,-246.5"/>
<text text-anchor="start" x="1083.5" y="-264.5" font-family="Helvetica,sans-Serif" font-size="10.00" fill="#000000">ExpoConjugateGTRSubstitution</text>
<text text-anchor="middle" x="1153.5" y="-253.5" font-family="Helvetica,sans-Serif" font-size="10.00" fill="#000000">Process.h</text>
</a>
</g>
</g>
<!-- Node35&#45;&gt;Node36 -->
<g id="edge30" class="edge">
<title>Node35&#45;&gt;Node36</title>
<path fill="none" stroke="#191970" d="M928.4287,-316.5357C974.1325,-305.3599 1042.535,-288.6338 1091.9304,-276.5553"/>
<polygon fill="#191970" stroke="#191970" points="927.349,-313.1965 918.4665,-318.9717 929.0117,-319.9962 927.349,-313.1965"/>
</g>
<!-- Node40 -->
<g id="node31" class="node">
<title>Node40</title>
<g id="a_node31"><a xlink:href="ExpoConjugateGTRProfileProcess_8cpp.html" target="_top" xlink:title="ExpoConjugateGTRProfileProcess.cpp">
<polygon fill="none" stroke="#000000" points="870,-252 870,-271 1057,-271 1057,-252 870,-252"/>
<text text-anchor="middle" x="963.5" y="-259" font-family="Helvetica,sans-Serif" font-size="10.00" fill="#000000">ExpoConjugateGTRProfileProcess.cpp</text>
</a>
</g>
</g>
<!-- Node35&#45;&gt;Node40 -->
<g id="edge35" class="edge">
<title>Node35&#45;&gt;Node40</title>
<path fill="none" stroke="#191970" d="M899.3642,-312.6559C915.558,-299.7395 937.8987,-281.9201 951.4872,-271.0817"/>
<polygon fill="#191970" stroke="#191970" points="897.1705,-309.9287 891.5352,-318.9005 901.5354,-315.4011 897.1705,-309.9287"/>
</g>
<!-- Node37 -->
<g id="node28" class="node">
<title>Node37</title>
<g id="a_node28"><a xlink:href="ExpoConjugateGTRPhyloProcess_8h.html" target="_top" xlink:title="ExpoConjugateGTRPhyloProcess.h">
<polygon fill="none" stroke="#000000" points="1108,-185 1108,-204 1281,-204 1281,-185 1108,-185"/>
<text text-anchor="middle" x="1194.5" y="-192" font-family="Helvetica,sans-Serif" font-size="10.00" fill="#000000">ExpoConjugateGTRPhyloProcess.h</text>
</a>
</g>
</g>
<!-- Node36&#45;&gt;Node37 -->
<g id="edge31" class="edge">
<title>Node36&#45;&gt;Node37</title>
<path fill="none" stroke="#191970" d="M1168.1865,-237.5001C1175.2572,-225.9456 1183.3337,-212.7473 1188.6529,-204.055"/>
<polygon fill="#191970" stroke="#191970" points="1165.0378,-235.9401 1162.8035,-246.2967 1171.0086,-239.5939 1165.0378,-235.9401"/>
</g>
<!-- Node39 -->
<g id="node30" class="node">
<title>Node39</title>
<g id="a_node30"><a xlink:href="ExpoConjugateGTRSubstitutionProcess_8cpp.html" target="_top" xlink:title="ExpoConjugateGTRSubstitution\lProcess.cpp">
<polygon fill="none" stroke="#000000" points="933.5,-179.5 933.5,-209.5 1089.5,-209.5 1089.5,-179.5 933.5,-179.5"/>
<text text-anchor="start" x="941.5" y="-197.5" font-family="Helvetica,sans-Serif" font-size="10.00" fill="#000000">ExpoConjugateGTRSubstitution</text>
<text text-anchor="middle" x="1011.5" y="-186.5" font-family="Helvetica,sans-Serif" font-size="10.00" fill="#000000">Process.cpp</text>
</a>
</g>
</g>
<!-- Node36&#45;&gt;Node39 -->
<g id="edge34" class="edge">
<title>Node36&#45;&gt;Node39</title>
<path fill="none" stroke="#191970" d="M1112.5747,-242.1902C1090.6989,-231.8685 1064.1504,-219.3421 1043.7525,-209.7177"/>
<polygon fill="#191970" stroke="#191970" points="1111.095,-245.362 1121.6324,-246.4639 1114.0821,-239.0313 1111.095,-245.362"/>
</g>
<!-- Node37&#45;&gt;Node18 -->
<g id="edge33" class="edge">
<title>Node37&#45;&gt;Node18</title>
<path fill="none" stroke="#191970" d="M1145.3127,-182.5596C1091.8364,-169.578 1007.4251,-149.0869 958.0624,-137.1039"/>
<polygon fill="#191970" stroke="#191970" points="1144.7056,-186.0138 1155.249,-184.9717 1146.357,-179.2114 1144.7056,-186.0138"/>
</g>
<!-- Node38 -->
<g id="node29" class="node">
<title>Node38</title>
<g id="a_node29"><a xlink:href="ExpoConjugateGTRPhyloProcess_8cpp.html" target="_top" xlink:title="ExpoConjugateGTRPhyloProcess.cpp">
<polygon fill="none" stroke="#000000" points="1102.5,-118 1102.5,-137 1286.5,-137 1286.5,-118 1102.5,-118"/>
<text text-anchor="middle" x="1194.5" y="-125" font-family="Helvetica,sans-Serif" font-size="10.00" fill="#000000">ExpoConjugateGTRPhyloProcess.cpp</text>
</a>
</g>
</g>
<!-- Node37&#45;&gt;Node38 -->
<g id="edge32" class="edge">
<title>Node37&#45;&gt;Node38</title>
<path fill="none" stroke="#191970" d="M1194.5,-174.6079C1194.5,-162.214 1194.5,-146.8263 1194.5,-137.0817"/>
<polygon fill="#191970" stroke="#191970" points="1191.0001,-174.9005 1194.5,-184.9005 1198.0001,-174.9006 1191.0001,-174.9005"/>
</g>
<!-- Node41&#45;&gt;Node36 -->
<g id="edge42" class="edge">
<title>Node41&#45;&gt;Node36</title>
<path fill="none" stroke="#191970" d="M1180.328,-310.0804C1174.4997,-299.5264 1167.2777,-286.4489 1161.7956,-276.5218"/>
<polygon fill="#191970" stroke="#191970" points="1177.3007,-311.8386 1185.1988,-318.9005 1183.4284,-308.4547 1177.3007,-311.8386"/>
</g>
<!-- Node42 -->
<g id="node33" class="node">
<title>Node42</title>
<g id="a_node33"><a xlink:href="MatrixPhyloProcess_8h.html" target="_top" xlink:title="MatrixPhyloProcess.h">
<polygon fill="none" stroke="#000000" points="1440,-252 1440,-271 1553,-271 1553,-252 1440,-252"/>
<text text-anchor="middle" x="1496.5" y="-259" font-family="Helvetica,sans-Serif" font-size="10.00" fill="#000000">MatrixPhyloProcess.h</text>
</a>
</g>
</g>
<!-- Node41&#45;&gt;Node42 -->
<g id="edge37" class="edge">
<title>Node41&#45;&gt;Node42</title>
<path fill="none" stroke="#191970" d="M1243.9284,-316.8016C1303.1538,-303.834 1397.5678,-283.1616 1452.6373,-271.1039"/>
<polygon fill="#191970" stroke="#191970" points="1243.0373,-313.4137 1234.0174,-318.9717 1244.5346,-320.2517 1243.0373,-313.4137"/>
</g>
<!-- Node42&#45;&gt;Node37 -->
<g id="edge38" class="edge">
<title>Node42&#45;&gt;Node37</title>
<path fill="none" stroke="#191970" d="M1443.77,-249.8016C1385.3188,-236.834 1292.139,-216.1616 1237.7893,-204.1039"/>
<polygon fill="#191970" stroke="#191970" points="1443.0308,-253.2226 1453.5515,-251.9717 1444.5469,-246.3888 1443.0308,-253.2226"/>
</g>
<!-- Node43 -->
<g id="node34" class="node">
<title>Node43</title>
<g id="a_node34"><a xlink:href="GeneralPathSuffStatMatrixPhyloProcess_8h.html" target="_top" xlink:title="GeneralPathSuffStatMatrix\lPhyloProcess.h">
<polygon fill="none" stroke="#000000" points="1344.5,-179.5 1344.5,-209.5 1478.5,-209.5 1478.5,-179.5 1344.5,-179.5"/>
<text text-anchor="start" x="1352.5" y="-197.5" font-family="Helvetica,sans-Serif" font-size="10.00" fill="#000000">GeneralPathSuffStatMatrix</text>
<text text-anchor="middle" x="1411.5" y="-186.5" font-family="Helvetica,sans-Serif" font-size="10.00" fill="#000000">PhyloProcess.h</text>
</a>
</g>
</g>
<!-- Node42&#45;&gt;Node43 -->
<g id="edge39" class="edge">
<title>Node42&#45;&gt;Node43</title>
<path fill="none" stroke="#191970" d="M1476.3429,-245.6115C1462.4778,-234.6825 1444.1796,-220.2592 1430.5575,-209.5218"/>
<polygon fill="#191970" stroke="#191970" points="1474.3013,-248.4588 1484.3216,-251.9005 1478.6347,-242.9613 1474.3013,-248.4588"/>
</g>
<!-- Node45 -->
<g id="node36" class="node">
<title>Node45</title>
<g id="a_node36"><a xlink:href="MatrixPhyloProcess_8cpp.html" target="_top" xlink:title="MatrixPhyloProcess.cpp">
<polygon fill="none" stroke="#000000" points="1497,-185 1497,-204 1620,-204 1620,-185 1497,-185"/>
<text text-anchor="middle" x="1558.5" y="-192" font-family="Helvetica,sans-Serif" font-size="10.00" fill="#000000">MatrixPhyloProcess.cpp</text>
</a>
</g>
</g>
<!-- Node42&#45;&gt;Node45 -->
<g id="edge41" class="edge">
<title>Node42&#45;&gt;Node45</title>
<path fill="none" stroke="#191970" d="M1512.4953,-244.2147C1524.3158,-231.441 1539.9718,-214.5224 1549.6334,-204.0817"/>
<polygon fill="#191970" stroke="#191970" points="1509.6061,-242.1837 1505.3831,-251.9005 1514.7439,-246.9381 1509.6061,-242.1837"/>
</g>
<!-- Node44 -->
<g id="node35" class="node">
<title>Node44</title>
<g id="a_node35"><a xlink:href="GeneralPathSuffStatMatrixPhyloProcess_8cpp.html" target="_top" xlink:title="GeneralPathSuffStatMatrix\lPhyloProcess.cpp">
<polygon fill="none" stroke="#000000" points="1344.5,-112.5 1344.5,-142.5 1478.5,-142.5 1478.5,-112.5 1344.5,-112.5"/>
<text text-anchor="start" x="1352.5" y="-130.5" font-family="Helvetica,sans-Serif" font-size="10.00" fill="#000000">GeneralPathSuffStatMatrix</text>
<text text-anchor="middle" x="1411.5" y="-119.5" font-family="Helvetica,sans-Serif" font-size="10.00" fill="#000000">PhyloProcess.cpp</text>
</a>
</g>
</g>
<!-- Node43&#45;&gt;Node44 -->
<g id="edge40" class="edge">
<title>Node43&#45;&gt;Node44</title>
<path fill="none" stroke="#191970" d="M1411.5,-169.0249C1411.5,-160.128 1411.5,-150.4287 1411.5,-142.6432"/>
<polygon fill="#191970" stroke="#191970" points="1408.0001,-169.2966 1411.5,-179.2967 1415.0001,-169.2967 1408.0001,-169.2966"/>
</g>
<!-- Node47&#45;&gt;Node41 -->
<g id="edge47" class="edge">
<title>Node47&#45;&gt;Node41</title>
<path fill="none" stroke="#191970" d="M1311.2886,-381.7424C1281.7508,-368.7224 1238.1797,-349.5167 1212.2375,-338.0817"/>
<polygon fill="#191970" stroke="#191970" points="1310.1599,-385.0697 1320.7221,-385.9005 1312.9833,-378.6644 1310.1599,-385.0697"/>
</g>
<!-- Node47&#45;&gt;Node42 -->
<g id="edge46" class="edge">
<title>Node47&#45;&gt;Node42</title>
<path fill="none" stroke="#191970" d="M1367.5507,-380.4751C1382.8625,-370.8262 1402.5096,-357.5918 1418.5,-344 1446.5848,-320.128 1475.2591,-287.1108 1488.676,-271.0467"/>
<polygon fill="#191970" stroke="#191970" points="1365.3058,-377.7486 1358.6485,-385.9907 1368.9926,-383.6991 1365.3058,-377.7486"/>
</g>
<!-- Node48 -->
<g id="node39" class="node">
<title>Node48</title>
<g id="a_node39"><a xlink:href="GeneralPathSuffStatMatrixSubstitutionProcess_8h.html" target="_top" xlink:title="GeneralPathSuffStatMatrix\lSubstitutionProcess.h">
<polygon fill="none" stroke="#000000" points="1275.5,-313.5 1275.5,-343.5 1409.5,-343.5 1409.5,-313.5 1275.5,-313.5"/>
<text text-anchor="start" x="1283.5" y="-331.5" font-family="Helvetica,sans-Serif" font-size="10.00" fill="#000000">GeneralPathSuffStatMatrix</text>
<text text-anchor="middle" x="1342.5" y="-320.5" font-family="Helvetica,sans-Serif" font-size="10.00" fill="#000000">SubstitutionProcess.h</text>
</a>
</g>
</g>
<!-- Node47&#45;&gt;Node48 -->
<g id="edge48" class="edge">
<title>Node47&#45;&gt;Node48</title>
<path fill="none" stroke="#191970" d="M1342.5,-375.7758C1342.5,-365.4641 1342.5,-353.0437 1342.5,-343.5218"/>
<polygon fill="#191970" stroke="#191970" points="1339.0001,-375.9005 1342.5,-385.9005 1346.0001,-375.9006 1339.0001,-375.9005"/>
</g>
<!-- Node50 -->
<g id="node41" class="node">
<title>Node50</title>
<g id="a_node41"><a xlink:href="MatrixSubstitutionProcess_8cpp.html" target="_top" xlink:title="MatrixSubstitutionProcess.cpp">
<polygon fill="none" stroke="#000000" points="1465.5,-319 1465.5,-338 1615.5,-338 1615.5,-319 1465.5,-319"/>
<text text-anchor="middle" x="1540.5" y="-326" font-family="Helvetica,sans-Serif" font-size="10.00" fill="#000000">MatrixSubstitutionProcess.cpp</text>
</a>
</g>
</g>
<!-- Node47&#45;&gt;Node50 -->
<g id="edge51" class="edge">
<title>Node47&#45;&gt;Node50</title>
<path fill="none" stroke="#191970" d="M1380.6739,-382.5826C1419.1553,-369.5611 1477.6563,-349.7653 1512.1841,-338.0817"/>
<polygon fill="#191970" stroke="#191970" points="1379.2191,-379.3798 1370.8686,-385.9005 1381.4628,-386.0105 1379.2191,-379.3798"/>
</g>
<!-- Node51 -->
<g id="node42" class="node">
<title>Node51</title>
<g id="a_node42"><a xlink:href="Propagate_8cpp.html" target="_top" xlink:title="Propagate.cpp">
<polygon fill="none" stroke="#000000" points="1633.5,-319 1633.5,-338 1713.5,-338 1713.5,-319 1633.5,-319"/>
<text text-anchor="middle" x="1673.5" y="-326" font-family="Helvetica,sans-Serif" font-size="10.00" fill="#000000">Propagate.cpp</text>
</a>
</g>
</g>
<!-- Node47&#45;&gt;Node51 -->
<g id="edge52" class="edge">
<title>Node47&#45;&gt;Node51</title>
<path fill="none" stroke="#191970" d="M1401.441,-383.9762C1408.5339,-382.6202 1415.6782,-381.2687 1422.5,-380 1512.1551,-363.3266 1535.9511,-365.7977 1624.5,-344 1631.3444,-342.3151 1638.6308,-340.1941 1645.4346,-338.0665"/>
<polygon fill="#191970" stroke="#191970" points="1400.2896,-380.6333 1391.1294,-385.957 1401.6102,-387.5076 1400.2896,-380.6333"/>
</g>
<!-- Node48&#45;&gt;Node43 -->
<g id="edge49" class="edge">
<title>Node48&#45;&gt;Node43</title>
<path fill="none" stroke="#191970" d="M1369.1954,-306.3751C1377.7878,-297.9926 1386.6017,-287.8357 1392.5,-277 1404.2351,-255.4416 1408.7451,-226.9021 1410.4625,-209.6639"/>
<polygon fill="#191970" stroke="#191970" points="1366.7289,-303.8891 1361.7804,-313.2573 1371.4909,-309.0198 1366.7289,-303.8891"/>
</g>
<!-- Node49 -->
<g id="node40" class="node">
<title>Node49</title>
<g id="a_node40"><a xlink:href="GeneralPathSuffStatMatrixSubstitutionProcess_8cpp.html" target="_top" xlink:title="GeneralPathSuffStatMatrix\lSubstitutionProcess.cpp">
<polygon fill="none" stroke="#000000" points="1249.5,-246.5 1249.5,-276.5 1383.5,-276.5 1383.5,-246.5 1249.5,-246.5"/>
<text text-anchor="start" x="1257.5" y="-264.5" font-family="Helvetica,sans-Serif" font-size="10.00" fill="#000000">GeneralPathSuffStatMatrix</text>
<text text-anchor="middle" x="1316.5" y="-253.5" font-family="Helvetica,sans-Serif" font-size="10.00" fill="#000000">SubstitutionProcess.cpp</text>
</a>
</g>
</g>
<!-- Node48&#45;&gt;Node49 -->
<g id="edge50" class="edge">
<title>Node48&#45;&gt;Node49</title>
<path fill="none" stroke="#191970" d="M1332.9546,-303.9021C1329.4106,-294.7696 1325.4973,-284.6854 1322.3765,-276.6432"/>
<polygon fill="#191970" stroke="#191970" points="1329.7195,-305.2402 1336.6002,-313.2967 1336.2453,-302.7078 1329.7195,-305.2402"/>
</g>
<!-- Node52&#45;&gt;Node29 -->
<g id="edge54" class="edge">
<title>Node52&#45;&gt;Node29</title>
<path fill="none" stroke="#191970" d="M1108.2608,-379.8986C963.2857,-357.7674 923.7046,-366.1243 782.5,-344 779.5732,-343.5414 776.5881,-343.0472 773.5765,-342.5268"/>
<polygon fill="#191970" stroke="#191970" points="1108.0055,-383.4008 1118.4235,-381.4732 1109.0774,-376.4833 1108.0055,-383.4008"/>
</g>
<!-- Node52&#45;&gt;Node48 -->
<g id="edge55" class="edge">
<title>Node52&#45;&gt;Node48</title>
<path fill="none" stroke="#191970" d="M1230.1359,-376.4516C1254.535,-366.0392 1284.334,-353.3224 1307.1125,-343.6017"/>
<polygon fill="#191970" stroke="#191970" points="1228.5576,-373.3197 1220.7339,-380.4639 1231.3052,-379.7579 1228.5576,-373.3197"/>
</g>
<!-- Node54&#45;&gt;Node47 -->
<g id="edge62" class="edge">
<title>Node54&#45;&gt;Node47</title>
<path fill="none" stroke="#191970" d="M1342.5,-437.2462C1342.5,-426.5519 1342.5,-413.814 1342.5,-405.2449"/>
<polygon fill="#191970" stroke="#191970" points="1339.0001,-437.3906 1342.5,-447.3906 1346.0001,-437.3907 1339.0001,-437.3906"/>
</g>
<!-- Node55 -->
<g id="node46" class="node">
<title>Node55</title>
<g id="a_node46"><a xlink:href="PhyloProcess_8h.html" target="_top" xlink:title="PhyloProcess.h">
<polygon fill="none" stroke="#000000" points="1725.5,-386 1725.5,-405 1811.5,-405 1811.5,-386 1725.5,-386"/>
<text text-anchor="middle" x="1768.5" y="-393" font-family="Helvetica,sans-Serif" font-size="10.00" fill="#000000">PhyloProcess.h</text>
</a>
</g>
</g>
<!-- Node54&#45;&gt;Node55 -->
<g id="edge58" class="edge">
<title>Node54&#45;&gt;Node55</title>
<path fill="none" stroke="#191970" d="M1409.1985,-446.9068C1530.1303,-429.1282 1659.4996,-410.8219 1725.2597,-401.5679"/>
<polygon fill="#191970" stroke="#191970" points="1408.4048,-443.4858 1399.0211,-448.4048 1409.4241,-450.4112 1408.4048,-443.4858"/>
</g>
<!-- Node58 -->
<g id="node49" class="node">
<title>Node58</title>
<g id="a_node49"><a xlink:href="SubstitutionProcess_8cpp.html" target="_top" xlink:title="SubstitutionProcess.cpp">
<polygon fill="none" stroke="#000000" points="1431,-386 1431,-405 1554,-405 1554,-386 1431,-386"/>
<text text-anchor="middle" x="1492.5" y="-393" font-family="Helvetica,sans-Serif" font-size="10.00" fill="#000000">SubstitutionProcess.cpp</text>
</a>
</g>
</g>
<!-- Node54&#45;&gt;Node58 -->
<g id="edge63" class="edge">
<title>Node54&#45;&gt;Node58</title>
<path fill="none" stroke="#191970" d="M1375.4377,-443.4955C1403.822,-431.858 1444.085,-415.3501 1469.2271,-405.0419"/>
<polygon fill="#191970" stroke="#191970" points="1373.8623,-440.3586 1365.9375,-447.3906 1376.5178,-446.8354 1373.8623,-440.3586"/>
</g>
<!-- Node55&#45;&gt;Node42 -->
<g id="edge59" class="edge">
<title>Node55&#45;&gt;Node42</title>
<path fill="none" stroke="#191970" d="M1762.8539,-376.1805C1756.2816,-357.1726 1743.5507,-328.7749 1722.5,-313 1696.1337,-293.2416 1611.0298,-277.6889 1553.1189,-269.0456"/>
<polygon fill="#191970" stroke="#191970" points="1759.5757,-377.4202 1765.957,-385.8777 1766.2427,-375.2867 1759.5757,-377.4202"/>
</g>
<!-- Node56 -->
<g id="node47" class="node">
<title>Node56</title>
<g id="a_node47"><a xlink:href="NNI_8cpp.html" target="_top" xlink:title="NNI.cpp">
<polygon fill="none" stroke="#000000" points="1770,-319 1770,-338 1823,-338 1823,-319 1770,-319"/>
<text text-anchor="middle" x="1796.5" y="-326" font-family="Helvetica,sans-Serif" font-size="10.00" fill="#000000">NNI.cpp</text>
</a>
</g>
</g>
<!-- Node55&#45;&gt;Node56 -->
<g id="edge60" class="edge">
<title>Node55&#45;&gt;Node56</title>
<path fill="none" stroke="#191970" d="M1776.4976,-376.3628C1781.7292,-363.8444 1788.3402,-348.0252 1792.4957,-338.0817"/>
<polygon fill="#191970" stroke="#191970" points="1773.1384,-375.3242 1772.5117,-385.9005 1779.5971,-378.0234 1773.1384,-375.3242"/>
</g>
<!-- Node57 -->
<g id="node48" class="node">
<title>Node57</title>
<g id="a_node48"><a xlink:href="PhyloProcess_8cpp.html" target="_top" xlink:title="PhyloProcess.cpp">
<polygon fill="none" stroke="#000000" points="1841.5,-319 1841.5,-338 1937.5,-338 1937.5,-319 1841.5,-319"/>
<text text-anchor="middle" x="1889.5" y="-326" font-family="Helvetica,sans-Serif" font-size="10.00" fill="#000000">PhyloProcess.cpp</text>
</a>
</g>
</g>
<!-- Node55&#45;&gt;Node57 -->
<g id="edge61" class="edge">
<title>Node55&#45;&gt;Node57</title>
<path fill="none" stroke="#191970" d="M1794.895,-380.8846C1818.361,-367.891 1851.9934,-349.2681 1872.1958,-338.0817"/>
<polygon fill="#191970" stroke="#191970" points="1792.8893,-377.9944 1785.8363,-385.9005 1796.2802,-384.1183 1792.8893,-377.9944"/>
</g>
</g>
</svg>
