<?xml version="1.0" encoding="UTF-8" standalone="no"?>
<!DOCTYPE svg PUBLIC "-//W3C//DTD SVG 1.1//EN"
 "http://www.w3.org/Graphics/SVG/1.1/DTD/svg11.dtd">
<!-- Generated by graphviz version 2.38.0 (20140413.2041)
 -->
<!-- Title: Random.h Pages: 1 -->
<svg width="394pt" height="84pt"
 viewBox="0.00 0.00 394.00 84.00" xmlns="http://www.w3.org/2000/svg" xmlns:xlink="http://www.w3.org/1999/xlink">
<g id="graph0" class="graph" transform="scale(1 1) rotate(0) translate(4 80)">
<title>Random.h</title>
<!-- Node0 -->
<g id="node1" class="node"><title>Node0</title>
<polygon fill="#bfbfbf" stroke="black" points="157,-56.5 157,-75.5 219,-75.5 219,-56.5 157,-56.5"/>
<text text-anchor="middle" x="188" y="-63.5" font-family="Helvetica,sans-Serif" font-size="10.00">Random.h</text>
</g>
<!-- Node1 -->
<g id="node2" class="node"><title>Node1</title>
<polygon fill="none" stroke="#bfbfbf" points="0,-0.5 0,-19.5 44,-19.5 44,-0.5 0,-0.5"/>
<text text-anchor="middle" x="22" y="-7.5" font-family="Helvetica,sans-Serif" font-size="10.00">cmath</text>
</g>
<!-- Node0&#45;&gt;Node1 -->
<g id="edge1" class="edge"><title>Node0&#45;&gt;Node1</title>
<path fill="none" stroke="midnightblue" d="M161.697,-56.4435C132.412,-46.9171 85.0886,-31.5228 53.7617,-21.3321"/>
<polygon fill="midnightblue" stroke="midnightblue" points="54.788,-17.9855 44.1958,-18.2203 52.6225,-24.6422 54.788,-17.9855"/>
</g>
<!-- Node2 -->
<g id="node3" class="node"><title>Node2</title>
<polygon fill="none" stroke="#bfbfbf" points="62.5,-0.5 62.5,-19.5 107.5,-19.5 107.5,-0.5 62.5,-0.5"/>
<text text-anchor="middle" x="85" y="-7.5" font-family="Helvetica,sans-Serif" font-size="10.00">cstdlib</text>
</g>
<!-- Node0&#45;&gt;Node2 -->
<g id="edge2" class="edge"><title>Node0&#45;&gt;Node2</title>
<path fill="none" stroke="midnightblue" d="M171.451,-56.324C155.008,-47.7034 129.565,-34.3643 110.532,-24.3855"/>
<polygon fill="midnightblue" stroke="midnightblue" points="111.989,-21.198 101.508,-19.6545 108.739,-27.3977 111.989,-21.198"/>
</g>
<!-- Node3 -->
<g id="node4" class="node"><title>Node3</title>
<polygon fill="none" stroke="#bfbfbf" points="126,-0.5 126,-19.5 180,-19.5 180,-0.5 126,-0.5"/>
<text text-anchor="middle" x="153" y="-7.5" font-family="Helvetica,sans-Serif" font-size="10.00">iostream</text>
</g>
<!-- Node0&#45;&gt;Node3 -->
<g id="edge3" class="edge"><title>Node0&#45;&gt;Node3</title>
<path fill="none" stroke="midnightblue" d="M182.22,-56.083C177.328,-48.5341 170.173,-37.4948 164.167,-28.2298"/>
<polygon fill="midnightblue" stroke="midnightblue" points="167.048,-26.239 158.672,-19.7511 161.174,-30.0463 167.048,-26.239"/>
</g>
<!-- Node4 -->
<g id="node5" class="node"><title>Node4</title>
<polygon fill="none" stroke="#bfbfbf" points="198,-0.5 198,-19.5 250,-19.5 250,-0.5 198,-0.5"/>
<text text-anchor="middle" x="224" y="-7.5" font-family="Helvetica,sans-Serif" font-size="10.00">sstream</text>
</g>
<!-- Node0&#45;&gt;Node4 -->
<g id="edge4" class="edge"><title>Node0&#45;&gt;Node4</title>
<path fill="none" stroke="midnightblue" d="M193.945,-56.083C198.977,-48.5341 206.337,-37.4948 212.513,-28.2298"/>
<polygon fill="midnightblue" stroke="midnightblue" points="215.531,-30.0131 218.166,-19.7511 209.707,-26.1301 215.531,-30.0131"/>
</g>
<!-- Node5 -->
<g id="node6" class="node"><title>Node5</title>
<polygon fill="none" stroke="#bfbfbf" points="268,-0.5 268,-19.5 318,-19.5 318,-0.5 268,-0.5"/>
<text text-anchor="middle" x="293" y="-7.5" font-family="Helvetica,sans-Serif" font-size="10.00">iomanip</text>
</g>
<!-- Node0&#45;&gt;Node5 -->
<g id="edge5" class="edge"><title>Node0&#45;&gt;Node5</title>
<path fill="none" stroke="midnightblue" d="M204.87,-56.324C221.709,-47.6641 247.807,-34.2424 267.238,-24.249"/>
<polygon fill="midnightblue" stroke="midnightblue" points="268.88,-27.3405 276.172,-19.6545 265.678,-21.1155 268.88,-27.3405"/>
</g>
<!-- Node6 -->
<g id="node7" class="node"><title>Node6</title>
<polygon fill="none" stroke="#bfbfbf" points="336,-0.5 336,-19.5 386,-19.5 386,-0.5 336,-0.5"/>
<text text-anchor="middle" x="361" y="-7.5" font-family="Helvetica,sans-Serif" font-size="10.00">fstream</text>
</g>
<!-- Node0&#45;&gt;Node6 -->
<g id="edge6" class="edge"><title>Node0&#45;&gt;Node6</title>
<path fill="none" stroke="midnightblue" d="M215.412,-56.4435C245.46,-47.0645 293.729,-31.9978 326.372,-21.8089"/>
<polygon fill="midnightblue" stroke="midnightblue" points="327.46,-25.1358 335.963,-18.8151 325.374,-18.4538 327.46,-25.1358"/>
</g>
</g>
</svg>
