<?xml version="1.0" encoding="UTF-8" standalone="no"?>
<!DOCTYPE svg PUBLIC "-//W3C//DTD SVG 1.1//EN"
 "http://www.w3.org/Graphics/SVG/1.1/DTD/svg11.dtd">
<!-- Generated by graphviz version 2.40.1 (20161225.0304)
 -->
<!-- Title: RateProcess.h Pages: 1 -->
<svg width="1190pt" height="520pt"
 viewBox="0.00 0.00 1190.00 520.00" xmlns="http://www.w3.org/2000/svg" xmlns:xlink="http://www.w3.org/1999/xlink">
<g id="graph0" class="graph" transform="scale(1 1) rotate(0) translate(4 516)">
<title>RateProcess.h</title>
<!-- Node6 -->
<g id="node1" class="node">
<title>Node6</title>
<polygon fill="#bfbfbf" stroke="#000000" points="849,-492.5 849,-511.5 931,-511.5 931,-492.5 849,-492.5"/>
<text text-anchor="middle" x="890" y="-499.5" font-family="Helvetica,sans-Serif" font-size="10.00" fill="#000000">RateProcess.h</text>
</g>
<!-- Node7 -->
<g id="node2" class="node">
<title>Node7</title>
<g id="a_node2"><a xlink:href="DGamRateProcess_8h.html" target="_top" xlink:title="DGamRateProcess.h">
<polygon fill="none" stroke="#000000" points="313,-185 313,-204 423,-204 423,-185 313,-185"/>
<text text-anchor="middle" x="368" y="-192" font-family="Helvetica,sans-Serif" font-size="10.00" fill="#000000">DGamRateProcess.h</text>
</a>
</g>
</g>
<!-- Node6&#45;&gt;Node7 -->
<g id="edge1" class="edge">
<title>Node6&#45;&gt;Node7</title>
<path fill="none" stroke="#191970" d="M838.8227,-500.8324C652.3295,-495.9096 20,-473.0918 20,-390 20,-390 20,-390 20,-328.5 20,-290.8735 11.4655,-271.6438 39,-246 77.764,-209.8979 229.611,-199.0925 312.7842,-195.8667"/>
<polygon fill="#191970" stroke="#191970" points="838.8277,-504.3336 848.9146,-501.0927 839.0082,-497.3359 838.8277,-504.3336"/>
</g>
<!-- Node15 -->
<g id="node10" class="node">
<title>Node15</title>
<g id="a_node10"><a xlink:href="SubstitutionProcess_8h.html" target="_top" xlink:title="SubstitutionProcess.h">
<polygon fill="none" stroke="#000000" points="526.5,-436.5 526.5,-455.5 639.5,-455.5 639.5,-436.5 526.5,-436.5"/>
<text text-anchor="middle" x="583" y="-443.5" font-family="Helvetica,sans-Serif" font-size="10.00" fill="#000000">SubstitutionProcess.h</text>
</a>
</g>
</g>
<!-- Node6&#45;&gt;Node15 -->
<g id="edge9" class="edge">
<title>Node6&#45;&gt;Node15</title>
<path fill="none" stroke="#191970" d="M838.7813,-492.6572C782.3123,-482.3566 691.9547,-465.8745 635.1259,-455.5083"/>
<polygon fill="#191970" stroke="#191970" points="838.4494,-496.1543 848.9152,-494.5057 839.7056,-489.2679 838.4494,-496.1543"/>
</g>
<!-- Node18 -->
<g id="node13" class="node">
<title>Node18</title>
<g id="a_node13"><a xlink:href="ExpoConjugateGTRPhyloProcess_8h.html" target="_top" xlink:title="ExpoConjugateGTRPhyloProcess.h">
<polygon fill="none" stroke="#000000" points="688.5,-185 688.5,-204 861.5,-204 861.5,-185 688.5,-185"/>
<text text-anchor="middle" x="775" y="-192" font-family="Helvetica,sans-Serif" font-size="10.00" fill="#000000">ExpoConjugateGTRPhyloProcess.h</text>
</a>
</g>
</g>
<!-- Node6&#45;&gt;Node18 -->
<g id="edge36" class="edge">
<title>Node6&#45;&gt;Node18</title>
<path fill="none" stroke="#191970" d="M891.6334,-482.1033C893.77,-446.6407 894.7991,-370.8091 871,-313 851.6476,-265.9922 807.3238,-222.8398 786.3714,-204.2017"/>
<polygon fill="#191970" stroke="#191970" points="888.1126,-482.2764 890.9006,-492.4978 895.0953,-482.7688 888.1126,-482.2764"/>
</g>
<!-- Node26 -->
<g id="node21" class="node">
<title>Node26</title>
<g id="a_node21"><a xlink:href="GTRSubstitutionProcess_8h.html" target="_top" xlink:title="GTRSubstitutionProcess.h">
<polygon fill="none" stroke="#000000" points="504,-319 504,-338 638,-338 638,-319 504,-319"/>
<text text-anchor="middle" x="571" y="-326" font-family="Helvetica,sans-Serif" font-size="10.00" fill="#000000">GTRSubstitutionProcess.h</text>
</a>
</g>
</g>
<!-- Node6&#45;&gt;Node26 -->
<g id="edge34" class="edge">
<title>Node6&#45;&gt;Node26</title>
<path fill="none" stroke="#191970" d="M860.9333,-487.9647C821.7134,-468.8484 749.8622,-433.1963 690,-400 652.0595,-378.9603 608.641,-352.1591 586.2052,-338.1003"/>
<polygon fill="#191970" stroke="#191970" points="859.6503,-491.2326 870.1742,-492.4569 862.7108,-484.9371 859.6503,-491.2326"/>
</g>
<!-- Node27 -->
<g id="node22" class="node">
<title>Node27</title>
<g id="a_node22"><a xlink:href="ExpoConjugateGTRSubstitutionProcess_8h.html" target="_top" xlink:title="ExpoConjugateGTRSubstitution\lProcess.h">
<polygon fill="none" stroke="#000000" points="884,-246.5 884,-276.5 1040,-276.5 1040,-246.5 884,-246.5"/>
<text text-anchor="start" x="892" y="-264.5" font-family="Helvetica,sans-Serif" font-size="10.00" fill="#000000">ExpoConjugateGTRSubstitution</text>
<text text-anchor="middle" x="962" y="-253.5" font-family="Helvetica,sans-Serif" font-size="10.00" fill="#000000">Process.h</text>
</a>
</g>
</g>
<!-- Node6&#45;&gt;Node27 -->
<g id="edge35" class="edge">
<title>Node6&#45;&gt;Node27</title>
<path fill="none" stroke="#191970" d="M895.8918,-482.728C898.4014,-474.4968 901.3545,-464.781 904,-456 924.1258,-389.1971 947.8154,-309.3789 957.5167,-276.6404"/>
<polygon fill="#191970" stroke="#191970" points="892.484,-481.9038 892.9114,-492.49 899.179,-483.9478 892.484,-481.9038"/>
</g>
<!-- Node34 -->
<g id="node29" class="node">
<title>Node34</title>
<g id="a_node29"><a xlink:href="RateProcess_8cpp.html" target="_top" xlink:title="RateProcess.cpp">
<polygon fill="none" stroke="#000000" points="956,-436.5 956,-455.5 1048,-455.5 1048,-436.5 956,-436.5"/>
<text text-anchor="middle" x="1002" y="-443.5" font-family="Helvetica,sans-Serif" font-size="10.00" fill="#000000">RateProcess.cpp</text>
</a>
</g>
</g>
<!-- Node6&#45;&gt;Node34 -->
<g id="edge37" class="edge">
<title>Node6&#45;&gt;Node34</title>
<path fill="none" stroke="#191970" d="M918.3263,-487.8368C938.5721,-477.7139 965.2642,-464.3679 982.9978,-455.5011"/>
<polygon fill="#191970" stroke="#191970" points="916.6325,-484.7706 909.2535,-492.3733 919.763,-491.0316 916.6325,-484.7706"/>
</g>
<!-- Node35 -->
<g id="node30" class="node">
<title>Node35</title>
<g id="a_node30"><a xlink:href="UniformRateProcess_8h.html" target="_top" xlink:title="UniformRateProcess.h">
<polygon fill="none" stroke="#000000" points="1066,-436.5 1066,-455.5 1182,-455.5 1182,-436.5 1066,-436.5"/>
<text text-anchor="middle" x="1124" y="-443.5" font-family="Helvetica,sans-Serif" font-size="10.00" fill="#000000">UniformRateProcess.h</text>
</a>
</g>
</g>
<!-- Node6&#45;&gt;Node35 -->
<g id="edge38" class="edge">
<title>Node6&#45;&gt;Node35</title>
<path fill="none" stroke="#191970" d="M939.9452,-490.0473C983.0147,-479.7401 1044.385,-465.0532 1084.2047,-455.5237"/>
<polygon fill="#191970" stroke="#191970" points="938.8709,-486.7055 929.9602,-492.4369 940.5002,-493.5133 938.8709,-486.7055"/>
</g>
<!-- Node8 -->
<g id="node3" class="node">
<title>Node8</title>
<g id="a_node3"><a xlink:href="DGamRateProcess_8cpp.html" target="_top" xlink:title="DGamRateProcess.cpp">
<polygon fill="none" stroke="#000000" points="257.5,-118 257.5,-137 378.5,-137 378.5,-118 257.5,-118"/>
<text text-anchor="middle" x="318" y="-125" font-family="Helvetica,sans-Serif" font-size="10.00" fill="#000000">DGamRateProcess.cpp</text>
</a>
</g>
</g>
<!-- Node7&#45;&gt;Node8 -->
<g id="edge2" class="edge">
<title>Node7&#45;&gt;Node8</title>
<path fill="none" stroke="#191970" d="M354.8273,-176.8486C345.3279,-164.1194 332.8679,-147.4229 325.1505,-137.0817"/>
<polygon fill="#191970" stroke="#191970" points="352.0503,-178.9795 360.8362,-184.9005 357.6604,-174.7929 352.0503,-178.9795"/>
</g>
<!-- Node9 -->
<g id="node4" class="node">
<title>Node9</title>
<g id="a_node4"><a xlink:href="RASCATGTRSBDPGammaPhyloProcess_8h.html" target="_top" xlink:title="RASCATGTRSBDPGammaPhyloProcess.h">
<polygon fill="none" stroke="#000000" points="397,-118 397,-137 607,-137 607,-118 397,-118"/>
<text text-anchor="middle" x="502" y="-125" font-family="Helvetica,sans-Serif" font-size="10.00" fill="#000000">RASCATGTRSBDPGammaPhyloProcess.h</text>
</a>
</g>
</g>
<!-- Node7&#45;&gt;Node9 -->
<g id="edge3" class="edge">
<title>Node7&#45;&gt;Node9</title>
<path fill="none" stroke="#191970" d="M396.1974,-180.4013C422.2221,-167.389 460.1654,-148.4173 482.8367,-137.0817"/>
<polygon fill="#191970" stroke="#191970" points="394.5779,-177.2978 387.1989,-184.9005 397.7085,-183.5588 394.5779,-177.2978"/>
</g>
<!-- Node13 -->
<g id="node8" class="node">
<title>Node13</title>
<g id="a_node8"><a xlink:href="RASCATGTRDPGammaPhyloProcess_8h.html" target="_top" xlink:title="RASCATGTRDPGammaPhyloProcess.h">
<polygon fill="none" stroke="#000000" points="625.5,-118 625.5,-137 822.5,-137 822.5,-118 625.5,-118"/>
<text text-anchor="middle" x="724" y="-125" font-family="Helvetica,sans-Serif" font-size="10.00" fill="#000000">RASCATGTRDPGammaPhyloProcess.h</text>
</a>
</g>
</g>
<!-- Node7&#45;&gt;Node13 -->
<g id="edge7" class="edge">
<title>Node7&#45;&gt;Node13</title>
<path fill="none" stroke="#191970" d="M428.4731,-183.1188C497.3606,-170.154 608.7087,-149.1981 673.2587,-137.0496"/>
<polygon fill="#191970" stroke="#191970" points="427.8081,-179.6824 418.628,-184.9717 429.1029,-186.5617 427.8081,-179.6824"/>
</g>
<!-- Node10 -->
<g id="node5" class="node">
<title>Node10</title>
<g id="a_node5"><a xlink:href="Model_8h.html" target="_top" xlink:title="Model.h">
<polygon fill="none" stroke="#000000" points="513.5,-56.5 513.5,-75.5 564.5,-75.5 564.5,-56.5 513.5,-56.5"/>
<text text-anchor="middle" x="539" y="-63.5" font-family="Helvetica,sans-Serif" font-size="10.00" fill="#000000">Model.h</text>
</a>
</g>
</g>
<!-- Node9&#45;&gt;Node10 -->
<g id="edge4" class="edge">
<title>Node9&#45;&gt;Node10</title>
<path fill="none" stroke="#191970" d="M513.0785,-109.0857C519.6686,-98.132 527.7647,-84.6748 533.1372,-75.7449"/>
<polygon fill="#191970" stroke="#191970" points="509.9374,-107.5175 507.7813,-117.8906 515.9356,-111.1262 509.9374,-107.5175"/>
</g>
<!-- Node12 -->
<g id="node7" class="node">
<title>Node12</title>
<g id="a_node7"><a xlink:href="RASCATGTRSBDPGammaPhyloProcess_8cpp.html" target="_top" xlink:title="RASCATGTRSBDPGammaPhyloProcess.cpp">
<polygon fill="none" stroke="#000000" points="274.5,-56.5 274.5,-75.5 495.5,-75.5 495.5,-56.5 274.5,-56.5"/>
<text text-anchor="middle" x="385" y="-63.5" font-family="Helvetica,sans-Serif" font-size="10.00" fill="#000000">RASCATGTRSBDPGammaPhyloProcess.cpp</text>
</a>
</g>
</g>
<!-- Node9&#45;&gt;Node12 -->
<g id="edge6" class="edge">
<title>Node9&#45;&gt;Node12</title>
<path fill="none" stroke="#191970" d="M474.8454,-113.2264C452.8031,-101.6401 422.3355,-85.6251 403.1529,-75.5419"/>
<polygon fill="#191970" stroke="#191970" points="473.2386,-116.3359 483.7188,-117.8906 476.4956,-110.1397 473.2386,-116.3359"/>
</g>
<!-- Node11 -->
<g id="node6" class="node">
<title>Node11</title>
<g id="a_node6"><a xlink:href="PB_8cpp.html" target="_top" xlink:title="PB.cpp">
<polygon fill="none" stroke="#000000" points="514.5,-.5 514.5,-19.5 563.5,-19.5 563.5,-.5 514.5,-.5"/>
<text text-anchor="middle" x="539" y="-7.5" font-family="Helvetica,sans-Serif" font-size="10.00" fill="#000000">PB.cpp</text>
</a>
</g>
</g>
<!-- Node10&#45;&gt;Node11 -->
<g id="edge5" class="edge">
<title>Node10&#45;&gt;Node11</title>
<path fill="none" stroke="#191970" d="M539,-46.1575C539,-37.155 539,-26.9199 539,-19.6427"/>
<polygon fill="#191970" stroke="#191970" points="535.5001,-46.2455 539,-56.2455 542.5001,-46.2456 535.5001,-46.2455"/>
</g>
<!-- Node14 -->
<g id="node9" class="node">
<title>Node14</title>
<g id="a_node9"><a xlink:href="RASCATGTRDPGammaPhyloProcess_8cpp.html" target="_top" xlink:title="RASCATGTRDPGammaPhyloProcess.cpp">
<polygon fill="none" stroke="#000000" points="620.5,-56.5 620.5,-75.5 827.5,-75.5 827.5,-56.5 620.5,-56.5"/>
<text text-anchor="middle" x="724" y="-63.5" font-family="Helvetica,sans-Serif" font-size="10.00" fill="#000000">RASCATGTRDPGammaPhyloProcess.cpp</text>
</a>
</g>
</g>
<!-- Node13&#45;&gt;Node14 -->
<g id="edge8" class="edge">
<title>Node13&#45;&gt;Node14</title>
<path fill="none" stroke="#191970" d="M724,-107.7462C724,-97.0519 724,-84.314 724,-75.7449"/>
<polygon fill="#191970" stroke="#191970" points="720.5001,-107.8906 724,-117.8906 727.5001,-107.8907 720.5001,-107.8906"/>
</g>
<!-- Node16 -->
<g id="node11" class="node">
<title>Node16</title>
<g id="a_node11"><a xlink:href="PhyloProcess_8h.html" target="_top" xlink:title="PhyloProcess.h">
<polygon fill="none" stroke="#000000" points="699,-380.5 699,-399.5 785,-399.5 785,-380.5 699,-380.5"/>
<text text-anchor="middle" x="742" y="-387.5" font-family="Helvetica,sans-Serif" font-size="10.00" fill="#000000">PhyloProcess.h</text>
</a>
</g>
</g>
<!-- Node15&#45;&gt;Node16 -->
<g id="edge10" class="edge">
<title>Node15&#45;&gt;Node16</title>
<path fill="none" stroke="#191970" d="M620.129,-432.9231C649.195,-422.686 688.9369,-408.6889 715.0236,-399.5011"/>
<polygon fill="#191970" stroke="#191970" points="618.6025,-429.75 610.3331,-436.3733 620.9279,-436.3524 618.6025,-429.75"/>
</g>
<!-- Node25 -->
<g id="node20" class="node">
<title>Node25</title>
<g id="a_node20"><a xlink:href="MatrixSubstitutionProcess_8h.html" target="_top" xlink:title="MatrixSubstitutionProcess.h">
<polygon fill="none" stroke="#000000" points="349,-380.5 349,-399.5 489,-399.5 489,-380.5 349,-380.5"/>
<text text-anchor="middle" x="419" y="-387.5" font-family="Helvetica,sans-Serif" font-size="10.00" fill="#000000">MatrixSubstitutionProcess.h</text>
</a>
</g>
</g>
<!-- Node15&#45;&gt;Node25 -->
<g id="edge21" class="edge">
<title>Node15&#45;&gt;Node25</title>
<path fill="none" stroke="#191970" d="M545.0956,-433.057C515.0816,-422.8084 473.8493,-408.729 446.8247,-399.5011"/>
<polygon fill="#191970" stroke="#191970" points="544.2129,-436.454 554.8074,-436.3733 546.4749,-429.8295 544.2129,-436.454"/>
</g>
<!-- Node33 -->
<g id="node28" class="node">
<title>Node33</title>
<g id="a_node28"><a xlink:href="SubstitutionProcess_8cpp.html" target="_top" xlink:title="SubstitutionProcess.cpp">
<polygon fill="none" stroke="#000000" points="519.5,-380.5 519.5,-399.5 642.5,-399.5 642.5,-380.5 519.5,-380.5"/>
<text text-anchor="middle" x="581" y="-387.5" font-family="Helvetica,sans-Serif" font-size="10.00" fill="#000000">SubstitutionProcess.cpp</text>
</a>
</g>
</g>
<!-- Node15&#45;&gt;Node33 -->
<g id="edge33" class="edge">
<title>Node15&#45;&gt;Node33</title>
<path fill="none" stroke="#191970" d="M582.2913,-426.1575C581.9698,-417.155 581.6043,-406.9199 581.3444,-399.6427"/>
<polygon fill="#191970" stroke="#191970" points="578.7968,-426.3769 582.6516,-436.2455 585.7924,-426.127 578.7968,-426.3769"/>
</g>
<!-- Node17 -->
<g id="node12" class="node">
<title>Node17</title>
<g id="a_node12"><a xlink:href="MatrixPhyloProcess_8h.html" target="_top" xlink:title="MatrixPhyloProcess.h">
<polygon fill="none" stroke="#000000" points="514.5,-252 514.5,-271 627.5,-271 627.5,-252 514.5,-252"/>
<text text-anchor="middle" x="571" y="-259" font-family="Helvetica,sans-Serif" font-size="10.00" fill="#000000">MatrixPhyloProcess.h</text>
</a>
</g>
</g>
<!-- Node16&#45;&gt;Node17 -->
<g id="edge11" class="edge">
<title>Node16&#45;&gt;Node17</title>
<path fill="none" stroke="#191970" d="M721.6908,-373.6531C710.7995,-364.8759 697.1551,-353.8626 685,-344 668.0747,-330.2669 664.4834,-326.0151 647,-313 626.4163,-297.677 601.6633,-281.258 586.1265,-271.1822"/>
<polygon fill="#191970" stroke="#191970" points="719.7707,-376.6007 729.754,-380.1481 724.1619,-371.1493 719.7707,-376.6007"/>
</g>
<!-- Node23 -->
<g id="node18" class="node">
<title>Node23</title>
<g id="a_node18"><a xlink:href="NNI_8cpp.html" target="_top" xlink:title="NNI.cpp">
<polygon fill="none" stroke="#000000" points="808.5,-319 808.5,-338 861.5,-338 861.5,-319 808.5,-319"/>
<text text-anchor="middle" x="835" y="-326" font-family="Helvetica,sans-Serif" font-size="10.00" fill="#000000">NNI.cpp</text>
</a>
</g>
</g>
<!-- Node16&#45;&gt;Node23 -->
<g id="edge19" class="edge">
<title>Node16&#45;&gt;Node23</title>
<path fill="none" stroke="#191970" d="M765.0065,-374.786C782.3962,-363.2864 805.7315,-347.855 820.5708,-338.0419"/>
<polygon fill="#191970" stroke="#191970" points="762.9418,-371.9553 756.5313,-380.3906 766.803,-377.7941 762.9418,-371.9553"/>
</g>
<!-- Node24 -->
<g id="node19" class="node">
<title>Node24</title>
<g id="a_node19"><a xlink:href="PhyloProcess_8cpp.html" target="_top" xlink:title="PhyloProcess.cpp">
<polygon fill="none" stroke="#000000" points="694,-319 694,-338 790,-338 790,-319 694,-319"/>
<text text-anchor="middle" x="742" y="-326" font-family="Helvetica,sans-Serif" font-size="10.00" fill="#000000">PhyloProcess.cpp</text>
</a>
</g>
</g>
<!-- Node16&#45;&gt;Node24 -->
<g id="edge20" class="edge">
<title>Node16&#45;&gt;Node24</title>
<path fill="none" stroke="#191970" d="M742,-370.2462C742,-359.5519 742,-346.814 742,-338.2449"/>
<polygon fill="#191970" stroke="#191970" points="738.5001,-370.3906 742,-380.3906 745.5001,-370.3907 738.5001,-370.3906"/>
</g>
<!-- Node17&#45;&gt;Node18 -->
<g id="edge12" class="edge">
<title>Node17&#45;&gt;Node18</title>
<path fill="none" stroke="#191970" d="M609.8256,-248.7484C649.4648,-235.7297 710.1005,-215.815 745.826,-204.0817"/>
<polygon fill="#191970" stroke="#191970" points="608.6368,-245.4549 600.2282,-251.9005 610.8211,-252.1054 608.6368,-245.4549"/>
</g>
<!-- Node20 -->
<g id="node15" class="node">
<title>Node20</title>
<g id="a_node15"><a xlink:href="GeneralPathSuffStatMatrixPhyloProcess_8h.html" target="_top" xlink:title="GeneralPathSuffStatMatrix\lPhyloProcess.h">
<polygon fill="none" stroke="#000000" points="0,-179.5 0,-209.5 134,-209.5 134,-179.5 0,-179.5"/>
<text text-anchor="start" x="8" y="-197.5" font-family="Helvetica,sans-Serif" font-size="10.00" fill="#000000">GeneralPathSuffStatMatrix</text>
<text text-anchor="middle" x="67" y="-186.5" font-family="Helvetica,sans-Serif" font-size="10.00" fill="#000000">PhyloProcess.h</text>
</a>
</g>
</g>
<!-- Node17&#45;&gt;Node20 -->
<g id="edge16" class="edge">
<title>Node17&#45;&gt;Node20</title>
<path fill="none" stroke="#191970" d="M504.2378,-252.6249C407.8102,-239.8061 230.5611,-216.2432 134.0005,-203.4068"/>
<polygon fill="#191970" stroke="#191970" points="503.7905,-256.0961 514.1645,-253.9445 504.713,-249.1572 503.7905,-256.0961"/>
</g>
<!-- Node22 -->
<g id="node17" class="node">
<title>Node22</title>
<g id="a_node17"><a xlink:href="MatrixPhyloProcess_8cpp.html" target="_top" xlink:title="MatrixPhyloProcess.cpp">
<polygon fill="none" stroke="#000000" points="509.5,-185 509.5,-204 632.5,-204 632.5,-185 509.5,-185"/>
<text text-anchor="middle" x="571" y="-192" font-family="Helvetica,sans-Serif" font-size="10.00" fill="#000000">MatrixPhyloProcess.cpp</text>
</a>
</g>
</g>
<!-- Node17&#45;&gt;Node22 -->
<g id="edge18" class="edge">
<title>Node17&#45;&gt;Node22</title>
<path fill="none" stroke="#191970" d="M571,-241.6079C571,-229.214 571,-213.8263 571,-204.0817"/>
<polygon fill="#191970" stroke="#191970" points="567.5001,-241.9005 571,-251.9005 574.5001,-241.9006 567.5001,-241.9005"/>
</g>
<!-- Node18&#45;&gt;Node9 -->
<g id="edge14" class="edge">
<title>Node18&#45;&gt;Node9</title>
<path fill="none" stroke="#191970" d="M726.3473,-182.5596C673.4523,-169.578 589.9585,-149.0869 541.1324,-137.1039"/>
<polygon fill="#191970" stroke="#191970" points="725.6296,-185.9873 736.1757,-184.9717 727.2981,-179.189 725.6296,-185.9873"/>
</g>
<!-- Node18&#45;&gt;Node13 -->
<g id="edge15" class="edge">
<title>Node18&#45;&gt;Node13</title>
<path fill="none" stroke="#191970" d="M761.5639,-176.8486C751.8744,-164.1194 739.1652,-147.4229 731.2935,-137.0817"/>
<polygon fill="#191970" stroke="#191970" points="758.8511,-179.0634 767.6929,-184.9005 764.421,-174.8236 758.8511,-179.0634"/>
</g>
<!-- Node19 -->
<g id="node14" class="node">
<title>Node19</title>
<g id="a_node14"><a xlink:href="ExpoConjugateGTRPhyloProcess_8cpp.html" target="_top" xlink:title="ExpoConjugateGTRPhyloProcess.cpp">
<polygon fill="none" stroke="#000000" points="841,-118 841,-137 1025,-137 1025,-118 841,-118"/>
<text text-anchor="middle" x="933" y="-125" font-family="Helvetica,sans-Serif" font-size="10.00" fill="#000000">ExpoConjugateGTRPhyloProcess.cpp</text>
</a>
</g>
</g>
<!-- Node18&#45;&gt;Node19 -->
<g id="edge13" class="edge">
<title>Node18&#45;&gt;Node19</title>
<path fill="none" stroke="#191970" d="M807.0437,-180.9118C837.753,-167.8895 883.3209,-148.5664 910.4044,-137.0817"/>
<polygon fill="#191970" stroke="#191970" points="805.4776,-177.7742 797.6375,-184.9005 808.2104,-184.2187 805.4776,-177.7742"/>
</g>
<!-- Node21 -->
<g id="node16" class="node">
<title>Node21</title>
<g id="a_node16"><a xlink:href="GeneralPathSuffStatMatrixPhyloProcess_8cpp.html" target="_top" xlink:title="GeneralPathSuffStatMatrix\lPhyloProcess.cpp">
<polygon fill="none" stroke="#000000" points="0,-112.5 0,-142.5 134,-142.5 134,-112.5 0,-112.5"/>
<text text-anchor="start" x="8" y="-130.5" font-family="Helvetica,sans-Serif" font-size="10.00" fill="#000000">GeneralPathSuffStatMatrix</text>
<text text-anchor="middle" x="67" y="-119.5" font-family="Helvetica,sans-Serif" font-size="10.00" fill="#000000">PhyloProcess.cpp</text>
</a>
</g>
</g>
<!-- Node20&#45;&gt;Node21 -->
<g id="edge17" class="edge">
<title>Node20&#45;&gt;Node21</title>
<path fill="none" stroke="#191970" d="M67,-169.0249C67,-160.128 67,-150.4287 67,-142.6432"/>
<polygon fill="#191970" stroke="#191970" points="63.5001,-169.2966 67,-179.2967 70.5001,-169.2967 63.5001,-169.2966"/>
</g>
<!-- Node25&#45;&gt;Node17 -->
<g id="edge22" class="edge">
<title>Node25&#45;&gt;Node17</title>
<path fill="none" stroke="#191970" d="M434.2227,-372.7227C448.9726,-356.4464 472.3722,-331.8185 495,-313 514.4845,-296.7957 539.0832,-280.8537 554.9269,-271.0991"/>
<polygon fill="#191970" stroke="#191970" points="431.4129,-370.6138 427.3479,-380.3978 436.627,-375.2843 431.4129,-370.6138"/>
</g>
<!-- Node25&#45;&gt;Node26 -->
<g id="edge23" class="edge">
<title>Node25&#45;&gt;Node26</title>
<path fill="none" stroke="#191970" d="M452.3769,-376.4955C481.1396,-364.858 521.9395,-348.3501 547.4168,-338.0419"/>
<polygon fill="#191970" stroke="#191970" points="450.7072,-373.3954 442.75,-380.3906 453.3327,-379.8844 450.7072,-373.3954"/>
</g>
<!-- Node29 -->
<g id="node24" class="node">
<title>Node29</title>
<g id="a_node24"><a xlink:href="GeneralPathSuffStatMatrixSubstitutionProcess_8h.html" target="_top" xlink:title="GeneralPathSuffStatMatrix\lSubstitutionProcess.h">
<polygon fill="none" stroke="#000000" points="48,-313.5 48,-343.5 182,-343.5 182,-313.5 48,-313.5"/>
<text text-anchor="start" x="56" y="-331.5" font-family="Helvetica,sans-Serif" font-size="10.00" fill="#000000">GeneralPathSuffStatMatrix</text>
<text text-anchor="middle" x="115" y="-320.5" font-family="Helvetica,sans-Serif" font-size="10.00" fill="#000000">SubstitutionProcess.h</text>
</a>
</g>
</g>
<!-- Node25&#45;&gt;Node29 -->
<g id="edge28" class="edge">
<title>Node25&#45;&gt;Node29</title>
<path fill="none" stroke="#191970" d="M361.5849,-378.451C315.4762,-369.168 249.0696,-355.7795 191,-344 188.0966,-343.411 185.1309,-342.8088 182.1352,-342.2"/>
<polygon fill="#191970" stroke="#191970" points="360.9014,-381.8836 371.3955,-380.4259 362.2828,-375.0212 360.9014,-381.8836"/>
</g>
<!-- Node31 -->
<g id="node26" class="node">
<title>Node31</title>
<g id="a_node26"><a xlink:href="MatrixSubstitutionProcess_8cpp.html" target="_top" xlink:title="MatrixSubstitutionProcess.cpp">
<polygon fill="none" stroke="#000000" points="200,-319 200,-338 350,-338 350,-319 200,-319"/>
<text text-anchor="middle" x="275" y="-326" font-family="Helvetica,sans-Serif" font-size="10.00" fill="#000000">MatrixSubstitutionProcess.cpp</text>
</a>
</g>
</g>
<!-- Node25&#45;&gt;Node31 -->
<g id="edge31" class="edge">
<title>Node25&#45;&gt;Node31</title>
<path fill="none" stroke="#191970" d="M387.0222,-376.3428C359.7936,-364.7139 321.373,-348.3051 297.342,-338.0419"/>
<polygon fill="#191970" stroke="#191970" points="385.9289,-379.6817 396.5,-380.3906 388.6783,-373.2442 385.9289,-379.6817"/>
</g>
<!-- Node32 -->
<g id="node27" class="node">
<title>Node32</title>
<g id="a_node27"><a xlink:href="Propagate_8cpp.html" target="_top" xlink:title="Propagate.cpp">
<polygon fill="none" stroke="#000000" points="368,-319 368,-338 448,-338 448,-319 368,-319"/>
<text text-anchor="middle" x="408" y="-326" font-family="Helvetica,sans-Serif" font-size="10.00" fill="#000000">Propagate.cpp</text>
</a>
</g>
</g>
<!-- Node25&#45;&gt;Node32 -->
<g id="edge32" class="edge">
<title>Node25&#45;&gt;Node32</title>
<path fill="none" stroke="#191970" d="M415.4668,-370.2462C413.554,-359.5519 411.2757,-346.814 409.743,-338.2449"/>
<polygon fill="#191970" stroke="#191970" points="412.0752,-371.1631 417.2813,-380.3906 418.9658,-369.9306 412.0752,-371.1631"/>
</g>
<!-- Node26&#45;&gt;Node17 -->
<g id="edge24" class="edge">
<title>Node26&#45;&gt;Node17</title>
<path fill="none" stroke="#191970" d="M571,-308.6079C571,-296.214 571,-280.8263 571,-271.0817"/>
<polygon fill="#191970" stroke="#191970" points="567.5001,-308.9005 571,-318.9005 574.5001,-308.9006 567.5001,-308.9005"/>
</g>
<!-- Node26&#45;&gt;Node27 -->
<g id="edge25" class="edge">
<title>Node26&#45;&gt;Node27</title>
<path fill="none" stroke="#191970" d="M636.796,-317.2255C705.0002,-305.5383 811.58,-287.2753 883.9849,-274.8683"/>
<polygon fill="#191970" stroke="#191970" points="635.8707,-313.8329 626.6055,-318.9717 637.053,-320.7324 635.8707,-313.8329"/>
</g>
<!-- Node27&#45;&gt;Node18 -->
<g id="edge26" class="edge">
<title>Node27&#45;&gt;Node18</title>
<path fill="none" stroke="#191970" d="M910.3666,-243.0003C875.0697,-230.3538 829.741,-214.1131 801.5297,-204.0053"/>
<polygon fill="#191970" stroke="#191970" points="909.439,-246.3858 920.0335,-246.4639 911.8001,-239.796 909.439,-246.3858"/>
</g>
<!-- Node28 -->
<g id="node23" class="node">
<title>Node28</title>
<g id="a_node23"><a xlink:href="ExpoConjugateGTRSubstitutionProcess_8cpp.html" target="_top" xlink:title="ExpoConjugateGTRSubstitution\lProcess.cpp">
<polygon fill="none" stroke="#000000" points="884,-179.5 884,-209.5 1040,-209.5 1040,-179.5 884,-179.5"/>
<text text-anchor="start" x="892" y="-197.5" font-family="Helvetica,sans-Serif" font-size="10.00" fill="#000000">ExpoConjugateGTRSubstitution</text>
<text text-anchor="middle" x="962" y="-186.5" font-family="Helvetica,sans-Serif" font-size="10.00" fill="#000000">Process.cpp</text>
</a>
</g>
</g>
<!-- Node27&#45;&gt;Node28 -->
<g id="edge27" class="edge">
<title>Node27&#45;&gt;Node28</title>
<path fill="none" stroke="#191970" d="M962,-236.0249C962,-227.128 962,-217.4287 962,-209.6432"/>
<polygon fill="#191970" stroke="#191970" points="958.5001,-236.2966 962,-246.2967 965.5001,-236.2967 958.5001,-236.2966"/>
</g>
<!-- Node29&#45;&gt;Node20 -->
<g id="edge29" class="edge">
<title>Node29&#45;&gt;Node20</title>
<path fill="none" stroke="#191970" d="M69.7441,-308.0543C57.55,-300.1896 45.8503,-289.917 39,-277 27.2362,-254.8183 42.5018,-226.7146 54.6893,-209.6958"/>
<polygon fill="#191970" stroke="#191970" points="68.2659,-311.2477 78.6483,-313.3589 71.8486,-305.234 68.2659,-311.2477"/>
</g>
<!-- Node30 -->
<g id="node25" class="node">
<title>Node30</title>
<g id="a_node25"><a xlink:href="GeneralPathSuffStatMatrixSubstitutionProcess_8cpp.html" target="_top" xlink:title="GeneralPathSuffStatMatrix\lSubstitutionProcess.cpp">
<polygon fill="none" stroke="#000000" points="48,-246.5 48,-276.5 182,-276.5 182,-246.5 48,-246.5"/>
<text text-anchor="start" x="56" y="-264.5" font-family="Helvetica,sans-Serif" font-size="10.00" fill="#000000">GeneralPathSuffStatMatrix</text>
<text text-anchor="middle" x="115" y="-253.5" font-family="Helvetica,sans-Serif" font-size="10.00" fill="#000000">SubstitutionProcess.cpp</text>
</a>
</g>
</g>
<!-- Node29&#45;&gt;Node30 -->
<g id="edge30" class="edge">
<title>Node29&#45;&gt;Node30</title>
<path fill="none" stroke="#191970" d="M115,-303.0249C115,-294.128 115,-284.4287 115,-276.6432"/>
<polygon fill="#191970" stroke="#191970" points="111.5001,-303.2966 115,-313.2967 118.5001,-303.2967 111.5001,-303.2966"/>
</g>
</g>
</svg>
