<?xml version="1.0" encoding="UTF-8" standalone="no"?>
<!DOCTYPE svg PUBLIC "-//W3C//DTD SVG 1.1//EN"
 "http://www.w3.org/Graphics/SVG/1.1/DTD/svg11.dtd">
<!-- Generated by graphviz version 2.40.1 (20161225.0304)
 -->
<!-- Title: RateProcess.h Pages: 1 -->
<svg width="1320pt" height="520pt"
 viewBox="0.00 0.00 1319.50 520.00" xmlns="http://www.w3.org/2000/svg" xmlns:xlink="http://www.w3.org/1999/xlink">
<g id="graph0" class="graph" transform="scale(1 1) rotate(0) translate(4 516)">
<title>RateProcess.h</title>
<!-- Node6 -->
<g id="node1" class="node">
<title>Node6</title>
<polygon fill="#bfbfbf" stroke="#000000" points="978.5,-492.5 978.5,-511.5 1060.5,-511.5 1060.5,-492.5 978.5,-492.5"/>
<text text-anchor="middle" x="1019.5" y="-499.5" font-family="Helvetica,sans-Serif" font-size="10.00" fill="#000000">RateProcess.h</text>
</g>
<!-- Node7 -->
<g id="node2" class="node">
<title>Node7</title>
<g id="a_node2"><a xlink:href="DGamRateProcess_8h.html" target="_top" xlink:title="DGamRateProcess.h">
<polygon fill="none" stroke="#000000" points="94.5,-436.5 94.5,-455.5 204.5,-455.5 204.5,-436.5 94.5,-436.5"/>
<text text-anchor="middle" x="149.5" y="-443.5" font-family="Helvetica,sans-Serif" font-size="10.00" fill="#000000">DGamRateProcess.h</text>
</a>
</g>
</g>
<!-- Node6&#45;&gt;Node7 -->
<g id="edge1" class="edge">
<title>Node6&#45;&gt;Node7</title>
<path fill="none" stroke="#191970" d="M968.3592,-498.7082C815.4887,-488.8682 362.8159,-459.7307 204.7321,-449.5552"/>
<polygon fill="#191970" stroke="#191970" points="968.2104,-502.2058 978.4146,-499.3554 968.6602,-495.2202 968.2104,-502.2058"/>
</g>
<!-- Node13 -->
<g id="node8" class="node">
<title>Node13</title>
<g id="a_node8"><a xlink:href="SubstitutionProcess_8h.html" target="_top" xlink:title="SubstitutionProcess.h">
<polygon fill="none" stroke="#000000" points="553,-436.5 553,-455.5 666,-455.5 666,-436.5 553,-436.5"/>
<text text-anchor="middle" x="609.5" y="-443.5" font-family="Helvetica,sans-Serif" font-size="10.00" fill="#000000">SubstitutionProcess.h</text>
</a>
</g>
</g>
<!-- Node6&#45;&gt;Node13 -->
<g id="edge7" class="edge">
<title>Node6&#45;&gt;Node13</title>
<path fill="none" stroke="#191970" d="M968.3724,-495.0167C891.444,-484.5094 746.4235,-464.7018 666.2959,-453.7575"/>
<polygon fill="#191970" stroke="#191970" points="967.9287,-498.4885 978.3104,-496.3741 968.8761,-491.5529 967.9287,-498.4885"/>
</g>
<!-- Node16 -->
<g id="node11" class="node">
<title>Node16</title>
<g id="a_node11"><a xlink:href="ExpoConjugateGTRPhyloProcess_8h.html" target="_top" xlink:title="ExpoConjugateGTRPhyloProcess.h">
<polygon fill="none" stroke="#000000" points="833,-185 833,-204 1006,-204 1006,-185 833,-185"/>
<text text-anchor="middle" x="919.5" y="-192" font-family="Helvetica,sans-Serif" font-size="10.00" fill="#000000">ExpoConjugateGTRPhyloProcess.h</text>
</a>
</g>
</g>
<!-- Node6&#45;&gt;Node16 -->
<g id="edge33" class="edge">
<title>Node6&#45;&gt;Node16</title>
<path fill="none" stroke="#191970" d="M1020.6745,-481.7863C1022.0392,-446.4036 1021.8289,-371.45 1000.5,-313 984.013,-267.8188 946.347,-223.41 928.8067,-204.2888"/>
<polygon fill="#191970" stroke="#191970" points="1017.159,-482.0325 1020.1796,-492.1876 1024.151,-482.3653 1017.159,-482.0325"/>
</g>
<!-- Node24 -->
<g id="node19" class="node">
<title>Node24</title>
<g id="a_node19"><a xlink:href="GTRSubstitutionProcess_8h.html" target="_top" xlink:title="GTRSubstitutionProcess.h">
<polygon fill="none" stroke="#000000" points="857.5,-319 857.5,-338 991.5,-338 991.5,-319 857.5,-319"/>
<text text-anchor="middle" x="924.5" y="-326" font-family="Helvetica,sans-Serif" font-size="10.00" fill="#000000">GTRSubstitutionProcess.h</text>
</a>
</g>
</g>
<!-- Node6&#45;&gt;Node24 -->
<g id="edge31" class="edge">
<title>Node6&#45;&gt;Node24</title>
<path fill="none" stroke="#191970" d="M1009.263,-483.304C989.1523,-446.5756 945.1177,-366.1545 929.8438,-338.2595"/>
<polygon fill="#191970" stroke="#191970" points="1006.3844,-485.3345 1014.2571,-492.4248 1012.5243,-481.9726 1006.3844,-485.3345"/>
</g>
<!-- Node25 -->
<g id="node20" class="node">
<title>Node25</title>
<g id="a_node20"><a xlink:href="ExpoConjugateGTRSubstitutionProcess_8h.html" target="_top" xlink:title="ExpoConjugateGTRSubstitution\lProcess.h">
<polygon fill="none" stroke="#000000" points="1035.5,-246.5 1035.5,-276.5 1191.5,-276.5 1191.5,-246.5 1035.5,-246.5"/>
<text text-anchor="start" x="1043.5" y="-264.5" font-family="Helvetica,sans-Serif" font-size="10.00" fill="#000000">ExpoConjugateGTRSubstitution</text>
<text text-anchor="middle" x="1113.5" y="-253.5" font-family="Helvetica,sans-Serif" font-size="10.00" fill="#000000">Process.h</text>
</a>
</g>
</g>
<!-- Node6&#45;&gt;Node25 -->
<g id="edge32" class="edge">
<title>Node6&#45;&gt;Node25</title>
<path fill="none" stroke="#191970" d="M1027.0124,-482.7793C1045.1789,-436.3002 1091.1953,-318.5667 1107.5882,-276.6255"/>
<polygon fill="#191970" stroke="#191970" points="1023.6819,-481.6862 1023.3013,-492.2742 1030.2016,-484.2345 1023.6819,-481.6862"/>
</g>
<!-- Node32 -->
<g id="node27" class="node">
<title>Node32</title>
<g id="a_node27"><a xlink:href="RateProcess_8cpp.html" target="_top" xlink:title="RateProcess.cpp">
<polygon fill="none" stroke="#000000" points="1085.5,-436.5 1085.5,-455.5 1177.5,-455.5 1177.5,-436.5 1085.5,-436.5"/>
<text text-anchor="middle" x="1131.5" y="-443.5" font-family="Helvetica,sans-Serif" font-size="10.00" fill="#000000">RateProcess.cpp</text>
</a>
</g>
</g>
<!-- Node6&#45;&gt;Node32 -->
<g id="edge34" class="edge">
<title>Node6&#45;&gt;Node32</title>
<path fill="none" stroke="#191970" d="M1047.8263,-487.8368C1068.0721,-477.7139 1094.7642,-464.3679 1112.4978,-455.5011"/>
<polygon fill="#191970" stroke="#191970" points="1046.1325,-484.7706 1038.7535,-492.3733 1049.263,-491.0316 1046.1325,-484.7706"/>
</g>
<!-- Node33 -->
<g id="node28" class="node">
<title>Node33</title>
<g id="a_node28"><a xlink:href="UniformRateProcess_8h.html" target="_top" xlink:title="UniformRateProcess.h">
<polygon fill="none" stroke="#000000" points="1195.5,-436.5 1195.5,-455.5 1311.5,-455.5 1311.5,-436.5 1195.5,-436.5"/>
<text text-anchor="middle" x="1253.5" y="-443.5" font-family="Helvetica,sans-Serif" font-size="10.00" fill="#000000">UniformRateProcess.h</text>
</a>
</g>
</g>
<!-- Node6&#45;&gt;Node33 -->
<g id="edge35" class="edge">
<title>Node6&#45;&gt;Node33</title>
<path fill="none" stroke="#191970" d="M1069.4452,-490.0473C1112.5147,-479.7401 1173.885,-465.0532 1213.7047,-455.5237"/>
<polygon fill="#191970" stroke="#191970" points="1068.3709,-486.7055 1059.4602,-492.4369 1070.0002,-493.5133 1068.3709,-486.7055"/>
</g>
<!-- Node8 -->
<g id="node3" class="node">
<title>Node8</title>
<g id="a_node3"><a xlink:href="DGamRateProcess_8cpp.html" target="_top" xlink:title="DGamRateProcess.cpp">
<polygon fill="none" stroke="#000000" points="0,-380.5 0,-399.5 121,-399.5 121,-380.5 0,-380.5"/>
<text text-anchor="middle" x="60.5" y="-387.5" font-family="Helvetica,sans-Serif" font-size="10.00" fill="#000000">DGamRateProcess.cpp</text>
</a>
</g>
</g>
<!-- Node7&#45;&gt;Node8 -->
<g id="edge2" class="edge">
<title>Node7&#45;&gt;Node8</title>
<path fill="none" stroke="#191970" d="M125.2936,-430.769C109.5225,-420.8456 89.424,-408.1994 75.825,-399.6427"/>
<polygon fill="#191970" stroke="#191970" points="123.6695,-433.8823 133.9974,-436.2455 127.3974,-427.9575 123.6695,-433.8823"/>
</g>
<!-- Node9 -->
<g id="node4" class="node">
<title>Node9</title>
<g id="a_node4"><a xlink:href="RASCATGTRSBDPGammaPhyloProcess_8h.html" target="_top" xlink:title="RASCATGTRSBDPGammaPhyloProcess.h">
<polygon fill="none" stroke="#000000" points="568.5,-118 568.5,-137 778.5,-137 778.5,-118 568.5,-118"/>
<text text-anchor="middle" x="673.5" y="-125" font-family="Helvetica,sans-Serif" font-size="10.00" fill="#000000">RASCATGTRSBDPGammaPhyloProcess.h</text>
</a>
</g>
</g>
<!-- Node7&#45;&gt;Node9 -->
<g id="edge3" class="edge">
<title>Node7&#45;&gt;Node9</title>
<path fill="none" stroke="#191970" d="M149.5,-426.2236C149.5,-402.872 149.5,-362.8601 149.5,-328.5 149.5,-328.5 149.5,-328.5 149.5,-261.5 149.5,-157.0733 268.672,-206.1782 369.5,-179 443.668,-159.008 530.2074,-145.2469 591.9442,-137.0131"/>
<polygon fill="#191970" stroke="#191970" points="146.0001,-426.251 149.5,-436.2511 153.0001,-426.2511 146.0001,-426.251"/>
</g>
<!-- Node10 -->
<g id="node5" class="node">
<title>Node10</title>
<g id="a_node5"><a xlink:href="Model_8h.html" target="_top" xlink:title="Model.h">
<polygon fill="none" stroke="#000000" points="571,-56.5 571,-75.5 622,-75.5 622,-56.5 571,-56.5"/>
<text text-anchor="middle" x="596.5" y="-63.5" font-family="Helvetica,sans-Serif" font-size="10.00" fill="#000000">Model.h</text>
</a>
</g>
</g>
<!-- Node9&#45;&gt;Node10 -->
<g id="edge4" class="edge">
<title>Node9&#45;&gt;Node10</title>
<path fill="none" stroke="#191970" d="M653.6542,-111.6491C639.347,-100.222 620.5076,-85.1749 608.4468,-75.5419"/>
<polygon fill="#191970" stroke="#191970" points="651.4708,-114.3846 661.4688,-117.8906 655.8394,-108.915 651.4708,-114.3846"/>
</g>
<!-- Node12 -->
<g id="node7" class="node">
<title>Node12</title>
<g id="a_node7"><a xlink:href="RASCATGTRSBDPGammaPhyloProcess_8cpp.html" target="_top" xlink:title="RASCATGTRSBDPGammaPhyloProcess.cpp">
<polygon fill="none" stroke="#000000" points="640,-56.5 640,-75.5 861,-75.5 861,-56.5 640,-56.5"/>
<text text-anchor="middle" x="750.5" y="-63.5" font-family="Helvetica,sans-Serif" font-size="10.00" fill="#000000">RASCATGTRSBDPGammaPhyloProcess.cpp</text>
</a>
</g>
</g>
<!-- Node9&#45;&gt;Node12 -->
<g id="edge6" class="edge">
<title>Node9&#45;&gt;Node12</title>
<path fill="none" stroke="#191970" d="M693.3458,-111.6491C707.653,-100.222 726.4924,-85.1749 738.5532,-75.5419"/>
<polygon fill="#191970" stroke="#191970" points="691.1606,-108.915 685.5313,-117.8906 695.5292,-114.3846 691.1606,-108.915"/>
</g>
<!-- Node11 -->
<g id="node6" class="node">
<title>Node11</title>
<g id="a_node6"><a xlink:href="PB_8cpp.html" target="_top" xlink:title="PB.cpp">
<polygon fill="none" stroke="#000000" points="572,-.5 572,-19.5 621,-19.5 621,-.5 572,-.5"/>
<text text-anchor="middle" x="596.5" y="-7.5" font-family="Helvetica,sans-Serif" font-size="10.00" fill="#000000">PB.cpp</text>
</a>
</g>
</g>
<!-- Node10&#45;&gt;Node11 -->
<g id="edge5" class="edge">
<title>Node10&#45;&gt;Node11</title>
<path fill="none" stroke="#191970" d="M596.5,-46.1575C596.5,-37.155 596.5,-26.9199 596.5,-19.6427"/>
<polygon fill="#191970" stroke="#191970" points="593.0001,-46.2455 596.5,-56.2455 600.0001,-46.2456 593.0001,-46.2455"/>
</g>
<!-- Node14 -->
<g id="node9" class="node">
<title>Node14</title>
<g id="a_node9"><a xlink:href="PhyloProcess_8h.html" target="_top" xlink:title="PhyloProcess.h">
<polygon fill="none" stroke="#000000" points="482.5,-380.5 482.5,-399.5 568.5,-399.5 568.5,-380.5 482.5,-380.5"/>
<text text-anchor="middle" x="525.5" y="-387.5" font-family="Helvetica,sans-Serif" font-size="10.00" fill="#000000">PhyloProcess.h</text>
</a>
</g>
</g>
<!-- Node13&#45;&gt;Node14 -->
<g id="edge8" class="edge">
<title>Node13&#45;&gt;Node14</title>
<path fill="none" stroke="#191970" d="M586.2351,-430.49C571.4144,-420.6096 552.6791,-408.1194 539.964,-399.6427"/>
<polygon fill="#191970" stroke="#191970" points="584.6063,-433.6107 594.8683,-436.2455 588.4893,-427.7863 584.6063,-433.6107"/>
</g>
<!-- Node23 -->
<g id="node18" class="node">
<title>Node23</title>
<g id="a_node18"><a xlink:href="MatrixSubstitutionProcess_8h.html" target="_top" xlink:title="MatrixSubstitutionProcess.h">
<polygon fill="none" stroke="#000000" points="623.5,-380.5 623.5,-399.5 763.5,-399.5 763.5,-380.5 623.5,-380.5"/>
<text text-anchor="middle" x="693.5" y="-387.5" font-family="Helvetica,sans-Serif" font-size="10.00" fill="#000000">MatrixSubstitutionProcess.h</text>
</a>
</g>
</g>
<!-- Node13&#45;&gt;Node23 -->
<g id="edge18" class="edge">
<title>Node13&#45;&gt;Node23</title>
<path fill="none" stroke="#191970" d="M632.7649,-430.49C647.5856,-420.6096 666.3209,-408.1194 679.036,-399.6427"/>
<polygon fill="#191970" stroke="#191970" points="630.5107,-427.7863 624.1317,-436.2455 634.3937,-433.6107 630.5107,-427.7863"/>
</g>
<!-- Node31 -->
<g id="node26" class="node">
<title>Node31</title>
<g id="a_node26"><a xlink:href="SubstitutionProcess_8cpp.html" target="_top" xlink:title="SubstitutionProcess.cpp">
<polygon fill="none" stroke="#000000" points="341,-380.5 341,-399.5 464,-399.5 464,-380.5 341,-380.5"/>
<text text-anchor="middle" x="402.5" y="-387.5" font-family="Helvetica,sans-Serif" font-size="10.00" fill="#000000">SubstitutionProcess.cpp</text>
</a>
</g>
</g>
<!-- Node13&#45;&gt;Node31 -->
<g id="edge30" class="edge">
<title>Node13&#45;&gt;Node31</title>
<path fill="none" stroke="#191970" d="M564.1075,-433.7199C526.045,-423.4228 472.472,-408.9296 437.6202,-399.5011"/>
<polygon fill="#191970" stroke="#191970" points="563.3484,-437.1403 573.9154,-436.3733 565.1765,-430.3832 563.3484,-437.1403"/>
</g>
<!-- Node15 -->
<g id="node10" class="node">
<title>Node15</title>
<g id="a_node10"><a xlink:href="MatrixPhyloProcess_8h.html" target="_top" xlink:title="MatrixPhyloProcess.h">
<polygon fill="none" stroke="#000000" points="675,-252 675,-271 788,-271 788,-252 675,-252"/>
<text text-anchor="middle" x="731.5" y="-259" font-family="Helvetica,sans-Serif" font-size="10.00" fill="#000000">MatrixPhyloProcess.h</text>
</a>
</g>
</g>
<!-- Node14&#45;&gt;Node15 -->
<g id="edge9" class="edge">
<title>Node14&#45;&gt;Node15</title>
<path fill="none" stroke="#191970" d="M525.1096,-370.1016C525.8679,-352.7784 529.7665,-328.134 544.5,-313 562.587,-294.4213 626.5842,-279.5584 674.7106,-270.6639"/>
<polygon fill="#191970" stroke="#191970" points="521.608,-370.2117 524.9824,-380.2548 528.6075,-370.2994 521.608,-370.2117"/>
</g>
<!-- Node21 -->
<g id="node16" class="node">
<title>Node21</title>
<g id="a_node16"><a xlink:href="NNI_8cpp.html" target="_top" xlink:title="NNI.cpp">
<polygon fill="none" stroke="#000000" points="178,-319 178,-338 231,-338 231,-319 178,-319"/>
<text text-anchor="middle" x="204.5" y="-326" font-family="Helvetica,sans-Serif" font-size="10.00" fill="#000000">NNI.cpp</text>
</a>
</g>
</g>
<!-- Node14&#45;&gt;Node21 -->
<g id="edge16" class="edge">
<title>Node14&#45;&gt;Node21</title>
<path fill="none" stroke="#191970" d="M472.4319,-379.896C368.4309,-362.7232 338.1568,-372.0743 240.5,-344 235.1374,-342.4584 229.5165,-340.314 224.3532,-338.1113"/>
<polygon fill="#191970" stroke="#191970" points="471.9478,-383.3637 482.3921,-381.5838 473.1174,-376.4621 471.9478,-383.3637"/>
</g>
<!-- Node22 -->
<g id="node17" class="node">
<title>Node22</title>
<g id="a_node17"><a xlink:href="PhyloProcess_8cpp.html" target="_top" xlink:title="PhyloProcess.cpp">
<polygon fill="none" stroke="#000000" points="249.5,-319 249.5,-338 345.5,-338 345.5,-319 249.5,-319"/>
<text text-anchor="middle" x="297.5" y="-326" font-family="Helvetica,sans-Serif" font-size="10.00" fill="#000000">PhyloProcess.cpp</text>
</a>
</g>
</g>
<!-- Node14&#45;&gt;Node22 -->
<g id="edge17" class="edge">
<title>Node14&#45;&gt;Node22</title>
<path fill="none" stroke="#191970" d="M480.0184,-377.8013C445.5576,-368.5497 397.0413,-355.506 354.5,-344 347.3724,-342.0722 339.7452,-340.0027 332.4634,-338.0237"/>
<polygon fill="#191970" stroke="#191970" points="479.2279,-381.2129 489.7934,-380.425 481.0426,-374.4522 479.2279,-381.2129"/>
</g>
<!-- Node15&#45;&gt;Node16 -->
<g id="edge10" class="edge">
<title>Node15&#45;&gt;Node16</title>
<path fill="none" stroke="#191970" d="M768.2134,-248.416C804.7561,-235.3928 859.9697,-215.7156 892.6142,-204.0817"/>
<polygon fill="#191970" stroke="#191970" points="766.6805,-245.2466 758.4358,-251.9005 769.0305,-251.8403 766.6805,-245.2466"/>
</g>
<!-- Node18 -->
<g id="node13" class="node">
<title>Node18</title>
<g id="a_node13"><a xlink:href="GeneralPathSuffStatMatrixPhyloProcess_8h.html" target="_top" xlink:title="GeneralPathSuffStatMatrix\lPhyloProcess.h">
<polygon fill="none" stroke="#000000" points="378.5,-179.5 378.5,-209.5 512.5,-209.5 512.5,-179.5 378.5,-179.5"/>
<text text-anchor="start" x="386.5" y="-197.5" font-family="Helvetica,sans-Serif" font-size="10.00" fill="#000000">GeneralPathSuffStatMatrix</text>
<text text-anchor="middle" x="445.5" y="-186.5" font-family="Helvetica,sans-Serif" font-size="10.00" fill="#000000">PhyloProcess.h</text>
</a>
</g>
</g>
<!-- Node15&#45;&gt;Node18 -->
<g id="edge13" class="edge">
<title>Node15&#45;&gt;Node18</title>
<path fill="none" stroke="#191970" d="M681.0285,-249.6762C633.3234,-238.5006 561.5414,-221.6845 509.7661,-209.5553"/>
<polygon fill="#191970" stroke="#191970" points="680.2922,-253.0984 690.8269,-251.9717 681.8888,-246.283 680.2922,-253.0984"/>
</g>
<!-- Node20 -->
<g id="node15" class="node">
<title>Node20</title>
<g id="a_node15"><a xlink:href="MatrixPhyloProcess_8cpp.html" target="_top" xlink:title="MatrixPhyloProcess.cpp">
<polygon fill="none" stroke="#000000" points="670,-185 670,-204 793,-204 793,-185 670,-185"/>
<text text-anchor="middle" x="731.5" y="-192" font-family="Helvetica,sans-Serif" font-size="10.00" fill="#000000">MatrixPhyloProcess.cpp</text>
</a>
</g>
</g>
<!-- Node15&#45;&gt;Node20 -->
<g id="edge15" class="edge">
<title>Node15&#45;&gt;Node20</title>
<path fill="none" stroke="#191970" d="M731.5,-241.6079C731.5,-229.214 731.5,-213.8263 731.5,-204.0817"/>
<polygon fill="#191970" stroke="#191970" points="728.0001,-241.9005 731.5,-251.9005 735.0001,-241.9006 728.0001,-241.9005"/>
</g>
<!-- Node16&#45;&gt;Node9 -->
<g id="edge12" class="edge">
<title>Node16&#45;&gt;Node9</title>
<path fill="none" stroke="#191970" d="M874.7641,-182.3158C827.0582,-169.3228 752.4849,-149.0122 708.7622,-137.1039"/>
<polygon fill="#191970" stroke="#191970" points="873.9471,-185.7208 884.5154,-184.9717 875.7867,-178.9668 873.9471,-185.7208"/>
</g>
<!-- Node17 -->
<g id="node12" class="node">
<title>Node17</title>
<g id="a_node12"><a xlink:href="ExpoConjugateGTRPhyloProcess_8cpp.html" target="_top" xlink:title="ExpoConjugateGTRPhyloProcess.cpp">
<polygon fill="none" stroke="#000000" points="827.5,-118 827.5,-137 1011.5,-137 1011.5,-118 827.5,-118"/>
<text text-anchor="middle" x="919.5" y="-125" font-family="Helvetica,sans-Serif" font-size="10.00" fill="#000000">ExpoConjugateGTRPhyloProcess.cpp</text>
</a>
</g>
</g>
<!-- Node16&#45;&gt;Node17 -->
<g id="edge11" class="edge">
<title>Node16&#45;&gt;Node17</title>
<path fill="none" stroke="#191970" d="M919.5,-174.6079C919.5,-162.214 919.5,-146.8263 919.5,-137.0817"/>
<polygon fill="#191970" stroke="#191970" points="916.0001,-174.9005 919.5,-184.9005 923.0001,-174.9006 916.0001,-174.9005"/>
</g>
<!-- Node19 -->
<g id="node14" class="node">
<title>Node19</title>
<g id="a_node14"><a xlink:href="GeneralPathSuffStatMatrixPhyloProcess_8cpp.html" target="_top" xlink:title="GeneralPathSuffStatMatrix\lPhyloProcess.cpp">
<polygon fill="none" stroke="#000000" points="378.5,-112.5 378.5,-142.5 512.5,-142.5 512.5,-112.5 378.5,-112.5"/>
<text text-anchor="start" x="386.5" y="-130.5" font-family="Helvetica,sans-Serif" font-size="10.00" fill="#000000">GeneralPathSuffStatMatrix</text>
<text text-anchor="middle" x="445.5" y="-119.5" font-family="Helvetica,sans-Serif" font-size="10.00" fill="#000000">PhyloProcess.cpp</text>
</a>
</g>
</g>
<!-- Node18&#45;&gt;Node19 -->
<g id="edge14" class="edge">
<title>Node18&#45;&gt;Node19</title>
<path fill="none" stroke="#191970" d="M445.5,-169.0249C445.5,-160.128 445.5,-150.4287 445.5,-142.6432"/>
<polygon fill="#191970" stroke="#191970" points="442.0001,-169.2966 445.5,-179.2967 449.0001,-169.2967 442.0001,-169.2966"/>
</g>
<!-- Node23&#45;&gt;Node15 -->
<g id="edge19" class="edge">
<title>Node23&#45;&gt;Node15</title>
<path fill="none" stroke="#191970" d="M702.2001,-370.9455C705.7171,-362.7652 709.6176,-353.0286 712.5,-344 720.725,-318.237 726.942,-286.8887 729.7884,-271.2932"/>
<polygon fill="#191970" stroke="#191970" points="698.9045,-369.7437 698.0559,-380.3045 705.3051,-372.5779 698.9045,-369.7437"/>
</g>
<!-- Node23&#45;&gt;Node24 -->
<g id="edge20" class="edge">
<title>Node23&#45;&gt;Node24</title>
<path fill="none" stroke="#191970" d="M739.1714,-377.8407C783.0093,-366.1696 848.3324,-348.7784 888.5756,-338.0643"/>
<polygon fill="#191970" stroke="#191970" points="738.1032,-374.5031 729.3403,-380.4581 739.9042,-381.2675 738.1032,-374.5031"/>
</g>
<!-- Node27 -->
<g id="node22" class="node">
<title>Node27</title>
<g id="a_node22"><a xlink:href="GeneralPathSuffStatMatrixSubstitutionProcess_8h.html" target="_top" xlink:title="GeneralPathSuffStatMatrix\lSubstitutionProcess.h">
<polygon fill="none" stroke="#000000" points="363.5,-313.5 363.5,-343.5 497.5,-343.5 497.5,-313.5 363.5,-313.5"/>
<text text-anchor="start" x="371.5" y="-331.5" font-family="Helvetica,sans-Serif" font-size="10.00" fill="#000000">GeneralPathSuffStatMatrix</text>
<text text-anchor="middle" x="430.5" y="-320.5" font-family="Helvetica,sans-Serif" font-size="10.00" fill="#000000">SubstitutionProcess.h</text>
</a>
</g>
</g>
<!-- Node23&#45;&gt;Node27 -->
<g id="edge25" class="edge">
<title>Node23&#45;&gt;Node27</title>
<path fill="none" stroke="#191970" d="M642.9137,-378.1709C600.7164,-368.3035 540.3355,-354.184 494.7289,-343.5193"/>
<polygon fill="#191970" stroke="#191970" points="642.1605,-381.5891 652.6948,-380.4581 643.7545,-374.773 642.1605,-381.5891"/>
</g>
<!-- Node29 -->
<g id="node24" class="node">
<title>Node29</title>
<g id="a_node24"><a xlink:href="MatrixSubstitutionProcess_8cpp.html" target="_top" xlink:title="MatrixSubstitutionProcess.cpp">
<polygon fill="none" stroke="#000000" points="553.5,-319 553.5,-338 703.5,-338 703.5,-319 553.5,-319"/>
<text text-anchor="middle" x="628.5" y="-326" font-family="Helvetica,sans-Serif" font-size="10.00" fill="#000000">MatrixSubstitutionProcess.cpp</text>
</a>
</g>
</g>
<!-- Node23&#45;&gt;Node29 -->
<g id="edge28" class="edge">
<title>Node23&#45;&gt;Node29</title>
<path fill="none" stroke="#191970" d="M675.7707,-373.2253C663.9095,-362.0028 648.7143,-347.6258 638.7994,-338.2449"/>
<polygon fill="#191970" stroke="#191970" points="673.6743,-376.0602 683.3438,-380.3906 678.4853,-370.9754 673.6743,-376.0602"/>
</g>
<!-- Node30 -->
<g id="node25" class="node">
<title>Node30</title>
<g id="a_node25"><a xlink:href="Propagate_8cpp.html" target="_top" xlink:title="Propagate.cpp">
<polygon fill="none" stroke="#000000" points="759.5,-319 759.5,-338 839.5,-338 839.5,-319 759.5,-319"/>
<text text-anchor="middle" x="799.5" y="-326" font-family="Helvetica,sans-Serif" font-size="10.00" fill="#000000">Propagate.cpp</text>
</a>
</g>
</g>
<!-- Node23&#45;&gt;Node30 -->
<g id="edge29" class="edge">
<title>Node23&#45;&gt;Node30</title>
<path fill="none" stroke="#191970" d="M718.9081,-375.2585C738.8091,-363.7122 765.9074,-347.99 783.0538,-338.0419"/>
<polygon fill="#191970" stroke="#191970" points="716.9557,-372.3448 710.0625,-380.3906 720.4686,-378.3995 716.9557,-372.3448"/>
</g>
<!-- Node24&#45;&gt;Node15 -->
<g id="edge21" class="edge">
<title>Node24&#45;&gt;Node15</title>
<path fill="none" stroke="#191970" d="M887.2901,-315.5826C849.7805,-302.5611 792.7568,-282.7653 759.1009,-271.0817"/>
<polygon fill="#191970" stroke="#191970" points="886.253,-318.9274 896.8478,-318.9005 888.5487,-312.3145 886.253,-318.9274"/>
</g>
<!-- Node24&#45;&gt;Node25 -->
<g id="edge22" class="edge">
<title>Node24&#45;&gt;Node25</title>
<path fill="none" stroke="#191970" d="M961.283,-315.4605C992.773,-304.2974 1038.1213,-288.2216 1071.1252,-276.5218"/>
<polygon fill="#191970" stroke="#191970" points="959.8349,-312.2604 951.5791,-318.9005 962.1738,-318.8581 959.8349,-312.2604"/>
</g>
<!-- Node25&#45;&gt;Node16 -->
<g id="edge23" class="edge">
<title>Node25&#45;&gt;Node16</title>
<path fill="none" stroke="#191970" d="M1060.4027,-243.1623C1023.7178,-230.4928 976.4152,-214.1563 947.0228,-204.0053"/>
<polygon fill="#191970" stroke="#191970" points="1059.3679,-246.5077 1069.9626,-246.4639 1061.653,-239.8912 1059.3679,-246.5077"/>
</g>
<!-- Node26 -->
<g id="node21" class="node">
<title>Node26</title>
<g id="a_node21"><a xlink:href="ExpoConjugateGTRSubstitutionProcess_8cpp.html" target="_top" xlink:title="ExpoConjugateGTRSubstitution\lProcess.cpp">
<polygon fill="none" stroke="#000000" points="1035.5,-179.5 1035.5,-209.5 1191.5,-209.5 1191.5,-179.5 1035.5,-179.5"/>
<text text-anchor="start" x="1043.5" y="-197.5" font-family="Helvetica,sans-Serif" font-size="10.00" fill="#000000">ExpoConjugateGTRSubstitution</text>
<text text-anchor="middle" x="1113.5" y="-186.5" font-family="Helvetica,sans-Serif" font-size="10.00" fill="#000000">Process.cpp</text>
</a>
</g>
</g>
<!-- Node25&#45;&gt;Node26 -->
<g id="edge24" class="edge">
<title>Node25&#45;&gt;Node26</title>
<path fill="none" stroke="#191970" d="M1113.5,-236.0249C1113.5,-227.128 1113.5,-217.4287 1113.5,-209.6432"/>
<polygon fill="#191970" stroke="#191970" points="1110.0001,-236.2966 1113.5,-246.2967 1117.0001,-236.2967 1110.0001,-236.2966"/>
</g>
<!-- Node27&#45;&gt;Node18 -->
<g id="edge26" class="edge">
<title>Node27&#45;&gt;Node18</title>
<path fill="none" stroke="#191970" d="M433.3162,-303.3415C436.3978,-275.8131 441.2383,-232.5714 443.7916,-209.7614"/>
<polygon fill="#191970" stroke="#191970" points="429.8258,-303.0617 432.1915,-313.389 436.7824,-303.8404 429.8258,-303.0617"/>
</g>
<!-- Node28 -->
<g id="node23" class="node">
<title>Node28</title>
<g id="a_node23"><a xlink:href="GeneralPathSuffStatMatrixSubstitutionProcess_8cpp.html" target="_top" xlink:title="GeneralPathSuffStatMatrix\lSubstitutionProcess.cpp">
<polygon fill="none" stroke="#000000" points="458.5,-246.5 458.5,-276.5 592.5,-276.5 592.5,-246.5 458.5,-246.5"/>
<text text-anchor="start" x="466.5" y="-264.5" font-family="Helvetica,sans-Serif" font-size="10.00" fill="#000000">GeneralPathSuffStatMatrix</text>
<text text-anchor="middle" x="525.5" y="-253.5" font-family="Helvetica,sans-Serif" font-size="10.00" fill="#000000">SubstitutionProcess.cpp</text>
</a>
</g>
</g>
<!-- Node27&#45;&gt;Node28 -->
<g id="edge27" class="edge">
<title>Node27&#45;&gt;Node28</title>
<path fill="none" stroke="#191970" d="M460.4932,-307.3469C474.6288,-297.3776 491.1695,-285.7121 504.0283,-276.6432"/>
<polygon fill="#191970" stroke="#191970" points="458.2118,-304.6729 452.057,-313.2967 462.2463,-310.3934 458.2118,-304.6729"/>
</g>
</g>
</svg>
