<?xml version="1.0" encoding="UTF-8" standalone="no"?>
<!DOCTYPE svg PUBLIC "-//W3C//DTD SVG 1.1//EN"
 "http://www.w3.org/Graphics/SVG/1.1/DTD/svg11.dtd">
<!-- Generated by graphviz version 2.38.0 (20140413.2041)
 -->
<!-- Title: SBDPProfileProcess.cpp Pages: 1 -->
<svg width="491pt" height="420pt"
 viewBox="0.00 0.00 491.00 420.00" xmlns="http://www.w3.org/2000/svg" xmlns:xlink="http://www.w3.org/1999/xlink">
<g id="graph0" class="graph" transform="scale(1 1) rotate(0) translate(4 416)">
<title>SBDPProfileProcess.cpp</title>
<!-- Node0 -->
<g id="node1" class="node"><title>Node0</title>
<polygon fill="#bfbfbf" stroke="black" points="194.5,-392.5 194.5,-411.5 321.5,-411.5 321.5,-392.5 194.5,-392.5"/>
<text text-anchor="middle" x="258" y="-399.5" font-family="Helvetica,sans-Serif" font-size="10.00">SBDPProfileProcess.cpp</text>
</g>
<!-- Node1 -->
<g id="node2" class="node"><title>Node1</title>
<g id="a_node2"><a xlink:href="SBDPProfileProcess_8h.html" target="_top" xlink:title="SBDPProfileProcess.h">
<polygon fill="none" stroke="black" points="157,-336.5 157,-355.5 273,-355.5 273,-336.5 157,-336.5"/>
<text text-anchor="middle" x="215" y="-343.5" font-family="Helvetica,sans-Serif" font-size="10.00">SBDPProfileProcess.h</text>
</a>
</g>
</g>
<!-- Node0&#45;&gt;Node1 -->
<g id="edge1" class="edge"><title>Node0&#45;&gt;Node1</title>
<path fill="none" stroke="midnightblue" d="M250.899,-392.083C244.763,-384.377 235.73,-373.033 228.261,-363.653"/>
<polygon fill="midnightblue" stroke="midnightblue" points="230.936,-361.394 221.968,-355.751 225.46,-365.754 230.936,-361.394"/>
</g>
<!-- Node15 -->
<g id="node16" class="node"><title>Node15</title>
<g id="a_node16"><a xlink:href="Random_8h.html" target="_top" xlink:title="Random.h">
<polygon fill="none" stroke="black" points="270,-224.5 270,-243.5 332,-243.5 332,-224.5 270,-224.5"/>
<text text-anchor="middle" x="301" y="-231.5" font-family="Helvetica,sans-Serif" font-size="10.00">Random.h</text>
</a>
</g>
</g>
<!-- Node0&#45;&gt;Node15 -->
<g id="edge20" class="edge"><title>Node0&#45;&gt;Node15</title>
<path fill="none" stroke="midnightblue" d="M263.698,-392.429C269.254,-383.654 277.505,-369.435 282,-356 293.654,-321.167 298.231,-278.252 299.976,-254.02"/>
<polygon fill="midnightblue" stroke="midnightblue" points="303.488,-253.943 300.624,-243.743 296.502,-253.503 303.488,-253.943"/>
</g>
<!-- Node2 -->
<g id="node3" class="node"><title>Node2</title>
<polygon fill="none" stroke="#bfbfbf" points="157,-168.5 157,-187.5 201,-187.5 201,-168.5 157,-168.5"/>
<text text-anchor="middle" x="179" y="-175.5" font-family="Helvetica,sans-Serif" font-size="10.00">cmath</text>
</g>
<!-- Node1&#45;&gt;Node2 -->
<g id="edge2" class="edge"><title>Node1&#45;&gt;Node2</title>
<path fill="none" stroke="midnightblue" d="M213.064,-336.075C207.398,-309.945 190.757,-233.211 183.029,-197.577"/>
<polygon fill="midnightblue" stroke="midnightblue" points="186.398,-196.599 180.858,-187.568 179.557,-198.083 186.398,-196.599"/>
</g>
<!-- Node3 -->
<g id="node4" class="node"><title>Node3</title>
<g id="a_node4"><a xlink:href="DPProfileProcess_8h.html" target="_top" xlink:title="DPProfileProcess.h">
<polygon fill="none" stroke="black" points="88.5,-280.5 88.5,-299.5 191.5,-299.5 191.5,-280.5 88.5,-280.5"/>
<text text-anchor="middle" x="140" y="-287.5" font-family="Helvetica,sans-Serif" font-size="10.00">DPProfileProcess.h</text>
</a>
</g>
</g>
<!-- Node1&#45;&gt;Node3 -->
<g id="edge3" class="edge"><title>Node1&#45;&gt;Node3</title>
<path fill="none" stroke="midnightblue" d="M202.95,-336.324C191.537,-328.107 174.169,-315.602 160.565,-305.807"/>
<polygon fill="midnightblue" stroke="midnightblue" points="162.43,-302.837 152.269,-299.834 158.34,-308.517 162.43,-302.837"/>
</g>
<!-- Node3&#45;&gt;Node2 -->
<g id="edge4" class="edge"><title>Node3&#45;&gt;Node2</title>
<path fill="none" stroke="midnightblue" d="M144.919,-280.265C149.776,-271.362 157.16,-257.045 162,-244 167.648,-228.775 172.181,-210.886 175.141,-197.733"/>
<polygon fill="midnightblue" stroke="midnightblue" points="178.644,-198.093 177.326,-187.58 171.8,-196.62 178.644,-198.093"/>
</g>
<!-- Node4 -->
<g id="node5" class="node"><title>Node4</title>
<g id="a_node5"><a xlink:href="MixtureProfileProcess_8h.html" target="_top" xlink:title="MixtureProfileProcess.h">
<polygon fill="none" stroke="black" points="32.5,-224.5 32.5,-243.5 153.5,-243.5 153.5,-224.5 32.5,-224.5"/>
<text text-anchor="middle" x="93" y="-231.5" font-family="Helvetica,sans-Serif" font-size="10.00">MixtureProfileProcess.h</text>
</a>
</g>
</g>
<!-- Node3&#45;&gt;Node4 -->
<g id="edge5" class="edge"><title>Node3&#45;&gt;Node4</title>
<path fill="none" stroke="midnightblue" d="M132.239,-280.083C125.463,-272.298 115.457,-260.801 107.245,-251.367"/>
<polygon fill="midnightblue" stroke="midnightblue" points="109.822,-248.996 100.617,-243.751 104.542,-253.592 109.822,-248.996"/>
</g>
<!-- Node4&#45;&gt;Node2 -->
<g id="edge6" class="edge"><title>Node4&#45;&gt;Node2</title>
<path fill="none" stroke="midnightblue" d="M106.817,-224.324C120.233,-215.9 140.824,-202.971 156.586,-193.074"/>
<polygon fill="midnightblue" stroke="midnightblue" points="158.609,-195.936 165.217,-187.655 154.887,-190.008 158.609,-195.936"/>
</g>
<!-- Node5 -->
<g id="node6" class="node"><title>Node5</title>
<g id="a_node6"><a xlink:href="ProfileProcess_8h.html" target="_top" xlink:title="ProfileProcess.h">
<polygon fill="none" stroke="black" points="50.5,-168.5 50.5,-187.5 139.5,-187.5 139.5,-168.5 50.5,-168.5"/>
<text text-anchor="middle" x="95" y="-175.5" font-family="Helvetica,sans-Serif" font-size="10.00">ProfileProcess.h</text>
</a>
</g>
</g>
<!-- Node4&#45;&gt;Node5 -->
<g id="edge7" class="edge"><title>Node4&#45;&gt;Node5</title>
<path fill="none" stroke="midnightblue" d="M93.3303,-224.083C93.5924,-217.006 93.9681,-206.861 94.2968,-197.986"/>
<polygon fill="midnightblue" stroke="midnightblue" points="97.8033,-197.874 94.6759,-187.751 90.8081,-197.615 97.8033,-197.874"/>
</g>
<!-- Node6 -->
<g id="node7" class="node"><title>Node6</title>
<g id="a_node7"><a xlink:href="Chrono_8h.html" target="_top" xlink:title="Chrono.h">
<polygon fill="none" stroke="black" points="251,-56.5 251,-75.5 307,-75.5 307,-56.5 251,-56.5"/>
<text text-anchor="middle" x="279" y="-63.5" font-family="Helvetica,sans-Serif" font-size="10.00">Chrono.h</text>
</a>
</g>
</g>
<!-- Node5&#45;&gt;Node6 -->
<g id="edge8" class="edge"><title>Node5&#45;&gt;Node6</title>
<path fill="none" stroke="midnightblue" d="M130.029,-168.453C155.28,-161.26 189.447,-149.341 216,-132 236.049,-118.906 254.551,-98.3714 266.244,-83.8925"/>
<polygon fill="midnightblue" stroke="midnightblue" points="269.187,-85.8113 272.598,-75.7805 263.677,-81.4948 269.187,-85.8113"/>
</g>
<!-- Node9 -->
<g id="node10" class="node"><title>Node9</title>
<polygon fill="none" stroke="#bfbfbf" points="116,-0.5 116,-19.5 170,-19.5 170,-0.5 116,-0.5"/>
<text text-anchor="middle" x="143" y="-7.5" font-family="Helvetica,sans-Serif" font-size="10.00">iostream</text>
</g>
<!-- Node5&#45;&gt;Node9 -->
<g id="edge18" class="edge"><title>Node5&#45;&gt;Node9</title>
<path fill="none" stroke="midnightblue" d="M99.4974,-168.234C103.933,-159.307 110.661,-144.972 115,-132 126.869,-96.5182 135.512,-53.5456 139.85,-29.5382"/>
<polygon fill="midnightblue" stroke="midnightblue" points="143.301,-30.1185 141.582,-19.664 136.406,-28.9087 143.301,-30.1185"/>
</g>
<!-- Node11 -->
<g id="node12" class="node"><title>Node11</title>
<g id="a_node12"><a xlink:href="StateSpace_8h.html" target="_top" xlink:title="StateSpace.h">
<polygon fill="none" stroke="black" points="30,-112.5 30,-131.5 106,-131.5 106,-112.5 30,-112.5"/>
<text text-anchor="middle" x="68" y="-119.5" font-family="Helvetica,sans-Serif" font-size="10.00">StateSpace.h</text>
</a>
</g>
</g>
<!-- Node5&#45;&gt;Node11 -->
<g id="edge13" class="edge"><title>Node5&#45;&gt;Node11</title>
<path fill="none" stroke="midnightblue" d="M90.5415,-168.083C86.8457,-160.691 81.4766,-149.953 76.9055,-140.811"/>
<polygon fill="midnightblue" stroke="midnightblue" points="79.9782,-139.13 72.3755,-131.751 73.7172,-142.261 79.9782,-139.13"/>
</g>
<!-- Node14 -->
<g id="node15" class="node"><title>Node14</title>
<polygon fill="none" stroke="#bfbfbf" points="172.5,-112.5 172.5,-131.5 207.5,-131.5 207.5,-112.5 172.5,-112.5"/>
<text text-anchor="middle" x="190" y="-119.5" font-family="Helvetica,sans-Serif" font-size="10.00">map</text>
</g>
<!-- Node5&#45;&gt;Node14 -->
<g id="edge19" class="edge"><title>Node5&#45;&gt;Node14</title>
<path fill="none" stroke="midnightblue" d="M110.263,-168.324C125.221,-159.822 148.255,-146.729 165.727,-136.797"/>
<polygon fill="midnightblue" stroke="midnightblue" points="167.81,-139.639 174.774,-131.655 164.351,-133.553 167.81,-139.639"/>
</g>
<!-- Node7 -->
<g id="node8" class="node"><title>Node7</title>
<polygon fill="none" stroke="#bfbfbf" points="188.5,-0.5 188.5,-19.5 229.5,-19.5 229.5,-0.5 188.5,-0.5"/>
<text text-anchor="middle" x="209" y="-7.5" font-family="Helvetica,sans-Serif" font-size="10.00">ctime</text>
</g>
<!-- Node6&#45;&gt;Node7 -->
<g id="edge9" class="edge"><title>Node6&#45;&gt;Node7</title>
<path fill="none" stroke="midnightblue" d="M267.753,-56.324C257.203,-48.1849 241.199,-35.8395 228.558,-26.0874"/>
<polygon fill="midnightblue" stroke="midnightblue" points="230.507,-23.1707 220.451,-19.8339 226.231,-28.7132 230.507,-23.1707"/>
</g>
<!-- Node8 -->
<g id="node9" class="node"><title>Node8</title>
<polygon fill="none" stroke="#bfbfbf" points="248,-0.5 248,-19.5 310,-19.5 310,-0.5 248,-0.5"/>
<text text-anchor="middle" x="279" y="-7.5" font-family="Helvetica,sans-Serif" font-size="10.00">sys/time.h</text>
</g>
<!-- Node6&#45;&gt;Node8 -->
<g id="edge10" class="edge"><title>Node6&#45;&gt;Node8</title>
<path fill="none" stroke="midnightblue" d="M279,-56.083C279,-49.0059 279,-38.8611 279,-29.9865"/>
<polygon fill="midnightblue" stroke="midnightblue" points="282.5,-29.751 279,-19.7511 275.5,-29.7511 282.5,-29.751"/>
</g>
<!-- Node6&#45;&gt;Node9 -->
<g id="edge11" class="edge"><title>Node6&#45;&gt;Node9</title>
<path fill="none" stroke="midnightblue" d="M257.45,-56.4435C234.969,-47.5171 199.512,-33.4387 174.02,-23.3168"/>
<polygon fill="midnightblue" stroke="midnightblue" points="175.035,-19.9539 164.449,-19.5164 172.451,-26.4598 175.035,-19.9539"/>
</g>
<!-- Node10 -->
<g id="node11" class="node"><title>Node10</title>
<polygon fill="none" stroke="#bfbfbf" points="328.5,-0.5 328.5,-19.5 373.5,-19.5 373.5,-0.5 328.5,-0.5"/>
<text text-anchor="middle" x="351" y="-7.5" font-family="Helvetica,sans-Serif" font-size="10.00">cstdlib</text>
</g>
<!-- Node6&#45;&gt;Node10 -->
<g id="edge12" class="edge"><title>Node6&#45;&gt;Node10</title>
<path fill="none" stroke="midnightblue" d="M290.568,-56.324C301.42,-48.1849 317.881,-35.8395 330.883,-26.0874"/>
<polygon fill="midnightblue" stroke="midnightblue" points="333.321,-28.6339 339.221,-19.8339 329.121,-23.0339 333.321,-28.6339"/>
</g>
<!-- Node12 -->
<g id="node13" class="node"><title>Node12</title>
<g id="a_node13"><a xlink:href="BiologicalSequences_8h.html" target="_top" xlink:title="BiologicalSequences.h">
<polygon fill="none" stroke="black" points="0,-56.5 0,-75.5 116,-75.5 116,-56.5 0,-56.5"/>
<text text-anchor="middle" x="58" y="-63.5" font-family="Helvetica,sans-Serif" font-size="10.00">BiologicalSequences.h</text>
</a>
</g>
</g>
<!-- Node11&#45;&gt;Node12 -->
<g id="edge14" class="edge"><title>Node11&#45;&gt;Node12</title>
<path fill="none" stroke="midnightblue" d="M66.3487,-112.083C65.0236,-104.927 63.1176,-94.6353 61.4613,-85.6911"/>
<polygon fill="midnightblue" stroke="midnightblue" points="64.883,-84.9466 59.6206,-75.7511 58.0001,-86.2212 64.883,-84.9466"/>
</g>
<!-- Node12&#45;&gt;Node9 -->
<g id="edge16" class="edge"><title>Node12&#45;&gt;Node9</title>
<path fill="none" stroke="midnightblue" d="M71.6567,-56.324C84.9163,-47.9002 105.268,-34.9709 120.846,-25.0741"/>
<polygon fill="midnightblue" stroke="midnightblue" points="122.813,-27.9711 129.377,-19.6545 119.06,-22.0626 122.813,-27.9711"/>
</g>
<!-- Node12&#45;&gt;Node10 -->
<g id="edge15" class="edge"><title>Node12&#45;&gt;Node10</title>
<path fill="none" stroke="midnightblue" d="M116.133,-56.7402C166.969,-49.1183 242.949,-36.7664 318.217,-19.9723"/>
<polygon fill="midnightblue" stroke="midnightblue" points="319.365,-23.301 328.348,-17.6834 317.823,-16.4731 319.365,-23.301"/>
</g>
<!-- Node13 -->
<g id="node14" class="node"><title>Node13</title>
<polygon fill="none" stroke="#bfbfbf" points="37.5,-0.5 37.5,-19.5 78.5,-19.5 78.5,-0.5 37.5,-0.5"/>
<text text-anchor="middle" x="58" y="-7.5" font-family="Helvetica,sans-Serif" font-size="10.00">string</text>
</g>
<!-- Node12&#45;&gt;Node13 -->
<g id="edge17" class="edge"><title>Node12&#45;&gt;Node13</title>
<path fill="none" stroke="midnightblue" d="M58,-56.083C58,-49.0059 58,-38.8611 58,-29.9865"/>
<polygon fill="midnightblue" stroke="midnightblue" points="61.5001,-29.751 58,-19.7511 54.5001,-29.7511 61.5001,-29.751"/>
</g>
<!-- Node15&#45;&gt;Node2 -->
<g id="edge21" class="edge"><title>Node15&#45;&gt;Node2</title>
<path fill="none" stroke="midnightblue" d="M281.669,-224.444C261.68,-215.596 230.257,-201.687 207.436,-191.586"/>
<polygon fill="midnightblue" stroke="midnightblue" points="208.802,-188.363 198.241,-187.516 205.968,-194.764 208.802,-188.363"/>
</g>
<!-- Node15&#45;&gt;Node9 -->
<g id="edge23" class="edge"><title>Node15&#45;&gt;Node9</title>
<path fill="none" stroke="midnightblue" d="M298.978,-224.145C295.785,-211.204 288.802,-186.643 278,-168 244.374,-109.966 188.051,-53.1276 159.979,-26.57"/>
<polygon fill="midnightblue" stroke="midnightblue" points="162.236,-23.8892 152.54,-19.6185 157.456,-29.0035 162.236,-23.8892"/>
</g>
<!-- Node15&#45;&gt;Node10 -->
<g id="edge22" class="edge"><title>Node15&#45;&gt;Node10</title>
<path fill="none" stroke="midnightblue" d="M302.96,-224.297C310.333,-191.563 336.501,-75.3752 346.796,-29.6664"/>
<polygon fill="midnightblue" stroke="midnightblue" points="350.216,-30.4084 348.999,-19.8837 343.387,-28.8703 350.216,-30.4084"/>
</g>
<!-- Node16 -->
<g id="node17" class="node"><title>Node16</title>
<polygon fill="none" stroke="#bfbfbf" points="363,-168.5 363,-187.5 415,-187.5 415,-168.5 363,-168.5"/>
<text text-anchor="middle" x="389" y="-175.5" font-family="Helvetica,sans-Serif" font-size="10.00">sstream</text>
</g>
<!-- Node15&#45;&gt;Node16 -->
<g id="edge24" class="edge"><title>Node15&#45;&gt;Node16</title>
<path fill="none" stroke="midnightblue" d="M315.139,-224.324C328.866,-215.9 349.936,-202.971 366.064,-193.074"/>
<polygon fill="midnightblue" stroke="midnightblue" points="368.204,-195.868 374.896,-187.655 364.543,-189.902 368.204,-195.868"/>
</g>
<!-- Node17 -->
<g id="node18" class="node"><title>Node17</title>
<polygon fill="none" stroke="#bfbfbf" points="433,-168.5 433,-187.5 483,-187.5 483,-168.5 433,-168.5"/>
<text text-anchor="middle" x="458" y="-175.5" font-family="Helvetica,sans-Serif" font-size="10.00">iomanip</text>
</g>
<!-- Node15&#45;&gt;Node17 -->
<g id="edge25" class="edge"><title>Node15&#45;&gt;Node17</title>
<path fill="none" stroke="midnightblue" d="M325.877,-224.444C352.289,-215.359 394.215,-200.939 423.742,-190.783"/>
<polygon fill="midnightblue" stroke="midnightblue" points="424.921,-194.079 433.239,-187.516 422.645,-187.459 424.921,-194.079"/>
</g>
<!-- Node18 -->
<g id="node19" class="node"><title>Node18</title>
<polygon fill="none" stroke="#bfbfbf" points="219,-168.5 219,-187.5 269,-187.5 269,-168.5 219,-168.5"/>
<text text-anchor="middle" x="244" y="-175.5" font-family="Helvetica,sans-Serif" font-size="10.00">fstream</text>
</g>
<!-- Node15&#45;&gt;Node18 -->
<g id="edge26" class="edge"><title>Node15&#45;&gt;Node18</title>
<path fill="none" stroke="midnightblue" d="M291.842,-224.324C283.499,-216.42 270.968,-204.548 260.823,-194.938"/>
<polygon fill="midnightblue" stroke="midnightblue" points="262.991,-192.171 253.325,-187.834 258.177,-197.252 262.991,-192.171"/>
</g>
</g>
</svg>
