<?xml version="1.0" encoding="UTF-8" standalone="no"?>
<!DOCTYPE svg PUBLIC "-//W3C//DTD SVG 1.1//EN"
 "http://www.w3.org/Graphics/SVG/1.1/DTD/svg11.dtd">
<!-- Generated by graphviz version 2.38.0 (20140413.2041)
 -->
<!-- Title: SBDPProfileProcess.h Pages: 1 -->
<svg width="1288pt" height="386pt"
 viewBox="0.00 0.00 1288.00 386.00" xmlns="http://www.w3.org/2000/svg" xmlns:xlink="http://www.w3.org/1999/xlink">
<g id="graph0" class="graph" transform="scale(1 1) rotate(0) translate(4 382)">
<title>SBDPProfileProcess.h</title>
<!-- Node14 -->
<g id="node1" class="node"><title>Node14</title>
<polygon fill="#bfbfbf" stroke="black" points="947,-358.5 947,-377.5 1063,-377.5 1063,-358.5 947,-358.5"/>
<text text-anchor="middle" x="1005" y="-365.5" font-family="Helvetica,sans-Serif" font-size="10.00">SBDPProfileProcess.h</text>
</g>
<!-- Node15 -->
<g id="node2" class="node"><title>Node15</title>
<g id="a_node2"><a xlink:href="MatrixSBDPProfileProcess_8h.html" target="_top" xlink:title="MatrixSBDPProfileProcess.h">
<polygon fill="none" stroke="black" points="471.5,-302.5 471.5,-321.5 614.5,-321.5 614.5,-302.5 471.5,-302.5"/>
<text text-anchor="middle" x="543" y="-309.5" font-family="Helvetica,sans-Serif" font-size="10.00">MatrixSBDPProfileProcess.h</text>
</a>
</g>
</g>
<!-- Node14&#45;&gt;Node15 -->
<g id="edge1" class="edge"><title>Node14&#45;&gt;Node15</title>
<path fill="none" stroke="midnightblue" d="M937.013,-359.053C850.805,-348.977 702.825,-331.681 614.827,-321.395"/>
<polygon fill="midnightblue" stroke="midnightblue" points="936.616,-362.531 946.955,-360.216 937.429,-355.578 936.616,-362.531"/>
</g>
<!-- Node34 -->
<g id="node21" class="node"><title>Node34</title>
<g id="a_node21"><a xlink:href="PoissonSBDPProfileProcess_8h.html" target="_top" xlink:title="PoissonSBDPProfileProcess.h">
<polygon fill="none" stroke="black" points="929,-302.5 929,-321.5 1081,-321.5 1081,-302.5 929,-302.5"/>
<text text-anchor="middle" x="1005" y="-309.5" font-family="Helvetica,sans-Serif" font-size="10.00">PoissonSBDPProfileProcess.h</text>
</a>
</g>
</g>
<!-- Node14&#45;&gt;Node34 -->
<g id="edge22" class="edge"><title>Node14&#45;&gt;Node34</title>
<path fill="none" stroke="midnightblue" d="M1005,-347.805C1005,-338.91 1005,-328.78 1005,-321.751"/>
<polygon fill="midnightblue" stroke="midnightblue" points="1001.5,-348.083 1005,-358.083 1008.5,-348.083 1001.5,-348.083"/>
</g>
<!-- Node38 -->
<g id="node25" class="node"><title>Node38</title>
<g id="a_node25"><a xlink:href="SBDPProfileProcess_8cpp.html" target="_top" xlink:title="SBDPProfileProcess.cpp">
<polygon fill="none" stroke="black" points="1099.5,-302.5 1099.5,-321.5 1226.5,-321.5 1226.5,-302.5 1099.5,-302.5"/>
<text text-anchor="middle" x="1163" y="-309.5" font-family="Helvetica,sans-Serif" font-size="10.00">SBDPProfileProcess.cpp</text>
</a>
</g>
</g>
<!-- Node14&#45;&gt;Node38 -->
<g id="edge27" class="edge"><title>Node14&#45;&gt;Node38</title>
<path fill="none" stroke="midnightblue" d="M1039.61,-355.172C1069.36,-345.004 1111.55,-330.585 1138.08,-321.516"/>
<polygon fill="midnightblue" stroke="midnightblue" points="1038.37,-351.898 1030.04,-358.444 1040.63,-358.521 1038.37,-351.898"/>
</g>
<!-- Node16 -->
<g id="node3" class="node"><title>Node16</title>
<g id="a_node3"><a xlink:href="AACodonMutSelSBDPProfileProcess_8h.html" target="_top" xlink:title="AACodonMutSelSBDPProfile\lProcess.h">
<polygon fill="none" stroke="black" points="195.5,-235.5 195.5,-265.5 340.5,-265.5 340.5,-235.5 195.5,-235.5"/>
<text text-anchor="start" x="203.5" y="-253.5" font-family="Helvetica,sans-Serif" font-size="10.00">AACodonMutSelSBDPProfile</text>
<text text-anchor="middle" x="268" y="-242.5" font-family="Helvetica,sans-Serif" font-size="10.00">Process.h</text>
</a>
</g>
</g>
<!-- Node15&#45;&gt;Node16 -->
<g id="edge2" class="edge"><title>Node15&#45;&gt;Node16</title>
<path fill="none" stroke="midnightblue" d="M493.793,-300.353C448.847,-290.629 382.089,-276.185 332.812,-265.523"/>
<polygon fill="midnightblue" stroke="midnightblue" points="493.085,-303.781 503.599,-302.475 494.566,-296.939 493.085,-303.781"/>
</g>
<!-- Node23 -->
<g id="node10" class="node"><title>Node23</title>
<g id="a_node10"><a xlink:href="CodonMutSelSBDPProfileProcess_8h.html" target="_top" xlink:title="CodonMutSelSBDPProfileProcess.h">
<polygon fill="none" stroke="black" points="0,-241 0,-260 176,-260 176,-241 0,-241"/>
<text text-anchor="middle" x="88" y="-248" font-family="Helvetica,sans-Serif" font-size="10.00">CodonMutSelSBDPProfileProcess.h</text>
</a>
</g>
</g>
<!-- Node15&#45;&gt;Node23 -->
<g id="edge9" class="edge"><title>Node15&#45;&gt;Node23</title>
<path fill="none" stroke="midnightblue" d="M461.851,-301.275C389.45,-292.479 280.578,-278.956 186,-266 172.453,-264.144 157.869,-262.043 144.199,-260.027"/>
<polygon fill="midnightblue" stroke="midnightblue" points="461.471,-304.755 471.82,-302.485 462.314,-297.806 461.471,-304.755"/>
</g>
<!-- Node27 -->
<g id="node14" class="node"><title>Node27</title>
<g id="a_node14"><a xlink:href="ExpoConjugateGTRSBDPProfileProcess_8h.html" target="_top" xlink:title="ExpoConjugateGTRSBDPProfile\lProcess.h">
<polygon fill="none" stroke="black" points="732,-235.5 732,-265.5 892,-265.5 892,-235.5 732,-235.5"/>
<text text-anchor="start" x="740" y="-253.5" font-family="Helvetica,sans-Serif" font-size="10.00">ExpoConjugateGTRSBDPProfile</text>
<text text-anchor="middle" x="812" y="-242.5" font-family="Helvetica,sans-Serif" font-size="10.00">Process.h</text>
</a>
</g>
</g>
<!-- Node15&#45;&gt;Node27 -->
<g id="edge14" class="edge"><title>Node15&#45;&gt;Node27</title>
<path fill="none" stroke="midnightblue" d="M591.411,-300.292C635.373,-290.568 700.501,-276.162 748.602,-265.523"/>
<polygon fill="midnightblue" stroke="midnightblue" points="590.549,-296.898 581.541,-302.475 592.061,-303.733 590.549,-296.898"/>
</g>
<!-- Node31 -->
<g id="node18" class="node"><title>Node31</title>
<g id="a_node18"><a xlink:href="GeneralPathSuffStatGTRSBDPProfileProcess_8h.html" target="_top" xlink:title="GeneralPathSuffStatGTRSBDPProfile\lProcess.h">
<polygon fill="none" stroke="black" points="358.5,-235.5 358.5,-265.5 541.5,-265.5 541.5,-235.5 358.5,-235.5"/>
<text text-anchor="start" x="366.5" y="-253.5" font-family="Helvetica,sans-Serif" font-size="10.00">GeneralPathSuffStatGTRSBDPProfile</text>
<text text-anchor="middle" x="450" y="-242.5" font-family="Helvetica,sans-Serif" font-size="10.00">Process.h</text>
</a>
</g>
</g>
<!-- Node15&#45;&gt;Node31 -->
<g id="edge19" class="edge"><title>Node15&#45;&gt;Node31</title>
<path fill="none" stroke="midnightblue" d="M521.131,-297.008C506.297,-287.518 486.762,-275.02 471.918,-265.523"/>
<polygon fill="midnightblue" stroke="midnightblue" points="519.366,-300.034 529.675,-302.475 523.138,-294.138 519.366,-300.034"/>
</g>
<!-- Node33 -->
<g id="node20" class="node"><title>Node33</title>
<g id="a_node20"><a xlink:href="MatrixSBDPProfileProcess_8cpp.html" target="_top" xlink:title="MatrixSBDPProfileProcess.cpp">
<polygon fill="none" stroke="black" points="560,-241 560,-260 714,-260 714,-241 560,-241"/>
<text text-anchor="middle" x="637" y="-248" font-family="Helvetica,sans-Serif" font-size="10.00">MatrixSBDPProfileProcess.cpp</text>
</a>
</g>
</g>
<!-- Node15&#45;&gt;Node33 -->
<g id="edge21" class="edge"><title>Node15&#45;&gt;Node33</title>
<path fill="none" stroke="midnightblue" d="M565.229,-296.93C583.351,-285.459 608.351,-269.634 623.557,-260.009"/>
<polygon fill="midnightblue" stroke="midnightblue" points="563.046,-294.169 556.468,-302.475 566.789,-300.084 563.046,-294.169"/>
</g>
<!-- Node17 -->
<g id="node4" class="node"><title>Node17</title>
<g id="a_node4"><a xlink:href="AACodonMutSelSBDPSubstitutionProcess_8h.html" target="_top" xlink:title="AACodonMutSelSBDPSubstitution\lProcess.h">
<polygon fill="none" stroke="black" points="183.5,-168.5 183.5,-198.5 352.5,-198.5 352.5,-168.5 183.5,-168.5"/>
<text text-anchor="start" x="191.5" y="-186.5" font-family="Helvetica,sans-Serif" font-size="10.00">AACodonMutSelSBDPSubstitution</text>
<text text-anchor="middle" x="268" y="-175.5" font-family="Helvetica,sans-Serif" font-size="10.00">Process.h</text>
</a>
</g>
</g>
<!-- Node16&#45;&gt;Node17 -->
<g id="edge3" class="edge"><title>Node16&#45;&gt;Node17</title>
<path fill="none" stroke="midnightblue" d="M268,-225.108C268,-216.154 268,-206.323 268,-198.577"/>
<polygon fill="midnightblue" stroke="midnightblue" points="264.5,-225.396 268,-235.396 271.5,-225.396 264.5,-225.396"/>
</g>
<!-- Node18 -->
<g id="node5" class="node"><title>Node18</title>
<g id="a_node5"><a xlink:href="AACodonMutSelSBDPPhyloProcess_8h.html" target="_top" xlink:title="AACodonMutSelSBDPPhyloProcess.h">
<polygon fill="none" stroke="black" points="303,-112.5 303,-131.5 489,-131.5 489,-112.5 303,-112.5"/>
<text text-anchor="middle" x="396" y="-119.5" font-family="Helvetica,sans-Serif" font-size="10.00">AACodonMutSelSBDPPhyloProcess.h</text>
</a>
</g>
</g>
<!-- Node17&#45;&gt;Node18 -->
<g id="edge4" class="edge"><title>Node17&#45;&gt;Node18</title>
<path fill="none" stroke="midnightblue" d="M307.617,-164.084C330.868,-153.276 359.166,-140.122 377.375,-131.658"/>
<polygon fill="midnightblue" stroke="midnightblue" points="305.927,-161.01 298.334,-168.399 308.878,-167.358 305.927,-161.01"/>
</g>
<!-- Node19 -->
<g id="node6" class="node"><title>Node19</title>
<g id="a_node6"><a xlink:href="AACodonMutSelSBDPPhyloProcess_8cpp.html" target="_top" xlink:title="AACodonMutSelSBDPPhyloProcess.cpp">
<polygon fill="none" stroke="black" points="297.5,-56.5 297.5,-75.5 494.5,-75.5 494.5,-56.5 297.5,-56.5"/>
<text text-anchor="middle" x="396" y="-63.5" font-family="Helvetica,sans-Serif" font-size="10.00">AACodonMutSelSBDPPhyloProcess.cpp</text>
</a>
</g>
</g>
<!-- Node18&#45;&gt;Node19 -->
<g id="edge5" class="edge"><title>Node18&#45;&gt;Node19</title>
<path fill="none" stroke="midnightblue" d="M396,-101.805C396,-92.9102 396,-82.7798 396,-75.7511"/>
<polygon fill="midnightblue" stroke="midnightblue" points="392.5,-102.083 396,-112.083 399.5,-102.083 392.5,-102.083"/>
</g>
<!-- Node20 -->
<g id="node7" class="node"><title>Node20</title>
<g id="a_node7"><a xlink:href="Model_8h.html" target="_top" xlink:title="Model.h">
<polygon fill="none" stroke="black" points="670.5,-56.5 670.5,-75.5 721.5,-75.5 721.5,-56.5 670.5,-56.5"/>
<text text-anchor="middle" x="696" y="-63.5" font-family="Helvetica,sans-Serif" font-size="10.00">Model.h</text>
</a>
</g>
</g>
<!-- Node18&#45;&gt;Node20 -->
<g id="edge6" class="edge"><title>Node18&#45;&gt;Node20</title>
<path fill="none" stroke="midnightblue" d="M453.685,-110.617C519.056,-98.85 622.702,-80.1937 670.417,-71.6049"/>
<polygon fill="midnightblue" stroke="midnightblue" points="452.758,-107.227 443.536,-112.444 453.998,-114.117 452.758,-107.227"/>
</g>
<!-- Node21 -->
<g id="node8" class="node"><title>Node21</title>
<g id="a_node8"><a xlink:href="PB_8cpp.html" target="_top" xlink:title="PB.cpp">
<polygon fill="none" stroke="black" points="632.5,-0.5 632.5,-19.5 681.5,-19.5 681.5,-0.5 632.5,-0.5"/>
<text text-anchor="middle" x="657" y="-7.5" font-family="Helvetica,sans-Serif" font-size="10.00">PB.cpp</text>
</a>
</g>
</g>
<!-- Node20&#45;&gt;Node21 -->
<g id="edge7" class="edge"><title>Node20&#45;&gt;Node21</title>
<path fill="none" stroke="midnightblue" d="M683.618,-47.8554C676.865,-38.5048 668.791,-27.3265 663.32,-19.7511"/>
<polygon fill="midnightblue" stroke="midnightblue" points="680.868,-50.0254 689.56,-56.083 686.542,-45.927 680.868,-50.0254"/>
</g>
<!-- Node22 -->
<g id="node9" class="node"><title>Node22</title>
<g id="a_node9"><a xlink:href="ReadPB_8cpp.html" target="_top" xlink:title="ReadPB.cpp">
<polygon fill="none" stroke="black" points="700,-0.5 700,-19.5 772,-19.5 772,-0.5 700,-0.5"/>
<text text-anchor="middle" x="736" y="-7.5" font-family="Helvetica,sans-Serif" font-size="10.00">ReadPB.cpp</text>
</a>
</g>
</g>
<!-- Node20&#45;&gt;Node22 -->
<g id="edge8" class="edge"><title>Node20&#45;&gt;Node22</title>
<path fill="none" stroke="midnightblue" d="M708.7,-47.8554C715.626,-38.5048 723.906,-27.3265 729.518,-19.7511"/>
<polygon fill="midnightblue" stroke="midnightblue" points="705.745,-45.9641 702.605,-56.083 711.37,-50.1307 705.745,-45.9641"/>
</g>
<!-- Node24 -->
<g id="node11" class="node"><title>Node24</title>
<g id="a_node11"><a xlink:href="CodonMutSelSBDPSubstitutionProcess_8h.html" target="_top" xlink:title="CodonMutSelSBDPSubstitution\lProcess.h">
<polygon fill="none" stroke="black" points="10.5,-168.5 10.5,-198.5 165.5,-198.5 165.5,-168.5 10.5,-168.5"/>
<text text-anchor="start" x="18.5" y="-186.5" font-family="Helvetica,sans-Serif" font-size="10.00">CodonMutSelSBDPSubstitution</text>
<text text-anchor="middle" x="88" y="-175.5" font-family="Helvetica,sans-Serif" font-size="10.00">Process.h</text>
</a>
</g>
</g>
<!-- Node23&#45;&gt;Node24 -->
<g id="edge10" class="edge"><title>Node23&#45;&gt;Node24</title>
<path fill="none" stroke="midnightblue" d="M88,-230.411C88,-220.222 88,-207.901 88,-198.589"/>
<polygon fill="midnightblue" stroke="midnightblue" points="84.5001,-230.734 88,-240.734 91.5001,-230.734 84.5001,-230.734"/>
</g>
<!-- Node25 -->
<g id="node12" class="node"><title>Node25</title>
<g id="a_node12"><a xlink:href="CodonMutSelSBDPPhyloProcess_8h.html" target="_top" xlink:title="CodonMutSelSBDPPhyloProcess.h">
<polygon fill="none" stroke="black" points="51.5,-112.5 51.5,-131.5 224.5,-131.5 224.5,-112.5 51.5,-112.5"/>
<text text-anchor="middle" x="138" y="-119.5" font-family="Helvetica,sans-Serif" font-size="10.00">CodonMutSelSBDPPhyloProcess.h</text>
</a>
</g>
</g>
<!-- Node24&#45;&gt;Node25 -->
<g id="edge11" class="edge"><title>Node24&#45;&gt;Node25</title>
<path fill="none" stroke="midnightblue" d="M106.316,-160.704C114.776,-150.636 124.339,-139.257 130.725,-131.658"/>
<polygon fill="midnightblue" stroke="midnightblue" points="103.603,-158.492 99.8493,-168.399 108.962,-162.995 103.603,-158.492"/>
</g>
<!-- Node25&#45;&gt;Node20 -->
<g id="edge13" class="edge"><title>Node25&#45;&gt;Node20</title>
<path fill="none" stroke="midnightblue" d="M234.655,-111.646C366.184,-98.9176 593.917,-76.879 670.234,-69.4935"/>
<polygon fill="midnightblue" stroke="midnightblue" points="234.192,-108.175 224.575,-112.622 234.866,-115.142 234.192,-108.175"/>
</g>
<!-- Node26 -->
<g id="node13" class="node"><title>Node26</title>
<g id="a_node13"><a xlink:href="CodonMutSelSBDPPhyloProcess_8cpp.html" target="_top" xlink:title="CodonMutSelSBDPPhyloProcess.cpp">
<polygon fill="none" stroke="black" points="46.5,-56.5 46.5,-75.5 229.5,-75.5 229.5,-56.5 46.5,-56.5"/>
<text text-anchor="middle" x="138" y="-63.5" font-family="Helvetica,sans-Serif" font-size="10.00">CodonMutSelSBDPPhyloProcess.cpp</text>
</a>
</g>
</g>
<!-- Node25&#45;&gt;Node26 -->
<g id="edge12" class="edge"><title>Node25&#45;&gt;Node26</title>
<path fill="none" stroke="midnightblue" d="M138,-101.805C138,-92.9102 138,-82.7798 138,-75.7511"/>
<polygon fill="midnightblue" stroke="midnightblue" points="134.5,-102.083 138,-112.083 141.5,-102.083 134.5,-102.083"/>
</g>
<!-- Node28 -->
<g id="node15" class="node"><title>Node28</title>
<g id="a_node15"><a xlink:href="ExpoConjugateGTRSBDPProfileProcess_8cpp.html" target="_top" xlink:title="ExpoConjugateGTRSBDPProfile\lProcess.cpp">
<polygon fill="none" stroke="black" points="572,-168.5 572,-198.5 732,-198.5 732,-168.5 572,-168.5"/>
<text text-anchor="start" x="580" y="-186.5" font-family="Helvetica,sans-Serif" font-size="10.00">ExpoConjugateGTRSBDPProfile</text>
<text text-anchor="middle" x="652" y="-175.5" font-family="Helvetica,sans-Serif" font-size="10.00">Process.cpp</text>
</a>
</g>
</g>
<!-- Node27&#45;&gt;Node28 -->
<g id="edge15" class="edge"><title>Node27&#45;&gt;Node28</title>
<path fill="none" stroke="midnightblue" d="M767.801,-231.544C742.198,-221.143 710.432,-208.238 686.65,-198.577"/>
<polygon fill="midnightblue" stroke="midnightblue" points="766.7,-234.875 777.282,-235.396 769.335,-228.39 766.7,-234.875"/>
</g>
<!-- Node29 -->
<g id="node16" class="node"><title>Node29</title>
<g id="a_node16"><a xlink:href="RASCATGTRSBDPGammaPhyloProcess_8h.html" target="_top" xlink:title="RASCATGTRSBDPGammaPhyloProcess.h">
<polygon fill="none" stroke="black" points="750,-174 750,-193 960,-193 960,-174 750,-174"/>
<text text-anchor="middle" x="855" y="-181" font-family="Helvetica,sans-Serif" font-size="10.00">RASCATGTRSBDPGammaPhyloProcess.h</text>
</a>
</g>
</g>
<!-- Node27&#45;&gt;Node29 -->
<g id="edge16" class="edge"><title>Node27&#45;&gt;Node29</title>
<path fill="none" stroke="midnightblue" d="M826.902,-226.974C834.603,-215.332 843.556,-201.799 849.248,-193.195"/>
<polygon fill="midnightblue" stroke="midnightblue" points="823.929,-225.125 821.33,-235.396 829.767,-228.987 823.929,-225.125"/>
</g>
<!-- Node29&#45;&gt;Node20 -->
<g id="edge17" class="edge"><title>Node29&#45;&gt;Node20</title>
<path fill="none" stroke="midnightblue" d="M854.404,-163.717C852.912,-147.956 848.358,-125.857 835,-112 804.809,-80.6814 752.687,-71.129 721.567,-68.2352"/>
<polygon fill="midnightblue" stroke="midnightblue" points="850.92,-164.099 855.03,-173.865 857.907,-163.668 850.92,-164.099"/>
</g>
<!-- Node30 -->
<g id="node17" class="node"><title>Node30</title>
<g id="a_node17"><a xlink:href="RASCATGTRSBDPGammaPhyloProcess_8cpp.html" target="_top" xlink:title="RASCATGTRSBDPGammaPhyloProcess.cpp">
<polygon fill="none" stroke="black" points="605.5,-112.5 605.5,-131.5 826.5,-131.5 826.5,-112.5 605.5,-112.5"/>
<text text-anchor="middle" x="716" y="-119.5" font-family="Helvetica,sans-Serif" font-size="10.00">RASCATGTRSBDPGammaPhyloProcess.cpp</text>
</a>
</g>
</g>
<!-- Node29&#45;&gt;Node30 -->
<g id="edge18" class="edge"><title>Node29&#45;&gt;Node30</title>
<path fill="none" stroke="midnightblue" d="M825.75,-169.98C798.755,-158.424 759.396,-141.576 735.878,-131.509"/>
<polygon fill="midnightblue" stroke="midnightblue" points="824.514,-173.257 835.085,-173.975 827.269,-166.822 824.514,-173.257"/>
</g>
<!-- Node32 -->
<g id="node19" class="node"><title>Node32</title>
<g id="a_node19"><a xlink:href="GeneralPathSuffStatGTRSBDPProfileProcess_8cpp.html" target="_top" xlink:title="GeneralPathSuffStatGTRSBDPProfile\lProcess.cpp">
<polygon fill="none" stroke="black" points="370.5,-168.5 370.5,-198.5 553.5,-198.5 553.5,-168.5 370.5,-168.5"/>
<text text-anchor="start" x="378.5" y="-186.5" font-family="Helvetica,sans-Serif" font-size="10.00">GeneralPathSuffStatGTRSBDPProfile</text>
<text text-anchor="middle" x="462" y="-175.5" font-family="Helvetica,sans-Serif" font-size="10.00">Process.cpp</text>
</a>
</g>
</g>
<!-- Node31&#45;&gt;Node32 -->
<g id="edge20" class="edge"><title>Node31&#45;&gt;Node32</title>
<path fill="none" stroke="midnightblue" d="M454.449,-225.403C456.116,-216.37 457.955,-206.408 459.401,-198.577"/>
<polygon fill="midnightblue" stroke="midnightblue" points="450.978,-224.927 452.604,-235.396 457.861,-226.198 450.978,-224.927"/>
</g>
<!-- Node35 -->
<g id="node22" class="node"><title>Node35</title>
<g id="a_node22"><a xlink:href="RASCATSBDPGammaPhyloProcess_8h.html" target="_top" xlink:title="RASCATSBDPGammaPhyloProcess.h">
<polygon fill="none" stroke="black" points="910.5,-241 910.5,-260 1099.5,-260 1099.5,-241 910.5,-241"/>
<text text-anchor="middle" x="1005" y="-248" font-family="Helvetica,sans-Serif" font-size="10.00">RASCATSBDPGammaPhyloProcess.h</text>
</a>
</g>
</g>
<!-- Node34&#45;&gt;Node35 -->
<g id="edge23" class="edge"><title>Node34&#45;&gt;Node35</title>
<path fill="none" stroke="midnightblue" d="M1005,-292.317C1005,-281.496 1005,-268.398 1005,-260.009"/>
<polygon fill="midnightblue" stroke="midnightblue" points="1001.5,-292.475 1005,-302.475 1008.5,-292.475 1001.5,-292.475"/>
</g>
<!-- Node37 -->
<g id="node24" class="node"><title>Node37</title>
<g id="a_node24"><a xlink:href="PoissonSBDPProfileProcess_8cpp.html" target="_top" xlink:title="PoissonSBDPProfileProcess.cpp">
<polygon fill="none" stroke="black" points="1118,-241 1118,-260 1280,-260 1280,-241 1118,-241"/>
<text text-anchor="middle" x="1199" y="-248" font-family="Helvetica,sans-Serif" font-size="10.00">PoissonSBDPProfileProcess.cpp</text>
</a>
</g>
</g>
<!-- Node34&#45;&gt;Node37 -->
<g id="edge26" class="edge"><title>Node34&#45;&gt;Node37</title>
<path fill="none" stroke="midnightblue" d="M1042.4,-299.529C1080.11,-287.965 1137.43,-270.385 1171.26,-260.009"/>
<polygon fill="midnightblue" stroke="midnightblue" points="1041.33,-296.197 1032.8,-302.475 1043.38,-302.889 1041.33,-296.197"/>
</g>
<!-- Node35&#45;&gt;Node20 -->
<g id="edge24" class="edge"><title>Node35&#45;&gt;Node20</title>
<path fill="none" stroke="midnightblue" d="M1000.73,-230.918C995.772,-212.906 986.003,-185.771 969,-168 900.175,-96.0672 775.611,-75.0334 721.851,-69.159"/>
<polygon fill="midnightblue" stroke="midnightblue" points="997.385,-231.949 1003.22,-240.789 1004.17,-230.237 997.385,-231.949"/>
</g>
<!-- Node36 -->
<g id="node23" class="node"><title>Node36</title>
<g id="a_node23"><a xlink:href="RASCATSBDPGammaPhyloProcess_8cpp.html" target="_top" xlink:title="RASCATSBDPGammaPhyloProcess.cpp">
<polygon fill="none" stroke="black" points="1016,-174 1016,-193 1216,-193 1216,-174 1016,-174"/>
<text text-anchor="middle" x="1116" y="-181" font-family="Helvetica,sans-Serif" font-size="10.00">RASCATSBDPGammaPhyloProcess.cpp</text>
</a>
</g>
</g>
<!-- Node35&#45;&gt;Node36 -->
<g id="edge25" class="edge"><title>Node35&#45;&gt;Node36</title>
<path fill="none" stroke="midnightblue" d="M1028.71,-235.615C1050.7,-222.737 1082.74,-203.976 1101.27,-193.127"/>
<polygon fill="midnightblue" stroke="midnightblue" points="1026.83,-232.66 1019.97,-240.734 1030.37,-238.701 1026.83,-232.66"/>
</g>
</g>
</svg>
