<?xml version="1.0" encoding="UTF-8" standalone="no"?>
<!DOCTYPE svg PUBLIC "-//W3C//DTD SVG 1.1//EN"
 "http://www.w3.org/Graphics/SVG/1.1/DTD/svg11.dtd">
<!-- Generated by graphviz version 2.40.1 (20161225.0304)
 -->
<!-- Title: SequenceAlignment.h Pages: 1 -->
<svg width="907pt" height="442pt"
 viewBox="0.00 0.00 907.00 442.00" xmlns="http://www.w3.org/2000/svg" xmlns:xlink="http://www.w3.org/1999/xlink">
<g id="graph0" class="graph" transform="scale(1 1) rotate(0) translate(4 438)">
<title>SequenceAlignment.h</title>
<!-- Node13 -->
<g id="node1" class="node">
<title>Node13</title>
<polygon fill="#bfbfbf" stroke="#000000" points="632,-414.5 632,-433.5 744,-433.5 744,-414.5 632,-414.5"/>
<text text-anchor="middle" x="688" y="-421.5" font-family="Helvetica,sans-Serif" font-size="10.00" fill="#000000">SequenceAlignment.h</text>
</g>
<!-- Node14 -->
<g id="node2" class="node">
<title>Node14</title>
<g id="a_node2"><a xlink:href="PhyloProcess_8h.html" target="_top" xlink:title="PhyloProcess.h">
<polygon fill="none" stroke="#000000" points="546,-302.5 546,-321.5 632,-321.5 632,-302.5 546,-302.5"/>
<text text-anchor="middle" x="589" y="-309.5" font-family="Helvetica,sans-Serif" font-size="10.00" fill="#000000">PhyloProcess.h</text>
</a>
</g>
</g>
<!-- Node13&#45;&gt;Node14 -->
<g id="edge1" class="edge">
<title>Node13&#45;&gt;Node14</title>
<path fill="none" stroke="#191970" d="M651.2999,-410.241C635.9496,-402.8124 619.1289,-392.2031 608,-378 594.7625,-361.1058 590.7469,-335.3397 589.5294,-321.53"/>
<polygon fill="#191970" stroke="#191970" points="650.0507,-413.5175 660.6036,-414.459 652.9411,-407.1421 650.0507,-413.5175"/>
</g>
<!-- Node27 -->
<g id="node15" class="node">
<title>Node27</title>
<g id="a_node15"><a xlink:href="ZippedSequenceAlignment_8h.html" target="_top" xlink:title="ZippedSequenceAlignment.h">
<polygon fill="none" stroke="#000000" points="617.5,-358.5 617.5,-377.5 758.5,-377.5 758.5,-358.5 617.5,-358.5"/>
<text text-anchor="middle" x="688" y="-365.5" font-family="Helvetica,sans-Serif" font-size="10.00" fill="#000000">ZippedSequenceAlignment.h</text>
</a>
</g>
</g>
<!-- Node13&#45;&gt;Node27 -->
<g id="edge14" class="edge">
<title>Node13&#45;&gt;Node27</title>
<path fill="none" stroke="#191970" d="M688,-404.1575C688,-395.155 688,-384.9199 688,-377.6427"/>
<polygon fill="#191970" stroke="#191970" points="684.5001,-404.2455 688,-414.2455 691.5001,-404.2456 684.5001,-404.2455"/>
</g>
<!-- Node29 -->
<g id="node17" class="node">
<title>Node29</title>
<g id="a_node17"><a xlink:href="SequenceAlignment_8cpp.html" target="_top" xlink:title="SequenceAlignment.cpp">
<polygon fill="none" stroke="#000000" points="777,-358.5 777,-377.5 899,-377.5 899,-358.5 777,-358.5"/>
<text text-anchor="middle" x="838" y="-365.5" font-family="Helvetica,sans-Serif" font-size="10.00" fill="#000000">SequenceAlignment.cpp</text>
</a>
</g>
</g>
<!-- Node13&#45;&gt;Node29 -->
<g id="edge17" class="edge">
<title>Node13&#45;&gt;Node29</title>
<path fill="none" stroke="#191970" d="M723.3871,-410.7888C750.7753,-400.5639 788.0479,-386.6488 812.5506,-377.5011"/>
<polygon fill="#191970" stroke="#191970" points="721.9302,-407.5967 713.7859,-414.3733 724.3785,-414.1546 721.9302,-407.5967"/>
</g>
<!-- Node15 -->
<g id="node3" class="node">
<title>Node15</title>
<g id="a_node3"><a xlink:href="MatrixPhyloProcess_8h.html" target="_top" xlink:title="MatrixPhyloProcess.h">
<polygon fill="none" stroke="#000000" points="431.5,-246.5 431.5,-265.5 544.5,-265.5 544.5,-246.5 431.5,-246.5"/>
<text text-anchor="middle" x="488" y="-253.5" font-family="Helvetica,sans-Serif" font-size="10.00" fill="#000000">MatrixPhyloProcess.h</text>
</a>
</g>
</g>
<!-- Node14&#45;&gt;Node15 -->
<g id="edge2" class="edge">
<title>Node14&#45;&gt;Node15</title>
<path fill="none" stroke="#191970" d="M562.5281,-297.3225C544.4875,-287.3198 521.1123,-274.3593 505.3913,-265.6427"/>
<polygon fill="#191970" stroke="#191970" points="560.9643,-300.4574 571.4071,-302.2455 564.3587,-294.3354 560.9643,-300.4574"/>
</g>
<!-- Node25 -->
<g id="node13" class="node">
<title>Node25</title>
<g id="a_node13"><a xlink:href="NNI_8cpp.html" target="_top" xlink:title="NNI.cpp">
<polygon fill="none" stroke="#000000" points="562.5,-246.5 562.5,-265.5 615.5,-265.5 615.5,-246.5 562.5,-246.5"/>
<text text-anchor="middle" x="589" y="-253.5" font-family="Helvetica,sans-Serif" font-size="10.00" fill="#000000">NNI.cpp</text>
</a>
</g>
</g>
<!-- Node14&#45;&gt;Node25 -->
<g id="edge12" class="edge">
<title>Node14&#45;&gt;Node25</title>
<path fill="none" stroke="#191970" d="M589,-292.1575C589,-283.155 589,-272.9199 589,-265.6427"/>
<polygon fill="#191970" stroke="#191970" points="585.5001,-292.2455 589,-302.2455 592.5001,-292.2456 585.5001,-292.2455"/>
</g>
<!-- Node26 -->
<g id="node14" class="node">
<title>Node26</title>
<g id="a_node14"><a xlink:href="PhyloProcess_8cpp.html" target="_top" xlink:title="PhyloProcess.cpp">
<polygon fill="none" stroke="#000000" points="634,-246.5 634,-265.5 730,-265.5 730,-246.5 634,-246.5"/>
<text text-anchor="middle" x="682" y="-253.5" font-family="Helvetica,sans-Serif" font-size="10.00" fill="#000000">PhyloProcess.cpp</text>
</a>
</g>
</g>
<!-- Node14&#45;&gt;Node26 -->
<g id="edge13" class="edge">
<title>Node14&#45;&gt;Node26</title>
<path fill="none" stroke="#191970" d="M613.8335,-297.0465C630.3811,-287.0824 651.6432,-274.2794 665.9863,-265.6427"/>
<polygon fill="#191970" stroke="#191970" points="611.9607,-294.0886 605.1994,-302.2455 615.5717,-300.0854 611.9607,-294.0886"/>
</g>
<!-- Node16 -->
<g id="node4" class="node">
<title>Node16</title>
<g id="a_node4"><a xlink:href="ExpoConjugateGTRPhyloProcess_8h.html" target="_top" xlink:title="ExpoConjugateGTRPhyloProcess.h">
<polygon fill="none" stroke="#000000" points="220.5,-185 220.5,-204 393.5,-204 393.5,-185 220.5,-185"/>
<text text-anchor="middle" x="307" y="-192" font-family="Helvetica,sans-Serif" font-size="10.00" fill="#000000">ExpoConjugateGTRPhyloProcess.h</text>
</a>
</g>
</g>
<!-- Node15&#45;&gt;Node16 -->
<g id="edge3" class="edge">
<title>Node15&#45;&gt;Node16</title>
<path fill="none" stroke="#191970" d="M450.0367,-243.1009C415.7076,-231.4366 365.9507,-214.5302 335.0827,-204.0419"/>
<polygon fill="#191970" stroke="#191970" points="449.1244,-246.4873 459.7188,-246.3906 451.3764,-239.8595 449.1244,-246.4873"/>
</g>
<!-- Node22 -->
<g id="node10" class="node">
<title>Node22</title>
<g id="a_node10"><a xlink:href="GeneralPathSuffStatMatrixPhyloProcess_8h.html" target="_top" xlink:title="GeneralPathSuffStatMatrix\lPhyloProcess.h">
<polygon fill="none" stroke="#000000" points="421,-179.5 421,-209.5 555,-209.5 555,-179.5 421,-179.5"/>
<text text-anchor="start" x="429" y="-197.5" font-family="Helvetica,sans-Serif" font-size="10.00" fill="#000000">GeneralPathSuffStatMatrix</text>
<text text-anchor="middle" x="488" y="-186.5" font-family="Helvetica,sans-Serif" font-size="10.00" fill="#000000">PhyloProcess.h</text>
</a>
</g>
</g>
<!-- Node15&#45;&gt;Node22 -->
<g id="edge9" class="edge">
<title>Node15&#45;&gt;Node22</title>
<path fill="none" stroke="#191970" d="M488,-236.3693C488,-227.681 488,-217.6241 488,-209.5446"/>
<polygon fill="#191970" stroke="#191970" points="484.5001,-236.3906 488,-246.3906 491.5001,-236.3907 484.5001,-236.3906"/>
</g>
<!-- Node24 -->
<g id="node12" class="node">
<title>Node24</title>
<g id="a_node12"><a xlink:href="MatrixPhyloProcess_8cpp.html" target="_top" xlink:title="MatrixPhyloProcess.cpp">
<polygon fill="none" stroke="#000000" points="573.5,-185 573.5,-204 696.5,-204 696.5,-185 573.5,-185"/>
<text text-anchor="middle" x="635" y="-192" font-family="Helvetica,sans-Serif" font-size="10.00" fill="#000000">MatrixPhyloProcess.cpp</text>
</a>
</g>
</g>
<!-- Node15&#45;&gt;Node24 -->
<g id="edge11" class="edge">
<title>Node15&#45;&gt;Node24</title>
<path fill="none" stroke="#191970" d="M520.279,-242.4955C548.0955,-230.858 587.5533,-214.3501 612.1925,-204.0419"/>
<polygon fill="#191970" stroke="#191970" points="518.8431,-239.3022 510.9688,-246.3906 521.5448,-245.7599 518.8431,-239.3022"/>
</g>
<!-- Node17 -->
<g id="node5" class="node">
<title>Node17</title>
<g id="a_node5"><a xlink:href="ExpoConjugateGTRPhyloProcess_8cpp.html" target="_top" xlink:title="ExpoConjugateGTRPhyloProcess.cpp">
<polygon fill="none" stroke="#000000" points="0,-118 0,-137 184,-137 184,-118 0,-118"/>
<text text-anchor="middle" x="92" y="-125" font-family="Helvetica,sans-Serif" font-size="10.00" fill="#000000">ExpoConjugateGTRPhyloProcess.cpp</text>
</a>
</g>
</g>
<!-- Node16&#45;&gt;Node17 -->
<g id="edge4" class="edge">
<title>Node16&#45;&gt;Node17</title>
<path fill="none" stroke="#191970" d="M266.6107,-181.9136C224.8463,-168.8986 160.5585,-148.8647 122.7471,-137.0817"/>
<polygon fill="#191970" stroke="#191970" points="265.6072,-185.2668 276.1957,-184.9005 267.6899,-178.5838 265.6072,-185.2668"/>
</g>
<!-- Node18 -->
<g id="node6" class="node">
<title>Node18</title>
<g id="a_node6"><a xlink:href="RASCATGTRSBDPGammaPhyloProcess_8h.html" target="_top" xlink:title="RASCATGTRSBDPGammaPhyloProcess.h">
<polygon fill="none" stroke="#000000" points="202,-118 202,-137 412,-137 412,-118 202,-118"/>
<text text-anchor="middle" x="307" y="-125" font-family="Helvetica,sans-Serif" font-size="10.00" fill="#000000">RASCATGTRSBDPGammaPhyloProcess.h</text>
</a>
</g>
</g>
<!-- Node16&#45;&gt;Node18 -->
<g id="edge5" class="edge">
<title>Node16&#45;&gt;Node18</title>
<path fill="none" stroke="#191970" d="M307,-174.6079C307,-162.214 307,-146.8263 307,-137.0817"/>
<polygon fill="#191970" stroke="#191970" points="303.5001,-174.9005 307,-184.9005 310.5001,-174.9006 303.5001,-174.9005"/>
</g>
<!-- Node19 -->
<g id="node7" class="node">
<title>Node19</title>
<g id="a_node7"><a xlink:href="Model_8h.html" target="_top" xlink:title="Model.h">
<polygon fill="none" stroke="#000000" points="204.5,-56.5 204.5,-75.5 255.5,-75.5 255.5,-56.5 204.5,-56.5"/>
<text text-anchor="middle" x="230" y="-63.5" font-family="Helvetica,sans-Serif" font-size="10.00" fill="#000000">Model.h</text>
</a>
</g>
</g>
<!-- Node18&#45;&gt;Node19 -->
<g id="edge6" class="edge">
<title>Node18&#45;&gt;Node19</title>
<path fill="none" stroke="#191970" d="M287.1542,-111.6491C272.847,-100.222 254.0076,-85.1749 241.9468,-75.5419"/>
<polygon fill="#191970" stroke="#191970" points="284.9708,-114.3846 294.9688,-117.8906 289.3394,-108.915 284.9708,-114.3846"/>
</g>
<!-- Node21 -->
<g id="node9" class="node">
<title>Node21</title>
<g id="a_node9"><a xlink:href="RASCATGTRSBDPGammaPhyloProcess_8cpp.html" target="_top" xlink:title="RASCATGTRSBDPGammaPhyloProcess.cpp">
<polygon fill="none" stroke="#000000" points="273.5,-56.5 273.5,-75.5 494.5,-75.5 494.5,-56.5 273.5,-56.5"/>
<text text-anchor="middle" x="384" y="-63.5" font-family="Helvetica,sans-Serif" font-size="10.00" fill="#000000">RASCATGTRSBDPGammaPhyloProcess.cpp</text>
</a>
</g>
</g>
<!-- Node18&#45;&gt;Node21 -->
<g id="edge8" class="edge">
<title>Node18&#45;&gt;Node21</title>
<path fill="none" stroke="#191970" d="M326.8458,-111.6491C341.153,-100.222 359.9924,-85.1749 372.0532,-75.5419"/>
<polygon fill="#191970" stroke="#191970" points="324.6606,-108.915 319.0313,-117.8906 329.0292,-114.3846 324.6606,-108.915"/>
</g>
<!-- Node20 -->
<g id="node8" class="node">
<title>Node20</title>
<g id="a_node8"><a xlink:href="PB_8cpp.html" target="_top" xlink:title="PB.cpp">
<polygon fill="none" stroke="#000000" points="205.5,-.5 205.5,-19.5 254.5,-19.5 254.5,-.5 205.5,-.5"/>
<text text-anchor="middle" x="230" y="-7.5" font-family="Helvetica,sans-Serif" font-size="10.00" fill="#000000">PB.cpp</text>
</a>
</g>
</g>
<!-- Node19&#45;&gt;Node20 -->
<g id="edge7" class="edge">
<title>Node19&#45;&gt;Node20</title>
<path fill="none" stroke="#191970" d="M230,-46.1575C230,-37.155 230,-26.9199 230,-19.6427"/>
<polygon fill="#191970" stroke="#191970" points="226.5001,-46.2455 230,-56.2455 233.5001,-46.2456 226.5001,-46.2455"/>
</g>
<!-- Node23 -->
<g id="node11" class="node">
<title>Node23</title>
<g id="a_node11"><a xlink:href="GeneralPathSuffStatMatrixPhyloProcess_8cpp.html" target="_top" xlink:title="GeneralPathSuffStatMatrix\lPhyloProcess.cpp">
<polygon fill="none" stroke="#000000" points="430,-112.5 430,-142.5 564,-142.5 564,-112.5 430,-112.5"/>
<text text-anchor="start" x="438" y="-130.5" font-family="Helvetica,sans-Serif" font-size="10.00" fill="#000000">GeneralPathSuffStatMatrix</text>
<text text-anchor="middle" x="497" y="-119.5" font-family="Helvetica,sans-Serif" font-size="10.00" fill="#000000">PhyloProcess.cpp</text>
</a>
</g>
</g>
<!-- Node22&#45;&gt;Node23 -->
<g id="edge10" class="edge">
<title>Node22&#45;&gt;Node23</title>
<path fill="none" stroke="#191970" d="M491.3827,-169.3179C492.5885,-160.3414 493.9085,-150.5143 494.9658,-142.6432"/>
<polygon fill="#191970" stroke="#191970" points="487.9048,-168.9197 490.0422,-179.2967 494.8425,-169.8517 487.9048,-168.9197"/>
</g>
<!-- Node27&#45;&gt;Node14 -->
<g id="edge15" class="edge">
<title>Node27&#45;&gt;Node14</title>
<path fill="none" stroke="#191970" d="M661.5643,-353.0465C643.9492,-343.0824 621.3153,-330.2794 606.0469,-321.6427"/>
<polygon fill="#191970" stroke="#191970" points="660.3283,-356.3684 670.7555,-358.2455 663.7747,-350.2756 660.3283,-356.3684"/>
</g>
<!-- Node28 -->
<g id="node16" class="node">
<title>Node28</title>
<g id="a_node16"><a xlink:href="ZippedSequenceAlignment_8cpp.html" target="_top" xlink:title="ZippedSequenceAlignment.cpp">
<polygon fill="none" stroke="#000000" points="650,-302.5 650,-321.5 802,-321.5 802,-302.5 650,-302.5"/>
<text text-anchor="middle" x="726" y="-309.5" font-family="Helvetica,sans-Serif" font-size="10.00" fill="#000000">ZippedSequenceAlignment.cpp</text>
</a>
</g>
</g>
<!-- Node27&#45;&gt;Node28 -->
<g id="edge16" class="edge">
<title>Node27&#45;&gt;Node28</title>
<path fill="none" stroke="#191970" d="M700.2679,-349.9209C706.6488,-340.5176 714.1931,-329.3997 719.4568,-321.6427"/>
<polygon fill="#191970" stroke="#191970" points="697.338,-348.0055 694.6191,-358.2455 703.1303,-351.936 697.338,-348.0055"/>
</g>
</g>
</svg>
