<?xml version="1.0" encoding="UTF-8" standalone="no"?>
<!DOCTYPE svg PUBLIC "-//W3C//DTD SVG 1.1//EN"
 "http://www.w3.org/Graphics/SVG/1.1/DTD/svg11.dtd">
<!-- Generated by graphviz version 2.40.1 (20161225.0304)
 -->
<!-- Title: SequenceAlignment.h Pages: 1 -->
<svg width="1070pt" height="442pt"
 viewBox="0.00 0.00 1070.00 442.00" xmlns="http://www.w3.org/2000/svg" xmlns:xlink="http://www.w3.org/1999/xlink">
<g id="graph0" class="graph" transform="scale(1 1) rotate(0) translate(4 438)">
<title>SequenceAlignment.h</title>
<!-- Node13 -->
<g id="node1" class="node">
<title>Node13</title>
<polygon fill="#bfbfbf" stroke="#000000" points="795,-414.5 795,-433.5 907,-433.5 907,-414.5 795,-414.5"/>
<text text-anchor="middle" x="851" y="-421.5" font-family="Helvetica,sans-Serif" font-size="10.00" fill="#000000">SequenceAlignment.h</text>
</g>
<!-- Node14 -->
<g id="node2" class="node">
<title>Node14</title>
<g id="a_node2"><a xlink:href="PhyloProcess_8h.html" target="_top" xlink:title="PhyloProcess.h">
<polygon fill="none" stroke="#000000" points="709,-302.5 709,-321.5 795,-321.5 795,-302.5 709,-302.5"/>
<text text-anchor="middle" x="752" y="-309.5" font-family="Helvetica,sans-Serif" font-size="10.00" fill="#000000">PhyloProcess.h</text>
</a>
</g>
</g>
<!-- Node13&#45;&gt;Node14 -->
<g id="edge1" class="edge">
<title>Node13&#45;&gt;Node14</title>
<path fill="none" stroke="#191970" d="M815.1811,-410.2356C799.9505,-402.7662 783.1656,-392.1262 772,-378 758.6361,-361.0926 754.1775,-335.3319 752.708,-321.5265"/>
<polygon fill="#191970" stroke="#191970" points="813.8521,-413.4768 824.3993,-414.4795 816.7794,-407.1182 813.8521,-413.4768"/>
</g>
<!-- Node29 -->
<g id="node17" class="node">
<title>Node29</title>
<g id="a_node17"><a xlink:href="ZippedSequenceAlignment_8h.html" target="_top" xlink:title="ZippedSequenceAlignment.h">
<polygon fill="none" stroke="#000000" points="780.5,-358.5 780.5,-377.5 921.5,-377.5 921.5,-358.5 780.5,-358.5"/>
<text text-anchor="middle" x="851" y="-365.5" font-family="Helvetica,sans-Serif" font-size="10.00" fill="#000000">ZippedSequenceAlignment.h</text>
</a>
</g>
</g>
<!-- Node13&#45;&gt;Node29 -->
<g id="edge16" class="edge">
<title>Node13&#45;&gt;Node29</title>
<path fill="none" stroke="#191970" d="M851,-404.1575C851,-395.155 851,-384.9199 851,-377.6427"/>
<polygon fill="#191970" stroke="#191970" points="847.5001,-404.2455 851,-414.2455 854.5001,-404.2456 847.5001,-404.2455"/>
</g>
<!-- Node31 -->
<g id="node19" class="node">
<title>Node31</title>
<g id="a_node19"><a xlink:href="SequenceAlignment_8cpp.html" target="_top" xlink:title="SequenceAlignment.cpp">
<polygon fill="none" stroke="#000000" points="940,-358.5 940,-377.5 1062,-377.5 1062,-358.5 940,-358.5"/>
<text text-anchor="middle" x="1001" y="-365.5" font-family="Helvetica,sans-Serif" font-size="10.00" fill="#000000">SequenceAlignment.cpp</text>
</a>
</g>
</g>
<!-- Node13&#45;&gt;Node31 -->
<g id="edge19" class="edge">
<title>Node13&#45;&gt;Node31</title>
<path fill="none" stroke="#191970" d="M886.3871,-410.7888C913.7753,-400.5639 951.0479,-386.6488 975.5506,-377.5011"/>
<polygon fill="#191970" stroke="#191970" points="884.9302,-407.5967 876.7859,-414.3733 887.3785,-414.1546 884.9302,-407.5967"/>
</g>
<!-- Node15 -->
<g id="node3" class="node">
<title>Node15</title>
<g id="a_node3"><a xlink:href="MatrixPhyloProcess_8h.html" target="_top" xlink:title="MatrixPhyloProcess.h">
<polygon fill="none" stroke="#000000" points="594.5,-246.5 594.5,-265.5 707.5,-265.5 707.5,-246.5 594.5,-246.5"/>
<text text-anchor="middle" x="651" y="-253.5" font-family="Helvetica,sans-Serif" font-size="10.00" fill="#000000">MatrixPhyloProcess.h</text>
</a>
</g>
</g>
<!-- Node14&#45;&gt;Node15 -->
<g id="edge2" class="edge">
<title>Node14&#45;&gt;Node15</title>
<path fill="none" stroke="#191970" d="M725.5281,-297.3225C707.4875,-287.3198 684.1123,-274.3593 668.3913,-265.6427"/>
<polygon fill="#191970" stroke="#191970" points="723.9643,-300.4574 734.4071,-302.2455 727.3587,-294.3354 723.9643,-300.4574"/>
</g>
<!-- Node27 -->
<g id="node15" class="node">
<title>Node27</title>
<g id="a_node15"><a xlink:href="NNI_8cpp.html" target="_top" xlink:title="NNI.cpp">
<polygon fill="none" stroke="#000000" points="725.5,-246.5 725.5,-265.5 778.5,-265.5 778.5,-246.5 725.5,-246.5"/>
<text text-anchor="middle" x="752" y="-253.5" font-family="Helvetica,sans-Serif" font-size="10.00" fill="#000000">NNI.cpp</text>
</a>
</g>
</g>
<!-- Node14&#45;&gt;Node27 -->
<g id="edge14" class="edge">
<title>Node14&#45;&gt;Node27</title>
<path fill="none" stroke="#191970" d="M752,-292.1575C752,-283.155 752,-272.9199 752,-265.6427"/>
<polygon fill="#191970" stroke="#191970" points="748.5001,-292.2455 752,-302.2455 755.5001,-292.2456 748.5001,-292.2455"/>
</g>
<!-- Node28 -->
<g id="node16" class="node">
<title>Node28</title>
<g id="a_node16"><a xlink:href="PhyloProcess_8cpp.html" target="_top" xlink:title="PhyloProcess.cpp">
<polygon fill="none" stroke="#000000" points="797,-246.5 797,-265.5 893,-265.5 893,-246.5 797,-246.5"/>
<text text-anchor="middle" x="845" y="-253.5" font-family="Helvetica,sans-Serif" font-size="10.00" fill="#000000">PhyloProcess.cpp</text>
</a>
</g>
</g>
<!-- Node14&#45;&gt;Node28 -->
<g id="edge15" class="edge">
<title>Node14&#45;&gt;Node28</title>
<path fill="none" stroke="#191970" d="M776.8335,-297.0465C793.3811,-287.0824 814.6432,-274.2794 828.9863,-265.6427"/>
<polygon fill="#191970" stroke="#191970" points="774.9607,-294.0886 768.1994,-302.2455 778.5717,-300.0854 774.9607,-294.0886"/>
</g>
<!-- Node16 -->
<g id="node4" class="node">
<title>Node16</title>
<g id="a_node4"><a xlink:href="ExpoConjugateGTRPhyloProcess_8h.html" target="_top" xlink:title="ExpoConjugateGTRPhyloProcess.h">
<polygon fill="none" stroke="#000000" points="331.5,-185 331.5,-204 504.5,-204 504.5,-185 331.5,-185"/>
<text text-anchor="middle" x="418" y="-192" font-family="Helvetica,sans-Serif" font-size="10.00" fill="#000000">ExpoConjugateGTRPhyloProcess.h</text>
</a>
</g>
</g>
<!-- Node15&#45;&gt;Node16 -->
<g id="edge3" class="edge">
<title>Node15&#45;&gt;Node16</title>
<path fill="none" stroke="#191970" d="M604.9331,-243.8407C560.7157,-232.1696 494.827,-214.7784 454.2354,-204.0643"/>
<polygon fill="#191970" stroke="#191970" points="604.2873,-247.2901 614.8494,-246.4581 606.0738,-240.5218 604.2873,-247.2901"/>
</g>
<!-- Node24 -->
<g id="node12" class="node">
<title>Node24</title>
<g id="a_node12"><a xlink:href="GeneralPathSuffStatMatrixPhyloProcess_8h.html" target="_top" xlink:title="GeneralPathSuffStatMatrix\lPhyloProcess.h">
<polygon fill="none" stroke="#000000" points="584,-179.5 584,-209.5 718,-209.5 718,-179.5 584,-179.5"/>
<text text-anchor="start" x="592" y="-197.5" font-family="Helvetica,sans-Serif" font-size="10.00" fill="#000000">GeneralPathSuffStatMatrix</text>
<text text-anchor="middle" x="651" y="-186.5" font-family="Helvetica,sans-Serif" font-size="10.00" fill="#000000">PhyloProcess.h</text>
</a>
</g>
</g>
<!-- Node15&#45;&gt;Node24 -->
<g id="edge11" class="edge">
<title>Node15&#45;&gt;Node24</title>
<path fill="none" stroke="#191970" d="M651,-236.3693C651,-227.681 651,-217.6241 651,-209.5446"/>
<polygon fill="#191970" stroke="#191970" points="647.5001,-236.3906 651,-246.3906 654.5001,-236.3907 647.5001,-236.3906"/>
</g>
<!-- Node26 -->
<g id="node14" class="node">
<title>Node26</title>
<g id="a_node14"><a xlink:href="MatrixPhyloProcess_8cpp.html" target="_top" xlink:title="MatrixPhyloProcess.cpp">
<polygon fill="none" stroke="#000000" points="736.5,-185 736.5,-204 859.5,-204 859.5,-185 736.5,-185"/>
<text text-anchor="middle" x="798" y="-192" font-family="Helvetica,sans-Serif" font-size="10.00" fill="#000000">MatrixPhyloProcess.cpp</text>
</a>
</g>
</g>
<!-- Node15&#45;&gt;Node26 -->
<g id="edge13" class="edge">
<title>Node15&#45;&gt;Node26</title>
<path fill="none" stroke="#191970" d="M683.279,-242.4955C711.0955,-230.858 750.5533,-214.3501 775.1925,-204.0419"/>
<polygon fill="#191970" stroke="#191970" points="681.8431,-239.3022 673.9688,-246.3906 684.5448,-245.7599 681.8431,-239.3022"/>
</g>
<!-- Node17 -->
<g id="node5" class="node">
<title>Node17</title>
<g id="a_node5"><a xlink:href="ExpoConjugateGTRPhyloProcess_8cpp.html" target="_top" xlink:title="ExpoConjugateGTRPhyloProcess.cpp">
<polygon fill="none" stroke="#000000" points="0,-118 0,-137 184,-137 184,-118 0,-118"/>
<text text-anchor="middle" x="92" y="-125" font-family="Helvetica,sans-Serif" font-size="10.00" fill="#000000">ExpoConjugateGTRPhyloProcess.cpp</text>
</a>
</g>
</g>
<!-- Node16&#45;&gt;Node17 -->
<g id="edge4" class="edge">
<title>Node16&#45;&gt;Node17</title>
<path fill="none" stroke="#191970" d="M361.4552,-182.8788C298.2885,-169.8967 197.2123,-149.1234 138.4653,-137.0496"/>
<polygon fill="#191970" stroke="#191970" points="361.1385,-186.3868 371.6384,-184.9717 362.5477,-179.5301 361.1385,-186.3868"/>
</g>
<!-- Node18 -->
<g id="node6" class="node">
<title>Node18</title>
<g id="a_node6"><a xlink:href="RASCATGTRSBDPGammaPhyloProcess_8h.html" target="_top" xlink:title="RASCATGTRSBDPGammaPhyloProcess.h">
<polygon fill="none" stroke="#000000" points="202,-118 202,-137 412,-137 412,-118 202,-118"/>
<text text-anchor="middle" x="307" y="-125" font-family="Helvetica,sans-Serif" font-size="10.00" fill="#000000">RASCATGTRSBDPGammaPhyloProcess.h</text>
</a>
</g>
</g>
<!-- Node16&#45;&gt;Node18 -->
<g id="edge5" class="edge">
<title>Node16&#45;&gt;Node18</title>
<path fill="none" stroke="#191970" d="M393.4989,-179.711C371.9858,-166.7256 341.3245,-148.2184 322.8741,-137.0817"/>
<polygon fill="#191970" stroke="#191970" points="391.7264,-182.7293 402.0964,-184.9005 395.3438,-176.7364 391.7264,-182.7293"/>
</g>
<!-- Node22 -->
<g id="node10" class="node">
<title>Node22</title>
<g id="a_node10"><a xlink:href="RASCATGTRDPGammaPhyloProcess_8h.html" target="_top" xlink:title="RASCATGTRDPGammaPhyloProcess.h">
<polygon fill="none" stroke="#000000" points="430.5,-118 430.5,-137 627.5,-137 627.5,-118 430.5,-118"/>
<text text-anchor="middle" x="529" y="-125" font-family="Helvetica,sans-Serif" font-size="10.00" fill="#000000">RASCATGTRDPGammaPhyloProcess.h</text>
</a>
</g>
</g>
<!-- Node16&#45;&gt;Node22 -->
<g id="edge9" class="edge">
<title>Node16&#45;&gt;Node22</title>
<path fill="none" stroke="#191970" d="M442.5011,-179.711C464.0142,-166.7256 494.6755,-148.2184 513.1259,-137.0817"/>
<polygon fill="#191970" stroke="#191970" points="440.6562,-176.7364 433.9036,-184.9005 444.2736,-182.7293 440.6562,-176.7364"/>
</g>
<!-- Node19 -->
<g id="node7" class="node">
<title>Node19</title>
<g id="a_node7"><a xlink:href="Model_8h.html" target="_top" xlink:title="Model.h">
<polygon fill="none" stroke="#000000" points="127.5,-56.5 127.5,-75.5 178.5,-75.5 178.5,-56.5 127.5,-56.5"/>
<text text-anchor="middle" x="153" y="-63.5" font-family="Helvetica,sans-Serif" font-size="10.00" fill="#000000">Model.h</text>
</a>
</g>
</g>
<!-- Node18&#45;&gt;Node19 -->
<g id="edge6" class="edge">
<title>Node18&#45;&gt;Node19</title>
<path fill="none" stroke="#191970" d="M273.565,-114.1477C244.4041,-102.5023 202.8188,-85.8952 176.8935,-75.5419"/>
<polygon fill="#191970" stroke="#191970" points="272.3526,-117.4323 282.9375,-117.8906 274.9487,-110.9315 272.3526,-117.4323"/>
</g>
<!-- Node21 -->
<g id="node9" class="node">
<title>Node21</title>
<g id="a_node9"><a xlink:href="RASCATGTRSBDPGammaPhyloProcess_8cpp.html" target="_top" xlink:title="RASCATGTRSBDPGammaPhyloProcess.cpp">
<polygon fill="none" stroke="#000000" points="196.5,-56.5 196.5,-75.5 417.5,-75.5 417.5,-56.5 196.5,-56.5"/>
<text text-anchor="middle" x="307" y="-63.5" font-family="Helvetica,sans-Serif" font-size="10.00" fill="#000000">RASCATGTRSBDPGammaPhyloProcess.cpp</text>
</a>
</g>
</g>
<!-- Node18&#45;&gt;Node21 -->
<g id="edge8" class="edge">
<title>Node18&#45;&gt;Node21</title>
<path fill="none" stroke="#191970" d="M307,-107.7462C307,-97.0519 307,-84.314 307,-75.7449"/>
<polygon fill="#191970" stroke="#191970" points="303.5001,-107.8906 307,-117.8906 310.5001,-107.8907 303.5001,-107.8906"/>
</g>
<!-- Node20 -->
<g id="node8" class="node">
<title>Node20</title>
<g id="a_node8"><a xlink:href="PB_8cpp.html" target="_top" xlink:title="PB.cpp">
<polygon fill="none" stroke="#000000" points="128.5,-.5 128.5,-19.5 177.5,-19.5 177.5,-.5 128.5,-.5"/>
<text text-anchor="middle" x="153" y="-7.5" font-family="Helvetica,sans-Serif" font-size="10.00" fill="#000000">PB.cpp</text>
</a>
</g>
</g>
<!-- Node19&#45;&gt;Node20 -->
<g id="edge7" class="edge">
<title>Node19&#45;&gt;Node20</title>
<path fill="none" stroke="#191970" d="M153,-46.1575C153,-37.155 153,-26.9199 153,-19.6427"/>
<polygon fill="#191970" stroke="#191970" points="149.5001,-46.2455 153,-56.2455 156.5001,-46.2456 149.5001,-46.2455"/>
</g>
<!-- Node23 -->
<g id="node11" class="node">
<title>Node23</title>
<g id="a_node11"><a xlink:href="RASCATGTRDPGammaPhyloProcess_8cpp.html" target="_top" xlink:title="RASCATGTRDPGammaPhyloProcess.cpp">
<polygon fill="none" stroke="#000000" points="435.5,-56.5 435.5,-75.5 642.5,-75.5 642.5,-56.5 435.5,-56.5"/>
<text text-anchor="middle" x="539" y="-63.5" font-family="Helvetica,sans-Serif" font-size="10.00" fill="#000000">RASCATGTRDPGammaPhyloProcess.cpp</text>
</a>
</g>
</g>
<!-- Node22&#45;&gt;Node23 -->
<g id="edge10" class="edge">
<title>Node22&#45;&gt;Node23</title>
<path fill="none" stroke="#191970" d="M532.212,-107.7462C533.9509,-97.0519 536.0221,-84.314 537.4155,-75.7449"/>
<polygon fill="#191970" stroke="#191970" points="528.7129,-107.4585 530.5625,-117.8906 535.6221,-108.582 528.7129,-107.4585"/>
</g>
<!-- Node25 -->
<g id="node13" class="node">
<title>Node25</title>
<g id="a_node13"><a xlink:href="GeneralPathSuffStatMatrixPhyloProcess_8cpp.html" target="_top" xlink:title="GeneralPathSuffStatMatrix\lPhyloProcess.cpp">
<polygon fill="none" stroke="#000000" points="646,-112.5 646,-142.5 780,-142.5 780,-112.5 646,-112.5"/>
<text text-anchor="start" x="654" y="-130.5" font-family="Helvetica,sans-Serif" font-size="10.00" fill="#000000">GeneralPathSuffStatMatrix</text>
<text text-anchor="middle" x="713" y="-119.5" font-family="Helvetica,sans-Serif" font-size="10.00" fill="#000000">PhyloProcess.cpp</text>
</a>
</g>
</g>
<!-- Node24&#45;&gt;Node25 -->
<g id="edge12" class="edge">
<title>Node24&#45;&gt;Node25</title>
<path fill="none" stroke="#191970" d="M671.89,-171.9253C680.8129,-162.2828 690.9907,-151.2843 698.9869,-142.6432"/>
<polygon fill="#191970" stroke="#191970" points="669.2918,-169.5798 665.0688,-179.2967 674.4296,-174.3342 669.2918,-169.5798"/>
</g>
<!-- Node29&#45;&gt;Node14 -->
<g id="edge17" class="edge">
<title>Node29&#45;&gt;Node14</title>
<path fill="none" stroke="#191970" d="M824.5643,-353.0465C806.9492,-343.0824 784.3153,-330.2794 769.0469,-321.6427"/>
<polygon fill="#191970" stroke="#191970" points="823.3283,-356.3684 833.7555,-358.2455 826.7747,-350.2756 823.3283,-356.3684"/>
</g>
<!-- Node30 -->
<g id="node18" class="node">
<title>Node30</title>
<g id="a_node18"><a xlink:href="ZippedSequenceAlignment_8cpp.html" target="_top" xlink:title="ZippedSequenceAlignment.cpp">
<polygon fill="none" stroke="#000000" points="813,-302.5 813,-321.5 965,-321.5 965,-302.5 813,-302.5"/>
<text text-anchor="middle" x="889" y="-309.5" font-family="Helvetica,sans-Serif" font-size="10.00" fill="#000000">ZippedSequenceAlignment.cpp</text>
</a>
</g>
</g>
<!-- Node29&#45;&gt;Node30 -->
<g id="edge18" class="edge">
<title>Node29&#45;&gt;Node30</title>
<path fill="none" stroke="#191970" d="M863.2679,-349.9209C869.6488,-340.5176 877.1931,-329.3997 882.4568,-321.6427"/>
<polygon fill="#191970" stroke="#191970" points="860.338,-348.0055 857.6191,-358.2455 866.1303,-351.936 860.338,-348.0055"/>
</g>
</g>
</svg>
