<?xml version="1.0" encoding="UTF-8" standalone="no"?>
<!DOCTYPE svg PUBLIC "-//W3C//DTD SVG 1.1//EN"
 "http://www.w3.org/Graphics/SVG/1.1/DTD/svg11.dtd">
<!-- Generated by graphviz version 2.38.0 (20140413.2041)
 -->
<!-- Title: SimuCodon.cpp Pages: 1 -->
<svg width="1037pt" height="308pt"
 viewBox="0.00 0.00 1036.50 308.00" xmlns="http://www.w3.org/2000/svg" xmlns:xlink="http://www.w3.org/1999/xlink">
<g id="graph0" class="graph" transform="scale(1 1) rotate(0) translate(4 304)">
<title>SimuCodon.cpp</title>
<!-- Node0 -->
<g id="node1" class="node"><title>Node0</title>
<polygon fill="#bfbfbf" stroke="black" points="529,-280.5 529,-299.5 615,-299.5 615,-280.5 529,-280.5"/>
<text text-anchor="middle" x="572" y="-287.5" font-family="Helvetica,sans-Serif" font-size="10.00">SimuCodon.cpp</text>
</g>
<!-- Node1 -->
<g id="node2" class="node"><title>Node1</title>
<g id="a_node2"><a xlink:href="Tree_8h.html" target="_top" xlink:title="Tree.h">
<polygon fill="none" stroke="black" points="0,-112.5 0,-131.5 44,-131.5 44,-112.5 0,-112.5"/>
<text text-anchor="middle" x="22" y="-119.5" font-family="Helvetica,sans-Serif" font-size="10.00">Tree.h</text>
</a>
</g>
</g>
<!-- Node0&#45;&gt;Node1 -->
<g id="edge1" class="edge"><title>Node0&#45;&gt;Node1</title>
<path fill="none" stroke="midnightblue" d="M528.794,-287.965C411.615,-284.778 94.1316,-273.486 58,-244 27.3931,-219.022 22.0396,-169.231 21.5512,-141.952"/>
<polygon fill="midnightblue" stroke="midnightblue" points="25.0516,-141.787 21.5804,-131.777 18.0517,-141.767 25.0516,-141.787"/>
</g>
<!-- Node4 -->
<g id="node5" class="node"><title>Node4</title>
<polygon fill="none" stroke="#bfbfbf" points="189,-0.5 189,-19.5 243,-19.5 243,-0.5 189,-0.5"/>
<text text-anchor="middle" x="216" y="-7.5" font-family="Helvetica,sans-Serif" font-size="10.00">iostream</text>
</g>
<!-- Node0&#45;&gt;Node4 -->
<g id="edge32" class="edge"><title>Node0&#45;&gt;Node4</title>
<path fill="none" stroke="midnightblue" d="M528.968,-286.146C471.111,-281.466 365.514,-269.945 279,-244 221.853,-226.862 202.054,-227.11 157,-188 106.535,-144.193 46.1738,-110.39 85,-56 96.1586,-40.3683 144.393,-26.7242 179.092,-18.673"/>
<polygon fill="midnightblue" stroke="midnightblue" points="179.938,-22.0702 188.923,-16.4558 178.398,-15.2417 179.938,-22.0702"/>
</g>
<!-- Node6 -->
<g id="node7" class="node"><title>Node6</title>
<polygon fill="none" stroke="#bfbfbf" points="306.5,-0.5 306.5,-19.5 341.5,-19.5 341.5,-0.5 306.5,-0.5"/>
<text text-anchor="middle" x="324" y="-7.5" font-family="Helvetica,sans-Serif" font-size="10.00">map</text>
</g>
<!-- Node0&#45;&gt;Node6 -->
<g id="edge31" class="edge"><title>Node0&#45;&gt;Node6</title>
<path fill="none" stroke="midnightblue" d="M615.003,-285.454C676.442,-277.77 782,-253.7 782,-179 782,-179 782,-179 782,-121 782,-90.9022 786.138,-75.2483 763,-56 702.211,-5.4313 487.65,-28.1629 409,-20 389.869,-18.0145 368.322,-15.7325 351.709,-13.9632"/>
<polygon fill="midnightblue" stroke="midnightblue" points="351.894,-10.4632 341.579,-12.8828 351.152,-17.4237 351.894,-10.4632"/>
</g>
<!-- Node7 -->
<g id="node8" class="node"><title>Node7</title>
<g id="a_node8"><a xlink:href="SequenceAlignment_8h.html" target="_top" xlink:title="SequenceAlignment.h">
<polygon fill="none" stroke="black" points="166,-168.5 166,-187.5 278,-187.5 278,-168.5 166,-168.5"/>
<text text-anchor="middle" x="222" y="-175.5" font-family="Helvetica,sans-Serif" font-size="10.00">SequenceAlignment.h</text>
</a>
</g>
</g>
<!-- Node0&#45;&gt;Node7 -->
<g id="edge9" class="edge"><title>Node0&#45;&gt;Node7</title>
<path fill="none" stroke="midnightblue" d="M528.624,-286.622C477.209,-282.602 389.716,-271.941 320,-244 289.407,-231.739 258.428,-209.094 239.715,-194.037"/>
<polygon fill="midnightblue" stroke="midnightblue" points="241.744,-191.174 231.797,-187.525 237.297,-196.581 241.744,-191.174"/>
</g>
<!-- Node10 -->
<g id="node11" class="node"><title>Node10</title>
<g id="a_node11"><a xlink:href="Random_8h.html" target="_top" xlink:title="Random.h">
<polygon fill="none" stroke="black" points="481,-112.5 481,-131.5 543,-131.5 543,-112.5 481,-112.5"/>
<text text-anchor="middle" x="512" y="-119.5" font-family="Helvetica,sans-Serif" font-size="10.00">Random.h</text>
</a>
</g>
</g>
<!-- Node0&#45;&gt;Node10 -->
<g id="edge30" class="edge"><title>Node0&#45;&gt;Node10</title>
<path fill="none" stroke="midnightblue" d="M568.774,-280.075C559.289,-253.832 531.354,-176.545 518.548,-141.117"/>
<polygon fill="midnightblue" stroke="midnightblue" points="521.788,-139.783 515.097,-131.568 515.205,-142.162 521.788,-139.783"/>
</g>
<!-- Node12 -->
<g id="node13" class="node"><title>Node12</title>
<polygon fill="none" stroke="#bfbfbf" points="702,-56.5 702,-75.5 754,-75.5 754,-56.5 702,-56.5"/>
<text text-anchor="middle" x="728" y="-63.5" font-family="Helvetica,sans-Serif" font-size="10.00">sstream</text>
</g>
<!-- Node0&#45;&gt;Node12 -->
<g id="edge33" class="edge"><title>Node0&#45;&gt;Node12</title>
<path fill="none" stroke="midnightblue" d="M578.807,-280.336C597.126,-256.905 648.738,-190.136 688,-132 698.637,-116.25 709.912,-97.7431 717.77,-84.5137"/>
<polygon fill="midnightblue" stroke="midnightblue" points="720.985,-85.9513 723.046,-75.5588 714.954,-82.3978 720.985,-85.9513"/>
</g>
<!-- Node15 -->
<g id="node16" class="node"><title>Node15</title>
<g id="a_node16"><a xlink:href="CodonSequenceAlignment_8h.html" target="_top" xlink:title="CodonSequenceAlignment.h">
<polygon fill="none" stroke="black" points="329,-224.5 329,-243.5 469,-243.5 469,-224.5 329,-224.5"/>
<text text-anchor="middle" x="399" y="-231.5" font-family="Helvetica,sans-Serif" font-size="10.00">CodonSequenceAlignment.h</text>
</a>
</g>
</g>
<!-- Node0&#45;&gt;Node15 -->
<g id="edge23" class="edge"><title>Node0&#45;&gt;Node15</title>
<path fill="none" stroke="midnightblue" d="M544.588,-280.444C515.231,-271.28 468.481,-256.688 435.904,-246.519"/>
<polygon fill="midnightblue" stroke="midnightblue" points="436.873,-243.155 426.284,-243.516 434.787,-249.837 436.873,-243.155"/>
</g>
<!-- Node17 -->
<g id="node18" class="node"><title>Node17</title>
<g id="a_node18"><a xlink:href="ProteinSequenceAlignment_8h.html" target="_top" xlink:title="ProteinSequenceAlignment.h">
<polygon fill="none" stroke="black" points="810.5,-224.5 810.5,-243.5 953.5,-243.5 953.5,-224.5 810.5,-224.5"/>
<text text-anchor="middle" x="882" y="-231.5" font-family="Helvetica,sans-Serif" font-size="10.00">ProteinSequenceAlignment.h</text>
</a>
</g>
</g>
<!-- Node0&#45;&gt;Node17 -->
<g id="edge29" class="edge"><title>Node0&#45;&gt;Node17</title>
<path fill="none" stroke="midnightblue" d="M615.104,-281.492C669.204,-272.068 762.247,-255.86 822.941,-245.288"/>
<polygon fill="midnightblue" stroke="midnightblue" points="823.885,-248.676 833.136,-243.512 822.684,-241.78 823.885,-248.676"/>
</g>
<!-- Node18 -->
<g id="node19" class="node"><title>Node18</title>
<g id="a_node19"><a xlink:href="StringStreamUtils_8h.html" target="_top" xlink:title="StringStreamUtils.h">
<polygon fill="none" stroke="black" points="577,-112.5 577,-131.5 679,-131.5 679,-112.5 577,-112.5"/>
<text text-anchor="middle" x="628" y="-119.5" font-family="Helvetica,sans-Serif" font-size="10.00">StringStreamUtils.h</text>
</a>
</g>
</g>
<!-- Node0&#45;&gt;Node18 -->
<g id="edge34" class="edge"><title>Node0&#45;&gt;Node18</title>
<path fill="none" stroke="midnightblue" d="M575.011,-280.075C583.864,-253.832 609.937,-176.545 621.888,-141.117"/>
<polygon fill="midnightblue" stroke="midnightblue" points="625.229,-142.162 625.11,-131.568 618.597,-139.925 625.229,-142.162"/>
</g>
<!-- Node19 -->
<g id="node20" class="node"><title>Node19</title>
<g id="a_node20"><a xlink:href="Parallel_8h.html" target="_top" xlink:title="Parallel.h">
<polygon fill="none" stroke="black" points="971.5,-224.5 971.5,-243.5 1028.5,-243.5 1028.5,-224.5 971.5,-224.5"/>
<text text-anchor="middle" x="1000" y="-231.5" font-family="Helvetica,sans-Serif" font-size="10.00">Parallel.h</text>
</a>
</g>
</g>
<!-- Node0&#45;&gt;Node19 -->
<g id="edge40" class="edge"><title>Node0&#45;&gt;Node19</title>
<path fill="none" stroke="midnightblue" d="M615.233,-285.685C685.672,-279.92 829.712,-266.612 961.566,-243.87"/>
<polygon fill="midnightblue" stroke="midnightblue" points="962.192,-247.313 971.441,-242.144 960.988,-240.418 962.192,-247.313"/>
</g>
<!-- Node2 -->
<g id="node3" class="node"><title>Node2</title>
<polygon fill="none" stroke="#bfbfbf" points="418.5,-0.5 418.5,-19.5 463.5,-19.5 463.5,-0.5 418.5,-0.5"/>
<text text-anchor="middle" x="441" y="-7.5" font-family="Helvetica,sans-Serif" font-size="10.00">cstdlib</text>
</g>
<!-- Node1&#45;&gt;Node2 -->
<g id="edge2" class="edge"><title>Node1&#45;&gt;Node2</title>
<path fill="none" stroke="midnightblue" d="M44.1474,-119.651C92.495,-116.24 210.71,-105.35 305,-76 346.392,-63.1157 391.162,-39.6886 417.607,-24.7581"/>
<polygon fill="midnightblue" stroke="midnightblue" points="419.541,-27.6836 426.48,-19.6771 416.063,-21.609 419.541,-27.6836"/>
</g>
<!-- Node3 -->
<g id="node4" class="node"><title>Node3</title>
<polygon fill="none" stroke="#bfbfbf" points="107.5,-0.5 107.5,-19.5 148.5,-19.5 148.5,-0.5 107.5,-0.5"/>
<text text-anchor="middle" x="128" y="-7.5" font-family="Helvetica,sans-Serif" font-size="10.00">string</text>
</g>
<!-- Node1&#45;&gt;Node3 -->
<g id="edge3" class="edge"><title>Node1&#45;&gt;Node3</title>
<path fill="none" stroke="midnightblue" d="M17.4632,-112.135C11.314,-98.7442 2.3599,-73.1089 14,-56 32.4911,-28.8213 70.1822,-18.0577 97.165,-13.795"/>
<polygon fill="midnightblue" stroke="midnightblue" points="97.8383,-17.2357 107.274,-12.418 96.8935,-10.2998 97.8383,-17.2357"/>
</g>
<!-- Node1&#45;&gt;Node4 -->
<g id="edge4" class="edge"><title>Node1&#45;&gt;Node4</title>
<path fill="none" stroke="midnightblue" d="M23.5469,-112.431C26.5191,-98.4873 34.3651,-70.9472 52,-56 71.0905,-39.819 136.812,-25.3353 179.036,-17.3965"/>
<polygon fill="midnightblue" stroke="midnightblue" points="179.761,-20.8219 188.962,-15.5689 178.493,-13.9376 179.761,-20.8219"/>
</g>
<!-- Node5 -->
<g id="node6" class="node"><title>Node5</title>
<g id="a_node6"><a xlink:href="TaxonSet_8h.html" target="_top" xlink:title="TaxonSet.h">
<polygon fill="none" stroke="black" points="94.5,-56.5 94.5,-75.5 161.5,-75.5 161.5,-56.5 94.5,-56.5"/>
<text text-anchor="middle" x="128" y="-63.5" font-family="Helvetica,sans-Serif" font-size="10.00">TaxonSet.h</text>
</a>
</g>
</g>
<!-- Node1&#45;&gt;Node5 -->
<g id="edge5" class="edge"><title>Node1&#45;&gt;Node5</title>
<path fill="none" stroke="midnightblue" d="M39.0307,-112.324C56.0298,-103.664 82.3761,-90.2424 101.993,-80.249"/>
<polygon fill="midnightblue" stroke="midnightblue" points="103.69,-83.3125 111.012,-75.6545 100.512,-77.0752 103.69,-83.3125"/>
</g>
<!-- Node5&#45;&gt;Node3 -->
<g id="edge7" class="edge"><title>Node5&#45;&gt;Node3</title>
<path fill="none" stroke="midnightblue" d="M128,-56.083C128,-49.0059 128,-38.8611 128,-29.9865"/>
<polygon fill="midnightblue" stroke="midnightblue" points="131.5,-29.751 128,-19.7511 124.5,-29.7511 131.5,-29.751"/>
</g>
<!-- Node5&#45;&gt;Node4 -->
<g id="edge8" class="edge"><title>Node5&#45;&gt;Node4</title>
<path fill="none" stroke="midnightblue" d="M142.139,-56.324C155.866,-47.9002 176.936,-34.9709 193.064,-25.0741"/>
<polygon fill="midnightblue" stroke="midnightblue" points="195.204,-27.8678 201.896,-19.6545 191.543,-21.9016 195.204,-27.8678"/>
</g>
<!-- Node5&#45;&gt;Node6 -->
<g id="edge6" class="edge"><title>Node5&#45;&gt;Node6</title>
<path fill="none" stroke="midnightblue" d="M159.057,-56.4435C196.881,-46.0226 260.191,-28.5801 296.385,-18.6083"/>
<polygon fill="midnightblue" stroke="midnightblue" points="297.549,-21.9181 306.26,-15.8876 295.689,-15.1695 297.549,-21.9181"/>
</g>
<!-- Node7&#45;&gt;Node5 -->
<g id="edge15" class="edge"><title>Node7&#45;&gt;Node5</title>
<path fill="none" stroke="midnightblue" d="M214.624,-168.368C198.974,-150.055 162.224,-107.049 141.982,-83.3624"/>
<polygon fill="midnightblue" stroke="midnightblue" points="144.499,-80.92 135.342,-75.5914 139.177,-85.4676 144.499,-80.92"/>
</g>
<!-- Node8 -->
<g id="node9" class="node"><title>Node8</title>
<g id="a_node9"><a xlink:href="StateSpace_8h.html" target="_top" xlink:title="StateSpace.h">
<polygon fill="none" stroke="black" points="200,-112.5 200,-131.5 276,-131.5 276,-112.5 200,-112.5"/>
<text text-anchor="middle" x="238" y="-119.5" font-family="Helvetica,sans-Serif" font-size="10.00">StateSpace.h</text>
</a>
</g>
</g>
<!-- Node7&#45;&gt;Node8 -->
<g id="edge10" class="edge"><title>Node7&#45;&gt;Node8</title>
<path fill="none" stroke="midnightblue" d="M224.642,-168.083C226.786,-160.849 229.879,-150.409 232.549,-141.397"/>
<polygon fill="midnightblue" stroke="midnightblue" points="235.922,-142.333 235.407,-131.751 229.21,-140.345 235.922,-142.333"/>
</g>
<!-- Node7&#45;&gt;Node10 -->
<g id="edge16" class="edge"><title>Node7&#45;&gt;Node10</title>
<path fill="none" stroke="midnightblue" d="M267.951,-168.444C323.917,-158.022 417.591,-140.58 471.143,-130.608"/>
<polygon fill="midnightblue" stroke="midnightblue" points="471.786,-134.048 480.977,-128.777 470.505,-127.167 471.786,-134.048"/>
</g>
<!-- Node9 -->
<g id="node10" class="node"><title>Node9</title>
<g id="a_node10"><a xlink:href="BiologicalSequences_8h.html" target="_top" xlink:title="BiologicalSequences.h">
<polygon fill="none" stroke="black" points="180,-56.5 180,-75.5 296,-75.5 296,-56.5 180,-56.5"/>
<text text-anchor="middle" x="238" y="-63.5" font-family="Helvetica,sans-Serif" font-size="10.00">BiologicalSequences.h</text>
</a>
</g>
</g>
<!-- Node8&#45;&gt;Node9 -->
<g id="edge11" class="edge"><title>Node8&#45;&gt;Node9</title>
<path fill="none" stroke="midnightblue" d="M238,-112.083C238,-105.006 238,-94.8611 238,-85.9865"/>
<polygon fill="midnightblue" stroke="midnightblue" points="241.5,-85.751 238,-75.7511 234.5,-85.7511 241.5,-85.751"/>
</g>
<!-- Node9&#45;&gt;Node2 -->
<g id="edge12" class="edge"><title>Node9&#45;&gt;Node2</title>
<path fill="none" stroke="midnightblue" d="M270.166,-56.4435C307.976,-46.3856 370.375,-29.7869 408.381,-19.677"/>
<polygon fill="midnightblue" stroke="midnightblue" points="409.649,-22.9616 418.413,-17.0084 407.849,-16.1968 409.649,-22.9616"/>
</g>
<!-- Node9&#45;&gt;Node3 -->
<g id="edge14" class="edge"><title>Node9&#45;&gt;Node3</title>
<path fill="none" stroke="midnightblue" d="M220.327,-56.324C202.606,-47.6247 175.097,-34.1202 154.712,-24.113"/>
<polygon fill="midnightblue" stroke="midnightblue" points="156.149,-20.9195 145.63,-19.6545 153.064,-27.2031 156.149,-20.9195"/>
</g>
<!-- Node9&#45;&gt;Node4 -->
<g id="edge13" class="edge"><title>Node9&#45;&gt;Node4</title>
<path fill="none" stroke="midnightblue" d="M234.367,-56.083C231.388,-48.77 227.074,-38.1814 223.375,-29.1034"/>
<polygon fill="midnightblue" stroke="midnightblue" points="226.58,-27.6914 219.565,-19.7511 220.097,-30.3326 226.58,-27.6914"/>
</g>
<!-- Node10&#45;&gt;Node2 -->
<g id="edge18" class="edge"><title>Node10&#45;&gt;Node2</title>
<path fill="none" stroke="midnightblue" d="M507.747,-112.339C501.393,-99.6412 488.791,-75.3789 476,-56 469.525,-46.191 461.527,-35.7994 454.811,-27.4763"/>
<polygon fill="midnightblue" stroke="midnightblue" points="457.445,-25.1695 448.394,-19.6627 452.036,-29.612 457.445,-25.1695"/>
</g>
<!-- Node10&#45;&gt;Node4 -->
<g id="edge19" class="edge"><title>Node10&#45;&gt;Node4</title>
<path fill="none" stroke="midnightblue" d="M505.448,-112.222C494.307,-97.9784 470.213,-70.0166 443,-56 410.452,-39.2356 309.194,-23.5334 253.557,-15.8779"/>
<polygon fill="midnightblue" stroke="midnightblue" points="253.778,-12.3759 243.398,-14.4998 252.837,-19.3124 253.778,-12.3759"/>
</g>
<!-- Node11 -->
<g id="node12" class="node"><title>Node11</title>
<polygon fill="none" stroke="#bfbfbf" points="390,-56.5 390,-75.5 434,-75.5 434,-56.5 390,-56.5"/>
<text text-anchor="middle" x="412" y="-63.5" font-family="Helvetica,sans-Serif" font-size="10.00">cmath</text>
</g>
<!-- Node10&#45;&gt;Node11 -->
<g id="edge17" class="edge"><title>Node10&#45;&gt;Node11</title>
<path fill="none" stroke="midnightblue" d="M495.933,-112.324C480.042,-103.743 455.493,-90.486 437.042,-80.5224"/>
<polygon fill="midnightblue" stroke="midnightblue" points="438.489,-77.3264 428.027,-75.6545 435.163,-83.4857 438.489,-77.3264"/>
</g>
<!-- Node10&#45;&gt;Node12 -->
<g id="edge20" class="edge"><title>Node10&#45;&gt;Node12</title>
<path fill="none" stroke="midnightblue" d="M543.408,-113.148C582.887,-103.278 650.497,-86.3758 692.017,-75.9959"/>
<polygon fill="midnightblue" stroke="midnightblue" points="693.125,-79.3266 701.977,-73.5057 691.427,-72.5356 693.125,-79.3266"/>
</g>
<!-- Node13 -->
<g id="node14" class="node"><title>Node13</title>
<polygon fill="none" stroke="#bfbfbf" points="596,-56.5 596,-75.5 646,-75.5 646,-56.5 596,-56.5"/>
<text text-anchor="middle" x="621" y="-63.5" font-family="Helvetica,sans-Serif" font-size="10.00">iomanip</text>
</g>
<!-- Node10&#45;&gt;Node13 -->
<g id="edge21" class="edge"><title>Node10&#45;&gt;Node13</title>
<path fill="none" stroke="midnightblue" d="M529.513,-112.324C547.072,-103.625 574.331,-90.1202 594.531,-80.113"/>
<polygon fill="midnightblue" stroke="midnightblue" points="596.124,-83.23 603.531,-75.6545 593.016,-76.9575 596.124,-83.23"/>
</g>
<!-- Node14 -->
<g id="node15" class="node"><title>Node14</title>
<polygon fill="none" stroke="#bfbfbf" points="528,-56.5 528,-75.5 578,-75.5 578,-56.5 528,-56.5"/>
<text text-anchor="middle" x="553" y="-63.5" font-family="Helvetica,sans-Serif" font-size="10.00">fstream</text>
</g>
<!-- Node10&#45;&gt;Node14 -->
<g id="edge22" class="edge"><title>Node10&#45;&gt;Node14</title>
<path fill="none" stroke="midnightblue" d="M518.77,-112.083C524.562,-104.455 533.058,-93.2645 540.138,-83.9408"/>
<polygon fill="midnightblue" stroke="midnightblue" points="543.096,-85.8321 546.356,-75.7511 537.521,-81.5991 543.096,-85.8321"/>
</g>
<!-- Node15&#45;&gt;Node7 -->
<g id="edge24" class="edge"><title>Node15&#45;&gt;Node7</title>
<path fill="none" stroke="midnightblue" d="M370.954,-224.444C340.918,-215.28 293.087,-200.688 259.757,-190.519"/>
<polygon fill="midnightblue" stroke="midnightblue" points="260.501,-187.087 249.915,-187.516 258.458,-193.782 260.501,-187.087"/>
</g>
<!-- Node15&#45;&gt;Node11 -->
<g id="edge28" class="edge"><title>Node15&#45;&gt;Node11</title>
<path fill="none" stroke="midnightblue" d="M401.418,-224.459C403.839,-215.471 407.426,-200.869 409,-188 413.408,-151.971 413.233,-109.474 412.653,-85.6407"/>
<polygon fill="midnightblue" stroke="midnightblue" points="416.149,-85.442 412.354,-75.55 409.152,-85.6493 416.149,-85.442"/>
</g>
<!-- Node16 -->
<g id="node17" class="node"><title>Node16</title>
<g id="a_node17"><a xlink:href="CodonStateSpace_8h.html" target="_top" xlink:title="CodonStateSpace.h">
<polygon fill="none" stroke="black" points="296,-168.5 296,-187.5 400,-187.5 400,-168.5 296,-168.5"/>
<text text-anchor="middle" x="348" y="-175.5" font-family="Helvetica,sans-Serif" font-size="10.00">CodonStateSpace.h</text>
</a>
</g>
</g>
<!-- Node15&#45;&gt;Node16 -->
<g id="edge25" class="edge"><title>Node15&#45;&gt;Node16</title>
<path fill="none" stroke="midnightblue" d="M390.578,-224.083C383.152,-216.22 372.148,-204.569 363.188,-195.081"/>
<polygon fill="midnightblue" stroke="midnightblue" points="365.676,-192.618 356.265,-187.751 360.587,-197.424 365.676,-192.618"/>
</g>
<!-- Node16&#45;&gt;Node6 -->
<g id="edge27" class="edge"><title>Node16&#45;&gt;Node6</title>
<path fill="none" stroke="midnightblue" d="M346.71,-168.075C342.932,-141.945 331.838,-65.2106 326.686,-29.577"/>
<polygon fill="midnightblue" stroke="midnightblue" points="330.134,-28.9644 325.239,-19.5681 323.206,-29.9661 330.134,-28.9644"/>
</g>
<!-- Node16&#45;&gt;Node8 -->
<g id="edge26" class="edge"><title>Node16&#45;&gt;Node8</title>
<path fill="none" stroke="midnightblue" d="M330.327,-168.324C312.606,-159.625 285.097,-146.12 264.712,-136.113"/>
<polygon fill="midnightblue" stroke="midnightblue" points="266.149,-132.919 255.63,-131.655 263.064,-139.203 266.149,-132.919"/>
</g>
<!-- Node18&#45;&gt;Node2 -->
<g id="edge35" class="edge"><title>Node18&#45;&gt;Node2</title>
<path fill="none" stroke="midnightblue" d="M679.073,-114.242C728.106,-105.702 790.915,-88.0876 763,-56 725.746,-13.1777 548.305,-9.86504 473.925,-10.4132"/>
<polygon fill="midnightblue" stroke="midnightblue" points="473.691,-6.91529 463.727,-10.5178 473.763,-13.9149 473.691,-6.91529"/>
</g>
<!-- Node18&#45;&gt;Node4 -->
<g id="edge36" class="edge"><title>Node18&#45;&gt;Node4</title>
<path fill="none" stroke="midnightblue" d="M636.785,-112.424C649.536,-98.9588 670.082,-72.675 655,-56 628.182,-26.3505 336.756,-24.2075 297,-20 282.76,-18.493 267.12,-16.7709 253.413,-15.2394"/>
<polygon fill="midnightblue" stroke="midnightblue" points="253.69,-11.7487 243.362,-14.1121 252.91,-18.7051 253.69,-11.7487"/>
</g>
<!-- Node18&#45;&gt;Node12 -->
<g id="edge37" class="edge"><title>Node18&#45;&gt;Node12</title>
<path fill="none" stroke="midnightblue" d="M644.067,-112.324C659.958,-103.743 684.507,-90.486 702.958,-80.5224"/>
<polygon fill="midnightblue" stroke="midnightblue" points="704.837,-83.4857 711.973,-75.6545 701.511,-77.3264 704.837,-83.4857"/>
</g>
<!-- Node18&#45;&gt;Node13 -->
<g id="edge38" class="edge"><title>Node18&#45;&gt;Node13</title>
<path fill="none" stroke="midnightblue" d="M626.844,-112.083C625.916,-104.927 624.582,-94.6353 623.423,-85.6911"/>
<polygon fill="midnightblue" stroke="midnightblue" points="626.891,-85.2181 622.134,-75.7511 619.949,-86.1181 626.891,-85.2181"/>
</g>
<!-- Node18&#45;&gt;Node14 -->
<g id="edge39" class="edge"><title>Node18&#45;&gt;Node14</title>
<path fill="none" stroke="midnightblue" d="M615.95,-112.324C604.537,-104.107 587.169,-91.6017 573.565,-81.8069"/>
<polygon fill="midnightblue" stroke="midnightblue" points="575.43,-78.8366 565.269,-75.8339 571.34,-84.5174 575.43,-78.8366"/>
</g>
<!-- Node20 -->
<g id="node21" class="node"><title>Node20</title>
<polygon fill="none" stroke="#bfbfbf" points="979.5,-168.5 979.5,-187.5 1020.5,-187.5 1020.5,-168.5 979.5,-168.5"/>
<text text-anchor="middle" x="1000" y="-175.5" font-family="Helvetica,sans-Serif" font-size="10.00">mpi.h</text>
</g>
<!-- Node19&#45;&gt;Node20 -->
<g id="edge41" class="edge"><title>Node19&#45;&gt;Node20</title>
<path fill="none" stroke="midnightblue" d="M1000,-224.083C1000,-217.006 1000,-206.861 1000,-197.986"/>
<polygon fill="midnightblue" stroke="midnightblue" points="1003.5,-197.751 1000,-187.751 996.5,-197.751 1003.5,-197.751"/>
</g>
</g>
</svg>
