<?xml version="1.0" encoding="UTF-8" standalone="no"?>
<!DOCTYPE svg PUBLIC "-//W3C//DTD SVG 1.1//EN"
 "http://www.w3.org/Graphics/SVG/1.1/DTD/svg11.dtd">
<!-- Generated by graphviz version 2.40.1 (20161225.0304)
 -->
<!-- Title: StringStreamUtils.h Pages: 1 -->
<svg width="946pt" height="140pt"
 viewBox="0.00 0.00 945.50 140.00" xmlns="http://www.w3.org/2000/svg" xmlns:xlink="http://www.w3.org/1999/xlink">
<g id="graph0" class="graph" transform="scale(1 1) rotate(0) translate(4 136)">
<title>StringStreamUtils.h</title>
<!-- Node6 -->
<g id="node1" class="node">
<title>Node6</title>
<polygon fill="#bfbfbf" stroke="#000000" points="458.5,-112.5 458.5,-131.5 560.5,-131.5 560.5,-112.5 458.5,-112.5"/>
<text text-anchor="middle" x="509.5" y="-119.5" font-family="Helvetica,sans-Serif" font-size="10.00" fill="#000000">StringStreamUtils.h</text>
</g>
<!-- Node7 -->
<g id="node2" class="node">
<title>Node7</title>
<g id="a_node2"><a xlink:href="phylo_8h.html" target="_top" xlink:title="phylo.h">
<polygon fill="none" stroke="#000000" points="323.5,-56.5 323.5,-75.5 371.5,-75.5 371.5,-56.5 323.5,-56.5"/>
<text text-anchor="middle" x="347.5" y="-63.5" font-family="Helvetica,sans-Serif" font-size="10.00" fill="#000000">phylo.h</text>
</a>
</g>
</g>
<!-- Node6&#45;&gt;Node7 -->
<g id="edge1" class="edge">
<title>Node6&#45;&gt;Node7</title>
<path fill="none" stroke="#191970" d="M472.0637,-109.059C441.1154,-98.3609 398.089,-83.4875 371.557,-74.316"/>
<polygon fill="#191970" stroke="#191970" points="471.0564,-112.414 481.6512,-112.3733 473.3435,-105.7982 471.0564,-112.414"/>
</g>
<!-- Node15 -->
<g id="node10" class="node">
<title>Node15</title>
<g id="a_node10"><a xlink:href="NNI_8cpp.html" target="_top" xlink:title="NNI.cpp">
<polygon fill="none" stroke="#000000" points="390,-56.5 390,-75.5 443,-75.5 443,-56.5 390,-56.5"/>
<text text-anchor="middle" x="416.5" y="-63.5" font-family="Helvetica,sans-Serif" font-size="10.00" fill="#000000">NNI.cpp</text>
</a>
</g>
</g>
<!-- Node6&#45;&gt;Node15 -->
<g id="edge9" class="edge">
<title>Node6&#45;&gt;Node15</title>
<path fill="none" stroke="#191970" d="M484.6665,-107.0465C468.1189,-97.0824 446.8568,-84.2794 432.5137,-75.6427"/>
<polygon fill="#191970" stroke="#191970" points="482.9283,-110.0854 493.3006,-112.2455 486.5393,-104.0886 482.9283,-110.0854"/>
</g>
<!-- Node16 -->
<g id="node11" class="node">
<title>Node16</title>
<g id="a_node11"><a xlink:href="PhyloProcess_8cpp.html" target="_top" xlink:title="PhyloProcess.cpp">
<polygon fill="none" stroke="#000000" points="461.5,-56.5 461.5,-75.5 557.5,-75.5 557.5,-56.5 461.5,-56.5"/>
<text text-anchor="middle" x="509.5" y="-63.5" font-family="Helvetica,sans-Serif" font-size="10.00" fill="#000000">PhyloProcess.cpp</text>
</a>
</g>
</g>
<!-- Node6&#45;&gt;Node16 -->
<g id="edge10" class="edge">
<title>Node6&#45;&gt;Node16</title>
<path fill="none" stroke="#191970" d="M509.5,-102.1575C509.5,-93.155 509.5,-82.9199 509.5,-75.6427"/>
<polygon fill="#191970" stroke="#191970" points="506.0001,-102.2455 509.5,-112.2455 513.0001,-102.2456 506.0001,-102.2455"/>
</g>
<!-- Node17 -->
<g id="node12" class="node">
<title>Node17</title>
<g id="a_node12"><a xlink:href="RASCATGTRSBDPGammaPhyloProcess_8cpp.html" target="_top" xlink:title="RASCATGTRSBDPGammaPhyloProcess.cpp">
<polygon fill="none" stroke="#000000" points="576,-56.5 576,-75.5 797,-75.5 797,-56.5 576,-56.5"/>
<text text-anchor="middle" x="686.5" y="-63.5" font-family="Helvetica,sans-Serif" font-size="10.00" fill="#000000">RASCATGTRSBDPGammaPhyloProcess.cpp</text>
</a>
</g>
</g>
<!-- Node6&#45;&gt;Node17 -->
<g id="edge11" class="edge">
<title>Node6&#45;&gt;Node17</title>
<path fill="none" stroke="#191970" d="M549.5668,-109.3235C582.027,-99.0536 627.0493,-84.8093 656.4697,-75.5011"/>
<polygon fill="#191970" stroke="#191970" points="548.4058,-106.0197 539.9274,-112.3733 550.5174,-112.6937 548.4058,-106.0197"/>
</g>
<!-- Node18 -->
<g id="node13" class="node">
<title>Node18</title>
<g id="a_node13"><a xlink:href="SequenceAlignment_8cpp.html" target="_top" xlink:title="SequenceAlignment.cpp">
<polygon fill="none" stroke="#000000" points="815.5,-56.5 815.5,-75.5 937.5,-75.5 937.5,-56.5 815.5,-56.5"/>
<text text-anchor="middle" x="876.5" y="-63.5" font-family="Helvetica,sans-Serif" font-size="10.00" fill="#000000">SequenceAlignment.cpp</text>
</a>
</g>
</g>
<!-- Node6&#45;&gt;Node18 -->
<g id="edge12" class="edge">
<title>Node6&#45;&gt;Node18</title>
<path fill="none" stroke="#191970" d="M570.6421,-112.6704C638.4807,-102.319 747.3092,-85.713 815.2081,-75.3524"/>
<polygon fill="#191970" stroke="#191970" points="569.8874,-109.245 560.5298,-114.2134 570.9433,-116.1649 569.8874,-109.245"/>
</g>
<!-- Node8 -->
<g id="node3" class="node">
<title>Node8</title>
<g id="a_node3"><a xlink:href="Bipartition_8cpp.html" target="_top" xlink:title="Bipartition.cpp">
<polygon fill="none" stroke="#000000" points="0,-.5 0,-19.5 79,-19.5 79,-.5 0,-.5"/>
<text text-anchor="middle" x="39.5" y="-7.5" font-family="Helvetica,sans-Serif" font-size="10.00" fill="#000000">Bipartition.cpp</text>
</a>
</g>
</g>
<!-- Node7&#45;&gt;Node8 -->
<g id="edge2" class="edge">
<title>Node7&#45;&gt;Node8</title>
<path fill="none" stroke="#191970" d="M313.5489,-60.3307C263.8466,-51.9547 168.3955,-35.5791 87.5,-20 84.7416,-19.4688 81.8968,-18.9084 79.0336,-18.3351"/>
<polygon fill="#191970" stroke="#191970" points="312.9968,-63.7869 323.4387,-61.9935 314.1575,-56.8838 312.9968,-63.7869"/>
</g>
<!-- Node9 -->
<g id="node4" class="node">
<title>Node9</title>
<g id="a_node4"><a xlink:href="BipartitionList_8cpp.html" target="_top" xlink:title="BipartitionList.cpp">
<polygon fill="none" stroke="#000000" points="97,-.5 97,-19.5 192,-19.5 192,-.5 97,-.5"/>
<text text-anchor="middle" x="144.5" y="-7.5" font-family="Helvetica,sans-Serif" font-size="10.00" fill="#000000">BipartitionList.cpp</text>
</a>
</g>
</g>
<!-- Node7&#45;&gt;Node9 -->
<g id="edge3" class="edge">
<title>Node7&#45;&gt;Node9</title>
<path fill="none" stroke="#191970" d="M313.5184,-56.6258C276.2009,-46.3313 216.601,-29.8899 179.0566,-19.5328"/>
<polygon fill="#191970" stroke="#191970" points="312.8454,-60.0708 323.4161,-59.3562 314.7069,-53.3228 312.8454,-60.0708"/>
</g>
<!-- Node10 -->
<g id="node5" class="node">
<title>Node10</title>
<g id="a_node5"><a xlink:href="Consensus_8cpp.html" target="_top" xlink:title="Consensus.cpp">
<polygon fill="none" stroke="#000000" points="210,-.5 210,-19.5 295,-19.5 295,-.5 210,-.5"/>
<text text-anchor="middle" x="252.5" y="-7.5" font-family="Helvetica,sans-Serif" font-size="10.00" fill="#000000">Consensus.cpp</text>
</a>
</g>
</g>
<!-- Node7&#45;&gt;Node10 -->
<g id="edge4" class="edge">
<title>Node7&#45;&gt;Node10</title>
<path fill="none" stroke="#191970" d="M322.1324,-51.0465C305.229,-41.0824 283.5096,-28.2794 268.8581,-19.6427"/>
<polygon fill="#191970" stroke="#191970" points="320.5602,-54.1825 330.9523,-56.2455 324.1149,-48.1522 320.5602,-54.1825"/>
</g>
<!-- Node11 -->
<g id="node6" class="node">
<title>Node11</title>
<g id="a_node6"><a xlink:href="PBTree_8cpp.html" target="_top" xlink:title="PBTree.cpp">
<polygon fill="none" stroke="#000000" points="313.5,-.5 313.5,-19.5 381.5,-19.5 381.5,-.5 313.5,-.5"/>
<text text-anchor="middle" x="347.5" y="-7.5" font-family="Helvetica,sans-Serif" font-size="10.00" fill="#000000">PBTree.cpp</text>
</a>
</g>
</g>
<!-- Node7&#45;&gt;Node11 -->
<g id="edge5" class="edge">
<title>Node7&#45;&gt;Node11</title>
<path fill="none" stroke="#191970" d="M347.5,-46.1575C347.5,-37.155 347.5,-26.9199 347.5,-19.6427"/>
<polygon fill="#191970" stroke="#191970" points="344.0001,-46.2455 347.5,-56.2455 351.0001,-46.2456 344.0001,-46.2455"/>
</g>
<!-- Node12 -->
<g id="node7" class="node">
<title>Node12</title>
<g id="a_node7"><a xlink:href="PolyNode_8cpp.html" target="_top" xlink:title="PolyNode.cpp">
<polygon fill="none" stroke="#000000" points="399.5,-.5 399.5,-19.5 477.5,-19.5 477.5,-.5 399.5,-.5"/>
<text text-anchor="middle" x="438.5" y="-7.5" font-family="Helvetica,sans-Serif" font-size="10.00" fill="#000000">PolyNode.cpp</text>
</a>
</g>
</g>
<!-- Node7&#45;&gt;Node12 -->
<g id="edge6" class="edge">
<title>Node7&#45;&gt;Node12</title>
<path fill="none" stroke="#191970" d="M372.2504,-50.769C388.3758,-40.8456 408.926,-28.1994 422.8307,-19.6427"/>
<polygon fill="#191970" stroke="#191970" points="370.0332,-48.0237 363.351,-56.2455 373.7019,-53.9853 370.0332,-48.0237"/>
</g>
<!-- Node13 -->
<g id="node8" class="node">
<title>Node13</title>
<g id="a_node8"><a xlink:href="TaxaParameters_8cpp.html" target="_top" xlink:title="TaxaParameters.cpp">
<polygon fill="none" stroke="#000000" points="496,-.5 496,-19.5 603,-19.5 603,-.5 496,-.5"/>
<text text-anchor="middle" x="549.5" y="-7.5" font-family="Helvetica,sans-Serif" font-size="10.00" fill="#000000">TaxaParameters.cpp</text>
</a>
</g>
</g>
<!-- Node7&#45;&gt;Node13 -->
<g id="edge7" class="edge">
<title>Node7&#45;&gt;Node13</title>
<path fill="none" stroke="#191970" d="M381.1999,-56.0853C381.3001,-56.0568 381.4001,-56.0284 381.5,-56 427.0264,-43.0734 479.675,-28.7604 513.7235,-19.587"/>
<polygon fill="#191970" stroke="#191970" points="380.2701,-52.7107 371.6298,-58.8422 382.2079,-59.4371 380.2701,-52.7107"/>
</g>
<!-- Node14 -->
<g id="node9" class="node">
<title>Node14</title>
<g id="a_node9"><a xlink:href="TreeList_8cpp.html" target="_top" xlink:title="TreeList.cpp">
<polygon fill="none" stroke="#000000" points="621,-.5 621,-19.5 692,-19.5 692,-.5 621,-.5"/>
<text text-anchor="middle" x="656.5" y="-7.5" font-family="Helvetica,sans-Serif" font-size="10.00" fill="#000000">TreeList.cpp</text>
</a>
</g>
</g>
<!-- Node7&#45;&gt;Node14 -->
<g id="edge8" class="edge">
<title>Node7&#45;&gt;Node14</title>
<path fill="none" stroke="#191970" d="M381.1956,-56.0685C381.2972,-56.0455 381.3987,-56.0227 381.5,-56 482.8941,-33.2916 510.4451,-39.5255 612.5,-20 615.116,-19.4995 617.8133,-18.9555 620.524,-18.3885"/>
<polygon fill="#191970" stroke="#191970" points="380.3838,-52.6635 371.5438,-58.5034 382.0962,-59.4509 380.3838,-52.6635"/>
</g>
</g>
</svg>
