<?xml version="1.0" encoding="UTF-8" standalone="no"?>
<!DOCTYPE svg PUBLIC "-//W3C//DTD SVG 1.1//EN"
 "http://www.w3.org/Graphics/SVG/1.1/DTD/svg11.dtd">
<!-- Generated by graphviz version 2.40.1 (20161225.0304)
 -->
<!-- Title: SubMatrix.h Pages: 1 -->
<svg width="1781pt" height="587pt"
 viewBox="0.00 0.00 1781.36 587.00" xmlns="http://www.w3.org/2000/svg" xmlns:xlink="http://www.w3.org/1999/xlink">
<g id="graph0" class="graph" transform="scale(1 1) rotate(0) translate(4 583)">
<title>SubMatrix.h</title>
<!-- Node8 -->
<g id="node1" class="node">
<title>Node8</title>
<polygon fill="#bfbfbf" stroke="#000000" points="787.8623,-559.5 787.8623,-578.5 856.8623,-578.5 856.8623,-559.5 787.8623,-559.5"/>
<text text-anchor="middle" x="822.3623" y="-566.5" font-family="Helvetica,sans-Serif" font-size="10.00" fill="#000000">SubMatrix.h</text>
</g>
<!-- Node9 -->
<g id="node2" class="node">
<title>Node9</title>
<g id="a_node2"><a xlink:href="BranchSitePath_8h.html" target="_top" xlink:title="BranchSitePath.h">
<polygon fill="none" stroke="#000000" points="632.8623,-503.5 632.8623,-522.5 725.8623,-522.5 725.8623,-503.5 632.8623,-503.5"/>
<text text-anchor="middle" x="679.3623" y="-510.5" font-family="Helvetica,sans-Serif" font-size="10.00" fill="#000000">BranchSitePath.h</text>
</a>
</g>
</g>
<!-- Node8&#45;&gt;Node9 -->
<g id="edge1" class="edge">
<title>Node8&#45;&gt;Node9</title>
<path fill="none" stroke="#191970" d="M788.2825,-555.6541C762.205,-545.4419 726.8808,-531.6086 703.6241,-522.5011"/>
<polygon fill="#191970" stroke="#191970" points="787.192,-558.9858 797.7797,-559.3733 789.7445,-552.4677 787.192,-558.9858"/>
</g>
<!-- Node33 -->
<g id="node26" class="node">
<title>Node33</title>
<g id="a_node26"><a xlink:href="GTRSubMatrix_8h.html" target="_top" xlink:title="GTRSubMatrix.h">
<polygon fill="none" stroke="#000000" points="758.3623,-447.5 758.3623,-466.5 848.3623,-466.5 848.3623,-447.5 758.3623,-447.5"/>
<text text-anchor="middle" x="803.3623" y="-454.5" font-family="Helvetica,sans-Serif" font-size="10.00" fill="#000000">GTRSubMatrix.h</text>
</a>
</g>
</g>
<!-- Node8&#45;&gt;Node33 -->
<g id="edge29" class="edge">
<title>Node8&#45;&gt;Node33</title>
<path fill="none" stroke="#191970" d="M819.0153,-549.2702C814.8977,-524.9985 808.0737,-484.7725 804.9781,-466.5249"/>
<polygon fill="#191970" stroke="#191970" points="815.619,-550.1772 820.7424,-559.4509 822.5204,-549.0064 815.619,-550.1772"/>
</g>
<!-- Node45 -->
<g id="node38" class="node">
<title>Node45</title>
<g id="a_node38"><a xlink:href="MatrixProfileProcess_8h.html" target="_top" xlink:title="MatrixProfileProcess.h">
<polygon fill="none" stroke="#000000" points="903.3623,-447.5 903.3623,-466.5 1019.3623,-466.5 1019.3623,-447.5 903.3623,-447.5"/>
<text text-anchor="middle" x="961.3623" y="-454.5" font-family="Helvetica,sans-Serif" font-size="10.00" fill="#000000">MatrixProfileProcess.h</text>
</a>
</g>
</g>
<!-- Node8&#45;&gt;Node45 -->
<g id="edge45" class="edge">
<title>Node8&#45;&gt;Node45</title>
<path fill="none" stroke="#191970" d="M829.6192,-549.763C835.8924,-535.3162 846.1926,-515.8833 860.3623,-503 879.4654,-485.6311 906.2426,-473.8419 927.4261,-466.55"/>
<polygon fill="#191970" stroke="#191970" points="826.2916,-548.6545 825.7652,-559.2363 832.7756,-551.2924 826.2916,-548.6545"/>
</g>
<!-- Node54 -->
<g id="node47" class="node">
<title>Node54</title>
<g id="a_node47"><a xlink:href="SubMatrix_8cpp.html" target="_top" xlink:title="SubMatrix.cpp">
<polygon fill="none" stroke="#000000" points="869.3623,-503.5 869.3623,-522.5 949.3623,-522.5 949.3623,-503.5 869.3623,-503.5"/>
<text text-anchor="middle" x="909.3623" y="-510.5" font-family="Helvetica,sans-Serif" font-size="10.00" fill="#000000">SubMatrix.cpp</text>
</a>
</g>
</g>
<!-- Node8&#45;&gt;Node54 -->
<g id="edge60" class="edge">
<title>Node8&#45;&gt;Node54</title>
<path fill="none" stroke="#191970" d="M846.0248,-553.769C861.4414,-543.8456 881.0882,-531.1994 894.3817,-522.6427"/>
<polygon fill="#191970" stroke="#191970" points="844.0308,-550.89 837.5165,-559.2455 847.8196,-556.7761 844.0308,-550.89"/>
</g>
<!-- Node10 -->
<g id="node3" class="node">
<title>Node10</title>
<g id="a_node3"><a xlink:href="SubstitutionProcess_8h.html" target="_top" xlink:title="SubstitutionProcess.h">
<polygon fill="none" stroke="#000000" points="378.8623,-447.5 378.8623,-466.5 491.8623,-466.5 491.8623,-447.5 378.8623,-447.5"/>
<text text-anchor="middle" x="435.3623" y="-454.5" font-family="Helvetica,sans-Serif" font-size="10.00" fill="#000000">SubstitutionProcess.h</text>
</a>
</g>
</g>
<!-- Node9&#45;&gt;Node10 -->
<g id="edge2" class="edge">
<title>Node9&#45;&gt;Node10</title>
<path fill="none" stroke="#191970" d="M627.8501,-501.1775C582.913,-490.8641 518.5548,-476.0934 476.8583,-466.5237"/>
<polygon fill="#191970" stroke="#191970" points="627.1649,-504.6112 637.6944,-503.4369 628.7308,-497.7886 627.1649,-504.6112"/>
</g>
<!-- Node11 -->
<g id="node4" class="node">
<title>Node11</title>
<g id="a_node4"><a xlink:href="PhyloProcess_8h.html" target="_top" xlink:title="PhyloProcess.h">
<polygon fill="none" stroke="#000000" points="46.3623,-386 46.3623,-405 132.3623,-405 132.3623,-386 46.3623,-386"/>
<text text-anchor="middle" x="89.3623" y="-393" font-family="Helvetica,sans-Serif" font-size="10.00" fill="#000000">PhyloProcess.h</text>
</a>
</g>
</g>
<!-- Node10&#45;&gt;Node11 -->
<g id="edge3" class="edge">
<title>Node10&#45;&gt;Node11</title>
<path fill="none" stroke="#191970" d="M371.7188,-445.6876C302.1703,-433.3257 192.6571,-413.8602 132.4992,-403.1674"/>
<polygon fill="#191970" stroke="#191970" points="371.2212,-449.154 381.6794,-447.4581 372.4463,-442.262 371.2212,-449.154"/>
</g>
<!-- Node24 -->
<g id="node17" class="node">
<title>Node24</title>
<g id="a_node17"><a xlink:href="MatrixSubstitutionProcess_8h.html" target="_top" xlink:title="MatrixSubstitutionProcess.h">
<polygon fill="none" stroke="#000000" points="440.3623,-386 440.3623,-405 580.3623,-405 580.3623,-386 440.3623,-386"/>
<text text-anchor="middle" x="510.3623" y="-393" font-family="Helvetica,sans-Serif" font-size="10.00" fill="#000000">MatrixSubstitutionProcess.h</text>
</a>
</g>
</g>
<!-- Node10&#45;&gt;Node24 -->
<g id="edge16" class="edge">
<title>Node10&#45;&gt;Node24</title>
<path fill="none" stroke="#191970" d="M455.034,-440.8692C468.8286,-429.5576 486.8181,-414.8062 498.4783,-405.2449"/>
<polygon fill="#191970" stroke="#191970" points="452.5944,-438.3433 447.081,-447.3906 457.033,-443.7562 452.5944,-438.3433"/>
</g>
<!-- Node32 -->
<g id="node25" class="node">
<title>Node32</title>
<g id="a_node25"><a xlink:href="SubstitutionProcess_8cpp.html" target="_top" xlink:title="SubstitutionProcess.cpp">
<polygon fill="none" stroke="#000000" points="298.8623,-386 298.8623,-405 421.8623,-405 421.8623,-386 298.8623,-386"/>
<text text-anchor="middle" x="360.3623" y="-393" font-family="Helvetica,sans-Serif" font-size="10.00" fill="#000000">SubstitutionProcess.cpp</text>
</a>
</g>
</g>
<!-- Node10&#45;&gt;Node32 -->
<g id="edge28" class="edge">
<title>Node10&#45;&gt;Node32</title>
<path fill="none" stroke="#191970" d="M415.6906,-440.8692C401.896,-429.5576 383.9065,-414.8062 372.2463,-405.2449"/>
<polygon fill="#191970" stroke="#191970" points="413.6915,-443.7562 423.6435,-447.3906 418.1301,-438.3433 413.6915,-443.7562"/>
</g>
<!-- Node12 -->
<g id="node5" class="node">
<title>Node12</title>
<g id="a_node5"><a xlink:href="MatrixPhyloProcess_8h.html" target="_top" xlink:title="MatrixPhyloProcess.h">
<polygon fill="none" stroke="#000000" points="280.8623,-252 280.8623,-271 393.8623,-271 393.8623,-252 280.8623,-252"/>
<text text-anchor="middle" x="337.3623" y="-259" font-family="Helvetica,sans-Serif" font-size="10.00" fill="#000000">MatrixPhyloProcess.h</text>
</a>
</g>
</g>
<!-- Node11&#45;&gt;Node12 -->
<g id="edge4" class="edge">
<title>Node11&#45;&gt;Node12</title>
<path fill="none" stroke="#191970" d="M57.7248,-381.6073C25.8875,-365.7338 -15.5899,-338.6319 6.3623,-313 23.9532,-292.4604 190.7149,-274.5809 280.5975,-266.3388"/>
<polygon fill="#191970" stroke="#191970" points="56.2715,-384.792 66.8009,-385.9675 59.3028,-378.4823 56.2715,-384.792"/>
</g>
<!-- Node22 -->
<g id="node15" class="node">
<title>Node22</title>
<g id="a_node15"><a xlink:href="NNI_8cpp.html" target="_top" xlink:title="NNI.cpp">
<polygon fill="none" stroke="#000000" points="15.8623,-319 15.8623,-338 68.8623,-338 68.8623,-319 15.8623,-319"/>
<text text-anchor="middle" x="42.3623" y="-326" font-family="Helvetica,sans-Serif" font-size="10.00" fill="#000000">NNI.cpp</text>
</a>
</g>
</g>
<!-- Node11&#45;&gt;Node22 -->
<g id="edge14" class="edge">
<title>Node11&#45;&gt;Node22</title>
<path fill="none" stroke="#191970" d="M76.7216,-377.4803C67.8257,-364.7989 56.2683,-348.3235 49.0837,-338.0817"/>
<polygon fill="#191970" stroke="#191970" points="74.0202,-379.7239 82.6283,-385.9005 79.7508,-375.7039 74.0202,-379.7239"/>
</g>
<!-- Node23 -->
<g id="node16" class="node">
<title>Node23</title>
<g id="a_node16"><a xlink:href="PhyloProcess_8cpp.html" target="_top" xlink:title="PhyloProcess.cpp">
<polygon fill="none" stroke="#000000" points="87.3623,-319 87.3623,-338 183.3623,-338 183.3623,-319 87.3623,-319"/>
<text text-anchor="middle" x="135.3623" y="-326" font-family="Helvetica,sans-Serif" font-size="10.00" fill="#000000">PhyloProcess.cpp</text>
</a>
</g>
</g>
<!-- Node11&#45;&gt;Node23 -->
<g id="edge15" class="edge">
<title>Node11&#45;&gt;Node23</title>
<path fill="none" stroke="#191970" d="M101.734,-377.4803C110.4407,-364.7989 121.7521,-348.3235 128.7838,-338.0817"/>
<polygon fill="#191970" stroke="#191970" points="98.7277,-375.6755 95.953,-385.9005 104.4985,-379.6375 98.7277,-375.6755"/>
</g>
<!-- Node13 -->
<g id="node6" class="node">
<title>Node13</title>
<g id="a_node6"><a xlink:href="ExpoConjugateGTRPhyloProcess_8h.html" target="_top" xlink:title="ExpoConjugateGTRPhyloProcess.h">
<polygon fill="none" stroke="#000000" points="588.8623,-185 588.8623,-204 761.8623,-204 761.8623,-185 588.8623,-185"/>
<text text-anchor="middle" x="675.3623" y="-192" font-family="Helvetica,sans-Serif" font-size="10.00" fill="#000000">ExpoConjugateGTRPhyloProcess.h</text>
</a>
</g>
</g>
<!-- Node12&#45;&gt;Node13 -->
<g id="edge5" class="edge">
<title>Node12&#45;&gt;Node13</title>
<path fill="none" stroke="#191970" d="M386.7291,-249.6593C392.3314,-248.389 397.965,-247.1442 403.3623,-246 478.706,-230.028 566.3052,-213.8721 621.2934,-204.0211"/>
<polygon fill="#191970" stroke="#191970" points="385.6977,-246.305 376.7363,-251.957 387.2664,-253.127 385.6977,-246.305"/>
</g>
<!-- Node19 -->
<g id="node12" class="node">
<title>Node19</title>
<g id="a_node12"><a xlink:href="GeneralPathSuffStatMatrixPhyloProcess_8h.html" target="_top" xlink:title="GeneralPathSuffStatMatrix\lPhyloProcess.h">
<polygon fill="none" stroke="#000000" points="422.3623,-179.5 422.3623,-209.5 556.3623,-209.5 556.3623,-179.5 422.3623,-179.5"/>
<text text-anchor="start" x="430.3623" y="-197.5" font-family="Helvetica,sans-Serif" font-size="10.00" fill="#000000">GeneralPathSuffStatMatrix</text>
<text text-anchor="middle" x="489.3623" y="-186.5" font-family="Helvetica,sans-Serif" font-size="10.00" fill="#000000">PhyloProcess.h</text>
</a>
</g>
</g>
<!-- Node12&#45;&gt;Node19 -->
<g id="edge11" class="edge">
<title>Node12&#45;&gt;Node19</title>
<path fill="none" stroke="#191970" d="M368.6043,-247.7289C393.8438,-236.6035 429.3148,-220.9683 455.2831,-209.5218"/>
<polygon fill="#191970" stroke="#191970" points="366.8789,-244.6644 359.1402,-251.9005 369.7024,-251.0697 366.8789,-244.6644"/>
</g>
<!-- Node21 -->
<g id="node14" class="node">
<title>Node21</title>
<g id="a_node14"><a xlink:href="MatrixPhyloProcess_8cpp.html" target="_top" xlink:title="MatrixPhyloProcess.cpp">
<polygon fill="none" stroke="#000000" points="275.8623,-185 275.8623,-204 398.8623,-204 398.8623,-185 275.8623,-185"/>
<text text-anchor="middle" x="337.3623" y="-192" font-family="Helvetica,sans-Serif" font-size="10.00" fill="#000000">MatrixPhyloProcess.cpp</text>
</a>
</g>
</g>
<!-- Node12&#45;&gt;Node21 -->
<g id="edge13" class="edge">
<title>Node12&#45;&gt;Node21</title>
<path fill="none" stroke="#191970" d="M337.3623,-241.6079C337.3623,-229.214 337.3623,-213.8263 337.3623,-204.0817"/>
<polygon fill="#191970" stroke="#191970" points="333.8624,-241.9005 337.3623,-251.9005 340.8624,-241.9006 333.8624,-241.9005"/>
</g>
<!-- Node14 -->
<g id="node7" class="node">
<title>Node14</title>
<g id="a_node7"><a xlink:href="ExpoConjugateGTRPhyloProcess_8cpp.html" target="_top" xlink:title="ExpoConjugateGTRPhyloProcess.cpp">
<polygon fill="none" stroke="#000000" points="583.3623,-118 583.3623,-137 767.3623,-137 767.3623,-118 583.3623,-118"/>
<text text-anchor="middle" x="675.3623" y="-125" font-family="Helvetica,sans-Serif" font-size="10.00" fill="#000000">ExpoConjugateGTRPhyloProcess.cpp</text>
</a>
</g>
</g>
<!-- Node13&#45;&gt;Node14 -->
<g id="edge6" class="edge">
<title>Node13&#45;&gt;Node14</title>
<path fill="none" stroke="#191970" d="M675.3623,-174.6079C675.3623,-162.214 675.3623,-146.8263 675.3623,-137.0817"/>
<polygon fill="#191970" stroke="#191970" points="671.8624,-174.9005 675.3623,-184.9005 678.8624,-174.9006 671.8624,-174.9005"/>
</g>
<!-- Node15 -->
<g id="node8" class="node">
<title>Node15</title>
<g id="a_node8"><a xlink:href="RASCATGTRSBDPGammaPhyloProcess_8h.html" target="_top" xlink:title="RASCATGTRSBDPGammaPhyloProcess.h">
<polygon fill="none" stroke="#000000" points="861.3623,-118 861.3623,-137 1071.3623,-137 1071.3623,-118 861.3623,-118"/>
<text text-anchor="middle" x="966.3623" y="-125" font-family="Helvetica,sans-Serif" font-size="10.00" fill="#000000">RASCATGTRSBDPGammaPhyloProcess.h</text>
</a>
</g>
</g>
<!-- Node13&#45;&gt;Node15 -->
<g id="edge7" class="edge">
<title>Node13&#45;&gt;Node15</title>
<path fill="none" stroke="#191970" d="M726.5212,-182.7211C782.8647,-169.7486 872.3879,-149.1367 924.6497,-137.1039"/>
<polygon fill="#191970" stroke="#191970" points="725.7062,-179.3171 716.7464,-184.9717 727.2768,-186.1387 725.7062,-179.3171"/>
</g>
<!-- Node16 -->
<g id="node9" class="node">
<title>Node16</title>
<g id="a_node9"><a xlink:href="Model_8h.html" target="_top" xlink:title="Model.h">
<polygon fill="none" stroke="#000000" points="863.8623,-56.5 863.8623,-75.5 914.8623,-75.5 914.8623,-56.5 863.8623,-56.5"/>
<text text-anchor="middle" x="889.3623" y="-63.5" font-family="Helvetica,sans-Serif" font-size="10.00" fill="#000000">Model.h</text>
</a>
</g>
</g>
<!-- Node15&#45;&gt;Node16 -->
<g id="edge8" class="edge">
<title>Node15&#45;&gt;Node16</title>
<path fill="none" stroke="#191970" d="M946.5165,-111.6491C932.2093,-100.222 913.3699,-85.1749 901.309,-75.5419"/>
<polygon fill="#191970" stroke="#191970" points="944.3331,-114.3846 954.331,-117.8906 948.7017,-108.915 944.3331,-114.3846"/>
</g>
<!-- Node18 -->
<g id="node11" class="node">
<title>Node18</title>
<g id="a_node11"><a xlink:href="RASCATGTRSBDPGammaPhyloProcess_8cpp.html" target="_top" xlink:title="RASCATGTRSBDPGammaPhyloProcess.cpp">
<polygon fill="none" stroke="#000000" points="932.8623,-56.5 932.8623,-75.5 1153.8623,-75.5 1153.8623,-56.5 932.8623,-56.5"/>
<text text-anchor="middle" x="1043.3623" y="-63.5" font-family="Helvetica,sans-Serif" font-size="10.00" fill="#000000">RASCATGTRSBDPGammaPhyloProcess.cpp</text>
</a>
</g>
</g>
<!-- Node15&#45;&gt;Node18 -->
<g id="edge10" class="edge">
<title>Node15&#45;&gt;Node18</title>
<path fill="none" stroke="#191970" d="M986.2081,-111.6491C1000.5152,-100.222 1019.3547,-85.1749 1031.4155,-75.5419"/>
<polygon fill="#191970" stroke="#191970" points="984.0229,-108.915 978.3935,-117.8906 988.3915,-114.3846 984.0229,-108.915"/>
</g>
<!-- Node17 -->
<g id="node10" class="node">
<title>Node17</title>
<g id="a_node10"><a xlink:href="PB_8cpp.html" target="_top" xlink:title="PB.cpp">
<polygon fill="none" stroke="#000000" points="864.8623,-.5 864.8623,-19.5 913.8623,-19.5 913.8623,-.5 864.8623,-.5"/>
<text text-anchor="middle" x="889.3623" y="-7.5" font-family="Helvetica,sans-Serif" font-size="10.00" fill="#000000">PB.cpp</text>
</a>
</g>
</g>
<!-- Node16&#45;&gt;Node17 -->
<g id="edge9" class="edge">
<title>Node16&#45;&gt;Node17</title>
<path fill="none" stroke="#191970" d="M889.3623,-46.1575C889.3623,-37.155 889.3623,-26.9199 889.3623,-19.6427"/>
<polygon fill="#191970" stroke="#191970" points="885.8624,-46.2455 889.3623,-56.2455 892.8624,-46.2456 885.8624,-46.2455"/>
</g>
<!-- Node20 -->
<g id="node13" class="node">
<title>Node20</title>
<g id="a_node13"><a xlink:href="GeneralPathSuffStatMatrixPhyloProcess_8cpp.html" target="_top" xlink:title="GeneralPathSuffStatMatrix\lPhyloProcess.cpp">
<polygon fill="none" stroke="#000000" points="422.3623,-112.5 422.3623,-142.5 556.3623,-142.5 556.3623,-112.5 422.3623,-112.5"/>
<text text-anchor="start" x="430.3623" y="-130.5" font-family="Helvetica,sans-Serif" font-size="10.00" fill="#000000">GeneralPathSuffStatMatrix</text>
<text text-anchor="middle" x="489.3623" y="-119.5" font-family="Helvetica,sans-Serif" font-size="10.00" fill="#000000">PhyloProcess.cpp</text>
</a>
</g>
</g>
<!-- Node19&#45;&gt;Node20 -->
<g id="edge12" class="edge">
<title>Node19&#45;&gt;Node20</title>
<path fill="none" stroke="#191970" d="M489.3623,-169.0249C489.3623,-160.128 489.3623,-150.4287 489.3623,-142.6432"/>
<polygon fill="#191970" stroke="#191970" points="485.8624,-169.2966 489.3623,-179.2967 492.8624,-169.2967 485.8624,-169.2966"/>
</g>
<!-- Node24&#45;&gt;Node12 -->
<g id="edge17" class="edge">
<title>Node24&#45;&gt;Node12</title>
<path fill="none" stroke="#191970" d="M451.4191,-383.9877C444.3266,-382.6297 437.183,-381.2746 430.3623,-380 385.972,-371.7049 259.3281,-378.6452 230.3623,-344 203.6559,-312.0573 265.4237,-284.7485 305.8159,-271.004"/>
<polygon fill="#191970" stroke="#191970" points="451.2493,-387.5191 461.7303,-385.9704 452.5712,-380.645 451.2493,-387.5191"/>
</g>
<!-- Node25 -->
<g id="node18" class="node">
<title>Node25</title>
<g id="a_node18"><a xlink:href="GTRSubstitutionProcess_8h.html" target="_top" xlink:title="GTRSubstitutionProcess.h">
<polygon fill="none" stroke="#000000" points="505.3623,-319 505.3623,-338 639.3623,-338 639.3623,-319 505.3623,-319"/>
<text text-anchor="middle" x="572.3623" y="-326" font-family="Helvetica,sans-Serif" font-size="10.00" fill="#000000">GTRSubstitutionProcess.h</text>
</a>
</g>
</g>
<!-- Node24&#45;&gt;Node25 -->
<g id="edge18" class="edge">
<title>Node24&#45;&gt;Node25</title>
<path fill="none" stroke="#191970" d="M526.3576,-378.2147C538.178,-365.441 553.8341,-348.5224 563.4957,-338.0817"/>
<polygon fill="#191970" stroke="#191970" points="523.4684,-376.1837 519.2454,-385.9005 528.6062,-380.9381 523.4684,-376.1837"/>
</g>
<!-- Node28 -->
<g id="node21" class="node">
<title>Node28</title>
<g id="a_node21"><a xlink:href="GeneralPathSuffStatMatrixSubstitutionProcess_8h.html" target="_top" xlink:title="GeneralPathSuffStatMatrix\lSubstitutionProcess.h">
<polygon fill="none" stroke="#000000" points="657.3623,-313.5 657.3623,-343.5 791.3623,-343.5 791.3623,-313.5 657.3623,-313.5"/>
<text text-anchor="start" x="665.3623" y="-331.5" font-family="Helvetica,sans-Serif" font-size="10.00" fill="#000000">GeneralPathSuffStatMatrix</text>
<text text-anchor="middle" x="724.3623" y="-320.5" font-family="Helvetica,sans-Serif" font-size="10.00" fill="#000000">SubstitutionProcess.h</text>
</a>
</g>
</g>
<!-- Node24&#45;&gt;Node28 -->
<g id="edge23" class="edge">
<title>Node24&#45;&gt;Node28</title>
<path fill="none" stroke="#191970" d="M550.6295,-382.893C586.33,-371.7157 638.5275,-355.3735 676.3823,-343.5218"/>
<polygon fill="#191970" stroke="#191970" points="549.5207,-379.5725 541.0233,-385.9005 551.6122,-386.2528 549.5207,-379.5725"/>
</g>
<!-- Node30 -->
<g id="node23" class="node">
<title>Node30</title>
<g id="a_node23"><a xlink:href="MatrixSubstitutionProcess_8cpp.html" target="_top" xlink:title="MatrixSubstitutionProcess.cpp">
<polygon fill="none" stroke="#000000" points="239.3623,-319 239.3623,-338 389.3623,-338 389.3623,-319 239.3623,-319"/>
<text text-anchor="middle" x="314.3623" y="-326" font-family="Helvetica,sans-Serif" font-size="10.00" fill="#000000">MatrixSubstitutionProcess.cpp</text>
</a>
</g>
</g>
<!-- Node24&#45;&gt;Node30 -->
<g id="edge26" class="edge">
<title>Node24&#45;&gt;Node30</title>
<path fill="none" stroke="#191970" d="M472.574,-382.5826C434.4813,-369.5611 376.5712,-349.7653 342.3922,-338.0817"/>
<polygon fill="#191970" stroke="#191970" points="471.6857,-385.9777 482.2803,-385.9005 473.95,-379.354 471.6857,-385.9777"/>
</g>
<!-- Node31 -->
<g id="node24" class="node">
<title>Node31</title>
<g id="a_node24"><a xlink:href="Propagate_8cpp.html" target="_top" xlink:title="Propagate.cpp">
<polygon fill="none" stroke="#000000" points="407.3623,-319 407.3623,-338 487.3623,-338 487.3623,-319 407.3623,-319"/>
<text text-anchor="middle" x="447.3623" y="-326" font-family="Helvetica,sans-Serif" font-size="10.00" fill="#000000">Propagate.cpp</text>
</a>
</g>
</g>
<!-- Node24&#45;&gt;Node31 -->
<g id="edge27" class="edge">
<title>Node24&#45;&gt;Node31</title>
<path fill="none" stroke="#191970" d="M494.4511,-378.5785C482.4015,-365.7639 466.2828,-348.6218 456.3719,-338.0817"/>
<polygon fill="#191970" stroke="#191970" points="491.9358,-381.0129 501.3359,-385.9005 497.0355,-376.2177 491.9358,-381.0129"/>
</g>
<!-- Node25&#45;&gt;Node12 -->
<g id="edge19" class="edge">
<title>Node25&#45;&gt;Node12</title>
<path fill="none" stroke="#191970" d="M528.7923,-316.0779C483.1599,-303.0678 412.4727,-282.9145 370.9696,-271.0817"/>
<polygon fill="#191970" stroke="#191970" points="528.1161,-319.5245 538.6925,-318.9005 530.0354,-312.7928 528.1161,-319.5245"/>
</g>
<!-- Node26 -->
<g id="node19" class="node">
<title>Node26</title>
<g id="a_node19"><a xlink:href="ExpoConjugateGTRSubstitutionProcess_8h.html" target="_top" xlink:title="ExpoConjugateGTRSubstitution\lProcess.h">
<polygon fill="none" stroke="#000000" points="602.3623,-246.5 602.3623,-276.5 758.3623,-276.5 758.3623,-246.5 602.3623,-246.5"/>
<text text-anchor="start" x="610.3623" y="-264.5" font-family="Helvetica,sans-Serif" font-size="10.00" fill="#000000">ExpoConjugateGTRSubstitution</text>
<text text-anchor="middle" x="680.3623" y="-253.5" font-family="Helvetica,sans-Serif" font-size="10.00" fill="#000000">Process.h</text>
</a>
</g>
</g>
<!-- Node25&#45;&gt;Node26 -->
<g id="edge20" class="edge">
<title>Node25&#45;&gt;Node26</title>
<path fill="none" stroke="#191970" d="M596.4917,-313.5308C614.2697,-302.5019 638.3501,-287.5631 656.1481,-276.5218"/>
<polygon fill="#191970" stroke="#191970" points="594.4886,-310.6546 587.8361,-318.9005 598.1788,-316.603 594.4886,-310.6546"/>
</g>
<!-- Node26&#45;&gt;Node13 -->
<g id="edge21" class="edge">
<title>Node26&#45;&gt;Node13</title>
<path fill="none" stroke="#191970" d="M678.4682,-236.1199C677.6315,-224.9072 676.6983,-212.4031 676.0753,-204.055"/>
<polygon fill="#191970" stroke="#191970" points="674.9931,-236.5849 679.2277,-246.2967 681.9737,-236.0639 674.9931,-236.5849"/>
</g>
<!-- Node27 -->
<g id="node20" class="node">
<title>Node27</title>
<g id="a_node20"><a xlink:href="ExpoConjugateGTRSubstitutionProcess_8cpp.html" target="_top" xlink:title="ExpoConjugateGTRSubstitution\lProcess.cpp">
<polygon fill="none" stroke="#000000" points="780.3623,-179.5 780.3623,-209.5 936.3623,-209.5 936.3623,-179.5 780.3623,-179.5"/>
<text text-anchor="start" x="788.3623" y="-197.5" font-family="Helvetica,sans-Serif" font-size="10.00" fill="#000000">ExpoConjugateGTRSubstitution</text>
<text text-anchor="middle" x="858.3623" y="-186.5" font-family="Helvetica,sans-Serif" font-size="10.00" fill="#000000">Process.cpp</text>
</a>
</g>
</g>
<!-- Node26&#45;&gt;Node27 -->
<g id="edge22" class="edge">
<title>Node26&#45;&gt;Node27</title>
<path fill="none" stroke="#191970" d="M729.8702,-242.865C757.733,-232.3773 792.0734,-219.4515 818.2414,-209.6017"/>
<polygon fill="#191970" stroke="#191970" points="728.4349,-239.6654 720.309,-246.4639 730.9009,-246.2167 728.4349,-239.6654"/>
</g>
<!-- Node28&#45;&gt;Node19 -->
<g id="edge24" class="edge">
<title>Node28&#45;&gt;Node19</title>
<path fill="none" stroke="#191970" d="M666.2582,-310.0497C642.8497,-301.5083 616.071,-290.2881 593.3623,-277 574.5504,-265.9921 572.3995,-259.5939 555.3623,-246 539.9117,-233.6721 522.2504,-219.9079 509.0878,-209.7128"/>
<polygon fill="#191970" stroke="#191970" points="665.1277,-313.3624 675.7224,-313.4259 667.4798,-306.7693 665.1277,-313.3624"/>
</g>
<!-- Node29 -->
<g id="node22" class="node">
<title>Node29</title>
<g id="a_node22"><a xlink:href="GeneralPathSuffStatMatrixSubstitutionProcess_8cpp.html" target="_top" xlink:title="GeneralPathSuffStatMatrix\lSubstitutionProcess.cpp">
<polygon fill="none" stroke="#000000" points="412.3623,-246.5 412.3623,-276.5 546.3623,-276.5 546.3623,-246.5 412.3623,-246.5"/>
<text text-anchor="start" x="420.3623" y="-264.5" font-family="Helvetica,sans-Serif" font-size="10.00" fill="#000000">GeneralPathSuffStatMatrix</text>
<text text-anchor="middle" x="479.3623" y="-253.5" font-family="Helvetica,sans-Serif" font-size="10.00" fill="#000000">SubstitutionProcess.cpp</text>
</a>
</g>
</g>
<!-- Node28&#45;&gt;Node29 -->
<g id="edge25" class="edge">
<title>Node28&#45;&gt;Node29</title>
<path fill="none" stroke="#191970" d="M659.7107,-310.8198C620.7691,-300.1704 571.7036,-286.7525 534.5849,-276.6017"/>
<polygon fill="#191970" stroke="#191970" points="658.8104,-314.202 669.3795,-313.4639 660.6569,-307.4499 658.8104,-314.202"/>
</g>
<!-- Node34 -->
<g id="node27" class="node">
<title>Node34</title>
<g id="a_node27"><a xlink:href="GTRProfileProcess_8h.html" target="_top" xlink:title="GTRProfileProcess.h">
<polygon fill="none" stroke="#000000" points="836.3623,-386 836.3623,-405 946.3623,-405 946.3623,-386 836.3623,-386"/>
<text text-anchor="middle" x="891.3623" y="-393" font-family="Helvetica,sans-Serif" font-size="10.00" fill="#000000">GTRProfileProcess.h</text>
</a>
</g>
</g>
<!-- Node33&#45;&gt;Node34 -->
<g id="edge30" class="edge">
<title>Node33&#45;&gt;Node34</title>
<path fill="none" stroke="#191970" d="M825.5862,-441.4685C841.9911,-430.0037 863.7962,-414.765 877.7088,-405.0419"/>
<polygon fill="#191970" stroke="#191970" points="823.304,-438.7934 817.1123,-447.3906 827.3139,-444.5311 823.304,-438.7934"/>
</g>
<!-- Node44 -->
<g id="node37" class="node">
<title>Node44</title>
<g id="a_node37"><a xlink:href="GTRSubMatrix_8cpp.html" target="_top" xlink:title="GTRSubMatrix.cpp">
<polygon fill="none" stroke="#000000" points="716.8623,-386 716.8623,-405 817.8623,-405 817.8623,-386 716.8623,-386"/>
<text text-anchor="middle" x="767.3623" y="-393" font-family="Helvetica,sans-Serif" font-size="10.00" fill="#000000">GTRSubMatrix.cpp</text>
</a>
</g>
</g>
<!-- Node33&#45;&gt;Node44 -->
<g id="edge44" class="edge">
<title>Node33&#45;&gt;Node44</title>
<path fill="none" stroke="#191970" d="M792.5832,-438.5857C786.1712,-427.632 778.2939,-414.1748 773.0666,-405.2449"/>
<polygon fill="#191970" stroke="#191970" points="789.6649,-440.5286 797.7373,-447.3906 795.706,-436.9923 789.6649,-440.5286"/>
</g>
<!-- Node34&#45;&gt;Node25 -->
<g id="edge42" class="edge">
<title>Node34&#45;&gt;Node25</title>
<path fill="none" stroke="#191970" d="M842.1049,-383.5649C836.7971,-382.3353 831.4712,-381.1254 826.3623,-380 747.5392,-362.6364 727.4603,-360.0646 648.3623,-344 638.8607,-342.0703 628.692,-339.9999 618.9831,-338.0207"/>
<polygon fill="#191970" stroke="#191970" points="841.6936,-387.0633 852.2284,-385.937 843.2906,-380.2479 841.6936,-387.0633"/>
</g>
<!-- Node35 -->
<g id="node28" class="node">
<title>Node35</title>
<g id="a_node28"><a xlink:href="GTRMixtureProfileProcess_8h.html" target="_top" xlink:title="GTRMixtureProfileProcess.h">
<polygon fill="none" stroke="#000000" points="1141.3623,-319 1141.3623,-338 1283.3623,-338 1283.3623,-319 1141.3623,-319"/>
<text text-anchor="middle" x="1212.3623" y="-326" font-family="Helvetica,sans-Serif" font-size="10.00" fill="#000000">GTRMixtureProfileProcess.h</text>
</a>
</g>
</g>
<!-- Node34&#45;&gt;Node35 -->
<g id="edge31" class="edge">
<title>Node34&#45;&gt;Node35</title>
<path fill="none" stroke="#191970" d="M939.6432,-383.5902C944.9408,-382.348 950.2607,-381.1285 955.3623,-380 994.3506,-371.3759 1100.6657,-350.3726 1163.6728,-338.0162"/>
<polygon fill="#191970" stroke="#191970" points="938.4666,-380.2722 929.5463,-385.9888 940.0845,-387.0827 938.4666,-380.2722"/>
</g>
<!-- Node41 -->
<g id="node34" class="node">
<title>Node41</title>
<g id="a_node34"><a xlink:href="ExpoConjugateGTRProfileProcess_8h.html" target="_top" xlink:title="ExpoConjugateGTRProfileProcess.h">
<polygon fill="none" stroke="#000000" points="947.3623,-319 947.3623,-338 1123.3623,-338 1123.3623,-319 947.3623,-319"/>
<text text-anchor="middle" x="1035.3623" y="-326" font-family="Helvetica,sans-Serif" font-size="10.00" fill="#000000">ExpoConjugateGTRProfileProcess.h</text>
</a>
</g>
</g>
<!-- Node34&#45;&gt;Node41 -->
<g id="edge38" class="edge">
<title>Node34&#45;&gt;Node41</title>
<path fill="none" stroke="#191970" d="M921.2967,-381.5722C949.2728,-368.5555 990.2989,-349.467 1014.7689,-338.0817"/>
<polygon fill="#191970" stroke="#191970" points="919.5841,-378.5086 911.994,-385.9005 922.5371,-384.8553 919.5841,-378.5086"/>
</g>
<!-- Node43 -->
<g id="node36" class="node">
<title>Node43</title>
<g id="a_node36"><a xlink:href="GTRProfileProcess_8cpp.html" target="_top" xlink:title="GTRProfileProcess.cpp">
<polygon fill="none" stroke="#000000" points="809.3623,-319 809.3623,-338 929.3623,-338 929.3623,-319 809.3623,-319"/>
<text text-anchor="middle" x="869.3623" y="-326" font-family="Helvetica,sans-Serif" font-size="10.00" fill="#000000">GTRProfileProcess.cpp</text>
</a>
</g>
</g>
<!-- Node34&#45;&gt;Node43 -->
<g id="edge43" class="edge">
<title>Node34&#45;&gt;Node43</title>
<path fill="none" stroke="#191970" d="M885.0784,-376.3628C880.9679,-363.8444 875.7735,-348.0252 872.5085,-338.0817"/>
<polygon fill="#191970" stroke="#191970" points="881.7651,-377.4915 888.2102,-385.9005 888.4158,-375.3077 881.7651,-377.4915"/>
</g>
<!-- Node36 -->
<g id="node29" class="node">
<title>Node36</title>
<g id="a_node29"><a xlink:href="ExpoConjugateGTRMixtureProfileProcess_8h.html" target="_top" xlink:title="ExpoConjugateGTRMixtureProfile\lProcess.h">
<polygon fill="none" stroke="#000000" points="982.3623,-246.5 982.3623,-276.5 1146.3623,-276.5 1146.3623,-246.5 982.3623,-246.5"/>
<text text-anchor="start" x="990.3623" y="-264.5" font-family="Helvetica,sans-Serif" font-size="10.00" fill="#000000">ExpoConjugateGTRMixtureProfile</text>
<text text-anchor="middle" x="1064.3623" y="-253.5" font-family="Helvetica,sans-Serif" font-size="10.00" fill="#000000">Process.h</text>
</a>
</g>
</g>
<!-- Node35&#45;&gt;Node36 -->
<g id="edge32" class="edge">
<title>Node35&#45;&gt;Node36</title>
<path fill="none" stroke="#191970" d="M1181.9424,-314.7289C1157.3671,-303.6035 1122.8296,-287.9683 1097.5447,-276.5218"/>
<polygon fill="#191970" stroke="#191970" points="1180.604,-317.9649 1191.1575,-318.9005 1183.491,-311.5879 1180.604,-317.9649"/>
</g>
<!-- Node40 -->
<g id="node33" class="node">
<title>Node40</title>
<g id="a_node33"><a xlink:href="GTRMixtureProfileProcess_8cpp.html" target="_top" xlink:title="GTRMixtureProfileProcess.cpp">
<polygon fill="none" stroke="#000000" points="1164.3623,-252 1164.3623,-271 1316.3623,-271 1316.3623,-252 1164.3623,-252"/>
<text text-anchor="middle" x="1240.3623" y="-259" font-family="Helvetica,sans-Serif" font-size="10.00" fill="#000000">GTRMixtureProfileProcess.cpp</text>
</a>
</g>
</g>
<!-- Node35&#45;&gt;Node40 -->
<g id="edge37" class="edge">
<title>Node35&#45;&gt;Node40</title>
<path fill="none" stroke="#191970" d="M1220.3599,-309.3628C1225.5915,-296.8444 1232.2025,-281.0252 1236.358,-271.0817"/>
<polygon fill="#191970" stroke="#191970" points="1217.0006,-308.3242 1216.374,-318.9005 1223.4593,-311.0234 1217.0006,-308.3242"/>
</g>
<!-- Node37 -->
<g id="node30" class="node">
<title>Node37</title>
<g id="a_node30"><a xlink:href="ExpoConjugateGTRMixtureProfileProcess_8cpp.html" target="_top" xlink:title="ExpoConjugateGTRMixtureProfile\lProcess.cpp">
<polygon fill="none" stroke="#000000" points="968.3623,-179.5 968.3623,-209.5 1132.3623,-209.5 1132.3623,-179.5 968.3623,-179.5"/>
<text text-anchor="start" x="976.3623" y="-197.5" font-family="Helvetica,sans-Serif" font-size="10.00" fill="#000000">ExpoConjugateGTRMixtureProfile</text>
<text text-anchor="middle" x="1050.3623" y="-186.5" font-family="Helvetica,sans-Serif" font-size="10.00" fill="#000000">Process.cpp</text>
</a>
</g>
</g>
<!-- Node36&#45;&gt;Node37 -->
<g id="edge33" class="edge">
<title>Node36&#45;&gt;Node37</title>
<path fill="none" stroke="#191970" d="M1059.1004,-236.3179C1057.2247,-227.3414 1055.1712,-217.5143 1053.5265,-209.6432"/>
<polygon fill="#191970" stroke="#191970" points="1055.714,-237.224 1061.1855,-246.2967 1062.566,-235.7922 1055.714,-237.224"/>
</g>
<!-- Node38 -->
<g id="node31" class="node">
<title>Node38</title>
<g id="a_node31"><a xlink:href="ExpoConjugateGTRSBDPProfileProcess_8h.html" target="_top" xlink:title="ExpoConjugateGTRSBDPProfile\lProcess.h">
<polygon fill="none" stroke="#000000" points="1150.3623,-179.5 1150.3623,-209.5 1310.3623,-209.5 1310.3623,-179.5 1150.3623,-179.5"/>
<text text-anchor="start" x="1158.3623" y="-197.5" font-family="Helvetica,sans-Serif" font-size="10.00" fill="#000000">ExpoConjugateGTRSBDPProfile</text>
<text text-anchor="middle" x="1230.3623" y="-186.5" font-family="Helvetica,sans-Serif" font-size="10.00" fill="#000000">Process.h</text>
</a>
</g>
</g>
<!-- Node36&#45;&gt;Node38 -->
<g id="edge34" class="edge">
<title>Node36&#45;&gt;Node38</title>
<path fill="none" stroke="#191970" d="M1111.2148,-242.5897C1137.0758,-232.1518 1168.7554,-219.3654 1192.9462,-209.6017"/>
<polygon fill="#191970" stroke="#191970" points="1109.5791,-239.4754 1101.6159,-246.4639 1112.1991,-245.9667 1109.5791,-239.4754"/>
</g>
<!-- Node38&#45;&gt;Node15 -->
<g id="edge36" class="edge">
<title>Node38&#45;&gt;Node15</title>
<path fill="none" stroke="#191970" d="M1161.2726,-176.9659C1110.9347,-164.1907 1044.6649,-147.3723 1003.8159,-137.0053"/>
<polygon fill="#191970" stroke="#191970" points="1160.5618,-180.3964 1171.1155,-179.4639 1162.2838,-173.6115 1160.5618,-180.3964"/>
</g>
<!-- Node39 -->
<g id="node32" class="node">
<title>Node39</title>
<g id="a_node32"><a xlink:href="ExpoConjugateGTRSBDPProfileProcess_8cpp.html" target="_top" xlink:title="ExpoConjugateGTRSBDPProfile\lProcess.cpp">
<polygon fill="none" stroke="#000000" points="1150.3623,-112.5 1150.3623,-142.5 1310.3623,-142.5 1310.3623,-112.5 1150.3623,-112.5"/>
<text text-anchor="start" x="1158.3623" y="-130.5" font-family="Helvetica,sans-Serif" font-size="10.00" fill="#000000">ExpoConjugateGTRSBDPProfile</text>
<text text-anchor="middle" x="1230.3623" y="-119.5" font-family="Helvetica,sans-Serif" font-size="10.00" fill="#000000">Process.cpp</text>
</a>
</g>
</g>
<!-- Node38&#45;&gt;Node39 -->
<g id="edge35" class="edge">
<title>Node38&#45;&gt;Node39</title>
<path fill="none" stroke="#191970" d="M1230.3623,-169.0249C1230.3623,-160.128 1230.3623,-150.4287 1230.3623,-142.6432"/>
<polygon fill="#191970" stroke="#191970" points="1226.8624,-169.2966 1230.3623,-179.2967 1233.8624,-169.2967 1226.8624,-169.2966"/>
</g>
<!-- Node41&#45;&gt;Node26 -->
<g id="edge40" class="edge">
<title>Node41&#45;&gt;Node26</title>
<path fill="none" stroke="#191970" d="M974.8457,-317.0786C915.143,-305.8107 823.6086,-288.5352 758.4517,-276.238"/>
<polygon fill="#191970" stroke="#191970" points="974.4008,-320.5563 984.8764,-318.9717 975.6991,-313.6777 974.4008,-320.5563"/>
</g>
<!-- Node41&#45;&gt;Node36 -->
<g id="edge39" class="edge">
<title>Node41&#45;&gt;Node36</title>
<path fill="none" stroke="#191970" d="M1043.616,-309.4311C1048.1336,-298.9939 1053.6512,-286.2463 1057.8603,-276.5218"/>
<polygon fill="#191970" stroke="#191970" points="1040.2775,-308.333 1039.5173,-318.9005 1046.7016,-311.1136 1040.2775,-308.333"/>
</g>
<!-- Node42 -->
<g id="node35" class="node">
<title>Node42</title>
<g id="a_node35"><a xlink:href="ExpoConjugateGTRProfileProcess_8cpp.html" target="_top" xlink:title="ExpoConjugateGTRProfileProcess.cpp">
<polygon fill="none" stroke="#000000" points="776.8623,-252 776.8623,-271 963.8623,-271 963.8623,-252 776.8623,-252"/>
<text text-anchor="middle" x="870.3623" y="-259" font-family="Helvetica,sans-Serif" font-size="10.00" fill="#000000">ExpoConjugateGTRProfileProcess.cpp</text>
</a>
</g>
</g>
<!-- Node41&#45;&gt;Node42 -->
<g id="edge41" class="edge">
<title>Node41&#45;&gt;Node42</title>
<path fill="none" stroke="#191970" d="M1002.3145,-315.0806C970.2414,-302.057 922.3648,-282.6162 893.9589,-271.0817"/>
<polygon fill="#191970" stroke="#191970" points="1001.1397,-318.3811 1011.7218,-318.9005 1003.7733,-311.8954 1001.1397,-318.3811"/>
</g>
<!-- Node45&#45;&gt;Node24 -->
<g id="edge55" class="edge">
<title>Node45&#45;&gt;Node24</title>
<path fill="none" stroke="#191970" d="M893.33,-447.7229C808.915,-436.2117 665.7153,-416.6845 580.3874,-405.0489"/>
<polygon fill="#191970" stroke="#191970" points="892.944,-451.2025 903.3252,-449.0859 893.8898,-444.2667 892.944,-451.2025"/>
</g>
<!-- Node45&#45;&gt;Node34 -->
<g id="edge46" class="edge">
<title>Node45&#45;&gt;Node34</title>
<path fill="none" stroke="#191970" d="M942.6366,-440.5482C929.8108,-429.2798 913.2342,-414.716 902.454,-405.2449"/>
<polygon fill="#191970" stroke="#191970" points="940.6022,-443.4197 950.4248,-447.3906 945.2224,-438.161 940.6022,-443.4197"/>
</g>
<!-- Node46 -->
<g id="node39" class="node">
<title>Node46</title>
<g id="a_node39"><a xlink:href="MatrixMixtureProfileProcess_8h.html" target="_top" xlink:title="MatrixMixtureProfileProcess.h">
<polygon fill="none" stroke="#000000" points="1216.3623,-386 1216.3623,-405 1364.3623,-405 1364.3623,-386 1216.3623,-386"/>
<text text-anchor="middle" x="1290.3623" y="-393" font-family="Helvetica,sans-Serif" font-size="10.00" fill="#000000">MatrixMixtureProfileProcess.h</text>
</a>
</g>
</g>
<!-- Node45&#45;&gt;Node46 -->
<g id="edge47" class="edge">
<title>Node45&#45;&gt;Node46</title>
<path fill="none" stroke="#191970" d="M1022.5227,-445.5673C1085.0241,-433.8839 1180.975,-415.9478 1239.468,-405.0137"/>
<polygon fill="#191970" stroke="#191970" points="1021.5941,-442.1801 1012.4076,-447.4581 1022.8804,-449.061 1021.5941,-442.1801"/>
</g>
<!-- Node52 -->
<g id="node45" class="node">
<title>Node52</title>
<g id="a_node45"><a xlink:href="GeneralPathSuffStatMatrixProfileProcess_8h.html" target="_top" xlink:title="GeneralPathSuffStatMatrix\lProfileProcess.h">
<polygon fill="none" stroke="#000000" points="964.3623,-380.5 964.3623,-410.5 1098.3623,-410.5 1098.3623,-380.5 964.3623,-380.5"/>
<text text-anchor="start" x="972.3623" y="-398.5" font-family="Helvetica,sans-Serif" font-size="10.00" fill="#000000">GeneralPathSuffStatMatrix</text>
<text text-anchor="middle" x="1031.3623" y="-387.5" font-family="Helvetica,sans-Serif" font-size="10.00" fill="#000000">ProfileProcess.h</text>
</a>
</g>
</g>
<!-- Node45&#45;&gt;Node52 -->
<g id="edge56" class="edge">
<title>Node45&#45;&gt;Node52</title>
<path fill="none" stroke="#191970" d="M979.8427,-440.7637C990.5028,-431.398 1003.816,-419.7014 1014.2384,-410.5446"/>
<polygon fill="#191970" stroke="#191970" points="977.5022,-438.161 972.2998,-447.3906 982.1224,-443.4197 977.5022,-438.161"/>
</g>
<!-- Node53 -->
<g id="node46" class="node">
<title>Node53</title>
<g id="a_node46"><a xlink:href="MatrixProfileProcess_8cpp.html" target="_top" xlink:title="MatrixProfileProcess.cpp">
<polygon fill="none" stroke="#000000" points="1382.3623,-386 1382.3623,-405 1508.3623,-405 1508.3623,-386 1382.3623,-386"/>
<text text-anchor="middle" x="1445.3623" y="-393" font-family="Helvetica,sans-Serif" font-size="10.00" fill="#000000">MatrixProfileProcess.cpp</text>
</a>
</g>
</g>
<!-- Node45&#45;&gt;Node53 -->
<g id="edge59" class="edge">
<title>Node45&#45;&gt;Node53</title>
<path fill="none" stroke="#191970" d="M1029.797,-451.4871C1111.7795,-444.3927 1253.1291,-430.6026 1373.3623,-411 1383.4581,-409.354 1394.2753,-407.2231 1404.377,-405.0711"/>
<polygon fill="#191970" stroke="#191970" points="1029.2744,-448.019 1019.61,-452.3606 1029.8725,-454.9934 1029.2744,-448.019"/>
</g>
<!-- Node46&#45;&gt;Node35 -->
<g id="edge48" class="edge">
<title>Node46&#45;&gt;Node35</title>
<path fill="none" stroke="#191970" d="M1271.5016,-379.2992C1256.4999,-366.4131 1236.0192,-348.8207 1223.5171,-338.0817"/>
<polygon fill="#191970" stroke="#191970" points="1269.3205,-382.0396 1279.1868,-385.9005 1273.8816,-376.7296 1269.3205,-382.0396"/>
</g>
<!-- Node47 -->
<g id="node40" class="node">
<title>Node47</title>
<g id="a_node40"><a xlink:href="MatrixSBDPProfileProcess_8h.html" target="_top" xlink:title="MatrixSBDPProfileProcess.h">
<polygon fill="none" stroke="#000000" points="1453.8623,-319 1453.8623,-338 1596.8623,-338 1596.8623,-319 1453.8623,-319"/>
<text text-anchor="middle" x="1525.3623" y="-326" font-family="Helvetica,sans-Serif" font-size="10.00" fill="#000000">MatrixSBDPProfileProcess.h</text>
</a>
</g>
</g>
<!-- Node46&#45;&gt;Node47 -->
<g id="edge49" class="edge">
<title>Node46&#45;&gt;Node47</title>
<path fill="none" stroke="#191970" d="M1333.9322,-383.0779C1379.5646,-370.0678 1450.2519,-349.9145 1491.755,-338.0817"/>
<polygon fill="#191970" stroke="#191970" points="1332.6892,-379.7928 1324.0321,-385.9005 1334.6085,-386.5245 1332.6892,-379.7928"/>
</g>
<!-- Node49 -->
<g id="node42" class="node">
<title>Node49</title>
<g id="a_node42"><a xlink:href="GeneralPathSuffStatMatrixMixtureProfileProcess_8h.html" target="_top" xlink:title="GeneralPathSuffStatMatrix\lMixtureProfileProcess.h">
<polygon fill="none" stroke="#000000" points="1301.3623,-313.5 1301.3623,-343.5 1435.3623,-343.5 1435.3623,-313.5 1301.3623,-313.5"/>
<text text-anchor="start" x="1309.3623" y="-331.5" font-family="Helvetica,sans-Serif" font-size="10.00" fill="#000000">GeneralPathSuffStatMatrix</text>
<text text-anchor="middle" x="1368.3623" y="-320.5" font-family="Helvetica,sans-Serif" font-size="10.00" fill="#000000">MixtureProfileProcess.h</text>
</a>
</g>
</g>
<!-- Node46&#45;&gt;Node49 -->
<g id="edge52" class="edge">
<title>Node46&#45;&gt;Node49</title>
<path fill="none" stroke="#191970" d="M1309.2206,-379.3012C1321.8991,-368.4107 1338.4918,-354.1579 1350.8743,-343.5218"/>
<polygon fill="#191970" stroke="#191970" points="1306.8429,-376.7296 1301.5378,-385.9005 1311.4041,-382.0396 1306.8429,-376.7296"/>
</g>
<!-- Node51 -->
<g id="node44" class="node">
<title>Node51</title>
<g id="a_node44"><a xlink:href="MatrixMixtureProfileProcess_8cpp.html" target="_top" xlink:title="MatrixMixtureProfileProcess.cpp">
<polygon fill="none" stroke="#000000" points="1615.3623,-319 1615.3623,-338 1773.3623,-338 1773.3623,-319 1615.3623,-319"/>
<text text-anchor="middle" x="1694.3623" y="-326" font-family="Helvetica,sans-Serif" font-size="10.00" fill="#000000">MatrixMixtureProfileProcess.cpp</text>
</a>
</g>
</g>
<!-- Node46&#45;&gt;Node51 -->
<g id="edge54" class="edge">
<title>Node46&#45;&gt;Node51</title>
<path fill="none" stroke="#191970" d="M1349.8351,-384.1607C1357.7394,-382.7219 1365.7421,-381.2999 1373.3623,-380 1476.6545,-362.38 1502.9809,-361.0892 1606.3623,-344 1617.6882,-342.1278 1629.8193,-340.0428 1641.3438,-338.0245"/>
<polygon fill="#191970" stroke="#191970" points="1349.1145,-380.7344 1339.9117,-385.9841 1350.3796,-387.6191 1349.1145,-380.7344"/>
</g>
<!-- Node47&#45;&gt;Node38 -->
<g id="edge50" class="edge">
<title>Node47&#45;&gt;Node38</title>
<path fill="none" stroke="#191970" d="M1519.3984,-309.3505C1512.4345,-290.2668 1499.0235,-261.6185 1477.3623,-246 1450.9804,-226.9777 1372.0925,-212.695 1310.4909,-204.054"/>
<polygon fill="#191970" stroke="#191970" points="1516.0861,-310.4813 1522.6155,-318.825 1522.7144,-308.2307 1516.0861,-310.4813"/>
</g>
<!-- Node48 -->
<g id="node41" class="node">
<title>Node48</title>
<g id="a_node41"><a xlink:href="MatrixSBDPProfileProcess_8cpp.html" target="_top" xlink:title="MatrixSBDPProfileProcess.cpp">
<polygon fill="none" stroke="#000000" points="1524.3623,-252 1524.3623,-271 1678.3623,-271 1678.3623,-252 1524.3623,-252"/>
<text text-anchor="middle" x="1601.3623" y="-259" font-family="Helvetica,sans-Serif" font-size="10.00" fill="#000000">MatrixSBDPProfileProcess.cpp</text>
</a>
</g>
</g>
<!-- Node47&#45;&gt;Node48 -->
<g id="edge51" class="edge">
<title>Node47&#45;&gt;Node48</title>
<path fill="none" stroke="#191970" d="M1544.1467,-311.94C1558.7253,-299.0879 1578.4248,-281.7212 1590.4935,-271.0817"/>
<polygon fill="#191970" stroke="#191970" points="1541.438,-309.6621 1536.2512,-318.9005 1546.0671,-314.913 1541.438,-309.6621"/>
</g>
<!-- Node50 -->
<g id="node43" class="node">
<title>Node50</title>
<g id="a_node43"><a xlink:href="GeneralPathSuffStatMatrixMixtureProfileProcess_8cpp.html" target="_top" xlink:title="GeneralPathSuffStatMatrix\lMixtureProfileProcess.cpp">
<polygon fill="none" stroke="#000000" points="1334.3623,-246.5 1334.3623,-276.5 1468.3623,-276.5 1468.3623,-246.5 1334.3623,-246.5"/>
<text text-anchor="start" x="1342.3623" y="-264.5" font-family="Helvetica,sans-Serif" font-size="10.00" fill="#000000">GeneralPathSuffStatMatrix</text>
<text text-anchor="middle" x="1401.3623" y="-253.5" font-family="Helvetica,sans-Serif" font-size="10.00" fill="#000000">MixtureProfileProcess.cpp</text>
</a>
</g>
</g>
<!-- Node49&#45;&gt;Node50 -->
<g id="edge53" class="edge">
<title>Node49&#45;&gt;Node50</title>
<path fill="none" stroke="#191970" d="M1380.3343,-304.1932C1384.87,-294.9844 1389.9005,-284.771 1393.9037,-276.6432"/>
<polygon fill="#191970" stroke="#191970" points="1377.1292,-302.7793 1375.8505,-313.2967 1383.4089,-305.8723 1377.1292,-302.7793"/>
</g>
<!-- Node52&#45;&gt;Node28 -->
<g id="edge58" class="edge">
<title>Node52&#45;&gt;Node28</title>
<path fill="none" stroke="#191970" d="M954.1802,-378.6557C904.1176,-367.73 839.5285,-353.634 791.5776,-343.1691"/>
<polygon fill="#191970" stroke="#191970" points="953.4735,-382.0838 963.9898,-380.7966 954.9661,-375.2448 953.4735,-382.0838"/>
</g>
<!-- Node52&#45;&gt;Node49 -->
<g id="edge57" class="edge">
<title>Node52&#45;&gt;Node49</title>
<path fill="none" stroke="#191970" d="M1108.2583,-380.4606C1160.2553,-370.2582 1230.4637,-356.4188 1292.3623,-344 1295.2669,-343.4172 1298.2336,-342.8202 1301.2302,-342.2156"/>
<polygon fill="#191970" stroke="#191970" points="1107.5783,-377.0272 1098.4389,-382.3866 1108.9256,-383.8964 1107.5783,-377.0272"/>
</g>
</g>
</svg>
