<?xml version="1.0" encoding="UTF-8" standalone="no"?>
<!DOCTYPE svg PUBLIC "-//W3C//DTD SVG 1.1//EN"
 "http://www.w3.org/Graphics/SVG/1.1/DTD/svg11.dtd">
<!-- Generated by graphviz version 2.38.0 (20140413.2041)
 -->
<!-- Title: SubstitutionProcess.cpp Pages: 1 -->
<svg width="1017pt" height="308pt"
 viewBox="0.00 0.00 1017.00 308.00" xmlns="http://www.w3.org/2000/svg" xmlns:xlink="http://www.w3.org/1999/xlink">
<g id="graph0" class="graph" transform="scale(1 1) rotate(0) translate(4 304)">
<title>SubstitutionProcess.cpp</title>
<!-- Node0 -->
<g id="node1" class="node"><title>Node0</title>
<polygon fill="#bfbfbf" stroke="black" points="822.5,-280.5 822.5,-299.5 945.5,-299.5 945.5,-280.5 822.5,-280.5"/>
<text text-anchor="middle" x="884" y="-287.5" font-family="Helvetica,sans-Serif" font-size="10.00">SubstitutionProcess.cpp</text>
</g>
<!-- Node1 -->
<g id="node2" class="node"><title>Node1</title>
<g id="a_node2"><a xlink:href="SubstitutionProcess_8h.html" target="_top" xlink:title="SubstitutionProcess.h">
<polygon fill="none" stroke="black" points="364.5,-224.5 364.5,-243.5 477.5,-243.5 477.5,-224.5 364.5,-224.5"/>
<text text-anchor="middle" x="421" y="-231.5" font-family="Helvetica,sans-Serif" font-size="10.00">SubstitutionProcess.h</text>
</a>
</g>
</g>
<!-- Node0&#45;&gt;Node1 -->
<g id="edge1" class="edge"><title>Node0&#45;&gt;Node1</title>
<path fill="none" stroke="midnightblue" d="M822.038,-281.773C734.961,-271.617 577.041,-253.199 487.551,-242.762"/>
<polygon fill="midnightblue" stroke="midnightblue" points="487.855,-239.274 477.517,-241.592 487.044,-246.227 487.855,-239.274"/>
</g>
<!-- Node3 -->
<g id="node4" class="node"><title>Node3</title>
<polygon fill="none" stroke="#bfbfbf" points="341,-0.5 341,-19.5 395,-19.5 395,-0.5 341,-0.5"/>
<text text-anchor="middle" x="368" y="-7.5" font-family="Helvetica,sans-Serif" font-size="10.00">iostream</text>
</g>
<!-- Node0&#45;&gt;Node3 -->
<g id="edge43" class="edge"><title>Node0&#45;&gt;Node3</title>
<path fill="none" stroke="midnightblue" d="M822.19,-287.812C621.345,-283.14 0,-261.983 0,-179 0,-179 0,-179 0,-121 0,-86.1146 14.3176,-74.3287 44,-56 148.506,8.53166 196.636,-38.8847 318,-20 322.167,-19.3516 326.521,-18.6315 330.848,-17.889"/>
<polygon fill="midnightblue" stroke="midnightblue" points="331.55,-21.3194 340.792,-16.1393 330.337,-14.4253 331.55,-21.3194"/>
</g>
<!-- Node17 -->
<g id="node18" class="node"><title>Node17</title>
<polygon fill="none" stroke="#bfbfbf" points="931,-0.5 931,-19.5 975,-19.5 975,-0.5 931,-0.5"/>
<text text-anchor="middle" x="953" y="-7.5" font-family="Helvetica,sans-Serif" font-size="10.00">cmath</text>
</g>
<!-- Node0&#45;&gt;Node17 -->
<g id="edge42" class="edge"><title>Node0&#45;&gt;Node17</title>
<path fill="none" stroke="midnightblue" d="M891.594,-280.281C906.249,-262.523 937,-220.337 937,-179 937,-179 937,-179 937,-121 937,-88.6258 943.871,-51.4449 948.607,-29.6593"/>
<polygon fill="midnightblue" stroke="midnightblue" points="952.05,-30.3028 950.842,-19.7771 945.223,-28.7588 952.05,-30.3028"/>
</g>
<!-- Node18 -->
<g id="node19" class="node"><title>Node18</title>
<g id="a_node19"><a xlink:href="Random_8h.html" target="_top" xlink:title="Random.h">
<polygon fill="none" stroke="black" points="806,-56.5 806,-75.5 868,-75.5 868,-56.5 806,-56.5"/>
<text text-anchor="middle" x="837" y="-63.5" font-family="Helvetica,sans-Serif" font-size="10.00">Random.h</text>
</a>
</g>
</g>
<!-- Node0&#45;&gt;Node18 -->
<g id="edge41" class="edge"><title>Node0&#45;&gt;Node18</title>
<path fill="none" stroke="midnightblue" d="M885.801,-280.454C890.938,-254.109 903.753,-172.288 879,-112 874.325,-100.613 865.354,-90.3624 856.899,-82.5313"/>
<polygon fill="midnightblue" stroke="midnightblue" points="858.965,-79.6912 849.108,-75.8062 854.391,-84.9901 858.965,-79.6912"/>
</g>
<!-- Node22 -->
<g id="node23" class="node"><title>Node22</title>
<polygon fill="none" stroke="#bfbfbf" points="619,-168.5 619,-187.5 675,-187.5 675,-168.5 619,-168.5"/>
<text text-anchor="middle" x="647" y="-175.5" font-family="Helvetica,sans-Serif" font-size="10.00">algorithm</text>
</g>
<!-- Node0&#45;&gt;Node22 -->
<g id="edge45" class="edge"><title>Node0&#45;&gt;Node22</title>
<path fill="none" stroke="midnightblue" d="M865.403,-280.368C823.955,-261.131 723.805,-214.648 674.861,-191.931"/>
<polygon fill="midnightblue" stroke="midnightblue" points="676.055,-188.627 665.511,-187.591 673.108,-194.976 676.055,-188.627"/>
</g>
<!-- Node23 -->
<g id="node24" class="node"><title>Node23</title>
<polygon fill="none" stroke="#bfbfbf" points="965,-224.5 965,-243.5 1009,-243.5 1009,-224.5 965,-224.5"/>
<text text-anchor="middle" x="987" y="-231.5" font-family="Helvetica,sans-Serif" font-size="10.00">vector</text>
</g>
<!-- Node0&#45;&gt;Node23 -->
<g id="edge44" class="edge"><title>Node0&#45;&gt;Node23</title>
<path fill="none" stroke="midnightblue" d="M900.549,-280.324C916.992,-271.703 942.435,-258.364 961.468,-248.386"/>
<polygon fill="midnightblue" stroke="midnightblue" points="963.261,-251.398 970.492,-243.655 960.011,-245.198 963.261,-251.398"/>
</g>
<!-- Node2 -->
<g id="node3" class="node"><title>Node2</title>
<g id="a_node3"><a xlink:href="RateProcess_8h.html" target="_top" xlink:title="RateProcess.h">
<polygon fill="none" stroke="black" points="152,-168.5 152,-187.5 234,-187.5 234,-168.5 152,-168.5"/>
<text text-anchor="middle" x="193" y="-175.5" font-family="Helvetica,sans-Serif" font-size="10.00">RateProcess.h</text>
</a>
</g>
</g>
<!-- Node1&#45;&gt;Node2 -->
<g id="edge2" class="edge"><title>Node1&#45;&gt;Node2</title>
<path fill="none" stroke="midnightblue" d="M384.873,-224.444C345.349,-215.083 281.903,-200.056 238.887,-189.868"/>
<polygon fill="midnightblue" stroke="midnightblue" points="239.496,-186.415 228.958,-187.516 237.882,-193.227 239.496,-186.415"/>
</g>
<!-- Node4 -->
<g id="node5" class="node"><title>Node4</title>
<g id="a_node5"><a xlink:href="Chrono_8h.html" target="_top" xlink:title="Chrono.h">
<polygon fill="none" stroke="black" points="170,-112.5 170,-131.5 226,-131.5 226,-112.5 170,-112.5"/>
<text text-anchor="middle" x="198" y="-119.5" font-family="Helvetica,sans-Serif" font-size="10.00">Chrono.h</text>
</a>
</g>
</g>
<!-- Node1&#45;&gt;Node4 -->
<g id="edge39" class="edge"><title>Node1&#45;&gt;Node4</title>
<path fill="none" stroke="midnightblue" d="M382.1,-224.436C353.156,-217.144 313.252,-205.107 281,-188 255.665,-174.562 230.25,-153.224 214.344,-138.69"/>
<polygon fill="midnightblue" stroke="midnightblue" points="216.644,-136.049 206.943,-131.788 211.869,-141.168 216.644,-136.049"/>
</g>
<!-- Node8 -->
<g id="node9" class="node"><title>Node8</title>
<g id="a_node9"><a xlink:href="ProfileProcess_8h.html" target="_top" xlink:title="ProfileProcess.h">
<polygon fill="none" stroke="black" points="290.5,-168.5 290.5,-187.5 379.5,-187.5 379.5,-168.5 290.5,-168.5"/>
<text text-anchor="middle" x="335" y="-175.5" font-family="Helvetica,sans-Serif" font-size="10.00">ProfileProcess.h</text>
</a>
</g>
</g>
<!-- Node1&#45;&gt;Node8 -->
<g id="edge9" class="edge"><title>Node1&#45;&gt;Node8</title>
<path fill="none" stroke="midnightblue" d="M407.183,-224.324C393.767,-215.9 373.176,-202.971 357.414,-193.074"/>
<polygon fill="midnightblue" stroke="midnightblue" points="359.113,-190.008 348.783,-187.655 355.391,-195.936 359.113,-190.008"/>
</g>
<!-- Node13 -->
<g id="node14" class="node"><title>Node13</title>
<g id="a_node14"><a xlink:href="BranchSitePath_8h.html" target="_top" xlink:title="BranchSitePath.h">
<polygon fill="none" stroke="black" points="461.5,-168.5 461.5,-187.5 554.5,-187.5 554.5,-168.5 461.5,-168.5"/>
<text text-anchor="middle" x="508" y="-175.5" font-family="Helvetica,sans-Serif" font-size="10.00">BranchSitePath.h</text>
</a>
</g>
</g>
<!-- Node1&#45;&gt;Node13 -->
<g id="edge18" class="edge"><title>Node1&#45;&gt;Node13</title>
<path fill="none" stroke="midnightblue" d="M434.978,-224.324C448.55,-215.9 469.38,-202.971 485.325,-193.074"/>
<polygon fill="midnightblue" stroke="midnightblue" points="487.406,-195.902 494.057,-187.655 483.714,-189.954 487.406,-195.902"/>
</g>
<!-- Node1&#45;&gt;Node22 -->
<g id="edge40" class="edge"><title>Node1&#45;&gt;Node22</title>
<path fill="none" stroke="midnightblue" d="M456.81,-224.444C498.32,-214.525 566.447,-198.247 608.905,-188.102"/>
<polygon fill="midnightblue" stroke="midnightblue" points="609.942,-191.453 618.854,-185.725 608.315,-184.645 609.942,-191.453"/>
</g>
<!-- Node2&#45;&gt;Node3 -->
<g id="edge3" class="edge"><title>Node2&#45;&gt;Node3</title>
<path fill="none" stroke="midnightblue" d="M168.889,-168.446C119.727,-149.758 15.8868,-103.173 57,-56 95.4682,-11.8616 260.176,-29.188 318,-20 322.165,-19.3382 326.518,-18.6097 330.844,-17.8625"/>
<polygon fill="midnightblue" stroke="midnightblue" points="331.548,-21.2924 340.787,-16.1075 330.331,-14.399 331.548,-21.2924"/>
</g>
<!-- Node2&#45;&gt;Node4 -->
<g id="edge4" class="edge"><title>Node2&#45;&gt;Node4</title>
<path fill="none" stroke="midnightblue" d="M193.826,-168.083C194.481,-161.006 195.42,-150.861 196.242,-141.986"/>
<polygon fill="midnightblue" stroke="midnightblue" points="199.753,-142.031 197.19,-131.751 192.783,-141.386 199.753,-142.031"/>
</g>
<!-- Node4&#45;&gt;Node3 -->
<g id="edge7" class="edge"><title>Node4&#45;&gt;Node3</title>
<path fill="none" stroke="midnightblue" d="M211.34,-112.368C240.512,-93.4924 310.223,-48.385 345.998,-25.2367"/>
<polygon fill="midnightblue" stroke="midnightblue" points="348.228,-27.9625 354.722,-19.5914 344.425,-22.0855 348.228,-27.9625"/>
</g>
<!-- Node5 -->
<g id="node6" class="node"><title>Node5</title>
<polygon fill="none" stroke="#bfbfbf" points="66.5,-56.5 66.5,-75.5 107.5,-75.5 107.5,-56.5 66.5,-56.5"/>
<text text-anchor="middle" x="87" y="-63.5" font-family="Helvetica,sans-Serif" font-size="10.00">ctime</text>
</g>
<!-- Node4&#45;&gt;Node5 -->
<g id="edge5" class="edge"><title>Node4&#45;&gt;Node5</title>
<path fill="none" stroke="midnightblue" d="M180.166,-112.324C162.284,-103.625 134.525,-90.1202 113.954,-80.113"/>
<polygon fill="midnightblue" stroke="midnightblue" points="115.313,-76.8819 104.79,-75.6545 112.251,-83.1765 115.313,-76.8819"/>
</g>
<!-- Node6 -->
<g id="node7" class="node"><title>Node6</title>
<polygon fill="none" stroke="#bfbfbf" points="126,-56.5 126,-75.5 188,-75.5 188,-56.5 126,-56.5"/>
<text text-anchor="middle" x="157" y="-63.5" font-family="Helvetica,sans-Serif" font-size="10.00">sys/time.h</text>
</g>
<!-- Node4&#45;&gt;Node6 -->
<g id="edge6" class="edge"><title>Node4&#45;&gt;Node6</title>
<path fill="none" stroke="midnightblue" d="M191.23,-112.083C185.438,-104.455 176.942,-93.2645 169.862,-83.9408"/>
<polygon fill="midnightblue" stroke="midnightblue" points="172.479,-81.5991 163.644,-75.7511 166.904,-85.8321 172.479,-81.5991"/>
</g>
<!-- Node7 -->
<g id="node8" class="node"><title>Node7</title>
<polygon fill="none" stroke="#bfbfbf" points="661.5,-0.5 661.5,-19.5 706.5,-19.5 706.5,-0.5 661.5,-0.5"/>
<text text-anchor="middle" x="684" y="-7.5" font-family="Helvetica,sans-Serif" font-size="10.00">cstdlib</text>
</g>
<!-- Node4&#45;&gt;Node7 -->
<g id="edge8" class="edge"><title>Node4&#45;&gt;Node7</title>
<path fill="none" stroke="midnightblue" d="M226,-119.635C318.375,-114.934 609.6,-98.4588 645,-76 661.811,-65.3345 672.373,-44.5756 678.2,-29.377"/>
<polygon fill="midnightblue" stroke="midnightblue" points="681.65,-30.1114 681.629,-19.5166 675.039,-27.8125 681.65,-30.1114"/>
</g>
<!-- Node8&#45;&gt;Node3 -->
<g id="edge16" class="edge"><title>Node8&#45;&gt;Node3</title>
<path fill="none" stroke="midnightblue" d="M336.774,-168.075C341.969,-141.945 357.223,-65.2106 364.307,-29.577"/>
<polygon fill="midnightblue" stroke="midnightblue" points="367.78,-30.0586 366.297,-19.5681 360.914,-28.6937 367.78,-30.0586"/>
</g>
<!-- Node8&#45;&gt;Node4 -->
<g id="edge10" class="edge"><title>Node8&#45;&gt;Node4</title>
<path fill="none" stroke="midnightblue" d="M313.292,-168.444C290.645,-159.517 254.928,-145.439 229.248,-135.317"/>
<polygon fill="midnightblue" stroke="midnightblue" points="230.193,-131.927 219.606,-131.516 227.626,-138.44 230.193,-131.927"/>
</g>
<!-- Node9 -->
<g id="node10" class="node"><title>Node9</title>
<g id="a_node10"><a xlink:href="StateSpace_8h.html" target="_top" xlink:title="StateSpace.h">
<polygon fill="none" stroke="black" points="381,-112.5 381,-131.5 457,-131.5 457,-112.5 381,-112.5"/>
<text text-anchor="middle" x="419" y="-119.5" font-family="Helvetica,sans-Serif" font-size="10.00">StateSpace.h</text>
</a>
</g>
</g>
<!-- Node8&#45;&gt;Node9 -->
<g id="edge11" class="edge"><title>Node8&#45;&gt;Node9</title>
<path fill="none" stroke="midnightblue" d="M348.496,-168.324C361.6,-159.9 381.712,-146.971 397.107,-137.074"/>
<polygon fill="midnightblue" stroke="midnightblue" points="399.018,-140.006 405.537,-131.655 395.233,-134.118 399.018,-140.006"/>
</g>
<!-- Node12 -->
<g id="node13" class="node"><title>Node12</title>
<polygon fill="none" stroke="#bfbfbf" points="274.5,-0.5 274.5,-19.5 309.5,-19.5 309.5,-0.5 274.5,-0.5"/>
<text text-anchor="middle" x="292" y="-7.5" font-family="Helvetica,sans-Serif" font-size="10.00">map</text>
</g>
<!-- Node8&#45;&gt;Node12 -->
<g id="edge17" class="edge"><title>Node8&#45;&gt;Node12</title>
<path fill="none" stroke="midnightblue" d="M316.918,-168.39C303.438,-160.872 286.028,-148.565 278,-132 261.773,-98.5141 274.467,-53.8951 283.991,-29.2679"/>
<polygon fill="midnightblue" stroke="midnightblue" points="287.34,-30.3286 287.907,-19.749 280.866,-27.6654 287.34,-30.3286"/>
</g>
<!-- Node10 -->
<g id="node11" class="node"><title>Node10</title>
<g id="a_node11"><a xlink:href="BiologicalSequences_8h.html" target="_top" xlink:title="BiologicalSequences.h">
<polygon fill="none" stroke="black" points="520,-56.5 520,-75.5 636,-75.5 636,-56.5 520,-56.5"/>
<text text-anchor="middle" x="578" y="-63.5" font-family="Helvetica,sans-Serif" font-size="10.00">BiologicalSequences.h</text>
</a>
</g>
</g>
<!-- Node9&#45;&gt;Node10 -->
<g id="edge12" class="edge"><title>Node9&#45;&gt;Node10</title>
<path fill="none" stroke="midnightblue" d="M444.194,-112.444C470.943,-103.359 513.403,-88.9388 543.305,-78.7831"/>
<polygon fill="midnightblue" stroke="midnightblue" points="544.581,-82.0464 552.924,-75.5164 542.329,-75.4182 544.581,-82.0464"/>
</g>
<!-- Node10&#45;&gt;Node3 -->
<g id="edge14" class="edge"><title>Node10&#45;&gt;Node3</title>
<path fill="none" stroke="midnightblue" d="M544.725,-56.4435C506.637,-46.6494 444.429,-30.6531 404.889,-20.4857"/>
<polygon fill="midnightblue" stroke="midnightblue" points="405.666,-17.0717 395.109,-17.971 403.923,-23.8512 405.666,-17.0717"/>
</g>
<!-- Node10&#45;&gt;Node7 -->
<g id="edge13" class="edge"><title>Node10&#45;&gt;Node7</title>
<path fill="none" stroke="midnightblue" d="M595.031,-56.324C612.03,-47.6641 638.376,-34.2424 657.993,-24.249"/>
<polygon fill="midnightblue" stroke="midnightblue" points="659.69,-27.3125 667.012,-19.6545 656.512,-21.0752 659.69,-27.3125"/>
</g>
<!-- Node11 -->
<g id="node12" class="node"><title>Node11</title>
<polygon fill="none" stroke="#bfbfbf" points="579.5,-0.5 579.5,-19.5 620.5,-19.5 620.5,-0.5 579.5,-0.5"/>
<text text-anchor="middle" x="600" y="-7.5" font-family="Helvetica,sans-Serif" font-size="10.00">string</text>
</g>
<!-- Node10&#45;&gt;Node11 -->
<g id="edge15" class="edge"><title>Node10&#45;&gt;Node11</title>
<path fill="none" stroke="midnightblue" d="M581.633,-56.083C584.612,-48.77 588.926,-38.1814 592.625,-29.1034"/>
<polygon fill="midnightblue" stroke="midnightblue" points="595.903,-30.3326 596.435,-19.7511 589.42,-27.6914 595.903,-30.3326"/>
</g>
<!-- Node13&#45;&gt;Node11 -->
<g id="edge19" class="edge"><title>Node13&#45;&gt;Node11</title>
<path fill="none" stroke="midnightblue" d="M534.954,-168.42C571.426,-155.18 635.033,-125.936 662,-76 673.217,-55.2284 649.491,-36.2946 628.224,-24.288"/>
<polygon fill="midnightblue" stroke="midnightblue" points="629.842,-21.1843 619.369,-19.5812 626.556,-27.3654 629.842,-21.1843"/>
</g>
<!-- Node13&#45;&gt;Node12 -->
<g id="edge20" class="edge"><title>Node13&#45;&gt;Node12</title>
<path fill="none" stroke="midnightblue" d="M461.218,-169.523C433.149,-163.202 397.974,-151.872 372,-132 335.963,-104.429 311.025,-55.7302 299.413,-29.3008"/>
<polygon fill="midnightblue" stroke="midnightblue" points="302.496,-27.6059 295.378,-19.7584 296.049,-30.332 302.496,-27.6059"/>
</g>
<!-- Node14 -->
<g id="node15" class="node"><title>Node14</title>
<g id="a_node15"><a xlink:href="Tree_8h.html" target="_top" xlink:title="Tree.h">
<polygon fill="none" stroke="black" points="486,-112.5 486,-131.5 530,-131.5 530,-112.5 486,-112.5"/>
<text text-anchor="middle" x="508" y="-119.5" font-family="Helvetica,sans-Serif" font-size="10.00">Tree.h</text>
</a>
</g>
</g>
<!-- Node13&#45;&gt;Node14 -->
<g id="edge21" class="edge"><title>Node13&#45;&gt;Node14</title>
<path fill="none" stroke="midnightblue" d="M508,-168.083C508,-161.006 508,-150.861 508,-141.986"/>
<polygon fill="midnightblue" stroke="midnightblue" points="511.5,-141.751 508,-131.751 504.5,-141.751 511.5,-141.751"/>
</g>
<!-- Node16 -->
<g id="node17" class="node"><title>Node16</title>
<g id="a_node17"><a xlink:href="SubMatrix_8h.html" target="_top" xlink:title="SubMatrix.h">
<polygon fill="none" stroke="black" points="801.5,-112.5 801.5,-131.5 870.5,-131.5 870.5,-112.5 801.5,-112.5"/>
<text text-anchor="middle" x="836" y="-119.5" font-family="Helvetica,sans-Serif" font-size="10.00">SubMatrix.h</text>
</a>
</g>
</g>
<!-- Node13&#45;&gt;Node16 -->
<g id="edge29" class="edge"><title>Node13&#45;&gt;Node16</title>
<path fill="none" stroke="midnightblue" d="M554.948,-169.747C610.437,-161.1 705.531,-146.05 787,-132 788.465,-131.747 789.954,-131.488 791.458,-131.224"/>
<polygon fill="midnightblue" stroke="midnightblue" points="792.253,-134.638 801.483,-129.437 791.024,-127.746 792.253,-134.638"/>
</g>
<!-- Node14&#45;&gt;Node3 -->
<g id="edge24" class="edge"><title>Node14&#45;&gt;Node3</title>
<path fill="none" stroke="midnightblue" d="M485.973,-115.361C454.981,-107.014 400.743,-90.7652 387,-76 375.37,-63.5053 370.82,-44.276 369.061,-29.97"/>
<polygon fill="midnightblue" stroke="midnightblue" points="372.527,-29.4305 368.166,-19.775 365.554,-30.0428 372.527,-29.4305"/>
</g>
<!-- Node14&#45;&gt;Node7 -->
<g id="edge22" class="edge"><title>Node14&#45;&gt;Node7</title>
<path fill="none" stroke="midnightblue" d="M530.175,-119.61C578.897,-116.046 692.801,-104.755 716,-76 728.016,-61.1064 714.448,-40.9579 701.461,-27.0607"/>
<polygon fill="midnightblue" stroke="midnightblue" points="703.628,-24.2783 694.079,-19.6876 698.681,-29.2309 703.628,-24.2783"/>
</g>
<!-- Node14&#45;&gt;Node11 -->
<g id="edge23" class="edge"><title>Node14&#45;&gt;Node11</title>
<path fill="none" stroke="midnightblue" d="M530.066,-121.107C561.577,-119.919 618.571,-112.499 645,-76 657.27,-59.0547 638.974,-39.244 622.162,-25.988"/>
<polygon fill="midnightblue" stroke="midnightblue" points="623.794,-22.8417 613.675,-19.7033 619.628,-28.4672 623.794,-22.8417"/>
</g>
<!-- Node15 -->
<g id="node16" class="node"><title>Node15</title>
<g id="a_node16"><a xlink:href="TaxonSet_8h.html" target="_top" xlink:title="TaxonSet.h">
<polygon fill="none" stroke="black" points="396.5,-56.5 396.5,-75.5 463.5,-75.5 463.5,-56.5 396.5,-56.5"/>
<text text-anchor="middle" x="430" y="-63.5" font-family="Helvetica,sans-Serif" font-size="10.00">TaxonSet.h</text>
</a>
</g>
</g>
<!-- Node14&#45;&gt;Node15 -->
<g id="edge25" class="edge"><title>Node14&#45;&gt;Node15</title>
<path fill="none" stroke="midnightblue" d="M495.468,-112.324C483.414,-103.979 464.973,-91.2122 450.731,-81.3524"/>
<polygon fill="midnightblue" stroke="midnightblue" points="452.715,-78.469 442.501,-75.6545 448.731,-84.2243 452.715,-78.469"/>
</g>
<!-- Node15&#45;&gt;Node3 -->
<g id="edge28" class="edge"><title>Node15&#45;&gt;Node3</title>
<path fill="none" stroke="midnightblue" d="M420.039,-56.324C410.873,-48.3414 397.063,-36.3128 385.972,-26.6529"/>
<polygon fill="midnightblue" stroke="midnightblue" points="387.982,-23.7624 378.143,-19.8339 383.385,-29.041 387.982,-23.7624"/>
</g>
<!-- Node15&#45;&gt;Node11 -->
<g id="edge27" class="edge"><title>Node15&#45;&gt;Node11</title>
<path fill="none" stroke="midnightblue" d="M456.937,-56.4435C487.604,-46.7024 537.585,-30.826 569.617,-20.6512"/>
<polygon fill="midnightblue" stroke="midnightblue" points="570.867,-23.9263 579.339,-17.5631 568.748,-17.2548 570.867,-23.9263"/>
</g>
<!-- Node15&#45;&gt;Node12 -->
<g id="edge26" class="edge"><title>Node15&#45;&gt;Node12</title>
<path fill="none" stroke="midnightblue" d="M408.133,-56.4435C384.114,-47.0445 345.497,-31.9336 319.456,-21.7438"/>
<polygon fill="midnightblue" stroke="midnightblue" points="320.403,-18.3557 309.815,-17.971 317.852,-24.8744 320.403,-18.3557"/>
</g>
<!-- Node16&#45;&gt;Node3 -->
<g id="edge30" class="edge"><title>Node16&#45;&gt;Node3</title>
<path fill="none" stroke="midnightblue" d="M801.487,-120.005C741.205,-117.44 613.394,-108.317 511,-76 492.424,-70.137 489.615,-64.3167 472,-56 447.427,-44.3984 419.095,-32.2159 398.214,-23.4568"/>
<polygon fill="midnightblue" stroke="midnightblue" points="399.474,-20.1904 388.898,-19.5687 396.778,-26.6504 399.474,-20.1904"/>
</g>
<!-- Node16&#45;&gt;Node17 -->
<g id="edge31" class="edge"><title>Node16&#45;&gt;Node17</title>
<path fill="none" stroke="midnightblue" d="M845.181,-112.368C864.831,-93.8941 911.207,-50.2926 936.255,-26.7436"/>
<polygon fill="midnightblue" stroke="midnightblue" points="938.974,-28.9912 943.862,-19.5914 934.179,-23.8912 938.974,-28.9912"/>
</g>
<!-- Node16&#45;&gt;Node18 -->
<g id="edge32" class="edge"><title>Node16&#45;&gt;Node18</title>
<path fill="none" stroke="midnightblue" d="M836.165,-112.083C836.296,-105.006 836.484,-94.8611 836.648,-85.9865"/>
<polygon fill="midnightblue" stroke="midnightblue" points="840.152,-85.8142 836.838,-75.7511 833.153,-85.6845 840.152,-85.8142"/>
</g>
<!-- Node18&#45;&gt;Node3 -->
<g id="edge35" class="edge"><title>Node18&#45;&gt;Node3</title>
<path fill="none" stroke="midnightblue" d="M805.864,-61.4151C722.62,-51.8304 495.148,-25.6397 405.26,-15.29"/>
<polygon fill="midnightblue" stroke="midnightblue" points="405.582,-11.8041 395.247,-14.1372 404.781,-18.7582 405.582,-11.8041"/>
</g>
<!-- Node18&#45;&gt;Node7 -->
<g id="edge34" class="edge"><title>Node18&#45;&gt;Node7</title>
<path fill="none" stroke="midnightblue" d="M812.757,-56.4435C786.677,-47.239 745.077,-32.5565 716.251,-22.3826"/>
<polygon fill="midnightblue" stroke="midnightblue" points="717.228,-19.0161 706.634,-18.9883 714.899,-25.617 717.228,-19.0161"/>
</g>
<!-- Node18&#45;&gt;Node17 -->
<g id="edge33" class="edge"><title>Node18&#45;&gt;Node17</title>
<path fill="none" stroke="midnightblue" d="M855.381,-56.4435C874.216,-47.6751 903.731,-33.9355 925.379,-23.8579"/>
<polygon fill="midnightblue" stroke="midnightblue" points="927.117,-26.9098 934.705,-19.5164 924.162,-20.5637 927.117,-26.9098"/>
</g>
<!-- Node19 -->
<g id="node20" class="node"><title>Node19</title>
<polygon fill="none" stroke="#bfbfbf" points="725,-0.5 725,-19.5 777,-19.5 777,-0.5 725,-0.5"/>
<text text-anchor="middle" x="751" y="-7.5" font-family="Helvetica,sans-Serif" font-size="10.00">sstream</text>
</g>
<!-- Node18&#45;&gt;Node19 -->
<g id="edge36" class="edge"><title>Node18&#45;&gt;Node19</title>
<path fill="none" stroke="midnightblue" d="M823.183,-56.324C809.767,-47.9002 789.176,-34.9709 773.414,-25.0741"/>
<polygon fill="midnightblue" stroke="midnightblue" points="775.113,-22.0081 764.783,-19.6545 771.391,-27.9364 775.113,-22.0081"/>
</g>
<!-- Node20 -->
<g id="node21" class="node"><title>Node20</title>
<polygon fill="none" stroke="#bfbfbf" points="795,-0.5 795,-19.5 845,-19.5 845,-0.5 795,-0.5"/>
<text text-anchor="middle" x="820" y="-7.5" font-family="Helvetica,sans-Serif" font-size="10.00">iomanip</text>
</g>
<!-- Node18&#45;&gt;Node20 -->
<g id="edge37" class="edge"><title>Node18&#45;&gt;Node20</title>
<path fill="none" stroke="midnightblue" d="M834.193,-56.083C831.915,-48.8486 828.629,-38.4087 825.792,-29.3968"/>
<polygon fill="midnightblue" stroke="midnightblue" points="829.096,-28.2385 822.755,-19.7511 822.419,-30.3406 829.096,-28.2385"/>
</g>
<!-- Node21 -->
<g id="node22" class="node"><title>Node21</title>
<polygon fill="none" stroke="#bfbfbf" points="863,-0.5 863,-19.5 913,-19.5 913,-0.5 863,-0.5"/>
<text text-anchor="middle" x="888" y="-7.5" font-family="Helvetica,sans-Serif" font-size="10.00">fstream</text>
</g>
<!-- Node18&#45;&gt;Node21 -->
<g id="edge38" class="edge"><title>Node18&#45;&gt;Node21</title>
<path fill="none" stroke="midnightblue" d="M845.422,-56.083C852.848,-48.2195 863.852,-36.5688 872.812,-27.0813"/>
<polygon fill="midnightblue" stroke="midnightblue" points="875.413,-29.4244 879.735,-19.7511 870.324,-24.618 875.413,-29.4244"/>
</g>
</g>
</svg>
