<?xml version="1.0" encoding="UTF-8" standalone="no"?>
<!DOCTYPE svg PUBLIC "-//W3C//DTD SVG 1.1//EN"
 "http://www.w3.org/Graphics/SVG/1.1/DTD/svg11.dtd">
<!-- Generated by graphviz version 2.38.0 (20140413.2041)
 -->
<!-- Title: SubstitutionProcess.h Pages: 1 -->
<svg width="968pt" height="252pt"
 viewBox="0.00 0.00 968.04 252.00" xmlns="http://www.w3.org/2000/svg" xmlns:xlink="http://www.w3.org/1999/xlink">
<g id="graph0" class="graph" transform="scale(1 1) rotate(0) translate(4 248)">
<title>SubstitutionProcess.h</title>
<!-- Node0 -->
<g id="node1" class="node"><title>Node0</title>
<polygon fill="#bfbfbf" stroke="black" points="225.54,-224.5 225.54,-243.5 338.54,-243.5 338.54,-224.5 225.54,-224.5"/>
<text text-anchor="middle" x="282.04" y="-231.5" font-family="Helvetica,sans-Serif" font-size="10.00">SubstitutionProcess.h</text>
</g>
<!-- Node1 -->
<g id="node2" class="node"><title>Node1</title>
<g id="a_node2"><a xlink:href="RateProcess_8h.html" target="_top" xlink:title="RateProcess.h">
<polygon fill="none" stroke="black" points="79.04,-168.5 79.04,-187.5 161.04,-187.5 161.04,-168.5 79.04,-168.5"/>
<text text-anchor="middle" x="120.04" y="-175.5" font-family="Helvetica,sans-Serif" font-size="10.00">RateProcess.h</text>
</a>
</g>
</g>
<!-- Node0&#45;&gt;Node1 -->
<g id="edge1" class="edge"><title>Node0&#45;&gt;Node1</title>
<path fill="none" stroke="midnightblue" d="M256.371,-224.444C229.117,-215.359 185.856,-200.939 155.389,-190.783"/>
<polygon fill="midnightblue" stroke="midnightblue" points="156.183,-187.358 145.589,-187.516 153.969,-193.999 156.183,-187.358"/>
</g>
<!-- Node3 -->
<g id="node4" class="node"><title>Node3</title>
<g id="a_node4"><a xlink:href="Chrono_8h.html" target="_top" xlink:title="Chrono.h">
<polygon fill="none" stroke="black" points="92.04,-112.5 92.04,-131.5 148.04,-131.5 148.04,-112.5 92.04,-112.5"/>
<text text-anchor="middle" x="120.04" y="-119.5" font-family="Helvetica,sans-Serif" font-size="10.00">Chrono.h</text>
</a>
</g>
</g>
<!-- Node0&#45;&gt;Node3 -->
<g id="edge38" class="edge"><title>Node0&#45;&gt;Node3</title>
<path fill="none" stroke="midnightblue" d="M269.328,-224.368C241.529,-205.492 175.098,-160.385 141.007,-137.237"/>
<polygon fill="midnightblue" stroke="midnightblue" points="142.932,-134.313 132.693,-131.591 139,-140.105 142.932,-134.313"/>
</g>
<!-- Node7 -->
<g id="node8" class="node"><title>Node7</title>
<g id="a_node8"><a xlink:href="ProfileProcess_8h.html" target="_top" xlink:title="ProfileProcess.h">
<polygon fill="none" stroke="black" points="237.54,-168.5 237.54,-187.5 326.54,-187.5 326.54,-168.5 237.54,-168.5"/>
<text text-anchor="middle" x="282.04" y="-175.5" font-family="Helvetica,sans-Serif" font-size="10.00">ProfileProcess.h</text>
</a>
</g>
</g>
<!-- Node0&#45;&gt;Node7 -->
<g id="edge8" class="edge"><title>Node0&#45;&gt;Node7</title>
<path fill="none" stroke="midnightblue" d="M282.04,-224.083C282.04,-217.006 282.04,-206.861 282.04,-197.986"/>
<polygon fill="midnightblue" stroke="midnightblue" points="285.54,-197.751 282.04,-187.751 278.54,-197.751 285.54,-197.751"/>
</g>
<!-- Node12 -->
<g id="node13" class="node"><title>Node12</title>
<g id="a_node13"><a xlink:href="BranchSitePath_8h.html" target="_top" xlink:title="BranchSitePath.h">
<polygon fill="none" stroke="black" points="540.54,-168.5 540.54,-187.5 633.54,-187.5 633.54,-168.5 540.54,-168.5"/>
<text text-anchor="middle" x="587.04" y="-175.5" font-family="Helvetica,sans-Serif" font-size="10.00">BranchSitePath.h</text>
</a>
</g>
</g>
<!-- Node0&#45;&gt;Node12 -->
<g id="edge17" class="edge"><title>Node0&#45;&gt;Node12</title>
<path fill="none" stroke="midnightblue" d="M330.368,-224.444C384.719,-214.821 472.886,-199.211 530.42,-189.024"/>
<polygon fill="midnightblue" stroke="midnightblue" points="531.202,-192.441 540.438,-187.251 529.981,-185.548 531.202,-192.441"/>
</g>
<!-- Node21 -->
<g id="node22" class="node"><title>Node21</title>
<polygon fill="none" stroke="#bfbfbf" points="652.04,-168.5 652.04,-187.5 708.04,-187.5 708.04,-168.5 652.04,-168.5"/>
<text text-anchor="middle" x="680.04" y="-175.5" font-family="Helvetica,sans-Serif" font-size="10.00">algorithm</text>
</g>
<!-- Node0&#45;&gt;Node21 -->
<g id="edge39" class="edge"><title>Node0&#45;&gt;Node21</title>
<path fill="none" stroke="midnightblue" d="M338.622,-227.972C407.937,-221.361 529.082,-208.352 641.981,-188.012"/>
<polygon fill="midnightblue" stroke="midnightblue" points="642.62,-191.453 651.83,-186.215 641.364,-184.567 642.62,-191.453"/>
</g>
<!-- Node2 -->
<g id="node3" class="node"><title>Node2</title>
<polygon fill="none" stroke="#bfbfbf" points="207.04,-0.5 207.04,-19.5 261.04,-19.5 261.04,-0.5 207.04,-0.5"/>
<text text-anchor="middle" x="234.04" y="-7.5" font-family="Helvetica,sans-Serif" font-size="10.00">iostream</text>
</g>
<!-- Node1&#45;&gt;Node2 -->
<g id="edge2" class="edge"><title>Node1&#45;&gt;Node2</title>
<path fill="none" stroke="midnightblue" d="M101.24,-168.493C60.9749,-149.143 -27.1065,-100.092 9.03996,-56 32.3403,-27.5782 138.94,-16.7497 196.657,-12.9184"/>
<polygon fill="midnightblue" stroke="midnightblue" points="197.071,-16.3994 206.833,-12.2818 196.634,-9.41302 197.071,-16.3994"/>
</g>
<!-- Node1&#45;&gt;Node3 -->
<g id="edge3" class="edge"><title>Node1&#45;&gt;Node3</title>
<path fill="none" stroke="midnightblue" d="M120.04,-168.083C120.04,-161.006 120.04,-150.861 120.04,-141.986"/>
<polygon fill="midnightblue" stroke="midnightblue" points="123.54,-141.751 120.04,-131.751 116.54,-141.751 123.54,-141.751"/>
</g>
<!-- Node3&#45;&gt;Node2 -->
<g id="edge6" class="edge"><title>Node3&#45;&gt;Node2</title>
<path fill="none" stroke="midnightblue" d="M91.788,-114.89C53.9755,-105.435 -5.73957,-85.2442 18.04,-56 40.1188,-28.8474 140.723,-17.5302 196.507,-13.2761"/>
<polygon fill="midnightblue" stroke="midnightblue" points="196.979,-16.7512 206.701,-12.5393 196.474,-9.7694 196.979,-16.7512"/>
</g>
<!-- Node4 -->
<g id="node5" class="node"><title>Node4</title>
<polygon fill="none" stroke="#bfbfbf" points="27.54,-56.5 27.54,-75.5 68.54,-75.5 68.54,-56.5 27.54,-56.5"/>
<text text-anchor="middle" x="48.04" y="-63.5" font-family="Helvetica,sans-Serif" font-size="10.00">ctime</text>
</g>
<!-- Node3&#45;&gt;Node4 -->
<g id="edge4" class="edge"><title>Node3&#45;&gt;Node4</title>
<path fill="none" stroke="midnightblue" d="M108.472,-112.324C97.6198,-104.185 81.1593,-91.8395 68.1565,-82.0874"/>
<polygon fill="midnightblue" stroke="midnightblue" points="69.9185,-79.0339 59.8185,-75.8339 65.7185,-84.6339 69.9185,-79.0339"/>
</g>
<!-- Node5 -->
<g id="node6" class="node"><title>Node5</title>
<polygon fill="none" stroke="#bfbfbf" points="87.04,-56.5 87.04,-75.5 149.04,-75.5 149.04,-56.5 87.04,-56.5"/>
<text text-anchor="middle" x="118.04" y="-63.5" font-family="Helvetica,sans-Serif" font-size="10.00">sys/time.h</text>
</g>
<!-- Node3&#45;&gt;Node5 -->
<g id="edge5" class="edge"><title>Node3&#45;&gt;Node5</title>
<path fill="none" stroke="midnightblue" d="M119.71,-112.083C119.448,-105.006 119.072,-94.8611 118.743,-85.9865"/>
<polygon fill="midnightblue" stroke="midnightblue" points="122.232,-85.6147 118.364,-75.7511 115.237,-85.8738 122.232,-85.6147"/>
</g>
<!-- Node6 -->
<g id="node7" class="node"><title>Node6</title>
<polygon fill="none" stroke="#bfbfbf" points="526.54,-0.5 526.54,-19.5 571.54,-19.5 571.54,-0.5 526.54,-0.5"/>
<text text-anchor="middle" x="549.04" y="-7.5" font-family="Helvetica,sans-Serif" font-size="10.00">cstdlib</text>
</g>
<!-- Node3&#45;&gt;Node6 -->
<g id="edge7" class="edge"><title>Node3&#45;&gt;Node6</title>
<path fill="none" stroke="midnightblue" d="M148.165,-118.739C229.442,-112.046 460.778,-91.8117 491.04,-76 511.909,-65.096 528.847,-43.4143 538.916,-28.0967"/>
<polygon fill="midnightblue" stroke="midnightblue" points="541.935,-29.8692 544.271,-19.5351 536.001,-26.1568 541.935,-29.8692"/>
</g>
<!-- Node7&#45;&gt;Node2 -->
<g id="edge15" class="edge"><title>Node7&#45;&gt;Node2</title>
<path fill="none" stroke="midnightblue" d="M274.948,-168.244C261.962,-151.545 234.884,-113.466 226.04,-76 222.366,-60.4388 225.143,-42.36 228.391,-29.2251"/>
<polygon fill="midnightblue" stroke="midnightblue" points="231.783,-30.0911 231.1,-19.5183 225.041,-28.2096 231.783,-30.0911"/>
</g>
<!-- Node7&#45;&gt;Node3 -->
<g id="edge9" class="edge"><title>Node7&#45;&gt;Node3</title>
<path fill="none" stroke="midnightblue" d="M256.371,-168.444C229.117,-159.359 185.856,-144.939 155.389,-134.783"/>
<polygon fill="midnightblue" stroke="midnightblue" points="156.183,-131.358 145.589,-131.516 153.969,-137.999 156.183,-131.358"/>
</g>
<!-- Node8 -->
<g id="node9" class="node"><title>Node8</title>
<g id="a_node9"><a xlink:href="StateSpace_8h.html" target="_top" xlink:title="StateSpace.h">
<polygon fill="none" stroke="black" points="263.04,-112.5 263.04,-131.5 339.04,-131.5 339.04,-112.5 263.04,-112.5"/>
<text text-anchor="middle" x="301.04" y="-119.5" font-family="Helvetica,sans-Serif" font-size="10.00">StateSpace.h</text>
</a>
</g>
</g>
<!-- Node7&#45;&gt;Node8 -->
<g id="edge10" class="edge"><title>Node7&#45;&gt;Node8</title>
<path fill="none" stroke="midnightblue" d="M285.177,-168.083C287.723,-160.849 291.396,-150.409 294.567,-141.397"/>
<polygon fill="midnightblue" stroke="midnightblue" points="297.943,-142.346 297.961,-131.751 291.34,-140.023 297.943,-142.346"/>
</g>
<!-- Node11 -->
<g id="node12" class="node"><title>Node11</title>
<polygon fill="none" stroke="#bfbfbf" points="645.54,-0.5 645.54,-19.5 680.54,-19.5 680.54,-0.5 645.54,-0.5"/>
<text text-anchor="middle" x="663.04" y="-7.5" font-family="Helvetica,sans-Serif" font-size="10.00">map</text>
</g>
<!-- Node7&#45;&gt;Node11 -->
<g id="edge16" class="edge"><title>Node7&#45;&gt;Node11</title>
<path fill="none" stroke="midnightblue" d="M326.572,-174.597C399.058,-169.981 538.639,-157.94 580.04,-132 619.488,-107.283 644.911,-56.1969 656.231,-28.9828"/>
<polygon fill="midnightblue" stroke="midnightblue" points="659.549,-30.1103 659.993,-19.5248 653.045,-27.523 659.549,-30.1103"/>
</g>
<!-- Node9 -->
<g id="node10" class="node"><title>Node9</title>
<g id="a_node10"><a xlink:href="BiologicalSequences_8h.html" target="_top" xlink:title="BiologicalSequences.h">
<polygon fill="none" stroke="black" points="281.04,-56.5 281.04,-75.5 397.04,-75.5 397.04,-56.5 281.04,-56.5"/>
<text text-anchor="middle" x="339.04" y="-63.5" font-family="Helvetica,sans-Serif" font-size="10.00">BiologicalSequences.h</text>
</a>
</g>
</g>
<!-- Node8&#45;&gt;Node9 -->
<g id="edge11" class="edge"><title>Node8&#45;&gt;Node9</title>
<path fill="none" stroke="midnightblue" d="M307.315,-112.083C312.682,-104.455 320.558,-93.2645 327.119,-83.9408"/>
<polygon fill="midnightblue" stroke="midnightblue" points="329.989,-85.9434 332.882,-75.7511 324.264,-81.9149 329.989,-85.9434"/>
</g>
<!-- Node9&#45;&gt;Node2 -->
<g id="edge13" class="edge"><title>Node9&#45;&gt;Node2</title>
<path fill="none" stroke="midnightblue" d="M322.17,-56.324C305.331,-47.6641 279.233,-34.2424 259.802,-24.249"/>
<polygon fill="midnightblue" stroke="midnightblue" points="261.362,-21.1155 250.868,-19.6545 258.16,-27.3405 261.362,-21.1155"/>
</g>
<!-- Node9&#45;&gt;Node6 -->
<g id="edge12" class="edge"><title>Node9&#45;&gt;Node6</title>
<path fill="none" stroke="midnightblue" d="M372.315,-56.4435C411.809,-46.288 477.235,-29.4642 516.433,-19.3846"/>
<polygon fill="midnightblue" stroke="midnightblue" points="517.463,-22.7338 526.276,-16.8536 515.72,-15.9543 517.463,-22.7338"/>
</g>
<!-- Node10 -->
<g id="node11" class="node"><title>Node10</title>
<polygon fill="none" stroke="#bfbfbf" points="447.54,-0.5 447.54,-19.5 488.54,-19.5 488.54,-0.5 447.54,-0.5"/>
<text text-anchor="middle" x="468.04" y="-7.5" font-family="Helvetica,sans-Serif" font-size="10.00">string</text>
</g>
<!-- Node9&#45;&gt;Node10 -->
<g id="edge14" class="edge"><title>Node9&#45;&gt;Node10</title>
<path fill="none" stroke="midnightblue" d="M359.48,-56.4435C380.71,-47.5566 414.139,-33.5632 438.295,-23.4514"/>
<polygon fill="midnightblue" stroke="midnightblue" points="439.822,-26.6064 447.695,-19.5164 437.119,-20.1493 439.822,-26.6064"/>
</g>
<!-- Node12&#45;&gt;Node10 -->
<g id="edge18" class="edge"><title>Node12&#45;&gt;Node10</title>
<path fill="none" stroke="midnightblue" d="M587.909,-168.077C588.785,-155.054 588.94,-130.389 580.04,-112 561.061,-72.7873 519.442,-41.8822 492.629,-25.0498"/>
<polygon fill="midnightblue" stroke="midnightblue" points="494.186,-21.9002 483.824,-19.6923 490.547,-27.8803 494.186,-21.9002"/>
</g>
<!-- Node12&#45;&gt;Node11 -->
<g id="edge19" class="edge"><title>Node12&#45;&gt;Node11</title>
<path fill="none" stroke="midnightblue" d="M624.142,-168.458C643.485,-161.918 665.468,-150.724 677.04,-132 696.788,-100.047 682.392,-54.1829 671.726,-29.0948"/>
<polygon fill="midnightblue" stroke="midnightblue" points="674.797,-27.3912 667.494,-19.7158 668.417,-30.2704 674.797,-27.3912"/>
</g>
<!-- Node13 -->
<g id="node14" class="node"><title>Node13</title>
<g id="a_node14"><a xlink:href="Tree_8h.html" target="_top" xlink:title="Tree.h">
<polygon fill="none" stroke="black" points="527.04,-112.5 527.04,-131.5 571.04,-131.5 571.04,-112.5 527.04,-112.5"/>
<text text-anchor="middle" x="549.04" y="-119.5" font-family="Helvetica,sans-Serif" font-size="10.00">Tree.h</text>
</a>
</g>
</g>
<!-- Node12&#45;&gt;Node13 -->
<g id="edge20" class="edge"><title>Node12&#45;&gt;Node13</title>
<path fill="none" stroke="midnightblue" d="M580.765,-168.083C575.397,-160.455 567.522,-149.264 560.961,-139.941"/>
<polygon fill="midnightblue" stroke="midnightblue" points="563.815,-137.915 555.198,-131.751 558.091,-141.943 563.815,-137.915"/>
</g>
<!-- Node15 -->
<g id="node16" class="node"><title>Node15</title>
<g id="a_node16"><a xlink:href="SubMatrix_8h.html" target="_top" xlink:title="SubMatrix.h">
<polygon fill="none" stroke="black" points="729.54,-112.5 729.54,-131.5 798.54,-131.5 798.54,-112.5 729.54,-112.5"/>
<text text-anchor="middle" x="764.04" y="-119.5" font-family="Helvetica,sans-Serif" font-size="10.00">SubMatrix.h</text>
</a>
</g>
</g>
<!-- Node12&#45;&gt;Node15 -->
<g id="edge28" class="edge"><title>Node12&#45;&gt;Node15</title>
<path fill="none" stroke="midnightblue" d="M615.086,-168.444C645.122,-159.28 692.953,-144.688 726.283,-134.519"/>
<polygon fill="midnightblue" stroke="midnightblue" points="727.582,-137.782 736.125,-131.516 725.539,-131.087 727.582,-137.782"/>
</g>
<!-- Node13&#45;&gt;Node2 -->
<g id="edge23" class="edge"><title>Node13&#45;&gt;Node2</title>
<path fill="none" stroke="midnightblue" d="M526.847,-121.203C462.532,-121.289 278.127,-117.814 239.04,-76 227.707,-63.8769 227.716,-44.3178 229.792,-29.8177"/>
<polygon fill="midnightblue" stroke="midnightblue" points="233.245,-30.3933 231.629,-19.9225 226.363,-29.1156 233.245,-30.3933"/>
</g>
<!-- Node13&#45;&gt;Node6 -->
<g id="edge21" class="edge"><title>Node13&#45;&gt;Node6</title>
<path fill="none" stroke="midnightblue" d="M553.007,-112.232C558.153,-99.8038 566.127,-76.3142 563.04,-56 561.672,-47.001 558.85,-37.3251 556.095,-29.2601"/>
<polygon fill="midnightblue" stroke="midnightblue" points="559.352,-27.9759 552.64,-19.7782 552.775,-30.3722 559.352,-27.9759"/>
</g>
<!-- Node13&#45;&gt;Node10 -->
<g id="edge22" class="edge"><title>Node13&#45;&gt;Node10</title>
<path fill="none" stroke="midnightblue" d="M542.684,-112.368C529.258,-94.135 497.808,-51.4257 480.319,-27.6752"/>
<polygon fill="midnightblue" stroke="midnightblue" points="483.114,-25.5685 474.366,-19.5914 477.478,-29.7192 483.114,-25.5685"/>
</g>
<!-- Node14 -->
<g id="node15" class="node"><title>Node14</title>
<g id="a_node15"><a xlink:href="TaxonSet_8h.html" target="_top" xlink:title="TaxonSet.h">
<polygon fill="none" stroke="black" points="415.54,-56.5 415.54,-75.5 482.54,-75.5 482.54,-56.5 415.54,-56.5"/>
<text text-anchor="middle" x="449.04" y="-63.5" font-family="Helvetica,sans-Serif" font-size="10.00">TaxonSet.h</text>
</a>
</g>
</g>
<!-- Node13&#45;&gt;Node14 -->
<g id="edge24" class="edge"><title>Node13&#45;&gt;Node14</title>
<path fill="none" stroke="midnightblue" d="M532.973,-112.324C517.082,-103.743 492.533,-90.486 474.081,-80.5224"/>
<polygon fill="midnightblue" stroke="midnightblue" points="475.529,-77.3264 465.067,-75.6545 472.203,-83.4857 475.529,-77.3264"/>
</g>
<!-- Node14&#45;&gt;Node2 -->
<g id="edge27" class="edge"><title>Node14&#45;&gt;Node2</title>
<path fill="none" stroke="midnightblue" d="M415.446,-56.5625C376.251,-46.7181 311.649,-30.4925 271.046,-20.2945"/>
<polygon fill="midnightblue" stroke="midnightblue" points="271.821,-16.8806 261.27,-17.8391 270.116,-23.6698 271.821,-16.8806"/>
</g>
<!-- Node14&#45;&gt;Node10 -->
<g id="edge26" class="edge"><title>Node14&#45;&gt;Node10</title>
<path fill="none" stroke="midnightblue" d="M452.177,-56.083C454.723,-48.8486 458.396,-38.4087 461.567,-29.3968"/>
<polygon fill="midnightblue" stroke="midnightblue" points="464.943,-30.3459 464.961,-19.7511 458.34,-28.0225 464.943,-30.3459"/>
</g>
<!-- Node14&#45;&gt;Node11 -->
<g id="edge25" class="edge"><title>Node14&#45;&gt;Node11</title>
<path fill="none" stroke="midnightblue" d="M482.949,-56.4435C525.07,-45.8147 596.139,-27.8816 635.217,-18.0207"/>
<polygon fill="midnightblue" stroke="midnightblue" points="636.501,-21.3066 645.34,-15.4662 634.788,-14.5194 636.501,-21.3066"/>
</g>
<!-- Node15&#45;&gt;Node2 -->
<g id="edge29" class="edge"><title>Node15&#45;&gt;Node2</title>
<path fill="none" stroke="midnightblue" d="M729.459,-118.707C620.654,-111.378 291.355,-88.2848 272.04,-76 255.354,-65.3873 245.119,-44.6188 239.537,-29.4035"/>
<polygon fill="midnightblue" stroke="midnightblue" points="242.735,-27.9244 236.27,-19.5305 236.089,-30.1238 242.735,-27.9244"/>
</g>
<!-- Node16 -->
<g id="node17" class="node"><title>Node16</title>
<polygon fill="none" stroke="#bfbfbf" points="710.04,-0.5 710.04,-19.5 754.04,-19.5 754.04,-0.5 710.04,-0.5"/>
<text text-anchor="middle" x="732.04" y="-7.5" font-family="Helvetica,sans-Serif" font-size="10.00">cmath</text>
</g>
<!-- Node15&#45;&gt;Node16 -->
<g id="edge30" class="edge"><title>Node15&#45;&gt;Node16</title>
<path fill="none" stroke="midnightblue" d="M761.529,-112.368C756.342,-94.5366 744.344,-53.2953 737.355,-29.2717"/>
<polygon fill="midnightblue" stroke="midnightblue" points="740.693,-28.2157 734.539,-19.5914 733.972,-30.1711 740.693,-28.2157"/>
</g>
<!-- Node17 -->
<g id="node18" class="node"><title>Node17</title>
<g id="a_node18"><a xlink:href="Random_8h.html" target="_top" xlink:title="Random.h">
<polygon fill="none" stroke="black" points="767.04,-56.5 767.04,-75.5 829.04,-75.5 829.04,-56.5 767.04,-56.5"/>
<text text-anchor="middle" x="798.04" y="-63.5" font-family="Helvetica,sans-Serif" font-size="10.00">Random.h</text>
</a>
</g>
</g>
<!-- Node15&#45;&gt;Node17 -->
<g id="edge31" class="edge"><title>Node15&#45;&gt;Node17</title>
<path fill="none" stroke="midnightblue" d="M769.654,-112.083C774.407,-104.534 781.358,-93.4948 787.192,-84.2298"/>
<polygon fill="midnightblue" stroke="midnightblue" points="790.164,-86.0783 792.53,-75.7511 784.24,-82.3486 790.164,-86.0783"/>
</g>
<!-- Node17&#45;&gt;Node2 -->
<g id="edge34" class="edge"><title>Node17&#45;&gt;Node2</title>
<path fill="none" stroke="midnightblue" d="M766.913,-62.0198C670.241,-52.7639 375.422,-24.5366 271.101,-14.5484"/>
<polygon fill="midnightblue" stroke="midnightblue" points="271.331,-11.0545 261.042,-13.5853 270.663,-18.0226 271.331,-11.0545"/>
</g>
<!-- Node17&#45;&gt;Node6 -->
<g id="edge33" class="edge"><title>Node17&#45;&gt;Node6</title>
<path fill="none" stroke="midnightblue" d="M767.007,-58.27C719.639,-47.9974 629.732,-28.4995 581.516,-18.043"/>
<polygon fill="midnightblue" stroke="midnightblue" points="582.124,-14.5935 571.609,-15.8945 580.64,-21.4345 582.124,-14.5935"/>
</g>
<!-- Node17&#45;&gt;Node16 -->
<g id="edge32" class="edge"><title>Node17&#45;&gt;Node16</title>
<path fill="none" stroke="midnightblue" d="M787.436,-56.324C777.584,-48.2631 762.689,-36.0765 750.825,-26.3695"/>
<polygon fill="midnightblue" stroke="midnightblue" points="752.793,-23.4575 742.837,-19.8339 748.36,-28.8752 752.793,-23.4575"/>
</g>
<!-- Node18 -->
<g id="node19" class="node"><title>Node18</title>
<polygon fill="none" stroke="#bfbfbf" points="772.04,-0.5 772.04,-19.5 824.04,-19.5 824.04,-0.5 772.04,-0.5"/>
<text text-anchor="middle" x="798.04" y="-7.5" font-family="Helvetica,sans-Serif" font-size="10.00">sstream</text>
</g>
<!-- Node17&#45;&gt;Node18 -->
<g id="edge35" class="edge"><title>Node17&#45;&gt;Node18</title>
<path fill="none" stroke="midnightblue" d="M798.04,-56.083C798.04,-49.0059 798.04,-38.8611 798.04,-29.9865"/>
<polygon fill="midnightblue" stroke="midnightblue" points="801.54,-29.751 798.04,-19.7511 794.54,-29.7511 801.54,-29.751"/>
</g>
<!-- Node19 -->
<g id="node20" class="node"><title>Node19</title>
<polygon fill="none" stroke="#bfbfbf" points="842.04,-0.5 842.04,-19.5 892.04,-19.5 892.04,-0.5 842.04,-0.5"/>
<text text-anchor="middle" x="867.04" y="-7.5" font-family="Helvetica,sans-Serif" font-size="10.00">iomanip</text>
</g>
<!-- Node17&#45;&gt;Node19 -->
<g id="edge36" class="edge"><title>Node17&#45;&gt;Node19</title>
<path fill="none" stroke="midnightblue" d="M809.126,-56.324C819.526,-48.1849 835.301,-35.8395 847.762,-26.0874"/>
<polygon fill="midnightblue" stroke="midnightblue" points="850.034,-28.7533 855.752,-19.8339 845.72,-23.2407 850.034,-28.7533"/>
</g>
<!-- Node20 -->
<g id="node21" class="node"><title>Node20</title>
<polygon fill="none" stroke="#bfbfbf" points="910.04,-0.5 910.04,-19.5 960.04,-19.5 960.04,-0.5 910.04,-0.5"/>
<text text-anchor="middle" x="935.04" y="-7.5" font-family="Helvetica,sans-Serif" font-size="10.00">fstream</text>
</g>
<!-- Node17&#45;&gt;Node20 -->
<g id="edge37" class="edge"><title>Node17&#45;&gt;Node20</title>
<path fill="none" stroke="midnightblue" d="M819.748,-56.4435C842.395,-47.5171 878.112,-33.4387 903.792,-23.3168"/>
<polygon fill="midnightblue" stroke="midnightblue" points="905.414,-26.4397 913.433,-19.5164 902.847,-19.9273 905.414,-26.4397"/>
</g>
</g>
</svg>
