<?xml version="1.0" encoding="UTF-8" standalone="no"?>
<!DOCTYPE svg PUBLIC "-//W3C//DTD SVG 1.1//EN"
 "http://www.w3.org/Graphics/SVG/1.1/DTD/svg11.dtd">
<!-- Generated by graphviz version 2.38.0 (20140413.2041)
 -->
<!-- Title: TaxonSet.cpp Pages: 1 -->
<svg width="316pt" height="196pt"
 viewBox="0.00 0.00 316.47 196.00" xmlns="http://www.w3.org/2000/svg" xmlns:xlink="http://www.w3.org/1999/xlink">
<g id="graph0" class="graph" transform="scale(1 1) rotate(0) translate(4 192)">
<title>TaxonSet.cpp</title>
<!-- Node0 -->
<g id="node1" class="node"><title>Node0</title>
<polygon fill="#bfbfbf" stroke="black" points="122.468,-168.5 122.468,-187.5 199.468,-187.5 199.468,-168.5 122.468,-168.5"/>
<text text-anchor="middle" x="160.968" y="-175.5" font-family="Helvetica,sans-Serif" font-size="10.00">TaxonSet.cpp</text>
</g>
<!-- Node1 -->
<g id="node2" class="node"><title>Node1</title>
<polygon fill="none" stroke="#bfbfbf" points="63.9678,-0.5 63.9678,-19.5 117.968,-19.5 117.968,-0.5 63.9678,-0.5"/>
<text text-anchor="middle" x="90.9678" y="-7.5" font-family="Helvetica,sans-Serif" font-size="10.00">iostream</text>
</g>
<!-- Node0&#45;&gt;Node1 -->
<g id="edge1" class="edge"><title>Node0&#45;&gt;Node1</title>
<path fill="none" stroke="midnightblue" d="M122.27,-170.983C81.6178,-163.778 21.694,-150.345 7.96783,-132 -20.0715,-94.5261 34.8864,-48.5177 68.1524,-25.5266"/>
<polygon fill="midnightblue" stroke="midnightblue" points="70.517,-28.155 76.873,-19.6784 66.6182,-22.3413 70.517,-28.155"/>
</g>
<!-- Node2 -->
<g id="node3" class="node"><title>Node2</title>
<polygon fill="none" stroke="#bfbfbf" points="101.468,-56.5 101.468,-75.5 146.468,-75.5 146.468,-56.5 101.468,-56.5"/>
<text text-anchor="middle" x="123.968" y="-63.5" font-family="Helvetica,sans-Serif" font-size="10.00">cstdlib</text>
</g>
<!-- Node0&#45;&gt;Node2 -->
<g id="edge2" class="edge"><title>Node0&#45;&gt;Node2</title>
<path fill="none" stroke="midnightblue" d="M158.653,-168.084C155.315,-155.479 148.798,-131.782 141.968,-112 138.84,-102.94 134.932,-93.0338 131.557,-84.8277"/>
<polygon fill="midnightblue" stroke="midnightblue" points="134.757,-83.4071 127.667,-75.5343 128.3,-86.1102 134.757,-83.4071"/>
</g>
<!-- Node3 -->
<g id="node4" class="node"><title>Node3</title>
<g id="a_node4"><a xlink:href="BiologicalSequences_8h.html" target="_top" xlink:title="BiologicalSequences.h">
<polygon fill="none" stroke="black" points="16.9678,-112.5 16.9678,-131.5 132.968,-131.5 132.968,-112.5 16.9678,-112.5"/>
<text text-anchor="middle" x="74.9678" y="-119.5" font-family="Helvetica,sans-Serif" font-size="10.00">BiologicalSequences.h</text>
</a>
</g>
</g>
<!-- Node0&#45;&gt;Node3 -->
<g id="edge3" class="edge"><title>Node0&#45;&gt;Node3</title>
<path fill="none" stroke="midnightblue" d="M147.15,-168.324C133.735,-159.9 113.144,-146.971 97.3822,-137.074"/>
<polygon fill="midnightblue" stroke="midnightblue" points="99.0811,-134.008 88.7509,-131.655 95.3586,-139.936 99.0811,-134.008"/>
</g>
<!-- Node5 -->
<g id="node6" class="node"><title>Node5</title>
<g id="a_node6"><a xlink:href="TaxonSet_8h.html" target="_top" xlink:title="TaxonSet.h">
<polygon fill="none" stroke="black" points="241.468,-56.5 241.468,-75.5 308.468,-75.5 308.468,-56.5 241.468,-56.5"/>
<text text-anchor="middle" x="274.968" y="-63.5" font-family="Helvetica,sans-Serif" font-size="10.00">TaxonSet.h</text>
</a>
</g>
</g>
<!-- Node0&#45;&gt;Node5 -->
<g id="edge7" class="edge"><title>Node0&#45;&gt;Node5</title>
<path fill="none" stroke="midnightblue" d="M184.319,-168.431C201.948,-161.004 225.784,-148.799 241.968,-132 254.842,-118.636 263.794,-99.2575 269.094,-85.1382"/>
<polygon fill="midnightblue" stroke="midnightblue" points="272.449,-86.1478 272.439,-75.5529 265.839,-83.8413 272.449,-86.1478"/>
</g>
<!-- Node7 -->
<g id="node8" class="node"><title>Node7</title>
<g id="a_node8"><a xlink:href="Tree_8h.html" target="_top" xlink:title="Tree.h">
<polygon fill="none" stroke="black" points="188.968,-112.5 188.968,-131.5 232.968,-131.5 232.968,-112.5 188.968,-112.5"/>
<text text-anchor="middle" x="210.968" y="-119.5" font-family="Helvetica,sans-Serif" font-size="10.00">Tree.h</text>
</a>
</g>
</g>
<!-- Node0&#45;&gt;Node7 -->
<g id="edge11" class="edge"><title>Node0&#45;&gt;Node7</title>
<path fill="none" stroke="midnightblue" d="M169.224,-168.083C176.433,-160.298 187.078,-148.801 195.814,-139.367"/>
<polygon fill="midnightblue" stroke="midnightblue" points="198.639,-141.467 202.865,-131.751 193.503,-136.711 198.639,-141.467"/>
</g>
<!-- Node3&#45;&gt;Node1 -->
<g id="edge5" class="edge"><title>Node3&#45;&gt;Node1</title>
<path fill="none" stroke="midnightblue" d="M69.8922,-112.484C63.1,-99.967 52.6049,-75.9276 58.9678,-56 62.3084,-45.538 69.0676,-35.4277 75.5167,-27.4496"/>
<polygon fill="midnightblue" stroke="midnightblue" points="78.3155,-29.5641 82.2164,-19.7136 73.024,-24.9815 78.3155,-29.5641"/>
</g>
<!-- Node3&#45;&gt;Node2 -->
<g id="edge4" class="edge"><title>Node3&#45;&gt;Node2</title>
<path fill="none" stroke="midnightblue" d="M83.0592,-112.083C90.1232,-104.298 100.555,-92.8015 109.117,-83.3665"/>
<polygon fill="midnightblue" stroke="midnightblue" points="111.899,-85.5087 116.027,-75.7511 106.715,-80.8047 111.899,-85.5087"/>
</g>
<!-- Node4 -->
<g id="node5" class="node"><title>Node4</title>
<polygon fill="none" stroke="#bfbfbf" points="192.468,-0.5 192.468,-19.5 233.468,-19.5 233.468,-0.5 192.468,-0.5"/>
<text text-anchor="middle" x="212.968" y="-7.5" font-family="Helvetica,sans-Serif" font-size="10.00">string</text>
</g>
<!-- Node3&#45;&gt;Node4 -->
<g id="edge6" class="edge"><title>Node3&#45;&gt;Node4</title>
<path fill="none" stroke="midnightblue" d="M74.8292,-112.245C75.0874,-98.5326 77.5711,-71.9174 91.9678,-56 115.297,-30.2063 154.803,-19.1485 182.302,-14.4393"/>
<polygon fill="midnightblue" stroke="midnightblue" points="182.838,-17.8981 192.194,-12.9278 181.78,-10.9784 182.838,-17.8981"/>
</g>
<!-- Node5&#45;&gt;Node1 -->
<g id="edge10" class="edge"><title>Node5&#45;&gt;Node1</title>
<path fill="none" stroke="midnightblue" d="M245.812,-56.4435C213.901,-47.0782 162.666,-32.0419 127.95,-21.8536"/>
<polygon fill="midnightblue" stroke="midnightblue" points="128.768,-18.446 118.187,-18.9883 126.797,-25.1628 128.768,-18.446"/>
</g>
<!-- Node5&#45;&gt;Node4 -->
<g id="edge9" class="edge"><title>Node5&#45;&gt;Node4</title>
<path fill="none" stroke="midnightblue" d="M265.006,-56.324C255.841,-48.3414 242.031,-36.3128 230.94,-26.6529"/>
<polygon fill="midnightblue" stroke="midnightblue" points="232.95,-23.7624 223.11,-19.8339 228.353,-29.041 232.95,-23.7624"/>
</g>
<!-- Node6 -->
<g id="node7" class="node"><title>Node6</title>
<polygon fill="none" stroke="#bfbfbf" points="257.468,-0.5 257.468,-19.5 292.468,-19.5 292.468,-0.5 257.468,-0.5"/>
<text text-anchor="middle" x="274.968" y="-7.5" font-family="Helvetica,sans-Serif" font-size="10.00">map</text>
</g>
<!-- Node5&#45;&gt;Node6 -->
<g id="edge8" class="edge"><title>Node5&#45;&gt;Node6</title>
<path fill="none" stroke="midnightblue" d="M274.968,-56.083C274.968,-49.0059 274.968,-38.8611 274.968,-29.9865"/>
<polygon fill="midnightblue" stroke="midnightblue" points="278.468,-29.751 274.968,-19.7511 271.468,-29.7511 278.468,-29.751"/>
</g>
<!-- Node7&#45;&gt;Node1 -->
<g id="edge14" class="edge"><title>Node7&#45;&gt;Node1</title>
<path fill="none" stroke="midnightblue" d="M204.671,-112.409C194.885,-99.3772 175.056,-74.2038 154.968,-56 142.252,-44.4771 126.5,-33.3679 113.806,-25.0704"/>
<polygon fill="midnightblue" stroke="midnightblue" points="115.5,-21.9992 105.189,-19.5598 111.728,-27.8963 115.5,-21.9992"/>
</g>
<!-- Node7&#45;&gt;Node2 -->
<g id="edge12" class="edge"><title>Node7&#45;&gt;Node2</title>
<path fill="none" stroke="midnightblue" d="M196.99,-112.324C183.418,-103.9 162.588,-90.9709 146.643,-81.0741"/>
<polygon fill="midnightblue" stroke="midnightblue" points="148.253,-77.9544 137.911,-75.6545 144.562,-83.9019 148.253,-77.9544"/>
</g>
<!-- Node7&#45;&gt;Node4 -->
<g id="edge13" class="edge"><title>Node7&#45;&gt;Node4</title>
<path fill="none" stroke="midnightblue" d="M211.125,-112.368C211.448,-94.617 212.192,-53.6664 212.63,-29.5974"/>
<polygon fill="midnightblue" stroke="midnightblue" points="216.129,-29.6534 212.812,-19.5914 209.13,-29.5261 216.129,-29.6534"/>
</g>
<!-- Node7&#45;&gt;Node5 -->
<g id="edge15" class="edge"><title>Node7&#45;&gt;Node5</title>
<path fill="none" stroke="midnightblue" d="M221.251,-112.324C230.804,-104.263 245.248,-92.0765 256.752,-82.3695"/>
<polygon fill="midnightblue" stroke="midnightblue" points="259.112,-84.9577 264.498,-75.8339 254.598,-79.6076 259.112,-84.9577"/>
</g>
</g>
</svg>
