<?xml version="1.0" encoding="UTF-8" standalone="no"?>
<!DOCTYPE svg PUBLIC "-//W3C//DTD SVG 1.1//EN"
 "http://www.w3.org/Graphics/SVG/1.1/DTD/svg11.dtd">
<!-- Generated by graphviz version 2.38.0 (20140413.2041)
 -->
<!-- Title: TaxonSet.h Pages: 1 -->
<svg width="175pt" height="84pt"
 viewBox="0.00 0.00 174.50 84.00" xmlns="http://www.w3.org/2000/svg" xmlns:xlink="http://www.w3.org/1999/xlink">
<g id="graph0" class="graph" transform="scale(1 1) rotate(0) translate(4 80)">
<title>TaxonSet.h</title>
<!-- Node0 -->
<g id="node1" class="node"><title>Node0</title>
<polygon fill="#bfbfbf" stroke="black" points="40,-56.5 40,-75.5 107,-75.5 107,-56.5 40,-56.5"/>
<text text-anchor="middle" x="73.5" y="-63.5" font-family="Helvetica,sans-Serif" font-size="10.00">TaxonSet.h</text>
</g>
<!-- Node1 -->
<g id="node2" class="node"><title>Node1</title>
<polygon fill="none" stroke="#bfbfbf" points="0,-0.5 0,-19.5 35,-19.5 35,-0.5 0,-0.5"/>
<text text-anchor="middle" x="17.5" y="-7.5" font-family="Helvetica,sans-Serif" font-size="10.00">map</text>
</g>
<!-- Node0&#45;&gt;Node1 -->
<g id="edge1" class="edge"><title>Node0&#45;&gt;Node1</title>
<path fill="none" stroke="midnightblue" d="M64.5026,-56.324C56.3056,-48.4196 43.9945,-36.5482 34.028,-26.9377"/>
<polygon fill="midnightblue" stroke="midnightblue" points="36.289,-24.2558 26.6611,-19.8339 31.4301,-29.2947 36.289,-24.2558"/>
</g>
<!-- Node2 -->
<g id="node3" class="node"><title>Node2</title>
<polygon fill="none" stroke="#bfbfbf" points="53,-0.5 53,-19.5 94,-19.5 94,-0.5 53,-0.5"/>
<text text-anchor="middle" x="73.5" y="-7.5" font-family="Helvetica,sans-Serif" font-size="10.00">string</text>
</g>
<!-- Node0&#45;&gt;Node2 -->
<g id="edge2" class="edge"><title>Node0&#45;&gt;Node2</title>
<path fill="none" stroke="midnightblue" d="M73.5,-56.083C73.5,-49.0059 73.5,-38.8611 73.5,-29.9865"/>
<polygon fill="midnightblue" stroke="midnightblue" points="77.0001,-29.751 73.5,-19.7511 70.0001,-29.7511 77.0001,-29.751"/>
</g>
<!-- Node3 -->
<g id="node4" class="node"><title>Node3</title>
<polygon fill="none" stroke="#bfbfbf" points="112.5,-0.5 112.5,-19.5 166.5,-19.5 166.5,-0.5 112.5,-0.5"/>
<text text-anchor="middle" x="139.5" y="-7.5" font-family="Helvetica,sans-Serif" font-size="10.00">iostream</text>
</g>
<!-- Node0&#45;&gt;Node3 -->
<g id="edge3" class="edge"><title>Node0&#45;&gt;Node3</title>
<path fill="none" stroke="midnightblue" d="M84.104,-56.324C93.9562,-48.2631 108.851,-36.0765 120.715,-26.3695"/>
<polygon fill="midnightblue" stroke="midnightblue" points="123.18,-28.8752 128.703,-19.8339 118.747,-23.4575 123.18,-28.8752"/>
</g>
</g>
</svg>
