<?xml version="1.0" encoding="UTF-8" standalone="no"?>
<!DOCTYPE svg PUBLIC "-//W3C//DTD SVG 1.1//EN"
 "http://www.w3.org/Graphics/SVG/1.1/DTD/svg11.dtd">
<!-- Generated by graphviz version 2.40.1 (20161225.0304)
 -->
<!-- Title: TaxonSet.h Pages: 1 -->
<svg width="1017pt" height="632pt"
 viewBox="0.00 0.00 1016.50 632.00" xmlns="http://www.w3.org/2000/svg" xmlns:xlink="http://www.w3.org/1999/xlink">
<g id="graph0" class="graph" transform="scale(1 1) rotate(0) translate(4 628)">
<title>TaxonSet.h</title>
<!-- Node4 -->
<g id="node1" class="node">
<title>Node4</title>
<polygon fill="#bfbfbf" stroke="#000000" points="637.5,-604.5 637.5,-623.5 704.5,-623.5 704.5,-604.5 637.5,-604.5"/>
<text text-anchor="middle" x="671" y="-611.5" font-family="Helvetica,sans-Serif" font-size="10.00" fill="#000000">TaxonSet.h</text>
</g>
<!-- Node5 -->
<g id="node2" class="node">
<title>Node5</title>
<g id="a_node2"><a xlink:href="Tree_8h.html" target="_top" xlink:title="Tree.h">
<polygon fill="none" stroke="#000000" points="598,-548.5 598,-567.5 642,-567.5 642,-548.5 598,-548.5"/>
<text text-anchor="middle" x="620" y="-555.5" font-family="Helvetica,sans-Serif" font-size="10.00" fill="#000000">Tree.h</text>
</a>
</g>
</g>
<!-- Node4&#45;&gt;Node5 -->
<g id="edge1" class="edge">
<title>Node4&#45;&gt;Node5</title>
<path fill="none" stroke="#191970" d="M655.3251,-596.7884C646.6006,-587.2085 636.0646,-575.6396 628.7817,-567.6427"/>
<polygon fill="#191970" stroke="#191970" points="652.7954,-599.2088 662.1165,-604.2455 657.9709,-594.4954 652.7954,-599.2088"/>
</g>
<!-- Node21 -->
<g id="node18" class="node">
<title>Node21</title>
<g id="a_node18"><a xlink:href="GammaBranchProcess_8h.html" target="_top" xlink:title="GammaBranchProcess.h">
<polygon fill="none" stroke="#000000" points="773,-436.5 773,-455.5 899,-455.5 899,-436.5 773,-436.5"/>
<text text-anchor="middle" x="836" y="-443.5" font-family="Helvetica,sans-Serif" font-size="10.00" fill="#000000">GammaBranchProcess.h</text>
</a>
</g>
</g>
<!-- Node4&#45;&gt;Node21 -->
<g id="edge44" class="edge">
<title>Node4&#45;&gt;Node21</title>
<path fill="none" stroke="#191970" d="M687.7048,-596.9915C721.9569,-562.1166 799.2038,-483.4652 826.3476,-455.8279"/>
<polygon fill="#191970" stroke="#191970" points="684.8539,-594.8992 680.3439,-604.4862 689.8481,-599.8042 684.8539,-594.8992"/>
</g>
<!-- Node34 -->
<g id="node31" class="node">
<title>Node34</title>
<g id="a_node31"><a xlink:href="TaxonSet_8cpp.html" target="_top" xlink:title="TaxonSet.cpp">
<polygon fill="none" stroke="#000000" points="684.5,-492.5 684.5,-511.5 761.5,-511.5 761.5,-492.5 684.5,-492.5"/>
<text text-anchor="middle" x="723" y="-499.5" font-family="Helvetica,sans-Serif" font-size="10.00" fill="#000000">TaxonSet.cpp</text>
</a>
</g>
</g>
<!-- Node4&#45;&gt;Node34 -->
<g id="edge45" class="edge">
<title>Node4&#45;&gt;Node34</title>
<path fill="none" stroke="#191970" d="M679.7055,-595.2498C690.9203,-571.0946 709.9906,-530.0202 718.5777,-511.5249"/>
<polygon fill="#191970" stroke="#191970" points="676.4701,-593.9069 675.4335,-604.4509 682.8192,-596.8548 676.4701,-593.9069"/>
</g>
<!-- Node36 -->
<g id="node33" class="node">
<title>Node36</title>
<g id="a_node33"><a xlink:href="SequenceAlignment_8h.html" target="_top" xlink:title="SequenceAlignment.h">
<polygon fill="none" stroke="#000000" points="235,-492.5 235,-511.5 347,-511.5 347,-492.5 235,-492.5"/>
<text text-anchor="middle" x="291" y="-499.5" font-family="Helvetica,sans-Serif" font-size="10.00" fill="#000000">SequenceAlignment.h</text>
</a>
</g>
</g>
<!-- Node4&#45;&gt;Node36 -->
<g id="edge38" class="edge">
<title>Node4&#45;&gt;Node36</title>
<path fill="none" stroke="#191970" d="M628.809,-601.5647C552.2315,-578.9945 391.9515,-531.7541 323.3166,-511.5249"/>
<polygon fill="#191970" stroke="#191970" points="628.0198,-604.981 638.6014,-604.4509 629.9989,-598.2665 628.0198,-604.981"/>
</g>
<!-- Node6 -->
<g id="node3" class="node">
<title>Node6</title>
<g id="a_node3"><a xlink:href="BranchProcess_8h.html" target="_top" xlink:title="BranchProcess.h">
<polygon fill="none" stroke="#000000" points="390,-492.5 390,-511.5 482,-511.5 482,-492.5 390,-492.5"/>
<text text-anchor="middle" x="436" y="-499.5" font-family="Helvetica,sans-Serif" font-size="10.00" fill="#000000">BranchProcess.h</text>
</a>
</g>
</g>
<!-- Node5&#45;&gt;Node6 -->
<g id="edge2" class="edge">
<title>Node5&#45;&gt;Node6</title>
<path fill="none" stroke="#191970" d="M587.9645,-548.2501C554.1352,-537.9542 501.139,-521.8249 467.5098,-511.5899"/>
<polygon fill="#191970" stroke="#191970" points="587.2195,-551.6818 597.8053,-551.2451 589.2576,-544.985 587.2195,-551.6818"/>
</g>
<!-- Node23 -->
<g id="node20" class="node">
<title>Node23</title>
<g id="a_node20"><a xlink:href="BranchSitePath_8h.html" target="_top" xlink:title="BranchSitePath.h">
<polygon fill="none" stroke="#000000" points="573.5,-492.5 573.5,-511.5 666.5,-511.5 666.5,-492.5 573.5,-492.5"/>
<text text-anchor="middle" x="620" y="-499.5" font-family="Helvetica,sans-Serif" font-size="10.00" fill="#000000">BranchSitePath.h</text>
</a>
</g>
</g>
<!-- Node5&#45;&gt;Node23 -->
<g id="edge20" class="edge">
<title>Node5&#45;&gt;Node23</title>
<path fill="none" stroke="#191970" d="M620,-538.1575C620,-529.155 620,-518.9199 620,-511.6427"/>
<polygon fill="#191970" stroke="#191970" points="616.5001,-538.2455 620,-548.2455 623.5001,-538.2456 616.5001,-538.2455"/>
</g>
<!-- Node5&#45;&gt;Node34 -->
<g id="edge36" class="edge">
<title>Node5&#45;&gt;Node34</title>
<path fill="none" stroke="#191970" d="M646.7432,-543.46C665.175,-533.4388 689.1584,-520.3993 705.2644,-511.6427"/>
<polygon fill="#191970" stroke="#191970" points="645.0549,-540.394 637.9412,-548.2455 648.3985,-546.5438 645.0549,-540.394"/>
</g>
<!-- Node35 -->
<g id="node32" class="node">
<title>Node35</title>
<g id="a_node32"><a xlink:href="Tree_8cpp.html" target="_top" xlink:title="Tree.cpp">
<polygon fill="none" stroke="#000000" points="500.5,-492.5 500.5,-511.5 555.5,-511.5 555.5,-492.5 500.5,-492.5"/>
<text text-anchor="middle" x="528" y="-499.5" font-family="Helvetica,sans-Serif" font-size="10.00" fill="#000000">Tree.cpp</text>
</a>
</g>
</g>
<!-- Node5&#45;&gt;Node35 -->
<g id="edge37" class="edge">
<title>Node5&#45;&gt;Node35</title>
<path fill="none" stroke="#191970" d="M594.9776,-542.769C578.675,-532.8456 557.899,-520.1994 543.8415,-511.6427"/>
<polygon fill="#191970" stroke="#191970" points="593.613,-546.0357 603.9748,-548.2455 597.2527,-540.0563 593.613,-546.0357"/>
</g>
<!-- Node7 -->
<g id="node4" class="node">
<title>Node7</title>
<g id="a_node4"><a xlink:href="BranchProcess_8cpp.html" target="_top" xlink:title="BranchProcess.cpp">
<polygon fill="none" stroke="#000000" points="417,-436.5 417,-455.5 519,-455.5 519,-436.5 417,-436.5"/>
<text text-anchor="middle" x="468" y="-443.5" font-family="Helvetica,sans-Serif" font-size="10.00" fill="#000000">BranchProcess.cpp</text>
</a>
</g>
</g>
<!-- Node6&#45;&gt;Node7 -->
<g id="edge3" class="edge">
<title>Node6&#45;&gt;Node7</title>
<path fill="none" stroke="#191970" d="M446.6645,-483.3372C451.9654,-474.0605 458.1487,-463.2398 462.4899,-455.6427"/>
<polygon fill="#191970" stroke="#191970" points="443.4966,-481.8266 441.574,-492.2455 449.5743,-485.2996 443.4966,-481.8266"/>
</g>
<!-- Node8 -->
<g id="node5" class="node">
<title>Node8</title>
<g id="a_node5"><a xlink:href="PhyloProcess_8h.html" target="_top" xlink:title="PhyloProcess.h">
<polygon fill="none" stroke="#000000" points="305,-380.5 305,-399.5 391,-399.5 391,-380.5 305,-380.5"/>
<text text-anchor="middle" x="348" y="-387.5" font-family="Helvetica,sans-Serif" font-size="10.00" fill="#000000">PhyloProcess.h</text>
</a>
</g>
</g>
<!-- Node6&#45;&gt;Node8 -->
<g id="edge4" class="edge">
<title>Node6&#45;&gt;Node8</title>
<path fill="none" stroke="#191970" d="M422.2715,-484.5274C403.4469,-460.5688 370.2754,-418.3505 355.4838,-399.5249"/>
<polygon fill="#191970" stroke="#191970" points="419.5668,-486.7501 428.4972,-492.4509 425.071,-482.4253 419.5668,-486.7501"/>
</g>
<!-- Node6&#45;&gt;Node21 -->
<g id="edge17" class="edge">
<title>Node6&#45;&gt;Node21</title>
<path fill="none" stroke="#191970" d="M492.2384,-491.8611C596.2996,-475.6309 705.8084,-461.6882 772.9159,-453.5023"/>
<polygon fill="#191970" stroke="#191970" points="491.5229,-488.4305 482.1866,-493.4388 492.6083,-495.3458 491.5229,-488.4305"/>
</g>
<!-- Node9 -->
<g id="node6" class="node">
<title>Node9</title>
<g id="a_node6"><a xlink:href="MatrixPhyloProcess_8h.html" target="_top" xlink:title="MatrixPhyloProcess.h">
<polygon fill="none" stroke="#000000" points="534.5,-252 534.5,-271 647.5,-271 647.5,-252 534.5,-252"/>
<text text-anchor="middle" x="591" y="-259" font-family="Helvetica,sans-Serif" font-size="10.00" fill="#000000">MatrixPhyloProcess.h</text>
</a>
</g>
</g>
<!-- Node8&#45;&gt;Node9 -->
<g id="edge5" class="edge">
<title>Node8&#45;&gt;Node9</title>
<path fill="none" stroke="#191970" d="M347.4381,-370.2201C348.059,-352.7759 351.8513,-327.88 367,-313 418.3809,-262.5305 454.8313,-293.2332 525,-277 533.2564,-275.0899 542.0893,-273.0282 550.5213,-271.0512"/>
<polygon fill="#191970" stroke="#191970" points="343.9375,-370.4144 347.4006,-380.4272 350.9375,-370.4402 343.9375,-370.4144"/>
</g>
<!-- Node19 -->
<g id="node16" class="node">
<title>Node19</title>
<g id="a_node16"><a xlink:href="NNI_8cpp.html" target="_top" xlink:title="NNI.cpp">
<polygon fill="none" stroke="#000000" points="114.5,-319 114.5,-338 167.5,-338 167.5,-319 114.5,-319"/>
<text text-anchor="middle" x="141" y="-326" font-family="Helvetica,sans-Serif" font-size="10.00" fill="#000000">NNI.cpp</text>
</a>
</g>
</g>
<!-- Node8&#45;&gt;Node19 -->
<g id="edge15" class="edge">
<title>Node8&#45;&gt;Node19</title>
<path fill="none" stroke="#191970" d="M296.2441,-378.1347C262.0228,-369.7883 216.3783,-357.6941 177,-344 171.9868,-342.2566 166.6865,-340.1367 161.7394,-338.0315"/>
<polygon fill="#191970" stroke="#191970" points="295.4854,-381.5521 306.0274,-380.4948 297.127,-374.7473 295.4854,-381.5521"/>
</g>
<!-- Node20 -->
<g id="node17" class="node">
<title>Node20</title>
<g id="a_node17"><a xlink:href="PhyloProcess_8cpp.html" target="_top" xlink:title="PhyloProcess.cpp">
<polygon fill="none" stroke="#000000" points="0,-319 0,-338 96,-338 96,-319 0,-319"/>
<text text-anchor="middle" x="48" y="-326" font-family="Helvetica,sans-Serif" font-size="10.00" fill="#000000">PhyloProcess.cpp</text>
</a>
</g>
</g>
<!-- Node8&#45;&gt;Node20 -->
<g id="edge16" class="edge">
<title>Node8&#45;&gt;Node20</title>
<path fill="none" stroke="#191970" d="M294.6358,-381.1384C245.2339,-372.6417 169.8453,-358.9301 105,-344 97.3048,-342.2283 89.082,-340.12 81.3452,-338.0381"/>
<polygon fill="#191970" stroke="#191970" points="294.3233,-384.6357 304.7701,-382.871 295.5029,-377.7358 294.3233,-384.6357"/>
</g>
<!-- Node10 -->
<g id="node7" class="node">
<title>Node10</title>
<g id="a_node7"><a xlink:href="ExpoConjugateGTRPhyloProcess_8h.html" target="_top" xlink:title="ExpoConjugateGTRPhyloProcess.h">
<polygon fill="none" stroke="#000000" points="499.5,-185 499.5,-204 672.5,-204 672.5,-185 499.5,-185"/>
<text text-anchor="middle" x="586" y="-192" font-family="Helvetica,sans-Serif" font-size="10.00" fill="#000000">ExpoConjugateGTRPhyloProcess.h</text>
</a>
</g>
</g>
<!-- Node9&#45;&gt;Node10 -->
<g id="edge6" class="edge">
<title>Node9&#45;&gt;Node10</title>
<path fill="none" stroke="#191970" d="M589.5155,-241.6079C588.5906,-229.214 587.4423,-213.8263 586.715,-204.0817"/>
<polygon fill="#191970" stroke="#191970" points="586.049,-242.1888 590.2836,-251.9005 593.0296,-241.6678 586.049,-242.1888"/>
</g>
<!-- Node16 -->
<g id="node13" class="node">
<title>Node16</title>
<g id="a_node13"><a xlink:href="GeneralPathSuffStatMatrixPhyloProcess_8h.html" target="_top" xlink:title="GeneralPathSuffStatMatrix\lPhyloProcess.h">
<polygon fill="none" stroke="#000000" points="143,-179.5 143,-209.5 277,-209.5 277,-179.5 143,-179.5"/>
<text text-anchor="start" x="151" y="-197.5" font-family="Helvetica,sans-Serif" font-size="10.00" fill="#000000">GeneralPathSuffStatMatrix</text>
<text text-anchor="middle" x="210" y="-186.5" font-family="Helvetica,sans-Serif" font-size="10.00" fill="#000000">PhyloProcess.h</text>
</a>
</g>
</g>
<!-- Node9&#45;&gt;Node16 -->
<g id="edge12" class="edge">
<title>Node9&#45;&gt;Node16</title>
<path fill="none" stroke="#191970" d="M542.5411,-249.7195C536.6448,-248.4045 530.6944,-247.1328 525,-246 478.8036,-236.8103 355.0534,-217.1153 277.1222,-204.9197"/>
<polygon fill="#191970" stroke="#191970" points="541.8307,-253.1473 552.3584,-251.9568 543.386,-246.3223 541.8307,-253.1473"/>
</g>
<!-- Node18 -->
<g id="node15" class="node">
<title>Node18</title>
<g id="a_node15"><a xlink:href="MatrixPhyloProcess_8cpp.html" target="_top" xlink:title="MatrixPhyloProcess.cpp">
<polygon fill="none" stroke="#000000" points="690.5,-185 690.5,-204 813.5,-204 813.5,-185 690.5,-185"/>
<text text-anchor="middle" x="752" y="-192" font-family="Helvetica,sans-Serif" font-size="10.00" fill="#000000">MatrixPhyloProcess.cpp</text>
</a>
</g>
</g>
<!-- Node9&#45;&gt;Node18 -->
<g id="edge14" class="edge">
<title>Node9&#45;&gt;Node18</title>
<path fill="none" stroke="#191970" d="M623.6522,-247.9118C654.9445,-234.8895 701.3777,-215.5664 728.9754,-204.0817"/>
<polygon fill="#191970" stroke="#191970" points="621.9551,-244.827 614.0674,-251.9005 624.6446,-251.2898 621.9551,-244.827"/>
</g>
<!-- Node11 -->
<g id="node8" class="node">
<title>Node11</title>
<g id="a_node8"><a xlink:href="ExpoConjugateGTRPhyloProcess_8cpp.html" target="_top" xlink:title="ExpoConjugateGTRPhyloProcess.cpp">
<polygon fill="none" stroke="#000000" points="494,-118 494,-137 678,-137 678,-118 494,-118"/>
<text text-anchor="middle" x="586" y="-125" font-family="Helvetica,sans-Serif" font-size="10.00" fill="#000000">ExpoConjugateGTRPhyloProcess.cpp</text>
</a>
</g>
</g>
<!-- Node10&#45;&gt;Node11 -->
<g id="edge7" class="edge">
<title>Node10&#45;&gt;Node11</title>
<path fill="none" stroke="#191970" d="M586,-174.6079C586,-162.214 586,-146.8263 586,-137.0817"/>
<polygon fill="#191970" stroke="#191970" points="582.5001,-174.9005 586,-184.9005 589.5001,-174.9006 582.5001,-174.9005"/>
</g>
<!-- Node12 -->
<g id="node9" class="node">
<title>Node12</title>
<g id="a_node9"><a xlink:href="RASCATGTRSBDPGammaPhyloProcess_8h.html" target="_top" xlink:title="RASCATGTRSBDPGammaPhyloProcess.h">
<polygon fill="none" stroke="#000000" points="716,-118 716,-137 926,-137 926,-118 716,-118"/>
<text text-anchor="middle" x="821" y="-125" font-family="Helvetica,sans-Serif" font-size="10.00" fill="#000000">RASCATGTRSBDPGammaPhyloProcess.h</text>
</a>
</g>
</g>
<!-- Node10&#45;&gt;Node12 -->
<g id="edge8" class="edge">
<title>Node10&#45;&gt;Node12</title>
<path fill="none" stroke="#191970" d="M629.5699,-182.0779C675.2024,-169.0678 745.8896,-148.9145 787.3927,-137.0817"/>
<polygon fill="#191970" stroke="#191970" points="628.3269,-178.7928 619.6698,-184.9005 630.2462,-185.5245 628.3269,-178.7928"/>
</g>
<!-- Node13 -->
<g id="node10" class="node">
<title>Node13</title>
<g id="a_node10"><a xlink:href="Model_8h.html" target="_top" xlink:title="Model.h">
<polygon fill="none" stroke="#000000" points="718.5,-56.5 718.5,-75.5 769.5,-75.5 769.5,-56.5 718.5,-56.5"/>
<text text-anchor="middle" x="744" y="-63.5" font-family="Helvetica,sans-Serif" font-size="10.00" fill="#000000">Model.h</text>
</a>
</g>
</g>
<!-- Node12&#45;&gt;Node13 -->
<g id="edge9" class="edge">
<title>Node12&#45;&gt;Node13</title>
<path fill="none" stroke="#191970" d="M801.1542,-111.6491C786.847,-100.222 768.0076,-85.1749 755.9468,-75.5419"/>
<polygon fill="#191970" stroke="#191970" points="798.9708,-114.3846 808.9688,-117.8906 803.3394,-108.915 798.9708,-114.3846"/>
</g>
<!-- Node15 -->
<g id="node12" class="node">
<title>Node15</title>
<g id="a_node12"><a xlink:href="RASCATGTRSBDPGammaPhyloProcess_8cpp.html" target="_top" xlink:title="RASCATGTRSBDPGammaPhyloProcess.cpp">
<polygon fill="none" stroke="#000000" points="787.5,-56.5 787.5,-75.5 1008.5,-75.5 1008.5,-56.5 787.5,-56.5"/>
<text text-anchor="middle" x="898" y="-63.5" font-family="Helvetica,sans-Serif" font-size="10.00" fill="#000000">RASCATGTRSBDPGammaPhyloProcess.cpp</text>
</a>
</g>
</g>
<!-- Node12&#45;&gt;Node15 -->
<g id="edge11" class="edge">
<title>Node12&#45;&gt;Node15</title>
<path fill="none" stroke="#191970" d="M840.8458,-111.6491C855.153,-100.222 873.9924,-85.1749 886.0532,-75.5419"/>
<polygon fill="#191970" stroke="#191970" points="838.6606,-108.915 833.0313,-117.8906 843.0292,-114.3846 838.6606,-108.915"/>
</g>
<!-- Node14 -->
<g id="node11" class="node">
<title>Node14</title>
<g id="a_node11"><a xlink:href="PB_8cpp.html" target="_top" xlink:title="PB.cpp">
<polygon fill="none" stroke="#000000" points="719.5,-.5 719.5,-19.5 768.5,-19.5 768.5,-.5 719.5,-.5"/>
<text text-anchor="middle" x="744" y="-7.5" font-family="Helvetica,sans-Serif" font-size="10.00" fill="#000000">PB.cpp</text>
</a>
</g>
</g>
<!-- Node13&#45;&gt;Node14 -->
<g id="edge10" class="edge">
<title>Node13&#45;&gt;Node14</title>
<path fill="none" stroke="#191970" d="M744,-46.1575C744,-37.155 744,-26.9199 744,-19.6427"/>
<polygon fill="#191970" stroke="#191970" points="740.5001,-46.2455 744,-56.2455 747.5001,-46.2456 740.5001,-46.2455"/>
</g>
<!-- Node17 -->
<g id="node14" class="node">
<title>Node17</title>
<g id="a_node14"><a xlink:href="GeneralPathSuffStatMatrixPhyloProcess_8cpp.html" target="_top" xlink:title="GeneralPathSuffStatMatrix\lPhyloProcess.cpp">
<polygon fill="none" stroke="#000000" points="143,-112.5 143,-142.5 277,-142.5 277,-112.5 143,-112.5"/>
<text text-anchor="start" x="151" y="-130.5" font-family="Helvetica,sans-Serif" font-size="10.00" fill="#000000">GeneralPathSuffStatMatrix</text>
<text text-anchor="middle" x="210" y="-119.5" font-family="Helvetica,sans-Serif" font-size="10.00" fill="#000000">PhyloProcess.cpp</text>
</a>
</g>
</g>
<!-- Node16&#45;&gt;Node17 -->
<g id="edge13" class="edge">
<title>Node16&#45;&gt;Node17</title>
<path fill="none" stroke="#191970" d="M210,-169.0249C210,-160.128 210,-150.4287 210,-142.6432"/>
<polygon fill="#191970" stroke="#191970" points="206.5001,-169.2966 210,-179.2967 213.5001,-169.2967 206.5001,-169.2966"/>
</g>
<!-- Node21&#45;&gt;Node12 -->
<g id="edge19" class="edge">
<title>Node21&#45;&gt;Node12</title>
<path fill="none" stroke="#191970" d="M837.6257,-426.2394C839.4025,-402.9027 842,-362.9048 842,-328.5 842,-328.5 842,-328.5 842,-261.5 842,-214.4043 829.1826,-159.1085 823.575,-137.1702"/>
<polygon fill="#191970" stroke="#191970" points="834.1326,-426.0151 836.8343,-436.2596 841.1108,-426.5663 834.1326,-426.0151"/>
</g>
<!-- Node22 -->
<g id="node19" class="node">
<title>Node22</title>
<g id="a_node19"><a xlink:href="GammaBranchProcess_8cpp.html" target="_top" xlink:title="GammaBranchProcess.cpp">
<polygon fill="none" stroke="#000000" points="870.5,-380.5 870.5,-399.5 1007.5,-399.5 1007.5,-380.5 870.5,-380.5"/>
<text text-anchor="middle" x="939" y="-387.5" font-family="Helvetica,sans-Serif" font-size="10.00" fill="#000000">GammaBranchProcess.cpp</text>
</a>
</g>
</g>
<!-- Node21&#45;&gt;Node22 -->
<g id="edge18" class="edge">
<title>Node21&#45;&gt;Node22</title>
<path fill="none" stroke="#191970" d="M862.7432,-431.46C881.175,-421.4388 905.1584,-408.3993 921.2644,-399.6427"/>
<polygon fill="#191970" stroke="#191970" points="861.0549,-428.394 853.9412,-436.2455 864.3985,-434.5438 861.0549,-428.394"/>
</g>
<!-- Node24 -->
<g id="node21" class="node">
<title>Node24</title>
<g id="a_node21"><a xlink:href="SubstitutionProcess_8h.html" target="_top" xlink:title="SubstitutionProcess.h">
<polygon fill="none" stroke="#000000" points="560.5,-436.5 560.5,-455.5 673.5,-455.5 673.5,-436.5 560.5,-436.5"/>
<text text-anchor="middle" x="617" y="-443.5" font-family="Helvetica,sans-Serif" font-size="10.00" fill="#000000">SubstitutionProcess.h</text>
</a>
</g>
</g>
<!-- Node23&#45;&gt;Node24 -->
<g id="edge21" class="edge">
<title>Node23&#45;&gt;Node24</title>
<path fill="none" stroke="#191970" d="M618.937,-482.1575C618.4547,-473.155 617.9064,-462.9199 617.5166,-455.6427"/>
<polygon fill="#191970" stroke="#191970" points="615.4474,-482.4471 619.4774,-492.2455 622.4374,-482.0726 615.4474,-482.4471"/>
</g>
<!-- Node24&#45;&gt;Node8 -->
<g id="edge22" class="edge">
<title>Node24&#45;&gt;Node8</title>
<path fill="none" stroke="#191970" d="M560.9576,-434.3332C510.4201,-423.8124 437.1597,-408.5611 391.0796,-398.9682"/>
<polygon fill="#191970" stroke="#191970" points="560.5594,-437.8253 571.0629,-436.4369 561.9861,-430.9722 560.5594,-437.8253"/>
</g>
<!-- Node25 -->
<g id="node22" class="node">
<title>Node25</title>
<g id="a_node22"><a xlink:href="MatrixSubstitutionProcess_8h.html" target="_top" xlink:title="MatrixSubstitutionProcess.h">
<polygon fill="none" stroke="#000000" points="532,-380.5 532,-399.5 672,-399.5 672,-380.5 532,-380.5"/>
<text text-anchor="middle" x="602" y="-387.5" font-family="Helvetica,sans-Serif" font-size="10.00" fill="#000000">MatrixSubstitutionProcess.h</text>
</a>
</g>
</g>
<!-- Node24&#45;&gt;Node25 -->
<g id="edge23" class="edge">
<title>Node24&#45;&gt;Node25</title>
<path fill="none" stroke="#191970" d="M611.7644,-426.4538C609.334,-417.3803 606.5535,-406.9998 604.5829,-399.6427"/>
<polygon fill="#191970" stroke="#191970" points="608.4189,-427.4917 614.3872,-436.2455 615.1806,-425.6805 608.4189,-427.4917"/>
</g>
<!-- Node33 -->
<g id="node30" class="node">
<title>Node33</title>
<g id="a_node30"><a xlink:href="SubstitutionProcess_8cpp.html" target="_top" xlink:title="SubstitutionProcess.cpp">
<polygon fill="none" stroke="#000000" points="690.5,-380.5 690.5,-399.5 813.5,-399.5 813.5,-380.5 690.5,-380.5"/>
<text text-anchor="middle" x="752" y="-387.5" font-family="Helvetica,sans-Serif" font-size="10.00" fill="#000000">SubstitutionProcess.cpp</text>
</a>
</g>
</g>
<!-- Node24&#45;&gt;Node33 -->
<g id="edge35" class="edge">
<title>Node24&#45;&gt;Node33</title>
<path fill="none" stroke="#191970" d="M649.4991,-432.5189C674.0854,-422.3201 707.2366,-408.5685 729.0955,-399.5011"/>
<polygon fill="#191970" stroke="#191970" points="648.1031,-429.3087 640.2073,-436.3733 650.7852,-435.7745 648.1031,-429.3087"/>
</g>
<!-- Node25&#45;&gt;Node9 -->
<g id="edge24" class="edge">
<title>Node25&#45;&gt;Node9</title>
<path fill="none" stroke="#191970" d="M682.4179,-379.6437C725.3396,-372.2881 771.9651,-360.717 785,-344 793.472,-333.1348 793.4001,-323.9209 785,-313 768.2691,-291.2481 698.6934,-276.7678 647.6297,-268.845"/>
<polygon fill="#191970" stroke="#191970" points="681.7688,-376.2035 672.4728,-381.2864 682.9096,-383.1099 681.7688,-376.2035"/>
</g>
<!-- Node26 -->
<g id="node23" class="node">
<title>Node26</title>
<g id="a_node23"><a xlink:href="GTRSubstitutionProcess_8h.html" target="_top" xlink:title="GTRSubstitutionProcess.h">
<polygon fill="none" stroke="#000000" points="376,-319 376,-338 510,-338 510,-319 376,-319"/>
<text text-anchor="middle" x="443" y="-326" font-family="Helvetica,sans-Serif" font-size="10.00" fill="#000000">GTRSubstitutionProcess.h</text>
</a>
</g>
</g>
<!-- Node25&#45;&gt;Node26 -->
<g id="edge25" class="edge">
<title>Node25&#45;&gt;Node26</title>
<path fill="none" stroke="#191970" d="M567.4795,-376.6477C537.3718,-365.0023 494.4363,-348.3952 467.6693,-338.0419"/>
<polygon fill="#191970" stroke="#191970" points="566.567,-380.0474 577.1563,-380.3906 569.0922,-373.5188 566.567,-380.0474"/>
</g>
<!-- Node29 -->
<g id="node26" class="node">
<title>Node29</title>
<g id="a_node26"><a xlink:href="GeneralPathSuffStatMatrixSubstitutionProcess_8h.html" target="_top" xlink:title="GeneralPathSuffStatMatrix\lSubstitutionProcess.h">
<polygon fill="none" stroke="#000000" points="186,-313.5 186,-343.5 320,-343.5 320,-313.5 186,-313.5"/>
<text text-anchor="start" x="194" y="-331.5" font-family="Helvetica,sans-Serif" font-size="10.00" fill="#000000">GeneralPathSuffStatMatrix</text>
<text text-anchor="middle" x="253" y="-320.5" font-family="Helvetica,sans-Serif" font-size="10.00" fill="#000000">SubstitutionProcess.h</text>
</a>
</g>
</g>
<!-- Node25&#45;&gt;Node29 -->
<g id="edge30" class="edge">
<title>Node25&#45;&gt;Node29</title>
<path fill="none" stroke="#191970" d="M537.8315,-378.6924C476.0278,-367.8015 382.9175,-351.3938 320.1354,-340.3304"/>
<polygon fill="#191970" stroke="#191970" points="537.396,-382.1695 547.8517,-380.4581 538.6108,-375.2757 537.396,-382.1695"/>
</g>
<!-- Node31 -->
<g id="node28" class="node">
<title>Node31</title>
<g id="a_node28"><a xlink:href="MatrixSubstitutionProcess_8cpp.html" target="_top" xlink:title="MatrixSubstitutionProcess.cpp">
<polygon fill="none" stroke="#000000" points="528,-319 528,-338 678,-338 678,-319 528,-319"/>
<text text-anchor="middle" x="603" y="-326" font-family="Helvetica,sans-Serif" font-size="10.00" fill="#000000">MatrixSubstitutionProcess.cpp</text>
</a>
</g>
</g>
<!-- Node25&#45;&gt;Node31 -->
<g id="edge33" class="edge">
<title>Node25&#45;&gt;Node31</title>
<path fill="none" stroke="#191970" d="M602.3212,-370.2462C602.4951,-359.5519 602.7022,-346.814 602.8415,-338.2449"/>
<polygon fill="#191970" stroke="#191970" points="598.8194,-370.335 602.1563,-380.3906 605.8185,-370.4489 598.8194,-370.335"/>
</g>
<!-- Node32 -->
<g id="node29" class="node">
<title>Node32</title>
<g id="a_node29"><a xlink:href="Propagate_8cpp.html" target="_top" xlink:title="Propagate.cpp">
<polygon fill="none" stroke="#000000" points="696,-319 696,-338 776,-338 776,-319 696,-319"/>
<text text-anchor="middle" x="736" y="-326" font-family="Helvetica,sans-Serif" font-size="10.00" fill="#000000">Propagate.cpp</text>
</a>
</g>
</g>
<!-- Node25&#45;&gt;Node32 -->
<g id="edge34" class="edge">
<title>Node25&#45;&gt;Node32</title>
<path fill="none" stroke="#191970" d="M632.0911,-376.1895C657.4082,-364.5701 692.9454,-348.2601 715.2095,-338.0419"/>
<polygon fill="#191970" stroke="#191970" points="630.5661,-373.0384 622.9375,-380.3906 633.486,-379.4003 630.5661,-373.0384"/>
</g>
<!-- Node26&#45;&gt;Node9 -->
<g id="edge26" class="edge">
<title>Node26&#45;&gt;Node9</title>
<path fill="none" stroke="#191970" d="M473.39,-314.7424C502.1505,-301.7224 544.575,-282.5167 569.8345,-271.0817"/>
<polygon fill="#191970" stroke="#191970" points="471.8713,-311.5879 464.2048,-318.9005 474.7582,-317.9649 471.8713,-311.5879"/>
</g>
<!-- Node27 -->
<g id="node24" class="node">
<title>Node27</title>
<g id="a_node24"><a xlink:href="ExpoConjugateGTRSubstitutionProcess_8h.html" target="_top" xlink:title="ExpoConjugateGTRSubstitution\lProcess.h">
<polygon fill="none" stroke="#000000" points="360,-246.5 360,-276.5 516,-276.5 516,-246.5 360,-246.5"/>
<text text-anchor="start" x="368" y="-264.5" font-family="Helvetica,sans-Serif" font-size="10.00" fill="#000000">ExpoConjugateGTRSubstitution</text>
<text text-anchor="middle" x="438" y="-253.5" font-family="Helvetica,sans-Serif" font-size="10.00" fill="#000000">Process.h</text>
</a>
</g>
</g>
<!-- Node26&#45;&gt;Node27 -->
<g id="edge27" class="edge">
<title>Node26&#45;&gt;Node27</title>
<path fill="none" stroke="#191970" d="M441.528,-308.7758C440.7585,-298.4641 439.8316,-286.0437 439.121,-276.5218"/>
<polygon fill="#191970" stroke="#191970" points="438.049,-309.1888 442.2836,-318.9005 445.0296,-308.6678 438.049,-309.1888"/>
</g>
<!-- Node27&#45;&gt;Node10 -->
<g id="edge28" class="edge">
<title>Node27&#45;&gt;Node10</title>
<path fill="none" stroke="#191970" d="M480.6373,-242.198C508.2113,-229.7152 542.914,-214.0051 564.7854,-204.1039"/>
<polygon fill="#191970" stroke="#191970" points="478.8806,-239.1512 471.2141,-246.4639 481.7675,-245.5282 478.8806,-239.1512"/>
</g>
<!-- Node28 -->
<g id="node25" class="node">
<title>Node28</title>
<g id="a_node25"><a xlink:href="ExpoConjugateGTRSubstitutionProcess_8cpp.html" target="_top" xlink:title="ExpoConjugateGTRSubstitution\lProcess.cpp">
<polygon fill="none" stroke="#000000" points="325,-179.5 325,-209.5 481,-209.5 481,-179.5 325,-179.5"/>
<text text-anchor="start" x="333" y="-197.5" font-family="Helvetica,sans-Serif" font-size="10.00" fill="#000000">ExpoConjugateGTRSubstitution</text>
<text text-anchor="middle" x="403" y="-186.5" font-family="Helvetica,sans-Serif" font-size="10.00" fill="#000000">Process.cpp</text>
</a>
</g>
</g>
<!-- Node27&#45;&gt;Node28 -->
<g id="edge29" class="edge">
<title>Node27&#45;&gt;Node28</title>
<path fill="none" stroke="#191970" d="M425.3024,-237.1932C420.4918,-227.9844 415.1565,-217.771 410.9106,-209.6432"/>
<polygon fill="#191970" stroke="#191970" points="422.3255,-239.0537 430.058,-246.2967 428.53,-235.8126 422.3255,-239.0537"/>
</g>
<!-- Node29&#45;&gt;Node16 -->
<g id="edge31" class="edge">
<title>Node29&#45;&gt;Node16</title>
<path fill="none" stroke="#191970" d="M222.0716,-306.9155C212.8737,-298.7173 203.9397,-288.5371 199,-277 189.5589,-254.9497 196.9869,-226.807 203.3766,-209.7445"/>
<polygon fill="#191970" stroke="#191970" points="219.8507,-309.6207 229.778,-313.322 224.3256,-304.2378 219.8507,-309.6207"/>
</g>
<!-- Node30 -->
<g id="node27" class="node">
<title>Node30</title>
<g id="a_node27"><a xlink:href="GeneralPathSuffStatMatrixSubstitutionProcess_8cpp.html" target="_top" xlink:title="GeneralPathSuffStatMatrix\lSubstitutionProcess.cpp">
<polygon fill="none" stroke="#000000" points="208,-246.5 208,-276.5 342,-276.5 342,-246.5 208,-246.5"/>
<text text-anchor="start" x="216" y="-264.5" font-family="Helvetica,sans-Serif" font-size="10.00" fill="#000000">GeneralPathSuffStatMatrix</text>
<text text-anchor="middle" x="275" y="-253.5" font-family="Helvetica,sans-Serif" font-size="10.00" fill="#000000">SubstitutionProcess.cpp</text>
</a>
</g>
</g>
<!-- Node29&#45;&gt;Node30 -->
<g id="edge32" class="edge">
<title>Node29&#45;&gt;Node30</title>
<path fill="none" stroke="#191970" d="M261.1727,-303.6103C264.146,-294.5553 267.415,-284.5998 270.0276,-276.6432"/>
<polygon fill="#191970" stroke="#191970" points="257.7866,-302.7038 257.9921,-313.2967 264.4372,-304.8877 257.7866,-302.7038"/>
</g>
<!-- Node36&#45;&gt;Node8 -->
<g id="edge39" class="edge">
<title>Node36&#45;&gt;Node8</title>
<path fill="none" stroke="#191970" d="M309.9374,-484.8901C317.8167,-476.8331 326.4114,-466.6589 332,-456 341.6359,-437.6221 345.5849,-413.3185 347.1121,-399.9235"/>
<polygon fill="#191970" stroke="#191970" points="307.1669,-482.702 302.4342,-492.181 312.0452,-487.7222 307.1669,-482.702"/>
</g>
<!-- Node37 -->
<g id="node34" class="node">
<title>Node37</title>
<g id="a_node34"><a xlink:href="ZippedSequenceAlignment_8h.html" target="_top" xlink:title="ZippedSequenceAlignment.h">
<polygon fill="none" stroke="#000000" points="41.5,-436.5 41.5,-455.5 182.5,-455.5 182.5,-436.5 41.5,-436.5"/>
<text text-anchor="middle" x="112" y="-443.5" font-family="Helvetica,sans-Serif" font-size="10.00" fill="#000000">ZippedSequenceAlignment.h</text>
</a>
</g>
</g>
<!-- Node36&#45;&gt;Node37 -->
<g id="edge40" class="edge">
<title>Node36&#45;&gt;Node37</title>
<path fill="none" stroke="#191970" d="M250.4805,-489.3235C217.6534,-479.0536 172.1224,-464.8093 142.3697,-455.5011"/>
<polygon fill="#191970" stroke="#191970" points="249.6399,-492.7278 260.2288,-492.3733 251.73,-486.0471 249.6399,-492.7278"/>
</g>
<!-- Node39 -->
<g id="node36" class="node">
<title>Node39</title>
<g id="a_node36"><a xlink:href="SequenceAlignment_8cpp.html" target="_top" xlink:title="SequenceAlignment.cpp">
<polygon fill="none" stroke="#000000" points="201,-436.5 201,-455.5 323,-455.5 323,-436.5 201,-436.5"/>
<text text-anchor="middle" x="262" y="-443.5" font-family="Helvetica,sans-Serif" font-size="10.00" fill="#000000">SequenceAlignment.cpp</text>
</a>
</g>
</g>
<!-- Node36&#45;&gt;Node39 -->
<g id="edge43" class="edge">
<title>Node36&#45;&gt;Node39</title>
<path fill="none" stroke="#191970" d="M281.3353,-483.3372C276.5313,-474.0605 270.9277,-463.2398 266.9935,-455.6427"/>
<polygon fill="#191970" stroke="#191970" points="278.242,-484.9751 285.9486,-492.2455 284.458,-481.7561 278.242,-484.9751"/>
</g>
<!-- Node37&#45;&gt;Node8 -->
<g id="edge41" class="edge">
<title>Node37&#45;&gt;Node8</title>
<path fill="none" stroke="#191970" d="M162.0974,-434.1125C205.5484,-423.8021 267.6198,-409.0733 307.8645,-399.5237"/>
<polygon fill="#191970" stroke="#191970" points="161.2234,-430.7226 152.3017,-436.4369 162.8396,-437.5335 161.2234,-430.7226"/>
</g>
<!-- Node38 -->
<g id="node35" class="node">
<title>Node38</title>
<g id="a_node35"><a xlink:href="ZippedSequenceAlignment_8cpp.html" target="_top" xlink:title="ZippedSequenceAlignment.cpp">
<polygon fill="none" stroke="#000000" points="36,-380.5 36,-399.5 188,-399.5 188,-380.5 36,-380.5"/>
<text text-anchor="middle" x="112" y="-387.5" font-family="Helvetica,sans-Serif" font-size="10.00" fill="#000000">ZippedSequenceAlignment.cpp</text>
</a>
</g>
</g>
<!-- Node37&#45;&gt;Node38 -->
<g id="edge42" class="edge">
<title>Node37&#45;&gt;Node38</title>
<path fill="none" stroke="#191970" d="M112,-426.1575C112,-417.155 112,-406.9199 112,-399.6427"/>
<polygon fill="#191970" stroke="#191970" points="108.5001,-426.2455 112,-436.2455 115.5001,-426.2456 108.5001,-426.2455"/>
</g>
</g>
</svg>
