<?xml version="1.0" encoding="UTF-8" standalone="no"?>
<!DOCTYPE svg PUBLIC "-//W3C//DTD SVG 1.1//EN"
 "http://www.w3.org/Graphics/SVG/1.1/DTD/svg11.dtd">
<!-- Generated by graphviz version 2.38.0 (20140413.2041)
 -->
<!-- Title: TexTab.h Pages: 1 -->
<svg width="498pt" height="84pt"
 viewBox="0.00 0.00 498.00 84.00" xmlns="http://www.w3.org/2000/svg" xmlns:xlink="http://www.w3.org/1999/xlink">
<g id="graph0" class="graph" transform="scale(1 1) rotate(0) translate(4 80)">
<title>TexTab.h</title>
<!-- Node3 -->
<g id="node1" class="node"><title>Node3</title>
<polygon fill="#bfbfbf" stroke="black" points="178.5,-56.5 178.5,-75.5 236.5,-75.5 236.5,-56.5 178.5,-56.5"/>
<text text-anchor="middle" x="207.5" y="-63.5" font-family="Helvetica,sans-Serif" font-size="10.00">TexTab.h</text>
</g>
<!-- Node4 -->
<g id="node2" class="node"><title>Node4</title>
<g id="a_node2"><a xlink:href="NNI_8cpp.html" target="_top" xlink:title="NNI.cpp">
<polygon fill="none" stroke="black" points="0,-0.5 0,-19.5 53,-19.5 53,-0.5 0,-0.5"/>
<text text-anchor="middle" x="26.5" y="-7.5" font-family="Helvetica,sans-Serif" font-size="10.00">NNI.cpp</text>
</a>
</g>
</g>
<!-- Node3&#45;&gt;Node4 -->
<g id="edge1" class="edge"><title>Node3&#45;&gt;Node4</title>
<path fill="none" stroke="midnightblue" d="M169.002,-53.5145C134.202,-43.132 83.8735,-28.117 53.2756,-18.9883"/>
<polygon fill="midnightblue" stroke="midnightblue" points="168.237,-56.9385 178.82,-56.4435 170.238,-50.2306 168.237,-56.9385"/>
</g>
<!-- Node5 -->
<g id="node3" class="node"><title>Node5</title>
<g id="a_node3"><a xlink:href="PhyloProcess_8cpp.html" target="_top" xlink:title="PhyloProcess.cpp">
<polygon fill="none" stroke="black" points="71.5,-0.5 71.5,-19.5 167.5,-19.5 167.5,-0.5 71.5,-0.5"/>
<text text-anchor="middle" x="119.5" y="-7.5" font-family="Helvetica,sans-Serif" font-size="10.00">PhyloProcess.cpp</text>
</a>
</g>
</g>
<!-- Node3&#45;&gt;Node5 -->
<g id="edge2" class="edge"><title>Node3&#45;&gt;Node5</title>
<path fill="none" stroke="midnightblue" d="M184.523,-50.9005C168.387,-40.9986 147.319,-28.0705 133.604,-19.6545"/>
<polygon fill="midnightblue" stroke="midnightblue" points="183.007,-54.0769 193.361,-56.324 186.669,-48.1106 183.007,-54.0769"/>
</g>
<!-- Node6 -->
<g id="node4" class="node"><title>Node6</title>
<g id="a_node4"><a xlink:href="RASCATGTRSBDPGammaPhyloProcess_8cpp.html" target="_top" xlink:title="RASCATGTRSBDPGammaPhyloProcess.cpp">
<polygon fill="none" stroke="black" points="186,-0.5 186,-19.5 407,-19.5 407,-0.5 186,-0.5"/>
<text text-anchor="middle" x="296.5" y="-7.5" font-family="Helvetica,sans-Serif" font-size="10.00">RASCATGTRSBDPGammaPhyloProcess.cpp</text>
</a>
</g>
</g>
<!-- Node3&#45;&gt;Node6 -->
<g id="edge3" class="edge"><title>Node3&#45;&gt;Node6</title>
<path fill="none" stroke="midnightblue" d="M230.738,-50.9005C247.058,-40.9986 268.365,-28.0705 282.236,-19.6545"/>
<polygon fill="midnightblue" stroke="midnightblue" points="228.533,-48.1444 221.799,-56.324 232.164,-54.1289 228.533,-48.1444"/>
</g>
<!-- Node7 -->
<g id="node5" class="node"><title>Node7</title>
<g id="a_node5"><a xlink:href="traceci_8cpp.html" target="_top" xlink:title="traceci.cpp">
<polygon fill="none" stroke="black" points="425,-0.5 425,-19.5 490,-19.5 490,-0.5 425,-0.5"/>
<text text-anchor="middle" x="457.5" y="-7.5" font-family="Helvetica,sans-Serif" font-size="10.00">traceci.cpp</text>
</a>
</g>
</g>
<!-- Node3&#45;&gt;Node7 -->
<g id="edge4" class="edge"><title>Node3&#45;&gt;Node7</title>
<path fill="none" stroke="midnightblue" d="M246.401,-56.6729C288.38,-47.6755 357.194,-32.8938 416.5,-20 419.206,-19.4117 422.012,-18.7997 424.829,-18.1841"/>
<polygon fill="midnightblue" stroke="midnightblue" points="245.63,-53.2586 236.585,-58.7762 247.097,-60.1033 245.63,-53.2586"/>
</g>
</g>
</svg>
