<?xml version="1.0" encoding="UTF-8" standalone="no"?>
<!DOCTYPE svg PUBLIC "-//W3C//DTD SVG 1.1//EN"
 "http://www.w3.org/Graphics/SVG/1.1/DTD/svg11.dtd">
<!-- Generated by graphviz version 2.40.1 (20161225.0304)
 -->
<!-- Title: TexTab.h Pages: 1 -->
<svg width="415pt" height="84pt"
 viewBox="0.00 0.00 415.00 84.00" xmlns="http://www.w3.org/2000/svg" xmlns:xlink="http://www.w3.org/1999/xlink">
<g id="graph0" class="graph" transform="scale(1 1) rotate(0) translate(4 80)">
<title>TexTab.h</title>
<!-- Node3 -->
<g id="node1" class="node">
<title>Node3</title>
<polygon fill="#bfbfbf" stroke="#000000" points="90.5,-56.5 90.5,-75.5 148.5,-75.5 148.5,-56.5 90.5,-56.5"/>
<text text-anchor="middle" x="119.5" y="-63.5" font-family="Helvetica,sans-Serif" font-size="10.00" fill="#000000">TexTab.h</text>
</g>
<!-- Node4 -->
<g id="node2" class="node">
<title>Node4</title>
<g id="a_node2"><a xlink:href="NNI_8cpp.html" target="_top" xlink:title="NNI.cpp">
<polygon fill="none" stroke="#000000" points="0,-.5 0,-19.5 53,-19.5 53,-.5 0,-.5"/>
<text text-anchor="middle" x="26.5" y="-7.5" font-family="Helvetica,sans-Serif" font-size="10.00" fill="#000000">NNI.cpp</text>
</a>
</g>
</g>
<!-- Node3&#45;&gt;Node4 -->
<g id="edge1" class="edge">
<title>Node3&#45;&gt;Node4</title>
<path fill="none" stroke="#191970" d="M94.6665,-51.0465C78.1189,-41.0824 56.8568,-28.2794 42.5137,-19.6427"/>
<polygon fill="#191970" stroke="#191970" points="92.9283,-54.0854 103.3006,-56.2455 96.5393,-48.0886 92.9283,-54.0854"/>
</g>
<!-- Node5 -->
<g id="node3" class="node">
<title>Node5</title>
<g id="a_node3"><a xlink:href="PhyloProcess_8cpp.html" target="_top" xlink:title="PhyloProcess.cpp">
<polygon fill="none" stroke="#000000" points="71.5,-.5 71.5,-19.5 167.5,-19.5 167.5,-.5 71.5,-.5"/>
<text text-anchor="middle" x="119.5" y="-7.5" font-family="Helvetica,sans-Serif" font-size="10.00" fill="#000000">PhyloProcess.cpp</text>
</a>
</g>
</g>
<!-- Node3&#45;&gt;Node5 -->
<g id="edge2" class="edge">
<title>Node3&#45;&gt;Node5</title>
<path fill="none" stroke="#191970" d="M119.5,-46.1575C119.5,-37.155 119.5,-26.9199 119.5,-19.6427"/>
<polygon fill="#191970" stroke="#191970" points="116.0001,-46.2455 119.5,-56.2455 123.0001,-46.2456 116.0001,-46.2455"/>
</g>
<!-- Node6 -->
<g id="node4" class="node">
<title>Node6</title>
<g id="a_node4"><a xlink:href="RASCATGTRSBDPGammaPhyloProcess_8cpp.html" target="_top" xlink:title="RASCATGTRSBDPGammaPhyloProcess.cpp">
<polygon fill="none" stroke="#000000" points="186,-.5 186,-19.5 407,-19.5 407,-.5 186,-.5"/>
<text text-anchor="middle" x="296.5" y="-7.5" font-family="Helvetica,sans-Serif" font-size="10.00" fill="#000000">RASCATGTRSBDPGammaPhyloProcess.cpp</text>
</a>
</g>
</g>
<!-- Node3&#45;&gt;Node6 -->
<g id="edge3" class="edge">
<title>Node3&#45;&gt;Node6</title>
<path fill="none" stroke="#191970" d="M158.357,-53.7063C190.8531,-43.425 236.5489,-28.9676 266.3396,-19.5423"/>
<polygon fill="#191970" stroke="#191970" points="157.2064,-50.3992 148.728,-56.7527 159.3179,-57.0732 157.2064,-50.3992"/>
</g>
</g>
</svg>
