<?xml version="1.0" encoding="UTF-8" standalone="no"?>
<!DOCTYPE svg PUBLIC "-//W3C//DTD SVG 1.1//EN"
 "http://www.w3.org/Graphics/SVG/1.1/DTD/svg11.dtd">
<!-- Generated by graphviz version 2.38.0 (20140413.2041)
 -->
<!-- Title: Tree.h Pages: 1 -->
<svg width="233pt" height="140pt"
 viewBox="0.00 0.00 232.50 140.00" xmlns="http://www.w3.org/2000/svg" xmlns:xlink="http://www.w3.org/1999/xlink">
<g id="graph0" class="graph" transform="scale(1 1) rotate(0) translate(4 136)">
<title>Tree.h</title>
<!-- Node0 -->
<g id="node1" class="node"><title>Node0</title>
<polygon fill="#bfbfbf" stroke="black" points="82.5,-112.5 82.5,-131.5 126.5,-131.5 126.5,-112.5 82.5,-112.5"/>
<text text-anchor="middle" x="104.5" y="-119.5" font-family="Helvetica,sans-Serif" font-size="10.00">Tree.h</text>
</g>
<!-- Node1 -->
<g id="node2" class="node"><title>Node1</title>
<polygon fill="none" stroke="#bfbfbf" points="0,-56.5 0,-75.5 45,-75.5 45,-56.5 0,-56.5"/>
<text text-anchor="middle" x="22.5" y="-63.5" font-family="Helvetica,sans-Serif" font-size="10.00">cstdlib</text>
</g>
<!-- Node0&#45;&gt;Node1 -->
<g id="edge1" class="edge"><title>Node0&#45;&gt;Node1</title>
<path fill="none" stroke="midnightblue" d="M91.3253,-112.324C78.6532,-103.979 59.2666,-91.2122 44.2944,-81.3524"/>
<polygon fill="midnightblue" stroke="midnightblue" points="45.9187,-78.2313 35.642,-75.6545 42.0688,-84.0776 45.9187,-78.2313"/>
</g>
<!-- Node2 -->
<g id="node3" class="node"><title>Node2</title>
<polygon fill="none" stroke="#bfbfbf" points="55,-0.5 55,-19.5 96,-19.5 96,-0.5 55,-0.5"/>
<text text-anchor="middle" x="75.5" y="-7.5" font-family="Helvetica,sans-Serif" font-size="10.00">string</text>
</g>
<!-- Node0&#45;&gt;Node2 -->
<g id="edge2" class="edge"><title>Node0&#45;&gt;Node2</title>
<path fill="none" stroke="midnightblue" d="M102.187,-112.376C99.7617,-103.321 95.8447,-88.6643 92.5,-76 88.3995,-60.4739 83.7928,-42.8485 80.4103,-29.8721"/>
<polygon fill="midnightblue" stroke="midnightblue" points="83.7036,-28.63 77.7963,-19.8349 76.9296,-30.3942 83.7036,-28.63"/>
</g>
<!-- Node3 -->
<g id="node4" class="node"><title>Node3</title>
<polygon fill="none" stroke="#bfbfbf" points="170.5,-0.5 170.5,-19.5 224.5,-19.5 224.5,-0.5 170.5,-0.5"/>
<text text-anchor="middle" x="197.5" y="-7.5" font-family="Helvetica,sans-Serif" font-size="10.00">iostream</text>
</g>
<!-- Node0&#45;&gt;Node3 -->
<g id="edge3" class="edge"><title>Node0&#45;&gt;Node3</title>
<path fill="none" stroke="midnightblue" d="M126.659,-112.434C142.924,-105.076 164.382,-92.957 177.5,-76 187.875,-62.5889 192.904,-43.7694 195.319,-29.8298"/>
<polygon fill="midnightblue" stroke="midnightblue" points="198.789,-30.2897 196.749,-19.8932 191.86,-29.293 198.789,-30.2897"/>
</g>
<!-- Node4 -->
<g id="node5" class="node"><title>Node4</title>
<g id="a_node5"><a xlink:href="TaxonSet_8h.html" target="_top" xlink:title="TaxonSet.h">
<polygon fill="none" stroke="black" points="102,-56.5 102,-75.5 169,-75.5 169,-56.5 102,-56.5"/>
<text text-anchor="middle" x="135.5" y="-63.5" font-family="Helvetica,sans-Serif" font-size="10.00">TaxonSet.h</text>
</a>
</g>
</g>
<!-- Node0&#45;&gt;Node4 -->
<g id="edge4" class="edge"><title>Node0&#45;&gt;Node4</title>
<path fill="none" stroke="midnightblue" d="M109.619,-112.083C113.908,-104.613 120.158,-93.7244 125.442,-84.5199"/>
<polygon fill="midnightblue" stroke="midnightblue" points="128.533,-86.1662 130.476,-75.7511 122.462,-82.6811 128.533,-86.1662"/>
</g>
<!-- Node4&#45;&gt;Node2 -->
<g id="edge6" class="edge"><title>Node4&#45;&gt;Node2</title>
<path fill="none" stroke="midnightblue" d="M125.86,-56.324C116.99,-48.3414 103.625,-36.3128 92.8921,-26.6529"/>
<polygon fill="midnightblue" stroke="midnightblue" points="95.0898,-23.922 85.3154,-19.8339 90.407,-29.1251 95.0898,-23.922"/>
</g>
<!-- Node4&#45;&gt;Node3 -->
<g id="edge7" class="edge"><title>Node4&#45;&gt;Node3</title>
<path fill="none" stroke="midnightblue" d="M145.461,-56.324C154.627,-48.3414 168.437,-36.3128 179.528,-26.6529"/>
<polygon fill="midnightblue" stroke="midnightblue" points="182.115,-29.041 187.357,-19.8339 177.518,-23.7624 182.115,-29.041"/>
</g>
<!-- Node5 -->
<g id="node6" class="node"><title>Node5</title>
<polygon fill="none" stroke="#bfbfbf" points="117,-0.5 117,-19.5 152,-19.5 152,-0.5 117,-0.5"/>
<text text-anchor="middle" x="134.5" y="-7.5" font-family="Helvetica,sans-Serif" font-size="10.00">map</text>
</g>
<!-- Node4&#45;&gt;Node5 -->
<g id="edge5" class="edge"><title>Node4&#45;&gt;Node5</title>
<path fill="none" stroke="midnightblue" d="M135.335,-56.083C135.204,-49.0059 135.016,-38.8611 134.852,-29.9865"/>
<polygon fill="midnightblue" stroke="midnightblue" points="138.347,-29.6845 134.662,-19.7511 131.348,-29.8142 138.347,-29.6845"/>
</g>
</g>
</svg>
