<?xml version="1.0" encoding="UTF-8" standalone="no"?>
<!DOCTYPE svg PUBLIC "-//W3C//DTD SVG 1.1//EN"
 "http://www.w3.org/Graphics/SVG/1.1/DTD/svg11.dtd">
<!-- Generated by graphviz version 2.38.0 (20140413.2041)
 -->
<!-- Title: Tree.cpp Pages: 1 -->
<svg width="531pt" height="196pt"
 viewBox="0.00 0.00 530.50 196.00" xmlns="http://www.w3.org/2000/svg" xmlns:xlink="http://www.w3.org/1999/xlink">
<g id="graph0" class="graph" transform="scale(1 1) rotate(0) translate(4 192)">
<title>Tree.cpp</title>
<!-- Node0 -->
<g id="node1" class="node"><title>Node0</title>
<polygon fill="#bfbfbf" stroke="black" points="230,-168.5 230,-187.5 285,-187.5 285,-168.5 230,-168.5"/>
<text text-anchor="middle" x="257.5" y="-175.5" font-family="Helvetica,sans-Serif" font-size="10.00">Tree.cpp</text>
</g>
<!-- Node1 -->
<g id="node2" class="node"><title>Node1</title>
<polygon fill="none" stroke="#bfbfbf" points="99,-112.5 99,-131.5 128,-131.5 128,-112.5 99,-112.5"/>
<text text-anchor="middle" x="113.5" y="-119.5" font-family="Helvetica,sans-Serif" font-size="10.00">list</text>
</g>
<!-- Node0&#45;&gt;Node1 -->
<g id="edge1" class="edge"><title>Node0&#45;&gt;Node1</title>
<path fill="none" stroke="midnightblue" d="M234.683,-168.444C208.242,-158.528 164.85,-142.256 137.796,-132.111"/>
<polygon fill="midnightblue" stroke="midnightblue" points="138.889,-128.783 128.297,-128.549 136.431,-135.337 138.889,-128.783"/>
</g>
<!-- Node2 -->
<g id="node3" class="node"><title>Node2</title>
<polygon fill="none" stroke="#bfbfbf" points="234.5,-56.5 234.5,-75.5 286.5,-75.5 286.5,-56.5 234.5,-56.5"/>
<text text-anchor="middle" x="260.5" y="-63.5" font-family="Helvetica,sans-Serif" font-size="10.00">sstream</text>
</g>
<!-- Node0&#45;&gt;Node2 -->
<g id="edge2" class="edge"><title>Node0&#45;&gt;Node2</title>
<path fill="none" stroke="midnightblue" d="M257.735,-168.368C258.22,-150.617 259.336,-109.666 259.993,-85.5974"/>
<polygon fill="midnightblue" stroke="midnightblue" points="263.492,-85.6832 260.266,-75.5914 256.494,-85.4922 263.492,-85.6832"/>
</g>
<!-- Node3 -->
<g id="node4" class="node"><title>Node3</title>
<polygon fill="none" stroke="#bfbfbf" points="472.5,-56.5 472.5,-75.5 522.5,-75.5 522.5,-56.5 472.5,-56.5"/>
<text text-anchor="middle" x="497.5" y="-63.5" font-family="Helvetica,sans-Serif" font-size="10.00">fstream</text>
</g>
<!-- Node0&#45;&gt;Node3 -->
<g id="edge3" class="edge"><title>Node0&#45;&gt;Node3</title>
<path fill="none" stroke="midnightblue" d="M276.493,-168.403C296.432,-159.369 328.69,-144.73 356.5,-132 395.744,-114.035 441.058,-93.1144 469.495,-79.9634"/>
<polygon fill="midnightblue" stroke="midnightblue" points="471.206,-83.0285 478.812,-75.6534 468.267,-76.6753 471.206,-83.0285"/>
</g>
<!-- Node4 -->
<g id="node5" class="node"><title>Node4</title>
<g id="a_node5"><a xlink:href="Tree_8h.html" target="_top" xlink:title="Tree.h">
<polygon fill="none" stroke="black" points="146.5,-112.5 146.5,-131.5 190.5,-131.5 190.5,-112.5 146.5,-112.5"/>
<text text-anchor="middle" x="168.5" y="-119.5" font-family="Helvetica,sans-Serif" font-size="10.00">Tree.h</text>
</a>
</g>
</g>
<!-- Node0&#45;&gt;Node4 -->
<g id="edge4" class="edge"><title>Node0&#45;&gt;Node4</title>
<path fill="none" stroke="midnightblue" d="M243.201,-168.324C229.317,-159.9 208.008,-146.971 191.696,-137.074"/>
<polygon fill="midnightblue" stroke="midnightblue" points="193.129,-133.85 182.764,-131.655 189.498,-139.834 193.129,-133.85"/>
</g>
<!-- Node10 -->
<g id="node11" class="node"><title>Node10</title>
<g id="a_node11"><a xlink:href="Random_8h.html" target="_top" xlink:title="Random.h">
<polygon fill="none" stroke="black" points="285.5,-112.5 285.5,-131.5 347.5,-131.5 347.5,-112.5 285.5,-112.5"/>
<text text-anchor="middle" x="316.5" y="-119.5" font-family="Helvetica,sans-Serif" font-size="10.00">Random.h</text>
</a>
</g>
</g>
<!-- Node0&#45;&gt;Node10 -->
<g id="edge12" class="edge"><title>Node0&#45;&gt;Node10</title>
<path fill="none" stroke="midnightblue" d="M266.979,-168.324C275.701,-160.341 288.843,-148.313 299.398,-138.653"/>
<polygon fill="midnightblue" stroke="midnightblue" points="301.834,-141.167 306.848,-131.834 297.108,-136.004 301.834,-141.167"/>
</g>
<!-- Node5 -->
<g id="node6" class="node"><title>Node5</title>
<polygon fill="none" stroke="#bfbfbf" points="171,-56.5 171,-75.5 216,-75.5 216,-56.5 171,-56.5"/>
<text text-anchor="middle" x="193.5" y="-63.5" font-family="Helvetica,sans-Serif" font-size="10.00">cstdlib</text>
</g>
<!-- Node4&#45;&gt;Node5 -->
<g id="edge5" class="edge"><title>Node4&#45;&gt;Node5</title>
<path fill="none" stroke="midnightblue" d="M172.628,-112.083C176.014,-104.77 180.916,-94.1814 185.119,-85.1034"/>
<polygon fill="midnightblue" stroke="midnightblue" points="188.423,-86.2962 189.449,-75.7511 182.071,-83.3553 188.423,-86.2962"/>
</g>
<!-- Node6 -->
<g id="node7" class="node"><title>Node6</title>
<polygon fill="none" stroke="#bfbfbf" points="0,-0.5 0,-19.5 41,-19.5 41,-0.5 0,-0.5"/>
<text text-anchor="middle" x="20.5" y="-7.5" font-family="Helvetica,sans-Serif" font-size="10.00">string</text>
</g>
<!-- Node4&#45;&gt;Node6 -->
<g id="edge6" class="edge"><title>Node4&#45;&gt;Node6</title>
<path fill="none" stroke="midnightblue" d="M146.463,-114.668C111.166,-104.346 45.1251,-84.2201 37.5,-76 25.9829,-63.5841 22.0614,-44.3443 20.8244,-30.0143"/>
<polygon fill="midnightblue" stroke="midnightblue" points="24.3088,-29.6116 20.3141,-19.7987 17.3175,-29.9609 24.3088,-29.6116"/>
</g>
<!-- Node7 -->
<g id="node8" class="node"><title>Node7</title>
<polygon fill="none" stroke="#bfbfbf" points="115.5,-0.5 115.5,-19.5 169.5,-19.5 169.5,-0.5 115.5,-0.5"/>
<text text-anchor="middle" x="142.5" y="-7.5" font-family="Helvetica,sans-Serif" font-size="10.00">iostream</text>
</g>
<!-- Node4&#45;&gt;Node7 -->
<g id="edge7" class="edge"><title>Node4&#45;&gt;Node7</title>
<path fill="none" stroke="midnightblue" d="M166.46,-112.368C162.264,-94.617 152.585,-53.6664 146.896,-29.5974"/>
<polygon fill="midnightblue" stroke="midnightblue" points="150.237,-28.5182 144.531,-19.5914 143.425,-30.1284 150.237,-28.5182"/>
</g>
<!-- Node8 -->
<g id="node9" class="node"><title>Node8</title>
<g id="a_node9"><a xlink:href="TaxonSet_8h.html" target="_top" xlink:title="TaxonSet.h">
<polygon fill="none" stroke="black" points="47,-56.5 47,-75.5 114,-75.5 114,-56.5 47,-56.5"/>
<text text-anchor="middle" x="80.5" y="-63.5" font-family="Helvetica,sans-Serif" font-size="10.00">TaxonSet.h</text>
</a>
</g>
</g>
<!-- Node4&#45;&gt;Node8 -->
<g id="edge8" class="edge"><title>Node4&#45;&gt;Node8</title>
<path fill="none" stroke="midnightblue" d="M154.361,-112.324C140.634,-103.9 119.564,-90.9709 103.436,-81.0741"/>
<polygon fill="midnightblue" stroke="midnightblue" points="104.957,-77.9016 94.6036,-75.6545 101.296,-83.8678 104.957,-77.9016"/>
</g>
<!-- Node8&#45;&gt;Node6 -->
<g id="edge10" class="edge"><title>Node8&#45;&gt;Node6</title>
<path fill="none" stroke="midnightblue" d="M70.86,-56.324C61.9904,-48.3414 48.6253,-36.3128 37.8921,-26.6529"/>
<polygon fill="midnightblue" stroke="midnightblue" points="40.0898,-23.922 30.3154,-19.8339 35.407,-29.1251 40.0898,-23.922"/>
</g>
<!-- Node8&#45;&gt;Node7 -->
<g id="edge11" class="edge"><title>Node8&#45;&gt;Node7</title>
<path fill="none" stroke="midnightblue" d="M90.4614,-56.324C99.6266,-48.3414 113.437,-36.3128 124.528,-26.6529"/>
<polygon fill="midnightblue" stroke="midnightblue" points="127.115,-29.041 132.357,-19.8339 122.518,-23.7624 127.115,-29.041"/>
</g>
<!-- Node9 -->
<g id="node10" class="node"><title>Node9</title>
<polygon fill="none" stroke="#bfbfbf" points="62,-0.5 62,-19.5 97,-19.5 97,-0.5 62,-0.5"/>
<text text-anchor="middle" x="79.5" y="-7.5" font-family="Helvetica,sans-Serif" font-size="10.00">map</text>
</g>
<!-- Node8&#45;&gt;Node9 -->
<g id="edge9" class="edge"><title>Node8&#45;&gt;Node9</title>
<path fill="none" stroke="midnightblue" d="M80.3349,-56.083C80.2038,-49.0059 80.0159,-38.8611 79.8516,-29.9865"/>
<polygon fill="midnightblue" stroke="midnightblue" points="83.3467,-29.6845 79.6621,-19.7511 76.3479,-29.8142 83.3467,-29.6845"/>
</g>
<!-- Node10&#45;&gt;Node2 -->
<g id="edge16" class="edge"><title>Node10&#45;&gt;Node2</title>
<path fill="none" stroke="midnightblue" d="M307.503,-112.324C299.306,-104.42 286.994,-92.5482 277.028,-82.9377"/>
<polygon fill="midnightblue" stroke="midnightblue" points="279.289,-80.2558 269.661,-75.8339 274.43,-85.2947 279.289,-80.2558"/>
</g>
<!-- Node10&#45;&gt;Node3 -->
<g id="edge18" class="edge"><title>Node10&#45;&gt;Node3</title>
<path fill="none" stroke="midnightblue" d="M345.18,-112.444C376.978,-102.957 428.282,-87.6507 462.441,-77.4595"/>
<polygon fill="midnightblue" stroke="midnightblue" points="463.87,-80.6859 472.452,-74.473 461.868,-73.9781 463.87,-80.6859"/>
</g>
<!-- Node10&#45;&gt;Node5 -->
<g id="edge14" class="edge"><title>Node10&#45;&gt;Node5</title>
<path fill="none" stroke="midnightblue" d="M297.01,-112.444C276.858,-103.596 245.177,-89.6875 222.169,-79.5865"/>
<polygon fill="midnightblue" stroke="midnightblue" points="223.462,-76.3316 212.899,-75.5164 220.648,-82.7411 223.462,-76.3316"/>
</g>
<!-- Node10&#45;&gt;Node7 -->
<g id="edge15" class="edge"><title>Node10&#45;&gt;Node7</title>
<path fill="none" stroke="midnightblue" d="M316.161,-112.08C315.142,-98.1427 311.132,-71.2242 295.5,-56 264.492,-25.8012 214.301,-15.7041 179.918,-12.4193"/>
<polygon fill="midnightblue" stroke="midnightblue" points="180.042,-8.91807 169.793,-11.6039 179.48,-15.8955 180.042,-8.91807"/>
</g>
<!-- Node11 -->
<g id="node12" class="node"><title>Node11</title>
<polygon fill="none" stroke="#bfbfbf" points="342.5,-56.5 342.5,-75.5 386.5,-75.5 386.5,-56.5 342.5,-56.5"/>
<text text-anchor="middle" x="364.5" y="-63.5" font-family="Helvetica,sans-Serif" font-size="10.00">cmath</text>
</g>
<!-- Node10&#45;&gt;Node11 -->
<g id="edge13" class="edge"><title>Node10&#45;&gt;Node11</title>
<path fill="none" stroke="midnightblue" d="M324.426,-112.083C331.346,-104.298 341.565,-92.8015 349.952,-83.3665"/>
<polygon fill="midnightblue" stroke="midnightblue" points="352.694,-85.5505 356.721,-75.7511 347.462,-80.8999 352.694,-85.5505"/>
</g>
<!-- Node12 -->
<g id="node13" class="node"><title>Node12</title>
<polygon fill="none" stroke="#bfbfbf" points="404.5,-56.5 404.5,-75.5 454.5,-75.5 454.5,-56.5 404.5,-56.5"/>
<text text-anchor="middle" x="429.5" y="-63.5" font-family="Helvetica,sans-Serif" font-size="10.00">iomanip</text>
</g>
<!-- Node10&#45;&gt;Node12 -->
<g id="edge17" class="edge"><title>Node10&#45;&gt;Node12</title>
<path fill="none" stroke="midnightblue" d="M334.405,-112.444C352.754,-103.675 381.505,-89.9355 402.594,-79.8579"/>
<polygon fill="midnightblue" stroke="midnightblue" points="404.165,-82.9862 411.679,-75.5164 401.147,-76.6703 404.165,-82.9862"/>
</g>
</g>
</svg>
