<?xml version="1.0" encoding="UTF-8" standalone="no"?>
<!DOCTYPE svg PUBLIC "-//W3C//DTD SVG 1.1//EN"
 "http://www.w3.org/Graphics/SVG/1.1/DTD/svg11.dtd">
<!-- Generated by graphviz version 2.40.1 (20161225.0304)
 -->
<!-- Title: Tree.h Pages: 1 -->
<svg width="1128pt" height="576pt"
 viewBox="0.00 0.00 1127.50 576.00" xmlns="http://www.w3.org/2000/svg" xmlns:xlink="http://www.w3.org/1999/xlink">
<g id="graph0" class="graph" transform="scale(1 1) rotate(0) translate(4 572)">
<title>Tree.h</title>
<!-- Node6 -->
<g id="node1" class="node">
<title>Node6</title>
<polygon fill="#bfbfbf" stroke="#000000" points="472.5,-548.5 472.5,-567.5 516.5,-567.5 516.5,-548.5 472.5,-548.5"/>
<text text-anchor="middle" x="494.5" y="-555.5" font-family="Helvetica,sans-Serif" font-size="10.00" fill="#000000">Tree.h</text>
</g>
<!-- Node7 -->
<g id="node2" class="node">
<title>Node7</title>
<g id="a_node2"><a xlink:href="BranchProcess_8h.html" target="_top" xlink:title="BranchProcess.h">
<polygon fill="none" stroke="#000000" points="288.5,-436.5 288.5,-455.5 380.5,-455.5 380.5,-436.5 288.5,-436.5"/>
<text text-anchor="middle" x="334.5" y="-443.5" font-family="Helvetica,sans-Serif" font-size="10.00" fill="#000000">BranchProcess.h</text>
</a>
</g>
</g>
<!-- Node6&#45;&gt;Node7 -->
<g id="edge1" class="edge">
<title>Node6&#45;&gt;Node7</title>
<path fill="none" stroke="#191970" d="M462.6144,-548.8568C440.129,-541.3694 410.1119,-529.1937 387.5,-512 366.4438,-495.9892 348.7955,-469.8642 340.1726,-455.7636"/>
<polygon fill="#191970" stroke="#191970" points="461.7711,-552.2615 472.3619,-551.9682 463.8997,-545.593 461.7711,-552.2615"/>
</g>
<!-- Node26 -->
<g id="node21" class="node">
<title>Node26</title>
<g id="a_node21"><a xlink:href="BranchSitePath_8h.html" target="_top" xlink:title="BranchSitePath.h">
<polygon fill="none" stroke="#000000" points="397,-492.5 397,-511.5 490,-511.5 490,-492.5 397,-492.5"/>
<text text-anchor="middle" x="443.5" y="-499.5" font-family="Helvetica,sans-Serif" font-size="10.00" fill="#000000">BranchSitePath.h</text>
</a>
</g>
</g>
<!-- Node6&#45;&gt;Node26 -->
<g id="edge22" class="edge">
<title>Node6&#45;&gt;Node26</title>
<path fill="none" stroke="#191970" d="M478.8251,-540.7884C470.1006,-531.2085 459.5646,-519.6396 452.2817,-511.6427"/>
<polygon fill="#191970" stroke="#191970" points="476.2954,-543.2088 485.6165,-548.2455 481.4709,-538.4954 476.2954,-543.2088"/>
</g>
<!-- Node37 -->
<g id="node32" class="node">
<title>Node37</title>
<g id="a_node32"><a xlink:href="TaxonSet_8cpp.html" target="_top" xlink:title="TaxonSet.cpp">
<polygon fill="none" stroke="#000000" points="508,-492.5 508,-511.5 585,-511.5 585,-492.5 508,-492.5"/>
<text text-anchor="middle" x="546.5" y="-499.5" font-family="Helvetica,sans-Serif" font-size="10.00" fill="#000000">TaxonSet.cpp</text>
</a>
</g>
</g>
<!-- Node6&#45;&gt;Node37 -->
<g id="edge38" class="edge">
<title>Node6&#45;&gt;Node37</title>
<path fill="none" stroke="#191970" d="M510.4822,-540.7884C519.3778,-531.2085 530.1204,-519.6396 537.5461,-511.6427"/>
<polygon fill="#191970" stroke="#191970" points="507.7975,-538.536 503.5577,-548.2455 512.927,-543.2992 507.7975,-538.536"/>
</g>
<!-- Node38 -->
<g id="node33" class="node">
<title>Node38</title>
<g id="a_node33"><a xlink:href="Tree_8cpp.html" target="_top" xlink:title="Tree.cpp">
<polygon fill="none" stroke="#000000" points="603,-492.5 603,-511.5 658,-511.5 658,-492.5 603,-492.5"/>
<text text-anchor="middle" x="630.5" y="-499.5" font-family="Helvetica,sans-Serif" font-size="10.00" fill="#000000">Tree.cpp</text>
</a>
</g>
</g>
<!-- Node6&#45;&gt;Node38 -->
<g id="edge39" class="edge">
<title>Node6&#45;&gt;Node38</title>
<path fill="none" stroke="#191970" d="M525.9667,-545.0431C550.6913,-534.8624 584.5805,-520.908 606.9865,-511.682"/>
<polygon fill="#191970" stroke="#191970" points="524.5676,-541.8341 516.6534,-548.878 527.2329,-548.3068 524.5676,-541.8341"/>
</g>
<!-- Node8 -->
<g id="node3" class="node">
<title>Node8</title>
<g id="a_node3"><a xlink:href="BranchProcess_8cpp.html" target="_top" xlink:title="BranchProcess.cpp">
<polygon fill="none" stroke="#000000" points="123.5,-380.5 123.5,-399.5 225.5,-399.5 225.5,-380.5 123.5,-380.5"/>
<text text-anchor="middle" x="174.5" y="-387.5" font-family="Helvetica,sans-Serif" font-size="10.00" fill="#000000">BranchProcess.cpp</text>
</a>
</g>
</g>
<!-- Node7&#45;&gt;Node8 -->
<g id="edge2" class="edge">
<title>Node7&#45;&gt;Node8</title>
<path fill="none" stroke="#191970" d="M297.5201,-433.057C268.2382,-422.8084 228.0115,-408.729 201.6461,-399.5011"/>
<polygon fill="#191970" stroke="#191970" points="296.4002,-436.3732 306.995,-436.3733 298.7127,-429.7662 296.4002,-436.3732"/>
</g>
<!-- Node9 -->
<g id="node4" class="node">
<title>Node9</title>
<g id="a_node4"><a xlink:href="PhyloProcess_8h.html" target="_top" xlink:title="PhyloProcess.h">
<polygon fill="none" stroke="#000000" points="358.5,-380.5 358.5,-399.5 444.5,-399.5 444.5,-380.5 358.5,-380.5"/>
<text text-anchor="middle" x="401.5" y="-387.5" font-family="Helvetica,sans-Serif" font-size="10.00" fill="#000000">PhyloProcess.h</text>
</a>
</g>
</g>
<!-- Node7&#45;&gt;Node9 -->
<g id="edge3" class="edge">
<title>Node7&#45;&gt;Node9</title>
<path fill="none" stroke="#191970" d="M354.0676,-429.645C365.7198,-419.9058 380.1084,-407.8795 389.9632,-399.6427"/>
<polygon fill="#191970" stroke="#191970" points="351.5988,-427.1469 346.1705,-436.2455 356.0879,-432.5179 351.5988,-427.1469"/>
</g>
<!-- Node24 -->
<g id="node19" class="node">
<title>Node24</title>
<g id="a_node19"><a xlink:href="GammaBranchProcess_8h.html" target="_top" xlink:title="GammaBranchProcess.h">
<polygon fill="none" stroke="#000000" points="190.5,-185 190.5,-204 316.5,-204 316.5,-185 190.5,-185"/>
<text text-anchor="middle" x="253.5" y="-192" font-family="Helvetica,sans-Serif" font-size="10.00" fill="#000000">GammaBranchProcess.h</text>
</a>
</g>
</g>
<!-- Node7&#45;&gt;Node24 -->
<g id="edge18" class="edge">
<title>Node7&#45;&gt;Node24</title>
<path fill="none" stroke="#191970" d="M320.5514,-428.3424C305.9779,-408.8792 283.7079,-376.0623 272.5,-344 254.8873,-293.6159 253.2797,-228.5975 253.3533,-204.2626"/>
<polygon fill="#191970" stroke="#191970" points="317.7809,-430.4812 326.6384,-436.2946 323.3394,-426.2265 317.7809,-430.4812"/>
</g>
<!-- Node10 -->
<g id="node5" class="node">
<title>Node10</title>
<g id="a_node5"><a xlink:href="MatrixPhyloProcess_8h.html" target="_top" xlink:title="MatrixPhyloProcess.h">
<polygon fill="none" stroke="#000000" points="512,-252 512,-271 625,-271 625,-252 512,-252"/>
<text text-anchor="middle" x="568.5" y="-259" font-family="Helvetica,sans-Serif" font-size="10.00" fill="#000000">MatrixPhyloProcess.h</text>
</a>
</g>
</g>
<!-- Node9&#45;&gt;Node10 -->
<g id="edge4" class="edge">
<title>Node9&#45;&gt;Node10</title>
<path fill="none" stroke="#191970" d="M422.152,-374.1091C457.1575,-347.1737 527.1308,-293.332 555.8022,-271.2705"/>
<polygon fill="#191970" stroke="#191970" points="419.8431,-371.4694 414.0521,-380.3416 424.1119,-377.0172 419.8431,-371.4694"/>
</g>
<!-- Node22 -->
<g id="node17" class="node">
<title>Node22</title>
<g id="a_node17"><a xlink:href="NNI_8cpp.html" target="_top" xlink:title="NNI.cpp">
<polygon fill="none" stroke="#000000" points="282,-319 282,-338 335,-338 335,-319 282,-319"/>
<text text-anchor="middle" x="308.5" y="-326" font-family="Helvetica,sans-Serif" font-size="10.00" fill="#000000">NNI.cpp</text>
</a>
</g>
</g>
<!-- Node9&#45;&gt;Node22 -->
<g id="edge16" class="edge">
<title>Node9&#45;&gt;Node22</title>
<path fill="none" stroke="#191970" d="M378.4935,-374.786C361.1038,-363.2864 337.7685,-347.855 322.9292,-338.0419"/>
<polygon fill="#191970" stroke="#191970" points="376.697,-377.7941 386.9688,-380.3906 380.5582,-371.9553 376.697,-377.7941"/>
</g>
<!-- Node23 -->
<g id="node18" class="node">
<title>Node23</title>
<g id="a_node18"><a xlink:href="PhyloProcess_8cpp.html" target="_top" xlink:title="PhyloProcess.cpp">
<polygon fill="none" stroke="#000000" points="353.5,-319 353.5,-338 449.5,-338 449.5,-319 353.5,-319"/>
<text text-anchor="middle" x="401.5" y="-326" font-family="Helvetica,sans-Serif" font-size="10.00" fill="#000000">PhyloProcess.cpp</text>
</a>
</g>
</g>
<!-- Node9&#45;&gt;Node23 -->
<g id="edge17" class="edge">
<title>Node9&#45;&gt;Node23</title>
<path fill="none" stroke="#191970" d="M401.5,-370.2462C401.5,-359.5519 401.5,-346.814 401.5,-338.2449"/>
<polygon fill="#191970" stroke="#191970" points="398.0001,-370.3906 401.5,-380.3906 405.0001,-370.3907 398.0001,-370.3906"/>
</g>
<!-- Node11 -->
<g id="node6" class="node">
<title>Node11</title>
<g id="a_node6"><a xlink:href="ExpoConjugateGTRPhyloProcess_8h.html" target="_top" xlink:title="ExpoConjugateGTRPhyloProcess.h">
<polygon fill="none" stroke="#000000" points="535,-185 535,-204 708,-204 708,-185 535,-185"/>
<text text-anchor="middle" x="621.5" y="-192" font-family="Helvetica,sans-Serif" font-size="10.00" fill="#000000">ExpoConjugateGTRPhyloProcess.h</text>
</a>
</g>
</g>
<!-- Node10&#45;&gt;Node11 -->
<g id="edge5" class="edge">
<title>Node10&#45;&gt;Node11</title>
<path fill="none" stroke="#191970" d="M582.463,-243.8486C592.5324,-231.1194 605.7401,-214.4229 613.9205,-204.0817"/>
<polygon fill="#191970" stroke="#191970" points="579.5527,-241.8863 576.0936,-251.9005 585.0427,-246.2291 579.5527,-241.8863"/>
</g>
<!-- Node19 -->
<g id="node14" class="node">
<title>Node19</title>
<g id="a_node14"><a xlink:href="GeneralPathSuffStatMatrixPhyloProcess_8h.html" target="_top" xlink:title="GeneralPathSuffStatMatrix\lPhyloProcess.h">
<polygon fill="none" stroke="#000000" points="763.5,-179.5 763.5,-209.5 897.5,-209.5 897.5,-179.5 763.5,-179.5"/>
<text text-anchor="start" x="771.5" y="-197.5" font-family="Helvetica,sans-Serif" font-size="10.00" fill="#000000">GeneralPathSuffStatMatrix</text>
<text text-anchor="middle" x="830.5" y="-186.5" font-family="Helvetica,sans-Serif" font-size="10.00" fill="#000000">PhyloProcess.h</text>
</a>
</g>
</g>
<!-- Node10&#45;&gt;Node19 -->
<g id="edge13" class="edge">
<title>Node10&#45;&gt;Node19</title>
<path fill="none" stroke="#191970" d="M615.5616,-249.4652C659.2627,-238.2897 724.4941,-221.6084 771.6268,-209.5553"/>
<polygon fill="#191970" stroke="#191970" points="614.581,-246.1032 605.76,-251.9717 616.3154,-252.885 614.581,-246.1032"/>
</g>
<!-- Node21 -->
<g id="node16" class="node">
<title>Node21</title>
<g id="a_node16"><a xlink:href="MatrixPhyloProcess_8cpp.html" target="_top" xlink:title="MatrixPhyloProcess.cpp">
<polygon fill="none" stroke="#000000" points="394,-185 394,-204 517,-204 517,-185 394,-185"/>
<text text-anchor="middle" x="455.5" y="-192" font-family="Helvetica,sans-Serif" font-size="10.00" fill="#000000">MatrixPhyloProcess.cpp</text>
</a>
</g>
</g>
<!-- Node10&#45;&gt;Node21 -->
<g id="edge15" class="edge">
<title>Node10&#45;&gt;Node21</title>
<path fill="none" stroke="#191970" d="M543.5574,-246.711C521.6567,-233.7256 490.443,-215.2184 471.6601,-204.0817"/>
<polygon fill="#191970" stroke="#191970" points="541.9231,-249.811 552.3099,-251.9005 545.4932,-243.7898 541.9231,-249.811"/>
</g>
<!-- Node12 -->
<g id="node7" class="node">
<title>Node12</title>
<g id="a_node7"><a xlink:href="ExpoConjugateGTRPhyloProcess_8cpp.html" target="_top" xlink:title="ExpoConjugateGTRPhyloProcess.cpp">
<polygon fill="none" stroke="#000000" points="598.5,-118 598.5,-137 782.5,-137 782.5,-118 598.5,-118"/>
<text text-anchor="middle" x="690.5" y="-125" font-family="Helvetica,sans-Serif" font-size="10.00" fill="#000000">ExpoConjugateGTRPhyloProcess.cpp</text>
</a>
</g>
</g>
<!-- Node11&#45;&gt;Node12 -->
<g id="edge6" class="edge">
<title>Node11&#45;&gt;Node12</title>
<path fill="none" stroke="#191970" d="M638.9266,-177.5785C652.1238,-164.7639 669.7775,-147.6218 680.6323,-137.0817"/>
<polygon fill="#191970" stroke="#191970" points="636.1221,-175.4232 631.386,-184.9005 640.9985,-180.4452 636.1221,-175.4232"/>
</g>
<!-- Node13 -->
<g id="node8" class="node">
<title>Node13</title>
<g id="a_node8"><a xlink:href="RASCATGTRSBDPGammaPhyloProcess_8h.html" target="_top" xlink:title="RASCATGTRSBDPGammaPhyloProcess.h">
<polygon fill="none" stroke="#000000" points="370.5,-118 370.5,-137 580.5,-137 580.5,-118 370.5,-118"/>
<text text-anchor="middle" x="475.5" y="-125" font-family="Helvetica,sans-Serif" font-size="10.00" fill="#000000">RASCATGTRSBDPGammaPhyloProcess.h</text>
</a>
</g>
</g>
<!-- Node11&#45;&gt;Node13 -->
<g id="edge7" class="edge">
<title>Node11&#45;&gt;Node13</title>
<path fill="none" stroke="#191970" d="M591.1498,-180.5722C562.7852,-167.5555 521.1893,-148.467 496.3794,-137.0817"/>
<polygon fill="#191970" stroke="#191970" points="590.0333,-183.9107 600.5818,-184.9005 592.9529,-177.5486 590.0333,-183.9107"/>
</g>
<!-- Node17 -->
<g id="node12" class="node">
<title>Node17</title>
<g id="a_node12"><a xlink:href="RASCATGTRDPGammaPhyloProcess_8h.html" target="_top" xlink:title="RASCATGTRDPGammaPhyloProcess.h">
<polygon fill="none" stroke="#000000" points="155,-118 155,-137 352,-137 352,-118 155,-118"/>
<text text-anchor="middle" x="253.5" y="-125" font-family="Helvetica,sans-Serif" font-size="10.00" fill="#000000">RASCATGTRDPGammaPhyloProcess.h</text>
</a>
</g>
</g>
<!-- Node11&#45;&gt;Node17 -->
<g id="edge11" class="edge">
<title>Node11&#45;&gt;Node17</title>
<path fill="none" stroke="#191970" d="M558.9885,-183.1188C487.7789,-170.154 372.6775,-149.1981 305.9517,-137.0496"/>
<polygon fill="#191970" stroke="#191970" points="558.7002,-186.6238 569.1654,-184.9717 559.9541,-179.737 558.7002,-186.6238"/>
</g>
<!-- Node14 -->
<g id="node9" class="node">
<title>Node14</title>
<g id="a_node9"><a xlink:href="Model_8h.html" target="_top" xlink:title="Model.h">
<polygon fill="none" stroke="#000000" points="412,-56.5 412,-75.5 463,-75.5 463,-56.5 412,-56.5"/>
<text text-anchor="middle" x="437.5" y="-63.5" font-family="Helvetica,sans-Serif" font-size="10.00" fill="#000000">Model.h</text>
</a>
</g>
</g>
<!-- Node13&#45;&gt;Node14 -->
<g id="edge8" class="edge">
<title>Node13&#45;&gt;Node14</title>
<path fill="none" stroke="#191970" d="M464.1221,-109.0857C457.3539,-98.132 449.0389,-84.6748 443.5212,-75.7449"/>
<polygon fill="#191970" stroke="#191970" points="461.3286,-111.2233 469.5625,-117.8906 467.2835,-107.5438 461.3286,-111.2233"/>
</g>
<!-- Node16 -->
<g id="node11" class="node">
<title>Node16</title>
<g id="a_node11"><a xlink:href="RASCATGTRSBDPGammaPhyloProcess_8cpp.html" target="_top" xlink:title="RASCATGTRSBDPGammaPhyloProcess.cpp">
<polygon fill="none" stroke="#000000" points="481,-56.5 481,-75.5 702,-75.5 702,-56.5 481,-56.5"/>
<text text-anchor="middle" x="591.5" y="-63.5" font-family="Helvetica,sans-Serif" font-size="10.00" fill="#000000">RASCATGTRSBDPGammaPhyloProcess.cpp</text>
</a>
</g>
</g>
<!-- Node13&#45;&gt;Node16 -->
<g id="edge10" class="edge">
<title>Node13&#45;&gt;Node16</title>
<path fill="none" stroke="#191970" d="M502.7157,-113.071C524.5459,-101.4972 554.5685,-85.5801 573.5023,-75.5419"/>
<polygon fill="#191970" stroke="#191970" points="500.8206,-110.1142 493.625,-117.8906 504.0996,-116.2987 500.8206,-110.1142"/>
</g>
<!-- Node15 -->
<g id="node10" class="node">
<title>Node15</title>
<g id="a_node10"><a xlink:href="PB_8cpp.html" target="_top" xlink:title="PB.cpp">
<polygon fill="none" stroke="#000000" points="413,-.5 413,-19.5 462,-19.5 462,-.5 413,-.5"/>
<text text-anchor="middle" x="437.5" y="-7.5" font-family="Helvetica,sans-Serif" font-size="10.00" fill="#000000">PB.cpp</text>
</a>
</g>
</g>
<!-- Node14&#45;&gt;Node15 -->
<g id="edge9" class="edge">
<title>Node14&#45;&gt;Node15</title>
<path fill="none" stroke="#191970" d="M437.5,-46.1575C437.5,-37.155 437.5,-26.9199 437.5,-19.6427"/>
<polygon fill="#191970" stroke="#191970" points="434.0001,-46.2455 437.5,-56.2455 441.0001,-46.2456 434.0001,-46.2455"/>
</g>
<!-- Node18 -->
<g id="node13" class="node">
<title>Node18</title>
<g id="a_node13"><a xlink:href="RASCATGTRDPGammaPhyloProcess_8cpp.html" target="_top" xlink:title="RASCATGTRDPGammaPhyloProcess.cpp">
<polygon fill="none" stroke="#000000" points="150,-56.5 150,-75.5 357,-75.5 357,-56.5 150,-56.5"/>
<text text-anchor="middle" x="253.5" y="-63.5" font-family="Helvetica,sans-Serif" font-size="10.00" fill="#000000">RASCATGTRDPGammaPhyloProcess.cpp</text>
</a>
</g>
</g>
<!-- Node17&#45;&gt;Node18 -->
<g id="edge12" class="edge">
<title>Node17&#45;&gt;Node18</title>
<path fill="none" stroke="#191970" d="M253.5,-107.7462C253.5,-97.0519 253.5,-84.314 253.5,-75.7449"/>
<polygon fill="#191970" stroke="#191970" points="250.0001,-107.8906 253.5,-117.8906 257.0001,-107.8907 250.0001,-107.8906"/>
</g>
<!-- Node20 -->
<g id="node15" class="node">
<title>Node20</title>
<g id="a_node15"><a xlink:href="GeneralPathSuffStatMatrixPhyloProcess_8cpp.html" target="_top" xlink:title="GeneralPathSuffStatMatrix\lPhyloProcess.cpp">
<polygon fill="none" stroke="#000000" points="800.5,-112.5 800.5,-142.5 934.5,-142.5 934.5,-112.5 800.5,-112.5"/>
<text text-anchor="start" x="808.5" y="-130.5" font-family="Helvetica,sans-Serif" font-size="10.00" fill="#000000">GeneralPathSuffStatMatrix</text>
<text text-anchor="middle" x="867.5" y="-119.5" font-family="Helvetica,sans-Serif" font-size="10.00" fill="#000000">PhyloProcess.cpp</text>
</a>
</g>
</g>
<!-- Node19&#45;&gt;Node20 -->
<g id="edge14" class="edge">
<title>Node19&#45;&gt;Node20</title>
<path fill="none" stroke="#191970" d="M843.7627,-170.4837C848.8897,-161.1996 854.6016,-150.8565 859.1374,-142.6432"/>
<polygon fill="#191970" stroke="#191970" points="840.6663,-168.8508 838.8959,-179.2967 846.794,-172.2348 840.6663,-168.8508"/>
</g>
<!-- Node24&#45;&gt;Node13 -->
<g id="edge20" class="edge">
<title>Node24&#45;&gt;Node13</title>
<path fill="none" stroke="#191970" d="M294.9317,-181.9958C338.0482,-168.9832 404.627,-148.8896 443.7518,-137.0817"/>
<polygon fill="#191970" stroke="#191970" points="293.8694,-178.6604 285.3072,-184.9005 295.892,-185.3619 293.8694,-178.6604"/>
</g>
<!-- Node24&#45;&gt;Node17 -->
<g id="edge21" class="edge">
<title>Node24&#45;&gt;Node17</title>
<path fill="none" stroke="#191970" d="M253.5,-174.6079C253.5,-162.214 253.5,-146.8263 253.5,-137.0817"/>
<polygon fill="#191970" stroke="#191970" points="250.0001,-174.9005 253.5,-184.9005 257.0001,-174.9006 250.0001,-174.9005"/>
</g>
<!-- Node25 -->
<g id="node20" class="node">
<title>Node25</title>
<g id="a_node20"><a xlink:href="GammaBranchProcess_8cpp.html" target="_top" xlink:title="GammaBranchProcess.cpp">
<polygon fill="none" stroke="#000000" points="0,-118 0,-137 137,-137 137,-118 0,-118"/>
<text text-anchor="middle" x="68.5" y="-125" font-family="Helvetica,sans-Serif" font-size="10.00" fill="#000000">GammaBranchProcess.cpp</text>
</a>
</g>
</g>
<!-- Node24&#45;&gt;Node25 -->
<g id="edge19" class="edge">
<title>Node24&#45;&gt;Node25</title>
<path fill="none" stroke="#191970" d="M217.3725,-181.416C181.4129,-168.3928 127.0804,-148.7156 94.9568,-137.0817"/>
<polygon fill="#191970" stroke="#191970" points="216.3998,-184.7861 226.994,-184.9005 218.7835,-178.2044 216.3998,-184.7861"/>
</g>
<!-- Node27 -->
<g id="node22" class="node">
<title>Node27</title>
<g id="a_node22"><a xlink:href="SubstitutionProcess_8h.html" target="_top" xlink:title="SubstitutionProcess.h">
<polygon fill="none" stroke="#000000" points="412,-436.5 412,-455.5 525,-455.5 525,-436.5 412,-436.5"/>
<text text-anchor="middle" x="468.5" y="-443.5" font-family="Helvetica,sans-Serif" font-size="10.00" fill="#000000">SubstitutionProcess.h</text>
</a>
</g>
</g>
<!-- Node26&#45;&gt;Node27 -->
<g id="edge23" class="edge">
<title>Node26&#45;&gt;Node27</title>
<path fill="none" stroke="#191970" d="M451.9626,-483.0437C456.0745,-473.8331 460.8394,-463.1598 464.1952,-455.6427"/>
<polygon fill="#191970" stroke="#191970" points="448.7352,-481.6874 447.8547,-492.2455 455.1272,-484.541 448.7352,-481.6874"/>
</g>
<!-- Node27&#45;&gt;Node9 -->
<g id="edge24" class="edge">
<title>Node27&#45;&gt;Node9</title>
<path fill="none" stroke="#191970" d="M448.9324,-429.645C437.2802,-419.9058 422.8916,-407.8795 413.0368,-399.6427"/>
<polygon fill="#191970" stroke="#191970" points="446.9121,-432.5179 456.8295,-436.2455 451.4012,-427.1469 446.9121,-432.5179"/>
</g>
<!-- Node28 -->
<g id="node23" class="node">
<title>Node28</title>
<g id="a_node23"><a xlink:href="MatrixSubstitutionProcess_8h.html" target="_top" xlink:title="MatrixSubstitutionProcess.h">
<polygon fill="none" stroke="#000000" points="548.5,-380.5 548.5,-399.5 688.5,-399.5 688.5,-380.5 548.5,-380.5"/>
<text text-anchor="middle" x="618.5" y="-387.5" font-family="Helvetica,sans-Serif" font-size="10.00" fill="#000000">MatrixSubstitutionProcess.h</text>
</a>
</g>
</g>
<!-- Node27&#45;&gt;Node28 -->
<g id="edge25" class="edge">
<title>Node27&#45;&gt;Node28</title>
<path fill="none" stroke="#191970" d="M503.8871,-432.7888C531.2753,-422.5639 568.5479,-408.6488 593.0506,-399.5011"/>
<polygon fill="#191970" stroke="#191970" points="502.4302,-429.5967 494.2859,-436.3733 504.8785,-436.1546 502.4302,-429.5967"/>
</g>
<!-- Node36 -->
<g id="node31" class="node">
<title>Node36</title>
<g id="a_node31"><a xlink:href="SubstitutionProcess_8cpp.html" target="_top" xlink:title="SubstitutionProcess.cpp">
<polygon fill="none" stroke="#000000" points="707,-380.5 707,-399.5 830,-399.5 830,-380.5 707,-380.5"/>
<text text-anchor="middle" x="768.5" y="-387.5" font-family="Helvetica,sans-Serif" font-size="10.00" fill="#000000">SubstitutionProcess.cpp</text>
</a>
</g>
</g>
<!-- Node27&#45;&gt;Node36 -->
<g id="edge37" class="edge">
<title>Node27&#45;&gt;Node36</title>
<path fill="none" stroke="#191970" d="M529.7568,-434.5654C585.0859,-424.2373 665.5678,-409.214 717.4803,-399.5237"/>
<polygon fill="#191970" stroke="#191970" points="528.9189,-431.1613 519.731,-436.4369 530.2034,-438.0424 528.9189,-431.1613"/>
</g>
<!-- Node28&#45;&gt;Node10 -->
<g id="edge26" class="edge">
<title>Node28&#45;&gt;Node10</title>
<path fill="none" stroke="#191970" d="M574.3002,-376.411C558.9332,-369.3264 543.3436,-358.9258 534.5,-344 519.812,-319.2104 544.4158,-286.892 558.9693,-271.0713"/>
<polygon fill="#191970" stroke="#191970" points="573.2029,-379.7466 583.7773,-380.4044 575.9211,-373.2959 573.2029,-379.7466"/>
</g>
<!-- Node29 -->
<g id="node24" class="node">
<title>Node29</title>
<g id="a_node24"><a xlink:href="GTRSubstitutionProcess_8h.html" target="_top" xlink:title="GTRSubstitutionProcess.h">
<polygon fill="none" stroke="#000000" points="809.5,-319 809.5,-338 943.5,-338 943.5,-319 809.5,-319"/>
<text text-anchor="middle" x="876.5" y="-326" font-family="Helvetica,sans-Serif" font-size="10.00" fill="#000000">GTRSubstitutionProcess.h</text>
</a>
</g>
</g>
<!-- Node28&#45;&gt;Node29 -->
<g id="edge27" class="edge">
<title>Node28&#45;&gt;Node29</title>
<path fill="none" stroke="#191970" d="M668.2779,-378.1343C717.2407,-366.463 791.0512,-348.8686 836.3767,-338.0643"/>
<polygon fill="#191970" stroke="#191970" points="667.4453,-374.7347 658.5294,-380.4581 669.0685,-381.5439 667.4453,-374.7347"/>
</g>
<!-- Node32 -->
<g id="node27" class="node">
<title>Node32</title>
<g id="a_node27"><a xlink:href="GeneralPathSuffStatMatrixSubstitutionProcess_8h.html" target="_top" xlink:title="GeneralPathSuffStatMatrix\lSubstitutionProcess.h">
<polygon fill="none" stroke="#000000" points="961.5,-313.5 961.5,-343.5 1095.5,-343.5 1095.5,-313.5 961.5,-313.5"/>
<text text-anchor="start" x="969.5" y="-331.5" font-family="Helvetica,sans-Serif" font-size="10.00" fill="#000000">GeneralPathSuffStatMatrix</text>
<text text-anchor="middle" x="1028.5" y="-320.5" font-family="Helvetica,sans-Serif" font-size="10.00" fill="#000000">SubstitutionProcess.h</text>
</a>
</g>
</g>
<!-- Node28&#45;&gt;Node32 -->
<g id="edge32" class="edge">
<title>Node28&#45;&gt;Node32</title>
<path fill="none" stroke="#191970" d="M698.7043,-379.5584C781.5505,-368.6642 905.2116,-352.07 952.5,-344 955.4203,-343.5016 958.4,-342.9745 961.4072,-342.4271"/>
<polygon fill="#191970" stroke="#191970" points="698.0185,-376.1183 688.5595,-380.8908 698.9301,-383.0587 698.0185,-376.1183"/>
</g>
<!-- Node34 -->
<g id="node29" class="node">
<title>Node34</title>
<g id="a_node29"><a xlink:href="MatrixSubstitutionProcess_8cpp.html" target="_top" xlink:title="MatrixSubstitutionProcess.cpp">
<polygon fill="none" stroke="#000000" points="543.5,-319 543.5,-338 693.5,-338 693.5,-319 543.5,-319"/>
<text text-anchor="middle" x="618.5" y="-326" font-family="Helvetica,sans-Serif" font-size="10.00" fill="#000000">MatrixSubstitutionProcess.cpp</text>
</a>
</g>
</g>
<!-- Node28&#45;&gt;Node34 -->
<g id="edge35" class="edge">
<title>Node28&#45;&gt;Node34</title>
<path fill="none" stroke="#191970" d="M618.5,-370.2462C618.5,-359.5519 618.5,-346.814 618.5,-338.2449"/>
<polygon fill="#191970" stroke="#191970" points="615.0001,-370.3906 618.5,-380.3906 622.0001,-370.3907 615.0001,-370.3906"/>
</g>
<!-- Node35 -->
<g id="node30" class="node">
<title>Node35</title>
<g id="a_node30"><a xlink:href="Propagate_8cpp.html" target="_top" xlink:title="Propagate.cpp">
<polygon fill="none" stroke="#000000" points="711.5,-319 711.5,-338 791.5,-338 791.5,-319 711.5,-319"/>
<text text-anchor="middle" x="751.5" y="-326" font-family="Helvetica,sans-Serif" font-size="10.00" fill="#000000">Propagate.cpp</text>
</a>
</g>
</g>
<!-- Node28&#45;&gt;Node35 -->
<g id="edge36" class="edge">
<title>Node28&#45;&gt;Node35</title>
<path fill="none" stroke="#191970" d="M648.3666,-376.1895C673.4947,-364.5701 708.7668,-348.2601 730.8647,-338.0419"/>
<polygon fill="#191970" stroke="#191970" points="646.8889,-373.0167 639.2813,-380.3906 649.8269,-379.3703 646.8889,-373.0167"/>
</g>
<!-- Node29&#45;&gt;Node10 -->
<g id="edge28" class="edge">
<title>Node29&#45;&gt;Node10</title>
<path fill="none" stroke="#191970" d="M822.7224,-316.8016C763.1099,-303.834 668.0788,-283.1616 612.6494,-271.1039"/>
<polygon fill="#191970" stroke="#191970" points="822.1827,-320.266 832.6982,-318.9717 823.6707,-313.426 822.1827,-320.266"/>
</g>
<!-- Node30 -->
<g id="node25" class="node">
<title>Node30</title>
<g id="a_node25"><a xlink:href="ExpoConjugateGTRSubstitutionProcess_8h.html" target="_top" xlink:title="ExpoConjugateGTRSubstitution\lProcess.h">
<polygon fill="none" stroke="#000000" points="773.5,-246.5 773.5,-276.5 929.5,-276.5 929.5,-246.5 773.5,-246.5"/>
<text text-anchor="start" x="781.5" y="-264.5" font-family="Helvetica,sans-Serif" font-size="10.00" fill="#000000">ExpoConjugateGTRSubstitution</text>
<text text-anchor="middle" x="851.5" y="-253.5" font-family="Helvetica,sans-Serif" font-size="10.00" fill="#000000">Process.h</text>
</a>
</g>
</g>
<!-- Node29&#45;&gt;Node30 -->
<g id="edge29" class="edge">
<title>Node29&#45;&gt;Node30</title>
<path fill="none" stroke="#191970" d="M869.3847,-309.4311C865.4903,-298.9939 860.7337,-286.2463 857.1051,-276.5218"/>
<polygon fill="#191970" stroke="#191970" points="866.143,-310.7551 872.9181,-318.9005 872.7013,-308.3079 866.143,-310.7551"/>
</g>
<!-- Node30&#45;&gt;Node11 -->
<g id="edge30" class="edge">
<title>Node30&#45;&gt;Node11</title>
<path fill="none" stroke="#191970" d="M790.209,-243.6457C746.4925,-230.9109 689.4217,-214.2859 654.1301,-204.0053"/>
<polygon fill="#191970" stroke="#191970" points="789.3037,-247.0274 799.8835,-246.4639 791.2615,-240.3067 789.3037,-247.0274"/>
</g>
<!-- Node31 -->
<g id="node26" class="node">
<title>Node31</title>
<g id="a_node26"><a xlink:href="ExpoConjugateGTRSubstitutionProcess_8cpp.html" target="_top" xlink:title="ExpoConjugateGTRSubstitution\lProcess.cpp">
<polygon fill="none" stroke="#000000" points="915.5,-179.5 915.5,-209.5 1071.5,-209.5 1071.5,-179.5 915.5,-179.5"/>
<text text-anchor="start" x="923.5" y="-197.5" font-family="Helvetica,sans-Serif" font-size="10.00" fill="#000000">ExpoConjugateGTRSubstitution</text>
<text text-anchor="middle" x="993.5" y="-186.5" font-family="Helvetica,sans-Serif" font-size="10.00" fill="#000000">Process.cpp</text>
</a>
</g>
</g>
<!-- Node30&#45;&gt;Node31 -->
<g id="edge31" class="edge">
<title>Node30&#45;&gt;Node31</title>
<path fill="none" stroke="#191970" d="M892.4253,-242.1902C914.3011,-231.8685 940.8496,-219.3421 961.2475,-209.7177"/>
<polygon fill="#191970" stroke="#191970" points="890.9179,-239.0313 883.3676,-246.4639 893.905,-245.362 890.9179,-239.0313"/>
</g>
<!-- Node32&#45;&gt;Node19 -->
<g id="edge33" class="edge">
<title>Node32&#45;&gt;Node19</title>
<path fill="none" stroke="#191970" d="M1006.0034,-306.4449C984.2474,-285.3839 952.5683,-255.49 938.5,-246 916.8017,-231.363 890.2999,-218.6585 868.9793,-209.53"/>
<polygon fill="#191970" stroke="#191970" points="1003.6293,-309.0182 1013.2398,-313.4781 1008.5081,-303.9985 1003.6293,-309.0182"/>
</g>
<!-- Node33 -->
<g id="node28" class="node">
<title>Node33</title>
<g id="a_node28"><a xlink:href="GeneralPathSuffStatMatrixSubstitutionProcess_8cpp.html" target="_top" xlink:title="GeneralPathSuffStatMatrix\lSubstitutionProcess.cpp">
<polygon fill="none" stroke="#000000" points="985.5,-246.5 985.5,-276.5 1119.5,-276.5 1119.5,-246.5 985.5,-246.5"/>
<text text-anchor="start" x="993.5" y="-264.5" font-family="Helvetica,sans-Serif" font-size="10.00" fill="#000000">GeneralPathSuffStatMatrix</text>
<text text-anchor="middle" x="1052.5" y="-253.5" font-family="Helvetica,sans-Serif" font-size="10.00" fill="#000000">SubstitutionProcess.cpp</text>
</a>
</g>
</g>
<!-- Node32&#45;&gt;Node33 -->
<g id="edge34" class="edge">
<title>Node32&#45;&gt;Node33</title>
<path fill="none" stroke="#191970" d="M1037.4157,-303.6103C1040.6593,-294.5553 1044.2254,-284.5998 1047.0756,-276.6432"/>
<polygon fill="#191970" stroke="#191970" points="1034.0233,-302.7021 1033.946,-313.2967 1040.6133,-305.0627 1034.0233,-302.7021"/>
</g>
</g>
</svg>
