<?xml version="1.0" encoding="UTF-8" standalone="no"?>
<!DOCTYPE svg PUBLIC "-//W3C//DTD SVG 1.1//EN"
 "http://www.w3.org/Graphics/SVG/1.1/DTD/svg11.dtd">
<!-- Generated by graphviz version 2.38.0 (20140413.2041)
 -->
<!-- Title: TreeList.cpp Pages: 1 -->
<svg width="1170pt" height="196pt"
 viewBox="0.00 0.00 1170.00 196.00" xmlns="http://www.w3.org/2000/svg" xmlns:xlink="http://www.w3.org/1999/xlink">
<g id="graph0" class="graph" transform="scale(1 1) rotate(0) translate(4 192)">
<title>TreeList.cpp</title>
<!-- Node0 -->
<g id="node1" class="node"><title>Node0</title>
<polygon fill="#bfbfbf" stroke="black" points="418.5,-168.5 418.5,-187.5 489.5,-187.5 489.5,-168.5 418.5,-168.5"/>
<text text-anchor="middle" x="454" y="-175.5" font-family="Helvetica,sans-Serif" font-size="10.00">TreeList.cpp</text>
</g>
<!-- Node1 -->
<g id="node2" class="node"><title>Node1</title>
<g id="a_node2"><a xlink:href="phylo_8h.html" target="_top" xlink:title="phylo.h">
<polygon fill="none" stroke="black" points="430,-112.5 430,-131.5 478,-131.5 478,-112.5 430,-112.5"/>
<text text-anchor="middle" x="454" y="-119.5" font-family="Helvetica,sans-Serif" font-size="10.00">phylo.h</text>
</a>
</g>
</g>
<!-- Node0&#45;&gt;Node1 -->
<g id="edge1" class="edge"><title>Node0&#45;&gt;Node1</title>
<path fill="none" stroke="midnightblue" d="M454,-168.083C454,-161.006 454,-150.861 454,-141.986"/>
<polygon fill="midnightblue" stroke="midnightblue" points="457.5,-141.751 454,-131.751 450.5,-141.751 457.5,-141.751"/>
</g>
<!-- Node2 -->
<g id="node3" class="node"><title>Node2</title>
<polygon fill="none" stroke="#bfbfbf" points="0,-0.5 0,-19.5 52,-19.5 52,-0.5 0,-0.5"/>
<text text-anchor="middle" x="26" y="-7.5" font-family="Helvetica,sans-Serif" font-size="10.00">sstream</text>
</g>
<!-- Node1&#45;&gt;Node2 -->
<g id="edge2" class="edge"><title>Node1&#45;&gt;Node2</title>
<path fill="none" stroke="midnightblue" d="M429.918,-120.576C356.368,-118.907 135.972,-111.032 75,-76 56.103,-65.1424 42.1913,-43.7775 34.1163,-28.5051"/>
<polygon fill="midnightblue" stroke="midnightblue" points="37.2386,-26.9232 29.659,-19.5205 30.9679,-30.0342 37.2386,-26.9232"/>
</g>
<!-- Node3 -->
<g id="node4" class="node"><title>Node3</title>
<polygon fill="none" stroke="#bfbfbf" points="328.5,-56.5 328.5,-75.5 369.5,-75.5 369.5,-56.5 328.5,-56.5"/>
<text text-anchor="middle" x="349" y="-63.5" font-family="Helvetica,sans-Serif" font-size="10.00">string</text>
</g>
<!-- Node1&#45;&gt;Node3 -->
<g id="edge3" class="edge"><title>Node1&#45;&gt;Node3</title>
<path fill="none" stroke="midnightblue" d="M437.13,-112.324C420.291,-103.664 394.193,-90.2424 374.762,-80.249"/>
<polygon fill="midnightblue" stroke="midnightblue" points="376.322,-77.1155 365.828,-75.6545 373.12,-83.3405 376.322,-77.1155"/>
</g>
<!-- Node4 -->
<g id="node5" class="node"><title>Node4</title>
<polygon fill="none" stroke="#bfbfbf" points="388,-56.5 388,-75.5 432,-75.5 432,-56.5 388,-56.5"/>
<text text-anchor="middle" x="410" y="-63.5" font-family="Helvetica,sans-Serif" font-size="10.00">cmath</text>
</g>
<!-- Node1&#45;&gt;Node4 -->
<g id="edge4" class="edge"><title>Node1&#45;&gt;Node4</title>
<path fill="none" stroke="midnightblue" d="M446.734,-112.083C440.455,-104.377 431.212,-93.0333 423.569,-83.6531"/>
<polygon fill="midnightblue" stroke="midnightblue" points="426.161,-81.2926 417.131,-75.7511 420.734,-85.7143 426.161,-81.2926"/>
</g>
<!-- Node5 -->
<g id="node6" class="node"><title>Node5</title>
<polygon fill="none" stroke="#bfbfbf" points="70,-0.5 70,-19.5 124,-19.5 124,-0.5 70,-0.5"/>
<text text-anchor="middle" x="97" y="-7.5" font-family="Helvetica,sans-Serif" font-size="10.00">iostream</text>
</g>
<!-- Node1&#45;&gt;Node5 -->
<g id="edge5" class="edge"><title>Node1&#45;&gt;Node5</title>
<path fill="none" stroke="midnightblue" d="M429.861,-119.878C351.499,-115.993 107.943,-101.91 85,-76 73.627,-63.1558 79.6297,-43.1457 86.5926,-28.7197"/>
<polygon fill="midnightblue" stroke="midnightblue" points="89.7425,-30.2512 91.3646,-19.7813 83.5674,-26.9544 89.7425,-30.2512"/>
</g>
<!-- Node6 -->
<g id="node7" class="node"><title>Node6</title>
<polygon fill="none" stroke="#bfbfbf" points="142,-0.5 142,-19.5 192,-19.5 192,-0.5 142,-0.5"/>
<text text-anchor="middle" x="167" y="-7.5" font-family="Helvetica,sans-Serif" font-size="10.00">iomanip</text>
</g>
<!-- Node1&#45;&gt;Node6 -->
<g id="edge6" class="edge"><title>Node1&#45;&gt;Node6</title>
<path fill="none" stroke="midnightblue" d="M429.827,-117.413C394.4,-111.624 326.754,-98.5292 273,-76 240.916,-62.553 207.221,-40.2781 186.657,-25.6184"/>
<polygon fill="midnightblue" stroke="midnightblue" points="188.59,-22.6966 178.438,-19.6638 184.483,-28.3652 188.59,-22.6966"/>
</g>
<!-- Node7 -->
<g id="node8" class="node"><title>Node7</title>
<polygon fill="none" stroke="#bfbfbf" points="210,-0.5 210,-19.5 260,-19.5 260,-0.5 210,-0.5"/>
<text text-anchor="middle" x="235" y="-7.5" font-family="Helvetica,sans-Serif" font-size="10.00">fstream</text>
</g>
<!-- Node1&#45;&gt;Node7 -->
<g id="edge7" class="edge"><title>Node1&#45;&gt;Node7</title>
<path fill="none" stroke="midnightblue" d="M429.768,-117.292C398.917,-111.798 344.736,-99.5141 304,-76 282.077,-63.3453 261.589,-42.4324 248.726,-27.7532"/>
<polygon fill="midnightblue" stroke="midnightblue" points="251.225,-25.2898 242.08,-19.9402 245.893,-29.8251 251.225,-25.2898"/>
</g>
<!-- Node8 -->
<g id="node9" class="node"><title>Node8</title>
<polygon fill="none" stroke="#bfbfbf" points="278.5,-0.5 278.5,-19.5 323.5,-19.5 323.5,-0.5 278.5,-0.5"/>
<text text-anchor="middle" x="301" y="-7.5" font-family="Helvetica,sans-Serif" font-size="10.00">cstdlib</text>
</g>
<!-- Node1&#45;&gt;Node8 -->
<g id="edge8" class="edge"><title>Node1&#45;&gt;Node8</title>
<path fill="none" stroke="midnightblue" d="M429.911,-119.65C399.737,-116.647 348.432,-106.991 319,-76 307.293,-63.6726 303.075,-44.4209 301.617,-30.064"/>
<polygon fill="midnightblue" stroke="midnightblue" points="305.093,-29.5763 300.95,-19.8253 298.108,-30.0319 305.093,-29.5763"/>
</g>
<!-- Node9 -->
<g id="node10" class="node"><title>Node9</title>
<g id="a_node10"><a xlink:href="StringStreamUtils_8h.html" target="_top" xlink:title="StringStreamUtils.h">
<polygon fill="none" stroke="black" points="94,-56.5 94,-75.5 196,-75.5 196,-56.5 94,-56.5"/>
<text text-anchor="middle" x="145" y="-63.5" font-family="Helvetica,sans-Serif" font-size="10.00">StringStreamUtils.h</text>
</a>
</g>
</g>
<!-- Node1&#45;&gt;Node9 -->
<g id="edge9" class="edge"><title>Node1&#45;&gt;Node9</title>
<path fill="none" stroke="midnightblue" d="M429.753,-116.763C381.509,-108.332 272.268,-89.2409 203.986,-77.3082"/>
<polygon fill="midnightblue" stroke="midnightblue" points="204.261,-73.8033 193.807,-75.5295 203.056,-80.6988 204.261,-73.8033"/>
</g>
<!-- Node10 -->
<g id="node11" class="node"><title>Node10</title>
<g id="a_node11"><a xlink:href="TaxaParameters_8h.html" target="_top" xlink:title="TaxaParameters.h">
<polygon fill="none" stroke="black" points="450.5,-56.5 450.5,-75.5 547.5,-75.5 547.5,-56.5 450.5,-56.5"/>
<text text-anchor="middle" x="499" y="-63.5" font-family="Helvetica,sans-Serif" font-size="10.00">TaxaParameters.h</text>
</a>
</g>
</g>
<!-- Node1&#45;&gt;Node10 -->
<g id="edge15" class="edge"><title>Node1&#45;&gt;Node10</title>
<path fill="none" stroke="midnightblue" d="M461.431,-112.083C467.853,-104.377 477.306,-93.0333 485.122,-83.6531"/>
<polygon fill="midnightblue" stroke="midnightblue" points="487.994,-85.674 491.707,-75.7511 482.617,-81.1927 487.994,-85.674"/>
</g>
<!-- Node11 -->
<g id="node12" class="node"><title>Node11</title>
<g id="a_node12"><a xlink:href="Bipartition_8h.html" target="_top" xlink:title="Bipartition.h">
<polygon fill="none" stroke="black" points="566,-56.5 566,-75.5 634,-75.5 634,-56.5 566,-56.5"/>
<text text-anchor="middle" x="600" y="-63.5" font-family="Helvetica,sans-Serif" font-size="10.00">Bipartition.h</text>
</a>
</g>
</g>
<!-- Node1&#45;&gt;Node11 -->
<g id="edge16" class="edge"><title>Node1&#45;&gt;Node11</title>
<path fill="none" stroke="midnightblue" d="M477.134,-112.444C501.482,-103.438 540.007,-89.1891 567.423,-79.049"/>
<polygon fill="midnightblue" stroke="midnightblue" points="568.809,-82.2681 576.974,-75.5164 566.381,-75.7028 568.809,-82.2681"/>
</g>
<!-- Node12 -->
<g id="node13" class="node"><title>Node12</title>
<g id="a_node13"><a xlink:href="BipartitionList_8h.html" target="_top" xlink:title="BipartitionList.h">
<polygon fill="none" stroke="black" points="652,-56.5 652,-75.5 736,-75.5 736,-56.5 652,-56.5"/>
<text text-anchor="middle" x="694" y="-63.5" font-family="Helvetica,sans-Serif" font-size="10.00">BipartitionList.h</text>
</a>
</g>
</g>
<!-- Node1&#45;&gt;Node12 -->
<g id="edge17" class="edge"><title>Node1&#45;&gt;Node12</title>
<path fill="none" stroke="midnightblue" d="M478.333,-115.525C517.466,-106.72 595.115,-89.249 645.778,-77.8498"/>
<polygon fill="midnightblue" stroke="midnightblue" points="646.856,-81.195 655.844,-75.5851 645.319,-74.3657 646.856,-81.195"/>
</g>
<!-- Node13 -->
<g id="node14" class="node"><title>Node13</title>
<g id="a_node14"><a xlink:href="TreeList_8h.html" target="_top" xlink:title="TreeList.h">
<polygon fill="none" stroke="black" points="754,-56.5 754,-75.5 814,-75.5 814,-56.5 754,-56.5"/>
<text text-anchor="middle" x="784" y="-63.5" font-family="Helvetica,sans-Serif" font-size="10.00">TreeList.h</text>
</a>
</g>
</g>
<!-- Node1&#45;&gt;Node13 -->
<g id="edge18" class="edge"><title>Node1&#45;&gt;Node13</title>
<path fill="none" stroke="midnightblue" d="M478.248,-117.863C526.736,-111.46 639.28,-95.9447 743.732,-76.1276"/>
<polygon fill="midnightblue" stroke="midnightblue" points="744.65,-79.5156 753.813,-74.1966 743.333,-72.6406 744.65,-79.5156"/>
</g>
<!-- Node14 -->
<g id="node15" class="node"><title>Node14</title>
<g id="a_node15"><a xlink:href="PolyNode_8h.html" target="_top" xlink:title="PolyNode.h">
<polygon fill="none" stroke="black" points="832,-56.5 832,-75.5 900,-75.5 900,-56.5 832,-56.5"/>
<text text-anchor="middle" x="866" y="-63.5" font-family="Helvetica,sans-Serif" font-size="10.00">PolyNode.h</text>
</a>
</g>
</g>
<!-- Node1&#45;&gt;Node14 -->
<g id="edge19" class="edge"><title>Node1&#45;&gt;Node14</title>
<path fill="none" stroke="midnightblue" d="M478.279,-118.76C536.008,-113.281 686.171,-98.1328 821.641,-76.1024"/>
<polygon fill="midnightblue" stroke="midnightblue" points="822.482,-79.5112 831.782,-74.4356 821.346,-72.6038 822.482,-79.5112"/>
</g>
<!-- Node15 -->
<g id="node16" class="node"><title>Node15</title>
<g id="a_node16"><a xlink:href="PBTree_8h.html" target="_top" xlink:title="PBTree.h">
<polygon fill="none" stroke="black" points="918,-56.5 918,-75.5 976,-75.5 976,-56.5 918,-56.5"/>
<text text-anchor="middle" x="947" y="-63.5" font-family="Helvetica,sans-Serif" font-size="10.00">PBTree.h</text>
</a>
</g>
</g>
<!-- Node1&#45;&gt;Node15 -->
<g id="edge20" class="edge"><title>Node1&#45;&gt;Node15</title>
<path fill="none" stroke="midnightblue" d="M478.321,-119.744C545.272,-116.046 738.03,-103.77 907.521,-76.0443"/>
<polygon fill="midnightblue" stroke="midnightblue" points="908.328,-79.4582 917.621,-74.3689 907.183,-72.5526 908.328,-79.4582"/>
</g>
<!-- Node16 -->
<g id="node17" class="node"><title>Node16</title>
<g id="a_node17"><a xlink:href="AmphiNode_8h.html" target="_top" xlink:title="AmphiNode.h">
<polygon fill="none" stroke="black" points="994,-56.5 994,-75.5 1070,-75.5 1070,-56.5 994,-56.5"/>
<text text-anchor="middle" x="1032" y="-63.5" font-family="Helvetica,sans-Serif" font-size="10.00">AmphiNode.h</text>
</a>
</g>
</g>
<!-- Node1&#45;&gt;Node16 -->
<g id="edge21" class="edge"><title>Node1&#45;&gt;Node16</title>
<path fill="none" stroke="midnightblue" d="M478.18,-119.854C552.245,-116.154 782.643,-103.232 983.68,-76.0435"/>
<polygon fill="midnightblue" stroke="midnightblue" points="984.402,-79.4774 993.836,-74.6543 983.454,-72.542 984.402,-79.4774"/>
</g>
<!-- Node18 -->
<g id="node19" class="node"><title>Node18</title>
<g id="a_node19"><a xlink:href="Consensus_8h.html" target="_top" xlink:title="Consensus.h">
<polygon fill="none" stroke="black" points="1088,-56.5 1088,-75.5 1162,-75.5 1162,-56.5 1088,-56.5"/>
<text text-anchor="middle" x="1125" y="-63.5" font-family="Helvetica,sans-Serif" font-size="10.00">Consensus.h</text>
</a>
</g>
</g>
<!-- Node1&#45;&gt;Node18 -->
<g id="edge23" class="edge"><title>Node1&#45;&gt;Node18</title>
<path fill="none" stroke="midnightblue" d="M478.238,-120.313C560.781,-117.751 838.609,-107.309 1077.98,-75.9735"/>
<polygon fill="midnightblue" stroke="midnightblue" points="1078.45,-79.441 1087.91,-74.6584 1077.53,-72.5016 1078.45,-79.441"/>
</g>
<!-- Node9&#45;&gt;Node2 -->
<g id="edge12" class="edge"><title>Node9&#45;&gt;Node2</title>
<path fill="none" stroke="midnightblue" d="M126.144,-56.4435C106.734,-47.6356 76.2699,-33.8116 54.0355,-23.722"/>
<polygon fill="midnightblue" stroke="midnightblue" points="55.3203,-20.4615 44.7677,-19.5164 52.4277,-26.836 55.3203,-20.4615"/>
</g>
<!-- Node9&#45;&gt;Node5 -->
<g id="edge11" class="edge"><title>Node9&#45;&gt;Node5</title>
<path fill="none" stroke="midnightblue" d="M137.074,-56.083C130.154,-48.2982 119.935,-36.8015 111.548,-27.3665"/>
<polygon fill="midnightblue" stroke="midnightblue" points="114.038,-24.8999 104.779,-19.7511 108.806,-29.5505 114.038,-24.8999"/>
</g>
<!-- Node9&#45;&gt;Node6 -->
<g id="edge13" class="edge"><title>Node9&#45;&gt;Node6</title>
<path fill="none" stroke="midnightblue" d="M148.633,-56.083C151.612,-48.77 155.926,-38.1814 159.625,-29.1034"/>
<polygon fill="midnightblue" stroke="midnightblue" points="162.903,-30.3326 163.435,-19.7511 156.42,-27.6914 162.903,-30.3326"/>
</g>
<!-- Node9&#45;&gt;Node7 -->
<g id="edge14" class="edge"><title>Node9&#45;&gt;Node7</title>
<path fill="none" stroke="midnightblue" d="M159.46,-56.324C173.5,-47.9002 195.048,-34.9709 211.543,-25.0741"/>
<polygon fill="midnightblue" stroke="midnightblue" points="213.802,-27.8007 220.576,-19.6545 210.2,-21.7983 213.802,-27.8007"/>
</g>
<!-- Node9&#45;&gt;Node8 -->
<g id="edge10" class="edge"><title>Node9&#45;&gt;Node8</title>
<path fill="none" stroke="midnightblue" d="M169.719,-56.4435C196.463,-47.1858 239.217,-32.3866 268.625,-22.2066"/>
<polygon fill="midnightblue" stroke="midnightblue" points="270.118,-25.3937 278.423,-18.8151 267.828,-18.7788 270.118,-25.3937"/>
</g>
<!-- Node17 -->
<g id="node18" class="node"><title>Node17</title>
<g id="a_node18"><a xlink:href="Node_8h.html" target="_top" xlink:title="Node.h">
<polygon fill="none" stroke="black" points="1008,-0.5 1008,-19.5 1056,-19.5 1056,-0.5 1008,-0.5"/>
<text text-anchor="middle" x="1032" y="-7.5" font-family="Helvetica,sans-Serif" font-size="10.00">Node.h</text>
</a>
</g>
</g>
<!-- Node16&#45;&gt;Node17 -->
<g id="edge22" class="edge"><title>Node16&#45;&gt;Node17</title>
<path fill="none" stroke="midnightblue" d="M1032,-56.083C1032,-49.0059 1032,-38.8611 1032,-29.9865"/>
<polygon fill="midnightblue" stroke="midnightblue" points="1035.5,-29.751 1032,-19.7511 1028.5,-29.7511 1035.5,-29.751"/>
</g>
</g>
</svg>
