<?xml version="1.0" encoding="UTF-8" standalone="no"?>
<!DOCTYPE svg PUBLIC "-//W3C//DTD SVG 1.1//EN"
 "http://www.w3.org/Graphics/SVG/1.1/DTD/svg11.dtd">
<!-- Generated by graphviz version 2.38.0 (20140413.2041)
 -->
<!-- Title: UniformRateProcess.h Pages: 1 -->
<svg width="974pt" height="285pt"
 viewBox="0.00 0.00 974.00 285.00" xmlns="http://www.w3.org/2000/svg" xmlns:xlink="http://www.w3.org/1999/xlink">
<g id="graph0" class="graph" transform="scale(1 1) rotate(0) translate(4 281)">
<title>UniformRateProcess.h</title>
<!-- Node7 -->
<g id="node1" class="node"><title>Node7</title>
<polygon fill="#bfbfbf" stroke="black" points="432,-257.5 432,-276.5 548,-276.5 548,-257.5 432,-257.5"/>
<text text-anchor="middle" x="490" y="-264.5" font-family="Helvetica,sans-Serif" font-size="10.00">UniformRateProcess.h</text>
</g>
<!-- Node8 -->
<g id="node2" class="node"><title>Node8</title>
<g id="a_node2"><a xlink:href="AACodonMutSelFiniteSubstitutionProcess_8h.html" target="_top" xlink:title="AACodonMutSelFiniteSubstitution\lProcess.h">
<polygon fill="none" stroke="black" points="35.5,-190.5 35.5,-220.5 200.5,-220.5 200.5,-190.5 35.5,-190.5"/>
<text text-anchor="start" x="43.5" y="-208.5" font-family="Helvetica,sans-Serif" font-size="10.00">AACodonMutSelFiniteSubstitution</text>
<text text-anchor="middle" x="118" y="-197.5" font-family="Helvetica,sans-Serif" font-size="10.00">Process.h</text>
</a>
</g>
</g>
<!-- Node7&#45;&gt;Node8 -->
<g id="edge1" class="edge"><title>Node7&#45;&gt;Node8</title>
<path fill="none" stroke="midnightblue" d="M426.616,-255.862C364.32,-245.898 268.93,-230.641 200.7,-219.727"/>
<polygon fill="midnightblue" stroke="midnightblue" points="426.274,-259.352 436.701,-257.475 427.38,-252.44 426.274,-259.352"/>
</g>
<!-- Node14 -->
<g id="node8" class="node"><title>Node14</title>
<g id="a_node8"><a xlink:href="AACodonMutSelGeneSubstitutionProcess_8h.html" target="_top" xlink:title="AACodonMutSelGeneSubstitution\lProcess.h">
<polygon fill="none" stroke="black" points="783,-190.5 783,-220.5 947,-220.5 947,-190.5 783,-190.5"/>
<text text-anchor="start" x="791" y="-208.5" font-family="Helvetica,sans-Serif" font-size="10.00">AACodonMutSelGeneSubstitution</text>
<text text-anchor="middle" x="865" y="-197.5" font-family="Helvetica,sans-Serif" font-size="10.00">Process.h</text>
</a>
</g>
</g>
<!-- Node7&#45;&gt;Node14 -->
<g id="edge7" class="edge"><title>Node7&#45;&gt;Node14</title>
<path fill="none" stroke="midnightblue" d="M553.947,-255.854C617.07,-245.838 713.864,-230.48 782.696,-219.559"/>
<polygon fill="midnightblue" stroke="midnightblue" points="553.056,-252.451 543.728,-257.475 554.153,-259.365 553.056,-252.451"/>
</g>
<!-- Node16 -->
<g id="node10" class="node"><title>Node16</title>
<g id="a_node10"><a xlink:href="AACodonMutSelSBDPSubstitutionProcess_8h.html" target="_top" xlink:title="AACodonMutSelSBDPSubstitution\lProcess.h">
<polygon fill="none" stroke="black" points="221.5,-190.5 221.5,-220.5 390.5,-220.5 390.5,-190.5 221.5,-190.5"/>
<text text-anchor="start" x="229.5" y="-208.5" font-family="Helvetica,sans-Serif" font-size="10.00">AACodonMutSelSBDPSubstitution</text>
<text text-anchor="middle" x="306" y="-197.5" font-family="Helvetica,sans-Serif" font-size="10.00">Process.h</text>
</a>
</g>
</g>
<!-- Node7&#45;&gt;Node16 -->
<g id="edge9" class="edge"><title>Node7&#45;&gt;Node16</title>
<path fill="none" stroke="midnightblue" d="M453.995,-254.357C424.013,-244.662 381.228,-230.826 349.365,-220.523"/>
<polygon fill="midnightblue" stroke="midnightblue" points="453.045,-257.728 463.637,-257.475 455.199,-251.068 453.045,-257.728"/>
</g>
<!-- Node19 -->
<g id="node13" class="node"><title>Node19</title>
<g id="a_node13"><a xlink:href="CodonMutSelFiniteSubstitutionProcess_8h.html" target="_top" xlink:title="CodonMutSelFiniteSubstitution\lProcess.h">
<polygon fill="none" stroke="black" points="414,-190.5 414,-220.5 566,-220.5 566,-190.5 414,-190.5"/>
<text text-anchor="start" x="422" y="-208.5" font-family="Helvetica,sans-Serif" font-size="10.00">CodonMutSelFiniteSubstitution</text>
<text text-anchor="middle" x="490" y="-197.5" font-family="Helvetica,sans-Serif" font-size="10.00">Process.h</text>
</a>
</g>
</g>
<!-- Node7&#45;&gt;Node19 -->
<g id="edge13" class="edge"><title>Node7&#45;&gt;Node19</title>
<path fill="none" stroke="midnightblue" d="M490,-247.235C490,-238.586 490,-228.497 490,-220.523"/>
<polygon fill="midnightblue" stroke="midnightblue" points="486.5,-247.475 490,-257.475 493.5,-247.475 486.5,-247.475"/>
</g>
<!-- Node22 -->
<g id="node16" class="node"><title>Node22</title>
<g id="a_node16"><a xlink:href="CodonMutSelSBDPSubstitutionProcess_8h.html" target="_top" xlink:title="CodonMutSelSBDPSubstitution\lProcess.h">
<polygon fill="none" stroke="black" points="592.5,-190.5 592.5,-220.5 747.5,-220.5 747.5,-190.5 592.5,-190.5"/>
<text text-anchor="start" x="600.5" y="-208.5" font-family="Helvetica,sans-Serif" font-size="10.00">CodonMutSelSBDPSubstitution</text>
<text text-anchor="middle" x="670" y="-197.5" font-family="Helvetica,sans-Serif" font-size="10.00">Process.h</text>
</a>
</g>
</g>
<!-- Node7&#45;&gt;Node22 -->
<g id="edge17" class="edge"><title>Node7&#45;&gt;Node22</title>
<path fill="none" stroke="midnightblue" d="M525.606,-254.23C554.916,-244.542 596.543,-230.782 627.578,-220.523"/>
<polygon fill="midnightblue" stroke="midnightblue" points="524.186,-251.013 515.79,-257.475 526.383,-257.66 524.186,-251.013"/>
</g>
<!-- Node9 -->
<g id="node3" class="node"><title>Node9</title>
<g id="a_node3"><a xlink:href="AACodonMutSelFinitePhyloProcess_8h.html" target="_top" xlink:title="AACodonMutSelFinitePhylo\lProcess.h">
<polygon fill="none" stroke="black" points="46,-123.5 46,-153.5 184,-153.5 184,-123.5 46,-123.5"/>
<text text-anchor="start" x="54" y="-141.5" font-family="Helvetica,sans-Serif" font-size="10.00">AACodonMutSelFinitePhylo</text>
<text text-anchor="middle" x="115" y="-130.5" font-family="Helvetica,sans-Serif" font-size="10.00">Process.h</text>
</a>
</g>
</g>
<!-- Node8&#45;&gt;Node9 -->
<g id="edge2" class="edge"><title>Node8&#45;&gt;Node9</title>
<path fill="none" stroke="midnightblue" d="M116.888,-180.403C116.471,-171.37 116.011,-161.408 115.65,-153.577"/>
<polygon fill="midnightblue" stroke="midnightblue" points="113.392,-180.568 117.349,-190.396 120.384,-180.245 113.392,-180.568"/>
</g>
<!-- Node10 -->
<g id="node4" class="node"><title>Node10</title>
<g id="a_node4"><a xlink:href="AACodonMutSelFinitePhyloProcess_8cpp.html" target="_top" xlink:title="AACodonMutSelFinitePhylo\lProcess.cpp">
<polygon fill="none" stroke="black" points="0,-56.5 0,-86.5 138,-86.5 138,-56.5 0,-56.5"/>
<text text-anchor="start" x="8" y="-74.5" font-family="Helvetica,sans-Serif" font-size="10.00">AACodonMutSelFinitePhylo</text>
<text text-anchor="middle" x="69" y="-63.5" font-family="Helvetica,sans-Serif" font-size="10.00">Process.cpp</text>
</a>
</g>
</g>
<!-- Node9&#45;&gt;Node10 -->
<g id="edge3" class="edge"><title>Node9&#45;&gt;Node10</title>
<path fill="none" stroke="midnightblue" d="M99.1884,-115.157C92.4804,-105.679 84.8654,-94.9186 78.9618,-86.5765"/>
<polygon fill="midnightblue" stroke="midnightblue" points="96.385,-117.255 105.019,-123.396 102.099,-113.211 96.385,-117.255"/>
</g>
<!-- Node11 -->
<g id="node5" class="node"><title>Node11</title>
<g id="a_node5"><a xlink:href="Model_8h.html" target="_top" xlink:title="Model.h">
<polygon fill="none" stroke="black" points="371.5,-62 371.5,-81 422.5,-81 422.5,-62 371.5,-62"/>
<text text-anchor="middle" x="397" y="-69" font-family="Helvetica,sans-Serif" font-size="10.00">Model.h</text>
</a>
</g>
</g>
<!-- Node9&#45;&gt;Node11 -->
<g id="edge4" class="edge"><title>Node9&#45;&gt;Node11</title>
<path fill="none" stroke="midnightblue" d="M194.212,-122.09C260.208,-109.121 345.928,-91.9227 362,-87 367.283,-85.382 372.867,-83.2646 377.986,-81.1498"/>
<polygon fill="midnightblue" stroke="midnightblue" points="193.355,-118.692 184.216,-124.052 194.703,-125.561 193.355,-118.692"/>
</g>
<!-- Node12 -->
<g id="node6" class="node"><title>Node12</title>
<g id="a_node6"><a xlink:href="PB_8cpp.html" target="_top" xlink:title="PB.cpp">
<polygon fill="none" stroke="black" points="332.5,-0.5 332.5,-19.5 381.5,-19.5 381.5,-0.5 332.5,-0.5"/>
<text text-anchor="middle" x="357" y="-7.5" font-family="Helvetica,sans-Serif" font-size="10.00">PB.cpp</text>
</a>
</g>
</g>
<!-- Node11&#45;&gt;Node12 -->
<g id="edge5" class="edge"><title>Node11&#45;&gt;Node12</title>
<path fill="none" stroke="midnightblue" d="M385.575,-53.5051C378.101,-42.388 368.657,-28.3395 362.72,-19.5091"/>
<polygon fill="midnightblue" stroke="midnightblue" points="382.785,-55.6288 391.269,-61.9751 388.594,-51.7234 382.785,-55.6288"/>
</g>
<!-- Node13 -->
<g id="node7" class="node"><title>Node13</title>
<g id="a_node7"><a xlink:href="ReadPB_8cpp.html" target="_top" xlink:title="ReadPB.cpp">
<polygon fill="none" stroke="black" points="400,-0.5 400,-19.5 472,-19.5 472,-0.5 400,-0.5"/>
<text text-anchor="middle" x="436" y="-7.5" font-family="Helvetica,sans-Serif" font-size="10.00">ReadPB.cpp</text>
</a>
</g>
</g>
<!-- Node11&#45;&gt;Node13 -->
<g id="edge6" class="edge"><title>Node11&#45;&gt;Node13</title>
<path fill="none" stroke="midnightblue" d="M408.14,-53.5051C415.426,-42.388 424.635,-28.3395 430.423,-19.5091"/>
<polygon fill="midnightblue" stroke="midnightblue" points="405.143,-51.6929 402.588,-61.9751 410.997,-55.5303 405.143,-51.6929"/>
</g>
<!-- Node15 -->
<g id="node9" class="node"><title>Node15</title>
<g id="a_node9"><a xlink:href="AACodonMutSelGenePhyloProcess_8h.html" target="_top" xlink:title="AACodonMutSelGenePhyloProcess.h">
<polygon fill="none" stroke="black" points="784,-129 784,-148 966,-148 966,-129 784,-129"/>
<text text-anchor="middle" x="875" y="-136" font-family="Helvetica,sans-Serif" font-size="10.00">AACodonMutSelGenePhyloProcess.h</text>
</a>
</g>
</g>
<!-- Node14&#45;&gt;Node15 -->
<g id="edge8" class="edge"><title>Node14&#45;&gt;Node15</title>
<path fill="none" stroke="midnightblue" d="M868.731,-180.25C870.459,-169.017 872.404,-156.377 873.662,-148.195"/>
<polygon fill="midnightblue" stroke="midnightblue" points="865.231,-179.98 867.17,-190.396 872.15,-181.044 865.231,-179.98"/>
</g>
<!-- Node17 -->
<g id="node11" class="node"><title>Node17</title>
<g id="a_node11"><a xlink:href="AACodonMutSelSBDPPhyloProcess_8h.html" target="_top" xlink:title="AACodonMutSelSBDPPhyloProcess.h">
<polygon fill="none" stroke="black" points="202,-129 202,-148 388,-148 388,-129 202,-129"/>
<text text-anchor="middle" x="295" y="-136" font-family="Helvetica,sans-Serif" font-size="10.00">AACodonMutSelSBDPPhyloProcess.h</text>
</a>
</g>
</g>
<!-- Node16&#45;&gt;Node17 -->
<g id="edge10" class="edge"><title>Node16&#45;&gt;Node17</title>
<path fill="none" stroke="midnightblue" d="M301.896,-180.25C299.995,-169.017 297.856,-156.377 296.471,-148.195"/>
<polygon fill="midnightblue" stroke="midnightblue" points="298.494,-181.12 303.613,-190.396 305.395,-179.952 298.494,-181.12"/>
</g>
<!-- Node17&#45;&gt;Node11 -->
<g id="edge12" class="edge"><title>Node17&#45;&gt;Node11</title>
<path fill="none" stroke="midnightblue" d="M317.332,-123.269C337.522,-110.403 366.59,-91.879 383.462,-81.1273"/>
<polygon fill="midnightblue" stroke="midnightblue" points="315.308,-120.408 308.756,-128.734 319.07,-126.311 315.308,-120.408"/>
</g>
<!-- Node18 -->
<g id="node12" class="node"><title>Node18</title>
<g id="a_node12"><a xlink:href="AACodonMutSelSBDPPhyloProcess_8cpp.html" target="_top" xlink:title="AACodonMutSelSBDPPhyloProcess.cpp">
<polygon fill="none" stroke="black" points="156.5,-62 156.5,-81 353.5,-81 353.5,-62 156.5,-62"/>
<text text-anchor="middle" x="255" y="-69" font-family="Helvetica,sans-Serif" font-size="10.00">AACodonMutSelSBDPPhyloProcess.cpp</text>
</a>
</g>
</g>
<!-- Node17&#45;&gt;Node18 -->
<g id="edge11" class="edge"><title>Node17&#45;&gt;Node18</title>
<path fill="none" stroke="midnightblue" d="M284.252,-120.035C276.508,-107.45 266.389,-91.0072 260.309,-81.1273"/>
<polygon fill="midnightblue" stroke="midnightblue" points="281.384,-122.052 289.605,-128.734 287.345,-118.383 281.384,-122.052"/>
</g>
<!-- Node20 -->
<g id="node14" class="node"><title>Node20</title>
<g id="a_node14"><a xlink:href="CodonMutSelFinitePhyloProcess_8h.html" target="_top" xlink:title="CodonMutSelFinitePhyloProcess.h">
<polygon fill="none" stroke="black" points="405.5,-129 405.5,-148 574.5,-148 574.5,-129 405.5,-129"/>
<text text-anchor="middle" x="490" y="-136" font-family="Helvetica,sans-Serif" font-size="10.00">CodonMutSelFinitePhyloProcess.h</text>
</a>
</g>
</g>
<!-- Node19&#45;&gt;Node20 -->
<g id="edge14" class="edge"><title>Node19&#45;&gt;Node20</title>
<path fill="none" stroke="midnightblue" d="M490,-180.25C490,-169.017 490,-156.377 490,-148.195"/>
<polygon fill="midnightblue" stroke="midnightblue" points="486.5,-180.396 490,-190.396 493.5,-180.396 486.5,-180.396"/>
</g>
<!-- Node20&#45;&gt;Node11 -->
<g id="edge16" class="edge"><title>Node20&#45;&gt;Node11</title>
<path fill="none" stroke="midnightblue" d="M469.139,-122.92C450.753,-110.069 424.588,-91.7821 409.344,-81.1273"/>
<polygon fill="midnightblue" stroke="midnightblue" points="467.256,-125.874 477.458,-128.734 471.266,-120.136 467.256,-125.874"/>
</g>
<!-- Node21 -->
<g id="node15" class="node"><title>Node21</title>
<g id="a_node15"><a xlink:href="CodonMutSelFinitePhyloProcess_8cpp.html" target="_top" xlink:title="CodonMutSelFinitePhyloProcess.cpp">
<polygon fill="none" stroke="black" points="440.5,-62 440.5,-81 619.5,-81 619.5,-62 440.5,-62"/>
<text text-anchor="middle" x="530" y="-69" font-family="Helvetica,sans-Serif" font-size="10.00">CodonMutSelFinitePhyloProcess.cpp</text>
</a>
</g>
</g>
<!-- Node20&#45;&gt;Node21 -->
<g id="edge15" class="edge"><title>Node20&#45;&gt;Node21</title>
<path fill="none" stroke="midnightblue" d="M500.748,-120.035C508.492,-107.45 518.611,-91.0072 524.691,-81.1273"/>
<polygon fill="midnightblue" stroke="midnightblue" points="497.655,-118.383 495.395,-128.734 503.616,-122.052 497.655,-118.383"/>
</g>
<!-- Node23 -->
<g id="node17" class="node"><title>Node23</title>
<g id="a_node17"><a xlink:href="CodonMutSelSBDPPhyloProcess_8h.html" target="_top" xlink:title="CodonMutSelSBDPPhyloProcess.h">
<polygon fill="none" stroke="black" points="592.5,-129 592.5,-148 765.5,-148 765.5,-129 592.5,-129"/>
<text text-anchor="middle" x="679" y="-136" font-family="Helvetica,sans-Serif" font-size="10.00">CodonMutSelSBDPPhyloProcess.h</text>
</a>
</g>
</g>
<!-- Node22&#45;&gt;Node23 -->
<g id="edge18" class="edge"><title>Node22&#45;&gt;Node23</title>
<path fill="none" stroke="midnightblue" d="M673.358,-180.25C674.913,-169.017 676.663,-156.377 677.796,-148.195"/>
<polygon fill="midnightblue" stroke="midnightblue" points="669.858,-180.01 671.953,-190.396 676.791,-180.971 669.858,-180.01"/>
</g>
<!-- Node23&#45;&gt;Node11 -->
<g id="edge20" class="edge"><title>Node23&#45;&gt;Node11</title>
<path fill="none" stroke="midnightblue" d="M610.17,-127.328C559.869,-118.971 490.361,-105.493 431,-87 425.731,-85.3586 420.165,-83.1836 415.096,-81.0188"/>
<polygon fill="midnightblue" stroke="midnightblue" points="609.85,-130.822 620.284,-128.982 610.98,-123.914 609.85,-130.822"/>
</g>
<!-- Node24 -->
<g id="node18" class="node"><title>Node24</title>
<g id="a_node18"><a xlink:href="CodonMutSelSBDPPhyloProcess_8cpp.html" target="_top" xlink:title="CodonMutSelSBDPPhyloProcess.cpp">
<polygon fill="none" stroke="black" points="637.5,-62 637.5,-81 820.5,-81 820.5,-62 637.5,-62"/>
<text text-anchor="middle" x="729" y="-69" font-family="Helvetica,sans-Serif" font-size="10.00">CodonMutSelSBDPPhyloProcess.cpp</text>
</a>
</g>
</g>
<!-- Node23&#45;&gt;Node24 -->
<g id="edge19" class="edge"><title>Node23&#45;&gt;Node24</title>
<path fill="none" stroke="midnightblue" d="M691.869,-120.77C701.618,-108.097 714.615,-91.201 722.364,-81.1273"/>
<polygon fill="midnightblue" stroke="midnightblue" points="689.066,-118.674 685.743,-128.734 694.615,-122.942 689.066,-118.674"/>
</g>
</g>
</svg>
