<?xml version="1.0" encoding="UTF-8" standalone="no"?>
<!DOCTYPE svg PUBLIC "-//W3C//DTD SVG 1.1//EN"
 "http://www.w3.org/Graphics/SVG/1.1/DTD/svg11.dtd">
<!-- Generated by graphviz version 2.38.0 (20140413.2041)
 -->
<!-- Title: ZippedSequenceAlignment.cpp Pages: 1 -->
<svg width="507pt" height="308pt"
 viewBox="0.00 0.00 506.50 308.00" xmlns="http://www.w3.org/2000/svg" xmlns:xlink="http://www.w3.org/1999/xlink">
<g id="graph0" class="graph" transform="scale(1 1) rotate(0) translate(4 304)">
<title>ZippedSequenceAlignment.cpp</title>
<!-- Node0 -->
<g id="node1" class="node"><title>Node0</title>
<polygon fill="#bfbfbf" stroke="black" points="250,-280.5 250,-299.5 402,-299.5 402,-280.5 250,-280.5"/>
<text text-anchor="middle" x="326" y="-287.5" font-family="Helvetica,sans-Serif" font-size="10.00">ZippedSequenceAlignment.cpp</text>
</g>
<!-- Node1 -->
<g id="node2" class="node"><title>Node1</title>
<g id="a_node2"><a xlink:href="ZippedSequenceAlignment_8h.html" target="_top" xlink:title="ZippedSequenceAlignment.h">
<polygon fill="none" stroke="black" points="205.5,-224.5 205.5,-243.5 346.5,-243.5 346.5,-224.5 205.5,-224.5"/>
<text text-anchor="middle" x="276" y="-231.5" font-family="Helvetica,sans-Serif" font-size="10.00">ZippedSequenceAlignment.h</text>
</a>
</g>
</g>
<!-- Node0&#45;&gt;Node1 -->
<g id="edge1" class="edge"><title>Node0&#45;&gt;Node1</title>
<path fill="none" stroke="midnightblue" d="M317.744,-280.083C310.535,-272.298 299.89,-260.801 291.154,-251.367"/>
<polygon fill="midnightblue" stroke="midnightblue" points="293.465,-248.711 284.103,-243.751 288.329,-253.467 293.465,-248.711"/>
</g>
<!-- Node6 -->
<g id="node7" class="node"><title>Node6</title>
<polygon fill="none" stroke="#bfbfbf" points="332,-0.5 332,-19.5 386,-19.5 386,-0.5 332,-0.5"/>
<text text-anchor="middle" x="359" y="-7.5" font-family="Helvetica,sans-Serif" font-size="10.00">iostream</text>
</g>
<!-- Node0&#45;&gt;Node6 -->
<g id="edge19" class="edge"><title>Node0&#45;&gt;Node6</title>
<path fill="none" stroke="midnightblue" d="M333.307,-280.231C347.409,-262.385 377,-220.047 377,-179 377,-179 377,-179 377,-121 377,-88.5368 369.27,-51.3836 363.942,-29.6276"/>
<polygon fill="midnightblue" stroke="midnightblue" points="367.288,-28.5867 361.428,-19.7605 360.505,-30.3151 367.288,-28.5867"/>
</g>
<!-- Node2 -->
<g id="node3" class="node"><title>Node2</title>
<g id="a_node3"><a xlink:href="SequenceAlignment_8h.html" target="_top" xlink:title="SequenceAlignment.h">
<polygon fill="none" stroke="black" points="218,-168.5 218,-187.5 330,-187.5 330,-168.5 218,-168.5"/>
<text text-anchor="middle" x="274" y="-175.5" font-family="Helvetica,sans-Serif" font-size="10.00">SequenceAlignment.h</text>
</a>
</g>
</g>
<!-- Node1&#45;&gt;Node2 -->
<g id="edge2" class="edge"><title>Node1&#45;&gt;Node2</title>
<path fill="none" stroke="midnightblue" d="M275.67,-224.083C275.408,-217.006 275.032,-206.861 274.703,-197.986"/>
<polygon fill="midnightblue" stroke="midnightblue" points="278.192,-197.615 274.324,-187.751 271.197,-197.874 278.192,-197.615"/>
</g>
<!-- Node3 -->
<g id="node4" class="node"><title>Node3</title>
<g id="a_node4"><a xlink:href="StateSpace_8h.html" target="_top" xlink:title="StateSpace.h">
<polygon fill="none" stroke="black" points="235,-112.5 235,-131.5 311,-131.5 311,-112.5 235,-112.5"/>
<text text-anchor="middle" x="273" y="-119.5" font-family="Helvetica,sans-Serif" font-size="10.00">StateSpace.h</text>
</a>
</g>
</g>
<!-- Node2&#45;&gt;Node3 -->
<g id="edge3" class="edge"><title>Node2&#45;&gt;Node3</title>
<path fill="none" stroke="midnightblue" d="M273.835,-168.083C273.704,-161.006 273.516,-150.861 273.352,-141.986"/>
<polygon fill="midnightblue" stroke="midnightblue" points="276.847,-141.685 273.162,-131.751 269.848,-141.814 276.847,-141.685"/>
</g>
<!-- Node8 -->
<g id="node9" class="node"><title>Node8</title>
<g id="a_node9"><a xlink:href="TaxonSet_8h.html" target="_top" xlink:title="TaxonSet.h">
<polygon fill="none" stroke="black" points="405.5,-56.5 405.5,-75.5 472.5,-75.5 472.5,-56.5 405.5,-56.5"/>
<text text-anchor="middle" x="439" y="-63.5" font-family="Helvetica,sans-Serif" font-size="10.00">TaxonSet.h</text>
</a>
</g>
</g>
<!-- Node2&#45;&gt;Node8 -->
<g id="edge8" class="edge"><title>Node2&#45;&gt;Node8</title>
<path fill="none" stroke="midnightblue" d="M286.947,-168.368C315.261,-149.492 382.923,-104.385 417.645,-81.2367"/>
<polygon fill="midnightblue" stroke="midnightblue" points="419.734,-84.0506 426.113,-75.5914 415.851,-78.2263 419.734,-84.0506"/>
</g>
<!-- Node10 -->
<g id="node11" class="node"><title>Node10</title>
<g id="a_node11"><a xlink:href="Random_8h.html" target="_top" xlink:title="Random.h">
<polygon fill="none" stroke="black" points="153,-56.5 153,-75.5 215,-75.5 215,-56.5 153,-56.5"/>
<text text-anchor="middle" x="184" y="-63.5" font-family="Helvetica,sans-Serif" font-size="10.00">Random.h</text>
</a>
</g>
</g>
<!-- Node2&#45;&gt;Node10 -->
<g id="edge12" class="edge"><title>Node2&#45;&gt;Node10</title>
<path fill="none" stroke="midnightblue" d="M263.368,-168.356C253.14,-159.749 237.567,-145.854 226,-132 213.528,-117.061 201.724,-98.2191 193.825,-84.6727"/>
<polygon fill="midnightblue" stroke="midnightblue" points="196.803,-82.8298 188.809,-75.8763 190.722,-86.2971 196.803,-82.8298"/>
</g>
<!-- Node4 -->
<g id="node5" class="node"><title>Node4</title>
<g id="a_node5"><a xlink:href="BiologicalSequences_8h.html" target="_top" xlink:title="BiologicalSequences.h">
<polygon fill="none" stroke="black" points="233,-56.5 233,-75.5 349,-75.5 349,-56.5 233,-56.5"/>
<text text-anchor="middle" x="291" y="-63.5" font-family="Helvetica,sans-Serif" font-size="10.00">BiologicalSequences.h</text>
</a>
</g>
</g>
<!-- Node3&#45;&gt;Node4 -->
<g id="edge4" class="edge"><title>Node3&#45;&gt;Node4</title>
<path fill="none" stroke="midnightblue" d="M275.972,-112.083C278.384,-104.849 281.864,-94.4087 284.868,-85.3968"/>
<polygon fill="midnightblue" stroke="midnightblue" points="288.241,-86.3447 288.083,-75.7511 281.6,-84.1311 288.241,-86.3447"/>
</g>
<!-- Node5 -->
<g id="node6" class="node"><title>Node5</title>
<polygon fill="none" stroke="#bfbfbf" points="268.5,-0.5 268.5,-19.5 313.5,-19.5 313.5,-0.5 268.5,-0.5"/>
<text text-anchor="middle" x="291" y="-7.5" font-family="Helvetica,sans-Serif" font-size="10.00">cstdlib</text>
</g>
<!-- Node4&#45;&gt;Node5 -->
<g id="edge5" class="edge"><title>Node4&#45;&gt;Node5</title>
<path fill="none" stroke="midnightblue" d="M291,-56.083C291,-49.0059 291,-38.8611 291,-29.9865"/>
<polygon fill="midnightblue" stroke="midnightblue" points="294.5,-29.751 291,-19.7511 287.5,-29.7511 294.5,-29.751"/>
</g>
<!-- Node4&#45;&gt;Node6 -->
<g id="edge6" class="edge"><title>Node4&#45;&gt;Node6</title>
<path fill="none" stroke="midnightblue" d="M301.925,-56.324C312.175,-48.1849 327.721,-35.8395 340.001,-26.0874"/>
<polygon fill="midnightblue" stroke="midnightblue" points="342.221,-28.7937 347.876,-19.8339 337.868,-23.3119 342.221,-28.7937"/>
</g>
<!-- Node7 -->
<g id="node8" class="node"><title>Node7</title>
<polygon fill="none" stroke="#bfbfbf" points="404.5,-0.5 404.5,-19.5 445.5,-19.5 445.5,-0.5 404.5,-0.5"/>
<text text-anchor="middle" x="425" y="-7.5" font-family="Helvetica,sans-Serif" font-size="10.00">string</text>
</g>
<!-- Node4&#45;&gt;Node7 -->
<g id="edge7" class="edge"><title>Node4&#45;&gt;Node7</title>
<path fill="none" stroke="midnightblue" d="M312.233,-56.4435C334.514,-47.4646 369.73,-33.2729 394.878,-23.1386"/>
<polygon fill="midnightblue" stroke="midnightblue" points="396.34,-26.3231 404.307,-19.339 393.724,-19.8305 396.34,-26.3231"/>
</g>
<!-- Node8&#45;&gt;Node6 -->
<g id="edge11" class="edge"><title>Node8&#45;&gt;Node6</title>
<path fill="none" stroke="midnightblue" d="M426.147,-56.324C413.784,-47.979 394.87,-35.2122 380.263,-25.3524"/>
<polygon fill="midnightblue" stroke="midnightblue" points="382.068,-22.3483 371.821,-19.6545 378.152,-28.1503 382.068,-22.3483"/>
</g>
<!-- Node8&#45;&gt;Node7 -->
<g id="edge10" class="edge"><title>Node8&#45;&gt;Node7</title>
<path fill="none" stroke="midnightblue" d="M436.688,-56.083C434.833,-48.9272 432.165,-38.6353 429.846,-29.6911"/>
<polygon fill="midnightblue" stroke="midnightblue" points="433.166,-28.5527 427.269,-19.7511 426.391,-30.3094 433.166,-28.5527"/>
</g>
<!-- Node9 -->
<g id="node10" class="node"><title>Node9</title>
<polygon fill="none" stroke="#bfbfbf" points="463.5,-0.5 463.5,-19.5 498.5,-19.5 498.5,-0.5 463.5,-0.5"/>
<text text-anchor="middle" x="481" y="-7.5" font-family="Helvetica,sans-Serif" font-size="10.00">map</text>
</g>
<!-- Node8&#45;&gt;Node9 -->
<g id="edge9" class="edge"><title>Node8&#45;&gt;Node9</title>
<path fill="none" stroke="midnightblue" d="M445.935,-56.083C451.929,-48.3768 460.752,-37.0333 468.048,-27.6531"/>
<polygon fill="midnightblue" stroke="midnightblue" points="470.817,-29.7934 474.194,-19.7511 465.291,-25.4958 470.817,-29.7934"/>
</g>
<!-- Node10&#45;&gt;Node5 -->
<g id="edge14" class="edge"><title>Node10&#45;&gt;Node5</title>
<path fill="none" stroke="midnightblue" d="M201.191,-56.324C218.351,-47.6641 244.946,-34.2424 264.747,-24.249"/>
<polygon fill="midnightblue" stroke="midnightblue" points="266.501,-27.2847 273.851,-19.6545 263.347,-21.0354 266.501,-27.2847"/>
</g>
<!-- Node10&#45;&gt;Node6 -->
<g id="edge15" class="edge"><title>Node10&#45;&gt;Node6</title>
<path fill="none" stroke="midnightblue" d="M211.729,-56.4435C241.6,-47.2262 289.273,-32.5157 322.249,-22.3402"/>
<polygon fill="midnightblue" stroke="midnightblue" points="323.452,-25.632 331.975,-19.339 321.388,-18.9432 323.452,-25.632"/>
</g>
<!-- Node11 -->
<g id="node12" class="node"><title>Node11</title>
<polygon fill="none" stroke="#bfbfbf" points="0,-0.5 0,-19.5 44,-19.5 44,-0.5 0,-0.5"/>
<text text-anchor="middle" x="22" y="-7.5" font-family="Helvetica,sans-Serif" font-size="10.00">cmath</text>
</g>
<!-- Node10&#45;&gt;Node11 -->
<g id="edge13" class="edge"><title>Node10&#45;&gt;Node11</title>
<path fill="none" stroke="midnightblue" d="M158.331,-56.4435C130.035,-47.0118 84.4847,-31.8282 53.9124,-21.6375"/>
<polygon fill="midnightblue" stroke="midnightblue" points="54.7589,-18.2304 44.1652,-18.3884 52.5452,-24.8711 54.7589,-18.2304"/>
</g>
<!-- Node12 -->
<g id="node13" class="node"><title>Node12</title>
<polygon fill="none" stroke="#bfbfbf" points="62,-0.5 62,-19.5 114,-19.5 114,-0.5 62,-0.5"/>
<text text-anchor="middle" x="88" y="-7.5" font-family="Helvetica,sans-Serif" font-size="10.00">sstream</text>
</g>
<!-- Node10&#45;&gt;Node12 -->
<g id="edge16" class="edge"><title>Node10&#45;&gt;Node12</title>
<path fill="none" stroke="midnightblue" d="M168.576,-56.324C153.46,-47.8215 130.185,-34.7288 112.529,-24.7975"/>
<polygon fill="midnightblue" stroke="midnightblue" points="113.817,-21.5066 103.386,-19.6545 110.386,-27.6077 113.817,-21.5066"/>
</g>
<!-- Node13 -->
<g id="node14" class="node"><title>Node13</title>
<polygon fill="none" stroke="#bfbfbf" points="132,-0.5 132,-19.5 182,-19.5 182,-0.5 132,-0.5"/>
<text text-anchor="middle" x="157" y="-7.5" font-family="Helvetica,sans-Serif" font-size="10.00">iomanip</text>
</g>
<!-- Node10&#45;&gt;Node13 -->
<g id="edge17" class="edge"><title>Node10&#45;&gt;Node13</title>
<path fill="none" stroke="midnightblue" d="M179.541,-56.083C175.846,-48.6913 170.477,-37.9533 165.906,-28.8111"/>
<polygon fill="midnightblue" stroke="midnightblue" points="168.978,-27.1301 161.376,-19.7511 162.717,-30.2606 168.978,-27.1301"/>
</g>
<!-- Node14 -->
<g id="node15" class="node"><title>Node14</title>
<polygon fill="none" stroke="#bfbfbf" points="200,-0.5 200,-19.5 250,-19.5 250,-0.5 200,-0.5"/>
<text text-anchor="middle" x="225" y="-7.5" font-family="Helvetica,sans-Serif" font-size="10.00">fstream</text>
</g>
<!-- Node10&#45;&gt;Node14 -->
<g id="edge18" class="edge"><title>Node10&#45;&gt;Node14</title>
<path fill="none" stroke="midnightblue" d="M190.77,-56.083C196.562,-48.4554 205.058,-37.2645 212.138,-27.9408"/>
<polygon fill="midnightblue" stroke="midnightblue" points="215.096,-29.8321 218.356,-19.7511 209.521,-25.5991 215.096,-29.8321"/>
</g>
</g>
</svg>
